<?xml version="1.0" standalone="no"?><!DOCTYPE svg PUBLIC "-//W3C//DTD SVG 1.1//EN" "http://www.w3.org/Graphics/SVG/1.1/DTD/svg11.dtd"><svg width="240" height="240" transform="translate(0,0)" version="1.1" xmlns="http://www.w3.org/2000/svg" xmlns:xlink="http://www.w3.org/1999/xlink"><defs xmlns="http://www.w3.org/1999/xhtml"><style type="text/css"><![CDATA[
svg .grid { stroke-width: 0.5px; stroke: rgb(187, 187, 187); opacity: 0.5; }
svg .domain { stroke-width: 3px; stroke: black; }
svg { border: none; }
svg .path { stroke-width: 3px; stroke: rgb(17, 172, 205); fill: none; }
svg text { font-style: normal; font-variant: normal; font-weight: normal; font-stretch: normal; font-size: 14px; line-height: normal; font-family: katex_math; }]]></style></defs><g transform="translate(40,40)"><g class="x-axis" transform="translate(0,80)" fill="none" font-size="10" font-family="sans-serif" text-anchor="middle"><path class="domain" stroke="#000" d="M0.5,0V0.5H160.5V0"/><g class="tick" opacity="1" transform="translate(0,0)"><line stroke="#000" y2="6" x1="0.5" x2="0.5"/><line class="grid" x1="0" y1="-80" x2="0" y2="80"/></g><g class="tick" opacity="1" transform="translate(20,0)"><line stroke="#000" y2="6" x1="0.5" x2="0.5"/><line class="grid" x1="0" y1="-80" x2="0" y2="80"/></g><g class="tick" opacity="1" transform="translate(40,0)"><line stroke="#000" y2="6" x1="0.5" x2="0.5"/><line class="grid" x1="0" y1="-80" x2="0" y2="80"/></g><g class="tick" opacity="1" transform="translate(60,0)"><line stroke="#000" y2="6" x1="0.5" x2="0.5"/><line class="grid" x1="0" y1="-80" x2="0" y2="80"/></g><g class="tick" opacity="1" transform="translate(80,0)"><line stroke="#000" y2="6" x1="0.5" x2="0.5"/><line class="grid" x1="0" y1="-80" x2="0" y2="80"/></g><g class="tick" opacity="1" transform="translate(100,0)"><line stroke="#000" y2="6" x1="0.5" x2="0.5"/><line class="grid" x1="0" y1="-80" x2="0" y2="80"/></g><g class="tick" opacity="1" transform="translate(120,0)"><line stroke="#000" y2="6" x1="0.5" x2="0.5"/><line class="grid" x1="0" y1="-80" x2="0" y2="80"/></g><g class="tick" opacity="1" transform="translate(140,0)"><line stroke="#000" y2="6" x1="0.5" x2="0.5"/><line class="grid" x1="0" y1="-80" x2="0" y2="80"/></g><g class="tick" opacity="1" transform="translate(160,0)"><line stroke="#000" y2="6" x1="0.5" x2="0.5"/><line class="grid" x1="0" y1="-80" x2="0" y2="80"/></g><text x="160" dx=".71em" style="text-anchor: start; font-size: 16px; fill: black;">t</text></g><g class="y-axis" transform="translate(0,0)" fill="none" font-size="10" font-family="sans-serif" text-anchor="end"><path class="domain" stroke="#000" d="M0,160.5H0.5V0.5H0"/><g class="tick" opacity="1" transform="translate(0,160)"><line stroke="#000" x2="-6" y1="0.5" y2="0.5"/><line class="grid" x1="0" y1="0" x2="160" y2="0"/></g><g class="tick" opacity="1" transform="translate(0,140)"><line stroke="#000" x2="-6" y1="0.5" y2="0.5"/><line class="grid" x1="0" y1="0" x2="160" y2="0"/></g><g class="tick" opacity="1" transform="translate(0,120)"><line stroke="#000" x2="-6" y1="0.5" y2="0.5"/><line class="grid" x1="0" y1="0" x2="160" y2="0"/></g><g class="tick" opacity="1" transform="translate(0,100)"><line stroke="#000" x2="-6" y1="0.5" y2="0.5"/><line class="grid" x1="0" y1="0" x2="160" y2="0"/></g><g class="tick" opacity="1" transform="translate(0,80)"><line stroke="#000" x2="-6" y1="0.5" y2="0.5"/><line class="grid" x1="0" y1="0" x2="160" y2="0"/></g><g class="tick" opacity="1" transform="translate(0,60)"><line stroke="#000" x2="-6" y1="0.5" y2="0.5"/><line class="grid" x1="0" y1="0" x2="160" y2="0"/></g><g class="tick" opacity="1" transform="translate(0,40)"><line stroke="#000" x2="-6" y1="0.5" y2="0.5"/><line class="grid" x1="0" y1="0" x2="160" y2="0"/></g><g class="tick" opacity="1" transform="translate(0,20)"><line stroke="#000" x2="-6" y1="0.5" y2="0.5"/><line class="grid" x1="0" y1="0" x2="160" y2="0"/></g><g class="tick" opacity="1" transform="translate(0,0)"><line stroke="#000" x2="-6" y1="0.5" y2="0.5"/><line class="grid" x1="0" y1="0" x2="160" y2="0"/></g><text dx="6" dy="-6" style="text-anchor: start; font-size: 16px; fill: black;">v(t)</text></g><path class="path" d="M0,80L1.6,78.4L3.2,76.8L4.8,75.19999999999999L6.4,73.6L8,72L9.6,70.39999999999999L11.200000000000001,68.79999999999998L12.8,67.2L14.399999999999999,65.60000000000001L16,64L17.6,62.400000000000006L19.2,60.8L20.8,59.2L22.400000000000002,57.599999999999994L24,56L25.6,54.39999999999999L27.200000000000003,52.8L28.799999999999997,51.20000000000002L30.4,49.60000000000001L32,48L33.6,46.400000000000006L35.2,44.80000000000001L36.800000000000004,43.2L38.4,41.599999999999994L40,80L41.6,78.4L43.2,76.8L44.800000000000004,75.19999999999999L46.4,73.6L48,72L49.6,70.39999999999999L51.2,68.79999999999998L52.800000000000004,67.19999999999999L54.400000000000006,65.6L56,64L57.599999999999994,62.400000000000006L59.2,60.8L60.8,59.2L62.400000000000006,57.599999999999994L64,56L65.6,54.400000000000006L67.2,52.80000000000001L68.8,51.20000000000002L70.4,49.60000000000001L72,48L73.60000000000001,46.400000000000006L75.19999999999999,44.80000000000001L76.8,43.2L78.4,41.599999999999994L80,80L81.6,78.4L83.2,76.8L84.80000000000001,75.19999999999999L86.4,73.6L88,72L89.60000000000001,70.39999999999999L91.19999999999999,68.80000000000001L92.8,67.2L94.39999999999999,65.60000000000001L96,64L97.6,62.400000000000006L99.2,60.8L100.8,59.2L102.4,57.599999999999994L104,56L105.60000000000001,54.39999999999999L107.2,52.8L108.80000000000001,51.19999999999999L110.39999999999999,49.60000000000001L112,48L113.6,46.400000000000006L115.19999999999999,44.80000000000001L116.8,43.2L118.4,41.599999999999994L120,80L121.6,78.4L123.2,76.8L124.80000000000001,75.19999999999999L126.4,73.6L128,72L129.60000000000002,70.39999999999999L131.2,68.80000000000001L132.79999999999998,67.2L134.4,65.60000000000001L136,64L137.6,62.400000000000006L139.2,60.8L140.8,59.2L142.4,57.599999999999994L144,56L145.6,54.39999999999999L147.20000000000002,52.8L148.8,51.19999999999999L150.39999999999998,49.60000000000001L152,48L153.6,46.400000000000006L155.2,44.80000000000001L156.8,43.2L158.4,41.599999999999994L160,80"/></g></svg>