<?xml version="1.0" standalone="no"?><!DOCTYPE svg PUBLIC "-//W3C//DTD SVG 1.1//EN" "http://www.w3.org/Graphics/SVG/1.1/DTD/svg11.dtd"><svg width="240" height="240" transform="translate(0,0)" version="1.1" xmlns="http://www.w3.org/2000/svg" xmlns:xlink="http://www.w3.org/1999/xlink"><defs xmlns="http://www.w3.org/1999/xhtml"><style type="text/css"><![CDATA[
svg .grid { stroke-width: 0.5px; stroke: rgb(187, 187, 187); opacity: 0.5; }
svg .domain { stroke-width: 3px; stroke: black; }
svg { border: none; }
svg .path { stroke-width: 3px; stroke: rgb(17, 172, 205); fill: none; }
svg text { font-style: normal; font-variant: normal; font-weight: normal; font-stretch: normal; font-size: 12px; line-height: normal; font-family: katex_math; }]]></style></defs><g transform="translate(40,40)"><g class="x-axis" transform="translate(0,80)" fill="none" font-size="10" font-family="sans-serif" text-anchor="middle"><path class="domain" stroke="#000" d="M0.5,0V0.5H160.5V0"/><g class="tick" opacity="1" transform="translate(0,0)"><line stroke="#000" y2="6" x1="0.5" x2="0.5"/><line class="grid" x1="0" y1="-80" x2="0" y2="80"/></g><g class="tick" opacity="1" transform="translate(20,0)"><line stroke="#000" y2="6" x1="0.5" x2="0.5"/><line class="grid" x1="0" y1="-80" x2="0" y2="80"/></g><g class="tick" opacity="1" transform="translate(40,0)"><line stroke="#000" y2="6" x1="0.5" x2="0.5"/><line class="grid" x1="0" y1="-80" x2="0" y2="80"/></g><g class="tick" opacity="1" transform="translate(60,0)"><line stroke="#000" y2="6" x1="0.5" x2="0.5"/><line class="grid" x1="0" y1="-80" x2="0" y2="80"/></g><g class="tick" opacity="1" transform="translate(80,0)"><line stroke="#000" y2="6" x1="0.5" x2="0.5"/><line class="grid" x1="0" y1="-80" x2="0" y2="80"/></g><g class="tick" opacity="1" transform="translate(100,0)"><line stroke="#000" y2="6" x1="0.5" x2="0.5"/><line class="grid" x1="0" y1="-80" x2="0" y2="80"/></g><g class="tick" opacity="1" transform="translate(120,0)"><line stroke="#000" y2="6" x1="0.5" x2="0.5"/><line class="grid" x1="0" y1="-80" x2="0" y2="80"/></g><g class="tick" opacity="1" transform="translate(140,0)"><line stroke="#000" y2="6" x1="0.5" x2="0.5"/><line class="grid" x1="0" y1="-80" x2="0" y2="80"/></g><g class="tick" opacity="1" transform="translate(160,0)"><line stroke="#000" y2="6" x1="0.5" x2="0.5"/><line class="grid" x1="0" y1="-80" x2="0" y2="80"/></g><text x="160" dx=".71em" style="text-anchor: start; font-size: 16px; fill: black;">t</text></g><g class="y-axis" transform="translate(80,0)" fill="none" font-size="10" font-family="sans-serif" text-anchor="end"><path class="domain" stroke="#000" d="M0,160.5H0.5V0.5H0"/><g class="tick" opacity="1" transform="translate(0,160)"><line stroke="#000" x2="-6" y1="0.5" y2="0.5"/><line class="grid" x1="-80" y1="0" x2="80" y2="0"/></g><g class="tick" opacity="1" transform="translate(0,140)"><line stroke="#000" x2="-6" y1="0.5" y2="0.5"/><line class="grid" x1="-80" y1="0" x2="80" y2="0"/></g><g class="tick" opacity="1" transform="translate(0,120)"><line stroke="#000" x2="-6" y1="0.5" y2="0.5"/><line class="grid" x1="-80" y1="0" x2="80" y2="0"/></g><g class="tick" opacity="1" transform="translate(0,100)"><line stroke="#000" x2="-6" y1="0.5" y2="0.5"/><line class="grid" x1="-80" y1="0" x2="80" y2="0"/></g><g class="tick" opacity="1" transform="translate(0,80)"><line stroke="#000" x2="-6" y1="0.5" y2="0.5"/><line class="grid" x1="-80" y1="0" x2="80" y2="0"/></g><g class="tick" opacity="1" transform="translate(0,60)"><line stroke="#000" x2="-6" y1="0.5" y2="0.5"/><line class="grid" x1="-80" y1="0" x2="80" y2="0"/></g><g class="tick" opacity="1" transform="translate(0,40)"><line stroke="#000" x2="-6" y1="0.5" y2="0.5"/><line class="grid" x1="-80" y1="0" x2="80" y2="0"/></g><g class="tick" opacity="1" transform="translate(0,20)"><line stroke="#000" x2="-6" y1="0.5" y2="0.5"/><line class="grid" x1="-80" y1="0" x2="80" y2="0"/></g><g class="tick" opacity="1" transform="translate(0,0)"><line stroke="#000" x2="-6" y1="0.5" y2="0.5"/><line class="grid" x1="-80" y1="0" x2="80" y2="0"/></g><text dx="6" dy="-6" style="text-anchor: start; font-size: 16px; fill: black;">v(t)</text></g><path class="path" d="M0,80L1.6000000000000014,80L3.200000000000003,80L4.800000000000004,80L6.399999999999997,80L7.999999999999998,80L9.6,80L11.200000000000001,80L12.800000000000002,80L14.399999999999995,80L15.999999999999996,80L17.599999999999998,40L19.2,40L20.8,40L22.400000000000002,40L24.000000000000004,40L25.600000000000005,40L27.200000000000006,40L28.799999999999997,40L30.4,40L32,40L33.599999999999994,40L35.199999999999996,40L36.8,40L38.4,40L40,40L41.6,40L43.2,40L44.800000000000004,40L46.4,40L48,40L49.6,80L51.2,80L52.800000000000004,80L54.400000000000006,80L56,80L57.599999999999994,80L59.2,80L60.8,80L62.400000000000006,80L64,80L65.6,80L67.2,80L68.8,80L70.4,80L72,80L73.60000000000001,80L75.19999999999999,80L76.8,80L78.4,80L80,60L81.6,40L83.2,40L84.80000000000001,40L86.4,40L88,40L89.60000000000001,40L91.19999999999999,40L92.8,40L94.39999999999999,40L96,40L97.6,40L99.2,40L100.8,40L102.4,40L104,40L105.60000000000001,40L107.2,40L108.80000000000001,40L110.39999999999999,40L112,80L113.6,80L115.19999999999999,80L116.8,80L118.4,80L120,80L121.6,80L123.2,80L124.80000000000001,80L126.4,80L128,80L129.60000000000002,80L131.2,80L132.79999999999998,80L134.4,80L136,80L137.6,80L139.2,80L140.8,80L142.4,80L144,40L145.6,40L147.20000000000002,40L148.8,40L150.39999999999998,40L152,40L153.6,40L155.2,40L156.8,40L158.4,40L160,40"/></g></svg>