<?xml version="1.0" standalone="no"?><!DOCTYPE svg PUBLIC "-//W3C//DTD SVG 1.1//EN" "http://www.w3.org/Graphics/SVG/1.1/DTD/svg11.dtd"><svg width="320" height="320" transform="translate(0,0)" version="1.1" xmlns="http://www.w3.org/2000/svg" xmlns:xlink="http://www.w3.org/1999/xlink"><defs xmlns="http://www.w3.org/1999/xhtml"><style type="text/css"><![CDATA[
svg .grid { stroke-width: 0.5px; stroke: rgb(187, 187, 187); opacity: 0.5; }
svg .domain { stroke-width: 3px; stroke: black; }
svg { border: none; }
svg .path { stroke-width: 3px; stroke: rgb(17, 172, 205); fill: none; }
svg text { font-style: normal; font-variant: normal; font-weight: normal; font-stretch: normal; font-size: 16px; line-height: normal; font-family: katex_math; }
svg .tick text { font-style: normal; font-variant: normal; font-weight: normal; font-stretch: normal; font-size: 12px; line-height: normal; font-family: katex_math; }]]></style></defs><g transform="translate(40,40)"><g class="x-axis" transform="translate(0,120)" fill="none" font-size="10" font-family="sans-serif" text-anchor="middle"><path class="domain" stroke="#000" d="M0.5,0V0.5H240.5V0"/><g class="tick" opacity="1" transform="translate(0,0)"><line stroke="#000" y2="6" x1="0.5" x2="0.5"/><line class="grid" x1="0" y1="-120" x2="0" y2="120"/></g><g class="tick" opacity="1" transform="translate(30,0)"><line stroke="#000" y2="6" x1="0.5" x2="0.5"/><line class="grid" x1="0" y1="-120" x2="0" y2="120"/></g><g class="tick" opacity="1" transform="translate(60,0)"><line stroke="#000" y2="6" x1="0.5" x2="0.5"/><line class="grid" x1="0" y1="-120" x2="0" y2="120"/></g><g class="tick" opacity="1" transform="translate(90,0)"><line stroke="#000" y2="6" x1="0.5" x2="0.5"/><line class="grid" x1="0" y1="-120" x2="0" y2="120"/></g><g class="tick" opacity="1" transform="translate(120,0)"><line stroke="#000" y2="6" x1="0.5" x2="0.5"/><line class="grid" x1="0" y1="-120" x2="0" y2="120"/></g><g class="tick" opacity="1" transform="translate(150,0)"><line stroke="#000" y2="6" x1="0.5" x2="0.5"/><line class="grid" x1="0" y1="-120" x2="0" y2="120"/></g><g class="tick" opacity="1" transform="translate(180,0)"><line stroke="#000" y2="6" x1="0.5" x2="0.5"/><line class="grid" x1="0" y1="-120" x2="0" y2="120"/></g><g class="tick" opacity="1" transform="translate(210,0)"><line stroke="#000" y2="6" x1="0.5" x2="0.5"/><line class="grid" x1="0" y1="-120" x2="0" y2="120"/></g><g class="tick" opacity="1" transform="translate(240,0)"><line stroke="#000" y2="6" x1="0.5" x2="0.5"/><line class="grid" x1="0" y1="-120" x2="0" y2="120"/></g><text x="240" dx=".71em" style="text-anchor: start; font-size: 16px; fill: black;">t</text></g><g class="y-axis" transform="translate(30,0)" fill="none" font-size="10" font-family="sans-serif" text-anchor="end"><path class="domain" stroke="#000" d="M0,240.5H0.5V0.5H0"/><g class="tick" opacity="1" transform="translate(0,240)"><line stroke="#000" x2="-6" y1="0.5" y2="0.5"/><line class="grid" x1="-30" y1="0" x2="210" y2="0"/></g><g class="tick" opacity="1" transform="translate(0,210)"><line stroke="#000" x2="-6" y1="0.5" y2="0.5"/><line class="grid" x1="-30" y1="0" x2="210" y2="0"/></g><g class="tick" opacity="1" transform="translate(0,180)"><line stroke="#000" x2="-6" y1="0.5" y2="0.5"/><line class="grid" x1="-30" y1="0" x2="210" y2="0"/></g><g class="tick" opacity="1" transform="translate(0,150)"><line stroke="#000" x2="-6" y1="0.5" y2="0.5"/><line class="grid" x1="-30" y1="0" x2="210" y2="0"/></g><g class="tick" opacity="1" transform="translate(0,120)"><line stroke="#000" x2="-6" y1="0.5" y2="0.5"/><line class="grid" x1="-30" y1="0" x2="210" y2="0"/></g><g class="tick" opacity="1" transform="translate(0,90)"><line stroke="#000" x2="-6" y1="0.5" y2="0.5"/><line class="grid" x1="-30" y1="0" x2="210" y2="0"/></g><g class="tick" opacity="1" transform="translate(0,60)"><line stroke="#000" x2="-6" y1="0.5" y2="0.5"/><line class="grid" x1="-30" y1="0" x2="210" y2="0"/></g><g class="tick" opacity="1" transform="translate(0,30)"><line stroke="#000" x2="-6" y1="0.5" y2="0.5"/><line class="grid" x1="-30" y1="0" x2="210" y2="0"/></g><g class="tick" opacity="1" transform="translate(0,0)"><line stroke="#000" x2="-6" y1="0.5" y2="0.5"/><line class="grid" x1="-30" y1="0" x2="210" y2="0"/></g><text dx="6" dy="-6" style="text-anchor: start; font-size: 16px; fill: black;">v(t)</text></g><path class="path" d="M0,174.5578456095409L2.3999999999999986,177.83897976914687L4.800000000000001,179.64259213188456L7.199999999999999,179.922608638535L9.600000000000001,178.67187614611896L12,175.92234515803358L14.399999999999999,171.7442536346003L16.8,166.24433273393817L19.2,159.56308031828837L21.599999999999998,151.871171875253L24,143.36510053851902L26.4,134.26215758562807L28.799999999999997,124.79488163815037L31.200000000000003,115.20511836184963L33.6,105.73784241437193L36,96.63489946148098L38.4,88.128828124747L40.800000000000004,80.4369196817116L43.199999999999996,73.75566726606183L45.6,68.25574636539969L48,64.07765484196642L50.4,61.32812385388104L52.8,60.07739136146503L55.2,60.357407868115445L57.599999999999994,62.1610202308531L60,65.44215439045908L62.400000000000006,70.11699235327902L64.80000000000001,76.06611335818491L67.2,83.13754453165731L69.6,91.15064310068107L72,99.9007109906457L74.4,109.16422392634601L76.8,118.70454145643423L79.2,128.27795203627363L81.60000000000001,137.6398987449341L84,146.5512265976911L86.39999999999999,154.78429186372455L88.8,162.12877732384834L91.2,168.39706491499442L93.60000000000001,173.4290285149193L96,177.09612443337096L98.39999999999999,179.30467511634782L100.8,179.9982621798015L103.2,179.1591676417002L105.6,176.80882653555653L108,173.00727934320918L110.4,167.85163823470225L112.8,161.4736062958276L115.19999999999999,154.03611311573812L117.6,145.72915268000375L120,136.76492989193554L122.4,127.37243970639301L124.80000000000001,117.79161735445038L127.2,108.26720909396735L129.60000000000002,99.04252006039584L132,90.35319893168347L134.4,82.4212181807006L136.79999999999998,75.44920369225193L139.2,69.61525859706123L141.6,65.06841355013464L144,61.92481967811082L146.4,60.26478144840871L148.8,60.13070525681553L151.2,61.526016137733905L153.6,64.41507027019404L156,68.72406551470317L158.4,74.34292672087355L160.8,81.12811764482893L163.20000000000002,88.9063076447415L165.6,97.47879948717224L168,106.62660515398514L170.39999999999998,116.11603998614605L172.79999999999998,125.70469225958166L175.2,135.14761569769547L177.6,144.20358673012618L180,152.64126665336218L182.4,160.2451112781502L184.8,166.8208770991939L187.20000000000002,172.20058332965237L189.60000000000002,176.2468030431176L192,178.8561738039895L194.4,179.962038105675L196.79999999999998,179.53614616547318L199.2,177.5893775775137L201.6,174.171463388811L204,169.36971569812255L206.4,163.30679723055812L208.8,156.13758786512346L211.2,148.0452281611096L213.6,139.2364409531603L216,129.93625052689856L218.4,120.38223427605912L220.8,110.81845368503522L223.20000000000002,101.48921967252056L225.6,92.63285156324378L228,84.47558911756661L230.39999999999998,77.22581313878766L232.79999999999998,71.06872229524123L235.2,66.16160214007755L237.6,62.62980718366396L240,60.563558658307784" style="fill: none; stroke: rgb(17, 172, 205); stroke-width: 3px;"/></g></svg>