<?xml version="1.0" encoding="utf-8"?>
<!-- Generator: Adobe Illustrator 19.1.0, SVG Export Plug-In . SVG Version: 6.00 Build 0)  -->
<svg version="1.1"
	 id="svg3971" sodipodi:docname="Butter_gun_2_fourbreads WMc.svg" inkscape:version="0.91 r13725" xmlns:dc="http://purl.org/dc/elements/1.1/" xmlns:inkscape="http://www.inkscape.org/namespaces/inkscape" xmlns:rdf="http://www.w3.org/1999/02/22-rdf-syntax-ns#" xmlns:svg="http://www.w3.org/2000/svg" xmlns:sodipodi="http://sodipodi.sourceforge.net/DTD/sodipodi-0.dtd" xmlns:cc="http://creativecommons.org/ns#"
	 xmlns="http://www.w3.org/2000/svg" xmlns:xlink="http://www.w3.org/1999/xlink" x="0px" y="0px" viewBox="-119 119 720.7 324"
	 style="enable-background:new -119 119 720.7 324;" xml:space="preserve">
<style type="text/css">
	.st0{display:none;}
	.st1{display:inline;}
	.st2{fill:#314453;}
	.st3{fill:none;}
	.st4{fill:none;stroke:#FFFFCC;stroke-width:2;stroke-linecap:round;stroke-miterlimit:10;}
	.st5{fill:none;stroke:#FFFFCC;stroke-width:2;stroke-linecap:round;stroke-miterlimit:10;stroke-dasharray:9.8189,4.9094;}
	.st6{fill:#FCE15B;}
	.st7{fill:#9CDCEB;}
	.st8{fill:#1C758A;}
	.st9{fill:#4FBAD4;}
	.st10{clip-path:url(#SVGID_2_);fill:#FFEA94;}
	.st11{clip-path:url(#SVGID_4_);fill:#FFEA94;}
	.st12{clip-path:url(#SVGID_6_);fill:#FFEA93;}
	.st13{clip-path:url(#SVGID_8_);fill:#FFEA92;}
	.st14{clip-path:url(#SVGID_10_);fill:#FFEA91;}
	.st15{clip-path:url(#SVGID_12_);fill:#FFE990;}
	.st16{clip-path:url(#SVGID_14_);fill:#FFE98F;}
	.st17{clip-path:url(#SVGID_16_);fill:#FFE98E;}
	.st18{clip-path:url(#SVGID_18_);fill:#FFE98D;}
	.st19{clip-path:url(#SVGID_20_);fill:#FFE98C;}
	.st20{clip-path:url(#SVGID_22_);fill:#FFE98B;}
	.st21{clip-path:url(#SVGID_24_);fill:#FEE88A;}
	.st22{clip-path:url(#SVGID_26_);fill:#FEE889;}
	.st23{clip-path:url(#SVGID_28_);fill:#FEE888;}
	.st24{clip-path:url(#SVGID_30_);fill:#FEE887;}
	.st25{clip-path:url(#SVGID_32_);fill:#FEE886;}
	.st26{clip-path:url(#SVGID_34_);fill:#FEE885;}
	.st27{clip-path:url(#SVGID_36_);fill:#FEE784;}
	.st28{clip-path:url(#SVGID_38_);fill:#FEE783;}
	.st29{clip-path:url(#SVGID_40_);fill:#FEE782;}
	.st30{clip-path:url(#SVGID_42_);fill:#FEE781;}
	.st31{clip-path:url(#SVGID_44_);fill:#FEE780;}
	.st32{clip-path:url(#SVGID_46_);fill:#FEE77F;}
	.st33{clip-path:url(#SVGID_48_);fill:#FEE67E;}
	.st34{clip-path:url(#SVGID_50_);fill:#FEE67D;}
	.st35{clip-path:url(#SVGID_52_);fill:#FEE67C;}
	.st36{clip-path:url(#SVGID_54_);fill:#FEE67B;}
	.st37{clip-path:url(#SVGID_56_);fill:#FEE67A;}
	.st38{clip-path:url(#SVGID_58_);fill:#FEE679;}
	.st39{clip-path:url(#SVGID_60_);fill:#FEE678;}
	.st40{clip-path:url(#SVGID_62_);fill:#FDE576;}
	.st41{clip-path:url(#SVGID_64_);fill:#FDE575;}
	.st42{clip-path:url(#SVGID_66_);fill:#FDE574;}
	.st43{clip-path:url(#SVGID_68_);fill:#FDE573;}
	.st44{clip-path:url(#SVGID_70_);fill:#FDE572;}
	.st45{clip-path:url(#SVGID_72_);fill:#FDE571;}
	.st46{clip-path:url(#SVGID_74_);fill:#FDE470;}
	.st47{clip-path:url(#SVGID_76_);fill:#FDE46F;}
	.st48{clip-path:url(#SVGID_78_);fill:#FDE46E;}
	.st49{clip-path:url(#SVGID_80_);fill:#FDE46D;}
	.st50{clip-path:url(#SVGID_82_);fill:#FDE46C;}
	.st51{clip-path:url(#SVGID_84_);fill:#FDE46B;}
	.st52{clip-path:url(#SVGID_86_);fill:#FDE36A;}
	.st53{clip-path:url(#SVGID_88_);fill:#FDE369;}
	.st54{clip-path:url(#SVGID_90_);fill:#FDE368;}
	.st55{clip-path:url(#SVGID_92_);fill:#FDE367;}
	.st56{clip-path:url(#SVGID_94_);fill:#FDE366;}
	.st57{clip-path:url(#SVGID_96_);fill:#FDE365;}
	.st58{clip-path:url(#SVGID_98_);fill:#FCE264;}
	.st59{clip-path:url(#SVGID_100_);fill:#FCE263;}
	.st60{clip-path:url(#SVGID_102_);fill:#FCE262;}
	.st61{clip-path:url(#SVGID_104_);fill:#FCE261;}
	.st62{clip-path:url(#SVGID_106_);fill:#FCE260;}
	.st63{clip-path:url(#SVGID_108_);fill:#FCE25F;}
	.st64{clip-path:url(#SVGID_110_);fill:#FCE15E;}
	.st65{clip-path:url(#SVGID_112_);fill:#FCE15D;}
	.st66{clip-path:url(#SVGID_114_);fill:#FCE15C;}
	.st67{clip-path:url(#SVGID_116_);fill:#FCE15B;}
	.st68{clip-path:url(#SVGID_118_);fill:#FCE15B;}
	.st69{fill:none;stroke:#4FBAD4;stroke-width:7;stroke-linecap:round;stroke-miterlimit:10;}
	.st70{fill:#E2A86D;}
</style>
<sodipodi:namedview  inkscape:current-layer="svg3971" inkscape:window-maximized="0" inkscape:window-y="43" inkscape:window-x="20" inkscape:window-height="1223" inkscape:window-width="2283" inkscape:pageshadow="2" inkscape:pageopacity="0" id="namedview4278" inkscape:cx="360.4" inkscape:cy="162" borderopacity="1" bordercolor="#666666" objecttolerance="10" inkscape:zoom="2.9758602" showgrid="false" guidetolerance="10" gridtolerance="10" pagecolor="#ffffff">
	</sodipodi:namedview>
<g id="Layer_1">
</g>
<g id="Layer_2">
</g>
<g id="Layer_4">
</g>
<g id="Layer_3">
</g>
<g id="Layer_8">
</g>
<g id="Layer_5">
</g>
<g id="Layer_5_copy">
	<g id="Layer_9">
	</g>
	<g id="Layer_7" class="st0">
	</g>
	<g id="Layer_7_copy">
	</g>
	<g id="Layer_7_copy_2" class="st0">
		<g id="Layer_12_copy" class="st1">
		</g>
	</g>
	<g id="Layer_17">
	</g>
	<g id="Layer_7_copy_3" class="st0">
		<g id="Layer_12_copy_2" class="st1">
		</g>
	</g>
	<g id="Layer_15">
	</g>
</g>
<g id="Layer_11" class="st0">
</g>
<g id="Layer_18">
	<g id="Layer_21">
	</g>
	<g id="Layer_22">
	</g>
	<g id="Layer_19">
	</g>
	<g id="Layer_20">
	</g>
</g>
<g id="g3996">
	<path id="path3998" inkscape:connector-curvature="0" class="st2" d="M575.3,443h-668c-14.6,0-26.4-11.8-26.4-26.4V145.4
		c0-14.6,11.8-26.4,26.4-26.4h668c14.6,0,26.4,11.8,26.4,26.4v271.2C601.6,431.2,589.8,443,575.3,443z"/>
</g>
<g>
	<line class="st3" x1="110.2" y1="252.9" x2="298.1" y2="283.8"/>
	<g>
		<line class="st4" x1="110.2" y1="252.9" x2="114.8" y2="253.7"/>
		<line class="st5" x1="119.3" y1="254.4" x2="291.4" y2="282.7"/>
		<line class="st4" x1="293.6" y1="283.1" x2="298.1" y2="283.8"/>
	</g>
</g>
<g id="g4064">
	<polygon id="polygon4066" class="st6" points="281.3,217.5 313.6,249.9 314.9,312.9 281.3,280.8 	"/>
</g>
<g id="g4094">
</g>
<g id="g4096">
	<path id="path4098" inkscape:connector-curvature="0" class="st7" d="M-60.9,305.4l-22.8,82.1c-2.3,8.4,3.1,17,10.9,17h27.1h0.2
		h19.6c6.3,0,11-5.9,11-13.1v-82.1c0-7.2-4.7-13.1-11-13.1H-50C-55,296.3-59.4,300-60.9,305.4L-60.9,305.4z"/>
</g>
<g id="g4100">
	<path id="path4102" inkscape:connector-curvature="0" class="st8" d="M11.3,313.3c-5.6,2.8-9.4,7.8-10.6,13.5
		c-0.4,1.7-2,2.9-3.7,2.8l0,0c-2-0.1-3.5-1.8-3.3-3.8l1.4-21.3c0.1-2,1.8-3.5,3.8-3.3l19.5,1.3c2,0.1,3.5,1.8,3.3,3.8l-0.1,1.8
		c-0.1,1.8-1.5,3.2-3.2,3.3C15.9,311.5,13.5,312.2,11.3,313.3z"/>
</g>
<g id="g4104">
	<path id="path4106" inkscape:connector-curvature="0" class="st9" d="M-84,280l21.4,26.7c0.7,0.9,1.8,1.4,2.9,1.4h4.9H87.1
		c4.1,0,7.5-3.3,7.5-7.5v-19.1c0-4.1-3.3-7.5-7.5-7.5H-81.1C-84.2,274-86,277.6-84,280z"/>
	<path id="path4108" inkscape:connector-curvature="0" class="st9" d="M87.1,309H-59.7c-1.4,0-2.8-0.6-3.7-1.8l-21.4-26.7
		c-1.1-1.4-1.4-3.3-0.6-5c0.8-1.6,2.4-2.7,4.2-2.7l0,0H87.1c4.7,0,8.5,3.8,8.5,8.5v19.1C95.6,305.2,91.8,309,87.1,309L87.1,309z
		 M-83.2,279.4l21.4,26.6c0.5,0.6,1.3,1,2.1,1H87.1c3.6,0,6.5-2.9,6.5-6.5v-19.1c0-3.6-2.9-6.5-6.5-6.5H-81.1c-1.1,0-2,0.6-2.4,1.5
		C-84,277.5-83.9,278.5-83.2,279.4L-83.2,279.4z"/>
</g>
<g id="g4110">
	<path id="path4112" inkscape:connector-curvature="0" class="st8" d="M96.8,291.8L96.8,291.8c0-2.1-1.7-3.8-3.8-3.8H-76.5
		c-2.1,0-3.8,1.7-3.8,3.8l0,0c0,2.1,1.7,3.8,3.8,3.8H93C95.1,295.6,96.8,293.9,96.8,291.8z"/>
	<path id="path4114" inkscape:connector-curvature="0" class="st8" d="M93.1,296.1H-76.4c-2.4,0-4.3-1.9-4.3-4.3s1.9-4.3,4.3-4.3
		H93.1c2.4,0,4.3,1.9,4.3,4.3S95.4,296.1,93.1,296.1z M-76.4,288.5c-1.8,0-3.3,1.5-3.3,3.3s1.5,3.3,3.3,3.3H93.1
		c1.8,0,3.3-1.5,3.3-3.3s-1.5-3.3-3.3-3.3H-76.4z"/>
</g>
<g id="g4116">
	<path id="path4118" inkscape:connector-curvature="0" class="st8" d="M-55.8,231.1c-12.3,0-23.3-5.8-30.3-14.8
		c-2-2.5-5.4-3.2-8.2-1.6l-1,0.6c-3,1.7-4.1,5.6-2.3,8.6l21.4,37.1c1.7,3,5.6,4.1,8.6,2.3l34-19.6c3-1.7,4.1-5.6,2.3-8.6l-2.3-4.1
		c-1.6-2.8-4.9-3.8-7.9-2.7C-45.9,230.1-50.7,231.1-55.8,231.1z"/>
</g>
<g id="g4120">
	<path id="path4122" inkscape:connector-curvature="0" class="st7" d="M-56.3,229.6c-2.3,14.5-14.4,24.8-31.7,26.6
		c-3,0.3-5.3,2.3-5.3,4.7v8.7c0,2.6,2.7,4.7,6,4.7h189.8c3.3,0,6-2.1,6-4.7v-40.1c0-2.6-2.7-4.7-6-4.7H-50.8
		C-53.9,225-55.9,227.2-56.3,229.6z"/>
</g>
<g id="g4124">
	<g id="g4126">
		<g>
			<g>
				<defs>
					<path id="SVGID_1_" d="M-66.5,325l-17.2,62.6C-86,396-80.5,405-72.8,405h27.1h0.2h19.6c6.3,0,11.7-6.3,11.7-13.5V325
						C-14.2,325-66.5,325-66.5,325z"/>
				</defs>
				<clipPath id="SVGID_2_">
					<use xlink:href="#SVGID_1_"  style="overflow:visible;"/>
				</clipPath>
				<path id="polygon4134" class="st10" d="M-86,325h19.5H-86z"/>
			</g>
		</g>
		<g>
			<g>
				<defs>
					<path id="SVGID_3_" d="M-66.5,325l-17.2,62.6C-86,396-80.5,405-72.8,405h27.1h0.2h19.6c6.3,0,11.7-6.3,11.7-13.5V325
						C-14.2,325-66.5,325-66.5,325z"/>
				</defs>
				<clipPath id="SVGID_4_">
					<use xlink:href="#SVGID_3_"  style="overflow:visible;"/>
				</clipPath>
				<polygon id="polygon4136" class="st11" points="-86.2,325 -66.5,325 -14.2,325 -14.2,326 -86.2,326 				"/>
			</g>
		</g>
		<g>
			<g>
				<defs>
					<path id="SVGID_5_" d="M-66.5,325l-17.2,62.6C-86,396-80.5,405-72.8,405h27.1h0.2h19.6c6.3,0,11.7-6.3,11.7-13.5V325
						C-14.2,325-66.5,325-66.5,325z"/>
				</defs>
				<clipPath id="SVGID_6_">
					<use xlink:href="#SVGID_5_"  style="overflow:visible;"/>
				</clipPath>
				<rect id="rect4138" x="-86.2" y="326" class="st12" width="72" height="2"/>
			</g>
		</g>
		<g>
			<g>
				<defs>
					<path id="SVGID_7_" d="M-66.5,325l-17.2,62.6C-86,396-80.5,405-72.8,405h27.1h0.2h19.6c6.3,0,11.7-6.3,11.7-13.5V325
						C-14.2,325-66.5,325-66.5,325z"/>
				</defs>
				<clipPath id="SVGID_8_">
					<use xlink:href="#SVGID_7_"  style="overflow:visible;"/>
				</clipPath>
				<rect id="rect4140" x="-86.2" y="328" class="st13" width="72" height="1"/>
			</g>
		</g>
		<g>
			<g>
				<defs>
					<path id="SVGID_9_" d="M-66.5,325l-17.2,62.6C-86,396-80.5,405-72.8,405h27.1h0.2h19.6c6.3,0,11.7-6.3,11.7-13.5V325
						C-14.2,325-66.5,325-66.5,325z"/>
				</defs>
				<clipPath id="SVGID_10_">
					<use xlink:href="#SVGID_9_"  style="overflow:visible;"/>
				</clipPath>
				<rect id="rect4142" x="-86.2" y="329" class="st14" width="72" height="1"/>
			</g>
		</g>
		<g>
			<g>
				<defs>
					<path id="SVGID_11_" d="M-66.5,325l-17.2,62.6C-86,396-80.5,405-72.8,405h27.1h0.2h19.6c6.3,0,11.7-6.3,11.7-13.5V325
						C-14.2,325-66.5,325-66.5,325z"/>
				</defs>
				<clipPath id="SVGID_12_">
					<use xlink:href="#SVGID_11_"  style="overflow:visible;"/>
				</clipPath>
				<rect id="rect4144" x="-86.2" y="330" class="st15" width="72" height="2"/>
			</g>
		</g>
		<g>
			<g>
				<defs>
					<path id="SVGID_13_" d="M-66.5,325l-17.2,62.6C-86,396-80.5,405-72.8,405h27.1h0.2h19.6c6.3,0,11.7-6.3,11.7-13.5V325
						C-14.2,325-66.5,325-66.5,325z"/>
				</defs>
				<clipPath id="SVGID_14_">
					<use xlink:href="#SVGID_13_"  style="overflow:visible;"/>
				</clipPath>
				<rect id="rect4146" x="-86.2" y="332" class="st16" width="72" height="1"/>
			</g>
		</g>
		<g>
			<g>
				<defs>
					<path id="SVGID_15_" d="M-66.5,325l-17.2,62.6C-86,396-80.5,405-72.8,405h27.1h0.2h19.6c6.3,0,11.7-6.3,11.7-13.5V325
						C-14.2,325-66.5,325-66.5,325z"/>
				</defs>
				<clipPath id="SVGID_16_">
					<use xlink:href="#SVGID_15_"  style="overflow:visible;"/>
				</clipPath>
				<rect id="rect4148" x="-86.2" y="333" class="st17" width="72" height="2"/>
			</g>
		</g>
		<g>
			<g>
				<defs>
					<path id="SVGID_17_" d="M-66.5,325l-17.2,62.6C-86,396-80.5,405-72.8,405h27.1h0.2h19.6c6.3,0,11.7-6.3,11.7-13.5V325
						C-14.2,325-66.5,325-66.5,325z"/>
				</defs>
				<clipPath id="SVGID_18_">
					<use xlink:href="#SVGID_17_"  style="overflow:visible;"/>
				</clipPath>
				<rect id="rect4150" x="-86.2" y="335" class="st18" width="72" height="1"/>
			</g>
		</g>
		<g>
			<g>
				<defs>
					<path id="SVGID_19_" d="M-66.5,325l-17.2,62.6C-86,396-80.5,405-72.8,405h27.1h0.2h19.6c6.3,0,11.7-6.3,11.7-13.5V325
						C-14.2,325-66.5,325-66.5,325z"/>
				</defs>
				<clipPath id="SVGID_20_">
					<use xlink:href="#SVGID_19_"  style="overflow:visible;"/>
				</clipPath>
				<rect id="rect4152" x="-86.2" y="336" class="st19" width="72" height="1"/>
			</g>
		</g>
		<g>
			<g>
				<defs>
					<path id="SVGID_21_" d="M-66.5,325l-17.2,62.6C-86,396-80.5,405-72.8,405h27.1h0.2h19.6c6.3,0,11.7-6.3,11.7-13.5V325
						C-14.2,325-66.5,325-66.5,325z"/>
				</defs>
				<clipPath id="SVGID_22_">
					<use xlink:href="#SVGID_21_"  style="overflow:visible;"/>
				</clipPath>
				<rect id="rect4154" x="-86.2" y="337" class="st20" width="72" height="2"/>
			</g>
		</g>
		<g>
			<g>
				<defs>
					<path id="SVGID_23_" d="M-66.5,325l-17.2,62.6C-86,396-80.5,405-72.8,405h27.1h0.2h19.6c6.3,0,11.7-6.3,11.7-13.5V325
						C-14.2,325-66.5,325-66.5,325z"/>
				</defs>
				<clipPath id="SVGID_24_">
					<use xlink:href="#SVGID_23_"  style="overflow:visible;"/>
				</clipPath>
				<rect id="rect4156" x="-86.2" y="339" class="st21" width="72" height="1"/>
			</g>
		</g>
		<g>
			<g>
				<defs>
					<path id="SVGID_25_" d="M-66.5,325l-17.2,62.6C-86,396-80.5,405-72.8,405h27.1h0.2h19.6c6.3,0,11.7-6.3,11.7-13.5V325
						C-14.2,325-66.5,325-66.5,325z"/>
				</defs>
				<clipPath id="SVGID_26_">
					<use xlink:href="#SVGID_25_"  style="overflow:visible;"/>
				</clipPath>
				<rect id="rect4158" x="-86.2" y="340" class="st22" width="72" height="1"/>
			</g>
		</g>
		<g>
			<g>
				<defs>
					<path id="SVGID_27_" d="M-66.5,325l-17.2,62.6C-86,396-80.5,405-72.8,405h27.1h0.2h19.6c6.3,0,11.7-6.3,11.7-13.5V325
						C-14.2,325-66.5,325-66.5,325z"/>
				</defs>
				<clipPath id="SVGID_28_">
					<use xlink:href="#SVGID_27_"  style="overflow:visible;"/>
				</clipPath>
				<rect id="rect4160" x="-86.2" y="341" class="st23" width="72" height="2"/>
			</g>
		</g>
		<g>
			<g>
				<defs>
					<path id="SVGID_29_" d="M-66.5,325l-17.2,62.6C-86,396-80.5,405-72.8,405h27.1h0.2h19.6c6.3,0,11.7-6.3,11.7-13.5V325
						C-14.2,325-66.5,325-66.5,325z"/>
				</defs>
				<clipPath id="SVGID_30_">
					<use xlink:href="#SVGID_29_"  style="overflow:visible;"/>
				</clipPath>
				<rect id="rect4162" x="-86.2" y="343" class="st24" width="72" height="1"/>
			</g>
		</g>
		<g>
			<g>
				<defs>
					<path id="SVGID_31_" d="M-66.5,325l-17.2,62.6C-86,396-80.5,405-72.8,405h27.1h0.2h19.6c6.3,0,11.7-6.3,11.7-13.5V325
						C-14.2,325-66.5,325-66.5,325z"/>
				</defs>
				<clipPath id="SVGID_32_">
					<use xlink:href="#SVGID_31_"  style="overflow:visible;"/>
				</clipPath>
				<rect id="rect4164" x="-86.2" y="344" class="st25" width="72" height="1"/>
			</g>
		</g>
		<g>
			<g>
				<defs>
					<path id="SVGID_33_" d="M-66.5,325l-17.2,62.6C-86,396-80.5,405-72.8,405h27.1h0.2h19.6c6.3,0,11.7-6.3,11.7-13.5V325
						C-14.2,325-66.5,325-66.5,325z"/>
				</defs>
				<clipPath id="SVGID_34_">
					<use xlink:href="#SVGID_33_"  style="overflow:visible;"/>
				</clipPath>
				<rect id="rect4166" x="-86.2" y="345" class="st26" width="72" height="2"/>
			</g>
		</g>
		<g>
			<g>
				<defs>
					<path id="SVGID_35_" d="M-66.5,325l-17.2,62.6C-86,396-80.5,405-72.8,405h27.1h0.2h19.6c6.3,0,11.7-6.3,11.7-13.5V325
						C-14.2,325-66.5,325-66.5,325z"/>
				</defs>
				<clipPath id="SVGID_36_">
					<use xlink:href="#SVGID_35_"  style="overflow:visible;"/>
				</clipPath>
				<rect id="rect4168" x="-86.2" y="347" class="st27" width="72" height="1"/>
			</g>
		</g>
		<g>
			<g>
				<defs>
					<path id="SVGID_37_" d="M-66.5,325l-17.2,62.6C-86,396-80.5,405-72.8,405h27.1h0.2h19.6c6.3,0,11.7-6.3,11.7-13.5V325
						C-14.2,325-66.5,325-66.5,325z"/>
				</defs>
				<clipPath id="SVGID_38_">
					<use xlink:href="#SVGID_37_"  style="overflow:visible;"/>
				</clipPath>
				<rect id="rect4170" x="-86.2" y="348" class="st28" width="72" height="1"/>
			</g>
		</g>
		<g>
			<g>
				<defs>
					<path id="SVGID_39_" d="M-66.5,325l-17.2,62.6C-86,396-80.5,405-72.8,405h27.1h0.2h19.6c6.3,0,11.7-6.3,11.7-13.5V325
						C-14.2,325-66.5,325-66.5,325z"/>
				</defs>
				<clipPath id="SVGID_40_">
					<use xlink:href="#SVGID_39_"  style="overflow:visible;"/>
				</clipPath>
				<rect id="rect4172" x="-86.2" y="349" class="st29" width="72" height="2"/>
			</g>
		</g>
		<g>
			<g>
				<defs>
					<path id="SVGID_41_" d="M-66.5,325l-17.2,62.6C-86,396-80.5,405-72.8,405h27.1h0.2h19.6c6.3,0,11.7-6.3,11.7-13.5V325
						C-14.2,325-66.5,325-66.5,325z"/>
				</defs>
				<clipPath id="SVGID_42_">
					<use xlink:href="#SVGID_41_"  style="overflow:visible;"/>
				</clipPath>
				<rect id="rect4174" x="-86.2" y="351" class="st30" width="72" height="1"/>
			</g>
		</g>
		<g>
			<g>
				<defs>
					<path id="SVGID_43_" d="M-66.5,325l-17.2,62.6C-86,396-80.5,405-72.8,405h27.1h0.2h19.6c6.3,0,11.7-6.3,11.7-13.5V325
						C-14.2,325-66.5,325-66.5,325z"/>
				</defs>
				<clipPath id="SVGID_44_">
					<use xlink:href="#SVGID_43_"  style="overflow:visible;"/>
				</clipPath>
				<rect id="rect4176" x="-86.2" y="352" class="st31" width="72" height="2"/>
			</g>
		</g>
		<g>
			<g>
				<defs>
					<path id="SVGID_45_" d="M-66.5,325l-17.2,62.6C-86,396-80.5,405-72.8,405h27.1h0.2h19.6c6.3,0,11.7-6.3,11.7-13.5V325
						C-14.2,325-66.5,325-66.5,325z"/>
				</defs>
				<clipPath id="SVGID_46_">
					<use xlink:href="#SVGID_45_"  style="overflow:visible;"/>
				</clipPath>
				<rect id="rect4178" x="-86.2" y="354" class="st32" width="72" height="1"/>
			</g>
		</g>
		<g>
			<g>
				<defs>
					<path id="SVGID_47_" d="M-66.5,325l-17.2,62.6C-86,396-80.5,405-72.8,405h27.1h0.2h19.6c6.3,0,11.7-6.3,11.7-13.5V325
						C-14.2,325-66.5,325-66.5,325z"/>
				</defs>
				<clipPath id="SVGID_48_">
					<use xlink:href="#SVGID_47_"  style="overflow:visible;"/>
				</clipPath>
				<rect id="rect4180" x="-86.2" y="355" class="st33" width="72" height="1"/>
			</g>
		</g>
		<g>
			<g>
				<defs>
					<path id="SVGID_49_" d="M-66.5,325l-17.2,62.6C-86,396-80.5,405-72.8,405h27.1h0.2h19.6c6.3,0,11.7-6.3,11.7-13.5V325
						C-14.2,325-66.5,325-66.5,325z"/>
				</defs>
				<clipPath id="SVGID_50_">
					<use xlink:href="#SVGID_49_"  style="overflow:visible;"/>
				</clipPath>
				<rect id="rect4182" x="-86.2" y="356" class="st34" width="72" height="2"/>
			</g>
		</g>
		<g>
			<g>
				<defs>
					<path id="SVGID_51_" d="M-66.5,325l-17.2,62.6C-86,396-80.5,405-72.8,405h27.1h0.2h19.6c6.3,0,11.7-6.3,11.7-13.5V325
						C-14.2,325-66.5,325-66.5,325z"/>
				</defs>
				<clipPath id="SVGID_52_">
					<use xlink:href="#SVGID_51_"  style="overflow:visible;"/>
				</clipPath>
				<rect id="rect4184" x="-86.2" y="358" class="st35" width="72" height="1"/>
			</g>
		</g>
		<g>
			<g>
				<defs>
					<path id="SVGID_53_" d="M-66.5,325l-17.2,62.6C-86,396-80.5,405-72.8,405h27.1h0.2h19.6c6.3,0,11.7-6.3,11.7-13.5V325
						C-14.2,325-66.5,325-66.5,325z"/>
				</defs>
				<clipPath id="SVGID_54_">
					<use xlink:href="#SVGID_53_"  style="overflow:visible;"/>
				</clipPath>
				<rect id="rect4186" x="-86.2" y="359" class="st36" width="72" height="1"/>
			</g>
		</g>
		<g>
			<g>
				<defs>
					<path id="SVGID_55_" d="M-66.5,325l-17.2,62.6C-86,396-80.5,405-72.8,405h27.1h0.2h19.6c6.3,0,11.7-6.3,11.7-13.5V325
						C-14.2,325-66.5,325-66.5,325z"/>
				</defs>
				<clipPath id="SVGID_56_">
					<use xlink:href="#SVGID_55_"  style="overflow:visible;"/>
				</clipPath>
				<rect id="rect4188" x="-86.2" y="360" class="st37" width="72" height="2"/>
			</g>
		</g>
		<g>
			<g>
				<defs>
					<path id="SVGID_57_" d="M-66.5,325l-17.2,62.6C-86,396-80.5,405-72.8,405h27.1h0.2h19.6c6.3,0,11.7-6.3,11.7-13.5V325
						C-14.2,325-66.5,325-66.5,325z"/>
				</defs>
				<clipPath id="SVGID_58_">
					<use xlink:href="#SVGID_57_"  style="overflow:visible;"/>
				</clipPath>
				<rect id="rect4190" x="-86.2" y="362" class="st38" width="72" height="1"/>
			</g>
		</g>
		<g>
			<g>
				<defs>
					<path id="SVGID_59_" d="M-66.5,325l-17.2,62.6C-86,396-80.5,405-72.8,405h27.1h0.2h19.6c6.3,0,11.7-6.3,11.7-13.5V325
						C-14.2,325-66.5,325-66.5,325z"/>
				</defs>
				<clipPath id="SVGID_60_">
					<use xlink:href="#SVGID_59_"  style="overflow:visible;"/>
				</clipPath>
				<rect id="rect4192" x="-86.2" y="363" class="st39" width="72" height="1"/>
			</g>
		</g>
		<g>
			<g>
				<defs>
					<path id="SVGID_61_" d="M-66.5,325l-17.2,62.6C-86,396-80.5,405-72.8,405h27.1h0.2h19.6c6.3,0,11.7-6.3,11.7-13.5V325
						C-14.2,325-66.5,325-66.5,325z"/>
				</defs>
				<clipPath id="SVGID_62_">
					<use xlink:href="#SVGID_61_"  style="overflow:visible;"/>
				</clipPath>
				<rect id="rect4194" x="-86.2" y="364" class="st40" width="72" height="2"/>
			</g>
		</g>
		<g>
			<g>
				<defs>
					<path id="SVGID_63_" d="M-66.5,325l-17.2,62.6C-86,396-80.5,405-72.8,405h27.1h0.2h19.6c6.3,0,11.7-6.3,11.7-13.5V325
						C-14.2,325-66.5,325-66.5,325z"/>
				</defs>
				<clipPath id="SVGID_64_">
					<use xlink:href="#SVGID_63_"  style="overflow:visible;"/>
				</clipPath>
				<rect id="rect4196" x="-86.2" y="366" class="st41" width="72" height="1"/>
			</g>
		</g>
		<g>
			<g>
				<defs>
					<path id="SVGID_65_" d="M-66.5,325l-17.2,62.6C-86,396-80.5,405-72.8,405h27.1h0.2h19.6c6.3,0,11.7-6.3,11.7-13.5V325
						C-14.2,325-66.5,325-66.5,325z"/>
				</defs>
				<clipPath id="SVGID_66_">
					<use xlink:href="#SVGID_65_"  style="overflow:visible;"/>
				</clipPath>
				<rect id="rect4198" x="-86.2" y="367" class="st42" width="72" height="1"/>
			</g>
		</g>
		<g>
			<g>
				<defs>
					<path id="SVGID_67_" d="M-66.5,325l-17.2,62.6C-86,396-80.5,405-72.8,405h27.1h0.2h19.6c6.3,0,11.7-6.3,11.7-13.5V325
						C-14.2,325-66.5,325-66.5,325z"/>
				</defs>
				<clipPath id="SVGID_68_">
					<use xlink:href="#SVGID_67_"  style="overflow:visible;"/>
				</clipPath>
				<rect id="rect4200" x="-86.2" y="368" class="st43" width="72" height="2"/>
			</g>
		</g>
		<g>
			<g>
				<defs>
					<path id="SVGID_69_" d="M-66.5,325l-17.2,62.6C-86,396-80.5,405-72.8,405h27.1h0.2h19.6c6.3,0,11.7-6.3,11.7-13.5V325
						C-14.2,325-66.5,325-66.5,325z"/>
				</defs>
				<clipPath id="SVGID_70_">
					<use xlink:href="#SVGID_69_"  style="overflow:visible;"/>
				</clipPath>
				<rect id="rect4202" x="-86.2" y="370" class="st44" width="72" height="1"/>
			</g>
		</g>
		<g>
			<g>
				<defs>
					<path id="SVGID_71_" d="M-66.5,325l-17.2,62.6C-86,396-80.5,405-72.8,405h27.1h0.2h19.6c6.3,0,11.7-6.3,11.7-13.5V325
						C-14.2,325-66.5,325-66.5,325z"/>
				</defs>
				<clipPath id="SVGID_72_">
					<use xlink:href="#SVGID_71_"  style="overflow:visible;"/>
				</clipPath>
				<rect id="rect4204" x="-86.2" y="371" class="st45" width="72" height="2"/>
			</g>
		</g>
		<g>
			<g>
				<defs>
					<path id="SVGID_73_" d="M-66.5,325l-17.2,62.6C-86,396-80.5,405-72.8,405h27.1h0.2h19.6c6.3,0,11.7-6.3,11.7-13.5V325
						C-14.2,325-66.5,325-66.5,325z"/>
				</defs>
				<clipPath id="SVGID_74_">
					<use xlink:href="#SVGID_73_"  style="overflow:visible;"/>
				</clipPath>
				<rect id="rect4206" x="-86.2" y="373" class="st46" width="72" height="1"/>
			</g>
		</g>
		<g>
			<g>
				<defs>
					<path id="SVGID_75_" d="M-66.5,325l-17.2,62.6C-86,396-80.5,405-72.8,405h27.1h0.2h19.6c6.3,0,11.7-6.3,11.7-13.5V325
						C-14.2,325-66.5,325-66.5,325z"/>
				</defs>
				<clipPath id="SVGID_76_">
					<use xlink:href="#SVGID_75_"  style="overflow:visible;"/>
				</clipPath>
				<rect id="rect4208" x="-86.2" y="374" class="st47" width="72" height="1"/>
			</g>
		</g>
		<g>
			<g>
				<defs>
					<path id="SVGID_77_" d="M-66.5,325l-17.2,62.6C-86,396-80.5,405-72.8,405h27.1h0.2h19.6c6.3,0,11.7-6.3,11.7-13.5V325
						C-14.2,325-66.5,325-66.5,325z"/>
				</defs>
				<clipPath id="SVGID_78_">
					<use xlink:href="#SVGID_77_"  style="overflow:visible;"/>
				</clipPath>
				<rect id="rect4210" x="-86.2" y="375" class="st48" width="72" height="2"/>
			</g>
		</g>
		<g>
			<g>
				<defs>
					<path id="SVGID_79_" d="M-66.5,325l-17.2,62.6C-86,396-80.5,405-72.8,405h27.1h0.2h19.6c6.3,0,11.7-6.3,11.7-13.5V325
						C-14.2,325-66.5,325-66.5,325z"/>
				</defs>
				<clipPath id="SVGID_80_">
					<use xlink:href="#SVGID_79_"  style="overflow:visible;"/>
				</clipPath>
				<rect id="rect4212" x="-86.2" y="377" class="st49" width="72" height="1"/>
			</g>
		</g>
		<g>
			<g>
				<defs>
					<path id="SVGID_81_" d="M-66.5,325l-17.2,62.6C-86,396-80.5,405-72.8,405h27.1h0.2h19.6c6.3,0,11.7-6.3,11.7-13.5V325
						C-14.2,325-66.5,325-66.5,325z"/>
				</defs>
				<clipPath id="SVGID_82_">
					<use xlink:href="#SVGID_81_"  style="overflow:visible;"/>
				</clipPath>
				<rect id="rect4214" x="-86.2" y="378" class="st50" width="72" height="1"/>
			</g>
		</g>
		<g>
			<g>
				<defs>
					<path id="SVGID_83_" d="M-66.5,325l-17.2,62.6C-86,396-80.5,405-72.8,405h27.1h0.2h19.6c6.3,0,11.7-6.3,11.7-13.5V325
						C-14.2,325-66.5,325-66.5,325z"/>
				</defs>
				<clipPath id="SVGID_84_">
					<use xlink:href="#SVGID_83_"  style="overflow:visible;"/>
				</clipPath>
				<rect id="rect4216" x="-86.2" y="379" class="st51" width="72" height="2"/>
			</g>
		</g>
		<g>
			<g>
				<defs>
					<path id="SVGID_85_" d="M-66.5,325l-17.2,62.6C-86,396-80.5,405-72.8,405h27.1h0.2h19.6c6.3,0,11.7-6.3,11.7-13.5V325
						C-14.2,325-66.5,325-66.5,325z"/>
				</defs>
				<clipPath id="SVGID_86_">
					<use xlink:href="#SVGID_85_"  style="overflow:visible;"/>
				</clipPath>
				<rect id="rect4218" x="-86.2" y="381" class="st52" width="72" height="1"/>
			</g>
		</g>
		<g>
			<g>
				<defs>
					<path id="SVGID_87_" d="M-66.5,325l-17.2,62.6C-86,396-80.5,405-72.8,405h27.1h0.2h19.6c6.3,0,11.7-6.3,11.7-13.5V325
						C-14.2,325-66.5,325-66.5,325z"/>
				</defs>
				<clipPath id="SVGID_88_">
					<use xlink:href="#SVGID_87_"  style="overflow:visible;"/>
				</clipPath>
				<rect id="rect4220" x="-86.2" y="382" class="st53" width="72" height="1"/>
			</g>
		</g>
		<g>
			<g>
				<defs>
					<path id="SVGID_89_" d="M-66.5,325l-17.2,62.6C-86,396-80.5,405-72.8,405h27.1h0.2h19.6c6.3,0,11.7-6.3,11.7-13.5V325
						C-14.2,325-66.5,325-66.5,325z"/>
				</defs>
				<clipPath id="SVGID_90_">
					<use xlink:href="#SVGID_89_"  style="overflow:visible;"/>
				</clipPath>
				<rect id="rect4222" x="-86.2" y="383" class="st54" width="72" height="2"/>
			</g>
		</g>
		<g>
			<g>
				<defs>
					<path id="SVGID_91_" d="M-66.5,325l-17.2,62.6C-86,396-80.5,405-72.8,405h27.1h0.2h19.6c6.3,0,11.7-6.3,11.7-13.5V325
						C-14.2,325-66.5,325-66.5,325z"/>
				</defs>
				<clipPath id="SVGID_92_">
					<use xlink:href="#SVGID_91_"  style="overflow:visible;"/>
				</clipPath>
				<rect id="rect4224" x="-86.2" y="385" class="st55" width="72" height="1"/>
			</g>
		</g>
		<g>
			<g>
				<defs>
					<path id="SVGID_93_" d="M-66.5,325l-17.2,62.6C-86,396-80.5,405-72.8,405h27.1h0.2h19.6c6.3,0,11.7-6.3,11.7-13.5V325
						C-14.2,325-66.5,325-66.5,325z"/>
				</defs>
				<clipPath id="SVGID_94_">
					<use xlink:href="#SVGID_93_"  style="overflow:visible;"/>
				</clipPath>
				<rect id="rect4226" x="-86.2" y="386" class="st56" width="72" height="1"/>
			</g>
		</g>
		<g>
			<g>
				<defs>
					<path id="SVGID_95_" d="M-66.5,325l-17.2,62.6C-86,396-80.5,405-72.8,405h27.1h0.2h19.6c6.3,0,11.7-6.3,11.7-13.5V325
						C-14.2,325-66.5,325-66.5,325z"/>
				</defs>
				<clipPath id="SVGID_96_">
					<use xlink:href="#SVGID_95_"  style="overflow:visible;"/>
				</clipPath>
				<rect id="rect4228" x="-86.2" y="387" class="st57" width="72" height="2"/>
			</g>
		</g>
		<g>
			<g>
				<defs>
					<path id="SVGID_97_" d="M-66.5,325l-17.2,62.6C-86,396-80.5,405-72.8,405h27.1h0.2h19.6c6.3,0,11.7-6.3,11.7-13.5V325
						C-14.2,325-66.5,325-66.5,325z"/>
				</defs>
				<clipPath id="SVGID_98_">
					<use xlink:href="#SVGID_97_"  style="overflow:visible;"/>
				</clipPath>
				<rect id="rect4230" x="-86.2" y="389" class="st58" width="72" height="1"/>
			</g>
		</g>
		<g>
			<g>
				<defs>
					<path id="SVGID_99_" d="M-66.5,325l-17.2,62.6C-86,396-80.5,405-72.8,405h27.1h0.2h19.6c6.3,0,11.7-6.3,11.7-13.5V325
						C-14.2,325-66.5,325-66.5,325z"/>
				</defs>
				<clipPath id="SVGID_100_">
					<use xlink:href="#SVGID_99_"  style="overflow:visible;"/>
				</clipPath>
				<rect id="rect4232" x="-86.2" y="390" class="st59" width="72" height="2"/>
			</g>
		</g>
		<g>
			<g>
				<defs>
					<path id="SVGID_101_" d="M-66.5,325l-17.2,62.6C-86,396-80.5,405-72.8,405h27.1h0.2h19.6c6.3,0,11.7-6.3,11.7-13.5V325
						C-14.2,325-66.5,325-66.5,325z"/>
				</defs>
				<clipPath id="SVGID_102_">
					<use xlink:href="#SVGID_101_"  style="overflow:visible;"/>
				</clipPath>
				<rect id="rect4234" x="-86.2" y="392" class="st60" width="72" height="1"/>
			</g>
		</g>
		<g>
			<g>
				<defs>
					<path id="SVGID_103_" d="M-66.5,325l-17.2,62.6C-86,396-80.5,405-72.8,405h27.1h0.2h19.6c6.3,0,11.7-6.3,11.7-13.5V325
						C-14.2,325-66.5,325-66.5,325z"/>
				</defs>
				<clipPath id="SVGID_104_">
					<use xlink:href="#SVGID_103_"  style="overflow:visible;"/>
				</clipPath>
				<rect id="rect4236" x="-86.2" y="393" class="st61" width="72" height="1"/>
			</g>
		</g>
		<g>
			<g>
				<defs>
					<path id="SVGID_105_" d="M-66.5,325l-17.2,62.6C-86,396-80.5,405-72.8,405h27.1h0.2h19.6c6.3,0,11.7-6.3,11.7-13.5V325
						C-14.2,325-66.5,325-66.5,325z"/>
				</defs>
				<clipPath id="SVGID_106_">
					<use xlink:href="#SVGID_105_"  style="overflow:visible;"/>
				</clipPath>
				<rect id="rect4238" x="-86.2" y="394" class="st62" width="72" height="2"/>
			</g>
		</g>
		<g>
			<g>
				<defs>
					<path id="SVGID_107_" d="M-66.5,325l-17.2,62.6C-86,396-80.5,405-72.8,405h27.1h0.2h19.6c6.3,0,11.7-6.3,11.7-13.5V325
						C-14.2,325-66.5,325-66.5,325z"/>
				</defs>
				<clipPath id="SVGID_108_">
					<use xlink:href="#SVGID_107_"  style="overflow:visible;"/>
				</clipPath>
				<rect id="rect4240" x="-86.2" y="396" class="st63" width="72" height="1"/>
			</g>
		</g>
		<g>
			<g>
				<defs>
					<path id="SVGID_109_" d="M-66.5,325l-17.2,62.6C-86,396-80.5,405-72.8,405h27.1h0.2h19.6c6.3,0,11.7-6.3,11.7-13.5V325
						C-14.2,325-66.5,325-66.5,325z"/>
				</defs>
				<clipPath id="SVGID_110_">
					<use xlink:href="#SVGID_109_"  style="overflow:visible;"/>
				</clipPath>
				<rect id="rect4242" x="-86.2" y="397" class="st64" width="72" height="1"/>
			</g>
		</g>
		<g>
			<g>
				<defs>
					<path id="SVGID_111_" d="M-66.5,325l-17.2,62.6C-86,396-80.5,405-72.8,405h27.1h0.2h19.6c6.3,0,11.7-6.3,11.7-13.5V325
						C-14.2,325-66.5,325-66.5,325z"/>
				</defs>
				<clipPath id="SVGID_112_">
					<use xlink:href="#SVGID_111_"  style="overflow:visible;"/>
				</clipPath>
				<rect id="rect4244" x="-86.2" y="398" class="st65" width="72" height="2"/>
			</g>
		</g>
		<g>
			<g>
				<defs>
					<path id="SVGID_113_" d="M-66.5,325l-17.2,62.6C-86,396-80.5,405-72.8,405h27.1h0.2h19.6c6.3,0,11.7-6.3,11.7-13.5V325
						C-14.2,325-66.5,325-66.5,325z"/>
				</defs>
				<clipPath id="SVGID_114_">
					<use xlink:href="#SVGID_113_"  style="overflow:visible;"/>
				</clipPath>
				<rect id="rect4246" x="-86.2" y="400" class="st66" width="72" height="1"/>
			</g>
		</g>
		<g>
			<g>
				<defs>
					<path id="SVGID_115_" d="M-66.5,325l-17.2,62.6C-86,396-80.5,405-72.8,405h27.1h0.2h19.6c6.3,0,11.7-6.3,11.7-13.5V325
						C-14.2,325-66.5,325-66.5,325z"/>
				</defs>
				<clipPath id="SVGID_116_">
					<use xlink:href="#SVGID_115_"  style="overflow:visible;"/>
				</clipPath>
				<rect id="rect4248" x="-86.2" y="401" class="st67" width="72" height="1"/>
			</g>
		</g>
		<g>
			<g>
				<defs>
					<path id="SVGID_117_" d="M-66.5,325l-17.2,62.6C-86,396-80.5,405-72.8,405h27.1h0.2h19.6c6.3,0,11.7-6.3,11.7-13.5V325
						C-14.2,325-66.5,325-66.5,325z"/>
				</defs>
				<clipPath id="SVGID_118_">
					<use xlink:href="#SVGID_117_"  style="overflow:visible;"/>
				</clipPath>
				<rect id="rect4250" x="-86.2" y="402" class="st68" width="72" height="3"/>
			</g>
		</g>
	</g>
</g>
<g id="g4252">
	<path id="path4254" inkscape:connector-curvature="0" class="st9" d="M-16.6,315.7v18.8c0,4.9,4,8.9,8.9,8.9H25
		c4.9,0,8.9-4,8.9-8.9v-18.8c0-4.9-4-8.9-8.9-8.9H-7.7C-12.6,306.7-16.6,310.7-16.6,315.7z M15,334.6H-5.1c-4.9,0-8.9-4-8.9-8.9
		v-7.4c0-4.9,4-8.9,8.9-8.9H15c4.9,0,8.9,4,8.9,8.9v7.4C23.9,330.6,19.9,334.6,15,334.6z"/>
	<path id="path4256" inkscape:connector-curvature="0" class="st9" d="M25.1,344.4H-7.6c-5.5,0-9.9-4.5-9.9-9.9v-18.8
		c0-5.5,4.5-9.9,9.9-9.9h32.7c5.5,0,9.9,4.5,9.9,9.9v18.8C35,340,30.6,344.4,25.1,344.4z M-7.7,307.7c-4.4,0-7.9,3.6-7.9,7.9v18.8
		c0,4.4,3.6,7.9,7.9,7.9H25c4.4,0,7.9-3.6,7.9-7.9v-18.8c0-4.4-3.6-7.9-7.9-7.9H-7.7z M15,335.6H-5.1c-5.5,0-9.9-4.5-9.9-9.9v-7.4
		c0-5.5,4.5-9.9,9.9-9.9H15c5.5,0,9.9,4.5,9.9,9.9v7.4C24.9,331.1,20.4,335.6,15,335.6z M-5.1,310.3c-4.4,0-7.9,3.6-7.9,7.9v7.4
		c0,4.4,3.6,7.9,7.9,7.9H15c4.4,0,7.9-3.6,7.9-7.9v-7.4c0-4.4-3.6-7.9-7.9-7.9H-5.1z"/>
</g>
<g id="g4258">
	<line id="line4260" class="st69" x1="-27.7" y1="226" x2="-27.7" y2="260"/>
	<line id="line4262" class="st69" x1="-12.7" y1="226" x2="-12.7" y2="260"/>
	<line id="line4264" class="st69" x1="2.3" y1="226" x2="2.3" y2="260"/>
	<line id="line4266" class="st69" x1="17.3" y1="226" x2="17.3" y2="260"/>
	<line id="line4268" class="st69" x1="32.3" y1="226" x2="32.3" y2="260"/>
</g>
<g>
	<line class="st3" x1="110.8" y1="252.9" x2="312.8" y2="210.8"/>
	<g>
		<line class="st4" x1="110.8" y1="252.9" x2="115.7" y2="251.8"/>
		<line class="st5" x1="120.5" y1="250.8" x2="305.5" y2="212.3"/>
		<line class="st4" x1="307.9" y1="211.8" x2="312.8" y2="210.8"/>
	</g>
</g>
<g>
	<line class="st3" x1="110.2" y1="252.9" x2="342.5" y2="249.6"/>
	<g>
		<line class="st4" x1="110.2" y1="252.9" x2="115.9" y2="252.8"/>
		<line class="st5" x1="121.4" y1="252.7" x2="334.1" y2="249.7"/>
		<line class="st4" x1="336.9" y1="249.6" x2="342.5" y2="249.6"/>
	</g>
</g>
<g>
	<line class="st3" x1="110.2" y1="252.9" x2="336.1" y2="317.4"/>
	<g>
		<line class="st4" x1="110.2" y1="252.9" x2="115.7" y2="254.6"/>
		<line class="st5" x1="121.1" y1="256.1" x2="327.9" y2="315.1"/>
		<line class="st4" x1="330.6" y1="315.8" x2="336.1" y2="317.4"/>
	</g>
</g>
<path class="st70" d="M282,215.4L282,215.4c-1,1-1,2.6,0,3.6l31.8,31.8c1,1,2.6,1,3.6,0l0,0c1-1,1-2.6,0-3.6l-31.8-31.8
	C284.6,214.5,283,214.5,282,215.4z"/>
<path class="st70" d="M315.9,247.2L315.9,247.2c-1.4,0-2.5,1.1-2.5,2.5v61.6c0,1.4,1.1,2.5,2.5,2.5l0,0c1.4,0,2.5-1.1,2.5-2.5v-61.6
	C318.4,248.4,317.3,247.2,315.9,247.2z"/>
</svg>
