<?xml version="1.0" standalone="no"?><!DOCTYPE svg PUBLIC "-//W3C//DTD SVG 1.1//EN" "http://www.w3.org/Graphics/SVG/1.1/DTD/svg11.dtd"><svg width="360" height="240" transform="translate(0,0)" version="1.1" xmlns="http://www.w3.org/2000/svg" xmlns:xlink="http://www.w3.org/1999/xlink"><defs xmlns="http://www.w3.org/1999/xhtml"><style type="text/css"><![CDATA[
svg .grid { stroke-width: 0.5px; stroke: rgb(187, 187, 187); opacity: 0.5; }
svg .domain { stroke-width: 3px; stroke: black; }
svg { border: none; }
svg .path { stroke-width: 4px; stroke: rgb(17, 172, 205); fill: none; }
svg text { font-style: normal; font-variant: normal; font-weight: normal; font-stretch: normal; font-size: 12px; line-height: normal; font-family: katex_math; }]]></style></defs><g transform="translate(40,40)"><g class="x-axis" transform="translate(0,120)" fill="none" font-size="10" font-family="sans-serif" text-anchor="middle"><path class="domain" stroke="#000" d="M0.5,0V0.5H240.5V0"/><g class="tick" opacity="1" transform="translate(0.5,0)"><line stroke="#000" y2="6"/><text fill="#000" y="9" dy="0.71em">-1</text><line class="grid" x1="0" y1="-120" x2="0" y2="40"/></g><g class="tick" opacity="1" transform="translate(40.5,0)"><line stroke="#000" y2="6"/><line class="grid" x1="0" y1="-120" x2="0" y2="40"/></g><g class="tick" opacity="1" transform="translate(80.5,0)"><line stroke="#000" y2="6"/><text fill="#000" y="9" dy="0.71em">1</text><line class="grid" x1="0" y1="-120" x2="0" y2="40"/></g><g class="tick" opacity="1" transform="translate(120.5,0)"><line stroke="#000" y2="6"/><text fill="#000" y="9" dy="0.71em">2</text><line class="grid" x1="0" y1="-120" x2="0" y2="40"/></g><g class="tick" opacity="1" transform="translate(160.5,0)"><line stroke="#000" y2="6"/><text fill="#000" y="9" dy="0.71em">3</text><line class="grid" x1="0" y1="-120" x2="0" y2="40"/></g><g class="tick" opacity="1" transform="translate(200.5,0)"><line stroke="#000" y2="6"/><text fill="#000" y="9" dy="0.71em">4</text><line class="grid" x1="0" y1="-120" x2="0" y2="40"/></g><g class="tick" opacity="1" transform="translate(240.5,0)"><line stroke="#000" y2="6"/><text fill="#000" y="9" dy="0.71em">5</text><line class="grid" x1="0" y1="-120" x2="0" y2="40"/></g><text x="240" dx=".71em" style="text-anchor: start; font-size: 16px; fill: black;">t (msec)</text></g><g class="y-axis" transform="translate(40,0)" fill="none" font-size="10" font-family="sans-serif" text-anchor="end"><path class="domain" stroke="#000" d="M0,160.5H0.5V0.5H0"/><g class="tick" opacity="1" transform="translate(0,160.5)"><line stroke="#000" x2="-6"/><text fill="#000" x="-9" dy="0.32em">-1.0</text><line class="grid" x1="-40" y1="0" x2="200" y2="0"/></g><g class="tick" opacity="1" transform="translate(0,140.5)"><line stroke="#000" x2="-6"/><text fill="#000" x="-9" dy="0.32em">-0.5</text><line class="grid" x1="-40" y1="0" x2="200" y2="0"/></g><g class="tick" opacity="1" transform="translate(0,120.5)"><line stroke="#000" x2="-6"/><line class="grid" x1="-40" y1="0" x2="200" y2="0"/></g><g class="tick" opacity="1" transform="translate(0,100.5)"><line stroke="#000" x2="-6"/><text fill="#000" x="-9" dy="0.32em">0.5</text><line class="grid" x1="-40" y1="0" x2="200" y2="0"/></g><g class="tick" opacity="1" transform="translate(0,80.5)"><line stroke="#000" x2="-6"/><text fill="#000" x="-9" dy="0.32em">1.0</text><line class="grid" x1="-40" y1="0" x2="200" y2="0"/></g><g class="tick" opacity="1" transform="translate(0,60.5)"><line stroke="#000" x2="-6"/><text fill="#000" x="-9" dy="0.32em">1.5</text><line class="grid" x1="-40" y1="0" x2="200" y2="0"/></g><g class="tick" opacity="1" transform="translate(0,40.5)"><line stroke="#000" x2="-6"/><text fill="#000" x="-9" dy="0.32em">2.0</text><line class="grid" x1="-40" y1="0" x2="200" y2="0"/></g><g class="tick" opacity="1" transform="translate(0,20.5)"><line stroke="#000" x2="-6"/><text fill="#000" x="-9" dy="0.32em">2.5</text><line class="grid" x1="-40" y1="0" x2="200" y2="0"/></g><g class="tick" opacity="1" transform="translate(0,0.5)"><line stroke="#000" x2="-6"/><text fill="#000" x="-9" dy="0.32em">3.0</text><line class="grid" x1="-40" y1="0" x2="200" y2="0"/></g><text dx="6" dy="-6" style="text-anchor: start; font-size: 16px; fill: black;">i(mA)</text></g><path class="path" d="M0,120L40,120L40,40L160,40L160,120L240,120"/></g></svg>