<svg width="2122" height="1320" xmlns="http://www.w3.org/2000/svg" xmlns:xlink="http://www.w3.org/1999/xlink" overflow="hidden"><defs><clipPath id="clip0"><rect x="2818" y="224" width="2122" height="1320"/></clipPath><clipPath id="clip1"><rect x="2820" y="227" width="2117" height="1314"/></clipPath><clipPath id="clip2"><rect x="2820" y="227" width="2117" height="1314"/></clipPath><clipPath id="clip3"><rect x="2820" y="227" width="2117" height="1314"/></clipPath><clipPath id="clip4"><rect x="2820" y="227" width="2117" height="1314"/></clipPath><clipPath id="clip5"><rect x="3059" y="397" width="1460" height="944"/></clipPath><clipPath id="clip6"><rect x="3059" y="397" width="1460" height="944"/></clipPath><clipPath id="clip7"><rect x="3059" y="397" width="1460" height="944"/></clipPath><clipPath id="clip8"><rect x="3059" y="397" width="1460" height="944"/></clipPath><clipPath id="clip9"><rect x="3059" y="397" width="1460" height="944"/></clipPath><clipPath id="clip10"><rect x="2820" y="227" width="2117" height="1314"/></clipPath><clipPath id="clip11"><rect x="2820" y="227" width="2117" height="1314"/></clipPath><clipPath id="clip12"><rect x="2820" y="227" width="2117" height="1314"/></clipPath><clipPath id="clip13"><rect x="2820" y="227" width="2117" height="1314"/></clipPath><clipPath id="clip14"><rect x="2820" y="227" width="2117" height="1314"/></clipPath><clipPath id="clip15"><rect x="2820" y="227" width="2117" height="1314"/></clipPath><clipPath id="clip16"><rect x="2820" y="227" width="2117" height="1314"/></clipPath><clipPath id="clip17"><rect x="2820" y="227" width="2117" height="1314"/></clipPath><clipPath id="clip18"><rect x="2820" y="227" width="2117" height="1314"/></clipPath><clipPath id="clip19"><rect x="2820" y="227" width="2117" height="1314"/></clipPath><clipPath id="clip20"><rect x="2820" y="227" width="2117" height="1314"/></clipPath><clipPath id="clip21"><rect x="2820" y="227" width="2117" height="1314"/></clipPath><clipPath id="clip22"><rect x="2820" y="227" width="2117" height="1314"/></clipPath><clipPath id="clip23"><rect x="2820" y="227" width="2117" height="1314"/></clipPath><clipPath id="clip24"><rect x="2820" y="227" width="2117" height="1314"/></clipPath><clipPath id="clip25"><rect x="2820" y="227" width="2117" height="1314"/></clipPath><clipPath id="clip26"><rect x="2820" y="227" width="2117" height="1314"/></clipPath><clipPath id="clip27"><rect x="2820" y="227" width="2117" height="1314"/></clipPath><clipPath id="clip28"><rect x="2820" y="227" width="2117" height="1314"/></clipPath><clipPath id="clip29"><rect x="2820" y="227" width="2117" height="1314"/></clipPath><clipPath id="clip30"><rect x="2820" y="227" width="2117" height="1314"/></clipPath><clipPath id="clip31"><rect x="2820" y="227" width="2117" height="1314"/></clipPath><clipPath id="clip32"><rect x="2820" y="227" width="2117" height="1314"/></clipPath><clipPath id="clip33"><rect x="2820" y="227" width="2117" height="1314"/></clipPath><clipPath id="clip34"><rect x="2820" y="227" width="2117" height="1314"/></clipPath><clipPath id="clip35"><rect x="2820" y="227" width="2117" height="1314"/></clipPath><clipPath id="clip36"><rect x="2820" y="227" width="2117" height="1314"/></clipPath><clipPath id="clip37"><rect x="2820" y="227" width="2117" height="1314"/></clipPath><clipPath id="clip38"><rect x="2820" y="227" width="2117" height="1314"/></clipPath><clipPath id="clip39"><rect x="2820" y="227" width="2117" height="1314"/></clipPath><clipPath id="clip40"><rect x="2820" y="227" width="2117" height="1314"/></clipPath><clipPath id="clip41"><rect x="2820" y="227" width="2117" height="1314"/></clipPath><clipPath id="clip42"><rect x="2820" y="227" width="2118" height="1315"/></clipPath><clipPath id="clip43"><rect x="2967" y="429" width="2565" height="92"/></clipPath><clipPath id="clip44"><rect x="2820" y="227" width="2118" height="1315"/></clipPath></defs><g clip-path="url(#clip0)" transform="translate(-2818 -224)"><rect x="2821" y="228" width="2116" height="1314" fill="#FFFFFF" fill-opacity="1"/><g clip-path="url(#clip1)"><path d="M3059.5 1220.54 4515.5 1220.54M3059.5 1103.54 4515.5 1103.54M3059.5 985.533 4515.5 985.533M3059.5 868.529 4515.5 868.529M3059.5 750.525 4515.5 750.525M3059.5 632.521 4515.5 632.521M3059.5 515.517 4515.5 515.517M3059.5 397.5 4515.5 397.5" stroke="#D9D9D9" stroke-width="3.4375" stroke-linecap="butt" stroke-linejoin="round" stroke-miterlimit="10" stroke-opacity="1" fill="none" fill-rule="nonzero"/></g><g clip-path="url(#clip2)"><path d="M3267.61 397.5 3267.61 1338.5M3475.61 397.5 3475.61 1338.5M3683.62 397.5 3683.62 1338.5M3891.63 397.5 3891.63 1338.5M4099.63 397.5 4099.63 1338.5M4307.64 397.5 4307.64 1338.5M4515.5 397.5 4515.5 1338.5" stroke="#D9D9D9" stroke-width="3.4375" stroke-linecap="butt" stroke-linejoin="round" stroke-miterlimit="10" stroke-opacity="1" fill="none" fill-rule="nonzero"/></g><g clip-path="url(#clip3)"><path d="M0 0 0.000360892 941" stroke="#BFBFBF" stroke-width="3.4375" stroke-linecap="butt" stroke-linejoin="round" stroke-miterlimit="10" stroke-opacity="1" fill="none" fill-rule="evenodd" transform="matrix(1 0 0 -1 3059.5 1338.5)"/></g><g clip-path="url(#clip4)"><path d="M3059.5 1338.5 4515.5 1338.5" stroke="#BFBFBF" stroke-width="3.4375" stroke-linecap="butt" stroke-linejoin="round" stroke-miterlimit="10" stroke-opacity="1" fill="none" fill-rule="evenodd"/></g><g clip-path="url(#clip5)"><path d="M3059.5 1338.5C3066.44 1327.62 3073.37 1316.64 3080.31 1305.87 3087.25 1295.1 3094.19 1284.43 3101.12 1273.86 3108.06 1263.3 3115 1252.85 3121.94 1242.5 3128.87 1232.15 3135.81 1221.91 3142.75 1211.79 3149.69 1201.66 3156.62 1191.65 3163.56 1181.75 3170.5 1171.85 3177.44 1162.06 3184.37 1152.39 3191.31 1142.72 3198.25 1133.16 3205.19 1123.72 3212.12 1114.29 3219.06 1104.97 3226 1095.77 3232.94 1086.57 3239.87 1077.49 3246.81 1068.54 3253.75 1059.59 3260.69 1050.76 3267.62 1042.05 3274.56 1033.35 3281.5 1024.77 3288.44 1016.31 3295.37 1007.86 3302.31 999.537 3309.25 991.344 3316.19 983.151 3323.12 975.086 3330.06 967.155 3337 959.225 3343.94 951.424 3350.87 943.762 3357.81 936.098 3364.75 928.568 3371.69 921.177 3378.62 913.786 3385.56 906.531 3392.5 899.417 3399.44 892.303 3406.37 885.326 3413.31 878.493 3420.25 871.661 3427.19 864.968 3434.12 858.422 3441.06 851.875 3448 845.471 3454.94 839.216 3461.87 832.961 3468.81 826.85 3475.75 820.891 3482.69 814.931 3489.62 809.118 3496.56 803.459 3503.5 797.799 3510.44 792.289 3517.38 786.935 3524.31 781.581 3531.25 776.378 3538.19 771.334 3545.12 766.29 3552.06 761.399 3559 756.669 3565.94 751.939 3572.88 747.365 3579.81 742.955 3586.75 738.544 3593.69 734.292 3600.62 730.205 3607.56 726.118 3614.5 722.192 3621.44 718.434 3628.38 714.676 3635.31 711.081 3642.25 707.657 3649.19 704.231 3656.12 700.972 3663.06 697.885 3670 694.798 3676.94 691.879 3683.88 689.135 3690.81 686.391 3697.75 683.817 3704.69 681.421 3711.62 679.024 3718.56 676.8 3725.5 674.755 3732.44 672.711 3739.38 670.841 3746.31 669.153 3753.25 667.465 3760.19 665.955 3767.12 664.629 3774.06 663.303 3781 662.249 3787.94 661.196 3794.87 660.144 3801.81 659.275 3808.75 658.314 3815.69 657.353 3822.62 656.392 3829.56 655.432 3836.5 654.471 3843.44 653.51 3850.37 652.55 3857.31 651.589 3864.25 650.628 3871.19 649.668 3878.12 648.707 3885.06 647.746 3892 646.786 3898.94 645.825 3905.87 644.864 3912.81 643.903 3919.75 642.943 3926.69 641.982 3933.62 641.021 3940.56 640.06 3947.5 639.099 3954.44 638.139 3961.37 637.178 3968.31 636.218 3975.25 635.257 3982.19 634.296 3989.12 633.335 3996.06 632.375 4003 631.414 4009.94 630.453 4016.87 629.493 4023.81 628.532 4030.75 627.571 4037.69 626.61 4044.62 625.65 4051.56 624.689 4058.5 623.728 4065.44 622.767 4072.37 621.807 4079.31 620.846 4086.25 619.885 4093.19 618.925 4100.12 617.964 4107.06 617.003 4114 616.042 4120.94 615.082 4127.87 614.121 4134.81 613.16 4141.75 612.2 4148.69 611.239 4155.62 610.278 4162.56 609.318 4169.5 608.357 4176.44 607.396 4183.37 606.436 4190.31 605.475 4197.25 604.514 4204.19 603.553 4211.12 602.592 4218.06 601.632 4225 600.671 4231.94 599.71 4238.87 598.749 4245.81 597.789 4252.75 596.828 4259.69 595.868 4266.62 594.907 4273.56 593.946 4280.5 592.985 4287.44 592.025 4294.37 591.064 4301.31 590.103 4308.25 589.143 4315.19 588.182 4322.12 587.221 4329.06 586.26 4336 585.299 4342.94 584.339 4349.87 583.379 4356.81 582.418 4363.75 581.457 4370.69 580.496 4377.62 579.535 4384.56 578.575 4391.5 577.614 4398.44 576.653 4405.37 575.692 4412.31 574.732 4419.25 573.771 4426.19 572.81 4433.12 571.85 4440.06 570.889 4447 569.928 4453.94 568.968 4460.88 568.007 4467.81 567.046 4474.75 566.086 4481.69 565.125 4488.62 564.164 4495.56 563.203 4502.5 562.242 4509.44 561.282 4516.38 560.321 4523.31 559.36 4530.25 558.4 4537.19 557.439 4544.12 556.478 4551.06 555.518 4558 554.557 4564.94 553.596 4571.88 552.635 4578.81 551.675 4585.75 550.714 4592.69 549.753 4599.62 548.793 4606.56 547.832 4613.5 546.871 4620.44 545.91 4627.38 544.949 4634.31 543.989 4641.25 543.028 4648.19 542.068 4655.12 541.107 4662.06 540.146 4669 539.185 4675.94 538.225 4682.88 537.264 4689.81 536.303 4696.75 535.342 4703.69 534.382 4710.62 533.421 4717.56 532.46 4724.5 531.5" stroke="#5B9BD5" stroke-width="6.875" stroke-linecap="round" stroke-linejoin="round" stroke-miterlimit="10" stroke-opacity="1" fill="none" fill-rule="nonzero"/></g><g clip-path="url(#clip6)"><path d="M3059.5 1338.5C3066.44 1330.77 3073.37 1322.92 3080.31 1315.31 3087.25 1307.7 3094.19 1300.21 3101.12 1292.85 3108.06 1285.48 3115 1278.23 3121.94 1271.11 3128.87 1263.99 3135.81 1257 3142.75 1250.13 3149.69 1243.26 3156.62 1236.52 3163.56 1229.91 3170.5 1223.3 3177.44 1216.81 3184.37 1210.46 3191.31 1204.11 3198.25 1197.89 3205.19 1191.81 3212.12 1185.73 3219.06 1179.78 3226 1173.96 3232.94 1168.15 3239.87 1162.47 3246.81 1156.94 3253.75 1151.4 3260.69 1146 3267.62 1140.74 3274.56 1135.48 3281.5 1130.36 3288.44 1125.39 3295.37 1120.42 3302.31 1115.59 3309.25 1110.91 3316.19 1106.22 3323.12 1101.68 3330.06 1097.3 3337 1092.91 3343.94 1088.67 3350.87 1084.58 3357.81 1080.49 3364.75 1076.55 3371.69 1072.76 3378.62 1068.97 3385.56 1065.34 3392.5 1061.86 3399.44 1058.38 3406.37 1055.06 3413.31 1051.9 3420.25 1048.73 3427.19 1045.72 3434.12 1042.88 3441.06 1040.03 3448 1037.34 3454.94 1034.82 3461.87 1032.29 3468.81 1029.93 3475.75 1027.73 3482.69 1025.54 3489.62 1023.5 3496.56 1021.64 3503.5 1019.77 3510.44 1018.07 3517.38 1016.55 3524.31 1015.02 3531.25 1013.66 3538.19 1012.47 3545.12 1011.28 3552.06 1010.27 3559 1009.43 3565.94 1008.59 3572.88 1008.01 3579.81 1007.43 3586.75 1006.85 3593.69 1006.45 3600.62 1005.96 3607.56 1005.47 3614.5 1004.98 3621.44 1004.49 3628.38 1004 3635.31 1003.5 3642.25 1003.01 3649.19 1002.52 3656.12 1002.03 3663.06 1001.54 3670 1001.05 3676.94 1000.56 3683.88 1000.07 3690.81 999.581 3697.75 999.091 3704.69 998.6 3711.62 998.11 3718.56 997.619 3725.5 997.129 3732.44 996.638 3739.38 996.148 3746.31 995.657 3753.25 995.167 3760.19 994.676 3767.12 994.186 3774.06 993.695 3781 993.205 3787.94 992.714 3794.87 992.224 3801.81 991.733 3808.75 991.243 3815.69 990.752 3822.62 990.262 3829.56 989.771 3836.5 989.281 3843.44 988.79 3850.37 988.3 3857.31 987.809 3864.25 987.319 3871.19 986.828 3878.12 986.338 3885.06 985.847 3892 985.357 3898.94 984.867 3905.87 984.376 3912.81 983.886 3919.75 983.395 3926.69 982.905 3933.62 982.414 3940.56 981.924 3947.5 981.433 3954.44 980.943 3961.37 980.452 3968.31 979.962 3975.25 979.471 3982.19 978.981 3989.12 978.49 3996.06 978 4003 977.509 4009.94 977.019 4016.87 976.529 4023.81 976.038 4030.75 975.548 4037.69 975.057 4044.62 974.567 4051.56 974.076 4058.5 973.586 4065.44 973.095 4072.37 972.605 4079.31 972.114 4086.25 971.624 4093.19 971.133 4100.12 970.643 4107.06 970.152 4114 969.662 4120.94 969.172 4127.87 968.681 4134.81 968.191 4141.75 967.7 4148.69 967.21 4155.62 966.719 4162.56 966.229 4169.5 965.738 4176.44 965.248 4183.37 964.757 4190.31 964.267 4197.25 963.776 4204.19 963.286 4211.12 962.795 4218.06 962.305 4225 961.814 4231.94 961.324 4238.87 960.833 4245.81 960.343 4252.75 959.852 4259.69 959.362 4266.62 958.871 4273.56 958.381 4280.5 957.89 4287.44 957.4 4294.37 956.909 4301.31 956.419 4308.25 955.928 4315.19 955.438 4322.12 954.947 4329.06 954.457 4336 953.967 4342.94 953.476 4349.87 952.986 4356.81 952.495 4363.75 952.005 4370.69 951.514 4377.62 951.024 4384.56 950.533 4391.5 950.043 4398.44 949.552 4405.37 949.061 4412.31 948.571 4419.25 948.081 4426.19 947.59 4433.12 947.1 4440.06 946.61 4447 946.119 4453.94 945.629 4460.88 945.138 4467.81 944.648 4474.75 944.157 4481.69 943.667 4488.62 943.176 4495.56 942.686 4502.5 942.195 4509.44 941.704 4516.38 941.214 4523.31 940.724 4530.25 940.233 4537.19 939.743 4544.12 939.253 4551.06 938.762 4558 938.271 4564.94 937.781 4571.88 937.291 4578.81 936.8 4585.75 936.31 4592.69 935.819 4599.62 935.328 4606.56 934.838 4613.5 934.348 4620.44 933.857 4627.38 933.367 4634.31 932.876 4641.25 932.385 4648.19 931.895 4655.12 931.405 4662.06 930.914 4669 930.424 4675.94 929.933 4682.88 929.443 4689.81 928.952 4696.75 928.462 4703.69 927.971 4710.62 927.481 4717.56 926.99 4724.5 926.5" stroke="#A5A5A5" stroke-width="6.875" stroke-linecap="round" stroke-linejoin="round" stroke-miterlimit="10" stroke-opacity="1" fill="none" fill-rule="nonzero"/></g><g clip-path="url(#clip7)"><path d="M3059.5 1338.5C3066.44 1333.94 3073.37 1329.24 3080.31 1324.81 3087.25 1320.38 3094.19 1316.08 3101.12 1311.93 3108.06 1307.77 3115 1303.75 3121.94 1299.87 3128.87 1295.99 3135.81 1292.25 3142.75 1288.66 3149.69 1285.06 3156.62 1281.61 3163.56 1278.3 3170.5 1274.99 3177.44 1271.83 3184.37 1268.81 3191.31 1265.8 3198.25 1262.93 3205.19 1260.21 3212.12 1257.49 3219.06 1254.92 3226 1252.5 3232.94 1250.08 3239.87 1247.82 3246.81 1245.7 3253.75 1243.59 3260.69 1241.63 3267.62 1239.83 3274.56 1238.03 3281.5 1236.39 3288.44 1234.9 3295.37 1233.42 3302.31 1232.09 3309.25 1230.92 3316.19 1229.76 3323.12 1228.76 3330.06 1227.92 3337 1227.08 3343.94 1226.4 3350.87 1225.89 3357.81 1225.38 3364.75 1225.12 3371.69 1224.86 3378.62 1224.6 3385.56 1224.5 3392.5 1224.33 3399.44 1224.15 3406.37 1223.98 3413.31 1223.8 3420.25 1223.62 3427.19 1223.45 3434.12 1223.27 3441.06 1223.09 3448 1222.92 3454.94 1222.74 3461.87 1222.57 3468.81 1222.39 3475.75 1222.21 3482.69 1222.04 3489.62 1221.86 3496.56 1221.69 3503.5 1221.51 3510.44 1221.33 3517.38 1221.16 3524.31 1220.98 3531.25 1220.8 3538.19 1220.63 3545.12 1220.45 3552.06 1220.28 3559 1220.1 3565.94 1219.92 3572.88 1219.75 3579.81 1219.57 3586.75 1219.4 3593.69 1219.22 3600.62 1219.04 3607.56 1218.87 3614.5 1218.69 3621.44 1218.51 3628.38 1218.34 3635.31 1218.16 3642.25 1217.99 3649.19 1217.81 3656.12 1217.63 3663.06 1217.46 3670 1217.28 3676.94 1217.1 3683.88 1216.93 3690.81 1216.75 3697.75 1216.58 3704.69 1216.4 3711.62 1216.22 3718.56 1216.05 3725.5 1215.87 3732.44 1215.69 3739.38 1215.52 3746.31 1215.34 3753.25 1215.17 3760.19 1214.99 3767.12 1214.81 3774.06 1214.64 3781 1214.46 3787.94 1214.29 3794.87 1214.11 3801.81 1213.93 3808.75 1213.76 3815.69 1213.58 3822.62 1213.4 3829.56 1213.23 3836.5 1213.05 3843.44 1212.88 3850.37 1212.7 3857.31 1212.52 3864.25 1212.35 3871.19 1212.17 3878.12 1211.99 3885.06 1211.82 3892 1211.64 3898.94 1211.47 3905.87 1211.29 3912.81 1211.11 3919.75 1210.94 3926.69 1210.76 3933.62 1210.59 3940.56 1210.41 3947.5 1210.23 3954.44 1210.06 3961.37 1209.88 3968.31 1209.7 3975.25 1209.53 3982.19 1209.35 3989.12 1209.18 3996.06 1209 4003 1208.82 4009.94 1208.65 4016.87 1208.47 4023.81 1208.29 4030.75 1208.12 4037.69 1207.94 4044.62 1207.77 4051.56 1207.59 4058.5 1207.41 4065.44 1207.24 4072.37 1207.06 4079.31 1206.89 4086.25 1206.71 4093.19 1206.53 4100.12 1206.36 4107.06 1206.18 4114 1206 4120.94 1205.83 4127.87 1205.65 4134.81 1205.48 4141.75 1205.3 4148.69 1205.12 4155.62 1204.95 4162.56 1204.77 4169.5 1204.59 4176.44 1204.42 4183.37 1204.24 4190.31 1204.07 4197.25 1203.89 4204.19 1203.71 4211.12 1203.54 4218.06 1203.36 4225 1203.19 4231.94 1203.01 4238.87 1202.83 4245.81 1202.66 4252.75 1202.48 4259.69 1202.3 4266.62 1202.13 4273.56 1201.95 4280.5 1201.78 4287.44 1201.6 4294.37 1201.42 4301.31 1201.25 4308.25 1201.07 4315.19 1200.9 4322.12 1200.72 4329.06 1200.54 4336 1200.37 4342.94 1200.19 4349.87 1200.01 4356.81 1199.84 4363.75 1199.66 4370.69 1199.49 4377.62 1199.31 4384.56 1199.13 4391.5 1198.96 4398.44 1198.78 4405.37 1198.6 4412.31 1198.43 4419.25 1198.25 4426.19 1198.08 4433.12 1197.9 4440.06 1197.72 4447 1197.55 4453.94 1197.37 4460.88 1197.19 4467.81 1197.02 4474.75 1196.84 4481.69 1196.67 4488.62 1196.49 4495.56 1196.31 4502.5 1196.14 4509.44 1195.96 4516.38 1195.79 4523.31 1195.61 4530.25 1195.43 4537.19 1195.26 4544.12 1195.08 4551.06 1194.9 4558 1194.73 4564.94 1194.55 4571.88 1194.38 4578.81 1194.2 4585.75 1194.02 4592.69 1193.85 4599.62 1193.67 4606.56 1193.49 4613.5 1193.32 4620.44 1193.14 4627.38 1192.97 4634.31 1192.79 4641.25 1192.61 4648.19 1192.44 4655.12 1192.26 4662.06 1192.09 4669 1191.91 4675.94 1191.73 4682.88 1191.56 4689.81 1191.38 4696.75 1191.2 4703.69 1191.03 4710.62 1190.85 4717.56 1190.68 4724.5 1190.5" stroke="#ED7D31" stroke-width="6.875" stroke-linecap="round" stroke-linejoin="round" stroke-miterlimit="10" stroke-opacity="1" fill="none" fill-rule="nonzero"/></g><g clip-path="url(#clip8)"><path d="M3059.5 1338.5C3066.44 1337.03 3073.37 1335.4 3080.31 1334.09 3087.25 1332.78 3094.18 1331.62 3101.12 1330.62 3108.06 1329.63 3114.99 1328.79 3121.93 1328.11 3128.87 1327.43 3135.8 1326.92 3142.74 1326.57 3149.68 1326.22 3156.61 1326.11 3163.55 1326.01 3170.49 1325.91 3177.42 1325.97 3184.36 1325.95 3191.3 1325.93 3198.23 1325.91 3205.17 1325.89 3212.11 1325.87 3219.04 1325.85 3225.98 1325.83 3232.92 1325.81 3239.85 1325.79 3246.79 1325.77 3253.73 1325.74 3260.66 1325.72 3267.6 1325.7 3274.54 1325.68 3281.47 1325.66 3288.41 1325.64 3295.35 1325.62 3302.28 1325.6 3309.22 1325.58 3316.16 1325.56 3323.09 1325.54 3330.03 1325.52 3336.97 1325.5 3343.9 1325.48 3350.84 1325.46 3357.78 1325.44 3364.72 1325.42 3371.65 1325.4 3378.59 1325.38 3385.53 1325.36 3392.46 1325.34 3399.4 1325.32 3406.34 1325.3 3413.27 1325.28 3420.21 1325.26 3427.15 1325.24 3434.08 1325.22 3441.02 1325.2 3447.96 1325.18 3454.89 1325.16 3461.83 1325.14 3468.77 1325.12 3475.7 1325.09 3482.64 1325.07 3489.58 1325.05 3496.51 1325.03 3503.45 1325.01 3510.39 1324.99 3517.32 1324.97 3524.26 1324.95 3531.2 1324.93 3538.13 1324.91 3545.07 1324.89 3552.01 1324.87 3558.94 1324.85 3565.88 1324.83 3572.82 1324.81 3579.75 1324.79 3586.69 1324.77 3593.63 1324.75 3600.56 1324.73 3607.5 1324.71 3614.44 1324.69 3621.37 1324.67 3628.31 1324.65 3635.25 1324.63 3642.18 1324.61 3649.12 1324.59 3656.06 1324.57 3662.99 1324.55 3669.93 1324.53 3676.87 1324.51 3683.8 1324.49 3690.74 1324.47 3697.68 1324.44 3704.61 1324.42 3711.55 1324.4 3718.49 1324.38 3725.42 1324.36 3732.36 1324.34 3739.3 1324.32 3746.23 1324.3 3753.17 1324.28 3760.11 1324.26 3767.04 1324.24 3773.98 1324.22 3780.92 1324.2 3787.85 1324.18 3794.79 1324.16 3801.73 1324.14 3808.66 1324.12 3815.6 1324.1 3822.54 1324.08 3829.47 1324.06 3836.41 1324.04 3843.35 1324.02 3850.28 1324 3857.22 1323.98 3864.16 1323.96 3871.09 1323.94 3878.03 1323.92 3884.97 1323.9 3891.9 1323.88 3898.84 1323.86 3905.78 1323.84 3912.71 1323.82 3919.65 1323.79 3926.59 1323.77 3933.52 1323.75 3940.46 1323.73 3947.4 1323.71 3954.34 1323.69 3961.27 1323.67 3968.21 1323.65 3975.15 1323.63 3982.08 1323.61 3989.02 1323.59 3995.96 1323.57 4002.89 1323.55 4009.83 1323.53 4016.77 1323.51 4023.7 1323.49 4030.64 1323.47 4037.58 1323.45 4044.51 1323.43 4051.45 1323.41 4058.39 1323.39 4065.32 1323.37 4072.26 1323.35 4079.2 1323.33 4086.13 1323.31 4093.07 1323.29 4100.01 1323.27 4106.94 1323.25 4113.88 1323.23 4120.82 1323.21 4127.75 1323.19 4134.69 1323.17 4141.63 1323.14 4148.56 1323.12 4155.5 1323.1 4162.44 1323.08 4169.37 1323.06 4176.31 1323.04 4183.25 1323.02 4190.18 1323 4197.12 1322.98 4204.06 1322.96 4210.99 1322.94 4217.93 1322.92 4224.87 1322.9 4231.8 1322.88 4238.74 1322.86 4245.68 1322.84 4252.61 1322.82 4259.55 1322.8 4266.49 1322.78 4273.42 1322.76 4280.36 1322.74 4287.3 1322.72 4294.23 1322.7 4301.17 1322.68 4308.11 1322.66 4315.04 1322.64 4321.98 1322.62 4328.92 1322.6 4335.85 1322.58 4342.79 1322.56 4349.73 1322.54 4356.66 1322.52 4363.6 1322.49 4370.54 1322.47 4377.47 1322.45 4384.41 1322.43 4391.35 1322.41 4398.28 1322.39 4405.22 1322.37 4412.16 1322.35 4419.09 1322.33 4426.03 1322.31 4432.97 1322.29 4439.9 1322.27 4446.84 1322.25 4453.78 1322.23 4460.71 1322.21 4467.65 1322.19 4474.59 1322.17 4481.53 1322.15 4488.46 1322.13 4495.4 1322.11 4502.34 1322.09 4509.27 1322.07 4516.21 1322.05 4523.15 1322.03 4530.08 1322.01 4537.02 1321.99 4543.96 1321.97 4550.89 1321.95 4557.83 1321.93 4564.77 1321.91 4571.7 1321.89 4578.64 1321.87 4585.58 1321.84 4592.51 1321.82 4599.45 1321.8 4606.39 1321.78 4613.32 1321.76 4620.26 1321.74 4627.2 1321.72 4634.13 1321.7 4641.07 1321.68 4648.01 1321.66 4654.94 1321.64 4661.88 1321.62 4668.82 1321.6 4675.75 1321.58 4682.69 1321.56 4689.63 1321.54 4696.56 1321.52 4703.5 1321.5" stroke="#4472C4" stroke-width="6.875" stroke-linecap="round" stroke-linejoin="round" stroke-miterlimit="10" stroke-opacity="1" fill="none" fill-rule="nonzero"/></g><g clip-path="url(#clip9)"><path d="M3059.45 1335.06 3059.46 1335.06C3061.36 1335.04 3062.92 1336.56 3062.94 1338.45 3062.97 1340.35 3061.45 1341.91 3059.55 1341.94L3059.54 1341.94C3057.65 1341.96 3056.09 1340.44 3056.06 1338.55 3056.04 1336.65 3057.56 1335.09 3059.45 1335.06ZM3073.16 1334.79 3073.17 1334.79C3075.07 1334.74 3076.65 1336.24 3076.7 1338.14 3076.75 1340.04 3075.25 1341.62 3073.35 1341.67L3073.34 1341.67C3071.45 1341.71 3069.87 1340.22 3069.82 1338.32 3069.77 1336.42 3071.27 1334.84 3073.16 1334.79ZM3086.77 1334.15 3086.77 1334.15C3088.67 1334.02 3090.3 1335.46 3090.43 1337.35 3090.55 1339.24 3089.12 1340.88 3087.22 1341.01L3087.22 1341.01C3085.32 1341.13 3083.69 1339.7 3083.56 1337.8 3083.44 1335.91 3084.87 1334.27 3086.77 1334.15ZM3100.49 1333.22 3100.5 1333.22C3102.39 1333.09 3104.03 1334.53 3104.15 1336.42 3104.28 1338.31 3102.84 1339.95 3100.95 1340.08L3100.94 1340.08C3099.05 1340.2 3097.41 1338.77 3097.29 1336.87 3097.16 1334.98 3098.6 1333.34 3100.49 1333.22ZM3113.98 1331.71 3113.99 1331.7C3115.88 1331.48 3117.59 1332.83 3117.81 1334.71 3118.03 1336.6 3116.69 1338.31 3114.8 1338.53L3114.8 1338.53C3112.91 1338.76 3111.2 1337.41 3110.98 1335.52 3110.75 1333.64 3112.1 1331.93 3113.98 1331.71ZM3127.48 1329.91 3127.49 1329.91C3129.36 1329.61 3131.12 1330.89 3131.42 1332.76 3131.72 1334.64 3130.45 1336.4 3128.57 1336.7L3128.56 1336.7C3126.69 1337 3124.93 1335.72 3124.63 1333.84 3124.33 1331.97 3125.61 1330.21 3127.48 1329.91ZM3141.07 1327.76 3141.08 1327.76C3142.95 1327.46 3144.71 1328.74 3145.01 1330.61 3145.31 1332.49 3144.03 1334.25 3142.16 1334.55L3142.15 1334.55C3140.28 1334.85 3138.51 1333.57 3138.22 1331.69 3137.92 1329.82 3139.19 1328.06 3141.07 1327.76ZM3154.42 1325.09 3154.43 1325.09C3156.29 1324.71 3158.1 1325.92 3158.48 1327.78 3158.85 1329.64 3157.65 1331.45 3155.78 1331.83L3155.78 1331.83C3153.92 1332.2 3152.1 1331 3151.73 1329.14 3151.36 1327.28 3152.56 1325.46 3154.42 1325.09ZM3167.72 1322.16 3167.73 1322.16C3169.57 1321.71 3171.43 1322.84 3171.88 1324.69 3172.33 1326.53 3171.2 1328.39 3169.35 1328.84L3169.34 1328.84C3167.5 1329.29 3165.64 1328.16 3165.19 1326.32 3164.74 1324.47 3165.88 1322.61 3167.72 1322.16ZM3181.07 1318.84 3181.08 1318.84C3182.92 1318.39 3184.78 1319.52 3185.23 1321.37 3185.68 1323.21 3184.55 1325.07 3182.7 1325.52L3182.7 1325.52C3180.85 1325.97 3178.99 1324.84 3178.54 1323 3178.09 1321.15 3179.23 1319.29 3181.07 1318.84ZM3194.16 1315.1 3194.17 1315.1C3195.99 1314.58 3197.9 1315.63 3198.42 1317.46 3198.94 1319.28 3197.89 1321.19 3196.07 1321.71L3196.06 1321.71C3194.23 1322.24 3192.33 1321.18 3191.81 1319.36 3191.28 1317.53 3192.34 1315.63 3194.16 1315.1ZM3207.18 1311.14 3207.19 1311.14C3208.99 1310.54 3210.94 1311.51 3211.54 1313.32 3212.14 1315.12 3211.16 1317.06 3209.36 1317.66L3209.35 1317.66C3207.55 1318.26 3205.61 1317.29 3205.01 1315.49 3204.41 1313.69 3205.38 1311.74 3207.18 1311.14ZM3220.21 1306.72 3220.22 1306.72C3222.02 1306.12 3223.97 1307.1 3224.56 1308.9 3225.16 1310.7 3224.19 1312.65 3222.39 1313.24L3222.38 1313.25C3220.58 1313.85 3218.63 1312.87 3218.03 1311.07 3217.44 1309.27 3218.41 1307.32 3220.21 1306.72ZM3232.99 1302.02 3232.99 1302.02C3234.77 1301.35 3236.75 1302.24 3237.43 1304.02 3238.1 1305.79 3237.21 1307.78 3235.43 1308.45L3235.43 1308.45C3233.65 1309.13 3231.67 1308.23 3230.99 1306.46 3230.32 1304.68 3231.21 1302.7 3232.99 1302.02ZM3245.69 1297.13 3245.7 1297.13C3247.44 1296.38 3249.46 1297.19 3250.21 1298.94 3250.96 1300.68 3250.15 1302.7 3248.4 1303.45L3248.4 1303.45C3246.65 1304.2 3244.63 1303.39 3243.88 1301.65 3243.14 1299.9 3243.94 1297.88 3245.69 1297.13ZM3258.33 1291.71 3258.34 1291.7C3260.08 1290.95 3262.1 1291.76 3262.85 1293.51 3263.6 1295.25 3262.79 1297.27 3261.04 1298.02L3261.04 1298.02C3259.29 1298.77 3257.27 1297.96 3256.52 1296.22 3255.78 1294.47 3256.58 1292.45 3258.33 1291.71ZM3270.76 1286.16 3270.76 1286.16C3272.47 1285.34 3274.53 1286.06 3275.35 1287.77 3276.17 1289.48 3275.45 1291.54 3273.74 1292.36L3273.73 1292.36C3272.02 1293.18 3269.97 1292.46 3269.15 1290.75 3268.32 1289.04 3269.05 1286.98 3270.76 1286.16ZM3283.18 1280.26 3283.19 1280.26C3284.9 1279.44 3286.96 1280.16 3287.78 1281.87 3288.6 1283.58 3287.88 1285.64 3286.17 1286.46L3286.16 1286.46C3284.45 1287.28 3282.39 1286.56 3281.57 1284.85 3280.75 1283.14 3281.47 1281.08 3283.18 1280.26ZM3295.36 1274.1 3295.37 1274.1C3297.05 1273.22 3299.13 1273.88 3300 1275.57 3300.88 1277.25 3300.22 1279.33 3298.53 1280.2L3298.53 1280.2C3296.84 1281.08 3294.77 1280.42 3293.89 1278.73 3293.02 1277.05 3293.68 1274.97 3295.36 1274.1ZM3307.57 1267.75 3307.57 1267.75C3309.26 1266.88 3311.33 1267.53 3312.21 1269.22 3313.08 1270.9 3312.42 1272.98 3310.74 1273.85L3310.73 1273.86C3309.05 1274.73 3306.97 1274.07 3306.1 1272.39 3305.23 1270.7 3305.88 1268.63 3307.57 1267.75ZM3319.45 1261.04 3319.46 1261.04C3321.12 1260.11 3323.21 1260.7 3324.14 1262.36 3325.06 1264.02 3324.47 1266.11 3322.81 1267.04L3322.81 1267.04C3321.15 1267.97 3319.05 1267.37 3318.13 1265.72 3317.2 1264.06 3317.8 1261.96 3319.45 1261.04ZM3331.25 1254.24 3331.25 1254.24C3332.87 1253.24 3334.99 1253.75 3335.98 1255.37 3336.98 1256.98 3336.47 1259.1 3334.85 1260.1L3334.85 1260.1C3333.23 1261.09 3331.11 1260.59 3330.12 1258.97 3329.12 1257.36 3329.63 1255.24 3331.25 1254.24ZM3342.99 1247.08 3342.99 1247.07C3344.61 1246.08 3346.73 1246.58 3347.72 1248.2 3348.72 1249.82 3348.21 1251.93 3346.6 1252.93L3346.59 1252.93C3344.97 1253.93 3342.86 1253.42 3341.86 1251.81 3340.87 1250.19 3341.37 1248.07 3342.99 1247.08ZM3354.53 1239.79 3354.53 1239.78C3356.12 1238.74 3358.25 1239.18 3359.29 1240.76 3360.34 1242.35 3359.9 1244.48 3358.31 1245.52L3358.31 1245.53C3356.72 1246.57 3354.59 1246.13 3353.55 1244.55 3352.5 1242.96 3352.94 1240.83 3354.53 1239.79ZM3366.03 1232.24 3366.04 1232.24C3367.62 1231.2 3369.75 1231.63 3370.8 1233.22 3371.84 1234.8 3371.41 1236.94 3369.82 1237.98L3369.81 1237.98C3368.23 1239.03 3366.1 1238.59 3365.05 1237.01 3364.01 1235.42 3364.45 1233.29 3366.03 1232.24ZM3377.29 1224.52 3377.29 1224.52C3378.85 1223.43 3380.99 1223.8 3382.08 1225.35 3383.18 1226.9 3382.8 1229.05 3381.25 1230.14L3381.25 1230.15C3379.69 1231.24 3377.55 1230.87 3376.46 1229.31 3375.36 1227.76 3375.74 1225.62 3377.29 1224.52ZM3388.57 1216.62 3388.58 1216.61C3390.13 1215.53 3392.28 1215.91 3393.36 1217.47 3394.45 1219.03 3394.06 1221.17 3392.5 1222.26L3392.5 1222.26C3390.94 1223.35 3388.8 1222.96 3387.71 1221.4 3386.63 1219.85 3387.01 1217.7 3388.57 1216.62ZM3399.55 1208.52 3399.55 1208.51C3401.07 1207.38 3403.23 1207.69 3404.36 1209.21 3405.5 1210.74 3405.18 1212.89 3403.66 1214.02L3403.66 1214.03C3402.14 1215.16 3399.98 1214.85 3398.85 1213.33 3397.71 1211.81 3398.03 1209.65 3399.55 1208.52ZM3410.57 1200.29 3410.58 1200.29C3412.1 1199.15 3414.25 1199.47 3415.39 1200.99 3416.52 1202.51 3416.21 1204.66 3414.69 1205.8L3414.68 1205.8C3413.16 1206.94 3411.01 1206.62 3409.87 1205.1 3408.74 1203.58 3409.05 1201.43 3410.57 1200.29ZM3421.29 1191.84 3421.3 1191.84C3422.78 1190.65 3424.95 1190.9 3426.13 1192.39 3427.31 1193.87 3427.06 1196.04 3425.58 1197.22L3425.57 1197.22C3424.09 1198.4 3421.92 1198.16 3420.74 1196.67 3419.56 1195.18 3419.81 1193.02 3421.29 1191.84ZM3432.01 1183.36 3432.02 1183.35C3433.47 1182.13 3435.64 1182.33 3436.86 1183.78 3438.08 1185.24 3437.89 1187.4 3436.43 1188.62L3436.43 1188.63C3434.97 1189.85 3432.8 1189.66 3431.58 1188.2 3430.37 1186.74 3430.56 1184.58 3432.01 1183.36ZM3442.56 1174.53 3442.57 1174.53C3444.03 1173.31 3446.19 1173.5 3447.41 1174.96 3448.63 1176.41 3448.44 1178.58 3446.98 1179.8L3446.98 1179.8C3445.52 1181.02 3443.36 1180.83 3442.14 1179.37 3440.92 1177.92 3441.11 1175.75 3442.56 1174.53ZM3453.04 1165.76 3453.04 1165.75C3454.46 1164.49 3456.64 1164.63 3457.89 1166.05 3459.15 1167.47 3459.02 1169.64 3457.6 1170.9L3457.6 1170.9C3456.17 1172.16 3454 1172.03 3452.74 1170.61 3451.48 1169.19 3451.62 1167.02 3453.04 1165.76ZM3463.36 1156.66 3463.36 1156.66C3464.78 1155.4 3466.95 1155.53 3468.21 1156.95 3469.47 1158.37 3469.34 1160.54 3467.92 1161.8L3467.91 1161.81C3466.49 1163.07 3464.32 1162.93 3463.06 1161.51 3461.8 1160.09 3461.93 1157.92 3463.36 1156.66ZM3473.61 1147.61 3473.62 1147.61C3475.01 1146.32 3477.18 1146.4 3478.47 1147.79 3479.77 1149.18 3479.69 1151.35 3478.29 1152.65L3478.29 1152.65C3476.9 1153.94 3474.72 1153.86 3473.43 1152.47 3472.14 1151.08 3472.22 1148.9 3473.61 1147.61ZM3483.7 1138.26 3483.71 1138.26C3485.1 1136.96 3487.27 1137.05 3488.56 1138.44 3489.86 1139.83 3489.78 1142 3488.38 1143.29L3488.38 1143.3C3486.99 1144.59 3484.81 1144.51 3483.52 1143.12 3482.23 1141.73 3482.31 1139.55 3483.7 1138.26ZM3493.79 1128.91 3493.8 1128.9C3495.19 1127.61 3497.36 1127.69 3498.65 1129.08 3499.95 1130.48 3499.86 1132.65 3498.47 1133.94L3498.47 1133.95C3497.08 1135.24 3494.9 1135.16 3493.61 1133.77 3492.32 1132.38 3492.4 1130.2 3493.79 1128.91ZM3503.61 1119.39 3503.61 1119.38C3504.97 1118.06 3507.15 1118.09 3508.47 1119.45 3509.8 1120.81 3509.77 1122.99 3508.41 1124.31L3508.4 1124.31C3507.04 1125.64 3504.86 1125.61 3503.54 1124.25 3502.22 1122.89 3502.25 1120.71 3503.61 1119.39ZM3513.47 1109.8 3513.48 1109.79C3514.84 1108.47 3517.01 1108.5 3518.34 1109.86 3519.66 1111.22 3519.63 1113.4 3518.27 1114.72L3518.27 1114.73C3516.9 1116.05 3514.73 1116.02 3513.4 1114.66 3512.08 1113.3 3512.11 1111.12 3513.47 1109.8ZM3523.09 1100.08 3523.1 1100.07C3524.43 1098.72 3526.6 1098.7 3527.96 1100.03 3529.31 1101.36 3529.33 1103.53 3528 1104.89L3528 1104.89C3526.67 1106.25 3524.49 1106.27 3523.14 1104.94 3521.78 1103.61 3521.76 1101.43 3523.09 1100.08ZM3532.74 1090.27 3532.74 1090.26C3534.07 1088.91 3536.25 1088.89 3537.6 1090.22 3538.96 1091.55 3538.98 1093.72 3537.65 1095.08L3537.64 1095.08C3536.31 1096.44 3534.14 1096.46 3532.78 1095.13 3531.43 1093.8 3531.41 1091.62 3532.74 1090.27ZM3542.18 1080.37 3542.18 1080.37C3543.48 1078.98 3545.66 1078.91 3547.04 1080.21 3548.43 1081.51 3548.5 1083.68 3547.2 1085.07L3547.2 1085.07C3545.9 1086.46 3543.72 1086.53 3542.34 1085.23 3540.95 1083.93 3540.88 1081.76 3542.18 1080.37ZM3551.61 1070.35 3551.61 1070.35C3552.91 1068.96 3555.08 1068.89 3556.47 1070.19 3557.86 1071.49 3557.93 1073.66 3556.63 1075.05L3556.62 1075.06C3555.33 1076.44 3553.15 1076.51 3551.77 1075.21 3550.38 1073.92 3550.31 1071.74 3551.61 1070.35ZM3560.89 1060.29 3560.9 1060.29C3562.17 1058.88 3564.34 1058.77 3565.75 1060.04 3567.16 1061.31 3567.27 1063.48 3566 1064.89L3566 1064.9C3564.72 1066.31 3562.55 1066.42 3561.14 1065.15 3559.73 1063.87 3559.62 1061.7 3560.89 1060.29ZM3570.11 1050.08 3570.11 1050.07C3571.39 1048.67 3573.56 1048.55 3574.97 1049.83 3576.38 1051.1 3576.49 1053.27 3575.22 1054.68L3575.21 1054.69C3573.94 1056.1 3571.77 1056.21 3570.36 1054.93 3568.95 1053.66 3568.84 1051.49 3570.11 1050.08ZM3579.24 1039.88 3579.25 1039.87C3580.49 1038.44 3582.66 1038.29 3584.1 1039.53 3585.53 1040.78 3585.68 1042.95 3584.43 1044.38L3584.43 1044.39C3583.18 1045.82 3581.01 1045.97 3579.58 1044.73 3578.15 1043.48 3578 1041.31 3579.24 1039.88ZM3588.26 1029.48 3588.26 1029.48C3589.51 1028.05 3591.68 1027.89 3593.11 1029.14 3594.54 1030.39 3594.69 1032.56 3593.45 1033.99L3593.44 1034C3592.2 1035.43 3590.03 1035.58 3588.59 1034.33 3587.16 1033.09 3587.01 1030.92 3588.26 1029.48ZM3597.27 1019.09 3597.27 1019.09C3598.52 1017.65 3600.69 1017.5 3602.12 1018.75 3603.56 1019.99 3603.71 1022.17 3602.46 1023.6L3602.46 1023.6C3601.21 1025.04 3599.04 1025.19 3597.61 1023.94 3596.18 1022.7 3596.02 1020.52 3597.27 1019.09ZM3606.06 1008.59 3606.06 1008.59C3607.28 1007.13 3609.45 1006.94 3610.91 1008.16 3612.36 1009.38 3612.55 1011.55 3611.34 1013L3611.33 1013.01C3610.11 1014.46 3607.94 1014.66 3606.49 1013.44 3605.03 1012.22 3604.84 1010.05 3606.06 1008.59ZM3614.88 998.032 3614.88 998.027C3616.1 996.571 3618.27 996.38 3619.72 997.599 3621.18 998.818 3621.37 1000.99 3620.15 1002.44L3620.15 1002.45C3618.93 1003.9 3616.76 1004.09 3615.3 1002.87 3613.85 1001.66 3613.66 999.487 3614.88 998.032ZM3623.54 987.432 3623.55 987.427C3624.74 985.949 3626.9 985.718 3628.38 986.91 3629.86 988.102 3630.09 990.266 3628.9 991.744L3628.9 991.749C3627.7 993.227 3625.54 993.458 3624.06 992.266 3622.58 991.074 3622.35 988.91 3623.54 987.432ZM3632.17 976.712 3632.17 976.707C3633.36 975.229 3635.53 974.998 3637 976.19 3638.48 977.382 3638.71 979.546 3637.52 981.024L3637.52 981.029C3636.32 982.507 3634.16 982.738 3632.68 981.546 3631.21 980.354 3630.97 978.19 3632.17 976.712ZM3640.72 966.025 3640.72 966.02C3641.89 964.519 3644.05 964.245 3645.55 965.408 3647.05 966.571 3647.32 968.73 3646.16 970.231L3646.16 970.236C3644.99 971.737 3642.83 972.011 3641.33 970.848 3639.83 969.685 3639.56 967.526 3640.72 966.025ZM3649.16 955.157 3649.16 955.152C3650.32 953.651 3652.48 953.377 3653.98 954.54 3655.48 955.703 3655.76 957.862 3654.59 959.363L3654.59 959.368C3653.43 960.869 3651.27 961.143 3649.77 959.98 3648.27 958.817 3647.99 956.658 3649.16 955.157ZM3657.59 944.289 3657.59 944.284C3658.76 942.783 3660.92 942.509 3662.42 943.672 3663.92 944.835 3664.19 946.994 3663.03 948.495L3663.02 948.5C3661.86 950.001 3659.7 950.275 3658.2 949.112 3656.7 947.949 3656.43 945.79 3657.59 944.289ZM3665.86 933.379 3665.87 933.373C3667 931.851 3669.16 931.538 3670.68 932.673 3672.2 933.808 3672.51 935.962 3671.38 937.484L3671.37 937.489C3670.24 939.011 3668.09 939.324 3666.56 938.189 3665.04 937.054 3664.73 934.9 3665.86 933.379ZM3674.12 922.372 3674.12 922.366C3675.26 920.845 3677.41 920.531 3678.93 921.666 3680.45 922.801 3680.77 924.955 3679.63 926.477L3679.63 926.482C3678.49 928.004 3676.34 928.318 3674.82 927.182 3673.29 926.047 3672.98 923.894 3674.12 922.372ZM3682.31 911.386 3682.32 911.381C3683.43 909.843 3685.58 909.498 3687.12 910.611 3688.66 911.724 3689 913.873 3687.89 915.411L3687.88 915.416C3686.77 916.955 3684.62 917.299 3683.08 916.186 3681.55 915.073 3681.2 912.924 3682.31 911.386ZM3690.39 900.25 3690.39 900.244C3691.51 898.706 3693.66 898.361 3695.19 899.474 3696.73 900.587 3697.08 902.736 3695.96 904.274L3695.96 904.28C3694.85 905.818 3692.7 906.162 3691.16 905.049 3689.62 903.937 3689.28 901.788 3690.39 900.25ZM3698.47 889.113 3698.47 889.107C3699.58 887.569 3701.73 887.224 3703.27 888.337 3704.81 889.45 3705.15 891.599 3704.04 893.137L3704.04 893.143C3702.92 894.681 3700.77 895.026 3699.24 893.913 3697.7 892.8 3697.35 890.651 3698.47 889.113ZM3706.42 877.943 3706.42 877.937C3707.52 876.385 3709.66 876.012 3711.21 877.105 3712.76 878.198 3713.14 880.342 3712.04 881.895L3712.04 881.901C3710.95 883.453 3708.8 883.825 3707.25 882.732 3705.7 881.64 3705.33 879.495 3706.42 877.943ZM3714.32 866.684 3714.33 866.679C3715.42 865.126 3717.57 864.754 3719.12 865.846 3720.67 866.939 3721.04 869.084 3719.95 870.636L3719.95 870.642C3718.85 872.194 3716.71 872.567 3715.16 871.474 3713.6 870.381 3713.23 868.237 3714.32 866.684ZM3722.23 855.425 3722.23 855.42C3723.33 853.867 3725.47 853.495 3727.02 854.588 3728.58 855.681 3728.95 857.825 3727.85 859.378L3727.85 859.383C3726.76 860.935 3724.61 861.308 3723.06 860.215 3721.51 859.122 3721.14 856.978 3722.23 855.425ZM3729.95 844.101 3729.96 844.095C3731.03 842.527 3733.16 842.123 3734.73 843.194 3736.3 844.264 3736.7 846.403 3735.63 847.971L3735.63 847.976C3734.56 849.544 3732.42 849.948 3730.85 848.878 3729.28 847.808 3728.88 845.669 3729.95 844.101ZM3737.69 832.728 3737.7 832.722C3738.77 831.154 3740.9 830.75 3742.47 831.821 3744.04 832.891 3744.44 835.03 3743.37 836.598L3743.37 836.603C3742.3 838.171 3740.16 838.575 3738.59 837.505 3737.02 836.435 3736.62 834.296 3737.69 832.728ZM3745.36 821.37 3745.37 821.364C3746.41 819.78 3748.55 819.346 3750.13 820.393 3751.71 821.44 3752.15 823.573 3751.1 825.157L3751.1 825.162C3750.05 826.746 3747.92 827.18 3746.33 826.133 3744.75 825.086 3744.32 822.953 3745.36 821.37ZM3752.94 809.889 3752.95 809.884C3753.99 808.3 3756.13 807.865 3757.71 808.913 3759.29 809.96 3759.73 812.093 3758.68 813.676L3758.68 813.682C3757.63 815.265 3755.5 815.7 3753.91 814.653 3752.33 813.605 3751.9 811.473 3752.94 809.889ZM3760.52 798.409 3760.53 798.403C3761.57 796.82 3763.71 796.385 3765.29 797.432 3766.87 798.48 3767.31 800.612 3766.26 802.196L3766.26 802.202C3765.21 803.785 3763.08 804.22 3761.49 803.172 3759.91 802.125 3759.48 799.992 3760.52 798.409ZM3767.99 786.925 3768 786.919C3769.02 785.319 3771.14 784.85 3772.75 785.871 3774.35 786.892 3774.82 789.017 3773.79 790.618L3773.79 790.624C3772.77 792.224 3770.64 792.693 3769.04 791.672 3767.44 790.651 3766.97 788.526 3767.99 786.925ZM3775.42 775.344 3775.42 775.338C3776.44 773.738 3778.57 773.268 3780.17 774.29 3781.77 775.311 3782.24 777.436 3781.22 779.036L3781.21 779.042C3780.19 780.643 3778.07 781.112 3776.47 780.091 3774.87 779.07 3774.4 776.944 3775.42 775.344ZM3782.84 763.763 3782.85 763.757C3783.87 762.157 3785.99 761.687 3787.59 762.708 3789.2 763.73 3789.66 765.855 3788.64 767.455L3788.64 767.461C3787.62 769.061 3785.49 769.531 3783.89 768.51 3782.29 767.488 3781.82 765.363 3782.84 763.763ZM3790.15 752.142 3790.15 752.136C3791.16 750.526 3793.28 750.037 3794.89 751.044 3796.5 752.051 3796.99 754.172 3795.98 755.781L3795.98 755.787C3794.97 757.397 3792.85 757.886 3791.24 756.879 3789.63 755.872 3789.14 753.751 3790.15 752.142ZM3797.42 740.465 3797.43 740.46C3798.43 738.85 3800.55 738.361 3802.16 739.368 3803.77 740.375 3804.26 742.496 3803.25 744.105L3803.25 744.111C3802.24 745.721 3800.12 746.209 3798.51 745.203 3796.9 744.196 3796.42 742.075 3797.42 740.465ZM3804.7 728.789 3804.7 728.783C3805.71 727.174 3807.83 726.685 3809.44 727.692 3811.05 728.699 3811.54 730.82 3810.53 732.429L3810.53 732.435C3809.52 734.045 3807.4 734.533 3805.79 733.527 3804.18 732.52 3803.69 730.399 3804.7 728.789ZM3811.82 717.081 3811.83 717.075C3812.81 715.451 3814.92 714.932 3816.55 715.915 3818.17 716.898 3818.69 719.012 3817.71 720.636L3817.7 720.642C3816.72 722.266 3814.61 722.785 3812.98 721.802 3811.36 720.819 3810.84 718.705 3811.82 717.081ZM3818.94 705.332 3818.95 705.327C3819.92 703.697 3822.03 703.166 3823.66 704.14 3825.29 705.114 3825.82 707.224 3824.85 708.854L3824.84 708.86C3823.87 710.489 3821.76 711.021 3820.13 710.047 3818.5 709.073 3817.97 706.962 3818.94 705.332ZM3826.07 693.567 3826.08 693.561C3827.05 691.932 3829.16 691.4 3830.79 692.374 3832.42 693.348 3832.95 695.459 3831.98 697.088L3831.97 697.094C3831 698.724 3828.89 699.255 3827.26 698.281 3825.63 697.307 3825.1 695.197 3826.07 693.567ZM3833.07 681.735 3833.07 681.729C3834.04 680.096 3836.15 679.557 3837.78 680.526 3839.41 681.494 3839.95 683.603 3838.98 685.236L3838.98 685.242C3838.01 686.875 3835.9 687.413 3834.27 686.445 3832.64 685.476 3832.1 683.368 3833.07 681.735ZM3840.06 669.885 3840.06 669.879C3841.03 668.247 3843.14 667.708 3844.77 668.677 3846.4 669.645 3846.94 671.754 3845.97 673.387L3845.97 673.393C3845 675.026 3842.89 675.564 3841.26 674.596 3839.63 673.627 3839.09 671.518 3840.06 669.885ZM3847.04 658.036 3847.05 658.03C3848.02 656.397 3850.13 655.859 3851.76 656.827 3853.39 657.796 3853.93 659.905 3852.96 661.537L3852.96 661.543C3851.99 663.176 3849.88 663.715 3848.25 662.746 3846.61 661.778 3846.08 659.669 3847.04 658.036ZM3853.88 646.153 3853.89 646.147C3854.83 644.501 3856.93 643.934 3858.58 644.88 3860.22 645.826 3860.79 647.927 3859.85 649.573L3859.84 649.579C3858.9 651.225 3856.8 651.792 3855.15 650.846 3853.5 649.9 3852.94 647.799 3853.88 646.153ZM3860.73 634.225 3860.74 634.219C3861.68 632.573 3863.79 632.005 3865.43 632.951 3867.08 633.897 3867.65 635.998 3866.7 637.644L3866.7 637.65C3865.75 639.296 3863.65 639.864 3862 638.918 3860.36 637.972 3859.79 635.871 3860.73 634.225ZM3867.59 622.296 3867.59 622.29C3868.54 620.644 3870.64 620.077 3872.28 621.022 3873.93 621.968 3874.5 624.07 3873.55 625.716L3873.55 625.722C3872.6 627.368 3870.5 627.935 3868.86 626.989 3867.21 626.043 3866.64 623.942 3867.59 622.296ZM3874.3 610.342 3874.3 610.336C3875.22 608.677 3877.32 608.08 3878.98 609.003 3880.64 609.926 3881.23 612.019 3880.31 613.678L3880.31 613.684C3879.38 615.343 3877.29 615.94 3875.63 615.017 3873.97 614.094 3873.38 612.001 3874.3 610.342ZM3881.02 598.338 3881.02 598.332C3881.95 596.673 3884.04 596.077 3885.7 597 3887.36 597.923 3887.95 600.016 3887.03 601.675L3887.03 601.681C3886.1 603.34 3884.01 603.937 3882.35 603.014 3880.69 602.091 3880.1 599.997 3881.02 598.338ZM3887.74 586.335 3887.74 586.329C3888.67 584.67 3890.76 584.074 3892.42 584.997 3894.08 585.92 3894.67 588.013 3893.75 589.672L3893.75 589.678C3892.83 591.337 3890.73 591.933 3889.07 591.01 3887.41 590.087 3886.82 587.994 3887.74 586.335ZM3894.36 574.282 3894.36 574.276C3895.28 572.615 3897.37 572.014 3899.03 572.933 3900.69 573.852 3901.29 575.943 3900.37 577.605L3900.37 577.611C3899.45 579.272 3897.36 579.873 3895.7 578.954 3894.04 578.035 3893.44 575.944 3894.36 574.282ZM3900.95 562.209 3900.95 562.203C3901.87 560.542 3903.96 559.94 3905.62 560.859 3907.29 561.778 3907.89 563.87 3906.97 565.531L3906.96 565.537C3906.05 567.198 3903.95 567.8 3902.29 566.881 3900.63 565.962 3900.03 563.87 3900.95 562.209ZM3907.54 550.135 3907.55 550.129C3908.47 548.468 3910.56 547.866 3912.22 548.785 3913.88 549.704 3914.48 551.796 3913.56 553.457L3913.56 553.463C3912.64 555.124 3910.55 555.726 3908.89 554.807 3907.23 553.888 3906.62 551.796 3907.54 550.135ZM3914.03 538.06 3914.04 538.054C3914.93 536.38 3917.02 535.75 3918.69 536.646 3920.36 537.542 3920.99 539.625 3920.1 541.299L3920.09 541.305C3919.2 542.978 3917.12 543.609 3915.44 542.713 3913.77 541.817 3913.14 539.734 3914.03 538.06ZM3920.5 525.92 3920.51 525.914C3921.4 524.24 3923.49 523.609 3925.16 524.505 3926.83 525.401 3927.46 527.484 3926.57 529.158L3926.57 529.164C3925.67 530.838 3923.59 531.469 3921.91 530.573 3920.24 529.677 3919.61 527.593 3920.5 525.92ZM3926.97 513.779 3926.98 513.773C3927.87 512.1 3929.96 511.469 3931.63 512.365 3933.3 513.261 3933.93 515.344 3933.04 517.018L3933.04 517.024C3932.14 518.698 3930.06 519.328 3928.38 518.432 3926.71 517.536 3926.08 515.453 3926.97 513.779ZM3933.38 501.656 3933.38 501.65C3934.25 499.965 3936.33 499.306 3938.01 500.179 3939.7 501.052 3940.36 503.127 3939.49 504.813L3939.48 504.819C3938.61 506.504 3936.53 507.163 3934.85 506.29 3933.16 505.417 3932.5 503.342 3933.38 501.656ZM3939.74 489.46 3939.75 489.454C3940.62 487.769 3942.69 487.11 3944.38 487.984 3946.07 488.857 3946.72 490.932 3945.85 492.617L3945.85 492.623C3944.97 494.309 3942.9 494.967 3941.21 494.094 3939.53 493.221 3938.87 491.146 3939.74 489.46ZM3946.08 477.254 3946.09 477.248C3946.96 475.562 3949.03 474.903 3950.72 475.775 3952.41 476.648 3953.07 478.722 3952.19 480.408L3952.19 480.414C3951.32 482.1 3949.24 482.76 3947.56 481.887 3945.87 481.015 3945.21 478.94 3946.08 477.254Z" fill="#FFC000" fill-rule="nonzero" fill-opacity="1"/></g><g clip-path="url(#clip10)"><text fill="#595959" fill-opacity="1" font-family="Calibri,Calibri_MSFontService,sans-serif" font-style="normal" font-variant="normal" font-weight="400" font-stretch="normal" font-size="41" text-anchor="start" direction="ltr" writing-mode="lr-tb" unicode-bidi="normal" text-decoration="none" transform="matrix(1 0 0 1 2947.81 1348)">0.00</text></g><g clip-path="url(#clip11)"><text fill="#595959" fill-opacity="1" font-family="Calibri,Calibri_MSFontService,sans-serif" font-style="normal" font-variant="normal" font-weight="400" font-stretch="normal" font-size="41" text-anchor="start" direction="ltr" writing-mode="lr-tb" unicode-bidi="normal" text-decoration="none" transform="matrix(1 0 0 1 2947.81 1231)">0.05</text></g><g clip-path="url(#clip12)"><text fill="#595959" fill-opacity="1" font-family="Calibri,Calibri_MSFontService,sans-serif" font-style="normal" font-variant="normal" font-weight="400" font-stretch="normal" font-size="41" text-anchor="start" direction="ltr" writing-mode="lr-tb" unicode-bidi="normal" text-decoration="none" transform="matrix(1 0 0 1 2947.81 1113)">0.10</text></g><g clip-path="url(#clip13)"><text fill="#595959" fill-opacity="1" font-family="Calibri,Calibri_MSFontService,sans-serif" font-style="normal" font-variant="normal" font-weight="400" font-stretch="normal" font-size="41" text-anchor="start" direction="ltr" writing-mode="lr-tb" unicode-bidi="normal" text-decoration="none" transform="matrix(1 0 0 1 2947.81 996)">0.15</text></g><g clip-path="url(#clip14)"><text fill="#595959" fill-opacity="1" font-family="Calibri,Calibri_MSFontService,sans-serif" font-style="normal" font-variant="normal" font-weight="400" font-stretch="normal" font-size="41" text-anchor="start" direction="ltr" writing-mode="lr-tb" unicode-bidi="normal" text-decoration="none" transform="matrix(1 0 0 1 2947.81 878)">0.20</text></g><g clip-path="url(#clip15)"><text fill="#595959" fill-opacity="1" font-family="Calibri,Calibri_MSFontService,sans-serif" font-style="normal" font-variant="normal" font-weight="400" font-stretch="normal" font-size="41" text-anchor="start" direction="ltr" writing-mode="lr-tb" unicode-bidi="normal" text-decoration="none" transform="matrix(1 0 0 1 2947.81 761)">0.25</text></g><g clip-path="url(#clip16)"><text fill="#595959" fill-opacity="1" font-family="Calibri,Calibri_MSFontService,sans-serif" font-style="normal" font-variant="normal" font-weight="400" font-stretch="normal" font-size="41" text-anchor="start" direction="ltr" writing-mode="lr-tb" unicode-bidi="normal" text-decoration="none" transform="matrix(1 0 0 1 2947.81 643)">0.30</text></g><g clip-path="url(#clip17)"><text fill="#595959" fill-opacity="1" font-family="Calibri,Calibri_MSFontService,sans-serif" font-style="normal" font-variant="normal" font-weight="400" font-stretch="normal" font-size="41" text-anchor="start" direction="ltr" writing-mode="lr-tb" unicode-bidi="normal" text-decoration="none" transform="matrix(1 0 0 1 2947.81 526)">0.35</text></g><g clip-path="url(#clip18)"><text fill="#595959" fill-opacity="1" font-family="Calibri,Calibri_MSFontService,sans-serif" font-style="normal" font-variant="normal" font-weight="400" font-stretch="normal" font-size="41" text-anchor="start" direction="ltr" writing-mode="lr-tb" unicode-bidi="normal" text-decoration="none" transform="matrix(1 0 0 1 2947.81 408)">0.40</text></g><g clip-path="url(#clip19)"><text fill="#595959" fill-opacity="1" font-family="Calibri,Calibri_MSFontService,sans-serif" font-style="normal" font-variant="normal" font-weight="400" font-stretch="normal" font-size="41" text-anchor="start" direction="ltr" writing-mode="lr-tb" unicode-bidi="normal" text-decoration="none" transform="matrix(1 0 0 1 3048.74 1403)">0</text></g><g clip-path="url(#clip20)"><text fill="#595959" fill-opacity="1" font-family="Calibri,Calibri_MSFontService,sans-serif" font-style="normal" font-variant="normal" font-weight="400" font-stretch="normal" font-size="41" text-anchor="start" direction="ltr" writing-mode="lr-tb" unicode-bidi="normal" text-decoration="none" transform="matrix(1 0 0 1 3256.85 1403)">1</text></g><g clip-path="url(#clip21)"><text fill="#595959" fill-opacity="1" font-family="Calibri,Calibri_MSFontService,sans-serif" font-style="normal" font-variant="normal" font-weight="400" font-stretch="normal" font-size="41" text-anchor="start" direction="ltr" writing-mode="lr-tb" unicode-bidi="normal" text-decoration="none" transform="matrix(1 0 0 1 3464.96 1403)">2</text></g><g clip-path="url(#clip22)"><text fill="#595959" fill-opacity="1" font-family="Calibri,Calibri_MSFontService,sans-serif" font-style="normal" font-variant="normal" font-weight="400" font-stretch="normal" font-size="41" text-anchor="start" direction="ltr" writing-mode="lr-tb" unicode-bidi="normal" text-decoration="none" transform="matrix(1 0 0 1 3673.07 1403)">3</text></g><g clip-path="url(#clip23)"><text fill="#595959" fill-opacity="1" font-family="Calibri,Calibri_MSFontService,sans-serif" font-style="normal" font-variant="normal" font-weight="400" font-stretch="normal" font-size="41" text-anchor="start" direction="ltr" writing-mode="lr-tb" unicode-bidi="normal" text-decoration="none" transform="matrix(1 0 0 1 3881.18 1403)">4</text></g><g clip-path="url(#clip24)"><text fill="#595959" fill-opacity="1" font-family="Calibri,Calibri_MSFontService,sans-serif" font-style="normal" font-variant="normal" font-weight="400" font-stretch="normal" font-size="41" text-anchor="start" direction="ltr" writing-mode="lr-tb" unicode-bidi="normal" text-decoration="none" transform="matrix(1 0 0 1 4089.3 1403)">5</text></g><g clip-path="url(#clip25)"><text fill="#595959" fill-opacity="1" font-family="Calibri,Calibri_MSFontService,sans-serif" font-style="normal" font-variant="normal" font-weight="400" font-stretch="normal" font-size="41" text-anchor="start" direction="ltr" writing-mode="lr-tb" unicode-bidi="normal" text-decoration="none" transform="matrix(1 0 0 1 4297.41 1403)">6</text></g><g clip-path="url(#clip26)"><text fill="#595959" fill-opacity="1" font-family="Calibri,Calibri_MSFontService,sans-serif" font-style="normal" font-variant="normal" font-weight="400" font-stretch="normal" font-size="41" text-anchor="start" direction="ltr" writing-mode="lr-tb" unicode-bidi="normal" text-decoration="none" transform="matrix(1 0 0 1 4505.52 1403)">7</text></g><g clip-path="url(#clip27)"><text fill="#595959" fill-opacity="1" font-family="Calibri,Calibri_MSFontService,sans-serif" font-style="normal" font-variant="normal" font-weight="400" font-stretch="normal" font-size="46" text-anchor="start" direction="ltr" writing-mode="lr-tb" unicode-bidi="normal" text-decoration="none" transform="matrix(6.12323e-17 -1 1 6.12323e-17 2922.12 939)">ID (mA)</text></g><g clip-path="url(#clip28)"><text fill="#595959" fill-opacity="1" font-family="Calibri,Calibri_MSFontService,sans-serif" font-style="normal" font-variant="normal" font-weight="400" font-stretch="normal" font-size="46" text-anchor="start" direction="ltr" writing-mode="lr-tb" unicode-bidi="normal" text-decoration="none" transform="matrix(1 0 0 1 3686.55 1472)">VDS (volts)</text></g><g clip-path="url(#clip29)"><text fill="#595959" fill-opacity="1" font-family="Calibri,Calibri_MSFontService,sans-serif" font-style="normal" font-variant="normal" font-weight="400" font-stretch="normal" font-size="64" text-anchor="start" direction="ltr" writing-mode="lr-tb" unicode-bidi="normal" text-decoration="none" transform="matrix(1 0 0 1 3726.35 323)">MOSFET I</text></g><g clip-path="url(#clip30)"><text fill="#595959" fill-opacity="1" font-family="Calibri,Calibri_MSFontService,sans-serif" font-style="normal" font-variant="normal" font-weight="400" font-stretch="normal" font-size="64" text-anchor="start" direction="ltr" writing-mode="lr-tb" unicode-bidi="normal" text-decoration="none" transform="matrix(1 0 0 1 3975.93 323)">-</text></g><g clip-path="url(#clip31)"><text fill="#595959" fill-opacity="1" font-family="Calibri,Calibri_MSFontService,sans-serif" font-style="normal" font-variant="normal" font-weight="400" font-stretch="normal" font-size="64" text-anchor="start" direction="ltr" writing-mode="lr-tb" unicode-bidi="normal" text-decoration="none" transform="matrix(1 0 0 1 3995.57 323)">V</text></g><g clip-path="url(#clip32)"><path d="M4601.5 789.5 4717.5 789.5" stroke="#5B9BD5" stroke-width="6.875" stroke-linecap="round" stroke-linejoin="round" stroke-miterlimit="10" stroke-opacity="1" fill="none" fill-rule="evenodd"/></g><g clip-path="url(#clip33)"><text fill="#595959" fill-opacity="1" font-family="Calibri,Calibri_MSFontService,sans-serif" font-style="normal" font-variant="normal" font-weight="400" font-stretch="normal" font-size="41" text-anchor="start" direction="ltr" writing-mode="lr-tb" unicode-bidi="normal" text-decoration="none" transform="matrix(1 0 0 1 4729.81 800)">VGS=4</text></g><g clip-path="url(#clip34)"><path d="M4601.5 867.5 4717.5 867.5" stroke="#A5A5A5" stroke-width="6.875" stroke-linecap="round" stroke-linejoin="round" stroke-miterlimit="10" stroke-opacity="1" fill="none" fill-rule="evenodd"/></g><g clip-path="url(#clip35)"><text fill="#595959" fill-opacity="1" font-family="Calibri,Calibri_MSFontService,sans-serif" font-style="normal" font-variant="normal" font-weight="400" font-stretch="normal" font-size="41" text-anchor="start" direction="ltr" writing-mode="lr-tb" unicode-bidi="normal" text-decoration="none" transform="matrix(1 0 0 1 4729.81 877)">VGS=3</text></g><g clip-path="url(#clip36)"><path d="M4601.5 944.5 4717.5 944.5" stroke="#ED7D31" stroke-width="6.875" stroke-linecap="round" stroke-linejoin="round" stroke-miterlimit="10" stroke-opacity="1" fill="none" fill-rule="evenodd"/></g><g clip-path="url(#clip37)"><text fill="#595959" fill-opacity="1" font-family="Calibri,Calibri_MSFontService,sans-serif" font-style="normal" font-variant="normal" font-weight="400" font-stretch="normal" font-size="41" text-anchor="start" direction="ltr" writing-mode="lr-tb" unicode-bidi="normal" text-decoration="none" transform="matrix(1 0 0 1 4729.81 955)">VGS=2</text></g><g clip-path="url(#clip38)"><path d="M4601.5 1021.5 4717.5 1021.5" stroke="#4472C4" stroke-width="6.875" stroke-linecap="round" stroke-linejoin="round" stroke-miterlimit="10" stroke-opacity="1" fill="none" fill-rule="evenodd"/></g><g clip-path="url(#clip39)"><text fill="#595959" fill-opacity="1" font-family="Calibri,Calibri_MSFontService,sans-serif" font-style="normal" font-variant="normal" font-weight="400" font-stretch="normal" font-size="41" text-anchor="start" direction="ltr" writing-mode="lr-tb" unicode-bidi="normal" text-decoration="none" transform="matrix(1 0 0 1 4729.81 1032)">VGS=1</text></g><g clip-path="url(#clip40)"><path d="M4601.5 1096.06 4601.51 1096.06C4603.41 1096.06 4604.94 1097.6 4604.94 1099.5 4604.94 1101.4 4603.41 1102.94 4601.51 1102.94L4601.5 1102.94C4599.6 1102.94 4598.06 1101.4 4598.06 1099.5 4598.06 1097.6 4599.6 1096.06 4601.5 1096.06ZM4615.26 1096.06 4615.26 1096.06C4617.16 1096.06 4618.7 1097.6 4618.7 1099.5 4618.7 1101.4 4617.16 1102.94 4615.26 1102.94L4615.26 1102.94C4613.36 1102.94 4611.82 1101.4 4611.82 1099.5 4611.82 1097.6 4613.36 1096.06 4615.26 1096.06ZM4629.01 1096.06 4629.02 1096.06C4630.92 1096.06 4632.46 1097.6 4632.46 1099.5 4632.46 1101.4 4630.92 1102.94 4629.02 1102.94L4629.01 1102.94C4627.12 1102.94 4625.58 1101.4 4625.58 1099.5 4625.58 1097.6 4627.12 1096.06 4629.01 1096.06ZM4642.77 1096.06 4642.78 1096.06C4644.68 1096.06 4646.21 1097.6 4646.21 1099.5 4646.21 1101.4 4644.68 1102.94 4642.78 1102.94L4642.77 1102.94C4640.87 1102.94 4639.33 1101.4 4639.33 1099.5 4639.33 1097.6 4640.87 1096.06 4642.77 1096.06ZM4656.53 1096.06 4656.53 1096.06C4658.43 1096.06 4659.97 1097.6 4659.97 1099.5 4659.97 1101.4 4658.43 1102.94 4656.53 1102.94L4656.53 1102.94C4654.63 1102.94 4653.09 1101.4 4653.09 1099.5 4653.09 1097.6 4654.63 1096.06 4656.53 1096.06ZM4670.28 1096.06 4670.29 1096.06C4672.19 1096.06 4673.73 1097.6 4673.73 1099.5 4673.73 1101.4 4672.19 1102.94 4670.29 1102.94L4670.28 1102.94C4668.39 1102.94 4666.85 1101.4 4666.85 1099.5 4666.85 1097.6 4668.39 1096.06 4670.28 1096.06ZM4684.04 1096.06 4684.05 1096.06C4685.95 1096.06 4687.49 1097.6 4687.49 1099.5 4687.49 1101.4 4685.95 1102.94 4684.05 1102.94L4684.04 1102.94C4682.14 1102.94 4680.6 1101.4 4680.6 1099.5 4680.6 1097.6 4682.14 1096.06 4684.04 1096.06ZM4697.8 1096.06 4697.81 1096.06C4699.7 1096.06 4701.24 1097.6 4701.24 1099.5 4701.24 1101.4 4699.7 1102.94 4697.81 1102.94L4697.8 1102.94C4695.9 1102.94 4694.36 1101.4 4694.36 1099.5 4694.36 1097.6 4695.9 1096.06 4697.8 1096.06ZM4711.56 1096.06 4711.56 1096.06C4713.46 1096.06 4715 1097.6 4715 1099.5 4715 1101.4 4713.46 1102.94 4711.56 1102.94L4711.56 1102.94C4709.66 1102.94 4708.12 1101.4 4708.12 1099.5 4708.12 1097.6 4709.66 1096.06 4711.56 1096.06Z" fill="#FFC000" fill-rule="nonzero" fill-opacity="1"/></g><g clip-path="url(#clip41)"><text fill="#595959" fill-opacity="1" font-family="Calibri,Calibri_MSFontService,sans-serif" font-style="normal" font-variant="normal" font-weight="400" font-stretch="normal" font-size="41" text-anchor="start" direction="ltr" writing-mode="lr-tb" unicode-bidi="normal" text-decoration="none" transform="matrix(1 0 0 1 4729.81 1109)">boundary</text></g><rect x="2821.5" y="228.5" width="2116" height="1314" stroke="#D9D9D9" stroke-width="3.4375" stroke-linecap="butt" stroke-linejoin="round" stroke-miterlimit="10" stroke-opacity="1" fill="none"/><g clip-path="url(#clip42)"><g clip-path="url(#clip43)"><text fill="#000000" fill-opacity="1" font-family="Calibri,Calibri_MSFontService,sans-serif" font-style="normal" font-variant="normal" font-weight="400" font-stretch="normal" font-size="50" text-anchor="start" direction="ltr" writing-mode="lr-tb" unicode-bidi="normal" text-decoration="none" transform="matrix(1 0 0 1 4066.32 494)">Saturation Region</text></g></g><g clip-path="url(#clip44)"><text fill="#000000" fill-opacity="1" font-family="Calibri,Calibri_MSFontService,sans-serif" font-style="normal" font-variant="normal" font-weight="400" font-stretch="normal" font-size="50" text-anchor="start" direction="ltr" writing-mode="lr-tb" unicode-bidi="normal" text-decoration="none" transform="matrix(1 0 0 1 3409.67 494)">Linear Region</text></g></g></svg>