<?xml version="1.0" encoding="UTF-8" standalone="no"?>
<!-- Generator: Adobe Illustrator 19.1.0, SVG Export Plug-In . SVG Version: 6.00 Build 0)  -->

<svg
   xmlns:dc="http://purl.org/dc/elements/1.1/"
   xmlns:cc="http://creativecommons.org/ns#"
   xmlns:rdf="http://www.w3.org/1999/02/22-rdf-syntax-ns#"
   xmlns:svg="http://www.w3.org/2000/svg"
   xmlns="http://www.w3.org/2000/svg"
   xmlns:sodipodi="http://sodipodi.sourceforge.net/DTD/sodipodi-0.dtd"
   xmlns:inkscape="http://www.inkscape.org/namespaces/inkscape"
   version="1.1"
   id="Layer_1"
   x="0px"
   y="0px"
   viewBox="0 0 297 149.53806"
   xml:space="preserve"
   inkscape:version="0.91 r13725"
   sodipodi:docname="circuit_terminology_make_break.svg"
   width="297"
   height="149.53806"><metadata
     id="metadata151"><rdf:RDF><cc:Work
         rdf:about=""><dc:format>image/svg+xml</dc:format><dc:type
           rdf:resource="http://purl.org/dc/dcmitype/StillImage" /><dc:title></dc:title></cc:Work></rdf:RDF></metadata><defs
     id="defs149" /><sodipodi:namedview
     pagecolor="#ffffff"
     bordercolor="#666666"
     borderopacity="1"
     objecttolerance="10"
     gridtolerance="10"
     guidetolerance="10"
     inkscape:pageopacity="0"
     inkscape:pageshadow="2"
     inkscape:window-width="640"
     inkscape:window-height="480"
     id="namedview147"
     showgrid="false"
     fit-margin-top="10"
     fit-margin-right="10"
     fit-margin-bottom="10"
     fit-margin-left="10"
     inkscape:zoom="2.26"
     inkscape:cx="149"
     inkscape:cy="67.507121"
     inkscape:current-layer="Layer_1" /><style
     type="text/css"
     id="style3">
	.st0{fill:none;stroke:#000000;stroke-linecap:round;stroke-linejoin:round;stroke-miterlimit:10;}
	.st1{fill:none;stroke:#000000;stroke-width:2;stroke-linecap:round;stroke-linejoin:round;stroke-miterlimit:10;}
	.st2{fill:none;stroke:#000000;stroke-width:2;stroke-miterlimit:10;}
	.st3{fill:none;stroke:#000000;stroke-linecap:round;stroke-miterlimit:10;}
	.st4{fill:none;stroke:#000000;stroke-width:1.5;stroke-miterlimit:10;}
	.st5{fill:none;stroke:#000000;stroke-width:2;stroke-linecap:round;stroke-miterlimit:10;}
	.st6{fill:none;}
	.st7{stroke:#000000;stroke-linecap:round;stroke-linejoin:round;stroke-miterlimit:10;}
	.st8{fill:none;stroke:#000000;stroke-miterlimit:10;}
	.st9{fill:#FFFFFF;stroke:#000000;stroke-miterlimit:10;}
	.st10{fill:#11ACCD;}
	.st11{fill:none;stroke:#11ACCD;stroke-width:3;stroke-linecap:round;stroke-miterlimit:10;}
	.st12{fill:#FF9C39;}
	.st13{fill:none;stroke:#FF9C39;stroke-width:2;stroke-linecap:round;stroke-miterlimit:10;}
	.st14{fill:none;stroke:#E84D39;stroke-width:2;stroke-linecap:round;stroke-miterlimit:10;}
	.st15{fill:#E84D39;}
	.st16{fill:#BABEC2;}
	.st17{fill:none;stroke:#BABEC2;stroke-linecap:round;stroke-linejoin:round;stroke-miterlimit:10;}
</style><g
     id="g5"
     transform="translate(-1,7.0309298)"><g
       id="g7"><path
         class="st13"
         d="m 233.8,48 c 2.4,-4.5 2.5,-11.7 0,-19 -1.4,-4.2 -3.6,-7.8 -6,-10.6"
         id="path9"
         inkscape:connector-curvature="0"
         style="fill:none;stroke:#ff9c39;stroke-width:2;stroke-linecap:round;stroke-miterlimit:10" /><g
         id="g11"><path
           class="st12"
           d="m 222.1,14 c 3.4,1.2 8.1,2.2 11.6,2 l -5.2,3.1 -2,5.7 C 225.9,21.4 224,17.1 222.1,14 Z"
           id="path13"
           inkscape:connector-curvature="0"
           style="fill:#ff9c39" /></g></g></g><g
     id="g15"
     transform="translate(-1,7.0309298)"><g
       id="g17"><path
         class="st13"
         d="M 85.5,45 C 85.7,41.4 85.2,37.2 83.7,33 81.2,25.7 76.6,20.1 72,18"
         id="path19"
         inkscape:connector-curvature="0"
         style="fill:none;stroke:#ff9c39;stroke-width:2;stroke-linecap:round;stroke-miterlimit:10" /><g
         id="g21"><path
           class="st12"
           d="m 83.7,52.1 c 2,-3 5.1,-6.7 7.9,-8.7 l -6,0.7 -5.1,-3.3 c 1.6,3 2.7,7.6 3.2,11.3 z"
           id="path23"
           inkscape:connector-curvature="0"
           style="fill:#ff9c39" /></g></g></g><g
     id="g25"
     transform="translate(-1,7.0309298)"><circle
       class="st2"
       cx="180"
       cy="84"
       r="18"
       id="circle27"
       style="fill:none;stroke:#000000;stroke-width:2;stroke-miterlimit:10" /><polyline
       class="st3"
       points="180,66 180,36 210,36  "
       id="polyline29"
       style="fill:none;stroke:#000000;stroke-linecap:round;stroke-miterlimit:10" /><polyline
       class="st0"
       points="276,132 180,132 180,102  "
       id="polyline31"
       style="fill:none;stroke:#000000;stroke-linecap:round;stroke-linejoin:round;stroke-miterlimit:10" /><line
       class="st4"
       x1="180"
       y1="70.5"
       x2="180"
       y2="82.5"
       id="line33"
       style="fill:none;stroke:#000000;stroke-width:1.5;stroke-miterlimit:10" /><line
       class="st4"
       x1="174"
       y1="76.5"
       x2="186"
       y2="76.5"
       id="line35"
       style="fill:none;stroke:#000000;stroke-width:1.5;stroke-miterlimit:10" /><line
       class="st4"
       x1="174"
       y1="94.5"
       x2="186"
       y2="94.5"
       id="line37"
       style="fill:none;stroke:#000000;stroke-width:1.5;stroke-miterlimit:10" /></g><g
     id="g39"
     transform="translate(-1,7.0309298)"><line
       class="st0"
       x1="276"
       y1="60.599998"
       x2="276"
       y2="36"
       id="line41"
       style="fill:none;stroke:#000000;stroke-linecap:round;stroke-linejoin:round;stroke-miterlimit:10" /><polyline
       class="st1"
       points="276,107.4 267,103.5 285,95.7 267,87.9 285,80.1 267,72.3 285,64.5 276,60.6  "
       id="polyline43"
       style="fill:none;stroke:#000000;stroke-width:2;stroke-linecap:round;stroke-linejoin:round;stroke-miterlimit:10" /><line
       class="st0"
       x1="276"
       y1="132"
       x2="276"
       y2="107.4"
       id="line45"
       style="fill:none;stroke:#000000;stroke-linecap:round;stroke-linejoin:round;stroke-miterlimit:10" /><rect
       x="264"
       y="36"
       class="st6"
       width="24"
       height="96"
       id="rect47"
       style="fill:none" /></g><g
     id="g49"
     transform="translate(-1,7.0309298)"><g
       id="g51"><circle
         class="st16"
         cx="96"
         cy="36"
         r="3"
         id="circle53"
         style="fill:#babec2" /><rect
         x="90"
         y="30"
         class="st6"
         width="12"
         height="12"
         id="rect55"
         style="fill:none" /></g><g
       id="g57"><circle
         class="st16"
         cx="60"
         cy="36"
         r="3"
         id="circle59"
         style="fill:#babec2" /><rect
         x="54"
         y="30"
         class="st6"
         width="12"
         height="12"
         id="rect61"
         style="fill:none" /></g><line
       class="st17"
       x1="60"
       y1="36"
       x2="96"
       y2="24.4"
       id="line63"
       style="fill:none;stroke:#babec2;stroke-linecap:round;stroke-linejoin:round;stroke-miterlimit:10" /></g><g
     id="g65"
     transform="translate(-1,7.0309298)"><g
       id="g67"><circle
         cx="96"
         cy="36"
         r="3"
         id="circle69" /><rect
         x="90"
         y="30"
         class="st6"
         width="12"
         height="12"
         id="rect71"
         style="fill:none" /></g><g
       id="g73"><circle
         cx="60"
         cy="36"
         r="3"
         id="circle75" /><rect
         x="54"
         y="30"
         class="st6"
         width="12"
         height="12"
         id="rect77"
         style="fill:none" /></g><line
       class="st0"
       x1="60"
       y1="36"
       x2="97.699997"
       y2="32.599998"
       id="line79"
       style="fill:none;stroke:#000000;stroke-linecap:round;stroke-linejoin:round;stroke-miterlimit:10" /></g><g
     id="g81"
     transform="translate(-1,7.0309298)"><g
       id="g83"><circle
         cx="246"
         cy="36"
         r="3"
         id="circle85" /><rect
         x="240"
         y="30"
         class="st6"
         width="12"
         height="12"
         id="rect87"
         style="fill:none" /></g><g
       id="g89"><circle
         cx="210"
         cy="36"
         r="3"
         id="circle91" /><rect
         x="204"
         y="30"
         class="st6"
         width="12"
         height="12"
         id="rect93"
         style="fill:none" /></g><line
       class="st0"
       x1="210"
       y1="36"
       x2="246"
       y2="24.4"
       id="line95"
       style="fill:none;stroke:#000000;stroke-linecap:round;stroke-linejoin:round;stroke-miterlimit:10" /></g><g
     id="g97"
     transform="translate(-1,7.0309298)"><line
       class="st17"
       x1="210"
       y1="36"
       x2="247.7"
       y2="32.599998"
       id="line99"
       style="fill:none;stroke:#babec2;stroke-linecap:round;stroke-linejoin:round;stroke-miterlimit:10" /><g
       id="g101"><circle
         cx="246"
         cy="36"
         r="3"
         id="circle103" /><rect
         x="240"
         y="30"
         class="st6"
         width="12"
         height="12"
         id="rect105"
         style="fill:none" /></g><g
       id="g107"><circle
         cx="210"
         cy="36"
         r="3"
         id="circle109" /><rect
         x="204"
         y="30"
         class="st6"
         width="12"
         height="12"
         id="rect111"
         style="fill:none" /></g></g><line
     class="st3"
     x1="245"
     y1="43.03093"
     x2="275"
     y2="43.03093"
     id="line113"
     style="fill:none;stroke:#000000;stroke-linecap:round;stroke-miterlimit:10" /><g
     id="g115"
     transform="translate(-1,7.0309298)"><circle
       class="st2"
       cx="30"
       cy="84"
       r="18"
       id="circle117"
       style="fill:none;stroke:#000000;stroke-width:2;stroke-miterlimit:10" /><polyline
       class="st3"
       points="30,66 30,36 60,36  "
       id="polyline119"
       style="fill:none;stroke:#000000;stroke-linecap:round;stroke-miterlimit:10" /><polyline
       class="st0"
       points="126,132 30,132 30,102  "
       id="polyline121"
       style="fill:none;stroke:#000000;stroke-linecap:round;stroke-linejoin:round;stroke-miterlimit:10" /><line
       class="st4"
       x1="30"
       y1="70.5"
       x2="30"
       y2="82.5"
       id="line123"
       style="fill:none;stroke:#000000;stroke-width:1.5;stroke-miterlimit:10" /><line
       class="st4"
       x1="24"
       y1="76.5"
       x2="36"
       y2="76.5"
       id="line125"
       style="fill:none;stroke:#000000;stroke-width:1.5;stroke-miterlimit:10" /><line
       class="st4"
       x1="24"
       y1="94.5"
       x2="36"
       y2="94.5"
       id="line127"
       style="fill:none;stroke:#000000;stroke-width:1.5;stroke-miterlimit:10" /></g><g
     id="g129"
     transform="translate(-1,7.0309298)"><line
       class="st0"
       x1="126"
       y1="60.599998"
       x2="126"
       y2="36"
       id="line131"
       style="fill:none;stroke:#000000;stroke-linecap:round;stroke-linejoin:round;stroke-miterlimit:10" /><polyline
       class="st1"
       points="126,107.4 117,103.5 135,95.7 117,87.9 135,80.1 117,72.3 135,64.5 126,60.6  "
       id="polyline133"
       style="fill:none;stroke:#000000;stroke-width:2;stroke-linecap:round;stroke-linejoin:round;stroke-miterlimit:10" /><line
       class="st0"
       x1="126"
       y1="132"
       x2="126"
       y2="107.4"
       id="line135"
       style="fill:none;stroke:#000000;stroke-linecap:round;stroke-linejoin:round;stroke-miterlimit:10" /><rect
       x="114"
       y="36"
       class="st6"
       width="24"
       height="96"
       id="rect137"
       style="fill:none" /></g><line
     class="st3"
     x1="95"
     y1="43.03093"
     x2="125"
     y2="43.03093"
     id="line139"
     style="fill:none;stroke:#000000;stroke-linecap:round;stroke-miterlimit:10" /><g
     style="font-style:normal;font-variant:normal;font-weight:normal;font-stretch:normal;font-size:40px;line-height:125%;font-family:KaTeX_Main;-inkscape-font-specification:'KaTeX_Main, Normal';text-align:start;letter-spacing:0px;word-spacing:0px;writing-mode:lr-tb;text-anchor:start;fill:#ff9c39;fill-opacity:1;stroke:none;stroke-width:1px;stroke-linecap:butt;stroke-linejoin:miter;stroke-opacity:1"
     id="text4279"><path
       d="m 17.814352,24.265 q 0.18,0.315 1.0575,0.315 l 0.315,0 0.36,0 0,1.035 -0.18,0 q -0.2925,-0.0675 -2.52,-0.0675 -2.2275,0 -2.52,0.0675 l -0.18,0 0,-1.035 0.36,0 0.315,0 q 0.8775,0 1.0575,-0.315 l 0,-0.18 q 0,-0.2025 0,-0.5175 0,-0.315 0,-0.6975 0.0225,-0.405 0.0225,-0.8775 0,-0.495 0,-0.945 0,-0.6975 -0.0225,-1.485 0,-0.81 0,-1.3275 l 0,-0.5175 q -0.0675,-0.4275 -0.3375,-0.5625 -0.2475,-0.1575 -0.99,-0.2025 l -0.405,0 0,-0.5175 q 0,-0.5175 0.045,-0.5175 l 0.225,-0.0225 q 0.225,-0.0225 0.63,-0.045 0.4275,-0.0225 0.8325,-0.045 0.3825,-0.0225 0.81,-0.045 0.4275,-0.045 0.6525,-0.0675 0.225,-0.0225 0.2475,-0.0225 l 0.0675,0 0,0.9 q 0,0.855 0.0225,0.855 l 0.0225,-0.0225 q 1.215,-1.7325 3.4425,-1.7325 2.1825,0.0675 2.6775,1.71 l 0.045,0.1125 q 0.54,-0.675 0.6075,-0.7425 1.1475,-1.08 2.6775,-1.08 2.8125,0 3.0825,2.5425 0.0225,0.1575 0.0225,3.1275 0,2.88 0.0225,2.925 0.09,0.18 0.27,0.2475 0.4725,0.0675 1.1025,0.0675 l 0.36,0 0,1.035 -0.18,0 q -0.2925,-0.0675 -2.52,-0.0675 -2.2275,0 -2.52,0.0675 l -0.18,0 0,-1.035 0.36,0 0.18,0 q 1.1925,0 1.1925,-0.36 0.0225,-0.045 0.0225,-3.105 -0.0225,-3.0375 -0.045,-3.2175 -0.1575,-0.72 -0.5175,-1.035 -0.3375,-0.3375 -1.0575,-0.3375 -1.0125,0 -1.7775,0.765 -0.7875,0.7875 -0.9225,1.98 0,0.0225 -0.0225,0.4275 0,0.3825 0,0.99 0,0.6075 0,1.1475 0,0.3375 0,0.72 0,0.36 0,0.6525 0,0.2925 0,0.54 0.0225,0.225 0.0225,0.3825 l 0,0.135 q 0.18,0.315 1.0575,0.315 l 0.315,0 0.36,0 0,1.035 -0.18,0 q -0.2925,-0.0675 -2.52,-0.0675 -2.2275,0 -2.52,0.0675 l -0.18,0 0,-1.035 0.36,0 0.18,0 q 1.1925,0 1.1925,-0.36 0.0225,-0.045 0.0225,-3.105 -0.0225,-3.0375 -0.045,-3.2175 -0.1575,-0.72 -0.5175,-1.035 -0.3375,-0.3375 -1.0575,-0.3375 -1.0125,0 -1.7775,0.765 -0.7875,0.7875 -0.9225,1.98 0,0.0225 0,0.4275 0,0.3825 -0.0225,0.99 0,0.6075 0,1.1475 0,0.3375 0,0.72 0,0.36 0,0.6525 0.0225,0.2925 0.0225,0.54 0,0.225 0,0.3825 l 0,0.135 z"
       style="font-style:normal;font-variant:normal;font-weight:normal;font-stretch:normal;font-size:22.5px;line-height:125%;font-family:KaTeX_Main;-inkscape-font-specification:'KaTeX_Main, Normal';text-align:start;writing-mode:lr-tb;text-anchor:start;fill:#ff9c39;fill-opacity:1"
       id="path4299" /><path
       d="m 35.814,18.3925 q -0.3375,0.36 -0.855,0.36 -0.5175,0 -0.855,-0.36 -0.3375,-0.36 -0.3375,-0.855 0,-0.315 0.18,-0.72 0.2925,-0.6075 1.17,-0.945 0.8775,-0.3375 2.1375,-0.3375 1.485,0 2.565,0.675 1.1025,0.675 1.44,1.755 0.1125,0.315 0.1125,0.72 0.0225,0.3825 0.0225,2.565 0,2.205 0,2.5875 0.0225,0.36 0.135,0.5625 0.135,0.315 0.45,0.315 0.2925,0 0.4275,-0.315 0.135,-0.27 0.135,-1.2375 l 0,-0.81 0.9,0 0,0.8775 q -0.0225,0.9 -0.0675,1.0575 -0.2025,0.63 -0.7425,1.0575 -0.54,0.405 -1.2825,0.405 -0.5625,0 -1.0125,-0.3825 -0.4275,-0.405 -0.585,-0.9675 l 0,-0.09 q -0.0675,0.0675 -0.27,0.315 -0.2025,0.225 -0.2925,0.315 -1.1025,0.9225 -2.565,0.9225 -1.17,0 -2.0925,-0.495 -0.9225,-0.495 -1.2375,-1.305 -0.18,-0.4275 -0.18,-0.855 0,-1.0575 0.8775,-1.935 0.5175,-0.5175 1.2825,-0.855 1.53,-0.6975 3.915,-0.8325 l 0.315,0 0,-0.495 q 0,-0.765 -0.135,-1.125 -0.225,-0.7425 -0.7875,-1.17 -0.5625,-0.4275 -1.395,-0.4275 -1.5075,0 -1.5075,0.18 0.495,0.3375 0.495,0.99 0,0.495 -0.36,0.855 z m 3.69,3.285 q 0,-1.305 -0.0225,-1.305 -0.0675,0 -0.1125,0.0225 -3.0825,0.2025 -3.9375,1.8225 -0.2475,0.45 -0.2475,1.0125 0,0.765 0.54,1.2825 0.54,0.5175 1.3275,0.5175 0.9,0 1.53,-0.54 0.6525,-0.54 0.855,-1.3275 0.045,-0.1575 0.0675,-1.485 z"
       style="font-style:normal;font-variant:normal;font-weight:normal;font-stretch:normal;font-size:22.5px;line-height:125%;font-family:KaTeX_Main;-inkscape-font-specification:'KaTeX_Main, Normal';text-align:start;writing-mode:lr-tb;text-anchor:start;fill:#ff9c39;fill-opacity:1"
       id="path4301" /><path
       d="m 44.409,24.58 0.315,0 q 0.8775,0 1.0575,-0.315 l 0,-0.18 q 0,-0.2025 0,-0.5175 0,-0.315 0,-0.7425 0.0225,-0.4275 0.0225,-0.9675 0,-0.5625 0,-1.125 0,-0.585 0,-1.2375 0,-0.675 0,-1.2825 0,-0.8325 0,-1.755 0,-0.945 0,-1.6875 0,-0.7425 -0.0225,-1.35 0,-0.63 0,-0.99 0,-0.36 0,-0.3825 Q 45.714,11.62 45.444,11.485 45.1965,11.3275 44.454,11.2825 l -0.405,0 0,-0.5175 q 0,-0.5175 0.045,-0.5175 l 0.225,-0.0225 q 0.225,-0.0225 0.6525,-0.045 0.4275,-0.0225 0.8325,-0.045 0.3825,-0.0225 0.8325,-0.045 0.45,-0.045 0.675,-0.0675 0.225,-0.0225 0.2475,-0.0225 l 0.0675,0 0,5.1975002 0.0225,5.175 1.35,-1.215 q 1.35,-1.215 1.44,-1.35 0.135,-0.2025 0.135,-0.3825 0,-0.405 -0.4725,-0.4725 l -0.1125,0 0,-1.035 0.2025,0 q 0.2925,0.0675 2.6775,0.0675 0.1575,0 0.405,0 0.27,-0.0225 0.405,-0.0225 0.135,0 0.3375,0 0.225,-0.0225 0.3375,-0.0225 0.1125,-0.0225 0.135,-0.0225 l 0.1125,0 0,1.035 -0.2925,0 q -1.5525,0.1125 -2.61,0.99 -1.665,1.4175 -1.665,1.5075 0,0.0225 1.4175,2.115 1.44,2.07 1.5975,2.2725 0.315,0.4275 0.6975,0.585 0.405,0.1575 1.1025,0.1575 l 0.2475,0 0,1.035 -0.135,0 q -0.27,-0.0675 -1.9575,-0.0675 -2.205,0 -2.4975,0.0675 l -0.18,0 0,-1.035 0.1575,0 q 0.54,-0.045 0.54,-0.4275 0,-0.1575 -0.09,-0.315 -0.0675,-0.1125 -1.125,-1.665 -1.0575,-1.5525 -1.08,-1.5525 -0.27,0.225 -0.585,0.5175 l -0.585,0.5175 0,1.26 q 0,1.305 0.0225,1.35 0.09,0.18 0.27,0.2475 0.4725,0.0675 1.1025,0.0675 l 0.36,0 0,1.035 -0.18,0 q -0.2475,-0.0675 -2.4525,-0.0675 -2.205,0 -2.4525,0.0675 l -0.18,0 0,-1.035 0.36,0 z"
       style="font-style:normal;font-variant:normal;font-weight:normal;font-stretch:normal;font-size:22.5px;line-height:125%;font-family:KaTeX_Main;-inkscape-font-specification:'KaTeX_Main, Normal';text-align:start;writing-mode:lr-tb;text-anchor:start;fill:#ff9c39;fill-opacity:1"
       id="path4303" /><path
       d="m 64.84568,20.1025 q 0,0.1575 -0.1575,0.315 l -6.345,0 0,0.3375 q 0,1.665 0.45,2.52 0.81,1.665 2.79,1.665 0.9675,0 1.62,-0.72 0.45,-0.45 0.6975,-1.17 0.0675,-0.2475 0.135,-0.315 0.0675,-0.0675 0.36,-0.0675 0.45,0 0.45,0.225 0,0.09 -0.0675,0.2925 -0.4275,1.17 -1.3725,1.935 -0.9225,0.7425 -2.2725,0.7425 -0.4275,0 -0.99,-0.1125 -1.2825,-0.2475 -2.295,-1.17 -1.0125,-0.9225 -1.44,-2.2275 -0.27,-0.81 -0.27,-1.6425 0,-2.07 1.215,-3.4875 1.215,-1.44 2.9925,-1.665 0.09,-0.0225 0.315,-0.0225 2.0475,0 3.105,1.215 1.08,1.1925 1.08,3.3525 z m -1.845,-0.675 q -0.2025,-2.4525 -1.665,-2.97 -0.1575,-0.0675 -0.4725,-0.09 -1.17,0 -1.9125,1.08 -0.45,0.72 -0.585,2.0025 l 0,0.1575 4.635,0 0,-0.18 z"
       style="font-style:normal;font-variant:normal;font-weight:normal;font-stretch:normal;font-size:22.5px;line-height:125%;font-family:KaTeX_Main;-inkscape-font-specification:'KaTeX_Main, Normal';text-align:start;writing-mode:lr-tb;text-anchor:start;fill:#ff9c39;fill-opacity:1"
       id="path4305" /></g><g
     style="font-style:normal;font-variant:normal;font-weight:normal;font-stretch:normal;font-size:22.5px;line-height:125%;font-family:KaTeX_Main;-inkscape-font-specification:'KaTeX_Main, Normal';text-align:start;letter-spacing:0px;word-spacing:0px;writing-mode:lr-tb;text-anchor:start;fill:#ff9c39;fill-opacity:1;stroke:none;stroke-width:1px;stroke-linecap:butt;stroke-linejoin:miter;stroke-opacity:1"
     id="text4283"><path
       d="m 164.47236,10.577478 q 0.3825,-0.0225 0.8325,-0.045 0.45,-0.045 0.675,-0.0675 0.225,-0.0225 0.2475,-0.0225 l 0.0675,0 0,3.3975 q 0,3.42 0.0225,3.42 0.0675,-0.045 0.135,-0.1125 1.2375,-1.035 3.0825,-1.035 0.405,0 0.7425,0.0675 1.5975,0.315 2.655,1.6875 1.08,1.35 1.08,3.33 0,0.4275 -0.045,0.7875 -0.2925,1.8225 -1.5975,3.0825 -1.2825,1.2375 -3.195,1.2375 -1.7325,0 -2.97,-1.3275 l -0.1575,-0.1575 -0.225,0.405 q -0.045,0.0675 -0.135,0.225 -0.0675,0.135 -0.135,0.2475 -0.045,0.09 -0.0675,0.135 l -0.1125,0.2025 -0.45,0.0225 -0.45,0 0,-6.705 q 0,-6.7725 -0.0225,-6.8625 -0.0675,-0.4275 -0.3375,-0.5625 -0.2475,-0.1575 -0.99,-0.2025 l -0.405,0 0,-0.5175 q 0,-0.5175 0.045,-0.5175 l 0.225,-0.0225 q 0.225,-0.0225 0.6525,-0.045 0.4275,-0.0225 0.8325,-0.045 z m 5.2425,6.435 q -0.54,-0.0675 -0.6975,-0.0675 -1.575,0 -2.52,1.305 l -0.135,0.18 0,5.4225 0.1125,0.1575 q 0.675,1.08 1.7325,1.3725 0.2925,0.09 0.6975,0.09 1.44,0 2.2725,-1.215 0.18,-0.2475 0.36,-0.7425 0.27,-0.7875 0.27,-2.2275 0,-1.665 -0.27,-2.4975 -0.4725,-1.4175 -1.8225,-1.7775 z"
       style=""
       id="path4288" /><path
       d="m 175.60178,25.022478 0.315,0 q 0.8775,0 1.0575,-0.315 l 0,-0.18 q 0,-0.2025 0,-0.5175 0.0225,-0.315 0.0225,-0.6975 0,-0.405 0,-0.8775 0,-0.495 0,-0.945 0,-0.6975 0,-1.485 0,-0.81 0,-1.3275 l -0.0225,-0.5175 q -0.0675,-0.4275 -0.3375,-0.5625 -0.2475,-0.1575 -0.99,-0.2025 l -0.405,0 0,-0.5175 q 0,-0.5175 0.045,-0.5175 l 0.225,-0.0225 q 0.225,-0.0225 0.63,-0.045 0.405,-0.0225 0.81,-0.045 0.36,-0.0225 0.7875,-0.045 0.4275,-0.045 0.6525,-0.0675 0.225,-0.0225 0.2475,-0.0225 l 0.0675,0 0,1.5525 q 0.4275,-0.72 0.945,-1.125 0.5175,-0.405 1.3725,-0.405 0.63,0 1.08,0.2475 0.8775,0.45 0.8775,1.2825 0,0.495 -0.3375,0.8325 -0.3375,0.315 -0.81,0.315 -0.4725,0 -0.81,-0.315 -0.315,-0.315 -0.315,-0.81 0,-0.3825 0.18,-0.63 0.045,-0.09 0.045,-0.1125 -0.045,-0.045 -0.5175,0.09 -0.36,0.18 -0.54,0.3375 -0.9,0.855 -1.035,2.835 l 0,0.8775 q -0.0225,0.8775 -0.0225,1.5075 0,0.2925 0,0.63 0,0.315 0,0.5625 0.0225,0.2475 0.0225,0.45 0,0.2025 0,0.3375 l 0,0.1125 q 0.09,0.18 0.27,0.225 0.225,0.09 1.1925,0.1125 l 0.6975,0 0,1.035 -0.2025,0 q -0.405,-0.0675 -2.8575,-0.0675 -2.205,0 -2.52,0.0675 l -0.18,0 0,-1.035 0.36,0 z"
       style=""
       id="path4290" /><path
       d="m 192.91834,20.544978 q 0,0.1575 -0.1575,0.315 l -6.345,0 0,0.3375 q 0,1.665 0.45,2.52 0.81,1.665 2.79,1.665 0.9675,0 1.62,-0.72 0.45,-0.45 0.6975,-1.17 0.0675,-0.2475 0.135,-0.315 0.0675,-0.0675 0.36,-0.0675 0.45,0 0.45,0.225 0,0.09 -0.0675,0.2925 -0.4275,1.17 -1.3725,1.935 -0.9225,0.7425 -2.2725,0.7425 -0.4275,0 -0.99,-0.1125 -1.2825,-0.2475 -2.295,-1.17 -1.0125,-0.9225 -1.44,-2.2275 -0.27,-0.81 -0.27,-1.6425 0,-2.07 1.215,-3.4875 1.215,-1.44 2.9925,-1.665 0.09,-0.0225 0.315,-0.0225 2.0475,0 3.105,1.215 1.08,1.1925 1.08,3.3525 z m -1.845,-0.675 q -0.2025,-2.4525 -1.665,-2.97 -0.1575,-0.0675 -0.4725,-0.09 -1.17,0 -1.9125,1.08 -0.45,0.72 -0.585,2.0025 l 0,0.1575 4.635,0 0,-0.18 z"
       style=""
       id="path4292" /><path
       d="m 197.02143,18.834978 q -0.3375,0.36 -0.855,0.36 -0.5175,0 -0.855,-0.36 -0.3375,-0.36 -0.3375,-0.855 0,-0.315 0.18,-0.72 0.2925,-0.6075 1.17,-0.945 0.8775,-0.3375 2.1375,-0.3375 1.485,0 2.565,0.675 1.1025,0.675 1.44,1.755 0.1125,0.315 0.1125,0.72 0.0225,0.3825 0.0225,2.565 0,2.205 0,2.5875 0.0225,0.36 0.135,0.5625 0.135,0.315 0.45,0.315 0.2925,0 0.4275,-0.315 0.135,-0.27 0.135,-1.2375 l 0,-0.81 0.9,0 0,0.8775 q -0.0225,0.9 -0.0675,1.0575 -0.2025,0.63 -0.7425,1.0575 -0.54,0.405 -1.2825,0.405 -0.5625,0 -1.0125,-0.3825 -0.4275,-0.405 -0.585,-0.9675 l 0,-0.09 q -0.0675,0.0675 -0.27,0.315 -0.2025,0.225 -0.2925,0.315 -1.1025,0.9225 -2.565,0.9225 -1.17,0 -2.0925,-0.495 -0.9225,-0.495 -1.2375,-1.305 -0.18,-0.4275 -0.18,-0.855 0,-1.0575 0.8775,-1.935 0.5175,-0.5175 1.2825,-0.855 1.53,-0.6975 3.915,-0.8325 l 0.315,0 0,-0.495 q 0,-0.765 -0.135,-1.125 -0.225,-0.7425 -0.7875,-1.17 -0.5625,-0.4275 -1.395,-0.4275 -1.5075,0 -1.5075,0.18 0.495,0.3375 0.495,0.99 0,0.495 -0.36,0.855 z m 3.69,3.285 q 0,-1.305 -0.0225,-1.305 -0.0675,0 -0.1125,0.0225 -3.0825,0.2025 -3.9375,1.8225 -0.2475,0.45 -0.2475,1.0125 0,0.765 0.54,1.2825 0.54,0.5175 1.3275,0.5175 0.9,0 1.53,-0.54 0.6525,-0.54 0.855,-1.3275 0.045,-0.1575 0.0675,-1.485 z"
       style=""
       id="path4294" /><path
       d="m 205.61643,25.022478 0.315,0 q 0.8775,0 1.0575,-0.315 l 0,-0.18 q 0,-0.2025 0,-0.5175 0,-0.315 0,-0.7425 0.0225,-0.4275 0.0225,-0.9675 0,-0.5625 0,-1.125 0,-0.585 0,-1.2375 0,-0.675 0,-1.2825 0,-0.8325 0,-1.755 0,-0.945 0,-1.6875 0,-0.7425 -0.0225,-1.35 0,-0.63 0,-0.99 0,-0.36 0,-0.3825 -0.0675,-0.4275 -0.3375,-0.5625 -0.2475,-0.1575 -0.99,-0.2025 l -0.405,0 0,-0.5175 q 0,-0.5175 0.045,-0.5175 l 0.225,-0.0225 q 0.225,-0.0225 0.6525,-0.045 0.4275,-0.0225 0.8325,-0.045 0.3825,-0.0225 0.8325,-0.045 0.45,-0.045 0.675,-0.0675 0.225,-0.0225 0.2475,-0.0225 l 0.0675,0 0,5.1975 0.0225,5.175 1.35,-1.215 q 1.35,-1.215 1.44,-1.35 0.135,-0.2025 0.135,-0.3825 0,-0.405 -0.4725,-0.4725 l -0.1125,0 0,-1.035 0.2025,0 q 0.2925,0.0675 2.6775,0.0675 0.1575,0 0.405,0 0.27,-0.0225 0.405,-0.0225 0.135,0 0.3375,0 0.225,-0.0225 0.3375,-0.0225 0.1125,-0.0225 0.135,-0.0225 l 0.1125,0 0,1.035 -0.2925,0 q -1.5525,0.1125 -2.61,0.99 -1.665,1.4175 -1.665,1.5075 0,0.0225 1.4175,2.115 1.44,2.07 1.5975,2.2725 0.315,0.4275 0.6975,0.585 0.405,0.1575 1.1025,0.1575 l 0.2475,0 0,1.035 -0.135,0 q -0.27,-0.0675 -1.9575,-0.0675 -2.205,0 -2.4975,0.0675 l -0.18,0 0,-1.035 0.1575,0 q 0.54,-0.045 0.54,-0.4275 0,-0.1575 -0.09,-0.315 -0.0675,-0.1125 -1.125,-1.665 -1.0575,-1.5525 -1.08,-1.5525 -0.27,0.225 -0.585,0.5175 l -0.585,0.5175 0,1.26 q 0,1.305 0.0225,1.35 0.09,0.18 0.27,0.2475 0.4725,0.0675 1.1025,0.0675 l 0.36,0 0,1.035 -0.18,0 q -0.2475,-0.0675 -2.4525,-0.0675 -2.205,0 -2.4525,0.0675 l -0.18,0 0,-1.035 0.36,0 z"
       style=""
       id="path4296" /></g></svg>