<?xml version="1.0" encoding="UTF-8" standalone="no"?>
<!-- Generator: Adobe Illustrator 19.1.0, SVG Export Plug-In . SVG Version: 6.00 Build 0)  -->

<svg
   xmlns:dc="http://purl.org/dc/elements/1.1/"
   xmlns:cc="http://creativecommons.org/ns#"
   xmlns:rdf="http://www.w3.org/1999/02/22-rdf-syntax-ns#"
   xmlns:svg="http://www.w3.org/2000/svg"
   xmlns="http://www.w3.org/2000/svg"
   xmlns:sodipodi="http://sodipodi.sourceforge.net/DTD/sodipodi-0.dtd"
   xmlns:inkscape="http://www.inkscape.org/namespaces/inkscape"
   version="1.1"
   id="Layer_1"
   x="0px"
   y="0px"
   width="366px"
   height="96px"
   viewBox="0 0 366 96"
   style="enable-background:new 0 0 366 96;"
   xml:space="preserve"
   inkscape:version="0.91 r13725"
   sodipodi:docname="circuit_terminology_dots.svg"><metadata
     id="metadata121"><rdf:RDF><cc:Work
         rdf:about=""><dc:format>image/svg+xml</dc:format><dc:type
           rdf:resource="http://purl.org/dc/dcmitype/StillImage" /><dc:title></dc:title></cc:Work></rdf:RDF></metadata><defs
     id="defs119" /><sodipodi:namedview
     pagecolor="#ffffff"
     bordercolor="#666666"
     borderopacity="1"
     objecttolerance="10"
     gridtolerance="10"
     guidetolerance="10"
     inkscape:pageopacity="0"
     inkscape:pageshadow="2"
     inkscape:window-width="640"
     inkscape:window-height="480"
     id="namedview117"
     showgrid="false"
     inkscape:zoom="1.852459"
     inkscape:cx="183"
     inkscape:cy="48"
     inkscape:current-layer="Layer_1" /><style
     type="text/css"
     id="style3">
	.st0{fill:none;}
	.st1{fill:#E07D10;}
	.st2{fill:none;stroke:#ED5FA6;stroke-width:7;stroke-linecap:round;stroke-linejoin:round;stroke-miterlimit:10;}
	.st3{fill:none;stroke:#AA87FF;stroke-width:7;stroke-linecap:round;stroke-linejoin:round;stroke-miterlimit:10;}
	.st4{fill:none;stroke:#FF9C39;stroke-width:7;stroke-linecap:round;stroke-linejoin:round;stroke-miterlimit:10;}
	.st5{fill:#8AF281;stroke:#8AF281;stroke-linecap:round;stroke-linejoin:round;stroke-miterlimit:10;}
	.st6{fill:#FF9C39;stroke:#E07D10;stroke-linecap:round;stroke-linejoin:round;stroke-miterlimit:10;}
	.st7{fill:none;stroke:#8AF281;stroke-width:7;stroke-linecap:round;stroke-linejoin:round;stroke-miterlimit:10;}
	.st8{fill:#ED5FA6;stroke:#ED5FA6;stroke-width:7;stroke-linecap:round;stroke-linejoin:round;stroke-miterlimit:10;}
	.st9{fill:none;stroke:#1FAB54;stroke-width:7;stroke-linecap:round;stroke-linejoin:round;stroke-miterlimit:10;}
	.st10{fill:none;stroke:#1FAB54;stroke-width:6;stroke-linecap:round;stroke-linejoin:round;stroke-miterlimit:10;}
	.st11{fill:#FF9C39;stroke:#FF9C39;stroke-width:5;stroke-linecap:round;stroke-miterlimit:10;}
	.st12{fill:none;stroke:#1FAB54;stroke-width:4;stroke-miterlimit:10;}
	.st13{fill:none;stroke:#3C91E5;stroke-width:4;stroke-miterlimit:10;}
	.st14{fill:#FFFFFF;}
	.st15{fill:none;stroke:#11ACCD;stroke-width:5;stroke-linecap:round;stroke-miterlimit:10;}
	.st16{fill:#11ACCD;}
	.st17{fill:none;stroke:#FF9C39;stroke-width:4;stroke-miterlimit:10;}
	.st18{fill:none;stroke:#63D9EA;stroke-width:7;stroke-linecap:round;stroke-miterlimit:10;}
	.st19{fill:none;stroke:#63D9EA;stroke-width:8;stroke-linecap:round;stroke-miterlimit:10;}
	.st20{fill:none;stroke:#000000;stroke-linecap:round;stroke-linejoin:round;stroke-miterlimit:10;}
	.st21{fill:none;stroke:#000000;stroke-width:1.5;stroke-linecap:round;stroke-linejoin:round;stroke-miterlimit:10;}
	.st22{fill:none;stroke:#000000;stroke-linecap:round;stroke-miterlimit:10;}
	.st23{fill:none;stroke:#000000;stroke-width:1.5;stroke-linecap:round;stroke-miterlimit:10;}
	.st24{fill:none;stroke:#000000;stroke-width:2;stroke-linecap:round;stroke-linejoin:round;stroke-miterlimit:10;}
	.st25{fill:none;stroke:#000000;stroke-width:1.5;stroke-miterlimit:10;}
	.st26{fill:none;stroke:#000000;stroke-miterlimit:10;}
	.st27{fill:none;stroke:#000000;stroke-width:2;stroke-miterlimit:10;}
	.st28{fill:none;stroke:#000000;stroke-width:2;stroke-linecap:round;stroke-miterlimit:10;}
	.st29{fill:none;stroke:#000000;stroke-linecap:round;stroke-linejoin:round;}
	.st30{stroke:#000000;stroke-linecap:round;stroke-linejoin:round;stroke-miterlimit:10;}
	.st31{fill:none;stroke:#000000;stroke-width:1.5;stroke-linejoin:round;stroke-miterlimit:10;}
	.st32{fill:none;stroke:#000000;stroke-linejoin:round;stroke-miterlimit:10;}
	.st33{clip-path:url(#SVGID_2_);fill:none;stroke:#000000;stroke-linejoin:round;stroke-miterlimit:10;}
	.st34{clip-path:url(#SVGID_2_);fill:none;stroke:#ADADEB;stroke-linejoin:round;stroke-miterlimit:10;}
	.st35{clip-path:url(#SVGID_2_);}
	.st36{stroke:#000000;stroke-linejoin:round;stroke-miterlimit:10;}
	.st37{stroke:#000000;stroke-width:3;stroke-linejoin:round;stroke-miterlimit:10;}
	.st38{fill:none;stroke:#000000;stroke-width:2;stroke-linejoin:round;stroke-miterlimit:10;}
	.st39{fill:none;stroke:#E84D39;stroke-width:3;stroke-linecap:round;stroke-linejoin:round;}
	.st40{fill:#E84D39;}
	.st41{fill:none;stroke:#11ACCD;stroke-width:2;stroke-linecap:round;stroke-linejoin:round;}
	.st42{fill:none;stroke:#F9685D;stroke-width:2;stroke-linecap:round;stroke-linejoin:round;}
	.st43{fill:#F9685D;}
	.st44{fill:#11ACCD;stroke:#000000;stroke-linecap:round;stroke-miterlimit:10;}
	.st45{stroke:#000000;stroke-linecap:round;stroke-miterlimit:10;}
	.st46{fill:#FFFF00;stroke:#000000;stroke-linecap:round;stroke-miterlimit:10;}
	.st47{fill:#F9685D;stroke:#000000;stroke-linecap:round;stroke-miterlimit:10;}
	.st48{fill:#D6D8DA;stroke:#000000;stroke-linecap:round;stroke-miterlimit:10;}
	.st49{fill:none;stroke:#FF9C39;stroke-width:5;stroke-linecap:round;stroke-linejoin:round;stroke-miterlimit:10;}
	.st50{fill:#FF9C39;}
	.st51{fill:#AA87FF;}
	.st52{fill:#ED5FA6;}
	.st53{fill:#1FAB54;}
	.st54{fill:none;stroke:#000000;stroke-width:4;stroke-linecap:round;stroke-linejoin:round;stroke-miterlimit:10;}
	.st55{stroke:#000000;stroke-miterlimit:10;}
	.st56{stroke:#000000;stroke-width:2;stroke-linecap:round;stroke-linejoin:round;stroke-miterlimit:10;}
	.st57{fill:none;stroke:#000000;stroke-width:3;stroke-linecap:round;stroke-linejoin:round;stroke-miterlimit:10;}
	.st58{fill:none;stroke:#000000;stroke-linejoin:round;}
	.st59{fill:none;stroke:#000000;stroke-width:7;stroke-linecap:round;stroke-linejoin:round;stroke-miterlimit:10;}
	.st60{fill:none;stroke:#11ACCD;stroke-width:3;stroke-linecap:round;stroke-linejoin:round;}
	.st61{fill:none;stroke:#11ACCD;stroke-width:2;stroke-linecap:round;stroke-miterlimit:10;}
	.st62{fill:none;stroke:#E07D10;stroke-width:2;stroke-linecap:round;stroke-miterlimit:10;}
	.st63{fill:none;stroke:#11ACCD;stroke-width:2;stroke-miterlimit:10;}
	.st64{fill:none;stroke:#000000;stroke-width:3;stroke-linecap:square;stroke-miterlimit:10;}
	.st65{fill:#BE2612;}
	.st66{fill:none;stroke:#BE2612;stroke-width:2;stroke-linecap:round;stroke-linejoin:round;}
	.st67{fill:none;stroke:#21242C;stroke-linecap:round;stroke-linejoin:round;stroke-miterlimit:10;}
	.st68{fill:none;stroke:#11ACCD;stroke-width:3;stroke-linecap:round;stroke-miterlimit:10;}
	.st69{fill:#FFFFFF;stroke:#000000;stroke-miterlimit:10;}
</style><line
     class="st44"
     x1="24"
     y1="12"
     x2="24"
     y2="78"
     id="line5" /><line
     class="st44"
     x1="48"
     y1="48"
     x2="24"
     y2="48"
     id="line7" /><line
     class="st44"
     x1="78"
     y1="12"
     x2="78"
     y2="78"
     id="line9" /><line
     class="st44"
     x1="102"
     y1="48"
     x2="78"
     y2="48"
     id="line11" /><line
     class="st44"
     x1="264"
     y1="12"
     x2="264"
     y2="78"
     id="line13" /><line
     class="st44"
     x1="240"
     y1="48"
     x2="288"
     y2="48"
     id="line15" /><line
     class="st44"
     x1="324"
     y1="12"
     x2="324"
     y2="78"
     id="line17" /><polyline
     class="st22"
     points="300,54 324,54 324,42 354,42 "
     id="polyline19" /><circle
     class="st45"
     cx="78"
     cy="48"
     r="1.5"
     id="circle21" /><circle
     class="st45"
     cx="264"
     cy="48"
     r="1.5"
     id="circle23" /><circle
     class="st45"
     cx="324"
     cy="54"
     r="1.5"
     id="circle25" /><circle
     class="st45"
     cx="324"
     cy="42"
     r="1.5"
     id="circle27" /><line
     class="st44"
     x1="144"
     y1="12"
     x2="144"
     y2="78"
     id="line29" /><line
     class="st44"
     x1="120"
     y1="48"
     x2="168"
     y2="48"
     id="line31" /><line
     class="st44"
     x1="204"
     y1="12"
     x2="204"
     y2="78"
     id="line33" /><g
     id="g35"><path
       d="M30,91.7c0.9-1.2,1.8-3,1.8-5.7c0-2.8-0.9-4.6-1.8-5.7h-1c1,1.4,1.8,3.2,1.8,5.7c0,2.5-0.8,4.3-1.8,5.7H30z M26.6,87.7   c0,0.1,0,0.3-0.1,0.4c-0.2,0.6-0.8,1.1-1.6,1.1c-0.6,0-1.2-0.4-1.2-1.2c0-1.3,1.5-1.6,2.9-1.5V87.7z M27.9,90   c-0.1-0.5-0.1-1-0.1-1.6v-2.5c0-1.4-0.5-2.8-2.6-2.8c-0.9,0-1.7,0.2-2.2,0.6l0.3,0.8c0.5-0.3,1.1-0.5,1.8-0.5c1.4,0,1.5,1,1.5,1.6   v0.1c-2.6,0-4.1,0.9-4.1,2.5c0,1,0.7,1.9,2.1,1.9c1,0,1.7-0.5,2.1-1h0l0.1,0.9H27.9z M20.7,80.3c-0.9,1.2-1.8,3-1.8,5.7   c0,2.7,1,4.5,1.8,5.7h1c-1-1.4-1.8-3.2-1.8-5.7c0-2.5,0.7-4.4,1.8-5.7H20.7z"
       id="path37" /><path
       d="M85.1,91.7c0.9-1.2,1.8-3,1.8-5.7c0-2.8-0.9-4.6-1.8-5.7h-1c1,1.4,1.8,3.2,1.8,5.7c0,2.5-0.8,4.3-1.8,5.7H85.1z M78.2,86.1   c0-0.2,0-0.4,0.1-0.5c0.3-0.9,1-1.5,1.9-1.5c1.3,0,2,1.2,2,2.5c0,1.6-0.8,2.6-2.1,2.6c-0.9,0-1.6-0.6-1.8-1.4   c0-0.1-0.1-0.3-0.1-0.4V86.1z M78,90l0.1-1.1h0c0.5,0.9,1.3,1.3,2.3,1.3c1.5,0,3-1.2,3-3.6c0-2.1-1.2-3.5-2.9-3.5   c-1.1,0-1.9,0.5-2.3,1.2h0v-4.3H77v8.2c0,0.6,0,1.3-0.1,1.8H78z M74.7,80.3c-0.9,1.2-1.8,3-1.8,5.7c0,2.7,1,4.5,1.8,5.7h1   c-1-1.4-1.8-3.2-1.8-5.7c0-2.5,0.7-4.4,1.8-5.7H74.7z"
       id="path39" /><path
       d="M270.2,91.7c0.9-1.2,1.8-3,1.8-5.7c0-2.8-0.9-4.6-1.8-5.7h-1c1,1.4,1.8,3.2,1.8,5.7c0,2.5-0.8,4.3-1.8,5.7H270.2z    M263.7,86c0.1-0.9,0.6-2,1.9-2c1.4,0,1.7,1.2,1.7,2H263.7z M268.4,86.8c0-0.1,0-0.3,0-0.6c0-1.2-0.6-3.2-2.8-3.2   c-2,0-3.2,1.6-3.2,3.7c0,2,1.2,3.4,3.3,3.4c1.1,0,1.8-0.2,2.3-0.4l-0.2-0.9c-0.5,0.2-1,0.4-1.9,0.4c-1.2,0-2.3-0.7-2.3-2.4H268.4z    M260.7,80.3c-0.9,1.2-1.8,3-1.8,5.7c0,2.7,1,4.5,1.8,5.7h1c-1-1.4-1.8-3.2-1.8-5.7c0-2.5,0.7-4.4,1.8-5.7H260.7z"
       id="path41" /><path
       d="M149.5,91.7c0.9-1.2,1.8-3,1.8-5.7c0-2.8-0.9-4.6-1.8-5.7h-1c1,1.4,1.8,3.2,1.8,5.7c0,2.5-0.8,4.3-1.8,5.7H149.5z    M147.6,88.8c-0.4,0.2-0.8,0.3-1.5,0.3c-1.3,0-2.4-1-2.4-2.5c0-1.4,0.8-2.6,2.4-2.6c0.7,0,1.1,0.2,1.4,0.3l0.3-1   c-0.3-0.2-1-0.4-1.7-0.4c-2.2,0-3.6,1.5-3.6,3.6c0,2.1,1.3,3.5,3.4,3.5c0.9,0,1.6-0.2,1.9-0.4L147.6,88.8z M140.7,80.3   c-0.9,1.2-1.8,3-1.8,5.7c0,2.7,1,4.5,1.8,5.7h1c-1-1.4-1.8-3.2-1.8-5.7c0-2.5,0.7-4.4,1.8-5.7H140.7z"
       id="path43" /><path
       d="M328.7,91.7c0.9-1.2,1.8-3,1.8-5.7c0-2.8-0.9-4.6-1.8-5.7h-1c1,1.4,1.8,3.2,1.8,5.7c0,2.5-0.8,4.3-1.8,5.7H328.7z    M324.3,90v-5.8h1.6v-0.9h-1.6v-0.4c0-1,0.3-2,1.3-2c0.4,0,0.6,0.1,0.8,0.2l0.2-1c-0.2-0.1-0.6-0.2-1.1-0.2c-0.6,0-1.2,0.2-1.7,0.6   c-0.6,0.5-0.8,1.4-0.8,2.4v0.3h-1v0.9h1V90H324.3z M320.7,80.3c-0.9,1.2-1.8,3-1.8,5.7c0,2.7,1,4.5,1.8,5.7h1   c-1-1.4-1.8-3.2-1.8-5.7c0-2.5,0.7-4.4,1.8-5.7H320.7z"
       id="path45" /><path
       d="M211.1,91.7c0.9-1.2,1.8-3,1.8-5.7c0-2.8-0.9-4.6-1.8-5.7h-1c1,1.4,1.8,3.2,1.8,5.7c0,2.5-0.8,4.3-1.8,5.7H211.1z    M207.6,87.2c0,0.2,0,0.4-0.1,0.5c-0.2,0.9-1,1.5-1.8,1.5c-1.3,0-2-1.1-2-2.5c0-1.5,0.8-2.6,2-2.6c0.9,0,1.6,0.6,1.8,1.4   c0,0.2,0.1,0.4,0.1,0.5V87.2z M207.6,80.1v4h0c-0.3-0.5-1-1-2-1c-1.7,0-3.1,1.4-3,3.6c0,2.1,1.3,3.4,2.9,3.4c1.1,0,1.9-0.6,2.3-1.3   h0l0.1,1.2h1.1c0-0.5-0.1-1.1-0.1-1.8v-8.2H207.6z M200.7,80.3c-0.9,1.2-1.8,3-1.8,5.7c0,2.7,1,4.5,1.8,5.7h1   c-1-1.4-1.8-3.2-1.8-5.7c0-2.5,0.7-4.4,1.8-5.7H200.7z"
       id="path47" /></g><line
     class="st45"
     x1="180"
     y1="48"
     x2="198"
     y2="48"
     id="line49" /><line
     class="st45"
     x1="210"
     y1="48"
     x2="228"
     y2="48"
     id="line51" /><path
     class="st22"
     d="M210,48c0-3.3-2.7-6-6-6s-6,2.7-6,6"
     id="path53" /><g
     id="g55"><circle
       class="st46"
       cx="39"
       cy="21"
       r="9"
       id="circle57" /><path
       class="st22"
       d="M43.5,22.5c0,1.7-2,3-4.5,3s-4.5-1.3-4.5-3"
       id="path59" /><circle
       class="st45"
       cx="35.2"
       cy="18.8"
       r="0.8"
       id="circle61" /><circle
       class="st45"
       cx="42.8"
       cy="18.8"
       r="0.8"
       id="circle63" /></g><g
     id="g65"><circle
       class="st46"
       cx="93"
       cy="21"
       r="9"
       id="circle67" /><path
       class="st22"
       d="M97.5,22.5c0,1.7-2,3-4.5,3s-4.5-1.3-4.5-3"
       id="path69" /><circle
       class="st45"
       cx="89.2"
       cy="18.8"
       r="0.8"
       id="circle71" /><circle
       class="st45"
       cx="96.8"
       cy="18.8"
       r="0.8"
       id="circle73" /></g><g
     id="g75"><circle
       class="st46"
       cx="159"
       cy="21"
       r="9"
       id="circle77" /><path
       class="st22"
       d="M163.5,22.5c0,1.7-2,3-4.5,3s-4.5-1.3-4.5-3"
       id="path79" /><circle
       class="st45"
       cx="155.2"
       cy="18.8"
       r="0.8"
       id="circle81" /><circle
       class="st45"
       cx="162.8"
       cy="18.8"
       r="0.8"
       id="circle83" /></g><g
     id="g85"><circle
       class="st46"
       cx="339"
       cy="21"
       r="9"
       id="circle87" /><path
       class="st22"
       d="M343.5,22.5c0,1.7-2,3-4.5,3s-4.5-1.3-4.5-3"
       id="path89" /><circle
       class="st45"
       cx="335.2"
       cy="18.8"
       r="0.8"
       id="circle91" /><circle
       class="st45"
       cx="342.8"
       cy="18.8"
       r="0.8"
       id="circle93" /></g><g
     id="g95"><circle
       class="st46"
       cx="219"
       cy="21"
       r="9"
       id="circle97" /><path
       class="st22"
       d="M223.5,22.5c0,1.7-2,3-4.5,3s-4.5-1.3-4.5-3"
       id="path99" /><circle
       class="st45"
       cx="215.2"
       cy="18.8"
       r="0.8"
       id="circle101" /><circle
       class="st45"
       cx="222.8"
       cy="18.8"
       r="0.8"
       id="circle103" /></g><g
     id="g105"><g
       id="g107"><circle
         class="st48"
         cx="279"
         cy="21"
         r="9"
         id="circle109" /></g><circle
       class="st45"
       cx="275.2"
       cy="18.8"
       r="0.8"
       id="circle111" /><circle
       class="st45"
       cx="282.8"
       cy="18.8"
       r="0.8"
       id="circle113" /><line
       class="st48"
       x1="276"
       y1="24"
       x2="282"
       y2="24"
       id="line115" /></g></svg>