<?xml version="1.0" encoding="UTF-8" standalone="no"?>
<!-- Created with Inkscape (http://www.inkscape.org/) -->

<svg
   xmlns:dc="http://purl.org/dc/elements/1.1/"
   xmlns:cc="http://creativecommons.org/ns#"
   xmlns:rdf="http://www.w3.org/1999/02/22-rdf-syntax-ns#"
   xmlns:svg="http://www.w3.org/2000/svg"
   xmlns="http://www.w3.org/2000/svg"
   xmlns:sodipodi="http://sodipodi.sourceforge.net/DTD/sodipodi-0.dtd"
   xmlns:inkscape="http://www.inkscape.org/namespaces/inkscape"
   id="svg4155"
   version="1.1"
   inkscape:version="0.92.2 5c3e80d, 2017-08-06"
   xml:space="preserve"
   width="265"
   height="180"
   viewBox="0 0 265 180"
   sodipodi:docname="copper_atom.svg"><metadata
     id="metadata4161"><rdf:RDF><cc:Work
         rdf:about=""><dc:format>image/svg+xml</dc:format><dc:type
           rdf:resource="http://purl.org/dc/dcmitype/StillImage" /><dc:title></dc:title></cc:Work></rdf:RDF></metadata><defs
     id="defs4159"><clipPath
       clipPathUnits="userSpaceOnUse"
       id="clipPath4171"><path
         d="M 0,0 H 196 V 128 H 0 Z"
         id="path4173"
         inkscape:connector-curvature="0" /></clipPath></defs><sodipodi:namedview
     pagecolor="#ffffff"
     bordercolor="#666666"
     borderopacity="1"
     objecttolerance="10"
     gridtolerance="10"
     guidetolerance="10"
     inkscape:pageopacity="0"
     inkscape:pageshadow="2"
     inkscape:window-width="1280"
     inkscape:window-height="756"
     id="namedview4157"
     showgrid="false"
     inkscape:zoom="1.8943396"
     inkscape:cx="132.5"
     inkscape:cy="90"
     inkscape:window-x="0"
     inkscape:window-y="0"
     inkscape:window-maximized="0"
     inkscape:current-layer="g4163"
     fit-margin-top="10"
     fit-margin-right="10"
     fit-margin-bottom="10"
     fit-margin-left="10"
     showguides="false" /><g
     id="g4163"
     inkscape:groupmode="layer"
     inkscape:label="copper atom"
     transform="matrix(1.25,0,0,-1.25,10,170)"><g
       id="g4165" /><path
       d="M 0,128 H 196 V 0 H 0 Z"
       style="fill:#ffffff;fill-opacity:0;fill-rule:nonzero;stroke:none"
       id="path4175"
       inkscape:connector-curvature="0" /><path
       d="m 45.5,55.5 c 0,3.86599 3.13401,7 7,7 3.86599,0 7,-3.13401 7,-7 0,-3.86599 -3.13401,-7 -7,-7 -3.86599,0 -7,3.13401 -7,7 z"
       style="fill:#767171;fill-opacity:1;fill-rule:nonzero;stroke:none"
       id="path4177"
       inkscape:connector-curvature="0" /><g
       id="g4179"
       transform="matrix(7.874016e-5,0,0,-7.874016e-5,45.5,62.5)"><path
         d="M 0,88900 C 0,39801.88 39801.88,0 88900,0 c 49098.1,0 88900,39801.88 88900,88900 0,49098.1 -39801.9,88900 -88900,88900 C 39801.88,177800 0,137998.1 0,88900 Z"
         style="fill:none;stroke:#41719c;stroke-width:12700;stroke-linecap:butt;stroke-linejoin:miter;stroke-miterlimit:8;stroke-dasharray:none;stroke-opacity:1"
         id="path4181"
         inkscape:connector-curvature="0" /></g><path
       d="m 50.5,71 c 0,4.14214 3.13401,7.5 7,7.5 3.86599,0 7,-3.35786 7,-7.5 0,-4.14214 -3.13401,-7.5 -7,-7.5 -3.86599,0 -7,3.35786 -7,7.5 z"
       style="fill:#5b9bd5;fill-opacity:1;fill-rule:nonzero;stroke:none"
       id="path4183"
       inkscape:connector-curvature="0" /><g
       id="g4185"
       transform="matrix(7.874016e-5,0,0,-7.874016e-5,50.5,78.5)"><path
         d="M 0,95250 C 0,42644.88 39801.88,0 88900,0 c 49098.1,0 88900,42644.88 88900,95250 0,52605.1 -39801.9,95250 -88900,95250 C 39801.88,190500 0,147855.1 0,95250 Z"
         style="fill:none;stroke:#41719c;stroke-width:12700;stroke-linecap:butt;stroke-linejoin:miter;stroke-miterlimit:8;stroke-dasharray:none;stroke-opacity:1"
         id="path4187"
         inkscape:connector-curvature="0" /></g><path
       d="m 62.5,59 c 0,4.14214 3.13401,7.5 7,7.5 3.86599,0 7,-3.35786 7,-7.5 0,-4.14214 -3.13401,-7.5 -7,-7.5 -3.86599,0 -7,3.35786 -7,7.5 z"
       style="fill:#5b9bd5;fill-opacity:1;fill-rule:nonzero;stroke:none"
       id="path4189"
       inkscape:connector-curvature="0" /><g
       id="g4191"
       transform="matrix(7.874016e-5,0,0,-7.874016e-5,62.5,66.5)"><path
         d="M 0,95250 C 0,42644.88 39801.93,0 88900,0 c 49098.1,0 88900,42644.88 88900,95250 0,52605.1 -39801.9,95250 -88900,95250 C 39801.93,190500 0,147855.1 0,95250 Z"
         style="fill:none;stroke:#41719c;stroke-width:12700;stroke-linecap:butt;stroke-linejoin:miter;stroke-miterlimit:8;stroke-dasharray:none;stroke-opacity:1"
         id="path4193"
         inkscape:connector-curvature="0" /></g><path
       d="m 60.5,73.5 c 0,3.86599 3.35786,7 7.5,7 4.14214,0 7.5,-3.13401 7.5,-7 0,-3.86599 -3.35786,-7 -7.5,-7 -4.14214,0 -7.5,3.13401 -7.5,7 z"
       style="fill:#5b9bd5;fill-opacity:1;fill-rule:nonzero;stroke:none"
       id="path4195"
       inkscape:connector-curvature="0" /><g
       id="g4197"
       transform="matrix(7.874016e-5,0,0,-7.874016e-5,60.5,80.5)"><path
         d="M 0,88900 C 0,39801.93 42644.88,0 95250,0 c 52605.1,0 95250,39801.93 95250,88900 0,49098.1 -42644.9,88900 -95250,88900 C 42644.88,177800 0,137998.1 0,88900 Z"
         style="fill:none;stroke:#41719c;stroke-width:12700;stroke-linecap:butt;stroke-linejoin:miter;stroke-miterlimit:8;stroke-dasharray:none;stroke-opacity:1"
         id="path4199"
         inkscape:connector-curvature="0" /></g><path
       d="m 57.5,52.5 c 0,3.86599 3.13401,7 7,7 3.86599,0 7,-3.13401 7,-7 0,-3.86599 -3.13401,-7 -7,-7 -3.86599,0 -7,3.13401 -7,7 z"
       style="fill:#5b9bd5;fill-opacity:1;fill-rule:nonzero;stroke:none"
       id="path4201"
       inkscape:connector-curvature="0" /><g
       id="g4203"
       transform="matrix(7.874016e-5,0,0,-7.874016e-5,57.5,59.5)"><path
         d="M 0,88900 C 0,39801.88 39801.88,0 88900,0 c 49098.1,0 88900,39801.88 88900,88900 0,49098.1 -39801.9,88900 -88900,88900 C 39801.88,177800 0,137998.1 0,88900 Z"
         style="fill:none;stroke:#41719c;stroke-width:12700;stroke-linecap:butt;stroke-linejoin:miter;stroke-miterlimit:8;stroke-dasharray:none;stroke-opacity:1"
         id="path4205"
         inkscape:connector-curvature="0" /></g><path
       d="m 60.5,45.5 c 0,3.86599 3.35786,7 7.5,7 4.14214,0 7.5,-3.13401 7.5,-7 0,-3.86599 -3.35786,-7 -7.5,-7 -4.14214,0 -7.5,3.13401 -7.5,7 z"
       style="fill:#5b9bd5;fill-opacity:1;fill-rule:nonzero;stroke:none"
       id="path4207"
       inkscape:connector-curvature="0" /><g
       id="g4209"
       transform="matrix(7.874016e-5,0,0,-7.874016e-5,60.5,52.5)"><path
         d="M 0,88900 C 0,39801.88 42644.88,0 95250,0 c 52605.1,0 95250,39801.88 95250,88900 0,49098.1 -42644.9,88900 -95250,88900 C 42644.88,177800 0,137998.1 0,88900 Z"
         style="fill:none;stroke:#41719c;stroke-width:12700;stroke-linecap:butt;stroke-linejoin:miter;stroke-miterlimit:8;stroke-dasharray:none;stroke-opacity:1"
         id="path4211"
         inkscape:connector-curvature="0" /></g><path
       d="m 41.5,65 c 0,4.14214 3.13401,7.5 7,7.5 3.86599,0 7,-3.35786 7,-7.5 0,-4.14214 -3.13401,-7.5 -7,-7.5 -3.86599,0 -7,3.35786 -7,7.5 z"
       style="fill:#5b9bd5;fill-opacity:1;fill-rule:nonzero;stroke:none"
       id="path4213"
       inkscape:connector-curvature="0" /><g
       id="g4215"
       transform="matrix(7.874016e-5,0,0,-7.874016e-5,41.5,72.5)"><path
         d="M 0,95250 C 0,42644.88 39801.88,0 88900,0 c 49098.1,0 88900,42644.88 88900,95250 0,52605.1 -39801.9,95250 -88900,95250 C 39801.88,190500 0,147855.1 0,95250 Z"
         style="fill:none;stroke:#41719c;stroke-width:12700;stroke-linecap:butt;stroke-linejoin:miter;stroke-miterlimit:8;stroke-dasharray:none;stroke-opacity:1"
         id="path4217"
         inkscape:connector-curvature="0" /></g><path
       d="m 41.5,52.5 c 0,3.86599 3.13401,7 7,7 3.86599,0 7,-3.13401 7,-7 0,-3.86599 -3.13401,-7 -7,-7 -3.86599,0 -7,3.13401 -7,7 z"
       style="fill:#5b9bd5;fill-opacity:1;fill-rule:nonzero;stroke:none"
       id="path4219"
       inkscape:connector-curvature="0" /><g
       id="g4221"
       transform="matrix(7.874016e-5,0,0,-7.874016e-5,41.5,59.5)"><path
         d="M 0,88900 C 0,39801.88 39801.88,0 88900,0 c 49098.1,0 88900,39801.88 88900,88900 0,49098.1 -39801.9,88900 -88900,88900 C 39801.88,177800 0,137998.1 0,88900 Z"
         style="fill:none;stroke:#41719c;stroke-width:12700;stroke-linecap:butt;stroke-linejoin:miter;stroke-miterlimit:8;stroke-dasharray:none;stroke-opacity:1"
         id="path4223"
         inkscape:connector-curvature="0" /></g><path
       d="m 72.5,59 c 0,4.14214 3.35786,7.5 7.5,7.5 4.14214,0 7.5,-3.35786 7.5,-7.5 0,-4.14214 -3.35786,-7.5 -7.5,-7.5 -4.14214,0 -7.5,3.35786 -7.5,7.5 z"
       style="fill:#5b9bd5;fill-opacity:1;fill-rule:nonzero;stroke:none"
       id="path4225"
       inkscape:connector-curvature="0" /><g
       id="g4227"
       transform="matrix(7.874016e-5,0,0,-7.874016e-5,72.5,66.5)"><path
         d="M 0,95250 C 0,42644.88 42644.88,0 95250,0 c 52605.1,0 95250,42644.88 95250,95250 0,52605.1 -42644.9,95250 -95250,95250 C 42644.88,190500 0,147855.1 0,95250 Z"
         style="fill:none;stroke:#41719c;stroke-width:12700;stroke-linecap:butt;stroke-linejoin:miter;stroke-miterlimit:8;stroke-dasharray:none;stroke-opacity:1"
         id="path4229"
         inkscape:connector-curvature="0" /></g><path
       d="m 54.5,65.5 c 0,3.86599 3.13401,7 7,7 3.86599,0 7,-3.13401 7,-7 0,-3.86599 -3.13401,-7 -7,-7 -3.86599,0 -7,3.13401 -7,7 z"
       style="fill:#767171;fill-opacity:1;fill-rule:nonzero;stroke:none"
       id="path4231"
       inkscape:connector-curvature="0" /><g
       id="g4233"
       transform="matrix(7.874016e-5,0,0,-7.874016e-5,54.5,72.5)"><path
         d="M 0,88900 C 0,39801.93 39801.88,0 88900,0 c 49098.1,0 88900,39801.93 88900,88900 0,49098.1 -39801.9,88900 -88900,88900 C 39801.88,177800 0,137998.1 0,88900 Z"
         style="fill:none;stroke:#41719c;stroke-width:12700;stroke-linecap:butt;stroke-linejoin:miter;stroke-miterlimit:8;stroke-dasharray:none;stroke-opacity:1"
         id="path4235"
         inkscape:connector-curvature="0" /></g><path
       d="m 69.5,68.5 c 0,3.86599 3.13401,7 7,7 3.86599,0 7,-3.13401 7,-7 0,-3.86599 -3.13401,-7 -7,-7 -3.86599,0 -7,3.13401 -7,7 z"
       style="fill:#767171;fill-opacity:1;fill-rule:nonzero;stroke:none"
       id="path4237"
       inkscape:connector-curvature="0" /><g
       id="g4239"
       transform="matrix(7.874016e-5,0,0,-7.874016e-5,69.5,75.5)"><path
         d="M 0,88900 C 0,39801.93 39801.93,0 88900,0 c 49098.1,0 88900,39801.93 88900,88900 0,49098.1 -39801.9,88900 -88900,88900 C 39801.93,177800 0,137998.1 0,88900 Z"
         style="fill:none;stroke:#41719c;stroke-width:12700;stroke-linecap:butt;stroke-linejoin:miter;stroke-miterlimit:8;stroke-dasharray:none;stroke-opacity:1"
         id="path4241"
         inkscape:connector-curvature="0" /></g><path
       d="m 68.5,49.5 c 0,3.86599 3.13401,7 7,7 3.86599,0 7,-3.13401 7,-7 0,-3.86599 -3.13401,-7 -7,-7 -3.86599,0 -7,3.13401 -7,7 z"
       style="fill:#767171;fill-opacity:1;fill-rule:nonzero;stroke:none"
       id="path4243"
       inkscape:connector-curvature="0" /><g
       id="g4245"
       transform="matrix(7.874016e-5,0,0,-7.874016e-5,68.5,56.5)"><path
         d="M 0,88900 C 0,39801.88 39801.93,0 88900,0 c 49098.1,0 88900,39801.88 88900,88900 0,49098.1 -39801.9,88900 -88900,88900 C 39801.93,177800 0,137998.1 0,88900 Z"
         style="fill:none;stroke:#41719c;stroke-width:12700;stroke-linecap:butt;stroke-linejoin:miter;stroke-miterlimit:8;stroke-dasharray:none;stroke-opacity:1"
         id="path4247"
         inkscape:connector-curvature="0" /></g><path
       d="m 49.5,44.5 c 0,3.86599 3.13401,7 7,7 3.86599,0 7,-3.13401 7,-7 0,-3.86599 -3.13401,-7 -7,-7 -3.86599,0 -7,3.13401 -7,7 z"
       style="fill:#767171;fill-opacity:1;fill-rule:nonzero;stroke:none"
       id="path4249"
       inkscape:connector-curvature="0" /><g
       id="g4251"
       transform="matrix(7.874016e-5,0,0,-7.874016e-5,49.5,51.5)"><path
         d="M 0,88900 C 0,39801.88 39801.88,0 88900,0 c 49098.1,0 88900,39801.88 88900,88900 0,49098.1 -39801.9,88900 -88900,88900 C 39801.88,177800 0,137998.1 0,88900 Z"
         style="fill:none;stroke:#41719c;stroke-width:12700;stroke-linecap:butt;stroke-linejoin:miter;stroke-miterlimit:8;stroke-dasharray:none;stroke-opacity:1"
         id="path4253"
         inkscape:connector-curvature="0" /></g><g
       id="g4255"
       transform="matrix(7.874016e-5,0,0,-7.874016e-5,31.5,91.5)"><path
         d="M 0,412750 C 0,184794.4 181951.5,0 406400,0 630848.5,0 812800,184794.4 812800,412750 812800,640705.5 630848.5,825500 406400,825500 181951.5,825500 0,640705.5 0,412750 Z"
         style="fill:none;stroke:#41719c;stroke-width:12700;stroke-linecap:butt;stroke-linejoin:miter;stroke-miterlimit:8;stroke-dasharray:none;stroke-opacity:1"
         id="path4257"
         inkscape:connector-curvature="0" /></g><g
       id="g4259"
       transform="matrix(7.874016e-5,0,0,-7.874016e-5,21.5,103.5)"><path
         d="M 0,539750 C 0,241654.3 238811.3,0 533400,0 c 294588.6,0 533400,241654.3 533400,539750 0,298095.7 -238811.4,539750 -533400,539750 C 238811.3,1079500 0,837845.7 0,539750 Z"
         style="fill:none;stroke:#41719c;stroke-width:12700;stroke-linecap:butt;stroke-linejoin:miter;stroke-miterlimit:8;stroke-dasharray:none;stroke-opacity:1"
         id="path4261"
         inkscape:connector-curvature="0" /></g><g
       id="g4263"
       transform="matrix(7.874016e-5,0,0,-7.874016e-5,10.5,115.5)"><path
         d="M 0,685800 C 0,307043.2 307043.1,0 685800,0 c 378757,0 685800,307043.2 685800,685800 0,378757 -307043,685800 -685800,685800 C 307043.1,1371600 0,1064557 0,685800 Z"
         style="fill:none;stroke:#41719c;stroke-width:12700;stroke-linecap:butt;stroke-linejoin:miter;stroke-miterlimit:8;stroke-dasharray:none;stroke-opacity:1"
         id="path4265"
         inkscape:connector-curvature="0" /></g><g
       id="g4267"
       transform="matrix(7.874016e-5,0,0,-7.874016e-5,0.5,127.5)"><path
         d="M 0,806450 C 0,361059.9 363902.9,0 812800,0 c 448897,0 812800,361059.9 812800,806450 0,445390 -363903,806450 -812800,806450 C 363902.9,1612900 0,1251840 0,806450 Z"
         style="fill:none;stroke:#41719c;stroke-width:12700;stroke-linecap:butt;stroke-linejoin:miter;stroke-miterlimit:8;stroke-dasharray:none;stroke-opacity:1"
         id="path4269"
         inkscape:connector-curvature="0" /></g><path
       d="m 91.5,62.5 c 0,2.20914 1.79086,4 4,4 2.20914,0 4,-1.79086 4,-4 0,-2.20914 -1.79086,-4 -4,-4 -2.20914,0 -4,1.79086 -4,4 z"
       style="fill:#000000;fill-opacity:1;fill-rule:nonzero;stroke:none"
       id="path4271"
       inkscape:connector-curvature="0" /><g
       id="g4273"
       transform="matrix(7.874016e-5,0,0,-7.874016e-5,91.5,66.5)"><path
         d="M 0,50800 C 0,22743.96 22743.96,0 50800,0 c 28056.04,0 50800,22743.96 50800,50800 0,28056.09 -22743.96,50800 -50800,50800 C 22743.96,101600 0,78856.09 0,50800 Z"
         style="fill:none;stroke:#41719c;stroke-width:12700;stroke-linecap:butt;stroke-linejoin:miter;stroke-miterlimit:8;stroke-dasharray:none;stroke-opacity:1"
         id="path4275"
         inkscape:connector-curvature="0" /></g><path
       d="m 27.5,58.5 c 0,2.20914 1.79086,4 4,4 2.20914,0 4,-1.79086 4,-4 0,-2.20914 -1.79086,-4 -4,-4 -2.20914,0 -4,1.79086 -4,4 z"
       style="fill:#000000;fill-opacity:1;fill-rule:nonzero;stroke:none"
       id="path4277"
       inkscape:connector-curvature="0" /><g
       id="g4279"
       transform="matrix(7.874016e-5,0,0,-7.874016e-5,27.5,62.5)"><path
         d="M 0,50800 C 0,22743.91 22743.94,0 50800,0 c 28056.09,0 50800,22743.91 50800,50800 0,28056.09 -22743.91,50800 -50800,50800 C 22743.94,101600 0,78856.09 0,50800 Z"
         style="fill:none;stroke:#41719c;stroke-width:12700;stroke-linecap:butt;stroke-linejoin:miter;stroke-miterlimit:8;stroke-dasharray:none;stroke-opacity:1"
         id="path4281"
         inkscape:connector-curvature="0" /></g><path
       d="m 95.5,38.5 c 0,2.20914 2.01472,4 4.5,4 2.4853,0 4.5,-1.79086 4.5,-4 0,-2.20914 -2.0147,-4 -4.5,-4 -2.48528,0 -4.5,1.79086 -4.5,4 z"
       style="fill:#000000;fill-opacity:1;fill-rule:nonzero;stroke:none"
       id="path4283"
       inkscape:connector-curvature="0" /><g
       id="g4285"
       transform="matrix(7.874016e-5,0,0,-7.874016e-5,95.5,42.5)"><path
         d="M 0,50800 C 0,22743.91 25586.91,0 57150,0 c 31563.09,0 57150,22743.91 57150,50800 0,28056.09 -25586.91,50800 -57150,50800 C 25586.91,101600 0,78856.09 0,50800 Z"
         style="fill:none;stroke:#41719c;stroke-width:12700;stroke-linecap:butt;stroke-linejoin:miter;stroke-miterlimit:8;stroke-dasharray:none;stroke-opacity:1"
         id="path4287"
         inkscape:connector-curvature="0" /></g><path
       d="m 71.5,20.5 c 0,2.20914 1.79086,4 4,4 2.20914,0 4,-1.79086 4,-4 0,-2.20914 -1.79086,-4 -4,-4 -2.20914,0 -4,1.79086 -4,4 z"
       style="fill:#000000;fill-opacity:1;fill-rule:nonzero;stroke:none"
       id="path4289"
       inkscape:connector-curvature="0" /><g
       id="g4291"
       transform="matrix(7.874016e-5,0,0,-7.874016e-5,71.5,24.5)"><path
         d="M 0,50800 C 0,22743.94 22743.96,0 50800,0 c 28056.04,0 50800,22743.94 50800,50800 0,28056.06 -22743.96,50800 -50800,50800 C 22743.96,101600 0,78856.06 0,50800 Z"
         style="fill:none;stroke:#41719c;stroke-width:12700;stroke-linecap:butt;stroke-linejoin:miter;stroke-miterlimit:8;stroke-dasharray:none;stroke-opacity:1"
         id="path4293"
         inkscape:connector-curvature="0" /></g><path
       d="m 35.5,26 c 0,2.48528 2.01472,4.5 4.5,4.5 2.48528,0 4.5,-2.01472 4.5,-4.5 0,-2.48528 -2.01472,-4.5 -4.5,-4.5 -2.48528,0 -4.5,2.01472 -4.5,4.5 z"
       style="fill:#000000;fill-opacity:1;fill-rule:nonzero;stroke:none"
       id="path4295"
       inkscape:connector-curvature="0" /><g
       id="g4297"
       transform="matrix(7.874016e-5,0,0,-7.874016e-5,35.5,30.5)"><path
         d="M 0,57150 C 0,25586.93 25586.91,0 57150,0 c 31563.09,0 57150,25586.93 57150,57150 0,31563.07 -25586.91,57150 -57150,57150 C 25586.91,114300 0,88713.07 0,57150 Z"
         style="fill:none;stroke:#41719c;stroke-width:12700;stroke-linecap:butt;stroke-linejoin:miter;stroke-miterlimit:8;stroke-dasharray:none;stroke-opacity:1"
         id="path4299"
         inkscape:connector-curvature="0" /></g><path
       d="m 18.5,70.5 c 0,2.20914 1.79086,4 4,4 2.20914,0 4,-1.79086 4,-4 0,-2.20914 -1.79086,-4 -4,-4 -2.20914,0 -4,1.79086 -4,4 z"
       style="fill:#000000;fill-opacity:1;fill-rule:nonzero;stroke:none"
       id="path4301"
       inkscape:connector-curvature="0" /><g
       id="g4303"
       transform="matrix(7.874016e-5,0,0,-7.874016e-5,18.5,74.5)"><path
         d="M 0,50800 C 0,22743.96 22743.94,0 50800,0 c 28056.06,0 50800,22743.96 50800,50800 0,28056.04 -22743.94,50800 -50800,50800 C 22743.94,101600 0,78856.04 0,50800 Z"
         style="fill:none;stroke:#41719c;stroke-width:12700;stroke-linecap:butt;stroke-linejoin:miter;stroke-miterlimit:8;stroke-dasharray:none;stroke-opacity:1"
         id="path4305"
         inkscape:connector-curvature="0" /></g><path
       d="m 35.5,95.5 c 0,2.20914 1.79086,4 4,4 2.20914,0 4,-1.79086 4,-4 0,-2.20914 -1.79086,-4 -4,-4 -2.20914,0 -4,1.79086 -4,4 z"
       style="fill:#000000;fill-opacity:1;fill-rule:nonzero;stroke:none"
       id="path4307"
       inkscape:connector-curvature="0" /><g
       id="g4309"
       transform="matrix(7.874016e-5,0,0,-7.874016e-5,35.5,99.5)"><path
         d="M 0,50800 C 0,22743.96 22743.91,0 50800,0 c 28056.09,0 50800,22743.96 50800,50800 0,28056.04 -22743.91,50800 -50800,50800 C 22743.91,101600 0,78856.04 0,50800 Z"
         style="fill:none;stroke:#41719c;stroke-width:12700;stroke-linecap:butt;stroke-linejoin:miter;stroke-miterlimit:8;stroke-dasharray:none;stroke-opacity:1"
         id="path4311"
         inkscape:connector-curvature="0" /></g><path
       d="m 59.5,103.5 c 0,2.2091 2.01472,4 4.5,4 2.48528,0 4.5,-1.7909 4.5,-4 0,-2.2091 -2.01472,-4 -4.5,-4 -2.48528,0 -4.5,1.7909 -4.5,4 z"
       style="fill:#000000;fill-opacity:1;fill-rule:nonzero;stroke:none"
       id="path4313"
       inkscape:connector-curvature="0" /><g
       id="g4315"
       transform="matrix(7.874016e-5,0,0,-7.874016e-5,59.5,107.5)"><path
         d="M 0,50800 C 0,22743.96 25586.91,0 57150,0 c 31563.09,0 57150,22743.96 57150,50800 0,28056.04 -25586.91,50800 -57150,50800 C 25586.91,101600 0,78856.04 0,50800 Z"
         style="fill:none;stroke:#41719c;stroke-width:12700;stroke-linecap:butt;stroke-linejoin:miter;stroke-miterlimit:8;stroke-dasharray:none;stroke-opacity:1"
         id="path4317"
         inkscape:connector-curvature="0" /></g><path
       d="m 83.5,96.5 c 0,2.20914 2.01472,4 4.5,4 2.48528,0 4.5,-1.79086 4.5,-4 0,-2.20914 -2.01472,-4 -4.5,-4 -2.48528,0 -4.5,1.79086 -4.5,4 z"
       style="fill:#000000;fill-opacity:1;fill-rule:nonzero;stroke:none"
       id="path4319"
       inkscape:connector-curvature="0" /><g
       id="g4321"
       transform="matrix(7.874016e-5,0,0,-7.874016e-5,83.5,100.5)"><path
         d="M 0,50800 C 0,22743.96 25586.91,0 57150,0 c 31563.09,0 57150,22743.96 57150,50800 0,28056.04 -25586.91,50800 -57150,50800 C 25586.91,101600 0,78856.04 0,50800 Z"
         style="fill:none;stroke:#41719c;stroke-width:12700;stroke-linecap:butt;stroke-linejoin:miter;stroke-miterlimit:8;stroke-dasharray:none;stroke-opacity:1"
         id="path4323"
         inkscape:connector-curvature="0" /></g><path
       d="m 98.5,75.5 c 0,2.20914 2.0147,4 4.5,4 2.4853,0 4.5,-1.79086 4.5,-4 0,-2.20914 -2.0147,-4 -4.5,-4 -2.4853,0 -4.5,1.79086 -4.5,4 z"
       style="fill:#000000;fill-opacity:1;fill-rule:nonzero;stroke:none"
       id="path4325"
       inkscape:connector-curvature="0" /><g
       id="g4327"
       transform="matrix(7.874016e-5,0,0,-7.874016e-5,98.5,79.5)"><path
         d="M 0,50800 C 0,22743.96 25586.91,0 57150,0 c 31563.09,0 57150,22743.96 57150,50800 0,28056.04 -25586.91,50800 -57150,50800 C 25586.91,101600 0,78856.04 0,50800 Z"
         style="fill:none;stroke:#41719c;stroke-width:12700;stroke-linecap:butt;stroke-linejoin:miter;stroke-miterlimit:8;stroke-dasharray:none;stroke-opacity:1"
         id="path4329"
         inkscape:connector-curvature="0" /></g><path
       d="m 103.5,93.5 c 0,2.20914 1.7909,4 4,4 2.2091,0 4,-1.79086 4,-4 0,-2.20914 -1.7909,-4 -4,-4 -2.2091,0 -4,1.79086 -4,4 z"
       style="fill:#000000;fill-opacity:1;fill-rule:nonzero;stroke:none"
       id="path4331"
       inkscape:connector-curvature="0" /><g
       id="g4333"
       transform="matrix(7.874016e-5,0,0,-7.874016e-5,103.5,97.5)"><path
         d="M 0,50800 C 0,22743.96 22743.96,0 50800,0 c 28056.04,0 50800,22743.96 50800,50800 0,28056.04 -22743.96,50800 -50800,50800 C 22743.96,101600 0,78856.04 0,50800 Z"
         style="fill:none;stroke:#41719c;stroke-width:12700;stroke-linecap:butt;stroke-linejoin:miter;stroke-miterlimit:8;stroke-dasharray:none;stroke-opacity:1"
         id="path4335"
         inkscape:connector-curvature="0" /></g><path
       d="m 87.5,108.5 c 0,2.2091 1.79086,4 4,4 2.20914,0 4,-1.7909 4,-4 0,-2.2091 -1.79086,-4 -4,-4 -2.20914,0 -4,1.7909 -4,4 z"
       style="fill:#000000;fill-opacity:1;fill-rule:nonzero;stroke:none"
       id="path4337"
       inkscape:connector-curvature="0" /><g
       id="g4339"
       transform="matrix(7.874016e-5,0,0,-7.874016e-5,87.5,112.5)"><path
         d="M 0,50800 C 0,22743.96 22743.96,0 50800,0 c 28056.04,0 50800,22743.96 50800,50800 0,28056.04 -22743.96,50800 -50800,50800 C 22743.96,101600 0,78856.04 0,50800 Z"
         style="fill:none;stroke:#41719c;stroke-width:12700;stroke-linecap:butt;stroke-linejoin:miter;stroke-miterlimit:8;stroke-dasharray:none;stroke-opacity:1"
         id="path4341"
         inkscape:connector-curvature="0" /></g><path
       d="m 66.5,115.5 c 0,2.2091 1.79086,4 4,4 2.20914,0 4,-1.7909 4,-4 0,-2.2091 -1.79086,-4 -4,-4 -2.20914,0 -4,1.7909 -4,4 z"
       style="fill:#000000;fill-opacity:1;fill-rule:nonzero;stroke:none"
       id="path4343"
       inkscape:connector-curvature="0" /><g
       id="g4345"
       transform="matrix(7.874016e-5,0,0,-7.874016e-5,66.5,119.5)"><path
         d="M 0,50800 C 0,22743.96 22743.96,0 50800,0 c 28056.04,0 50800,22743.96 50800,50800 0,28056.04 -22743.96,50800 -50800,50800 C 22743.96,101600 0,78856.04 0,50800 Z"
         style="fill:none;stroke:#41719c;stroke-width:12700;stroke-linecap:butt;stroke-linejoin:miter;stroke-miterlimit:8;stroke-dasharray:none;stroke-opacity:1"
         id="path4347"
         inkscape:connector-curvature="0" /></g><path
       d="m 44.5,113.5 c 0,2.2091 1.79086,4 4,4 2.20914,0 4,-1.7909 4,-4 0,-2.2091 -1.79086,-4 -4,-4 -2.20914,0 -4,1.7909 -4,4 z"
       style="fill:#000000;fill-opacity:1;fill-rule:nonzero;stroke:none"
       id="path4349"
       inkscape:connector-curvature="0" /><g
       id="g4351"
       transform="matrix(7.874016e-5,0,0,-7.874016e-5,44.5,117.5)"><path
         d="M 0,50800 C 0,22743.96 22743.91,0 50800,0 c 28056.09,0 50800,22743.96 50800,50800 0,28056.04 -22743.91,50800 -50800,50800 C 22743.91,101600 0,78856.04 0,50800 Z"
         style="fill:none;stroke:#41719c;stroke-width:12700;stroke-linecap:butt;stroke-linejoin:miter;stroke-miterlimit:8;stroke-dasharray:none;stroke-opacity:1"
         id="path4353"
         inkscape:connector-curvature="0" /></g><path
       d="m 25.5,104 c 0,2.4853 1.79086,4.5 4,4.5 2.20914,0 4,-2.0147 4,-4.5 0,-2.4853 -1.79086,-4.5 -4,-4.5 -2.20914,0 -4,2.0147 -4,4.5 z"
       style="fill:#000000;fill-opacity:1;fill-rule:nonzero;stroke:none"
       id="path4355"
       inkscape:connector-curvature="0" /><g
       id="g4357"
       transform="matrix(7.874016e-5,0,0,-7.874016e-5,25.5,108.5)"><path
         d="M 0,57150 C 0,25586.91 22743.94,0 50800,0 c 28056.06,0 50800,25586.91 50800,57150 0,31563.09 -22743.94,57150 -50800,57150 C 22743.94,114300 0,88713.09 0,57150 Z"
         style="fill:none;stroke:#41719c;stroke-width:12700;stroke-linecap:butt;stroke-linejoin:miter;stroke-miterlimit:8;stroke-dasharray:none;stroke-opacity:1"
         id="path4359"
         inkscape:connector-curvature="0" /></g><path
       d="m 15.5,91.5 c 0,2.20914 2.01472,4 4.5,4 2.48528,0 4.5,-1.79086 4.5,-4 0,-2.20914 -2.01472,-4 -4.5,-4 -2.48528,0 -4.5,1.79086 -4.5,4 z"
       style="fill:#000000;fill-opacity:1;fill-rule:nonzero;stroke:none"
       id="path4361"
       inkscape:connector-curvature="0" /><g
       id="g4363"
       transform="matrix(7.874016e-5,0,0,-7.874016e-5,15.5,95.5)"><path
         d="M 0,50800 C 0,22743.96 25586.93,0 57150,0 c 31563.07,0 57150,22743.96 57150,50800 0,28056.04 -25586.93,50800 -57150,50800 C 25586.93,101600 0,78856.04 0,50800 Z"
         style="fill:none;stroke:#41719c;stroke-width:12700;stroke-linecap:butt;stroke-linejoin:miter;stroke-miterlimit:8;stroke-dasharray:none;stroke-opacity:1"
         id="path4365"
         inkscape:connector-curvature="0" /></g><path
       d="m 7.5,76.5 c 0,2.20914 2.014719,4 4.5,4 2.48528,0 4.5,-1.79086 4.5,-4 0,-2.20914 -2.01472,-4 -4.5,-4 -2.485281,0 -4.5,1.79086 -4.5,4 z"
       style="fill:#000000;fill-opacity:1;fill-rule:nonzero;stroke:none"
       id="path4367"
       inkscape:connector-curvature="0" /><g
       id="g4369"
       transform="matrix(7.874016e-5,0,0,-7.874016e-5,7.5,80.5)"><path
         d="M 0,50800 C 0,22743.96 25586.93,0 57150,0 c 31563.07,0 57150,22743.96 57150,50800 0,28056.04 -25586.93,50800 -57150,50800 C 25586.93,101600 0,78856.04 0,50800 Z"
         style="fill:none;stroke:#41719c;stroke-width:12700;stroke-linecap:butt;stroke-linejoin:miter;stroke-miterlimit:8;stroke-dasharray:none;stroke-opacity:1"
         id="path4371"
         inkscape:connector-curvature="0" /></g><path
       d="m 5.5,60.5 c 0,2.20914 2.014719,4 4.5,4 2.48528,0 4.5,-1.79086 4.5,-4 0,-2.20914 -2.01472,-4 -4.5,-4 -2.485281,0 -4.5,1.79086 -4.5,4 z"
       style="fill:#000000;fill-opacity:1;fill-rule:nonzero;stroke:none"
       id="path4373"
       inkscape:connector-curvature="0" /><g
       id="g4375"
       transform="matrix(7.874016e-5,0,0,-7.874016e-5,5.5,64.5)"><path
         d="M 0,50800 C 0,22743.91 25586.93,0 57150,0 c 31563.07,0 57150,22743.91 57150,50800 0,28056.09 -25586.93,50800 -57150,50800 C 25586.93,101600 0,78856.09 0,50800 Z"
         style="fill:none;stroke:#41719c;stroke-width:12700;stroke-linecap:butt;stroke-linejoin:miter;stroke-miterlimit:8;stroke-dasharray:none;stroke-opacity:1"
         id="path4377"
         inkscape:connector-curvature="0" /></g><path
       d="m 8.5,45 c 0,2.48528 1.79086,4.5 4,4.5 2.20914,0 4,-2.01472 4,-4.5 0,-2.48528 -1.79086,-4.5 -4,-4.5 -2.20914,0 -4,2.01472 -4,4.5 z"
       style="fill:#000000;fill-opacity:1;fill-rule:nonzero;stroke:none"
       id="path4379"
       inkscape:connector-curvature="0" /><g
       id="g4381"
       transform="matrix(7.874016e-5,0,0,-7.874016e-5,8.5,49.5)"><path
         d="M 0,57150 C 0,25586.91 22743.94,0 50800,0 c 28056.06,0 50800,25586.91 50800,57150 0,31563.09 -22743.94,57150 -50800,57150 C 22743.94,114300 0,88713.09 0,57150 Z"
         style="fill:none;stroke:#41719c;stroke-width:12700;stroke-linecap:butt;stroke-linejoin:miter;stroke-miterlimit:8;stroke-dasharray:none;stroke-opacity:1"
         id="path4383"
         inkscape:connector-curvature="0" /></g><path
       d="m 16.5,29.5 c 0,2.20914 1.79086,4 4,4 2.20914,0 4,-1.79086 4,-4 0,-2.20914 -1.79086,-4 -4,-4 -2.20914,0 -4,1.79086 -4,4 z"
       style="fill:#000000;fill-opacity:1;fill-rule:nonzero;stroke:none"
       id="path4385"
       inkscape:connector-curvature="0" /><g
       id="g4387"
       transform="matrix(7.874016e-5,0,0,-7.874016e-5,16.5,33.5)"><path
         d="M 0,50800 C 0,22743.94 22743.94,0 50800,0 c 28056.06,0 50800,22743.94 50800,50800 0,28056.06 -22743.94,50800 -50800,50800 C 22743.94,101600 0,78856.06 0,50800 Z"
         style="fill:none;stroke:#41719c;stroke-width:12700;stroke-linecap:butt;stroke-linejoin:miter;stroke-miterlimit:8;stroke-dasharray:none;stroke-opacity:1"
         id="path4389"
         inkscape:connector-curvature="0" /></g><path
       d="m 29.5,18 c 0,2.48528 1.79086,4.5 4,4.5 2.20914,0 4,-2.01472 4,-4.5 0,-2.48528 -1.79086,-4.5 -4,-4.5 -2.20914,0 -4,2.01472 -4,4.5 z"
       style="fill:#000000;fill-opacity:1;fill-rule:nonzero;stroke:none"
       id="path4391"
       inkscape:connector-curvature="0" /><g
       id="g4393"
       transform="matrix(7.874016e-5,0,0,-7.874016e-5,29.5,22.5)"><path
         d="M 0,57150 C 0,25586.93 22743.94,0 50800,0 c 28056.09,0 50800,25586.93 50800,57150 0,31563.07 -22743.91,57150 -50800,57150 C 22743.94,114300 0,88713.07 0,57150 Z"
         style="fill:none;stroke:#41719c;stroke-width:12700;stroke-linecap:butt;stroke-linejoin:miter;stroke-miterlimit:8;stroke-dasharray:none;stroke-opacity:1"
         id="path4395"
         inkscape:connector-curvature="0" /></g><path
       d="m 45.5,10.5 c 0,2.20914 1.79086,4 4,4 2.20914,0 4,-1.79086 4,-4 0,-2.209139 -1.79086,-4 -4,-4 -2.20914,0 -4,1.790861 -4,4 z"
       style="fill:#000000;fill-opacity:1;fill-rule:nonzero;stroke:none"
       id="path4397"
       inkscape:connector-curvature="0" /><g
       id="g4399"
       transform="matrix(7.874016e-5,0,0,-7.874016e-5,45.5,14.5)"><path
         d="M 0,50800 C 0,22743.94 22743.91,0 50800,0 c 28056.09,0 50800,22743.94 50800,50800 0,28056.06 -22743.91,50800 -50800,50800 C 22743.91,101600 0,78856.06 0,50800 Z"
         style="fill:none;stroke:#41719c;stroke-width:12700;stroke-linecap:butt;stroke-linejoin:miter;stroke-miterlimit:8;stroke-dasharray:none;stroke-opacity:1"
         id="path4401"
         inkscape:connector-curvature="0" /></g><path
       d="m 64.5,8.5 c 0,2.20914 1.79086,4 4,4 2.20914,0 4,-1.79086 4,-4 0,-2.209139 -1.79086,-4 -4,-4 -2.20914,0 -4,1.790861 -4,4 z"
       style="fill:#000000;fill-opacity:1;fill-rule:nonzero;stroke:none"
       id="path4403"
       inkscape:connector-curvature="0" /><g
       id="g4405"
       transform="matrix(7.874016e-5,0,0,-7.874016e-5,64.5,12.5)"><path
         d="M 0,50800 C 0,22743.94 22743.96,0 50800,0 c 28056.04,0 50800,22743.94 50800,50800 0,28056.06 -22743.96,50800 -50800,50800 C 22743.96,101600 0,78856.06 0,50800 Z"
         style="fill:none;stroke:#41719c;stroke-width:12700;stroke-linecap:butt;stroke-linejoin:miter;stroke-miterlimit:8;stroke-dasharray:none;stroke-opacity:1"
         id="path4407"
         inkscape:connector-curvature="0" /></g><path
       d="m 82.5,12.5 c 0,2.20914 2.01472,4 4.5,4 2.48528,0 4.5,-1.79086 4.5,-4 0,-2.20914 -2.01472,-4 -4.5,-4 -2.48528,0 -4.5,1.79086 -4.5,4 z"
       style="fill:#000000;fill-opacity:1;fill-rule:nonzero;stroke:none"
       id="path4409"
       inkscape:connector-curvature="0" /><g
       id="g4411"
       transform="matrix(7.874016e-5,0,0,-7.874016e-5,82.5,16.5)"><path
         d="M 0,50800 C 0,22743.94 25586.91,0 57150,0 c 31563.09,0 57150,22743.94 57150,50800 0,28056.06 -25586.91,50800 -57150,50800 C 25586.91,101600 0,78856.06 0,50800 Z"
         style="fill:none;stroke:#41719c;stroke-width:12700;stroke-linecap:butt;stroke-linejoin:miter;stroke-miterlimit:8;stroke-dasharray:none;stroke-opacity:1"
         id="path4413"
         inkscape:connector-curvature="0" /></g><path
       d="m 96.5,22.5 c 0,2.20914 1.79086,4 4,4 2.2091,0 4,-1.79086 4,-4 0,-2.20914 -1.7909,-4 -4,-4 -2.20914,0 -4,1.79086 -4,4 z"
       style="fill:#000000;fill-opacity:1;fill-rule:nonzero;stroke:none"
       id="path4415"
       inkscape:connector-curvature="0" /><g
       id="g4417"
       transform="matrix(7.874016e-5,0,0,-7.874016e-5,96.5,26.5)"><path
         d="M 0,50800 C 0,22743.94 22743.96,0 50800,0 c 28056.04,0 50800,22743.94 50800,50800 0,28056.06 -22743.96,50800 -50800,50800 C 22743.96,101600 0,78856.06 0,50800 Z"
         style="fill:none;stroke:#41719c;stroke-width:12700;stroke-linecap:butt;stroke-linejoin:miter;stroke-miterlimit:8;stroke-dasharray:none;stroke-opacity:1"
         id="path4419"
         inkscape:connector-curvature="0" /></g><path
       d="m 106.5,34.5 c 0,2.20914 1.7909,4 4,4 2.2091,0 4,-1.79086 4,-4 0,-2.20914 -1.7909,-4 -4,-4 -2.2091,0 -4,1.79086 -4,4 z"
       style="fill:#000000;fill-opacity:1;fill-rule:nonzero;stroke:none"
       id="path4421"
       inkscape:connector-curvature="0" /><g
       id="g4423"
       transform="matrix(7.874016e-5,0,0,-7.874016e-5,106.5,38.5)"><path
         d="M 0,50800 C 0,22743.91 22743.96,0 50800,0 c 28056.04,0 50800,22743.91 50800,50800 0,28056.09 -22743.96,50800 -50800,50800 C 22743.96,101600 0,78856.09 0,50800 Z"
         style="fill:none;stroke:#41719c;stroke-width:12700;stroke-linecap:butt;stroke-linejoin:miter;stroke-miterlimit:8;stroke-dasharray:none;stroke-opacity:1"
         id="path4425"
         inkscape:connector-curvature="0" /></g><path
       d="m 111.5,49.5 c 0,2.20914 2.0147,4 4.5,4 2.4853,0 4.5,-1.79086 4.5,-4 0,-2.20914 -2.0147,-4 -4.5,-4 -2.4853,0 -4.5,1.79086 -4.5,4 z"
       style="fill:#000000;fill-opacity:1;fill-rule:nonzero;stroke:none"
       id="path4427"
       inkscape:connector-curvature="0" /><g
       id="g4429"
       transform="matrix(7.874016e-5,0,0,-7.874016e-5,111.5,53.5)"><path
         d="M 0,50800 C 0,22743.91 25586.91,0 57150,0 c 31563.09,0 57150,22743.91 57150,50800 0,28056.09 -25586.91,50800 -57150,50800 C 25586.91,101600 0,78856.09 0,50800 Z"
         style="fill:none;stroke:#41719c;stroke-width:12700;stroke-linecap:butt;stroke-linejoin:miter;stroke-miterlimit:8;stroke-dasharray:none;stroke-opacity:1"
         id="path4431"
         inkscape:connector-curvature="0" /></g><path
       d="m 113.5,72 c 0,2.48528 2.0147,4.5 4.5,4.5 2.4853,0 4.5,-2.01472 4.5,-4.5 0,-2.48528 -2.0147,-4.5 -4.5,-4.5 -2.4853,0 -4.5,2.01472 -4.5,4.5 z"
       style="fill:#000000;fill-opacity:1;fill-rule:nonzero;stroke:none"
       id="path4433"
       inkscape:connector-curvature="0" /><g
       id="g4435"
       transform="matrix(7.874016e-5,0,0,-7.874016e-5,113.5,76.5)"><path
         d="M 0,57150 C 0,25586.91 25586.91,0 57150,0 c 31563.09,0 57150,25586.91 57150,57150 0,31563.09 -25586.91,57150 -57150,57150 C 25586.91,114300 0,88713.09 0,57150 Z"
         style="fill:none;stroke:#41719c;stroke-width:12700;stroke-linecap:butt;stroke-linejoin:miter;stroke-miterlimit:8;stroke-dasharray:none;stroke-opacity:1"
         id="path4437"
         inkscape:connector-curvature="0" /></g><path
       d="m 104.5,110.5 c 0,2.2091 1.7909,4 4,4 2.2091,0 4,-1.7909 4,-4 0,-2.2091 -1.7909,-4 -4,-4 -2.2091,0 -4,1.7909 -4,4 z"
       style="fill:#843c0c;fill-opacity:1;fill-rule:nonzero;stroke:none"
       id="path4439"
       inkscape:connector-curvature="0" /><g
       id="g4441"
       transform="matrix(7.874016e-5,0,0,-7.874016e-5,104.5,114.5)"><path
         d="M 0,50800 C 0,22743.96 22743.96,0 50800,0 c 28056.04,0 50800,22743.96 50800,50800 0,28056.04 -22743.96,50800 -50800,50800 C 22743.96,101600 0,78856.04 0,50800 Z"
         style="fill:none;stroke:#c55a11;stroke-width:12700;stroke-linecap:butt;stroke-linejoin:miter;stroke-miterlimit:8;stroke-dasharray:none;stroke-opacity:1"
         id="path4443"
         inkscape:connector-curvature="0" /></g><path
       d="m 126.18418,122.40077 -0.24165,-2.52301 -1.03865,0.063 -2.67337,-0.28154 -2.30734,-0.72174 -2.21682,-1.04861 -4.23446,-2.60128 0.52346,-0.852 4.18797,2.57264 2.10469,0.99559 2.14615,0.67134 2.49195,0.26238 0.92102,-0.0559 -0.23503,-2.4536 6.25871,2.41431 z"
       style="fill:#41719c;fill-opacity:1;fill-rule:nonzero;stroke:none"
       id="path4481"
       inkscape:connector-curvature="0" /><g
       aria-label="Cu
29e-
29p+
35n
"
       transform="scale(1,-1)"
       style="font-style:normal;font-variant:normal;font-weight:normal;font-stretch:normal;font-size:32px;line-height:75%;font-family:KaTeX_Main;-inkscape-font-specification:'KaTeX_Main, Normal';text-align:start;letter-spacing:0px;word-spacing:0px;writing-mode:lr-tb;text-anchor:start;fill:#000000;fill-opacity:1;stroke:none;stroke-width:0.80000001px;stroke-linecap:butt;stroke-linejoin:miter;stroke-opacity:1"
       id="text1235"><path
         d="m 160.38954,-109.57599 v 1.99687 q -0.95625,-0.89062 -2.04375,-1.33125 -1.07813,-0.44062 -2.29688,-0.44062 -2.4,0 -3.675,1.47187 -1.275,1.4625 -1.275,4.2375 0,2.76563 1.275,4.237503 1.275,1.4625 3.675,1.4625 1.21875,0 2.29688,-0.440625 1.0875,-0.440625 2.04375,-1.33125 v 1.978125 q -0.99375,0.675 -2.10938,1.0125 -1.10625,0.3375 -2.34375,0.3375 -3.17812,0 -5.00625,-1.940625 -1.82812,-1.949998 -1.82812,-5.315628 0,-3.375 1.82812,-5.31562 1.82813,-1.95 5.00625,-1.95 1.25625,0 2.3625,0.3375 1.11563,0.32812 2.09063,0.99375 z"
         style="font-style:normal;font-variant:normal;font-weight:normal;font-stretch:normal;font-size:19.20000076px;line-height:75%;font-family:sans-serif;-inkscape-font-specification:'sans-serif, Normal';font-variant-ligatures:normal;font-variant-caps:normal;font-variant-numeric:normal;font-feature-settings:normal;text-align:start;writing-mode:lr-tb;text-anchor:start;stroke-width:0.80000001px"
         id="path4908" /><path
         d="m 163.08016,-100.80099 v -6.35625 h 1.725 v 6.29062 q 0,1.490628 0.58125,2.240628 0.58125,0.740625 1.74375,0.740625 1.39688,0 2.20313,-0.890625 0.81562,-0.890625 0.81562,-2.428128 v -5.95312 h 1.725 v 10.499998 h -1.725 v -1.6125 q -0.62812,0.95625 -1.4625,1.425 -0.825,0.459375 -1.92187,0.459375 -1.80938,0 -2.74688,-1.125 -0.9375,-1.125 -0.9375,-3.290623 z"
         style="font-style:normal;font-variant:normal;font-weight:normal;font-stretch:normal;font-size:19.20000076px;line-height:75%;font-family:sans-serif;-inkscape-font-specification:'sans-serif, Normal';font-variant-ligatures:normal;font-variant-caps:normal;font-variant-numeric:normal;font-feature-settings:normal;text-align:start;writing-mode:lr-tb;text-anchor:start;stroke-width:0.80000001px"
         id="path4910" /><path
         d="m 151.70829,-74.250992 h 6.60937 v 1.59375 h -8.8875 v -1.59375 q 1.07813,-1.115625 2.93438,-2.990625 1.86562,-1.884375 2.34375,-2.428125 0.90937,-1.021875 1.26562,-1.725 0.36563,-0.7125 0.36563,-1.396875 0,-1.115625 -0.7875,-1.81875 -0.77813,-0.703125 -2.03438,-0.703125 -0.89062,0 -1.88437,0.309375 -0.98438,0.309375 -2.10938,0.9375 v -1.9125 q 1.14375,-0.459375 2.1375,-0.69375 0.99375,-0.234375 1.81875,-0.234375 2.175,0 3.46875,1.0875 1.29375,1.0875 1.29375,2.90625 0,0.8625 -0.32812,1.640625 -0.31875,0.76875 -1.17188,1.81875 -0.23437,0.271875 -1.49062,1.575 -1.25625,1.29375 -3.54375,3.628125 z"
         style="font-style:normal;font-variant:normal;font-weight:normal;font-stretch:normal;font-size:19.20000076px;line-height:75%;font-family:sans-serif;-inkscape-font-specification:'sans-serif, Normal';font-variant-ligatures:normal;font-variant-caps:normal;font-variant-numeric:normal;font-feature-settings:normal;text-align:start;writing-mode:lr-tb;text-anchor:start;stroke-width:0.80000001px"
         id="path4912" /><path
         d="m 162.35829,-72.947867 v -1.725 q 0.7125,0.3375 1.44375,0.515625 0.73125,0.178125 1.43437,0.178125 1.875,0 2.85938,-1.25625 0.99375,-1.265625 1.13437,-3.834375 -0.54375,0.80625 -1.37812,1.2375 -0.83438,0.43125 -1.84688,0.43125 -2.1,0 -3.32812,-1.265625 -1.21875,-1.275 -1.21875,-3.478125 0,-2.15625 1.275,-3.459375 1.275,-1.303125 3.39375,-1.303125 2.42812,0 3.70312,1.865625 1.28438,1.85625 1.28438,5.4 0,3.309375 -1.575,5.2875 -1.56563,1.96875 -4.21875,1.96875 -0.7125,0 -1.44375,-0.140625 -0.73125,-0.140625 -1.51875,-0.421875 z m 3.76875,-5.934375 q 1.275,0 2.01562,-0.871875 0.75,-0.871875 0.75,-2.390625 0,-1.509375 -0.75,-2.38125 -0.74062,-0.88125 -2.01562,-0.88125 -1.275,0 -2.025,0.88125 -0.74063,0.871875 -0.74063,2.38125 0,1.51875 0.74063,2.390625 0.75,0.871875 2.025,0.871875 z"
         style="font-style:normal;font-variant:normal;font-weight:normal;font-stretch:normal;font-size:19.20000076px;line-height:75%;font-family:sans-serif;-inkscape-font-specification:'sans-serif, Normal';font-variant-ligatures:normal;font-variant-caps:normal;font-variant-numeric:normal;font-feature-settings:normal;text-align:start;writing-mode:lr-tb;text-anchor:start;stroke-width:0.80000001px"
         id="path4914" /><path
         d="m 183.26454,-78.338492 v 0.84375 h -7.93125 q 0.1125,1.78125 1.06875,2.71875 0.96562,0.928125 2.68125,0.928125 0.99375,0 1.92187,-0.24375 0.9375,-0.24375 1.85625,-0.73125 v 1.63125 q -0.92812,0.39375 -1.90312,0.6 -0.975,0.20625 -1.97813,0.20625 -2.5125,0 -3.98437,-1.4625 -1.4625,-1.4625 -1.4625,-3.95625 0,-2.578125 1.3875,-4.0875 1.39687,-1.51875 3.75937,-1.51875 2.11875,0 3.34688,1.36875 1.2375,1.359375 1.2375,3.703125 z m -1.725,-0.50625 q -0.0187,-1.415625 -0.79688,-2.259375 -0.76875,-0.84375 -2.04375,-0.84375 -1.44375,0 -2.31562,0.815625 -0.8625,0.815625 -0.99375,2.296875 z"
         style="font-style:normal;font-variant:normal;font-weight:normal;font-stretch:normal;font-size:19.20000076px;line-height:75%;font-family:sans-serif;-inkscape-font-specification:'sans-serif, Normal';font-variant-ligatures:normal;font-variant-caps:normal;font-variant-numeric:normal;font-feature-settings:normal;text-align:start;writing-mode:lr-tb;text-anchor:start;stroke-width:0.80000001px"
         id="path4916" /><path
         d="m 184.42369,-82.571162 v -0.91104 h 3.31968 v 0.91104 z"
         style="font-style:normal;font-variant:normal;font-weight:normal;font-stretch:normal;font-size:12.4800005px;line-height:75%;font-family:KaTeX_Main;-inkscape-font-specification:'KaTeX_Main, Normal';font-variant-ligatures:normal;font-variant-caps:normal;font-variant-numeric:normal;font-feature-settings:normal;text-align:start;writing-mode:lr-tb;baseline-shift:super;text-anchor:start;stroke-width:0.80000001px"
         id="path4918" /><path
         d="m 151.70829,-50.250992 h 6.60937 v 1.59375 h -8.8875 v -1.59375 q 1.07813,-1.115625 2.93438,-2.990625 1.86562,-1.884375 2.34375,-2.428125 0.90937,-1.021875 1.26562,-1.725 0.36563,-0.7125 0.36563,-1.396875 0,-1.115625 -0.7875,-1.81875 -0.77813,-0.703125 -2.03438,-0.703125 -0.89062,0 -1.88437,0.309375 -0.98438,0.309375 -2.10938,0.9375 v -1.9125 q 1.14375,-0.459375 2.1375,-0.69375 0.99375,-0.234375 1.81875,-0.234375 2.175,0 3.46875,1.0875 1.29375,1.0875 1.29375,2.90625 0,0.8625 -0.32812,1.640625 -0.31875,0.76875 -1.17188,1.81875 -0.23437,0.271875 -1.49062,1.575 -1.25625,1.29375 -3.54375,3.628125 z"
         style="font-style:normal;font-variant:normal;font-weight:normal;font-stretch:normal;font-size:19.20000076px;line-height:75%;font-family:sans-serif;-inkscape-font-specification:'sans-serif, Normal';font-variant-ligatures:normal;font-variant-caps:normal;font-variant-numeric:normal;font-feature-settings:normal;text-align:start;writing-mode:lr-tb;text-anchor:start;stroke-width:0.80000001px"
         id="path4920" /><path
         d="m 162.35829,-48.947867 v -1.725 q 0.7125,0.3375 1.44375,0.515625 0.73125,0.178125 1.43437,0.178125 1.875,0 2.85938,-1.25625 0.99375,-1.265625 1.13437,-3.834375 -0.54375,0.80625 -1.37812,1.2375 -0.83438,0.43125 -1.84688,0.43125 -2.1,0 -3.32812,-1.265625 -1.21875,-1.275 -1.21875,-3.478125 0,-2.15625 1.275,-3.459375 1.275,-1.303125 3.39375,-1.303125 2.42812,0 3.70312,1.865625 1.28438,1.85625 1.28438,5.4 0,3.309375 -1.575,5.2875 -1.56563,1.96875 -4.21875,1.96875 -0.7125,0 -1.44375,-0.140625 -0.73125,-0.140625 -1.51875,-0.421875 z m 3.76875,-5.934375 q 1.275,0 2.01562,-0.871875 0.75,-0.871875 0.75,-2.390625 0,-1.509375 -0.75,-2.38125 -0.74062,-0.88125 -2.01562,-0.88125 -1.275,0 -2.025,0.88125 -0.74063,0.871875 -0.74063,2.38125 0,1.51875 0.74063,2.390625 0.75,0.871875 2.025,0.871875 z"
         style="font-style:normal;font-variant:normal;font-weight:normal;font-stretch:normal;font-size:19.20000076px;line-height:75%;font-family:sans-serif;-inkscape-font-specification:'sans-serif, Normal';font-variant-ligatures:normal;font-variant-caps:normal;font-variant-numeric:normal;font-feature-settings:normal;text-align:start;writing-mode:lr-tb;text-anchor:start;stroke-width:0.80000001px"
         id="path4922" /><path
         d="m 175.95204,-50.232242 v 5.56875 h -1.73438 v -14.49375 h 1.73438 v 1.59375 q 0.54375,-0.9375 1.36875,-1.3875 0.83437,-0.459375 1.9875,-0.459375 1.9125,0 3.10312,1.51875 1.2,1.51875 1.2,3.99375 0,2.475 -1.2,3.99375 -1.19062,1.51875 -3.10312,1.51875 -1.15313,0 -1.9875,-0.45 -0.825,-0.459375 -1.36875,-1.396875 z m 5.86875,-3.665625 q 0,-1.903125 -0.7875,-2.98125 -0.77813,-1.0875 -2.14688,-1.0875 -1.36875,0 -2.15625,1.0875 -0.77812,1.078125 -0.77812,2.98125 0,1.903125 0.77812,2.990625 0.7875,1.078125 2.15625,1.078125 1.36875,0 2.14688,-1.078125 0.7875,-1.0875 0.7875,-2.990625 z"
         style="font-style:normal;font-variant:normal;font-weight:normal;font-stretch:normal;font-size:19.20000076px;line-height:75%;font-family:sans-serif;-inkscape-font-specification:'sans-serif, Normal';font-variant-ligatures:normal;font-variant-caps:normal;font-variant-numeric:normal;font-feature-settings:normal;text-align:start;writing-mode:lr-tb;text-anchor:start;stroke-width:0.80000001px"
         id="path4924" /><path
         d="m 190.40172,-64.161617 v 3.394218 h 3.39422 v 1.035938 h -3.39422 v 3.394219 h -1.02375 v -3.394219 h -3.39421 v -1.035938 h 3.39421 v -3.394218 z"
         style="font-size:12.4800005px;line-height:75%;baseline-shift:super;stroke-width:0.80000001px"
         id="path4926" /><path
         d="m 155.81454,-32.204117 q 1.35937,0.290625 2.11875,1.209375 0.76875,0.91875 0.76875,2.26875 0,2.071875 -1.425,3.20625 -1.425,1.134375 -4.05,1.134375 -0.88125,0 -1.81875,-0.178125 -0.92813,-0.16875 -1.92188,-0.515625 v -1.828125 q 0.7875,0.459375 1.725,0.69375 0.9375,0.234375 1.95938,0.234375 1.78125,0 2.70937,-0.703125 0.9375,-0.703125 0.9375,-2.04375 0,-1.2375 -0.87187,-1.93125 -0.8625,-0.703125 -2.40938,-0.703125 h -1.63125 v -1.55625 h 1.70625 q 1.39688,0 2.1375,-0.553125 0.74063,-0.5625 0.74063,-1.6125 0,-1.078125 -0.76875,-1.65 -0.75938,-0.58125 -2.18438,-0.58125 -0.77812,0 -1.66875,0.16875 -0.89062,0.16875 -1.95937,0.525 v -1.6875 q 1.07812,-0.3 2.01562,-0.45 0.94688,-0.15 1.78125,-0.15 2.15625,0 3.4125,0.984375 1.25625,0.975 1.25625,2.64375 0,1.1625 -0.66562,1.96875 -0.66563,0.796875 -1.89375,1.10625 z"
         style="font-style:normal;font-variant:normal;font-weight:normal;font-stretch:normal;font-size:19.20000076px;line-height:75%;font-family:sans-serif;-inkscape-font-specification:'sans-serif, Normal';font-variant-ligatures:normal;font-variant-caps:normal;font-variant-numeric:normal;font-feature-settings:normal;text-align:start;writing-mode:lr-tb;text-anchor:start;stroke-width:0.80000001px"
         id="path4928" /><path
         d="m 162.32079,-38.654117 h 7.43437 v 1.59375 h -5.7 v 3.43125 q 0.4125,-0.140625 0.825,-0.20625 0.4125,-0.075 0.825,-0.075 2.34375,0 3.7125,1.284375 1.36875,1.284375 1.36875,3.478125 0,2.259375 -1.40625,3.515625 -1.40625,1.246875 -3.96562,1.246875 -0.88125,0 -1.8,-0.15 -0.90938,-0.15 -1.88438,-0.45 v -1.903125 q 0.84375,0.459375 1.74375,0.684375 0.9,0.225 1.90313,0.225 1.62187,0 2.56875,-0.853125 0.94687,-0.853125 0.94687,-2.315625 0,-1.4625 -0.94687,-2.315625 -0.94688,-0.853125 -2.56875,-0.853125 -0.75938,0 -1.51875,0.16875 -0.75,0.16875 -1.5375,0.525 z"
         style="font-style:normal;font-variant:normal;font-weight:normal;font-stretch:normal;font-size:19.20000076px;line-height:75%;font-family:sans-serif;-inkscape-font-specification:'sans-serif, Normal';font-variant-ligatures:normal;font-variant-caps:normal;font-variant-numeric:normal;font-feature-settings:normal;text-align:start;writing-mode:lr-tb;text-anchor:start;stroke-width:0.80000001px"
         id="path4930" /><path
         d="m 183.01141,-30.994742 v 6.3375 h -1.725 v -6.28125 q 0,-1.490625 -0.58125,-2.23125 -0.58125,-0.740625 -1.74375,-0.740625 -1.39687,0 -2.20312,0.890625 -0.80625,0.890625 -0.80625,2.428125 v 5.934375 h -1.73438 v -10.5 h 1.73438 v 1.63125 q 0.61875,-0.946875 1.45312,-1.415625 0.84375,-0.46875 1.94063,-0.46875 1.80937,0 2.7375,1.125 0.92812,1.115625 0.92812,3.290625 z"
         style="font-style:normal;font-variant:normal;font-weight:normal;font-stretch:normal;font-size:19.20000076px;line-height:75%;font-family:sans-serif;-inkscape-font-specification:'sans-serif, Normal';font-variant-ligatures:normal;font-variant-caps:normal;font-variant-numeric:normal;font-feature-settings:normal;text-align:start;writing-mode:lr-tb;text-anchor:start;stroke-width:0.80000001px"
         id="path4932" /></g></g></svg>