<?xml version="1.0" encoding="UTF-8" standalone="no"?>
<!-- Generator: Adobe Illustrator 19.1.0, SVG Export Plug-In . SVG Version: 6.00 Build 0)  -->

<svg
   xmlns:dc="http://purl.org/dc/elements/1.1/"
   xmlns:cc="http://creativecommons.org/ns#"
   xmlns:rdf="http://www.w3.org/1999/02/22-rdf-syntax-ns#"
   xmlns:svg="http://www.w3.org/2000/svg"
   xmlns="http://www.w3.org/2000/svg"
   xmlns:sodipodi="http://sodipodi.sourceforge.net/DTD/sodipodi-0.dtd"
   xmlns:inkscape="http://www.inkscape.org/namespaces/inkscape"
   version="1.1"
   id="Layer_1"
   x="0px"
   y="0px"
   width="423.43408"
   height="180.08749"
   viewBox="0 0 423.4341 180.0875"
   xml:space="preserve"
   inkscape:version="0.92.2 5c3e80d, 2017-08-06"
   sodipodi:docname="delta_wye4.svg"><metadata
     id="metadata4833"><rdf:RDF><cc:Work
         rdf:about=""><dc:format>image/svg+xml</dc:format><dc:type
           rdf:resource="http://purl.org/dc/dcmitype/StillImage" /><dc:title></dc:title></cc:Work></rdf:RDF></metadata><defs
     id="defs4831" /><sodipodi:namedview
     pagecolor="#ffffff"
     bordercolor="#666666"
     borderopacity="1"
     objecttolerance="10"
     gridtolerance="10"
     guidetolerance="10"
     inkscape:pageopacity="0"
     inkscape:pageshadow="2"
     inkscape:window-width="1269"
     inkscape:window-height="726"
     id="namedview4829"
     showgrid="false"
     fit-margin-top="10"
     fit-margin-right="10"
     fit-margin-bottom="10"
     fit-margin-left="10"
     inkscape:zoom="1.1855446"
     inkscape:cx="211.71704"
     inkscape:cy="90.043747"
     inkscape:window-x="0"
     inkscape:window-y="0"
     inkscape:window-maximized="0"
     inkscape:current-layer="Layer_1" /><style
     type="text/css"
     id="style4685">
	.st0{fill:none;stroke:#000000;stroke-linecap:round;stroke-linejoin:round;stroke-miterlimit:10;}
	.st1{fill:none;stroke:#BABEC2;stroke-linecap:round;stroke-linejoin:round;stroke-miterlimit:10;}
	.st2{fill:none;stroke:#BABEC2;stroke-width:2;stroke-linecap:round;stroke-linejoin:round;stroke-miterlimit:10;}
	.st3{fill:none;}
	.st4{fill:none;stroke:#000000;stroke-width:1.5;stroke-linecap:round;stroke-linejoin:round;stroke-miterlimit:10;}
	.st5{fill:none;stroke:#000000;stroke-linecap:round;stroke-miterlimit:10;}
	.st6{fill:none;stroke:#000000;stroke-width:1.5;stroke-linecap:round;stroke-miterlimit:10;}
	.st7{fill:none;stroke:#000000;stroke-width:2;stroke-linecap:round;stroke-linejoin:round;stroke-miterlimit:10;}
	.st8{fill:none;stroke:#000000;stroke-width:1.5;stroke-miterlimit:10;}
	.st9{fill:none;stroke:#000000;stroke-miterlimit:10;}
	.st10{fill:none;stroke:#000000;stroke-width:2;stroke-miterlimit:10;}
	.st11{fill:none;stroke:#000000;stroke-width:2;stroke-linecap:round;stroke-miterlimit:10;}
	.st12{fill:none;stroke:#000000;stroke-linecap:round;stroke-linejoin:round;}
	.st13{stroke:#000000;stroke-linecap:round;stroke-linejoin:round;stroke-miterlimit:10;}
	.st14{fill:none;stroke:#000000;stroke-width:1.5;stroke-linejoin:round;stroke-miterlimit:10;}
	.st15{fill:none;stroke:#000000;stroke-linejoin:round;stroke-miterlimit:10;}
	.st16{clip-path:url(#SVGID_2_);fill:none;stroke:#000000;stroke-linejoin:round;stroke-miterlimit:10;}
	.st17{clip-path:url(#SVGID_2_);fill:none;stroke:#ADADEB;stroke-linejoin:round;stroke-miterlimit:10;}
	.st18{clip-path:url(#SVGID_2_);}
	.st19{stroke:#000000;stroke-linejoin:round;stroke-miterlimit:10;}
	.st20{stroke:#000000;stroke-width:3;stroke-linejoin:round;stroke-miterlimit:10;}
	.st21{fill:none;stroke:#000000;stroke-linejoin:round;}
	.st22{opacity:0.5;fill:#CCFAFF;}
	.st23{fill:none;stroke:#0C7F99;stroke-miterlimit:10;}
	.st24{fill:#0C7F99;}
	.st25{fill:none;stroke:#11ACCD;stroke-width:3;stroke-linecap:round;stroke-miterlimit:10;}
	.st26{fill:#11ACCD;}
	.st27{fill:none;stroke:#01D1C1;stroke-width:2;stroke-miterlimit:10;}
	.st28{fill:none;stroke:#01D1C1;stroke-linecap:round;stroke-miterlimit:10;}
	.st29{fill:none;stroke:#01D1C1;stroke-linecap:round;stroke-linejoin:round;stroke-miterlimit:10;}
	.st30{fill:none;stroke:#01D1C1;stroke-width:1.5;stroke-miterlimit:10;}
	.st31{fill:none;stroke:#01D1C1;stroke-width:2;stroke-linecap:round;stroke-linejoin:round;stroke-miterlimit:10;}
	.st32{fill:#01D1C1;stroke:#01D1C1;stroke-linecap:round;stroke-linejoin:round;stroke-miterlimit:10;}
	.st33{fill:none;stroke:#01D1C1;stroke-miterlimit:10;}
	.st34{fill:#01D1C1;}
	.st35{fill:none;stroke:#FCA9A9;stroke-width:3;stroke-linecap:round;stroke-miterlimit:10;}
	.st36{fill:#FCA9A9;}
	.st37{fill:#FFFFFF;stroke:#000000;stroke-miterlimit:10;}
	.st38{font-family:'KaTeX_Main-Italic';}
	.st39{font-size:18px;}
	.st40{fill:#11ACCD;stroke:#000000;stroke-miterlimit:10;}
	.st41{font-family:'KaTeX_Main-Regular';}
	.st42{font-size:21px;}
	.st43{letter-spacing:2;}
	.st44{fill:#BABEC2;stroke:#BABEC2;stroke-miterlimit:10;}
	.st45{stroke:#000000;stroke-miterlimit:10;}
</style><g
     id="g4687"
     transform="translate(21.898143,1.8399943)"><line
       class="st0"
       x1="300.79999"
       y1="149.39999"
       x2="300.79999"
       y2="162"
       id="line4689"
       style="fill:none;stroke:#000000;stroke-linecap:round;stroke-linejoin:round;stroke-miterlimit:10" /><polyline
       class="st7"
       points="300.8,102.6 309.8,106.5 291.8,114.3 309.8,122.1 291.8,129.9 309.8,137.7 291.8,145.5 300.8,149.4     "
       id="polyline4691"
       style="fill:none;stroke:#000000;stroke-width:2;stroke-linecap:round;stroke-linejoin:round;stroke-miterlimit:10" /><line
       class="st0"
       x1="300.79999"
       y1="84"
       x2="300.79999"
       y2="102.6"
       id="line4693"
       style="fill:none;stroke:#000000;stroke-linecap:round;stroke-linejoin:round;stroke-miterlimit:10" /><rect
       x="288.79999"
       y="84"
       class="st3"
       width="24"
       height="78"
       id="rect4695"
       style="fill:none" /></g><g
     id="g4697"
     transform="translate(21.898143,1.8399943)"><line
       class="st0"
       x1="284.60001"
       y1="74.699997"
       x2="300.79999"
       y2="84"
       id="line4699"
       style="fill:none;stroke:#000000;stroke-linecap:round;stroke-linejoin:round;stroke-miterlimit:10" /><polyline
       class="st7"
       points="244.1,51.3 252,45.5 249.7,64.9 265.5,53.3 263.3,72.7 279,61.1 276.8,80.5 284.6,74.7  "
       id="polyline4701"
       style="fill:none;stroke:#000000;stroke-width:2;stroke-linecap:round;stroke-linejoin:round;stroke-miterlimit:10" /><line
       class="st0"
       x1="228"
       y1="42"
       x2="244.10001"
       y2="51.299999"
       id="line4703"
       style="fill:none;stroke:#000000;stroke-linecap:round;stroke-linejoin:round;stroke-miterlimit:10" /></g><g
     id="g4705"
     transform="translate(21.898143,1.8399943)"><line
       class="st0"
       x1="316.10001"
       y1="74.699997"
       x2="300"
       y2="84"
       id="line4707"
       style="fill:none;stroke:#000000;stroke-linecap:round;stroke-linejoin:round;stroke-miterlimit:10" /><polyline
       class="st7"
       points="356.6,51.3 348.8,45.5 351,64.9 335.3,53.3 337.5,72.7 321.7,61.1 324,80.5 316.1,74.7  "
       id="polyline4709"
       style="fill:none;stroke:#000000;stroke-width:2;stroke-linecap:round;stroke-linejoin:round;stroke-miterlimit:10" /><line
       class="st0"
       x1="372.79999"
       y1="42"
       x2="356.60001"
       y2="51.299999"
       id="line4711"
       style="fill:none;stroke:#000000;stroke-linecap:round;stroke-linejoin:round;stroke-miterlimit:10" /></g><g
     id="g4713"
     transform="translate(21.898143,1.8399943)"><circle
       cx="300.79999"
       cy="84"
       r="3"
       id="circle4715" /><rect
       x="294.79999"
       y="78"
       class="st3"
       width="12"
       height="12"
       id="rect4717"
       style="fill:none" /></g><g
     id="g4719"
     transform="translate(21.898143,1.8399943)"
     style="fill:none"><rect
       x="294.79999"
       y="156"
       class="st3"
       width="12"
       height="12"
       id="rect4721"
       style="fill:none" /><circle
       class="st37"
       cx="300.79999"
       cy="162"
       r="3"
       id="circle4723"
       style="fill:none;stroke:#000000;stroke-miterlimit:10" /></g><g
     id="g4725"
     transform="translate(21.898143,1.8399943)"
     style="fill:none"><rect
       x="222.8"
       y="36"
       class="st3"
       width="12"
       height="12"
       id="rect4727"
       style="fill:none" /><circle
       class="st37"
       cx="228.8"
       cy="42"
       r="3"
       id="circle4729"
       style="fill:none;stroke:#000000;stroke-miterlimit:10" /></g><g
     id="g4731"
     transform="translate(21.898143,1.8399943)"
     style="fill:none"><rect
       x="366.79999"
       y="36"
       class="st3"
       width="12"
       height="12"
       id="rect4733"
       style="fill:none" /><circle
       class="st37"
       cx="372.79999"
       cy="42"
       r="3"
       id="circle4735"
       style="fill:none;stroke:#000000;stroke-miterlimit:10" /></g><g
     id="g4737"
     transform="translate(0.63830053,1.8399943)"><line
       class="st0"
       x1="120.2"
       y1="42"
       x2="168.8"
       y2="42"
       id="line4739"
       style="fill:none;stroke:#000000;stroke-linecap:round;stroke-linejoin:round;stroke-miterlimit:10" /><polyline
       class="st7"
       points="73.4,42 77.3,33 85.1,51 92.9,33 100.7,51 108.5,33 116.3,51 120.2,42  "
       id="polyline4741"
       style="fill:none;stroke:#000000;stroke-width:2;stroke-linecap:round;stroke-linejoin:round;stroke-miterlimit:10" /><line
       class="st0"
       x1="54.799999"
       y1="42"
       x2="73.400002"
       y2="42"
       id="line4743"
       style="fill:none;stroke:#000000;stroke-linecap:round;stroke-linejoin:round;stroke-miterlimit:10" /><line
       class="st9"
       x1="54.799999"
       y1="42"
       x2="24.799999"
       y2="42"
       id="line4745"
       style="fill:none;stroke:#000000;stroke-miterlimit:10" /></g><g
     id="g4747"
     transform="translate(0.63830053,1.8399943)"><line
       class="st0"
       x1="46.5"
       y1="78.800003"
       x2="24.799999"
       y2="42"
       id="line4749"
       style="fill:none;stroke:#000000;stroke-linecap:round;stroke-linejoin:round;stroke-miterlimit:10" /><polyline
       class="st7"
       points="71.3,118.5 61.6,120 72.8,103.8 53.4,106.8 64.5,90.6 45.1,93.5 56.2,77.4 46.5,78.8  "
       id="polyline4751"
       style="fill:none;stroke:#000000;stroke-width:2;stroke-linecap:round;stroke-linejoin:round;stroke-miterlimit:10" /><line
       class="st0"
       x1="96.800003"
       y1="162"
       x2="71.300003"
       y2="118.5"
       id="line4753"
       style="fill:none;stroke:#000000;stroke-linecap:round;stroke-linejoin:round;stroke-miterlimit:10" /></g><g
     id="g4755"
     transform="translate(0.63830053,1.8399943)"><line
       class="st0"
       x1="147"
       y1="78.800003"
       x2="168.7"
       y2="42"
       id="line4757"
       style="fill:none;stroke:#000000;stroke-linecap:round;stroke-linejoin:round;stroke-miterlimit:10" /><polyline
       class="st7"
       points="122.2,118.5 131.9,120 120.8,103.8 140.1,106.8 129,90.6 148.4,93.5 137.3,77.4 147,78.8  "
       id="polyline4759"
       style="fill:none;stroke:#000000;stroke-width:2;stroke-linecap:round;stroke-linejoin:round;stroke-miterlimit:10" /><line
       class="st0"
       x1="96.699997"
       y1="162"
       x2="122.2"
       y2="118.5"
       id="line4761"
       style="fill:none;stroke:#000000;stroke-linecap:round;stroke-linejoin:round;stroke-miterlimit:10" /></g><g
     id="g4763"
     transform="translate(0.63830053,1.8399943)"
     style="fill:none"><rect
       x="90.800003"
       y="156"
       class="st3"
       width="12"
       height="12"
       id="rect4765"
       style="fill:none" /><circle
       class="st37"
       cx="96.800003"
       cy="162"
       r="3"
       id="circle4767"
       style="fill:none;stroke:#000000;stroke-miterlimit:10" /></g><g
     id="g4769"
     transform="translate(0.63830053,1.8399943)"
     style="fill:none"><rect
       x="162.8"
       y="36"
       class="st3"
       width="12"
       height="12"
       id="rect4771"
       style="fill:none" /><circle
       class="st37"
       cx="168.8"
       cy="42"
       r="3"
       id="circle4773"
       style="fill:none;stroke:#000000;stroke-miterlimit:10" /></g><g
     id="g4775"
     transform="translate(0.63830053,1.8399943)"
     style="fill:none"><rect
       x="18.799999"
       y="36"
       class="st3"
       width="12"
       height="12"
       id="rect4777"
       style="fill:none" /><circle
       class="st37"
       cx="24.799999"
       cy="42"
       r="3"
       id="circle4779"
       style="fill:none;stroke:#000000;stroke-miterlimit:10" /></g><g
     aria-label="x"
     style="font-style:normal;font-variant:normal;font-weight:normal;font-stretch:normal;font-size:22.50000191px;line-height:0%;font-family:KaTeX_Math;-inkscape-font-specification:'KaTeX_Math, Normal';text-align:start;writing-mode:lr-tb;text-anchor:start;fill:#11accd"
     id="text4781"><path
       d="m 10.517501,31.584992 q -0.135,-0.135 -0.135,-0.2475 0.09,-0.6075 0.6975,-1.5525 1.0575,-1.5975 2.655,-1.845 0.315,-0.045 0.4725,-0.045 0.7875,0 1.44,0.405 0.675,0.405 0.9675,1.0125 0.2925,-0.3825 0.36,-0.4725 0.8325,-0.945 1.9125,-0.945 0.9225,0 1.485001,0.54 0.585,0.5175 0.585,1.2825 0,0.6975 -0.405,1.17 -0.3825,0.4725 -1.035001,0.4725 -0.4275,0 -0.6975,-0.2475 -0.27,-0.2475 -0.27,-0.6525 0,-1.035 1.125,-1.4175 0,-0.0225 -0.2475,-0.1575 -0.225,-0.135 -0.6525,-0.135 -0.2925,0 -0.4275,0.045 -0.855,0.36 -1.26,1.485 -0.0675,0.18 -0.6525,2.52 -0.585,2.3175 -0.63,2.61 -0.0675,0.3375 -0.0675,0.675 0,0.54 0.315,0.855 0.315,0.315 0.8325,0.315 0.945,0 1.71,-0.7875 0.765,-0.81 1.035,-1.7775 0.0675,-0.225 0.135,-0.2475 0.0675,-0.045 0.36,-0.045 0.427501,0 0.427501,0.18 0,0.0225 -0.045,0.2475 -0.382501,1.395 -1.575001,2.43 -1.0575,0.832501 -2.2275,0.832501 -1.575,0 -2.385,-1.417501 -0.6525,1.012501 -1.665,1.350001 -0.2025,0.045 -0.585,0.045 -1.305,0 -1.845,-0.922501 -0.225,-0.3825 -0.225,-0.9 0,-0.675 0.405,-1.1475 0.405,-0.4725 1.035,-0.4725 0.9675,0 0.9675,0.945 0,0.8325 -0.7875,1.215 -0.045,0.0225 -0.1125,0.0675 -0.0675,0.0225 -0.1125,0.045 -0.045,0.0225 -0.0675,0.0225 l -0.0675,0.0225 q 0,0.0675 0.3375,0.2025 0.27,0.1125 0.585,0.1125 0.81,0 1.395,-1.0125 0.2475,-0.405 0.8775,-2.925 0.135,-0.5175 0.2925,-1.1475 0.1575,-0.63 0.225,-0.9675 0.09,-0.3375 0.1125,-0.405 0.1125,-0.6075 0.1125,-0.8775 0,-0.54 -0.2925,-0.855 -0.2925,-0.315 -0.81,-0.315 -1.0125,0 -1.755,0.7875 -0.7425,0.765 -1.035,1.7775 -0.045,0.2025 -0.1125,0.2475 -0.045,0.0225 -0.36,0.0225 z"
       style="font-style:normal;font-variant:normal;font-weight:normal;font-stretch:normal;font-size:22.50000191px;line-height:0%;font-family:KaTeX_Math;-inkscape-font-specification:'KaTeX_Math, Normal';text-align:start;writing-mode:lr-tb;text-anchor:start;fill:#11accd"
       id="path8212" /></g><g
     aria-label="y"
     style="font-style:normal;font-variant:normal;font-weight:normal;font-stretch:normal;font-size:22.50000191px;line-height:0%;font-family:KaTeX_Math;-inkscape-font-specification:'KaTeX_Math, Normal';text-align:start;writing-mode:lr-tb;text-anchor:start;fill:#11accd"
     id="text4783"><path
       d="m 187.4093,28.142492 q 0.315,0 0.54,0.18 0.225,0.1575 0.225,0.45 0,0.2925 -1.1025,4.725 -1.1025,4.432501 -1.26,4.860001 -0.36,1.1025 -1.17,2.025 -0.7875,0.945 -1.845,1.485 -1.215,0.585 -2.2725,0.585 -1.71,0 -2.3175,-1.08 -0.225,-0.315 -0.225,-0.9 0,-0.765 0.4275,-1.1925 0.4725,-0.4275 0.99,-0.4275 0.99,0 0.99,0.945 0,0.8325 -0.7875,1.215 -0.045,0.0225 -0.1125,0.045 -0.0675,0.045 -0.1125,0.0675 -0.045,0.0225 -0.0675,0.0225 l -0.0675,0.0225 q 0.0675,0.135 0.4725,0.2925 0.36,0.135 0.72,0.135 h 0.18 q 0.3825,0 0.585,-0.045 0.855,-0.2475 1.62,-1.1475 0.765,-0.9 1.17,-2.16 0.2475,-0.742501 0.2475,-0.877501 0,-0.0225 -0.045,0.0225 -0.045,0.0225 -0.135,0.09 -0.8325,0.607501 -1.845,0.607501 -1.1475,0 -1.89,-0.540001 -0.7425,-0.54 -0.9675,-1.5525 -0.0225,-0.1575 -0.0225,-0.6975 0,-0.54 0.045,-0.8325 0.1575,-0.9675 1.035,-3.3075 0.495,-1.3275 0.495,-1.845 0,-0.315 -0.0675,-0.4275 -0.045,-0.135 -0.2475,-0.135 h -0.1125 q -0.5175,0 -0.99,0.4725 -0.72,0.72 -1.1025,2.16 0,0.0225 -0.0225,0.09 -0.0225,0.045 -0.045,0.0675 0,0 -0.0225,0.0225 -0.0225,0.0225 -0.09,0.0225 -0.045,0 -0.09,0 -0.045,0 -0.18,0 h -0.315 q -0.135,-0.135 -0.135,-0.2025 0,-0.0675 0.0675,-0.315 0.4725,-1.575 1.4175,-2.4525 0.765,-0.72 1.5975,-0.72 0.945,0 1.5075,0.5175 0.5625,0.5175 0.5625,1.44 -0.045,0.4275 -0.0675,0.4725 0,0.135 -0.3375,0.9675 -0.9225,2.4975 -1.1025,3.6675 -0.0225,0.18 -0.0225,0.5175 0,0.855 0.27,1.305 0.27,0.45 0.99,0.45 0.5175,0 0.9675,-0.27 0.4725,-0.27 0.6975,-0.5175 0.2475,-0.27 0.6075,-0.72 0,-0.0225 0.1125,-0.45 0.1125,-0.45 0.315,-1.3275 0.225,-0.8775 0.4275,-1.665 0.855,-3.375 0.945,-3.5325 0.2925,-0.6075 0.9675,-0.6075 z"
       style="font-style:normal;font-variant:normal;font-weight:normal;font-stretch:normal;font-size:22.50000191px;line-height:0%;font-family:KaTeX_Math;-inkscape-font-specification:'KaTeX_Math, Normal';text-align:start;writing-mode:lr-tb;text-anchor:start;fill:#11accd"
       id="path8209" /></g><g
     aria-label="z"
     style="font-style:normal;font-variant:normal;font-weight:normal;font-stretch:normal;font-size:22.50000191px;line-height:0%;font-family:KaTeX_Math;-inkscape-font-specification:'KaTeX_Math, Normal';text-align:start;writing-mode:lr-tb;text-anchor:start;fill:#11accd"
     id="text4785"><path
       d="m 106.6296,170.0875 q -0.135,-0.135 -0.135,-0.2025 0,-0.09 0.135,-0.2925 0.36,-0.675 1.17,-1.6425 0.945,-1.08 3.2175,-3.15 1.7325,-1.575 2.34,-2.205 0.27,-0.36 0.1575,-0.36 -0.27,0 -1.1925,-0.2475 -0.99,-0.2475 -1.4175,-0.2475 -0.6525,0 -1.1025,0.225 -0.45,0.2025 -0.5625,0.54 -0.315,0.18 -0.4275,0.2025 -0.4725,0 -0.4725,-0.18 0,-0.1125 0.0675,-0.315 0.2925,-0.8775 0.9675,-1.5075 0.675,-0.63 1.485,-0.765 0.27,-0.045 0.3825,-0.045 0.3375,0 0.63,0.135 0.2925,0.135 0.4275,0.27 0.1575,0.1125 0.4725,0.4275 0.6975,0.675 1.1925,0.675 0.2025,0 0.315,-0.045 0.3825,-0.18 0.99,-1.1925 0.1575,-0.2475 0.225,-0.2475 0.0675,-0.0225 0.315,-0.0225 h 0.2925 q 0.135,0.135 0.135,0.18 0,0.09 -0.2025,0.45 -0.45,0.72 -1.08,1.4625 -1.0125,1.1925 -3.195,3.15 -1.8,1.5975 -2.4525,2.3175 l -0.27,0.27 0.3375,0.0225 q 0.495,0 1.2825,0.2025 1.1475,0.2925 1.575,0.2925 0.9,0 1.5975,-0.4275 0.72,-0.45 0.9225,-1.125 0.09,-0.2025 0.1575,-0.2475 0.0675,-0.045 0.3375,-0.045 0.45,0 0.45,0.225 0,0.0225 -0.045,0.2025 -0.3375,1.17 -1.2375,2.0925 -0.8775,0.9 -2.07,1.1475 -0.135,0.0225 -0.3825,0.0225 -0.3825,0 -0.6975,-0.1575 -0.315,-0.1575 -0.8775,-0.675 -0.4725,-0.4725 -0.6975,-0.585 -0.18,-0.1125 -0.495,-0.1125 -0.99,0 -1.7775,1.35 -0.1125,0.18 -0.495,0.18 z"
       style="font-style:normal;font-variant:normal;font-weight:normal;font-stretch:normal;font-size:22.50000191px;line-height:0%;font-family:KaTeX_Math;-inkscape-font-specification:'KaTeX_Math, Normal';text-align:start;writing-mode:lr-tb;text-anchor:start;fill:#11accd"
       id="path8206" /></g><g
     aria-label="x"
     style="font-style:normal;font-variant:normal;font-weight:normal;font-stretch:normal;font-size:22.50000191px;line-height:0%;font-family:KaTeX_Math;-inkscape-font-specification:'KaTeX_Math, Normal';text-align:start;writing-mode:lr-tb;text-anchor:start;fill:#11accd"
     id="text4787"><path
       d="m 235.77734,31.584992 q -0.135,-0.135 -0.135,-0.2475 0.09,-0.6075 0.6975,-1.5525 1.0575,-1.5975 2.655,-1.845 0.315,-0.045 0.4725,-0.045 0.7875,0 1.44,0.405 0.675,0.405 0.9675,1.0125 0.2925,-0.3825 0.36,-0.4725 0.8325,-0.945 1.9125,-0.945 0.9225,0 1.485,0.54 0.585,0.5175 0.585,1.2825 0,0.6975 -0.405,1.17 -0.3825,0.4725 -1.035,0.4725 -0.4275,0 -0.6975,-0.2475 -0.27,-0.2475 -0.27,-0.6525 0,-1.035 1.125,-1.4175 0,-0.0225 -0.2475,-0.1575 -0.225,-0.135 -0.6525,-0.135 -0.2925,0 -0.4275,0.045 -0.855,0.36 -1.26,1.485 -0.0675,0.18 -0.6525,2.52 -0.585,2.3175 -0.63,2.61 -0.0675,0.3375 -0.0675,0.675 0,0.54 0.315,0.855 0.315,0.315 0.8325,0.315 0.945,0 1.71,-0.7875 0.765,-0.81 1.035,-1.7775 0.0675,-0.225 0.135,-0.2475 0.0675,-0.045 0.36,-0.045 0.4275,0 0.4275,0.18 0,0.0225 -0.045,0.2475 -0.3825,1.395 -1.575,2.43 -1.0575,0.832501 -2.2275,0.832501 -1.575,0 -2.385,-1.417501 -0.6525,1.012501 -1.665,1.350001 -0.2025,0.045 -0.585,0.045 -1.305,0 -1.845,-0.922501 -0.225,-0.3825 -0.225,-0.9 0,-0.675 0.405,-1.1475 0.405,-0.4725 1.035,-0.4725 0.9675,0 0.9675,0.945 0,0.8325 -0.7875,1.215 -0.045,0.0225 -0.1125,0.0675 -0.0675,0.0225 -0.1125,0.045 -0.045,0.0225 -0.0675,0.0225 l -0.0675,0.0225 q 0,0.0675 0.3375,0.2025 0.27,0.1125 0.585,0.1125 0.81,0 1.395,-1.0125 0.2475,-0.405 0.8775,-2.925 0.135,-0.5175 0.2925,-1.1475 0.1575,-0.63 0.225,-0.9675 0.09,-0.3375 0.1125,-0.405 0.1125,-0.6075 0.1125,-0.8775 0,-0.54 -0.2925,-0.855 -0.2925,-0.315 -0.81,-0.315 -1.0125,0 -1.755,0.7875 -0.7425,0.765 -1.035,1.7775 -0.045,0.2025 -0.1125,0.2475 -0.045,0.0225 -0.36,0.0225 z"
       style="font-style:normal;font-variant:normal;font-weight:normal;font-stretch:normal;font-size:22.50000191px;line-height:0%;font-family:KaTeX_Math;-inkscape-font-specification:'KaTeX_Math, Normal';text-align:start;writing-mode:lr-tb;text-anchor:start;fill:#11accd"
       id="path8203" /></g><g
     aria-label="y"
     style="font-style:normal;font-variant:normal;font-weight:normal;font-stretch:normal;font-size:22.50000191px;line-height:0%;font-family:KaTeX_Math;-inkscape-font-specification:'KaTeX_Math, Normal';text-align:start;writing-mode:lr-tb;text-anchor:start;fill:#11accd"
     id="text4789"><path
       d="m 412.66911,28.142492 q 0.315,0 0.54,0.18 0.225,0.1575 0.225,0.45 0,0.2925 -1.1025,4.725 -1.1025,4.432501 -1.26,4.860001 -0.36,1.1025 -1.17,2.025 -0.7875,0.945 -1.845,1.485 -1.215,0.585 -2.2725,0.585 -1.71,0 -2.3175,-1.08 -0.225,-0.315 -0.225,-0.9 0,-0.765 0.4275,-1.1925 0.4725,-0.4275 0.99,-0.4275 0.99,0 0.99,0.945 0,0.8325 -0.7875,1.215 -0.045,0.0225 -0.1125,0.045 -0.0675,0.045 -0.1125,0.0675 -0.045,0.0225 -0.0675,0.0225 l -0.0675,0.0225 q 0.0675,0.135 0.4725,0.2925 0.36,0.135 0.72,0.135 h 0.18 q 0.3825,0 0.585,-0.045 0.855,-0.2475 1.62,-1.1475 0.765,-0.9 1.17,-2.16 0.2475,-0.742501 0.2475,-0.877501 0,-0.0225 -0.045,0.0225 -0.045,0.0225 -0.135,0.09 -0.8325,0.607501 -1.845,0.607501 -1.1475,0 -1.89,-0.540001 -0.7425,-0.54 -0.9675,-1.5525 -0.0225,-0.1575 -0.0225,-0.6975 0,-0.54 0.045,-0.8325 0.1575,-0.9675 1.035,-3.3075 0.495,-1.3275 0.495,-1.845 0,-0.315 -0.0675,-0.4275 -0.045,-0.135 -0.2475,-0.135 h -0.1125 q -0.5175,0 -0.99,0.4725 -0.72,0.72 -1.1025,2.16 0,0.0225 -0.0225,0.09 -0.0225,0.045 -0.045,0.0675 0,0 -0.0225,0.0225 -0.0225,0.0225 -0.09,0.0225 -0.045,0 -0.09,0 -0.045,0 -0.18,0 h -0.315 q -0.135,-0.135 -0.135,-0.2025 0,-0.0675 0.0675,-0.315 0.4725,-1.575 1.4175,-2.4525 0.765,-0.72 1.5975,-0.72 0.945,0 1.5075,0.5175 0.5625,0.5175 0.5625,1.44 -0.045,0.4275 -0.0675,0.4725 0,0.135 -0.3375,0.9675 -0.9225,2.4975 -1.1025,3.6675 -0.0225,0.18 -0.0225,0.5175 0,0.855 0.27,1.305 0.27,0.45 0.99,0.45 0.5175,0 0.9675,-0.27 0.4725,-0.27 0.6975,-0.5175 0.2475,-0.27 0.6075,-0.72 0,-0.0225 0.1125,-0.45 0.1125,-0.45 0.315,-1.3275 0.225,-0.8775 0.4275,-1.665 0.855,-3.375 0.945,-3.5325 0.2925,-0.6075 0.9675,-0.6075 z"
       style="font-style:normal;font-variant:normal;font-weight:normal;font-stretch:normal;font-size:22.50000191px;line-height:0%;font-family:KaTeX_Math;-inkscape-font-specification:'KaTeX_Math, Normal';text-align:start;writing-mode:lr-tb;text-anchor:start;fill:#11accd"
       id="path8200" /></g><g
     aria-label="z"
     style="font-style:normal;font-variant:normal;font-weight:normal;font-stretch:normal;font-size:22.50000191px;line-height:0%;font-family:KaTeX_Math;-inkscape-font-specification:'KaTeX_Math, Normal';text-align:start;writing-mode:lr-tb;text-anchor:start;fill:#11accd"
     id="text4791"><path
       d="m 331.88942,170.0875 q -0.135,-0.135 -0.135,-0.2025 0,-0.09 0.135,-0.2925 0.36,-0.675 1.17,-1.6425 0.945,-1.08 3.2175,-3.15 1.7325,-1.575 2.34,-2.205 0.27,-0.36 0.1575,-0.36 -0.27,0 -1.1925,-0.2475 -0.99,-0.2475 -1.4175,-0.2475 -0.6525,0 -1.1025,0.225 -0.45,0.2025 -0.5625,0.54 -0.315,0.18 -0.4275,0.2025 -0.4725,0 -0.4725,-0.18 0,-0.1125 0.0675,-0.315 0.2925,-0.8775 0.9675,-1.5075 0.675,-0.63 1.485,-0.765 0.27,-0.045 0.3825,-0.045 0.3375,0 0.63,0.135 0.2925,0.135 0.4275,0.27 0.1575,0.1125 0.4725,0.4275 0.6975,0.675 1.1925,0.675 0.2025,0 0.315,-0.045 0.3825,-0.18 0.99,-1.1925 0.1575,-0.2475 0.225,-0.2475 0.0675,-0.0225 0.315,-0.0225 h 0.2925 q 0.135,0.135 0.135,0.18 0,0.09 -0.2025,0.45 -0.45,0.72 -1.08,1.4625 -1.0125,1.1925 -3.195,3.15 -1.8,1.5975 -2.4525,2.3175 l -0.27,0.27 0.3375,0.0225 q 0.495,0 1.2825,0.2025 1.1475,0.2925 1.575,0.2925 0.9,0 1.5975,-0.4275 0.72,-0.45 0.9225,-1.125 0.09,-0.2025 0.1575,-0.2475 0.0675,-0.045 0.3375,-0.045 0.45,0 0.45,0.225 0,0.0225 -0.045,0.2025 -0.3375,1.17 -1.2375,2.0925 -0.8775,0.9 -2.07,1.1475 -0.135,0.0225 -0.3825,0.0225 -0.3825,0 -0.6975,-0.1575 -0.315,-0.1575 -0.8775,-0.675 -0.4725,-0.4725 -0.6975,-0.585 -0.18,-0.1125 -0.495,-0.1125 -0.99,0 -1.7775,1.35 -0.1125,0.18 -0.495,0.18 z"
       style="font-style:normal;font-variant:normal;font-weight:normal;font-stretch:normal;font-size:22.50000191px;line-height:0%;font-family:KaTeX_Math;-inkscape-font-specification:'KaTeX_Math, Normal';text-align:start;writing-mode:lr-tb;text-anchor:start;fill:#11accd"
       id="path8197" /></g><g
     aria-label="3Ω"
     style="font-style:normal;font-variant:normal;font-weight:normal;font-stretch:normal;font-size:22.50000191px;line-height:0%;font-family:KaTeX_Main;-inkscape-font-specification:'KaTeX_Main, Normal';text-align:start;writing-mode:lr-tb;text-anchor:start"
     id="text4793"><path
       d="m 154.24579,105.4225 q -0.6075,0 -0.9675,-0.3825 -0.3375,-0.3825 -0.3375,-0.99 0,-1.2825 1.0125,-2.1375 1.0125,-0.8775 2.34,-1.035 h 0.3375 q 0.7875,0 0.99,0.0225 0.7425,0.1125 1.5075,0.4725 1.485,0.7425 1.8675,2.115 0.0675,0.225 0.0675,0.6075 0,1.3275 -0.8325,2.385 -0.81,1.035 -2.0475,1.485 -0.1125,0.045 0,0.0675 0.045,0.0225 0.225,0.0675 1.3725,0.3825 2.3175,1.44 0.945,1.035 0.945,2.3625 0,0.9225 -0.4275,1.7775 -0.54,1.1475 -1.7775,1.9125 -1.215,0.7425 -2.7225,0.7425 -1.485,0 -2.6325,-0.63 -1.1475,-0.63 -1.5525,-1.6875 -0.225,-0.4725 -0.225,-1.1025 0,-0.63 0.405,-1.0125 0.4275,-0.405 1.0125,-0.405 0.63,0 1.035,0.405 0.405,0.405 0.405,1.0125 0,0.5175 -0.2925,0.9 -0.2925,0.3825 -0.7875,0.495 l -0.1575,0.045 q 1.215,1.0125 2.79,1.0125 1.2375,0 1.8675,-1.1925 0.3825,-0.7425 0.3825,-2.2725 v -0.45 q 0,-2.1375 -1.44,-2.8575 -0.3375,-0.135 -1.3725,-0.1575 l -0.945,-0.0225 -0.0675,-0.045 q -0.045,-0.0675 -0.045,-0.36 0,-0.27 0.0675,-0.3375 0.0675,-0.0675 0.1125,-0.0675 0.63,0 1.305,-0.1125 0.99,-0.135 1.5075,-1.1025 0.5175,-0.99 0.5175,-2.3625 0,-1.4625 -0.7875,-1.9575 -0.4725,-0.315 -1.0575,-0.315 -1.125,0 -1.98,0.6075 -0.09,0.045 -0.2025,0.1575 -0.1125,0.09 -0.18,0.18 l -0.0675,0.09 q 0.0675,0.0225 0.1575,0.045 0.45,0.045 0.7425,0.4275 0.315,0.3825 0.315,0.8775 0,0.54 -0.3825,0.9225 -0.36,0.36 -0.945,0.36 z"
       style="font-style:normal;font-variant:normal;font-weight:normal;font-stretch:normal;font-size:22.50000191px;line-height:125%;font-family:KaTeX_Main;-inkscape-font-specification:'KaTeX_Main, Normal';text-align:start;letter-spacing:2;writing-mode:lr-tb;text-anchor:start"
       id="path8192" /><path
       d="m 170.0633,115.39 q 0,0.2925 -0.1575,0.45 h -4.185 v -0.045 q -0.0225,-0.0225 -0.36,-1.9575 l -0.3825,-1.935 v -0.045 h 0.9 l 0.0225,0.1125 q 0,0.1125 0.09,0.4275 0.1575,1.0125 0.3375,1.35 0.09,0.1125 0.1575,0.1575 0.2925,0.1125 1.5075,0.135 h 0.99 v -0.0675 q -0.1125,-0.36 -0.495,-1.1925 -0.36,-0.6975 -1.2375,-2.07 -1.44,-2.3175 -1.8,-3.5325 -0.225,-0.8325 -0.225,-1.5525 0,-0.675 0.18,-1.2825 0.495,-1.6875 2.0925,-2.9025 1.5975,-1.2375 3.735,-1.41751 0.135,-0.0225 0.3375,-0.0225 h 0.3375 q 3.1725,0 5.1975,1.732505 1.2825,1.125 1.6875,2.61 0.18,0.6075 0.18,1.2825 0,0.72 -0.225,1.5525 -0.36,1.215 -1.8,3.5325 -0.8775,1.3725 -1.2375,2.07 -0.3825,0.8325 -0.495,1.1925 v 0.0675 h 0.99 q 1.215,-0.0225 1.5075,-0.135 0.09,-0.045 0.1575,-0.1575 0.1575,-0.3375 0.3375,-1.35 0.09,-0.315 0.09,-0.4275 l 0.0225,-0.1125 h 0.9 v 0.045 l -0.3825,1.935 q -0.3375,1.935 -0.36,1.9575 v 0.045 h -2.07 q -1.665,0 -1.935,0 -0.2475,-0.0225 -0.2925,-0.135 -0.045,-0.09 -0.045,-0.315 0,-0.6525 0.2025,-1.7775 0.18,-0.9 0.8775,-3.0375 0.72,-2.1825 0.945,-3.42 0.1575,-0.945 0.1575,-1.5525 0,-3.1725 -2.3175,-4.3425 -0.945,-0.45 -1.89,-0.45 -2.295,0 -3.51,1.9125 -0.6975,1.1025 -0.6975,2.8575 0,0.765 0.135,1.575 0.225,1.2375 0.945,3.42 0.6975,2.1375 0.8775,3.0375 0.2025,1.1025 0.2025,1.7775 z"
       style="font-style:normal;font-variant:normal;font-weight:normal;font-stretch:normal;font-size:22.50000191px;line-height:125%;font-family:KaTeX_Main;-inkscape-font-specification:'KaTeX_Main, Normal';text-align:start;writing-mode:lr-tb;text-anchor:start"
       id="path8194" /></g><g
     aria-label="3Ω"
     style="font-style:normal;font-variant:normal;font-weight:normal;font-stretch:normal;font-size:22.50000191px;line-height:0%;font-family:KaTeX_Main;-inkscape-font-specification:'KaTeX_Main, Normal';text-align:start;writing-mode:lr-tb;text-anchor:start"
     id="text4799"><path
       d="m 18.702493,105.4225 q -0.6075,0 -0.9675,-0.3825 -0.3375,-0.3825 -0.3375,-0.99 0,-1.2825 1.0125,-2.1375 1.0125,-0.8775 2.34,-1.035 h 0.3375 q 0.7875,0 0.99,0.0225 0.7425,0.1125 1.5075,0.4725 1.485,0.7425 1.8675,2.115 0.0675,0.225 0.0675,0.6075 0,1.3275 -0.8325,2.385 -0.81,1.035 -2.0475,1.485 -0.1125,0.045 0,0.0675 0.045,0.0225 0.225,0.0675 1.3725,0.3825 2.3175,1.44 0.945001,1.035 0.945001,2.3625 0,0.9225 -0.427501,1.7775 -0.54,1.1475 -1.7775,1.9125 -1.215,0.7425 -2.7225,0.7425 -1.485,0 -2.6325,-0.63 -1.1475,-0.63 -1.5525,-1.6875 -0.225,-0.4725 -0.225,-1.1025 0,-0.63 0.405,-1.0125 0.4275,-0.405 1.0125,-0.405 0.63,0 1.035,0.405 0.405,0.405 0.405,1.0125 0,0.5175 -0.2925,0.9 -0.2925,0.3825 -0.7875,0.495 l -0.1575,0.045 q 1.215,1.0125 2.79,1.0125 1.2375,0 1.8675,-1.1925 0.3825,-0.7425 0.3825,-2.2725 v -0.45 q 0,-2.1375 -1.44,-2.8575 -0.3375,-0.135 -1.3725,-0.1575 l -0.945,-0.0225 -0.0675,-0.045 q -0.045,-0.0675 -0.045,-0.36 0,-0.27 0.0675,-0.3375 0.0675,-0.0675 0.1125,-0.0675 0.63,0 1.305,-0.1125 0.99,-0.135 1.5075,-1.1025 0.5175,-0.99 0.5175,-2.3625 0,-1.4625 -0.7875,-1.9575 -0.4725,-0.315 -1.0575,-0.315 -1.125,0 -1.98,0.6075 -0.09,0.045 -0.2025,0.1575 -0.1125,0.09 -0.18,0.18 l -0.0675,0.09 q 0.0675,0.0225 0.1575,0.045 0.45,0.045 0.7425,0.4275 0.315,0.3825 0.315,0.8775 0,0.54 -0.3825,0.9225 -0.36,0.36 -0.945,0.36 z"
       style="font-style:normal;font-variant:normal;font-weight:normal;font-stretch:normal;font-size:22.50000191px;line-height:125%;font-family:KaTeX_Main;-inkscape-font-specification:'KaTeX_Main, Normal';text-align:start;letter-spacing:2;writing-mode:lr-tb;text-anchor:start"
       id="path8187" /><path
       d="m 34.519993,115.39 q 0,0.2925 -0.1575,0.45 h -4.185001 v -0.045 q -0.0225,-0.0225 -0.36,-1.9575 l -0.3825,-1.935 v -0.045 h 0.9 l 0.0225,0.1125 q 0,0.1125 0.09,0.4275 0.1575,1.0125 0.3375,1.35 0.09,0.1125 0.1575,0.1575 0.2925,0.1125 1.5075,0.135 h 0.99 v -0.0675 q -0.1125,-0.36 -0.495,-1.1925 -0.36,-0.6975 -1.2375,-2.07 -1.44,-2.3175 -1.8,-3.5325 -0.225,-0.8325 -0.225,-1.5525 0,-0.675 0.18,-1.2825 0.495,-1.6875 2.0925,-2.9025 1.5975,-1.2375 3.735001,-1.41751 0.135,-0.0225 0.3375,-0.0225 h 0.3375 q 3.1725,0 5.1975,1.732505 1.2825,1.125 1.6875,2.61 0.18,0.6075 0.18,1.2825 0,0.72 -0.225,1.5525 -0.36,1.215 -1.8,3.5325 -0.8775,1.3725 -1.2375,2.07 -0.3825,0.8325 -0.495,1.1925 v 0.0675 h 0.99 q 1.215,-0.0225 1.5075,-0.135 0.09,-0.045 0.1575,-0.1575 0.1575,-0.3375 0.3375,-1.35 0.09,-0.315 0.09,-0.4275 l 0.0225,-0.1125 h 0.9 v 0.045 l -0.3825,1.935 q -0.3375,1.935 -0.36,1.9575 v 0.045 h -2.07 q -1.665,0 -1.935,0 -0.2475,-0.0225 -0.2925,-0.135 -0.045,-0.09 -0.045,-0.315 0,-0.6525 0.2025,-1.7775 0.18,-0.9 0.8775,-3.0375 0.72,-2.1825 0.945,-3.42 0.1575,-0.945 0.1575,-1.5525 0,-3.1725 -2.3175,-4.3425 -0.945,-0.45 -1.89,-0.45 -2.295,0 -3.510001,1.9125 -0.6975,1.1025 -0.6975,2.8575 0,0.765 0.135,1.575 0.225,1.2375 0.945,3.42 0.697501,2.1375 0.877501,3.0375 0.2025,1.1025 0.2025,1.7775 z"
       style="font-style:normal;font-variant:normal;font-weight:normal;font-stretch:normal;font-size:22.50000191px;line-height:125%;font-family:KaTeX_Main;-inkscape-font-specification:'KaTeX_Main, Normal';text-align:start;writing-mode:lr-tb;text-anchor:start"
       id="path8189" /></g><g
     aria-label="3Ω"
     style="font-style:normal;font-variant:normal;font-weight:normal;font-stretch:normal;font-size:22.50000191px;line-height:0%;font-family:KaTeX_Main;-inkscape-font-specification:'KaTeX_Main, Normal';text-align:start;writing-mode:lr-tb;text-anchor:start"
     id="text4805"><path
       d="m 86.160608,15.422494 q -0.6075,0 -0.9675,-0.3825 -0.3375,-0.382501 -0.3375,-0.990001 0,-1.2825 1.0125,-2.1375 1.012501,-0.8775 2.340001,-1.035 h 0.3375 q 0.7875,0 0.99,0.0225 0.7425,0.1125 1.5075,0.4725 1.485,0.7425 1.8675,2.115 0.0675,0.225 0.0675,0.6075 0,1.327501 -0.8325,2.385001 -0.81,1.035 -2.0475,1.485 -0.1125,0.045 0,0.0675 0.045,0.0225 0.225,0.0675 1.3725,0.3825 2.3175,1.44 0.945,1.035 0.945,2.3625 0,0.9225 -0.4275,1.7775 -0.54,1.1475 -1.7775,1.9125 -1.215,0.7425 -2.7225,0.7425 -1.485,0 -2.632501,-0.63 -1.1475,-0.63 -1.5525,-1.6875 -0.225,-0.4725 -0.225,-1.1025 0,-0.63 0.405,-1.0125 0.4275,-0.405 1.0125,-0.405 0.63,0 1.035001,0.405 0.405,0.405 0.405,1.0125 0,0.5175 -0.2925,0.9 -0.292501,0.3825 -0.787501,0.495 l -0.1575,0.045 q 1.215001,1.0125 2.790001,1.0125 1.2375,0 1.8675,-1.1925 0.3825,-0.7425 0.3825,-2.2725 v -0.45 q 0,-2.1375 -1.44,-2.8575 -0.3375,-0.135 -1.3725,-0.1575 l -0.945,-0.0225 -0.0675,-0.045 q -0.045,-0.0675 -0.045,-0.36 0,-0.27 0.0675,-0.3375 0.0675,-0.0675 0.1125,-0.0675 0.63,0 1.305,-0.1125 0.99,-0.135 1.5075,-1.1025 0.5175,-0.99 0.5175,-2.362501 0,-1.4625 -0.7875,-1.9575 -0.4725,-0.315 -1.0575,-0.315 -1.125,0 -1.98,0.6075 -0.09,0.045 -0.202501,0.1575 -0.1125,0.09 -0.18,0.18 l -0.0675,0.09 q 0.0675,0.0225 0.1575,0.045 0.450001,0.045 0.742501,0.4275 0.315,0.3825 0.315,0.8775 0,0.54 -0.3825,0.922501 -0.36,0.36 -0.945001,0.36 z"
       style="font-style:normal;font-variant:normal;font-weight:normal;font-stretch:normal;font-size:22.50000191px;line-height:125%;font-family:KaTeX_Main;-inkscape-font-specification:'KaTeX_Main, Normal';text-align:start;letter-spacing:2;writing-mode:lr-tb;text-anchor:start"
       id="path8182" /><path
       d="m 101.97811,25.389994 q 0,0.2925 -0.1575,0.45 h -4.184996 v -0.045 q -0.0225,-0.0225 -0.36,-1.9575 l -0.3825,-1.935 v -0.045 h 0.9 l 0.0225,0.1125 q 0,0.1125 0.09,0.4275 0.157501,1.0125 0.337501,1.35 0.09,0.1125 0.1575,0.1575 0.2925,0.1125 1.5075,0.135 h 0.989995 v -0.0675 q -0.1125,-0.36 -0.495,-1.1925 -0.36,-0.6975 -1.237495,-2.07 -1.440001,-2.3175 -1.800001,-3.5325 -0.225,-0.8325 -0.225,-1.5525 0,-0.675 0.18,-1.282501 0.495,-1.6875 2.092501,-2.9025 1.597495,-1.2375 3.734995,-1.4175 0.135,-0.0225 0.3375,-0.0225 h 0.3375 q 3.17251,0 5.19751,1.7324999 1.2825,1.125 1.6875,2.61 0.18,0.607501 0.18,1.282501 0,0.72 -0.225,1.5525 -0.36,1.215 -1.8,3.5325 -0.8775,1.3725 -1.2375,2.07 -0.3825,0.8325 -0.495,1.1925 v 0.0675 h 0.99 q 1.215,-0.0225 1.5075,-0.135 0.09,-0.045 0.1575,-0.1575 0.1575,-0.3375 0.3375,-1.35 0.09,-0.315 0.09,-0.4275 l 0.0225,-0.1125 h 0.9 v 0.045 l -0.3825,1.935 q -0.3375,1.935 -0.36,1.9575 v 0.045 h -2.07 q -1.665,0 -1.935,0 -0.2475,-0.0225 -0.2925,-0.135 -0.045,-0.09 -0.045,-0.315 0,-0.6525 0.2025,-1.7775 0.18,-0.9 0.8775,-3.0375 0.72,-2.1825 0.945,-3.42 0.1575,-0.945 0.1575,-1.5525 0,-3.172501 -2.3175,-4.342501 -0.945,-0.45 -1.89,-0.45 -2.29501,0 -3.51001,1.9125 -0.697495,1.1025 -0.697495,2.857501 0,0.765 0.135,1.575 0.224995,1.2375 0.944995,3.42 0.6975,2.1375 0.8775,3.0375 0.2025,1.1025 0.2025,1.7775 z"
       style="font-style:normal;font-variant:normal;font-weight:normal;font-stretch:normal;font-size:22.50000191px;line-height:125%;font-family:KaTeX_Main;-inkscape-font-specification:'KaTeX_Main, Normal';text-align:start;writing-mode:lr-tb;text-anchor:start"
       id="path8184" /></g><g
     aria-label="1Ω"
     style="font-style:normal;font-variant:normal;font-weight:normal;font-stretch:normal;font-size:22.50000191px;line-height:0%;font-family:KaTeX_Main;-inkscape-font-specification:'KaTeX_Main, Normal';text-align:start;writing-mode:lr-tb;text-anchor:start"
     id="text4811"><path
       d="m 262.46483,91.839996 q -0.3825,-0.0675 -3.5775,-0.0675 -3.15,0 -3.5325,0.0675 h -0.27 v -1.035 h 0.585 q 1.305,0 1.6875,-0.0675 0.18,-0.0225 0.54,-0.27 V 78.834995 q -0.045,0 -0.18,0.0675 -1.035,0.405 -2.3175,0.4275 h -0.4275 v -1.035 h 0.4275 q 1.89,-0.0675 3.15,-0.855 0.405,-0.225 0.6975,-0.5175 0.045,-0.0675 0.27,-0.0675 0.225,0 0.3825,0.135 v 6.727501 l 0.0225,6.75 q 0.3375,0.3375 1.4625,0.3375 h 0.7425 0.585 v 1.035 z"
       style="font-style:normal;font-variant:normal;font-weight:normal;font-stretch:normal;font-size:22.50000191px;line-height:125%;font-family:KaTeX_Main;-inkscape-font-specification:'KaTeX_Main, Normal';text-align:start;letter-spacing:2;writing-mode:lr-tb;text-anchor:start"
       id="path8177" /><path
       d="m 271.77983,91.389996 q 0,0.2925 -0.1575,0.45 h -4.185 v -0.045 q -0.0225,-0.0225 -0.36,-1.9575 l -0.3825,-1.935 v -0.045 h 0.9 l 0.0225,0.1125 q 0,0.1125 0.09,0.4275 0.1575,1.0125 0.3375,1.35 0.09,0.1125 0.1575,0.1575 0.2925,0.1125 1.5075,0.135 h 0.99 v -0.0675 q -0.1125,-0.36 -0.495,-1.1925 -0.36,-0.6975 -1.2375,-2.07 -1.44,-2.3175 -1.8,-3.5325 -0.225,-0.8325 -0.225,-1.552501 0,-0.675 0.18,-1.2825 0.495,-1.6875 2.0925,-2.9025 1.5975,-1.2375 3.735,-1.4175 0.135,-0.0225 0.3375,-0.0225 h 0.3375 q 3.1725,0 5.19751,1.7325 1.2825,1.125 1.6875,2.61 0.18,0.6075 0.18,1.2825 0,0.720001 -0.225,1.552501 -0.36,1.215 -1.8,3.5325 -0.8775,1.3725 -1.23751,2.07 -0.3825,0.8325 -0.495,1.1925 v 0.0675 h 0.99001 q 1.215,-0.0225 1.5075,-0.135 0.09,-0.045 0.1575,-0.1575 0.1575,-0.3375 0.3375,-1.35 0.09,-0.315 0.09,-0.4275 l 0.0225,-0.1125 h 0.9 v 0.045 l -0.3825,1.935 q -0.3375,1.935 -0.36,1.9575 v 0.045 h -2.07 q -1.66501,0 -1.93501,0 -0.2475,-0.0225 -0.2925,-0.135 -0.045,-0.09 -0.045,-0.315 0,-0.6525 0.2025,-1.7775 0.18,-0.9 0.8775,-3.0375 0.72,-2.1825 0.94501,-3.42 0.1575,-0.945 0.1575,-1.552501 0,-3.1725 -2.31751,-4.3425 -0.945,-0.45 -1.89,-0.45 -2.295,0 -3.51,1.9125 -0.6975,1.1025 -0.6975,2.8575 0,0.765001 0.135,1.575001 0.225,1.2375 0.945,3.42 0.6975,2.1375 0.8775,3.0375 0.2025,1.1025 0.2025,1.7775 z"
       style="font-style:normal;font-variant:normal;font-weight:normal;font-stretch:normal;font-size:22.50000191px;line-height:125%;font-family:KaTeX_Main;-inkscape-font-specification:'KaTeX_Main, Normal';text-align:start;writing-mode:lr-tb;text-anchor:start"
       id="path8179" /></g><g
     aria-label="1Ω"
     style="font-style:normal;font-variant:normal;font-weight:normal;font-stretch:normal;font-size:22.50000191px;line-height:0%;font-family:KaTeX_Main;-inkscape-font-specification:'KaTeX_Main, Normal';text-align:start;writing-mode:lr-tb;text-anchor:start"
     id="text4817"><path
       d="m 371.55144,91.839996 q -0.3825,-0.0675 -3.5775,-0.0675 -3.15,0 -3.5325,0.0675 h -0.27 v -1.035 h 0.585 q 1.305,0 1.6875,-0.0675 0.18,-0.0225 0.54,-0.27 V 78.834995 q -0.045,0 -0.18,0.0675 -1.035,0.405 -2.3175,0.4275 h -0.4275 v -1.035 h 0.4275 q 1.89,-0.0675 3.15,-0.855 0.405,-0.225 0.6975,-0.5175 0.045,-0.0675 0.27,-0.0675 0.225,0 0.3825,0.135 v 6.727501 l 0.0225,6.75 q 0.3375,0.3375 1.4625,0.3375 h 0.7425 0.585 v 1.035 z"
       style="font-style:normal;font-variant:normal;font-weight:normal;font-stretch:normal;font-size:22.50000191px;line-height:125%;font-family:KaTeX_Main;-inkscape-font-specification:'KaTeX_Main, Normal';text-align:start;letter-spacing:2;writing-mode:lr-tb;text-anchor:start"
       id="path8172" /><path
       d="m 380.86641,91.389996 q 0,0.2925 -0.1575,0.45 h -4.185 v -0.045 q -0.0225,-0.0225 -0.36,-1.9575 l -0.3825,-1.935 v -0.045 h 0.9 l 0.0225,0.1125 q 0,0.1125 0.09,0.4275 0.1575,1.0125 0.3375,1.35 0.09,0.1125 0.1575,0.1575 0.2925,0.1125 1.5075,0.135 h 0.99 v -0.0675 q -0.1125,-0.36 -0.495,-1.1925 -0.36,-0.6975 -1.2375,-2.07 -1.44,-2.3175 -1.8,-3.5325 -0.225,-0.8325 -0.225,-1.552501 0,-0.675 0.18,-1.2825 0.495,-1.6875 2.0925,-2.9025 1.5975,-1.2375 3.735,-1.4175 0.135,-0.0225 0.3375,-0.0225 h 0.3375 q 3.1725,0 5.1975,1.7325 1.2825,1.125 1.6875,2.61 0.18,0.6075 0.18,1.2825 0,0.720001 -0.225,1.552501 -0.36,1.215 -1.8,3.5325 -0.8775,1.3725 -1.2375,2.07 -0.3825,0.8325 -0.495,1.1925 v 0.0675 h 0.99 q 1.215,-0.0225 1.5075,-0.135 0.09,-0.045 0.1575,-0.1575 0.1575,-0.3375 0.3375,-1.35 0.09,-0.315 0.09,-0.4275 l 0.0225,-0.1125 h 0.9 v 0.045 l -0.3825,1.935 q -0.3375,1.935 -0.36,1.9575 v 0.045 h -2.07 q -1.665,0 -1.935,0 -0.2475,-0.0225 -0.2925,-0.135 -0.045,-0.09 -0.045,-0.315 0,-0.6525 0.2025,-1.7775 0.18,-0.9 0.8775,-3.0375 0.72,-2.1825 0.945,-3.42 0.1575,-0.945 0.1575,-1.552501 0,-3.1725 -2.3175,-4.3425 -0.945,-0.45 -1.89,-0.45 -2.295,0 -3.51,1.9125 -0.6975,1.1025 -0.6975,2.8575 0,0.765001 0.135,1.575001 0.225,1.2375 0.945,3.42 0.6975,2.1375 0.8775,3.0375 0.2025,1.1025 0.2025,1.7775 z"
       style="font-style:normal;font-variant:normal;font-weight:normal;font-stretch:normal;font-size:22.50000191px;line-height:125%;font-family:KaTeX_Main;-inkscape-font-specification:'KaTeX_Main, Normal';text-align:start;writing-mode:lr-tb;text-anchor:start"
       id="path8174" /></g><g
     aria-label="1Ω"
     style="font-style:normal;font-variant:normal;font-weight:normal;font-stretch:normal;font-size:22.50000191px;line-height:0%;font-family:KaTeX_Main;-inkscape-font-specification:'KaTeX_Main, Normal';text-align:start;writing-mode:lr-tb;text-anchor:start"
     id="text4823"><path
       d="m 344.00813,133.84 q -0.3825,-0.0675 -3.5775,-0.0675 -3.15,0 -3.5325,0.0675 h -0.27 v -1.035 h 0.585 q 1.305,0 1.6875,-0.0675 0.18,-0.0225 0.54,-0.27 V 120.835 q -0.045,0 -0.18,0.0675 -1.035,0.405 -2.3175,0.4275 h -0.4275 v -1.035 h 0.4275 q 1.89,-0.0675 3.15,-0.855 0.405,-0.225 0.6975,-0.5175 0.045,-0.0675 0.27,-0.0675 0.225,0 0.3825,0.135 v 6.7275 l 0.0225,6.75 q 0.3375,0.3375 1.4625,0.3375 h 0.7425 0.585 v 1.035 z"
       style="font-style:normal;font-variant:normal;font-weight:normal;font-stretch:normal;font-size:22.50000191px;line-height:125%;font-family:KaTeX_Main;-inkscape-font-specification:'KaTeX_Main, Normal';text-align:start;letter-spacing:2;writing-mode:lr-tb;text-anchor:start"
       id="path8167" /><path
       d="m 353.32311,133.39 q 0,0.2925 -0.1575,0.45 h -4.185 v -0.045 q -0.0225,-0.0225 -0.36,-1.9575 l -0.3825,-1.935 v -0.045 h 0.9 l 0.0225,0.1125 q 0,0.1125 0.09,0.4275 0.1575,1.0125 0.3375,1.35 0.09,0.1125 0.1575,0.1575 0.2925,0.1125 1.5075,0.135 h 0.99 v -0.0675 q -0.1125,-0.36 -0.495,-1.1925 -0.36,-0.6975 -1.2375,-2.07 -1.44,-2.3175 -1.8,-3.5325 -0.225,-0.8325 -0.225,-1.5525 0,-0.675 0.18,-1.2825 0.495,-1.6875 2.0925,-2.9025 1.5975,-1.2375 3.735,-1.41751 0.135,-0.0225 0.3375,-0.0225 h 0.3375 q 3.1725,0 5.1975,1.73251 1.2825,1.125 1.6875,2.61 0.18,0.6075 0.18,1.2825 0,0.72 -0.225,1.5525 -0.36,1.215 -1.8,3.5325 -0.8775,1.3725 -1.2375,2.07 -0.3825,0.8325 -0.495,1.1925 v 0.0675 h 0.99 q 1.215,-0.0225 1.5075,-0.135 0.09,-0.045 0.1575,-0.1575 0.1575,-0.3375 0.3375,-1.35 0.09,-0.315 0.09,-0.4275 l 0.0225,-0.1125 h 0.9 v 0.045 l -0.3825,1.935 q -0.3375,1.935 -0.36,1.9575 v 0.045 h -2.07 q -1.665,0 -1.935,0 -0.2475,-0.0225 -0.2925,-0.135 -0.045,-0.09 -0.045,-0.315 0,-0.6525 0.2025,-1.7775 0.18,-0.9 0.8775,-3.0375 0.72,-2.1825 0.945,-3.42 0.1575,-0.945 0.1575,-1.5525 0,-3.1725 -2.3175,-4.3425 -0.945,-0.45 -1.89,-0.45 -2.295,0 -3.51,1.9125 -0.6975,1.1025 -0.6975,2.8575 0,0.765 0.135,1.575 0.225,1.2375 0.945,3.42 0.6975,2.1375 0.8775,3.0375 0.2025,1.1025 0.2025,1.7775 z"
       style="font-style:normal;font-variant:normal;font-weight:normal;font-stretch:normal;font-size:22.50000191px;line-height:125%;font-family:KaTeX_Main;-inkscape-font-specification:'KaTeX_Main, Normal';text-align:start;writing-mode:lr-tb;text-anchor:start"
       id="path8169" /></g></svg>