<?xml version="1.0" encoding="UTF-8" standalone="no"?>
<!-- Generator: Adobe Illustrator 19.1.0, SVG Export Plug-In . SVG Version: 6.00 Build 0)  -->

<svg
   xmlns:dc="http://purl.org/dc/elements/1.1/"
   xmlns:cc="http://creativecommons.org/ns#"
   xmlns:rdf="http://www.w3.org/1999/02/22-rdf-syntax-ns#"
   xmlns:svg="http://www.w3.org/2000/svg"
   xmlns="http://www.w3.org/2000/svg"
   xmlns:sodipodi="http://sodipodi.sourceforge.net/DTD/sodipodi-0.dtd"
   xmlns:inkscape="http://www.inkscape.org/namespaces/inkscape"
   version="1.1"
   id="Layer_1"
   x="0px"
   y="0px"
   width="260.92761"
   height="285.33411"
   viewBox="0 0 260.92761 285.33411"
   xml:space="preserve"
   inkscape:version="0.92.2 5c3e80d, 2017-08-06"
   sodipodi:docname="delta_wye7.svg"><metadata
     id="metadata4529"><rdf:RDF><cc:Work
         rdf:about=""><dc:format>image/svg+xml</dc:format><dc:type
           rdf:resource="http://purl.org/dc/dcmitype/StillImage" /><dc:title></dc:title></cc:Work></rdf:RDF></metadata><defs
     id="defs4527" /><sodipodi:namedview
     pagecolor="#ffffff"
     bordercolor="#666666"
     borderopacity="1"
     objecttolerance="10"
     gridtolerance="10"
     guidetolerance="10"
     inkscape:pageopacity="0"
     inkscape:pageshadow="2"
     inkscape:window-width="1265"
     inkscape:window-height="734"
     id="namedview4525"
     showgrid="false"
     fit-margin-top="10"
     fit-margin-right="40"
     fit-margin-bottom="10"
     fit-margin-left="10"
     inkscape:zoom="1.8995276"
     inkscape:cx="130.46381"
     inkscape:cy="142.66705"
     inkscape:window-x="0"
     inkscape:window-y="0"
     inkscape:window-maximized="0"
     inkscape:current-layer="Layer_1" /><style
     type="text/css"
     id="style4413">
	.st0{fill:none;stroke:#000000;stroke-linecap:round;stroke-linejoin:round;stroke-miterlimit:10;}
	.st1{fill:none;stroke:#BABEC2;stroke-linecap:round;stroke-linejoin:round;stroke-miterlimit:10;}
	.st2{fill:none;stroke:#BABEC2;stroke-width:2;stroke-linecap:round;stroke-linejoin:round;stroke-miterlimit:10;}
	.st3{fill:none;}
	.st4{fill:none;stroke:#000000;stroke-width:1.5;stroke-linecap:round;stroke-linejoin:round;stroke-miterlimit:10;}
	.st5{fill:none;stroke:#000000;stroke-linecap:round;stroke-miterlimit:10;}
	.st6{fill:none;stroke:#000000;stroke-width:1.5;stroke-linecap:round;stroke-miterlimit:10;}
	.st7{fill:none;stroke:#000000;stroke-width:2;stroke-linecap:round;stroke-linejoin:round;stroke-miterlimit:10;}
	.st8{fill:none;stroke:#000000;stroke-width:1.5;stroke-miterlimit:10;}
	.st9{fill:none;stroke:#000000;stroke-miterlimit:10;}
	.st10{fill:none;stroke:#000000;stroke-width:2;stroke-miterlimit:10;}
	.st11{fill:none;stroke:#000000;stroke-width:2;stroke-linecap:round;stroke-miterlimit:10;}
	.st12{fill:none;stroke:#000000;stroke-linecap:round;stroke-linejoin:round;}
	.st13{stroke:#000000;stroke-linecap:round;stroke-linejoin:round;stroke-miterlimit:10;}
	.st14{fill:none;stroke:#000000;stroke-width:1.5;stroke-linejoin:round;stroke-miterlimit:10;}
	.st15{fill:none;stroke:#000000;stroke-linejoin:round;stroke-miterlimit:10;}
	.st16{clip-path:url(#SVGID_2_);fill:none;stroke:#000000;stroke-linejoin:round;stroke-miterlimit:10;}
	.st17{clip-path:url(#SVGID_2_);fill:none;stroke:#ADADEB;stroke-linejoin:round;stroke-miterlimit:10;}
	.st18{clip-path:url(#SVGID_2_);}
	.st19{stroke:#000000;stroke-linejoin:round;stroke-miterlimit:10;}
	.st20{stroke:#000000;stroke-width:3;stroke-linejoin:round;stroke-miterlimit:10;}
	.st21{fill:none;stroke:#000000;stroke-linejoin:round;}
	.st22{opacity:0.5;fill:#CCFAFF;}
	.st23{fill:none;stroke:#0C7F99;stroke-miterlimit:10;}
	.st24{fill:#0C7F99;}
	.st25{fill:none;stroke:#11ACCD;stroke-width:3;stroke-linecap:round;stroke-miterlimit:10;}
	.st26{fill:#11ACCD;}
	.st27{fill:none;stroke:#01D1C1;stroke-width:2;stroke-miterlimit:10;}
	.st28{fill:none;stroke:#01D1C1;stroke-linecap:round;stroke-miterlimit:10;}
	.st29{fill:none;stroke:#01D1C1;stroke-linecap:round;stroke-linejoin:round;stroke-miterlimit:10;}
	.st30{fill:none;stroke:#01D1C1;stroke-width:1.5;stroke-miterlimit:10;}
	.st31{fill:none;stroke:#01D1C1;stroke-width:2;stroke-linecap:round;stroke-linejoin:round;stroke-miterlimit:10;}
	.st32{fill:#01D1C1;stroke:#01D1C1;stroke-linecap:round;stroke-linejoin:round;stroke-miterlimit:10;}
	.st33{fill:none;stroke:#01D1C1;stroke-miterlimit:10;}
	.st34{fill:#01D1C1;}
	.st35{fill:none;stroke:#FCA9A9;stroke-width:3;stroke-linecap:round;stroke-miterlimit:10;}
	.st36{fill:#FCA9A9;}
	.st37{fill:#FFFFFF;stroke:#000000;stroke-miterlimit:10;}
	.st38{font-family:'KaTeX_Main-Italic';}
	.st39{font-size:18px;}
	.st40{fill:#11ACCD;stroke:#000000;stroke-miterlimit:10;}
	.st41{font-family:'KaTeX_Main-Regular';}
	.st42{font-size:21px;}
	.st43{letter-spacing:2;}
	.st44{fill:#BABEC2;stroke:#BABEC2;stroke-miterlimit:10;}
	.st45{stroke:#000000;stroke-miterlimit:10;}
</style><g
     aria-label="Ra"
     style="font-style:normal;font-variant:normal;font-weight:normal;font-stretch:normal;font-size:22.5px;line-height:0%;font-family:KaTeX_Math;-inkscape-font-specification:'KaTeX_Math, Normal';text-align:start;writing-mode:lr-tb;text-anchor:start;fill:#11accd"
     id="text4415"><path
       d="m 197.43942,181.87 q 0,-0.0225 -0.0225,-0.045 -0.0225,-0.045 -0.0675,-0.045 -0.045,-0.0225 -0.09,-0.045 -0.045,-0.0225 -0.135,-0.0225 -0.09,-0.0225 -0.1575,-0.0225 -0.0675,0 -0.18,0 -0.1125,0 -0.2025,0 -0.0675,-0.0225 -0.2025,-0.0225 -0.135,0 -0.225,0 -0.54,0 -0.6525,-0.0225 -0.1125,-0.0225 -0.1575,-0.135 -0.045,-0.0675 0.0225,-0.405 0.1125,-0.405 0.2025,-0.45 0.045,-0.0225 3.915,-0.0225 3.87,0.0225 4.185,0.0675 2.0475,0.2925 3.105,1.395 0.8325,0.9 0.8325,2.0025 0,0.225 -0.09,0.675 -0.5175,2.0025 -3.3075,3.24 -0.99,0.3825 -1.125,0.3825 l 0.1575,0.1125 q 1.5075,0.855 1.5075,2.475 0,0.27 -0.1125,1.44 -0.1125,1.08 -0.1125,1.7775 0,0.7875 0.1575,1.125 0.1575,0.315 0.6975,0.315 0.315,0 0.405,-0.045 0.855,-0.3375 1.215,-1.5075 0.1125,-0.315 0.18,-0.3825 0.0675,-0.0675 0.3375,-0.0675 0.45,0 0.45,0.27 0,0.405 -0.54,1.2825 -0.675,0.99 -1.575,1.2375 -0.18,0.045 -0.6525,0.045 -2.34,0 -3.0375,-1.4175 -0.2025,-0.36 -0.225,-0.9 0,-0.2475 0,-0.3825 0.0225,-0.1575 0.045,-0.3375 0.0225,-0.18 0.045,-0.27 0.0225,-0.09 0.1125,-0.3825 0.09,-0.2925 0.135,-0.5175 0.3375,-1.2825 0.3375,-1.6425 0,-1.125 -0.9675,-1.665 -0.3375,-0.1575 -0.5625,-0.18 -0.225,-0.0225 -1.5975,-0.045 h -1.5525 l -0.72,2.925 q -0.7425,2.97 -0.7425,3.015 0,0.1575 0.0675,0.18 0.1575,0.0675 1.2375,0.1125 h 0.6975 q 0.1125,0.1575 0.1125,0.2025 0.0225,0.0225 -0.045,0.405 -0.09,0.2925 -0.225,0.4275 h -0.3375 q -0.81,-0.045 -2.9475,-0.045 -0.54,0 -1.5075,0.0225 -0.9675,0 -1.4175,0 -0.3825,0 -0.3825,-0.2025 0,-0.045 0.0675,-0.315 0.1125,-0.4275 0.225,-0.4725 0.09,-0.0225 0.3375,-0.0225 h 0.135 q 0.6075,0 1.35,-0.0675 0.315,-0.0675 0.4275,-0.27 0.0675,-0.09 1.62,-6.255 1.5525,-6.165 1.5525,-6.5025 z m 7.3575,0.585 q -0.4725,-0.495 -1.2375,-0.63 -0.765,-0.1575 -2.1825,-0.1575 -0.27,0 -0.5625,0.0225 -0.2925,0 -0.5175,0 -0.2025,0 -0.225,0 -0.2925,0.0225 -0.405,0.2025 -0.0225,0.0675 -0.765,3.015 -0.7425,2.925 -0.7425,2.97 0,0.0225 1.5525,0.0225 1.755,-0.0225 2.34,-0.1575 1.4625,-0.2475 2.25,-1.3275 0.36,-0.5175 0.6075,-1.35 0.2475,-0.855 0.2475,-1.53 0,-0.6975 -0.36,-1.08 z"
       style="font-style:normal;font-variant:normal;font-weight:normal;font-stretch:normal;font-size:22.5px;line-height:0%;font-family:KaTeX_Math;-inkscape-font-specification:'KaTeX_Math, Normal';text-align:start;writing-mode:lr-tb;text-anchor:start;fill:#11accd"
       id="path9011" /><path
       d="m 219.03414,192.5575 q 0.2025,0 0.27,0.0225 0.0675,0 0.1125,0.045 0.045,0.045 0.045,0.135 0,0.0675 -0.0675,0.3375 -0.495,1.89 -1.215,2.61 -0.2925,0.2925 -0.72,0.4725 -0.18,0.045 -0.54,0.045 -1.4175,0 -1.98,-1.1025 -0.1125,-0.2925 -0.1125,-0.27 -0.0225,-0.0225 -0.09,0.0225 -0.045,0.045 -0.09,0.09 -1.08,1.0125 -2.1375,1.2375 -0.135,0.0225 -0.5625,0.0225 -1.485,0 -2.4525,-1.2375 -0.675,-0.99 -0.675,-2.52 0,-0.36 0.0225,-0.495 0.1575,-1.44 0.9225,-2.745 0.7875,-1.3275 1.8675,-2.1375 1.305,-1.0125 2.745,-1.0125 1.125,0 2.025,1.1025 0.36,-0.675 1.035,-0.675 0.2925,0 0.5175,0.18 0.225,0.18 0.225,0.45 0,0.2925 -0.855,3.6225 -0.8325,3.3075 -0.8325,3.7125 0,0.945 0.63,0.945 0.2025,-0.0225 0.45,-0.2025 0.4725,-0.45 0.9225,-2.16 0.135,-0.45 0.225,-0.4725 0.045,-0.0225 0.225,-0.0225 z m -8.3025,1.0575 q 0,0.81 0.3375,1.305 0.36,0.495 1.035,0.495 0.6525,0 1.395,-0.54 0.27,-0.18 0.72,-0.675 0.4725,-0.495 0.5625,-0.675 0.045,-0.09 0.6075,-2.4075 0.585,-2.3175 0.585,-2.4975 0,-0.27 -0.2475,-0.765 -0.495,-0.9675 -1.4175,-0.9675 -0.9,0 -1.5975,0.765 -0.675,0.765 -1.035,1.755 -0.6525,1.7775 -0.9225,3.69 0,0.0675 -0.0225,0.2475 0,0.18 0,0.27 z"
       style="font-style:normal;font-variant:normal;font-weight:normal;font-stretch:normal;font-size:22.5px;line-height:0%;font-family:KaTeX_Math;-inkscape-font-specification:'KaTeX_Math, Normal';text-align:start;writing-mode:lr-tb;text-anchor:start;fill:#11accd"
       id="path9013" /></g><g
     aria-label="Rc"
     style="font-style:normal;font-variant:normal;font-weight:normal;font-stretch:normal;font-size:22.5px;line-height:0%;font-family:KaTeX_Math;-inkscape-font-specification:'KaTeX_Math, Normal';text-align:start;writing-mode:lr-tb;text-anchor:start;fill:#11accd"
     id="text4417"><path
       d="m 122.62266,152.95661 q 0,-0.0225 -0.0225,-0.045 -0.0225,-0.045 -0.0675,-0.045 -0.045,-0.0225 -0.09,-0.045 -0.045,-0.0225 -0.135,-0.0225 -0.09,-0.0225 -0.1575,-0.0225 -0.0675,0 -0.18,0 -0.1125,0 -0.2025,0 -0.0675,-0.0225 -0.2025,-0.0225 -0.135,0 -0.225,0 -0.54,0 -0.6525,-0.0225 -0.1125,-0.0225 -0.1575,-0.135 -0.045,-0.0675 0.0225,-0.405 0.1125,-0.405 0.2025,-0.45 0.045,-0.0225 3.915,-0.0225 3.87,0.0225 4.185,0.0675 2.0475,0.2925 3.105,1.395 0.8325,0.9 0.8325,2.0025 0,0.225 -0.09,0.675 -0.5175,2.0025 -3.3075,3.24 -0.99,0.3825 -1.125,0.3825 l 0.1575,0.1125 q 1.5075,0.855 1.5075,2.475 0,0.27 -0.1125,1.44 -0.1125,1.08 -0.1125,1.7775 0,0.7875 0.1575,1.125 0.1575,0.315 0.6975,0.315 0.315,0 0.405,-0.045 0.855,-0.3375 1.215,-1.5075 0.1125,-0.315 0.18,-0.3825 0.0675,-0.0675 0.3375,-0.0675 0.45,0 0.45,0.27 0,0.405 -0.54,1.2825 -0.675,0.99 -1.575,1.2375 -0.18,0.045 -0.6525,0.045 -2.34,0 -3.0375,-1.4175 -0.2025,-0.36 -0.225,-0.9 0,-0.2475 0,-0.3825 0.0225,-0.1575 0.045,-0.3375 0.0225,-0.18 0.045,-0.27 0.0225,-0.09 0.1125,-0.3825 0.09,-0.2925 0.135,-0.5175 0.3375,-1.2825 0.3375,-1.6425 0,-1.125 -0.9675,-1.665 -0.3375,-0.1575 -0.5625,-0.18 -0.225,-0.0225 -1.5975,-0.045 h -1.5525 l -0.72,2.925 q -0.7425,2.97 -0.7425,3.015 0,0.1575 0.0675,0.18 0.1575,0.0675 1.2375,0.1125 h 0.6975 q 0.1125,0.1575 0.1125,0.2025 0.0225,0.0225 -0.045,0.405 -0.09,0.2925 -0.225,0.4275 h -0.3375 q -0.81,-0.045 -2.9475,-0.045 -0.54,0 -1.5075,0.0225 -0.9675,0 -1.4175,0 -0.3825,0 -0.3825,-0.2025 0,-0.045 0.0675,-0.315 0.1125,-0.4275 0.225,-0.4725 0.09,-0.0225 0.3375,-0.0225 h 0.135 q 0.6075,0 1.35,-0.0675 0.315,-0.0675 0.4275,-0.27 0.0675,-0.09 1.62,-6.255 1.5525,-6.165 1.5525,-6.5025 z m 7.3575,0.585 q -0.4725,-0.495 -1.2375,-0.63 -0.765,-0.1575 -2.1825,-0.1575 -0.27,0 -0.5625,0.0225 -0.2925,0 -0.5175,0 -0.2025,0 -0.225,0 -0.2925,0.0225 -0.405,0.2025 -0.0225,0.0675 -0.765,3.015 -0.7425,2.925 -0.7425,2.97 0,0.0225 1.5525,0.0225 1.755,-0.0225 2.34,-0.1575 1.4625,-0.2475 2.25,-1.3275 0.36,-0.5175 0.6075,-1.35 0.2475,-0.855 0.2475,-1.53 0,-0.6975 -0.36,-1.08 z"
       style="font-style:normal;font-variant:normal;font-weight:normal;font-stretch:normal;font-size:22.5px;line-height:0%;font-family:KaTeX_Math;-inkscape-font-specification:'KaTeX_Math, Normal';text-align:start;writing-mode:lr-tb;text-anchor:start;fill:#11accd"
       id="path9006" /><path
       d="m 142.39489,164.36411 q 0.09,0 0.2925,0.225 0.225,0.2025 0.225,0.2925 0,0.2025 -0.6975,0.8325 -1.395,1.26 -3.5325,1.575 -0.495,0.045 -0.8775,0.045 -2.4075,0 -3.3525,-1.98 -0.4275,-0.8325 -0.4275,-1.845 0,-1.035 0.4275,-2.115 0.6525,-1.6875 2.115,-2.8575 1.485,-1.1925 3.15,-1.3725 0.135,-0.0225 0.4275,-0.0225 0.7875,0 1.4625,0.2475 1.26,0.54 1.26,1.71 0,0.6975 -0.4275,1.1475 -0.4275,0.4275 -1.08,0.4275 -0.4275,0 -0.675,-0.225 -0.2475,-0.2475 -0.2475,-0.675 0,-0.3825 0.225,-0.7425 0.225,-0.36 0.585,-0.5175 0.18,-0.1125 0.2475,-0.1125 0.09,0 -0.1575,-0.1575 -0.4275,-0.2475 -1.1925,-0.2475 -0.675,0 -1.2825,0.315 -0.4725,0.2025 -0.9675,0.6975 -0.585,0.585 -0.945,1.395 -0.36,0.81 -0.72,2.3175 -0.2475,1.0575 -0.2475,1.6875 0,1.035 0.585,1.5525 0.5175,0.54 1.395,0.54 0.3375,0 0.6975,-0.045 2.115,-0.315 3.465,-1.8675 0.2025,-0.225 0.27,-0.225 z"
       style="font-style:normal;font-variant:normal;font-weight:normal;font-stretch:normal;font-size:22.5px;line-height:0%;font-family:KaTeX_Math;-inkscape-font-specification:'KaTeX_Math, Normal';text-align:start;writing-mode:lr-tb;text-anchor:start;fill:#11accd"
       id="path9008" /></g><g
     aria-label="Rb"
     style="font-style:normal;font-variant:normal;font-weight:normal;font-stretch:normal;font-size:22.5px;line-height:0%;font-family:KaTeX_Math;-inkscape-font-specification:'KaTeX_Math, Normal';text-align:start;writing-mode:lr-tb;text-anchor:start;fill:#11accd"
     id="text4419"><path
       d="m 50.355114,181.87 q 0,-0.0225 -0.0225,-0.045 -0.0225,-0.045 -0.0675,-0.045 -0.045,-0.0225 -0.09,-0.045 -0.045,-0.0225 -0.135,-0.0225 -0.09,-0.0225 -0.1575,-0.0225 -0.0675,0 -0.18,0 -0.1125,0 -0.2025,0 -0.0675,-0.0225 -0.2025,-0.0225 -0.135,0 -0.225,0 -0.54,0 -0.6525,-0.0225 -0.1125,-0.0225 -0.1575,-0.135 -0.045,-0.0675 0.0225,-0.405 0.1125,-0.405 0.2025,-0.45 0.045,-0.0225 3.915,-0.0225 3.87,0.0225 4.185,0.0675 2.0475,0.2925 3.105,1.395 0.8325,0.9 0.8325,2.0025 0,0.225 -0.09,0.675 -0.5175,2.0025 -3.3075,3.24 -0.99,0.3825 -1.125,0.3825 l 0.1575,0.1125 q 1.5075,0.855 1.5075,2.475 0,0.27 -0.1125,1.44 -0.1125,1.08 -0.1125,1.7775 0,0.7875 0.1575,1.125 0.1575,0.315 0.6975,0.315 0.315,0 0.405,-0.045 0.855,-0.3375 1.215,-1.5075 0.1125,-0.315 0.18,-0.3825 0.0675,-0.0675 0.3375,-0.0675 0.45,0 0.45,0.27 0,0.405 -0.54,1.2825 -0.675,0.99 -1.575,1.2375 -0.18,0.045 -0.6525,0.045 -2.34,0 -3.0375,-1.4175 -0.2025,-0.36 -0.225,-0.9 0,-0.2475 0,-0.3825 0.0225,-0.1575 0.045,-0.3375 0.0225,-0.18 0.045,-0.27 0.0225,-0.09 0.1125,-0.3825 0.09,-0.2925 0.135,-0.5175 0.3375,-1.2825 0.3375,-1.6425 0,-1.125 -0.9675,-1.665 -0.3375,-0.1575 -0.5625,-0.18 -0.225,-0.0225 -1.5975,-0.045 h -1.5525 l -0.72,2.925 q -0.7425,2.97 -0.7425,3.015 0,0.1575 0.0675,0.18 0.1575,0.0675 1.2375,0.1125 h 0.6975 q 0.1125,0.1575 0.1125,0.2025 0.0225,0.0225 -0.045,0.405 -0.09,0.2925 -0.225,0.4275 h -0.3375 q -0.81,-0.045 -2.9475,-0.045 -0.54,0 -1.5075,0.0225 -0.9675,0 -1.4175,0 -0.3825,0 -0.3825,-0.2025 0,-0.045 0.0675,-0.315 0.1125,-0.4275 0.225,-0.4725 0.09,-0.0225 0.3375,-0.0225 h 0.135 q 0.6075,0 1.35,-0.0675 0.315,-0.0675 0.4275,-0.27 0.0675,-0.09 1.62,-6.255 1.5525,-6.165 1.5525,-6.5025 z m 7.3575,0.585 q -0.4725,-0.495 -1.2375,-0.63 -0.765,-0.1575 -2.1825,-0.1575 -0.27,0 -0.5625,0.0225 -0.2925,0 -0.5175,0 -0.2025,0 -0.225,0 -0.2925,0.0225 -0.405,0.2025 -0.0225,0.0675 -0.765,3.015 -0.7425,2.925 -0.7425,2.97 0,0.0225 1.5525,0.0225 1.755,-0.0225 2.34,-0.1575 1.4625,-0.2475 2.25,-1.3275 0.36,-0.5175 0.6075,-1.35 0.2475,-0.855 0.2475,-1.53 0,-0.6975 -0.36,-1.08 z"
       style="font-style:normal;font-variant:normal;font-weight:normal;font-stretch:normal;font-size:22.5px;line-height:0%;font-family:KaTeX_Math;-inkscape-font-specification:'KaTeX_Math, Normal';text-align:start;writing-mode:lr-tb;text-anchor:start;fill:#11accd"
       id="path9001" /><path
       d="m 62.99484,180.6325 q 0.0225,0 1.62,-0.1125 1.62,-0.135 1.6425,-0.135 0.27,0 0.27,0.2025 0,0.2025 -0.765,3.2175 -0.18,0.765 -0.405,1.575 -0.2025,0.81 -0.315,1.215 l -0.09,0.4275 q 0,0.0675 0.135,-0.0675 0.765,-0.63 1.71,-0.855 0.27,-0.045 0.5625,-0.045 0.2925,0 0.5625,0.045 1.17,0.27 1.8675,1.215 0.6975,0.945 0.6975,2.385 0,2.52 -1.7775,4.545 -1.755,2.0025 -3.825,2.0025 -0.6525,0 -1.2375,-0.2925 -1.755,-0.7875 -1.755,-3.33 0,-0.6525 0.135,-1.2825 0,-0.0225 1.125,-4.6125 l 1.1475,-4.59 q 0.045,-0.315 -0.1575,-0.3825 -0.18,-0.09 -0.63,-0.09 -0.1575,0 -0.2475,0 -0.4725,0 -0.54,-0.0675 -0.135,-0.1125 -0.0225,-0.54 0.09,-0.315 0.1575,-0.36 0.0675,-0.0675 0.135,-0.0675 z m 5.5575,8.055 q 0,-1.8 -1.3725,-1.8 -0.045,0 -0.1575,0.0225 -0.09,0 -0.1125,0 -1.17,0.2475 -2.205,1.62 -0.045,0.045 -0.1125,0.135 l -0.0675,0.09 q 0,0.0225 -0.405,1.62 -0.3825,1.575 -0.4275,1.8 -0.135,0.6975 -0.135,1.26 0,1.08 0.54,1.62 0.36,0.36 0.9,0.36 0.7425,0 1.5075,-0.72 0.5625,-0.5175 0.9,-1.26 0.36,-0.765 0.7425,-2.3625 0.405,-1.62 0.405,-2.385 z"
       style="font-style:normal;font-variant:normal;font-weight:normal;font-stretch:normal;font-size:22.5px;line-height:0%;font-family:KaTeX_Math;-inkscape-font-specification:'KaTeX_Math, Normal';text-align:start;writing-mode:lr-tb;text-anchor:start;fill:#11accd"
       id="path9003" /></g><g
     aria-label="x"
     style="font-style:normal;font-variant:normal;font-weight:normal;font-stretch:normal;font-size:22.5px;line-height:0%;font-family:KaTeX_Math;-inkscape-font-specification:'KaTeX_Math, Normal';text-align:start;writing-mode:lr-tb;text-anchor:start;fill:#11accd"
     id="text4421"><path
       d="m 39.727508,133.2883 q -0.135,-0.135 -0.135,-0.2475 0.09,-0.6075 0.6975,-1.5525 1.0575,-1.5975 2.655,-1.845 0.315,-0.045 0.4725,-0.045 0.7875,0 1.44,0.405 0.675,0.405 0.9675,1.0125 0.2925,-0.3825 0.36,-0.4725 0.8325,-0.945 1.9125,-0.945 0.9225,0 1.485,0.54 0.585,0.5175 0.585,1.2825 0,0.6975 -0.405,1.17 -0.3825,0.4725 -1.035,0.4725 -0.4275,0 -0.6975,-0.2475 -0.27,-0.2475 -0.27,-0.6525 0,-1.035 1.125,-1.4175 0,-0.0225 -0.2475,-0.1575 -0.225,-0.135 -0.6525,-0.135 -0.2925,0 -0.4275,0.045 -0.855,0.36 -1.26,1.485 -0.0675,0.18 -0.6525,2.52 -0.585,2.3175 -0.63,2.61 -0.0675,0.3375 -0.0675,0.675 0,0.54 0.315,0.855 0.315,0.315 0.8325,0.315 0.945,0 1.71,-0.7875 0.765,-0.81 1.035,-1.7775 0.0675,-0.225 0.135,-0.2475 0.0675,-0.045 0.36,-0.045 0.4275,0 0.4275,0.18 0,0.0225 -0.045,0.2475 -0.3825,1.395 -1.575,2.43 -1.0575,0.8325 -2.2275,0.8325 -1.575,0 -2.385,-1.4175 -0.6525,1.0125 -1.665,1.35 -0.2025,0.045 -0.585,0.045 -1.305,0 -1.845,-0.9225 -0.225,-0.3825 -0.225,-0.9 0,-0.675 0.405,-1.1475 0.405,-0.4725 1.035,-0.4725 0.9675,0 0.9675,0.945 0,0.8325 -0.7875,1.215 -0.045,0.0225 -0.1125,0.0675 -0.0675,0.0225 -0.1125,0.045 -0.045,0.0225 -0.0675,0.0225 l -0.0675,0.0225 q 0,0.0675 0.3375,0.2025 0.27,0.1125 0.585,0.1125 0.81,0 1.395,-1.0125 0.2475,-0.405 0.8775,-2.925 0.135,-0.5175 0.2925,-1.1475 0.1575,-0.63 0.225,-0.9675 0.09,-0.3375 0.1125,-0.405 0.1125,-0.6075 0.1125,-0.8775 0,-0.54 -0.2925,-0.855 -0.2925,-0.315 -0.81,-0.315 -1.0125,0 -1.755,0.7875 -0.7425,0.765 -1.035,1.7775 -0.045,0.2025 -0.1125,0.2475 -0.045,0.0225 -0.36,0.0225 z"
       style="font-style:normal;font-variant:normal;font-weight:normal;font-stretch:normal;font-size:22.5px;line-height:0%;font-family:KaTeX_Math;-inkscape-font-specification:'KaTeX_Math, Normal';text-align:start;writing-mode:lr-tb;text-anchor:start;fill:#11accd"
       id="path8998" /></g><g
     aria-label="y"
     style="font-style:normal;font-variant:normal;font-weight:normal;font-stretch:normal;font-size:22.5px;line-height:0%;font-family:KaTeX_Math;-inkscape-font-specification:'KaTeX_Math, Normal';text-align:start;writing-mode:lr-tb;text-anchor:start;fill:#11accd"
     id="text4423"><path
       d="m 220.16262,129.8458 q 0.315,0 0.54,0.18 0.225,0.1575 0.225,0.45 0,0.2925 -1.1025,4.725 -1.1025,4.4325 -1.26,4.86 -0.36,1.1025 -1.17,2.025 -0.7875,0.945 -1.845,1.485 -1.215,0.585 -2.2725,0.585 -1.71,0 -2.3175,-1.08 -0.225,-0.315 -0.225,-0.9 0,-0.765 0.4275,-1.1925 0.4725,-0.4275 0.99,-0.4275 0.99,0 0.99,0.945 0,0.8325 -0.7875,1.215 -0.045,0.0225 -0.1125,0.045 -0.0675,0.045 -0.1125,0.0675 -0.045,0.0225 -0.0675,0.0225 l -0.0675,0.0225 q 0.0675,0.135 0.4725,0.2925 0.36,0.135 0.72,0.135 h 0.18 q 0.3825,0 0.585,-0.045 0.855,-0.2475 1.62,-1.1475 0.765,-0.9 1.17,-2.16 0.2475,-0.7425 0.2475,-0.8775 0,-0.0225 -0.045,0.0225 -0.045,0.0225 -0.135,0.09 -0.8325,0.6075 -1.845,0.6075 -1.1475,0 -1.89,-0.54 -0.7425,-0.54 -0.9675,-1.5525 -0.0225,-0.1575 -0.0225,-0.6975 0,-0.54 0.045,-0.8325 0.1575,-0.9675 1.035,-3.3075 0.495,-1.3275 0.495,-1.845 0,-0.315 -0.0675,-0.4275 -0.045,-0.135 -0.2475,-0.135 h -0.1125 q -0.5175,0 -0.99,0.4725 -0.72,0.72 -1.1025,2.16 0,0.0225 -0.0225,0.09 -0.0225,0.045 -0.045,0.0675 0,0 -0.0225,0.0225 -0.0225,0.0225 -0.09,0.0225 -0.045,0 -0.09,0 -0.045,0 -0.18,0 h -0.315 q -0.135,-0.135 -0.135,-0.2025 0,-0.0675 0.0675,-0.315 0.4725,-1.575 1.4175,-2.4525 0.765,-0.72 1.5975,-0.72 0.945,0 1.5075,0.5175 0.5625,0.5175 0.5625,1.44 -0.045,0.4275 -0.0675,0.4725 0,0.135 -0.3375,0.9675 -0.9225,2.4975 -1.1025,3.6675 -0.0225,0.18 -0.0225,0.5175 0,0.855 0.27,1.305 0.27,0.45 0.99,0.45 0.5175,0 0.9675,-0.27 0.4725,-0.27 0.6975,-0.5175 0.2475,-0.27 0.6075,-0.72 0,-0.0225 0.1125,-0.45 0.1125,-0.45 0.315,-1.3275 0.225,-0.8775 0.4275,-1.665 0.855,-3.375 0.945,-3.5325 0.2925,-0.6075 0.9675,-0.6075 z"
       style="font-style:normal;font-variant:normal;font-weight:normal;font-stretch:normal;font-size:22.5px;line-height:0%;font-family:KaTeX_Math;-inkscape-font-specification:'KaTeX_Math, Normal';text-align:start;writing-mode:lr-tb;text-anchor:start;fill:#11accd"
       id="path8995" /></g><g
     aria-label="z"
     style="font-style:normal;font-variant:normal;font-weight:normal;font-stretch:normal;font-size:22.5px;line-height:0%;font-family:KaTeX_Math;-inkscape-font-specification:'KaTeX_Math, Normal';text-align:start;writing-mode:lr-tb;text-anchor:start;fill:#11accd"
     id="text4425"><path
       d="m 125.20971,275.33411 q -0.135,-0.135 -0.135,-0.2025 0,-0.09 0.135,-0.2925 0.36,-0.675 1.17,-1.6425 0.945,-1.08 3.2175,-3.15 1.7325,-1.575 2.34,-2.205 0.27,-0.36 0.1575,-0.36 -0.27,0 -1.1925,-0.2475 -0.99,-0.2475 -1.4175,-0.2475 -0.6525,0 -1.1025,0.225 -0.45,0.2025 -0.5625,0.54 -0.315,0.18 -0.4275,0.2025 -0.4725,0 -0.4725,-0.18 0,-0.1125 0.0675,-0.315 0.2925,-0.8775 0.9675,-1.5075 0.675,-0.63 1.485,-0.765 0.27,-0.045 0.3825,-0.045 0.3375,0 0.63,0.135 0.2925,0.135 0.4275,0.27 0.1575,0.1125 0.4725,0.4275 0.6975,0.675 1.1925,0.675 0.2025,0 0.315,-0.045 0.3825,-0.18 0.99,-1.1925 0.1575,-0.2475 0.225,-0.2475 0.0675,-0.0225 0.315,-0.0225 h 0.2925 q 0.135,0.135 0.135,0.18 0,0.09 -0.2025,0.45 -0.45,0.72 -1.08,1.4625 -1.0125,1.1925 -3.195,3.15 -1.8,1.5975 -2.4525,2.3175 l -0.27,0.27 0.3375,0.0225 q 0.495,0 1.2825,0.2025 1.1475,0.2925 1.575,0.2925 0.9,0 1.5975,-0.4275 0.72,-0.45 0.9225,-1.125 0.09,-0.2025 0.1575,-0.2475 0.0675,-0.045 0.3375,-0.045 0.45,0 0.45,0.225 0,0.0225 -0.045,0.2025 -0.3375,1.17 -1.2375,2.0925 -0.8775,0.9 -2.07,1.1475 -0.135,0.0225 -0.3825,0.0225 -0.3825,0 -0.6975,-0.1575 -0.315,-0.1575 -0.8775,-0.675 -0.4725,-0.4725 -0.6975,-0.585 -0.18,-0.1125 -0.495,-0.1125 -0.99,0 -1.7775,1.35 -0.1125,0.18 -0.495,0.18 z"
       style="font-style:normal;font-variant:normal;font-weight:normal;font-stretch:normal;font-size:22.5px;line-height:0%;font-family:KaTeX_Math;-inkscape-font-specification:'KaTeX_Math, Normal';text-align:start;writing-mode:lr-tb;text-anchor:start;fill:#11accd"
       id="path8992" /></g><g
     id="g4427"
     transform="translate(-25.858383,4)"><circle
       cx="228"
       cy="132"
       r="3"
       id="circle4429" /><rect
       x="222"
       y="126"
       class="st3"
       width="12"
       height="12"
       id="rect4431"
       style="fill:none" /></g><g
     id="g4433"
     transform="translate(-25.858383,4)"><circle
       cx="84"
       cy="132"
       r="3"
       id="circle4435" /><rect
       x="78"
       y="126"
       class="st3"
       width="12"
       height="12"
       id="rect4437"
       style="fill:none" /></g><g
     id="g4439"
     transform="translate(-25.858383,4)"><line
       class="st0"
       x1="105.8"
       y1="168.8"
       x2="84"
       y2="132"
       id="line4441"
       style="fill:none;stroke:#000000;stroke-linecap:round;stroke-linejoin:round;stroke-miterlimit:10" /><polyline
       class="st7"
       points="130.6,208.5 120.9,210 132,193.8 112.6,196.8 123.7,180.6 104.3,183.5 115.5,167.4 105.8,168.8  "
       id="polyline4443"
       style="fill:none;stroke:#000000;stroke-width:2;stroke-linecap:round;stroke-linejoin:round;stroke-miterlimit:10" /><line
       class="st0"
       x1="156"
       y1="252"
       x2="130.60001"
       y2="208.5"
       id="line4445"
       style="fill:none;stroke:#000000;stroke-linecap:round;stroke-linejoin:round;stroke-miterlimit:10" /></g><g
     id="g4447"
     transform="translate(-25.858383,4)"><line
       class="st0"
       x1="206.2"
       y1="168.8"
       x2="228"
       y2="132"
       id="line4449"
       style="fill:none;stroke:#000000;stroke-linecap:round;stroke-linejoin:round;stroke-miterlimit:10" /><polyline
       class="st7"
       points="181.4,208.5 191.1,210 180,193.8 199.4,196.8 188.3,180.6 207.7,183.5 196.5,167.4 206.2,168.8  "
       id="polyline4451"
       style="fill:none;stroke:#000000;stroke-width:2;stroke-linecap:round;stroke-linejoin:round;stroke-miterlimit:10" /><line
       class="st0"
       x1="156"
       y1="252"
       x2="181.39999"
       y2="208.5"
       id="line4453"
       style="fill:none;stroke:#000000;stroke-linecap:round;stroke-linejoin:round;stroke-miterlimit:10" /></g><g
     id="g4455"
     transform="translate(-25.858383,4)"
     style="fill:none"><rect
       x="150"
       y="246"
       class="st3"
       width="12"
       height="12"
       id="rect4457"
       style="fill:none" /><circle
       class="st37"
       cx="156"
       cy="252"
       r="3"
       id="circle4459"
       style="fill:none;stroke:#000000;stroke-miterlimit:10" /></g><g
     aria-label="4Ω"
     style="font-style:normal;font-variant:normal;font-weight:normal;font-stretch:normal;font-size:22.5px;line-height:0%;font-family:KaTeX_Main;-inkscape-font-specification:'KaTeX_Main, Normal';text-align:start;writing-mode:lr-tb;text-anchor:start"
     id="text4461"><path
       d="m 188.53651,220 q -0.315,-0.0675 -2.9025,-0.0675 -2.7,0 -3.015,0.0675 h -0.2025 v -1.035 h 0.6975 q 0.9675,-0.0225 1.1925,-0.1125 0.18,-0.045 0.27,-0.225 0.0225,-0.045 0.0225,-1.215 v -1.125 h -5.8275 v -1.035 l 3.3975,-5.1975 q 3.4425,-5.22 3.4875,-5.2425 0.045,-0.045 0.4725,-0.045 h 0.405 l 0.135,0.135 v 10.35 h 2.07 v 1.035 h -2.07 v 1.1475 q 0,0.9225 0,1.08 0.0225,0.1575 0.135,0.27 0.18,0.1575 1.2825,0.18 h 0.6525 V 220 Z m -3.8025,-4.7475 v -7.515 l -4.9275,7.4925 2.4525,0.0225 z"
       style="font-style:normal;font-variant:normal;font-weight:normal;font-stretch:normal;font-size:22.5px;line-height:125%;font-family:KaTeX_Main;-inkscape-font-specification:'KaTeX_Main, Normal';text-align:start;letter-spacing:2;writing-mode:lr-tb;text-anchor:start"
       id="path8987" /><path
       d="m 196.81652,219.55 q 0,0.2925 -0.1575,0.45 h -4.185 v -0.045 q -0.0225,-0.0225 -0.36,-1.9575 l -0.3825,-1.935 v -0.045 h 0.9 l 0.0225,0.1125 q 0,0.1125 0.09,0.4275 0.1575,1.0125 0.3375,1.35 0.09,0.1125 0.1575,0.1575 0.2925,0.1125 1.5075,0.135 h 0.99 v -0.0675 q -0.1125,-0.36 -0.495,-1.1925 -0.36,-0.6975 -1.2375,-2.07 -1.44,-2.3175 -1.8,-3.5325 -0.225,-0.8325 -0.225,-1.5525 0,-0.675 0.18,-1.2825 0.495,-1.6875 2.0925,-2.9025 1.5975,-1.2375 3.735,-1.4175 0.135,-0.0225 0.3375,-0.0225 h 0.3375 q 3.1725,0 5.1975,1.7325 1.2825,1.125 1.6875,2.61 0.18,0.6075 0.18,1.2825 0,0.72 -0.225,1.5525 -0.36,1.215 -1.8,3.5325 -0.8775,1.3725 -1.2375,2.07 -0.3825,0.8325 -0.495,1.1925 V 218.2 h 0.99 q 1.215,-0.0225 1.5075,-0.135 0.09,-0.045 0.1575,-0.1575 0.1575,-0.3375 0.3375,-1.35 0.09,-0.315 0.09,-0.4275 l 0.0225,-0.1125 h 0.9 v 0.045 l -0.3825,1.935 q -0.3375,1.935 -0.36,1.9575 V 220 h -2.07 q -1.665,0 -1.935,0 -0.2475,-0.0225 -0.2925,-0.135 -0.045,-0.09 -0.045,-0.315 0,-0.6525 0.2025,-1.7775 0.18,-0.9 0.8775,-3.0375 0.72,-2.1825 0.945,-3.42 0.1575,-0.945 0.1575,-1.5525 0,-3.1725 -2.3175,-4.3425 -0.945,-0.45 -1.89,-0.45 -2.295,0 -3.51,1.9125 -0.6975,1.1025 -0.6975,2.8575 0,0.765 0.135,1.575 0.225,1.2375 0.945,3.42 0.6975,2.1375 0.8775,3.0375 0.2025,1.1025 0.2025,1.7775 z"
       style="font-style:normal;font-variant:normal;font-weight:normal;font-stretch:normal;font-size:22.5px;line-height:125%;font-family:KaTeX_Main;-inkscape-font-specification:'KaTeX_Main, Normal';text-align:start;writing-mode:lr-tb;text-anchor:start"
       id="path8989" /></g><g
     aria-label="5Ω"
     style="font-style:normal;font-variant:normal;font-weight:normal;font-stretch:normal;font-size:22.5px;line-height:0%;font-family:KaTeX_Main;-inkscape-font-specification:'KaTeX_Main, Normal';text-align:start;writing-mode:lr-tb;text-anchor:start"
     id="text4467"><path
       d="m 54.549117,214.69 q 0.54,0 0.9,0.3825 0.3825,0.36 0.3825,0.9225 0,0.5175 -0.3825,0.8775 -0.3825,0.36 -0.855,0.36 h -0.1575 l 0.0675,0.1125 q 0.3375,0.72 1.035,1.1925 0.6975,0.4725 1.6425,0.4725 1.5975,0 2.295,-1.35 0.4275,-0.8325 0.4275,-2.88 0,-2.3175 -0.6075,-3.1275 -0.585,-0.7425 -1.44,-0.7425 -1.755,0 -2.655,1.53 -0.09,0.1575 -0.18,0.2025 -0.0675,0.0225 -0.315,0.0225 -0.3825,0 -0.4275,-0.135 -0.045,-0.09 -0.045,-3.9375 0,-0.675 -0.0225,-1.5975 0,-0.9225 0,-1.17 0,-1.26 0.135,-1.26 0.045,-0.045 0.09,-0.045 l 0.405,0.135 q 1.4625,0.585 2.9925,0.585 1.5975,0 3.06,-0.63 0.18,-0.09 0.2925,-0.09 0.18,0 0.18,0.405 v 0.2925 q -1.8225,2.1825 -4.6125,2.1825 -0.6975,0 -1.26,-0.135 l -0.225,-0.045 v 3.87 q 1.2825,-1.035 2.6325,-1.035 0.4275,0 0.9225,0.1125 1.5075,0.3825 2.4525,1.71 0.9675,1.3275 0.9675,3.105 0,2.0475 -1.44,3.5325 -1.4175,1.485 -3.51,1.485 -1.4175,0 -2.4075,-0.7875 -0.4275,-0.27 -0.7425,-0.7425 -0.675,-0.81 -0.855,-2.0025 0,-0.0675 -0.0225,-0.2025 0,-0.1575 0,-0.225 0,-0.63 0.36,-0.99 0.36,-0.36 0.9225,-0.36 z"
       style="font-style:normal;font-variant:normal;font-weight:normal;font-stretch:normal;font-size:22.5px;line-height:125%;font-family:KaTeX_Main;-inkscape-font-specification:'KaTeX_Main, Normal';text-align:start;letter-spacing:2;writing-mode:lr-tb;text-anchor:start"
       id="path8982" /><path
       d="m 70.816615,219.055 q 0,0.2925 -0.1575,0.45 h -4.185 v -0.045 q -0.0225,-0.0225 -0.36,-1.9575 l -0.3825,-1.935 v -0.045 h 0.9 l 0.0225,0.1125 q 0,0.1125 0.09,0.4275 0.1575,1.0125 0.3375,1.35 0.09,0.1125 0.1575,0.1575 0.2925,0.1125 1.5075,0.135 h 0.99 v -0.0675 q -0.1125,-0.36 -0.495,-1.1925 -0.36,-0.6975 -1.2375,-2.07 -1.44,-2.3175 -1.8,-3.5325 -0.225,-0.8325 -0.225,-1.5525 0,-0.675 0.18,-1.2825 0.495,-1.6875 2.0925,-2.9025 1.5975,-1.2375 3.735,-1.4175 0.135,-0.0225 0.3375,-0.0225 h 0.3375 q 3.1725,0 5.1975,1.7325 1.2825,1.125 1.6875,2.61 0.18,0.6075 0.18,1.2825 0,0.72 -0.225,1.5525 -0.36,1.215 -1.8,3.5325 -0.8775,1.3725 -1.2375,2.07 -0.3825,0.8325 -0.495,1.1925 v 0.0675 h 0.99 q 1.215,-0.0225 1.5075,-0.135 0.09,-0.045 0.1575,-0.1575 0.1575,-0.3375 0.3375,-1.35 0.09,-0.315 0.09,-0.4275 l 0.0225,-0.1125 h 0.9 v 0.045 l -0.3825,1.935 q -0.3375,1.935 -0.36,1.9575 v 0.045 h -2.07 q -1.665,0 -1.935,0 -0.2475,-0.0225 -0.2925,-0.135 -0.045,-0.09 -0.045,-0.315 0,-0.6525 0.2025,-1.7775 0.18,-0.9 0.8775,-3.0375 0.72,-2.1825 0.945,-3.42 0.1575,-0.945 0.1575,-1.5525 0,-3.1725 -2.3175,-4.3425 -0.945,-0.45 -1.89,-0.45 -2.295,0 -3.51,1.9125 -0.6975,1.1025 -0.6975,2.8575 0,0.765 0.135,1.575 0.225,1.2375 0.945,3.42 0.6975,2.1375 0.8775,3.0375 0.2025,1.1025 0.2025,1.7775 z"
       style="font-style:normal;font-variant:normal;font-weight:normal;font-stretch:normal;font-size:22.5px;line-height:125%;font-family:KaTeX_Main;-inkscape-font-specification:'KaTeX_Main, Normal';text-align:start;writing-mode:lr-tb;text-anchor:start"
       id="path8984" /></g><g
     aria-label="3Ω"
     style="font-style:normal;font-variant:normal;font-weight:normal;font-stretch:normal;font-size:22.5px;line-height:0%;font-family:KaTeX_Main;-inkscape-font-specification:'KaTeX_Main, Normal';text-align:start;writing-mode:lr-tb;text-anchor:start"
     id="text4473"><path
       d="m 118.35681,110.0392 q -0.6075,0 -0.9675,-0.3825 -0.3375,-0.3825 -0.3375,-0.99 0,-1.2825 1.0125,-2.1375 1.0125,-0.8775 2.34,-1.035 h 0.3375 q 0.7875,0 0.99,0.0225 0.7425,0.1125 1.5075,0.4725 1.485,0.7425 1.8675,2.115 0.0675,0.225 0.0675,0.6075 0,1.3275 -0.8325,2.385 -0.81,1.035 -2.0475,1.485 -0.1125,0.045 0,0.0675 0.045,0.0225 0.225,0.0675 1.3725,0.3825 2.3175,1.44 0.945,1.035 0.945,2.3625 0,0.9225 -0.4275,1.7775 -0.54,1.1475 -1.7775,1.9125 -1.215,0.7425 -2.7225,0.7425 -1.485,0 -2.6325,-0.63 -1.1475,-0.63 -1.5525,-1.6875 -0.225,-0.4725 -0.225,-1.1025 0,-0.63 0.405,-1.0125 0.4275,-0.405 1.0125,-0.405 0.63,0 1.035,0.405 0.405,0.405 0.405,1.0125 0,0.5175 -0.2925,0.9 -0.2925,0.3825 -0.7875,0.495 l -0.1575,0.045 q 1.215,1.0125 2.79,1.0125 1.2375,0 1.8675,-1.1925 0.3825,-0.7425 0.3825,-2.2725 v -0.45 q 0,-2.1375 -1.44,-2.8575 -0.3375,-0.135 -1.3725,-0.1575 l -0.945,-0.0225 -0.0675,-0.045 q -0.045,-0.0675 -0.045,-0.36 0,-0.27 0.0675,-0.3375 0.0675,-0.0675 0.1125,-0.0675 0.63,0 1.305,-0.1125 0.99,-0.135 1.5075,-1.1025 0.5175,-0.99 0.5175,-2.3625 0,-1.4625 -0.7875,-1.9575 -0.4725,-0.315 -1.0575,-0.315 -1.125,0 -1.98,0.6075 -0.09,0.045 -0.2025,0.1575 -0.1125,0.09 -0.18,0.18 l -0.0675,0.09 q 0.0675,0.0225 0.1575,0.045 0.45,0.045 0.7425,0.4275 0.315,0.3825 0.315,0.8775 0,0.54 -0.3825,0.9225 -0.36,0.36 -0.945,0.36 z"
       style="font-style:normal;font-variant:normal;font-weight:normal;font-stretch:normal;font-size:22.5px;line-height:125%;font-family:KaTeX_Main;-inkscape-font-specification:'KaTeX_Main, Normal';text-align:start;letter-spacing:2;writing-mode:lr-tb;text-anchor:start"
       id="path8977" /><path
       d="m 134.1743,120.0067 q 0,0.2925 -0.1575,0.45 h -4.185 v -0.045 q -0.0225,-0.0225 -0.36,-1.9575 l -0.3825,-1.935 v -0.045 h 0.9 l 0.0225,0.1125 q 0,0.1125 0.09,0.4275 0.1575,1.0125 0.3375,1.35 0.09,0.1125 0.1575,0.1575 0.2925,0.1125 1.5075,0.135 h 0.99 v -0.0675 q -0.1125,-0.36 -0.495,-1.1925 -0.36,-0.6975 -1.2375,-2.07 -1.44,-2.3175 -1.8,-3.5325 -0.225,-0.8325 -0.225,-1.5525 0,-0.675 0.18,-1.2825 0.495,-1.6875 2.0925,-2.9025 1.5975,-1.2375 3.735,-1.4175 0.135,-0.0225 0.3375,-0.0225 h 0.3375 q 3.1725,0 5.1975,1.7325 1.2825,1.125 1.6875,2.61 0.18,0.6075 0.18,1.2825 0,0.72 -0.225,1.5525 -0.36,1.215 -1.8,3.5325 -0.8775,1.3725 -1.2375,2.07 -0.3825,0.8325 -0.495,1.1925 v 0.0675 h 0.99 q 1.215,-0.0225 1.5075,-0.135 0.09,-0.045 0.1575,-0.1575 0.1575,-0.3375 0.3375,-1.35 0.09,-0.315 0.09,-0.4275 l 0.0225,-0.1125 h 0.9 v 0.045 l -0.3825,1.935 q -0.3375,1.935 -0.36,1.9575 v 0.045 h -2.07 q -1.665,0 -1.935,0 -0.2475,-0.0225 -0.2925,-0.135 -0.045,-0.09 -0.045,-0.315 0,-0.6525 0.2025,-1.7775 0.18,-0.9 0.8775,-3.0375 0.72,-2.1825 0.945,-3.42 0.1575,-0.945 0.1575,-1.5525 0,-3.1725 -2.3175,-4.3425 -0.945,-0.45 -1.89,-0.45 -2.295,0 -3.51,1.9125 -0.6975,1.1025 -0.6975,2.8575 0,0.765 0.135,1.575 0.225,1.2375 0.945,3.42 0.6975,2.1375 0.8775,3.0375 0.2025,1.1025 0.2025,1.7775 z"
       style="font-style:normal;font-variant:normal;font-weight:normal;font-stretch:normal;font-size:22.5px;line-height:125%;font-family:KaTeX_Main;-inkscape-font-specification:'KaTeX_Main, Normal';text-align:start;writing-mode:lr-tb;text-anchor:start"
       id="path8979" /></g><g
     aria-label="4Ω"
     style="font-style:normal;font-variant:normal;font-weight:normal;font-stretch:normal;font-size:22.5px;line-height:0%;font-family:KaTeX_Main;-inkscape-font-specification:'KaTeX_Main, Normal';text-align:start;writing-mode:lr-tb;text-anchor:start"
     id="text4479"><path
       d="m 188.53662,70 q -0.315,-0.0675 -2.9025,-0.0675 -2.7,0 -3.015,0.0675 h -0.2025 v -1.035 h 0.6975 q 0.9675,-0.0225 1.1925,-0.1125 0.18,-0.045 0.27,-0.225 0.0225,-0.045 0.0225,-1.215 v -1.125 h -5.8275 v -1.035 l 3.3975,-5.1975 q 3.4425,-5.22 3.4875,-5.2425 0.045,-0.045 0.4725,-0.045 h 0.405 l 0.135,0.135 v 10.35 h 2.07 v 1.035 h -2.07 v 1.1475 q 0,0.9225 0,1.08 0.0225,0.1575 0.135,0.27 0.18,0.1575 1.2825,0.18 h 0.6525 V 70 Z m -3.8025,-4.7475 v -7.515 l -4.9275,7.4925 2.4525,0.0225 z"
       style="font-style:normal;font-variant:normal;font-weight:normal;font-stretch:normal;font-size:22.5px;line-height:125%;font-family:KaTeX_Main;-inkscape-font-specification:'KaTeX_Main, Normal';text-align:start;letter-spacing:2;writing-mode:lr-tb;text-anchor:start"
       id="path8972" /><path
       d="m 196.81662,69.55 q 0,0.2925 -0.1575,0.45 h -4.185 v -0.045 q -0.0225,-0.0225 -0.36,-1.9575 l -0.3825,-1.935 v -0.045 h 0.9 l 0.0225,0.1125 q 0,0.1125 0.09,0.4275 0.1575,1.0125 0.3375,1.35 0.09,0.1125 0.1575,0.1575 0.2925,0.1125 1.5075,0.135 h 0.99 v -0.0675 q -0.1125,-0.36 -0.495,-1.1925 -0.36,-0.6975 -1.2375,-2.07 -1.44,-2.3175 -1.8,-3.5325 -0.225,-0.8325 -0.225,-1.5525 0,-0.675 0.18,-1.2825 0.495,-1.6875 2.0925,-2.9025 1.5975,-1.2375 3.735,-1.4175 0.135,-0.0225 0.3375,-0.0225 h 0.3375 q 3.1725,0 5.1975,1.7325 1.2825,1.125 1.6875,2.61 0.18,0.6075 0.18,1.2825 0,0.72 -0.225,1.5525 -0.36,1.215 -1.8,3.5325 -0.8775,1.3725 -1.2375,2.07 -0.3825,0.8325 -0.495,1.1925 V 68.2 h 0.99 q 1.215,-0.0225 1.5075,-0.135 0.09,-0.045 0.1575,-0.1575 0.1575,-0.3375 0.3375,-1.35 0.09,-0.315 0.09,-0.4275 l 0.0225,-0.1125 h 0.9 v 0.045 l -0.3825,1.935 q -0.3375,1.935 -0.36,1.9575 V 70 h -2.07 q -1.665,0 -1.935,0 -0.2475,-0.0225 -0.2925,-0.135 -0.045,-0.09 -0.045,-0.315 0,-0.6525 0.2025,-1.7775 0.18,-0.9 0.8775,-3.0375 0.72,-2.1825 0.945,-3.42 0.1575,-0.945 0.1575,-1.5525 0,-3.1725 -2.3175,-4.3425 -0.945,-0.45 -1.89,-0.45 -2.295,0 -3.51,1.9125 -0.6975,1.1025 -0.6975,2.8575 0,0.765 0.135,1.575 0.225,1.2375 0.945,3.42 0.6975,2.1375 0.8775,3.0375 0.2025,1.1025 0.2025,1.7775 z"
       style="font-style:normal;font-variant:normal;font-weight:normal;font-stretch:normal;font-size:22.5px;line-height:125%;font-family:KaTeX_Main;-inkscape-font-specification:'KaTeX_Main, Normal';text-align:start;writing-mode:lr-tb;text-anchor:start"
       id="path8974" /></g><g
     aria-label="3.125Ω"
     style="font-style:normal;font-variant:normal;font-weight:normal;font-stretch:normal;font-size:22.5px;line-height:0%;font-family:KaTeX_Main;-inkscape-font-specification:'KaTeX_Main, Normal';text-align:start;writing-mode:lr-tb;text-anchor:start"
     id="text4485"><path
       d="m 11.9125,59.087497 q -0.6075,0 -0.9675,-0.3825 -0.3375,-0.3825 -0.3375,-0.99 0,-1.2825 1.0125,-2.1375 1.0125,-0.8775 2.34,-1.035 h 0.3375 q 0.7875,0 0.99,0.0225 0.7425,0.1125 1.5075,0.4725 1.485,0.7425 1.8675,2.115 0.0675,0.225 0.0675,0.6075 0,1.3275 -0.8325,2.385 -0.81,1.035 -2.0475,1.485 -0.1125,0.045 0,0.0675 0.045,0.0225 0.225,0.0675 1.3725,0.3825 2.3175,1.44 0.945,1.035 0.945,2.3625 0,0.9225 -0.4275,1.7775 -0.54,1.1475 -1.7775,1.9125 -1.215,0.7425 -2.7225,0.7425 -1.485,0 -2.6325,-0.63 -1.1475,-0.63 -1.5525,-1.6875 -0.225,-0.4725 -0.225,-1.1025 0,-0.63 0.405,-1.0125 0.4275,-0.405 1.0125,-0.405 0.63,0 1.035,0.405 0.405,0.405 0.405,1.0125 0,0.5175 -0.2925,0.9 -0.2925,0.3825 -0.7875,0.495 l -0.1575,0.045 q 1.215,1.0125 2.79,1.0125 1.2375,0 1.8675,-1.1925 0.3825,-0.7425 0.3825,-2.2725 v -0.45 q 0,-2.1375 -1.44,-2.8575 -0.3375,-0.135 -1.3725,-0.1575 l -0.945,-0.0225 -0.0675,-0.045 q -0.045,-0.0675 -0.045,-0.36 0,-0.27 0.0675,-0.3375 0.0675,-0.0675 0.1125,-0.0675 0.63,0 1.305,-0.1125 0.99,-0.135 1.5075,-1.1025 0.5175,-0.99 0.5175,-2.3625 0,-1.4625 -0.7875,-1.9575 -0.4725,-0.315 -1.0575,-0.315 -1.125,0 -1.98,0.6075 -0.09,0.045 -0.2025,0.1575 -0.1125,0.09 -0.18,0.18 l -0.0675,0.09 q 0.0675,0.0225 0.1575,0.045 0.45,0.045 0.7425,0.4275 0.315,0.3825 0.315,0.8775 0,0.54 -0.3825,0.9225 -0.36,0.36 -0.945,0.36 z"
       style="font-style:normal;font-variant:normal;font-weight:normal;font-stretch:normal;font-size:22.5px;line-height:125%;font-family:KaTeX_Main;-inkscape-font-specification:'KaTeX_Main, Normal';text-align:start;writing-mode:lr-tb;text-anchor:start"
       id="path8959" /><path
       d="m 22.06,68.154997 q 0,-0.585 0.3825,-0.9675 0.3825,-0.3825 0.9675,-0.3825 0.585,0 0.9675,0.405 0.405,0.3825 0.405,0.9225 0,0.585 -0.405,0.99 -0.405,0.3825 -0.945,0.3825 -0.585,0 -0.99,-0.405 -0.3825,-0.405 -0.3825,-0.945 z"
       style="font-style:normal;font-variant:normal;font-weight:normal;font-stretch:normal;font-size:22.5px;line-height:125%;font-family:KaTeX_Main;-inkscape-font-specification:'KaTeX_Main, Normal';text-align:start;writing-mode:lr-tb;text-anchor:start"
       id="path8961" /><path
       d="m 35.905235,69.504997 q -0.3825,-0.0675 -3.5775,-0.0675 -3.15,0 -3.5325,0.0675 h -0.27 v -1.035 h 0.585 q 1.305,0 1.6875,-0.0675 0.18,-0.0225 0.54,-0.27 v -11.6325 q -0.045,0 -0.18,0.0675 -1.035,0.405 -2.3175,0.4275 h -0.4275 v -1.035 h 0.4275 q 1.89,-0.0675 3.15,-0.855 0.405,-0.225 0.6975,-0.5175 0.045,-0.0675 0.27,-0.0675 0.225,0 0.3825,0.135 v 6.7275 l 0.0225,6.75 q 0.3375,0.3375 1.4625,0.3375 h 0.7425 0.585 v 1.035 z"
       style="font-style:normal;font-variant:normal;font-weight:normal;font-stretch:normal;font-size:22.5px;line-height:125%;font-family:KaTeX_Main;-inkscape-font-specification:'KaTeX_Main, Normal';text-align:start;writing-mode:lr-tb;text-anchor:start"
       id="path8963" /><path
       d="m 40.270235,59.852497 q -0.63,0 -0.99,-0.405 -0.36,-0.405 -0.36,-0.99 0,-1.62 1.215,-2.7675 1.2375,-1.17 2.9475,-1.17 1.935,0 3.195,1.0575 1.2825,1.035 1.575,2.7225 0.045,0.405 0.045,0.7425 0,1.305 -0.7875,2.4525 -0.63,0.945 -2.5425,2.5875 -0.81,0.6975 -2.25,2.07 l -1.3275,1.26 1.71,0.0225 q 3.5325,0 3.7575,-0.1125 0.09,-0.0225 0.225,-0.4725 0.09,-0.2475 0.315,-1.53 v -0.0675 h 0.9 v 0.0675 l -0.63,4.1175 v 0.0675 h -8.3475 v -0.4275 q 0,-0.45 0.045,-0.5175 0.0225,-0.0225 1.89,-2.1375 2.4525,-2.7225 3.15,-3.6 1.5075,-2.0475 1.5075,-3.7575 0,-1.485 -0.7875,-2.475 -0.765,-1.0125 -2.16,-1.0125 -1.305,0 -2.115,1.17 -0.045,0.09 -0.135,0.2475 -0.0675,0.1125 -0.0675,0.135 0,0.0225 0.1125,0.0225 0.5625,0 0.9,0.405 0.36,0.405 0.36,0.945 0,0.5625 -0.3825,0.9675 -0.36,0.3825 -0.9675,0.3825 z"
       style="font-style:normal;font-variant:normal;font-weight:normal;font-stretch:normal;font-size:22.5px;line-height:125%;font-family:KaTeX_Main;-inkscape-font-specification:'KaTeX_Main, Normal';text-align:start;writing-mode:lr-tb;text-anchor:start"
       id="path8965" /><path
       d="m 51.452735,64.689997 q 0.54,0 0.9,0.3825 0.3825,0.36 0.3825,0.9225 0,0.5175 -0.3825,0.8775 -0.3825,0.36 -0.855,0.36 h -0.1575 l 0.0675,0.1125 q 0.3375,0.72 1.035,1.1925 0.6975,0.4725 1.6425,0.4725 1.5975,0 2.295,-1.35 0.4275,-0.8325 0.4275,-2.88 0,-2.3175 -0.6075,-3.1275 -0.585,-0.7425 -1.44,-0.7425 -1.755,0 -2.655,1.53 -0.09,0.1575 -0.18,0.2025 -0.0675,0.0225 -0.315,0.0225 -0.3825,0 -0.4275,-0.135 -0.045,-0.09 -0.045,-3.9375 0,-0.675 -0.0225,-1.5975 0,-0.9225 0,-1.17 0,-1.26 0.135,-1.26 0.045,-0.045 0.09,-0.045 l 0.405,0.135 q 1.4625,0.585 2.9925,0.585 1.5975,0 3.06,-0.63 0.18,-0.09 0.2925,-0.09 0.18,0 0.18,0.405 v 0.2925 q -1.8225,2.1825 -4.6125,2.1825 -0.6975,0 -1.26,-0.135 l -0.225,-0.045 v 3.87 q 1.2825,-1.035 2.6325,-1.035 0.4275,0 0.9225,0.1125 1.5075,0.3825 2.4525,1.71 0.9675,1.3275 0.9675,3.105 0,2.0475 -1.44,3.5325 -1.4175,1.485 -3.51,1.485 -1.4175,0 -2.4075,-0.7875 -0.4275,-0.27 -0.7425,-0.7425 -0.675,-0.81 -0.855,-2.0025 0,-0.0675 -0.0225,-0.2025 0,-0.1575 0,-0.225 0,-0.63 0.36,-0.99 0.36,-0.36 0.9225,-0.36 z"
       style="font-style:normal;font-variant:normal;font-weight:normal;font-stretch:normal;font-size:22.5px;line-height:125%;font-family:KaTeX_Main;-inkscape-font-specification:'KaTeX_Main, Normal';text-align:start;writing-mode:lr-tb;text-anchor:start"
       id="path8967" /><path
       d="m 69.370235,69.054997 q 0,0.2925 -0.1575,0.45 h -4.185 v -0.045 q -0.0225,-0.0225 -0.36,-1.9575 l -0.3825,-1.935 v -0.045 h 0.9 l 0.0225,0.1125 q 0,0.1125 0.09,0.4275 0.1575,1.0125 0.3375,1.35 0.09,0.1125 0.1575,0.1575 0.2925,0.1125 1.5075,0.135 h 0.99 v -0.0675 q -0.1125,-0.36 -0.495,-1.1925 -0.36,-0.6975 -1.2375,-2.07 -1.44,-2.3175 -1.8,-3.5325 -0.225,-0.8325 -0.225,-1.5525 0,-0.675 0.18,-1.2825 0.495,-1.6875 2.0925,-2.9025 1.5975,-1.2375 3.735,-1.4175 0.135,-0.0225 0.3375,-0.0225 h 0.3375 q 3.1725,0 5.1975,1.7325 1.2825,1.125 1.6875,2.61 0.18,0.6075 0.18,1.2825 0,0.72 -0.225,1.5525 -0.36,1.215 -1.8,3.5325 -0.8775,1.3725 -1.2375,2.07 -0.3825,0.8325 -0.495,1.1925 v 0.0675 h 0.99 q 1.215,-0.0225 1.5075,-0.135 0.09,-0.045 0.1575,-0.1575 0.1575,-0.3375 0.3375,-1.35 0.09,-0.315 0.09,-0.4275 l 0.0225,-0.1125 h 0.9 v 0.045 l -0.3825,1.935 q -0.3375,1.935 -0.36,1.9575 v 0.045 h -2.07 q -1.665,0 -1.935,0 -0.2475,-0.0225 -0.2925,-0.135 -0.045,-0.09 -0.045,-0.315 0,-0.6525 0.2025,-1.7775 0.18,-0.9 0.8775,-3.0375 0.72,-2.1825 0.945,-3.42 0.1575,-0.945 0.1575,-1.5525 0,-3.1725 -2.3175,-4.3425 -0.945,-0.45 -1.89,-0.45 -2.295,0 -3.51,1.9125 -0.6975,1.1025 -0.6975,2.8575 0,0.765 0.135,1.575 0.225,1.2375 0.945,3.42 0.6975,2.1375 0.8775,3.0375 0.2025,1.1025 0.2025,1.7775 z"
       style="font-style:normal;font-variant:normal;font-weight:normal;font-stretch:normal;font-size:22.5px;line-height:125%;font-family:KaTeX_Main;-inkscape-font-specification:'KaTeX_Main, Normal';text-align:start;writing-mode:lr-tb;text-anchor:start"
       id="path8969" /></g><g
     id="g4493"
     transform="translate(-25.858383,4)"><line
       class="st0"
       x1="132.60001"
       y1="132"
       x2="84"
       y2="132"
       id="line4495"
       style="fill:none;stroke:#000000;stroke-linecap:round;stroke-linejoin:round;stroke-miterlimit:10" /><polyline
       class="st7"
       points="179.4,132 175.5,141 167.7,123 159.9,141 152.1,123 144.3,141 136.5,123 132.6,132  "
       id="polyline4497"
       style="fill:none;stroke:#000000;stroke-width:2;stroke-linecap:round;stroke-linejoin:round;stroke-miterlimit:10" /><line
       class="st0"
       x1="198"
       y1="132"
       x2="179.39999"
       y2="132"
       id="line4499"
       style="fill:none;stroke:#000000;stroke-linecap:round;stroke-linejoin:round;stroke-miterlimit:10" /><line
       class="st9"
       x1="198"
       y1="132"
       x2="228"
       y2="132"
       id="line4501"
       style="fill:none;stroke:#000000;stroke-miterlimit:10" /></g><g
     id="g4503"
     transform="translate(-25.858383,4)"><line
       class="st0"
       x1="206.2"
       y1="95.199997"
       x2="228"
       y2="132"
       id="line4505"
       style="fill:none;stroke:#000000;stroke-linecap:round;stroke-linejoin:round;stroke-miterlimit:10" /><polyline
       class="st7"
       points="181.4,55.5 191.1,54 180,70.2 199.4,67.2 188.3,83.4 207.7,80.5 196.5,96.6 206.2,95.2  "
       id="polyline4507"
       style="fill:none;stroke:#000000;stroke-width:2;stroke-linecap:round;stroke-linejoin:round;stroke-miterlimit:10" /><line
       class="st0"
       x1="156"
       y1="12"
       x2="181.39999"
       y2="55.5"
       id="line4509"
       style="fill:none;stroke:#000000;stroke-linecap:round;stroke-linejoin:round;stroke-miterlimit:10" /></g><g
     id="g4511"
     transform="translate(-25.858383,4)"><line
       class="st0"
       x1="105.8"
       y1="95.199997"
       x2="84"
       y2="132"
       id="line4513"
       style="fill:none;stroke:#000000;stroke-linecap:round;stroke-linejoin:round;stroke-miterlimit:10" /><polyline
       class="st7"
       points="130.6,55.5 120.9,54 132,70.2 112.6,67.2 123.7,83.4 104.3,80.5 115.5,96.6 105.8,95.2  "
       id="polyline4515"
       style="fill:none;stroke:#000000;stroke-width:2;stroke-linecap:round;stroke-linejoin:round;stroke-miterlimit:10" /><line
       class="st0"
       x1="156"
       y1="12"
       x2="130.60001"
       y2="55.5"
       id="line4517"
       style="fill:none;stroke:#000000;stroke-linecap:round;stroke-linejoin:round;stroke-miterlimit:10" /></g><g
     id="g4519"
     transform="translate(-25.858383,4)"
     style="fill:none"><rect
       x="150"
       y="6"
       class="st3"
       width="12"
       height="12"
       id="rect4521"
       style="fill:none" /><circle
       class="st37"
       cx="156"
       cy="12"
       r="3"
       id="circle4523"
       style="fill:none;stroke:#000000;stroke-miterlimit:10" /></g></svg>