<?xml version="1.0" encoding="UTF-8" standalone="no"?>
<!-- Generator: Adobe Illustrator 19.1.0, SVG Export Plug-In . SVG Version: 6.00 Build 0)  -->

<svg
   xmlns:dc="http://purl.org/dc/elements/1.1/"
   xmlns:cc="http://creativecommons.org/ns#"
   xmlns:rdf="http://www.w3.org/1999/02/22-rdf-syntax-ns#"
   xmlns:svg="http://www.w3.org/2000/svg"
   xmlns="http://www.w3.org/2000/svg"
   xmlns:sodipodi="http://sodipodi.sourceforge.net/DTD/sodipodi-0.dtd"
   xmlns:inkscape="http://www.inkscape.org/namespaces/inkscape"
   version="1.1"
   id="Layer_1"
   x="0px"
   y="0px"
   width="416.3475"
   height="193.78821"
   viewBox="0 0 416.34751 193.78821"
   xml:space="preserve"
   inkscape:version="0.92.2 5c3e80d, 2017-08-06"
   sodipodi:docname="delta_wye3.svg"><metadata
     id="metadata4423"><rdf:RDF><cc:Work
         rdf:about=""><dc:format>image/svg+xml</dc:format><dc:type
           rdf:resource="http://purl.org/dc/dcmitype/StillImage" /><dc:title></dc:title></cc:Work></rdf:RDF></metadata><defs
     id="defs4421" /><sodipodi:namedview
     pagecolor="#ffffff"
     bordercolor="#666666"
     borderopacity="1"
     objecttolerance="10"
     gridtolerance="10"
     guidetolerance="10"
     inkscape:pageopacity="0"
     inkscape:pageshadow="2"
     inkscape:window-width="1259"
     inkscape:window-height="739"
     id="namedview4419"
     showgrid="false"
     fit-margin-top="10"
     fit-margin-right="10"
     fit-margin-bottom="10"
     fit-margin-left="10"
     inkscape:zoom="1.2057236"
     inkscape:cx="208.17375"
     inkscape:cy="96.894104"
     inkscape:window-x="0"
     inkscape:window-y="0"
     inkscape:window-maximized="0"
     inkscape:current-layer="Layer_1" /><style
     type="text/css"
     id="style4299">
	.st0{fill:none;stroke:#000000;stroke-linecap:round;stroke-linejoin:round;stroke-miterlimit:10;}
	.st1{fill:none;stroke:#BABEC2;stroke-linecap:round;stroke-linejoin:round;stroke-miterlimit:10;}
	.st2{fill:none;stroke:#BABEC2;stroke-width:2;stroke-linecap:round;stroke-linejoin:round;stroke-miterlimit:10;}
	.st3{fill:none;}
	.st4{fill:none;stroke:#000000;stroke-width:1.5;stroke-linecap:round;stroke-linejoin:round;stroke-miterlimit:10;}
	.st5{fill:none;stroke:#000000;stroke-linecap:round;stroke-miterlimit:10;}
	.st6{fill:none;stroke:#000000;stroke-width:1.5;stroke-linecap:round;stroke-miterlimit:10;}
	.st7{fill:none;stroke:#000000;stroke-width:2;stroke-linecap:round;stroke-linejoin:round;stroke-miterlimit:10;}
	.st8{fill:none;stroke:#000000;stroke-width:1.5;stroke-miterlimit:10;}
	.st9{fill:none;stroke:#000000;stroke-miterlimit:10;}
	.st10{fill:none;stroke:#000000;stroke-width:2;stroke-miterlimit:10;}
	.st11{fill:none;stroke:#000000;stroke-width:2;stroke-linecap:round;stroke-miterlimit:10;}
	.st12{fill:none;stroke:#000000;stroke-linecap:round;stroke-linejoin:round;}
	.st13{stroke:#000000;stroke-linecap:round;stroke-linejoin:round;stroke-miterlimit:10;}
	.st14{fill:none;stroke:#000000;stroke-width:1.5;stroke-linejoin:round;stroke-miterlimit:10;}
	.st15{fill:none;stroke:#000000;stroke-linejoin:round;stroke-miterlimit:10;}
	.st16{clip-path:url(#SVGID_2_);fill:none;stroke:#000000;stroke-linejoin:round;stroke-miterlimit:10;}
	.st17{clip-path:url(#SVGID_2_);fill:none;stroke:#ADADEB;stroke-linejoin:round;stroke-miterlimit:10;}
	.st18{clip-path:url(#SVGID_2_);}
	.st19{stroke:#000000;stroke-linejoin:round;stroke-miterlimit:10;}
	.st20{stroke:#000000;stroke-width:3;stroke-linejoin:round;stroke-miterlimit:10;}
	.st21{fill:none;stroke:#000000;stroke-linejoin:round;}
	.st22{opacity:0.5;fill:#CCFAFF;}
	.st23{fill:none;stroke:#0C7F99;stroke-miterlimit:10;}
	.st24{fill:#0C7F99;}
	.st25{fill:none;stroke:#11ACCD;stroke-width:3;stroke-linecap:round;stroke-miterlimit:10;}
	.st26{fill:#11ACCD;}
	.st27{fill:none;stroke:#01D1C1;stroke-width:2;stroke-miterlimit:10;}
	.st28{fill:none;stroke:#01D1C1;stroke-linecap:round;stroke-miterlimit:10;}
	.st29{fill:none;stroke:#01D1C1;stroke-linecap:round;stroke-linejoin:round;stroke-miterlimit:10;}
	.st30{fill:none;stroke:#01D1C1;stroke-width:1.5;stroke-miterlimit:10;}
	.st31{fill:none;stroke:#01D1C1;stroke-width:2;stroke-linecap:round;stroke-linejoin:round;stroke-miterlimit:10;}
	.st32{fill:#01D1C1;stroke:#01D1C1;stroke-linecap:round;stroke-linejoin:round;stroke-miterlimit:10;}
	.st33{fill:none;stroke:#01D1C1;stroke-miterlimit:10;}
	.st34{fill:#01D1C1;}
	.st35{fill:none;stroke:#FCA9A9;stroke-width:3;stroke-linecap:round;stroke-miterlimit:10;}
	.st36{fill:#FCA9A9;}
	.st37{fill:#FFFFFF;stroke:#000000;stroke-miterlimit:10;}
	.st38{font-family:'KaTeX_Main-Italic';}
	.st39{font-size:18px;}
	.st40{fill:#11ACCD;stroke:#000000;stroke-miterlimit:10;}
	.st41{fill:#BABEC2;stroke:#BABEC2;stroke-miterlimit:10;}
	.st42{stroke:#000000;stroke-miterlimit:10;}
</style><g
     id="g4301"
     transform="translate(15.561528,1.3674976)"><line
       class="st0"
       x1="300"
       y1="149.39999"
       x2="300"
       y2="162"
       id="line4303"
       style="fill:none;stroke:#000000;stroke-linecap:round;stroke-linejoin:round;stroke-miterlimit:10" /><polyline
       class="st7"
       points="300,102.6 309,106.5 291,114.3 309,122.1 291,129.9 309,137.7 291,145.5 300,149.4  "
       id="polyline4305"
       style="fill:none;stroke:#000000;stroke-width:2;stroke-linecap:round;stroke-linejoin:round;stroke-miterlimit:10" /><line
       class="st0"
       x1="300"
       y1="84"
       x2="300"
       y2="102.6"
       id="line4307"
       style="fill:none;stroke:#000000;stroke-linecap:round;stroke-linejoin:round;stroke-miterlimit:10" /><rect
       x="288"
       y="84"
       class="st3"
       width="24"
       height="78"
       id="rect4309"
       style="fill:none" /></g><g
     id="g4311"
     transform="translate(15.561528,1.3674976)"><line
       class="st0"
       x1="283.89999"
       y1="74.699997"
       x2="300"
       y2="84"
       id="line4313"
       style="fill:none;stroke:#000000;stroke-linecap:round;stroke-linejoin:round;stroke-miterlimit:10" /><polyline
       class="st7"
       points="243.4,51.3 251.2,45.5 249,64.9 264.7,53.3 262.5,72.7 278.3,61.1 276,80.5 283.9,74.7  "
       id="polyline4315"
       style="fill:none;stroke:#000000;stroke-width:2;stroke-linecap:round;stroke-linejoin:round;stroke-miterlimit:10" /><line
       class="st0"
       x1="227.3"
       y1="42"
       x2="243.39999"
       y2="51.299999"
       id="line4317"
       style="fill:none;stroke:#000000;stroke-linecap:round;stroke-linejoin:round;stroke-miterlimit:10" /></g><g
     id="g4319"
     transform="translate(15.561528,1.3674976)"><line
       class="st0"
       x1="315.39999"
       y1="74.699997"
       x2="299.29999"
       y2="84"
       id="line4321"
       style="fill:none;stroke:#000000;stroke-linecap:round;stroke-linejoin:round;stroke-miterlimit:10" /><polyline
       class="st7"
       points="355.9,51.3 348,45.5 350.3,64.9 334.5,53.3 336.7,72.7 321,61.1 323.2,80.5 315.4,74.7  "
       id="polyline4323"
       style="fill:none;stroke:#000000;stroke-width:2;stroke-linecap:round;stroke-linejoin:round;stroke-miterlimit:10" /><line
       class="st0"
       x1="372"
       y1="42"
       x2="355.89999"
       y2="51.299999"
       id="line4325"
       style="fill:none;stroke:#000000;stroke-linecap:round;stroke-linejoin:round;stroke-miterlimit:10" /></g><g
     id="g4327"
     transform="translate(15.561528,1.3674976)"><circle
       cx="300"
       cy="84"
       r="3"
       id="circle4329" /><rect
       x="294"
       y="78"
       class="st3"
       width="12"
       height="12"
       id="rect4331"
       style="fill:none" /></g><g
     id="g4333"
     transform="translate(15.561528,1.3674976)"
     style="fill:none"><rect
       x="294"
       y="156"
       class="st3"
       width="12"
       height="12"
       id="rect4335"
       style="fill:none" /><circle
       class="st37"
       cx="300"
       cy="162"
       r="3"
       id="circle4337"
       style="fill:none;stroke:#000000;stroke-miterlimit:10" /></g><g
     id="g4339"
     transform="translate(15.561528,1.3674976)"
     style="fill:none"><rect
       x="222"
       y="36"
       class="st3"
       width="12"
       height="12"
       id="rect4341"
       style="fill:none" /><circle
       class="st37"
       cx="228"
       cy="42"
       r="3"
       id="circle4343"
       style="fill:none;stroke:#000000;stroke-miterlimit:10" /></g><g
     id="g4345"
     transform="translate(15.561528,1.3674976)"
     style="fill:none"><rect
       x="366"
       y="36"
       class="st3"
       width="12"
       height="12"
       id="rect4347"
       style="fill:none" /><circle
       class="st37"
       cx="372"
       cy="42"
       r="3"
       id="circle4349"
       style="fill:none;stroke:#000000;stroke-miterlimit:10" /></g><g
     id="g4351"
     transform="translate(1.3882996,1.3674976)"><line
       class="st0"
       x1="119.4"
       y1="42"
       x2="168"
       y2="42"
       id="line4353"
       style="fill:none;stroke:#000000;stroke-linecap:round;stroke-linejoin:round;stroke-miterlimit:10" /><polyline
       class="st7"
       points="72.6,42 76.5,33 84.3,51 92.1,33 99.9,51 107.7,33 115.5,51 119.4,42  "
       id="polyline4355"
       style="fill:none;stroke:#000000;stroke-width:2;stroke-linecap:round;stroke-linejoin:round;stroke-miterlimit:10" /><line
       class="st0"
       x1="54"
       y1="42"
       x2="72.599998"
       y2="42"
       id="line4357"
       style="fill:none;stroke:#000000;stroke-linecap:round;stroke-linejoin:round;stroke-miterlimit:10" /><line
       class="st9"
       x1="54"
       y1="42"
       x2="24"
       y2="42"
       id="line4359"
       style="fill:none;stroke:#000000;stroke-miterlimit:10" /></g><g
     id="g4361"
     transform="translate(1.3882996,1.3674976)"><line
       class="st0"
       x1="45.799999"
       y1="78.800003"
       x2="24"
       y2="42"
       id="line4363"
       style="fill:none;stroke:#000000;stroke-linecap:round;stroke-linejoin:round;stroke-miterlimit:10" /><polyline
       class="st7"
       points="70.6,118.5 60.9,120 72,103.8 52.6,106.8 63.7,90.6 44.3,93.5 55.5,77.4 45.8,78.8  "
       id="polyline4365"
       style="fill:none;stroke:#000000;stroke-width:2;stroke-linecap:round;stroke-linejoin:round;stroke-miterlimit:10" /><line
       class="st0"
       x1="96"
       y1="162"
       x2="70.599998"
       y2="118.5"
       id="line4367"
       style="fill:none;stroke:#000000;stroke-linecap:round;stroke-linejoin:round;stroke-miterlimit:10" /></g><g
     id="g4369"
     transform="translate(1.3882996,1.3674976)"><line
       class="st0"
       x1="146.2"
       y1="78.800003"
       x2="168"
       y2="42"
       id="line4371"
       style="fill:none;stroke:#000000;stroke-linecap:round;stroke-linejoin:round;stroke-miterlimit:10" /><polyline
       class="st7"
       points="121.4,118.5 131.1,120 120,103.8 139.4,106.8 128.3,90.6 147.7,93.5 136.5,77.4 146.2,78.8  "
       id="polyline4373"
       style="fill:none;stroke:#000000;stroke-width:2;stroke-linecap:round;stroke-linejoin:round;stroke-miterlimit:10" /><line
       class="st0"
       x1="96"
       y1="162"
       x2="121.4"
       y2="118.5"
       id="line4375"
       style="fill:none;stroke:#000000;stroke-linecap:round;stroke-linejoin:round;stroke-miterlimit:10" /></g><g
     id="g4377"
     transform="translate(1.3882996,1.3674976)"
     style="fill:none"><rect
       x="90"
       y="156"
       class="st3"
       width="12"
       height="12"
       id="rect4379"
       style="fill:none" /><circle
       class="st37"
       cx="96"
       cy="162"
       r="3"
       id="circle4381"
       style="fill:none;stroke:#000000;stroke-miterlimit:10" /></g><g
     id="g4383"
     transform="translate(1.3882996,1.3674976)"
     style="fill:none"><rect
       x="162"
       y="36"
       class="st3"
       width="12"
       height="12"
       id="rect4385"
       style="fill:none" /><circle
       class="st37"
       cx="168"
       cy="42"
       r="3"
       id="circle4387"
       style="fill:none;stroke:#000000;stroke-miterlimit:10" /></g><g
     id="g4389"
     transform="translate(1.3882996,1.3674976)"
     style="fill:none"><rect
       x="18"
       y="36"
       class="st3"
       width="12"
       height="12"
       id="rect4391"
       style="fill:none" /><circle
       class="st37"
       cx="24"
       cy="42"
       r="3"
       id="circle4393"
       style="fill:none;stroke:#000000;stroke-miterlimit:10" /></g><g
     aria-label="x"
     style="font-style:normal;font-variant:normal;font-weight:normal;font-stretch:normal;font-size:22.5px;line-height:0%;font-family:KaTeX_Math;-inkscape-font-specification:'KaTeX_Math, Normal';text-align:start;writing-mode:lr-tb;text-anchor:start;fill:#11accd"
     id="text4395"><path
       d="m 10.5175,31.1125 q -0.135,-0.135 -0.135,-0.2475 0.09,-0.6075 0.6975,-1.5525 1.0575,-1.5975 2.655,-1.845 0.315,-0.045 0.4725,-0.045 0.7875,0 1.44,0.405 0.675,0.405 0.9675,1.0125 0.2925,-0.3825 0.36,-0.4725 0.8325,-0.945 1.9125,-0.945 0.9225,0 1.485,0.54 0.585,0.5175 0.585,1.2825 0,0.6975 -0.405,1.17 -0.3825,0.4725 -1.035,0.4725 -0.4275,0 -0.6975,-0.2475 -0.27,-0.2475 -0.27,-0.6525 0,-1.035 1.125,-1.4175 0,-0.0225 -0.2475,-0.1575 -0.225,-0.135 -0.6525,-0.135 -0.2925,0 -0.4275,0.045 -0.855,0.36 -1.26,1.485 -0.0675,0.18 -0.6525,2.52 -0.585,2.3175 -0.63,2.61 -0.0675,0.3375 -0.0675,0.675 0,0.54 0.315,0.855 0.315,0.315 0.8325,0.315 0.945,0 1.71,-0.7875 0.765,-0.81 1.035,-1.7775 0.0675,-0.225 0.135,-0.2475 0.0675,-0.045 0.36,-0.045 0.4275,0 0.4275,0.18 0,0.0225 -0.045,0.2475 -0.3825,1.395 -1.575,2.43 -1.0575,0.8325 -2.2275,0.8325 -1.575,0 -2.385,-1.4175 -0.6525,1.0125 -1.665,1.35 -0.2025,0.045 -0.585,0.045 -1.305,0 -1.845,-0.9225 -0.2250004,-0.3825 -0.2250004,-0.9 0,-0.675 0.4050004,-1.1475 0.405,-0.4725 1.035,-0.4725 0.9675,0 0.9675,0.945 0,0.8325 -0.7875,1.215 -0.045,0.0225 -0.1125,0.0675 Q 11.44,36.4 11.395,36.4225 11.35,36.445 11.3275,36.445 L 11.26,36.4675 q 0,0.0675 0.3375,0.2025 0.27,0.1125 0.585,0.1125 0.81,0 1.395,-1.0125 0.2475,-0.405 0.8775,-2.925 0.135,-0.5175 0.2925,-1.1475 0.1575,-0.63 0.225,-0.9675 0.09,-0.3375 0.1125,-0.405 0.1125,-0.6075 0.1125,-0.8775 0,-0.54 -0.2925,-0.855 -0.2925,-0.315 -0.81,-0.315 -1.0125,0 -1.755,0.7875 -0.7425,0.765 -1.035,1.7775 -0.045,0.2025 -0.1125,0.2475 -0.045,0.0225 -0.36,0.0225 z"
       style="font-style:normal;font-variant:normal;font-weight:normal;font-stretch:normal;font-size:22.5px;line-height:0%;font-family:KaTeX_Math;-inkscape-font-specification:'KaTeX_Math, Normal';text-align:start;writing-mode:lr-tb;text-anchor:start;fill:#11accd"
       id="path7942" /></g><g
     aria-label="y"
     style="font-style:normal;font-variant:normal;font-weight:normal;font-stretch:normal;font-size:22.5px;line-height:0%;font-family:KaTeX_Math;-inkscape-font-specification:'KaTeX_Math, Normal';text-align:start;writing-mode:lr-tb;text-anchor:start;fill:#11accd"
     id="text4397"><path
       d="m 187.40928,27.67 q 0.315,0 0.54,0.18 0.225,0.1575 0.225,0.45 0,0.2925 -1.1025,4.725 -1.1025,4.4325 -1.26,4.86 -0.36,1.1025 -1.17,2.025 -0.7875,0.945 -1.845,1.485 -1.215,0.585 -2.2725,0.585 -1.71,0 -2.3175,-1.08 -0.225,-0.315 -0.225,-0.9 0,-0.765 0.4275,-1.1925 0.4725,-0.4275 0.99,-0.4275 0.99,0 0.99,0.945 0,0.8325 -0.7875,1.215 -0.045,0.0225 -0.1125,0.045 -0.0675,0.045 -0.1125,0.0675 -0.045,0.0225 -0.0675,0.0225 l -0.0675,0.0225 q 0.0675,0.135 0.4725,0.2925 0.36,0.135 0.72,0.135 h 0.18 q 0.3825,0 0.585,-0.045 0.855,-0.2475 1.62,-1.1475 0.765,-0.9 1.17,-2.16 0.2475,-0.7425 0.2475,-0.8775 0,-0.0225 -0.045,0.0225 -0.045,0.0225 -0.135,0.09 -0.8325,0.6075 -1.845,0.6075 -1.1475,0 -1.89,-0.54 -0.7425,-0.54 -0.9675,-1.5525 -0.0225,-0.1575 -0.0225,-0.6975 0,-0.54 0.045,-0.8325 0.1575,-0.9675 1.035,-3.3075 0.495,-1.3275 0.495,-1.845 0,-0.315 -0.0675,-0.4275 -0.045,-0.135 -0.2475,-0.135 h -0.1125 q -0.5175,0 -0.99,0.4725 -0.72,0.72 -1.1025,2.16 0,0.0225 -0.0225,0.09 -0.0225,0.045 -0.045,0.0675 0,0 -0.0225,0.0225 -0.0225,0.0225 -0.09,0.0225 -0.045,0 -0.09,0 -0.045,0 -0.18,0 h -0.315 q -0.135,-0.135 -0.135,-0.2025 0,-0.0675 0.0675,-0.315 0.4725,-1.575 1.4175,-2.4525 0.765,-0.72 1.5975,-0.72 0.945,0 1.5075,0.5175 0.5625,0.5175 0.5625,1.44 -0.045,0.4275 -0.0675,0.4725 0,0.135 -0.3375,0.9675 -0.9225,2.4975 -1.1025,3.6675 -0.0225,0.18 -0.0225,0.5175 0,0.855 0.27,1.305 0.27,0.45 0.99,0.45 0.5175,0 0.9675,-0.27 0.4725,-0.27 0.6975,-0.5175 0.2475,-0.27 0.6075,-0.72 0,-0.0225 0.1125,-0.45 0.1125,-0.45 0.315,-1.3275 0.225,-0.8775 0.4275,-1.665 0.855,-3.375 0.945,-3.5325 0.2925,-0.6075 0.9675,-0.6075 z"
       style="font-style:normal;font-variant:normal;font-weight:normal;font-stretch:normal;font-size:22.5px;line-height:0%;font-family:KaTeX_Math;-inkscape-font-specification:'KaTeX_Math, Normal';text-align:start;writing-mode:lr-tb;text-anchor:start;fill:#11accd"
       id="path7939" /></g><g
     aria-label="z"
     style="font-style:normal;font-variant:normal;font-weight:normal;font-stretch:normal;font-size:22.5px;line-height:0%;font-family:KaTeX_Math;-inkscape-font-specification:'KaTeX_Math, Normal';text-align:start;writing-mode:lr-tb;text-anchor:start;fill:#11accd"
     id="text4399"><path
       d="m 92.456382,183.78821 q -0.135,-0.135 -0.135,-0.2025 0,-0.09 0.135,-0.2925 0.36,-0.675 1.17,-1.6425 0.945,-1.08 3.2175,-3.15 1.7325,-1.575 2.34,-2.205 0.27,-0.36 0.1575,-0.36 -0.27,0 -1.1925,-0.2475 -0.99,-0.2475 -1.4175,-0.2475 -0.6525,0 -1.1025,0.225 -0.45,0.2025 -0.5625,0.54 -0.315,0.18 -0.4275,0.2025 -0.4725,0 -0.4725,-0.18 0,-0.1125 0.0675,-0.315 0.2925,-0.8775 0.9675,-1.5075 0.675,-0.63 1.485,-0.765 0.27,-0.045 0.3825,-0.045 0.3375,0 0.63,0.135 0.2925,0.135 0.4275,0.27 0.1575,0.1125 0.4725,0.4275 0.6975,0.675 1.1925,0.675 0.2025,0 0.314998,-0.045 0.3825,-0.18 0.99,-1.1925 0.1575,-0.2475 0.225,-0.2475 0.0675,-0.0225 0.315,-0.0225 h 0.2925 q 0.135,0.135 0.135,0.18 0,0.09 -0.2025,0.45 -0.45,0.72 -1.08,1.4625 -1.012498,1.1925 -3.194998,3.15 -1.8,1.5975 -2.4525,2.3175 l -0.27,0.27 0.3375,0.0225 q 0.495,0 1.2825,0.2025 1.1475,0.2925 1.575,0.2925 0.9,0 1.5975,-0.4275 0.719998,-0.45 0.922498,-1.125 0.09,-0.2025 0.1575,-0.2475 0.0675,-0.045 0.3375,-0.045 0.45,0 0.45,0.225 0,0.0225 -0.045,0.2025 -0.3375,1.17 -1.2375,2.0925 -0.877498,0.9 -2.069998,1.1475 -0.135,0.0225 -0.3825,0.0225 -0.3825,0 -0.6975,-0.1575 -0.315,-0.1575 -0.8775,-0.675 -0.4725,-0.4725 -0.6975,-0.585 -0.18,-0.1125 -0.495,-0.1125 -0.99,0 -1.7775,1.35 -0.1125,0.18 -0.495,0.18 z"
       style="font-style:normal;font-variant:normal;font-weight:normal;font-stretch:normal;font-size:22.5px;line-height:0%;font-family:KaTeX_Math;-inkscape-font-specification:'KaTeX_Math, Normal';text-align:start;writing-mode:lr-tb;text-anchor:start;fill:#11accd"
       id="path7936" /></g><g
     aria-label="x"
     style="font-style:normal;font-variant:normal;font-weight:normal;font-stretch:normal;font-size:22.5px;line-height:0%;font-family:KaTeX_Math;-inkscape-font-specification:'KaTeX_Math, Normal';text-align:start;writing-mode:lr-tb;text-anchor:start;fill:#11accd"
     id="text4401"><path
       d="m 228.69071,31.1125 q -0.135,-0.135 -0.135,-0.2475 0.09,-0.6075 0.6975,-1.5525 1.0575,-1.5975 2.655,-1.845 0.315,-0.045 0.4725,-0.045 0.7875,0 1.44,0.405 0.675,0.405 0.9675,1.0125 0.2925,-0.3825 0.36,-0.4725 0.8325,-0.945 1.9125,-0.945 0.9225,0 1.485,0.54 0.585,0.5175 0.585,1.2825 0,0.6975 -0.405,1.17 -0.3825,0.4725 -1.035,0.4725 -0.4275,0 -0.6975,-0.2475 -0.27,-0.2475 -0.27,-0.6525 0,-1.035 1.125,-1.4175 0,-0.0225 -0.2475,-0.1575 -0.225,-0.135 -0.6525,-0.135 -0.2925,0 -0.4275,0.045 -0.855,0.36 -1.26,1.485 -0.0675,0.18 -0.6525,2.52 -0.585,2.3175 -0.63,2.61 -0.0675,0.3375 -0.0675,0.675 0,0.54 0.315,0.855 0.315,0.315 0.8325,0.315 0.945,0 1.71,-0.7875 0.765,-0.81 1.035,-1.7775 0.0675,-0.225 0.135,-0.2475 0.0675,-0.045 0.36,-0.045 0.4275,0 0.4275,0.18 0,0.0225 -0.045,0.2475 -0.3825,1.395 -1.575,2.43 -1.0575,0.8325 -2.2275,0.8325 -1.575,0 -2.385,-1.4175 -0.6525,1.0125 -1.665,1.35 -0.2025,0.045 -0.585,0.045 -1.305,0 -1.845,-0.9225 -0.225,-0.3825 -0.225,-0.9 0,-0.675 0.405,-1.1475 0.405,-0.4725 1.035,-0.4725 0.9675,0 0.9675,0.945 0,0.8325 -0.7875,1.215 -0.045,0.0225 -0.1125,0.0675 -0.0675,0.0225 -0.1125,0.045 -0.045,0.0225 -0.0675,0.0225 l -0.0675,0.0225 q 0,0.0675 0.3375,0.2025 0.27,0.1125 0.585,0.1125 0.81,0 1.395,-1.0125 0.2475,-0.405 0.8775,-2.925 0.135,-0.5175 0.2925,-1.1475 0.1575,-0.63 0.225,-0.9675 0.09,-0.3375 0.1125,-0.405 0.1125,-0.6075 0.1125,-0.8775 0,-0.54 -0.2925,-0.855 -0.2925,-0.315 -0.81,-0.315 -1.0125,0 -1.755,0.7875 -0.7425,0.765 -1.035,1.7775 -0.045,0.2025 -0.1125,0.2475 -0.045,0.0225 -0.36,0.0225 z"
       style="font-style:normal;font-variant:normal;font-weight:normal;font-stretch:normal;font-size:22.5px;line-height:0%;font-family:KaTeX_Math;-inkscape-font-specification:'KaTeX_Math, Normal';text-align:start;writing-mode:lr-tb;text-anchor:start;fill:#11accd"
       id="path7933" /></g><g
     aria-label="y"
     style="font-style:normal;font-variant:normal;font-weight:normal;font-stretch:normal;font-size:22.5px;line-height:0%;font-family:KaTeX_Math;-inkscape-font-specification:'KaTeX_Math, Normal';text-align:start;writing-mode:lr-tb;text-anchor:start;fill:#11accd"
     id="text4403"><path
       d="m 405.5825,27.67 q 0.315,0 0.54,0.18 0.225,0.1575 0.225,0.45 0,0.2925 -1.1025,4.725 -1.1025,4.4325 -1.26,4.86 -0.36,1.1025 -1.17,2.025 -0.7875,0.945 -1.845,1.485 -1.215,0.585 -2.2725,0.585 -1.71,0 -2.3175,-1.08 -0.225,-0.315 -0.225,-0.9 0,-0.765 0.4275,-1.1925 0.4725,-0.4275 0.99,-0.4275 0.99,0 0.99,0.945 0,0.8325 -0.7875,1.215 -0.045,0.0225 -0.1125,0.045 -0.0675,0.045 -0.1125,0.0675 -0.045,0.0225 -0.0675,0.0225 l -0.0675,0.0225 q 0.0675,0.135 0.4725,0.2925 0.36,0.135 0.72,0.135 h 0.18 q 0.3825,0 0.585,-0.045 0.855,-0.2475 1.62,-1.1475 0.765,-0.9 1.17,-2.16 0.2475,-0.7425 0.2475,-0.8775 0,-0.0225 -0.045,0.0225 -0.045,0.0225 -0.135,0.09 -0.8325,0.6075 -1.845,0.6075 -1.1475,0 -1.89,-0.54 -0.7425,-0.54 -0.9675,-1.5525 -0.0225,-0.1575 -0.0225,-0.6975 0,-0.54 0.045,-0.8325 0.1575,-0.9675 1.035,-3.3075 0.495,-1.3275 0.495,-1.845 0,-0.315 -0.0675,-0.4275 -0.045,-0.135 -0.2475,-0.135 h -0.1125 q -0.5175,0 -0.99,0.4725 -0.72,0.72 -1.1025,2.16 0,0.0225 -0.0225,0.09 -0.0225,0.045 -0.045,0.0675 0,0 -0.0225,0.0225 -0.0225,0.0225 -0.09,0.0225 -0.045,0 -0.09,0 -0.045,0 -0.18,0 h -0.315 q -0.135,-0.135 -0.135,-0.2025 0,-0.0675 0.0675,-0.315 0.4725,-1.575 1.4175,-2.4525 0.765,-0.72 1.5975,-0.72 0.945,0 1.5075,0.5175 0.5625,0.5175 0.5625,1.44 -0.045,0.4275 -0.0675,0.4725 0,0.135 -0.3375,0.9675 -0.9225,2.4975 -1.1025,3.6675 -0.0225,0.18 -0.0225,0.5175 0,0.855 0.27,1.305 0.27,0.45 0.99,0.45 0.5175,0 0.9675,-0.27 0.4725,-0.27 0.6975,-0.5175 0.2475,-0.27 0.6075,-0.72 0,-0.0225 0.1125,-0.45 0.1125,-0.45 0.315,-1.3275 0.225,-0.8775 0.4275,-1.665 0.855,-3.375 0.945,-3.5325 0.2925,-0.6075 0.9675,-0.6075 z"
       style="font-style:normal;font-variant:normal;font-weight:normal;font-stretch:normal;font-size:22.5px;line-height:0%;font-family:KaTeX_Math;-inkscape-font-specification:'KaTeX_Math, Normal';text-align:start;writing-mode:lr-tb;text-anchor:start;fill:#11accd"
       id="path7930" /></g><g
     aria-label="z"
     style="font-style:normal;font-variant:normal;font-weight:normal;font-stretch:normal;font-size:22.5px;line-height:0%;font-family:KaTeX_Math;-inkscape-font-specification:'KaTeX_Math, Normal';text-align:start;writing-mode:lr-tb;text-anchor:start;fill:#11accd"
     id="text4405"><path
       d="m 310.62959,183.78821 q -0.135,-0.135 -0.135,-0.2025 0,-0.09 0.135,-0.2925 0.36,-0.675 1.17,-1.6425 0.945,-1.08 3.2175,-3.15 1.7325,-1.575 2.34,-2.205 0.27,-0.36 0.1575,-0.36 -0.27,0 -1.1925,-0.2475 -0.99,-0.2475 -1.4175,-0.2475 -0.6525,0 -1.1025,0.225 -0.45,0.2025 -0.5625,0.54 -0.315,0.18 -0.4275,0.2025 -0.4725,0 -0.4725,-0.18 0,-0.1125 0.0675,-0.315 0.2925,-0.8775 0.9675,-1.5075 0.675,-0.63 1.485,-0.765 0.27,-0.045 0.3825,-0.045 0.3375,0 0.63,0.135 0.2925,0.135 0.4275,0.27 0.1575,0.1125 0.4725,0.4275 0.6975,0.675 1.1925,0.675 0.2025,0 0.315,-0.045 0.3825,-0.18 0.99,-1.1925 0.1575,-0.2475 0.225,-0.2475 0.0675,-0.0225 0.315,-0.0225 h 0.2925 q 0.135,0.135 0.135,0.18 0,0.09 -0.2025,0.45 -0.45,0.72 -1.08,1.4625 -1.0125,1.1925 -3.195,3.15 -1.8,1.5975 -2.4525,2.3175 l -0.27,0.27 0.3375,0.0225 q 0.495,0 1.2825,0.2025 1.1475,0.2925 1.575,0.2925 0.9,0 1.5975,-0.4275 0.72,-0.45 0.9225,-1.125 0.09,-0.2025 0.1575,-0.2475 0.0675,-0.045 0.3375,-0.045 0.45,0 0.45,0.225 0,0.0225 -0.045,0.2025 -0.3375,1.17 -1.2375,2.0925 -0.8775,0.9 -2.07,1.1475 -0.135,0.0225 -0.3825,0.0225 -0.3825,0 -0.6975,-0.1575 -0.315,-0.1575 -0.8775,-0.675 -0.4725,-0.4725 -0.6975,-0.585 -0.18,-0.1125 -0.495,-0.1125 -0.99,0 -1.7775,1.35 -0.1125,0.18 -0.495,0.18 z"
       style="font-style:normal;font-variant:normal;font-weight:normal;font-stretch:normal;font-size:22.5px;line-height:0%;font-family:KaTeX_Math;-inkscape-font-specification:'KaTeX_Math, Normal';text-align:start;writing-mode:lr-tb;text-anchor:start;fill:#11accd"
       id="path7927" /></g><g
     aria-label="Ra"
     style="font-style:normal;font-variant:normal;font-weight:normal;font-stretch:normal;font-size:22.5px;line-height:0%;font-family:KaTeX_Math;-inkscape-font-specification:'KaTeX_Math, Normal';text-align:start;writing-mode:lr-tb;text-anchor:start;fill:#11accd"
     id="text4407"><path
       d="m 156.2294,101.23749 q 0,-0.0225 -0.0225,-0.045 -0.0225,-0.045 -0.0675,-0.045 -0.045,-0.0225 -0.09,-0.045 -0.045,-0.0225 -0.135,-0.0225 -0.09,-0.0225 -0.1575,-0.0225 -0.0675,0 -0.18,0 -0.1125,0 -0.2025,0 -0.0675,-0.0225 -0.2025,-0.0225 -0.135,0 -0.225,0 -0.54,0 -0.6525,-0.0225 -0.1125,-0.0225 -0.1575,-0.135 -0.045,-0.0675 0.0225,-0.405 0.1125,-0.405 0.2025,-0.45 0.045,-0.0225 3.915,-0.0225 3.87,0.0225 4.185,0.0675 2.0475,0.2925 3.105,1.395 0.8325,0.9 0.8325,2.0025 0,0.225 -0.09,0.675 -0.5175,2.0025 -3.3075,3.24 -0.99,0.3825 -1.125,0.3825 l 0.1575,0.1125 q 1.5075,0.855 1.5075,2.475 0,0.27 -0.1125,1.44 -0.1125,1.08 -0.1125,1.7775 0,0.7875 0.1575,1.125 0.1575,0.315 0.6975,0.315 0.315,0 0.405,-0.045 0.855,-0.3375 1.215,-1.5075 0.1125,-0.315 0.18,-0.3825 0.0675,-0.0675 0.3375,-0.0675 0.45,0 0.45,0.27 0,0.405 -0.54,1.2825 -0.675,0.99 -1.575,1.2375 -0.18,0.045 -0.6525,0.045 -2.34,0 -3.0375,-1.4175 -0.2025,-0.36 -0.225,-0.9 0,-0.2475 0,-0.3825 0.0225,-0.1575 0.045,-0.3375 0.0225,-0.18 0.045,-0.27 0.0225,-0.09 0.1125,-0.3825 0.09,-0.2925 0.135,-0.5175 0.3375,-1.2825 0.3375,-1.6425 0,-1.125 -0.9675,-1.665 -0.3375,-0.1575 -0.5625,-0.18 -0.225,-0.0225 -1.5975,-0.045 h -1.5525 l -0.72,2.925 q -0.7425,2.97 -0.7425,3.015 0,0.1575 0.0675,0.18 0.1575,0.0675 1.2375,0.1125 h 0.6975 q 0.1125,0.1575 0.1125,0.2025 0.0225,0.0225 -0.045,0.405 -0.09,0.2925 -0.225,0.4275 h -0.3375 q -0.81,-0.045 -2.9475,-0.045 -0.54,0 -1.5075,0.0225 -0.9675,0 -1.4175,0 -0.3825,0 -0.3825,-0.2025 0,-0.045 0.0675,-0.315 0.1125,-0.4275 0.225,-0.4725 0.09,-0.0225 0.3375,-0.0225 h 0.135 q 0.6075,0 1.35,-0.0675 0.315,-0.0675 0.4275,-0.27 0.0675,-0.09 1.62,-6.255 1.5525,-6.165 1.5525,-6.5025 z m 7.3575,0.585 q -0.4725,-0.495 -1.2375,-0.63 -0.765,-0.1575 -2.1825,-0.1575 -0.27,0 -0.5625,0.0225 -0.2925,0 -0.5175,0 -0.2025,0 -0.225,0 -0.2925,0.0225 -0.405,0.2025 -0.0225,0.0675 -0.765,3.015 -0.7425,2.925 -0.7425,2.97 0,0.0225 1.5525,0.0225 1.755,-0.0225 2.34,-0.1575 1.4625,-0.2475 2.25,-1.3275 0.36,-0.5175 0.6075,-1.35 0.2475,-0.855 0.2475,-1.53 0,-0.6975 -0.36,-1.08 z"
       style="font-style:normal;font-variant:normal;font-weight:normal;font-stretch:normal;font-size:22.5px;line-height:0%;font-family:KaTeX_Math;-inkscape-font-specification:'KaTeX_Math, Normal';text-align:start;writing-mode:lr-tb;text-anchor:start;fill:#11accd"
       id="path7922" /><path
       d="m 177.82412,111.92499 q 0.2025,0 0.27,0.0225 0.0675,0 0.1125,0.045 0.045,0.045 0.045,0.135 0,0.0675 -0.0675,0.3375 -0.495,1.89 -1.215,2.61 -0.2925,0.2925 -0.72,0.4725 -0.18,0.045 -0.54,0.045 -1.4175,0 -1.98,-1.1025 -0.1125,-0.2925 -0.1125,-0.27 -0.0225,-0.0225 -0.09,0.0225 -0.045,0.045 -0.09,0.09 -1.08,1.0125 -2.1375,1.2375 -0.135,0.0225 -0.5625,0.0225 -1.485,0 -2.4525,-1.2375 -0.675,-0.99 -0.675,-2.52 0,-0.36 0.0225,-0.495 0.1575,-1.44 0.9225,-2.745 0.7875,-1.3275 1.8675,-2.1375 1.305,-1.0125 2.745,-1.0125 1.125,0 2.025,1.1025 0.36,-0.675 1.035,-0.675 0.2925,0 0.5175,0.18 0.225,0.18 0.225,0.45 0,0.2925 -0.855,3.6225 -0.8325,3.3075 -0.8325,3.7125 0,0.945 0.63,0.945 0.2025,-0.0225 0.45,-0.2025 0.4725,-0.45 0.9225,-2.16 0.135,-0.45 0.225,-0.4725 0.045,-0.0225 0.225,-0.0225 z m -8.3025,1.0575 q 0,0.81 0.3375,1.305 0.36,0.495 1.035,0.495 0.6525,0 1.395,-0.54 0.27,-0.18 0.72,-0.675 0.4725,-0.495 0.5625,-0.675 0.045,-0.09 0.6075,-2.4075 0.585,-2.3175 0.585,-2.4975 0,-0.27 -0.2475,-0.765 -0.495,-0.9675 -1.4175,-0.9675 -0.9,0 -1.5975,0.765 -0.675,0.765 -1.035,1.755 -0.6525,1.7775 -0.9225,3.69 0,0.0675 -0.0225,0.2475 0,0.18 0,0.27 z"
       style="font-style:normal;font-variant:normal;font-weight:normal;font-stretch:normal;font-size:22.5px;line-height:0%;font-family:KaTeX_Math;-inkscape-font-specification:'KaTeX_Math, Normal';text-align:start;writing-mode:lr-tb;text-anchor:start;fill:#11accd"
       id="path7924" /></g><g
     aria-label="Rc"
     style="font-style:normal;font-variant:normal;font-weight:normal;font-stretch:normal;font-size:22.5px;line-height:0%;font-family:KaTeX_Math;-inkscape-font-specification:'KaTeX_Math, Normal';text-align:start;writing-mode:lr-tb;text-anchor:start;fill:#11accd"
     id="text4409"><path
       d="m 93.145107,11.2375 q 0,-0.0225 -0.0225,-0.045 -0.0225,-0.045 -0.0675,-0.045 -0.045,-0.0225 -0.09,-0.045 -0.045,-0.0225 -0.135,-0.0225 -0.09,-0.0225 -0.1575,-0.0225 -0.0675,0 -0.18,0 -0.1125,0 -0.2025,0 -0.0675,-0.0225 -0.2025,-0.0225 -0.135,0 -0.225,0 -0.54,0 -0.6525,-0.0225 -0.1125,-0.0225 -0.1575,-0.135 -0.045,-0.0675 0.0225,-0.405 0.1125,-0.405 0.2025,-0.45 0.045,-0.0225 3.915,-0.0225 3.87,0.0225 4.185,0.0675 2.047503,0.2925 3.105003,1.395 0.8325,0.9 0.8325,2.0025 0,0.225 -0.09,0.675 -0.5175,2.0025 -3.307503,3.24 -0.99,0.3825 -1.125,0.3825 l 0.1575,0.1125 q 1.507503,0.855 1.507503,2.475 0,0.27 -0.1125,1.44 -0.1125,1.08 -0.1125,1.7775 0,0.7875 0.1575,1.125 0.1575,0.315 0.6975,0.315 0.315,0 0.405,-0.045 0.855,-0.3375 1.215,-1.5075 0.1125,-0.315 0.18,-0.3825 0.0675,-0.0675 0.3375,-0.0675 0.45,0 0.45,0.27 0,0.405 -0.54,1.2825 -0.675,0.99 -1.575,1.2375 -0.18,0.045 -0.6525,0.045 -2.340003,0 -3.037503,-1.4175 -0.2025,-0.36 -0.225,-0.9 0,-0.2475 0,-0.3825 0.0225,-0.1575 0.045,-0.3375 0.0225,-0.18 0.045,-0.27 0.0225,-0.09 0.1125,-0.3825 0.09,-0.2925 0.135,-0.5175 0.3375,-1.2825 0.3375,-1.6425 0,-1.125 -0.9675,-1.665 -0.3375,-0.1575 -0.5625,-0.18 -0.225,-0.0225 -1.5975,-0.045 h -1.5525 l -0.72,2.925 q -0.7425,2.97 -0.7425,3.015 0,0.1575 0.0675,0.18 0.1575,0.0675 1.2375,0.1125 h 0.6975 q 0.1125,0.1575 0.1125,0.2025 0.0225,0.0225 -0.045,0.405 -0.09,0.2925 -0.225,0.4275 h -0.3375 q -0.81,-0.045 -2.9475,-0.045 -0.54,0 -1.5075,0.0225 -0.9675,0 -1.4175,0 -0.3825,0 -0.3825,-0.2025 0,-0.045 0.0675,-0.315 0.1125,-0.4275 0.225,-0.4725 0.09,-0.0225 0.3375,-0.0225 h 0.135 q 0.6075,0 1.35,-0.0675 0.315,-0.0675 0.4275,-0.27 0.0675,-0.09 1.62,-6.255 1.5525,-6.165 1.5525,-6.5025 z m 7.357503,0.585 q -0.4725,-0.495 -1.237503,-0.63 -0.765,-0.1575 -2.1825,-0.1575 -0.27,0 -0.5625,0.0225 -0.2925,0 -0.5175,0 -0.2025,0 -0.225,0 -0.2925,0.0225 -0.405,0.2025 -0.0225,0.0675 -0.765,3.015 -0.7425,2.925 -0.7425,2.97 0,0.0225 1.5525,0.0225 1.755,-0.0225 2.34,-0.1575 1.4625,-0.2475 2.250003,-1.3275 0.36,-0.5175 0.6075,-1.35 0.2475,-0.855 0.2475,-1.53 0,-0.6975 -0.36,-1.08 z"
       style="font-style:normal;font-variant:normal;font-weight:normal;font-stretch:normal;font-size:22.5px;line-height:0%;font-family:KaTeX_Math;-inkscape-font-specification:'KaTeX_Math, Normal';text-align:start;writing-mode:lr-tb;text-anchor:start;fill:#11accd"
       id="path7917" /><path
       d="m 112.91733,22.645 q 0.09,0 0.2925,0.225 0.225,0.2025 0.225,0.2925 0,0.2025 -0.6975,0.8325 -1.395,1.26 -3.5325,1.575 -0.495,0.045 -0.8775,0.045 -2.4075,0 -3.3525,-1.98 -0.4275,-0.8325 -0.4275,-1.845 0,-1.035 0.4275,-2.115 0.6525,-1.6875 2.115,-2.8575 1.485,-1.1925 3.15,-1.3725 0.135,-0.0225 0.4275,-0.0225 0.7875,0 1.4625,0.2475 1.26,0.54 1.26,1.71 0,0.6975 -0.4275,1.1475 -0.4275,0.4275 -1.08,0.4275 -0.4275,0 -0.675,-0.225 -0.2475,-0.2475 -0.2475,-0.675 0,-0.3825 0.225,-0.7425 0.225,-0.36 0.585,-0.5175 0.18,-0.1125 0.2475,-0.1125 0.09,0 -0.1575,-0.1575 -0.4275,-0.2475 -1.1925,-0.2475 -0.675,0 -1.2825,0.315 -0.4725,0.2025 -0.9675,0.6975 -0.585,0.585 -0.945,1.395 -0.36,0.81 -0.72,2.3175 -0.2475,1.0575 -0.2475,1.6875 0,1.035 0.585,1.5525 0.5175,0.54 1.395,0.54 0.3375,0 0.6975,-0.045 2.115,-0.315 3.465,-1.8675 0.2025,-0.225 0.27,-0.225 z"
       style="font-style:normal;font-variant:normal;font-weight:normal;font-stretch:normal;font-size:22.5px;line-height:0%;font-family:KaTeX_Math;-inkscape-font-specification:'KaTeX_Math, Normal';text-align:start;writing-mode:lr-tb;text-anchor:start;fill:#11accd"
       id="path7919" /></g><g
     aria-label="R1"
     style="font-style:normal;font-variant:normal;font-weight:normal;font-stretch:normal;font-size:22.5px;line-height:0%;font-family:KaTeX_Math;-inkscape-font-specification:'KaTeX_Math, Normal';text-align:start;writing-mode:lr-tb;text-anchor:start;fill:#11accd"
     id="text4411"><path
       d="m 255.7727,80.780797 q 0,-0.0225 -0.0225,-0.045 -0.0225,-0.045 -0.0675,-0.045 -0.045,-0.0225 -0.09,-0.045 -0.045,-0.0225 -0.135,-0.0225 -0.09,-0.0225 -0.1575,-0.0225 -0.0675,0 -0.18,0 -0.1125,0 -0.2025,0 -0.0675,-0.0225 -0.2025,-0.0225 -0.135,0 -0.225,0 -0.54,0 -0.6525,-0.0225 -0.1125,-0.0225 -0.1575,-0.135 -0.045,-0.0675 0.0225,-0.405 0.1125,-0.405 0.2025,-0.45 0.045,-0.0225 3.915,-0.0225 3.87,0.0225 4.185,0.0675 2.0475,0.2925 3.105,1.395 0.8325,0.9 0.8325,2.0025 0,0.225 -0.09,0.675 -0.5175,2.0025 -3.3075,3.24 -0.99,0.3825 -1.125,0.3825 l 0.1575,0.1125 q 1.5075,0.855 1.5075,2.475 0,0.27 -0.1125,1.44 -0.1125,1.08 -0.1125,1.7775 0,0.7875 0.1575,1.125 0.1575,0.315 0.6975,0.315 0.315,0 0.405,-0.045 0.855,-0.3375 1.215,-1.5075 0.1125,-0.315 0.18,-0.3825 0.0675,-0.0675 0.3375,-0.0675 0.45,0 0.45,0.27 0,0.405 -0.54,1.2825 -0.675,0.99 -1.575,1.2375 -0.18,0.045 -0.6525,0.045 -2.34,0 -3.0375,-1.4175 -0.2025,-0.36 -0.225,-0.9 0,-0.2475 0,-0.3825 0.0225,-0.1575 0.045,-0.3375 0.0225,-0.18 0.045,-0.27 0.0225,-0.09 0.1125,-0.3825 0.09,-0.2925 0.135,-0.5175 0.3375,-1.2825 0.3375,-1.6425 0,-1.125 -0.9675,-1.665 -0.3375,-0.1575 -0.5625,-0.18 -0.225,-0.0225 -1.5975,-0.045 h -1.5525 l -0.72,2.925 q -0.7425,2.97 -0.7425,3.015 0,0.1575 0.0675,0.18 0.1575,0.0675 1.2375,0.1125 h 0.6975 q 0.1125,0.1575 0.1125,0.2025 0.0225,0.0225 -0.045,0.405 -0.09,0.2925 -0.225,0.4275 h -0.3375 q -0.81,-0.045 -2.9475,-0.045 -0.54,0 -1.5075,0.0225 -0.9675,0 -1.4175,0 -0.3825,0 -0.3825,-0.2025 0,-0.045 0.0675,-0.315 0.1125,-0.4275 0.225,-0.4725 0.09,-0.0225 0.3375,-0.0225 h 0.135 q 0.6075,0 1.35,-0.0675 0.315,-0.0675 0.4275,-0.27 0.0675,-0.09 1.62,-6.255 1.5525,-6.165 1.5525,-6.5025 z m 7.3575,0.585 q -0.4725,-0.495 -1.2375,-0.63 -0.765,-0.1575 -2.1825,-0.1575 -0.27,0 -0.5625,0.0225 -0.2925,0 -0.5175,0 -0.2025,0 -0.225,0 -0.2925,0.0225 -0.405,0.2025 -0.0225,0.0675 -0.765,3.015 -0.7425,2.925 -0.7425,2.97 0,0.0225 1.5525,0.0225 1.755,-0.0225 2.34,-0.1575 1.4625,-0.2475 2.25,-1.3275 0.36,-0.5175 0.6075,-1.35 0.2475,-0.855 0.2475,-1.53 0,-0.6975 -0.36,-1.08 z"
       style="font-style:normal;font-variant:normal;font-weight:normal;font-stretch:normal;font-size:22.5px;line-height:0%;font-family:KaTeX_Math;-inkscape-font-specification:'KaTeX_Math, Normal';text-align:start;writing-mode:lr-tb;text-anchor:start;fill:#11accd"
       id="path7912" /><path
       d="m 275.76993,94.910797 q -0.3825,-0.0675 -3.5775,-0.0675 -3.15,0 -3.5325,0.0675 h -0.27 v -1.035 h 0.585 q 1.305,0 1.6875,-0.0675 0.18,-0.0225 0.54,-0.27 v -11.6325 q -0.045,0 -0.18,0.0675 -1.035,0.405 -2.3175,0.4275 h -0.4275 v -1.035 h 0.4275 q 1.89,-0.0675 3.15,-0.855 0.405,-0.225 0.6975,-0.5175 0.045,-0.0675 0.27,-0.0675 0.225,0 0.3825,0.135 v 6.7275 l 0.0225,6.75 q 0.3375,0.3375 1.4625,0.3375 h 0.7425 0.585 v 1.035 z"
       style="font-style:normal;font-variant:normal;font-weight:normal;font-stretch:normal;font-size:22.5px;line-height:125%;font-family:KaTeX_Main;-inkscape-font-specification:'KaTeX_Main, Normal';text-align:start;writing-mode:lr-tb;text-anchor:start"
       id="path7914" /></g><g
     aria-label="R2"
     style="font-style:normal;font-variant:normal;font-weight:normal;font-stretch:normal;font-size:22.5px;line-height:0%;font-family:KaTeX_Math;-inkscape-font-specification:'KaTeX_Math, Normal';text-align:start;writing-mode:lr-tb;text-anchor:start;fill:#11accd"
     id="text4413"><path
       d="m 358.85929,80.780797 q 0,-0.0225 -0.0225,-0.045 -0.0225,-0.045 -0.0675,-0.045 -0.045,-0.0225 -0.09,-0.045 -0.045,-0.0225 -0.135,-0.0225 -0.09,-0.0225 -0.1575,-0.0225 -0.0675,0 -0.18,0 -0.1125,0 -0.2025,0 -0.0675,-0.0225 -0.2025,-0.0225 -0.135,0 -0.225,0 -0.54,0 -0.6525,-0.0225 -0.1125,-0.0225 -0.1575,-0.135 -0.045,-0.0675 0.0225,-0.405 0.1125,-0.405 0.2025,-0.45 0.045,-0.0225 3.915,-0.0225 3.87,0.0225 4.185,0.0675 2.0475,0.2925 3.105,1.395 0.8325,0.9 0.8325,2.0025 0,0.225 -0.09,0.675 -0.5175,2.0025 -3.3075,3.24 -0.99,0.3825 -1.125,0.3825 l 0.1575,0.1125 q 1.5075,0.855 1.5075,2.475 0,0.27 -0.1125,1.44 -0.1125,1.08 -0.1125,1.7775 0,0.7875 0.1575,1.125 0.1575,0.315 0.6975,0.315 0.315,0 0.405,-0.045 0.855,-0.3375 1.215,-1.5075 0.1125,-0.315 0.18,-0.3825 0.0675,-0.0675 0.3375,-0.0675 0.45,0 0.45,0.27 0,0.405 -0.54,1.2825 -0.675,0.99 -1.575,1.2375 -0.18,0.045 -0.6525,0.045 -2.34,0 -3.0375,-1.4175 -0.2025,-0.36 -0.225,-0.9 0,-0.2475 0,-0.3825 0.0225,-0.1575 0.045,-0.3375 0.0225,-0.18 0.045,-0.27 0.0225,-0.09 0.1125,-0.3825 0.09,-0.2925 0.135,-0.5175 0.3375,-1.2825 0.3375,-1.6425 0,-1.125 -0.9675,-1.665 -0.3375,-0.1575 -0.5625,-0.18 -0.225,-0.0225 -1.5975,-0.045 h -1.5525 l -0.72,2.925 q -0.7425,2.97 -0.7425,3.015 0,0.1575 0.0675,0.18 0.1575,0.0675 1.2375,0.1125 h 0.6975 q 0.1125,0.1575 0.1125,0.2025 0.0225,0.0225 -0.045,0.405 -0.09,0.2925 -0.225,0.4275 h -0.3375 q -0.81,-0.045 -2.9475,-0.045 -0.54,0 -1.5075,0.0225 -0.9675,0 -1.4175,0 -0.3825,0 -0.3825,-0.2025 0,-0.045 0.0675,-0.315 0.1125,-0.4275 0.225,-0.4725 0.09,-0.0225 0.3375,-0.0225 h 0.135 q 0.6075,0 1.35,-0.0675 0.315,-0.0675 0.4275,-0.27 0.0675,-0.09 1.62,-6.255 1.5525,-6.165 1.5525,-6.5025 z m 7.3575,0.585 q -0.4725,-0.495 -1.2375,-0.63 -0.765,-0.1575 -2.1825,-0.1575 -0.27,0 -0.5625,0.0225 -0.2925,0 -0.5175,0 -0.2025,0 -0.225,0 -0.2925,0.0225 -0.405,0.2025 -0.0225,0.0675 -0.765,3.015 -0.7425,2.925 -0.7425,2.97 0,0.0225 1.5525,0.0225 1.755,-0.0225 2.34,-0.1575 1.4625,-0.2475 2.25,-1.3275 0.36,-0.5175 0.6075,-1.35 0.2475,-0.855 0.2475,-1.53 0,-0.6975 -0.36,-1.08 z"
       style="font-style:normal;font-variant:normal;font-weight:normal;font-stretch:normal;font-size:22.5px;line-height:0%;font-family:KaTeX_Math;-inkscape-font-specification:'KaTeX_Math, Normal';text-align:start;writing-mode:lr-tb;text-anchor:start;fill:#11accd"
       id="path7907" /><path
       d="m 371.97152,85.258297 q -0.63,0 -0.99,-0.405 -0.36,-0.405 -0.36,-0.99 0,-1.62 1.215,-2.7675 1.2375,-1.17 2.9475,-1.17 1.935,0 3.195,1.0575 1.2825,1.035 1.575,2.7225 0.045,0.405 0.045,0.7425 0,1.305 -0.7875,2.4525 -0.63,0.945 -2.5425,2.5875 -0.81,0.6975 -2.25,2.07 l -1.3275,1.26 1.71,0.0225 q 3.5325,0 3.7575,-0.1125 0.09,-0.0225 0.225,-0.4725 0.09,-0.2475 0.315,-1.53 v -0.0675 h 0.9 v 0.0675 l -0.63,4.1175 v 0.0675 h -8.3475 v -0.4275 q 0,-0.45 0.045,-0.5175 0.0225,-0.0225 1.89,-2.1375 2.4525,-2.7225 3.15,-3.6 1.5075,-2.0475 1.5075,-3.7575 0,-1.485 -0.7875,-2.475 -0.765,-1.0125 -2.16,-1.0125 -1.305,0 -2.115,1.17 -0.045,0.09 -0.135,0.2475 -0.0675,0.1125 -0.0675,0.135 0,0.0225 0.1125,0.0225 0.5625,0 0.9,0.405 0.36,0.405 0.36,0.945 0,0.5625 -0.3825,0.9675 -0.36,0.3825 -0.9675,0.3825 z"
       style="font-style:normal;font-variant:normal;font-weight:normal;font-stretch:normal;font-size:22.5px;line-height:125%;font-family:KaTeX_Main;-inkscape-font-specification:'KaTeX_Main, Normal';text-align:start;writing-mode:lr-tb;text-anchor:start"
       id="path7909" /></g><g
     aria-label="R3"
     style="font-style:normal;font-variant:normal;font-weight:normal;font-stretch:normal;font-size:22.5px;line-height:0%;font-family:KaTeX_Math;-inkscape-font-specification:'KaTeX_Math, Normal';text-align:start;writing-mode:lr-tb;text-anchor:start;fill:#11accd"
     id="text4415"><path
       d="m 334.85929,119.23749 q 0,-0.0225 -0.0225,-0.045 -0.0225,-0.045 -0.0675,-0.045 -0.045,-0.0225 -0.09,-0.045 -0.045,-0.0225 -0.135,-0.0225 -0.09,-0.0225 -0.1575,-0.0225 -0.0675,0 -0.18,0 -0.1125,0 -0.2025,0 -0.0675,-0.0225 -0.2025,-0.0225 -0.135,0 -0.225,0 -0.54,0 -0.6525,-0.0225 -0.1125,-0.0225 -0.1575,-0.135 -0.045,-0.0675 0.0225,-0.405 0.1125,-0.405 0.2025,-0.45 0.045,-0.0225 3.915,-0.0225 3.87,0.0225 4.185,0.0675 2.0475,0.2925 3.105,1.395 0.8325,0.9 0.8325,2.0025 0,0.225 -0.09,0.675 -0.5175,2.0025 -3.3075,3.24 -0.99,0.3825 -1.125,0.3825 l 0.1575,0.1125 q 1.5075,0.855 1.5075,2.475 0,0.27 -0.1125,1.44 -0.1125,1.08 -0.1125,1.7775 0,0.7875 0.1575,1.125 0.1575,0.315 0.6975,0.315 0.315,0 0.405,-0.045 0.855,-0.3375 1.215,-1.5075 0.1125,-0.315 0.18,-0.3825 0.0675,-0.0675 0.3375,-0.0675 0.45,0 0.45,0.27 0,0.405 -0.54,1.2825 -0.675,0.99 -1.575,1.2375 -0.18,0.045 -0.6525,0.045 -2.34,0 -3.0375,-1.4175 -0.2025,-0.36 -0.225,-0.9 0,-0.2475 0,-0.3825 0.0225,-0.1575 0.045,-0.3375 0.0225,-0.18 0.045,-0.27 0.0225,-0.09 0.1125,-0.3825 0.09,-0.2925 0.135,-0.5175 0.3375,-1.2825 0.3375,-1.6425 0,-1.125 -0.9675,-1.665 -0.3375,-0.1575 -0.5625,-0.18 -0.225,-0.0225 -1.5975,-0.045 h -1.5525 l -0.72,2.925 q -0.7425,2.97 -0.7425,3.015 0,0.1575 0.0675,0.18 0.1575,0.0675 1.2375,0.1125 h 0.6975 q 0.1125,0.1575 0.1125,0.2025 0.0225,0.0225 -0.045,0.405 -0.09,0.2925 -0.225,0.4275 h -0.3375 q -0.81,-0.045 -2.9475,-0.045 -0.54,0 -1.5075,0.0225 -0.9675,0 -1.4175,0 -0.3825,0 -0.3825,-0.2025 0,-0.045 0.0675,-0.315 0.1125,-0.4275 0.225,-0.4725 0.09,-0.0225 0.3375,-0.0225 h 0.135 q 0.6075,0 1.35,-0.0675 0.315,-0.0675 0.4275,-0.27 0.0675,-0.09 1.62,-6.255 1.5525,-6.165 1.5525,-6.5025 z m 7.3575,0.585 q -0.4725,-0.495 -1.2375,-0.63 -0.765,-0.1575 -2.1825,-0.1575 -0.27,0 -0.5625,0.0225 -0.2925,0 -0.5175,0 -0.2025,0 -0.225,0 -0.2925,0.0225 -0.405,0.2025 -0.0225,0.0675 -0.765,3.015 -0.7425,2.925 -0.7425,2.97 0,0.0225 1.5525,0.0225 1.755,-0.0225 2.34,-0.1575 1.4625,-0.2475 2.25,-1.3275 0.36,-0.5175 0.6075,-1.35 0.2475,-0.855 0.2475,-1.53 0,-0.6975 -0.36,-1.08 z"
       style="font-style:normal;font-variant:normal;font-weight:normal;font-stretch:normal;font-size:22.5px;line-height:0%;font-family:KaTeX_Math;-inkscape-font-specification:'KaTeX_Math, Normal';text-align:start;writing-mode:lr-tb;text-anchor:start;fill:#11accd"
       id="path7902" /><path
       d="m 348.35402,122.94999 q -0.6075,0 -0.9675,-0.3825 -0.3375,-0.3825 -0.3375,-0.99 0,-1.2825 1.0125,-2.1375 1.0125,-0.8775 2.34,-1.035 h 0.3375 q 0.7875,0 0.99,0.0225 0.7425,0.1125 1.5075,0.4725 1.485,0.7425 1.8675,2.115 0.0675,0.225 0.0675,0.6075 0,1.3275 -0.8325,2.385 -0.81,1.035 -2.0475,1.485 -0.1125,0.045 0,0.0675 0.045,0.0225 0.225,0.0675 1.3725,0.3825 2.3175,1.44 0.945,1.035 0.945,2.3625 0,0.9225 -0.4275,1.7775 -0.54,1.1475 -1.7775,1.9125 -1.215,0.7425 -2.7225,0.7425 -1.485,0 -2.6325,-0.63 -1.1475,-0.63 -1.5525,-1.6875 -0.225,-0.4725 -0.225,-1.1025 0,-0.63 0.405,-1.0125 0.4275,-0.405 1.0125,-0.405 0.63,0 1.035,0.405 0.405,0.405 0.405,1.0125 0,0.5175 -0.2925,0.9 -0.2925,0.3825 -0.7875,0.495 l -0.1575,0.045 q 1.215,1.0125 2.79,1.0125 1.2375,0 1.8675,-1.1925 0.3825,-0.7425 0.3825,-2.2725 v -0.45 q 0,-2.1375 -1.44,-2.8575 -0.3375,-0.135 -1.3725,-0.1575 l -0.945,-0.0225 -0.0675,-0.045 q -0.045,-0.0675 -0.045,-0.36 0,-0.27 0.0675,-0.3375 0.0675,-0.0675 0.1125,-0.0675 0.63,0 1.305,-0.1125 0.99,-0.135 1.5075,-1.1025 0.5175,-0.99 0.5175,-2.3625 0,-1.4625 -0.7875,-1.9575 -0.4725,-0.315 -1.0575,-0.315 -1.125,0 -1.98,0.6075 -0.09,0.045 -0.2025,0.1575 -0.1125,0.09 -0.18,0.18 l -0.0675,0.09 q 0.0675,0.0225 0.1575,0.045 0.45,0.045 0.7425,0.4275 0.315,0.3825 0.315,0.8775 0,0.54 -0.3825,0.9225 -0.36,0.36 -0.945,0.36 z"
       style="font-style:normal;font-variant:normal;font-weight:normal;font-stretch:normal;font-size:22.5px;line-height:125%;font-family:KaTeX_Main;-inkscape-font-specification:'KaTeX_Main, Normal';text-align:start;writing-mode:lr-tb;text-anchor:start"
       id="path7904" /></g><g
     aria-label="Rb"
     style="font-style:normal;font-variant:normal;font-weight:normal;font-stretch:normal;font-size:22.5px;line-height:0%;font-family:KaTeX_Math;-inkscape-font-specification:'KaTeX_Math, Normal';text-align:start;writing-mode:lr-tb;text-anchor:start;fill:#11accd"
     id="text4417"><path
       d="m 22.51518,101.23749 q 0,-0.0225 -0.0225,-0.045 -0.0225,-0.045 -0.0675,-0.045 -0.045,-0.0225 -0.09,-0.045 -0.045,-0.0225 -0.135,-0.0225 -0.09,-0.0225 -0.1575,-0.0225 -0.0675,0 -0.18,0 -0.1125,0 -0.2025,0 -0.0675,-0.0225 -0.2025,-0.0225 -0.135,0 -0.225,0 -0.54,0 -0.6525,-0.0225 -0.1125,-0.0225 -0.1575,-0.135 -0.045,-0.0675 0.0225,-0.405 0.1125,-0.405 0.2025,-0.45 0.045,-0.0225 3.915,-0.0225 3.87,0.0225 4.185,0.0675 2.0475,0.2925 3.105,1.395 0.8325,0.9 0.8325,2.0025 0,0.225 -0.09,0.675 -0.5175,2.0025 -3.3075,3.24 -0.99,0.3825 -1.125,0.3825 l 0.1575,0.1125 q 1.5075,0.855 1.5075,2.475 0,0.27 -0.1125,1.44 -0.1125,1.08 -0.1125,1.7775 0,0.7875 0.1575,1.125 0.1575,0.315 0.6975,0.315 0.315,0 0.405,-0.045 0.855,-0.3375 1.215,-1.5075 0.1125,-0.315 0.18,-0.3825 0.0675,-0.0675 0.3375,-0.0675 0.45,0 0.45,0.27 0,0.405 -0.54,1.2825 -0.675,0.99 -1.575,1.2375 -0.18,0.045 -0.6525,0.045 -2.34,0 -3.0375,-1.4175 -0.2025,-0.36 -0.225,-0.9 0,-0.2475 0,-0.3825 0.0225,-0.1575 0.045,-0.3375 0.0225,-0.18 0.045,-0.27 0.0225,-0.09 0.1125,-0.3825 0.09,-0.2925 0.135,-0.5175 0.3375,-1.2825 0.3375,-1.6425 0,-1.125 -0.9675,-1.665 -0.3375,-0.1575 -0.5625,-0.18 -0.225,-0.0225 -1.5975,-0.045 h -1.5525 l -0.72,2.925 q -0.7425,2.97 -0.7425,3.015 0,0.1575 0.0675,0.18 0.1575,0.0675 1.2375,0.1125 h 0.6975 q 0.1125,0.1575 0.1125,0.2025 0.0225,0.0225 -0.045,0.405 -0.09,0.2925 -0.225,0.4275 h -0.3375 q -0.81,-0.045 -2.9475,-0.045 -0.54,0 -1.5075,0.0225 -0.9675,0 -1.4175,0 -0.3825,0 -0.3825,-0.2025 0,-0.045 0.0675,-0.315 0.1125,-0.4275 0.225,-0.4725 0.09,-0.0225 0.3375,-0.0225 h 0.135 q 0.6075,0 1.35,-0.0675 0.315,-0.0675 0.4275,-0.27 0.0675,-0.09 1.62,-6.255 1.5525,-6.165 1.5525,-6.5025 z m 7.3575,0.585 q -0.4725,-0.495 -1.2375,-0.63 -0.765,-0.1575 -2.1825,-0.1575 -0.27,0 -0.5625,0.0225 -0.2925,0 -0.5175,0 -0.2025,0 -0.225,0 -0.2925,0.0225 -0.405,0.2025 -0.0225,0.0675 -0.765,3.015 -0.7425,2.925 -0.7425,2.97 0,0.0225 1.5525,0.0225 1.755,-0.0225 2.34,-0.1575 1.4625,-0.2475 2.25,-1.3275 0.36,-0.5175 0.6075,-1.35 0.2475,-0.855 0.2475,-1.53 0,-0.6975 -0.36,-1.08 z"
       style="font-style:normal;font-variant:normal;font-weight:normal;font-stretch:normal;font-size:22.5px;line-height:0%;font-family:KaTeX_Math;-inkscape-font-specification:'KaTeX_Math, Normal';text-align:start;writing-mode:lr-tb;text-anchor:start;fill:#11accd"
       id="path7897" /><path
       d="m 35.154907,99.999993 q 0.0225,0 1.62,-0.1125 1.62,-0.135 1.6425,-0.135 0.27,0 0.27,0.2025 0,0.202497 -0.765,3.217497 -0.18,0.765 -0.405,1.575 -0.2025,0.81 -0.315,1.215 l -0.09,0.4275 q 0,0.0675 0.135,-0.0675 0.765,-0.63 1.71,-0.855 0.27,-0.045 0.5625,-0.045 0.2925,0 0.5625,0.045 1.17,0.27 1.8675,1.215 0.6975,0.945 0.6975,2.385 0,2.52 -1.7775,4.545 -1.755,2.0025 -3.825,2.0025 -0.6525,0 -1.2375,-0.2925 -1.755,-0.7875 -1.755,-3.33 0,-0.6525 0.135,-1.2825 0,-0.0225 1.125,-4.6125 l 1.1475,-4.59 q 0.045,-0.315 -0.1575,-0.3825 -0.18,-0.09 -0.63,-0.09 -0.1575,0 -0.2475,0 -0.4725,0 -0.54,-0.0675 -0.135,-0.1125 -0.0225,-0.54 0.09,-0.315 0.1575,-0.36 0.0675,-0.0675 0.135,-0.0675 z m 5.5575,8.054997 q 0,-1.8 -1.3725,-1.8 -0.045,0 -0.1575,0.0225 -0.09,0 -0.1125,0 -1.17,0.2475 -2.205,1.62 -0.045,0.045 -0.1125,0.135 l -0.0675,0.09 q 0,0.0225 -0.405,1.62 -0.3825,1.575 -0.4275,1.8 -0.135,0.6975 -0.135,1.26 0,1.08 0.54,1.62 0.36,0.36 0.9,0.36 0.7425,0 1.5075,-0.72 0.5625,-0.5175 0.9,-1.26 0.36,-0.765 0.7425,-2.3625 0.405,-1.62 0.405,-2.385 z"
       style="font-style:normal;font-variant:normal;font-weight:normal;font-stretch:normal;font-size:22.5px;line-height:0%;font-family:KaTeX_Math;-inkscape-font-specification:'KaTeX_Math, Normal';text-align:start;writing-mode:lr-tb;text-anchor:start;fill:#11accd"
       id="path7899" /></g></svg>