<?xml version="1.0" encoding="UTF-8" standalone="no"?>
<!-- Generator: Adobe Illustrator 19.1.0, SVG Export Plug-In . SVG Version: 6.00 Build 0)  -->

<svg
   xmlns:dc="http://purl.org/dc/elements/1.1/"
   xmlns:cc="http://creativecommons.org/ns#"
   xmlns:rdf="http://www.w3.org/1999/02/22-rdf-syntax-ns#"
   xmlns:svg="http://www.w3.org/2000/svg"
   xmlns="http://www.w3.org/2000/svg"
   xmlns:sodipodi="http://sodipodi.sourceforge.net/DTD/sodipodi-0.dtd"
   xmlns:inkscape="http://www.inkscape.org/namespaces/inkscape"
   version="1.1"
   id="Layer_1"
   x="0px"
   y="0px"
   width="314.43073"
   height="272"
   viewBox="0 0 314.43072 272"
   xml:space="preserve"
   inkscape:version="0.92.2 5c3e80d, 2017-08-06"
   sodipodi:docname="delta_wye10.svg"><metadata
     id="metadata125"><rdf:RDF><cc:Work
         rdf:about=""><dc:format>image/svg+xml</dc:format><dc:type
           rdf:resource="http://purl.org/dc/dcmitype/StillImage" /><dc:title></dc:title></cc:Work></rdf:RDF></metadata><defs
     id="defs123" /><sodipodi:namedview
     pagecolor="#ffffff"
     bordercolor="#666666"
     borderopacity="1"
     objecttolerance="10"
     gridtolerance="10"
     guidetolerance="10"
     inkscape:pageopacity="0"
     inkscape:pageshadow="2"
     inkscape:window-width="1262"
     inkscape:window-height="695"
     id="namedview121"
     showgrid="false"
     fit-margin-top="10"
     fit-margin-right="40"
     fit-margin-bottom="10"
     fit-margin-left="10"
     inkscape:zoom="1.5965361"
     inkscape:cx="159.40761"
     inkscape:cy="136"
     inkscape:window-x="0"
     inkscape:window-y="0"
     inkscape:window-maximized="0"
     inkscape:current-layer="Layer_1" /><style
     type="text/css"
     id="style3">
	.st0{fill:none;stroke:#000000;stroke-linecap:round;stroke-linejoin:round;stroke-miterlimit:10;}
	.st1{fill:none;stroke:#BABEC2;stroke-linecap:round;stroke-linejoin:round;stroke-miterlimit:10;}
	.st2{fill:none;stroke:#BABEC2;stroke-width:2;stroke-linecap:round;stroke-linejoin:round;stroke-miterlimit:10;}
	.st3{fill:none;}
	.st4{fill:none;stroke:#000000;stroke-width:1.5;stroke-linecap:round;stroke-linejoin:round;stroke-miterlimit:10;}
	.st5{fill:none;stroke:#000000;stroke-linecap:round;stroke-miterlimit:10;}
	.st6{fill:none;stroke:#000000;stroke-width:1.5;stroke-linecap:round;stroke-miterlimit:10;}
	.st7{fill:none;stroke:#000000;stroke-width:2;stroke-linecap:round;stroke-linejoin:round;stroke-miterlimit:10;}
	.st8{fill:none;stroke:#000000;stroke-width:1.5;stroke-miterlimit:10;}
	.st9{fill:none;stroke:#000000;stroke-miterlimit:10;}
	.st10{fill:none;stroke:#000000;stroke-width:2;stroke-miterlimit:10;}
	.st11{fill:none;stroke:#000000;stroke-width:2;stroke-linecap:round;stroke-miterlimit:10;}
	.st12{fill:none;stroke:#000000;stroke-linecap:round;stroke-linejoin:round;}
	.st13{stroke:#000000;stroke-linecap:round;stroke-linejoin:round;stroke-miterlimit:10;}
	.st14{fill:none;stroke:#000000;stroke-width:1.5;stroke-linejoin:round;stroke-miterlimit:10;}
	.st15{fill:none;stroke:#000000;stroke-linejoin:round;stroke-miterlimit:10;}
	.st16{clip-path:url(#SVGID_2_);fill:none;stroke:#000000;stroke-linejoin:round;stroke-miterlimit:10;}
	.st17{clip-path:url(#SVGID_2_);fill:none;stroke:#ADADEB;stroke-linejoin:round;stroke-miterlimit:10;}
	.st18{clip-path:url(#SVGID_2_);}
	.st19{stroke:#000000;stroke-linejoin:round;stroke-miterlimit:10;}
	.st20{stroke:#000000;stroke-width:3;stroke-linejoin:round;stroke-miterlimit:10;}
	.st21{fill:none;stroke:#000000;stroke-linejoin:round;}
	.st22{opacity:0.5;fill:#CCFAFF;}
	.st23{fill:none;stroke:#0C7F99;stroke-miterlimit:10;}
	.st24{fill:#0C7F99;}
	.st25{fill:none;stroke:#11ACCD;stroke-width:3;stroke-linecap:round;stroke-miterlimit:10;}
	.st26{fill:#11ACCD;}
	.st27{fill:none;stroke:#01D1C1;stroke-width:2;stroke-miterlimit:10;}
	.st28{fill:none;stroke:#01D1C1;stroke-linecap:round;stroke-miterlimit:10;}
	.st29{fill:none;stroke:#01D1C1;stroke-linecap:round;stroke-linejoin:round;stroke-miterlimit:10;}
	.st30{fill:none;stroke:#01D1C1;stroke-width:1.5;stroke-miterlimit:10;}
	.st31{fill:none;stroke:#01D1C1;stroke-width:2;stroke-linecap:round;stroke-linejoin:round;stroke-miterlimit:10;}
	.st32{fill:#01D1C1;stroke:#01D1C1;stroke-linecap:round;stroke-linejoin:round;stroke-miterlimit:10;}
	.st33{fill:none;stroke:#01D1C1;stroke-miterlimit:10;}
	.st34{fill:#01D1C1;}
	.st35{fill:none;stroke:#FCA9A9;stroke-width:3;stroke-linecap:round;stroke-miterlimit:10;}
	.st36{fill:#FCA9A9;}
	.st37{fill:#FFFFFF;stroke:#000000;stroke-miterlimit:10;}
	.st38{fill:#11ACCD;stroke:#000000;stroke-miterlimit:10;}
	.st39{fill:#BABEC2;stroke:#BABEC2;stroke-miterlimit:10;}
	.st40{stroke:#000000;stroke-miterlimit:10;}
	.st41{font-family:'KaTeX_Main-Regular';}
	.st42{font-size:21px;}
	.st43{letter-spacing:2;}
</style><line
     class="st0"
     x1="162.54831"
     y1="15.999991"
     x2="162.54831"
     y2="33.999992"
     id="line5"
     style="fill:none;stroke:#000000;stroke-linecap:round;stroke-linejoin:round;stroke-miterlimit:10" /><g
     id="g7"
     transform="translate(6.3483071,4)"><line
       class="st0"
       x1="90.300003"
       y1="48.599998"
       x2="90.199997"
       y2="30"
       id="line9"
       style="fill:none;stroke:#000000;stroke-linecap:round;stroke-linejoin:round;stroke-miterlimit:10" /><polyline
       class="st7"
       points="90.3,95.4 81.3,91.5 99.2,83.7 81.3,75.9 99.2,68.1 81.3,60.3 99.2,52.5 90.3,48.6  "
       id="polyline11"
       style="fill:none;stroke:#000000;stroke-width:2;stroke-linecap:round;stroke-linejoin:round;stroke-miterlimit:10" /><line
       class="st0"
       x1="90.199997"
       y1="114"
       x2="90.300003"
       y2="95.400002"
       id="line13"
       style="fill:none;stroke:#000000;stroke-linecap:round;stroke-linejoin:round;stroke-miterlimit:10" /><rect
       x="78.199997"
       y="30"
       class="st3"
       width="24"
       height="84"
       id="rect15"
       style="fill:none" /></g><g
     id="g17"
     transform="translate(6.3483071,4)"><line
       class="st0"
       x1="90.300003"
       y1="114.6"
       x2="90.199997"
       y2="96"
       id="line19"
       style="fill:none;stroke:#000000;stroke-linecap:round;stroke-linejoin:round;stroke-miterlimit:10" /><polyline
       class="st7"
       points="90.3,161.4 81.3,157.5 99.2,149.7 81.3,141.9 99.2,134.1 81.3,126.3 99.2,118.5 90.3,114.6  "
       id="polyline21"
       style="fill:none;stroke:#000000;stroke-width:2;stroke-linecap:round;stroke-linejoin:round;stroke-miterlimit:10" /><line
       class="st0"
       x1="90.199997"
       y1="180"
       x2="90.300003"
       y2="161.39999"
       id="line23"
       style="fill:none;stroke:#000000;stroke-linecap:round;stroke-linejoin:round;stroke-miterlimit:10" /><rect
       x="78.199997"
       y="96"
       class="st3"
       width="24"
       height="84"
       id="rect25"
       style="fill:none" /></g><g
     id="g27"
     transform="translate(6.3483071,4)"><line
       class="st0"
       x1="222.2"
       y1="48.599998"
       x2="222.2"
       y2="30"
       id="line29"
       style="fill:none;stroke:#000000;stroke-linecap:round;stroke-linejoin:round;stroke-miterlimit:10" /><polyline
       class="st7"
       points="222.2,95.4 213.3,91.5 231.2,83.7 213.3,75.9 231.2,68.1 213.3,60.3 231.2,52.5 222.2,48.6  "
       id="polyline31"
       style="fill:none;stroke:#000000;stroke-width:2;stroke-linecap:round;stroke-linejoin:round;stroke-miterlimit:10" /><line
       class="st0"
       x1="222.2"
       y1="114"
       x2="222.2"
       y2="95.400002"
       id="line33"
       style="fill:none;stroke:#000000;stroke-linecap:round;stroke-linejoin:round;stroke-miterlimit:10" /><rect
       x="210.2"
       y="30"
       class="st3"
       width="24"
       height="84"
       id="rect35"
       style="fill:none" /></g><g
     id="g37"
     transform="translate(6.3483071,4)"><line
       class="st0"
       x1="222.2"
       y1="114.6"
       x2="222.2"
       y2="96"
       id="line39"
       style="fill:none;stroke:#000000;stroke-linecap:round;stroke-linejoin:round;stroke-miterlimit:10" /><polyline
       class="st7"
       points="222.2,161.4 213.3,157.5 231.2,149.7 213.3,141.9 231.2,134.1 213.3,126.3 231.2,118.5 222.2,114.6     "
       id="polyline41"
       style="fill:none;stroke:#000000;stroke-width:2;stroke-linecap:round;stroke-linejoin:round;stroke-miterlimit:10" /><line
       class="st0"
       x1="222.2"
       y1="180"
       x2="222.2"
       y2="161.39999"
       id="line43"
       style="fill:none;stroke:#000000;stroke-linecap:round;stroke-linejoin:round;stroke-miterlimit:10" /><rect
       x="210.2"
       y="96"
       class="st3"
       width="24"
       height="84"
       id="rect45"
       style="fill:none" /></g><line
     class="st0"
     x1="162.54831"
     y1="243.99998"
     x2="162.54831"
     y2="255.99998"
     id="line47"
     style="fill:none;stroke:#000000;stroke-linecap:round;stroke-linejoin:round;stroke-miterlimit:10" /><g
     id="g49"
     transform="translate(6.3483071,4)"><polyline
       class="st7"
       points="156.2,192.6 165.2,196.5 147.2,204.3 165.2,212.1 147.2,219.9 165.2,227.7 147.2,235.5 156.2,239.4     "
       id="polyline51"
       style="fill:none;stroke:#000000;stroke-width:2;stroke-linecap:round;stroke-linejoin:round;stroke-miterlimit:10" /><rect
       x="144.2"
       y="186"
       class="st3"
       width="24"
       height="60"
       id="rect53"
       style="fill:none" /></g><g
     id="g55"
     transform="translate(6.3483071,4)"
     style="fill:none"><rect
       x="150.2"
       y="246"
       class="st3"
       width="12"
       height="12"
       id="rect57"
       style="fill:none" /><circle
       class="st37"
       cx="156.2"
       cy="252"
       r="3"
       id="circle59"
       style="fill:none;stroke:#000000;stroke-miterlimit:10" /></g><g
     aria-label="1Ω"
     style="font-style:normal;font-variant:normal;font-weight:normal;font-stretch:normal;font-size:22.5px;line-height:0%;font-family:KaTeX_Main;-inkscape-font-specification:'KaTeX_Main, Normal';text-align:start;writing-mode:lr-tb;text-anchor:start"
     id="text61"><path
       d="m 255.95821,148 q -0.3825,-0.0675 -3.5775,-0.0675 -3.15,0 -3.5325,0.0675 h -0.27 v -1.035 h 0.585 q 1.305,0 1.6875,-0.0675 0.18,-0.0225 0.54,-0.27 V 134.995 q -0.045,0 -0.18,0.0675 -1.035,0.405 -2.3175,0.4275 h -0.4275 v -1.035 h 0.4275 q 1.89,-0.0675 3.15,-0.855 0.405,-0.225 0.6975,-0.5175 0.045,-0.0675 0.27,-0.0675 0.225,0 0.3825,0.135 v 6.7275 l 0.0225,6.75 q 0.3375,0.3375 1.4625,0.3375 h 0.7425 0.585 V 148 Z"
       style="font-style:normal;font-variant:normal;font-weight:normal;font-stretch:normal;font-size:22.5px;line-height:125%;font-family:KaTeX_Main;-inkscape-font-specification:'KaTeX_Main, Normal';text-align:start;letter-spacing:2;writing-mode:lr-tb;text-anchor:start"
       id="path1949" /><path
       d="m 265.27321,147.55 q 0,0.2925 -0.1575,0.45 h -4.185 v -0.045 q -0.0225,-0.0225 -0.36,-1.9575 l -0.3825,-1.935 v -0.045 h 0.9 l 0.0225,0.1125 q 0,0.1125 0.09,0.4275 0.1575,1.0125 0.3375,1.35 0.09,0.1125 0.1575,0.1575 0.2925,0.1125 1.5075,0.135 h 0.99 v -0.0675 q -0.1125,-0.36 -0.495,-1.1925 -0.36,-0.6975 -1.2375,-2.07 -1.44,-2.3175 -1.8,-3.5325 -0.225,-0.8325 -0.225,-1.5525 0,-0.675 0.18,-1.2825 0.495,-1.6875 2.0925,-2.9025 1.5975,-1.2375 3.735,-1.4175 0.135,-0.0225 0.3375,-0.0225 h 0.3375 q 3.1725,0 5.1975,1.7325 1.2825,1.125 1.6875,2.61 0.18,0.6075 0.18,1.2825 0,0.72 -0.225,1.5525 -0.36,1.215 -1.8,3.5325 -0.8775,1.3725 -1.2375,2.07 -0.3825,0.8325 -0.495,1.1925 V 146.2 h 0.99 q 1.215,-0.0225 1.5075,-0.135 0.09,-0.045 0.1575,-0.1575 0.1575,-0.3375 0.3375,-1.35 0.09,-0.315 0.09,-0.4275 l 0.0225,-0.1125 h 0.9 v 0.045 l -0.3825,1.935 q -0.3375,1.935 -0.36,1.9575 V 148 h -2.07 q -1.665,0 -1.935,0 -0.2475,-0.0225 -0.2925,-0.135 -0.045,-0.09 -0.045,-0.315 0,-0.6525 0.2025,-1.7775 0.18,-0.9 0.8775,-3.0375 0.72,-2.1825 0.945,-3.42 0.1575,-0.945 0.1575,-1.5525 0,-3.1725 -2.3175,-4.3425 -0.945,-0.45 -1.89,-0.45 -2.295,0 -3.51,1.9125 -0.6975,1.1025 -0.6975,2.8575 0,0.765 0.135,1.575 0.225,1.2375 0.945,3.42 0.6975,2.1375 0.8775,3.0375 0.2025,1.1025 0.2025,1.7775 z"
       style="font-style:normal;font-variant:normal;font-weight:normal;font-stretch:normal;font-size:22.5px;line-height:125%;font-family:KaTeX_Main;-inkscape-font-specification:'KaTeX_Main, Normal';text-align:start;writing-mode:lr-tb;text-anchor:start"
       id="path1951" /></g><g
     aria-label="1.25Ω"
     style="font-style:normal;font-variant:normal;font-weight:normal;font-stretch:normal;font-size:22.5px;line-height:0%;font-family:KaTeX_Main;-inkscape-font-specification:'KaTeX_Main, Normal';text-align:start;writing-mode:lr-tb;text-anchor:start"
     id="text67"><path
       d="m 29.665,147.505 q -0.3825,-0.0675 -3.5775,-0.0675 -3.15,0 -3.5325,0.0675 h -0.27 v -1.035 h 0.585 q 1.305,0 1.6875,-0.0675 0.18,-0.0225 0.54,-0.27 V 134.5 q -0.045,0 -0.18,0.0675 -1.035,0.405 -2.3175,0.4275 H 22.1725 V 133.96 H 22.6 q 1.89,-0.0675 3.15,-0.855 0.405,-0.225 0.6975,-0.5175 0.045,-0.0675 0.27,-0.0675 0.225,0 0.3825,0.135 v 6.7275 l 0.0225,6.75 Q 27.46,146.47 28.585,146.47 h 0.7425 0.585 v 1.035 z"
       style="font-style:normal;font-variant:normal;font-weight:normal;font-stretch:normal;font-size:22.5px;line-height:125%;font-family:KaTeX_Main;-inkscape-font-specification:'KaTeX_Main, Normal';text-align:start;writing-mode:lr-tb;text-anchor:start"
       id="path1938" /><path
       d="m 33.31,146.155 q 0,-0.585 0.3825,-0.9675 0.3825,-0.3825 0.9675,-0.3825 0.585,0 0.9675,0.405 0.405,0.3825 0.405,0.9225 0,0.585 -0.405,0.99 -0.405,0.3825 -0.945,0.3825 -0.585,0 -0.99,-0.405 -0.3825,-0.405 -0.3825,-0.945 z"
       style="font-style:normal;font-variant:normal;font-weight:normal;font-stretch:normal;font-size:22.5px;line-height:125%;font-family:KaTeX_Main;-inkscape-font-specification:'KaTeX_Main, Normal';text-align:start;writing-mode:lr-tb;text-anchor:start"
       id="path1940" /><path
       d="m 40.270235,137.8525 q -0.63,0 -0.99,-0.405 -0.36,-0.405 -0.36,-0.99 0,-1.62 1.215,-2.7675 1.2375,-1.17 2.9475,-1.17 1.935,0 3.195,1.0575 1.2825,1.035 1.575,2.7225 0.045,0.405 0.045,0.7425 0,1.305 -0.7875,2.4525 -0.63,0.945 -2.5425,2.5875 -0.81,0.6975 -2.25,2.07 l -1.3275,1.26 1.71,0.0225 q 3.5325,0 3.7575,-0.1125 0.09,-0.0225 0.225,-0.4725 0.09,-0.2475 0.315,-1.53 v -0.0675 h 0.9 v 0.0675 l -0.63,4.1175 v 0.0675 h -8.3475 v -0.4275 q 0,-0.45 0.045,-0.5175 0.0225,-0.0225 1.89,-2.1375 2.4525,-2.7225 3.15,-3.6 1.5075,-2.0475 1.5075,-3.7575 0,-1.485 -0.7875,-2.475 -0.765,-1.0125 -2.16,-1.0125 -1.305,0 -2.115,1.17 -0.045,0.09 -0.135,0.2475 -0.0675,0.1125 -0.0675,0.135 0,0.0225 0.1125,0.0225 0.5625,0 0.9,0.405 0.36,0.405 0.36,0.945 0,0.5625 -0.3825,0.9675 -0.36,0.3825 -0.9675,0.3825 z"
       style="font-style:normal;font-variant:normal;font-weight:normal;font-stretch:normal;font-size:22.5px;line-height:125%;font-family:KaTeX_Main;-inkscape-font-specification:'KaTeX_Main, Normal';text-align:start;writing-mode:lr-tb;text-anchor:start"
       id="path1942" /><path
       d="m 51.452735,142.69 q 0.54,0 0.9,0.3825 0.3825,0.36 0.3825,0.9225 0,0.5175 -0.3825,0.8775 -0.3825,0.36 -0.855,0.36 h -0.1575 l 0.0675,0.1125 q 0.3375,0.72 1.035,1.1925 0.6975,0.4725 1.6425,0.4725 1.5975,0 2.295,-1.35 0.4275,-0.8325 0.4275,-2.88 0,-2.3175 -0.6075,-3.1275 -0.585,-0.7425 -1.44,-0.7425 -1.755,0 -2.655,1.53 -0.09,0.1575 -0.18,0.2025 -0.0675,0.0225 -0.315,0.0225 -0.3825,0 -0.4275,-0.135 -0.045,-0.09 -0.045,-3.9375 0,-0.675 -0.0225,-1.5975 0,-0.9225 0,-1.17 0,-1.26 0.135,-1.26 0.045,-0.045 0.09,-0.045 l 0.405,0.135 q 1.4625,0.585 2.9925,0.585 1.5975,0 3.06,-0.63 0.18,-0.09 0.2925,-0.09 0.18,0 0.18,0.405 v 0.2925 q -1.8225,2.1825 -4.6125,2.1825 -0.6975,0 -1.26,-0.135 l -0.225,-0.045 v 3.87 q 1.2825,-1.035 2.6325,-1.035 0.4275,0 0.9225,0.1125 1.5075,0.3825 2.4525,1.71 0.9675,1.3275 0.9675,3.105 0,2.0475 -1.44,3.5325 -1.4175,1.485 -3.51,1.485 -1.4175,0 -2.4075,-0.7875 -0.4275,-0.27 -0.7425,-0.7425 -0.675,-0.81 -0.855,-2.0025 0,-0.0675 -0.0225,-0.2025 0,-0.1575 0,-0.225 0,-0.63 0.36,-0.99 0.36,-0.36 0.9225,-0.36 z"
       style="font-style:normal;font-variant:normal;font-weight:normal;font-stretch:normal;font-size:22.5px;line-height:125%;font-family:KaTeX_Main;-inkscape-font-specification:'KaTeX_Main, Normal';text-align:start;writing-mode:lr-tb;text-anchor:start"
       id="path1944" /><path
       d="m 69.370235,147.055 q 0,0.2925 -0.1575,0.45 h -4.185 v -0.045 q -0.0225,-0.0225 -0.36,-1.9575 l -0.3825,-1.935 v -0.045 h 0.9 l 0.0225,0.1125 q 0,0.1125 0.09,0.4275 0.1575,1.0125 0.3375,1.35 0.09,0.1125 0.1575,0.1575 0.2925,0.1125 1.5075,0.135 h 0.99 v -0.0675 q -0.1125,-0.36 -0.495,-1.1925 -0.36,-0.6975 -1.2375,-2.07 -1.44,-2.3175 -1.8,-3.5325 -0.225,-0.8325 -0.225,-1.5525 0,-0.675 0.18,-1.2825 0.495,-1.6875 2.0925,-2.9025 1.5975,-1.2375 3.735,-1.4175 0.135,-0.0225 0.3375,-0.0225 h 0.3375 q 3.1725,0 5.1975,1.7325 1.2825,1.125 1.6875,2.61 0.18,0.6075 0.18,1.2825 0,0.72 -0.225,1.5525 -0.36,1.215 -1.8,3.5325 -0.8775,1.3725 -1.2375,2.07 -0.3825,0.8325 -0.495,1.1925 v 0.0675 h 0.99 q 1.215,-0.0225 1.5075,-0.135 0.09,-0.045 0.1575,-0.1575 0.1575,-0.3375 0.3375,-1.35 0.09,-0.315 0.09,-0.4275 l 0.0225,-0.1125 h 0.9 v 0.045 l -0.3825,1.935 q -0.3375,1.935 -0.36,1.9575 v 0.045 h -2.07 q -1.665,0 -1.935,0 -0.2475,-0.0225 -0.2925,-0.135 -0.045,-0.09 -0.045,-0.315 0,-0.6525 0.2025,-1.7775 0.18,-0.9 0.8775,-3.0375 0.72,-2.1825 0.945,-3.42 0.1575,-0.945 0.1575,-1.5525 0,-3.1725 -2.3175,-4.3425 -0.945,-0.45 -1.89,-0.45 -2.295,0 -3.51,1.9125 -0.6975,1.1025 -0.6975,2.8575 0,0.765 0.135,1.575 0.225,1.2375 0.945,3.42 0.6975,2.1375 0.8775,3.0375 0.2025,1.1025 0.2025,1.7775 z"
       style="font-style:normal;font-variant:normal;font-weight:normal;font-stretch:normal;font-size:22.5px;line-height:125%;font-family:KaTeX_Main;-inkscape-font-specification:'KaTeX_Main, Normal';text-align:start;writing-mode:lr-tb;text-anchor:start"
       id="path1946" /></g><g
     aria-label="1.66Ω"
     style="font-style:normal;font-variant:normal;font-weight:normal;font-stretch:normal;font-size:22.5px;line-height:0%;font-family:KaTeX_Main;-inkscape-font-specification:'KaTeX_Main, Normal';text-align:start;writing-mode:lr-tb;text-anchor:start"
     id="text75"><path
       d="m 183.95831,225.99998 q -0.3825,-0.0675 -3.5775,-0.0675 -3.15,0 -3.5325,0.0675 h -0.27 v -1.035 h 0.585 q 1.305,0 1.6875,-0.0675 0.18,-0.0225 0.54,-0.27 v -11.6325 q -0.045,0 -0.18,0.0675 -1.035,0.405 -2.3175,0.4275 h -0.4275 v -1.035 h 0.4275 q 1.89,-0.0675 3.15,-0.855 0.405,-0.225 0.6975,-0.5175 0.045,-0.0675 0.27,-0.0675 0.225,0 0.3825,0.135 v 6.7275 l 0.0225,6.75 q 0.3375,0.3375 1.4625,0.3375 h 0.7425 0.585 v 1.035 z"
       style="font-style:normal;font-variant:normal;font-weight:normal;font-stretch:normal;font-size:22.5px;line-height:125%;font-family:KaTeX_Main;-inkscape-font-specification:'KaTeX_Main, Normal';text-align:start;writing-mode:lr-tb;text-anchor:start"
       id="path1927" /><path
       d="m 187.60331,224.64998 q 0,-0.585 0.3825,-0.9675 0.3825,-0.3825 0.9675,-0.3825 0.585,0 0.9675,0.405 0.405,0.3825 0.405,0.9225 0,0.585 -0.405,0.99 -0.405,0.3825 -0.945,0.3825 -0.585,0 -0.99,-0.405 -0.3825,-0.405 -0.3825,-0.945 z"
       style="font-style:normal;font-variant:normal;font-weight:normal;font-stretch:normal;font-size:22.5px;line-height:125%;font-family:KaTeX_Main;-inkscape-font-specification:'KaTeX_Main, Normal';text-align:start;writing-mode:lr-tb;text-anchor:start"
       id="path1929" /><path
       d="m 200.48105,212.47748 q -0.495,-0.495 -1.395,-0.5625 -1.575,0 -2.6325,1.35 -1.0575,1.4625 -1.0575,4.545 l 0.0225,0.09 0.18,-0.2925 q 0.9225,-1.35 2.4975,-1.35 1.035,0 1.8225,0.4275 0.54,0.315 1.08,0.9225 0.54,0.585 0.8775,1.26 0.4725,1.1025 0.4725,2.4075 v 0.405 q 0,0.5175 -0.1125,0.9675 -0.27,1.3275 -1.395,2.4975 -0.9675,1.0125 -2.16,1.26 -0.36,0.09 -0.9,0.09 -0.4275,0 -0.765,-0.0675 -1.665,-0.315 -2.655,-1.8 -1.3275,-2.0925 -1.3275,-5.67 0,-2.43 0.855,-4.2525 0.855,-1.8225 2.385,-2.835 1.215,-0.855 2.6325,-0.855 1.305,0 2.0925,0.6975 0.81,0.6975 0.81,1.9125 0,0.5625 -0.3375,0.9 -0.315,0.3375 -0.855,0.3375 -0.54,0 -0.8775,-0.315 -0.315,-0.315 -0.315,-0.8775 0,-1.0125 1.0575,-1.1925 z m -0.99,5.4 q -0.63,-0.81 -1.62,-0.81 -0.8325,0 -1.35,0.5175 -1.1025,1.1025 -1.1025,3.555 0,2.0025 0.27,2.7675 0.225,0.675 0.765,1.1475 0.54,0.4725 1.2825,0.4725 1.1475,0 1.755,-0.855 0.3375,-0.4725 0.4275,-1.125 0.09,-0.6525 0.09,-1.89 v -0.36 -0.36 q 0,-1.2825 -0.09,-1.935 -0.09,-0.6525 -0.4275,-1.125 z"
       style="font-style:normal;font-variant:normal;font-weight:normal;font-stretch:normal;font-size:22.5px;line-height:125%;font-family:KaTeX_Main;-inkscape-font-specification:'KaTeX_Main, Normal';text-align:start;writing-mode:lr-tb;text-anchor:start"
       id="path1931" /><path
       d="m 211.73105,212.47748 q -0.495,-0.495 -1.395,-0.5625 -1.575,0 -2.6325,1.35 -1.0575,1.4625 -1.0575,4.545 l 0.0225,0.09 0.18,-0.2925 q 0.9225,-1.35 2.4975,-1.35 1.035,0 1.8225,0.4275 0.54,0.315 1.08,0.9225 0.54,0.585 0.8775,1.26 0.4725,1.1025 0.4725,2.4075 v 0.405 q 0,0.5175 -0.1125,0.9675 -0.27,1.3275 -1.395,2.4975 -0.9675,1.0125 -2.16,1.26 -0.36,0.09 -0.9,0.09 -0.4275,0 -0.765,-0.0675 -1.665,-0.315 -2.655,-1.8 -1.3275,-2.0925 -1.3275,-5.67 0,-2.43 0.855,-4.2525 0.855,-1.8225 2.385,-2.835 1.215,-0.855 2.6325,-0.855 1.305,0 2.0925,0.6975 0.81,0.6975 0.81,1.9125 0,0.5625 -0.3375,0.9 -0.315,0.3375 -0.855,0.3375 -0.54,0 -0.8775,-0.315 -0.315,-0.315 -0.315,-0.8775 0,-1.0125 1.0575,-1.1925 z m -0.99,5.4 q -0.63,-0.81 -1.62,-0.81 -0.8325,0 -1.35,0.5175 -1.1025,1.1025 -1.1025,3.555 0,2.0025 0.27,2.7675 0.225,0.675 0.765,1.1475 0.54,0.4725 1.2825,0.4725 1.1475,0 1.755,-0.855 0.3375,-0.4725 0.4275,-1.125 0.09,-0.6525 0.09,-1.89 v -0.36 -0.36 q 0,-1.2825 -0.09,-1.935 -0.09,-0.6525 -0.4275,-1.125 z"
       style="font-style:normal;font-variant:normal;font-weight:normal;font-stretch:normal;font-size:22.5px;line-height:125%;font-family:KaTeX_Main;-inkscape-font-specification:'KaTeX_Main, Normal';text-align:start;writing-mode:lr-tb;text-anchor:start"
       id="path1933" /><path
       d="m 223.66355,225.54998 q 0,0.2925 -0.1575,0.45 h -4.185 v -0.045 q -0.0225,-0.0225 -0.36,-1.9575 l -0.3825,-1.935 v -0.045 h 0.9 l 0.0225,0.1125 q 0,0.1125 0.09,0.4275 0.1575,1.0125 0.3375,1.35 0.09,0.1125 0.1575,0.1575 0.2925,0.1125 1.5075,0.135 h 0.99 v -0.0675 q -0.1125,-0.36 -0.495,-1.1925 -0.36,-0.6975 -1.2375,-2.07 -1.44,-2.3175 -1.8,-3.5325 -0.225,-0.8325 -0.225,-1.5525 0,-0.675 0.18,-1.2825 0.495,-1.6875 2.0925,-2.9025 1.5975,-1.2375 3.735,-1.4175 0.135,-0.0225 0.3375,-0.0225 h 0.3375 q 3.1725,0 5.1975,1.7325 1.2825,1.125 1.6875,2.61 0.18,0.6075 0.18,1.2825 0,0.72 -0.225,1.5525 -0.36,1.215 -1.8,3.5325 -0.8775,1.3725 -1.2375,2.07 -0.3825,0.8325 -0.495,1.1925 v 0.0675 h 0.99 q 1.215,-0.0225 1.5075,-0.135 0.09,-0.045 0.1575,-0.1575 0.1575,-0.3375 0.3375,-1.35 0.09,-0.315 0.09,-0.4275 l 0.0225,-0.1125 h 0.9 v 0.045 l -0.3825,1.935 q -0.3375,1.935 -0.36,1.9575 v 0.045 h -2.07 q -1.665,0 -1.935,0 -0.2475,-0.0225 -0.2925,-0.135 -0.045,-0.09 -0.045,-0.315 0,-0.6525 0.2025,-1.7775 0.18,-0.9 0.8775,-3.0375 0.72,-2.1825 0.945,-3.42 0.1575,-0.945 0.1575,-1.5525 0,-3.1725 -2.3175,-4.3425 -0.945,-0.45 -1.89,-0.45 -2.295,0 -3.51,1.9125 -0.6975,1.1025 -0.6975,2.8575 0,0.765 0.135,1.575 0.225,1.2375 0.945,3.42 0.6975,2.1375 0.8775,3.0375 0.2025,1.1025 0.2025,1.7775 z"
       style="font-style:normal;font-variant:normal;font-weight:normal;font-stretch:normal;font-size:22.5px;line-height:125%;font-family:KaTeX_Main;-inkscape-font-specification:'KaTeX_Main, Normal';text-align:start;writing-mode:lr-tb;text-anchor:start"
       id="path1935" /></g><g
     aria-label="4Ω"
     style="font-style:normal;font-variant:normal;font-weight:normal;font-stretch:normal;font-size:22.5px;line-height:0%;font-family:KaTeX_Main;-inkscape-font-specification:'KaTeX_Main, Normal';text-align:start;writing-mode:lr-tb;text-anchor:start"
     id="text83"><path
       d="m 256.99321,83.086601 q -0.315,-0.0675 -2.9025,-0.0675 -2.7,0 -3.015,0.0675 h -0.2025 v -1.035 h 0.6975 q 0.9675,-0.0225 1.1925,-0.1125 0.18,-0.045 0.27,-0.225 0.0225,-0.045 0.0225,-1.215 v -1.125 h -5.8275 v -1.035 l 3.3975,-5.1975 q 3.4425,-5.22 3.4875,-5.2425 0.045,-0.045 0.4725,-0.045 h 0.405 l 0.135,0.135 v 10.35 h 2.07 v 1.035 h -2.07 v 1.1475 q 0,0.9225 0,1.08 0.0225,0.1575 0.135,0.27 0.18,0.1575 1.2825,0.18 h 0.6525 v 1.035 z m -3.8025,-4.7475 v -7.515 l -4.9275,7.4925 2.4525,0.0225 z"
       style="font-style:normal;font-variant:normal;font-weight:normal;font-stretch:normal;font-size:22.5px;line-height:125%;font-family:KaTeX_Main;-inkscape-font-specification:'KaTeX_Main, Normal';text-align:start;letter-spacing:2;writing-mode:lr-tb;text-anchor:start"
       id="path1922" /><path
       d="m 265.27321,82.636601 q 0,0.2925 -0.1575,0.45 h -4.185 v -0.045 q -0.0225,-0.0225 -0.36,-1.9575 l -0.3825,-1.935 v -0.045 h 0.9 l 0.0225,0.1125 q 0,0.1125 0.09,0.4275 0.1575,1.0125 0.3375,1.35 0.09,0.1125 0.1575,0.1575 0.2925,0.1125 1.5075,0.135 h 0.99 v -0.0675 q -0.1125,-0.36 -0.495,-1.1925 -0.36,-0.6975 -1.2375,-2.07 -1.44,-2.3175 -1.8,-3.5325 -0.225,-0.8325 -0.225,-1.5525 0,-0.675 0.18,-1.2825 0.495,-1.6875 2.0925,-2.9025 1.5975,-1.2375 3.735,-1.4175 0.135,-0.0225 0.3375,-0.0225 h 0.3375 q 3.1725,0 5.1975,1.7325 1.2825,1.125 1.6875,2.61 0.18,0.6075 0.18,1.2825 0,0.72 -0.225,1.5525 -0.36,1.215 -1.8,3.5325 -0.8775,1.3725 -1.2375,2.07 -0.3825,0.8325 -0.495,1.1925 v 0.0675 h 0.99 q 1.215,-0.0225 1.5075,-0.135 0.09,-0.045 0.1575,-0.1575 0.1575,-0.3375 0.3375,-1.35 0.09,-0.315 0.09,-0.4275 l 0.0225,-0.1125 h 0.9 v 0.045 l -0.3825,1.935 q -0.3375,1.935 -0.36,1.9575 v 0.045 h -2.07 q -1.665,0 -1.935,0 -0.2475,-0.0225 -0.2925,-0.135 -0.045,-0.09 -0.045,-0.315 0,-0.6525 0.2025,-1.7775 0.18,-0.9 0.8775,-3.0375 0.72,-2.1825 0.945,-3.42 0.1575,-0.945 0.1575,-1.5525 0,-3.1725 -2.3175,-4.3425 -0.945,-0.45 -1.89,-0.45 -2.295,0 -3.51,1.9125 -0.6975,1.1025 -0.6975,2.8575 0,0.765 0.135,1.575 0.225,1.2375 0.945,3.42 0.6975,2.1375 0.8775,3.0375 0.2025,1.1025 0.2025,1.7775 z"
       style="font-style:normal;font-variant:normal;font-weight:normal;font-stretch:normal;font-size:22.5px;line-height:125%;font-family:KaTeX_Main;-inkscape-font-specification:'KaTeX_Main, Normal';text-align:start;writing-mode:lr-tb;text-anchor:start"
       id="path1924" /></g><g
     aria-label="3.125Ω"
     style="font-style:normal;font-variant:normal;font-weight:normal;font-stretch:normal;font-size:22.5px;line-height:0%;font-family:KaTeX_Main;-inkscape-font-specification:'KaTeX_Main, Normal';text-align:start;writing-mode:lr-tb;text-anchor:start"
     id="text89"><path
       d="m 11.9125,72.174099 q -0.6075,0 -0.9675,-0.3825 -0.3375,-0.3825 -0.3375,-0.99 0,-1.2825 1.0125,-2.1375 1.0125,-0.8775 2.34,-1.035 h 0.3375 q 0.7875,0 0.99,0.0225 0.7425,0.1125 1.5075,0.4725 1.485,0.7425 1.8675,2.115 0.0675,0.225 0.0675,0.6075 0,1.3275 -0.8325,2.385 -0.81,1.035 -2.0475,1.485 -0.1125,0.045 0,0.0675 0.045,0.0225 0.225,0.0675 1.3725,0.3825 2.3175,1.44 0.945,1.035 0.945,2.3625 0,0.9225 -0.4275,1.7775 -0.54,1.1475 -1.7775,1.9125 -1.215,0.7425 -2.7225,0.7425 -1.485,0 -2.6325,-0.63 -1.1475,-0.63 -1.5525,-1.6875 -0.225,-0.4725 -0.225,-1.1025 0,-0.63 0.405,-1.0125 0.4275,-0.405 1.0125,-0.405 0.63,0 1.035,0.405 0.405,0.405 0.405,1.0125 0,0.5175 -0.2925,0.9 -0.2925,0.3825 -0.7875,0.495 l -0.1575,0.045 q 1.215,1.0125 2.79,1.0125 1.2375,0 1.8675,-1.1925 0.3825,-0.7425 0.3825,-2.2725 v -0.45 q 0,-2.1375 -1.44,-2.8575 -0.3375,-0.135 -1.3725,-0.1575 l -0.945,-0.0225 -0.0675,-0.045 q -0.045,-0.0675 -0.045,-0.36 0,-0.27 0.0675,-0.3375 0.0675,-0.0675 0.1125,-0.0675 0.63,0 1.305,-0.1125 0.99,-0.135 1.5075,-1.1025 0.5175,-0.99 0.5175,-2.3625 0,-1.4625 -0.7875,-1.9575 -0.4725,-0.315 -1.0575,-0.315 -1.125,0 -1.98,0.6075 -0.09,0.045 -0.2025,0.1575 -0.1125,0.09 -0.18,0.18 l -0.0675,0.09 q 0.0675,0.0225 0.1575,0.045 0.45,0.045 0.7425,0.4275 0.315,0.3825 0.315,0.8775 0,0.54 -0.3825,0.9225 -0.36,0.36 -0.945,0.36 z"
       style="font-style:normal;font-variant:normal;font-weight:normal;font-stretch:normal;font-size:22.5px;line-height:125%;font-family:KaTeX_Main;-inkscape-font-specification:'KaTeX_Main, Normal';text-align:start;writing-mode:lr-tb;text-anchor:start"
       id="path1909" /><path
       d="m 22.06,81.241599 q 0,-0.585 0.3825,-0.9675 0.3825,-0.3825 0.9675,-0.3825 0.585,0 0.9675,0.405 0.405,0.3825 0.405,0.9225 0,0.585 -0.405,0.99 -0.405,0.3825 -0.945,0.3825 -0.585,0 -0.99,-0.405 -0.3825,-0.405 -0.3825,-0.945 z"
       style="font-style:normal;font-variant:normal;font-weight:normal;font-stretch:normal;font-size:22.5px;line-height:125%;font-family:KaTeX_Main;-inkscape-font-specification:'KaTeX_Main, Normal';text-align:start;writing-mode:lr-tb;text-anchor:start"
       id="path1911" /><path
       d="m 35.905235,82.591599 q -0.3825,-0.0675 -3.5775,-0.0675 -3.15,0 -3.5325,0.0675 h -0.27 v -1.035 h 0.585 q 1.305,0 1.6875,-0.0675 0.18,-0.0225 0.54,-0.27 v -11.6325 q -0.045,0 -0.18,0.0675 -1.035,0.405 -2.3175,0.4275 h -0.4275 v -1.035 h 0.4275 q 1.89,-0.0675 3.15,-0.855 0.405,-0.225 0.6975,-0.5175 0.045,-0.0675 0.27,-0.0675 0.225,0 0.3825,0.135 v 6.7275 l 0.0225,6.75 q 0.3375,0.3375 1.4625,0.3375 h 0.7425 0.585 v 1.035 z"
       style="font-style:normal;font-variant:normal;font-weight:normal;font-stretch:normal;font-size:22.5px;line-height:125%;font-family:KaTeX_Main;-inkscape-font-specification:'KaTeX_Main, Normal';text-align:start;writing-mode:lr-tb;text-anchor:start"
       id="path1913" /><path
       d="m 40.270235,72.939099 q -0.63,0 -0.99,-0.405 -0.36,-0.405 -0.36,-0.99 0,-1.62 1.215,-2.7675 1.2375,-1.17 2.9475,-1.17 1.935,0 3.195,1.0575 1.2825,1.035 1.575,2.7225 0.045,0.405 0.045,0.7425 0,1.305 -0.7875,2.4525 -0.63,0.945 -2.5425,2.5875 -0.81,0.6975 -2.25,2.07 l -1.3275,1.26 1.71,0.0225 q 3.5325,0 3.7575,-0.1125 0.09,-0.0225 0.225,-0.4725 0.09,-0.2475 0.315,-1.53 v -0.0675 h 0.9 v 0.0675 l -0.63,4.1175 v 0.0675 h -8.3475 v -0.4275 q 0,-0.45 0.045,-0.5175 0.0225,-0.0225 1.89,-2.1375 2.4525,-2.7225 3.15,-3.6 1.5075,-2.0475 1.5075,-3.7575 0,-1.485 -0.7875,-2.475 -0.765,-1.0125 -2.16,-1.0125 -1.305,0 -2.115,1.17 -0.045,0.09 -0.135,0.2475 -0.0675,0.1125 -0.0675,0.135 0,0.0225 0.1125,0.0225 0.5625,0 0.9,0.405 0.36,0.405 0.36,0.945 0,0.5625 -0.3825,0.9675 -0.36,0.3825 -0.9675,0.3825 z"
       style="font-style:normal;font-variant:normal;font-weight:normal;font-stretch:normal;font-size:22.5px;line-height:125%;font-family:KaTeX_Main;-inkscape-font-specification:'KaTeX_Main, Normal';text-align:start;writing-mode:lr-tb;text-anchor:start"
       id="path1915" /><path
       d="m 51.452735,77.776599 q 0.54,0 0.9,0.3825 0.3825,0.36 0.3825,0.9225 0,0.5175 -0.3825,0.8775 -0.3825,0.36 -0.855,0.36 h -0.1575 l 0.0675,0.1125 q 0.3375,0.72 1.035,1.1925 0.6975,0.4725 1.6425,0.4725 1.5975,0 2.295,-1.35 0.4275,-0.8325 0.4275,-2.88 0,-2.3175 -0.6075,-3.1275 -0.585,-0.7425 -1.44,-0.7425 -1.755,0 -2.655,1.53 -0.09,0.1575 -0.18,0.2025 -0.0675,0.0225 -0.315,0.0225 -0.3825,0 -0.4275,-0.135 -0.045,-0.09 -0.045,-3.9375 0,-0.675 -0.0225,-1.5975 0,-0.9225 0,-1.17 0,-1.26 0.135,-1.26 0.045,-0.045 0.09,-0.045 l 0.405,0.135 q 1.4625,0.585 2.9925,0.585 1.5975,0 3.06,-0.63 0.18,-0.09 0.2925,-0.09 0.18,0 0.18,0.405 v 0.2925 q -1.8225,2.1825 -4.6125,2.1825 -0.6975,0 -1.26,-0.135 l -0.225,-0.045 v 3.87 q 1.2825,-1.035 2.6325,-1.035 0.4275,0 0.9225,0.1125 1.5075,0.3825 2.4525,1.71 0.9675,1.3275 0.9675,3.105 0,2.0475 -1.44,3.5325 -1.4175,1.485 -3.51,1.485 -1.4175,0 -2.4075,-0.7875 -0.4275,-0.27 -0.7425,-0.7425 -0.675,-0.81 -0.855,-2.0025 0,-0.0675 -0.0225,-0.2025 0,-0.1575 0,-0.225 0,-0.63 0.36,-0.99 0.36,-0.36 0.9225,-0.36 z"
       style="font-style:normal;font-variant:normal;font-weight:normal;font-stretch:normal;font-size:22.5px;line-height:125%;font-family:KaTeX_Main;-inkscape-font-specification:'KaTeX_Main, Normal';text-align:start;writing-mode:lr-tb;text-anchor:start"
       id="path1917" /><path
       d="m 69.370235,82.141599 q 0,0.2925 -0.1575,0.45 h -4.185 v -0.045 q -0.0225,-0.0225 -0.36,-1.9575 l -0.3825,-1.935 v -0.045 h 0.9 l 0.0225,0.1125 q 0,0.1125 0.09,0.4275 0.1575,1.0125 0.3375,1.35 0.09,0.1125 0.1575,0.1575 0.2925,0.1125 1.5075,0.135 h 0.99 v -0.0675 q -0.1125,-0.36 -0.495,-1.1925 -0.36,-0.6975 -1.2375,-2.07 -1.44,-2.3175 -1.8,-3.5325 -0.225,-0.8325 -0.225,-1.5525 0,-0.675 0.18,-1.2825 0.495,-1.6875 2.0925,-2.9025 1.5975,-1.2375 3.735,-1.4175 0.135,-0.0225 0.3375,-0.0225 h 0.3375 q 3.1725,0 5.1975,1.7325 1.2825,1.125 1.6875,2.61 0.18,0.6075 0.18,1.2825 0,0.72 -0.225,1.5525 -0.36,1.215 -1.8,3.5325 -0.8775,1.3725 -1.2375,2.07 -0.3825,0.8325 -0.495,1.1925 v 0.0675 h 0.99 q 1.215,-0.0225 1.5075,-0.135 0.09,-0.045 0.1575,-0.1575 0.1575,-0.3375 0.3375,-1.35 0.09,-0.315 0.09,-0.4275 l 0.0225,-0.1125 h 0.9 v 0.045 l -0.3825,1.935 q -0.3375,1.935 -0.36,1.9575 v 0.045 h -2.07 q -1.665,0 -1.935,0 -0.2475,-0.0225 -0.2925,-0.135 -0.045,-0.09 -0.045,-0.315 0,-0.6525 0.2025,-1.7775 0.18,-0.9 0.8775,-3.0375 0.72,-2.1825 0.945,-3.42 0.1575,-0.945 0.1575,-1.5525 0,-3.1725 -2.3175,-4.3425 -0.945,-0.45 -1.89,-0.45 -2.295,0 -3.51,1.9125 -0.6975,1.1025 -0.6975,2.8575 0,0.765 0.135,1.575 0.225,1.2375 0.945,3.42 0.6975,2.1375 0.8775,3.0375 0.2025,1.1025 0.2025,1.7775 z"
       style="font-style:normal;font-variant:normal;font-weight:normal;font-stretch:normal;font-size:22.5px;line-height:125%;font-family:KaTeX_Main;-inkscape-font-specification:'KaTeX_Main, Normal';text-align:start;writing-mode:lr-tb;text-anchor:start"
       id="path1919" /></g><g
     id="g97"
     transform="translate(6.3483071,4)"
     style="fill:none"><rect
       x="150.2"
       y="6"
       class="st3"
       width="12"
       height="12"
       id="rect99"
       style="fill:none" /><circle
       class="st37"
       cx="156.2"
       cy="12"
       r="3"
       id="circle101"
       style="fill:none;stroke:#000000;stroke-miterlimit:10" /></g><line
     class="st0"
     x1="162.54831"
     y1="184"
     x2="162.54831"
     y2="195.99998"
     id="line103"
     style="fill:none;stroke:#000000;stroke-linecap:round;stroke-linejoin:round;stroke-miterlimit:10" /><g
     id="g105"
     transform="translate(6.3483071,4)"><circle
       class="st40"
       cx="156.2"
       cy="180"
       r="3"
       id="circle107"
       style="stroke:#000000;stroke-miterlimit:10" /><rect
       x="150.2"
       y="174"
       class="st3"
       width="12"
       height="12"
       id="rect109"
       style="fill:none" /></g><g
     id="g111"
     transform="translate(6.3483071,4)"><circle
       class="st40"
       cx="156.2"
       cy="30"
       r="3"
       id="circle113"
       style="stroke:#000000;stroke-miterlimit:10" /><rect
       x="150.2"
       y="24"
       class="st3"
       width="12"
       height="12"
       id="rect115"
       style="fill:none" /></g><line
     class="st0"
     x1="96.548302"
     y1="184"
     x2="228.54831"
     y2="184"
     id="line117"
     style="fill:none;stroke:#000000;stroke-linecap:round;stroke-linejoin:round;stroke-miterlimit:10" /><line
     class="st0"
     x1="228.54831"
     y1="33.999992"
     x2="96.548302"
     y2="33.999992"
     id="line119"
     style="fill:none;stroke:#000000;stroke-linecap:round;stroke-linejoin:round;stroke-miterlimit:10" /><g
     aria-label="x"
     style="font-style:normal;font-variant:normal;font-weight:normal;font-stretch:normal;font-size:22.5px;line-height:0%;font-family:KaTeX_Math;-inkscape-font-specification:'KaTeX_Math, Normal';text-align:start;writing-mode:lr-tb;text-anchor:start;fill:#11accd;stroke:none;stroke-miterlimit:10"
     id="text27"><path
       d="m 71.884903,107.48053 q -0.135,-0.135 -0.135,-0.2475 0.09,-0.6075 0.6975,-1.5525 1.0575,-1.5975 2.655,-1.845 0.315,-0.045 0.4725,-0.045 0.7875,0 1.44,0.405 0.675,0.405 0.9675,1.0125 0.2925,-0.3825 0.36,-0.4725 0.8325,-0.945 1.9125,-0.945 0.9225,0 1.485,0.54 0.585,0.5175 0.585,1.2825 0,0.6975 -0.405,1.17 -0.3825,0.4725 -1.035,0.4725 -0.4275,0 -0.6975,-0.2475 -0.27,-0.2475 -0.27,-0.6525 0,-1.035 1.125,-1.4175 0,-0.0225 -0.2475,-0.1575 -0.225,-0.135 -0.6525,-0.135 -0.2925,0 -0.4275,0.045 -0.855,0.36 -1.26,1.485 -0.0675,0.18 -0.6525,2.52 -0.585,2.3175 -0.63,2.61 -0.0675,0.3375 -0.0675,0.675 0,0.54 0.315,0.855 0.315,0.315 0.8325,0.315 0.945,0 1.71,-0.7875 0.765,-0.81 1.035,-1.7775 0.0675,-0.225 0.135,-0.2475 0.0675,-0.045 0.36,-0.045 0.4275,0 0.4275,0.18 0,0.0225 -0.045,0.2475 -0.3825,1.395 -1.575,2.43 -1.0575,0.8325 -2.2275,0.8325 -1.575,0 -2.385,-1.4175 -0.6525,1.0125 -1.665,1.35 -0.2025,0.045 -0.585,0.045 -1.305,0 -1.845,-0.9225 -0.225,-0.3825 -0.225,-0.9 0,-0.675 0.405,-1.1475 0.405,-0.4725 1.035,-0.4725 0.9675,0 0.9675,0.945 0,0.8325 -0.7875,1.215 -0.045,0.0225 -0.1125,0.0675 -0.0675,0.0225 -0.1125,0.045 -0.045,0.0225 -0.0675,0.0225 l -0.0675,0.0225 q 0,0.0675 0.3375,0.2025 0.27,0.1125 0.585,0.1125 0.81,0 1.395,-1.0125 0.2475,-0.405 0.8775,-2.925 0.135,-0.5175 0.2925,-1.1475 0.1575,-0.63 0.225,-0.9675 0.09,-0.3375 0.1125,-0.405 0.1125,-0.6075 0.1125,-0.8775 0,-0.54 -0.2925,-0.855 -0.2925,-0.315 -0.81,-0.315 -1.0125,0 -1.755,0.7875 -0.7425,0.765 -1.035,1.7775 -0.045,0.2025 -0.1125,0.2475 -0.045,0.0225 -0.36,0.0225 z"
       style="font-style:normal;font-variant:normal;font-weight:normal;font-stretch:normal;font-size:22.5px;line-height:0%;font-family:KaTeX_Math;-inkscape-font-specification:'KaTeX_Math, Normal';text-align:start;writing-mode:lr-tb;text-anchor:start;fill:#11accd;stroke:none;stroke-miterlimit:10"
       id="path1906" /></g><g
     aria-label="y"
     style="font-style:normal;font-variant:normal;font-weight:normal;font-stretch:normal;font-size:22.5px;line-height:0%;font-family:KaTeX_Math;-inkscape-font-specification:'KaTeX_Math, Normal';text-align:start;writing-mode:lr-tb;text-anchor:start;fill:#11accd;stroke:none;stroke-miterlimit:10"
     id="text29"><path
       d="m 252.32002,104.03803 q 0.315,0 0.54,0.18 0.225,0.1575 0.225,0.45 0,0.2925 -1.1025,4.725 -1.1025,4.4325 -1.26,4.86 -0.36,1.1025 -1.17,2.025 -0.7875,0.945 -1.845,1.485 -1.215,0.585 -2.2725,0.585 -1.71,0 -2.3175,-1.08 -0.225,-0.315 -0.225,-0.9 0,-0.765 0.4275,-1.1925 0.4725,-0.4275 0.99,-0.4275 0.99,0 0.99,0.945 0,0.8325 -0.7875,1.215 -0.045,0.0225 -0.1125,0.045 -0.0675,0.045 -0.1125,0.0675 -0.045,0.0225 -0.0675,0.0225 l -0.0675,0.0225 q 0.0675,0.135 0.4725,0.2925 0.36,0.135 0.72,0.135 h 0.18 q 0.3825,0 0.585,-0.045 0.855,-0.2475 1.62,-1.1475 0.765,-0.9 1.17,-2.16 0.2475,-0.7425 0.2475,-0.8775 0,-0.0225 -0.045,0.0225 -0.045,0.0225 -0.135,0.09 -0.8325,0.6075 -1.845,0.6075 -1.1475,0 -1.89,-0.54 -0.7425,-0.54 -0.9675,-1.5525 -0.0225,-0.1575 -0.0225,-0.6975 0,-0.54 0.045,-0.8325 0.1575,-0.9675 1.035,-3.3075 0.495,-1.3275 0.495,-1.845 0,-0.315 -0.0675,-0.4275 -0.045,-0.135 -0.2475,-0.135 h -0.1125 q -0.5175,0 -0.99,0.4725 -0.72,0.72 -1.1025,2.16 0,0.0225 -0.0225,0.09 -0.0225,0.045 -0.045,0.0675 0,0 -0.0225,0.0225 -0.0225,0.0225 -0.09,0.0225 -0.045,0 -0.09,0 -0.045,0 -0.18,0 h -0.315 q -0.135,-0.135 -0.135,-0.2025 0,-0.0675 0.0675,-0.315 0.4725,-1.575 1.4175,-2.4525 0.765,-0.72 1.5975,-0.72 0.945,0 1.5075,0.5175 0.5625,0.5175 0.5625,1.44 -0.045,0.4275 -0.0675,0.4725 0,0.135 -0.3375,0.9675 -0.9225,2.4975 -1.1025,3.6675 -0.0225,0.18 -0.0225,0.5175 0,0.855 0.27,1.305 0.27,0.45 0.99,0.45 0.5175,0 0.9675,-0.27 0.4725,-0.27 0.6975,-0.5175 0.2475,-0.27 0.6075,-0.72 0,-0.0225 0.1125,-0.45 0.1125,-0.45 0.315,-1.3275 0.225,-0.8775 0.4275,-1.665 0.855,-3.375 0.945,-3.5325 0.2925,-0.6075 0.9675,-0.6075 z"
       style="font-style:normal;font-variant:normal;font-weight:normal;font-stretch:normal;font-size:22.5px;line-height:0%;font-family:KaTeX_Math;-inkscape-font-specification:'KaTeX_Math, Normal';text-align:start;writing-mode:lr-tb;text-anchor:start;fill:#11accd;stroke:none;stroke-miterlimit:10"
       id="path1903" /></g></svg>