<?xml version="1.0" encoding="UTF-8" standalone="no"?>
<svg
   xmlns:xhtml="http://www.w3.org/1999/xhtml"
   xmlns:dc="http://purl.org/dc/elements/1.1/"
   xmlns:cc="http://creativecommons.org/ns#"
   xmlns:rdf="http://www.w3.org/1999/02/22-rdf-syntax-ns#"
   xmlns:svg="http://www.w3.org/2000/svg"
   xmlns="http://www.w3.org/2000/svg"
   xmlns:sodipodi="http://sodipodi.sourceforge.net/DTD/sodipodi-0.dtd"
   xmlns:inkscape="http://www.inkscape.org/namespaces/inkscape"
   width="431.66721"
   height="329.94662"
   version="1.1"
   id="svg2"
   inkscape:version="0.91 r13725"
   sodipodi:docname="diode4.svg">
  <metadata
     id="metadata214">
    <rdf:RDF>
      <cc:Work
         rdf:about="">
        <dc:format>image/svg+xml</dc:format>
        <dc:type
           rdf:resource="http://purl.org/dc/dcmitype/StillImage" />
        <dc:title></dc:title>
      </cc:Work>
    </rdf:RDF>
  </metadata>
  <defs
     id="defs212">
    <clipPath
       clipPathUnits="userSpaceOnUse"
       id="clipPath4344">
      <rect
         style="opacity:1;fill:#11accd;fill-opacity:1;stroke:#000000;stroke-width:0.80000001;stroke-linecap:round;stroke-linejoin:round;stroke-miterlimit:4;stroke-dasharray:0.8, 4.8;stroke-dashoffset:0;stroke-opacity:1"
         id="rect4346"
         width="383.38446"
         height="333.66602"
         x="-26.25631"
         y="-61.993126" />
    </clipPath>
    <clipPath
       clipPathUnits="userSpaceOnUse"
       id="clipPath4350">
      <rect
         style="opacity:1;fill:#11accd;fill-opacity:1;stroke:#000000;stroke-width:0.80000001;stroke-linecap:round;stroke-linejoin:round;stroke-miterlimit:4;stroke-dasharray:0.8, 4.8;stroke-dashoffset:0;stroke-opacity:1"
         id="rect4352"
         width="392.44797"
         height="318.82394"
         x="-34.975891"
         y="-43.823944" />
    </clipPath>
    <clipPath
       clipPathUnits="userSpaceOnUse"
       id="clipPath4619">
      <rect
         style="opacity:1;fill:#11accd;fill-opacity:1;stroke:#000000;stroke-width:0.80000001;stroke-linecap:round;stroke-linejoin:round;stroke-miterlimit:4;stroke-dasharray:0.8, 4.8;stroke-dashoffset:0;stroke-opacity:1"
         id="rect4621"
         width="399.49026"
         height="317.54352"
         x="1.2804174"
         y="11.920621" />
    </clipPath>
    <clipPath
       clipPathUnits="userSpaceOnUse"
       id="clipPath4623">
      <rect
         style="opacity:1;fill:#11accd;fill-opacity:1;stroke:#000000;stroke-width:0.80000001;stroke-linecap:round;stroke-linejoin:round;stroke-miterlimit:4;stroke-dasharray:0.8, 4.8;stroke-dashoffset:0;stroke-opacity:1"
         id="rect4625"
         width="399.49026"
         height="317.54352"
         x="1.2804174"
         y="11.920621" />
    </clipPath>
    <clipPath
       clipPathUnits="userSpaceOnUse"
       id="clipPath4627">
      <rect
         style="opacity:1;fill:#11accd;fill-opacity:1;stroke:#000000;stroke-width:0.80000001;stroke-linecap:round;stroke-linejoin:round;stroke-miterlimit:4;stroke-dasharray:0.8, 4.8;stroke-dashoffset:0;stroke-opacity:1"
         id="rect4629"
         width="399.49026"
         height="317.54352"
         x="1.2804174"
         y="11.920621" />
    </clipPath>
  </defs>
  <sodipodi:namedview
     pagecolor="#ffffff"
     bordercolor="#666666"
     borderopacity="1"
     objecttolerance="10"
     gridtolerance="10"
     guidetolerance="10"
     inkscape:pageopacity="0"
     inkscape:pageshadow="2"
     inkscape:window-width="640"
     inkscape:window-height="480"
     id="namedview210"
     showgrid="false"
     fit-margin-top="10"
     fit-margin-right="10"
     fit-margin-bottom="10"
     fit-margin-left="10"
     inkscape:zoom="1.5544382"
     inkscape:cx="215.8336"
     inkscape:cy="164.97331"
     inkscape:current-layer="svg2" />
  <xhtml:defs>
    <xhtml:style
       type="text/css"><![CDATA[
svg .grid { stroke-width: 0.5px; stroke: rgb(187, 187, 187); opacity: 0.5; }
svg .domain { stroke-width: 3px; stroke: black; }
svg { border: none; }
svg .path { stroke-width: 4px; stroke: rgb(17, 172, 205); fill: none; }
svg text { font-style: normal; font-variant: normal; font-weight: normal; font-stretch: normal; font-size: 16px; line-height: normal; font-family: katex_main; }
svg .tick text { font-style: normal; font-variant: normal; font-weight: normal; font-stretch: normal; font-size: 12px; line-height: normal; font-family: katex_math; }]]></xhtml:style>
  </xhtml:defs>
  <path
     class="domain"
     d="m 54.195474,291.90332 0,0.5 279.999996,0 0,-0.5"
     id="path8"
     inkscape:connector-curvature="0"
     style="font-size:medium;font-family:sans-serif;text-anchor:middle;fill:none;stroke:#000000" />
  <line
     style="font-size:medium;font-family:sans-serif;text-anchor:middle;fill:none;stroke:#000000"
     x2="54.195473"
     y1="291.90332"
     x1="54.195473"
     id="line12"
     y2="297.90332" />
  <g
     style="font-style:normal;font-variant:normal;font-weight:normal;font-stretch:normal;font-size:12.5px;line-height:125%;font-family:KaTeX_Main;-inkscape-font-specification:'KaTeX_Main, Normal';text-align:center;writing-mode:lr-tb;text-anchor:middle;fill:#000000"
     id="text14">
    <path
       d="m 44.262172,305.75243 0,-0.9125 3.325,0 0,0.9125 -3.325,0 z"
       style="font-style:normal;font-variant:normal;font-weight:normal;font-stretch:normal;font-size:12.5px;line-height:125%;font-family:KaTeX_Main;-inkscape-font-specification:'KaTeX_Main, Normal';text-align:center;writing-mode:lr-tb;text-anchor:middle;fill:#000000"
       id="path5929" />
    <path
       d="m 53.499477,307.98993 q -0.2125,-0.0375 -1.9875,-0.0375 -1.75,0 -1.9625,0.0375 l -0.15,0 0,-0.575 0.325,0 q 0.725,0 0.9375,-0.0375 0.1,-0.0125 0.3,-0.15 l 0,-6.4625 q -0.025,0 -0.1,0.0375 -0.575,0.225 -1.2875,0.2375 l -0.2375,0 0,-0.575 0.2375,0 q 1.05,-0.0375 1.75,-0.475 0.225,-0.125 0.3875,-0.2875 0.025,-0.0375 0.15,-0.0375 0.125,0 0.2125,0.075 l 0,3.7375 0.0125,3.75 q 0.1875,0.1875 0.8125,0.1875 l 0.4125,0 0.325,0 0,0.575 -0.1375,0 z"
       style="font-style:normal;font-variant:normal;font-weight:normal;font-stretch:normal;font-size:12.5px;line-height:125%;font-family:KaTeX_Main;-inkscape-font-specification:'KaTeX_Main, Normal';text-align:center;writing-mode:lr-tb;text-anchor:middle;fill:#000000"
       id="path5931" />
    <path
       d="m 55.524477,307.23993 q 0,-0.325 0.2125,-0.5375 0.2125,-0.2125 0.5375,-0.2125 0.325,0 0.5375,0.225 0.225,0.2125 0.225,0.5125 0,0.325 -0.225,0.55 -0.225,0.2125 -0.525,0.2125 -0.325,0 -0.55,-0.225 -0.2125,-0.225 -0.2125,-0.525 z"
       style="font-style:normal;font-variant:normal;font-weight:normal;font-stretch:normal;font-size:12.5px;line-height:125%;font-family:KaTeX_Main;-inkscape-font-specification:'KaTeX_Main, Normal';text-align:center;writing-mode:lr-tb;text-anchor:middle;fill:#000000"
       id="path5933" />
    <path
       d="m 59.216273,300.67743 q 0.7,-1.0125 1.9125,-1.0125 0.9125,0 1.6,0.625 0.3375,0.325 0.575,0.85 0.4625,1.0375 0.4625,2.85 0,1.9375 -0.5375,2.9625 -0.35,0.725 -1.025,1.05 -0.525,0.2625 -1.0625,0.2625 -1.4375,0 -2.1,-1.3125 -0.5375,-1.025 -0.5375,-2.9625 0,-1.1625 0.15,-1.9125 0.1625,-0.7625 0.5625,-1.4 z m 2.8125,-0.15 q -0.3625,-0.4 -0.8875,-0.4 -0.525,0 -0.9,0.4 -0.275,0.2875 -0.375,0.7 -0.1,0.4125 -0.125,1.425 0,0.075 -0.0125,0.4875 0,0.4125 0,0.6875 0,1.2 0.025,1.675 0.05,0.875 0.15,1.2625 0.1,0.375 0.375,0.65 0.3375,0.375 0.8625,0.375 0.5125,0 0.85,-0.375 0.275,-0.275 0.375,-0.65 0.1,-0.3875 0.15,-1.2625 0.025,-0.475 0.025,-1.675 0,-0.275 -0.0125,-0.6875 0,-0.4125 0,-0.4875 -0.025,-1.0125 -0.125,-1.425 -0.1,-0.4125 -0.375,-0.7 z"
       style="font-style:normal;font-variant:normal;font-weight:normal;font-stretch:normal;font-size:12.5px;line-height:125%;font-family:KaTeX_Main;-inkscape-font-specification:'KaTeX_Main, Normal';text-align:center;writing-mode:lr-tb;text-anchor:middle;fill:#000000"
       id="path5935" />
  </g>
  <line
     style="font-size:medium;font-family:sans-serif;text-anchor:middle;fill:none"
     id="line16"
     y2="315.90332"
     x2="54.195473"
     y1="51.90332"
     x1="54.195473"
     class="grid" />
  <line
     style="font-size:medium;font-family:sans-serif;text-anchor:middle;fill:none;stroke:#000000"
     x2="82.195473"
     y1="291.90332"
     x1="82.195473"
     id="line20"
     y2="297.90332" />
  <g
     style="font-style:normal;font-variant:normal;font-weight:normal;font-stretch:normal;font-size:12.5px;line-height:125%;font-family:KaTeX_Main;-inkscape-font-specification:'KaTeX_Main, Normal';text-align:center;writing-mode:lr-tb;text-anchor:middle;fill:#000000"
     id="text22">
    <path
       d="m 72.262172,305.75243 0,-0.9125 3.325,0 0,0.9125 -3.325,0 z"
       style="font-style:normal;font-variant:normal;font-weight:normal;font-stretch:normal;font-size:12.5px;line-height:125%;font-family:KaTeX_Main;-inkscape-font-specification:'KaTeX_Main, Normal';text-align:center;writing-mode:lr-tb;text-anchor:middle;fill:#000000"
       id="path5920" />
    <path
       d="m 77.499477,300.67743 q 0.7,-1.0125 1.9125,-1.0125 0.9125,0 1.6,0.625 0.3375,0.325 0.575,0.85 0.4625,1.0375 0.4625,2.85 0,1.9375 -0.5375,2.9625 -0.35,0.725 -1.025,1.05 -0.525,0.2625 -1.0625,0.2625 -1.4375,0 -2.1,-1.3125 -0.5375,-1.025 -0.5375,-2.9625 0,-1.1625 0.15,-1.9125 0.1625,-0.7625 0.5625,-1.4 z m 2.8125,-0.15 q -0.3625,-0.4 -0.8875,-0.4 -0.525,0 -0.9,0.4 -0.275,0.2875 -0.375,0.7 -0.1,0.4125 -0.125,1.425 0,0.075 -0.0125,0.4875 0,0.4125 0,0.6875 0,1.2 0.025,1.675 0.05,0.875 0.15,1.2625 0.1,0.375 0.375,0.65 0.3375,0.375 0.8625,0.375 0.5125,0 0.85,-0.375 0.275,-0.275 0.375,-0.65 0.1,-0.3875 0.15,-1.2625 0.025,-0.475 0.025,-1.675 0,-0.275 -0.0125,-0.6875 0,-0.4125 0,-0.4875 -0.025,-1.0125 -0.125,-1.425 -0.1,-0.4125 -0.375,-0.7 z"
       style="font-style:normal;font-variant:normal;font-weight:normal;font-stretch:normal;font-size:12.5px;line-height:125%;font-family:KaTeX_Main;-inkscape-font-specification:'KaTeX_Main, Normal';text-align:center;writing-mode:lr-tb;text-anchor:middle;fill:#000000"
       id="path5922" />
    <path
       d="m 83.524477,307.23993 q 0,-0.325 0.2125,-0.5375 0.2125,-0.2125 0.5375,-0.2125 0.325,0 0.5375,0.225 0.225,0.2125 0.225,0.5125 0,0.325 -0.225,0.55 -0.225,0.2125 -0.525,0.2125 -0.325,0 -0.55,-0.225 -0.2125,-0.225 -0.2125,-0.525 z"
       style="font-style:normal;font-variant:normal;font-weight:normal;font-stretch:normal;font-size:12.5px;line-height:125%;font-family:KaTeX_Main;-inkscape-font-specification:'KaTeX_Main, Normal';text-align:center;writing-mode:lr-tb;text-anchor:middle;fill:#000000"
       id="path5924" />
    <path
       d="m 88.166273,303.80243 q -0.6125,-0.4 -0.95,-0.8375 -0.325,-0.4375 -0.325,-1.15 0,-0.5375 0.2,-0.9 0.275,-0.5625 0.8,-0.9 0.5375,-0.35 1.225,-0.35 0.85,0 1.475,0.45 0.625,0.4375 0.775,1.1375 0.0125,0.075 0.0125,0.3 0,0.275 -0.025,0.375 -0.1875,0.825 -1.1375,1.425 l -0.15,0.1 q 0.7,0.475 0.725,0.5 0.9375,0.75 0.9375,1.8625 0,1.0125 -0.75,1.7375 -0.7375,0.7125 -1.85,0.7125 -1.5375,0 -2.2625,-1.125 -0.3125,-0.45 -0.3125,-1.0875 0,-1.3625 1.6125,-2.25 z m 2.4875,-2.225 q 0,-0.5375 -0.35,-0.9125 -0.35,-0.375 -0.85,-0.475 -0.0875,-0.0125 -0.4125,-0.0125 -0.6625,0 -1.1125,0.45 -0.3125,0.2875 -0.3125,0.6875 0,0.5375 0.45,0.85 0.0625,0.0625 0.8,0.525 l 0.725,0.475 q 0.0125,-0.0125 0.1625,-0.1 0.15,-0.1 0.225,-0.175 0.675,-0.5375 0.675,-1.3125 z m -3.3,4.45 q 0,0.7375 0.5375,1.225 0.5375,0.475 1.25,0.475 0.5125,0 0.925,-0.2125 0.425,-0.2125 0.6375,-0.55 0.2125,-0.325 0.2125,-0.6875 0,-0.5375 -0.4375,-0.95 -0.1,-0.1 -1.0375,-0.7125 -0.175,-0.1125 -0.3875,-0.2375 -0.2,-0.1375 -0.3125,-0.2125 l -0.1,-0.0625 -0.15,0.075 q -0.7875,0.5125 -1.0375,1.25 -0.1,0.325 -0.1,0.6 z"
       style="font-style:normal;font-variant:normal;font-weight:normal;font-stretch:normal;font-size:12.5px;line-height:125%;font-family:KaTeX_Main;-inkscape-font-specification:'KaTeX_Main, Normal';text-align:center;writing-mode:lr-tb;text-anchor:middle;fill:#000000"
       id="path5926" />
  </g>
  <line
     style="font-size:medium;font-family:sans-serif;text-anchor:middle;fill:none"
     id="line24"
     y2="315.90332"
     x2="82.195473"
     y1="51.90332"
     x1="82.195473"
     class="grid" />
  <line
     style="font-size:medium;font-family:sans-serif;text-anchor:middle;fill:none;stroke:#000000"
     x2="110.19547"
     y1="291.90332"
     x1="110.19547"
     id="line28"
     y2="297.90332" />
  <g
     style="font-style:normal;font-variant:normal;font-weight:normal;font-stretch:normal;font-size:12.5px;line-height:125%;font-family:KaTeX_Main;-inkscape-font-specification:'KaTeX_Main, Normal';text-align:center;writing-mode:lr-tb;text-anchor:middle;fill:#000000"
     id="text30">
    <path
       d="m 100.26217,305.75243 0,-0.9125 3.325,0 0,0.9125 -3.325,0 z"
       style="font-style:normal;font-variant:normal;font-weight:normal;font-stretch:normal;font-size:12.5px;line-height:125%;font-family:KaTeX_Main;-inkscape-font-specification:'KaTeX_Main, Normal';text-align:center;writing-mode:lr-tb;text-anchor:middle;fill:#000000"
       id="path5911" />
    <path
       d="m 105.49948,300.67743 q 0.7,-1.0125 1.9125,-1.0125 0.9125,0 1.6,0.625 0.3375,0.325 0.575,0.85 0.4625,1.0375 0.4625,2.85 0,1.9375 -0.5375,2.9625 -0.35,0.725 -1.025,1.05 -0.525,0.2625 -1.0625,0.2625 -1.4375,0 -2.1,-1.3125 -0.5375,-1.025 -0.5375,-2.9625 0,-1.1625 0.15,-1.9125 0.1625,-0.7625 0.5625,-1.4 z m 2.8125,-0.15 q -0.3625,-0.4 -0.8875,-0.4 -0.525,0 -0.9,0.4 -0.275,0.2875 -0.375,0.7 -0.1,0.4125 -0.125,1.425 0,0.075 -0.0125,0.4875 0,0.4125 0,0.6875 0,1.2 0.025,1.675 0.05,0.875 0.15,1.2625 0.1,0.375 0.375,0.65 0.3375,0.375 0.8625,0.375 0.5125,0 0.85,-0.375 0.275,-0.275 0.375,-0.65 0.1,-0.3875 0.15,-1.2625 0.025,-0.475 0.025,-1.675 0,-0.275 -0.0125,-0.6875 0,-0.4125 0,-0.4875 -0.025,-1.0125 -0.125,-1.425 -0.1,-0.4125 -0.375,-0.7 z"
       style="font-style:normal;font-variant:normal;font-weight:normal;font-stretch:normal;font-size:12.5px;line-height:125%;font-family:KaTeX_Main;-inkscape-font-specification:'KaTeX_Main, Normal';text-align:center;writing-mode:lr-tb;text-anchor:middle;fill:#000000"
       id="path5913" />
    <path
       d="m 111.52448,307.23993 q 0,-0.325 0.2125,-0.5375 0.2125,-0.2125 0.5375,-0.2125 0.325,0 0.5375,0.225 0.225,0.2125 0.225,0.5125 0,0.325 -0.225,0.55 -0.225,0.2125 -0.525,0.2125 -0.325,0 -0.55,-0.225 -0.2125,-0.225 -0.2125,-0.525 z"
       style="font-style:normal;font-variant:normal;font-weight:normal;font-stretch:normal;font-size:12.5px;line-height:125%;font-family:KaTeX_Main;-inkscape-font-specification:'KaTeX_Main, Normal';text-align:center;writing-mode:lr-tb;text-anchor:middle;fill:#000000"
       id="path5915" />
    <path
       d="m 118.67877,300.47743 q -0.275,-0.275 -0.775,-0.3125 -0.875,0 -1.4625,0.75 -0.5875,0.8125 -0.5875,2.525 l 0.0125,0.05 0.1,-0.1625 q 0.5125,-0.75 1.3875,-0.75 0.575,0 1.0125,0.2375 0.3,0.175 0.6,0.5125 0.3,0.325 0.4875,0.7 0.2625,0.6125 0.2625,1.3375 l 0,0.225 q 0,0.2875 -0.0625,0.5375 -0.15,0.7375 -0.775,1.3875 -0.5375,0.5625 -1.2,0.7 -0.2,0.05 -0.5,0.05 -0.2375,0 -0.425,-0.0375 -0.925,-0.175 -1.475,-1 -0.7375,-1.1625 -0.7375,-3.15 0,-1.35 0.475,-2.3625 0.475,-1.0125 1.325,-1.575 0.675,-0.475 1.4625,-0.475 0.725,0 1.1625,0.3875 0.45,0.3875 0.45,1.0625 0,0.3125 -0.1875,0.5 -0.175,0.1875 -0.475,0.1875 -0.3,0 -0.4875,-0.175 -0.175,-0.175 -0.175,-0.4875 0,-0.5625 0.5875,-0.6625 z m -0.55,3 q -0.35,-0.45 -0.9,-0.45 -0.4625,0 -0.75,0.2875 -0.6125,0.6125 -0.6125,1.975 0,1.1125 0.15,1.5375 0.125,0.375 0.425,0.6375 0.3,0.2625 0.7125,0.2625 0.6375,0 0.975,-0.475 0.1875,-0.2625 0.2375,-0.625 0.05,-0.3625 0.05,-1.05 l 0,-0.2 0,-0.2 q 0,-0.7125 -0.05,-1.075 -0.05,-0.3625 -0.2375,-0.625 z"
       style="font-style:normal;font-variant:normal;font-weight:normal;font-stretch:normal;font-size:12.5px;line-height:125%;font-family:KaTeX_Main;-inkscape-font-specification:'KaTeX_Main, Normal';text-align:center;writing-mode:lr-tb;text-anchor:middle;fill:#000000"
       id="path5917" />
  </g>
  <line
     style="font-size:medium;font-family:sans-serif;text-anchor:middle;fill:none"
     id="line32"
     y2="315.90332"
     x2="110.19547"
     y1="51.90332"
     x1="110.19547"
     class="grid" />
  <line
     style="font-size:medium;font-family:sans-serif;text-anchor:middle;fill:none;stroke:#000000"
     x2="138.19548"
     y1="291.90332"
     x1="138.19548"
     id="line36"
     y2="297.90332" />
  <g
     style="font-style:normal;font-variant:normal;font-weight:normal;font-stretch:normal;font-size:12.5px;line-height:125%;font-family:KaTeX_Main;-inkscape-font-specification:'KaTeX_Main, Normal';text-align:center;writing-mode:lr-tb;text-anchor:middle;fill:#000000"
     id="text38">
    <path
       d="m 126.97553,305.75243 0,-0.9125 3.325,0 0,0.9125 -3.325,0 z"
       style="font-style:normal;font-variant:normal;font-weight:normal;font-stretch:normal;font-size:12.5px;line-height:125%;font-family:KaTeX_Main;-inkscape-font-specification:'KaTeX_Main, Normal';text-align:center;writing-mode:lr-tb;text-anchor:middle;fill:#000000"
       id="path5902" />
    <path
       d="m 132.21283,300.67743 q 0.7,-1.0125 1.9125,-1.0125 0.9125,0 1.6,0.625 0.3375,0.325 0.575,0.85 0.4625,1.0375 0.4625,2.85 0,1.9375 -0.5375,2.9625 -0.35,0.725 -1.025,1.05 -0.525,0.2625 -1.0625,0.2625 -1.4375,0 -2.1,-1.3125 -0.5375,-1.025 -0.5375,-2.9625 0,-1.1625 0.15,-1.9125 0.1625,-0.7625 0.5625,-1.4 z m 2.8125,-0.15 q -0.3625,-0.4 -0.8875,-0.4 -0.525,0 -0.9,0.4 -0.275,0.2875 -0.375,0.7 -0.1,0.4125 -0.125,1.425 0,0.075 -0.0125,0.4875 0,0.4125 0,0.6875 0,1.2 0.025,1.675 0.05,0.875 0.15,1.2625 0.1,0.375 0.375,0.65 0.3375,0.375 0.8625,0.375 0.5125,0 0.85,-0.375 0.275,-0.275 0.375,-0.65 0.1,-0.3875 0.15,-1.2625 0.025,-0.475 0.025,-1.675 0,-0.275 -0.0125,-0.6875 0,-0.4125 0,-0.4875 -0.025,-1.0125 -0.125,-1.425 -0.1,-0.4125 -0.375,-0.7 z"
       style="font-style:normal;font-variant:normal;font-weight:normal;font-stretch:normal;font-size:12.5px;line-height:125%;font-family:KaTeX_Main;-inkscape-font-specification:'KaTeX_Main, Normal';text-align:center;writing-mode:lr-tb;text-anchor:middle;fill:#000000"
       id="path5904" />
    <path
       d="m 138.23783,307.23993 q 0,-0.325 0.2125,-0.5375 0.2125,-0.2125 0.5375,-0.2125 0.325,0 0.5375,0.225 0.225,0.2125 0.225,0.5125 0,0.325 -0.225,0.55 -0.225,0.2125 -0.525,0.2125 -0.325,0 -0.55,-0.225 -0.2125,-0.225 -0.2125,-0.525 z"
       style="font-style:normal;font-variant:normal;font-weight:normal;font-stretch:normal;font-size:12.5px;line-height:125%;font-family:KaTeX_Main;-inkscape-font-specification:'KaTeX_Main, Normal';text-align:center;writing-mode:lr-tb;text-anchor:middle;fill:#000000"
       id="path5906" />
    <path
       d="m 146.50463,307.98993 q -0.175,-0.0375 -1.6125,-0.0375 -1.5,0 -1.675,0.0375 l -0.1125,0 0,-0.575 0.3875,0 q 0.5375,-0.0125 0.6625,-0.0625 0.1,-0.025 0.15,-0.125 0.0125,-0.025 0.0125,-0.675 l 0,-0.625 -3.2375,0 0,-0.575 1.8875,-2.8875 q 1.9125,-2.9 1.9375,-2.9125 0.025,-0.025 0.2625,-0.025 l 0.225,0 0.075,0.075 0,5.75 1.15,0 0,0.575 -1.15,0 0,0.6375 q 0,0.5125 0,0.6 0.0125,0.0875 0.075,0.15 0.1,0.0875 0.7125,0.1 l 0.3625,0 0,0.575 -0.1125,0 z m -2.1125,-2.6375 0,-4.175 -2.7375,4.1625 1.3625,0.0125 1.375,0 z"
       style="font-style:normal;font-variant:normal;font-weight:normal;font-stretch:normal;font-size:12.5px;line-height:125%;font-family:KaTeX_Main;-inkscape-font-specification:'KaTeX_Main, Normal';text-align:center;writing-mode:lr-tb;text-anchor:middle;fill:#000000"
       id="path5908" />
  </g>
  <line
     style="font-size:medium;font-family:sans-serif;text-anchor:middle;fill:none"
     id="line40"
     y2="315.90332"
     x2="138.19548"
     y1="51.90332"
     x1="138.19548"
     class="grid" />
  <line
     style="font-size:medium;font-family:sans-serif;text-anchor:middle;fill:none;stroke:#000000"
     x2="166.19548"
     y1="291.90332"
     x1="166.19548"
     id="line44"
     y2="297.90332" />
  <g
     style="font-style:normal;font-variant:normal;font-weight:normal;font-stretch:normal;font-size:12.5px;line-height:125%;font-family:KaTeX_Main;-inkscape-font-specification:'KaTeX_Main, Normal';text-align:center;writing-mode:lr-tb;text-anchor:middle;fill:#000000"
     id="text46">
    <path
       d="m 156.26218,305.75243 0,-0.9125 3.325,0 0,0.9125 -3.325,0 z"
       style="font-style:normal;font-variant:normal;font-weight:normal;font-stretch:normal;font-size:12.5px;line-height:125%;font-family:KaTeX_Main;-inkscape-font-specification:'KaTeX_Main, Normal';text-align:center;writing-mode:lr-tb;text-anchor:middle;fill:#000000"
       id="path5893" />
    <path
       d="m 161.49948,300.67743 q 0.7,-1.0125 1.9125,-1.0125 0.9125,0 1.6,0.625 0.3375,0.325 0.575,0.85 0.4625,1.0375 0.4625,2.85 0,1.9375 -0.5375,2.9625 -0.35,0.725 -1.025,1.05 -0.525,0.2625 -1.0625,0.2625 -1.4375,0 -2.1,-1.3125 -0.5375,-1.025 -0.5375,-2.9625 0,-1.1625 0.15,-1.9125 0.1625,-0.7625 0.5625,-1.4 z m 2.8125,-0.15 q -0.3625,-0.4 -0.8875,-0.4 -0.525,0 -0.9,0.4 -0.275,0.2875 -0.375,0.7 -0.1,0.4125 -0.125,1.425 0,0.075 -0.0125,0.4875 0,0.4125 0,0.6875 0,1.2 0.025,1.675 0.05,0.875 0.15,1.2625 0.1,0.375 0.375,0.65 0.3375,0.375 0.8625,0.375 0.5125,0 0.85,-0.375 0.275,-0.275 0.375,-0.65 0.1,-0.3875 0.15,-1.2625 0.025,-0.475 0.025,-1.675 0,-0.275 -0.0125,-0.6875 0,-0.4125 0,-0.4875 -0.025,-1.0125 -0.125,-1.425 -0.1,-0.4125 -0.375,-0.7 z"
       style="font-style:normal;font-variant:normal;font-weight:normal;font-stretch:normal;font-size:12.5px;line-height:125%;font-family:KaTeX_Main;-inkscape-font-specification:'KaTeX_Main, Normal';text-align:center;writing-mode:lr-tb;text-anchor:middle;fill:#000000"
       id="path5895" />
    <path
       d="m 167.52448,307.23993 q 0,-0.325 0.2125,-0.5375 0.2125,-0.2125 0.5375,-0.2125 0.325,0 0.5375,0.225 0.225,0.2125 0.225,0.5125 0,0.325 -0.225,0.55 -0.225,0.2125 -0.525,0.2125 -0.325,0 -0.55,-0.225 -0.2125,-0.225 -0.2125,-0.525 z"
       style="font-style:normal;font-variant:normal;font-weight:normal;font-stretch:normal;font-size:12.5px;line-height:125%;font-family:KaTeX_Main;-inkscape-font-specification:'KaTeX_Main, Normal';text-align:center;writing-mode:lr-tb;text-anchor:middle;fill:#000000"
       id="path5897" />
    <path
       d="m 171.39128,302.62743 q -0.35,0 -0.55,-0.225 -0.2,-0.225 -0.2,-0.55 0,-0.9 0.675,-1.5375 0.6875,-0.65 1.6375,-0.65 1.075,0 1.775,0.5875 0.7125,0.575 0.875,1.5125 0.025,0.225 0.025,0.4125 0,0.725 -0.4375,1.3625 -0.35,0.525 -1.4125,1.4375 -0.45,0.3875 -1.25,1.15 l -0.7375,0.7 0.95,0.0125 q 1.9625,0 2.0875,-0.0625 0.05,-0.0125 0.125,-0.2625 0.05,-0.1375 0.175,-0.85 l 0,-0.0375 0.5,0 0,0.0375 -0.35,2.2875 0,0.0375 -4.6375,0 0,-0.2375 q 0,-0.25 0.025,-0.2875 0.0125,-0.0125 1.05,-1.1875 1.3625,-1.5125 1.75,-2 0.8375,-1.1375 0.8375,-2.0875 0,-0.825 -0.4375,-1.375 -0.425,-0.5625 -1.2,-0.5625 -0.725,0 -1.175,0.65 -0.025,0.05 -0.075,0.1375 -0.0375,0.0625 -0.0375,0.075 0,0.0125 0.0625,0.0125 0.3125,0 0.5,0.225 0.2,0.225 0.2,0.525 0,0.3125 -0.2125,0.5375 -0.2,0.2125 -0.5375,0.2125 z"
       style="font-style:normal;font-variant:normal;font-weight:normal;font-stretch:normal;font-size:12.5px;line-height:125%;font-family:KaTeX_Main;-inkscape-font-specification:'KaTeX_Main, Normal';text-align:center;writing-mode:lr-tb;text-anchor:middle;fill:#000000"
       id="path5899" />
  </g>
  <line
     style="font-size:medium;font-family:sans-serif;text-anchor:middle;fill:none"
     id="line48"
     y2="315.90332"
     x2="166.19548"
     y1="51.90332"
     x1="166.19548"
     class="grid" />
  <line
     style="font-size:medium;font-family:sans-serif;text-anchor:middle;fill:none;stroke:#000000"
     x2="194.19548"
     y1="291.90332"
     x1="194.19548"
     id="line52"
     y2="297.90332" />
  <line
     style="font-size:medium;font-family:sans-serif;text-anchor:middle;fill:none"
     id="line54"
     y2="315.90332"
     x2="194.19548"
     y1="51.90332"
     x1="194.19548"
     class="grid" />
  <line
     style="font-size:medium;font-family:sans-serif;text-anchor:middle;fill:none;stroke:#000000"
     x2="222.19548"
     y1="291.90332"
     x1="222.19548"
     id="line58"
     y2="297.90332" />
  <g
     style="font-style:normal;font-variant:normal;font-weight:normal;font-stretch:normal;font-size:12.5px;line-height:125%;font-family:KaTeX_Main;-inkscape-font-specification:'KaTeX_Main, Normal';text-align:center;writing-mode:lr-tb;text-anchor:middle;fill:#000000"
     id="text60">
    <path
       d="m 215.41208,300.67743 q 0.7,-1.0125 1.9125,-1.0125 0.9125,0 1.6,0.625 0.3375,0.325 0.575,0.85 0.4625,1.0375 0.4625,2.85 0,1.9375 -0.5375,2.9625 -0.35,0.725 -1.025,1.05 -0.525,0.2625 -1.0625,0.2625 -1.4375,0 -2.1,-1.3125 -0.5375,-1.025 -0.5375,-2.9625 0,-1.1625 0.15,-1.9125 0.1625,-0.7625 0.5625,-1.4 z m 2.8125,-0.15 q -0.3625,-0.4 -0.8875,-0.4 -0.525,0 -0.9,0.4 -0.275,0.2875 -0.375,0.7 -0.1,0.4125 -0.125,1.425 0,0.075 -0.0125,0.4875 0,0.4125 0,0.6875 0,1.2 0.025,1.675 0.05,0.875 0.15,1.2625 0.1,0.375 0.375,0.65 0.3375,0.375 0.8625,0.375 0.5125,0 0.85,-0.375 0.275,-0.275 0.375,-0.65 0.1,-0.3875 0.15,-1.2625 0.025,-0.475 0.025,-1.675 0,-0.275 -0.0125,-0.6875 0,-0.4125 0,-0.4875 -0.025,-1.0125 -0.125,-1.425 -0.1,-0.4125 -0.375,-0.7 z"
       style="font-style:normal;font-variant:normal;font-weight:normal;font-stretch:normal;font-size:12.5px;line-height:125%;font-family:KaTeX_Main;-inkscape-font-specification:'KaTeX_Main, Normal';text-align:center;writing-mode:lr-tb;text-anchor:middle;fill:#000000"
       id="path5886" />
    <path
       d="m 221.43708,307.23993 q 0,-0.325 0.2125,-0.5375 0.2125,-0.2125 0.5375,-0.2125 0.325,0 0.5375,0.225 0.225,0.2125 0.225,0.5125 0,0.325 -0.225,0.55 -0.225,0.2125 -0.525,0.2125 -0.325,0 -0.55,-0.225 -0.2125,-0.225 -0.2125,-0.525 z"
       style="font-style:normal;font-variant:normal;font-weight:normal;font-stretch:normal;font-size:12.5px;line-height:125%;font-family:KaTeX_Main;-inkscape-font-specification:'KaTeX_Main, Normal';text-align:center;writing-mode:lr-tb;text-anchor:middle;fill:#000000"
       id="path5888" />
    <path
       d="m 225.30388,302.62743 q -0.35,0 -0.55,-0.225 -0.2,-0.225 -0.2,-0.55 0,-0.9 0.675,-1.5375 0.6875,-0.65 1.6375,-0.65 1.075,0 1.775,0.5875 0.7125,0.575 0.875,1.5125 0.025,0.225 0.025,0.4125 0,0.725 -0.4375,1.3625 -0.35,0.525 -1.4125,1.4375 -0.45,0.3875 -1.25,1.15 l -0.7375,0.7 0.95,0.0125 q 1.9625,0 2.0875,-0.0625 0.05,-0.0125 0.125,-0.2625 0.05,-0.1375 0.175,-0.85 l 0,-0.0375 0.5,0 0,0.0375 -0.35,2.2875 0,0.0375 -4.6375,0 0,-0.2375 q 0,-0.25 0.025,-0.2875 0.0125,-0.0125 1.05,-1.1875 1.3625,-1.5125 1.75,-2 0.8375,-1.1375 0.8375,-2.0875 0,-0.825 -0.4375,-1.375 -0.425,-0.5625 -1.2,-0.5625 -0.725,0 -1.175,0.65 -0.025,0.05 -0.075,0.1375 -0.0375,0.0625 -0.0375,0.075 0,0.0125 0.0625,0.0125 0.3125,0 0.5,0.225 0.2,0.225 0.2,0.525 0,0.3125 -0.2125,0.5375 -0.2,0.2125 -0.5375,0.2125 z"
       style="font-style:normal;font-variant:normal;font-weight:normal;font-stretch:normal;font-size:12.5px;line-height:125%;font-family:KaTeX_Main;-inkscape-font-specification:'KaTeX_Main, Normal';text-align:center;writing-mode:lr-tb;text-anchor:middle;fill:#000000"
       id="path5890" />
  </g>
  <line
     style="font-size:medium;font-family:sans-serif;text-anchor:middle;fill:none"
     id="line62"
     y2="315.90332"
     x2="222.19548"
     y1="51.90332"
     x1="222.19548"
     class="grid" />
  <line
     style="font-size:medium;font-family:sans-serif;text-anchor:middle;fill:none;stroke:#000000"
     x2="250.19548"
     y1="291.90332"
     x1="250.19548"
     id="line66"
     y2="297.90332" />
  <g
     style="font-style:normal;font-variant:normal;font-weight:normal;font-stretch:normal;font-size:12.5px;line-height:125%;font-family:KaTeX_Main;-inkscape-font-specification:'KaTeX_Main, Normal';text-align:center;writing-mode:lr-tb;text-anchor:middle;fill:#000000"
     id="text68">
    <path
       d="m 243.41208,300.67743 q 0.7,-1.0125 1.9125,-1.0125 0.9125,0 1.6,0.625 0.3375,0.325 0.575,0.85 0.4625,1.0375 0.4625,2.85 0,1.9375 -0.5375,2.9625 -0.35,0.725 -1.025,1.05 -0.525,0.2625 -1.0625,0.2625 -1.4375,0 -2.1,-1.3125 -0.5375,-1.025 -0.5375,-2.9625 0,-1.1625 0.15,-1.9125 0.1625,-0.7625 0.5625,-1.4 z m 2.8125,-0.15 q -0.3625,-0.4 -0.8875,-0.4 -0.525,0 -0.9,0.4 -0.275,0.2875 -0.375,0.7 -0.1,0.4125 -0.125,1.425 0,0.075 -0.0125,0.4875 0,0.4125 0,0.6875 0,1.2 0.025,1.675 0.05,0.875 0.15,1.2625 0.1,0.375 0.375,0.65 0.3375,0.375 0.8625,0.375 0.5125,0 0.85,-0.375 0.275,-0.275 0.375,-0.65 0.1,-0.3875 0.15,-1.2625 0.025,-0.475 0.025,-1.675 0,-0.275 -0.0125,-0.6875 0,-0.4125 0,-0.4875 -0.025,-1.0125 -0.125,-1.425 -0.1,-0.4125 -0.375,-0.7 z"
       style="font-style:normal;font-variant:normal;font-weight:normal;font-stretch:normal;font-size:12.5px;line-height:125%;font-family:KaTeX_Main;-inkscape-font-specification:'KaTeX_Main, Normal';text-align:center;writing-mode:lr-tb;text-anchor:middle;fill:#000000"
       id="path5879" />
    <path
       d="m 249.43708,307.23993 q 0,-0.325 0.2125,-0.5375 0.2125,-0.2125 0.5375,-0.2125 0.325,0 0.5375,0.225 0.225,0.2125 0.225,0.5125 0,0.325 -0.225,0.55 -0.225,0.2125 -0.525,0.2125 -0.325,0 -0.55,-0.225 -0.2125,-0.225 -0.2125,-0.525 z"
       style="font-style:normal;font-variant:normal;font-weight:normal;font-stretch:normal;font-size:12.5px;line-height:125%;font-family:KaTeX_Main;-inkscape-font-specification:'KaTeX_Main, Normal';text-align:center;writing-mode:lr-tb;text-anchor:middle;fill:#000000"
       id="path5881" />
    <path
       d="m 257.70388,307.98993 q -0.175,-0.0375 -1.6125,-0.0375 -1.5,0 -1.675,0.0375 l -0.1125,0 0,-0.575 0.3875,0 q 0.5375,-0.0125 0.6625,-0.0625 0.1,-0.025 0.15,-0.125 0.0125,-0.025 0.0125,-0.675 l 0,-0.625 -3.2375,0 0,-0.575 1.8875,-2.8875 q 1.9125,-2.9 1.9375,-2.9125 0.025,-0.025 0.2625,-0.025 l 0.225,0 0.075,0.075 0,5.75 1.15,0 0,0.575 -1.15,0 0,0.6375 q 0,0.5125 0,0.6 0.0125,0.0875 0.075,0.15 0.1,0.0875 0.7125,0.1 l 0.3625,0 0,0.575 -0.1125,0 z m -2.1125,-2.6375 0,-4.175 -2.7375,4.1625 1.3625,0.0125 1.375,0 z"
       style="font-style:normal;font-variant:normal;font-weight:normal;font-stretch:normal;font-size:12.5px;line-height:125%;font-family:KaTeX_Main;-inkscape-font-specification:'KaTeX_Main, Normal';text-align:center;writing-mode:lr-tb;text-anchor:middle;fill:#000000"
       id="path5883" />
  </g>
  <line
     style="font-size:medium;font-family:sans-serif;text-anchor:middle;fill:none"
     id="line70"
     y2="315.90332"
     x2="250.19548"
     y1="51.90332"
     x1="250.19548"
     class="grid" />
  <line
     style="font-size:medium;font-family:sans-serif;text-anchor:middle;fill:none;stroke:#000000"
     x2="278.19547"
     y1="291.90332"
     x1="278.19547"
     id="line74"
     y2="297.90332" />
  <g
     style="font-style:normal;font-variant:normal;font-weight:normal;font-stretch:normal;font-size:12.5px;line-height:125%;font-family:KaTeX_Main;-inkscape-font-specification:'KaTeX_Main, Normal';text-align:center;writing-mode:lr-tb;text-anchor:middle;fill:#000000"
     id="text76">
    <path
       d="m 271.41207,300.67743 q 0.7,-1.0125 1.9125,-1.0125 0.9125,0 1.6,0.625 0.3375,0.325 0.575,0.85 0.4625,1.0375 0.4625,2.85 0,1.9375 -0.5375,2.9625 -0.35,0.725 -1.025,1.05 -0.525,0.2625 -1.0625,0.2625 -1.4375,0 -2.1,-1.3125 -0.5375,-1.025 -0.5375,-2.9625 0,-1.1625 0.15,-1.9125 0.1625,-0.7625 0.5625,-1.4 z m 2.8125,-0.15 q -0.3625,-0.4 -0.8875,-0.4 -0.525,0 -0.9,0.4 -0.275,0.2875 -0.375,0.7 -0.1,0.4125 -0.125,1.425 0,0.075 -0.0125,0.4875 0,0.4125 0,0.6875 0,1.2 0.025,1.675 0.05,0.875 0.15,1.2625 0.1,0.375 0.375,0.65 0.3375,0.375 0.8625,0.375 0.5125,0 0.85,-0.375 0.275,-0.275 0.375,-0.65 0.1,-0.3875 0.15,-1.2625 0.025,-0.475 0.025,-1.675 0,-0.275 -0.0125,-0.6875 0,-0.4125 0,-0.4875 -0.025,-1.0125 -0.125,-1.425 -0.1,-0.4125 -0.375,-0.7 z"
       style="font-style:normal;font-variant:normal;font-weight:normal;font-stretch:normal;font-size:12.5px;line-height:125%;font-family:KaTeX_Main;-inkscape-font-specification:'KaTeX_Main, Normal';text-align:center;writing-mode:lr-tb;text-anchor:middle;fill:#000000"
       id="path5872" />
    <path
       d="m 277.43707,307.23993 q 0,-0.325 0.2125,-0.5375 0.2125,-0.2125 0.5375,-0.2125 0.325,0 0.5375,0.225 0.225,0.2125 0.225,0.5125 0,0.325 -0.225,0.55 -0.225,0.2125 -0.525,0.2125 -0.325,0 -0.55,-0.225 -0.2125,-0.225 -0.2125,-0.525 z"
       style="font-style:normal;font-variant:normal;font-weight:normal;font-stretch:normal;font-size:12.5px;line-height:125%;font-family:KaTeX_Main;-inkscape-font-specification:'KaTeX_Main, Normal';text-align:center;writing-mode:lr-tb;text-anchor:middle;fill:#000000"
       id="path5874" />
    <path
       d="m 284.59136,300.47743 q -0.275,-0.275 -0.775,-0.3125 -0.875,0 -1.4625,0.75 -0.5875,0.8125 -0.5875,2.525 l 0.0125,0.05 0.1,-0.1625 q 0.5125,-0.75 1.3875,-0.75 0.575,0 1.0125,0.2375 0.3,0.175 0.6,0.5125 0.3,0.325 0.4875,0.7 0.2625,0.6125 0.2625,1.3375 l 0,0.225 q 0,0.2875 -0.0625,0.5375 -0.15,0.7375 -0.775,1.3875 -0.5375,0.5625 -1.2,0.7 -0.2,0.05 -0.5,0.05 -0.2375,0 -0.425,-0.0375 -0.925,-0.175 -1.475,-1 -0.7375,-1.1625 -0.7375,-3.15 0,-1.35 0.475,-2.3625 0.475,-1.0125 1.325,-1.575 0.675,-0.475 1.4625,-0.475 0.725,0 1.1625,0.3875 0.45,0.3875 0.45,1.0625 0,0.3125 -0.1875,0.5 -0.175,0.1875 -0.475,0.1875 -0.3,0 -0.4875,-0.175 -0.175,-0.175 -0.175,-0.4875 0,-0.5625 0.5875,-0.6625 z m -0.55,3 q -0.35,-0.45 -0.9,-0.45 -0.4625,0 -0.75,0.2875 -0.6125,0.6125 -0.6125,1.975 0,1.1125 0.15,1.5375 0.125,0.375 0.425,0.6375 0.3,0.2625 0.7125,0.2625 0.6375,0 0.975,-0.475 0.1875,-0.2625 0.2375,-0.625 0.05,-0.3625 0.05,-1.05 l 0,-0.2 0,-0.2 q 0,-0.7125 -0.05,-1.075 -0.05,-0.3625 -0.2375,-0.625 z"
       style="font-style:normal;font-variant:normal;font-weight:normal;font-stretch:normal;font-size:12.5px;line-height:125%;font-family:KaTeX_Main;-inkscape-font-specification:'KaTeX_Main, Normal';text-align:center;writing-mode:lr-tb;text-anchor:middle;fill:#000000"
       id="path5876" />
  </g>
  <line
     style="font-size:medium;font-family:sans-serif;text-anchor:middle;fill:none"
     id="line78"
     y2="315.90332"
     x2="278.19547"
     y1="51.90332"
     x1="278.19547"
     class="grid" />
  <line
     style="font-size:medium;font-family:sans-serif;text-anchor:middle;fill:none;stroke:#000000"
     x2="306.19547"
     y1="291.90332"
     x1="306.19547"
     id="line82"
     y2="297.90332" />
  <g
     style="font-style:normal;font-variant:normal;font-weight:normal;font-stretch:normal;font-size:12.5px;line-height:125%;font-family:KaTeX_Main;-inkscape-font-specification:'KaTeX_Main, Normal';text-align:center;writing-mode:lr-tb;text-anchor:middle;fill:#000000"
     id="text84">
    <path
       d="m 299.41207,300.67743 q 0.7,-1.0125 1.9125,-1.0125 0.9125,0 1.6,0.625 0.3375,0.325 0.575,0.85 0.4625,1.0375 0.4625,2.85 0,1.9375 -0.5375,2.9625 -0.35,0.725 -1.025,1.05 -0.525,0.2625 -1.0625,0.2625 -1.4375,0 -2.1,-1.3125 -0.5375,-1.025 -0.5375,-2.9625 0,-1.1625 0.15,-1.9125 0.1625,-0.7625 0.5625,-1.4 z m 2.8125,-0.15 q -0.3625,-0.4 -0.8875,-0.4 -0.525,0 -0.9,0.4 -0.275,0.2875 -0.375,0.7 -0.1,0.4125 -0.125,1.425 0,0.075 -0.0125,0.4875 0,0.4125 0,0.6875 0,1.2 0.025,1.675 0.05,0.875 0.15,1.2625 0.1,0.375 0.375,0.65 0.3375,0.375 0.8625,0.375 0.5125,0 0.85,-0.375 0.275,-0.275 0.375,-0.65 0.1,-0.3875 0.15,-1.2625 0.025,-0.475 0.025,-1.675 0,-0.275 -0.0125,-0.6875 0,-0.4125 0,-0.4875 -0.025,-1.0125 -0.125,-1.425 -0.1,-0.4125 -0.375,-0.7 z"
       style="font-style:normal;font-variant:normal;font-weight:normal;font-stretch:normal;font-size:12.5px;line-height:125%;font-family:KaTeX_Main;-inkscape-font-specification:'KaTeX_Main, Normal';text-align:center;writing-mode:lr-tb;text-anchor:middle;fill:#000000"
       id="path5865" />
    <path
       d="m 305.43707,307.23993 q 0,-0.325 0.2125,-0.5375 0.2125,-0.2125 0.5375,-0.2125 0.325,0 0.5375,0.225 0.225,0.2125 0.225,0.5125 0,0.325 -0.225,0.55 -0.225,0.2125 -0.525,0.2125 -0.325,0 -0.55,-0.225 -0.2125,-0.225 -0.2125,-0.525 z"
       style="font-style:normal;font-variant:normal;font-weight:normal;font-stretch:normal;font-size:12.5px;line-height:125%;font-family:KaTeX_Main;-inkscape-font-specification:'KaTeX_Main, Normal';text-align:center;writing-mode:lr-tb;text-anchor:middle;fill:#000000"
       id="path5867" />
    <path
       d="m 310.07886,303.80243 q -0.6125,-0.4 -0.95,-0.8375 -0.325,-0.4375 -0.325,-1.15 0,-0.5375 0.2,-0.9 0.275,-0.5625 0.8,-0.9 0.5375,-0.35 1.225,-0.35 0.85,0 1.475,0.45 0.625,0.4375 0.775,1.1375 0.0125,0.075 0.0125,0.3 0,0.275 -0.025,0.375 -0.1875,0.825 -1.1375,1.425 l -0.15,0.1 q 0.7,0.475 0.725,0.5 0.9375,0.75 0.9375,1.8625 0,1.0125 -0.75,1.7375 -0.7375,0.7125 -1.85,0.7125 -1.5375,0 -2.2625,-1.125 -0.3125,-0.45 -0.3125,-1.0875 0,-1.3625 1.6125,-2.25 z m 2.4875,-2.225 q 0,-0.5375 -0.35,-0.9125 -0.35,-0.375 -0.85,-0.475 -0.0875,-0.0125 -0.4125,-0.0125 -0.6625,0 -1.1125,0.45 -0.3125,0.2875 -0.3125,0.6875 0,0.5375 0.45,0.85 0.0625,0.0625 0.8,0.525 l 0.725,0.475 q 0.0125,-0.0125 0.1625,-0.1 0.15,-0.1 0.225,-0.175 0.675,-0.5375 0.675,-1.3125 z m -3.3,4.45 q 0,0.7375 0.5375,1.225 0.5375,0.475 1.25,0.475 0.5125,0 0.925,-0.2125 0.425,-0.2125 0.6375,-0.55 0.2125,-0.325 0.2125,-0.6875 0,-0.5375 -0.4375,-0.95 -0.1,-0.1 -1.0375,-0.7125 -0.175,-0.1125 -0.3875,-0.2375 -0.2,-0.1375 -0.3125,-0.2125 l -0.1,-0.0625 -0.15,0.075 q -0.7875,0.5125 -1.0375,1.25 -0.1,0.325 -0.1,0.6 z"
       style="font-style:normal;font-variant:normal;font-weight:normal;font-stretch:normal;font-size:12.5px;line-height:125%;font-family:KaTeX_Main;-inkscape-font-specification:'KaTeX_Main, Normal';text-align:center;writing-mode:lr-tb;text-anchor:middle;fill:#000000"
       id="path5869" />
  </g>
  <line
     style="font-size:medium;font-family:sans-serif;text-anchor:middle;fill:none"
     id="line86"
     y2="315.90332"
     x2="306.19547"
     y1="51.90332"
     x1="306.19547"
     class="grid" />
  <line
     style="font-size:medium;font-family:sans-serif;text-anchor:middle;fill:none;stroke:#000000"
     x2="334.19547"
     y1="291.90332"
     x1="334.19547"
     id="line90"
     y2="297.90332" />
  <g
     style="font-style:normal;font-variant:normal;font-weight:normal;font-stretch:normal;font-size:12.5px;line-height:125%;font-family:KaTeX_Main;-inkscape-font-specification:'KaTeX_Main, Normal';text-align:center;writing-mode:lr-tb;text-anchor:middle;fill:#000000"
     id="text92">
    <path
       d="m 331.41207,307.98993 q -0.2125,-0.0375 -1.9875,-0.0375 -1.75,0 -1.9625,0.0375 l -0.15,0 0,-0.575 0.325,0 q 0.725,0 0.9375,-0.0375 0.1,-0.0125 0.3,-0.15 l 0,-6.4625 q -0.025,0 -0.1,0.0375 -0.575,0.225 -1.2875,0.2375 l -0.2375,0 0,-0.575 0.2375,0 q 1.05,-0.0375 1.75,-0.475 0.225,-0.125 0.3875,-0.2875 0.025,-0.0375 0.15,-0.0375 0.125,0 0.2125,0.075 l 0,3.7375 0.0125,3.75 q 0.1875,0.1875 0.8125,0.1875 l 0.4125,0 0.325,0 0,0.575 -0.1375,0 z"
       style="font-style:normal;font-variant:normal;font-weight:normal;font-stretch:normal;font-size:12.5px;line-height:125%;font-family:KaTeX_Main;-inkscape-font-specification:'KaTeX_Main, Normal';text-align:center;writing-mode:lr-tb;text-anchor:middle;fill:#000000"
       id="path5858" />
    <path
       d="m 333.43707,307.23993 q 0,-0.325 0.2125,-0.5375 0.2125,-0.2125 0.5375,-0.2125 0.325,0 0.5375,0.225 0.225,0.2125 0.225,0.5125 0,0.325 -0.225,0.55 -0.225,0.2125 -0.525,0.2125 -0.325,0 -0.55,-0.225 -0.2125,-0.225 -0.2125,-0.525 z"
       style="font-style:normal;font-variant:normal;font-weight:normal;font-stretch:normal;font-size:12.5px;line-height:125%;font-family:KaTeX_Main;-inkscape-font-specification:'KaTeX_Main, Normal';text-align:center;writing-mode:lr-tb;text-anchor:middle;fill:#000000"
       id="path5860" />
    <path
       d="m 337.12886,300.67743 q 0.7,-1.0125 1.9125,-1.0125 0.9125,0 1.6,0.625 0.3375,0.325 0.575,0.85 0.4625,1.0375 0.4625,2.85 0,1.9375 -0.5375,2.9625 -0.35,0.725 -1.025,1.05 -0.525,0.2625 -1.0625,0.2625 -1.4375,0 -2.1,-1.3125 -0.5375,-1.025 -0.5375,-2.9625 0,-1.1625 0.15,-1.9125 0.1625,-0.7625 0.5625,-1.4 z m 2.8125,-0.15 q -0.3625,-0.4 -0.8875,-0.4 -0.525,0 -0.9,0.4 -0.275,0.2875 -0.375,0.7 -0.1,0.4125 -0.125,1.425 0,0.075 -0.0125,0.4875 0,0.4125 0,0.6875 0,1.2 0.025,1.675 0.05,0.875 0.15,1.2625 0.1,0.375 0.375,0.65 0.3375,0.375 0.8625,0.375 0.5125,0 0.85,-0.375 0.275,-0.275 0.375,-0.65 0.1,-0.3875 0.15,-1.2625 0.025,-0.475 0.025,-1.675 0,-0.275 -0.0125,-0.6875 0,-0.4125 0,-0.4875 -0.025,-1.0125 -0.125,-1.425 -0.1,-0.4125 -0.375,-0.7 z"
       style="font-style:normal;font-variant:normal;font-weight:normal;font-stretch:normal;font-size:12.5px;line-height:125%;font-family:KaTeX_Main;-inkscape-font-specification:'KaTeX_Main, Normal';text-align:center;writing-mode:lr-tb;text-anchor:middle;fill:#000000"
       id="path5862" />
  </g>
  <line
     style="font-size:medium;font-family:sans-serif;text-anchor:middle;fill:none"
     id="line94"
     y2="315.90332"
     x2="334.19547"
     y1="51.90332"
     x1="334.19547"
     class="grid" />
  <g
     style="font-style:normal;font-variant:normal;font-weight:normal;font-stretch:normal;font-size:22.5px;line-height:125%;font-family:KaTeX_Main;-inkscape-font-specification:'KaTeX_Main, Normal';text-align:center;writing-mode:lr-tb;text-anchor:middle;fill:#000000"
     id="text96">
    <path
       d="m 348.22862,295.69412 q -1.44,0 -2.295,-0.72 -0.8325,-0.7425 -0.8325,-2.16 0,-0.405 0.045,-0.765 0.2025,-1.08 1.0575,-3.3075 l 0.36,-1.08 q 0.135,-0.405 0.135,-0.765 0,-0.5625 -0.4275,-0.5625 -0.1575,0 -0.36,0.0675 -1.1475,0.405 -1.7325,2.5875 0,0.0225 -0.0225,0.09 -0.0225,0.045 -0.045,0.0675 0,0 -0.0225,0.0225 -0.0225,0.0225 -0.09,0.0225 -0.045,0 -0.09,0 -0.045,0 -0.18,0 l -0.315,0 q -0.135,-0.135 -0.135,-0.2025 0,-0.0675 0.0675,-0.3375 0.54,-1.7775 1.665,-2.655 0.6075,-0.4725 1.395,-0.4725 0.8775,0 1.44,0.495 0.5625,0.495 0.5625,1.305 0,0.3825 -0.0675,0.585 0,0.1575 -0.3375,0.99 -1.035,2.8125 -1.1025,4.005 0,0.6075 0.1125,0.99 0.2925,0.9675 1.4175,0.9675 0.6075,0 1.08,-0.36 1.395,-0.9225 2.3175,-4.2525 0.18,-0.63 0.18,-1.035 0,-0.99 -0.8775,-1.7775 -0.2925,-0.27 -0.2925,-0.6075 0,-0.5175 0.405,-0.9225 0.4275,-0.4275 0.945,-0.4275 0.54,0 0.8325,0.5175 0.2925,0.495 0.2925,1.1925 0,0.7875 -0.45,2.5875 -0.4275,1.7325 -1.08,3.015 -1.4175,2.9025 -3.555,2.9025 z"
       style="font-style:normal;font-variant:normal;font-weight:normal;font-stretch:normal;font-size:22.5px;line-height:125%;font-family:KaTeX_Math;-inkscape-font-specification:'KaTeX_Math, Normal';text-align:center;writing-mode:lr-tb;text-anchor:middle"
       id="path5841" />
    <path
       d="m 366.82206,300.86912 q 0,0.2025 -0.405,0.2025 l -0.2925,0 q -0.1575,-0.135 -0.63,-0.54 -4.05,-3.69 -4.05,-10.71 0,-2.745 0.6525,-5.0175 1.035,-3.5325 3.3975,-5.6925 0.1575,-0.135 0.36,-0.2925 0.2025,-0.18 0.27,-0.2475 l 0.2925,0 q 0.27,0 0.3375,0.0675 0.0675,0.0675 0.0675,0.135 0,0.09 -0.2475,0.3375 -3.4875,3.69 -3.4875,10.71 0,7.02 3.4875,10.71 0.2475,0.2475 0.2475,0.3375 z"
       style="font-style:normal;font-variant:normal;font-weight:normal;font-stretch:normal;font-size:22.5px;line-height:125%;font-family:KaTeX_Main;-inkscape-font-specification:'KaTeX_Main, Normal';text-align:center;writing-mode:lr-tb;text-anchor:middle;fill:#000000"
       id="path5843" />
    <path
       d="m 375.67968,285.74912 q 0.1125,0.045 1.08,0.045 l 0.81,0 q 1.2825,0 1.8225,-0.045 l 0.1125,0 0,1.035 -0.2475,0 q -1.26,0.0675 -1.665,0.9 -0.045,0.09 -1.53,3.8925 -1.4625,3.8025 -1.5075,3.915 -0.1125,0.2025 -0.5625,0.2025 -0.4275,0 -0.54,-0.2025 -3.15,-8.1225 -3.1725,-8.235 -0.09,-0.225 -0.27,-0.315 -0.1575,-0.09 -0.2925,-0.1125 -0.135,-0.0225 -0.675,-0.045 l -0.54,0 0,-1.035 0.135,0 q 0.225,0.0675 2.1825,0.0675 2.1375,0 2.475,-0.0675 l 0.18,0 0,1.035 -0.315,0 q -0.8775,0.0225 -0.945,0.3375 0,0.09 1.1475,3.06 l 1.1475,2.97 q 0.6975,-1.7775 2.0475,-5.3775 l 0,-0.18 q 0,-0.36 -0.2925,-0.585 -0.2925,-0.225 -0.6525,-0.225 l -0.09,0 0,-1.035 0.1575,0 z"
       style="font-style:normal;font-variant:normal;font-weight:normal;font-stretch:normal;font-size:22.5px;line-height:125%;font-family:KaTeX_Main;-inkscape-font-specification:'KaTeX_Main, Normal';text-align:center;writing-mode:lr-tb;text-anchor:middle;fill:#000000"
       id="path5845" />
    <path
       d="m 380.61386,290.63162 q 0,-2.0475 1.305,-3.51 1.305,-1.485 3.1275,-1.71 0.36,-0.045 0.5625,-0.045 1.9575,0 3.3975,1.44 1.575,1.575 1.575,3.8025 0,0.45 -0.1125,1.0575 -0.27,1.4175 -1.2825,2.475 -0.99,1.035 -2.4075,1.395 -0.5175,0.135 -1.17,0.135 -0.675,0 -1.1925,-0.135 -1.6875,-0.4275 -2.745,-1.7775 -1.0575,-1.3725 -1.0575,-3.1275 z m 5.4,-4.41 q -0.1125,-0.0225 -0.36,-0.0225 -0.675,0 -1.2825,0.27 -1.26,0.63 -1.5075,2.4525 -0.045,0.405 -0.045,1.44 0,2.1375 0.4275,3.0375 0.72,1.3725 2.3625,1.3725 2.745,0 2.745,-3.6675 l 0,-0.72 q 0,-1.4625 -0.1125,-1.98 -0.3825,-1.7775 -2.2275,-2.1825 z"
       style="font-style:normal;font-variant:normal;font-weight:normal;font-stretch:normal;font-size:22.5px;line-height:125%;font-family:KaTeX_Main;-inkscape-font-specification:'KaTeX_Main, Normal';text-align:center;writing-mode:lr-tb;text-anchor:middle;fill:#000000"
       id="path5847" />
    <path
       d="m 392.13491,294.41162 0.315,0 q 0.8775,0 1.0575,-0.315 l 0,-0.18 q 0,-0.2025 0,-0.5175 0,-0.315 0,-0.7425 0.0225,-0.4275 0.0225,-0.9675 0,-0.5625 0,-1.125 0,-0.585 0,-1.2375 0,-0.675 0,-1.2825 0,-0.8325 0,-1.755 0,-0.945 0,-1.6875 0,-0.7425 -0.0225,-1.35 0,-0.63 0,-0.99 0,-0.36 0,-0.3825 -0.0675,-0.4275 -0.3375,-0.5625 -0.2475,-0.1575 -0.99,-0.2025 l -0.405,0 0,-0.5175 q 0,-0.5175 0.045,-0.5175 l 0.225,-0.0225 q 0.225,-0.0225 0.6525,-0.045 0.4275,-0.0225 0.8325,-0.045 0.3825,-0.0225 0.8325,-0.045 0.45,-0.045 0.675,-0.0675 0.225,-0.0225 0.2475,-0.0225 l 0.0675,0 0,7.0875 q 0,7.1325 0.0225,7.1775 0.09,0.18 0.27,0.2475 0.4725,0.0675 1.1025,0.0675 l 0.36,0 0,1.035 -0.18,0 q -0.405,-0.0675 -2.475,-0.0675 -2.205,0 -2.4975,0.0675 l -0.18,0 0,-1.035 0.36,0 z"
       style="font-style:normal;font-variant:normal;font-weight:normal;font-stretch:normal;font-size:22.5px;line-height:125%;font-family:KaTeX_Main;-inkscape-font-specification:'KaTeX_Main, Normal';text-align:center;writing-mode:lr-tb;text-anchor:middle;fill:#000000"
       id="path5849" />
    <path
       d="m 400.64659,281.94662 0,-0.3375 0.9,0 0,4.14 3.0375,0 0,1.035 -3.0375,0 0,3.24 q 0.0225,2.8125 0.0225,3.195 0.0225,0.36 0.1575,0.6975 0.315,0.8775 1.1025,0.8775 0.99,0 1.215,-1.5975 0.0225,-0.18 0.0225,-1.035 l 0,-0.7875 0.9,0 0,0.7875 q 0,1.035 -0.1125,1.485 -0.2475,0.9 -0.855,1.4625 -0.585,0.5625 -1.5525,0.5625 -1.215,0 -1.935,-0.6525 -0.72,-0.675 -0.8325,-1.8225 -0.0225,-0.1575 -0.0225,-3.33 l 0,-3.0825 -1.7775,0 0,-0.8325 0.2025,0 q 0.8325,-0.0675 1.4175,-0.72 1.035,-1.08 1.1475,-3.285 z"
       style="font-style:normal;font-variant:normal;font-weight:normal;font-stretch:normal;font-size:22.5px;line-height:125%;font-family:KaTeX_Main;-inkscape-font-specification:'KaTeX_Main, Normal';text-align:center;writing-mode:lr-tb;text-anchor:middle;fill:#000000"
       id="path5851" />
    <path
       d="m 410.49421,286.13162 q -2.07,0 -2.07,1.4625 0,0.2925 0.045,0.3825 0.2025,0.54 0.6975,0.7875 0.495,0.225 1.53,0.4275 1.2825,0.225 1.755,0.495 1.4175,0.675 1.8225,2.2275 0.0225,0.135 0.0225,0.54 0,0.8775 -0.315,1.5525 -0.8775,1.665 -3.3075,1.665 -1.35,0 -2.34,-0.81 l -0.18,0.1575 -0.2025,0.2025 q -0.135,0.135 -0.27,0.2475 l -0.2475,0.225 -0.18,0 q -0.1575,0 -0.2925,-0.135 l 0,-1.7775 q 0,-1.4625 0,-1.6875 0.0225,-0.225 0.1125,-0.27 0.045,-0.0225 0.36,-0.0225 0.2925,0 0.3375,0.045 0.0675,0.045 0.135,0.315 0.18,0.855 0.585,1.5525 0.7875,1.1475 2.1825,1.1475 2.1825,0 2.1825,-1.755 0,-0.6525 -0.405,-1.0575 -0.36,-0.4275 -0.945,-0.6075 -0.3825,-0.09 -1.08,-0.2475 -1.26,-0.2475 -1.71,-0.4725 -1.485,-0.6975 -1.7325,-2.0925 -0.0225,-0.09 -0.0225,-0.3375 0,-2.5875 3.1725,-2.9025 0.09,-0.045 0.54,0 0.9,0 1.575,0.3375 l 0.3375,0.18 0.2025,-0.1575 q 0.2925,-0.2475 0.495,-0.3825 l 0.18,0 q 0.1575,0 0.2925,0.135 l 0,2.97 -0.135,0.135 -0.63,0 q -0.135,-0.135 -0.135,-0.27 0,-1.035 -0.63,-1.62 -0.63,-0.585 -1.7325,-0.585 z"
       style="font-style:normal;font-variant:normal;font-weight:normal;font-stretch:normal;font-size:22.5px;line-height:125%;font-family:KaTeX_Main;-inkscape-font-specification:'KaTeX_Main, Normal';text-align:center;writing-mode:lr-tb;text-anchor:middle;fill:#000000"
       id="path5853" />
    <path
       d="m 416.40222,278.59412 0.09,-0.0225 q 0.1125,0 0.225,0 l 0.27,0 q 0.1575,0.135 0.63,0.54 4.05,3.69 4.05,10.71 0,2.7675 -0.6525,4.995 -1.035,3.555 -3.3975,5.715 -0.1575,0.135 -0.36,0.2925 -0.2025,0.18 -0.27,0.2475 l -0.27,0 q -0.27,0 -0.36,-0.045 -0.0675,-0.045 -0.0675,-0.225 0.0225,-0.0225 0.2475,-0.2925 3.4875,-3.6225 3.4875,-10.6875 0,-7.065 -3.4875,-10.6875 -0.225,-0.27 -0.2475,-0.2925 0,-0.18 0.1125,-0.2475 z"
       style="font-style:normal;font-variant:normal;font-weight:normal;font-stretch:normal;font-size:22.5px;line-height:125%;font-family:KaTeX_Main;-inkscape-font-specification:'KaTeX_Main, Normal';text-align:center;writing-mode:lr-tb;text-anchor:middle;fill:#000000"
       id="path5855" />
  </g>
  <path
     class="domain"
     d="m 193.69547,316.40332 0.5,0 0,-263.999997 -0.5,0"
     id="path100"
     inkscape:connector-curvature="0"
     style="font-size:medium;font-family:sans-serif;text-anchor:end;fill:none;stroke:#000000" />
  <line
     style="font-size:medium;font-family:sans-serif;text-anchor:end;fill:none;stroke:#000000"
     y2="316.40332"
     y1="316.40332"
     x1="193.69548"
     id="line104"
     x2="187.69548" />
  <g
     style="font-style:normal;font-variant:normal;font-weight:normal;font-stretch:normal;font-size:12.5px;line-height:125%;font-family:KaTeX_Main;-inkscape-font-specification:'KaTeX_Main, Normal';text-align:center;writing-mode:lr-tb;text-anchor:middle;fill:#000000"
     id="text106">
    <path
       d="m 176.07727,317.70912 0,-0.9125 3.325,0 0,0.9125 -3.325,0 z"
       style="font-style:normal;font-variant:normal;font-weight:normal;font-stretch:normal;font-size:12.5px;line-height:125%;font-family:KaTeX_Main;-inkscape-font-specification:'KaTeX_Main, Normal';text-align:center;writing-mode:lr-tb;text-anchor:middle;fill:#000000"
       id="path5836" />
    <path
       d="m 185.31458,319.94662 q -0.2125,-0.0375 -1.9875,-0.0375 -1.75,0 -1.9625,0.0375 l -0.15,0 0,-0.575 0.325,0 q 0.725,0 0.9375,-0.0375 0.1,-0.0125 0.3,-0.15 l 0,-6.4625 q -0.025,0 -0.1,0.0375 -0.575,0.225 -1.2875,0.2375 l -0.2375,0 0,-0.575 0.2375,0 q 1.05,-0.0375 1.75,-0.475 0.225,-0.125 0.3875,-0.2875 0.025,-0.0375 0.15,-0.0375 0.125,0 0.2125,0.075 l 0,3.7375 0.0125,3.75 q 0.1875,0.1875 0.8125,0.1875 l 0.4125,0 0.325,0 0,0.575 -0.1375,0 z"
       style="font-style:normal;font-variant:normal;font-weight:normal;font-stretch:normal;font-size:12.5px;line-height:125%;font-family:KaTeX_Main;-inkscape-font-specification:'KaTeX_Main, Normal';text-align:center;writing-mode:lr-tb;text-anchor:middle;fill:#000000"
       id="path5838" />
  </g>
  <line
     style="font-size:medium;font-family:sans-serif;text-anchor:end;fill:none"
     id="line108"
     y2="316.40332"
     x2="333.69547"
     y1="316.40332"
     x1="53.695473"
     class="grid" />
  <line
     style="font-size:medium;font-family:sans-serif;text-anchor:end;fill:none;stroke:#000000"
     y2="292.40332"
     y1="292.40332"
     x1="193.69548"
     id="line112"
     x2="187.69548" />
  <line
     style="font-size:medium;font-family:sans-serif;text-anchor:end;fill:none"
     id="line114"
     y2="292.40332"
     x2="333.69547"
     y1="292.40332"
     x1="53.695473"
     class="grid" />
  <line
     style="font-size:medium;font-family:sans-serif;text-anchor:end;fill:none;stroke:#000000"
     y2="268.40332"
     y1="268.40332"
     x1="193.69548"
     id="line118"
     x2="187.69548" />
  <g
     style="font-style:normal;font-variant:normal;font-weight:normal;font-stretch:normal;font-size:12.5px;line-height:125%;font-family:KaTeX_Main;-inkscape-font-specification:'KaTeX_Main, Normal';text-align:center;writing-mode:lr-tb;text-anchor:middle;fill:#000000"
     id="text120">
    <path
       d="m 183.22718,271.94662 q -0.2125,-0.0375 -1.9875,-0.0375 -1.75,0 -1.9625,0.0375 l -0.15,0 0,-0.575 0.325,0 q 0.725,0 0.9375,-0.0375 0.1,-0.0125 0.3,-0.15 l 0,-6.4625 q -0.025,0 -0.1,0.0375 -0.575,0.225 -1.2875,0.2375 l -0.2375,0 0,-0.575 0.2375,0 q 1.05,-0.0375 1.75,-0.475 0.225,-0.125 0.3875,-0.2875 0.025,-0.0375 0.15,-0.0375 0.125,0 0.2125,0.075 l 0,3.7375 0.0125,3.75 q 0.1875,0.1875 0.8125,0.1875 l 0.4125,0 0.325,0 0,0.575 -0.1375,0 z"
       style="font-style:normal;font-variant:normal;font-weight:normal;font-stretch:normal;font-size:12.5px;line-height:125%;font-family:KaTeX_Main;-inkscape-font-specification:'KaTeX_Main, Normal';text-align:center;writing-mode:lr-tb;text-anchor:middle;fill:#000000"
       id="path5833" />
  </g>
  <line
     style="font-size:medium;font-family:sans-serif;text-anchor:end;fill:none"
     id="line122"
     y2="268.40332"
     x2="333.69547"
     y1="268.40332"
     x1="53.695473"
     class="grid" />
  <line
     style="font-size:medium;font-family:sans-serif;text-anchor:end;fill:none;stroke:#000000"
     y2="244.40332"
     y1="244.40332"
     x1="193.69548"
     id="line126"
     x2="187.69548" />
  <g
     style="font-style:normal;font-variant:normal;font-weight:normal;font-stretch:normal;font-size:12.5px;line-height:125%;font-family:KaTeX_Main;-inkscape-font-specification:'KaTeX_Main, Normal';text-align:center;writing-mode:lr-tb;text-anchor:middle;fill:#000000"
     id="text128">
    <path
       d="m 179.40218,242.58412 q -0.35,0 -0.55,-0.225 -0.2,-0.225 -0.2,-0.55 0,-0.9 0.675,-1.5375 0.6875,-0.65 1.6375,-0.65 1.075,0 1.775,0.5875 0.7125,0.575 0.875,1.5125 0.025,0.225 0.025,0.4125 0,0.725 -0.4375,1.3625 -0.35,0.525 -1.4125,1.4375 -0.45,0.3875 -1.25,1.15 l -0.7375,0.7 0.95,0.0125 q 1.9625,0 2.0875,-0.0625 0.05,-0.0125 0.125,-0.2625 0.05,-0.1375 0.175,-0.85 l 0,-0.0375 0.5,0 0,0.0375 -0.35,2.2875 0,0.0375 -4.6375,0 0,-0.2375 q 0,-0.25 0.025,-0.2875 0.0125,-0.0125 1.05,-1.1875 1.3625,-1.5125 1.75,-2 0.8375,-1.1375 0.8375,-2.0875 0,-0.825 -0.4375,-1.375 -0.425,-0.5625 -1.2,-0.5625 -0.725,0 -1.175,0.65 -0.025,0.05 -0.075,0.1375 -0.0375,0.0625 -0.0375,0.075 0,0.0125 0.0625,0.0125 0.3125,0 0.5,0.225 0.2,0.225 0.2,0.525 0,0.3125 -0.2125,0.5375 -0.2,0.2125 -0.5375,0.2125 z"
       style="font-style:normal;font-variant:normal;font-weight:normal;font-stretch:normal;font-size:12.5px;line-height:125%;font-family:KaTeX_Main;-inkscape-font-specification:'KaTeX_Main, Normal';text-align:center;writing-mode:lr-tb;text-anchor:middle;fill:#000000"
       id="path5830" />
  </g>
  <line
     style="font-size:medium;font-family:sans-serif;text-anchor:end;fill:none"
     id="line130"
     y2="244.40332"
     x2="333.69547"
     y1="244.40332"
     x1="53.695473"
     class="grid" />
  <line
     style="font-size:medium;font-family:sans-serif;text-anchor:end;fill:none;stroke:#000000"
     y2="220.40332"
     y1="220.40332"
     x1="193.69548"
     id="line134"
     x2="187.69548" />
  <g
     style="font-style:normal;font-variant:normal;font-weight:normal;font-stretch:normal;font-size:12.5px;line-height:125%;font-family:KaTeX_Main;-inkscape-font-specification:'KaTeX_Main, Normal';text-align:center;writing-mode:lr-tb;text-anchor:middle;fill:#000000"
     id="text136">
    <path
       d="m 179.61468,218.15912 q -0.3375,0 -0.5375,-0.2125 -0.1875,-0.2125 -0.1875,-0.55 0,-0.7125 0.5625,-1.1875 0.5625,-0.4875 1.3,-0.575 l 0.1875,0 q 0.4375,0 0.55,0.0125 0.4125,0.0625 0.8375,0.2625 0.825,0.4125 1.0375,1.175 0.0375,0.125 0.0375,0.3375 0,0.7375 -0.4625,1.325 -0.45,0.575 -1.1375,0.825 -0.0625,0.025 0,0.0375 0.025,0.0125 0.125,0.0375 0.7625,0.2125 1.2875,0.8 0.525,0.575 0.525,1.3125 0,0.5125 -0.2375,0.9875 -0.3,0.6375 -0.9875,1.0625 -0.675,0.4125 -1.5125,0.4125 -0.825,0 -1.4625,-0.35 -0.6375,-0.35 -0.8625,-0.9375 -0.125,-0.2625 -0.125,-0.6125 0,-0.35 0.225,-0.5625 0.2375,-0.225 0.5625,-0.225 0.35,0 0.575,0.225 0.225,0.225 0.225,0.5625 0,0.2875 -0.1625,0.5 -0.1625,0.2125 -0.4375,0.275 l -0.0875,0.025 q 0.675,0.5625 1.55,0.5625 0.6875,0 1.0375,-0.6625 0.2125,-0.4125 0.2125,-1.2625 l 0,-0.25 q 0,-1.1875 -0.8,-1.5875 -0.1875,-0.075 -0.7625,-0.0875 l -0.525,-0.0125 -0.0375,-0.025 q -0.025,-0.0375 -0.025,-0.2 0,-0.15 0.0375,-0.1875 0.0375,-0.0375 0.0625,-0.0375 0.35,0 0.725,-0.0625 0.55,-0.075 0.8375,-0.6125 0.2875,-0.55 0.2875,-1.3125 0,-0.8125 -0.4375,-1.0875 -0.2625,-0.175 -0.5875,-0.175 -0.625,0 -1.1,0.3375 -0.05,0.025 -0.1125,0.0875 -0.0625,0.05 -0.1,0.1 l -0.0375,0.05 q 0.0375,0.0125 0.0875,0.025 0.25,0.025 0.4125,0.2375 0.175,0.2125 0.175,0.4875 0,0.3 -0.2125,0.5125 -0.2,0.2 -0.525,0.2 z"
       style="font-style:normal;font-variant:normal;font-weight:normal;font-stretch:normal;font-size:12.5px;line-height:125%;font-family:KaTeX_Main;-inkscape-font-specification:'KaTeX_Main, Normal';text-align:center;writing-mode:lr-tb;text-anchor:middle;fill:#000000"
       id="path5827" />
  </g>
  <line
     style="font-size:medium;font-family:sans-serif;text-anchor:end;fill:none"
     id="line138"
     y2="220.40332"
     x2="333.69547"
     y1="220.40332"
     x1="53.695473"
     class="grid" />
  <line
     style="font-size:medium;font-family:sans-serif;text-anchor:end;fill:none;stroke:#000000"
     y2="196.40332"
     y1="196.40332"
     x1="193.69548"
     id="line142"
     x2="187.69548" />
  <g
     style="font-style:normal;font-variant:normal;font-weight:normal;font-stretch:normal;font-size:12.5px;line-height:125%;font-family:KaTeX_Main;-inkscape-font-specification:'KaTeX_Main, Normal';text-align:center;writing-mode:lr-tb;text-anchor:middle;fill:#000000"
     id="text144">
    <path
       d="m 183.80218,199.94662 q -0.175,-0.0375 -1.6125,-0.0375 -1.5,0 -1.675,0.0375 l -0.1125,0 0,-0.575 0.3875,0 q 0.5375,-0.0125 0.6625,-0.0625 0.1,-0.025 0.15,-0.125 0.0125,-0.025 0.0125,-0.675 l 0,-0.625 -3.2375,0 0,-0.575 1.8875,-2.8875 q 1.9125,-2.9 1.9375,-2.9125 0.025,-0.025 0.2625,-0.025 l 0.225,0 0.075,0.075 0,5.75 1.15,0 0,0.575 -1.15,0 0,0.6375 q 0,0.5125 0,0.6 0.0125,0.0875 0.075,0.15 0.1,0.0875 0.7125,0.1 l 0.3625,0 0,0.575 -0.1125,0 z m -2.1125,-2.6375 0,-4.175 -2.7375,4.1625 1.3625,0.0125 1.375,0 z"
       style="font-style:normal;font-variant:normal;font-weight:normal;font-stretch:normal;font-size:12.5px;line-height:125%;font-family:KaTeX_Main;-inkscape-font-specification:'KaTeX_Main, Normal';text-align:center;writing-mode:lr-tb;text-anchor:middle;fill:#000000"
       id="path5824" />
  </g>
  <line
     style="font-size:medium;font-family:sans-serif;text-anchor:end;fill:none"
     id="line146"
     y2="196.40332"
     x2="333.69547"
     y1="196.40332"
     x1="53.695473"
     class="grid" />
  <line
     style="font-size:medium;font-family:sans-serif;text-anchor:end;fill:none;stroke:#000000"
     y2="172.40332"
     y1="172.40332"
     x1="193.69548"
     id="line150"
     x2="187.69548" />
  <g
     style="font-style:normal;font-variant:normal;font-weight:normal;font-stretch:normal;font-size:12.5px;line-height:125%;font-family:KaTeX_Main;-inkscape-font-specification:'KaTeX_Main, Normal';text-align:center;writing-mode:lr-tb;text-anchor:middle;fill:#000000"
     id="text152">
    <path
       d="m 179.36468,173.27162 q 0.3,0 0.5,0.2125 0.2125,0.2 0.2125,0.5125 0,0.2875 -0.2125,0.4875 -0.2125,0.2 -0.475,0.2 l -0.0875,0 0.0375,0.0625 q 0.1875,0.4 0.575,0.6625 0.3875,0.2625 0.9125,0.2625 0.8875,0 1.275,-0.75 0.2375,-0.4625 0.2375,-1.6 0,-1.2875 -0.3375,-1.7375 -0.325,-0.4125 -0.8,-0.4125 -0.975,0 -1.475,0.85 -0.05,0.0875 -0.1,0.1125 -0.0375,0.0125 -0.175,0.0125 -0.2125,0 -0.2375,-0.075 -0.025,-0.05 -0.025,-2.1875 0,-0.375 -0.0125,-0.8875 0,-0.5125 0,-0.65 0,-0.7 0.075,-0.7 0.025,-0.025 0.05,-0.025 l 0.225,0.075 q 0.8125,0.325 1.6625,0.325 0.8875,0 1.7,-0.35 0.1,-0.05 0.1625,-0.05 0.1,0 0.1,0.225 l 0,0.1625 q -1.0125,1.2125 -2.5625,1.2125 -0.3875,0 -0.7,-0.075 l -0.125,-0.025 0,2.15 q 0.7125,-0.575 1.4625,-0.575 0.2375,0 0.5125,0.0625 0.8375,0.2125 1.3625,0.95 0.5375,0.7375 0.5375,1.725 0,1.1375 -0.8,1.9625 -0.7875,0.825 -1.95,0.825 -0.7875,0 -1.3375,-0.4375 -0.2375,-0.15 -0.4125,-0.4125 -0.375,-0.45 -0.475,-1.1125 0,-0.0375 -0.0125,-0.1125 0,-0.0875 0,-0.125 0,-0.35 0.2,-0.55 0.2,-0.2 0.5125,-0.2 z"
       style="font-style:normal;font-variant:normal;font-weight:normal;font-stretch:normal;font-size:12.5px;line-height:125%;font-family:KaTeX_Main;-inkscape-font-specification:'KaTeX_Main, Normal';text-align:center;writing-mode:lr-tb;text-anchor:middle;fill:#000000"
       id="path5821" />
  </g>
  <line
     style="font-size:medium;font-family:sans-serif;text-anchor:end;fill:none"
     id="line154"
     y2="172.40332"
     x2="333.69547"
     y1="172.40332"
     x1="53.695473"
     class="grid" />
  <line
     style="font-size:medium;font-family:sans-serif;text-anchor:end;fill:none;stroke:#000000"
     y2="148.40332"
     y1="148.40332"
     x1="193.69548"
     id="line158"
     x2="187.69548" />
  <g
     style="font-style:normal;font-variant:normal;font-weight:normal;font-stretch:normal;font-size:12.5px;line-height:125%;font-family:KaTeX_Main;-inkscape-font-specification:'KaTeX_Main, Normal';text-align:center;writing-mode:lr-tb;text-anchor:middle;fill:#000000"
     id="text160">
    <path
       d="m 182.68968,144.43412 q -0.275,-0.275 -0.775,-0.3125 -0.875,0 -1.4625,0.75 -0.5875,0.8125 -0.5875,2.525 l 0.0125,0.05 0.1,-0.1625 q 0.5125,-0.75 1.3875,-0.75 0.575,0 1.0125,0.2375 0.3,0.175 0.6,0.5125 0.3,0.325 0.4875,0.7 0.2625,0.6125 0.2625,1.3375 l 0,0.225 q 0,0.2875 -0.0625,0.5375 -0.15,0.7375 -0.775,1.3875 -0.5375,0.5625 -1.2,0.7 -0.2,0.05 -0.5,0.05 -0.2375,0 -0.425,-0.0375 -0.925,-0.175 -1.475,-1 -0.7375,-1.1625 -0.7375,-3.15 0,-1.35 0.475,-2.3625 0.475,-1.0125 1.325,-1.575 0.675,-0.475 1.4625,-0.475 0.725,0 1.1625,0.3875 0.45,0.3875 0.45,1.0625 0,0.3125 -0.1875,0.5 -0.175,0.1875 -0.475,0.1875 -0.3,0 -0.4875,-0.175 -0.175,-0.175 -0.175,-0.4875 0,-0.5625 0.5875,-0.6625 z m -0.55,3 q -0.35,-0.45 -0.9,-0.45 -0.4625,0 -0.75,0.2875 -0.6125,0.6125 -0.6125,1.975 0,1.1125 0.15,1.5375 0.125,0.375 0.425,0.6375 0.3,0.2625 0.7125,0.2625 0.6375,0 0.975,-0.475 0.1875,-0.2625 0.2375,-0.625 0.05,-0.3625 0.05,-1.05 l 0,-0.2 0,-0.2 q 0,-0.7125 -0.05,-1.075 -0.05,-0.3625 -0.2375,-0.625 z"
       style="font-style:normal;font-variant:normal;font-weight:normal;font-stretch:normal;font-size:12.5px;line-height:125%;font-family:KaTeX_Main;-inkscape-font-specification:'KaTeX_Main, Normal';text-align:center;writing-mode:lr-tb;text-anchor:middle;fill:#000000"
       id="path5818" />
  </g>
  <line
     style="font-size:medium;font-family:sans-serif;text-anchor:end;fill:none"
     id="line162"
     y2="148.40332"
     x2="333.69547"
     y1="148.40332"
     x1="53.695473"
     class="grid" />
  <line
     style="font-size:medium;font-family:sans-serif;text-anchor:end;fill:none;stroke:#000000"
     y2="124.40331"
     y1="124.40331"
     x1="193.69548"
     id="line166"
     x2="187.69548" />
  <g
     style="font-style:normal;font-variant:normal;font-weight:normal;font-stretch:normal;font-size:12.5px;line-height:125%;font-family:KaTeX_Main;-inkscape-font-specification:'KaTeX_Main, Normal';text-align:center;writing-mode:lr-tb;text-anchor:middle;fill:#000000"
     id="text168">
    <path
       d="m 178.71468,122.22162 q 0.0125,-0.025 0.2125,-1.3625 l 0.2,-1.3375 q 0,-0.025 0.25,-0.025 l 0.25,0 0,0.05 q 0,0.125 0.1875,0.2125 0.1875,0.0875 0.65,0.1125 0.475,0.025 2.1125,0.025 l 1.5125,0 0,0.4875 -0.85,1.1625 q -0.1875,0.2625 -0.425,0.5875 -0.2375,0.3125 -0.3625,0.4875 -0.125,0.175 -0.15,0.2125 -0.65,1.0125 -0.775,2.7125 -0.05,0.5125 -0.0625,1.4 0,0.175 -0.0125,0.3625 0,0.175 0,0.2875 l 0,0.1125 q -0.05,0.2125 -0.25,0.3625 -0.1875,0.15 -0.4125,0.15 -0.3,0 -0.4875,-0.2125 -0.175,-0.2 -0.175,-0.5625 0,-0.1875 0.05,-0.7125 0.1875,-1.6875 1.1625,-3.3875 0.25,-0.4 1.05,-1.5125 l 0.575,-0.7875 -1.1625,0 q -2.175,0 -2.2875,0.075 -0.05,0.025 -0.1375,0.275 -0.075,0.25 -0.125,0.5875 -0.025,0.2125 -0.0375,0.2375 l 0,0.0375 -0.5,0 0,-0.0375 z"
       style="font-style:normal;font-variant:normal;font-weight:normal;font-stretch:normal;font-size:12.5px;line-height:125%;font-family:KaTeX_Main;-inkscape-font-specification:'KaTeX_Main, Normal';text-align:center;writing-mode:lr-tb;text-anchor:middle;fill:#000000"
       id="path5815" />
  </g>
  <line
     style="font-size:medium;font-family:sans-serif;text-anchor:end;fill:none"
     id="line170"
     y2="124.40331"
     x2="333.69547"
     y1="124.40331"
     x1="53.695473"
     class="grid" />
  <line
     style="font-size:medium;font-family:sans-serif;text-anchor:end;fill:none;stroke:#000000"
     y2="100.40331"
     y1="100.40331"
     x1="193.69548"
     id="line174"
     x2="187.69548" />
  <g
     style="font-style:normal;font-variant:normal;font-weight:normal;font-stretch:normal;font-size:12.5px;line-height:125%;font-family:KaTeX_Main;-inkscape-font-specification:'KaTeX_Main, Normal';text-align:center;writing-mode:lr-tb;text-anchor:middle;fill:#000000"
     id="text176">
    <path
       d="m 180.17718,99.759117 q -0.6125,-0.4 -0.95,-0.8375 -0.325,-0.4375 -0.325,-1.15 0,-0.5375 0.2,-0.9 0.275,-0.5625 0.8,-0.9 0.5375,-0.35 1.225,-0.35 0.85,0 1.475,0.45 0.625,0.4375 0.775,1.1375 0.0125,0.075 0.0125,0.3 0,0.275 -0.025,0.375 -0.1875,0.825 -1.1375,1.425 l -0.15,0.1 q 0.7,0.475 0.725,0.5 0.9375,0.750003 0.9375,1.862503 0,1.0125 -0.75,1.7375 -0.7375,0.7125 -1.85,0.7125 -1.5375,0 -2.2625,-1.125 -0.3125,-0.45 -0.3125,-1.0875 0,-1.3625 1.6125,-2.250003 z m 2.4875,-2.225 q 0,-0.5375 -0.35,-0.9125 -0.35,-0.375 -0.85,-0.475 -0.0875,-0.0125 -0.4125,-0.0125 -0.6625,0 -1.1125,0.45 -0.3125,0.2875 -0.3125,0.6875 0,0.5375 0.45,0.85 0.0625,0.0625 0.8,0.525 l 0.725,0.475 q 0.0125,-0.0125 0.1625,-0.1 0.15,-0.1 0.225,-0.175 0.675,-0.5375 0.675,-1.3125 z m -3.3,4.450003 q 0,0.7375 0.5375,1.225 0.5375,0.475 1.25,0.475 0.5125,0 0.925,-0.2125 0.425,-0.2125 0.6375,-0.55 0.2125,-0.325 0.2125,-0.6875 0,-0.5375 -0.4375,-0.95 -0.1,-0.1 -1.0375,-0.7125 -0.175,-0.1125 -0.3875,-0.2375 -0.2,-0.1375 -0.3125,-0.2125 l -0.1,-0.0625 -0.15,0.075 q -0.7875,0.5125 -1.0375,1.25 -0.1,0.325 -0.1,0.6 z"
       style="font-style:normal;font-variant:normal;font-weight:normal;font-stretch:normal;font-size:12.5px;line-height:125%;font-family:KaTeX_Main;-inkscape-font-specification:'KaTeX_Main, Normal';text-align:center;writing-mode:lr-tb;text-anchor:middle;fill:#000000"
       id="path5812" />
  </g>
  <line
     style="font-size:medium;font-family:sans-serif;text-anchor:end;fill:none"
     id="line178"
     y2="100.40331"
     x2="333.69547"
     y1="100.40331"
     x1="53.695473"
     class="grid" />
  <line
     style="font-size:medium;font-family:sans-serif;text-anchor:end;fill:none;stroke:#000000"
     y2="76.40332"
     y1="76.40332"
     x1="193.69548"
     id="line182"
     x2="187.69548" />
  <g
     style="font-style:normal;font-variant:normal;font-weight:normal;font-stretch:normal;font-size:12.5px;line-height:125%;font-family:KaTeX_Main;-inkscape-font-specification:'KaTeX_Main, Normal';text-align:center;writing-mode:lr-tb;text-anchor:middle;fill:#000000"
     id="text184">
    <path
       d="m 180.18968,78.746625 q 0,0.2625 -0.1375,0.4375 -0.125,0.175 -0.3375,0.2125 l -0.05,0.0125 q 0,0.0125 0.0875,0.075 0.0875,0.05 0.1375,0.0625 0.2875,0.125 0.7125,0.125 0.2375,0 0.325,-0.025 0.6,-0.15 1.0125,-0.775 0.4875,-0.7 0.4875,-2.425 l 0,-0.0875 -0.0625,0.1 q -0.5125,0.85 -1.4375,0.85 -1,0 -1.7,-0.8625 -0.3625,-0.45 -0.525,-0.875 -0.15,-0.425 -0.15,-1.075 0,-0.725 0.1875,-1.1875 0.2,-0.4625 0.675,-0.9375 0.65,-0.65 1.55,-0.7375 l 0.0375,-0.0125 q 0.0375,0 0.0625,0 0.025,0 0.075,0.0125 0.0625,0 0.1,0 0.2625,0 0.3625,0.025 1.0125,0.225 1.5875,1.2875 0.5375,1.0875 0.5375,2.825 0,1.75 -0.75,2.9625 -0.4375,0.7 -1.0625,1.1 -0.6125,0.3875 -1.2875,0.3875 -0.7875,0 -1.275,-0.3625 -0.475,-0.375 -0.475,-1.075 0,-0.7 0.6625,-0.7 0.2875,0 0.4625,0.175 0.1875,0.175 0.1875,0.4875 z m 1.2625,-6.5875 q -0.125,-0.025 -0.35,-0.025 -0.475,0 -0.8125,0.3375 -0.2625,0.275 -0.35,0.6625 -0.075,0.375 -0.075,1.3 0,0.85 0.0625,1.35 0.0625,0.475 0.3625,0.775 0.3125,0.2875 0.7875,0.2875 l 0.05,0 q 0.675,-0.0625 0.975,-0.7 0.3125,-0.65 0.3125,-1.575 0,-0.975 -0.1,-1.4 -0.0625,-0.3625 -0.3125,-0.65 -0.2375,-0.2875 -0.55,-0.3625 z"
       style="font-style:normal;font-variant:normal;font-weight:normal;font-stretch:normal;font-size:12.5px;line-height:125%;font-family:KaTeX_Main;-inkscape-font-specification:'KaTeX_Main, Normal';text-align:center;writing-mode:lr-tb;text-anchor:middle;fill:#000000"
       id="path5809" />
  </g>
  <line
     style="font-size:medium;font-family:sans-serif;text-anchor:end;fill:none"
     id="line186"
     y2="76.40332"
     x2="333.69547"
     y1="76.40332"
     x1="53.695473"
     class="grid" />
  <line
     style="font-size:medium;font-family:sans-serif;text-anchor:end;fill:none;stroke:#000000"
     y2="52.403324"
     y1="52.403324"
     x1="193.69548"
     id="line190"
     x2="187.69548" />
  <g
     style="font-style:normal;font-variant:normal;font-weight:normal;font-stretch:normal;font-size:12.5px;line-height:125%;font-family:KaTeX_Main;-inkscape-font-specification:'KaTeX_Main, Normal';text-align:center;writing-mode:lr-tb;text-anchor:middle;fill:#000000"
     id="text192">
    <path
       d="m 176.55887,55.946632 q -0.2125,-0.0375 -1.9875,-0.0375 -1.75,0 -1.9625,0.0375 l -0.15,0 0,-0.575 0.325,0 q 0.725,0 0.9375,-0.0375 0.1,-0.0125 0.3,-0.15 l 0,-6.4625 q -0.025,0 -0.1,0.0375 -0.575,0.225 -1.2875,0.2375 l -0.2375,0 0,-0.575 0.2375,0 q 1.05,-0.0375 1.75,-0.475 0.225,-0.125 0.3875,-0.2875 0.025,-0.0375 0.15,-0.0375 0.125,0 0.2125,0.075 l 0,3.7375 0.0125,3.75 q 0.1875,0.1875 0.8125,0.1875 l 0.4125,0 0.325,0 0,0.575 -0.1375,0 z"
       style="font-style:normal;font-variant:normal;font-weight:normal;font-stretch:normal;font-size:12.5px;line-height:125%;font-family:KaTeX_Main;-inkscape-font-specification:'KaTeX_Main, Normal';text-align:center;writing-mode:lr-tb;text-anchor:middle;fill:#000000"
       id="path5804" />
    <path
       d="m 178.80887,48.634132 q 0.7,-1.0125 1.9125,-1.0125 0.9125,0 1.6,0.625 0.3375,0.325 0.575,0.85 0.4625,1.0375 0.4625,2.85 0,1.9375 -0.5375,2.9625 -0.35,0.725 -1.025,1.05 -0.525,0.2625 -1.0625,0.2625 -1.4375,0 -2.1,-1.3125 -0.5375,-1.025 -0.5375,-2.9625 0,-1.1625 0.15,-1.9125 0.1625,-0.7625 0.5625,-1.4 z m 2.8125,-0.15 q -0.3625,-0.4 -0.8875,-0.4 -0.525,0 -0.9,0.4 -0.275,0.2875 -0.375,0.7 -0.1,0.4125 -0.125,1.425 0,0.075 -0.0125,0.4875 0,0.4125 0,0.6875 0,1.2 0.025,1.675 0.05,0.875 0.15,1.2625 0.1,0.375 0.375,0.65 0.3375,0.375 0.8625,0.375 0.5125,0 0.85,-0.375 0.275,-0.275 0.375,-0.65 0.1,-0.3875 0.15,-1.2625 0.025,-0.475 0.025,-1.675 0,-0.275 -0.0125,-0.6875 0,-0.4125 0,-0.4875 -0.025,-1.0125 -0.125,-1.425 -0.1,-0.4125 -0.375,-0.7 z"
       style="font-style:normal;font-variant:normal;font-weight:normal;font-stretch:normal;font-size:12.5px;line-height:125%;font-family:KaTeX_Main;-inkscape-font-specification:'KaTeX_Main, Normal';text-align:center;writing-mode:lr-tb;text-anchor:middle;fill:#000000"
       id="path5806" />
  </g>
  <line
     style="font-size:medium;font-family:sans-serif;text-anchor:end;fill:none"
     id="line194"
     y2="52.403324"
     x2="333.69547"
     y1="52.403324"
     x1="53.695473"
     class="grid" />
  <g
     style="font-style:normal;font-variant:normal;font-weight:normal;font-stretch:normal;font-size:22.5px;line-height:125%;font-family:KaTeX_Main;-inkscape-font-specification:'KaTeX_Main, Normal';text-align:center;writing-mode:lr-tb;text-anchor:middle;fill:#000000"
     id="text196">
    <path
       d="m 164.56888,22.860016 q 0,-0.5175 0.4275,-0.945 0.4275,-0.4275 0.99,-0.4275 0.405,0 0.675,0.27 0.2925,0.27 0.2925,0.675 0,0.495 -0.45,0.945 -0.45,0.45 -0.99,0.45 -0.405,0 -0.675,-0.27 -0.27,-0.27 -0.27,-0.6975 z m -0.5175,13.7475 q -0.8775,0 -1.4175,-0.5175 -0.54,-0.5175 -0.54,-1.395 0,-0.3825 0.045,-0.5175 0,-0.045 1.035,-2.7675 1.035,-2.745 1.035,-2.79 0.1125,-0.36 0.1125,-0.81 0,-0.54 -0.3825,-0.54 l -0.045,0 q -0.54,0 -1.035,0.5175 -0.72,0.7425 -1.0575,2.115 0,0.0225 -0.0225,0.09 -0.0225,0.045 -0.045,0.0675 0,0 -0.0225,0.0225 -0.0225,0.0225 -0.09,0.0225 -0.045,0 -0.09,0 -0.045,0 -0.18,0 l -0.315,0 q -0.135,-0.135 -0.135,-0.2025 0,-0.0675 0.0675,-0.315 0.585,-1.935 1.71,-2.7 0.6075,-0.4725 1.305,-0.4725 0.9,0 1.485,0.5175 0.585,0.5175 0.585,1.395 0,0.2925 -0.1125,0.675 -0.0225,0.045 -1.035,2.7675 l -1.0125,2.7225 q -0.1125,0.495 -0.1125,0.72 0,0.5625 0.3825,0.5625 0.315,0 0.5625,-0.135 0.99,-0.4725 1.5525,-2.3625 0.0675,-0.27 0.1125,-0.315 0.0675,-0.045 0.3825,-0.045 0.2025,0 0.27,0.0225 0.09,0 0.135,0.045 0.045,0.045 0.045,0.1575 0,0.09 -0.0675,0.2925 -0.4275,1.2825 -1.2375,2.2275 -0.7875,0.945 -1.8675,0.945 z"
       style="font-style:normal;font-variant:normal;font-weight:normal;font-stretch:normal;font-size:22.5px;line-height:125%;font-family:KaTeX_Math;-inkscape-font-specification:'KaTeX_Math, Normal';text-align:center;writing-mode:lr-tb;text-anchor:middle"
       id="path5793" />
    <path
       d="m 181.3247,41.782516 q 0,0.2025 -0.405,0.2025 l -0.2925,0 q -0.1575,-0.135 -0.63,-0.54 -4.05,-3.69 -4.05,-10.71 0,-2.745 0.6525,-5.0175 1.035,-3.5325 3.3975,-5.6925 0.1575,-0.135 0.36,-0.2925 0.2025,-0.18 0.27,-0.2475 l 0.2925,0 q 0.27,0 0.3375,0.0675 0.0675,0.0675 0.0675,0.135 0,0.09 -0.2475,0.3375 -3.4875,3.69 -3.4875,10.71 0,7.02 3.4875,10.71 0.2475,0.2475 0.2475,0.3375 z"
       style="font-style:normal;font-variant:normal;font-weight:normal;font-stretch:normal;font-size:22.5px;line-height:125%;font-family:KaTeX_Main;-inkscape-font-specification:'KaTeX_Main, Normal';text-align:center;writing-mode:lr-tb;text-anchor:middle;fill:#000000"
       id="path5795" />
    <path
       d="m 186.80732,35.010016 q 0.18,0.315 1.0575,0.315 l 0.315,0 0.36,0 0,1.035 -0.18,0 q -0.2925,-0.0675 -2.52,-0.0675 -2.2275,0 -2.52,0.0675 l -0.18,0 0,-1.035 0.36,0 0.315,0 q 0.8775,0 1.0575,-0.315 l 0,-0.18 q 0,-0.2025 0,-0.5175 0,-0.315 0,-0.6975 0.0225,-0.405 0.0225,-0.8775 0,-0.495 0,-0.945 0,-0.6975 -0.0225,-1.485 0,-0.81 0,-1.3275 l 0,-0.5175 q -0.0675,-0.4275 -0.3375,-0.5625 -0.2475,-0.1575 -0.99,-0.2025 l -0.405,0 0,-0.5175 q 0,-0.5175 0.045,-0.5175 l 0.225,-0.0225 q 0.225,-0.0225 0.63,-0.045 0.4275,-0.0225 0.8325,-0.045 0.3825,-0.0225 0.81,-0.045 0.4275,-0.045 0.6525,-0.0675 0.225,-0.0225 0.2475,-0.0225 l 0.0675,0 0,0.9 q 0,0.855 0.0225,0.855 l 0.0225,-0.0225 q 1.215,-1.7325 3.4425,-1.7325 2.1825,0.0675 2.6775,1.71 l 0.045,0.1125 q 0.54,-0.675 0.6075,-0.7425 1.1475,-1.08 2.6775,-1.08 2.8125,0 3.0825,2.5425 0.0225,0.1575 0.0225,3.1275 0,2.88 0.0225,2.925 0.09,0.18 0.27,0.2475 0.4725,0.0675 1.1025,0.0675 l 0.36,0 0,1.035 -0.18,0 q -0.2925,-0.0675 -2.52,-0.0675 -2.2275,0 -2.52,0.0675 l -0.18,0 0,-1.035 0.36,0 0.18,0 q 1.1925,0 1.1925,-0.36 0.0225,-0.045 0.0225,-3.105 -0.0225,-3.0375 -0.045,-3.2175 -0.1575,-0.72 -0.5175,-1.035 -0.3375,-0.3375 -1.0575,-0.3375 -1.0125,0 -1.7775,0.765 -0.7875,0.7875 -0.9225,1.98 0,0.0225 -0.0225,0.4275 0,0.3825 0,0.99 0,0.6075 0,1.1475 0,0.3375 0,0.72 0,0.36 0,0.6525 0,0.2925 0,0.54 0.0225,0.225 0.0225,0.3825 l 0,0.135 q 0.18,0.315 1.0575,0.315 l 0.315,0 0.36,0 0,1.035 -0.18,0 q -0.2925,-0.0675 -2.52,-0.0675 -2.2275,0 -2.52,0.0675 l -0.18,0 0,-1.035 0.36,0 0.18,0 q 1.1925,0 1.1925,-0.36 0.0225,-0.045 0.0225,-3.105 -0.0225,-3.0375 -0.045,-3.2175 -0.1575,-0.72 -0.5175,-1.035 -0.3375,-0.3375 -1.0575,-0.3375 -1.0125,0 -1.7775,0.765 -0.7875,0.7875 -0.9225,1.98 0,0.0225 0,0.4275 0,0.3825 -0.0225,0.99 0,0.6075 0,1.1475 0,0.3375 0,0.72 0,0.36 0,0.6525 0.0225,0.2925 0.0225,0.54 0,0.225 0,0.3825 l 0,0.135 z"
       style="font-style:normal;font-variant:normal;font-weight:normal;font-stretch:normal;font-size:22.5px;line-height:125%;font-family:KaTeX_Main;-inkscape-font-specification:'KaTeX_Main, Normal';text-align:center;writing-mode:lr-tb;text-anchor:middle;fill:#000000"
       id="path5797" />
    <path
       d="m 207.07946,36.360016 q -0.405,-0.0675 -2.5875,-0.0675 -2.0025,0 -2.2725,0.0675 l -0.1575,0 0,-1.035 0.3375,0 q 1.62,-0.0675 2.07,-0.945 0.0225,-0.0675 1.1925,-3.5325 1.17,-3.4875 2.3175,-6.93 1.17,-3.465 1.1925,-3.4875 0.0675,-0.18 0.4275,-0.18 l 0.2025,0 q 0.45,0.0225 0.54,0.1575 0.0225,0.0225 2.1825,6.435 2.1825,6.4125 2.7,8.01 0.0675,0.135 0.1575,0.225 0.2475,0.225 1.4175,0.2475 l 0.675,0 0,1.035 -0.2025,0 q -0.3375,-0.0675 -2.8575,-0.0675 -2.9025,0 -3.24,0.0675 l -0.225,0 0,-1.035 0.2925,0 q 1.575,0 1.575,-0.405 0,-0.045 -0.54,-1.665 l -0.54,-1.5975 -5.2425,0 -0.45,1.3275 q -0.45,1.3275 -0.45,1.4625 0,0.1125 0.0675,0.2025 0.135,0.2925 0.5625,0.495 0.45,0.18 0.945,0.18 l 0.1125,0 0,1.035 -0.2025,0 z m 3.6225,-7.8075 q -0.6525,-1.9575 -1.1475,-3.3975 l -0.45,-1.3275 -1.125,3.375 -1.1475,3.3975 q 0,0.0225 2.2725,0.0225 l 2.295,0 -0.6975,-2.07 z"
       style="font-style:normal;font-variant:normal;font-weight:normal;font-stretch:normal;font-size:22.5px;line-height:125%;font-family:KaTeX_Main;-inkscape-font-specification:'KaTeX_Main, Normal';text-align:center;writing-mode:lr-tb;text-anchor:middle;fill:#000000"
       id="path5799" />
    <path
       d="m 219.56696,19.507516 0.09,-0.0225 q 0.1125,0 0.225,0 l 0.27,0 q 0.1575,0.135 0.63,0.54 4.05,3.69 4.05,10.71 0,2.7675 -0.6525,4.995 -1.035,3.555 -3.3975,5.715 -0.1575,0.135 -0.36,0.2925 -0.2025,0.18 -0.27,0.2475 l -0.27,0 q -0.27,0 -0.36,-0.045 -0.0675,-0.045 -0.0675,-0.225 0.0225,-0.0225 0.2475,-0.2925 3.4875,-3.6225 3.4875,-10.6875 0,-7.065 -3.4875,-10.6875 -0.225,-0.27 -0.2475,-0.2925 0,-0.18 0.1125,-0.2475 z"
       style="font-style:normal;font-variant:normal;font-weight:normal;font-stretch:normal;font-size:22.5px;line-height:125%;font-family:KaTeX_Main;-inkscape-font-specification:'KaTeX_Main, Normal';text-align:center;writing-mode:lr-tb;text-anchor:middle;fill:#000000"
       id="path5801" />
  </g>
  <path
     inkscape:connector-curvature="0"
     id="path198"
     style="fill:none;stroke:#11accd;stroke-width:3px"
     d="m -95.024109,293.82394 1.21333,0 1.21334,0 1.21333,0 1.21333,0 1.21334,0 1.21333,0 1.21333,0 1.21334,0 1.21333,0 1.21333,0 1.21334,0 1.21333,0 1.21333,0 1.21334,0 1.21333,0 1.21333,0 1.21334,0 1.21333,0 1.21333,0 1.21334,0 1.21333,0 1.21333,0 1.21334,0 1.21333,0 1.21333,0 1.21334,0 1.21333,0 1.21333,0 1.21334,0 1.21333,0 1.21333,0 1.21334,0 1.21333,0 1.213333,0 1.213334,0 1.213333,0 1.213333,0 1.213334,0 1.213333,0 1.213333,0 1.213334,0 1.213333,0 1.213333,0 1.213334,0 1.213333,0 1.213333,0 1.213334,0 1.213333,0 1.213333,0 1.213334,0 1.213333,0 1.213333,0 1.213334,0 1.213333,0 1.213333,0 1.213334,0 1.213333,0 1.213333,0 1.213334,0 1.213333,0 1.213333,0 1.213334,0 1.213333,0 1.213333,0 1.213334,0 1.213333,0 1.213333,0 1.213334,0 1.213333,0 1.213333,0 1.213334,0 1.213333,0 1.213333,0 1.213334,0 1.213333,0 1.213333,0 1.213334,0 1.213333,0 1.213333,0 1.213334,0 1.213333,0 1.213333,0 1.213334,0 1.213333,0 1.213333,0 1.213334,0 1.213333,0 1.213333,0 1.213334,0 1.213333,0 1.213333,0 1.213334,0 1.213333,0 1.213333,0 1.213334,0 1.213333,0 1.213333,0 1.213334,0 1.213333,0 1.213333,0 1.213334,0 1.213333,0 1.213333,0 1.213334,0 1.213333,0 1.213333,0 1.213334,0 1.213333,0 1.213333,0 1.213334,0 1.213333,0 1.213333,0 1.213334,0 1.213333,0 1.213333,0 1.213334,0 1.213333,0 1.213333,0 1.213334,0 1.213333,0 1.213333,0 1.213334,0 1.213333,0 1.213333,0 1.213334,0 1.213333,0 1.213333,0 1.213334,0 1.213333,0 1.213333,0 1.213334,0 1.213333,0 1.213333,0 1.213334,0 1.213333,0 1.213333,0 1.213334,0 1.213333,0 1.213333,0 1.213334,0 1.213333,0 1.213333,0 1.213334,0 1.213333,0 1.213333,0 1.213334,0 1.213333,0 1.213333,0 1.213334,0 1.213333,0 1.213333,0 1.213334,0 1.213333,0 1.213333,0 1.213334,0 1.213333,0 1.213333,0 1.213334,0 1.213333,0 1.213333,0 1.213336,0 1.21333,0 1.21333,0 1.21334,0 1.21333,0 1.21333,0 1.21334,0 1.21333,0 1.21333,0 1.21334,0 1.21333,0 1.21333,0 1.21334,0 1.21333,0 1.21333,0 1.21334,0 1.21333,0 1.21333,0 1.21334,0 1.21333,0 1.21333,0 1.21334,0 1.21333,0 1.21333,0 1.21334,0 1.21333,0 1.21333,0 1.21334,0 1.21333,0 1.21333,0 1.21334,0 1.21333,0 1.21333,0 1.21334,0 1.21333,0 1.21333,0 1.21334,0 1.21333,0 1.21333,0 1.21334,0 1.21333,0 1.21333,0 1.21334,0 1.21333,0 1.21333,0 1.21334,0 1.21333,0 1.21333,0 1.21334,0 1.21333,0 1.21333,0 1.21334,0 1.21333,0 1.21333,0 1.21334,0 1.21333,0 1.21333,0 1.21334,0 1.21333,0 1.21333,0 1.21334,0 1.21333,0 1.21333,0 1.21334,0 1.21333,0 1.21333,0 1.21334,0 1.21333,0 1.21333,0 1.21334,0 1.21333,0 1.21333,0 1.21334,0 1.21333,0 1.21333,0 1.21334,0 1.21333,0 1.21333,0 1.21334,0 1.21333,0 1.21333,0 1.21334,0 1.21333,0 1.21333,0 1.21334,0 1.21333,0 1.21333,-10e-6 1.21334,0 1.21333,0 1.21333,-1e-5 1.21334,0 1.21333,-10e-6 1.21333,-1e-5 1.21334,-2e-5 1.21333,-2e-5 1.21333,-3e-5 1.21334,-5e-5 1.21333,-6e-5 1.21333,-9e-5 1.21334,-1.2e-4 1.21333,-1.8e-4 1.21333,-2.4e-4 1.21334,-3.4e-4 1.21333,-4.7e-4 1.21333,-6.6e-4 1.21334,-9.3e-4 1.21333,-0.001 1.21333,-0.002 1.21334,-0.003 1.21333,-0.004 1.21333,-0.005 1.21334,-0.007 1.21333,-0.01 1.21333,-0.0135 1.21334,-0.0189 1.21333,-0.0265 1.21333,-0.037 1.21334,-0.0517 1.21333,-0.0724 1.21333,-0.1012 1.21334,-0.14153 1.21333,-0.19792 1.21333,-0.27679 1.21334,-0.38706 1.21333,-0.54129 1.21333,-0.75697 1.21334,-1.05858 1.21333,-1.48036 1.21333,-2.07021 1.21334,-2.89508 1.21333,-4.04862 1.21333,-5.66177 1.21334,-7.9177 1.21333,-11.07247 1.21333,-15.48427 1.21334,-21.65393 1.21333,-30.28187 1.21333,-42.34758 1.21334,-59.220861 1.21333,-82.81598"
     class="path"
     clip-path="url(#clipPath4627)"
     transform="translate(8.7195826,-1.9206209)" />
  <path
     inkscape:connector-curvature="0"
     id="path200"
     style="fill:none;stroke:#11accd;stroke-width:3px"
     d="m -95.024109,293.82394 1.21333,0 1.21334,0 1.21333,0 1.21333,0 1.21334,0 1.21333,0 1.21333,0 1.21334,0 1.21333,0 1.21333,0 1.21334,0 1.21333,0 1.21333,0 1.21334,0 1.21333,0 1.21333,0 1.21334,0 1.21333,0 1.21333,0 1.21334,0 1.21333,0 1.21333,0 1.21334,0 1.21333,0 1.21333,0 1.21334,0 1.21333,0 1.21333,0 1.21334,0 1.21333,0 1.21333,0 1.21334,0 1.21333,0 1.213333,0 1.213334,0 1.213333,0 1.213333,0 1.213334,0 1.213333,0 1.213333,0 1.213334,0 1.213333,0 1.213333,0 1.213334,0 1.213333,0 1.213333,0 1.213334,0 1.213333,0 1.213333,0 1.213334,0 1.213333,0 1.213333,0 1.213334,0 1.213333,0 1.213333,0 1.213334,0 1.213333,0 1.213333,0 1.213334,0 1.213333,0 1.213333,0 1.213334,0 1.213333,0 1.213333,0 1.213334,0 1.213333,0 1.213333,0 1.213334,0 1.213333,0 1.213333,0 1.213334,0 1.213333,0 1.213333,0 1.213334,0 1.213333,0 1.213333,0 1.213334,0 1.213333,0 1.213333,0 1.213334,0 1.213333,0 1.213333,0 1.213334,0 1.213333,0 1.213333,0 1.213334,0 1.213333,0 1.213333,0 1.213334,0 1.213333,0 1.213333,0 1.213334,0 1.213333,0 1.213333,0 1.213334,0 1.213333,0 1.213333,0 1.213334,0 1.213333,0 1.213333,0 1.213334,0 1.213333,0 1.213333,0 1.213334,0 1.213333,0 1.213333,0 1.213334,0 1.213333,0 1.213333,0 1.213334,0 1.213333,0 1.213333,0 1.213334,0 1.213333,0 1.213333,0 1.213334,0 1.213333,0 1.213333,0 1.213334,0 1.213333,0 1.213333,0 1.213334,0 1.213333,0 1.213333,0 1.213334,0 1.213333,0 1.213333,0 1.213334,0 1.213333,0 1.213333,0 1.213334,0 1.213333,0 1.213333,0 1.213334,0 1.213333,0 1.213333,0 1.213334,0 1.213333,0 1.213333,0 1.213334,0 1.213333,0 1.213333,0 1.213334,0 1.213333,0 1.213333,0 1.213334,0 1.213333,0 1.213333,0 1.213334,0 1.213333,0 1.213333,0 1.213334,0 1.213333,0 1.213333,0 1.213334,0 1.213333,0 1.213333,0 1.213334,0 1.213333,0 1.213333,0 1.213336,0 1.21333,0 1.21333,0 1.21334,0 1.21333,0 1.21333,0 1.21334,0 1.21333,0 1.21333,0 1.21334,0 1.21333,0 1.21333,0 1.21334,0 1.21333,0 1.21333,0 1.21334,0 1.21333,0 1.21333,0 1.21334,0 1.21333,0 1.21333,0 1.21334,0 1.21333,0 1.21333,0 1.21334,0 1.21333,0 1.21333,0 1.21334,0 1.21333,0 1.21333,0 1.21334,0 1.21333,0 1.21333,0 1.21334,0 1.21333,0 1.21333,0 1.21334,0 1.21333,0 1.21333,0 1.21334,0 1.21333,0 1.21333,0 1.21334,0 1.21333,0 1.21333,0 1.21334,0 1.21333,0 1.21333,0 1.21334,0 1.21333,0 1.21333,0 1.21334,0 1.21333,0 1.21333,0 1.21334,0 1.21333,0 1.21333,0 1.21334,0 1.21333,0 1.21333,0 1.21334,0 1.21333,0 1.21333,0 1.21334,0 1.21333,0 1.21333,0 1.21334,0 1.21333,0 1.21333,0 1.21334,0 1.21333,0 1.21333,0 1.21334,0 1.21333,0 1.21333,0 1.21334,0 1.21333,0 1.21333,0 1.21334,0 1.21333,0 1.21333,0 1.21334,0 1.21333,0 1.21333,-10e-6 1.21334,0 1.21333,-1e-5 1.21333,-10e-6 1.21334,-1e-5 1.21333,-2e-5 1.21333,-4e-5 1.21334,-5e-5 1.21333,-8e-5 1.21333,-1.2e-4 1.21334,-2e-4 1.21333,-2.9e-4 1.21333,-4.5e-4 1.21334,-7e-4 1.21333,-0.001 1.21333,-0.002 1.21334,-0.003 1.21333,-0.004 1.21333,-0.006 1.21334,-0.009 1.21333,-0.0143 1.21333,-0.0221 1.21334,-0.034 1.21333,-0.0524 1.21333,-0.0807 1.21334,-0.12428 1.21333,-0.19139 1.21333,-0.29475 1.21334,-0.45392 1.21333,-0.69905 1.21333,-1.07655 1.21334,-1.65791 1.21333,-2.55322 1.21333,-3.93202 1.21334,-6.0554 1.21333,-9.32544 1.21333,-14.3614 1.21334,-22.11687 1.21333,-34.06048 1.21333,-52.45389 1.21334,-80.780181 1.21333,-124.403285 1.21333,-191.583864 1.21334,-295.04343 1.21333,-454.37362 1.21333,-699.7454 1.21334,-1077.6235 1.21333,-1659.5644 1.21333,-2555.7666 1.21334,-3935.9376 1.21333,-6061.432 1.21333,-9334.742 1.21334,-14375.711 1.21333,-22138.918 1.21333,-34094.431 1.21334,-52506.191 1.21333,-80860.71"
     class="path"
     clip-path="url(#clipPath4623)"
     transform="translate(8.7195826,-1.9206209)" />
  <path
     inkscape:connector-curvature="0"
     id="path202"
     style="fill:none;stroke:#11accd;stroke-width:3px"
     d="m -95.024109,293.82394 1.30667,0 1.30666,0 1.30667,0 1.30667,0 1.30666,0 1.30667,0 1.30667,0 1.30666,0 1.30667,0 1.30667,0 1.30666,0 1.30667,0 1.30667,0 1.30666,0 1.30667,0 1.30667,0 1.30666,0 1.30667,0 1.30667,0 1.30666,0 1.30667,0 1.30667,0 1.30666,0 1.30667,0 1.30667,0 1.30666,0 1.30667,0 1.30667,0 1.30666,0 1.30667,0 1.306667,0 1.306666,0 1.306667,0 1.306667,0 1.306666,0 1.306667,0 1.306667,0 1.306666,0 1.306667,0 1.306667,0 1.306666,0 1.306667,0 1.306667,0 1.306666,0 1.306667,0 1.306667,0 1.306666,0 1.306667,0 1.306667,0 1.306666,0 1.306667,0 1.306667,0 1.306666,0 1.306667,0 1.306667,0 1.306666,0 1.306667,0 1.306667,0 1.306666,0 1.306667,0 1.306667,0 1.306666,0 1.306667,0 1.306667,0 1.306666,0 1.306667,0 1.306667,0 1.306666,0 1.306667,0 1.306667,0 1.306666,0 1.306667,0 1.306667,0 1.306666,0 1.306667,0 1.306667,0 1.306666,0 1.306667,0 1.306667,0 1.306666,0 1.306667,0 1.306667,0 1.306666,0 1.306667,0 1.306667,0 1.306666,0 1.306667,0 1.306667,0 1.306666,0 1.306667,0 1.306667,0 1.306666,0 1.306667,0 1.306667,0 1.306666,0 1.306667,0 1.306667,0 1.306666,0 1.306667,0 1.306667,0 1.306666,0 1.306667,0 1.306667,0 1.306666,0 1.306667,0 1.306667,0 1.306666,0 1.306667,0 1.306667,0 1.306666,0 1.306667,0 1.306667,0 1.306666,0 1.306667,0 1.306667,0 1.306666,0 1.306667,0 1.306667,0 1.306666,0 1.306667,0 1.306667,0 1.306666,0 1.306667,0 1.306667,0 1.306666,0 1.306667,0 1.306667,0 1.306666,0 1.306667,0 1.306667,0 1.306666,0 1.306667,0 1.306667,0 1.306666,0 1.306667,0 1.306667,0 1.306666,0 1.306667,0 1.306667,0 1.306666,0 1.306667,0 1.306667,0 1.306666,0 1.306667,0 1.306667,0 1.306666,0 1.306667,0 1.306667,0 1.306666,0 1.306666,0 1.30667,0 1.30666,0 1.30667,0 1.30667,0 1.30666,0 1.30667,0 1.30667,0 1.30666,0 1.30667,0 1.30667,0 1.30666,0 1.30667,0 1.30667,0 1.30666,0 1.30667,0 1.30667,0 1.30666,0 1.30667,0 1.30667,0 1.30666,0 1.30667,0 1.30667,0 1.30666,0 1.30667,0 1.30667,0 1.30666,0 1.30667,0 1.30667,0 1.30666,0 1.30667,0 1.30667,0 1.30666,0 1.30667,0 1.30667,0 1.30666,0 1.30667,0 1.30667,0 1.30666,0 1.30667,0 1.30667,0 1.30666,0 1.30667,0 1.30667,0 1.30666,0 1.30667,0 1.30667,0 1.30666,0 1.30667,0 1.30667,0 1.30666,0 1.30667,0 1.30667,0 1.30666,0 1.30667,0 1.30667,0 1.30666,0 1.30667,0 1.30667,0 1.30666,0 1.30667,0 1.30667,0 1.30666,0 1.30667,0 1.30667,0 1.30666,0 1.30667,0 1.30667,0 1.30666,0 1.30667,0 1.30667,0 1.30666,0 1.30667,0 1.30667,0 1.30666,0 1.30667,0 1.30667,0 1.30666,0 1.30667,0 1.30667,0 1.30666,0 1.30667,0 1.30667,-10e-6 1.30666,0 1.30667,0 1.30667,0 1.30666,-1e-5 1.30667,0 1.30667,-10e-6 1.30666,-1e-5 1.30667,-2e-5 1.30667,-2e-5 1.30666,-3e-5 1.30667,-3e-5 1.30667,-5e-5 1.30666,-7e-5 1.30667,-9e-5 1.30667,-1.3e-4 1.30666,-1.7e-4 1.30667,-2.3e-4 1.30667,-3.1e-4 1.30666,-4.2e-4 1.30667,-5.6e-4 1.30667,-7.7e-4 1.30666,-0.001 1.30667,-10e-4 1.30667,-0.002 1.30666,-0.003 1.30667,-0.003 1.30667,-0.005 1.30666,-0.006 1.30667,-0.009 1.30667,-0.0117 1.30666,-0.0159 1.30667,-0.0215 1.30667,-0.029 1.30666,-0.0393 1.30667,-0.0532 1.30667,-0.072 1.30666,-0.0974 1.30667,-0.13185 1.30667,-0.17844 1.30666,-0.24152 1.30667,-0.32688 1.30667,-0.4424 1.30666,-0.59877 1.30667,-0.8104 1.30667,-1.09682 1.30666,-1.48448 1.30667,-2.00915 1.30667,-2.71926 1.30666,-3.68035 1.30667,-4.98112 1.30667,-6.74163 1.30666,-9.12438 1.30667,-12.34928 1.30667,-16.71397 1.30666,-22.62131 1.30667,-30.61653 1.30667,-41.43756 1.30666,-56.083135 1.30667,-75.905016 1.30667,-102.732685 1.30666,-139.042264 1.30667,-188.18498 1.30667,-254.69659 1.30666,-344.71593 1.30667,-466.5514 1.30667,-631.448 1.30666,-854.6254 1.30667,-1156.6821"
     class="path"
     clip-path="url(#clipPath4619)"
     transform="translate(8.7195826,-1.9206209)" />
  <g
     style="font-style:normal;font-variant:normal;font-weight:normal;font-stretch:normal;font-size:20px;line-height:125%;font-family:KaTeX_Main;-inkscape-font-specification:'KaTeX_Main, Normal';text-align:center;writing-mode:lr-tb;text-anchor:middle;fill:#000000"
     id="text204">
    <path
       d="m 257.12192,102.38992 q -0.28,-0.14 -0.28,-0.4 0,-0.26 0.28,-0.4 l 5.98,0 0,-2.999998 0.02,-3 q 0.2,-0.26 0.38,-0.26 0.26,0 0.4,0.3 l 0,5.959998 5.96,0 q 0.3,0.16 0.3,0.4 0,0.24 -0.3,0.4 l -5.96,0 0,5.96 q -0.14,0.28 -0.4,0.28 -0.26,0 -0.4,-0.28 l 0,-5.96 -5.98,0 z"
       style="font-style:normal;font-variant:normal;font-weight:normal;font-stretch:normal;font-size:20px;line-height:125%;font-family:KaTeX_Main;-inkscape-font-specification:'KaTeX_Main, Normal';text-align:center;writing-mode:lr-tb;text-anchor:middle;fill:#000000"
       id="path5786" />
    <path
       d="m 273.50786,98.409922 q -0.56,0 -0.88,-0.36 -0.32,-0.36 -0.32,-0.88 0,-1.44 1.08,-2.46 1.1,-1.04 2.62,-1.04 1.72,0 2.84,0.94 1.14,0.92 1.4,2.42 0.04,0.36 0.04,0.66 0,1.16 -0.7,2.18 -0.56,0.839998 -2.26,2.299998 -0.72,0.62 -2,1.84 l -1.18,1.12 1.52,0.02 q 3.14,0 3.34,-0.1 0.08,-0.02 0.2,-0.42 0.08,-0.22 0.28,-1.36 l 0,-0.06 0.8,0 0,0.06 -0.56,3.66 0,0.06 -7.42,0 0,-0.38 q 0,-0.4 0.04,-0.46 0.02,-0.02 1.68,-1.9 2.18,-2.42 2.8,-3.2 1.34,-1.819998 1.34,-3.339998 0,-1.32 -0.7,-2.2 -0.68,-0.9 -1.92,-0.9 -1.16,0 -1.88,1.04 -0.04,0.08 -0.12,0.22 -0.06,0.1 -0.06,0.12 0,0.02 0.1,0.02 0.5,0 0.8,0.36 0.32,0.36 0.32,0.84 0,0.5 -0.34,0.86 -0.32,0.34 -0.86,0.34 z"
       style="font-style:normal;font-variant:normal;font-weight:normal;font-stretch:normal;font-size:20px;line-height:125%;font-family:KaTeX_Main;-inkscape-font-specification:'KaTeX_Main, Normal';text-align:center;writing-mode:lr-tb;text-anchor:middle;fill:#000000"
       id="path5788" />
    <path
       d="m 282.40786,97.829922 q 0.02,-0.04 0.34,-2.18 l 0.32,-2.14 q 0,-0.04 0.4,-0.04 l 0.4,0 0,0.08 q 0,0.2 0.3,0.34 0.3,0.14 1.04,0.18 0.76,0.04 3.38,0.04 l 2.42,0 0,0.78 -1.36,1.86 q -0.3,0.42 -0.68,0.94 -0.38,0.5 -0.58,0.78 -0.2,0.28 -0.24,0.34 -1.04,1.619998 -1.24,4.339998 -0.08,0.82 -0.1,2.24 0,0.28 -0.02,0.58 0,0.28 0,0.46 l 0,0.18 q -0.08,0.34 -0.4,0.58 -0.3,0.24 -0.66,0.24 -0.48,0 -0.78,-0.34 -0.28,-0.32 -0.28,-0.9 0,-0.3 0.08,-1.14 0.3,-2.7 1.86,-5.419998 0.4,-0.64 1.68,-2.42 l 0.92,-1.26 -1.86,0 q -3.48,0 -3.66,0.12 -0.08,0.04 -0.22,0.44 -0.12,0.4 -0.2,0.94 -0.04,0.34 -0.06,0.38 l 0,0.06 -0.8,0 0,-0.06 z"
       style="font-style:normal;font-variant:normal;font-weight:normal;font-stretch:normal;font-size:20px;line-height:125%;font-family:KaTeX_Main;-inkscape-font-specification:'KaTeX_Main, Normal';text-align:center;writing-mode:lr-tb;text-anchor:middle;fill:#000000"
       id="path5790" />
  </g>
  <g
     style="font-style:normal;font-variant:normal;font-weight:normal;font-stretch:normal;font-size:20px;line-height:125%;font-family:KaTeX_Main;-inkscape-font-specification:'KaTeX_Main, Normal';text-align:center;writing-mode:lr-tb;text-anchor:middle;fill:#000000"
     id="text206">
    <path
       d="m 221.21508,78.389929 q -0.28,-0.14 -0.28,-0.4 0,-0.26 0.28,-0.4 l 11.62,0 q 0.3,0.16 0.3,0.4 0,0.24 -0.3,0.4 l -11.62,0 z"
       style="font-style:normal;font-variant:normal;font-weight:normal;font-stretch:normal;font-size:20px;line-height:125%;font-family:KaTeX_Main;-inkscape-font-specification:'KaTeX_Main, Normal';text-align:center;writing-mode:lr-tb;text-anchor:middle;fill:#000000"
       id="path5779" />
    <path
       d="m 244.04196,82.989929 q -0.28,-0.06 -2.58,-0.06 -2.4,0 -2.68,0.06 l -0.18,0 0,-0.92 0.62,0 q 0.86,-0.02 1.06,-0.1 0.16,-0.04 0.24,-0.2 0.02,-0.04 0.02,-1.08 l 0,-1 -5.18,0 0,-0.92 3.02,-4.62 q 3.06,-4.64 3.1,-4.66 0.04,-0.04 0.42,-0.04 l 0.36,0 0.12,0.12 0,9.2 1.84,0 0,0.92 -1.84,0 0,1.02 q 0,0.82 0,0.96 0.02,0.14 0.12,0.24 0.16,0.14 1.14,0.16 l 0.58,0 0,0.92 -0.18,0 z m -3.38,-4.22 0,-6.68 -4.38,6.66 2.18,0.02 2.2,0 z"
       style="font-style:normal;font-variant:normal;font-weight:normal;font-stretch:normal;font-size:20px;line-height:125%;font-family:KaTeX_Main;-inkscape-font-specification:'KaTeX_Main, Normal';text-align:center;writing-mode:lr-tb;text-anchor:middle;fill:#000000"
       id="path5781" />
    <path
       d="m 246.72196,71.289929 q 1.12,-1.62 3.06,-1.62 1.46,0 2.56,1 0.54,0.52 0.92,1.36 0.74,1.66 0.74,4.56 0,3.1 -0.86,4.74 -0.56,1.16 -1.64,1.68 -0.84,0.42 -1.7,0.42 -2.3,0 -3.36,-2.1 -0.86,-1.64 -0.86,-4.74 0,-1.86 0.24,-3.06 0.26,-1.22 0.9,-2.24 z m 4.5,-0.24 q -0.58,-0.64 -1.42,-0.64 -0.84,0 -1.44,0.64 -0.44,0.46 -0.6,1.12 -0.16,0.66 -0.2,2.28 0,0.12 -0.02,0.78 0,0.66 0,1.1 0,1.92 0.04,2.68 0.08,1.4 0.24,2.02 0.16,0.6 0.6,1.04 0.54,0.6 1.38,0.6 0.82,0 1.36,-0.6 0.44,-0.44 0.6,-1.04 0.16,-0.62 0.24,-2.02 0.04,-0.76 0.04,-2.68 0,-0.44 -0.02,-1.1 0,-0.66 0,-0.78 -0.04,-1.62 -0.2,-2.28 -0.16,-0.66 -0.6,-1.12 z"
       style="font-style:normal;font-variant:normal;font-weight:normal;font-stretch:normal;font-size:20px;line-height:125%;font-family:KaTeX_Main;-inkscape-font-specification:'KaTeX_Main, Normal';text-align:center;writing-mode:lr-tb;text-anchor:middle;fill:#000000"
       id="path5783" />
  </g>
  <g
     style="font-style:normal;font-variant:normal;font-weight:normal;font-stretch:normal;font-size:20px;line-height:125%;font-family:KaTeX_Main;-inkscape-font-specification:'KaTeX_Main, Normal';text-align:center;writing-mode:lr-tb;text-anchor:middle;fill:#000000"
     id="text208">
    <path
       d="m 294.26523,126.38993 q -0.28,-0.14 -0.28,-0.4 0,-0.26 0.28,-0.4 l 5.98,0 0,-3 0.02,-3 q 0.2,-0.26 0.38,-0.26 0.26,0 0.4,0.3 l 0,5.96 5.96,0 q 0.3,0.16 0.3,0.4 0,0.24 -0.3,0.4 l -5.96,0 0,5.96 q -0.14,0.28 -0.4,0.28 -0.26,0 -0.4,-0.28 l 0,-5.96 -5.98,0 z"
       style="font-style:normal;font-variant:normal;font-weight:normal;font-stretch:normal;font-size:20px;line-height:125%;font-family:KaTeX_Main;-inkscape-font-specification:'KaTeX_Main, Normal';text-align:center;writing-mode:lr-tb;text-anchor:middle;fill:#000000"
       id="path5772" />
    <path
       d="m 311.89117,124.28993 q -0.98,-0.64 -1.52,-1.34 -0.52,-0.7 -0.52,-1.84 0,-0.86 0.32,-1.44 0.44,-0.9 1.28,-1.44 0.86,-0.56 1.96,-0.56 1.36,0 2.36,0.72 1,0.7 1.24,1.82 0.02,0.12 0.02,0.48 0,0.44 -0.04,0.6 -0.3,1.32 -1.82,2.28 l -0.24,0.16 q 1.12,0.76 1.16,0.8 1.5,1.2 1.5,2.98 0,1.62 -1.2,2.78 -1.18,1.14 -2.96,1.14 -2.46,0 -3.62,-1.8 -0.5,-0.72 -0.5,-1.74 0,-2.18 2.58,-3.6 z m 3.98,-3.56 q 0,-0.86 -0.56,-1.46 -0.56,-0.6 -1.36,-0.76 -0.14,-0.02 -0.66,-0.02 -1.06,0 -1.78,0.72 -0.5,0.46 -0.5,1.1 0,0.86 0.72,1.36 0.1,0.1 1.28,0.84 l 1.16,0.76 q 0.02,-0.02 0.26,-0.16 0.24,-0.16 0.36,-0.28 1.08,-0.86 1.08,-2.1 z m -5.28,7.12 q 0,1.18 0.86,1.96 0.86,0.76 2,0.76 0.82,0 1.48,-0.34 0.68,-0.34 1.02,-0.88 0.34,-0.52 0.34,-1.1 0,-0.86 -0.7,-1.52 -0.16,-0.16 -1.66,-1.14 -0.28,-0.18 -0.62,-0.38 -0.32,-0.22 -0.5,-0.34 l -0.16,-0.1 -0.24,0.12 q -1.26,0.82 -1.66,2 -0.16,0.52 -0.16,0.96 z"
       style="font-style:normal;font-variant:normal;font-weight:normal;font-stretch:normal;font-size:20px;line-height:125%;font-family:KaTeX_Main;-inkscape-font-specification:'KaTeX_Main, Normal';text-align:center;writing-mode:lr-tb;text-anchor:middle;fill:#000000"
       id="path5774" />
    <path
       d="m 320.59117,126.70993 q 0.48,0 0.8,0.34 0.34,0.32 0.34,0.82 0,0.46 -0.34,0.78 -0.34,0.32 -0.76,0.32 l -0.14,0 0.06,0.1 q 0.3,0.64 0.92,1.06 0.62,0.42 1.46,0.42 1.42,0 2.04,-1.2 0.38,-0.74 0.38,-2.56 0,-2.06 -0.54,-2.78 -0.52,-0.66 -1.28,-0.66 -1.56,0 -2.36,1.36 -0.08,0.14 -0.16,0.18 -0.06,0.02 -0.28,0.02 -0.34,0 -0.38,-0.12 -0.04,-0.08 -0.04,-3.5 0,-0.6 -0.02,-1.42 0,-0.82 0,-1.04 0,-1.12 0.12,-1.12 0.04,-0.04 0.08,-0.04 l 0.36,0.12 q 1.3,0.52 2.66,0.52 1.42,0 2.72,-0.56 0.16,-0.08 0.26,-0.08 0.16,0 0.16,0.36 l 0,0.26 q -1.62,1.94 -4.1,1.94 -0.62,0 -1.12,-0.12 l -0.2,-0.04 0,3.44 q 1.14,-0.92 2.34,-0.92 0.38,0 0.82,0.1 1.34,0.34 2.18,1.52 0.86,1.18 0.86,2.76 0,1.82 -1.28,3.14 -1.26,1.32 -3.12,1.32 -1.26,0 -2.14,-0.7 -0.38,-0.24 -0.66,-0.66 -0.6,-0.72 -0.76,-1.78 0,-0.06 -0.02,-0.18 0,-0.14 0,-0.2 0,-0.56 0.32,-0.88 0.32,-0.32 0.82,-0.32 z"
       style="font-style:normal;font-variant:normal;font-weight:normal;font-stretch:normal;font-size:20px;line-height:125%;font-family:KaTeX_Main;-inkscape-font-specification:'KaTeX_Main, Normal';text-align:center;writing-mode:lr-tb;text-anchor:middle;fill:#000000"
       id="path5776" />
  </g>
</svg>
