<?xml version="1.0" encoding="UTF-8" standalone="no"?>
<!-- Generator: Adobe Illustrator 19.1.0, SVG Export Plug-In . SVG Version: 6.00 Build 0)  -->

<svg
   xmlns:dc="http://purl.org/dc/elements/1.1/"
   xmlns:cc="http://creativecommons.org/ns#"
   xmlns:rdf="http://www.w3.org/1999/02/22-rdf-syntax-ns#"
   xmlns:svg="http://www.w3.org/2000/svg"
   xmlns="http://www.w3.org/2000/svg"
   xmlns:sodipodi="http://sodipodi.sourceforge.net/DTD/sodipodi-0.dtd"
   xmlns:inkscape="http://www.inkscape.org/namespaces/inkscape"
   version="1.1"
   id="Layer_1"
   x="0px"
   y="0px"
   viewBox="0 0 281.70081 96.249191"
   xml:space="preserve"
   inkscape:version="0.91 r13725"
   sodipodi:docname="diode_LED1.svg"
   width="281.70081"
   height="96.249191"><metadata
     id="metadata99"><rdf:RDF><cc:Work
         rdf:about=""><dc:format>image/svg+xml</dc:format><dc:type
           rdf:resource="http://purl.org/dc/dcmitype/StillImage" /><dc:title></dc:title></cc:Work></rdf:RDF></metadata><defs
     id="defs97" /><sodipodi:namedview
     pagecolor="#ffffff"
     bordercolor="#666666"
     borderopacity="1"
     objecttolerance="10"
     gridtolerance="10"
     guidetolerance="10"
     inkscape:pageopacity="0"
     inkscape:pageshadow="2"
     inkscape:window-width="640"
     inkscape:window-height="480"
     id="namedview95"
     showgrid="false"
     fit-margin-top="10"
     fit-margin-right="10"
     fit-margin-bottom="10"
     fit-margin-left="10"
     inkscape:zoom="2.3819598"
     inkscape:cx="140.8504"
     inkscape:cy="48.124596"
     inkscape:current-layer="Layer_1" /><style
     type="text/css"
     id="style3">
	.st0{fill:none;}
	.st1{fill:none;stroke:#000000;stroke-linecap:round;stroke-linejoin:round;stroke-miterlimit:10;}
	.st2{stroke:#000000;stroke-linecap:round;stroke-linejoin:round;stroke-miterlimit:10;}
	.st3{fill:none;stroke:#FF9C39;stroke-width:5;stroke-miterlimit:10;}
	.st4{fill:url(#SVGID_1_);}
	.st5{fill:url(#SVGID_2_);}
	.st6{fill:none;stroke:#000000;stroke-width:2;stroke-miterlimit:10;}
	.st7{fill:none;stroke:#000000;stroke-linecap:round;stroke-miterlimit:10;}
	.st8{fill:none;stroke:#000000;stroke-width:1.5;stroke-miterlimit:10;}
	.st9{fill:none;stroke:#000000;stroke-width:1.5;stroke-linecap:round;stroke-miterlimit:10;}
	.st10{fill:none;stroke:#000000;stroke-width:2;stroke-linecap:round;stroke-miterlimit:10;}
	.st11{fill:#B6FFB0;stroke:#000000;stroke-linecap:round;stroke-linejoin:round;stroke-miterlimit:10;}
	.st12{fill:none;stroke:#000000;stroke-width:2;stroke-linecap:round;stroke-linejoin:round;stroke-miterlimit:10;}
	.st13{fill:none;stroke:#000000;stroke-miterlimit:10;}
	.st14{fill:#FFFFFF;stroke:#000000;stroke-miterlimit:10;}
	.st15{fill:none;stroke:#11ACCD;stroke-width:3;stroke-linecap:round;stroke-miterlimit:10;}
	.st16{fill:#11ACCD;}
	.st17{fill:#FF9C39;}
	.st18{fill:none;stroke:#FF9C39;stroke-width:2;stroke-linecap:round;stroke-miterlimit:10;}
	.st19{fill:url(#SVGID_3_);}
	.st20{font-family:'KaTeX_Main-Regular';}
	.st21{font-size:24px;}
	.st22{fill:url(#SVGID_4_);}
	.st23{fill:url(#SVGID_5_);}
	.st24{fill:url(#SVGID_6_);}
	.st25{fill:url(#SVGID_7_);}
	.st26{fill:none;stroke:#01A995;stroke-miterlimit:10;stroke-dasharray:1.9742,1.9742;}
	.st27{fill:none;stroke:#01A995;stroke-width:2;stroke-miterlimit:10;}
	.st28{fill:#01A995;}
	.st29{fill:#FCE15B;stroke:#CEAB19;stroke-miterlimit:10;}
	.st30{fill:#BABEC2;stroke:#626569;stroke-miterlimit:10;}
	.st31{fill:#E84D39;stroke:#BE2612;stroke-miterlimit:10;}
	.st32{fill:#3B3E40;stroke:#888D93;stroke-miterlimit:10;}
	.st33{fill:#F4D345;stroke:#CEAB19;stroke-miterlimit:10;}
	.st34{fill:#FFEA94;stroke:#CEAB19;stroke-miterlimit:10;}
	.st35{fill:none;stroke:#3B3E40;stroke-width:4;stroke-miterlimit:10;}
	.st36{fill:#626569;stroke:#000000;stroke-miterlimit:10;}
	.st37{fill:none;stroke:#E84D39;stroke-width:4;stroke-miterlimit:10;}
	.st38{stroke:#000000;stroke-miterlimit:10;}
	.st39{fill:none;stroke:#8AF281;stroke-linecap:round;stroke-linejoin:round;}
	.st40{fill:#8AF281;}
</style><linearGradient
     id="SVGID_1_"
     gradientUnits="userSpaceOnUse"
     x1="104.9897"
     y1="47.283901"
     x2="104.9894"
     y2="43.604099"
     gradientTransform="matrix(1.4,0,0,1.4,-6.45,-24.399786)"><stop
       offset="0"
       style="stop-color:#999999"
       id="stop6" /><stop
       offset="0.272"
       style="stop-color:#9C9C9C"
       id="stop8" /><stop
       offset="0.4448"
       style="stop-color:#A4A4A4"
       id="stop10" /><stop
       offset="0.59"
       style="stop-color:#B3B3B3"
       id="stop12" /><stop
       offset="0.7192"
       style="stop-color:#C8C8C8"
       id="stop14" /><stop
       offset="0.7413"
       style="stop-color:#CCCCCC"
       id="stop16" /><stop
       offset="1"
       style="stop-color:#4D4D4D"
       id="stop18" /></linearGradient><rect
     x="69.149994"
     y="36.640209"
     class="st4"
     width="142.8"
     height="5.1799998"
     id="rect20"
     style="fill:url(#SVGID_1_)" /><linearGradient
     id="SVGID_2_"
     gradientUnits="userSpaceOnUse"
     x1="93.000099"
     y1="63.689701"
     x2="92.999802"
     y2="60.011799"
     gradientTransform="matrix(1.4,0,0,1.4,-6.45,-24.399786)"><stop
       offset="0"
       style="stop-color:#999999"
       id="stop23" /><stop
       offset="0.272"
       style="stop-color:#9C9C9C"
       id="stop25" /><stop
       offset="0.4448"
       style="stop-color:#A4A4A4"
       id="stop27" /><stop
       offset="0.59"
       style="stop-color:#B3B3B3"
       id="stop29" /><stop
       offset="0.7192"
       style="stop-color:#C8C8C8"
       id="stop31" /><stop
       offset="0.7413"
       style="stop-color:#CCCCCC"
       id="stop33" /><stop
       offset="1"
       style="stop-color:#4D4D4D"
       id="stop35" /></linearGradient><rect
     x="69.149994"
     y="59.600212"
     class="st5"
     width="109.2"
     height="5.1799998"
     id="rect37"
     style="fill:url(#SVGID_2_)" /><g
     id="g39"
     transform="matrix(1.68,0,0,1.68,-53.379204,-36.518239)"
     style="opacity:0.86000001"><rect
       x="169.5"
       y="30"
       class="st0"
       width="24"
       height="42"
       id="rect41"
       style="fill:none" /><line
       class="st1"
       x1="181.5"
       y1="72"
       x2="181.5"
       y2="30"
       id="line43"
       style="fill:none;stroke:#000000;stroke-linecap:round;stroke-linejoin:round;stroke-miterlimit:10" /><polyline
       class="st1"
       points="190.5,56.4 181.5,56.4 172.5,56.4  "
       id="polyline45"
       style="fill:none;stroke:#000000;stroke-linecap:round;stroke-linejoin:round;stroke-miterlimit:10" /><polygon
       class="st2"
       points="190.5,43.8 181.5,56.4 172.5,43.8 "
       id="polygon47"
       style="stroke:#000000;stroke-linecap:round;stroke-linejoin:round;stroke-miterlimit:10" /></g><g
     style="font-style:normal;font-variant:normal;font-weight:normal;font-stretch:normal;font-size:22.5px;line-height:125%;font-family:KaTeX_Main;-inkscape-font-specification:'KaTeX_Main, Normal';text-align:start;writing-mode:lr-tb;text-anchor:start"
     id="text49"><path
       d="m 125.16002,26.110001 q -0.405,-0.0675 -2.5875,-0.0675 -2.0025,0 -2.2725,0.0675 l -0.1575,0 0,-1.035 0.3375,0 q 1.62,-0.0675 2.07,-0.945 0.0225,-0.0675 1.1925,-3.5325 1.17,-3.4875 2.3175,-6.93 1.17,-3.465 1.1925,-3.4875 0.0675,-0.18 0.4275,-0.18 l 0.2025,0 q 0.45,0.0225 0.54,0.1575 0.0225,0.0225 2.1825,6.435 2.1825,6.4125 2.7,8.01 0.0675,0.135 0.1575,0.225 0.2475,0.225 1.4175,0.2475 l 0.675,0 0,1.035 -0.2025,0 q -0.3375,-0.0675 -2.8575,-0.0675 -2.9025,0 -3.24,0.0675 l -0.225,0 0,-1.035 0.2925,0 q 1.575,0 1.575,-0.405 0,-0.045 -0.54,-1.665 l -0.54,-1.5975 -5.2425,0 -0.45,1.3275 q -0.45,1.3275 -0.45,1.4625 0,0.1125 0.0675,0.2025 0.135,0.2925 0.5625,0.495 0.45,0.18 0.945,0.18 l 0.1125,0 0,1.035 -0.2025,0 z m 3.6225,-7.8075 q -0.6525,-1.9575 -1.1475,-3.3975 l -0.45,-1.3275 -1.125,3.375 -1.1475,3.3975 q 0,0.0225 2.2725,0.0225 l 2.295,0 -0.6975,-2.07 z"
       style="font-style:normal;font-variant:normal;font-weight:normal;font-stretch:normal;font-size:22.5px;line-height:125%;font-family:KaTeX_Main;-inkscape-font-specification:'KaTeX_Main, Normal';text-align:start;writing-mode:lr-tb;text-anchor:start"
       id="path4196" /><path
       d="m 140.52752,24.760001 q 0.18,0.315 1.0575,0.315 l 0.315,0 0.36,0 0,1.035 -0.18,0 q -0.2925,-0.0675 -2.52,-0.0675 -2.2275,0 -2.52,0.0675 l -0.18,0 0,-1.035 0.36,0 0.315,0 q 0.8775,0 1.0575,-0.315 l 0,-0.18 q 0,-0.2025 0,-0.5175 0,-0.315 0,-0.6975 0.0225,-0.405 0.0225,-0.8775 0,-0.495 0,-0.945 0,-0.6975 -0.0225,-1.485 0,-0.81 0,-1.3275 l 0,-0.5175 q -0.0675,-0.4275 -0.3375,-0.5625 -0.2475,-0.1575 -0.99,-0.2025 l -0.405,0 0,-0.5175 q 0,-0.5175 0.045,-0.5175 l 0.225,-0.0225 q 0.225,-0.0225 0.63,-0.045 0.4275,-0.0225 0.8325,-0.045 0.3825,-0.0225 0.81,-0.045 0.4275,-0.045 0.6525,-0.0675 0.225,-0.0225 0.2475,-0.0225 l 0.0675,0 0,0.9 q 0,0.855 0.0225,0.855 l 0.0225,-0.0225 q 1.215,-1.7325 3.4425,-1.7325 2.5875,0.09 2.8575,2.5425 0.0225,0.1575 0.0225,3.1275 0,2.88 0.0225,2.925 0.09,0.18 0.27,0.2475 0.4725,0.0675 1.1025,0.0675 l 0.36,0 0,1.035 -0.18,0 q -0.2925,-0.0675 -2.52,-0.0675 -2.2275,0 -2.52,0.0675 l -0.18,0 0,-1.035 0.36,0 0.18,0 q 1.1925,0 1.1925,-0.36 0.0225,-0.045 0.0225,-3.105 -0.0225,-3.0375 -0.045,-3.2175 -0.1575,-0.72 -0.5175,-1.035 -0.3375,-0.3375 -1.0575,-0.3375 -1.0125,0 -1.7775,0.765 -0.7875,0.7875 -0.9225,1.98 0,0.0225 0,0.4275 0,0.3825 -0.0225,0.99 0,0.6075 0,1.1475 0,0.3375 0,0.72 0,0.36 0,0.6525 0.0225,0.2925 0.0225,0.54 0,0.225 0,0.3825 l 0,0.135 z"
       style="font-style:normal;font-variant:normal;font-weight:normal;font-stretch:normal;font-size:22.5px;line-height:125%;font-family:KaTeX_Main;-inkscape-font-specification:'KaTeX_Main, Normal';text-align:start;writing-mode:lr-tb;text-anchor:start"
       id="path4198" /><path
       d="m 149.45194,21.295001 q 0,-2.0475 1.305,-3.51 1.305,-1.485 3.1275,-1.71 0.36,-0.045 0.5625,-0.045 1.9575,0 3.3975,1.44 1.575,1.575 1.575,3.8025 0,0.45 -0.1125,1.0575 -0.27,1.4175 -1.2825,2.475 -0.99,1.035 -2.4075,1.395 -0.5175,0.135 -1.17,0.135 -0.675,0 -1.1925,-0.135 -1.6875,-0.4275 -2.745,-1.7775 -1.0575,-1.3725 -1.0575,-3.1275 z m 5.4,-4.41 q -0.1125,-0.0225 -0.36,-0.0225 -0.675,0 -1.2825,0.27 -1.26,0.63 -1.5075,2.4525 -0.045,0.405 -0.045,1.44 0,2.1375 0.4275,3.0375 0.72,1.3725 2.3625,1.3725 2.745,0 2.745,-3.6675 l 0,-0.72 q 0,-1.4625 -0.1125,-1.98 -0.3825,-1.7775 -2.2275,-2.1825 z"
       style="font-style:normal;font-variant:normal;font-weight:normal;font-stretch:normal;font-size:22.5px;line-height:125%;font-family:KaTeX_Main;-inkscape-font-specification:'KaTeX_Main, Normal';text-align:start;writing-mode:lr-tb;text-anchor:start"
       id="path4200" /><path
       d="m 165.51799,16.165001 q 1.665,0 2.97,1.1025 l 0,-2.295 q 0,-2.34 -0.0225,-2.43 -0.0675,-0.4275 -0.3375,-0.5625 -0.2475,-0.1575 -0.99,-0.2025 l -0.405,0 0,-0.5175 q 0,-0.5175 0.045,-0.5175 l 0.225,-0.0225 q 0.225,-0.0225 0.6525,-0.045 0.4275,-0.0225 0.8325,-0.045 0.3825,-0.0225 0.8325,-0.045 0.45,-0.045 0.675,-0.0675 0.225,-0.0225 0.2475,-0.0225 l 0.0675,0 0,6.84 q 0,6.885 0.0225,6.9525 0.0675,0.45 0.315,0.6075 0.27,0.135 1.0125,0.18 l 0.405,0 0,1.035 q -0.045,0 -1.7325,0.1125 -1.665,0.1125 -1.755,0.135 l -0.1575,0 0,-1.2375 -0.18,0.1575 q -1.2825,1.08 -2.925,1.08 -1.575,0 -2.79,-1.0575 -1.395,-1.2375 -1.71,-3.24 -0.0225,-0.18 -0.0225,-0.7875 0,-2.1825 1.395,-3.645 1.395,-1.4625 3.33,-1.4625 z m 2.9025,2.25 q -1.0125,-1.4175 -2.5425,-1.4175 -1.1025,0 -1.9575,0.81 -0.5625,0.585 -0.765,1.3725 -0.18,0.7875 -0.18,2.1825 0,2.4975 0.945,3.42 0.6975,0.7425 1.755,0.7425 0.7875,0 1.5075,-0.4275 0.72,-0.4275 1.1475,-1.17 l 0.09,-0.135 0,-5.3775 z"
       style="font-style:normal;font-variant:normal;font-weight:normal;font-stretch:normal;font-size:22.5px;line-height:125%;font-family:KaTeX_Main;-inkscape-font-specification:'KaTeX_Main, Normal';text-align:start;writing-mode:lr-tb;text-anchor:start"
       id="path4202" /><path
       d="m 181.88991,20.597501 q 0,0.1575 -0.1575,0.315 l -6.345,0 0,0.3375 q 0,1.665 0.45,2.52 0.81,1.665 2.79,1.665 0.9675,0 1.62,-0.72 0.45,-0.45 0.6975,-1.17 0.0675,-0.2475 0.135,-0.315 0.0675,-0.0675 0.36,-0.0675 0.45,0 0.45,0.225 0,0.09 -0.0675,0.2925 -0.4275,1.17 -1.3725,1.935 -0.9225,0.7425 -2.2725,0.7425 -0.4275,0 -0.99,-0.1125 -1.2825,-0.2475 -2.295,-1.17 -1.0125,-0.9225 -1.44,-2.2275 -0.27,-0.81 -0.27,-1.6425 0,-2.07 1.215,-3.4875 1.215,-1.44 2.9925,-1.665 0.09,-0.0225 0.315,-0.0225 2.0475,0 3.105,1.215 1.08,1.1925 1.08,3.3525 z m -1.845,-0.675 q -0.2025,-2.4525 -1.665,-2.97 -0.1575,-0.0675 -0.4725,-0.09 -1.17,0 -1.9125,1.08 -0.45,0.72 -0.585,2.0025 l 0,0.1575 4.635,0 0,-0.18 z"
       style="font-style:normal;font-variant:normal;font-weight:normal;font-stretch:normal;font-size:22.5px;line-height:125%;font-family:KaTeX_Main;-inkscape-font-specification:'KaTeX_Main, Normal';text-align:start;writing-mode:lr-tb;text-anchor:start"
       id="path4204" /></g><g
     style="font-style:normal;font-variant:normal;font-weight:normal;font-stretch:normal;font-size:22.5px;line-height:125%;font-family:KaTeX_Main;-inkscape-font-specification:'KaTeX_Main, Normal';text-align:start;writing-mode:lr-tb;text-anchor:start"
     id="text51"><path
       d="m 133.73252,79.994195 0.135,0.135 0,0.3375 q -0.1125,2.025 -1.3275,3.5775 -1.215,1.5525 -3.1275,2.0475 -0.6525,0.1575 -1.4625,0.1575 -0.8325,0 -1.4175,-0.135 -2.52,-0.495 -4.2525,-2.385 -1.71,-1.89 -2.115,-4.68 -0.0225,-0.2025 -0.0225,-0.9675 0,-0.7425 0.0225,-0.9675 0.3825,-2.745 2.115,-4.635 1.7325,-1.9125 4.2525,-2.43 0.72,-0.135 1.1475,-0.135 0.045,0 0.18,0.0225 0.135,0 0.2025,0 0.54,0 0.765,0.045 1.6425,0.2925 2.8575,1.485 l 0.2925,0.27 0.675,-0.8775 q 0.6075,-0.8325 0.6975,-0.9225 0.0225,0 0.09,0 0.0675,-0.0225 0.135,-0.0225 0.1575,0 0.2925,0.135 l 0,6.3 -0.135,0.135 -0.765,0 q -0.135,-0.135 -0.1575,-0.3825 -0.2025,-1.845 -1.08,-3.195 -0.8775,-1.35 -2.1375,-1.7775 -0.4275,-0.1575 -1.125,-0.1575 -2.34,0 -3.915,1.575 -1.7775,1.7775 -1.7775,5.535 0,2.7225 0.855,4.2975 0.6975,1.3275 1.98,2.0925 1.305,0.765 2.9025,0.765 1.6425,0 2.8575,-1.17 1.215,-1.1925 1.485,-2.79 0.1125,-0.5625 0.1125,-0.99 0,-0.1575 0.135,-0.2925 l 0.63,0 z"
       style="font-style:normal;font-variant:normal;font-weight:normal;font-stretch:normal;font-size:22.5px;line-height:125%;font-family:KaTeX_Main;-inkscape-font-specification:'KaTeX_Main, Normal';text-align:start;writing-mode:lr-tb;text-anchor:start"
       id="path4181" /><path
       d="m 138.60729,78.554195 q -0.3375,0.36 -0.855,0.36 -0.5175,0 -0.855,-0.36 -0.3375,-0.36 -0.3375,-0.855 0,-0.315 0.18,-0.72 0.2925,-0.6075 1.17,-0.945 0.8775,-0.3375 2.1375,-0.3375 1.485,0 2.565,0.675 1.1025,0.675 1.44,1.755 0.1125,0.315 0.1125,0.72 0.0225,0.3825 0.0225,2.565 0,2.205 0,2.5875 0.0225,0.36 0.135,0.5625 0.135,0.315 0.45,0.315 0.2925,0 0.4275,-0.315 0.135,-0.27 0.135,-1.2375 l 0,-0.81 0.9,0 0,0.8775 q -0.0225,0.9 -0.0675,1.0575 -0.2025,0.63 -0.7425,1.0575 -0.54,0.405 -1.2825,0.405 -0.5625,0 -1.0125,-0.3825 -0.4275,-0.405 -0.585,-0.9675 l 0,-0.09 q -0.0675,0.0675 -0.27,0.315 -0.2025,0.225 -0.2925,0.315 -1.1025,0.9225 -2.565,0.9225 -1.17,0 -2.0925,-0.495 -0.9225,-0.495 -1.2375,-1.305 -0.18,-0.4275 -0.18,-0.855 0,-1.0575 0.8775,-1.935 0.5175,-0.5175 1.2825,-0.855 1.53,-0.6975 3.915,-0.8325 l 0.315,0 0,-0.495 q 0,-0.765 -0.135,-1.125 -0.225,-0.7425 -0.7875,-1.17 -0.5625,-0.4275 -1.395,-0.4275 -1.5075,0 -1.5075,0.18 0.495,0.3375 0.495,0.99 0,0.495 -0.36,0.855 z m 3.69,3.285 q 0,-1.305 -0.0225,-1.305 -0.0675,0 -0.1125,0.0225 -3.0825,0.2025 -3.9375,1.8225 -0.2475,0.45 -0.2475,1.0125 0,0.765 0.54,1.2825 0.54,0.5175 1.3275,0.5175 0.9,0 1.53,-0.54 0.6525,-0.54 0.855,-1.3275 0.045,-0.1575 0.0675,-1.485 z"
       style="font-style:normal;font-variant:normal;font-weight:normal;font-stretch:normal;font-size:22.5px;line-height:125%;font-family:KaTeX_Main;-inkscape-font-specification:'KaTeX_Main, Normal';text-align:start;writing-mode:lr-tb;text-anchor:start"
       id="path4183" /><path
       d="m 149.56479,72.276695 0,-0.3375 0.9,0 0,4.14 3.0375,0 0,1.035 -3.0375,0 0,3.24 q 0.0225,2.8125 0.0225,3.195 0.0225,0.36 0.1575,0.6975 0.315,0.8775 1.1025,0.8775 0.99,0 1.215,-1.5975 0.0225,-0.18 0.0225,-1.035 l 0,-0.7875 0.9,0 0,0.7875 q 0,1.035 -0.1125,1.485 -0.2475,0.9 -0.855,1.4625 -0.585,0.5625 -1.5525,0.5625 -1.215,0 -1.935,-0.6525 -0.72,-0.675 -0.8325,-1.8225 -0.0225,-0.1575 -0.0225,-3.33 l 0,-3.0825 -1.7775,0 0,-0.8325 0.2025,0 q 0.8325,-0.0675 1.4175,-0.72 1.035,-1.08 1.1475,-3.285 z"
       style="font-style:normal;font-variant:normal;font-weight:normal;font-stretch:normal;font-size:22.5px;line-height:125%;font-family:KaTeX_Main;-inkscape-font-specification:'KaTeX_Main, Normal';text-align:start;writing-mode:lr-tb;text-anchor:start"
       id="path4185" /><path
       d="m 159.36741,84.426695 q 0.18,0.315 1.0575,0.315 l 0.315,0 0.36,0 0,1.035 -0.18,0 q -0.2925,-0.0675 -2.52,-0.0675 -2.2275,0 -2.52,0.0675 l -0.18,0 0,-1.035 0.36,0 0.315,0 q 0.8775,0 1.0575,-0.315 l 0,-0.18 q 0,-0.2025 0,-0.5175 0,-0.315 0,-0.7425 0,-0.4275 0,-0.9675 0.0225,-0.5625 0.0225,-1.125 0,-0.585 0,-1.2375 0,-0.675 0,-1.2825 0,-0.8325 0,-1.755 0,-0.945 -0.0225,-1.6875 0,-0.7425 0,-1.35 0,-0.63 0,-0.99 0,-0.36 0,-0.3825 -0.0675,-0.4275 -0.3375,-0.5625 -0.2475,-0.1575 -0.99,-0.2025 l -0.405,0 0,-0.5175 q 0,-0.5175 0.045,-0.5175 l 0.225,-0.0225 q 0.225,-0.0225 0.6525,-0.045 0.4275,-0.0225 0.8325,-0.045 0.3825,-0.0225 0.8325,-0.045 0.45,-0.045 0.675,-0.0675 0.225,-0.0225 0.2475,-0.0225 l 0.0675,0 0,7.3575 q 1.395,-1.6875 3.24,-1.6875 2.7675,0 3.0375,2.5425 0.0225,0.1575 0.0225,3.1275 0,2.88 0.0225,2.925 0.09,0.18 0.27,0.2475 0.4725,0.0675 1.1025,0.0675 l 0.36,0 0,1.035 -0.18,0 q -0.2925,-0.0675 -2.52,-0.0675 -2.2275,0 -2.52,0.0675 l -0.18,0 0,-1.035 0.36,0 0.18,0 q 1.1925,0 1.1925,-0.36 0.0225,-0.045 0.0225,-3.105 -0.0225,-3.0375 -0.045,-3.2175 -0.1575,-0.72 -0.5175,-1.035 -0.3375,-0.3375 -1.0575,-0.3375 -1.0125,0 -1.7775,0.765 -0.7875,0.7875 -0.9225,1.98 0,0.0225 0,0.4275 0,0.3825 -0.0225,0.99 0,0.6075 0,1.1475 0,0.3375 0,0.72 0,0.36 0,0.6525 0.0225,0.2925 0.0225,0.54 0,0.225 0,0.3825 l 0,0.135 z"
       style="font-style:normal;font-variant:normal;font-weight:normal;font-stretch:normal;font-size:22.5px;line-height:125%;font-family:KaTeX_Main;-inkscape-font-specification:'KaTeX_Main, Normal';text-align:start;writing-mode:lr-tb;text-anchor:start"
       id="path4187" /><path
       d="m 168.29182,80.961695 q 0,-2.0475 1.305,-3.51 1.305,-1.485 3.1275,-1.71 0.36,-0.045 0.5625,-0.045 1.9575,0 3.3975,1.44 1.575,1.575 1.575,3.8025 0,0.45 -0.1125,1.0575 -0.27,1.4175 -1.2825,2.475 -0.99,1.035 -2.4075,1.395 -0.5175,0.135 -1.17,0.135 -0.675,0 -1.1925,-0.135 -1.6875,-0.4275 -2.745,-1.7775 -1.0575,-1.3725 -1.0575,-3.1275 z m 5.4,-4.41 q -0.1125,-0.0225 -0.36,-0.0225 -0.675,0 -1.2825,0.27 -1.26,0.63 -1.5075,2.4525 -0.045,0.405 -0.045,1.44 0,2.1375 0.4275,3.0375 0.72,1.3725 2.3625,1.3725 2.745,0 2.745,-3.6675 l 0,-0.72 q 0,-1.4625 -0.1125,-1.98 -0.3825,-1.7775 -2.2275,-2.1825 z"
       style="font-style:normal;font-variant:normal;font-weight:normal;font-stretch:normal;font-size:22.5px;line-height:125%;font-family:KaTeX_Main;-inkscape-font-specification:'KaTeX_Main, Normal';text-align:start;writing-mode:lr-tb;text-anchor:start"
       id="path4189" /><path
       d="m 184.35787,75.831695 q 1.665,0 2.97,1.1025 l 0,-2.295 q 0,-2.34 -0.0225,-2.43 -0.0675,-0.4275 -0.3375,-0.5625 -0.2475,-0.1575 -0.99,-0.2025 l -0.405,0 0,-0.5175 q 0,-0.5175 0.045,-0.5175 l 0.225,-0.0225 q 0.225,-0.0225 0.6525,-0.045 0.4275,-0.0225 0.8325,-0.045 0.3825,-0.0225 0.8325,-0.045 0.45,-0.045 0.675,-0.0675 0.225,-0.0225 0.2475,-0.0225 l 0.0675,0 0,6.84 q 0,6.885 0.0225,6.9525 0.0675,0.45 0.315,0.6075 0.27,0.135 1.0125,0.18 l 0.405,0 0,1.035 q -0.045,0 -1.7325,0.1125 -1.665,0.1125 -1.755,0.135 l -0.1575,0 0,-1.2375 -0.18,0.1575 q -1.2825,1.08 -2.925,1.08 -1.575,0 -2.79,-1.0575 -1.395,-1.2375 -1.71,-3.24 -0.0225,-0.18 -0.0225,-0.7875 0,-2.1825 1.395,-3.645 1.395,-1.4625 3.33,-1.4625 z m 2.9025,2.25 q -1.0125,-1.4175 -2.5425,-1.4175 -1.1025,0 -1.9575,0.81 -0.5625,0.585 -0.765,1.3725 -0.18,0.7875 -0.18,2.1825 0,2.4975 0.945,3.42 0.6975,0.7425 1.755,0.7425 0.7875,0 1.5075,-0.4275 0.72,-0.4275 1.1475,-1.17 l 0.09,-0.135 0,-5.3775 z"
       style="font-style:normal;font-variant:normal;font-weight:normal;font-stretch:normal;font-size:22.5px;line-height:125%;font-family:KaTeX_Main;-inkscape-font-specification:'KaTeX_Main, Normal';text-align:start;writing-mode:lr-tb;text-anchor:start"
       id="path4191" /><path
       d="m 200.72979,80.264195 q 0,0.1575 -0.1575,0.315 l -6.345,0 0,0.3375 q 0,1.665 0.45,2.52 0.81,1.665 2.79,1.665 0.9675,0 1.62,-0.72 0.45,-0.45 0.6975,-1.17 0.0675,-0.2475 0.135,-0.315 0.0675,-0.0675 0.36,-0.0675 0.45,0 0.45,0.225 0,0.09 -0.0675,0.2925 -0.4275,1.17 -1.3725,1.935 -0.9225,0.7425 -2.2725,0.7425 -0.4275,0 -0.99,-0.1125 -1.2825,-0.2475 -2.295,-1.17 -1.0125,-0.9225 -1.44,-2.2275 -0.27,-0.81 -0.27,-1.6425 0,-2.07 1.215,-3.4875 1.215,-1.44 2.9925,-1.665 0.09,-0.0225 0.315,-0.0225 2.0475,0 3.105,1.215 1.08,1.1925 1.08,3.3525 z m -1.845,-0.675 q -0.2025,-2.4525 -1.665,-2.97 -0.1575,-0.0675 -0.4725,-0.09 -1.17,0 -1.9125,1.08 -0.45,0.72 -0.585,2.0025 l 0,0.1575 4.635,0 0,-0.18 z"
       style="font-style:normal;font-variant:normal;font-weight:normal;font-stretch:normal;font-size:22.5px;line-height:125%;font-family:KaTeX_Main;-inkscape-font-specification:'KaTeX_Main, Normal';text-align:start;writing-mode:lr-tb;text-anchor:start"
       id="path4193" /></g><linearGradient
     id="SVGID_3_"
     gradientUnits="userSpaceOnUse"
     x1="31.464399"
     y1="69.412498"
     x2="31.464399"
     y2="36.778"
     gradientTransform="matrix(1.4,0,0,1.4,-6.45,-24.399787)"><stop
       offset="0"
       style="stop-color:#C42420"
       id="stop54" /><stop
       offset="0.1933"
       style="stop-color:#C52721"
       id="stop56" /><stop
       offset="0.3162"
       style="stop-color:#C82F22"
       id="stop58" /><stop
       offset="0.4195"
       style="stop-color:#CE3E25"
       id="stop60" /><stop
       offset="0.5119"
       style="stop-color:#D65329"
       id="stop62" /><stop
       offset="0.597"
       style="stop-color:#E16E2E"
       id="stop64" /><stop
       offset="0.6757"
       style="stop-color:#EE8E35"
       id="stop66" /><stop
       offset="0.7413"
       style="stop-color:#FBB03B"
       id="stop68" /><stop
       offset="1"
       style="stop-color:#C42420"
       id="stop70" /></linearGradient><path
     class="st19"
     d="m 64.81,27.260211 -34.02,0 c -11.2,0 -20.44,10.22 -20.44,22.68 l 0,0 c 0,12.46 9.24,22.68 20.44,22.68 l 34.02,0"
     id="path72"
     inkscape:connector-curvature="0"
     style="fill:url(#SVGID_3_);stroke:#333333;stroke-width:0.69999999;stroke-miterlimit:4;stroke-dasharray:none" /><linearGradient
     id="SVGID_4_"
     gradientUnits="userSpaceOnUse"
     x1="53.195999"
     y1="67.657204"
     x2="53.221199"
     y2="35.874901"><stop
       offset="0"
       style="stop-color:#C42420"
       id="stop75" /><stop
       offset="0.1933"
       style="stop-color:#C52721"
       id="stop77" /><stop
       offset="0.3162"
       style="stop-color:#C82F22"
       id="stop79" /><stop
       offset="0.4195"
       style="stop-color:#CE3E25"
       id="stop81" /><stop
       offset="0.5119"
       style="stop-color:#D65329"
       id="stop83" /><stop
       offset="0.597"
       style="stop-color:#E16E2E"
       id="stop85" /><stop
       offset="0.6757"
       style="stop-color:#EE8E35"
       id="stop87" /><stop
       offset="0.7413"
       style="stop-color:#FBB03B"
       id="stop89" /><stop
       offset="1"
       style="stop-color:#C42420"
       id="stop91" /></linearGradient><polygon
     class="st22"
     points="55.7,30 55.7,46.3 55.7,70.7 50.7,70.7 50.7,30 "
     id="polygon93"
     style="fill:url(#SVGID_4_);stroke:#4d4d4d;stroke-width:0.5;stroke-miterlimit:4;stroke-dasharray:none"
     transform="matrix(1.4,0,0,1.4,-6.45,-24.399786)" /></svg>