<?xml version="1.0" standalone="no"?><!DOCTYPE svg PUBLIC "-//W3C//DTD SVG 1.1//EN" "http://www.w3.org/Graphics/SVG/1.1/DTD/svg11.dtd"><svg width="500" height="390" transform="translate(0,0)" version="1.1" xmlns="http://www.w3.org/2000/svg" xmlns:xlink="http://www.w3.org/1999/xlink"><defs xmlns="http://www.w3.org/1999/xhtml"><style type="text/css"><![CDATA[
svg .grid { stroke-width: 0.5px; stroke: rgb(187, 187, 187); opacity: 0.5; }
svg .domain { stroke-width: 3px; stroke: black; }
svg { border: none; }
svg .path { stroke-width: 4px; fill: none; stroke-linecap: round; }
svg text { font-style: normal; font-variant: normal; font-weight: normal; font-stretch: normal; font-size: 16px; line-height: normal; font-family: katex_main; }
svg .tick text { font-style: normal; font-variant: normal; font-weight: normal; font-stretch: normal; font-size: 12px; line-height: normal; font-family: katex_math; }]]></style></defs><g transform="translate(40,40)"><g class="x-axis" transform="translate(0,300)" fill="none" font-size="10" font-family="sans-serif" text-anchor="middle"><path class="domain" stroke="#000" d="M0.5,0V0.5H360.5V0"/><g class="tick" opacity="1" transform="translate(0.5,0)"><line stroke="#000" y2="6"/><text fill="#000" y="9" dy="0.71em">-1</text><line class="grid" x1="0" y1="-300" x2="0" y2="10"/></g><g class="tick" opacity="1" transform="translate(60.5,0)"><line stroke="#000" y2="6"/><line class="grid" x1="0" y1="-300" x2="0" y2="10"/></g><g class="tick" opacity="1" transform="translate(120.5,0)"><line stroke="#000" y2="6"/><text fill="#000" y="9" dy="0.71em">1</text><line class="grid" x1="0" y1="-300" x2="0" y2="10"/></g><g class="tick" opacity="1" transform="translate(180.5,0)"><line stroke="#000" y2="6"/><text fill="#000" y="9" dy="0.71em">2</text><line class="grid" x1="0" y1="-300" x2="0" y2="10"/></g><g class="tick" opacity="1" transform="translate(240.5,0)"><line stroke="#000" y2="6"/><text fill="#000" y="9" dy="0.71em">3</text><line class="grid" x1="0" y1="-300" x2="0" y2="10"/></g><g class="tick" opacity="1" transform="translate(300.5,0)"><line stroke="#000" y2="6"/><text fill="#000" y="9" dy="0.71em">4</text><line class="grid" x1="0" y1="-300" x2="0" y2="10"/></g><g class="tick" opacity="1" transform="translate(360.5,0)"><line stroke="#000" y2="6"/><text fill="#000" y="9" dy="0.71em">5</text><line class="grid" x1="0" y1="-300" x2="0" y2="10"/></g><text x="360" dx=".71em" style="text-anchor: start; font-size: 16px; fill: black;">v (volts)</text></g><g class="y-axis" transform="translate(60,0)" fill="none" font-size="10" font-family="sans-serif" text-anchor="end"><path class="domain" stroke="#000" d="M0,310.5H0.5V0.5H0"/><g class="tick" opacity="1" transform="translate(0,300.5)"><line stroke="#000" x2="-6"/><line class="grid" x1="-60" y1="0" x2="300" y2="0"/></g><g class="tick" opacity="1" transform="translate(0,250.5)"><line stroke="#000" x2="-6"/><text fill="#000" x="-9" dy="0.32em">5</text><line class="grid" x1="-60" y1="0" x2="300" y2="0"/></g><g class="tick" opacity="1" transform="translate(0,200.5)"><line stroke="#000" x2="-6"/><text fill="#000" x="-9" dy="0.32em">10</text><line class="grid" x1="-60" y1="0" x2="300" y2="0"/></g><g class="tick" opacity="1" transform="translate(0,150.5)"><line stroke="#000" x2="-6"/><text fill="#000" x="-9" dy="0.32em">15</text><line class="grid" x1="-60" y1="0" x2="300" y2="0"/></g><g class="tick" opacity="1" transform="translate(0,100.50000000000003)"><line stroke="#000" x2="-6"/><text fill="#000" x="-9" dy="0.32em">20</text><line class="grid" x1="-60" y1="0" x2="300" y2="0"/></g><g class="tick" opacity="1" transform="translate(0,50.5)"><line stroke="#000" x2="-6"/><text fill="#000" x="-9" dy="0.32em">25</text><line class="grid" x1="-60" y1="0" x2="300" y2="0"/></g><g class="tick" opacity="1" transform="translate(0,0.5)"><line stroke="#000" x2="-6"/><text fill="#000" x="-9" dy="0.32em">30</text><line class="grid" x1="-60" y1="0" x2="300" y2="0"/></g><text dy="-12px" style="text-anchor: middle; font-size: 16px; fill: black;">i (mA)</text></g><path class="path" d="M-60,300L-57.6,300L-55.199999999999996,300L-52.79999999999999,300L-50.400000000000006,300L-48,300L-45.6,300L-43.199999999999996,300L-40.8,300L-38.400000000000006,300L-36.00000000000001,300L-33.6,300L-31.200000000000003,300L-28.8,300L-26.399999999999995,300L-23.999999999999993,300L-21.59999999999999,300L-19.199999999999992,300L-16.8,300L-14.4,300L-11.999999999999996,300L-9.600000000000009,300L-7.200000000000006,300L-4.800000000000004,300L-2.400000000000002,300L0,300L2.400000000000002,300L4.800000000000004,300L7.200000000000006,300L9.599999999999996,300L11.999999999999996,300L14.4,300L16.8,300L19.200000000000003,300L21.600000000000005,300L23.999999999999993,300L26.399999999999995,300L28.8,300L31.200000000000003,300L33.6,300L36.00000000000001,300L38.39999999999999,300L40.8,300L43.199999999999996,300L45.6,300L48,300L50.400000000000006,300L52.79999999999999,300L55.199999999999996,300L57.6,300L60,300L62.400000000000006,299.99999999999994L64.80000000000001,299.9999999999999L67.2,299.9999999999997L69.60000000000001,299.9999999999993L72.00000000000001,299.99999999999847L74.4,299.9999999999964L76.79999999999998,299.9999999999917L79.19999999999999,299.99999999998084L81.6,299.99999999995566L83.99999999999999,299.9999999998977L86.39999999999999,299.9999999997637L88.8,299.9999999994544L91.2,299.9999999987404L93.60000000000001,299.99999999709206L96,299.99999999328656L98.40000000000002,299.99999998450096L100.80000000000001,299.99999996421815L103.2,299.9999999173922L105.59999999999998,299.9999998092875L108,299.9999995597116L110.39999999999999,299.99999898352837L112.79999999999998,299.99999765332313L115.2,299.99999458234544L117.6,299.99998749253416L120,299.99997112464433L122.4,299.9999333369227L124.80000000000001,299.9998460983156L127.2,299.9996446949432L129.60000000000002,299.9991797251351L132,299.9981062727899L134.4,299.99562804750013L136.79999999999998,299.98990669376275L139.2,299.9766980929455L141.6,299.94620406241415L144,299.8758040320916L146.4,299.7132750327089L148.8,299.33805252897804L151.2,298.4717952589477L153.60000000000002,296.4719107892817L156,291.85487837826275L158.4,281.1957685108011L160.8,256.587619151602L163.20000000000002,199.7760258371165L165.6,68.61796564256059L167.99999999999997,-234.18003297672612L170.4,-933.2345007832782L172.79999999999998,-2547.106293822189L175.2,-6272.9707068472835L177.6,-14874.685963365271L180,-34733.03214889965" style="fill: none; stroke: rgb(17, 172, 205);"/><line x1="60" y1="25" x2="258" y2="300" stroke-width="4" stroke="#74CF70" style="stroke-linecap: round;"/><circle cx="163.8" cy="169" r="5" style="fill: rgb(249, 104, 93);"/><line x1="60" y1="169" x2="163.8" y2="169" stroke-width="1" stroke="black" style="stroke-dasharray: 3, 3;"/><line x1="163.8" y1="169" x2="163.8" y2="300" stroke-width="1" stroke="black" style="stroke-dasharray: 3, 3;"/><text x="180" y="100.00000000000003" style="text-anchor: start; font-size: 20px; fill: black;">diode</text><text x="222" y="230" style="text-anchor: start; font-size: 20px; fill: black;">resistor</text></g></svg>