<?xml version="1.0" encoding="UTF-8" standalone="no"?>
<svg
   xmlns:xhtml="http://www.w3.org/1999/xhtml"
   xmlns:dc="http://purl.org/dc/elements/1.1/"
   xmlns:cc="http://creativecommons.org/ns#"
   xmlns:rdf="http://www.w3.org/1999/02/22-rdf-syntax-ns#"
   xmlns:svg="http://www.w3.org/2000/svg"
   xmlns="http://www.w3.org/2000/svg"
   xmlns:sodipodi="http://sodipodi.sourceforge.net/DTD/sodipodi-0.dtd"
   xmlns:inkscape="http://www.inkscape.org/namespaces/inkscape"
   width="504.37457"
   height="424.19028"
   version="1.1"
   id="svg2"
   inkscape:version="0.92.2 5c3e80d, 2017-08-06"
   sodipodi:docname="diode6.svg">
  <metadata
     id="metadata156">
    <rdf:RDF>
      <cc:Work
         rdf:about="">
        <dc:format>image/svg+xml</dc:format>
        <dc:type
           rdf:resource="http://purl.org/dc/dcmitype/StillImage" />
        <dc:title></dc:title>
      </cc:Work>
    </rdf:RDF>
  </metadata>
  <defs
     id="defs154">
    <marker
       inkscape:isstock="true"
       style="overflow:visible;"
       id="marker26267"
       refX="0.0"
       refY="0.0"
       orient="auto"
       inkscape:stockid="Arrow1Mend">
      <path
         transform="scale(0.4) rotate(180) translate(10,0)"
         style="fill-rule:evenodd;stroke:#74cf70;stroke-width:1pt;stroke-opacity:1;fill:#74cf70;fill-opacity:1"
         d="M 0.0,0.0 L 5.0,-5.0 L -12.5,0.0 L 5.0,5.0 L 0.0,0.0 z "
         id="path26265" />
    </marker>
    <inkscape:path-effect
       effect="bspline"
       id="path-effect26257"
       is_visible="true"
       weight="33.333333"
       steps="2"
       helper_size="0"
       apply_no_weight="true"
       apply_with_weight="true"
       only_selected="false" />
    <inkscape:path-effect
       effect="bspline"
       id="path-effect25959"
       is_visible="true"
       weight="33.333333"
       steps="2"
       helper_size="0"
       apply_no_weight="true"
       apply_with_weight="true"
       only_selected="false" />
    <clipPath
       clipPathUnits="userSpaceOnUse"
       id="clipPath4464">
      <rect
         style="opacity:1;fill:#11accd;fill-opacity:1;stroke:#000000;stroke-width:0.86393279;stroke-linecap:round;stroke-linejoin:round;stroke-miterlimit:4;stroke-dasharray:0.86393279, 5.18359675;stroke-dashoffset:0;stroke-opacity:1"
         id="rect4466"
         width="463.47849"
         height="405.84012"
         x="16.268129"
         y="5.714623" />
    </clipPath>
  </defs>
  <sodipodi:namedview
     pagecolor="#ffffff"
     bordercolor="#666666"
     borderopacity="1"
     objecttolerance="10"
     gridtolerance="10"
     guidetolerance="10"
     inkscape:pageopacity="0"
     inkscape:pageshadow="2"
     inkscape:window-width="640"
     inkscape:window-height="480"
     id="namedview152"
     showgrid="false"
     fit-margin-top="10"
     fit-margin-right="10"
     fit-margin-bottom="10"
     fit-margin-left="10"
     inkscape:zoom="1.4047516"
     inkscape:cx="211.6432"
     inkscape:cy="267.03573"
     inkscape:current-layer="svg2" />
  <xhtml:defs>
    <xhtml:style
       type="text/css"><![CDATA[
svg .grid { stroke-width: 0.5px; stroke: rgb(187, 187, 187); opacity: 0.5; }
svg .domain { stroke-width: 3px; stroke: black; }
svg { border: none; }
svg .path { stroke-width: 4px; fill: none; stroke-linecap: round; }
svg text { font-style: normal; font-variant: normal; font-weight: normal; font-stretch: normal; font-size: 16px; line-height: normal; font-family: katex_main; }
svg .tick text { font-style: normal; font-variant: normal; font-weight: normal; font-stretch: normal; font-size: 12px; line-height: normal; font-family: katex_math; }]]></xhtml:style>
  </xhtml:defs>
  <line
     id="line6"
     style="stroke:#74cf70;stroke-width:3;stroke-linecap:round;stroke-miterlimit:4;stroke-dasharray:none;stroke-opacity:1;opacity:0.3"
     y2="394.28537"
     x2="291.73187"
     y1="119.28538"
     x1="93.731873" />
  <path
     class="domain"
     d="m 34.231871,394.28538 0,0.5 359.999999,0 0,-0.5"
     id="path10"
     inkscape:connector-curvature="0"
     style="font-size:medium;font-family:sans-serif;text-anchor:middle;fill:none;stroke:#000000" />
  <line
     style="font-size:medium;font-family:sans-serif;text-anchor:middle;fill:none;stroke:#000000"
     x2="34.231873"
     y1="394.28537"
     x1="34.231873"
     id="line14"
     y2="400.28537" />
  <g
     aria-label="-1"
     style="font-style:normal;font-variant:normal;font-weight:normal;font-stretch:normal;font-size:12.5px;line-height:0%;font-family:KaTeX_Main;-inkscape-font-specification:'KaTeX_Main, Normal';text-align:center;writing-mode:lr-tb;text-anchor:middle;fill:#000000"
     id="text16">
    <path
       d="m 29.15697,411.67778 v -0.9125 h 3.325 v 0.9125 z"
       style="font-style:normal;font-variant:normal;font-weight:normal;font-stretch:normal;font-size:12.5px;line-height:0%;font-family:KaTeX_Main;-inkscape-font-specification:'KaTeX_Main, Normal';text-align:center;writing-mode:lr-tb;text-anchor:middle;fill:#000000"
       id="path26492" />
    <path
       d="m 38.394275,413.91528 q -0.2125,-0.0375 -1.9875,-0.0375 -1.75,0 -1.9625,0.0375 h -0.15 v -0.575 h 0.325 q 0.725,0 0.9375,-0.0375 0.1,-0.0125 0.3,-0.15 v -6.4625 q -0.025,0 -0.1,0.0375 -0.575,0.225 -1.2875,0.2375 h -0.2375 v -0.575 h 0.2375 q 1.05,-0.0375 1.75,-0.475 0.225,-0.125 0.3875,-0.2875 0.025,-0.0375 0.15,-0.0375 0.125,0 0.2125,0.075 v 3.7375 l 0.0125,3.75 q 0.1875,0.1875 0.8125,0.1875 h 0.4125 0.325 v 0.575 z"
       style="font-style:normal;font-variant:normal;font-weight:normal;font-stretch:normal;font-size:12.5px;line-height:0%;font-family:KaTeX_Main;-inkscape-font-specification:'KaTeX_Main, Normal';text-align:center;writing-mode:lr-tb;text-anchor:middle;fill:#000000"
       id="path26494" />
  </g>
  <line
     style="font-size:medium;font-family:sans-serif;text-anchor:middle;fill:none"
     id="line18"
     y2="404.28537"
     x2="34.231873"
     y1="44.285378"
     x1="34.231873"
     class="grid" />
  <line
     style="font-size:medium;font-family:sans-serif;text-anchor:middle;fill:none;stroke:#000000"
     x2="94.231873"
     y1="394.28537"
     x1="94.231873"
     id="line22"
     y2="400.28537" />
  <line
     style="font-size:medium;font-family:sans-serif;text-anchor:middle;fill:none"
     id="line24"
     y2="404.28537"
     x2="94.231873"
     y1="44.285378"
     x1="94.231873"
     class="grid" />
  <line
     style="font-size:medium;font-family:sans-serif;text-anchor:middle;fill:none;stroke:#000000"
     x2="154.23187"
     y1="394.28537"
     x1="154.23187"
     id="line28"
     y2="400.28537" />
  <g
     aria-label="1"
     style="font-style:normal;font-variant:normal;font-weight:normal;font-stretch:normal;font-size:12.5px;line-height:0%;font-family:KaTeX_Main;-inkscape-font-specification:'KaTeX_Main, Normal';text-align:center;writing-mode:lr-tb;text-anchor:middle;fill:#000000"
     id="text30">
    <path
       d="m 156.30687,413.91528 q -0.2125,-0.0375 -1.9875,-0.0375 -1.75,0 -1.9625,0.0375 h -0.15 v -0.575 h 0.325 q 0.725,0 0.9375,-0.0375 0.1,-0.0125 0.3,-0.15 v -6.4625 q -0.025,0 -0.1,0.0375 -0.575,0.225 -1.2875,0.2375 h -0.2375 v -0.575 h 0.2375 q 1.05,-0.0375 1.75,-0.475 0.225,-0.125 0.3875,-0.2875 0.025,-0.0375 0.15,-0.0375 0.125,0 0.2125,0.075 v 3.7375 l 0.0125,3.75 q 0.1875,0.1875 0.8125,0.1875 h 0.4125 0.325 v 0.575 z"
       style="font-style:normal;font-variant:normal;font-weight:normal;font-stretch:normal;font-size:12.5px;line-height:0%;font-family:KaTeX_Main;-inkscape-font-specification:'KaTeX_Main, Normal';text-align:center;writing-mode:lr-tb;text-anchor:middle;fill:#000000"
       id="path26489" />
  </g>
  <line
     style="font-size:medium;font-family:sans-serif;text-anchor:middle;fill:none"
     id="line32"
     y2="404.28537"
     x2="154.23187"
     y1="44.285378"
     x1="154.23187"
     class="grid" />
  <line
     style="font-size:medium;font-family:sans-serif;text-anchor:middle;fill:none;stroke:#000000"
     x2="214.23187"
     y1="394.28537"
     x1="214.23187"
     id="line36"
     y2="400.28537" />
  <g
     aria-label="2"
     style="font-style:normal;font-variant:normal;font-weight:normal;font-stretch:normal;font-size:12.5px;line-height:0%;font-family:KaTeX_Main;-inkscape-font-specification:'KaTeX_Main, Normal';text-align:center;writing-mode:lr-tb;text-anchor:middle;fill:#000000"
     id="text38">
    <path
       d="m 212.48187,408.55278 q -0.35,0 -0.55,-0.225 -0.2,-0.225 -0.2,-0.55 0,-0.9 0.675,-1.5375 0.6875,-0.65 1.6375,-0.65 1.075,0 1.775,0.5875 0.7125,0.575 0.875,1.5125 0.025,0.225 0.025,0.4125 0,0.725 -0.4375,1.3625 -0.35,0.525 -1.4125,1.4375 -0.45,0.3875 -1.25,1.15 l -0.7375,0.7 0.95,0.0125 q 1.9625,0 2.0875,-0.0625 0.05,-0.0125 0.125,-0.2625 0.05,-0.1375 0.175,-0.85 v -0.0375 h 0.5 v 0.0375 l -0.35,2.2875 v 0.0375 h -4.6375 v -0.2375 q 0,-0.25 0.025,-0.2875 0.0125,-0.0125 1.05,-1.1875 1.3625,-1.5125 1.75,-2 0.8375,-1.1375 0.8375,-2.0875 0,-0.825 -0.4375,-1.375 -0.425,-0.5625 -1.2,-0.5625 -0.725,0 -1.175,0.65 -0.025,0.05 -0.075,0.1375 -0.0375,0.0625 -0.0375,0.075 0,0.0125 0.0625,0.0125 0.3125,0 0.5,0.225 0.2,0.225 0.2,0.525 0,0.3125 -0.2125,0.5375 -0.2,0.2125 -0.5375,0.2125 z"
       style="font-style:normal;font-variant:normal;font-weight:normal;font-stretch:normal;font-size:12.5px;line-height:0%;font-family:KaTeX_Main;-inkscape-font-specification:'KaTeX_Main, Normal';text-align:center;writing-mode:lr-tb;text-anchor:middle;fill:#000000"
       id="path26486" />
  </g>
  <line
     style="font-size:medium;font-family:sans-serif;text-anchor:middle;fill:none"
     id="line40"
     y2="404.28537"
     x2="214.23187"
     y1="44.285378"
     x1="214.23187"
     class="grid" />
  <line
     style="font-size:medium;font-family:sans-serif;text-anchor:middle;fill:none;stroke:#000000"
     x2="274.23187"
     y1="394.28537"
     x1="274.23187"
     id="line44"
     y2="400.28537" />
  <g
     aria-label="3"
     style="font-style:normal;font-variant:normal;font-weight:normal;font-stretch:normal;font-size:12.5px;line-height:0%;font-family:KaTeX_Main;-inkscape-font-specification:'KaTeX_Main, Normal';text-align:center;writing-mode:lr-tb;text-anchor:middle;fill:#000000"
     id="text46">
    <path
       d="m 272.69437,408.12778 q -0.3375,0 -0.5375,-0.2125 -0.1875,-0.2125 -0.1875,-0.55 0,-0.7125 0.5625,-1.1875 0.5625,-0.4875 1.3,-0.575 h 0.1875 q 0.4375,0 0.55,0.0125 0.4125,0.0625 0.8375,0.2625 0.825,0.4125 1.0375,1.175 0.0375,0.125 0.0375,0.3375 0,0.7375 -0.4625,1.325 -0.45,0.575 -1.1375,0.825 -0.0625,0.025 0,0.0375 0.025,0.0125 0.125,0.0375 0.7625,0.2125 1.2875,0.8 0.525,0.575 0.525,1.3125 0,0.5125 -0.2375,0.9875 -0.3,0.6375 -0.9875,1.0625 -0.675,0.4125 -1.5125,0.4125 -0.825,0 -1.4625,-0.35 -0.6375,-0.35 -0.8625,-0.9375 -0.125,-0.2625 -0.125,-0.6125 0,-0.35 0.225,-0.5625 0.2375,-0.225 0.5625,-0.225 0.35,0 0.575,0.225 0.225,0.225 0.225,0.5625 0,0.2875 -0.1625,0.5 -0.1625,0.2125 -0.4375,0.275 l -0.0875,0.025 q 0.675,0.5625 1.55,0.5625 0.6875,0 1.0375,-0.6625 0.2125,-0.4125 0.2125,-1.2625 v -0.25 q 0,-1.1875 -0.8,-1.5875 -0.1875,-0.075 -0.7625,-0.0875 l -0.525,-0.0125 -0.0375,-0.025 q -0.025,-0.0375 -0.025,-0.2 0,-0.15 0.0375,-0.1875 0.0375,-0.0375 0.0625,-0.0375 0.35,0 0.725,-0.0625 0.55,-0.075 0.8375,-0.6125 0.2875,-0.55 0.2875,-1.3125 0,-0.8125 -0.4375,-1.0875 -0.2625,-0.175 -0.5875,-0.175 -0.625,0 -1.1,0.3375 -0.05,0.025 -0.1125,0.0875 -0.0625,0.05 -0.1,0.1 l -0.0375,0.05 q 0.0375,0.0125 0.0875,0.025 0.25,0.025 0.4125,0.2375 0.175,0.2125 0.175,0.4875 0,0.3 -0.2125,0.5125 -0.2,0.2 -0.525,0.2 z"
       style="font-style:normal;font-variant:normal;font-weight:normal;font-stretch:normal;font-size:12.5px;line-height:0%;font-family:KaTeX_Main;-inkscape-font-specification:'KaTeX_Main, Normal';text-align:center;writing-mode:lr-tb;text-anchor:middle;fill:#000000"
       id="path26483" />
  </g>
  <line
     style="font-size:medium;font-family:sans-serif;text-anchor:middle;fill:none"
     id="line48"
     y2="404.28537"
     x2="274.23187"
     y1="44.285378"
     x1="274.23187"
     class="grid" />
  <line
     style="font-size:medium;font-family:sans-serif;text-anchor:middle;fill:none;stroke:#000000"
     x2="334.23187"
     y1="394.28537"
     x1="334.23187"
     id="line52"
     y2="400.28537" />
  <g
     aria-label="4"
     style="font-style:normal;font-variant:normal;font-weight:normal;font-stretch:normal;font-size:12.5px;line-height:0%;font-family:KaTeX_Main;-inkscape-font-specification:'KaTeX_Main, Normal';text-align:center;writing-mode:lr-tb;text-anchor:middle;fill:#000000"
     id="text54">
    <path
       d="m 336.88187,413.91528 q -0.175,-0.0375 -1.6125,-0.0375 -1.5,0 -1.675,0.0375 h -0.1125 v -0.575 h 0.3875 q 0.5375,-0.0125 0.6625,-0.0625 0.1,-0.025 0.15,-0.125 0.0125,-0.025 0.0125,-0.675 v -0.625 h -3.2375 v -0.575 l 1.8875,-2.8875 q 1.9125,-2.9 1.9375,-2.9125 0.025,-0.025 0.2625,-0.025 h 0.225 l 0.075,0.075 v 5.75 h 1.15 v 0.575 h -1.15 v 0.6375 q 0,0.5125 0,0.6 0.0125,0.0875 0.075,0.15 0.1,0.0875 0.7125,0.1 h 0.3625 v 0.575 z m -2.1125,-2.6375 v -4.175 l -2.7375,4.1625 1.3625,0.0125 z"
       style="font-style:normal;font-variant:normal;font-weight:normal;font-stretch:normal;font-size:12.5px;line-height:0%;font-family:KaTeX_Main;-inkscape-font-specification:'KaTeX_Main, Normal';text-align:center;writing-mode:lr-tb;text-anchor:middle;fill:#000000"
       id="path26480" />
  </g>
  <line
     style="font-size:medium;font-family:sans-serif;text-anchor:middle;fill:none"
     id="line56"
     y2="404.28537"
     x2="334.23187"
     y1="44.285378"
     x1="334.23187"
     class="grid" />
  <line
     style="font-size:medium;font-family:sans-serif;text-anchor:middle;fill:none;stroke:#000000"
     x2="394.23187"
     y1="394.28537"
     x1="394.23187"
     id="line60"
     y2="400.28537" />
  <g
     aria-label="5"
     style="font-style:normal;font-variant:normal;font-weight:normal;font-stretch:normal;font-size:12.5px;line-height:0%;font-family:KaTeX_Main;-inkscape-font-specification:'KaTeX_Main, Normal';text-align:center;writing-mode:lr-tb;text-anchor:middle;fill:#000000"
     id="text62">
    <path
       d="m 392.44437,411.24028 q 0.3,0 0.5,0.2125 0.2125,0.2 0.2125,0.5125 0,0.2875 -0.2125,0.4875 -0.2125,0.2 -0.475,0.2 h -0.0875 l 0.0375,0.0625 q 0.1875,0.4 0.575,0.6625 0.3875,0.2625 0.9125,0.2625 0.8875,0 1.275,-0.75 0.2375,-0.4625 0.2375,-1.6 0,-1.2875 -0.3375,-1.7375 -0.325,-0.4125 -0.8,-0.4125 -0.975,0 -1.475,0.85 -0.05,0.0875 -0.1,0.1125 -0.0375,0.0125 -0.175,0.0125 -0.2125,0 -0.2375,-0.075 -0.025,-0.05 -0.025,-2.1875 0,-0.375 -0.0125,-0.8875 0,-0.5125 0,-0.65 0,-0.7 0.075,-0.7 0.025,-0.025 0.05,-0.025 l 0.225,0.075 q 0.8125,0.325 1.6625,0.325 0.8875,0 1.7,-0.35 0.1,-0.05 0.1625,-0.05 0.1,0 0.1,0.225 v 0.1625 q -1.0125,1.2125 -2.5625,1.2125 -0.3875,0 -0.7,-0.075 l -0.125,-0.025 v 2.15 q 0.7125,-0.575 1.4625,-0.575 0.2375,0 0.5125,0.0625 0.8375,0.2125 1.3625,0.95 0.5375,0.7375 0.5375,1.725 0,1.1375 -0.8,1.9625 -0.7875,0.825 -1.95,0.825 -0.7875,0 -1.3375,-0.4375 -0.2375,-0.15 -0.4125,-0.4125 -0.375,-0.45 -0.475,-1.1125 0,-0.0375 -0.0125,-0.1125 0,-0.0875 0,-0.125 0,-0.35 0.2,-0.55 0.2,-0.2 0.5125,-0.2 z"
       style="font-style:normal;font-variant:normal;font-weight:normal;font-stretch:normal;font-size:12.5px;line-height:0%;font-family:KaTeX_Main;-inkscape-font-specification:'KaTeX_Main, Normal';text-align:center;writing-mode:lr-tb;text-anchor:middle;fill:#000000"
       id="path26477" />
  </g>
  <line
     style="font-size:medium;font-family:sans-serif;text-anchor:middle;fill:none"
     id="line64"
     y2="404.28537"
     x2="394.23187"
     y1="44.285378"
     x1="394.23187"
     class="grid" />
  <g
     aria-label="vD (volts)"
     style="font-style:normal;font-variant:normal;font-weight:normal;font-stretch:normal;font-size:22.5px;line-height:0%;font-family:KaTeX_Main;-inkscape-font-specification:'KaTeX_Main, Normal';text-align:center;writing-mode:lr-tb;text-anchor:middle;fill:#000000"
     id="text66">
    <path
       d="m 409.76729,398.07617 q -1.44,0 -2.295,-0.72 -0.8325,-0.7425 -0.8325,-2.16 0,-0.405 0.045,-0.765 0.2025,-1.08 1.0575,-3.3075 l 0.36,-1.08 q 0.135,-0.405 0.135,-0.765 0,-0.5625 -0.4275,-0.5625 -0.1575,0 -0.36,0.0675 -1.1475,0.405 -1.7325,2.5875 0,0.0225 -0.0225,0.09 -0.0225,0.045 -0.045,0.0675 0,0 -0.0225,0.0225 -0.0225,0.0225 -0.09,0.0225 -0.045,0 -0.09,0 -0.045,0 -0.18,0 h -0.315 q -0.135,-0.135 -0.135,-0.2025 0,-0.0675 0.0675,-0.3375 0.54,-1.7775 1.665,-2.655 0.6075,-0.4725 1.395,-0.4725 0.8775,0 1.44,0.495 0.5625,0.495 0.5625,1.305 0,0.3825 -0.0675,0.585 0,0.1575 -0.3375,0.99 -1.035,2.8125 -1.1025,4.005 0,0.6075 0.1125,0.99 0.2925,0.9675 1.4175,0.9675 0.6075,0 1.08,-0.36 1.395,-0.9225 2.3175,-4.2525 0.18,-0.63 0.18,-1.035 0,-0.99 -0.8775,-1.7775 -0.2925,-0.27 -0.2925,-0.6075 0,-0.5175 0.405,-0.9225 0.4275,-0.4275 0.945,-0.4275 0.54,0 0.8325,0.5175 0.2925,0.495 0.2925,1.1925 0,0.7875 -0.45,2.5875 -0.4275,1.7325 -1.08,3.015 -1.4175,2.9025 -3.555,2.9025 z"
       style="font-style:normal;font-variant:normal;font-weight:normal;font-stretch:normal;font-size:22.5px;line-height:125%;font-family:KaTeX_Math;-inkscape-font-specification:'KaTeX_Math, Normal';text-align:center;writing-mode:lr-tb;text-anchor:middle"
       id="path26458" />
    <path
       d="m 417.14448,393.23192 q -0.14625,-0.14625 -0.2925,-0.1755 -0.13163,-0.0292 -0.73125,-0.0439 h -0.48263 v -0.67275 h 2.93963 q 2.50087,0.0146 2.79337,0.0292 0.2925,0 0.61425,0.0731 1.43325,0.30713 2.3985,1.521 0.97987,1.21388 1.18462,2.82263 0.0292,0.2925 0.0292,0.62887 0,0.33638 -0.0292,0.62888 -0.20475,1.62337 -1.24312,2.808 -1.03838,1.17 -2.61787,1.43325 -0.19013,0.0292 -3.12975,0.0439 h -2.93963 v -0.67275 h 0.48263 q 0.59962,-0.0146 0.73125,-0.0439 0.14625,-0.0292 0.2925,-0.1755 z m 3.87562,-0.20475 q -0.0292,0 -0.20475,0 -0.16087,0 -0.4095,0 -0.24862,-0.0146 -0.45337,-0.0146 -0.20475,0 -0.45338,0.0146 -0.24862,0 -0.4095,0 -0.16087,0 -0.19012,0 -0.19013,0.0146 -0.234,0.117 -0.0439,0.0585 -0.0439,4.1535 0,4.12425 0.0146,4.16813 0.0292,0.13162 0.1755,0.16087 0.117,0.0292 1.38937,0.0292 0.95063,0 1.49175,-0.14625 0.55575,-0.14625 1.08225,-0.57037 1.14075,-0.95063 1.14075,-3.55388 0,-0.9945 -0.10238,-1.521 -0.234,-1.5795 -1.36012,-2.34 -0.6435,-0.42412 -1.43325,-0.49725 z"
       style="font-size:64.99999762%;baseline-shift:sub"
       id="path26460" />
    <path
       d="m 439.52943,403.25117 q 0,0.2025 -0.405,0.2025 h -0.2925 q -0.1575,-0.135 -0.63,-0.54 -4.05,-3.69 -4.05,-10.71 0,-2.745 0.6525,-5.0175 1.035,-3.5325 3.3975,-5.6925 0.1575,-0.135 0.36,-0.2925 0.2025,-0.18 0.27,-0.2475 h 0.2925 q 0.27,0 0.3375,0.0675 0.0675,0.0675 0.0675,0.135 0,0.09 -0.2475,0.3375 -3.4875,3.69 -3.4875,10.71 0,7.02 3.4875,10.71 0.2475,0.2475 0.2475,0.3375 z"
       style="font-style:normal;font-variant:normal;font-weight:normal;font-stretch:normal;font-size:22.5px;line-height:0%;font-family:KaTeX_Main;-inkscape-font-specification:'KaTeX_Main, Normal';text-align:center;writing-mode:lr-tb;text-anchor:middle;fill:#000000"
       id="path26462" />
    <path
       d="m 448.38704,388.13117 q 0.1125,0.045 1.08,0.045 h 0.81 q 1.2825,0 1.8225,-0.045 h 0.1125 v 1.035 h -0.2475 q -1.26,0.0675 -1.665,0.9 -0.045,0.09 -1.53,3.8925 -1.4625,3.8025 -1.5075,3.915 -0.1125,0.2025 -0.5625,0.2025 -0.4275,0 -0.54,-0.2025 -3.15,-8.1225 -3.1725,-8.235 -0.09,-0.225 -0.27,-0.315 -0.1575,-0.09 -0.2925,-0.1125 -0.135,-0.0225 -0.675,-0.045 h -0.54 v -1.035 h 0.135 q 0.225,0.0675 2.1825,0.0675 2.1375,0 2.475,-0.0675 h 0.18 v 1.035 h -0.315 q -0.8775,0.0225 -0.945,0.3375 0,0.09 1.1475,3.06 l 1.1475,2.97 q 0.6975,-1.7775 2.0475,-5.3775 v -0.18 q 0,-0.36 -0.2925,-0.585 -0.2925,-0.225 -0.6525,-0.225 h -0.09 v -1.035 z"
       style="font-style:normal;font-variant:normal;font-weight:normal;font-stretch:normal;font-size:22.5px;line-height:0%;font-family:KaTeX_Main;-inkscape-font-specification:'KaTeX_Main, Normal';text-align:center;writing-mode:lr-tb;text-anchor:middle;fill:#000000"
       id="path26464" />
    <path
       d="m 453.27728,393.01367 q 0,-2.0475 1.305,-3.51 1.305,-1.485 3.1275,-1.71 0.36,-0.045 0.5625,-0.045 1.9575,0 3.3975,1.44 1.575,1.575 1.575,3.8025 0,0.45 -0.1125,1.0575 -0.27,1.4175 -1.2825,2.475 -0.99,1.035 -2.4075,1.395 -0.5175,0.135 -1.17,0.135 -0.675,0 -1.1925,-0.135 -1.6875,-0.4275 -2.745,-1.7775 -1.0575,-1.3725 -1.0575,-3.1275 z m 5.4,-4.41 q -0.1125,-0.0225 -0.36,-0.0225 -0.675,0 -1.2825,0.27 -1.26,0.63 -1.5075,2.4525 -0.045,0.405 -0.045,1.44 0,2.1375 0.4275,3.0375 0.72,1.3725 2.3625,1.3725 2.745,0 2.745,-3.6675 v -0.72 q 0,-1.4625 -0.1125,-1.98 -0.3825,-1.7775 -2.2275,-2.1825 z"
       style="font-style:normal;font-variant:normal;font-weight:normal;font-stretch:normal;font-size:22.5px;line-height:0%;font-family:KaTeX_Main;-inkscape-font-specification:'KaTeX_Main, Normal';text-align:center;writing-mode:lr-tb;text-anchor:middle;fill:#000000"
       id="path26466" />
    <path
       d="m 464.84228,396.79367 h 0.315 q 0.8775,0 1.0575,-0.315 v -0.18 q 0,-0.2025 0,-0.5175 0,-0.315 0,-0.7425 0.0225,-0.4275 0.0225,-0.9675 0,-0.5625 0,-1.125 0,-0.585 0,-1.2375 0,-0.675 0,-1.2825 0,-0.8325 0,-1.755 0,-0.945 0,-1.6875 0,-0.7425 -0.0225,-1.35 0,-0.63 0,-0.99 0,-0.36 0,-0.3825 -0.0675,-0.4275 -0.3375,-0.5625 -0.2475,-0.1575 -0.99,-0.2025 h -0.405 v -0.5175 q 0,-0.5175 0.045,-0.5175 l 0.225,-0.0225 q 0.225,-0.0225 0.6525,-0.045 0.4275,-0.0225 0.8325,-0.045 0.3825,-0.0225 0.8325,-0.045 0.45,-0.045 0.675,-0.0675 0.225,-0.0225 0.2475,-0.0225 h 0.0675 v 7.0875 q 0,7.1325 0.0225,7.1775 0.09,0.18 0.27,0.2475 0.4725,0.0675 1.1025,0.0675 h 0.36 v 1.035 h -0.18 q -0.405,-0.0675 -2.475,-0.0675 -2.205,0 -2.4975,0.0675 h -0.18 v -1.035 z"
       style="font-style:normal;font-variant:normal;font-weight:normal;font-stretch:normal;font-size:22.5px;line-height:0%;font-family:KaTeX_Main;-inkscape-font-specification:'KaTeX_Main, Normal';text-align:center;writing-mode:lr-tb;text-anchor:middle;fill:#000000"
       id="path26468" />
    <path
       d="m 473.31001,384.32867 v -0.3375 h 0.9 v 4.14 h 3.0375 v 1.035 h -3.0375 v 3.24 q 0.0225,2.8125 0.0225,3.195 0.0225,0.36 0.1575,0.6975 0.315,0.8775 1.1025,0.8775 0.99,0 1.215,-1.5975 0.0225,-0.18 0.0225,-1.035 v -0.7875 h 0.9 v 0.7875 q 0,1.035 -0.1125,1.485 -0.2475,0.9 -0.855,1.4625 -0.585,0.5625 -1.5525,0.5625 -1.215,0 -1.935,-0.6525 -0.72,-0.675 -0.8325,-1.8225 -0.0225,-0.1575 -0.0225,-3.33 v -3.0825 h -1.7775 v -0.8325 h 0.2025 q 0.8325,-0.0675 1.4175,-0.72 1.035,-1.08 1.1475,-3.285 z"
       style="font-style:normal;font-variant:normal;font-weight:normal;font-stretch:normal;font-size:22.5px;line-height:0%;font-family:KaTeX_Main;-inkscape-font-specification:'KaTeX_Main, Normal';text-align:center;writing-mode:lr-tb;text-anchor:middle;fill:#000000"
       id="path26470" />
    <path
       d="m 483.15763,388.51367 q -2.07,0 -2.07,1.4625 0,0.2925 0.045,0.3825 0.2025,0.54 0.6975,0.7875 0.495,0.225 1.53,0.4275 1.2825,0.225 1.755,0.495 1.4175,0.675 1.8225,2.2275 0.0225,0.135 0.0225,0.54 0,0.8775 -0.315,1.5525 -0.8775,1.665 -3.3075,1.665 -1.35,0 -2.34,-0.81 l -0.18,0.1575 -0.2025,0.2025 q -0.135,0.135 -0.27,0.2475 l -0.2475,0.225 h -0.18 q -0.1575,0 -0.2925,-0.135 v -1.7775 q 0,-1.4625 0,-1.6875 0.0225,-0.225 0.1125,-0.27 0.045,-0.0225 0.36,-0.0225 0.2925,0 0.3375,0.045 0.0675,0.045 0.135,0.315 0.18,0.855 0.585,1.5525 0.7875,1.1475 2.1825,1.1475 2.1825,0 2.1825,-1.755 0,-0.6525 -0.405,-1.0575 -0.36,-0.4275 -0.945,-0.6075 -0.3825,-0.09 -1.08,-0.2475 -1.26,-0.2475 -1.71,-0.4725 -1.485,-0.6975 -1.7325,-2.0925 -0.0225,-0.09 -0.0225,-0.3375 0,-2.5875 3.1725,-2.9025 0.09,-0.045 0.54,0 0.9,0 1.575,0.3375 l 0.3375,0.18 0.2025,-0.1575 q 0.2925,-0.2475 0.495,-0.3825 h 0.18 q 0.1575,0 0.2925,0.135 v 2.97 l -0.135,0.135 h -0.63 q -0.135,-0.135 -0.135,-0.27 0,-1.035 -0.63,-1.62 -0.63,-0.585 -1.7325,-0.585 z"
       style="font-style:normal;font-variant:normal;font-weight:normal;font-stretch:normal;font-size:22.5px;line-height:0%;font-family:KaTeX_Main;-inkscape-font-specification:'KaTeX_Main, Normal';text-align:center;writing-mode:lr-tb;text-anchor:middle;fill:#000000"
       id="path26472" />
    <path
       d="m 489.10958,380.97617 0.09,-0.0225 q 0.1125,0 0.225,0 h 0.27 q 0.1575,0.135 0.63,0.54 4.05,3.69 4.05,10.71 0,2.7675 -0.6525,4.995 -1.035,3.555 -3.3975,5.715 -0.1575,0.135 -0.36,0.2925 -0.2025,0.18 -0.27,0.2475 h -0.27 q -0.27,0 -0.36,-0.045 -0.0675,-0.045 -0.0675,-0.225 0.0225,-0.0225 0.2475,-0.2925 3.4875,-3.6225 3.4875,-10.6875 0,-7.065 -3.4875,-10.6875 -0.225,-0.27 -0.2475,-0.2925 0,-0.18 0.1125,-0.2475 z"
       style="font-style:normal;font-variant:normal;font-weight:normal;font-stretch:normal;font-size:22.5px;line-height:0%;font-family:KaTeX_Main;-inkscape-font-specification:'KaTeX_Main, Normal';text-align:center;writing-mode:lr-tb;text-anchor:middle;fill:#000000"
       id="path26474" />
  </g>
  <path
     class="domain"
     d="m 93.731871,404.78538 0.5,0 0,-360.000003 -0.5,0"
     id="path70"
     inkscape:connector-curvature="0"
     style="font-size:medium;font-family:sans-serif;text-anchor:end;fill:none;stroke:#000000" />
  <line
     style="font-size:medium;font-family:sans-serif;text-anchor:end;fill:none;stroke:#000000"
     y2="394.78537"
     y1="394.78537"
     x1="93.731873"
     id="line74"
     x2="87.731873" />
  <line
     style="font-size:medium;font-family:sans-serif;text-anchor:end;fill:none"
     id="line76"
     y2="394.78537"
     x2="393.73187"
     y1="394.78537"
     x1="33.731873"
     class="grid" />
  <line
     style="font-size:medium;font-family:sans-serif;text-anchor:end;fill:none;stroke:#000000"
     y2="344.78537"
     y1="344.78537"
     x1="93.731873"
     id="line80"
     x2="87.731873" />
  <g
     aria-label="5"
     style="font-style:normal;font-variant:normal;font-weight:normal;font-stretch:normal;font-size:12.5px;line-height:0%;font-family:KaTeX_Main;-inkscape-font-specification:'KaTeX_Main, Normal';text-align:center;writing-mode:lr-tb;text-anchor:middle;fill:#000000"
     id="text82">
    <path
       d="m 75.857764,345.65367 q 0.3,0 0.5,0.2125 0.2125,0.2 0.2125,0.5125 0,0.2875 -0.2125,0.4875 -0.2125,0.2 -0.475,0.2 h -0.0875 l 0.0375,0.0625 q 0.1875,0.4 0.575,0.6625 0.3875,0.2625 0.9125,0.2625 0.8875,0 1.275,-0.75 0.2375,-0.4625 0.2375,-1.6 0,-1.2875 -0.3375,-1.7375 -0.325,-0.4125 -0.8,-0.4125 -0.975,0 -1.475,0.85 -0.05,0.0875 -0.1,0.1125 -0.0375,0.0125 -0.175,0.0125 -0.2125,0 -0.2375,-0.075 -0.025,-0.05 -0.025,-2.1875 0,-0.375 -0.0125,-0.8875 0,-0.5125 0,-0.65 0,-0.7 0.075,-0.7 0.025,-0.025 0.05,-0.025 l 0.225,0.075 q 0.8125,0.325 1.6625,0.325 0.8875,0 1.7,-0.35 0.1,-0.05 0.1625,-0.05 0.1,0 0.1,0.225 v 0.1625 q -1.0125,1.2125 -2.5625,1.2125 -0.3875,0 -0.7,-0.075 l -0.125,-0.025 v 2.15 q 0.7125,-0.575 1.4625,-0.575 0.2375,0 0.5125,0.0625 0.8375,0.2125 1.3625,0.95 0.5375,0.7375 0.5375,1.725 0,1.1375 -0.8,1.9625 -0.7875,0.825 -1.95,0.825 -0.7875,0 -1.3375,-0.4375 -0.2375,-0.15 -0.4125,-0.4125 -0.375,-0.45 -0.475,-1.1125 0,-0.0375 -0.0125,-0.1125 0,-0.0875 0,-0.125 0,-0.35 0.2,-0.55 0.2,-0.2 0.5125,-0.2 z"
       style="font-style:normal;font-variant:normal;font-weight:normal;font-stretch:normal;font-size:12.5px;line-height:0%;font-family:KaTeX_Main;-inkscape-font-specification:'KaTeX_Main, Normal';text-align:center;writing-mode:lr-tb;text-anchor:middle;fill:#000000"
       id="path26455" />
  </g>
  <line
     style="font-size:medium;font-family:sans-serif;text-anchor:end;fill:none"
     id="line84"
     y2="344.78537"
     x2="393.73187"
     y1="344.78537"
     x1="33.731873"
     class="grid" />
  <line
     style="font-size:medium;font-family:sans-serif;text-anchor:end;fill:none;stroke:#000000"
     y2="294.78537"
     y1="294.78537"
     x1="93.731873"
     id="line88"
     x2="87.731873" />
  <g
     aria-label="10"
     style="font-style:normal;font-variant:normal;font-weight:normal;font-stretch:normal;font-size:12.5px;line-height:0%;font-family:KaTeX_Main;-inkscape-font-specification:'KaTeX_Main, Normal';text-align:center;writing-mode:lr-tb;text-anchor:middle;fill:#000000"
     id="text90">
    <path
       d="m 76.595264,298.32867 q -0.2125,-0.0375 -1.9875,-0.0375 -1.75,0 -1.9625,0.0375 h -0.15 v -0.575 h 0.325 q 0.725,0 0.9375,-0.0375 0.1,-0.0125 0.3,-0.15 v -6.4625 q -0.025,0 -0.1,0.0375 -0.575,0.225 -1.2875,0.2375 h -0.2375 v -0.575 h 0.2375 q 1.05,-0.0375 1.75,-0.475 0.225,-0.125 0.3875,-0.2875 0.025,-0.0375 0.15,-0.0375 0.125,0 0.2125,0.075 v 3.7375 l 0.0125,3.75 q 0.1875,0.1875 0.8125,0.1875 h 0.4125 0.325 v 0.575 z"
       style="font-style:normal;font-variant:normal;font-weight:normal;font-stretch:normal;font-size:12.5px;line-height:0%;font-family:KaTeX_Main;-inkscape-font-specification:'KaTeX_Main, Normal';text-align:center;writing-mode:lr-tb;text-anchor:middle;fill:#000000"
       id="path26450" />
    <path
       d="m 78.845264,291.01617 q 0.7,-1.0125 1.9125,-1.0125 0.9125,0 1.6,0.625 0.3375,0.325 0.575,0.85 0.4625,1.0375 0.4625,2.85 0,1.9375 -0.5375,2.9625 -0.35,0.725 -1.025,1.05 -0.525,0.2625 -1.0625,0.2625 -1.4375,0 -2.1,-1.3125 -0.5375,-1.025 -0.5375,-2.9625 0,-1.1625 0.15,-1.9125 0.1625,-0.7625 0.5625,-1.4 z m 2.8125,-0.15 q -0.3625,-0.4 -0.8875,-0.4 -0.525,0 -0.9,0.4 -0.275,0.2875 -0.375,0.7 -0.1,0.4125 -0.125,1.425 0,0.075 -0.0125,0.4875 0,0.4125 0,0.6875 0,1.2 0.025,1.675 0.05,0.875 0.15,1.2625 0.1,0.375 0.375,0.65 0.3375,0.375 0.8625,0.375 0.5125,0 0.85,-0.375 0.275,-0.275 0.375,-0.65 0.1,-0.3875 0.15,-1.2625 0.025,-0.475 0.025,-1.675 0,-0.275 -0.0125,-0.6875 0,-0.4125 0,-0.4875 -0.025,-1.0125 -0.125,-1.425 -0.1,-0.4125 -0.375,-0.7 z"
       style="font-style:normal;font-variant:normal;font-weight:normal;font-stretch:normal;font-size:12.5px;line-height:0%;font-family:KaTeX_Main;-inkscape-font-specification:'KaTeX_Main, Normal';text-align:center;writing-mode:lr-tb;text-anchor:middle;fill:#000000"
       id="path26452" />
  </g>
  <line
     style="font-size:medium;font-family:sans-serif;text-anchor:end;fill:none"
     id="line92"
     y2="294.78537"
     x2="393.73187"
     y1="294.78537"
     x1="33.731873"
     class="grid" />
  <line
     style="font-size:medium;font-family:sans-serif;text-anchor:end;fill:none;stroke:#000000"
     y2="244.78537"
     y1="244.78537"
     x1="93.731873"
     id="line96"
     x2="87.731873" />
  <g
     aria-label="15"
     style="font-style:normal;font-variant:normal;font-weight:normal;font-stretch:normal;font-size:12.5px;line-height:0%;font-family:KaTeX_Main;-inkscape-font-specification:'KaTeX_Main, Normal';text-align:center;writing-mode:lr-tb;text-anchor:middle;fill:#000000"
     id="text98">
    <path
       d="m 76.595264,248.32867 q -0.2125,-0.0375 -1.9875,-0.0375 -1.75,0 -1.9625,0.0375 h -0.15 v -0.575 h 0.325 q 0.725,0 0.9375,-0.0375 0.1,-0.0125 0.3,-0.15 v -6.4625 q -0.025,0 -0.1,0.0375 -0.575,0.225 -1.2875,0.2375 h -0.2375 v -0.575 h 0.2375 q 1.05,-0.0375 1.75,-0.475 0.225,-0.125 0.3875,-0.2875 0.025,-0.0375 0.15,-0.0375 0.125,0 0.2125,0.075 v 3.7375 l 0.0125,3.75 q 0.1875,0.1875 0.8125,0.1875 h 0.4125 0.325 v 0.575 z"
       style="font-style:normal;font-variant:normal;font-weight:normal;font-stretch:normal;font-size:12.5px;line-height:0%;font-family:KaTeX_Main;-inkscape-font-specification:'KaTeX_Main, Normal';text-align:center;writing-mode:lr-tb;text-anchor:middle;fill:#000000"
       id="path26445" />
    <path
       d="m 78.982764,245.65367 q 0.3,0 0.5,0.2125 0.2125,0.2 0.2125,0.5125 0,0.2875 -0.2125,0.4875 -0.2125,0.2 -0.475,0.2 h -0.0875 l 0.0375,0.0625 q 0.1875,0.4 0.575,0.6625 0.3875,0.2625 0.9125,0.2625 0.8875,0 1.275,-0.75 0.2375,-0.4625 0.2375,-1.6 0,-1.2875 -0.3375,-1.7375 -0.325,-0.4125 -0.8,-0.4125 -0.975,0 -1.475,0.85 -0.05,0.0875 -0.1,0.1125 -0.0375,0.0125 -0.175,0.0125 -0.2125,0 -0.2375,-0.075 -0.025,-0.05 -0.025,-2.1875 0,-0.375 -0.0125,-0.8875 0,-0.5125 0,-0.65 0,-0.7 0.075,-0.7 0.025,-0.025 0.05,-0.025 l 0.225,0.075 q 0.8125,0.325 1.6625,0.325 0.8875,0 1.7,-0.35 0.1,-0.05 0.1625,-0.05 0.1,0 0.1,0.225 v 0.1625 q -1.0125,1.2125 -2.5625,1.2125 -0.3875,0 -0.7,-0.075 l -0.125,-0.025 v 2.15 q 0.7125,-0.575 1.4625,-0.575 0.2375,0 0.5125,0.0625 0.8375,0.2125 1.3625,0.95 0.5375,0.7375 0.5375,1.725 0,1.1375 -0.8,1.9625 -0.7875,0.825 -1.95,0.825 -0.7875,0 -1.3375,-0.4375 -0.2375,-0.15 -0.4125,-0.4125 -0.375,-0.45 -0.475,-1.1125 0,-0.0375 -0.0125,-0.1125 0,-0.0875 0,-0.125 0,-0.35 0.2,-0.55 0.2,-0.2 0.5125,-0.2 z"
       style="font-style:normal;font-variant:normal;font-weight:normal;font-stretch:normal;font-size:12.5px;line-height:0%;font-family:KaTeX_Main;-inkscape-font-specification:'KaTeX_Main, Normal';text-align:center;writing-mode:lr-tb;text-anchor:middle;fill:#000000"
       id="path26447" />
  </g>
  <line
     style="font-size:medium;font-family:sans-serif;text-anchor:end;fill:none"
     id="line100"
     y2="244.78537"
     x2="393.73187"
     y1="244.78537"
     x1="33.731873"
     class="grid" />
  <line
     style="font-size:medium;font-family:sans-serif;text-anchor:end;fill:none;stroke:#000000"
     y2="194.78537"
     y1="194.78537"
     x1="93.731873"
     id="line104"
     x2="87.731873" />
  <g
     aria-label="20"
     style="font-style:normal;font-variant:normal;font-weight:normal;font-stretch:normal;font-size:12.5px;line-height:0%;font-family:KaTeX_Main;-inkscape-font-specification:'KaTeX_Main, Normal';text-align:center;writing-mode:lr-tb;text-anchor:middle;fill:#000000"
     id="text106">
    <path
       d="m 72.770264,192.96617 q -0.35,0 -0.55,-0.225 -0.2,-0.225 -0.2,-0.55 0,-0.9 0.675,-1.5375 0.6875,-0.65 1.6375,-0.65 1.075,0 1.775,0.5875 0.7125,0.575 0.875,1.5125 0.025,0.225 0.025,0.4125 0,0.725 -0.4375,1.3625 -0.35,0.525 -1.4125,1.4375 -0.45,0.3875 -1.25,1.15 l -0.7375,0.7 0.95,0.0125 q 1.9625,0 2.0875,-0.0625 0.05,-0.0125 0.125,-0.2625 0.05,-0.1375 0.175,-0.85 v -0.0375 h 0.5 v 0.0375 l -0.35,2.2875 v 0.0375 h -4.6375 v -0.2375 q 0,-0.25 0.025,-0.2875 0.0125,-0.0125 1.05,-1.1875 1.3625,-1.5125 1.75,-2 0.8375,-1.1375 0.8375,-2.0875 0,-0.825 -0.4375,-1.375 -0.425,-0.5625 -1.2,-0.5625 -0.725,0 -1.175,0.65 -0.025,0.05 -0.075,0.1375 -0.0375,0.0625 -0.0375,0.075 0,0.0125 0.0625,0.0125 0.3125,0 0.5,0.225 0.2,0.225 0.2,0.525 0,0.3125 -0.2125,0.5375 -0.2,0.2125 -0.5375,0.2125 z"
       style="font-style:normal;font-variant:normal;font-weight:normal;font-stretch:normal;font-size:12.5px;line-height:0%;font-family:KaTeX_Main;-inkscape-font-specification:'KaTeX_Main, Normal';text-align:center;writing-mode:lr-tb;text-anchor:middle;fill:#000000"
       id="path26440" />
    <path
       d="m 78.845264,191.01617 q 0.7,-1.0125 1.9125,-1.0125 0.9125,0 1.6,0.625 0.3375,0.325 0.575,0.85 0.4625,1.0375 0.4625,2.85 0,1.9375 -0.5375,2.9625 -0.35,0.725 -1.025,1.05 -0.525,0.2625 -1.0625,0.2625 -1.4375,0 -2.1,-1.3125 -0.5375,-1.025 -0.5375,-2.9625 0,-1.1625 0.15,-1.9125 0.1625,-0.7625 0.5625,-1.4 z m 2.8125,-0.15 q -0.3625,-0.4 -0.8875,-0.4 -0.525,0 -0.9,0.4 -0.275,0.2875 -0.375,0.7 -0.1,0.4125 -0.125,1.425 0,0.075 -0.0125,0.4875 0,0.4125 0,0.6875 0,1.2 0.025,1.675 0.05,0.875 0.15,1.2625 0.1,0.375 0.375,0.65 0.3375,0.375 0.8625,0.375 0.5125,0 0.85,-0.375 0.275,-0.275 0.375,-0.65 0.1,-0.3875 0.15,-1.2625 0.025,-0.475 0.025,-1.675 0,-0.275 -0.0125,-0.6875 0,-0.4125 0,-0.4875 -0.025,-1.0125 -0.125,-1.425 -0.1,-0.4125 -0.375,-0.7 z"
       style="font-style:normal;font-variant:normal;font-weight:normal;font-stretch:normal;font-size:12.5px;line-height:0%;font-family:KaTeX_Main;-inkscape-font-specification:'KaTeX_Main, Normal';text-align:center;writing-mode:lr-tb;text-anchor:middle;fill:#000000"
       id="path26442" />
  </g>
  <line
     style="font-size:medium;font-family:sans-serif;text-anchor:end;fill:none"
     id="line108"
     y2="194.78537"
     x2="393.73187"
     y1="194.78537"
     x1="33.731873"
     class="grid" />
  <line
     style="font-size:medium;font-family:sans-serif;text-anchor:end;fill:none;stroke:#000000"
     y2="144.78537"
     y1="144.78537"
     x1="93.731873"
     id="line112"
     x2="87.731873" />
  <g
     aria-label="25"
     style="font-style:normal;font-variant:normal;font-weight:normal;font-stretch:normal;font-size:12.5px;line-height:0%;font-family:KaTeX_Main;-inkscape-font-specification:'KaTeX_Main, Normal';text-align:center;writing-mode:lr-tb;text-anchor:middle;fill:#000000"
     id="text114">
    <path
       d="m 72.770264,142.96617 q -0.35,0 -0.55,-0.225 -0.2,-0.225 -0.2,-0.55 0,-0.9 0.675,-1.5375 0.6875,-0.65 1.6375,-0.65 1.075,0 1.775,0.5875 0.7125,0.575 0.875,1.5125 0.025,0.225 0.025,0.4125 0,0.725 -0.4375,1.3625 -0.35,0.525 -1.4125,1.4375 -0.45,0.3875 -1.25,1.15 l -0.7375,0.7 0.95,0.0125 q 1.9625,0 2.0875,-0.0625 0.05,-0.0125 0.125,-0.2625 0.05,-0.1375 0.175,-0.85 v -0.0375 h 0.5 v 0.0375 l -0.35,2.2875 v 0.0375 h -4.6375 v -0.2375 q 0,-0.25 0.025,-0.2875 0.0125,-0.0125 1.05,-1.1875 1.3625,-1.5125 1.75,-2 0.8375,-1.1375 0.8375,-2.0875 0,-0.825 -0.4375,-1.375 -0.425,-0.5625 -1.2,-0.5625 -0.725,0 -1.175,0.65 -0.025,0.05 -0.075,0.1375 -0.0375,0.0625 -0.0375,0.075 0,0.0125 0.0625,0.0125 0.3125,0 0.5,0.225 0.2,0.225 0.2,0.525 0,0.3125 -0.2125,0.5375 -0.2,0.2125 -0.5375,0.2125 z"
       style="font-style:normal;font-variant:normal;font-weight:normal;font-stretch:normal;font-size:12.5px;line-height:0%;font-family:KaTeX_Main;-inkscape-font-specification:'KaTeX_Main, Normal';text-align:center;writing-mode:lr-tb;text-anchor:middle;fill:#000000"
       id="path26435" />
    <path
       d="m 78.982764,145.65367 q 0.3,0 0.5,0.2125 0.2125,0.2 0.2125,0.5125 0,0.2875 -0.2125,0.4875 -0.2125,0.2 -0.475,0.2 h -0.0875 l 0.0375,0.0625 q 0.1875,0.4 0.575,0.6625 0.3875,0.2625 0.9125,0.2625 0.8875,0 1.275,-0.75 0.2375,-0.4625 0.2375,-1.6 0,-1.2875 -0.3375,-1.7375 -0.325,-0.4125 -0.8,-0.4125 -0.975,0 -1.475,0.85 -0.05,0.0875 -0.1,0.1125 -0.0375,0.0125 -0.175,0.0125 -0.2125,0 -0.2375,-0.075 -0.025,-0.05 -0.025,-2.1875 0,-0.375 -0.0125,-0.8875 0,-0.5125 0,-0.65 0,-0.7 0.075,-0.7 0.025,-0.025 0.05,-0.025 l 0.225,0.075 q 0.8125,0.325 1.6625,0.325 0.8875,0 1.7,-0.35 0.1,-0.05 0.1625,-0.05 0.1,0 0.1,0.225 v 0.1625 q -1.0125,1.2125 -2.5625,1.2125 -0.3875,0 -0.7,-0.075 l -0.125,-0.025 v 2.15 q 0.7125,-0.575 1.4625,-0.575 0.2375,0 0.5125,0.0625 0.8375,0.2125 1.3625,0.95 0.5375,0.7375 0.5375,1.725 0,1.1375 -0.8,1.9625 -0.7875,0.825 -1.95,0.825 -0.7875,0 -1.3375,-0.4375 -0.2375,-0.15 -0.4125,-0.4125 -0.375,-0.45 -0.475,-1.1125 0,-0.0375 -0.0125,-0.1125 0,-0.0875 0,-0.125 0,-0.35 0.2,-0.55 0.2,-0.2 0.5125,-0.2 z"
       style="font-style:normal;font-variant:normal;font-weight:normal;font-stretch:normal;font-size:12.5px;line-height:0%;font-family:KaTeX_Main;-inkscape-font-specification:'KaTeX_Main, Normal';text-align:center;writing-mode:lr-tb;text-anchor:middle;fill:#000000"
       id="path26437" />
  </g>
  <line
     style="font-size:medium;font-family:sans-serif;text-anchor:end;fill:none"
     id="line116"
     y2="144.78537"
     x2="393.73187"
     y1="144.78537"
     x1="33.731873"
     class="grid" />
  <line
     style="font-size:medium;font-family:sans-serif;text-anchor:end;fill:none;stroke:#000000"
     y2="94.785378"
     y1="94.785378"
     x1="93.731873"
     id="line120"
     x2="87.731873" />
  <g
     aria-label="30"
     style="font-style:normal;font-variant:normal;font-weight:normal;font-stretch:normal;font-size:12.5px;line-height:0%;font-family:KaTeX_Main;-inkscape-font-specification:'KaTeX_Main, Normal';text-align:center;writing-mode:lr-tb;text-anchor:middle;fill:#000000"
     id="text122">
    <path
       d="m 72.982764,92.541182 q -0.3375,0 -0.5375,-0.2125 -0.1875,-0.2125 -0.1875,-0.55 0,-0.7125 0.5625,-1.1875 0.5625,-0.4875 1.3,-0.575 h 0.1875 q 0.4375,0 0.55,0.0125 0.4125,0.0625 0.8375,0.2625 0.825,0.4125 1.0375,1.175 0.0375,0.125 0.0375,0.3375 0,0.7375 -0.4625,1.325 -0.45,0.575 -1.1375,0.825 -0.0625,0.025 0,0.0375 0.025,0.0125 0.125,0.0375 0.7625,0.2125 1.2875,0.8 0.525,0.575 0.525,1.3125 0,0.5125 -0.2375,0.9875 -0.3,0.6375 -0.9875,1.0625 -0.675,0.4125 -1.5125,0.4125 -0.825,0 -1.4625,-0.35 -0.6375,-0.35 -0.8625,-0.9375 -0.125,-0.2625 -0.125,-0.6125 0,-0.35 0.225,-0.5625 0.2375,-0.225 0.5625,-0.225 0.35,0 0.575,0.225 0.225,0.225 0.225,0.5625 0,0.2875 -0.1625,0.5 -0.1625,0.2125 -0.4375,0.275 l -0.0875,0.025 q 0.675,0.5625 1.55,0.5625 0.6875,0 1.0375,-0.6625 0.2125,-0.4125 0.2125,-1.2625 v -0.25 q 0,-1.1875 -0.8,-1.5875 -0.1875,-0.075 -0.7625,-0.0875 l -0.525,-0.0125 -0.0375,-0.025 q -0.025,-0.0375 -0.025,-0.2 0,-0.15 0.0375,-0.1875 0.0375,-0.0375 0.0625,-0.0375 0.35,0 0.725,-0.0625 0.55,-0.075 0.8375,-0.6125 0.2875,-0.55 0.2875,-1.3125 0,-0.8125 -0.4375,-1.0875 -0.2625,-0.175 -0.5875,-0.175 -0.625,0 -1.1,0.3375 -0.05,0.025 -0.1125,0.0875 -0.0625,0.05 -0.1,0.1 l -0.0375,0.05 q 0.0375,0.0125 0.0875,0.025 0.25,0.025 0.4125,0.2375 0.175,0.2125 0.175,0.4875 0,0.3 -0.2125,0.5125 -0.2,0.2 -0.525,0.2 z"
       style="font-style:normal;font-variant:normal;font-weight:normal;font-stretch:normal;font-size:12.5px;line-height:0%;font-family:KaTeX_Main;-inkscape-font-specification:'KaTeX_Main, Normal';text-align:center;writing-mode:lr-tb;text-anchor:middle;fill:#000000"
       id="path26430" />
    <path
       d="m 78.845264,91.016182 q 0.7,-1.0125 1.9125,-1.0125 0.9125,0 1.6,0.625 0.3375,0.325 0.575,0.85 0.4625,1.0375 0.4625,2.85 0,1.9375 -0.5375,2.9625 -0.35,0.725 -1.025,1.05 -0.525,0.2625 -1.0625,0.2625 -1.4375,0 -2.1,-1.3125 -0.5375,-1.025 -0.5375,-2.9625 0,-1.1625 0.15,-1.9125 0.1625,-0.7625 0.5625,-1.4 z m 2.8125,-0.15 q -0.3625,-0.4 -0.8875,-0.4 -0.525,0 -0.9,0.4 -0.275,0.2875 -0.375,0.7 -0.1,0.4125 -0.125,1.425 0,0.075 -0.0125,0.4875 0,0.4125 0,0.6875 0,1.2 0.025,1.675 0.05,0.875 0.15,1.2625 0.1,0.375 0.375,0.65 0.3375,0.375 0.8625,0.375 0.5125,0 0.85,-0.375 0.275,-0.275 0.375,-0.65 0.1,-0.3875 0.15,-1.2625 0.025,-0.475 0.025,-1.675 0,-0.275 -0.0125,-0.6875 0,-0.4125 0,-0.4875 -0.025,-1.0125 -0.125,-1.425 -0.1,-0.4125 -0.375,-0.7 z"
       style="font-style:normal;font-variant:normal;font-weight:normal;font-stretch:normal;font-size:12.5px;line-height:0%;font-family:KaTeX_Main;-inkscape-font-specification:'KaTeX_Main, Normal';text-align:center;writing-mode:lr-tb;text-anchor:middle;fill:#000000"
       id="path26432" />
  </g>
  <line
     style="font-size:medium;font-family:sans-serif;text-anchor:end;fill:none"
     id="line124"
     y2="94.785378"
     x2="393.73187"
     y1="94.785378"
     x1="33.731873"
     class="grid" />
  <line
     style="font-size:medium;font-family:sans-serif;text-anchor:end;fill:none;stroke:#000000"
     y2="44.785378"
     y1="44.785378"
     x1="93.731873"
     id="line128"
     x2="87.731873" />
  <g
     aria-label="35"
     style="font-style:normal;font-variant:normal;font-weight:normal;font-stretch:normal;font-size:12.5px;line-height:0%;font-family:KaTeX_Main;-inkscape-font-specification:'KaTeX_Main, Normal';text-align:center;writing-mode:lr-tb;text-anchor:middle;fill:#000000"
     id="text130">
    <path
       d="m 72.982764,42.541186 q -0.3375,0 -0.5375,-0.2125 -0.1875,-0.2125 -0.1875,-0.55 0,-0.7125 0.5625,-1.1875 0.5625,-0.4875 1.3,-0.575 h 0.1875 q 0.4375,0 0.55,0.0125 0.4125,0.0625 0.8375,0.2625 0.825,0.4125 1.0375,1.175 0.0375,0.125 0.0375,0.3375 0,0.7375 -0.4625,1.325 -0.45,0.575 -1.1375,0.825 -0.0625,0.025 0,0.0375 0.025,0.0125 0.125,0.0375 0.7625,0.2125 1.2875,0.8 0.525,0.575 0.525,1.3125 0,0.5125 -0.2375,0.9875 -0.3,0.6375 -0.9875,1.0625 -0.675,0.4125 -1.5125,0.4125 -0.825,0 -1.4625,-0.35 -0.6375,-0.35 -0.8625,-0.9375 -0.125,-0.2625 -0.125,-0.6125 0,-0.35 0.225,-0.5625 0.2375,-0.225 0.5625,-0.225 0.35,0 0.575,0.225 0.225,0.225 0.225,0.5625 0,0.2875 -0.1625,0.5 -0.1625,0.2125 -0.4375,0.275 l -0.0875,0.025 q 0.675,0.5625 1.55,0.5625 0.6875,0 1.0375,-0.6625 0.2125,-0.4125 0.2125,-1.2625 v -0.25 q 0,-1.1875 -0.8,-1.5875 -0.1875,-0.075 -0.7625,-0.0875 l -0.525,-0.0125 -0.0375,-0.025 q -0.025,-0.0375 -0.025,-0.2 0,-0.15 0.0375,-0.1875 0.0375,-0.0375 0.0625,-0.0375 0.35,0 0.725,-0.0625 0.55,-0.075 0.8375,-0.6125 0.2875,-0.55 0.2875,-1.3125 0,-0.8125 -0.4375,-1.0875 -0.2625,-0.175 -0.5875,-0.175 -0.625,0 -1.1,0.3375 -0.05,0.025 -0.1125,0.0875 -0.0625,0.05 -0.1,0.1 l -0.0375,0.05 q 0.0375,0.0125 0.0875,0.025 0.25,0.025 0.4125,0.2375 0.175,0.2125 0.175,0.4875 0,0.3 -0.2125,0.5125 -0.2,0.2 -0.525,0.2 z"
       style="font-style:normal;font-variant:normal;font-weight:normal;font-stretch:normal;font-size:12.5px;line-height:0%;font-family:KaTeX_Main;-inkscape-font-specification:'KaTeX_Main, Normal';text-align:center;writing-mode:lr-tb;text-anchor:middle;fill:#000000"
       id="path26425" />
    <path
       d="m 78.982764,45.653686 q 0.3,0 0.5,0.2125 0.2125,0.2 0.2125,0.5125 0,0.2875 -0.2125,0.4875 -0.2125,0.2 -0.475,0.2 h -0.0875 l 0.0375,0.0625 q 0.1875,0.4 0.575,0.6625 0.3875,0.2625 0.9125,0.2625 0.8875,0 1.275,-0.75 0.2375,-0.4625 0.2375,-1.6 0,-1.2875 -0.3375,-1.7375 -0.325,-0.4125 -0.8,-0.4125 -0.975,0 -1.475,0.85 -0.05,0.0875 -0.1,0.1125 -0.0375,0.0125 -0.175,0.0125 -0.2125,0 -0.2375,-0.075 -0.025,-0.05 -0.025,-2.1875 0,-0.375 -0.0125,-0.8875 0,-0.5125 0,-0.65 0,-0.7 0.075,-0.7 0.025,-0.025 0.05,-0.025 l 0.225,0.075 q 0.8125,0.325 1.6625,0.325 0.8875,0 1.7,-0.35 0.1,-0.05 0.1625,-0.05 0.1,0 0.1,0.225 v 0.1625 q -1.0125,1.2125 -2.5625,1.2125 -0.3875,0 -0.7,-0.075 l -0.125,-0.025 v 2.15 q 0.7125,-0.575 1.4625,-0.575 0.2375,0 0.5125,0.0625 0.8375,0.2125 1.3625,0.95 0.5375,0.7375 0.5375,1.725 0,1.1375 -0.8,1.9625 -0.7875,0.825 -1.95,0.825 -0.7875,0 -1.3375,-0.4375 -0.2375,-0.15 -0.4125,-0.4125 -0.375,-0.45 -0.475,-1.1125 0,-0.0375 -0.0125,-0.1125 0,-0.0875 0,-0.125 0,-0.35 0.2,-0.55 0.2,-0.2 0.5125,-0.2 z"
       style="font-style:normal;font-variant:normal;font-weight:normal;font-stretch:normal;font-size:12.5px;line-height:0%;font-family:KaTeX_Main;-inkscape-font-specification:'KaTeX_Main, Normal';text-align:center;writing-mode:lr-tb;text-anchor:middle;fill:#000000"
       id="path26427" />
  </g>
  <line
     style="font-size:medium;font-family:sans-serif;text-anchor:end;fill:none"
     id="line132"
     y2="44.785378"
     x2="393.73187"
     y1="44.785378"
     x1="33.731873"
     class="grid" />
  <g
     aria-label="i (mA)"
     style="font-style:normal;font-variant:normal;font-weight:normal;font-stretch:normal;font-size:22.5px;line-height:0%;font-family:KaTeX_Main;-inkscape-font-specification:'KaTeX_Main, Normal';text-align:center;writing-mode:lr-tb;text-anchor:middle;fill:#000000"
     id="text134">
    <path
       d="m 71.691865,15.242069 q 0,-0.5175 0.4275,-0.945 0.4275,-0.4275 0.99,-0.4275 0.405,0 0.675,0.27 0.2925,0.27 0.2925,0.675 0,0.495 -0.45,0.945 -0.45,0.45 -0.99,0.45 -0.405,0 -0.675,-0.27 -0.27,-0.27 -0.27,-0.6975 z m -0.5175,13.7475 q -0.8775,0 -1.4175,-0.5175 -0.54,-0.5175 -0.54,-1.395 0,-0.3825 0.045,-0.5175 0,-0.045 1.035,-2.7675 1.035,-2.745 1.035,-2.79 0.1125,-0.36 0.1125,-0.81 0,-0.54 -0.3825,-0.54 h -0.045 q -0.54,0 -1.035,0.5175 -0.72,0.7425 -1.0575,2.115 0,0.0225 -0.0225,0.09 -0.0225,0.045 -0.045,0.0675 0,0 -0.0225,0.0225 -0.0225,0.0225 -0.09,0.0225 -0.045,0 -0.09,0 -0.045,0 -0.18,0 h -0.315 q -0.135,-0.135 -0.135,-0.2025 0,-0.0675 0.0675,-0.315 0.585,-1.935 1.71,-2.7 0.6075,-0.4725 1.305,-0.4725 0.9,0 1.485,0.5175 0.585,0.5175 0.585,1.395 0,0.2925 -0.1125,0.675 -0.0225,0.045 -1.035,2.7675 l -1.0125,2.7225 q -0.1125,0.495 -0.1125,0.72 0,0.5625 0.3825,0.5625 0.315,0 0.5625,-0.135 0.99,-0.4725 1.5525,-2.3625 0.0675,-0.27 0.1125,-0.315 0.0675,-0.045 0.3825,-0.045 0.2025,0 0.27,0.0225 0.09,0 0.135,0.045 0.045,0.045 0.045,0.1575 0,0.09 -0.0675,0.2925 -0.4275,1.2825 -1.2375,2.2275 -0.7875,0.945 -1.8675,0.945 z"
       style="font-style:normal;font-variant:normal;font-weight:normal;font-stretch:normal;font-size:22.5px;line-height:125%;font-family:KaTeX_Math;-inkscape-font-specification:'KaTeX_Math, Normal';text-align:center;writing-mode:lr-tb;text-anchor:middle"
       id="path26414" />
    <path
       d="m 88.447685,34.164569 q 0,0.2025 -0.405,0.2025 h -0.2925 q -0.1575,-0.135 -0.63,-0.54 -4.05,-3.69 -4.05,-10.71 0,-2.745 0.6525,-5.0175 1.035,-3.5325 3.3975,-5.6925 0.1575,-0.135 0.36,-0.2925 0.2025,-0.18 0.27,-0.2475 h 0.2925 q 0.27,0 0.3375,0.0675 0.0675,0.0675 0.0675,0.135 0,0.09 -0.2475,0.3375 -3.4875,3.69 -3.4875,10.71 0,7.02 3.4875,10.71 0.2475,0.2475 0.2475,0.3375 z"
       style="font-style:normal;font-variant:normal;font-weight:normal;font-stretch:normal;font-size:22.5px;line-height:0%;font-family:KaTeX_Main;-inkscape-font-specification:'KaTeX_Main, Normal';text-align:center;writing-mode:lr-tb;text-anchor:middle;fill:#000000"
       id="path26416" />
    <path
       d="m 93.930302,27.392069 q 0.18,0.315 1.0575,0.315 h 0.315 0.36 v 1.035 h -0.18 q -0.2925,-0.0675 -2.52,-0.0675 -2.2275,0 -2.52,0.0675 h -0.18 v -1.035 h 0.36 0.315 q 0.8775,0 1.0575,-0.315 v -0.18 q 0,-0.2025 0,-0.5175 0,-0.315 0,-0.6975 0.0225,-0.405 0.0225,-0.8775 0,-0.495 0,-0.945 0,-0.6975 -0.0225,-1.485 0,-0.81 0,-1.3275 v -0.5175 q -0.0675,-0.4275 -0.3375,-0.5625 -0.2475,-0.1575 -0.99,-0.2025 h -0.405 v -0.5175 q 0,-0.5175 0.045,-0.5175 l 0.225,-0.0225 q 0.225,-0.0225 0.63,-0.045 0.4275,-0.0225 0.8325,-0.045 0.3825,-0.0225 0.81,-0.045 0.4275,-0.045 0.6525,-0.0675 0.225,-0.0225 0.2475,-0.0225 h 0.0675 v 0.9 q 0,0.855 0.0225,0.855 l 0.0225,-0.0225 q 1.215,-1.7325 3.4425,-1.7325 2.1825,0.0675 2.6775,1.71 l 0.045,0.1125 q 0.539998,-0.675 0.607498,-0.7425 1.1475,-1.08 2.6775,-1.08 2.8125,0 3.0825,2.5425 0.0225,0.1575 0.0225,3.1275 0,2.88 0.0225,2.925 0.09,0.18 0.27,0.2475 0.4725,0.0675 1.1025,0.0675 h 0.36 v 1.035 h -0.18 q -0.2925,-0.0675 -2.52,-0.0675 -2.2275,0 -2.52,0.0675 h -0.18 v -1.035 h 0.36 0.18 q 1.1925,0 1.1925,-0.36 0.0225,-0.045 0.0225,-3.105 -0.0225,-3.0375 -0.045,-3.2175 -0.1575,-0.72 -0.5175,-1.035 -0.3375,-0.3375 -1.0575,-0.3375 -1.0125,0 -1.7775,0.765 -0.7875,0.7875 -0.9225,1.98 0,0.0225 -0.0225,0.4275 0,0.3825 0,0.99 0,0.6075 0,1.1475 0,0.3375 0,0.72 0,0.36 0,0.6525 0,0.2925 0,0.54 0.0225,0.225 0.0225,0.3825 v 0.135 q 0.18,0.315 1.0575,0.315 h 0.315 0.36 v 1.035 h -0.18 q -0.2925,-0.0675 -2.519998,-0.0675 -2.2275,0 -2.52,0.0675 h -0.18 v -1.035 h 0.36 0.18 q 1.1925,0 1.1925,-0.36 0.0225,-0.045 0.0225,-3.105 -0.0225,-3.0375 -0.045,-3.2175 -0.1575,-0.72 -0.5175,-1.035 -0.3375,-0.3375 -1.0575,-0.3375 -1.0125,0 -1.7775,0.765 -0.7875,0.7875 -0.9225,1.98 0,0.0225 0,0.4275 0,0.3825 -0.0225,0.99 0,0.6075 0,1.1475 0,0.3375 0,0.72 0,0.36 0,0.6525 0.0225,0.2925 0.0225,0.54 0,0.225 0,0.3825 z"
       style="font-style:normal;font-variant:normal;font-weight:normal;font-stretch:normal;font-size:22.5px;line-height:0%;font-family:KaTeX_Main;-inkscape-font-specification:'KaTeX_Main, Normal';text-align:center;writing-mode:lr-tb;text-anchor:middle;fill:#000000"
       id="path26418" />
    <path
       d="m 114.20245,28.742069 q -0.405,-0.0675 -2.5875,-0.0675 -2.0025,0 -2.2725,0.0675 h -0.1575 v -1.035 h 0.3375 q 1.62,-0.0675 2.07,-0.945 0.0225,-0.0675 1.1925,-3.5325 1.17,-3.4875 2.3175,-6.93 1.17,-3.465 1.1925,-3.4875 0.0675,-0.18 0.4275,-0.18 h 0.2025 q 0.45,0.0225 0.54,0.1575 0.0225,0.0225 2.1825,6.435 2.1825,6.4125 2.7,8.01 0.0675,0.135 0.1575,0.225 0.2475,0.225 1.4175,0.2475 h 0.675 v 1.035 h -0.2025 q -0.3375,-0.0675 -2.8575,-0.0675 -2.9025,0 -3.24,0.0675 h -0.225 v -1.035 h 0.2925 q 1.575,0 1.575,-0.405 0,-0.045 -0.54,-1.665 l -0.54,-1.5975 h -5.2425 l -0.45,1.3275 q -0.45,1.3275 -0.45,1.4625 0,0.1125 0.0675,0.2025 0.135,0.2925 0.5625,0.495 0.45,0.18 0.945,0.18 h 0.1125 v 1.035 z m 3.6225,-7.8075 q -0.6525,-1.9575 -1.1475,-3.3975 l -0.45,-1.3275 -1.125,3.375 -1.1475,3.3975 q 0,0.0225 2.2725,0.0225 h 2.295 z"
       style="font-style:normal;font-variant:normal;font-weight:normal;font-stretch:normal;font-size:22.5px;line-height:0%;font-family:KaTeX_Main;-inkscape-font-specification:'KaTeX_Main, Normal';text-align:center;writing-mode:lr-tb;text-anchor:middle;fill:#000000"
       id="path26420" />
    <path
       d="m 126.68995,11.889569 0.09,-0.0225 q 0.1125,0 0.225,0 h 0.27 q 0.1575,0.135 0.63,0.54 4.05,3.69 4.05,10.71 0,2.7675 -0.6525,4.995 -1.035,3.555 -3.3975,5.715 -0.1575,0.135 -0.36,0.2925 -0.2025,0.18 -0.27,0.2475 h -0.27 q -0.27,0 -0.36,-0.045 -0.0675,-0.045 -0.0675,-0.225 0.0225,-0.0225 0.2475,-0.2925 3.4875,-3.6225 3.4875,-10.6875 0,-7.065 -3.4875,-10.6875 -0.225,-0.27 -0.2475,-0.2925 0,-0.18 0.1125,-0.2475 z"
       style="font-style:normal;font-variant:normal;font-weight:normal;font-stretch:normal;font-size:22.5px;line-height:0%;font-family:KaTeX_Main;-inkscape-font-specification:'KaTeX_Main, Normal';text-align:center;writing-mode:lr-tb;text-anchor:middle;fill:#000000"
       id="path26422" />
  </g>
  <path
     inkscape:connector-curvature="0"
     id="path136"
     style="fill:none;stroke:#11accd;stroke-width:3;stroke-miterlimit:4;stroke-dasharray:none"
     d="m -20,390 2.4,0 2.4,0 2.4,0 2.4,0 2.4,0 2.4,0 2.4,0 2.4,0 2.4,0 2.4,0 2.4,0 2.4,0 2.4,0 2.4,0 2.4,0 2.4,0 2.4,0 2.4,0 2.4,0 2.4,0 2.4,0 2.4,0 2.4,0 2.4,0 2.4,0 2.4,0 2.4,0 2.4,0 2.4,0 2.4,0 2.4,0 2.4,0 2.4,0 2.4,0 2.4,0 2.4,0 2.4,0 2.4,0 2.4,0 2.4,0 2.4,0 2.4,0 2.4,0 2.4,0 2.4,0 2.4,0 2.4,0 2.4,0 2.4,0 2.4,0 2.4,0 2.4,0 2.4,0 2.4,0 2.4,0 2.4,0 2.4,0 2.4,0 2.4,0 2.4,0 2.4,0 2.4,0 2.4,0 2.4,0 2.4,0 2.4,0 2.4,0 2.4,0 2.4,0 2.4,0 2.4,0 2.4,0 2.4,-10e-6 2.4,0 2.4,-2e-5 2.4,-4e-5 2.4,-8e-5 2.4,-2.1e-4 2.4,-4.6e-4 2.4,-0.001 2.4,-0.002 2.4,-0.006 2.4,-0.0132 2.4,-0.0305 2.4,-0.0704 2.4,-0.16252 2.4,-0.37523 2.4,-0.86625 2.4,-1.99989 2.4,-4.61703 2.4,-10.65911 2.4,-24.60815 2.4,-56.81159 2.4,-131.15806 2.4,-302.798 2.4,-699.05447 2.4,-1613.87178 2.4,-3725.8644 2.4,-8601.7156 2.4,-19858.346"
     class="path"
     clip-path="url(#clipPath4464)"
     transform="translate(-6.2681293,4.285377)" />
  <line
     id="line138"
     style="stroke:#74cf70;stroke-width:3;stroke-linecap:round;stroke-miterlimit:4;stroke-dasharray:none"
     y2="394.28537"
     x2="291.73187"
     y1="64.285378"
     x1="93.731873" />
  <line
     id="line142"
     style="stroke:#000000;stroke-width:1;stroke-dasharray:3, 3"
     y2="238.28537"
     x2="198.13187"
     y1="238.28537"
     x1="93.731873" />
  <line
     id="line144"
     style="stroke:#000000;stroke-width:1;stroke-dasharray:3, 3"
     y2="394.28537"
     x2="198.13187"
     y1="238.28537"
     x1="198.13187" />
  <g
     aria-label="diode"
     style="font-style:normal;font-variant:normal;font-weight:normal;font-stretch:normal;font-size:22.5px;line-height:0%;font-family:KaTeX_Main;-inkscape-font-specification:'KaTeX_Main, Normal';text-align:center;writing-mode:lr-tb;text-anchor:middle;fill:#000000"
     id="text146">
    <path
       d="m 214.22437,180.79707 q 1.665,0 2.97,1.1025 v -2.295 q 0,-2.34 -0.0225,-2.43 -0.0675,-0.4275 -0.3375,-0.5625 -0.2475,-0.1575 -0.98999,-0.2025 h -0.40501 v -0.5175 q 0,-0.5175 0.045,-0.5175 l 0.225,-0.0225 q 0.225,-0.0225 0.6525,-0.045 0.4275,-0.0225 0.8325,-0.045 0.3825,-0.0225 0.8325,-0.045 0.45,-0.045 0.675,-0.0675 0.225,-0.0225 0.2475,-0.0225 h 0.0675 v 6.84 q 0,6.885 0.0225,6.9525 0.0675,0.45 0.315,0.6075 0.27,0.135 1.0125,0.18 h 0.405 v 1.035 q -0.045,0 -1.7325,0.1125 -1.665,0.1125 -1.755,0.135 h -0.1575 v -1.2375 l -0.18,0.1575 q -1.2825,1.08 -2.925,1.08 -1.575,0 -2.79,-1.0575 -1.395,-1.2375 -1.71,-3.24 -0.0225,-0.18 -0.0225,-0.7875 0,-2.1825 1.395,-3.645 1.395,-1.4625 3.33,-1.4625 z m 2.9025,2.25 q -1.0125,-1.4175 -2.5425,-1.4175 -1.1025,0 -1.9575,0.81 -0.5625,0.585 -0.765,1.3725 -0.18,0.7875 -0.18,2.1825 0,2.4975 0.945,3.42 0.6975,0.7425 1.755,0.7425 0.7875,0 1.5075,-0.4275 0.72,-0.4275 1.1475,-1.17 l 0.09,-0.135 z"
       style="font-style:normal;font-variant:normal;font-weight:normal;font-stretch:normal;font-size:22.5px;line-height:0%;font-family:KaTeX_Main;-inkscape-font-specification:'KaTeX_Main, Normal';text-align:center;writing-mode:lr-tb;text-anchor:middle;fill:#000000"
       id="path26403" />
    <path
       d="m 224.20629,175.68957 q 0.5625,0.045 0.9225,0.405 0.36,0.3375 0.36,0.945 0,0.81 -0.6075,1.1475 -0.2925,0.2025 -0.72,0.2025 -0.45,0 -0.7425,-0.2025 -0.6075,-0.3375 -0.6075,-1.1475 0,-0.63 0.3825,-0.99 0.405,-0.36 1.0125,-0.36 z m 2.61,15.0525 q -0.2475,-0.0675 -2.34,-0.0675 -2.0475,0 -2.4525,0.0675 h -0.18 v -1.035 h 0.36 q 0.63,0 1.1025,-0.0675 0.18,-0.0675 0.27,-0.2475 0.0225,-0.045 0.0225,-3.2625 0,-3.375 -0.09,-3.6 -0.18,-0.45 -1.3275,-0.45 h -0.2475 v -0.5175 q 0,-0.5175 0.045,-0.5175 l 0.225,-0.0225 q 0.225,-0.0225 0.63,-0.045 0.405,-0.0225 0.81,-0.045 0.3825,-0.0225 0.81,-0.045 0.4275,-0.045 0.6525,-0.0675 0.225,-0.0225 0.2475,-0.0225 h 0.0675 v 8.55 q 0.1125,0.225 0.27,0.2925 0.1575,0.045 0.7875,0.0675 h 0.5175 v 1.035 z"
       style="font-style:normal;font-variant:normal;font-weight:normal;font-stretch:normal;font-size:22.5px;line-height:0%;font-family:KaTeX_Main;-inkscape-font-specification:'KaTeX_Main, Normal';text-align:center;writing-mode:lr-tb;text-anchor:middle;fill:#000000"
       id="path26405" />
    <path
       d="m 228.12902,185.92707 q 0,-2.0475 1.305,-3.51 1.305,-1.485 3.1275,-1.71 0.36,-0.045 0.5625,-0.045 1.9575,0 3.3975,1.44 1.575,1.575 1.575,3.8025 0,0.45 -0.1125,1.0575 -0.27,1.4175 -1.2825,2.475 -0.99,1.035 -2.4075,1.395 -0.5175,0.135 -1.17,0.135 -0.675,0 -1.1925,-0.135 -1.6875,-0.4275 -2.745,-1.7775 -1.0575,-1.3725 -1.0575,-3.1275 z m 5.4,-4.41 q -0.1125,-0.0225 -0.36,-0.0225 -0.675,0 -1.2825,0.27 -1.26,0.63 -1.5075,2.4525 -0.045,0.405 -0.045,1.44 0,2.1375 0.4275,3.0375 0.72,1.3725 2.3625,1.3725 2.745,0 2.745,-3.6675 v -0.72 q 0,-1.4625 -0.1125,-1.98 -0.3825,-1.7775 -2.2275,-2.1825 z"
       style="font-style:normal;font-variant:normal;font-weight:normal;font-stretch:normal;font-size:22.5px;line-height:0%;font-family:KaTeX_Main;-inkscape-font-specification:'KaTeX_Main, Normal';text-align:center;writing-mode:lr-tb;text-anchor:middle;fill:#000000"
       id="path26407" />
    <path
       d="m 244.23902,180.79707 q 1.665,0 2.97,1.1025 v -2.295 q 0,-2.34 -0.0225,-2.43 -0.0675,-0.4275 -0.3375,-0.5625 -0.2475,-0.1575 -0.99,-0.2025 h -0.405 v -0.5175 q 0,-0.5175 0.045,-0.5175 l 0.225,-0.0225 q 0.225,-0.0225 0.6525,-0.045 0.4275,-0.0225 0.8325,-0.045 0.3825,-0.0225 0.8325,-0.045 0.45,-0.045 0.675,-0.0675 0.225,-0.0225 0.2475,-0.0225 h 0.0675 v 6.84 q 0,6.885 0.0225,6.9525 0.0675,0.45 0.315,0.6075 0.27,0.135 1.0125,0.18 h 0.405 v 1.035 q -0.045,0 -1.7325,0.1125 -1.665,0.1125 -1.755,0.135 h -0.1575 v -1.2375 l -0.18,0.1575 q -1.2825,1.08 -2.925,1.08 -1.575,0 -2.79,-1.0575 -1.395,-1.2375 -1.71,-3.24 -0.0225,-0.18 -0.0225,-0.7875 0,-2.1825 1.395,-3.645 1.395,-1.4625 3.33,-1.4625 z m 2.9025,2.25 q -1.0125,-1.4175 -2.5425,-1.4175 -1.1025,0 -1.9575,0.81 -0.5625,0.585 -0.765,1.3725 -0.18,0.7875 -0.18,2.1825 0,2.4975 0.945,3.42 0.6975,0.7425 1.755,0.7425 0.7875,0 1.5075,-0.4275 0.72,-0.4275 1.1475,-1.17 l 0.09,-0.135 z"
       style="font-style:normal;font-variant:normal;font-weight:normal;font-stretch:normal;font-size:22.5px;line-height:0%;font-family:KaTeX_Main;-inkscape-font-specification:'KaTeX_Main, Normal';text-align:center;writing-mode:lr-tb;text-anchor:middle;fill:#000000"
       id="path26409" />
    <path
       d="m 260.61094,185.22957 q 0,0.1575 -0.1575,0.315 h -6.345 v 0.3375 q 0,1.665 0.45,2.52 0.81,1.665 2.79,1.665 0.9675,0 1.62,-0.72 0.45,-0.45 0.6975,-1.17 0.0675,-0.2475 0.135,-0.315 0.0675,-0.0675 0.36,-0.0675 0.45,0 0.45,0.225 0,0.09 -0.0675,0.2925 -0.4275,1.17 -1.3725,1.935 -0.9225,0.7425 -2.2725,0.7425 -0.4275,0 -0.99,-0.1125 -1.2825,-0.2475 -2.295,-1.17 -1.0125,-0.9225 -1.44,-2.2275 -0.27,-0.81 -0.27,-1.6425 0,-2.07 1.215,-3.4875 1.215,-1.44 2.9925,-1.665 0.09,-0.0225 0.315,-0.0225 2.0475,0 3.105,1.215 1.08,1.1925 1.08,3.3525 z m -1.845,-0.675 q -0.2025,-2.4525 -1.665,-2.97 -0.1575,-0.0675 -0.4725,-0.09 -1.17,0 -1.9125,1.08 -0.45,0.72 -0.585,2.0025 v 0.1575 h 4.635 z"
       style="font-style:normal;font-variant:normal;font-weight:normal;font-stretch:normal;font-size:22.5px;line-height:0%;font-family:KaTeX_Main;-inkscape-font-specification:'KaTeX_Main, Normal';text-align:center;writing-mode:lr-tb;text-anchor:middle;fill:#000000"
       id="path26411" />
  </g>
  <g
     aria-label="resistor"
     style="font-style:normal;font-variant:normal;font-weight:normal;font-stretch:normal;font-size:22.5px;line-height:0%;font-family:KaTeX_Main;-inkscape-font-specification:'KaTeX_Main, Normal';text-align:center;writing-mode:lr-tb;text-anchor:middle;fill:#000000"
     id="text148">
    <path
       d="m 252.61618,309.07715 h 0.315 q 0.8775,0 1.0575,-0.315 v -0.18 q 0,-0.2025 0,-0.5175 0.0225,-0.315 0.0225,-0.6975 0,-0.405 0,-0.8775 0,-0.495 0,-0.945 0,-0.6975 0,-1.485 0,-0.81 0,-1.3275 l -0.0225,-0.5175 q -0.0675,-0.4275 -0.3375,-0.5625 -0.2475,-0.1575 -0.99,-0.2025 h -0.405 v -0.5175 q 0,-0.5175 0.045,-0.5175 l 0.225,-0.0225 q 0.225,-0.0225 0.63,-0.045 0.405,-0.0225 0.81,-0.045 0.36,-0.0225 0.7875,-0.045 0.4275,-0.045 0.6525,-0.0675 0.225,-0.0225 0.2475,-0.0225 h 0.0675 v 1.5525 q 0.4275,-0.72 0.945,-1.125 0.5175,-0.405 1.3725,-0.405 0.63,0 1.08,0.2475 0.8775,0.45 0.8775,1.2825 0,0.495 -0.3375,0.8325 -0.3375,0.315 -0.81,0.315 -0.4725,0 -0.81,-0.315 -0.315,-0.315 -0.315,-0.81 0,-0.3825 0.18,-0.63 0.045,-0.09 0.045,-0.1125 -0.045,-0.045 -0.5175,0.09 -0.36,0.18 -0.54,0.3375 -0.9,0.855 -1.035,2.835 v 0.8775 q -0.0225,0.8775 -0.0225,1.5075 0,0.2925 0,0.63 0,0.315 0,0.5625 0.0225,0.2475 0.0225,0.45 0,0.2025 0,0.3375 v 0.1125 q 0.09,0.18 0.27,0.225 0.225,0.09 1.1925,0.1125 h 0.6975 v 1.035 h -0.2025 q -0.405,-0.0675 -2.8575,-0.0675 -2.205,0 -2.52,0.0675 h -0.18 v -1.035 z"
       style="font-style:normal;font-variant:normal;font-weight:normal;font-stretch:normal;font-size:22.5px;line-height:0%;font-family:KaTeX_Main;-inkscape-font-specification:'KaTeX_Main, Normal';text-align:center;writing-mode:lr-tb;text-anchor:middle;fill:#000000"
       id="path26386" />
    <path
       d="m 269.97669,304.59965 q 0,0.1575 -0.1575,0.315 h -6.345 v 0.3375 q 0,1.665 0.45,2.52 0.81,1.665 2.79,1.665 0.9675,0 1.62,-0.72 0.45,-0.45 0.6975,-1.17 0.0675,-0.2475 0.135,-0.315 0.0675,-0.0675 0.36,-0.0675 0.45,0 0.45,0.225 0,0.09 -0.0675,0.2925 -0.4275,1.17 -1.3725,1.935 -0.9225,0.7425 -2.2725,0.7425 -0.4275,0 -0.99,-0.1125 -1.2825,-0.2475 -2.295,-1.17 -1.0125,-0.9225 -1.44,-2.2275 -0.27,-0.81 -0.27,-1.6425 0,-2.07 1.215,-3.4875 1.215,-1.44 2.9925,-1.665 0.09,-0.0225 0.315,-0.0225 2.0475,0 3.105,1.215 1.08,1.1925 1.08,3.3525 z m -1.845,-0.675 q -0.2025,-2.4525 -1.665,-2.97 -0.1575,-0.0675 -0.4725,-0.09 -1.17,0 -1.9125,1.08 -0.45,0.72 -0.585,2.0025 v 0.1575 h 4.635 z"
       style="font-style:normal;font-variant:normal;font-weight:normal;font-stretch:normal;font-size:22.5px;line-height:0%;font-family:KaTeX_Main;-inkscape-font-specification:'KaTeX_Main, Normal';text-align:center;writing-mode:lr-tb;text-anchor:middle;fill:#000000"
       id="path26388" />
    <path
       d="m 274.88978,300.79715 q -2.07,0 -2.07,1.4625 0,0.2925 0.045,0.3825 0.2025,0.54 0.6975,0.7875 0.495,0.225 1.53,0.4275 1.2825,0.225 1.755,0.495 1.4175,0.675 1.8225,2.2275 0.0225,0.135 0.0225,0.54 0,0.8775 -0.315,1.5525 -0.8775,1.665 -3.3075,1.665 -1.35,0 -2.34,-0.81 l -0.18,0.1575 -0.2025,0.2025 q -0.135,0.135 -0.27,0.2475 l -0.2475,0.225 h -0.18 q -0.1575,0 -0.2925,-0.135 v -1.7775 q 0,-1.4625 0,-1.6875 0.0225,-0.225 0.1125,-0.27 0.045,-0.0225 0.36,-0.0225 0.2925,0 0.3375,0.045 0.0675,0.045 0.135,0.315 0.18,0.855 0.585,1.5525 0.7875,1.1475 2.1825,1.1475 2.1825,0 2.1825,-1.755 0,-0.6525 -0.405,-1.0575 -0.36,-0.4275 -0.945,-0.6075 -0.3825,-0.09 -1.08,-0.2475 -1.26,-0.2475 -1.71,-0.4725 -1.485,-0.6975 -1.7325,-2.0925 -0.0225,-0.09 -0.0225,-0.3375 0,-2.5875 3.1725,-2.9025 0.09,-0.045 0.54,0 0.9,0 1.575,0.3375 l 0.3375,0.18 0.2025,-0.1575 q 0.2925,-0.2475 0.495,-0.3825 h 0.18 q 0.1575,0 0.2925,0.135 v 2.97 l -0.135,0.135 h -0.63 q -0.135,-0.135 -0.135,-0.27 0,-1.035 -0.63,-1.62 -0.63,-0.585 -1.7325,-0.585 z"
       style="font-style:normal;font-variant:normal;font-weight:normal;font-stretch:normal;font-size:22.5px;line-height:0%;font-family:KaTeX_Main;-inkscape-font-specification:'KaTeX_Main, Normal';text-align:center;writing-mode:lr-tb;text-anchor:middle;fill:#000000"
       id="path26390" />
    <path
       d="m 282.43923,295.05965 q 0.5625,0.045 0.9225,0.405 0.36,0.3375 0.36,0.945 0,0.81 -0.6075,1.1475 -0.2925,0.2025 -0.72,0.2025 -0.45,0 -0.7425,-0.2025 -0.6075,-0.3375 -0.6075,-1.1475 0,-0.63 0.3825,-0.99 0.405,-0.36 1.0125,-0.36 z m 2.61,15.0525 q -0.2475,-0.0675 -2.34,-0.0675 -2.0475,0 -2.4525,0.0675 h -0.18 v -1.035 h 0.36 q 0.63,0 1.1025,-0.0675 0.18,-0.0675 0.27,-0.2475 0.0225,-0.045 0.0225,-3.2625 0,-3.375 -0.09,-3.6 -0.18,-0.45 -1.3275,-0.45 h -0.2475 v -0.5175 q 0,-0.5175 0.045,-0.5175 l 0.225,-0.0225 q 0.225,-0.0225 0.63,-0.045 0.405,-0.0225 0.81,-0.045 0.3825,-0.0225 0.81,-0.045 0.4275,-0.045 0.6525,-0.0675 0.225,-0.0225 0.2475,-0.0225 h 0.0675 v 8.55 q 0.1125,0.225 0.27,0.2925 0.1575,0.045 0.7875,0.0675 h 0.5175 v 1.035 z"
       style="font-style:normal;font-variant:normal;font-weight:normal;font-stretch:normal;font-size:22.5px;line-height:0%;font-family:KaTeX_Main;-inkscape-font-specification:'KaTeX_Main, Normal';text-align:center;writing-mode:lr-tb;text-anchor:middle;fill:#000000"
       id="path26392" />
    <path
       d="m 290.00696,300.79715 q -2.07,0 -2.07,1.4625 0,0.2925 0.045,0.3825 0.2025,0.54 0.6975,0.7875 0.495,0.225 1.53,0.4275 1.2825,0.225 1.755,0.495 1.4175,0.675 1.8225,2.2275 0.0225,0.135 0.0225,0.54 0,0.8775 -0.315,1.5525 -0.8775,1.665 -3.3075,1.665 -1.35,0 -2.34,-0.81 l -0.18,0.1575 -0.2025,0.2025 q -0.135,0.135 -0.27,0.2475 l -0.2475,0.225 h -0.18 q -0.1575,0 -0.2925,-0.135 v -1.7775 q 0,-1.4625 0,-1.6875 0.0225,-0.225 0.1125,-0.27 0.045,-0.0225 0.36,-0.0225 0.2925,0 0.3375,0.045 0.0675,0.045 0.135,0.315 0.18,0.855 0.585,1.5525 0.7875,1.1475 2.1825,1.1475 2.1825,0 2.1825,-1.755 0,-0.6525 -0.405,-1.0575 -0.36,-0.4275 -0.945,-0.6075 -0.3825,-0.09 -1.08,-0.2475 -1.26,-0.2475 -1.71,-0.4725 -1.485,-0.6975 -1.7325,-2.0925 -0.0225,-0.09 -0.0225,-0.3375 0,-2.5875 3.1725,-2.9025 0.09,-0.045 0.54,0 0.9,0 1.575,0.3375 l 0.3375,0.18 0.2025,-0.1575 q 0.2925,-0.2475 0.495,-0.3825 h 0.18 q 0.1575,0 0.2925,0.135 v 2.97 l -0.135,0.135 h -0.63 q -0.135,-0.135 -0.135,-0.27 0,-1.035 -0.63,-1.62 -0.63,-0.585 -1.7325,-0.585 z"
       style="font-style:normal;font-variant:normal;font-weight:normal;font-stretch:normal;font-size:22.5px;line-height:0%;font-family:KaTeX_Main;-inkscape-font-specification:'KaTeX_Main, Normal';text-align:center;writing-mode:lr-tb;text-anchor:middle;fill:#000000"
       id="path26394" />
    <path
       d="m 297.78142,296.61215 v -0.3375 h 0.9 v 4.14 h 3.0375 v 1.035 h -3.0375 v 3.24 q 0.0225,2.8125 0.0225,3.195 0.0225,0.36 0.1575,0.6975 0.315,0.8775 1.1025,0.8775 0.99,0 1.215,-1.5975 0.0225,-0.18 0.0225,-1.035 v -0.7875 h 0.9 v 0.7875 q 0,1.035 -0.1125,1.485 -0.2475,0.9 -0.855,1.4625 -0.585,0.5625 -1.5525,0.5625 -1.215,0 -1.935,-0.6525 -0.72,-0.675 -0.8325,-1.8225 -0.0225,-0.1575 -0.0225,-3.33 v -3.0825 h -1.7775 v -0.8325 h 0.2025 q 0.8325,-0.0675 1.4175,-0.72 1.035,-1.08 1.1475,-3.285 z"
       style="font-style:normal;font-variant:normal;font-weight:normal;font-stretch:normal;font-size:22.5px;line-height:0%;font-family:KaTeX_Main;-inkscape-font-specification:'KaTeX_Main, Normal';text-align:center;writing-mode:lr-tb;text-anchor:middle;fill:#000000"
       id="path26396" />
    <path
       d="m 303.98403,305.29715 q 0,-2.0475 1.305,-3.51 1.305,-1.485 3.1275,-1.71 0.36,-0.045 0.5625,-0.045 1.9575,0 3.3975,1.44 1.575,1.575 1.575,3.8025 0,0.45 -0.1125,1.0575 -0.27,1.4175 -1.2825,2.475 -0.99,1.035 -2.4075,1.395 -0.5175,0.135 -1.17,0.135 -0.675,0 -1.1925,-0.135 -1.6875,-0.4275 -2.745,-1.7775 -1.0575,-1.3725 -1.0575,-3.1275 z m 5.4,-4.41 q -0.1125,-0.0225 -0.36,-0.0225 -0.675,0 -1.2825,0.27 -1.26,0.63 -1.5075,2.4525 -0.045,0.405 -0.045,1.44 0,2.1375 0.4275,3.0375 0.72,1.3725 2.3625,1.3725 2.745,0 2.745,-3.6675 v -0.72 q 0,-1.4625 -0.1125,-1.98 -0.3825,-1.7775 -2.2275,-2.1825 z"
       style="font-style:normal;font-variant:normal;font-weight:normal;font-stretch:normal;font-size:22.5px;line-height:0%;font-family:KaTeX_Main;-inkscape-font-specification:'KaTeX_Main, Normal';text-align:center;writing-mode:lr-tb;text-anchor:middle;fill:#000000"
       id="path26398" />
    <path
       d="m 315.41403,309.07715 h 0.315 q 0.8775,0 1.0575,-0.315 v -0.18 q 0,-0.2025 0,-0.5175 0.0225,-0.315 0.0225,-0.6975 0,-0.405 0,-0.8775 0,-0.495 0,-0.945 0,-0.6975 0,-1.485 0,-0.81 0,-1.3275 l -0.0225,-0.5175 q -0.0675,-0.4275 -0.3375,-0.5625 -0.2475,-0.1575 -0.99,-0.2025 h -0.405 v -0.5175 q 0,-0.5175 0.045,-0.5175 l 0.225,-0.0225 q 0.225,-0.0225 0.63,-0.045 0.405,-0.0225 0.81,-0.045 0.36,-0.0225 0.7875,-0.045 0.4275,-0.045 0.6525,-0.0675 0.225,-0.0225 0.2475,-0.0225 h 0.0675 v 1.5525 q 0.4275,-0.72 0.945,-1.125 0.5175,-0.405 1.3725,-0.405 0.63,0 1.08,0.2475 0.8775,0.45 0.8775,1.2825 0,0.495 -0.3375,0.8325 -0.3375,0.315 -0.81,0.315 -0.4725,0 -0.81,-0.315 -0.315,-0.315 -0.315,-0.81 0,-0.3825 0.18,-0.63 0.045,-0.09 0.045,-0.1125 -0.045,-0.045 -0.5175,0.09 -0.36,0.18 -0.54,0.3375 -0.9,0.855 -1.035,2.835 v 0.8775 q -0.0225,0.8775 -0.0225,1.5075 0,0.2925 0,0.63 0,0.315 0,0.5625 0.0225,0.2475 0.0225,0.45 0,0.2025 0,0.3375 v 0.1125 q 0.09,0.18 0.27,0.225 0.225,0.09 1.1925,0.1125 h 0.6975 v 1.035 h -0.2025 q -0.405,-0.0675 -2.8575,-0.0675 -2.205,0 -2.52,0.0675 h -0.18 v -1.035 z"
       style="font-style:normal;font-variant:normal;font-weight:normal;font-stretch:normal;font-size:22.5px;line-height:0%;font-family:KaTeX_Main;-inkscape-font-specification:'KaTeX_Main, Normal';text-align:center;writing-mode:lr-tb;text-anchor:middle;fill:#000000"
       id="path26400" />
  </g>
  <g
     aria-label="100 "
     style="font-style:normal;font-variant:normal;font-weight:normal;font-stretch:normal;font-size:22.5px;line-height:0%;font-family:KaTeX_Main;-inkscape-font-specification:'KaTeX_Main, Normal';text-align:center;writing-mode:lr-tb;text-anchor:middle;fill:#000000"
     id="text150">
    <path
       d="m 269.16423,290.11215 q -0.3825,-0.0675 -3.5775,-0.0675 -3.15,0 -3.5325,0.0675 h -0.27 v -1.035 h 0.585 q 1.305,0 1.6875,-0.0675 0.18,-0.0225 0.54,-0.27 v -11.6325 q -0.045,0 -0.18,0.0675 -1.035,0.405 -2.3175,0.4275 h -0.4275 v -1.035 h 0.4275 q 1.89,-0.0675 3.15,-0.855 0.405,-0.225 0.6975,-0.5175 0.045,-0.0675 0.27,-0.0675 0.225,0 0.3825,0.135 v 6.7275 l 0.0225,6.75 q 0.3375,0.3375 1.4625,0.3375 h 0.7425 0.585 v 1.035 z"
       style="font-style:normal;font-variant:normal;font-weight:normal;font-stretch:normal;font-size:22.5px;line-height:0%;font-family:KaTeX_Main;-inkscape-font-specification:'KaTeX_Main, Normal';text-align:center;writing-mode:lr-tb;text-anchor:middle;fill:#000000"
       id="path26377" />
    <path
       d="m 273.21423,276.94965 q 1.26,-1.8225 3.4425,-1.8225 1.6425,0 2.88,1.125 0.6075,0.585 1.035,1.53 0.8325,1.8675 0.8325,5.13 0,3.4875 -0.9675,5.3325 -0.63,1.305 -1.845,1.89 -0.945,0.4725 -1.9125,0.4725 -2.5875,0 -3.78,-2.3625 -0.9675,-1.845 -0.9675,-5.3325 0,-2.0925 0.27,-3.4425 0.2925,-1.3725 1.0125,-2.52 z m 5.0625,-0.27 q -0.6525,-0.72 -1.5975,-0.72 -0.945,0 -1.62,0.72 -0.495,0.5175 -0.675,1.26 -0.18,0.7425 -0.225,2.565 0,0.135 -0.0225,0.8775 0,0.7425 0,1.2375 0,2.16 0.045,3.015 0.09,1.575 0.27,2.2725 0.18,0.675 0.675,1.17 0.6075,0.675 1.5525,0.675 0.9225,0 1.53,-0.675 0.495,-0.495 0.675,-1.17 0.18,-0.6975 0.27,-2.2725 0.045,-0.855 0.045,-3.015 0,-0.495 -0.0225,-1.2375 0,-0.7425 0,-0.8775 -0.045,-1.8225 -0.225,-2.565 -0.18,-0.7425 -0.675,-1.26 z"
       style="font-style:normal;font-variant:normal;font-weight:normal;font-stretch:normal;font-size:22.5px;line-height:0%;font-family:KaTeX_Main;-inkscape-font-specification:'KaTeX_Main, Normal';text-align:center;writing-mode:lr-tb;text-anchor:middle;fill:#000000"
       id="path26379" />
    <path
       d="m 284.46423,276.94965 q 1.26,-1.8225 3.4425,-1.8225 1.6425,0 2.88,1.125 0.6075,0.585 1.035,1.53 0.8325,1.8675 0.8325,5.13 0,3.4875 -0.9675,5.3325 -0.63,1.305 -1.845,1.89 -0.945,0.4725 -1.9125,0.4725 -2.5875,0 -3.78,-2.3625 -0.9675,-1.845 -0.9675,-5.3325 0,-2.0925 0.27,-3.4425 0.2925,-1.3725 1.0125,-2.52 z m 5.0625,-0.27 q -0.6525,-0.72 -1.5975,-0.72 -0.945,0 -1.62,0.72 -0.495,0.5175 -0.675,1.26 -0.18,0.7425 -0.225,2.565 0,0.135 -0.0225,0.8775 0,0.7425 0,1.2375 0,2.16 0.045,3.015 0.09,1.575 0.27,2.2725 0.18,0.675 0.675,1.17 0.6075,0.675 1.5525,0.675 0.9225,0 1.53,-0.675 0.495,-0.495 0.675,-1.17 0.18,-0.6975 0.27,-2.2725 0.045,-0.855 0.045,-3.015 0,-0.495 -0.0225,-1.2375 0,-0.7425 0,-0.8775 -0.045,-1.8225 -0.225,-2.565 -0.18,-0.7425 -0.675,-1.26 z"
       style="font-style:normal;font-variant:normal;font-weight:normal;font-stretch:normal;font-size:22.5px;line-height:0%;font-family:KaTeX_Main;-inkscape-font-specification:'KaTeX_Main, Normal';text-align:center;writing-mode:lr-tb;text-anchor:middle;fill:#000000"
       id="path26381" />
    <path
       d="m 305.25423,289.66215 q 0,0.2925 -0.1575,0.45 h -4.185 v -0.045 q -0.0225,-0.0225 -0.36,-1.9575 l -0.3825,-1.935 v -0.045 h 0.9 l 0.0225,0.1125 q 0,0.1125 0.09,0.4275 0.1575,1.0125 0.3375,1.35 0.09,0.1125 0.1575,0.1575 0.2925,0.1125 1.5075,0.135 h 0.99 v -0.0675 q -0.1125,-0.36 -0.495,-1.1925 -0.36,-0.6975 -1.2375,-2.07 -1.44,-2.3175 -1.8,-3.5325 -0.225,-0.8325 -0.225,-1.5525 0,-0.675 0.18,-1.2825 0.495,-1.6875 2.0925,-2.9025 1.5975,-1.2375 3.735,-1.4175 0.135,-0.0225 0.3375,-0.0225 h 0.3375 q 3.1725,0 5.1975,1.7325 1.2825,1.125 1.6875,2.61 0.18,0.6075 0.18,1.2825 0,0.72 -0.225,1.5525 -0.36,1.215 -1.8,3.5325 -0.8775,1.3725 -1.2375,2.07 -0.3825,0.8325 -0.495,1.1925 v 0.0675 h 0.99 q 1.215,-0.0225 1.5075,-0.135 0.09,-0.045 0.1575,-0.1575 0.1575,-0.3375 0.3375,-1.35 0.09,-0.315 0.09,-0.4275 l 0.0225,-0.1125 h 0.9 v 0.045 l -0.3825,1.935 q -0.3375,1.935 -0.36,1.9575 v 0.045 h -2.07 q -1.665,0 -1.935,0 -0.2475,-0.0225 -0.2925,-0.135 -0.045,-0.09 -0.045,-0.315 0,-0.6525 0.2025,-1.7775 0.18,-0.9 0.8775,-3.0375 0.72,-2.1825 0.945,-3.42 0.1575,-0.945 0.1575,-1.5525 0,-3.1725 -2.3175,-4.3425 -0.945,-0.45 -1.89,-0.45 -2.295,0 -3.51,1.9125 -0.6975,1.1025 -0.6975,2.8575 0,0.765 0.135,1.575 0.225,1.2375 0.945,3.42 0.6975,2.1375 0.8775,3.0375 0.2025,1.1025 0.2025,1.7775 z"
       style="font-style:normal;font-variant:normal;font-weight:normal;font-stretch:normal;font-size:22.5px;line-height:0%;font-family:KaTeX_Main;-inkscape-font-specification:'KaTeX_Main, Normal';text-align:center;writing-mode:lr-tb;text-anchor:middle;fill:#000000"
       id="path26383" />
  </g>
  <circle
     id="circle140"
     style="fill:#f9685d"
     r="4"
     cy="238.28537"
     cx="198.13187" />
  <path
     style="fill:none;fill-rule:evenodd;stroke:#74cf70;stroke-width:1px;stroke-linecap:butt;stroke-linejoin:miter;stroke-opacity:1;marker-end:url(#marker26267)"
     d="m 126.59701,163.44574 c 2.09825,-2.60183 4.19562,-5.20256 6.9315,-6.92429 2.73588,-1.72173 6.07335,-2.5561 9.42796,-3.39475"
     id="path26255"
     inkscape:connector-curvature="0"
     inkscape:path-effect="#path-effect26257"
     inkscape:original-d="m 126.59701,163.44574 c 2.09837,-2.60174 4.19573,-5.20247 6.2921,-7.8022 3.35537,-0.92346 6.71257,-1.6789 10.06736,-2.51684" />
</svg>
