<?xml version="1.0" encoding="UTF-8" standalone="no"?>
<!-- Generator: Adobe Illustrator 19.1.0, SVG Export Plug-In . SVG Version: 6.00 Build 0)  -->

<svg
   xmlns:dc="http://purl.org/dc/elements/1.1/"
   xmlns:cc="http://creativecommons.org/ns#"
   xmlns:rdf="http://www.w3.org/1999/02/22-rdf-syntax-ns#"
   xmlns:svg="http://www.w3.org/2000/svg"
   xmlns="http://www.w3.org/2000/svg"
   xmlns:sodipodi="http://sodipodi.sourceforge.net/DTD/sodipodi-0.dtd"
   xmlns:inkscape="http://www.inkscape.org/namespaces/inkscape"
   version="1.1"
   id="Layer_1"
   x="0px"
   y="0px"
   width="419.45267"
   height="190.77063"
   viewBox="0 0 419.45267 190.77063"
   xml:space="preserve"
   sodipodi:docname="equations3.svg"
   inkscape:version="0.92.2 5c3e80d, 2017-08-06"><metadata
     id="metadata7998"><rdf:RDF><cc:Work
         rdf:about=""><dc:format>image/svg+xml</dc:format><dc:type
           rdf:resource="http://purl.org/dc/dcmitype/StillImage" /><dc:title></dc:title></cc:Work></rdf:RDF></metadata><defs
     id="defs7996" /><sodipodi:namedview
     pagecolor="#ffffff"
     bordercolor="#666666"
     borderopacity="1"
     objecttolerance="10"
     gridtolerance="10"
     guidetolerance="10"
     inkscape:pageopacity="0"
     inkscape:pageshadow="2"
     inkscape:window-width="640"
     inkscape:window-height="480"
     id="namedview7994"
     showgrid="false"
     fit-margin-top="10"
     fit-margin-right="10"
     fit-margin-bottom="10"
     fit-margin-left="10"
     inkscape:zoom="1.04375"
     inkscape:cx="186.0002"
     inkscape:cy="100.19996"
     inkscape:current-layer="Layer_1" /><style
     type="text/css"
     id="style7817">
	.st0{fill:none;stroke:#1FAB54;stroke-width:6;stroke-linecap:round;stroke-miterlimit:10;}
	.st1{fill:none;stroke:#FF9C39;stroke-width:6;stroke-linecap:round;stroke-miterlimit:10;}
	.st2{fill:none;stroke:#FF9C39;stroke-width:6;stroke-linecap:round;stroke-linejoin:round;stroke-miterlimit:10;}
	.st3{fill:none;stroke:#11ACCD;stroke-width:5;stroke-linecap:round;stroke-linejoin:round;stroke-miterlimit:10;}
	.st4{fill:none;stroke:#1FAB54;stroke-width:6;stroke-linecap:round;stroke-linejoin:round;stroke-miterlimit:10;}
	.st5{fill:none;stroke:#BABEC2;stroke-width:2;stroke-linecap:round;stroke-miterlimit:10;}
	.st6{fill:none;stroke:#ED5FA6;stroke-width:4;stroke-linecap:round;stroke-miterlimit:10;}
	.st7{fill:#ED5FA6;}
	.st8{fill:none;stroke:#1FAB54;stroke-width:4;stroke-linecap:round;stroke-miterlimit:10;}
	.st9{fill:#1FAB54;}
	.st10{fill:none;stroke:#11ACCD;stroke-width:4;stroke-linecap:round;stroke-miterlimit:10;}
	.st11{fill:#11ACCD;}
	.st12{fill:none;stroke:#FF9C39;stroke-width:4;stroke-linecap:round;stroke-miterlimit:10;}
	.st13{fill:#FF9C39;}
	.st14{fill:none;stroke:#000000;stroke-linecap:round;stroke-linejoin:round;stroke-miterlimit:10;}
	.st15{fill:none;stroke:#000000;stroke-width:1.5;stroke-linecap:round;stroke-linejoin:round;stroke-miterlimit:10;}
	.st16{fill:none;stroke:#000000;stroke-linecap:round;stroke-miterlimit:10;}
	.st17{fill:none;stroke:#000000;stroke-width:1.5;stroke-linecap:round;stroke-miterlimit:10;}
	.st18{fill:none;stroke:#000000;stroke-width:2;stroke-linecap:round;stroke-linejoin:round;stroke-miterlimit:10;}
	.st19{fill:none;stroke:#000000;stroke-width:1.5;stroke-miterlimit:10;}
	.st20{fill:none;stroke:#000000;stroke-miterlimit:10;}
	.st21{fill:none;stroke:#000000;stroke-width:2;stroke-miterlimit:10;}
	.st22{fill:none;stroke:#000000;stroke-width:2;stroke-linecap:round;stroke-miterlimit:10;}
	.st23{fill:none;stroke:#000000;stroke-linecap:round;stroke-linejoin:round;}
	.st24{fill:none;}
	.st25{stroke:#000000;stroke-linecap:round;stroke-linejoin:round;stroke-miterlimit:10;}
	.st26{fill:none;stroke:#000000;stroke-width:1.5;stroke-linejoin:round;stroke-miterlimit:10;}
	.st27{fill:none;stroke:#000000;stroke-linejoin:round;stroke-miterlimit:10;}
	.st28{clip-path:url(#SVGID_2_);fill:none;stroke:#000000;stroke-linejoin:round;stroke-miterlimit:10;}
	.st29{clip-path:url(#SVGID_2_);fill:none;stroke:#ADADEB;stroke-linejoin:round;stroke-miterlimit:10;}
	.st30{clip-path:url(#SVGID_2_);}
	.st31{stroke:#000000;stroke-linejoin:round;stroke-miterlimit:10;}
	.st32{stroke:#000000;stroke-width:3;stroke-linejoin:round;stroke-miterlimit:10;}
	.st33{fill:none;stroke:#000000;stroke-linejoin:round;}
	.st34{fill:#FFFFFF;stroke:#000000;stroke-miterlimit:10;}
	.st35{fill:#E07D10;}
	.st36{fill:none;stroke:#11ACCD;stroke-width:3;stroke-linecap:round;stroke-miterlimit:10;}
	.st37{fill:none;stroke:#E07D10;stroke-width:2;stroke-linecap:round;stroke-miterlimit:10;}
	.st38{fill:none;stroke:#FF9C39;stroke-width:3;stroke-linecap:round;stroke-miterlimit:10;}
	.st39{fill:none;stroke:#FFBB71;stroke-width:2;stroke-linecap:round;stroke-miterlimit:10;}
	.st40{fill:#FFBB71;}
	.st41{fill:none;stroke:#000000;stroke-width:2;stroke-linecap:round;stroke-miterlimit:10;stroke-dasharray:6.1241,6.1241;}
	.st42{fill:#66AFE9;}
	.st43{fill:none;stroke:#66AFE9;stroke-miterlimit:10;}
	.st44{fill:none;stroke:#11ACCD;stroke-width:1.5;stroke-miterlimit:10;}
	.st45{fill:none;stroke:#11ACCD;stroke-width:4;stroke-linecap:round;stroke-linejoin:round;stroke-miterlimit:10;}
	.st46{font-family:'KaTeX_Main-Regular';}
	.st47{font-size:18px;}
	.st48{fill:#CA337C;}
	.st49{fill:#FFFFFF;}
</style><g
     id="g7827"
     transform="translate(-53.9998,-5.4293329)"><g
       id="g7825"><path
         class="st6"
         d="M 75.7,174 H 426 c 6.6,0 12,-5.9 12,-13 V 37 c 0,-7.2 -5.4,-13 -12,-13 H 78 c -6.6,0 -12,5.9 -12,13 v 124"
         id="path7819"
         inkscape:connector-curvature="0"
         style="fill:none;stroke:#ed5fa6;stroke-width:4;stroke-linecap:round;stroke-miterlimit:10" /><g
         id="g7823"><path
           class="st7"
           d="m 66,174 c 4.5,1.7 10.2,4.6 13.7,7.6 l -2.8,-7.6 2.8,-7.6 c -3.5,3 -9.2,5.9 -13.7,7.6 z"
           id="path7821"
           inkscape:connector-curvature="0"
           style="fill:#ed5fa6" /></g></g></g><g
     id="g7837"
     transform="translate(-53.9998,-5.4293329)"><g
       id="g7835"><path
         class="st8"
         d="m 123.7,150 h 170.8 c 6.4,0 11.6,-4.5 11.6,-10 V 70 c 0,-5.5 -5.2,-10 -11.6,-10 H 125.6 C 119.2,60 114,64.5 114,70 v 70"
         id="path7829"
         inkscape:connector-curvature="0"
         style="fill:none;stroke:#1fab54;stroke-width:4;stroke-linecap:round;stroke-miterlimit:10" /><g
         id="g7833"><path
           class="st9"
           d="m 114,150 c 4.5,1.7 10.2,4.6 13.7,7.6 l -2.8,-7.6 2.8,-7.6 c -3.5,3 -9.2,5.9 -13.7,7.6 z"
           id="path7831"
           inkscape:connector-curvature="0"
           style="fill:#1fab54" /></g></g></g><g
     id="g7847"
     transform="translate(-53.9998,-5.4293329)"><g
       id="g7845"><path
         class="st10"
         d="m 261.7,156 h 116.6 c 6.6,0 12,-6.1 12,-13.5 v -81 c 0,-7.4 -5.4,-13.5 -12,-13.5 H 264 c -6.6,0 -12,6.1 -12,13.5 v 81"
         id="path7839"
         inkscape:connector-curvature="0"
         style="fill:none;stroke:#11accd;stroke-width:4;stroke-linecap:round;stroke-miterlimit:10" /><g
         id="g7843"><path
           class="st11"
           d="m 252,156 c 4.5,1.7 10.2,4.6 13.7,7.6 l -2.8,-7.6 2.8,-7.6 c -3.5,3 -9.2,5.9 -13.7,7.6 z"
           id="path7841"
           inkscape:connector-curvature="0"
           style="fill:#11accd" /></g></g></g><g
     id="g7857"
     transform="translate(-53.9998,-5.4293329)"><g
       id="g7855"><path
         class="st12"
         d="m 271.6,137.7 h 20 c 2.3,0 4.2,-3.5 4.2,-7.8 V 79.5 c 0,-4.3 -1.9,-7.5 -7.8,-7.5 h -18 c -6,0 -10.2,3.2 -10.2,7.5 v 50.4"
         id="path7849"
         inkscape:connector-curvature="0"
         style="fill:none;stroke:#ff9c39;stroke-width:4;stroke-linecap:round;stroke-miterlimit:10" /><g
         id="g7853"><path
           class="st13"
           d="m 261.9,137.7 c 4.5,1.7 10.2,4.6 13.7,7.6 l -2.8,-7.6 2.8,-7.6 c -3.5,3 -9.1,5.9 -13.7,7.6 z"
           id="path7851"
           inkscape:connector-curvature="0"
           style="fill:#ff9c39" /></g></g></g><g
     id="g7867"
     transform="translate(-53.9998,-5.4293329)"><g
       id="g7865"><path
         class="st12"
         d="m 140.8,137.7 h 64.5 c 5.8,0 10.6,-3.5 10.6,-7.8 V 79.4 c 0,-7.4 -6,-7.4 -11.8,-7.4 l -67.6,-0.3 c -5.8,0 -10.6,3.5 -10.6,7.8 V 130"
         id="path7859"
         inkscape:connector-curvature="0"
         style="fill:none;stroke:#ff9c39;stroke-width:4;stroke-linecap:round;stroke-miterlimit:10" /><g
         id="g7863"><path
           class="st13"
           d="m 131.1,137.7 c 4.5,1.7 10.2,4.6 13.7,7.6 l -2.8,-7.6 2.8,-7.6 c -3.5,3 -9.1,5.9 -13.7,7.6 z"
           id="path7861"
           inkscape:connector-curvature="0"
           style="fill:#ff9c39" /></g></g></g><g
     id="g7877"
     transform="translate(-53.9998,-5.4293329)"><g
       id="g7875"><path
         class="st12"
         d="m 355,137.7 h 21.8 c 1.7,0 3,-3.5 3,-7.8 V 79.5 c 0,-4.3 -1.6,-7.4 -6.7,-7.5 h -20.6 c -5.1,0 -8.7,3.2 -8.7,7.5 v 50.4"
         id="path7869"
         inkscape:connector-curvature="0"
         style="fill:none;stroke:#ff9c39;stroke-width:4;stroke-linecap:round;stroke-miterlimit:10" /><g
         id="g7873"><path
           class="st13"
           d="m 345.3,137.7 c 4.5,1.7 10.2,4.6 13.7,7.6 l -2.8,-7.6 2.8,-7.6 c -3.5,3 -9.1,5.9 -13.7,7.6 z"
           id="path7871"
           inkscape:connector-curvature="0"
           style="fill:#ff9c39" /></g></g></g><g
     id="g7891"
     transform="translate(-53.9998,-5.4293329)"><circle
       class="st21"
       cx="90"
       cy="101.7"
       r="18"
       id="circle7879"
       style="fill:none;stroke:#000000;stroke-width:2;stroke-miterlimit:10" /><polyline
       class="st16"
       points="90,83.7 90,59.7 90,41.7 108,41.7  "
       id="polyline7881"
       style="fill:none;stroke:#000000;stroke-linecap:round;stroke-miterlimit:10" /><polyline
       class="st14"
       points="90,119.7 89.8,161.7 413.6,161.7  "
       id="polyline7883"
       style="fill:none;stroke:#000000;stroke-linecap:round;stroke-linejoin:round;stroke-miterlimit:10" /><line
       class="st19"
       x1="90"
       y1="88.199997"
       x2="90"
       y2="100.2"
       id="line7885"
       style="fill:none;stroke:#000000;stroke-width:1.5;stroke-miterlimit:10" /><line
       class="st19"
       x1="84"
       y1="94.199997"
       x2="96"
       y2="94.199997"
       id="line7887"
       style="fill:none;stroke:#000000;stroke-width:1.5;stroke-miterlimit:10" /><line
       class="st19"
       x1="84"
       y1="112.2"
       x2="96"
       y2="112.2"
       id="line7889"
       style="fill:none;stroke:#000000;stroke-width:1.5;stroke-miterlimit:10" /></g><g
     id="g7909"
     transform="translate(-53.9998,-5.4293329)"><g
       id="g7901"><g
         id="g7899"><line
           class="st22"
           x1="413.79999"
           y1="115.2"
           x2="413.79999"
           y2="95.300003"
           id="line7893"
           style="fill:none;stroke:#000000;stroke-width:2;stroke-linecap:round;stroke-miterlimit:10" /><g
           id="g7897"><polygon
             points="407.8,97 419.8,97 413.8,86.7 "
             id="polygon7895" /></g></g></g><circle
       class="st21"
       cx="413.79999"
       cy="101.7"
       r="18"
       id="circle7903"
       style="fill:none;stroke:#000000;stroke-width:2;stroke-miterlimit:10" /><polyline
       class="st16"
       points="209.6,41.7 413.8,41.7 413.8,59.7 413.8,83.7  "
       id="polyline7905"
       style="fill:none;stroke:#000000;stroke-linecap:round;stroke-miterlimit:10" /><line
       class="st14"
       x1="413.79999"
       y1="119.7"
       x2="413.79999"
       y2="161.7"
       id="line7907"
       style="fill:none;stroke:#000000;stroke-linecap:round;stroke-linejoin:round;stroke-miterlimit:10" /></g><g
     id="g7919"
     transform="translate(-53.9998,-5.4293329)"><line
       class="st14"
       x1="185.2"
       y1="41.700001"
       x2="209.60001"
       y2="41.700001"
       id="line7911"
       style="fill:none;stroke:#000000;stroke-linecap:round;stroke-linejoin:round;stroke-miterlimit:10" /><polyline
       class="st18"
       points="138.4,41.7 142.3,32.7 150.1,50.7 157.9,32.7 165.7,50.7 173.5,32.7 181.3,50.7 185.2,41.7  "
       id="polyline7913"
       style="fill:none;stroke:#000000;stroke-width:2;stroke-linecap:round;stroke-linejoin:round;stroke-miterlimit:10" /><line
       class="st14"
       x1="108"
       y1="41.700001"
       x2="138.39999"
       y2="41.700001"
       id="line7915"
       style="fill:none;stroke:#000000;stroke-linecap:round;stroke-linejoin:round;stroke-miterlimit:10" /><polygon
       class="st24"
       points="108,29.7 108,53.7 209.6,53.7 209.8,29.7 "
       id="polygon7917"
       style="fill:none" /></g><g
     id="g7929"
     transform="translate(-53.9998,-5.4293329)"><line
       class="st14"
       x1="234"
       y1="78.300003"
       x2="234"
       y2="59.700001"
       id="line7921"
       style="fill:none;stroke:#000000;stroke-linecap:round;stroke-linejoin:round;stroke-miterlimit:10" /><polyline
       class="st18"
       points="234,125.1 225,121.2 243,113.4 225,105.6 243,97.8 225,90 243,82.2 234,78.3  "
       id="polyline7923"
       style="fill:none;stroke:#000000;stroke-width:2;stroke-linecap:round;stroke-linejoin:round;stroke-miterlimit:10" /><line
       class="st14"
       x1="234"
       y1="161.7"
       x2="234"
       y2="125.1"
       id="line7925"
       style="fill:none;stroke:#000000;stroke-linecap:round;stroke-linejoin:round;stroke-miterlimit:10" /><rect
       x="222"
       y="59.700001"
       class="st24"
       width="24"
       height="102"
       id="rect7927"
       style="fill:none" /></g><g
     id="g7939"
     transform="translate(-53.9998,-5.4293329)"><line
       class="st14"
       x1="323.79999"
       y1="78.300003"
       x2="323.79999"
       y2="59.700001"
       id="line7931"
       style="fill:none;stroke:#000000;stroke-linecap:round;stroke-linejoin:round;stroke-miterlimit:10" /><polyline
       class="st18"
       points="323.8,125.1 314.8,121.2 332.8,113.4 314.8,105.6 332.8,97.8 314.8,90 332.8,82.2 323.8,78.3  "
       id="polyline7933"
       style="fill:none;stroke:#000000;stroke-width:2;stroke-linecap:round;stroke-linejoin:round;stroke-miterlimit:10" /><line
       class="st14"
       x1="323.79999"
       y1="161.7"
       x2="323.79999"
       y2="125.1"
       id="line7935"
       style="fill:none;stroke:#000000;stroke-linecap:round;stroke-linejoin:round;stroke-miterlimit:10" /><rect
       x="311.79999"
       y="59.700001"
       class="st24"
       width="24"
       height="102"
       id="rect7937"
       style="fill:none" /></g><g
     id="g7945"
     transform="translate(-53.9998,-5.4293329)"><polyline
       class="st14"
       points="89.8,173.7 97.3,173.7 97.3,173.7 97.3,173.7 89.8,185.7 82.3,173.7 89.8,173.7 89.8,161.7  "
       id="polyline7941"
       style="fill:none;stroke:#000000;stroke-linecap:round;stroke-linejoin:round;stroke-miterlimit:10" /><rect
       x="77.800003"
       y="161.7"
       class="st24"
       width="24"
       height="24"
       id="rect7943"
       style="fill:none" /></g><g
     id="g7951"
     transform="translate(-53.9998,-5.4293329)"><circle
       class="st25"
       cx="233.8"
       cy="41.700001"
       r="1.5"
       id="circle7947"
       style="stroke:#000000;stroke-linecap:round;stroke-linejoin:round;stroke-miterlimit:10" /><rect
       x="227.8"
       y="35.700001"
       class="st24"
       width="12"
       height="12"
       id="rect7949"
       style="fill:none" /></g><g
     id="g7957"
     transform="translate(-53.9998,-5.4293329)"><circle
       class="st25"
       cx="323.79999"
       cy="41.700001"
       r="1.5"
       id="circle7953"
       style="stroke:#000000;stroke-linecap:round;stroke-linejoin:round;stroke-miterlimit:10" /><rect
       x="317.79999"
       y="35.700001"
       class="st24"
       width="12"
       height="12"
       id="rect7955"
       style="fill:none" /></g><g
     id="g7963"
     transform="translate(-53.9998,-5.4293329)"><circle
       class="st25"
       cx="323.79999"
       cy="161.7"
       r="1.5"
       id="circle7959"
       style="stroke:#000000;stroke-linecap:round;stroke-linejoin:round;stroke-miterlimit:10" /><rect
       x="317.79999"
       y="155.7"
       class="st24"
       width="12"
       height="12"
       id="rect7961"
       style="fill:none" /></g><g
     id="g7969"
     transform="translate(-53.9998,-5.4293329)"><circle
       class="st25"
       cx="234"
       cy="161.7"
       r="1.5"
       id="circle7965"
       style="stroke:#000000;stroke-linecap:round;stroke-linejoin:round;stroke-miterlimit:10" /><rect
       x="228"
       y="155.7"
       class="st24"
       width="12"
       height="12"
       id="rect7967"
       style="fill:none" /></g><g
     id="g7975"
     transform="translate(-53.9998,-5.4293329)"><circle
       class="st25"
       cx="89.800003"
       cy="161.7"
       r="1.5"
       id="circle7971"
       style="stroke:#000000;stroke-linecap:round;stroke-linejoin:round;stroke-miterlimit:10" /><rect
       x="83.800003"
       y="155.7"
       class="st24"
       width="12"
       height="12"
       id="rect7973"
       style="fill:none" /></g><line
     class="st16"
     x1="269.8002"
     y1="54.270668"
     x2="269.8002"
     y2="36.270668"
     id="line7977"
     style="fill:none;stroke:#000000;stroke-linecap:round;stroke-miterlimit:10" /><line
     class="st16"
     x1="180.0002"
     y1="54.270668"
     x2="180.0002"
     y2="36.270668"
     id="line7979"
     style="fill:none;stroke:#000000;stroke-linecap:round;stroke-miterlimit:10" /><g
     aria-label="I"
     style="font-style:normal;font-variant:normal;font-weight:normal;font-stretch:normal;font-size:21.33333397px;font-family:KaTeX_Main;-inkscape-font-specification:'KaTeX_Main, Normal';font-variant-ligatures:normal;font-variant-caps:normal;font-variant-numeric:normal;font-feature-settings:normal;text-align:start;writing-mode:lr-tb;text-anchor:start;fill:#ff9c39"
     id="text7981"><path
       d="m 120.99753,102.57066 q -0.34133,-0.064 -3.15733,-0.064 -2.816,0 -3.15733,0.064 h -0.23467 v -0.98133 h 0.46933 q 0.832,0 1.408,-0.064 0.256,-0.064 0.36267,-0.23467 0.0427,-0.064 0.0427,-6.015997 0,-5.930667 -0.0427,-5.994667 -0.10667,-0.170666 -0.36267,-0.234666 -0.576,-0.064 -1.408,-0.064 h -0.46933 v -0.981334 h 0.23467 q 0.34133,0.064 3.15733,0.064 2.816,0 3.15733,-0.064 h 0.23467 v 0.981334 h -0.46933 q -0.832,0 -1.408,0.064 -0.256,0.064 -0.36267,0.234666 -0.0427,0.064 -0.0427,5.994667 0,5.951997 0.0427,6.015997 0.10667,0.17067 0.36267,0.23467 0.576,0.064 1.408,0.064 h 0.46933 v 0.98133 z"
       style="font-style:normal;font-variant:normal;font-weight:normal;font-stretch:normal;font-size:21.33333397px;font-family:KaTeX_Main;-inkscape-font-specification:'KaTeX_Main, Normal';font-variant-ligatures:normal;font-variant-caps:normal;font-variant-numeric:normal;font-feature-settings:normal;text-align:start;writing-mode:lr-tb;text-anchor:start;fill:#ff9c39"
       id="path8568" /></g><g
     aria-label="V"
     style="font-style:normal;font-variant:normal;font-weight:normal;font-stretch:normal;font-size:21.33333397px;font-family:KaTeX_Main;-inkscape-font-specification:'KaTeX_Main, Normal';font-variant-ligatures:normal;font-variant-caps:normal;font-variant-numeric:normal;font-feature-settings:normal;text-align:start;writing-mode:lr-tb;text-anchor:start;fill:#11accd"
     id="text7983"><path
       d="m 340.65267,41.344 q -0.23466,-0.234666 -0.42666,-0.277333 -0.192,-0.064 -0.98134,-0.08533 h -0.61866 V 40 h 0.192 q 0.29866,0.064 2.64533,0.064 2.56,0 3.02933,-0.064 h 0.23467 v 0.981334 h -0.448 q -0.98133,0.02133 -1.216,0.234666 -0.0853,0.064 -0.0853,0.128 0,0.04267 1.92,5.290667 1.92,5.248 1.94133,5.248 0.832,-2.24 1.83467,-4.949333 1.81333,-4.906667 1.81333,-5.098667 0,-0.405333 -0.448,-0.618667 -0.448,-0.234666 -0.98133,-0.234666 h -0.10667 V 40 h 0.192 q 0.36267,0.064 2.45333,0.064 1.83467,0 2.06934,-0.064 h 0.128 v 0.981334 h -0.14934 q -1.57866,0 -2.048,0.874666 0,0.02133 -2.41066,6.506667 -2.38934,6.485334 -2.41067,6.506667 -0.064,0.170667 -0.384,0.170667 h -0.192 -0.192 q -0.29867,0 -0.36267,-0.170667 -0.0427,-0.04267 -2.496,-6.762667 -2.496,-6.698667 -2.496,-6.762667 z"
       style="font-style:normal;font-variant:normal;font-weight:normal;font-stretch:normal;font-size:21.33333397px;font-family:KaTeX_Main;-inkscape-font-specification:'KaTeX_Main, Normal';font-variant-ligatures:normal;font-variant-caps:normal;font-variant-numeric:normal;font-feature-settings:normal;text-align:start;writing-mode:lr-tb;text-anchor:start;fill:#11accd"
       id="path8565" /></g><g
     aria-label="VI"
     style="font-style:normal;font-variant:normal;font-weight:normal;font-stretch:normal;font-size:21.33333397px;font-family:KaTeX_Main;-inkscape-font-specification:'KaTeX_Main, Normal';font-variant-ligatures:normal;font-variant-caps:normal;font-variant-numeric:normal;font-feature-settings:normal;text-align:start;writing-mode:lr-tb;text-anchor:start;fill:#ca337c"
     id="text7985"><path
       d="m 388.65267,11.344 q -0.23466,-0.234666 -0.42666,-0.277333 -0.192,-0.064 -0.98134,-0.08533 h -0.61866 V 10 h 0.192 q 0.29866,0.064 2.64533,0.064 2.56,0 3.02933,-0.064 h 0.23467 v 0.981334 h -0.448 q -0.98133,0.02133 -1.216,0.234666 -0.0853,0.064 -0.0853,0.128 0,0.04267 1.92,5.290667 1.92,5.248 1.94133,5.248 0.832,-2.24 1.83467,-4.949333 1.81333,-4.906667 1.81333,-5.098667 0,-0.405333 -0.448,-0.618667 -0.448,-0.234666 -0.98133,-0.234666 h -0.10667 V 10 h 0.192 q 0.36267,0.064 2.45333,0.064 1.83467,0 2.06934,-0.064 h 0.128 v 0.981334 h -0.14934 q -1.57866,0 -2.048,0.874666 0,0.02133 -2.41066,6.506667 -2.38934,6.485334 -2.41067,6.506667 -0.064,0.170667 -0.384,0.170667 h -0.192 -0.192 q -0.29867,0 -0.36267,-0.170667 -0.0427,-0.04267 -2.496,-6.762667 -2.496,-6.698667 -2.496,-6.762667 z"
       style="font-style:normal;font-variant:normal;font-weight:normal;font-stretch:normal;font-size:21.33333397px;font-family:KaTeX_Main;-inkscape-font-specification:'KaTeX_Main, Normal';font-variant-ligatures:normal;font-variant-caps:normal;font-variant-numeric:normal;font-feature-settings:normal;text-align:start;writing-mode:lr-tb;text-anchor:start;fill:#ca337c"
       id="path8560" /><path
       d="m 409.21801,24.570667 q -0.34134,-0.064 -3.15734,-0.064 -2.816,0 -3.15733,0.064 h -0.23467 v -0.981333 h 0.46934 q 0.832,0 1.408,-0.064 0.256,-0.064 0.36266,-0.234667 0.0427,-0.064 0.0427,-6.016 0,-5.930667 -0.0427,-5.994667 -0.10666,-0.170666 -0.36266,-0.234666 -0.576,-0.064 -1.408,-0.064 h -0.46934 V 10 h 0.23467 q 0.34133,0.064 3.15733,0.064 2.816,0 3.15734,-0.064 h 0.23466 v 0.981334 h -0.46933 q -0.832,0 -1.408,0.064 -0.256,0.064 -0.36267,0.234666 -0.0427,0.064 -0.0427,5.994667 0,5.952 0.0427,6.016 0.10667,0.170667 0.36267,0.234667 0.576,0.064 1.408,0.064 h 0.46933 v 0.981333 z"
       style="font-style:normal;font-variant:normal;font-weight:normal;font-stretch:normal;font-size:21.33333397px;font-family:KaTeX_Main;-inkscape-font-specification:'KaTeX_Main, Normal';font-variant-ligatures:normal;font-variant-caps:normal;font-variant-numeric:normal;font-feature-settings:normal;text-align:start;writing-mode:lr-tb;text-anchor:start;fill:#ca337c"
       id="path8562" /></g><g
     aria-label="IV"
     style="font-style:normal;font-variant:normal;font-weight:normal;font-stretch:normal;font-size:21.33333397px;font-family:KaTeX_Main;-inkscape-font-specification:'KaTeX_Main, Normal';font-variant-ligatures:normal;font-variant-caps:normal;font-variant-numeric:normal;font-feature-settings:normal;text-align:start;writing-mode:lr-tb;text-anchor:start;fill:#1fab54"
     id="text7987"><path
       d="m 47.43848,54.570667 q -0.341333,-0.064 -3.157333,-0.064 -2.816,0 -3.157333,0.064 h -0.234667 v -0.981333 h 0.469333 q 0.832,0 1.408,-0.064 0.256,-0.064 0.362667,-0.234667 0.04267,-0.064 0.04267,-6.016 0,-5.930667 -0.04267,-5.994667 -0.106667,-0.170666 -0.362667,-0.234666 -0.576,-0.064 -1.408,-0.064 H 40.889147 V 40 h 0.234667 q 0.341333,0.064 3.157333,0.064 2.816,0 3.157333,-0.064 h 0.234667 v 0.981334 h -0.469333 q -0.832,0 -1.408,0.064 -0.256,0.064 -0.362667,0.234666 -0.04267,0.064 -0.04267,5.994667 0,5.952 0.04267,6.016 0.106667,0.170667 0.362667,0.234667 0.576,0.064 1.408,0.064 h 0.469333 v 0.981333 z"
       style="font-style:normal;font-variant:normal;font-weight:normal;font-stretch:normal;font-size:21.33333397px;font-family:KaTeX_Main;-inkscape-font-specification:'KaTeX_Main, Normal';font-variant-ligatures:normal;font-variant-caps:normal;font-variant-numeric:normal;font-feature-settings:normal;text-align:start;writing-mode:lr-tb;text-anchor:start;fill:#1fab54"
       id="path8555" /><path
       d="m 50.58148,41.344 q -0.234666,-0.234666 -0.426666,-0.277333 -0.192,-0.064 -0.981334,-0.08533 H 48.554814 V 40 h 0.192 q 0.298666,0.064 2.645333,0.064 2.56,0 3.029334,-0.064 h 0.234666 v 0.981334 h -0.448 q -0.981333,0.02133 -1.216,0.234666 -0.08533,0.064 -0.08533,0.128 0,0.04267 1.92,5.290667 1.92,5.248 1.941333,5.248 0.832,-2.24 1.834667,-4.949333 1.813333,-4.906667 1.813333,-5.098667 0,-0.405333 -0.448,-0.618667 -0.448,-0.234666 -0.981333,-0.234666 H 58.880147 V 40 h 0.192 q 0.362667,0.064 2.453334,0.064 1.834666,0 2.069333,-0.064 h 0.128 v 0.981334 h -0.149333 q -1.578667,0 -2.048,0.874666 0,0.02133 -2.410667,6.506667 -2.389333,6.485334 -2.410667,6.506667 -0.064,0.170667 -0.384,0.170667 h -0.192 -0.192 q -0.298666,0 -0.362666,-0.170667 -0.04267,-0.04267 -2.496001,-6.762667 -2.496,-6.698667 -2.496,-6.762667 z"
       style="font-style:normal;font-variant:normal;font-weight:normal;font-stretch:normal;font-size:21.33333397px;font-family:KaTeX_Main;-inkscape-font-specification:'KaTeX_Main, Normal';font-variant-ligatures:normal;font-variant-caps:normal;font-variant-numeric:normal;font-feature-settings:normal;text-align:start;writing-mode:lr-tb;text-anchor:start;fill:#1fab54"
       id="path8557" /></g><g
     aria-label="II"
     style="font-style:normal;font-variant:normal;font-weight:normal;font-stretch:normal;font-size:21.33333397px;font-family:KaTeX_Main;-inkscape-font-specification:'KaTeX_Main, Normal';font-variant-ligatures:normal;font-variant-caps:normal;font-variant-numeric:normal;font-feature-settings:normal;text-align:start;writing-mode:lr-tb;text-anchor:start;fill:#ff9c39"
     id="text7989"><path
       d="m 222.99753,102.57066 q -0.34133,-0.064 -3.15733,-0.064 -2.816,0 -3.15733,0.064 h -0.23467 v -0.98133 h 0.46933 q 0.832,0 1.408,-0.064 0.256,-0.064 0.36267,-0.23467 0.0427,-0.064 0.0427,-6.015997 0,-5.930667 -0.0427,-5.994667 -0.10667,-0.170666 -0.36267,-0.234666 -0.576,-0.064 -1.408,-0.064 h -0.46933 v -0.981334 h 0.23467 q 0.34133,0.064 3.15733,0.064 2.816,0 3.15733,-0.064 h 0.23467 v 0.981334 h -0.46933 q -0.832,0 -1.408,0.064 -0.256,0.064 -0.36267,0.234666 -0.0427,0.064 -0.0427,5.994667 0,5.951997 0.0427,6.015997 0.10667,0.17067 0.36267,0.23467 0.576,0.064 1.408,0.064 h 0.46933 v 0.98133 z"
       style="font-style:normal;font-variant:normal;font-weight:normal;font-stretch:normal;font-size:21.33333397px;font-family:KaTeX_Main;-inkscape-font-specification:'KaTeX_Main, Normal';font-variant-ligatures:normal;font-variant-caps:normal;font-variant-numeric:normal;font-feature-settings:normal;text-align:start;writing-mode:lr-tb;text-anchor:start;fill:#ff9c39"
       id="path8550" /><path
       d="m 230.70587,102.57066 q -0.34134,-0.064 -3.15734,-0.064 -2.816,0 -3.15733,0.064 h -0.23467 v -0.98133 h 0.46934 q 0.832,0 1.408,-0.064 0.256,-0.064 0.36266,-0.23467 0.0427,-0.064 0.0427,-6.015997 0,-5.930667 -0.0427,-5.994667 -0.10666,-0.170666 -0.36266,-0.234666 -0.576,-0.064 -1.408,-0.064 h -0.46934 v -0.981334 h 0.23467 q 0.34133,0.064 3.15733,0.064 2.816,0 3.15734,-0.064 h 0.23466 v 0.981334 h -0.46933 q -0.832,0 -1.408,0.064 -0.256,0.064 -0.36267,0.234666 -0.0427,0.064 -0.0427,5.994667 0,5.951997 0.0427,6.015997 0.10667,0.17067 0.36267,0.23467 0.576,0.064 1.408,0.064 h 0.46933 v 0.98133 z"
       style="font-style:normal;font-variant:normal;font-weight:normal;font-stretch:normal;font-size:21.33333397px;font-family:KaTeX_Main;-inkscape-font-specification:'KaTeX_Main, Normal';font-variant-ligatures:normal;font-variant-caps:normal;font-variant-numeric:normal;font-feature-settings:normal;text-align:start;writing-mode:lr-tb;text-anchor:start;fill:#ff9c39"
       id="path8552" /></g><g
     aria-label="III"
     style="font-style:normal;font-variant:normal;font-weight:normal;font-stretch:normal;font-size:21.33333397px;font-family:KaTeX_Main;-inkscape-font-specification:'KaTeX_Main, Normal';font-variant-ligatures:normal;font-variant-caps:normal;font-variant-numeric:normal;font-feature-settings:normal;text-align:start;writing-mode:lr-tb;text-anchor:start;fill:#ff9c39"
     id="text7991"><path
       d="m 303.21801,102.57066 q -0.34134,-0.064 -3.15734,-0.064 -2.816,0 -3.15733,0.064 h -0.23467 v -0.98133 h 0.46934 q 0.832,0 1.408,-0.064 0.256,-0.064 0.36266,-0.23467 0.0427,-0.064 0.0427,-6.015997 0,-5.930667 -0.0427,-5.994667 -0.10666,-0.170666 -0.36266,-0.234666 -0.576,-0.064 -1.408,-0.064 h -0.46934 v -0.981334 h 0.23467 q 0.34133,0.064 3.15733,0.064 2.816,0 3.15734,-0.064 h 0.23466 v 0.981334 h -0.46933 q -0.832,0 -1.408,0.064 -0.256,0.064 -0.36267,0.234666 -0.0427,0.064 -0.0427,5.994667 0,5.951997 0.0427,6.015997 0.10667,0.17067 0.36267,0.23467 0.576,0.064 1.408,0.064 h 0.46933 v 0.98133 z"
       style="font-style:normal;font-variant:normal;font-weight:normal;font-stretch:normal;font-size:21.33333397px;font-family:KaTeX_Main;-inkscape-font-specification:'KaTeX_Main, Normal';font-variant-ligatures:normal;font-variant-caps:normal;font-variant-numeric:normal;font-feature-settings:normal;text-align:start;writing-mode:lr-tb;text-anchor:start;fill:#ff9c39"
       id="path8543" /><path
       d="m 310.92634,102.57066 q -0.34133,-0.064 -3.15733,-0.064 -2.816,0 -3.15734,0.064 h -0.23466 v -0.98133 h 0.46933 q 0.832,0 1.408,-0.064 0.256,-0.064 0.36267,-0.23467 0.0427,-0.064 0.0427,-6.015997 0,-5.930667 -0.0427,-5.994667 -0.10667,-0.170666 -0.36267,-0.234666 -0.576,-0.064 -1.408,-0.064 h -0.46933 v -0.981334 h 0.23466 q 0.34134,0.064 3.15734,0.064 2.816,0 3.15733,-0.064 h 0.23467 v 0.981334 h -0.46934 q -0.832,0 -1.408,0.064 -0.256,0.064 -0.36266,0.234666 -0.0427,0.064 -0.0427,5.994667 0,5.951997 0.0427,6.015997 0.10666,0.17067 0.36266,0.23467 0.576,0.064 1.408,0.064 h 0.46934 v 0.98133 z"
       style="font-style:normal;font-variant:normal;font-weight:normal;font-stretch:normal;font-size:21.33333397px;font-family:KaTeX_Main;-inkscape-font-specification:'KaTeX_Main, Normal';font-variant-ligatures:normal;font-variant-caps:normal;font-variant-numeric:normal;font-feature-settings:normal;text-align:start;writing-mode:lr-tb;text-anchor:start;fill:#ff9c39"
       id="path8545" /><path
       d="m 318.63467,102.57066 q -0.34133,-0.064 -3.15733,-0.064 -2.816,0 -3.15733,0.064 h -0.23467 v -0.98133 h 0.46933 q 0.832,0 1.408,-0.064 0.256,-0.064 0.36267,-0.23467 0.0427,-0.064 0.0427,-6.015997 0,-5.930667 -0.0427,-5.994667 -0.10667,-0.170666 -0.36267,-0.234666 -0.576,-0.064 -1.408,-0.064 h -0.46933 v -0.981334 h 0.23467 q 0.34133,0.064 3.15733,0.064 2.816,0 3.15733,-0.064 h 0.23467 v 0.981334 h -0.46933 q -0.832,0 -1.408,0.064 -0.256,0.064 -0.36267,0.234666 -0.0427,0.064 -0.0427,5.994667 0,5.951997 0.0427,6.015997 0.10667,0.17067 0.36267,0.23467 0.576,0.064 1.408,0.064 h 0.46933 v 0.98133 z"
       style="font-style:normal;font-variant:normal;font-weight:normal;font-stretch:normal;font-size:21.33333397px;font-family:KaTeX_Main;-inkscape-font-specification:'KaTeX_Main, Normal';font-variant-ligatures:normal;font-variant-caps:normal;font-variant-numeric:normal;font-feature-settings:normal;text-align:start;writing-mode:lr-tb;text-anchor:start;fill:#ff9c39"
       id="path8547" /></g></svg>