<?xml version="1.0" encoding="UTF-8" standalone="no"?>
<!-- Generator: Adobe Illustrator 19.1.0, SVG Export Plug-In . SVG Version: 6.00 Build 0)  -->

<svg
   xmlns:dc="http://purl.org/dc/elements/1.1/"
   xmlns:cc="http://creativecommons.org/ns#"
   xmlns:rdf="http://www.w3.org/1999/02/22-rdf-syntax-ns#"
   xmlns:svg="http://www.w3.org/2000/svg"
   xmlns="http://www.w3.org/2000/svg"
   xmlns:sodipodi="http://sodipodi.sourceforge.net/DTD/sodipodi-0.dtd"
   xmlns:inkscape="http://www.inkscape.org/namespaces/inkscape"
   version="1.1"
   id="Layer_1"
   x="0px"
   y="0px"
   width="382"
   height="186.48396"
   viewBox="0 0 382 186.48396"
   xml:space="preserve"
   sodipodi:docname="equations2.svg"
   inkscape:version="0.92.2 5c3e80d, 2017-08-06"><metadata
     id="metadata6893"><rdf:RDF><cc:Work
         rdf:about=""><dc:format>image/svg+xml</dc:format><dc:type
           rdf:resource="http://purl.org/dc/dcmitype/StillImage" /><dc:title></dc:title></cc:Work></rdf:RDF></metadata><defs
     id="defs6891" /><sodipodi:namedview
     pagecolor="#ffffff"
     bordercolor="#666666"
     borderopacity="1"
     objecttolerance="10"
     gridtolerance="10"
     guidetolerance="10"
     inkscape:pageopacity="0"
     inkscape:pageshadow="2"
     inkscape:window-width="640"
     inkscape:window-height="480"
     id="namedview6889"
     showgrid="false"
     fit-margin-top="10"
     fit-margin-right="10"
     fit-margin-bottom="10"
     fit-margin-left="10"
     inkscape:zoom="1.04375"
     inkscape:cx="179"
     inkscape:cy="100.49996"
     inkscape:current-layer="Layer_1" /><style
     type="text/css"
     id="style6762">
	.st0{fill:none;stroke:#1FAB54;stroke-width:6;stroke-linecap:round;stroke-miterlimit:10;}
	.st1{fill:none;stroke:#FF9C39;stroke-width:6;stroke-linecap:round;stroke-miterlimit:10;}
	.st2{fill:none;stroke:#FF9C39;stroke-width:6;stroke-linecap:round;stroke-linejoin:round;stroke-miterlimit:10;}
	.st3{fill:none;stroke:#11ACCD;stroke-width:5;stroke-linecap:round;stroke-linejoin:round;stroke-miterlimit:10;}
	.st4{fill:none;stroke:#1FAB54;stroke-width:6;stroke-linecap:round;stroke-linejoin:round;stroke-miterlimit:10;}
	.st5{fill:none;stroke:#BABEC2;stroke-width:2;stroke-linecap:round;stroke-miterlimit:10;}
	.st6{fill:none;stroke:#ED5FA6;stroke-width:4;stroke-linecap:round;stroke-miterlimit:10;}
	.st7{fill:#ED5FA6;}
	.st8{fill:none;stroke:#1FAB54;stroke-width:4;stroke-linecap:round;stroke-miterlimit:10;}
	.st9{fill:#1FAB54;}
	.st10{fill:none;stroke:#11ACCD;stroke-width:4;stroke-linecap:round;stroke-miterlimit:10;}
	.st11{fill:#11ACCD;}
	.st12{fill:none;stroke:#FF9C39;stroke-width:4;stroke-linecap:round;stroke-miterlimit:10;}
	.st13{fill:#FF9C39;}
	.st14{fill:none;stroke:#000000;stroke-linecap:round;stroke-linejoin:round;stroke-miterlimit:10;}
	.st15{fill:none;stroke:#000000;stroke-width:1.5;stroke-linecap:round;stroke-linejoin:round;stroke-miterlimit:10;}
	.st16{fill:none;stroke:#000000;stroke-linecap:round;stroke-miterlimit:10;}
	.st17{fill:none;stroke:#000000;stroke-width:1.5;stroke-linecap:round;stroke-miterlimit:10;}
	.st18{fill:none;stroke:#000000;stroke-width:2;stroke-linecap:round;stroke-linejoin:round;stroke-miterlimit:10;}
	.st19{fill:none;stroke:#000000;stroke-width:1.5;stroke-miterlimit:10;}
	.st20{fill:none;stroke:#000000;stroke-miterlimit:10;}
	.st21{fill:none;stroke:#000000;stroke-width:2;stroke-miterlimit:10;}
	.st22{fill:none;stroke:#000000;stroke-width:2;stroke-linecap:round;stroke-miterlimit:10;}
	.st23{fill:none;stroke:#000000;stroke-linecap:round;stroke-linejoin:round;}
	.st24{fill:none;}
	.st25{stroke:#000000;stroke-linecap:round;stroke-linejoin:round;stroke-miterlimit:10;}
	.st26{fill:none;stroke:#000000;stroke-width:1.5;stroke-linejoin:round;stroke-miterlimit:10;}
	.st27{fill:none;stroke:#000000;stroke-linejoin:round;stroke-miterlimit:10;}
	.st28{clip-path:url(#SVGID_2_);fill:none;stroke:#000000;stroke-linejoin:round;stroke-miterlimit:10;}
	.st29{clip-path:url(#SVGID_2_);fill:none;stroke:#ADADEB;stroke-linejoin:round;stroke-miterlimit:10;}
	.st30{clip-path:url(#SVGID_2_);}
	.st31{stroke:#000000;stroke-linejoin:round;stroke-miterlimit:10;}
	.st32{stroke:#000000;stroke-width:3;stroke-linejoin:round;stroke-miterlimit:10;}
	.st33{fill:none;stroke:#000000;stroke-linejoin:round;}
	.st34{fill:#FFFFFF;stroke:#000000;stroke-miterlimit:10;}
	.st35{fill:#E07D10;}
	.st36{fill:none;stroke:#11ACCD;stroke-width:3;stroke-linecap:round;stroke-miterlimit:10;}
	.st37{fill:none;stroke:#E07D10;stroke-width:2;stroke-linecap:round;stroke-miterlimit:10;}
	.st38{fill:none;stroke:#FF9C39;stroke-width:3;stroke-linecap:round;stroke-miterlimit:10;}
	.st39{fill:none;stroke:#FFBB71;stroke-width:2;stroke-linecap:round;stroke-miterlimit:10;}
	.st40{fill:#FFBB71;}
	.st41{fill:none;stroke:#000000;stroke-width:2;stroke-linecap:round;stroke-miterlimit:10;stroke-dasharray:6.1241,6.1241;}
	.st42{fill:#66AFE9;}
	.st43{fill:none;stroke:#66AFE9;stroke-miterlimit:10;}
	.st44{fill:none;stroke:#11ACCD;stroke-width:1.5;stroke-miterlimit:10;}
	.st45{fill:none;stroke:#11ACCD;stroke-width:4;stroke-linecap:round;stroke-linejoin:round;stroke-miterlimit:10;}
	.st46{fill:#CA337C;}
	.st47{font-family:'KaTeX_Main-Regular';}
	.st48{font-size:18px;}
	.st49{fill:#FFFFFF;}
</style><line
     class="st0"
     x1="28.800003"
     y1="163.98399"
     x2="28.800003"
     y2="151.98399"
     id="line6764"
     style="fill:none;stroke:#1fab54;stroke-width:6;stroke-linecap:round;stroke-miterlimit:10" /><line
     class="st1"
     x1="263.20001"
     y1="55.984001"
     x2="263.20001"
     y2="31.983999"
     id="line6766"
     style="fill:none;stroke:#ff9c39;stroke-width:6;stroke-linecap:round;stroke-miterlimit:10" /><line
     class="st1"
     x1="173"
     y1="55.984001"
     x2="173"
     y2="31.983999"
     id="line6768"
     style="fill:none;stroke:#ff9c39;stroke-width:6;stroke-linecap:round;stroke-miterlimit:10" /><polyline
     class="st2"
     points="198,42 414,42 414.2,66 "
     id="polyline6770"
     style="fill:none;stroke:#ff9c39;stroke-width:6;stroke-linecap:round;stroke-linejoin:round;stroke-miterlimit:10"
     transform="translate(-61,-10.016)" /><polyline
     class="st3"
     points="90,66 90,42 126,42 "
     id="polyline6772"
     style="fill:none;stroke:#11accd;stroke-width:5;stroke-linecap:round;stroke-linejoin:round;stroke-miterlimit:10"
     transform="translate(-61,-10.016)" /><polyline
     class="st4"
     points="324.2,138 324,162 89.8,162 90,138 "
     id="polyline6774"
     style="fill:none;stroke:#1fab54;stroke-width:6;stroke-linecap:round;stroke-linejoin:round;stroke-miterlimit:10"
     transform="translate(-61,-10.016)" /><line
     class="st4"
     x1="173"
     y1="127.984"
     x2="173"
     y2="151.98399"
     id="line6776"
     style="fill:none;stroke:#1fab54;stroke-width:6;stroke-linecap:round;stroke-linejoin:round;stroke-miterlimit:10" /><polyline
     class="st4"
     points="324,162 414.2,162 414.2,138 "
     id="polyline6778"
     style="fill:none;stroke:#1fab54;stroke-width:6;stroke-linecap:round;stroke-linejoin:round;stroke-miterlimit:10"
     transform="translate(-61,-10.016)" /><g
     id="g6792"
     transform="translate(-61,-10.016)"><circle
       class="st21"
       cx="90"
       cy="102"
       r="18"
       id="circle6780"
       style="fill:none;stroke:#000000;stroke-width:2;stroke-miterlimit:10" /><polyline
       class="st16"
       points="90,84 90,60 90,42 108,42  "
       id="polyline6782"
       style="fill:none;stroke:#000000;stroke-linecap:round;stroke-miterlimit:10" /><polyline
       class="st14"
       points="90,120 89.8,162 414.2,162  "
       id="polyline6784"
       style="fill:none;stroke:#000000;stroke-linecap:round;stroke-linejoin:round;stroke-miterlimit:10" /><line
       class="st19"
       x1="90"
       y1="88.5"
       x2="90"
       y2="100.5"
       id="line6786"
       style="fill:none;stroke:#000000;stroke-width:1.5;stroke-miterlimit:10" /><line
       class="st19"
       x1="84"
       y1="94.5"
       x2="96"
       y2="94.5"
       id="line6788"
       style="fill:none;stroke:#000000;stroke-width:1.5;stroke-miterlimit:10" /><line
       class="st19"
       x1="84"
       y1="112.5"
       x2="96"
       y2="112.5"
       id="line6790"
       style="fill:none;stroke:#000000;stroke-width:1.5;stroke-miterlimit:10" /></g><g
     id="g6810"
     transform="translate(-61,-10.016)"><g
       id="g6802"><g
         id="g6800"><line
           class="st22"
           x1="414"
           y1="115.5"
           x2="414"
           y2="95.599998"
           id="line6794"
           style="fill:none;stroke:#000000;stroke-width:2;stroke-linecap:round;stroke-miterlimit:10" /><g
           id="g6798"><polygon
             points="408,97.4 420,97.4 414,87 "
             id="polygon6796" /></g></g></g><circle
       class="st21"
       cx="414"
       cy="102"
       r="18"
       id="circle6804"
       style="fill:none;stroke:#000000;stroke-width:2;stroke-miterlimit:10" /><polyline
       class="st16"
       points="209.6,42 414,42 414,60 414,84  "
       id="polyline6806"
       style="fill:none;stroke:#000000;stroke-linecap:round;stroke-miterlimit:10" /><line
       class="st14"
       x1="414"
       y1="162"
       x2="414"
       y2="120"
       id="line6808"
       style="fill:none;stroke:#000000;stroke-linecap:round;stroke-linejoin:round;stroke-miterlimit:10" /></g><g
     id="g6820"
     transform="translate(-61,-10.016)"><line
       class="st14"
       x1="185.2"
       y1="42"
       x2="209.60001"
       y2="42"
       id="line6812"
       style="fill:none;stroke:#000000;stroke-linecap:round;stroke-linejoin:round;stroke-miterlimit:10" /><polyline
       class="st18"
       points="138.4,42 142.3,33 150.1,51 157.9,33 165.7,51 173.5,33 181.3,51 185.2,42  "
       id="polyline6814"
       style="fill:none;stroke:#000000;stroke-width:2;stroke-linecap:round;stroke-linejoin:round;stroke-miterlimit:10" /><line
       class="st14"
       x1="108"
       y1="42"
       x2="138.39999"
       y2="42"
       id="line6816"
       style="fill:none;stroke:#000000;stroke-linecap:round;stroke-linejoin:round;stroke-miterlimit:10" /><polygon
       class="st24"
       points="108,30 108,54 209.6,54 209.8,30 "
       id="polygon6818"
       style="fill:none" /></g><g
     id="g6830"
     transform="translate(-61,-10.016)"><line
       class="st14"
       x1="234"
       y1="78.599998"
       x2="234"
       y2="60"
       id="line6822"
       style="fill:none;stroke:#000000;stroke-linecap:round;stroke-linejoin:round;stroke-miterlimit:10" /><polyline
       class="st18"
       points="234,125.4 225,121.5 243,113.7 225,105.9 243,98.1 225,90.3 243,82.5 234,78.6  "
       id="polyline6824"
       style="fill:none;stroke:#000000;stroke-width:2;stroke-linecap:round;stroke-linejoin:round;stroke-miterlimit:10" /><line
       class="st14"
       x1="234"
       y1="162"
       x2="234"
       y2="125.4"
       id="line6826"
       style="fill:none;stroke:#000000;stroke-linecap:round;stroke-linejoin:round;stroke-miterlimit:10" /><rect
       x="222"
       y="60"
       class="st24"
       width="24"
       height="102"
       id="rect6828"
       style="fill:none" /></g><g
     id="g6840"
     transform="translate(-61,-10.016)"><line
       class="st14"
       x1="324"
       y1="78.599998"
       x2="324"
       y2="60"
       id="line6832"
       style="fill:none;stroke:#000000;stroke-linecap:round;stroke-linejoin:round;stroke-miterlimit:10" /><polyline
       class="st18"
       points="324,125.4 315,121.5 333,113.7 315,105.9 333,98.1 315,90.3 333,82.5 324,78.6  "
       id="polyline6834"
       style="fill:none;stroke:#000000;stroke-width:2;stroke-linecap:round;stroke-linejoin:round;stroke-miterlimit:10" /><line
       class="st14"
       x1="324"
       y1="162"
       x2="324"
       y2="125.4"
       id="line6836"
       style="fill:none;stroke:#000000;stroke-linecap:round;stroke-linejoin:round;stroke-miterlimit:10" /><rect
       x="312"
       y="60"
       class="st24"
       width="24"
       height="102"
       id="rect6838"
       style="fill:none" /></g><g
     id="g6846"
     transform="translate(-61,-10.016)"><polyline
       class="st14"
       points="89.8,174 97.3,174 97.3,174 97.3,174 89.8,186 82.3,174 89.8,174 89.8,162  "
       id="polyline6842"
       style="fill:none;stroke:#000000;stroke-linecap:round;stroke-linejoin:round;stroke-miterlimit:10" /><rect
       x="77.800003"
       y="162"
       class="st24"
       width="24"
       height="24"
       id="rect6844"
       style="fill:none" /></g><g
     id="g6852"
     transform="translate(-61,-10.016)"><circle
       class="st25"
       cx="233.8"
       cy="42"
       r="1.5"
       id="circle6848"
       style="stroke:#000000;stroke-linecap:round;stroke-linejoin:round;stroke-miterlimit:10" /><rect
       x="227.8"
       y="36"
       class="st24"
       width="12"
       height="12"
       id="rect6850"
       style="fill:none" /></g><g
     id="g6858"
     transform="translate(-61,-10.016)"><circle
       class="st25"
       cx="324"
       cy="42"
       r="1.5"
       id="circle6854"
       style="stroke:#000000;stroke-linecap:round;stroke-linejoin:round;stroke-miterlimit:10" /><rect
       x="318"
       y="36"
       class="st24"
       width="12"
       height="12"
       id="rect6856"
       style="fill:none" /></g><g
     id="g6864"
     transform="translate(-61,-10.016)"><circle
       class="st25"
       cx="324"
       cy="162"
       r="1.5"
       id="circle6860"
       style="stroke:#000000;stroke-linecap:round;stroke-linejoin:round;stroke-miterlimit:10" /><rect
       x="318"
       y="156"
       class="st24"
       width="12"
       height="12"
       id="rect6862"
       style="fill:none" /></g><g
     id="g6870"
     transform="translate(-61,-10.016)"><circle
       class="st25"
       cx="234"
       cy="162"
       r="1.5"
       id="circle6866"
       style="stroke:#000000;stroke-linecap:round;stroke-linejoin:round;stroke-miterlimit:10" /><rect
       x="228"
       y="156"
       class="st24"
       width="12"
       height="12"
       id="rect6868"
       style="fill:none" /></g><g
     id="g6876"
     transform="translate(-61,-10.016)"><circle
       class="st25"
       cx="89.800003"
       cy="162"
       r="1.5"
       id="circle6872"
       style="stroke:#000000;stroke-linecap:round;stroke-linejoin:round;stroke-miterlimit:10" /><rect
       x="83.800003"
       y="156"
       class="st24"
       width="12"
       height="12"
       id="rect6874"
       style="fill:none" /></g><line
     class="st16"
     x1="263"
     y1="49.984001"
     x2="263"
     y2="31.983999"
     id="line6878"
     style="fill:none;stroke:#000000;stroke-linecap:round;stroke-miterlimit:10" /><line
     class="st16"
     x1="173"
     y1="49.984001"
     x2="173"
     y2="31.983999"
     id="line6880"
     style="fill:none;stroke:#000000;stroke-linecap:round;stroke-miterlimit:10" /><g
     aria-label="1"
     style="font-style:normal;font-variant:normal;font-weight:normal;font-stretch:normal;font-size:24px;font-family:KaTeX_Main;-inkscape-font-specification:'KaTeX_Main, Normal';font-variant-ligatures:normal;font-variant-caps:normal;font-variant-numeric:normal;font-feature-settings:normal;text-align:start;writing-mode:lr-tb;text-anchor:start;fill:#11accd"
     id="text6882"><path
       d="m 44.984,25.983999 q -0.408,-0.072 -3.816,-0.072 -3.36,0 -3.768,0.072 h -0.288 v -1.104 h 0.624 q 1.392,0 1.8,-0.072 0.192,-0.024 0.576,-0.288 v -12.408 q -0.048,0 -0.192,0.072 -1.104,0.432 -2.472,0.456 h -0.456 v -1.104 h 0.456 q 2.016,-0.072 3.36,-0.912 0.432,-0.24 0.744,-0.552 0.048,-0.072 0.288,-0.072 0.24,0 0.408,0.1439997 v 7.176 l 0.024,7.2 q 0.36,0.36 1.56,0.36 h 0.792 0.624 v 1.104 z"
       style="font-style:normal;font-variant:normal;font-weight:normal;font-stretch:normal;font-size:24px;font-family:KaTeX_Main;-inkscape-font-specification:'KaTeX_Main, Normal';font-variant-ligatures:normal;font-variant-caps:normal;font-variant-numeric:normal;font-feature-settings:normal;text-align:start;writing-mode:lr-tb;text-anchor:start;fill:#11accd"
       id="path7444" /></g><g
     aria-label="2"
     style="font-style:normal;font-variant:normal;font-weight:normal;font-stretch:normal;font-size:24px;font-family:KaTeX_Main;-inkscape-font-specification:'KaTeX_Main, Normal';font-variant-ligatures:normal;font-variant-caps:normal;font-variant-numeric:normal;font-feature-settings:normal;text-align:start;writing-mode:lr-tb;text-anchor:start;fill:#ff9c39"
     id="text6884"><path
       d="m 259.64,15.687999 q -0.672,0 -1.056,-0.432 -0.384,-0.432 -0.384,-1.056 0,-1.728 1.296,-2.952 1.32,-1.2479997 3.144,-1.2479997 2.064,0 3.408,1.1279997 1.368,1.104 1.68,2.904 0.048,0.432 0.048,0.792 0,1.392 -0.84,2.616 -0.672,1.008 -2.712,2.76 -0.864,0.744 -2.4,2.208 l -1.416,1.344 1.824,0.024 q 3.768,0 4.008,-0.12 0.096,-0.024 0.24,-0.504 0.096,-0.264 0.336,-1.632 v -0.072 h 0.96 v 0.072 l -0.672,4.392 v 0.072 H 258.2 v -0.456 q 0,-0.48 0.048,-0.552 0.024,-0.024 2.016,-2.28 2.616,-2.904 3.36,-3.84 1.608,-2.184 1.608,-4.008 0,-1.584 -0.84,-2.64 -0.816,-1.08 -2.304,-1.08 -1.392,0 -2.256,1.248 -0.048,0.096 -0.144,0.264 -0.072,0.12 -0.072,0.144 0,0.024 0.12,0.024 0.6,0 0.96,0.432 0.384,0.432 0.384,1.008 0,0.6 -0.408,1.032 -0.384,0.408 -1.032,0.408 z"
       style="font-style:normal;font-variant:normal;font-weight:normal;font-stretch:normal;font-size:24px;font-family:KaTeX_Main;-inkscape-font-specification:'KaTeX_Main, Normal';font-variant-ligatures:normal;font-variant-caps:normal;font-variant-numeric:normal;font-feature-settings:normal;text-align:start;writing-mode:lr-tb;text-anchor:start;fill:#ff9c39"
       id="path7441" /></g><g
     aria-label="3"
     style="font-style:normal;font-variant:normal;font-weight:normal;font-stretch:normal;font-size:24px;font-family:KaTeX_Main;-inkscape-font-specification:'KaTeX_Main, Normal';font-variant-ligatures:normal;font-variant-caps:normal;font-variant-numeric:normal;font-feature-settings:normal;text-align:start;writing-mode:lr-tb;text-anchor:start;fill:#1fab54"
     id="text6886"><path
       d="m 206.048,162.65152 q -0.648,0 -1.032,-0.408 -0.36,-0.408 -0.36,-1.056 0,-1.368 1.08,-2.28 1.08,-0.936 2.496,-1.104 h 0.36 q 0.84,0 1.056,0.024 0.792,0.12 1.608,0.504 1.584,0.792 1.992,2.256 0.072,0.24 0.072,0.648 0,1.416 -0.888,2.544 -0.864,1.104 -2.184,1.584 -0.12,0.048 0,0.072 0.048,0.024 0.24,0.072 1.464,0.408 2.472,1.536 1.008,1.104 1.008,2.52 0,0.984 -0.456,1.896 -0.576,1.224 -1.896,2.04 -1.296,0.792 -2.904,0.792 -1.584,0 -2.808,-0.672 -1.224,-0.672 -1.656,-1.8 -0.24,-0.504 -0.24,-1.176 0,-0.672 0.432,-1.08 0.456,-0.432 1.08,-0.432 0.672,0 1.104,0.432 0.432,0.432 0.432,1.08 0,0.552 -0.312,0.96 -0.312,0.408 -0.84,0.528 l -0.168,0.048 q 1.296,1.08 2.976,1.08 1.32,0 1.992,-1.272 0.408,-0.792 0.408,-2.424 v -0.48 q 0,-2.28 -1.536,-3.048 -0.36,-0.144 -1.464,-0.168 l -1.008,-0.024 -0.072,-0.048 q -0.048,-0.072 -0.048,-0.384 0,-0.288 0.072,-0.36 0.072,-0.072 0.12,-0.072 0.672,0 1.392,-0.12 1.056,-0.144 1.608,-1.176 0.552,-1.056 0.552,-2.52 0,-1.56 -0.84,-2.088 -0.504,-0.336 -1.128,-0.336 -1.2,0 -2.112,0.648 -0.096,0.048 -0.216,0.168 -0.12,0.096 -0.192,0.192 l -0.072,0.096 q 0.072,0.024 0.168,0.048 0.48,0.048 0.792,0.456 0.336,0.408 0.336,0.936 0,0.576 -0.408,0.984 -0.384,0.384 -1.008,0.384 z"
       style="font-style:normal;font-variant:normal;font-weight:normal;font-stretch:normal;font-size:24px;font-family:KaTeX_Main;-inkscape-font-specification:'KaTeX_Main, Normal';font-variant-ligatures:normal;font-variant-caps:normal;font-variant-numeric:normal;font-feature-settings:normal;text-align:start;writing-mode:lr-tb;text-anchor:start;fill:#1fab54"
       id="path7438" /></g></svg>