<?xml version="1.0" encoding="UTF-8" standalone="no"?>
<!-- Generator: Adobe Illustrator 19.1.0, SVG Export Plug-In . SVG Version: 6.00 Build 0)  -->

<svg
   xmlns:dc="http://purl.org/dc/elements/1.1/"
   xmlns:cc="http://creativecommons.org/ns#"
   xmlns:rdf="http://www.w3.org/1999/02/22-rdf-syntax-ns#"
   xmlns:svg="http://www.w3.org/2000/svg"
   xmlns="http://www.w3.org/2000/svg"
   xmlns:sodipodi="http://sodipodi.sourceforge.net/DTD/sodipodi-0.dtd"
   xmlns:inkscape="http://www.inkscape.org/namespaces/inkscape"
   version="1.1"
   id="Layer_1"
   x="0px"
   y="0px"
   width="370.80356"
   height="228.392"
   viewBox="0 0 370.80356 228.392"
   xml:space="preserve"
   sodipodi:docname="equivalence5.svg"
   inkscape:version="0.92.2 5c3e80d, 2017-08-06"><metadata
     id="metadata199"><rdf:RDF><cc:Work
         rdf:about=""><dc:format>image/svg+xml</dc:format><dc:type
           rdf:resource="http://purl.org/dc/dcmitype/StillImage" /><dc:title></dc:title></cc:Work></rdf:RDF></metadata><defs
     id="defs197" /><sodipodi:namedview
     pagecolor="#ffffff"
     bordercolor="#666666"
     borderopacity="1"
     objecttolerance="10"
     gridtolerance="10"
     guidetolerance="10"
     inkscape:pageopacity="0"
     inkscape:pageshadow="2"
     inkscape:window-width="640"
     inkscape:window-height="480"
     id="namedview195"
     showgrid="false"
     fit-margin-top="10"
     fit-margin-right="10"
     fit-margin-bottom="10"
     fit-margin-left="10"
     inkscape:zoom="1.3932292"
     inkscape:cx="184"
     inkscape:cy="112"
     inkscape:current-layer="Layer_1" /><style
     type="text/css"
     id="style2">
	.st0{fill:none;stroke:#1FAB54;stroke-width:6;stroke-miterlimit:10;}
	.st1{fill:none;}
	.st2{fill:#E07D10;}
	.st3{fill:none;stroke:#ED5FA6;stroke-width:7;stroke-linecap:round;stroke-linejoin:round;stroke-miterlimit:10;}
	.st4{fill:none;stroke:#AA87FF;stroke-width:7;stroke-linecap:round;stroke-linejoin:round;stroke-miterlimit:10;}
	.st5{fill:none;stroke:#FF9C39;stroke-width:7;stroke-linecap:round;stroke-linejoin:round;stroke-miterlimit:10;}
	.st6{fill:#8AF281;stroke:#8AF281;stroke-linecap:round;stroke-linejoin:round;stroke-miterlimit:10;}
	.st7{fill:#FF9C39;stroke:#E07D10;stroke-linecap:round;stroke-linejoin:round;stroke-miterlimit:10;}
	.st8{fill:none;stroke:#8AF281;stroke-width:7;stroke-linecap:round;stroke-linejoin:round;stroke-miterlimit:10;}
	.st9{fill:#ED5FA6;stroke:#ED5FA6;stroke-width:7;stroke-linecap:round;stroke-linejoin:round;stroke-miterlimit:10;}
	.st10{fill:none;stroke:#1FAB54;stroke-width:7;stroke-linecap:round;stroke-linejoin:round;stroke-miterlimit:10;}
	.st11{fill:none;stroke:#1FAB54;stroke-width:6;stroke-linecap:round;stroke-linejoin:round;stroke-miterlimit:10;}
	.st12{fill:#FF9C39;stroke:#FF9C39;stroke-width:5;stroke-linecap:round;stroke-miterlimit:10;}
	.st13{fill:none;stroke:#1FAB54;stroke-width:4;stroke-miterlimit:10;}
	.st14{fill:none;stroke:#3C91E5;stroke-width:4;stroke-miterlimit:10;}
	.st15{fill:#FFFFFF;}
	.st16{fill:none;stroke:#11ACCD;stroke-width:5;stroke-linecap:round;stroke-miterlimit:10;}
	.st17{fill:#11ACCD;}
	.st18{fill:none;stroke:#FF9C39;stroke-width:4;stroke-miterlimit:10;}
	.st19{fill:none;stroke:#63D9EA;stroke-width:7;stroke-linecap:round;stroke-miterlimit:10;}
	.st20{fill:none;stroke:#63D9EA;stroke-width:8;stroke-linecap:round;stroke-miterlimit:10;}
	.st21{fill:none;stroke:#000000;stroke-linecap:round;stroke-linejoin:round;stroke-miterlimit:10;}
	.st22{fill:none;stroke:#000000;stroke-width:1.5;stroke-linecap:round;stroke-linejoin:round;stroke-miterlimit:10;}
	.st23{fill:none;stroke:#000000;stroke-linecap:round;stroke-miterlimit:10;}
	.st24{fill:none;stroke:#000000;stroke-width:1.5;stroke-linecap:round;stroke-miterlimit:10;}
	.st25{fill:none;stroke:#000000;stroke-width:2;stroke-linecap:round;stroke-linejoin:round;stroke-miterlimit:10;}
	.st26{fill:none;stroke:#000000;stroke-width:1.5;stroke-miterlimit:10;}
	.st27{fill:none;stroke:#000000;stroke-miterlimit:10;}
	.st28{fill:none;stroke:#000000;stroke-width:2;stroke-miterlimit:10;}
	.st29{fill:none;stroke:#000000;stroke-width:2;stroke-linecap:round;stroke-miterlimit:10;}
	.st30{fill:none;stroke:#FF9C39;stroke-width:6;stroke-miterlimit:10;}
	.st31{fill:none;stroke:#000000;stroke-linecap:round;stroke-linejoin:round;}
	.st32{stroke:#000000;stroke-linecap:round;stroke-linejoin:round;stroke-miterlimit:10;}
	.st33{fill:none;stroke:#000000;stroke-width:1.5;stroke-linejoin:round;stroke-miterlimit:10;}
	.st34{fill:none;stroke:#000000;stroke-linejoin:round;stroke-miterlimit:10;}
	.st35{clip-path:url(#SVGID_2_);fill:none;stroke:#000000;stroke-linejoin:round;stroke-miterlimit:10;}
	.st36{clip-path:url(#SVGID_2_);fill:none;stroke:#ADADEB;stroke-linejoin:round;stroke-miterlimit:10;}
	.st37{clip-path:url(#SVGID_2_);}
	.st38{stroke:#000000;stroke-linejoin:round;stroke-miterlimit:10;}
	.st39{stroke:#000000;stroke-width:3;stroke-linejoin:round;stroke-miterlimit:10;}
	.st40{fill:none;stroke:#000000;stroke-width:2;stroke-linejoin:round;stroke-miterlimit:10;}
	.st41{fill:none;stroke:#E84D39;stroke-width:3;stroke-linecap:round;stroke-linejoin:round;}
	.st42{fill:#E84D39;}
	.st43{fill:none;stroke:#11ACCD;stroke-width:2;stroke-linecap:round;stroke-linejoin:round;}
	.st44{fill:none;stroke:#F9685D;stroke-width:2;stroke-linecap:round;stroke-linejoin:round;}
	.st45{fill:#F9685D;}
	.st46{fill:#11ACCD;stroke:#000000;stroke-linecap:round;stroke-miterlimit:10;}
	.st47{stroke:#000000;stroke-linecap:round;stroke-miterlimit:10;}
	.st48{fill:#FFFF00;stroke:#000000;stroke-linecap:round;stroke-miterlimit:10;}
	.st49{fill:#F9685D;stroke:#000000;stroke-linecap:round;stroke-miterlimit:10;}
	.st50{fill:#D6D8DA;stroke:#000000;stroke-linecap:round;stroke-miterlimit:10;}
	.st51{fill:none;stroke:#FF9C39;stroke-width:5;stroke-linecap:round;stroke-linejoin:round;stroke-miterlimit:10;}
	.st52{fill:#FF9C39;}
	.st53{fill:#AA87FF;}
	.st54{fill:#ED5FA6;}
	.st55{fill:#1FAB54;}
	.st56{fill:none;stroke:#000000;stroke-width:4;stroke-linecap:round;stroke-linejoin:round;stroke-miterlimit:10;}
	.st57{stroke:#000000;stroke-miterlimit:10;}
	.st58{stroke:#000000;stroke-width:2;stroke-linecap:round;stroke-linejoin:round;stroke-miterlimit:10;}
	.st59{fill:none;stroke:#000000;stroke-width:3;stroke-linecap:round;stroke-linejoin:round;stroke-miterlimit:10;}
	.st60{fill:none;stroke:#000000;stroke-linejoin:round;}
	.st61{fill:none;stroke:#000000;stroke-width:7;stroke-linecap:round;stroke-linejoin:round;stroke-miterlimit:10;}
	.st62{fill:none;stroke:#11ACCD;stroke-width:3;stroke-linecap:round;stroke-linejoin:round;}
	.st63{fill:none;stroke:#11ACCD;stroke-width:2;stroke-linecap:round;stroke-miterlimit:10;}
	.st64{fill:none;stroke:#E07D10;stroke-width:2;stroke-linecap:round;stroke-miterlimit:10;}
	.st65{fill:none;stroke:#11ACCD;stroke-width:2;stroke-miterlimit:10;}
	.st66{fill:none;stroke:#000000;stroke-width:3;stroke-linecap:square;stroke-miterlimit:10;}
	.st67{fill:#BE2612;}
	.st68{fill:none;stroke:#BE2612;stroke-width:2;stroke-linecap:round;stroke-linejoin:round;}
	.st69{fill:none;stroke:#21242C;stroke-linecap:round;stroke-linejoin:round;stroke-miterlimit:10;}
	.st70{fill:none;stroke:#11ACCD;stroke-width:3;stroke-linecap:round;stroke-miterlimit:10;}
	.st71{fill:#FFFFFF;stroke:#000000;stroke-miterlimit:10;}
	.st72{fill:none;stroke:#3C91E5;stroke-width:6;stroke-miterlimit:10;}
	.st73{font-family:'KaTeX_Main-Italic';}
	.st74{font-size:21px;}
	.st75{font-family:'KaTeX_Main-Regular';}
</style><g
     id="g16"
     transform="translate(-0.44094,2.3919998)"><circle
       class="st28"
       cx="204"
       cy="126"
       r="18"
       id="circle4"
       style="fill:none;stroke:#000000;stroke-width:2;stroke-miterlimit:10" /><polyline
       class="st23"
       points="204,108 204,84 204,42 324,42  "
       id="polyline6"
       style="fill:none;stroke:#000000;stroke-linecap:round;stroke-miterlimit:10" /><polyline
       class="st21"
       points="324,210 204,210 204,168 204,144  "
       id="polyline8"
       style="fill:none;stroke:#000000;stroke-linecap:round;stroke-linejoin:round;stroke-miterlimit:10" /><line
       class="st26"
       x1="204"
       y1="112.5"
       x2="204"
       y2="124.5"
       id="line10"
       style="fill:none;stroke:#000000;stroke-width:1.5;stroke-miterlimit:10" /><line
       class="st26"
       x1="198"
       y1="118.5"
       x2="210"
       y2="118.5"
       id="line12"
       style="fill:none;stroke:#000000;stroke-width:1.5;stroke-miterlimit:10" /><line
       class="st26"
       x1="198"
       y1="136.5"
       x2="210"
       y2="136.5"
       id="line14"
       style="fill:none;stroke:#000000;stroke-width:1.5;stroke-miterlimit:10" /></g><g
     id="g30"
     transform="translate(-8,2.3919998)"><circle
       class="st28"
       cx="42"
       cy="168"
       r="18"
       id="circle18"
       style="fill:none;stroke:#000000;stroke-width:2;stroke-miterlimit:10" /><polyline
       class="st23"
       points="144,42 144,210 42,210 42,186  "
       id="polyline20"
       style="fill:none;stroke:#000000;stroke-linecap:round;stroke-miterlimit:10" /><line
       class="st21"
       x1="42"
       y1="150"
       x2="42"
       y2="126"
       id="line22"
       style="fill:none;stroke:#000000;stroke-linecap:round;stroke-linejoin:round;stroke-miterlimit:10" /><line
       class="st26"
       x1="42"
       y1="181.5"
       x2="42"
       y2="169.5"
       id="line24"
       style="fill:none;stroke:#000000;stroke-width:1.5;stroke-miterlimit:10" /><line
       class="st26"
       x1="48"
       y1="175.5"
       x2="36"
       y2="175.5"
       id="line26"
       style="fill:none;stroke:#000000;stroke-width:1.5;stroke-miterlimit:10" /><line
       class="st26"
       x1="48"
       y1="157.5"
       x2="36"
       y2="157.5"
       id="line28"
       style="fill:none;stroke:#000000;stroke-width:1.5;stroke-miterlimit:10" /></g><g
     id="g40"
     transform="translate(-8,2.3919998)"><line
       class="st21"
       x1="125.4"
       y1="42"
       x2="144"
       y2="42"
       id="line32"
       style="fill:none;stroke:#000000;stroke-linecap:round;stroke-linejoin:round;stroke-miterlimit:10" /><polyline
       class="st25"
       points="78.6,42 82.5,33 90.3,51 98.1,33 105.9,51 113.7,33 121.5,51 125.4,42  "
       id="polyline34"
       style="fill:none;stroke:#000000;stroke-width:2;stroke-linecap:round;stroke-linejoin:round;stroke-miterlimit:10" /><line
       class="st21"
       x1="60"
       y1="42"
       x2="78.599998"
       y2="42"
       id="line36"
       style="fill:none;stroke:#000000;stroke-linecap:round;stroke-linejoin:round;stroke-miterlimit:10" /><rect
       x="60"
       y="30"
       class="st1"
       width="84"
       height="24"
       id="rect38"
       style="fill:none" /></g><g
     id="g50"
     transform="translate(-8,2.3919998)"><line
       class="st21"
       x1="125.4"
       y1="126"
       x2="144"
       y2="126"
       id="line42"
       style="fill:none;stroke:#000000;stroke-linecap:round;stroke-linejoin:round;stroke-miterlimit:10" /><polyline
       class="st25"
       points="78.6,126 82.5,117 90.3,135 98.1,117 105.9,135 113.7,117 121.5,135 125.4,126  "
       id="polyline44"
       style="fill:none;stroke:#000000;stroke-width:2;stroke-linecap:round;stroke-linejoin:round;stroke-miterlimit:10" /><line
       class="st21"
       x1="60"
       y1="126"
       x2="78.599998"
       y2="126"
       id="line46"
       style="fill:none;stroke:#000000;stroke-linecap:round;stroke-linejoin:round;stroke-miterlimit:10" /><rect
       x="60"
       y="114"
       class="st1"
       width="84"
       height="24"
       id="rect48"
       style="fill:none" /></g><g
     id="g56"
     transform="translate(-8,2.3919998)"><circle
       class="st27"
       cx="24"
       cy="42"
       r="3"
       id="circle52"
       style="fill:none;stroke:#000000;stroke-miterlimit:10" /><rect
       x="18"
       y="36"
       class="st1"
       width="12"
       height="12"
       id="rect54"
       style="fill:none" /></g><g
     id="g62"
     transform="translate(-8,2.3919998)"><circle
       class="st27"
       cx="24"
       cy="126"
       r="3"
       id="circle58"
       style="fill:none;stroke:#000000;stroke-miterlimit:10" /><rect
       x="18"
       y="120"
       class="st1"
       width="12"
       height="12"
       id="rect60"
       style="fill:none" /></g><g
     id="g68"
     transform="translate(-0.44094,2.3919998)"><circle
       class="st27"
       cx="354"
       cy="210"
       r="3"
       id="circle64"
       style="fill:none;stroke:#000000;stroke-miterlimit:10" /><rect
       x="348"
       y="204"
       class="st1"
       width="12"
       height="12"
       id="rect66"
       style="fill:none" /></g><g
     id="g74"
     transform="translate(-0.44094,2.3919998)"><circle
       class="st27"
       cx="354"
       cy="126"
       r="3"
       id="circle70"
       style="fill:none;stroke:#000000;stroke-miterlimit:10" /><rect
       x="348"
       y="120"
       class="st1"
       width="12"
       height="12"
       id="rect72"
       style="fill:none" /></g><g
     id="g80"
     transform="translate(-0.44094,2.3919998)"><circle
       class="st32"
       cx="264"
       cy="42"
       r="1.5"
       id="circle76"
       style="stroke:#000000;stroke-linecap:round;stroke-linejoin:round;stroke-miterlimit:10" /><rect
       x="258"
       y="36"
       class="st1"
       width="12"
       height="12"
       id="rect78"
       style="fill:none" /></g><g
     id="g86"
     transform="translate(-0.44094,2.3919998)"><circle
       class="st32"
       cx="324"
       cy="126"
       r="1.5"
       id="circle82"
       style="stroke:#000000;stroke-linecap:round;stroke-linejoin:round;stroke-miterlimit:10" /><rect
       x="318"
       y="120"
       class="st1"
       width="12"
       height="12"
       id="rect84"
       style="fill:none" /></g><g
     id="g92"
     transform="translate(-0.44094,2.3919998)"><circle
       class="st32"
       cx="324"
       cy="210"
       r="1.5"
       id="circle88"
       style="stroke:#000000;stroke-linecap:round;stroke-linejoin:round;stroke-miterlimit:10" /><rect
       x="318"
       y="204"
       class="st1"
       width="12"
       height="12"
       id="rect90"
       style="fill:none" /></g><g
     id="g98"
     transform="translate(-0.44094,2.3919998)"><circle
       class="st32"
       cx="264"
       cy="210"
       r="1.5"
       id="circle94"
       style="stroke:#000000;stroke-linecap:round;stroke-linejoin:round;stroke-miterlimit:10" /><rect
       x="258"
       y="204"
       class="st1"
       width="12"
       height="12"
       id="rect96"
       style="fill:none" /></g><g
     id="g104"
     transform="translate(-8,2.3919998)"><circle
       class="st32"
       cx="42"
       cy="126"
       r="1.5"
       id="circle100"
       style="stroke:#000000;stroke-linecap:round;stroke-linejoin:round;stroke-miterlimit:10" /><rect
       x="36"
       y="120"
       class="st1"
       width="12"
       height="12"
       id="rect102"
       style="fill:none" /></g><g
     id="g110"
     transform="translate(-8,2.3919998)"><circle
       class="st32"
       cx="42"
       cy="42"
       r="1.5"
       id="circle106"
       style="stroke:#000000;stroke-linecap:round;stroke-linejoin:round;stroke-miterlimit:10" /><rect
       x="36"
       y="36"
       class="st1"
       width="12"
       height="12"
       id="rect108"
       style="fill:none" /></g><g
     id="g116"
     transform="translate(-8,2.3919998)"><circle
       class="st32"
       cx="144"
       cy="126"
       r="1.5"
       id="circle112"
       style="stroke:#000000;stroke-linecap:round;stroke-linejoin:round;stroke-miterlimit:10" /><rect
       x="138"
       y="120"
       class="st1"
       width="12"
       height="12"
       id="rect114"
       style="fill:none" /></g><g
     id="g126"
     transform="translate(-8,2.3919998)"><line
       class="st21"
       x1="42"
       y1="60.599998"
       x2="42"
       y2="42"
       id="line118"
       style="fill:none;stroke:#000000;stroke-linecap:round;stroke-linejoin:round;stroke-miterlimit:10" /><polyline
       class="st25"
       points="42,107.4 33,103.5 51,95.7 33,87.9 51,80.1 33,72.3 51,64.5 42,60.6  "
       id="polyline120"
       style="fill:none;stroke:#000000;stroke-width:2;stroke-linecap:round;stroke-linejoin:round;stroke-miterlimit:10" /><line
       class="st21"
       x1="42"
       y1="126"
       x2="42"
       y2="107.4"
       id="line122"
       style="fill:none;stroke:#000000;stroke-linecap:round;stroke-linejoin:round;stroke-miterlimit:10" /><rect
       x="30"
       y="42"
       class="st1"
       width="24"
       height="84"
       id="rect124"
       style="fill:none" /></g><g
     id="g136"
     transform="translate(-0.44094,2.3919998)"><line
       class="st21"
       x1="264"
       y1="102.6"
       x2="264"
       y2="84"
       id="line128"
       style="fill:none;stroke:#000000;stroke-linecap:round;stroke-linejoin:round;stroke-miterlimit:10" /><polyline
       class="st25"
       points="264,149.4 255,145.5 273,137.7 255,129.9 273,122.1 255,114.3 273,106.5 264,102.6  "
       id="polyline130"
       style="fill:none;stroke:#000000;stroke-width:2;stroke-linecap:round;stroke-linejoin:round;stroke-miterlimit:10" /><line
       class="st21"
       x1="264"
       y1="168"
       x2="264"
       y2="149.39999"
       id="line132"
       style="fill:none;stroke:#000000;stroke-linecap:round;stroke-linejoin:round;stroke-miterlimit:10" /><rect
       x="252"
       y="84"
       class="st1"
       width="24"
       height="84"
       id="rect134"
       style="fill:none" /></g><g
     id="g146"
     transform="translate(-0.44094,2.3919998)"><line
       class="st21"
       x1="324"
       y1="60.599998"
       x2="324"
       y2="42"
       id="line138"
       style="fill:none;stroke:#000000;stroke-linecap:round;stroke-linejoin:round;stroke-miterlimit:10" /><polyline
       class="st25"
       points="324,107.4 315,103.5 333,95.7 315,87.9 333,80.1 315,72.3 333,64.5 324,60.6  "
       id="polyline140"
       style="fill:none;stroke:#000000;stroke-width:2;stroke-linecap:round;stroke-linejoin:round;stroke-miterlimit:10" /><line
       class="st21"
       x1="324"
       y1="126"
       x2="324"
       y2="107.4"
       id="line142"
       style="fill:none;stroke:#000000;stroke-linecap:round;stroke-linejoin:round;stroke-miterlimit:10" /><rect
       x="312"
       y="42"
       class="st1"
       width="24"
       height="84"
       id="rect144"
       style="fill:none" /></g><g
     id="g156"
     transform="translate(-0.44094,2.3919998)"><line
       class="st21"
       x1="324"
       y1="144.60001"
       x2="324"
       y2="126"
       id="line148"
       style="fill:none;stroke:#000000;stroke-linecap:round;stroke-linejoin:round;stroke-miterlimit:10" /><polyline
       class="st25"
       points="324,191.4 315,187.5 333,179.7 315,171.9 333,164.1 315,156.3 333,148.5 324,144.6  "
       id="polyline150"
       style="fill:none;stroke:#000000;stroke-width:2;stroke-linecap:round;stroke-linejoin:round;stroke-miterlimit:10" /><line
       class="st21"
       x1="324"
       y1="210"
       x2="324"
       y2="191.39999"
       id="line152"
       style="fill:none;stroke:#000000;stroke-linecap:round;stroke-linejoin:round;stroke-miterlimit:10" /><rect
       x="312"
       y="126"
       class="st1"
       width="24"
       height="84"
       id="rect154"
       style="fill:none" /></g><line
     class="st27"
     x1="19.000008"
     y1="44.391998"
     x2="52.000008"
     y2="44.391998"
     id="line158"
     style="fill:none;stroke:#000000;stroke-miterlimit:10" /><line
     class="st23"
     x1="52.000008"
     y1="128.392"
     x2="19.000008"
     y2="128.392"
     id="line160"
     style="fill:none;stroke:#000000;stroke-linecap:round;stroke-miterlimit:10" /><line
     class="st23"
     x1="263.55908"
     y1="86.391998"
     x2="263.55908"
     y2="44.391998"
     id="line162"
     style="fill:none;stroke:#000000;stroke-linecap:round;stroke-miterlimit:10" /><line
     class="st21"
     x1="263.55908"
     y1="170.392"
     x2="263.55908"
     y2="212.392"
     id="line164"
     style="fill:none;stroke:#000000;stroke-linecap:round;stroke-linejoin:round;stroke-miterlimit:10" /><line
     class="st21"
     x1="323.55908"
     y1="212.392"
     x2="350.55908"
     y2="212.392"
     id="line166"
     style="fill:none;stroke:#000000;stroke-linecap:round;stroke-linejoin:round;stroke-miterlimit:10" /><line
     class="st21"
     x1="323.55908"
     y1="128.392"
     x2="350.55908"
     y2="128.392"
     id="line168"
     style="fill:none;stroke:#000000;stroke-linecap:round;stroke-linejoin:round;stroke-miterlimit:10" /><g
     aria-label="R"
     style="font-style:normal;font-variant:normal;font-weight:normal;font-stretch:normal;font-size:24px;font-family:KaTeX_Main;-inkscape-font-specification:'KaTeX_Main, Normal';font-variant-ligatures:normal;font-variant-caps:normal;font-variant-numeric:normal;font-feature-settings:normal;text-align:start;writing-mode:lr-tb;text-anchor:start"
     id="text170"><path
       d="m 55.120008,77.463998 q -0.24,-0.24 -0.48,-0.288 -0.216,-0.048 -1.2,-0.072 h -0.792 v -1.104 h 4.2 q 4.464,0.024 4.92,0.096 0.072,0.024 0.312,0.072 1.08,0.216 1.92,0.672 2.28,1.152 2.616,3.144 0.024,0.12 0.024,0.384 0,1.344 -1.032,2.352 -1.008,1.008 -2.4,1.464 -0.048,0.024 -0.12,0.048 -0.048,0 -0.096,0.024 l -0.048,0.024 q 0.072,0.072 0.264,0.144 1.728,0.96 2.136,2.544 0.024,0.096 0.264,1.584 0.24,1.488 0.264,1.584 0.168,0.864 0.408,1.272 0.264,0.408 0.672,0.552 0.096,0.048 0.408,0.048 h 0.12 q 0.312,0 0.576,-0.264 0.48,-0.48 0.552,-1.44 0,-0.264 0.072,-0.336 0.096,-0.096 0.408,-0.096 0.288,0 0.384,0.072 0.096,0.048 0.096,0.288 0,0.864 -0.432,1.584 -0.408,0.696 -1.008,0.96 -0.384,0.144 -1.008,0.144 -3.576,-0.144 -4.128,-2.688 -0.048,-0.264 -0.072,-1.752 0,-1.488 -0.144,-1.992 -0.216,-0.648 -0.72,-1.104 -0.48,-0.48 -1.104,-0.672 l -0.24,-0.048 -1.584,-0.024 h -1.584 v 3.144 l 0.024,3.144 q 0.168,0.24 0.408,0.288 0.264,0.048 1.248,0.072 h 0.792 v 1.104 h -0.264 q -0.384,-0.072 -3.408,-0.072 -3.048,0 -3.432,0.072 h -0.264 v -1.104 h 0.792 q 0.984,-0.024 1.2,-0.072 0.24,-0.048 0.48,-0.288 z m 8.64,1.992 q -0.24,-1.44 -1.296,-1.896 -1.032,-0.456 -3.168,-0.456 -0.36,0 -0.816,0.024 -0.456,0 -0.48,0 -0.312,0.024 -0.384,0.192 -0.072,0.096 -0.072,3.264 v 3.168 h 1.392 q 1.8,0 2.664,-0.144 0.864,-0.168 1.512,-0.816 0.408,-0.408 0.528,-0.912 0.144,-0.504 0.144,-1.464 0,-0.768 -0.024,-0.96 z"
       style="font-style:normal;font-variant:normal;font-weight:normal;font-stretch:normal;font-size:24px;font-family:KaTeX_Main;-inkscape-font-specification:'KaTeX_Main, Normal';font-variant-ligatures:normal;font-variant-caps:normal;font-variant-numeric:normal;font-feature-settings:normal;text-align:start;writing-mode:lr-tb;text-anchor:start"
       id="path1039" /></g><g
     aria-label="1"
     style="font-style:normal;font-variant:normal;font-weight:normal;font-stretch:normal;font-size:17.33333397px;font-family:KaTeX_Main;-inkscape-font-specification:'KaTeX_Main, Normal';font-variant-ligatures:normal;font-variant-caps:normal;font-variant-numeric:normal;font-feature-settings:normal;text-align:start;writing-mode:lr-tb;text-anchor:start;stroke-width:0.583"
     id="text172"><path
       d="m 76.672543,99.385201 q -0.294667,-0.052 -2.756,-0.052 -2.426667,0 -2.721334,0.052 h -0.208 v -0.797334 h 0.450667 q 1.005333,0 1.3,-0.052 0.138667,-0.01733 0.416,-0.208 v -8.961334 q -0.03467,0 -0.138667,0.052 -0.797333,0.312 -1.785333,0.329334 h -0.329333 v -0.797334 h 0.329333 q 1.456,-0.052 2.426667,-0.658666 0.312,-0.173334 0.537333,-0.398667 0.03467,-0.052 0.208,-0.052 0.173333,0 0.294667,0.104 v 5.182667 l 0.01733,5.2 q 0.26,0.26 1.126667,0.26 h 0.572 0.450667 v 0.797334 z"
       style="font-style:normal;font-variant:normal;font-weight:normal;font-stretch:normal;font-size:17.33333397px;font-family:KaTeX_Main;-inkscape-font-specification:'KaTeX_Main, Normal';font-variant-ligatures:normal;font-variant-caps:normal;font-variant-numeric:normal;font-feature-settings:normal;text-align:start;writing-mode:lr-tb;text-anchor:start;stroke-width:0.583"
       id="path1036" /></g><g
     aria-label="R"
     style="font-style:normal;font-variant:normal;font-weight:normal;font-stretch:normal;font-size:24px;font-family:KaTeX_Main;-inkscape-font-specification:'KaTeX_Main, Normal';font-variant-ligatures:normal;font-variant-caps:normal;font-variant-numeric:normal;font-feature-settings:normal;text-align:start;writing-mode:lr-tb;text-anchor:start"
     id="text174"><path
       d="m 338.67908,161.464 q -0.24,-0.24 -0.48,-0.288 -0.216,-0.048 -1.2,-0.072 h -0.792 V 160 h 4.2 q 4.464,0.024 4.92,0.096 0.072,0.024 0.312,0.072 1.08,0.216 1.92,0.672 2.28,1.152 2.616,3.144 0.024,0.12 0.024,0.384 0,1.344 -1.032,2.352 -1.008,1.008 -2.4,1.464 -0.048,0.024 -0.12,0.048 -0.048,0 -0.096,0.024 l -0.048,0.024 q 0.072,0.072 0.264,0.144 1.728,0.96 2.136,2.544 0.024,0.096 0.264,1.584 0.24,1.488 0.264,1.584 0.168,0.864 0.408,1.272 0.264,0.408 0.672,0.552 0.096,0.048 0.408,0.048 h 0.12 q 0.312,0 0.576,-0.264 0.48,-0.48 0.552,-1.44 0,-0.264 0.072,-0.336 0.096,-0.096 0.408,-0.096 0.288,0 0.384,0.072 0.096,0.048 0.096,0.288 0,0.864 -0.432,1.584 -0.408,0.696 -1.008,0.96 -0.384,0.144 -1.008,0.144 -3.576,-0.144 -4.128,-2.688 -0.048,-0.264 -0.072,-1.752 0,-1.488 -0.144,-1.992 -0.216,-0.648 -0.72,-1.104 -0.48,-0.48 -1.104,-0.672 l -0.24,-0.048 -1.584,-0.024 h -1.584 v 3.144 l 0.024,3.144 q 0.168,0.24 0.408,0.288 0.264,0.048 1.248,0.072 h 0.792 v 1.104 h -0.264 q -0.384,-0.072 -3.408,-0.072 -3.048,0 -3.432,0.072 h -0.264 v -1.104 h 0.792 q 0.984,-0.024 1.2,-0.072 0.24,-0.048 0.48,-0.288 z m 8.64,1.992 q -0.24,-1.44 -1.296,-1.896 -1.032,-0.456 -3.168,-0.456 -0.36,0 -0.816,0.024 -0.456,0 -0.48,0 -0.312,0.024 -0.384,0.192 -0.072,0.096 -0.072,3.264 v 3.168 h 1.392 q 1.8,0 2.664,-0.144 0.864,-0.168 1.512,-0.816 0.408,-0.408 0.528,-0.912 0.144,-0.504 0.144,-1.464 0,-0.768 -0.024,-0.96 z"
       style="font-style:normal;font-variant:normal;font-weight:normal;font-stretch:normal;font-size:24px;font-family:KaTeX_Main;-inkscape-font-specification:'KaTeX_Main, Normal';font-variant-ligatures:normal;font-variant-caps:normal;font-variant-numeric:normal;font-feature-settings:normal;text-align:start;writing-mode:lr-tb;text-anchor:start"
       id="path1033" /></g><g
     aria-label="1"
     style="font-style:normal;font-variant:normal;font-weight:normal;font-stretch:normal;font-size:17.33333397px;font-family:KaTeX_Main;-inkscape-font-specification:'KaTeX_Main, Normal';font-variant-ligatures:normal;font-variant-caps:normal;font-variant-numeric:normal;font-feature-settings:normal;text-align:start;writing-mode:lr-tb;text-anchor:start;stroke-width:0.583"
     id="text176"><path
       d="m 360.23157,183.38519 q -0.29467,-0.052 -2.756,-0.052 -2.42667,0 -2.72133,0.052 h -0.208 v -0.79733 h 0.45066 q 1.00534,0 1.3,-0.052 0.13867,-0.0173 0.416,-0.208 v -8.96133 q -0.0347,0 -0.13866,0.052 -0.79734,0.312 -1.78534,0.32933 h -0.32933 v -0.79733 h 0.32933 q 1.456,-0.052 2.42667,-0.65867 0.312,-0.17333 0.53733,-0.39867 0.0347,-0.052 0.208,-0.052 0.17334,0 0.29467,0.104 v 5.18267 l 0.0173,5.2 q 0.26,0.26 1.12667,0.26 h 0.572 0.45067 v 0.79733 z"
       style="font-style:normal;font-variant:normal;font-weight:normal;font-stretch:normal;font-size:17.33333397px;font-family:KaTeX_Main;-inkscape-font-specification:'KaTeX_Main, Normal';font-variant-ligatures:normal;font-variant-caps:normal;font-variant-numeric:normal;font-feature-settings:normal;text-align:start;writing-mode:lr-tb;text-anchor:start;stroke-width:0.583"
       id="path1030" /></g><g
     aria-label="R"
     style="font-style:normal;font-variant:normal;font-weight:normal;font-stretch:normal;font-size:24px;font-family:KaTeX_Main;-inkscape-font-specification:'KaTeX_Main, Normal';font-variant-ligatures:normal;font-variant-caps:normal;font-variant-numeric:normal;font-feature-settings:normal;text-align:start;writing-mode:lr-tb;text-anchor:start"
     id="text178"><path
       d="m 85.120008,11.464 q -0.24,-0.24 -0.48,-0.288 -0.216,-0.048 -1.2,-0.072 h -0.792 V 10 h 4.2 q 4.464,0.024 4.92,0.096 0.072,0.024 0.312,0.072 1.08,0.216 1.92,0.672 2.28,1.152 2.616,3.144 0.024,0.12 0.024,0.384 0,1.344 -1.032,2.352 -1.008,1.008 -2.4,1.464 -0.048,0.024 -0.12,0.048 -0.048,0 -0.096,0.024 l -0.048,0.024 q 0.072,0.072 0.264,0.144 1.728,0.96 2.136,2.544 0.024,0.096 0.264,1.584 0.24,1.488 0.264,1.584 0.168,0.864 0.408,1.272 0.264,0.408 0.672,0.552 0.096,0.048 0.408,0.048 h 0.12 q 0.312,0 0.576,-0.264 0.48,-0.48 0.552,-1.44 0,-0.264 0.072,-0.336 0.096,-0.096 0.408,-0.096 0.288,0 0.384,0.072 0.096,0.048 0.096,0.288 0,0.864 -0.432,1.584 -0.408,0.696 -1.008,0.96 -0.384,0.144 -1.008,0.144 -3.576,-0.144 -4.128,-2.688 -0.048,-0.264 -0.072,-1.752 0,-1.488 -0.144,-1.992 -0.216,-0.648 -0.72,-1.104 -0.48,-0.48 -1.104,-0.672 l -0.24,-0.048 -1.584,-0.024 h -1.584 v 3.144 l 0.024,3.144 q 0.168,0.24 0.408,0.288 0.264,0.048 1.248,0.072 h 0.792 v 1.104 h -0.264 q -0.384,-0.072 -3.408,-0.072 -3.048,0 -3.432,0.072 h -0.264 v -1.104 h 0.792 q 0.984,-0.024 1.2,-0.072 0.24,-0.048 0.48,-0.288 z m 8.64,1.992 q -0.24,-1.44 -1.296,-1.896 -1.032,-0.456 -3.168,-0.456 -0.36,0 -0.816,0.024 -0.456,0 -0.48,0 -0.312,0.024 -0.384,0.192 -0.072,0.096 -0.072,3.264 v 3.168 h 1.392 q 1.8,0 2.664,-0.144 0.864,-0.168 1.512,-0.816 0.408,-0.408 0.528,-0.912 0.144,-0.504 0.144,-1.464 0,-0.768 -0.024,-0.96 z"
       style="font-style:normal;font-variant:normal;font-weight:normal;font-stretch:normal;font-size:24px;font-family:KaTeX_Main;-inkscape-font-specification:'KaTeX_Main, Normal';font-variant-ligatures:normal;font-variant-caps:normal;font-variant-numeric:normal;font-feature-settings:normal;text-align:start;writing-mode:lr-tb;text-anchor:start"
       id="path1027" /></g><g
     aria-label="2"
     style="font-style:normal;font-variant:normal;font-weight:normal;font-stretch:normal;font-size:17.33333397px;font-family:KaTeX_Main;-inkscape-font-specification:'KaTeX_Main, Normal';font-variant-ligatures:normal;font-variant-caps:normal;font-variant-numeric:normal;font-feature-settings:normal;text-align:start;writing-mode:lr-tb;text-anchor:start;stroke-width:0.583"
     id="text180"><path
       d="m 101.36854,25.9492 q -0.48533,0 -0.76266,-0.312 -0.27734,-0.312 -0.27734,-0.762666 0,-1.248001 0.936,-2.132001 0.95334,-0.901333 2.27067,-0.901333 1.49067,0 2.46133,0.814667 0.988,0.797333 1.21334,2.097333 0.0347,0.312 0.0347,0.572 0,1.005334 -0.60666,1.889334 -0.48534,0.728 -1.95867,1.993333 -0.624,0.537333 -1.73333,1.594667 l -1.02267,0.970666 1.31733,0.01733 q 2.72134,0 2.89467,-0.08667 0.0693,-0.01733 0.17333,-0.364 0.0693,-0.190667 0.24267,-1.178667 v -0.052 h 0.69333 v 0.052 l -0.48533,3.172 v 0.052 h -6.43067 v -0.329334 q 0,-0.346667 0.0347,-0.398667 0.0173,-0.01733 1.456,-1.646666 1.88933,-2.097334 2.42667,-2.773334 1.16133,-1.577333 1.16133,-2.894666 0,-1.144001 -0.60667,-1.906667 -0.58933,-0.78 -1.664,-0.78 -1.00533,0 -1.62933,0.901333 -0.0347,0.06933 -0.104,0.190667 -0.052,0.08667 -0.052,0.104 0,0.01733 0.0867,0.01733 0.43333,0 0.69333,0.312 0.27733,0.312 0.27733,0.728 0,0.433334 -0.29466,0.745334 -0.27734,0.294666 -0.74534,0.294666 z"
       style="font-style:normal;font-variant:normal;font-weight:normal;font-stretch:normal;font-size:17.33333397px;font-family:KaTeX_Main;-inkscape-font-specification:'KaTeX_Main, Normal';font-variant-ligatures:normal;font-variant-caps:normal;font-variant-numeric:normal;font-feature-settings:normal;text-align:start;writing-mode:lr-tb;text-anchor:start;stroke-width:0.583"
       id="path1024" /></g><g
     aria-label="R"
     style="font-style:normal;font-variant:normal;font-weight:normal;font-stretch:normal;font-size:24px;font-family:KaTeX_Main;-inkscape-font-specification:'KaTeX_Main, Normal';font-variant-ligatures:normal;font-variant-caps:normal;font-variant-numeric:normal;font-feature-settings:normal;text-align:start;writing-mode:lr-tb;text-anchor:start"
     id="text182"><path
       d="m 338.67908,77.463998 q -0.24,-0.24 -0.48,-0.288 -0.216,-0.048 -1.2,-0.072 h -0.792 v -1.104 h 4.2 q 4.464,0.024 4.92,0.096 0.072,0.024 0.312,0.072 1.08,0.216 1.92,0.672 2.28,1.152 2.616,3.144 0.024,0.12 0.024,0.384 0,1.344 -1.032,2.352 -1.008,1.008 -2.4,1.464 -0.048,0.024 -0.12,0.048 -0.048,0 -0.096,0.024 l -0.048,0.024 q 0.072,0.072 0.264,0.144 1.728,0.96 2.136,2.544 0.024,0.096 0.264,1.584 0.24,1.488 0.264,1.584 0.168,0.864 0.408,1.272 0.264,0.408 0.672,0.552 0.096,0.048 0.408,0.048 h 0.12 q 0.312,0 0.576,-0.264 0.48,-0.48 0.552,-1.44 0,-0.264 0.072,-0.336 0.096,-0.096 0.408,-0.096 0.288,0 0.384,0.072 0.096,0.048 0.096,0.288 0,0.864 -0.432,1.584 -0.408,0.696 -1.008,0.96 -0.384,0.144 -1.008,0.144 -3.576,-0.144 -4.128,-2.688 -0.048,-0.264 -0.072,-1.752 0,-1.488 -0.144,-1.992 -0.216,-0.648 -0.72,-1.104 -0.48,-0.48 -1.104,-0.672 l -0.24,-0.048 -1.584,-0.024 h -1.584 v 3.144 l 0.024,3.144 q 0.168,0.24 0.408,0.288 0.264,0.048 1.248,0.072 h 0.792 v 1.104 h -0.264 q -0.384,-0.072 -3.408,-0.072 -3.048,0 -3.432,0.072 h -0.264 v -1.104 h 0.792 q 0.984,-0.024 1.2,-0.072 0.24,-0.048 0.48,-0.288 z m 8.64,1.992 q -0.24,-1.44 -1.296,-1.896 -1.032,-0.456 -3.168,-0.456 -0.36,0 -0.816,0.024 -0.456,0 -0.48,0 -0.312,0.024 -0.384,0.192 -0.072,0.096 -0.072,3.264 v 3.168 h 1.392 q 1.8,0 2.664,-0.144 0.864,-0.168 1.512,-0.816 0.408,-0.408 0.528,-0.912 0.144,-0.504 0.144,-1.464 0,-0.768 -0.024,-0.96 z"
       style="font-style:normal;font-variant:normal;font-weight:normal;font-stretch:normal;font-size:24px;font-family:KaTeX_Main;-inkscape-font-specification:'KaTeX_Main, Normal';font-variant-ligatures:normal;font-variant-caps:normal;font-variant-numeric:normal;font-feature-settings:normal;text-align:start;writing-mode:lr-tb;text-anchor:start"
       id="path1021" /></g><g
     aria-label="2"
     style="font-style:normal;font-variant:normal;font-weight:normal;font-stretch:normal;font-size:17.33333397px;font-family:KaTeX_Main;-inkscape-font-specification:'KaTeX_Main, Normal';font-variant-ligatures:normal;font-variant-caps:normal;font-variant-numeric:normal;font-feature-settings:normal;text-align:start;writing-mode:lr-tb;text-anchor:start;stroke-width:0.583"
     id="text184"><path
       d="m 354.92757,91.9492 q -0.48533,0 -0.76267,-0.312 -0.27733,-0.312 -0.27733,-0.762666 0,-1.248001 0.936,-2.132001 0.95333,-0.901333 2.27067,-0.901333 1.49066,0 2.46133,0.814667 0.988,0.797333 1.21333,2.097333 0.0347,0.312 0.0347,0.572 0,1.005334 -0.60667,1.889334 -0.48533,0.728 -1.95866,1.993333 -0.624,0.537333 -1.73334,1.594667 l -1.02266,0.970666 1.31733,0.01733 q 2.72133,0 2.89467,-0.08667 0.0693,-0.01733 0.17333,-0.364 0.0693,-0.190667 0.24267,-1.178667 v -0.052 h 0.69333 v 0.052 l -0.48533,3.172 v 0.052 h -6.43067 v -0.329334 q 0,-0.346667 0.0347,-0.398667 0.0173,-0.01733 1.456,-1.646666 1.88933,-2.097334 2.42666,-2.773334 1.16134,-1.577333 1.16134,-2.894666 0,-1.144001 -0.60667,-1.906667 -0.58933,-0.78 -1.664,-0.78 -1.00533,0 -1.62933,0.901333 -0.0347,0.06933 -0.104,0.190667 -0.052,0.08667 -0.052,0.104 0,0.01733 0.0867,0.01733 0.43334,0 0.69334,0.312 0.27733,0.312 0.27733,0.728 0,0.433334 -0.29467,0.745334 -0.27733,0.294666 -0.74533,0.294666 z"
       style="font-style:normal;font-variant:normal;font-weight:normal;font-stretch:normal;font-size:17.33333397px;font-family:KaTeX_Main;-inkscape-font-specification:'KaTeX_Main, Normal';font-variant-ligatures:normal;font-variant-caps:normal;font-variant-numeric:normal;font-feature-settings:normal;text-align:start;writing-mode:lr-tb;text-anchor:start;stroke-width:0.583"
       id="path1018" /></g><g
     aria-label="R"
     style="font-style:normal;font-variant:normal;font-weight:normal;font-stretch:normal;font-size:24px;font-family:KaTeX_Main;-inkscape-font-specification:'KaTeX_Main, Normal';font-variant-ligatures:normal;font-variant-caps:normal;font-variant-numeric:normal;font-feature-settings:normal;text-align:start;writing-mode:lr-tb;text-anchor:start"
     id="text186"><path
       d="m 79.120008,143.464 q -0.24,-0.24 -0.48,-0.288 -0.216,-0.048 -1.2,-0.072 h -0.792 V 142 h 4.2 q 4.464,0.024 4.92,0.096 0.072,0.024 0.312,0.072 1.08,0.216 1.92,0.672 2.28,1.152 2.616,3.144 0.024,0.12 0.024,0.384 0,1.344 -1.032,2.352 -1.008,1.008 -2.4,1.464 -0.048,0.024 -0.12,0.048 -0.048,0 -0.096,0.024 l -0.048,0.024 q 0.072,0.072 0.264,0.144 1.728,0.96 2.136,2.544 0.024,0.096 0.264,1.584 0.24,1.488 0.264,1.584 0.168,0.864 0.408,1.272 0.264,0.408 0.672,0.552 0.096,0.048 0.408,0.048 h 0.12 q 0.312,0 0.576,-0.264 0.48,-0.48 0.552,-1.44 0,-0.264 0.072,-0.336 0.096,-0.096 0.408,-0.096 0.288,0 0.384,0.072 0.096,0.048 0.096,0.288 0,0.864 -0.432,1.584 -0.408,0.696 -1.008,0.96 -0.384,0.144 -1.008,0.144 -3.576,-0.144 -4.128,-2.688 -0.048,-0.264 -0.072,-1.752 0,-1.488 -0.144,-1.992 -0.216,-0.648 -0.72,-1.104 -0.48,-0.48 -1.104,-0.672 l -0.24,-0.048 -1.584,-0.024 h -1.584 v 3.144 l 0.024,3.144 q 0.168,0.24 0.408,0.288 0.264,0.048 1.248,0.072 h 0.792 v 1.104 h -0.264 q -0.384,-0.072 -3.408,-0.072 -3.048,0 -3.432,0.072 h -0.264 v -1.104 h 0.792 q 0.984,-0.024 1.2,-0.072 0.24,-0.048 0.48,-0.288 z m 8.64,1.992 q -0.24,-1.44 -1.296,-1.896 -1.032,-0.456 -3.168,-0.456 -0.36,0 -0.816,0.024 -0.456,0 -0.48,0 -0.312,0.024 -0.384,0.192 -0.072,0.096 -0.072,3.264 v 3.168 h 1.392 q 1.8,0 2.664,-0.144 0.864,-0.168 1.512,-0.816 0.408,-0.408 0.528,-0.912 0.144,-0.504 0.144,-1.464 0,-0.768 -0.024,-0.96 z"
       style="font-style:normal;font-variant:normal;font-weight:normal;font-stretch:normal;font-size:24px;font-family:KaTeX_Main;-inkscape-font-specification:'KaTeX_Main, Normal';font-variant-ligatures:normal;font-variant-caps:normal;font-variant-numeric:normal;font-feature-settings:normal;text-align:start;writing-mode:lr-tb;text-anchor:start"
       id="path1015" /></g><g
     aria-label="3"
     style="font-style:normal;font-variant:normal;font-weight:normal;font-stretch:normal;font-size:17.33333397px;font-family:KaTeX_Main;-inkscape-font-specification:'KaTeX_Main, Normal';font-variant-ligatures:normal;font-variant-caps:normal;font-variant-numeric:normal;font-feature-settings:normal;text-align:start;writing-mode:lr-tb;text-anchor:start;stroke-width:0.583"
     id="text188"><path
       d="m 95.663209,157.35986 q -0.468,0 -0.745333,-0.29467 -0.26,-0.29466 -0.26,-0.76266 0,-0.988 0.78,-1.64667 0.78,-0.676 1.802667,-0.79733 h 0.26 q 0.606666,0 0.762666,0.0173 0.572,0.0867 1.161334,0.364 1.143997,0.572 1.438667,1.62933 0.052,0.17334 0.052,0.468 0,1.02267 -0.64133,1.83734 -0.624004,0.79733 -1.577337,1.144 -0.08667,0.0347 0,0.052 0.03467,0.0173 0.173333,0.052 1.057333,0.29466 1.785334,1.10933 0.728,0.79733 0.728,1.82 0,0.71067 -0.32933,1.36933 -0.416,0.884 -1.369337,1.47334 -0.936,0.572 -2.097334,0.572 -1.144,0 -2.028,-0.48534 -0.884,-0.48533 -1.196,-1.3 -0.173333,-0.364 -0.173333,-0.84933 0,-0.48533 0.312,-0.78 0.329333,-0.312 0.78,-0.312 0.485333,0 0.797333,0.312 0.312,0.312 0.312,0.78 0,0.39867 -0.225333,0.69333 -0.225333,0.29467 -0.606667,0.38134 l -0.121333,0.0347 q 0.936,0.78 2.149333,0.78 0.953334,0 1.438667,-0.91866 0.294667,-0.572 0.294667,-1.75067 v -0.34667 q 0,-1.64666 -1.109334,-2.20133 -0.26,-0.104 -1.057333,-0.12133 l -0.728,-0.0173 -0.052,-0.0347 q -0.03467,-0.052 -0.03467,-0.27734 0,-0.208 0.052,-0.26 0.052,-0.052 0.08667,-0.052 0.485333,0 1.005333,-0.0867 0.762667,-0.104 1.161334,-0.84934 0.398666,-0.76266 0.398666,-1.82 0,-1.12666 -0.606666,-1.508 -0.364,-0.24266 -0.814667,-0.24266 -0.866667,0 -1.525333,0.468 -0.06933,0.0347 -0.156,0.12133 -0.08667,0.0693 -0.138667,0.13867 l -0.052,0.0693 q 0.052,0.0173 0.121333,0.0347 0.346667,0.0347 0.572,0.32933 0.242667,0.29467 0.242667,0.676 0,0.416 -0.294667,0.71067 -0.277333,0.27733 -0.728,0.27733 z"
       style="font-style:normal;font-variant:normal;font-weight:normal;font-stretch:normal;font-size:17.33333397px;font-family:KaTeX_Main;-inkscape-font-specification:'KaTeX_Main, Normal';font-variant-ligatures:normal;font-variant-caps:normal;font-variant-numeric:normal;font-feature-settings:normal;text-align:start;writing-mode:lr-tb;text-anchor:start;stroke-width:0.583"
       id="path1012" /></g><g
     aria-label="R"
     style="font-style:normal;font-variant:normal;font-weight:normal;font-stretch:normal;font-size:24px;font-family:KaTeX_Main;-inkscape-font-specification:'KaTeX_Main, Normal';font-variant-ligatures:normal;font-variant-caps:normal;font-variant-numeric:normal;font-feature-settings:normal;text-align:start;writing-mode:lr-tb;text-anchor:start"
     id="text190"><path
       d="m 278.67908,119.464 q -0.24,-0.24 -0.48,-0.288 -0.216,-0.048 -1.2,-0.072 h -0.792 V 118 h 4.2 q 4.464,0.024 4.92,0.096 0.072,0.024 0.312,0.072 1.08,0.216 1.92,0.672 2.28,1.152 2.616,3.144 0.024,0.12 0.024,0.384 0,1.344 -1.032,2.352 -1.008,1.008 -2.4,1.464 -0.048,0.024 -0.12,0.048 -0.048,0 -0.096,0.024 l -0.048,0.024 q 0.072,0.072 0.264,0.144 1.728,0.96 2.136,2.544 0.024,0.096 0.264,1.584 0.24,1.488 0.264,1.584 0.168,0.864 0.408,1.272 0.264,0.408 0.672,0.552 0.096,0.048 0.408,0.048 h 0.12 q 0.312,0 0.576,-0.264 0.48,-0.48 0.552,-1.44 0,-0.264 0.072,-0.336 0.096,-0.096 0.408,-0.096 0.288,0 0.384,0.072 0.096,0.048 0.096,0.288 0,0.864 -0.432,1.584 -0.408,0.696 -1.008,0.96 -0.384,0.144 -1.008,0.144 -3.576,-0.144 -4.128,-2.688 -0.048,-0.264 -0.072,-1.752 0,-1.488 -0.144,-1.992 -0.216,-0.648 -0.72,-1.104 -0.48,-0.48 -1.104,-0.672 l -0.24,-0.048 -1.584,-0.024 h -1.584 v 3.144 l 0.024,3.144 q 0.168,0.24 0.408,0.288 0.264,0.048 1.248,0.072 h 0.792 v 1.104 h -0.264 q -0.384,-0.072 -3.408,-0.072 -3.048,0 -3.432,0.072 h -0.264 v -1.104 h 0.792 q 0.984,-0.024 1.2,-0.072 0.24,-0.048 0.48,-0.288 z m 8.64,1.992 q -0.24,-1.44 -1.296,-1.896 -1.032,-0.456 -3.168,-0.456 -0.36,0 -0.816,0.024 -0.456,0 -0.48,0 -0.312,0.024 -0.384,0.192 -0.072,0.096 -0.072,3.264 v 3.168 h 1.392 q 1.8,0 2.664,-0.144 0.864,-0.168 1.512,-0.816 0.408,-0.408 0.528,-0.912 0.144,-0.504 0.144,-1.464 0,-0.768 -0.024,-0.96 z"
       style="font-style:normal;font-variant:normal;font-weight:normal;font-stretch:normal;font-size:24px;font-family:KaTeX_Main;-inkscape-font-specification:'KaTeX_Main, Normal';font-variant-ligatures:normal;font-variant-caps:normal;font-variant-numeric:normal;font-feature-settings:normal;text-align:start;writing-mode:lr-tb;text-anchor:start"
       id="path1009" /></g><g
     aria-label="3"
     style="font-style:normal;font-variant:normal;font-weight:normal;font-stretch:normal;font-size:17.33333397px;font-family:KaTeX_Main;-inkscape-font-specification:'KaTeX_Main, Normal';font-variant-ligatures:normal;font-variant-caps:normal;font-variant-numeric:normal;font-feature-settings:normal;text-align:start;writing-mode:lr-tb;text-anchor:start;stroke-width:0.583"
     id="text192"><path
       d="m 295.22224,133.35986 q -0.468,0 -0.74534,-0.29467 -0.26,-0.29466 -0.26,-0.76266 0,-0.988 0.78,-1.64667 0.78,-0.676 1.80267,-0.79733 h 0.26 q 0.60667,0 0.76267,0.0173 0.572,0.0867 1.16133,0.364 1.144,0.572 1.43867,1.62933 0.052,0.17334 0.052,0.468 0,1.02267 -0.64134,1.83734 -0.624,0.79733 -1.57733,1.144 -0.0867,0.0347 0,0.052 0.0347,0.0173 0.17333,0.052 1.05734,0.29466 1.78534,1.10933 0.728,0.79733 0.728,1.82 0,0.71067 -0.32934,1.36933 -0.416,0.884 -1.36933,1.47334 -0.936,0.572 -2.09733,0.572 -1.144,0 -2.028,-0.48534 -0.884,-0.48533 -1.196,-1.3 -0.17334,-0.364 -0.17334,-0.84933 0,-0.48533 0.312,-0.78 0.32934,-0.312 0.78,-0.312 0.48534,0 0.79734,0.312 0.312,0.312 0.312,0.78 0,0.39867 -0.22534,0.69333 -0.22533,0.29467 -0.60666,0.38134 l -0.12134,0.0347 q 0.936,0.78 2.14934,0.78 0.95333,0 1.43866,-0.91866 0.29467,-0.572 0.29467,-1.75067 v -0.34667 q 0,-1.64666 -1.10933,-2.20133 -0.26,-0.104 -1.05734,-0.12133 l -0.728,-0.0173 -0.052,-0.0347 q -0.0347,-0.052 -0.0347,-0.27734 0,-0.208 0.052,-0.26 0.052,-0.052 0.0867,-0.052 0.48534,0 1.00534,-0.0867 0.76266,-0.104 1.16133,-0.84934 0.39867,-0.76266 0.39867,-1.82 0,-1.12666 -0.60667,-1.508 -0.364,-0.24266 -0.81467,-0.24266 -0.86666,0 -1.52533,0.468 -0.0693,0.0347 -0.156,0.12133 -0.0867,0.0693 -0.13867,0.13867 l -0.052,0.0693 q 0.052,0.0173 0.12134,0.0347 0.34666,0.0347 0.572,0.32933 0.24266,0.29467 0.24266,0.676 0,0.416 -0.29466,0.71067 -0.27734,0.27733 -0.728,0.27733 z"
       style="font-style:normal;font-variant:normal;font-weight:normal;font-stretch:normal;font-size:17.33333397px;font-family:KaTeX_Main;-inkscape-font-specification:'KaTeX_Main, Normal';font-variant-ligatures:normal;font-variant-caps:normal;font-variant-numeric:normal;font-feature-settings:normal;text-align:start;writing-mode:lr-tb;text-anchor:start;stroke-width:0.583"
       id="path1006" /></g></svg>