<?xml version="1.0" encoding="UTF-8" standalone="no"?>
<!-- Generator: Adobe Illustrator 19.1.0, SVG Export Plug-In . SVG Version: 6.00 Build 0)  -->

<svg
   xmlns:dc="http://purl.org/dc/elements/1.1/"
   xmlns:cc="http://creativecommons.org/ns#"
   xmlns:rdf="http://www.w3.org/1999/02/22-rdf-syntax-ns#"
   xmlns:svg="http://www.w3.org/2000/svg"
   xmlns="http://www.w3.org/2000/svg"
   xmlns:sodipodi="http://sodipodi.sourceforge.net/DTD/sodipodi-0.dtd"
   xmlns:inkscape="http://www.inkscape.org/namespaces/inkscape"
   version="1.1"
   id="Layer_1"
   x="0px"
   y="0px"
   width="444.75989"
   height="203.30586"
   viewBox="0 0 444.75989 203.30586"
   xml:space="preserve"
   inkscape:version="0.91 r13725"
   sodipodi:docname="fundamental_laws1a.svg"><metadata
     id="metadata4727"><rdf:RDF><cc:Work
         rdf:about=""><dc:format>image/svg+xml</dc:format><dc:type
           rdf:resource="http://purl.org/dc/dcmitype/StillImage" /><dc:title></dc:title></cc:Work></rdf:RDF></metadata><defs
     id="defs4725" /><sodipodi:namedview
     pagecolor="#ffffff"
     bordercolor="#666666"
     borderopacity="1"
     objecttolerance="10"
     gridtolerance="10"
     guidetolerance="10"
     inkscape:pageopacity="0"
     inkscape:pageshadow="2"
     inkscape:window-width="1231"
     inkscape:window-height="726"
     id="namedview4723"
     showgrid="false"
     inkscape:zoom="1.5086792"
     inkscape:cx="65.620305"
     inkscape:cy="101.65293"
     inkscape:window-x="0"
     inkscape:window-y="0"
     inkscape:window-maximized="0"
     inkscape:current-layer="Layer_1"
     fit-margin-top="10"
     fit-margin-right="10"
     fit-margin-bottom="10"
     fit-margin-left="10" /><style
     type="text/css"
     id="style4451">
	.st0{fill:none;stroke:#FF9C39;stroke-width:5;stroke-linecap:round;stroke-miterlimit:10;}
	.st1{fill:#FF9C39;}
	.st2{fill:none;stroke:#1FAB54;stroke-width:6;stroke-linecap:round;stroke-miterlimit:10;}
	.st3{fill:none;stroke:#FF9C39;stroke-width:6;stroke-linecap:round;stroke-miterlimit:10;}
	.st4{fill:none;stroke:#FF9C39;stroke-width:6;stroke-linecap:round;stroke-linejoin:round;stroke-miterlimit:10;}
	.st5{fill:none;stroke:#11ACCD;stroke-width:5;stroke-linecap:round;stroke-linejoin:round;stroke-miterlimit:10;}
	.st6{fill:none;stroke:#1FAB54;stroke-width:6;stroke-linecap:round;stroke-linejoin:round;stroke-miterlimit:10;}
	.st7{fill:none;stroke:#BABEC2;stroke-width:2;stroke-linecap:round;stroke-miterlimit:10;}
	.st8{fill:none;stroke:#ED5FA6;stroke-width:4;stroke-linecap:round;stroke-miterlimit:10;}
	.st9{fill:#ED5FA6;}
	.st10{fill:none;stroke:#1FAB54;stroke-width:4;stroke-linecap:round;stroke-miterlimit:10;}
	.st11{fill:#1FAB54;}
	.st12{fill:none;stroke:#11ACCD;stroke-width:4;stroke-linecap:round;stroke-miterlimit:10;}
	.st13{fill:#11ACCD;}
	.st14{fill:none;stroke:#FF9C39;stroke-width:4;stroke-linecap:round;stroke-miterlimit:10;}
	.st15{fill:none;stroke:#000000;stroke-linecap:round;stroke-linejoin:round;stroke-miterlimit:10;}
	.st16{fill:none;stroke:#000000;stroke-width:1.5;stroke-linecap:round;stroke-linejoin:round;stroke-miterlimit:10;}
	.st17{fill:none;stroke:#000000;stroke-linecap:round;stroke-miterlimit:10;}
	.st18{fill:none;stroke:#000000;stroke-width:1.5;stroke-linecap:round;stroke-miterlimit:10;}
	.st19{fill:none;stroke:#000000;stroke-width:2;stroke-linecap:round;stroke-linejoin:round;stroke-miterlimit:10;}
	.st20{fill:none;stroke:#000000;stroke-width:1.5;stroke-miterlimit:10;}
	.st21{fill:none;stroke:#000000;stroke-miterlimit:10;}
	.st22{fill:none;stroke:#000000;stroke-width:2;stroke-miterlimit:10;}
	.st23{fill:none;stroke:#000000;stroke-width:2;stroke-linecap:round;stroke-miterlimit:10;}
	.st24{fill:none;stroke:#000000;stroke-linecap:round;stroke-linejoin:round;}
	.st25{fill:none;}
	.st26{stroke:#000000;stroke-linecap:round;stroke-linejoin:round;stroke-miterlimit:10;}
	.st27{fill:none;stroke:#000000;stroke-width:1.5;stroke-linejoin:round;stroke-miterlimit:10;}
	.st28{fill:none;stroke:#000000;stroke-linejoin:round;stroke-miterlimit:10;}
	.st29{clip-path:url(#SVGID_2_);fill:none;stroke:#000000;stroke-linejoin:round;stroke-miterlimit:10;}
	.st30{clip-path:url(#SVGID_2_);fill:none;stroke:#ADADEB;stroke-linejoin:round;stroke-miterlimit:10;}
	.st31{clip-path:url(#SVGID_2_);}
	.st32{stroke:#000000;stroke-linejoin:round;stroke-miterlimit:10;}
	.st33{stroke:#000000;stroke-width:3;stroke-linejoin:round;stroke-miterlimit:10;}
	.st34{fill:none;stroke:#000000;stroke-linejoin:round;}
	.st35{fill:#FFFFFF;stroke:#000000;stroke-miterlimit:10;}
	.st36{fill:#E07D10;}
	.st37{fill:none;stroke:#11ACCD;stroke-width:3;stroke-linecap:round;stroke-miterlimit:10;}
	.st38{fill:none;stroke:#E07D10;stroke-width:2;stroke-linecap:round;stroke-miterlimit:10;}
	.st39{font-family:'KaTeX_Main-Regular';}
	.st40{font-size:18px;}
	.st41{letter-spacing:1;}
	.st42{font-family:'KaTeX_Main-Italic';}
	.st43{font-size:21px;}
	.st44{fill:none;stroke:#FF9C39;stroke-width:3;stroke-linecap:round;stroke-miterlimit:10;}
	.st45{fill:none;stroke:#FFBB71;stroke-width:2;stroke-linecap:round;stroke-miterlimit:10;}
	.st46{fill:#FFBB71;}
	.st47{fill:none;stroke:#000000;stroke-width:2;stroke-linecap:round;stroke-miterlimit:10;stroke-dasharray:6.1241,6.1241;}
	.st48{fill:#66AFE9;}
	.st49{fill:none;stroke:#66AFE9;stroke-miterlimit:10;}
	.st50{fill:none;stroke:#11ACCD;stroke-width:1.5;stroke-miterlimit:10;}
	.st51{fill:none;stroke:#11ACCD;stroke-width:4;stroke-linecap:round;stroke-linejoin:round;stroke-miterlimit:10;}
	.st52{fill:#CA337C;}
</style><g
     id="g4463"
     transform="translate(-16.380099,6.8058992)"><circle
       class="st22"
       cx="90.199997"
       cy="102"
       r="18"
       id="circle4465"
       style="fill:none;stroke:#000000;stroke-width:2;stroke-miterlimit:10" /><polyline
       class="st17"
       points="90.2,84 90.2,60 90.2,42 108.2,42  "
       id="polyline4467"
       style="fill:none;stroke:#000000;stroke-linecap:round;stroke-miterlimit:10" /><polyline
       class="st15"
       points="90.2,120 90,162 389.8,162  "
       id="polyline4469"
       style="fill:none;stroke:#000000;stroke-linecap:round;stroke-linejoin:round;stroke-miterlimit:10" /><line
       class="st20"
       x1="90.199997"
       y1="88.5"
       x2="90.199997"
       y2="100.5"
       id="line4471"
       style="fill:none;stroke:#000000;stroke-width:1.5;stroke-miterlimit:10" /><line
       class="st20"
       x1="84.199997"
       y1="94.5"
       x2="96.199997"
       y2="94.5"
       id="line4473"
       style="fill:none;stroke:#000000;stroke-width:1.5;stroke-miterlimit:10" /><line
       class="st20"
       x1="84.199997"
       y1="112.5"
       x2="96.199997"
       y2="112.5"
       id="line4475"
       style="fill:none;stroke:#000000;stroke-width:1.5;stroke-miterlimit:10" /></g><g
     id="g4477"
     transform="translate(-16.380099,6.8058992)"><g
       id="g4479"><g
         id="g4481"><line
           class="st23"
           x1="390"
           y1="115.5"
           x2="390"
           y2="95.599998"
           id="line4483"
           style="fill:none;stroke:#000000;stroke-width:2;stroke-linecap:round;stroke-miterlimit:10" /><g
           id="g4485"><polygon
             points="396,97.4 390,87 384,97.4 "
             id="polygon4487" /></g></g></g><circle
       class="st22"
       cx="390"
       cy="102"
       r="18"
       id="circle4489"
       style="fill:none;stroke:#000000;stroke-width:2;stroke-miterlimit:10" /><polyline
       class="st17"
       points="209.8,42 390,42 390,60 390,84  "
       id="polyline4491"
       style="fill:none;stroke:#000000;stroke-linecap:round;stroke-miterlimit:10" /><line
       class="st15"
       x1="390"
       y1="120"
       x2="390"
       y2="162"
       id="line4493"
       style="fill:none;stroke:#000000;stroke-linecap:round;stroke-linejoin:round;stroke-miterlimit:10" /></g><g
     id="g4495"
     transform="translate(-16.380099,6.8058992)"><line
       class="st15"
       x1="185.39999"
       y1="42"
       x2="209.8"
       y2="42"
       id="line4497"
       style="fill:none;stroke:#000000;stroke-linecap:round;stroke-linejoin:round;stroke-miterlimit:10" /><polyline
       class="st19"
       points="138.6,42 142.5,33 150.3,51 158.1,33 165.9,51 173.7,33 181.5,51 185.4,42  "
       id="polyline4499"
       style="fill:none;stroke:#000000;stroke-width:2;stroke-linecap:round;stroke-linejoin:round;stroke-miterlimit:10" /><line
       class="st15"
       x1="108.2"
       y1="42"
       x2="138.60001"
       y2="42"
       id="line4501"
       style="fill:none;stroke:#000000;stroke-linecap:round;stroke-linejoin:round;stroke-miterlimit:10" /><polygon
       class="st25"
       points="108.2,30 108.2,54 209.8,54 210,30 "
       id="polygon4503"
       style="fill:none" /></g><g
     id="g4505"
     transform="translate(-16.380099,6.8058992)"><line
       class="st15"
       x1="234.2"
       y1="78.599998"
       x2="234.2"
       y2="60"
       id="line4507"
       style="fill:none;stroke:#000000;stroke-linecap:round;stroke-linejoin:round;stroke-miterlimit:10" /><polyline
       class="st19"
       points="234.2,125.4 225.2,121.5 243.2,113.7 225.2,105.9 243.2,98.1 225.2,90.3 243.2,82.5 234.2,78.6  "
       id="polyline4509"
       style="fill:none;stroke:#000000;stroke-width:2;stroke-linecap:round;stroke-linejoin:round;stroke-miterlimit:10" /><line
       class="st15"
       x1="234.2"
       y1="162"
       x2="234.2"
       y2="125.4"
       id="line4511"
       style="fill:none;stroke:#000000;stroke-linecap:round;stroke-linejoin:round;stroke-miterlimit:10" /><rect
       x="222.2"
       y="60"
       class="st25"
       width="24"
       height="102"
       id="rect4513"
       style="fill:none" /></g><g
     id="g4515"
     transform="translate(-16.380099,6.8058992)"><line
       class="st15"
       x1="312"
       y1="78.599998"
       x2="312"
       y2="60"
       id="line4517"
       style="fill:none;stroke:#000000;stroke-linecap:round;stroke-linejoin:round;stroke-miterlimit:10" /><polyline
       class="st19"
       points="312,125.4 303,121.5 321,113.7 303,105.9 321,98.1 303,90.3 321,82.5 312,78.6  "
       id="polyline4519"
       style="fill:none;stroke:#000000;stroke-width:2;stroke-linecap:round;stroke-linejoin:round;stroke-miterlimit:10" /><line
       class="st15"
       x1="312"
       y1="162"
       x2="312"
       y2="125.4"
       id="line4521"
       style="fill:none;stroke:#000000;stroke-linecap:round;stroke-linejoin:round;stroke-miterlimit:10" /><rect
       x="300"
       y="60"
       class="st25"
       width="24"
       height="102"
       id="rect4523"
       style="fill:none" /></g><g
     id="g4525"
     transform="translate(-16.380099,6.8058992)"><polyline
       class="st15"
       points="90,174 97.5,174 97.5,174 97.5,174 90,186 82.5,174 90,174 90,162  "
       id="polyline4527"
       style="fill:none;stroke:#000000;stroke-linecap:round;stroke-linejoin:round;stroke-miterlimit:10" /><rect
       x="78"
       y="162"
       class="st25"
       width="24"
       height="24"
       id="rect4529"
       style="fill:none" /></g><g
     id="g4531"
     transform="translate(-16.380099,6.8058992)"><circle
       class="st26"
       cx="234"
       cy="42"
       r="1.5"
       id="circle4533"
       style="stroke:#000000;stroke-linecap:round;stroke-linejoin:round;stroke-miterlimit:10" /><rect
       x="228"
       y="36"
       class="st25"
       width="12"
       height="12"
       id="rect4535"
       style="fill:none" /></g><g
     id="g4537"
     transform="translate(-16.380099,6.8058992)"><circle
       class="st26"
       cx="312"
       cy="42"
       r="1.5"
       id="circle4539"
       style="stroke:#000000;stroke-linecap:round;stroke-linejoin:round;stroke-miterlimit:10" /><rect
       x="306"
       y="36"
       class="st25"
       width="12"
       height="12"
       id="rect4541"
       style="fill:none" /></g><g
     id="g4543"
     transform="translate(-16.380099,6.8058992)"><circle
       class="st26"
       cx="312"
       cy="162"
       r="1.5"
       id="circle4545"
       style="stroke:#000000;stroke-linecap:round;stroke-linejoin:round;stroke-miterlimit:10" /><rect
       x="306"
       y="156"
       class="st25"
       width="12"
       height="12"
       id="rect4547"
       style="fill:none" /></g><g
     id="g4549"
     transform="translate(-16.380099,6.8058992)"><circle
       class="st26"
       cx="234.2"
       cy="162"
       r="1.5"
       id="circle4551"
       style="stroke:#000000;stroke-linecap:round;stroke-linejoin:round;stroke-miterlimit:10" /><rect
       x="228.2"
       y="156"
       class="st25"
       width="12"
       height="12"
       id="rect4553"
       style="fill:none" /></g><g
     id="g4555"
     transform="translate(-16.380099,6.8058992)"><circle
       class="st26"
       cx="90"
       cy="162"
       r="1.5"
       id="circle4557"
       style="stroke:#000000;stroke-linecap:round;stroke-linejoin:round;stroke-miterlimit:10" /><rect
       x="84"
       y="156"
       class="st25"
       width="12"
       height="12"
       id="rect4559"
       style="fill:none" /></g><line
     class="st17"
     x1="295.6199"
     y1="66.805901"
     x2="295.6199"
     y2="48.805901"
     id="line4561"
     style="fill:none;stroke:#000000;stroke-linecap:round;stroke-miterlimit:10" /><line
     class="st17"
     x1="217.8199"
     y1="66.805901"
     x2="217.8199"
     y2="48.805901"
     id="line4563"
     style="fill:none;stroke:#000000;stroke-linecap:round;stroke-miterlimit:10" /><g
     style="font-style:normal;font-variant:normal;font-weight:normal;font-stretch:normal;font-size:22.5px;line-height:125%;font-family:KaTeX_Main;-inkscape-font-specification:'KaTeX_Main, Normal';text-align:start;writing-mode:lr-tb;text-anchor:start"
     id="text4565"><path
       d="m 106.9798,114.806 q -0.3825,-0.0675 -3.5775,-0.0675 -3.15,0 -3.532496,0.0675 l -0.27,0 0,-1.035 0.584996,0 q 1.305,0 1.6875,-0.0675 0.18,-0.0225 0.54,-0.27 l 0,-11.6325 q -0.045,0 -0.18,0.0675 -1.035,0.405 -2.317496,0.4275 l -0.4275,0 0,-1.035 0.4275,0 q 1.889996,-0.0675 3.149996,-0.855 0.405,-0.225 0.6975,-0.5175 0.045,-0.0675 0.27,-0.0675 0.225,0 0.3825,0.135 l 0,6.7275 0.0225,6.75 q 0.3375,0.3375 1.4625,0.3375 l 0.7425,0 0.585,0 0,1.035 -0.2475,0 z"
       style="font-style:normal;font-variant:normal;font-weight:normal;font-stretch:normal;font-size:22.5px;line-height:125%;font-family:KaTeX_Main;-inkscape-font-specification:'KaTeX_Main, Normal';text-align:start;writing-mode:lr-tb;text-anchor:start"
       id="path4356" /><path
       d="m 119.2648,114.806 q -0.315,-0.0675 -2.9025,-0.0675 -2.7,0 -3.015,0.0675 l -0.2025,0 0,-1.035 0.6975,0 q 0.9675,-0.0225 1.1925,-0.1125 0.18,-0.045 0.27,-0.225 0.0225,-0.045 0.0225,-1.215 l 0,-1.125 -5.8275,0 0,-1.035 3.3975,-5.1975 q 3.4425,-5.22 3.4875,-5.2425 0.045,-0.045 0.4725,-0.045 l 0.405,0 0.135,0.135 0,10.35 2.07,0 0,1.035 -2.07,0 0,1.1475 q 0,0.9225 0,1.08 0.0225,0.1575 0.135,0.27 0.18,0.1575 1.2825,0.18 l 0.6525,0 0,1.035 -0.2025,0 z m -3.8025,-4.7475 0,-7.515 -4.9275,7.4925 2.4525,0.0225 2.475,0 z"
       style="font-style:normal;font-variant:normal;font-weight:normal;font-stretch:normal;font-size:22.5px;line-height:125%;font-family:KaTeX_Main;-inkscape-font-specification:'KaTeX_Main, Normal';text-align:start;writing-mode:lr-tb;text-anchor:start"
       id="path4358" /><path
       d="m 122.2798,101.6435 q 1.26,-1.8225 3.4425,-1.8225 1.6425,0 2.88,1.125 0.6075,0.585 1.035,1.53 0.8325,1.8675 0.8325,5.13 0,3.4875 -0.9675,5.3325 -0.63,1.305 -1.845,1.89 -0.945,0.4725 -1.9125,0.4725 -2.5875,0 -3.78,-2.3625 -0.9675,-1.845 -0.9675,-5.3325 0,-2.0925 0.27,-3.4425 0.2925,-1.3725 1.0125,-2.52 z m 5.0625,-0.27 q -0.6525,-0.72 -1.5975,-0.72 -0.945,0 -1.62,0.72 -0.495,0.5175 -0.675,1.26 -0.18,0.7425 -0.225,2.565 0,0.135 -0.0225,0.8775 0,0.7425 0,1.2375 0,2.16 0.045,3.015 0.09,1.575 0.27,2.2725 0.18,0.675 0.675,1.17 0.6075,0.675 1.5525,0.675 0.9225,0 1.53,-0.675 0.495,-0.495 0.675,-1.17 0.18,-0.6975 0.27,-2.2725 0.045,-0.855 0.045,-3.015 0,-0.495 -0.0225,-1.2375 0,-0.7425 0,-0.8775 -0.045,-1.8225 -0.225,-2.565 -0.18,-0.7425 -0.675,-1.26 z"
       style="font-style:normal;font-variant:normal;font-weight:normal;font-stretch:normal;font-size:22.5px;line-height:125%;font-family:KaTeX_Main;-inkscape-font-specification:'KaTeX_Main, Normal';text-align:start;writing-mode:lr-tb;text-anchor:start"
       id="path4360" /><path
       d="m 136.9348,100.856 q -0.2475,-0.2475 -0.45,-0.2925 -0.2025,-0.0675 -1.035,-0.09 l -0.6525,0 0,-1.035 0.2025,0 q 0.315,0.0675 2.79,0.0675 2.7,0 3.195,-0.0675 l 0.2475,0 0,1.035 -0.4725,0 q -1.035,0.0225 -1.2825,0.2475 -0.09,0.0675 -0.09,0.135 0,0.045 2.025,5.58 2.025,5.535 2.0475,5.535 0.8775,-2.3625 1.935,-5.22 1.9125,-5.175 1.9125,-5.3775 0,-0.4275 -0.4725,-0.6525 -0.4725,-0.2475 -1.035,-0.2475 l -0.1125,0 0,-1.035 0.2025,0 q 0.3825,0.0675 2.5875,0.0675 1.935,0 2.1825,-0.0675 l 0.135,0 0,1.035 -0.1575,0 q -1.665,0 -2.16,0.9225 0,0.0225 -2.5425,6.8625 -2.52,6.84 -2.5425,6.8625 -0.0675,0.18 -0.405,0.18 l -0.2025,0 -0.2025,0 q -0.315,0 -0.3825,-0.18 -0.045,-0.045 -2.6325,-7.1325 -2.6325,-7.065 -2.6325,-7.1325 z"
       style="font-style:normal;font-variant:normal;font-weight:normal;font-stretch:normal;font-size:22.5px;line-height:125%;font-family:KaTeX_Main;-inkscape-font-specification:'KaTeX_Main, Normal';text-align:start;writing-mode:lr-tb;text-anchor:start"
       id="path4362" /></g><g
     style="font-style:normal;font-variant:normal;font-weight:normal;font-stretch:normal;font-size:22.5px;line-height:125%;font-family:KaTeX_Main;-inkscape-font-specification:'KaTeX_Main, Normal';text-align:start;writing-mode:lr-tb;text-anchor:start"
     id="text4573"><path
       d="m 130.0949,69.153599 q -0.63,0 -0.99,-0.405 -0.36,-0.405 -0.36,-0.99 0,-1.62 1.215,-2.7675 1.2375,-1.17 2.9475,-1.17 1.935,0 3.195,1.0575 1.2825,1.035 1.575,2.7225 0.045,0.405 0.045,0.7425 0,1.305 -0.7875,2.4525 -0.63,0.945 -2.5425,2.5875 -0.81,0.6975 -2.25,2.07 l -1.3275,1.26 1.71,0.0225 q 3.5325,0 3.7575,-0.1125 0.09,-0.0225 0.225,-0.4725 0.09,-0.2475 0.315,-1.53 l 0,-0.0675 0.9,0 0,0.0675 -0.63,4.1175 0,0.0675 -8.3475,0 0,-0.4275 q 0,-0.45 0.045,-0.5175 0.0225,-0.0225 1.89,-2.1375 2.4525,-2.7225 3.15,-3.6 1.5075,-2.0475 1.5075,-3.7575 0,-1.485 -0.7875,-2.475 -0.765,-1.0125 -2.16,-1.0125 -1.305,0 -2.115,1.17 -0.045,0.09 -0.135,0.2475 -0.0675,0.1125 -0.0675,0.135 0,0.0225 0.1125,0.0225 0.5625,0 0.9,0.405 0.36,0.405 0.36,0.945 0,0.5625 -0.3825,0.9675 -0.36,0.3825 -0.9675,0.3825 z"
       style="font-style:normal;font-variant:normal;font-weight:normal;font-stretch:normal;font-size:22.5px;line-height:125%;font-family:KaTeX_Main;-inkscape-font-specification:'KaTeX_Main, Normal';text-align:start;writing-mode:lr-tb;text-anchor:start"
       id="path4349" /><path
       d="m 141.0299,65.643599 q 1.26,-1.8225 3.4425,-1.8225 1.6425,0 2.88,1.125 0.6075,0.585 1.035,1.53 0.8325,1.8675 0.8325,5.13 0,3.4875 -0.9675,5.3325 -0.63,1.305 -1.845,1.89 -0.945,0.4725 -1.9125,0.4725 -2.5875,0 -3.78,-2.3625 -0.9675,-1.845 -0.9675,-5.3325 0,-2.0925 0.27,-3.4425 0.2925,-1.3725 1.0125,-2.52 z m 5.0625,-0.27 q -0.6525,-0.72 -1.5975,-0.72 -0.945,0 -1.62,0.72 -0.495,0.5175 -0.675,1.26 -0.18,0.7425 -0.225,2.565 0,0.135 -0.0225,0.8775 0,0.7425 0,1.2375 0,2.16 0.045,3.015 0.09,1.575 0.27,2.2725 0.18,0.675 0.675,1.17 0.6075,0.675 1.5525,0.675 0.9225,0 1.53,-0.675 0.495,-0.495 0.675,-1.17 0.18,-0.6975 0.27,-2.2725 0.045,-0.855 0.045,-3.015 0,-0.495 -0.0225,-1.2375 0,-0.7425 0,-0.8775 -0.045,-1.8225 -0.225,-2.565 -0.18,-0.7425 -0.675,-1.26 z"
       style="font-style:normal;font-variant:normal;font-weight:normal;font-stretch:normal;font-size:22.5px;line-height:125%;font-family:KaTeX_Main;-inkscape-font-specification:'KaTeX_Main, Normal';text-align:start;writing-mode:lr-tb;text-anchor:start"
       id="path4351" /><path
       d="m 159.1949,78.356099 q 0,0.2925 -0.1575,0.45 l -4.185,0 0,-0.045 q -0.0225,-0.0225 -0.36,-1.9575 l -0.3825,-1.935 0,-0.045 0.9,0 0.0225,0.1125 q 0,0.1125 0.09,0.4275 0.1575,1.0125 0.3375,1.35 0.09,0.1125 0.1575,0.1575 0.2925,0.1125 1.5075,0.135 l 0.99,0 0,-0.0675 q -0.1125,-0.36 -0.495,-1.1925 -0.36,-0.6975 -1.2375,-2.07 -1.44,-2.3175 -1.8,-3.5325 -0.225,-0.8325 -0.225,-1.5525 0,-0.675 0.18,-1.2825 0.495,-1.6875 2.0925,-2.9025 1.5975,-1.2375 3.735,-1.4175 0.135,-0.0225 0.3375,-0.0225 l 0.3375,0 q 3.1725,0 5.1975,1.7325 1.2825,1.125 1.6875,2.61 0.18,0.6075 0.18,1.2825 0,0.72 -0.225,1.5525 -0.36,1.215 -1.8,3.5325 -0.8775,1.3725 -1.2375,2.07 -0.3825,0.8325 -0.495,1.1925 l 0,0.0675 0.99,0 q 1.215,-0.0225 1.5075,-0.135 0.09,-0.045 0.1575,-0.1575 0.1575,-0.3375 0.3375,-1.35 0.09,-0.315 0.09,-0.4275 l 0.0225,-0.1125 0.9,0 0,0.045 -0.3825,1.935 q -0.3375,1.935 -0.36,1.9575 l 0,0.045 -2.07,0 q -1.665,0 -1.935,0 -0.2475,-0.0225 -0.2925,-0.135 -0.045,-0.09 -0.045,-0.315 0,-0.6525 0.2025,-1.7775 0.18,-0.9 0.8775,-3.0375 0.72,-2.1825 0.945,-3.42 0.1575,-0.945 0.1575,-1.5525 0,-3.1725 -2.3175,-4.3425 -0.945,-0.45 -1.89,-0.45 -2.295,0 -3.51,1.9125 -0.6975,1.1025 -0.6975,2.8575 0,0.765 0.135,1.575 0.225,1.2375 0.945,3.42 0.6975,2.1375 0.8775,3.0375 0.2025,1.1025 0.2025,1.7775 z"
       style="font-style:normal;font-variant:normal;font-weight:normal;font-stretch:normal;font-size:22.5px;line-height:125%;font-family:KaTeX_Main;-inkscape-font-specification:'KaTeX_Main, Normal';text-align:start;writing-mode:lr-tb;text-anchor:start"
       id="path4353" /></g><g
     style="font-style:normal;font-variant:normal;font-weight:normal;font-stretch:normal;font-size:22.5px;line-height:125%;font-family:KaTeX_Main;-inkscape-font-specification:'KaTeX_Main, Normal';text-align:start;writing-mode:lr-tb;text-anchor:start"
     id="text4581"><path
       d="m 184.0125,101.2835 q -0.495,-0.495 -1.395,-0.5625 -1.575,0 -2.6325,1.35 -1.0575,1.4625 -1.0575,4.545 l 0.0225,0.09 0.18,-0.2925 q 0.9225,-1.35 2.4975,-1.35 1.035,0 1.8225,0.4275 0.54,0.315 1.08,0.9225 0.54,0.585 0.8775,1.26 0.4725,1.1025 0.4725,2.4075 l 0,0.405 q 0,0.5175 -0.1125,0.9675 -0.27,1.3275 -1.395,2.4975 -0.9675,1.0125 -2.16,1.26 -0.36,0.09 -0.9,0.09 -0.4275,0 -0.765,-0.0675 -1.665,-0.315 -2.655,-1.8 -1.3275,-2.0925 -1.3275,-5.67 0,-2.43 0.855,-4.2525 0.855,-1.8225 2.385,-2.835 1.215,-0.855 2.6325,-0.855 1.305,0 2.0925,0.6975 0.81,0.6975 0.81,1.9125 0,0.5625 -0.3375,0.9 -0.315,0.3375 -0.855,0.3375 -0.54,0 -0.8775,-0.315 -0.315,-0.315 -0.315,-0.8775 0,-1.0125 1.0575,-1.1925 z m -0.99,5.4 q -0.63,-0.81 -1.62,-0.81 -0.8325,0 -1.35,0.5175 -1.1025,1.1025 -1.1025,3.555 0,2.0025 0.27,2.7675 0.225,0.675 0.765,1.1475 0.54,0.4725 1.2825,0.4725 1.1475,0 1.755,-0.855 0.3375,-0.4725 0.4275,-1.125 0.09,-0.6525 0.09,-1.89 l 0,-0.36 0,-0.36 q 0,-1.2825 -0.09,-1.935 -0.09,-0.6525 -0.4275,-1.125 z"
       style="font-style:normal;font-variant:normal;font-weight:normal;font-stretch:normal;font-size:22.5px;line-height:125%;font-family:KaTeX_Main;-inkscape-font-specification:'KaTeX_Main, Normal';text-align:start;letter-spacing:1;writing-mode:lr-tb;text-anchor:start"
       id="path4344" /><path
       d="m 195.495,114.356 q 0,0.2925 -0.1575,0.45 l -4.185,0 0,-0.045 q -0.0225,-0.0225 -0.36,-1.9575 l -0.3825,-1.935 0,-0.045 0.9,0 0.0225,0.1125 q 0,0.1125 0.09,0.4275 0.1575,1.0125 0.3375,1.35 0.09,0.1125 0.1575,0.1575 0.2925,0.1125 1.5075,0.135 l 0.99,0 0,-0.0675 q -0.1125,-0.36 -0.495,-1.1925 -0.36,-0.6975 -1.2375,-2.07 -1.44,-2.3175 -1.8,-3.5325 -0.225,-0.8325 -0.225,-1.5525 0,-0.675 0.18,-1.2825 0.495,-1.6875 2.0925,-2.9025 1.5975,-1.2375 3.735,-1.4175 0.135,-0.0225 0.3375,-0.0225 l 0.3375,0 q 3.1725,0 5.1975,1.7325 1.2825,1.125 1.6875,2.61 0.18,0.6075 0.18,1.2825 0,0.72 -0.225,1.5525 -0.36,1.215 -1.8,3.5325 -0.8775,1.3725 -1.2375,2.07 -0.3825,0.8325 -0.495,1.1925 l 0,0.0675 0.99,0 q 1.215,-0.0225 1.5075,-0.135 0.09,-0.045 0.1575,-0.1575 0.1575,-0.3375 0.3375,-1.35 0.09,-0.315 0.09,-0.4275 l 0.0225,-0.1125 0.9,0 0,0.045 -0.3825,1.935 q -0.3375,1.935 -0.36,1.9575 l 0,0.045 -2.07,0 q -1.665,0 -1.935,0 -0.2475,-0.0225 -0.2925,-0.135 -0.045,-0.09 -0.045,-0.315 0,-0.6525 0.2025,-1.7775 0.18,-0.9 0.8775,-3.0375 0.72,-2.1825 0.945,-3.42 0.1575,-0.945 0.1575,-1.5525 0,-3.1725 -2.3175,-4.3425 -0.945,-0.45 -1.89,-0.45 -2.295,0 -3.51,1.9125 -0.6975,1.1025 -0.6975,2.8575 0,0.765 0.135,1.575 0.225,1.2375 0.945,3.42 0.6975,2.1375 0.8775,3.0375 0.2025,1.1025 0.2025,1.7775 z"
       style="font-style:normal;font-variant:normal;font-weight:normal;font-stretch:normal;font-size:22.5px;line-height:125%;font-family:KaTeX_Main;-inkscape-font-specification:'KaTeX_Main, Normal';text-align:start;writing-mode:lr-tb;text-anchor:start"
       id="path4346" /></g><g
     style="font-style:normal;font-variant:normal;font-weight:normal;font-stretch:normal;font-size:22.5px;line-height:125%;font-family:KaTeX_Main;-inkscape-font-specification:'KaTeX_Main, Normal';text-align:start;writing-mode:lr-tb;text-anchor:start"
     id="text4587"><path
       d="m 316.0274,109.991 q 0.54,0 0.9,0.3825 0.3825,0.36 0.3825,0.9225 0,0.5175 -0.3825,0.8775 -0.3825,0.36 -0.855,0.36 l -0.1575,0 0.0675,0.1125 q 0.3375,0.72 1.035,1.1925 0.6975,0.4725 1.6425,0.4725 1.5975,0 2.295,-1.35 0.4275,-0.8325 0.4275,-2.88 0,-2.3175 -0.6075,-3.1275 -0.585,-0.7425 -1.44,-0.7425 -1.755,0 -2.655,1.53 -0.09,0.1575 -0.18,0.2025 -0.0675,0.0225 -0.315,0.0225 -0.3825,0 -0.4275,-0.135 -0.045,-0.09 -0.045,-3.9375 0,-0.675 -0.0225,-1.5975 0,-0.9225 0,-1.17 0,-1.26 0.135,-1.26 0.045,-0.045 0.09,-0.045 l 0.405,0.135 q 1.4625,0.585 2.9925,0.585 1.5975,0 3.06,-0.63 0.18,-0.09 0.2925,-0.09 0.18,0 0.18,0.405 l 0,0.2925 q -1.8225,2.1825 -4.6125,2.1825 -0.6975,0 -1.26,-0.135 l -0.225,-0.045 0,3.87 q 1.2825,-1.035 2.6325,-1.035 0.4275,0 0.9225,0.1125 1.5075,0.3825 2.4525,1.71 0.9675,1.3275 0.9675,3.105 0,2.0475 -1.44,3.5325 -1.4175,1.485 -3.51,1.485 -1.4175,0 -2.4075,-0.7875 -0.4275,-0.27 -0.7425,-0.7425 -0.675,-0.81 -0.855,-2.0025 0,-0.0675 -0.0225,-0.2025 0,-0.1575 0,-0.225 0,-0.63 0.36,-0.99 0.36,-0.36 0.9225,-0.36 z"
       style="font-style:normal;font-variant:normal;font-weight:normal;font-stretch:normal;font-size:22.5px;line-height:125%;font-family:KaTeX_Main;-inkscape-font-specification:'KaTeX_Main, Normal';text-align:start;letter-spacing:1;writing-mode:lr-tb;text-anchor:start"
       id="path4339" /><path
       d="m 333.49489,114.356 q 0,0.2925 -0.1575,0.45 l -4.185,0 0,-0.045 q -0.0225,-0.0225 -0.36,-1.9575 l -0.3825,-1.935 0,-0.045 0.9,0 0.0225,0.1125 q 0,0.1125 0.09,0.4275 0.1575,1.0125 0.3375,1.35 0.09,0.1125 0.1575,0.1575 0.2925,0.1125 1.5075,0.135 l 0.99,0 0,-0.0675 q -0.1125,-0.36 -0.495,-1.1925 -0.36,-0.6975 -1.2375,-2.07 -1.44,-2.3175 -1.8,-3.5325 -0.225,-0.8325 -0.225,-1.5525 0,-0.675 0.18,-1.2825 0.495,-1.6875 2.0925,-2.9025 1.5975,-1.2375 3.735,-1.4175 0.135,-0.0225 0.3375,-0.0225 l 0.3375,0 q 3.1725,0 5.1975,1.7325 1.2825,1.125 1.6875,2.61 0.18,0.6075 0.18,1.2825 0,0.72 -0.225,1.5525 -0.36,1.215 -1.8,3.5325 -0.8775,1.3725 -1.2375,2.07 -0.3825,0.8325 -0.495,1.1925 l 0,0.0675 0.99,0 q 1.215,-0.0225 1.5075,-0.135 0.09,-0.045 0.1575,-0.1575 0.1575,-0.3375 0.3375,-1.35 0.09,-0.315 0.09,-0.4275 l 0.0225,-0.1125 0.9,0 0,0.045 -0.3825,1.935 q -0.3375,1.935 -0.36,1.9575 l 0,0.045 -2.07,0 q -1.665,0 -1.935,0 -0.2475,-0.0225 -0.2925,-0.135 -0.045,-0.09 -0.045,-0.315 0,-0.6525 0.2025,-1.7775 0.18,-0.9 0.8775,-3.0375 0.72,-2.1825 0.945,-3.42 0.1575,-0.945 0.1575,-1.5525 0,-3.1725 -2.3175,-4.3425 -0.945,-0.45 -1.89,-0.45 -2.295,0 -3.51,1.9125 -0.6975,1.1025 -0.6975,2.8575 0,0.765 0.135,1.575 0.225,1.2375 0.945,3.42 0.6975,2.1375 0.8775,3.0375 0.2025,1.1025 0.2025,1.7775 z"
       style="font-style:normal;font-variant:normal;font-weight:normal;font-stretch:normal;font-size:22.5px;line-height:125%;font-family:KaTeX_Main;-inkscape-font-specification:'KaTeX_Main, Normal';text-align:start;writing-mode:lr-tb;text-anchor:start"
       id="path4341" /></g><g
     style="font-style:normal;font-variant:normal;font-weight:normal;font-stretch:normal;font-size:22.5px;line-height:125%;font-family:KaTeX_Main;-inkscape-font-specification:'KaTeX_Main, Normal';text-align:start;writing-mode:lr-tb;text-anchor:start"
     id="text4593"><path
       d="m 406.9799,114.806 q -0.3825,-0.0675 -3.5775,-0.0675 -3.15,0 -3.5325,0.0675 l -0.27,0 0,-1.035 0.585,0 q 1.305,0 1.6875,-0.0675 0.18,-0.0225 0.54,-0.27 l 0,-11.6325 q -0.045,0 -0.18,0.0675 -1.035,0.405 -2.3175,0.4275 l -0.4275,0 0,-1.035 0.4275,0 q 1.89,-0.0675 3.15,-0.855 0.405,-0.225 0.6975,-0.5175 0.045,-0.0675 0.27,-0.0675 0.225,0 0.3825,0.135 l 0,6.7275 0.0225,6.75 q 0.3375,0.3375 1.4625,0.3375 l 0.7425,0 0.585,0 0,1.035 -0.2475,0 z"
       style="font-style:normal;font-variant:normal;font-weight:normal;font-stretch:normal;font-size:22.5px;line-height:125%;font-family:KaTeX_Main;-inkscape-font-specification:'KaTeX_Main, Normal';text-align:start;writing-mode:lr-tb;text-anchor:start"
       id="path4332" /><path
       d="m 410.4899,107.2685 q -1.1025,-0.72 -1.71,-1.5075 -0.585,-0.7875 -0.585,-2.07 0,-0.9675 0.36,-1.62 0.495,-1.0125 1.44,-1.62 0.9675,-0.63 2.205,-0.63 1.53,0 2.655,0.81 1.125,0.7875 1.395,2.0475 0.0225,0.135 0.0225,0.54 0,0.495 -0.045,0.675 -0.3375,1.485 -2.0475,2.565 l -0.27,0.18 q 1.26,0.855 1.305,0.9 1.6875,1.35 1.6875,3.3525 0,1.8225 -1.35,3.1275 -1.3275,1.2825 -3.33,1.2825 -2.7675,0 -4.0725,-2.025 -0.5625,-0.81 -0.5625,-1.9575 0,-2.4525 2.9025,-4.05 z m 4.4775,-4.005 q 0,-0.9675 -0.63,-1.6425 -0.63,-0.675 -1.53,-0.855 -0.1575,-0.0225 -0.7425,-0.0225 -1.1925,0 -2.0025,0.81 -0.5625,0.5175 -0.5625,1.2375 0,0.9675 0.81,1.53 0.1125,0.1125 1.44,0.945 l 1.305,0.855 q 0.0225,-0.0225 0.2925,-0.18 0.27,-0.18 0.405,-0.315 1.215,-0.9675 1.215,-2.3625 z m -5.94,8.01 q 0,1.3275 0.9675,2.205 0.9675,0.855 2.25,0.855 0.9225,0 1.665,-0.3825 0.765,-0.3825 1.1475,-0.99 0.3825,-0.585 0.3825,-1.2375 0,-0.9675 -0.7875,-1.71 -0.18,-0.18 -1.8675,-1.2825 -0.315,-0.2025 -0.6975,-0.4275 -0.36,-0.2475 -0.5625,-0.3825 l -0.18,-0.1125 -0.27,0.135 q -1.4175,0.9225 -1.8675,2.25 -0.18,0.585 -0.18,1.08 z"
       style="font-style:normal;font-variant:normal;font-weight:normal;font-stretch:normal;font-size:22.5px;line-height:125%;font-family:KaTeX_Main;-inkscape-font-specification:'KaTeX_Main, Normal';text-align:start;letter-spacing:1;writing-mode:lr-tb;text-anchor:start"
       id="path4334" /><path
       d="m 426.15739,114.806 q -0.405,-0.0675 -2.5875,-0.0675 -2.0025,0 -2.2725,0.0675 l -0.1575,0 0,-1.035 0.3375,0 q 1.62,-0.0675 2.07,-0.945 0.0225,-0.0675 1.1925,-3.5325 1.17,-3.4875 2.3175,-6.93 1.17,-3.465 1.1925,-3.4875 0.0675,-0.18 0.4275,-0.18 l 0.2025,0 q 0.45,0.0225 0.54,0.1575 0.0225,0.0225 2.1825,6.435 2.1825,6.4125 2.7,8.01 0.0675,0.135 0.1575,0.225 0.2475,0.225 1.4175,0.2475 l 0.675,0 0,1.035 -0.2025,0 q -0.3375,-0.0675 -2.8575,-0.0675 -2.9025,0 -3.24,0.0675 l -0.225,0 0,-1.035 0.2925,0 q 1.575,0 1.575,-0.405 0,-0.045 -0.54,-1.665 l -0.54,-1.5975 -5.2425,0 -0.45,1.3275 q -0.45,1.3275 -0.45,1.4625 0,0.1125 0.0675,0.2025 0.135,0.2925 0.5625,0.495 0.45,0.18 0.945,0.18 l 0.1125,0 0,1.035 -0.2025,0 z m 3.6225,-7.8075 q -0.6525,-1.9575 -1.1475,-3.3975 l -0.45,-1.3275 -1.125,3.375 -1.1475,3.3975 q 0,0.0225 2.2725,0.0225 l 2.295,0 -0.6975,-2.07 z"
       style="font-style:normal;font-variant:normal;font-weight:normal;font-stretch:normal;font-size:22.5px;line-height:125%;font-family:KaTeX_Main;-inkscape-font-specification:'KaTeX_Main, Normal';text-align:start;writing-mode:lr-tb;text-anchor:start"
       id="path4336" /></g><g
     style="font-style:normal;font-variant:normal;font-weight:normal;font-stretch:normal;font-size:22.5px;line-height:125%;font-family:KaTeX_Main;-inkscape-font-specification:'KaTeX_Main, Normal';text-align:start;writing-mode:lr-tb;text-anchor:start;fill:#e07d10"
     id="text4601"><path
       d="m 11.499193,107.0535 q -1.44,0 -2.2950004,-0.72 -0.8325,-0.7425 -0.8325,-2.16 0,-0.405 0.045,-0.765 0.2025,-1.08 1.0575,-3.3075 l 0.36,-1.08 q 0.135,-0.405 0.135,-0.765 0,-0.5625 -0.4275,-0.5625 -0.1575,0 -0.36,0.0675 -1.1475,0.405 -1.7325,2.5875 0,0.0225 -0.0225,0.09 -0.0225,0.045 -0.045,0.0675 0,0 -0.0225,0.0225 -0.0225,0.0225 -0.09,0.0225 -0.045,0 -0.09,0 -0.045,0 -0.18,0 l -0.315,0 q -0.135,-0.135 -0.135,-0.2025 0,-0.0675 0.0675,-0.3375 0.54,-1.7775 1.665,-2.655 0.6075,-0.4725 1.395,-0.4725 0.8775004,0 1.4400004,0.495 0.5625,0.495 0.5625,1.305 0,0.3825 -0.0675,0.585 0,0.1575 -0.3375,0.99 -1.035,2.8125 -1.1025,4.005 0,0.6075 0.1125,0.99 0.2925,0.9675 1.4175,0.9675 0.6075,0 1.08,-0.36 1.395,-0.9225 2.3175,-4.2525 0.18,-0.63 0.18,-1.035 0,-0.99 -0.8775,-1.7775 -0.2925,-0.27 -0.2925,-0.6075 0,-0.5175 0.405,-0.9225 0.4275,-0.4275 0.945,-0.4275 0.54,0 0.8325,0.5175 0.2925,0.495 0.2925,1.1925 0,0.7875 -0.45,2.5875 -0.4275,1.7325 -1.08,3.015 -1.4175,2.9025 -3.555,2.9025 z"
       style="font-style:normal;font-variant:normal;font-weight:normal;font-stretch:normal;font-size:22.5px;line-height:125%;font-family:KaTeX_Math;-inkscape-font-specification:'KaTeX_Math, Normal';text-align:start;writing-mode:lr-tb;text-anchor:start"
       id="path4325" /><path
       d="m 18.64238,102.2385 q -0.160875,-0.16087 -0.2925,-0.19012 -0.131625,-0.0439 -0.67275,-0.0585 l -0.424125,0 0,-0.67275 0.131625,0 q 0.20475,0.0439 1.8135,0.0439 1.755,0 2.07675,-0.0439 l 0.160875,0 0,0.67275 -0.307125,0 q -0.67275,0.0146 -0.833625,0.16087 -0.0585,0.0439 -0.0585,0.0877 0,0.0293 1.31625,3.627 1.31625,3.59775 1.330875,3.59775 0.570375,-1.53563 1.25775,-3.393 1.243125,-3.36375 1.243125,-3.49537 0,-0.27788 -0.307125,-0.42413 -0.307125,-0.16087 -0.67275,-0.16087 l -0.07313,0 0,-0.67275 0.131625,0 q 0.248625,0.0439 1.681874,0.0439 1.25775,0 1.418625,-0.0439 l 0.08775,0 0,0.67275 -0.102375,0 q -1.08225,0 -1.404,0.59962 0,0.0146 -1.652624,4.46063 -1.638,4.44599 -1.652625,4.46062 -0.04387,0.117 -0.26325,0.117 l -0.131625,0 -0.131625,0 q -0.20475,0 -0.248625,-0.117 -0.02925,-0.0293 -1.711125,-4.63612 -1.711125,-4.59225 -1.711125,-4.63613 z"
       style="font-size:64.99999762%;baseline-shift:sub"
       id="path4327" /><path
       d="m 29.245505,107.98612 q 0.08775,0.0877 0.08775,0.19013 0,1.30162 0.833625,2.0475 0.84825,0.73125 2.237625,0.73125 0.1755,0 0.234,-0.0146 0.6435,-0.13162 1.038375,-0.65812 0.4095,-0.5265 0.4095,-1.24313 0,-0.62887 -0.336375,-1.14075 -0.32175,-0.52649 -0.833625,-0.70199 -0.819,-0.20475 -1.08225,-0.27788 -1.096875,-0.26325 -1.126125,-0.27787 -0.84825,-0.2925 -1.404,-1.02375 -0.55575,-0.74588 -0.55575,-1.72575 0,-0.8775 0.453375,-1.56488 0.453375,-0.68737 1.126125,-1.02375 0.585,-0.2925 1.17,-0.2925 1.155375,0 1.872,0.49725 0.219375,0.14625 0.49725,0.42413 L 34.17413,101.478 q 0.07313,-0.10237 0.14625,-0.21937 0.08775,-0.117 0.14625,-0.19013 l 0.04387,-0.0585 q 0.01462,0 0.0585,0 0.04387,-0.0146 0.08775,-0.0146 0.102375,0 0.190125,0.0877 l 0,3.46612 -0.08775,0.0877 -0.26325,0 q -0.160875,0 -0.190125,-0.0439 -0.02925,-0.0439 -0.07312,-0.2925 -0.248625,-1.84275 -1.477125,-2.44238 -0.541125,-0.234 -1.096875,-0.234 -0.7605,0 -1.25775,0.49725 -0.482625,0.48263 -0.482625,1.25775 0,0.49725 0.248625,0.92138 0.248625,0.4095 0.702,0.6435 0.14625,0.0731 1.37475,0.36562 1.038375,0.27788 1.1115,0.30713 0.833625,0.32175 1.360125,1.09687 0.541125,0.7605 0.541125,1.79887 0,1.19925 -0.658125,2.03288 -0.658125,0.819 -1.72575,1.03837 -0.14625,0.0292 -0.5265,0.0292 -1.55025,0 -2.5155,-0.84825 -0.07312,-0.0731 -0.102375,-0.0585 -0.0585,0.0731 -0.219375,0.30713 -0.160875,0.21937 -0.2925,0.39487 -0.131625,0.19013 -0.131625,0.20475 -0.02925,0.0146 -0.14625,0.0146 -0.102375,0 -0.190125,-0.0877 l 0,-1.71113 q 0,-1.74037 0.01462,-1.76962 0.02925,-0.0731 0.2925,-0.0731 l 0.190125,0 z"
       style="font-size:64.99999762%;baseline-shift:sub"
       id="path4329" /></g><g
     style="font-style:normal;font-variant:normal;font-weight:normal;font-stretch:normal;font-size:22.5px;line-height:125%;font-family:KaTeX_Main;-inkscape-font-specification:'KaTeX_Main, Normal';text-align:start;writing-mode:lr-tb;text-anchor:start;fill:#11accd"
     id="text4605"><path
       d="m 231.48941,56.849403 q 0,-0.5175 0.4275,-0.945 0.4275,-0.4275 0.99,-0.4275 0.405,0 0.675,0.27 0.2925,0.27 0.2925,0.675 0,0.495 -0.45,0.945 -0.45,0.45 -0.99,0.45 -0.405,0 -0.675,-0.27 -0.27,-0.27 -0.27,-0.6975 z m -0.5175,13.7475 q -0.8775,0 -1.4175,-0.5175 -0.54,-0.5175 -0.54,-1.395 0,-0.3825 0.045,-0.5175 0,-0.045 1.035,-2.7675 1.035,-2.745 1.035,-2.79 0.1125,-0.36 0.1125,-0.81 0,-0.54 -0.3825,-0.54 l -0.045,0 q -0.54,0 -1.035,0.5175 -0.72,0.7425 -1.0575,2.115 0,0.0225 -0.0225,0.09 -0.0225,0.045 -0.045,0.0675 0,0 -0.0225,0.0225 -0.0225,0.0225 -0.09,0.0225 -0.045,0 -0.09,0 -0.045,0 -0.18,0 l -0.315,0 q -0.135,-0.135 -0.135,-0.2025 0,-0.0675 0.0675,-0.315 0.585,-1.935 1.71,-2.7 0.6075,-0.4725 1.305,-0.4725 0.9,0 1.485,0.5175 0.585,0.5175 0.585,1.395 0,0.2925 -0.1125,0.675 -0.0225,0.045 -1.035,2.7675 l -1.0125,2.7225 q -0.1125,0.495 -0.1125,0.72 0,0.5625 0.3825,0.5625 0.315,0 0.5625,-0.135 0.99,-0.4725 1.5525,-2.3625 0.0675,-0.27 0.1125,-0.315 0.0675,-0.045 0.3825,-0.045 0.2025,0 0.27,0.0225 0.09,0 0.135,0.045 0.045,0.045 0.045,0.1575 0,0.09 -0.0675,0.2925 -0.4275,1.2825 -1.2375,2.2275 -0.7875,0.945 -1.8675,0.945 z"
       style="font-style:normal;font-variant:normal;font-weight:normal;font-stretch:normal;font-size:22.5px;line-height:125%;font-family:KaTeX_Math;-inkscape-font-specification:'KaTeX_Math, Normal';text-align:start;writing-mode:lr-tb;text-anchor:start"
       id="path4320" /><path
       d="m 236.73648,68.575279 q -0.4095,0 -0.6435,-0.26325 -0.234,-0.26325 -0.234,-0.6435 0,-1.053 0.78975,-1.798875 0.80438,-0.7605 1.91588,-0.7605 1.25775,0 2.07675,0.687375 0.83362,0.67275 1.02375,1.769625 0.0292,0.26325 0.0292,0.482625 0,0.84825 -0.51188,1.594125 -0.4095,0.61425 -1.65262,1.681875 -0.5265,0.453375 -1.4625,1.3455 l -0.86288,0.818999 1.1115,0.01462 q 2.29613,0 2.44238,-0.07312 0.0585,-0.01463 0.14625,-0.307125 0.0585,-0.160874 0.20475,-0.994499 l 0,-0.04387 0.585,0 0,0.04387 -0.4095,2.676374 0,0.04387 -5.42588,0 0,-0.277875 q 0,-0.2925 0.0292,-0.336375 0.0146,-0.01462 1.2285,-1.389374 1.59413,-1.769625 2.0475,-2.34 0.97988,-1.330875 0.97988,-2.442375 0,-0.96525 -0.51188,-1.60875 -0.49725,-0.658125 -1.404,-0.658125 -0.84825,0 -1.37475,0.7605 -0.0292,0.0585 -0.0877,0.160875 -0.0439,0.07312 -0.0439,0.08775 0,0.01462 0.0731,0.01462 0.36563,0 0.585,0.26325 0.234,0.26325 0.234,0.61425 0,0.365625 -0.24862,0.628875 -0.234,0.248625 -0.62888,0.248625 z"
       style="font-size:64.99999762%;baseline-shift:sub"
       id="path4322" /></g><g
     style="font-style:normal;font-variant:normal;font-weight:normal;font-stretch:normal;font-size:22.5px;line-height:125%;font-family:KaTeX_Main;-inkscape-font-specification:'KaTeX_Main, Normal';text-align:start;writing-mode:lr-tb;text-anchor:start;fill:#e07d10"
     id="text4609"><path
       d="m 267.22509,99.1085 q 0.1125,0.045 1.08,0.045 l 0.81,0 q 1.2825,0 1.8225,-0.045 l 0.1125,0 0,1.035 -0.2475,0 q -1.26,0.0675 -1.665,0.9 -0.045,0.09 -1.53,3.8925 -1.4625,3.8025 -1.5075,3.915 -0.1125,0.2025 -0.5625,0.2025 -0.4275,0 -0.54,-0.2025 -3.15,-8.1225 -3.1725,-8.235 -0.09,-0.225 -0.27,-0.315 -0.1575,-0.09 -0.2925,-0.1125 -0.135,-0.0225 -0.675,-0.045 l -0.54,0 0,-1.035 0.135,0 q 0.225,0.0675 2.1825,0.0675 2.1375,0 2.475,-0.0675 l 0.18,0 0,1.035 -0.315,0 q -0.8775,0.0225 -0.945,0.3375 0,0.09 1.1475,3.06 l 1.1475,2.97 q 0.6975,-1.7775 2.0475,-5.3775 l 0,-0.18 q 0,-0.36 -0.2925,-0.585 -0.2925,-0.225 -0.6525,-0.225 l -0.09,0 0,-1.035 0.1575,0 z"
       style="font-style:normal;font-variant:normal;font-weight:normal;font-stretch:normal;font-size:22.5px;line-height:125%;font-family:KaTeX_Main;-inkscape-font-specification:'KaTeX_Main, Normal';text-align:start;writing-mode:lr-tb;text-anchor:start;fill:#e07d10"
       id="path4315" /><path
       d="m 273.13802,107.03188 q -0.4095,0 -0.6435,-0.26325 -0.234,-0.26325 -0.234,-0.6435 0,-1.053 0.78975,-1.79888 0.80437,-0.7605 1.91587,-0.7605 1.25775,0 2.07675,0.68738 0.83363,0.67275 1.02375,1.76962 0.0292,0.26325 0.0292,0.48263 0,0.84825 -0.51187,1.59412 -0.4095,0.61425 -1.65263,1.68187 -0.5265,0.45338 -1.4625,1.3455 l -0.86287,0.819 1.1115,0.0146 q 2.29612,0 2.44237,-0.0731 0.0585,-0.0146 0.14625,-0.30712 0.0585,-0.16088 0.20475,-0.9945 l 0,-0.0439 0.585,0 0,0.0439 -0.4095,2.67637 0,0.0439 -5.42587,0 0,-0.27788 q 0,-0.2925 0.0292,-0.33637 0.0146,-0.0146 1.2285,-1.38938 1.59412,-1.76962 2.0475,-2.33999 0.97987,-1.33088 0.97987,-2.44238 0,-0.96525 -0.51187,-1.60875 -0.49725,-0.65812 -1.404,-0.65812 -0.84825,0 -1.37475,0.7605 -0.0292,0.0585 -0.0878,0.16087 -0.0439,0.0731 -0.0439,0.0877 0,0.0146 0.0731,0.0146 0.36562,0 0.585,0.26325 0.234,0.26325 0.234,0.61425 0,0.36562 -0.24863,0.62887 -0.234,0.24863 -0.62887,0.24863 z"
       style="font-size:64.99999762%;baseline-shift:sub"
       id="path4317" /></g><g
     style="font-style:normal;font-variant:normal;font-weight:normal;font-stretch:normal;font-size:22.5px;line-height:125%;font-family:KaTeX_Main;-inkscape-font-specification:'KaTeX_Main, Normal';text-align:start;writing-mode:lr-tb;text-anchor:start;fill:#11accd"
     id="text4613"><path
       d="m 309.30299,56.849403 q 0,-0.5175 0.4275,-0.945 0.4275,-0.4275 0.99,-0.4275 0.405,0 0.675,0.27 0.2925,0.27 0.2925,0.675 0,0.495 -0.45,0.945 -0.45,0.45 -0.99,0.45 -0.405,0 -0.675,-0.27 -0.27,-0.27 -0.27,-0.6975 z m -0.5175,13.7475 q -0.8775,0 -1.4175,-0.5175 -0.54,-0.5175 -0.54,-1.395 0,-0.3825 0.045,-0.5175 0,-0.045 1.035,-2.7675 1.035,-2.745 1.035,-2.79 0.1125,-0.36 0.1125,-0.81 0,-0.54 -0.3825,-0.54 l -0.045,0 q -0.54,0 -1.035,0.5175 -0.72,0.7425 -1.0575,2.115 0,0.0225 -0.0225,0.09 -0.0225,0.045 -0.045,0.0675 0,0 -0.0225,0.0225 -0.0225,0.0225 -0.09,0.0225 -0.045,0 -0.09,0 -0.045,0 -0.18,0 l -0.315,0 q -0.135,-0.135 -0.135,-0.2025 0,-0.0675 0.0675,-0.315 0.585,-1.935 1.71,-2.7 0.6075,-0.4725 1.305,-0.4725 0.9,0 1.485,0.5175 0.585,0.5175 0.585,1.395 0,0.2925 -0.1125,0.675 -0.0225,0.045 -1.035,2.7675 l -1.0125,2.7225 q -0.1125,0.495 -0.1125,0.72 0,0.5625 0.3825,0.5625 0.315,0 0.5625,-0.135 0.99,-0.4725 1.5525,-2.3625 0.0675,-0.27 0.1125,-0.315 0.0675,-0.045 0.3825,-0.045 0.2025,0 0.27,0.0225 0.09,0 0.135,0.045 0.045,0.045 0.045,0.1575 0,0.09 -0.0675,0.2925 -0.4275,1.2825 -1.2375,2.2275 -0.7875,0.945 -1.8675,0.945 z"
       style="font-style:normal;font-variant:normal;font-weight:normal;font-stretch:normal;font-size:22.5px;line-height:125%;font-family:KaTeX_Math;-inkscape-font-specification:'KaTeX_Math, Normal';text-align:start;writing-mode:lr-tb;text-anchor:start"
       id="path4310" /><path
       d="m 314.79869,68.078029 q -0.39488,0 -0.62888,-0.248625 -0.21937,-0.248625 -0.21937,-0.6435 0,-0.833625 0.65812,-1.389375 0.65813,-0.570375 1.521,-0.67275 l 0.21938,0 q 0.51187,0 0.6435,0.01462 0.48262,0.07313 0.97987,0.307125 0.96525,0.482625 1.21388,1.37475 0.0439,0.14625 0.0439,0.394875 0,0.862875 -0.54112,1.55025 -0.5265,0.67275 -1.33088,0.96525 -0.0731,0.02925 0,0.04387 0.0292,0.01462 0.14625,0.04387 0.89213,0.248625 1.50638,0.936 0.61425,0.67275 0.61425,1.535625 0,0.599625 -0.27788,1.155374 -0.351,0.745875 -1.15537,1.243125 -0.78975,0.482625 -1.76963,0.482625 -0.96525,0 -1.71112,-0.4095 -0.74588,-0.4095 -1.00913,-1.096875 -0.14625,-0.307125 -0.14625,-0.716624 0,-0.4095 0.26325,-0.658125 0.27788,-0.26325 0.65813,-0.26325 0.4095,0 0.67275,0.26325 0.26325,0.26325 0.26325,0.658125 0,0.336374 -0.19013,0.584999 -0.19012,0.248625 -0.51187,0.32175 l -0.10238,0.02925 q 0.78975,0.658125 1.8135,0.658125 0.80438,0 1.21388,-0.775125 0.24862,-0.482625 0.24862,-1.477124 l 0,-0.2925 q 0,-1.389375 -0.936,-1.857375 -0.21937,-0.08775 -0.89212,-0.102375 l -0.61425,-0.01462 -0.0439,-0.02925 q -0.0292,-0.04387 -0.0292,-0.234 0,-0.1755 0.0439,-0.219375 0.0439,-0.04387 0.0731,-0.04387 0.4095,0 0.84825,-0.07313 0.6435,-0.08775 0.97988,-0.716625 0.33637,-0.6435 0.33637,-1.535625 0,-0.950625 -0.51187,-1.272375 -0.30713,-0.20475 -0.68738,-0.20475 -0.73125,0 -1.287,0.394875 -0.0585,0.02925 -0.13162,0.102375 -0.0731,0.0585 -0.117,0.117 l -0.0439,0.0585 q 0.0439,0.01462 0.10238,0.02925 0.2925,0.02925 0.48262,0.277875 0.20475,0.248625 0.20475,0.570375 0,0.351 -0.24862,0.599625 -0.234,0.234 -0.61425,0.234 z"
       style="font-size:64.99999762%;baseline-shift:sub"
       id="path4312" /></g><g
     style="font-style:normal;font-variant:normal;font-weight:normal;font-stretch:normal;font-size:22.5px;line-height:125%;font-family:KaTeX_Main;-inkscape-font-specification:'KaTeX_Main, Normal';text-align:start;writing-mode:lr-tb;text-anchor:start;fill:#11accd"
     id="text4617"><path
       d="m 387.30299,56.849403 q 0,-0.5175 0.4275,-0.945 0.4275,-0.4275 0.99,-0.4275 0.405,0 0.675,0.27 0.2925,0.27 0.2925,0.675 0,0.495 -0.45,0.945 -0.45,0.45 -0.99,0.45 -0.405,0 -0.675,-0.27 -0.27,-0.27 -0.27,-0.6975 z m -0.5175,13.7475 q -0.8775,0 -1.4175,-0.5175 -0.54,-0.5175 -0.54,-1.395 0,-0.3825 0.045,-0.5175 0,-0.045 1.035,-2.7675 1.035,-2.745 1.035,-2.79 0.1125,-0.36 0.1125,-0.81 0,-0.54 -0.3825,-0.54 l -0.045,0 q -0.54,0 -1.035,0.5175 -0.72,0.7425 -1.0575,2.115 0,0.0225 -0.0225,0.09 -0.0225,0.045 -0.045,0.0675 0,0 -0.0225,0.0225 -0.0225,0.0225 -0.09,0.0225 -0.045,0 -0.09,0 -0.045,0 -0.18,0 l -0.315,0 q -0.135,-0.135 -0.135,-0.2025 0,-0.0675 0.0675,-0.315 0.585,-1.935 1.71,-2.7 0.6075,-0.4725 1.305,-0.4725 0.9,0 1.485,0.5175 0.585,0.5175 0.585,1.395 0,0.2925 -0.1125,0.675 -0.0225,0.045 -1.035,2.7675 l -1.0125,2.7225 q -0.1125,0.495 -0.1125,0.72 0,0.5625 0.3825,0.5625 0.315,0 0.5625,-0.135 0.99,-0.4725 1.5525,-2.3625 0.0675,-0.27 0.1125,-0.315 0.0675,-0.045 0.3825,-0.045 0.2025,0 0.27,0.0225 0.09,0 0.135,0.045 0.045,0.045 0.045,0.1575 0,0.09 -0.0675,0.2925 -0.4275,1.2825 -1.2375,2.2275 -0.7875,0.945 -1.8675,0.945 z"
       style="font-style:normal;font-variant:normal;font-weight:normal;font-stretch:normal;font-size:22.5px;line-height:125%;font-family:KaTeX_Math;-inkscape-font-specification:'KaTeX_Math, Normal';text-align:start;writing-mode:lr-tb;text-anchor:start"
       id="path4303" /><path
       d="m 395.73831,74.849403 q -0.234,-0.04387 -2.1645,-0.04387 -1.9305,0 -2.1645,0.04387 l -0.16087,0 0,-0.67275 0.32175,0 q 0.57037,0 0.96525,-0.04387 0.1755,-0.04387 0.24862,-0.160875 0.0292,-0.04387 0.0292,-4.124249 0,-4.06575 -0.0292,-4.109625 -0.0731,-0.117 -0.24862,-0.160875 -0.39488,-0.04387 -0.96525,-0.04387 l -0.32175,0 0,-0.67275 0.16087,0 q 0.234,0.04387 2.1645,0.04387 1.9305,0 2.1645,-0.04387 l 0.16088,0 0,0.67275 -0.32175,0 q -0.57038,0 -0.96525,0.04387 -0.1755,0.04387 -0.24863,0.160875 -0.0292,0.04387 -0.0292,4.109625 0,4.080374 0.0292,4.124249 0.0731,0.117 0.24863,0.160875 0.39487,0.04387 0.96525,0.04387 l 0.32175,0 0,0.67275 -0.16088,0 z"
       style="font-size:64.99999762%;baseline-shift:sub"
       id="path4305" /><path
       d="m 397.52736,71.529529 q 0.0878,0.08775 0.0878,0.190125 0,1.301625 0.83363,2.047499 0.84825,0.73125 2.23762,0.73125 0.1755,0 0.234,-0.01462 0.6435,-0.131625 1.03838,-0.658125 0.4095,-0.5265 0.4095,-1.243124 0,-0.628875 -0.33638,-1.14075 -0.32175,-0.5265 -0.83362,-0.702 -0.819,-0.20475 -1.08225,-0.277875 -1.09688,-0.26325 -1.12613,-0.277875 -0.84825,-0.2925 -1.404,-1.02375 -0.55575,-0.745875 -0.55575,-1.72575 0,-0.8775 0.45338,-1.564875 0.45337,-0.687375 1.12612,-1.02375 0.585,-0.2925 1.17,-0.2925 1.15538,0 1.872,0.49725 0.21938,0.14625 0.49725,0.424125 l 0.30713,-0.453375 q 0.0731,-0.102375 0.14625,-0.219375 0.0878,-0.117 0.14625,-0.190125 l 0.0439,-0.0585 q 0.0146,0 0.0585,0 0.0439,-0.01462 0.0877,-0.01462 0.10238,0 0.19013,0.08775 l 0,3.466125 -0.0877,0.08775 -0.26325,0 q -0.16088,0 -0.19013,-0.04387 -0.0292,-0.04387 -0.0731,-0.2925 -0.24863,-1.84275 -1.47713,-2.442375 -0.54112,-0.234 -1.09687,-0.234 -0.7605,0 -1.25775,0.49725 -0.48263,0.482625 -0.48263,1.25775 0,0.49725 0.24863,0.921375 0.24862,0.4095 0.702,0.6435 0.14625,0.07313 1.37475,0.365625 1.03837,0.277875 1.1115,0.307125 0.83362,0.32175 1.36012,1.096875 0.54113,0.7605 0.54113,1.798875 0,1.199249 -0.65813,2.032874 -0.65812,0.819 -1.72575,1.038375 -0.14625,0.02925 -0.5265,0.02925 -1.55025,0 -2.5155,-0.84825 -0.0731,-0.07313 -0.10237,-0.0585 -0.0585,0.07312 -0.21938,0.307125 -0.16087,0.219375 -0.2925,0.394875 -0.13162,0.190125 -0.13162,0.20475 -0.0292,0.01463 -0.14625,0.01463 -0.10238,0 -0.19013,-0.08775 l 0,-1.711125 q 0,-1.740374 0.0146,-1.769624 0.0292,-0.07313 0.2925,-0.07313 l 0.19012,0 z"
       style="font-size:64.99999762%;baseline-shift:sub"
       id="path4307" /></g><g
     id="g4621"
     transform="matrix(1.4011804,0,0,1,45.428644,6.8058992)"
     style="stroke-width:5;stroke-miterlimit:4;stroke-dasharray:none"><g
       id="g4623"
       style="stroke-width:5;stroke-miterlimit:4;stroke-dasharray:none"><line
         class="st37"
         x1="96"
         y1="42"
         x2="104.9"
         y2="42"
         id="line4625"
         style="fill:none;stroke:#11accd;stroke-width:5;stroke-linecap:round;stroke-miterlimit:4;stroke-dasharray:none" /><g
         id="g4627"
         style="stroke-width:5;stroke-miterlimit:4;stroke-dasharray:none"><path
           class="st13"
           d="m 114,42 c -4.3,1.6 -9.5,4.3 -12.8,7.1 l 2.6,-7.1 -2.6,-7.1 c 3.3,2.8 8.5,5.5 12.8,7.1 z"
           id="path4629"
           inkscape:connector-curvature="0"
           style="fill:#11accd;stroke-width:5;stroke-miterlimit:4;stroke-dasharray:none" /></g></g></g><g
     id="g4631"
     style="stroke-width:5;stroke-miterlimit:4;stroke-dasharray:none"
     transform="matrix(1,0,0,1.2533771,-16.380099,-5.4738678)"><g
       id="g4633"
       style="stroke-width:5;stroke-miterlimit:4;stroke-dasharray:none"><line
         class="st37"
         x1="234.2"
         y1="51"
         x2="234.2"
         y2="59.900002"
         id="line4635"
         style="fill:none;stroke:#11accd;stroke-width:5;stroke-linecap:round;stroke-miterlimit:4;stroke-dasharray:none" /><g
         id="g4637"
         style="stroke-width:5;stroke-miterlimit:4;stroke-dasharray:none"><path
           class="st13"
           d="m 234.2,69 c -1.6,-4.3 -4.3,-9.5 -7.1,-12.8 l 7.1,2.6 7.1,-2.6 c -2.8,3.3 -5.5,8.5 -7.1,12.8 z"
           id="path4639"
           style="fill:#11accd;stroke-width:5;stroke-miterlimit:4;stroke-dasharray:none"
           inkscape:connector-curvature="0" /></g></g></g><g
     id="g4641"
     style="stroke-width:5;stroke-miterlimit:4;stroke-dasharray:none"
     transform="matrix(1,0,0,1.2744918,-16.380099,-5.6737058)"><g
       id="g4643"
       style="stroke-width:5;stroke-miterlimit:4;stroke-dasharray:none"><line
         class="st37"
         x1="312"
         y1="48"
         x2="312"
         y2="56.900002"
         id="line4645"
         style="fill:none;stroke:#11accd;stroke-width:5;stroke-linecap:round;stroke-miterlimit:4;stroke-dasharray:none" /><g
         id="g4647"
         style="stroke-width:5;stroke-miterlimit:4;stroke-dasharray:none"><path
           class="st13"
           d="m 312,66 c -1.6,-4.3 -4.3,-9.5 -7.1,-12.8 l 7.1,2.6 7.1,-2.6 c -2.8,3.3 -5.5,8.5 -7.1,12.8 z"
           id="path4649"
           style="fill:#11accd;stroke-width:5;stroke-miterlimit:4;stroke-dasharray:none"
           inkscape:connector-curvature="0" /></g></g></g><g
     id="g4651"
     style="stroke-width:5;stroke-miterlimit:4;stroke-dasharray:none"
     transform="matrix(1,0,0,1.3589509,-16.380099,-13.96705)"><g
       id="g4653"
       style="stroke-width:5;stroke-miterlimit:4;stroke-dasharray:none"><line
         class="st37"
         x1="390"
         y1="66"
         x2="390"
         y2="57.099998"
         id="line4655"
         style="fill:none;stroke:#11accd;stroke-width:5;stroke-linecap:round;stroke-miterlimit:4;stroke-dasharray:none" /><g
         id="g4657"
         style="stroke-width:5;stroke-miterlimit:4;stroke-dasharray:none"><path
           class="st13"
           d="m 390,48 c 1.6,4.3 4.3,9.5 7.1,12.8 l -7.1,-2.6 -7.1,2.6 c 2.8,-3.3 5.5,-8.5 7.1,-12.8 z"
           id="path4659"
           style="fill:#11accd;stroke-width:5;stroke-miterlimit:4;stroke-dasharray:none"
           inkscape:connector-curvature="0" /></g></g></g><g
     style="font-style:normal;font-variant:normal;font-weight:normal;font-stretch:normal;font-size:22.5px;line-height:125%;font-family:KaTeX_Main;-inkscape-font-specification:'KaTeX_Main, Normal';text-align:start;writing-mode:lr-tb;text-anchor:start;fill:#11accd"
     id="text4661"><path
       d="m 181.7601,56.849205 q 0,-0.5175 0.4275,-0.945 0.4275,-0.4275 0.99,-0.4275 0.405,0 0.675,0.27 0.2925,0.27 0.2925,0.675 0,0.495 -0.45,0.945 -0.45,0.45 -0.99,0.45 -0.405,0 -0.675,-0.27 -0.27,-0.27 -0.27,-0.6975 z m -0.5175,13.7475 q -0.8775,0 -1.4175,-0.5175 -0.54,-0.5175 -0.54,-1.395 0,-0.3825 0.045,-0.5175 0,-0.045 1.035,-2.7675 1.035,-2.745 1.035,-2.79 0.1125,-0.36 0.1125,-0.81 0,-0.54 -0.3825,-0.54 l -0.045,0 q -0.54,0 -1.035,0.5175 -0.72,0.7425 -1.0575,2.115 0,0.0225 -0.0225,0.09 -0.0225,0.045 -0.045,0.0675 0,0 -0.0225,0.0225 -0.0225,0.0225 -0.09,0.0225 -0.045,0 -0.09,0 -0.045,0 -0.18,0 l -0.315,0 q -0.135,-0.135 -0.135,-0.2025 0,-0.0675 0.0675,-0.315 0.585,-1.935 1.71,-2.7 0.6075,-0.4725 1.305,-0.4725 0.9,0 1.485,0.5175 0.585,0.5175 0.585,1.395 0,0.2925 -0.1125,0.675 -0.0225,0.045 -1.035,2.7675 l -1.0125,2.7225 q -0.1125,0.495 -0.1125,0.72 0,0.5625 0.3825,0.5625 0.315,0 0.5625,-0.135 0.99,-0.4725 1.5525,-2.3625 0.0675,-0.27 0.1125,-0.315 0.0675,-0.045 0.3825,-0.045 0.2025,0 0.27,0.0225 0.09,0 0.135,0.045 0.045,0.045 0.045,0.1575 0,0.09 -0.0675,0.2925 -0.4275,1.2825 -1.2375,2.2275 -0.7875,0.945 -1.8675,0.945 z"
       style="font-style:normal;font-variant:normal;font-weight:normal;font-stretch:normal;font-size:22.5px;line-height:125%;font-family:KaTeX_Math;-inkscape-font-specification:'KaTeX_Math, Normal';text-align:start;writing-mode:lr-tb;text-anchor:start"
       id="path4298" /><path
       d="m 191.48242,74.849205 q -0.24862,-0.04387 -2.32537,-0.04387 -2.0475,0 -2.29613,0.04387 l -0.1755,0 0,-0.67275 0.38025,0 q 0.84825,0 1.09688,-0.04387 0.117,-0.01463 0.351,-0.1755 l 0,-7.561124 q -0.0293,0 -0.117,0.04387 -0.67275,0.26325 -1.50638,0.277875 l -0.27787,0 0,-0.67275 0.27787,0 q 1.2285,-0.04387 2.0475,-0.55575 0.26325,-0.14625 0.45338,-0.336375 0.0292,-0.04387 0.1755,-0.04387 0.14625,0 0.24862,0.08775 l 0,4.372874 0.0146,4.3875 q 0.21937,0.219375 0.95062,0.219375 l 0.48263,0 0.38025,0 0,0.67275 -0.16088,0 z"
       style="font-size:64.99999762%;baseline-shift:sub"
       id="path4300" /></g><g
     style="font-style:normal;font-variant:normal;font-weight:normal;font-stretch:normal;font-size:22.5px;line-height:125%;font-family:KaTeX_Main;-inkscape-font-specification:'KaTeX_Main, Normal';text-align:start;writing-mode:lr-tb;text-anchor:start"
     id="text4665"><path
       d="m 261.195,61.631 q -0.315,-0.1575 -0.315,-0.45 0,-0.2925 0.315,-0.45 l 6.7275,0 0,-3.375 0.0225,-3.375 q 0.225,-0.2925 0.4275,-0.2925 0.2925,0 0.45,0.3375 l 0,6.705 6.705,0 q 0.3375,0.18 0.3375,0.45 0,0.27 -0.3375,0.45 l -6.705,0 0,6.705 q -0.1575,0.315 -0.45,0.315 -0.2925,0 -0.45,-0.315 l 0,-6.705 -6.7275,0 z"
       style="font-style:normal;font-variant:normal;font-weight:normal;font-stretch:normal;font-size:22.5px;line-height:125%;font-family:KaTeX_Main;-inkscape-font-specification:'KaTeX_Main, Normal';text-align:start;writing-mode:lr-tb;text-anchor:start;fill:#e07d10"
       id="path4293" /><path
       d="m 261.825,162.431 q -0.315,-0.1575 -0.315,-0.45 0,-0.2925 0.315,-0.45 l 13.0725,0 q 0.3375,0.18 0.3375,0.45 0,0.27 -0.3375,0.45 l -13.0725,0 z"
       style="font-style:normal;font-variant:normal;font-weight:normal;font-stretch:normal;font-size:22.5px;line-height:125%;font-family:KaTeX_Main;-inkscape-font-specification:'KaTeX_Main, Normal';text-align:start;writing-mode:lr-tb;text-anchor:start;fill:#e07d10"
       id="path4295" /></g><g
     id="g4671"
     transform="translate(-16.380099,6.8058992)"><g
       id="g4673"><path
         class="st38"
         d="m 264,156 c 3.7,-10.5 6.2,-30.8 6.2,-54 0,-18.8 -1.6,-35.7 -4.2,-47"
         id="path4675"
         style="fill:none;stroke:#e07d10;stroke-width:2;stroke-linecap:round;stroke-miterlimit:10"
         inkscape:connector-curvature="0" /><g
         id="g4677"><path
           class="st36"
           d="m 264,48 c 2.1,3 5.3,6.5 8.2,8.4 l -6,-0.5 -5,3.5 c 1.5,-3.1 2.5,-7.8 2.8,-11.4 z"
           id="path4679"
           style="fill:#e07d10"
           inkscape:connector-curvature="0" /></g></g></g><g
     style="font-style:normal;font-variant:normal;font-weight:normal;font-stretch:normal;font-size:22.5px;line-height:125%;font-family:KaTeX_Main;-inkscape-font-specification:'KaTeX_Main, Normal';text-align:start;writing-mode:lr-tb;text-anchor:start"
     id="text4681"><path
       d="m 33.195001,61.631 q -0.315,-0.1575 -0.315,-0.45 0,-0.2925 0.315,-0.45 l 6.7275,0 0,-3.375 0.0225,-3.375 q 0.225,-0.2925 0.4275,-0.2925 0.2925,0 0.45,0.3375 l 0,6.705 6.705,0 q 0.3375,0.18 0.3375,0.45 0,0.27 -0.3375,0.45 l -6.705,0 0,6.705 q -0.1575,0.315 -0.45,0.315 -0.2925,0 -0.45,-0.315 l 0,-6.705 -6.7275,0 z"
       style="font-style:normal;font-variant:normal;font-weight:normal;font-stretch:normal;font-size:22.5px;line-height:125%;font-family:KaTeX_Main;-inkscape-font-specification:'KaTeX_Main, Normal';text-align:start;writing-mode:lr-tb;text-anchor:start;fill:#e07d10"
       id="path4288" /><path
       d="m 33.825001,162.431 q -0.315,-0.1575 -0.315,-0.45 0,-0.2925 0.315,-0.45 l 13.0725,0 q 0.3375,0.18 0.3375,0.45 0,0.27 -0.3375,0.45 l -13.0725,0 z"
       style="font-style:normal;font-variant:normal;font-weight:normal;font-stretch:normal;font-size:22.5px;line-height:125%;font-family:KaTeX_Main;-inkscape-font-specification:'KaTeX_Main, Normal';text-align:start;writing-mode:lr-tb;text-anchor:start;fill:#e07d10"
       id="path4290" /></g><g
     style="font-style:normal;font-variant:normal;font-weight:normal;font-stretch:normal;font-size:22.5px;line-height:125%;font-family:KaTeX_Main;-inkscape-font-specification:'KaTeX_Main, Normal';text-align:start;letter-spacing:1;writing-mode:lr-tb;text-anchor:start;fill:#1fab54"
     id="text4687"><path
       d="m 297.8249,27.325901 q 0.3825,-0.0225 0.8325,-0.045 0.45,-0.045 0.675,-0.0675 0.225,-0.0225 0.2475,-0.0225 l 0.0675,0 0,3.3975 q 0,3.42 0.0225,3.42 0.0675,-0.045 0.135,-0.1125 1.2375,-1.035 3.0825,-1.035 0.405,0 0.7425,0.0675 1.5975,0.315 2.655,1.6875 1.08,1.35 1.08,3.33 0,0.4275 -0.045,0.7875 -0.2925,1.8225 -1.5975,3.0825 -1.2825,1.2375 -3.195,1.2375 -1.7325,0 -2.97,-1.3275 l -0.1575,-0.1575 -0.225,0.405 q -0.045,0.0675 -0.135,0.225 -0.0675,0.135 -0.135,0.2475 -0.045,0.09 -0.0675,0.135 l -0.1125,0.2025 -0.45,0.0225 -0.45,0 0,-6.705 q 0,-6.7725 -0.0225,-6.8625 -0.0675,-0.4275 -0.3375,-0.5625 -0.2475,-0.1575 -0.99,-0.2025 l -0.405,0 0,-0.5175 q 0,-0.5175 0.045,-0.5175 l 0.225,-0.0225 q 0.225,-0.0225 0.6525,-0.045 0.4275,-0.0225 0.8325,-0.045 z m 5.2425,6.435 q -0.54,-0.0675 -0.6975,-0.0675 -1.575,0 -2.52,1.305 l -0.135,0.18 0,5.4225 0.1125,0.1575 q 0.675,1.08 1.7325,1.3725 0.2925,0.09 0.6975,0.09 1.44,0 2.2725,-1.215 0.18,-0.2475 0.36,-0.7425 0.27,-0.7875 0.27,-2.2275 0,-1.665 -0.27,-2.4975 -0.4725,-1.4175 -1.8225,-1.7775 z"
       style="font-style:normal;font-variant:normal;font-weight:normal;font-stretch:normal;font-size:22.5px;line-height:125%;font-family:KaTeX_Main;-inkscape-font-specification:'KaTeX_Main, Normal';text-align:start;letter-spacing:1;writing-mode:lr-tb;text-anchor:start;fill:#1fab54"
       id="path4285" /></g><g
     style="font-style:normal;font-variant:normal;font-weight:normal;font-stretch:normal;font-size:22.5px;line-height:125%;font-family:KaTeX_Main;-inkscape-font-specification:'KaTeX_Main, Normal';text-align:start;letter-spacing:1;writing-mode:lr-tb;text-anchor:start;fill:#1fab54"
     id="text4689"><path
       d="m 59.0849,41.583401 q -0.3375,0.36 -0.855,0.36 -0.5175,0 -0.855,-0.36 -0.3375,-0.36 -0.3375,-0.855 0,-0.315 0.18,-0.72 0.2925,-0.6075 1.17,-0.945 0.8775,-0.3375 2.1375,-0.3375 1.485,0 2.565,0.675 1.1025,0.675 1.44,1.755 0.1125,0.315 0.1125,0.72 0.0225,0.3825 0.0225,2.565 0,2.205 0,2.5875 0.0225,0.36 0.135,0.5625 0.135,0.315 0.45,0.315 0.2925,0 0.4275,-0.315 0.135,-0.27 0.135,-1.2375 l 0,-0.81 0.9,0 0,0.8775 q -0.0225,0.9 -0.0675,1.0575 -0.2025,0.63 -0.7425,1.0575 -0.54,0.405 -1.2825,0.405 -0.5625,0 -1.0125,-0.3825 -0.4275,-0.405 -0.585,-0.9675 l 0,-0.09 q -0.0675,0.0675 -0.27,0.315 -0.2025,0.225 -0.2925,0.315 -1.1025,0.9225 -2.565,0.9225 -1.17,0 -2.0925,-0.495 -0.9225,-0.495 -1.2375,-1.305 -0.18,-0.4275 -0.18,-0.855 0,-1.0575 0.8775,-1.935 0.5175,-0.5175 1.2825,-0.855 1.53,-0.6975 3.915,-0.8325 l 0.315,0 0,-0.495 q 0,-0.765 -0.135,-1.125 -0.225,-0.7425 -0.7875,-1.17 -0.5625,-0.4275 -1.395,-0.4275 -1.5075,0 -1.5075,0.18 0.495,0.3375 0.495,0.99 0,0.495 -0.36,0.855 z m 3.69,3.285 q 0,-1.305 -0.0225,-1.305 -0.0675,0 -0.1125,0.0225 -3.0825,0.2025 -3.9375,1.8225 -0.2475,0.45 -0.2475,1.0125 0,0.765 0.54,1.2825 0.54,0.5175 1.3275,0.5175 0.9,0 1.53,-0.54 0.6525,-0.54 0.855,-1.3275 0.045,-0.1575 0.0675,-1.485 z"
       style="font-style:normal;font-variant:normal;font-weight:normal;font-stretch:normal;font-size:22.5px;line-height:125%;font-family:KaTeX_Main;-inkscape-font-specification:'KaTeX_Main, Normal';text-align:start;letter-spacing:1;writing-mode:lr-tb;text-anchor:start;fill:#1fab54"
       id="path4282" /></g><g
     style="font-style:normal;font-variant:normal;font-weight:normal;font-stretch:normal;font-size:22.5px;line-height:125%;font-family:KaTeX_Main;-inkscape-font-specification:'KaTeX_Main, Normal';text-align:start;letter-spacing:1;writing-mode:lr-tb;text-anchor:start;fill:#1fab54"
     id="text4691"><path
       d="m 304.3499,179.62819 q -0.3375,0.315 -0.855,0.315 -0.5175,0 -0.855,-0.3375 -0.3375,-0.36 -0.3375,-0.855 0,-0.5175 0.3375,-0.855 0.1125,-0.1125 0.09,-0.135 0,-0.0225 -0.2025,-0.045 -0.585,-0.09 -1.1025,-0.09 -1.1475,0 -1.8,0.72 -1.0575,1.0575 -1.0575,3.5325 0,1.845 0.6975,2.9025 0.9225,1.3725 2.475,1.3725 0.5625,0 0.99,-0.225 0.945,-0.4725 1.305,-1.755 0.045,-0.18 0.1125,-0.225 0.0675,-0.045 0.36,-0.045 l 0.315,0 q 0.135,0.135 0.135,0.2025 0,0.4275 -0.5625,1.3275 -1.125,1.62 -3.1725,1.62 -1.125,0 -2.1375,-0.5175 -2.2275,-1.1475 -2.6775,-3.825 -0.0225,-0.135 -0.0225,-0.72 0,-0.585 0.0225,-0.7425 0.27,-2.115 1.845,-3.4425 1.35,-1.08 2.9925,-1.08 2.9025,0 3.3975,1.53 0.0675,0.2025 0.0675,0.5175 0,0.5175 -0.36,0.855 z"
       style="font-style:normal;font-variant:normal;font-weight:normal;font-stretch:normal;font-size:22.5px;line-height:125%;font-family:KaTeX_Main;-inkscape-font-specification:'KaTeX_Main, Normal';text-align:start;letter-spacing:1;writing-mode:lr-tb;text-anchor:start;fill:#1fab54"
       id="path4279" /></g><g
     id="g4693"
     transform="translate(-16.380099,6.8058992)"><g
       id="g4695"><path
         class="st38"
         d="m 66,150 c -3.7,-8.2 -6.2,-23.9 -6.2,-42 0,-13.9 1.5,-26.4 3.8,-35.2"
         id="path4697"
         style="fill:none;stroke:#e07d10;stroke-width:2;stroke-linecap:round;stroke-miterlimit:10"
         inkscape:connector-curvature="0" /><g
         id="g4699"><path
           class="st36"
           d="m 66,66 c 0.1,3.6 0.8,8.3 2.1,11.5 l -4.7,-3.8 -6.1,0.1 c 3,-1.7 6.4,-5 8.7,-7.8 z"
           id="path4701"
           style="fill:#e07d10"
           inkscape:connector-curvature="0" /></g></g></g><g
     style="font-style:normal;font-variant:normal;font-weight:normal;font-stretch:normal;font-size:22.5px;line-height:125%;font-family:KaTeX_Main;-inkscape-font-specification:'KaTeX_Main, Normal';text-align:start;writing-mode:lr-tb;text-anchor:start;fill:#e07d10"
     id="text4703"><path
       d="m 141.4991,18.867501 q -1.44,0 -2.295,-0.72 -0.8325,-0.7425 -0.8325,-2.16 0,-0.405 0.045,-0.765 0.2025,-1.08 1.0575,-3.3075 l 0.36,-1.08 q 0.135,-0.405 0.135,-0.765 0,-0.5625002 -0.4275,-0.5625002 -0.1575,0 -0.36,0.0675 -1.1475,0.405 -1.7325,2.5875002 0,0.0225 -0.0225,0.09 -0.0225,0.045 -0.045,0.0675 0,0 -0.0225,0.0225 -0.0225,0.0225 -0.09,0.0225 -0.045,0 -0.09,0 -0.045,0 -0.18,0 l -0.315,0 q -0.135,-0.135 -0.135,-0.2025 0,-0.0675 0.0675,-0.3375 0.54,-1.7775 1.665,-2.6550002 0.6075,-0.4725 1.395,-0.4725 0.8775,0 1.44,0.495 0.5625,0.495 0.5625,1.3050002 0,0.3825 -0.0675,0.585 0,0.1575 -0.3375,0.99 -1.035,2.8125 -1.1025,4.005 0,0.6075 0.1125,0.99 0.2925,0.9675 1.4175,0.9675 0.6075,0 1.08,-0.36 1.395,-0.9225 2.3175,-4.2525 0.18,-0.63 0.18,-1.035 0,-0.99 -0.8775,-1.7775 -0.2925,-0.27 -0.2925,-0.6075 0,-0.5175002 0.405,-0.9225002 0.4275,-0.4275 0.945,-0.4275 0.54,0 0.8325,0.5175 0.2925,0.495 0.2925,1.1925002 0,0.7875 -0.45,2.5875 -0.4275,1.7325 -1.08,3.015 -1.4175,2.9025 -3.555,2.9025 z"
       style="font-style:normal;font-variant:normal;font-weight:normal;font-stretch:normal;font-size:22.5px;line-height:125%;font-family:KaTeX_Math;-inkscape-font-specification:'KaTeX_Math, Normal';text-align:start;writing-mode:lr-tb;text-anchor:start"
       id="path4274" /><path
       d="m 153.05904,23.120001 q -0.24863,-0.04387 -2.32538,-0.04387 -2.0475,0 -2.29612,0.04387 l -0.1755,0 0,-0.67275 0.38025,0 q 0.84825,0 1.09687,-0.04387 0.117,-0.01463 0.351,-0.1755 l 0,-7.561125 q -0.0292,0 -0.117,0.04387 -0.67275,0.26325 -1.50637,0.277875 l -0.27788,0 0,-0.67275 0.27788,0 q 1.2285,-0.04387 2.0475,-0.55575 0.26325,-0.14625 0.45337,-0.336375 0.0293,-0.04387 0.1755,-0.04387 0.14625,0 0.24863,0.08775 l 0,4.372875 0.0146,4.3875 q 0.21938,0.219375 0.95063,0.219375 l 0.48262,0 0.38025,0 0,0.67275 -0.16087,0 z"
       style="font-size:64.99999762%;baseline-shift:sub"
       id="path4276" /></g><g
     id="g4707"
     transform="translate(-16.380099,6.8058992)"><g
       id="g4709"><path
         class="st38"
         d="m 192,30 c -6.4,-3.7 -18.8,-6.2 -33,-6.2 -10.2,0 -19.5,1.3 -26.3,3.4"
         id="path4711"
         style="fill:none;stroke:#e07d10;stroke-width:2;stroke-linecap:round;stroke-miterlimit:10"
         inkscape:connector-curvature="0" /><g
         id="g4713"><path
           class="st36"
           d="m 126,30 c 2.7,-2.4 5.8,-6 7.4,-9.1 l 0.2,6.1 4,4.5 c -3.2,-1.2 -8,-1.6 -11.6,-1.5 z"
           id="path4715"
           style="fill:#e07d10"
           inkscape:connector-curvature="0" /></g></g></g><g
     transform="scale(-1,1)"
     style="font-style:normal;font-variant:normal;font-weight:normal;font-stretch:normal;font-size:22.5px;line-height:125%;font-family:KaTeX_Main;-inkscape-font-specification:'KaTeX_Main, Normal';text-align:start;writing-mode:lr-tb;text-anchor:start;fill:#e07d10"
     id="text4719" /><g
     transform="scale(-1,1)"
     style="font-style:normal;font-variant:normal;font-weight:normal;font-stretch:normal;font-size:22.5px;line-height:125%;font-family:KaTeX_Main;-inkscape-font-specification:'KaTeX_Main, Normal';text-align:start;writing-mode:lr-tb;text-anchor:start;fill:#e07d10"
     id="text4721"><path
       d="m -116.9243,19.4446 q -0.315,-0.1575 -0.315,-0.45 0,-0.2925 0.315,-0.45 l 6.7275,0 0,-3.375 0.0225,-3.375 q 0.225,-0.2925 0.4275,-0.2925 0.2925,0 0.45,0.3375 l 0,6.705 6.705,0 q 0.3375,0.18 0.3375,0.45 0,0.27 -0.3375,0.45 l -6.705,0 0,6.705 q -0.1575,0.315 -0.45,0.315 -0.2925,0 -0.45,-0.315 l 0,-6.705 -6.7275,0 z"
       style="font-style:normal;font-variant:normal;font-weight:normal;font-stretch:normal;font-size:22.5px;line-height:125%;font-family:KaTeX_Main;-inkscape-font-specification:'KaTeX_Main, Normal';text-align:start;writing-mode:lr-tb;text-anchor:start;fill:#e07d10"
       id="path4270" /></g><g
     style="font-style:normal;font-variant:normal;font-weight:normal;font-stretch:normal;font-size:22.5px;line-height:125%;font-family:KaTeX_Main;-inkscape-font-specification:'KaTeX_Main, Normal';text-align:start;letter-spacing:0px;word-spacing:0px;writing-mode:lr-tb;text-anchor:start;fill:#e07d10;fill-opacity:1;stroke:none;stroke-width:1px;stroke-linecap:butt;stroke-linejoin:miter;stroke-opacity:1"
     id="text4263"><path
       d="m 171.69211,18.705716 q -0.315,-0.1575 -0.315,-0.45 0,-0.2925 0.315,-0.45 l 13.0725,0 q 0.3375,0.18 0.3375,0.45 0,0.27 -0.3375,0.45 l -13.0725,0 z"
       style="font-style:normal;font-variant:normal;font-weight:normal;font-stretch:normal;font-size:22.5px;line-height:125%;font-family:KaTeX_Main;-inkscape-font-specification:'KaTeX_Main, Normal';text-align:start;writing-mode:lr-tb;text-anchor:start;fill:#e07d10;fill-opacity:1"
       id="path4267" /></g></svg>