<?xml version="1.0" encoding="utf-8"?>
<!-- Generator: Adobe Illustrator 19.1.0, SVG Export Plug-In . SVG Version: 6.00 Build 0)  -->
<svg version="1.1" id="Layer_1" xmlns="http://www.w3.org/2000/svg" xmlns:xlink="http://www.w3.org/1999/xlink" x="0px" y="0px"
	 viewBox="0 0 192 696" style="enable-background:new 0 0 192 696;" xml:space="preserve">
<g>
	<path d="M17.2,17.8l2.8-6.4l2.7,6.4H17.2z M23.9,21c0.3,0.7,0.5,1.3,0.5,1.6c0,0.3-0.1,0.5-0.3,0.7s-0.7,0.3-1.3,0.3V24h6.3v-0.4
		c-0.6,0-1.2-0.2-1.5-0.5s-0.8-1-1.2-2.1L20.8,7.7h-0.4l-5.6,13.1c-0.5,1.1-0.9,1.9-1.3,2.3c-0.2,0.2-0.6,0.3-1.3,0.5V24h5v-0.4
		c-0.8-0.1-1.3-0.2-1.5-0.4s-0.3-0.4-0.3-0.6c0-0.3,0.1-0.8,0.4-1.4l1.1-2.5H23L23.9,21z"/>
	<path d="M16.9,45.1c0.2,0,0.5-0.1,0.8-0.1s0.8,0,1.2,0c1.1,0,2.1,0.2,2.8,0.5s1.3,0.8,1.6,1.3S24,48,24,48.7c0,0.9-0.4,1.7-1.1,2.4
		s-1.8,1-3.2,1c-0.9,0-1.8-0.1-2.7-0.3V45.1z M16.9,38c0.6-0.2,1.3-0.3,2.1-0.3c1.5,0,2.6,0.3,3.3,1s1.1,1.4,1.1,2.4
		c0,0.6-0.2,1.2-0.5,1.7s-0.7,0.9-1.3,1.1s-1.4,0.4-2.6,0.4c-0.4,0-0.9,0-1.2,0s-0.7-0.1-1-0.1V38z M25.2,43.3
		c0.5-0.6,0.7-1.3,0.7-2.1c0-0.9-0.3-1.8-0.9-2.5s-1.5-1.2-2.7-1.5c-0.8-0.2-1.8-0.3-3.1-0.3h-6.9v0.4H13c0.6,0,1.1,0.2,1.4,0.5
		c0.2,0.3,0.3,0.9,0.3,1.9V50c0,0.9-0.1,1.5-0.3,1.7c-0.3,0.4-0.8,0.6-1.4,0.6h-0.6v0.4h7.5c1.8,0,3.1-0.2,4-0.5s1.6-0.9,2.1-1.6
		s0.8-1.5,0.8-2.3c0-1-0.4-1.9-1.1-2.6c-0.5-0.5-1.4-0.9-2.5-1.1C24,44.4,24.7,43.9,25.2,43.3z"/>
	<path d="M12.4,65.7v0.4c1,0,1.6,0.2,1.9,0.5s0.4,0.9,0.4,2v10.1c0,1-0.1,1.7-0.4,2s-0.9,0.4-1.9,0.5v0.4h6.8v-0.4
		c-1,0-1.6-0.2-1.9-0.5s-0.4-0.9-0.4-2V66.6h4.5c0.8,0,1.4,0.1,1.8,0.2s0.8,0.4,1.1,0.9s0.4,1.1,0.5,1.8h0.5l-0.1-3.7H12.4z"/>
	<path d="M14.2,109.4l5.1-11.7l4.7,11.7H14.2z M26.8,110.4l-6.7-16.3h-0.4l-7.1,16.3H26.8z"/>
	<path d="M21.4,124.2c0.8,0,1.3,0.1,1.7,0.2c0.4,0.2,0.7,0.4,0.9,0.7s0.4,0.9,0.5,1.7h0.5l-0.2-3.5H12.5v0.4h0.6
		c0.7,0,1.1,0.2,1.4,0.5c0.2,0.2,0.3,0.9,0.3,1.9v10.3c0,0.8,0,1.3-0.1,1.5s-0.3,0.4-0.5,0.6c-0.3,0.2-0.7,0.3-1.1,0.3h-0.6v0.4
		h12.2l1.4-4h-0.5c-0.5,1-1,1.7-1.5,2.2c-0.4,0.4-0.8,0.6-1.2,0.7s-1.1,0.2-2,0.2h-2.7c-0.4,0-0.7,0-0.9-0.1s-0.3-0.2-0.3-0.4
		s-0.1-0.6-0.1-1.3v-5.2h3.5c0.7,0,1.2,0.1,1.5,0.2s0.6,0.4,0.7,0.6c0.1,0.2,0.2,0.7,0.3,1.5h0.4v-5.5H23c0,0.9-0.3,1.5-0.7,1.9
		c-0.3,0.3-0.9,0.4-1.8,0.4H17v-6.3H21.4z"/>
	<path d="M14.1,152.1l-0.3,4h0.4c0.2-1,0.3-1.6,0.5-2s0.5-0.6,0.9-0.8s1-0.3,1.8-0.3h5.1l-10.2,14.5v0.4h12.9l0.8-4.2l-0.4-0.1
		c-0.4,1.3-0.9,2.2-1.4,2.7s-1.3,0.7-2.3,0.7h-6.5l10.4-14.9H14.1z"/>
	<path d="M16.9,183.7c0-0.8,0-1.3,0.1-1.6s0.3-0.4,0.5-0.6c0.3-0.2,0.7-0.3,1.1-0.3h0.6v-0.4h-6.8v0.4H13c0.4,0,0.7,0.1,1.1,0.3
		c0.2,0.1,0.4,0.3,0.5,0.5c0.1,0.3,0.2,0.8,0.2,1.6V194c0,1-0.1,1.6-0.3,1.8c-0.3,0.4-0.8,0.6-1.4,0.6h-0.6v0.4h6.8v-0.4h-0.6
		c-0.4,0-0.7-0.1-1.1-0.3c-0.2-0.1-0.4-0.3-0.5-0.5c-0.1-0.3-0.2-0.8-0.2-1.6v-4.8h7.4v4.8c0,1-0.1,1.6-0.3,1.8
		c-0.3,0.4-0.8,0.6-1.4,0.6H22v0.4h6.8v-0.4h-0.6c-0.4,0-0.7-0.1-1.1-0.3c-0.2-0.1-0.4-0.3-0.5-0.5c-0.1-0.3-0.2-0.8-0.2-1.6v-10.3
		c0-0.8,0-1.3,0.1-1.6s0.3-0.4,0.5-0.6c0.3-0.2,0.7-0.3,1.1-0.3h0.6v-0.4H22v0.4h0.6c0.4,0,0.7,0.1,1.1,0.3c0.2,0.1,0.4,0.3,0.5,0.5
		c0.1,0.3,0.2,0.8,0.2,1.6v4.5h-7.4V183.7z"/>
	<path d="M17.8,220.5h0.4c0-0.7,0.1-1.1,0.4-1.4s0.8-0.4,1.5-0.4h1c0.7,0,1.2,0.1,1.5,0.4s0.4,0.8,0.4,1.4h0.4v-5.7h-0.4
		c0,0.7-0.1,1.2-0.4,1.4s-0.8,0.4-1.5,0.4h-0.9c-0.7,0-1.2-0.1-1.5-0.4s-0.4-0.8-0.4-1.4h-0.4V220.5z M24.5,212.2
		c0.9,1.4,1.3,3.2,1.3,5.6c0,2.4-0.5,4.2-1.4,5.4s-2.2,1.9-3.8,1.9c-1.6,0-2.9-0.7-3.8-2.1s-1.3-3.2-1.3-5.5c0-2.4,0.5-4.2,1.4-5.5
		s2.1-1.9,3.7-1.9C22.3,210.2,23.6,210.9,24.5,212.2z M15.3,211.6c-1.6,1.5-2.4,3.5-2.4,6c0,2.3,0.7,4.2,2.1,5.9s3.3,2.5,5.6,2.5
		c2.1,0,3.9-0.8,5.5-2.3s2.3-3.6,2.3-6c0-2.5-0.8-4.5-2.4-6s-3.3-2.3-5.3-2.3C18.7,209.3,16.8,210.1,15.3,211.6z"/>
	<path d="M18.8,254c-0.4,0-0.7-0.1-1.1-0.3c-0.2-0.1-0.4-0.3-0.5-0.5c-0.1-0.3-0.2-0.8-0.2-1.6v-10.3c0-1,0.1-1.6,0.3-1.8
		c0.3-0.4,0.8-0.6,1.4-0.6h0.6v-0.4h-6.8v0.4h0.6c0.4,0,0.7,0.1,1.1,0.3c0.2,0.1,0.4,0.3,0.5,0.5c0.1,0.3,0.2,0.8,0.2,1.6v10.3
		c0,1-0.1,1.6-0.3,1.8c-0.3,0.4-0.8,0.6-1.4,0.6h-0.6v0.4h6.8V254H18.8z"/>
	<path d="M21.6,272c1.4-1.4,2.2-2.2,2.4-2.4c0.6-0.5,1.1-0.9,1.5-1.2s0.8-0.4,1-0.5s0.6-0.1,0.9-0.1v-0.4h-5.8v0.4H22
		c0.4,0,0.7,0.1,0.8,0.2s0.2,0.3,0.2,0.5c0,0.2-0.1,0.5-0.3,0.8c-0.5,0.7-1.9,2.1-4.2,4.3c-0.9,0.8-1.4,1.3-1.6,1.5v-4.9
		c0-0.8,0-1.3,0.1-1.5s0.3-0.4,0.5-0.6c0.3-0.2,0.7-0.3,1.1-0.3h0.5v-0.4h-6.8v0.4H13c0.4,0,0.7,0.1,1.1,0.3
		c0.2,0.1,0.4,0.3,0.5,0.5c0.1,0.3,0.2,0.8,0.2,1.6v10.3c0,1-0.1,1.6-0.3,1.8c-0.3,0.4-0.8,0.6-1.4,0.6h-0.6v0.4h6.8v-0.4h-0.5
		c-0.4,0-0.7-0.1-1.1-0.3c-0.2-0.1-0.4-0.3-0.5-0.5c-0.1-0.3-0.2-0.8-0.2-1.6v-5.1l5.5,5.4c0.4,0.4,0.7,0.7,0.7,0.8s0.1,0.3,0.1,0.5
		s-0.1,0.4-0.3,0.5s-0.5,0.2-1,0.2v0.4h7.6v-0.4c-0.7,0-1.4-0.2-2-0.6s-1.5-1-2.5-2l-5.9-5.8L21.6,272z"/>
	<path d="M17.2,312v-0.4c-0.7,0-1.1-0.2-1.3-0.4c-0.2-0.2-0.3-0.5-0.3-0.8c0-0.4,0.2-1,0.5-1.9l3.8-9.2l4,9.3
		c0.4,0.8,0.5,1.4,0.5,1.8c0,0.3-0.1,0.5-0.3,0.7s-0.7,0.3-1.4,0.4v0.4h6.5v-0.4c-0.7,0-1.2-0.2-1.5-0.4s-0.6-0.9-1-1.8l-5.9-13.6
		h-0.4l-5.5,13.5c-0.4,0.8-0.7,1.4-1,1.7s-0.8,0.5-1.4,0.6v0.4H17.2z"/>
	<path d="M22.2,340.8l6.1-13.4V338c0,0.9-0.1,1.5-0.3,1.7c-0.3,0.4-0.8,0.6-1.4,0.6h-0.6v0.4h6.8v-0.4h-0.6c-0.6,0-1.1-0.2-1.4-0.5
		c-0.2-0.2-0.3-0.9-0.3-1.8v-10.4c0-0.9,0.1-1.5,0.3-1.7c0.3-0.4,0.8-0.6,1.4-0.6h0.6v-0.4h-4.5l-5.7,12.4l-5.8-12.4h-4.5v0.4
		c0.6,0,1.1,0.1,1.4,0.2s0.5,0.3,0.6,0.6c0.2,0.3,0.2,0.8,0.2,1.5V338c0,0.9-0.1,1.5-0.3,1.7c-0.3,0.4-0.8,0.6-1.4,0.6h-0.6v0.4h5.5
		v-0.4h-0.6c-0.6,0-1.1-0.2-1.4-0.5c-0.2-0.2-0.3-0.9-0.3-1.8v-10.6l6.1,13.4H22.2z"/>
	<path d="M11.7,354.1c0.5,0,0.8,0,1,0.1c0.5,0.1,0.8,0.3,1,0.5s0.6,0.5,1,1.1v11.1c0,0.9-0.1,1.5-0.3,1.7c-0.3,0.4-0.8,0.6-1.4,0.6
		h-0.6v0.4h5.5v-0.4h-0.6c-0.6,0-1.1-0.2-1.4-0.5c-0.2-0.2-0.3-0.9-0.3-1.8v-9.8l10.5,12.8h0.4v-13.4c0-0.9,0.1-1.5,0.3-1.7
		c0.3-0.4,0.8-0.6,1.4-0.6H29v-0.4h-5.5v0.4H24c0.6,0,1.1,0.2,1.4,0.5c0.2,0.2,0.3,0.9,0.3,1.8v9.2L16,353.7h-4.3V354.1z"/>
	<path d="M12.9,398.4h13.6v-4.5h-0.4v0.3c0,0.8-0.2,1.4-0.6,1.7s-1,0.4-1.9,0.4h-7.7c-0.7,0-1.2,0-1.5-0.1s-0.6-0.3-0.8-0.6
		s-0.3-0.8-0.3-1.3v-0.3h-0.4V398.4z M15.6,393.1H16c0-0.6,0.1-1,0.4-1.3s0.9-0.4,1.8-0.4h3.1c0.9,0,1.5,0.1,1.7,0.4
		s0.4,0.7,0.4,1.3h0.4v-5.3h-0.4c0,0.7-0.2,1.2-0.5,1.4s-0.9,0.3-1.7,0.3h-3.1c-0.8,0-1.3-0.1-1.7-0.3s-0.5-0.7-0.5-1.4h-0.4V393.1z
		 M13.4,386.4h0.4c0.1-1.2,0.8-1.8,2.3-1.8h7c0.8,0,1.4,0.1,1.8,0.4s0.6,0.8,0.6,1.4H26v-3.9H13.4V386.4z"/>
	<path d="M24.1,413.4c1.1,1.3,1.6,3.4,1.6,6.1c0,2.5-0.5,4.3-1.5,5.5s-2.2,1.7-3.7,1.7c-1.4,0-2.5-0.5-3.4-1.6
		c-1.1-1.4-1.7-3.4-1.7-6c0-2.5,0.5-4.5,1.6-5.8c0.9-1.1,2-1.6,3.4-1.6C22.1,411.8,23.3,412.3,24.1,413.4z M15.4,413
		c-1.7,1.6-2.6,3.7-2.6,6.2c0,2.5,0.7,4.5,2.2,6s3.3,2.3,5.5,2.3c2.2,0,4-0.8,5.5-2.4s2.3-3.6,2.3-6c0-2.3-0.8-4.3-2.3-5.9
		s-3.3-2.3-5.4-2.3C18.7,410.9,16.9,411.6,15.4,413z"/>
	<path d="M24.4,453.1c0,1.1-0.1,1.7-0.4,2s-0.9,0.4-1.9,0.5v0.4h6.8v-0.4c-1,0-1.6-0.2-1.9-0.5s-0.4-0.9-0.4-2V443
		c0-1,0.1-1.7,0.4-2s0.9-0.4,1.9-0.5v-0.4H12.4v0.4c1,0,1.6,0.2,1.9,0.5s0.4,0.9,0.4,2v10.1c0,1-0.1,1.7-0.4,2s-0.9,0.4-1.9,0.5v0.4
		h6.8v-0.4c-1,0-1.6-0.2-1.9-0.5s-0.4-0.9-0.4-2V441h7.4V453.1z"/>
	<path d="M16.9,470.1c0.6-0.1,1.1-0.2,1.5-0.2c0.7,0,1.2,0.1,1.8,0.4s0.9,0.7,1.2,1.3s0.4,1.2,0.4,1.9c0,1-0.3,1.8-0.9,2.4
		s-1.3,0.9-2.1,0.9c-0.2,0-0.5,0-0.8-0.1s-0.7-0.1-1.1-0.2V470.1z M18.4,477.6c0.4,0.1,0.9,0.1,1.2,0.1c1.6,0,2.8-0.4,3.6-1.2
		s1.3-1.9,1.3-3.2c0-1-0.3-1.8-0.8-2.5s-1.3-1.2-2.1-1.5s-1.9-0.4-3.4-0.4h-5.8v0.4H13c0.6,0,1.1,0.2,1.4,0.5
		c0.2,0.2,0.3,0.9,0.3,1.9V482c0,0.9-0.1,1.5-0.2,1.7c-0.3,0.4-0.8,0.7-1.4,0.7h-0.6v0.4h6.8v-0.4h-0.6c-0.6,0-1.1-0.2-1.3-0.5
		c-0.2-0.2-0.3-0.9-0.3-1.9v-4.6C17.4,477.5,17.9,477.5,18.4,477.6z"/>
	<path d="M12.4,498.1l6.1,7.8l-6.1,7.2v0.4h12.3l0.7-4.8l-0.4-0.1c-0.3,1.1-0.7,1.9-1.3,2.2s-1.4,0.5-2.5,0.5h-6l5.5-6.5l-4.8-6.2
		h5.4c0.8,0,1.4,0.1,1.7,0.3s0.7,0.5,0.9,0.9s0.3,1,0.4,1.8h0.4l-0.3-4H12.4V498.1z"/>
	<path d="M12.9,526.5l-0.2,3.7h0.4c0.1-0.7,0.2-1.3,0.5-1.7s0.6-0.7,1-0.9c0.3-0.1,0.8-0.2,1.6-0.2h1.9v12.1c0,0.9-0.1,1.5-0.3,1.7
		c-0.3,0.4-0.8,0.6-1.4,0.6H16v0.4h6.7V542h-0.6c-0.6,0-1.1-0.2-1.4-0.5c-0.2-0.2-0.3-0.9-0.3-1.8v-12.1h2.2c0.7,0,1.2,0.1,1.6,0.3
		s0.7,0.5,1,1c0.1,0.3,0.3,0.8,0.4,1.4h0.4l-0.2-3.7H12.9z"/>
	<path d="M23.4,555.7c0.4,0,0.7,0,0.9,0.1s0.4,0.2,0.5,0.4s0.2,0.4,0.2,0.6c0,0.4-0.2,0.9-0.7,1.6l-3.1,4.9l-3.3-5.1
		c-0.5-0.7-0.7-1.2-0.7-1.5c0-0.3,0.2-0.6,0.5-0.8s0.6-0.3,1-0.3H19v-0.4h-6.8v0.4c0.3,0,0.5,0,0.7,0.1c0.6,0.3,1,0.5,1.1,0.7
		s0.5,0.7,1,1.5l4.4,6.7v3.8c0,0.9-0.1,1.5-0.3,1.7c-0.3,0.4-0.8,0.6-1.4,0.6h-0.6v0.4H24v-0.4h-0.5c-0.6,0-1.1-0.2-1.4-0.5
		c-0.2-0.2-0.3-0.9-0.3-1.8v-4l3.8-6c0.5-0.8,0.9-1.3,1.2-1.6s0.7-0.6,1.1-0.8s0.7-0.3,0.9-0.3H29v-0.4h-5.5V555.7z"/>
	<path d="M26.2,591.9c0,2-0.4,3.3-1.2,4.1s-1.8,1.1-3.1,1.2V587C24.8,587.2,26.2,588.8,26.2,591.9z M19.6,597.1
		c-2.9-0.2-4.3-1.8-4.3-4.9c0-1.9,0.4-3.3,1.1-4c0.8-0.8,1.8-1.2,3.1-1.2V597.1z M26.8,596.1c1.2-1.1,1.9-2.5,1.9-4
		c0-1.5-0.6-2.8-1.7-3.9s-2.8-1.7-5.1-1.8c0.1-1.2,0.9-1.8,2.2-1.8v-0.4h-6.8v0.4c1.4,0,2.2,0.6,2.2,1.8c-2,0.1-3.7,0.6-4.9,1.6
		s-1.9,2.4-1.9,4.1c0,1.6,0.6,2.9,1.9,4s2.9,1.7,5,1.7c-0.1,1.2-0.9,1.8-2.2,1.8v0.4h6.8v-0.4c-1.4,0-2.1-0.6-2.2-1.8
		C24,597.8,25.6,597.2,26.8,596.1z"/>
	<path d="M24.9,616c0.6-0.8,1.1-1.4,1.5-1.7s0.7-0.5,1.2-0.7c0.3-0.1,0.6-0.2,1.1-0.2v-0.4h-5.6v0.4c0.6,0,0.9,0,1.1,0.1
		s0.3,0.2,0.4,0.3c0.1,0.1,0.1,0.3,0.1,0.4s0,0.3-0.1,0.5s-0.3,0.4-0.6,0.9l-2.8,3.6l-2.4-3.6c-0.4-0.6-0.6-1-0.6-1.3
		c0-0.2,0.1-0.4,0.3-0.6s0.7-0.3,1.3-0.3v-0.4h-7.3v0.4c0.8,0,1.5,0.2,2.1,0.6s1.3,1.2,2.2,2.4l3.1,4.6l-3.8,4.7
		c-0.6,0.7-1.1,1.2-1.5,1.6s-0.9,0.6-1.4,0.8c-0.3,0.1-0.6,0.2-1,0.2v0.4h5.6v-0.4c-0.6,0-1-0.1-1.2-0.3s-0.3-0.4-0.3-0.6
		c0-0.2,0-0.3,0.1-0.5s0.3-0.5,0.6-0.9l3.3-4.3l2.7,4.1c0.4,0.6,0.6,0.9,0.6,1c0.1,0.2,0.1,0.4,0.1,0.5c0,0.1-0.1,0.3-0.2,0.4
		s-0.2,0.3-0.4,0.3c-0.2,0.1-0.6,0.1-1,0.1v0.4h6.8v-0.4c-0.7,0-1.3-0.2-1.7-0.6s-1.2-1.3-2.1-2.7l-3.4-5.1L24.9,616z"/>
	<path d="M22,644.8c0-0.9,0.1-1.5,0.2-1.8s0.3-0.5,0.7-0.6s0.9-0.2,1.6-0.2v-0.4h-7.1v0.4c0.7,0,1.2,0.1,1.6,0.2s0.6,0.4,0.7,0.6
		s0.2,0.9,0.2,1.8v5.1c-1.1,0-1.9-0.2-2.4-0.5s-0.9-0.8-1.1-1.3s-0.3-1.4-0.3-2.6c0-1-0.2-1.8-0.5-2.3s-0.7-1-1.2-1.2
		s-1.1-0.4-1.9-0.4v0.4c0.5,0,0.8,0.2,0.9,0.6s0.2,1,0.2,2c0,1.5,0.2,2.7,0.5,3.5s1,1.5,1.9,2c0.9,0.5,2.2,0.8,3.9,0.8v3.7
		c0,0.9-0.1,1.5-0.2,1.8s-0.3,0.5-0.7,0.6s-0.9,0.2-1.6,0.2v0.4h7.1v-0.4c-0.7,0-1.2-0.1-1.6-0.2s-0.6-0.4-0.7-0.7s-0.2-0.9-0.2-1.8
		v-3.7c1.7,0,3-0.3,3.9-0.8s1.6-1.2,1.9-2s0.5-2,0.5-3.5c0-1,0.1-1.7,0.2-2s0.5-0.5,0.9-0.5v-0.4c-1.2,0-2.1,0.3-2.7,1
		s-0.8,1.6-0.9,3c-0.1,1.2-0.2,2.1-0.4,2.6s-0.6,1-1.1,1.3s-1.4,0.5-2.4,0.5V644.8z"/>
	<path d="M12.7,686.4h6.6l-0.2-3.5c-1.2-0.4-2-1.2-2.4-2.2s-0.6-2.2-0.6-3.5c0-1.8,0.5-3.2,1.4-4.4s2.1-1.7,3.5-1.7
		c1.3,0,2.5,0.5,3.5,1.6s1.5,2.6,1.5,4.7c0,3.1-1,5-3,5.6l-0.3,3.5h6.6v-3.7h-0.4c0,0.4-0.1,0.8-0.4,1.1s-0.7,0.4-1.5,0.4h-3.3
		l0.1-0.8c1.5-0.4,2.7-1.2,3.6-2.3s1.3-2.5,1.3-4.1c0-2-0.7-3.6-2.1-4.9s-3.2-1.9-5.5-1.9c-2.3,0-4.2,0.7-5.6,2s-2.1,3-2.1,4.9
		c0,1.7,0.5,3.2,1.5,4.3s2.2,1.8,3.4,2.1l0,0.8H15c-0.6,0-1.1-0.1-1.4-0.3s-0.5-0.6-0.5-1.2h-0.4V686.4z"/>
	<path d="M61.9,19.4c-0.6,2.8-1.4,4.2-2.6,4.2c-1.4,0-2.1-1.6-2.1-4.8c0-3.3,0.7-5,2.1-5c0.6,0,1.2,0.4,1.6,1.1s0.9,1.7,1.2,2.9
		L61.9,19.4z M62.5,16.6c-0.4-1.3-0.9-2.2-1.4-2.8s-1.2-0.9-2-0.9c-1.1,0-2.1,0.5-2.9,1.5S55,16.8,55,18.6c0,1.8,0.4,3.2,1.1,4.2
		s1.7,1.5,3,1.5c1.8,0,3.2-0.9,4-2.6c0.2,1,0.5,1.7,0.7,2.1s0.5,0.5,0.9,0.5c0.5,0,0.9-0.3,1.2-0.8s0.5-1.3,0.5-2.2H66
		c0,1-0.4,1.5-1.1,1.5c-0.6,0-1-0.7-1.4-2.2c0.1-0.2,0.2-0.9,0.5-1.9l1.2-5.4h-2L62.5,16.6z"/>
	<path d="M57.6,40.7c0-1,0.1-1.7,0.2-2.1s0.4-0.8,0.8-1.1s0.9-0.5,1.4-0.5c0.7,0,1.3,0.3,1.7,0.8s0.7,1.3,0.7,2.3
		c0,1.1-0.3,2.1-0.8,3.1c-0.6-0.2-1.1-0.3-1.5-0.3c-0.7,0-1,0.2-1,0.6c0,0.4,0.4,0.6,1.2,0.6c0.4,0,0.8-0.1,1.3-0.2
		c0.5,0.5,0.9,1.1,1.2,2s0.5,1.7,0.5,2.6c0,1.1-0.2,2-0.7,2.8s-1.3,1.2-2.3,1.2c-1.1,0-1.9-0.5-2.6-1.5V40.7z M57.6,54.1v-2.2
		c0.7,0.8,1.6,1.2,2.7,1.2c1,0,1.8-0.2,2.5-0.6s1.3-1,1.8-1.8s0.8-1.8,0.8-2.9c0-2-1-3.5-3-4.4c1.3-0.9,2-2.1,2-3.5
		c0-1.2-0.4-2.1-1.3-2.8c-0.8-0.7-1.9-1-3.1-1c-1,0-1.9,0.2-2.6,0.7s-1.2,1.1-1.4,1.7s-0.4,1.6-0.4,3v12.8c0,1.1-0.1,2.3-0.4,3.6
		h1.9C57.5,56.9,57.6,55.6,57.6,54.1z"/>
	<path d="M59.6,79.1c-0.5-3.5-0.9-5.8-1.3-6.8s-1.1-1.6-2-1.6c-1.5,0-2.3,1.3-2.3,3.9h0.4c0.1-1.5,0.6-2.2,1.6-2.2
		c0.6,0,1.1,0.3,1.4,1s0.6,1.8,0.9,3.4s0.5,2.9,0.7,4.1c-0.9,1.8-1.3,3.3-1.3,4.5c0,0.9,0.3,1.4,0.9,1.4c0.8,0,1.2-1.1,1.2-3.3
		c0-0.8-0.1-1.7-0.2-2.8l4.7-9.9H62L59.6,79.1z"/>
	<path d="M62.4,105.8c0,1.3-0.2,2.3-0.8,3s-1.1,1.1-1.9,1.1c-0.7,0-1.4-0.4-2-1.2s-0.8-1.9-0.8-3.3c0-2.7,1.1-4.2,3.4-4.6
		C61.7,102.4,62.4,104,62.4,105.8z M56.3,102.2c-1,1-1.4,2.2-1.4,3.6c0,1.5,0.4,2.7,1.3,3.6s1.9,1.3,3.2,1.3c1.4,0,2.6-0.6,3.6-1.7
		s1.6-2.4,1.6-3.9c0-0.8-0.2-1.6-0.5-2.4c-0.4-0.8-0.8-1.4-1.4-1.9s-1.5-1.2-2.9-2.2c-1.3-0.9-2.1-1.5-2.4-1.8s-0.5-0.7-0.5-1.1
		c0-0.4,0.2-0.7,0.6-1s0.8-0.4,1.4-0.4c0.5,0,0.8,0.1,1.2,0.3s0.8,0.6,1.2,1.2c0.5,0.5,0.9,0.8,1.3,0.8c0.2,0,0.5-0.1,0.7-0.3
		s0.3-0.4,0.3-0.7c0-0.6-0.4-1.1-1.2-1.5s-1.7-0.5-2.7-0.5s-1.9,0.2-2.5,0.6s-1,0.9-1,1.6c0,0.5,0.1,0.9,0.4,1.3s0.8,0.9,1.5,1.6
		c0.7,0.6,1.2,1.1,1.6,1.6C58.4,100.6,57.2,101.2,56.3,102.2z"/>
	<path d="M54.8,136.3c0,1,0.5,1.8,1.4,2.4s2.1,0.9,3.3,0.9c1.1,0,2.1-0.2,2.9-0.7s1.2-1.1,1.2-1.8c0-0.3-0.1-0.5-0.3-0.7
		s-0.5-0.3-0.7-0.3c-0.3,0-0.6,0.1-0.8,0.3s-0.4,0.5-0.5,1.1c-0.3,1-0.9,1.4-1.9,1.4c-0.7,0-1.3-0.2-1.7-0.7s-0.6-1.1-0.6-1.9
		c0-1.6,0.8-2.4,2.3-2.4c0.1,0,0.3,0,0.6,0.1c0.3,0.1,0.6,0.1,0.8,0.1c0.5,0,0.7-0.2,0.7-0.5c0-0.3-0.2-0.4-0.7-0.4
		c-0.2,0-0.5,0-0.8,0.1c-0.2,0-0.4,0-0.5,0c-1.5,0-2.2-0.7-2.2-2.1c0-0.7,0.2-1.3,0.6-1.7s0.9-0.6,1.5-0.6c0.8,0,1.4,0.4,1.8,1.3
		c0.3,0.6,0.6,0.9,1.1,0.9c0.3,0,0.5-0.1,0.7-0.3s0.3-0.4,0.3-0.7c0-0.5-0.3-0.9-1-1.3s-1.5-0.5-2.6-0.5c-1.2,0-2.2,0.3-3,0.8
		s-1.2,1.2-1.2,2.1c0,1.1,0.8,1.9,2.3,2.5C55.8,134.1,54.8,135,54.8,136.3z"/>
	<path d="M56.2,153.3c0,0.5,0.2,1,0.6,1.3s0.9,0.4,1.5,0.5c-2.3,2.4-3.4,5.2-3.4,8.3c0,3.4,1.4,5.1,4.2,5.1c0.2,0,0.4,0,0.7,0
		c0.6,0,1-0.1,1.2-0.1c0.7,0,1.2,0.1,1.5,0.4s0.5,0.6,0.5,1.2c0,0.5-0.1,0.9-0.4,1.3s-0.7,0.6-1.2,0.6c-0.3,0-0.6-0.1-1-0.2
		c-0.4-0.1-0.7-0.2-0.9-0.2c-0.5,0-0.8,0.3-0.8,0.8c0,0.7,0.5,1,1.5,1c1.1,0,1.9-0.4,2.6-1.1s0.9-1.7,0.9-2.9c0-0.8-0.2-1.6-0.6-2.2
		s-1.1-0.9-2-0.9c-0.2,0-0.6,0-1.1,0c-0.5,0-0.8,0-0.9,0c-1.2,0-2.1-0.3-2.5-0.9s-0.7-1.5-0.7-2.7c0-2.9,1.1-5.5,3.2-7.6
		c1.3-0.2,2.3-0.6,3.1-1.1s1.1-1,1.1-1.5c0-0.3-0.2-0.4-0.5-0.4c-0.5,0-1.1,0.3-1.9,0.8s-1.5,1.1-2,1.7l-0.2,0c-0.4,0-0.7-0.1-1-0.3
		s-0.4-0.5-0.4-0.9c0-0.6,0.4-1.1,1.2-1.4l-0.2-0.4C56.9,151.8,56.2,152.4,56.2,153.3z"/>
	<path d="M57.9,186.4c-0.4-0.4-0.9-0.6-1.5-0.6c-1.4,0-2.1,0.9-2.2,2.7h0.4c0.1-1.1,0.5-1.6,1-1.6c0.3,0,0.6,0.1,0.7,0.4
		s0.2,0.8,0.2,1.5v8.1h1.9v-8.1c0.9-1,1.8-1.6,2.8-1.6c0.6,0,1.1,0.2,1.3,0.6s0.4,1,0.4,1.8v8.3c0,2,0.1,3.3,0.4,4h2
		c-0.3-0.8-0.4-1.9-0.4-3.4v-8.7c0-2.7-0.9-4.1-2.8-4.1c-1.2,0-2.4,0.8-3.6,2.3C58.4,187.4,58.2,186.8,57.9,186.4z"/>
	<path d="M62.4,217.8c0,5-0.9,7.5-2.6,7.5c-0.8,0-1.4-0.6-1.9-1.8s-0.7-3.1-0.7-5.7H62.4z M57.1,217c0-4.9,0.9-7.4,2.7-7.4
		c1.7,0,2.6,2.5,2.6,7.4H57.1z M56.4,211.4c-0.9,1.6-1.4,3.7-1.4,6.2c0,2.6,0.5,4.6,1.4,6.1s2.1,2.2,3.3,2.2c1.3,0,2.4-0.8,3.4-2.3
		c1-1.5,1.5-3.6,1.5-6.3c0-2.5-0.5-4.5-1.4-6c-0.9-1.5-2-2.3-3.3-2.3C58.5,209,57.3,209.8,56.4,211.4z"/>
	<path d="M59.1,253.6c-0.4,0-0.6-0.1-0.7-0.4s-0.2-0.7-0.2-1.4v-8.5h-0.5l-3.2,1.3l0.2,0.4c0.3-0.1,0.6-0.2,0.8-0.2
		c0.4,0,0.6,0.2,0.7,0.5s0.1,1.2,0.1,2.4v3.9c0,0.8,0.1,1.4,0.2,1.7s0.3,0.6,0.7,0.9s0.7,0.4,1.2,0.4c1.4,0,2.1-0.9,2.2-2.7h-0.4
		C60,253.1,59.6,253.6,59.1,253.6z"/>
	<path d="M57.5,272.1l-3.2,1.3l0.2,0.4c0.3-0.1,0.6-0.2,0.8-0.2c0.4,0,0.6,0.2,0.7,0.5s0.2,1.1,0.2,2.4v6.6H58v-5.8l4.4,5.8h3.8
		v-0.4c-1.1,0-2-0.5-2.7-1.3l-3.9-4.9l2.1-2.2c0.5-0.5,0.9-0.8,1.3-0.8c0.2,0,0.5,0.1,0.9,0.3c0.4,0.2,0.7,0.3,0.9,0.3
		c0.3,0,0.5-0.1,0.7-0.3s0.3-0.4,0.3-0.7c0-0.3-0.1-0.6-0.4-0.8s-0.6-0.3-1-0.3c-1.1,0-2.2,0.6-3.4,1.9l-3,3.2v-5.1H57.5z"/>
	<path d="M63.8,310.5c-0.5,0-1-0.3-1.3-0.8s-0.7-1.5-1.1-3.1l-0.8-3.7c-0.6-2.6-1-4.4-1.3-5.2s-0.6-1.4-1-1.8s-0.8-0.5-1.2-0.5
		c-0.7,0-1.2,0.3-1.6,1s-0.7,1.6-0.7,2.8h0.4c0-0.7,0.2-1.2,0.6-1.6s0.7-0.5,1.2-0.5c0.6,0,1,0.3,1.4,1s0.7,1.7,1,3.1l-5,10.8h2.2
		l3.5-7.9l1,4.5c0.4,1.6,0.8,2.6,1.2,3s0.9,0.6,1.4,0.6c0.6,0,1.1-0.3,1.5-0.8s0.6-1.5,0.6-2.7h-0.4
		C65.2,309.9,64.7,310.5,63.8,310.5z"/>
	<path d="M63.1,340.5c0.4,0.4,0.9,0.6,1.5,0.6c1.4,0,2.1-0.9,2.2-2.7h-0.4c-0.2,1-0.5,1.6-1,1.6c-0.3,0-0.6-0.1-0.7-0.4
		s-0.2-0.7-0.2-1.4v-8.1h-1.9v8.2c-1.1,1-2,1.4-2.7,1.4c-0.4,0-0.7-0.1-1-0.3s-0.5-0.5-0.6-0.8s-0.2-0.8-0.2-1.5v-6.9H56v10.6
		c0,0.8-0.1,1.6-0.4,2.4c-0.2,0.7-0.3,1.2-0.3,1.5c0,0.4,0.1,0.7,0.3,1s0.5,0.4,0.8,0.4c0.3,0,0.6-0.1,0.8-0.4s0.3-0.5,0.3-0.9
		c0-0.3-0.1-0.8-0.4-1.6c-0.2-0.7-0.3-1.4-0.3-2.2v-0.6c0.6,0.5,1.2,0.8,1.9,0.8c1,0,2.3-0.8,3.7-2.3
		C62.6,339.6,62.8,340.1,63.1,340.5z"/>
	<path d="M59.5,369.9l3.4-6.3c1-2,1.5-3.3,1.5-4c0-0.7-0.4-1.1-1.1-1.1c-0.8,0-1.3,0.4-1.3,1.2c0,0.2,0.1,0.5,0.2,0.9
		c0.1,0.6,0.2,1,0.2,1.3c0,0.4-0.2,0.9-0.5,1.7l-1.9,3.9l-3.1-9h-0.5l-2.9,1.2l0.2,0.4c0.3-0.1,0.5-0.2,0.8-0.2
		c0.5,0,0.9,0.2,1.2,0.7s0.5,1,0.7,1.5l2.6,7.7H59.5z"/>
	<path d="M56.3,383.2c0,0.9,0.6,1.4,1.7,1.7c-0.7,0.8-1,1.5-1,2.3c0,0.8,0.4,1.5,1.2,2.2c-2.2,1.4-3.3,3-3.3,5
		c0,1.3,0.4,2.3,1.2,3.1s1.9,1.2,3.3,1.2c0.3,0,1,0,2-0.1c0.3,0,0.6,0,0.8,0c0.5,0,0.9,0.2,1.1,0.5s0.4,0.6,0.4,1
		c0,0.6-0.2,1-0.5,1.4s-0.7,0.6-1.3,0.6c-0.3,0-0.7-0.1-1.2-0.2c-0.3-0.1-0.5-0.1-0.6-0.1c-0.2,0-0.4,0.1-0.5,0.2s-0.2,0.3-0.2,0.6
		c0,0.3,0.2,0.6,0.5,0.8s0.7,0.3,1.2,0.3c0.9,0,1.7-0.3,2.4-1c0.7-0.7,1.1-1.6,1.1-2.9c0-0.9-0.2-1.7-0.6-2.3
		c-0.4-0.6-1.1-0.9-2.1-0.9c-0.3,0-0.9,0-1.8,0.1c-0.3,0-0.6,0-0.8,0c-1.2,0-2-0.2-2.5-0.7s-0.8-1.1-0.8-1.8c0-1.7,1-3.2,3.1-4.5
		c0.7,0.1,1.4,0.2,2.1,0.2c0.9,0,1.5-0.1,2-0.3s0.7-0.4,0.7-0.7c0-0.4-0.4-0.6-1.3-0.6c-1.2,0-2.4,0.3-3.6,0.9
		c-0.8-0.5-1.1-1.1-1.1-1.9c0-0.7,0.3-1.4,1-2.1c1.1,0,2-0.3,2.8-0.7s1.2-0.9,1.2-1.4c0-0.4-0.2-0.5-0.6-0.5c-0.5,0-1.1,0.2-1.8,0.6
		s-1.3,0.9-1.8,1.4c-0.9-0.2-1.3-0.6-1.3-1.2c0-0.6,0.4-0.9,1.1-1v-0.4C56.9,381.8,56.3,382.3,56.3,383.2z"/>
	<path d="M61.8,418c0.8,1.1,1.2,2.6,1.2,4.5c0,1.5-0.2,2.6-0.7,3.2s-1.1,0.9-1.9,0.9c-1,0-1.8-0.6-2.5-1.7s-0.9-2.5-0.9-4
		c0-1,0.1-1.8,0.4-2.4s0.6-1,1-1.3s0.8-0.4,1.2-0.4C60.5,416.9,61.2,417.3,61.8,418z M57.5,416.8c-0.8,0.5-1.4,1.2-1.9,2.2
		s-0.7,2-0.7,2.9c0,1.4,0.4,2.6,1.2,3.7c1,1.3,2.2,1.9,3.9,1.9c1,0,1.9-0.2,2.7-0.8s1.4-1.2,1.9-2.2s0.7-2,0.7-2.9
		c0-1.4-0.4-2.6-1.3-3.6c-1-1.2-2.3-1.9-3.9-1.9C59.1,416.1,58.3,416.4,57.5,416.8z"/>
	<path d="M58.5,445.3c-0.8,0-1.4,0.1-1.7,0.2s-0.7,0.5-1.1,1s-0.7,1.2-0.9,2.2h0.4c0.4-0.7,0.8-1.1,1.1-1.3s0.8-0.3,1.3-0.3h0.3
		c-0.2,2.3-0.3,3.5-0.3,3.7c-0.1,0.9-0.2,1.6-0.4,2s-0.3,0.8-0.6,1.1c-0.4,0.5-0.6,0.9-0.6,1c-0.1,0.2-0.1,0.4-0.1,0.6
		c0,0.3,0.1,0.5,0.3,0.7s0.5,0.3,0.8,0.3c0.2,0,0.3-0.1,0.5-0.2s0.3-0.3,0.5-0.6c0.2-0.4,0.4-1.2,0.7-2.4s0.4-2.3,0.5-3.5l0.2-2.7
		H62c-0.1,0.5-0.2,1.5-0.3,2.9c-0.1,0.9-0.1,1.7-0.1,2.4c0,1.6,0.2,2.7,0.6,3.2s0.9,0.8,1.5,0.8c0.6,0,1.1-0.2,1.5-0.8
		s0.8-1.3,0.9-2.5h-0.4c0,0.4-0.2,0.8-0.4,1s-0.5,0.3-0.9,0.3c-0.4,0-0.8-0.2-1-0.5s-0.4-0.8-0.4-1.5c0-0.6,0-1.5,0.1-2.5
		s0.2-2,0.3-2.8H66v-1.7H58.5z"/>
	<path d="M57.4,477.6c0-1,0.1-1.7,0.4-2.1s0.7-0.7,1.4-0.7c1,0,2,0.5,2.8,1.4s1.3,2.2,1.3,3.9c0,1.3-0.3,2.3-0.9,3.1
		s-1.4,1.2-2.3,1.2c-0.8,0-1.4-0.2-1.9-0.7s-0.8-1.2-0.8-2.2V477.6z M57.4,485.8v-1.5c0.8,0.6,1.7,0.9,2.6,0.9
		c1.3,0,2.5-0.6,3.6-1.9c1-1.2,1.6-2.7,1.6-4.4c0-1.5-0.4-2.8-1.3-3.7c-0.8-0.9-2-1.4-3.3-1.4c-1.3,0-2.4,0.4-3.5,1.3
		s-1.6,2.3-1.6,4.1v6.6c0,1.8-0.1,3.2-0.4,4.1h2C57.3,488.8,57.4,487.4,57.4,485.8z"/>
	<path d="M63.2,509.3c0,1.1-0.3,2-0.8,2.8s-1.2,1.1-2,1.1c-1,0-1.8-0.5-2.6-1.5s-1.1-2.2-1.1-3.5c0-1.2,0.3-2.2,1-2.7
		s1.6-0.9,2.8-0.9h0.4C62.5,506,63.2,507.6,63.2,509.3z M60.8,502.9c-1.3,0-2.3,0.2-3.1,0.5s-1.4,0.9-2,1.7s-0.9,1.8-0.9,2.9
		c0,1.6,0.5,2.9,1.6,4.1s2.4,1.8,3.9,1.8c1.3,0,2.4-0.4,3.4-1.3c1-0.8,1.5-1.9,1.5-3.2c0-1-0.3-1.9-0.9-2.8
		c-0.6-0.9-1.4-1.6-2.4-2.2h4.6v-1.7H60.8z"/>
	<path d="M63.2,533.4v-1.7h-5.8c-0.6,0-1.1,0.1-1.4,0.3s-0.6,0.5-1,1s-0.6,1.2-0.9,2h0.4c0.3-0.6,0.6-1.1,1-1.3s0.9-0.3,1.5-0.3h1.2
		l-0.4,3.4c-0.2,1.3-0.3,2.4-0.3,3.3c0,1.8,0.8,2.6,2.3,2.6c1.5,0,2.3-1.1,2.6-3.3H62c-0.1,0.9-0.6,1.4-1.3,1.4
		c-0.3,0-0.6-0.1-0.9-0.4s-0.4-0.9-0.4-2c0-0.6,0-1.2,0.1-1.8l0.3-3.4H63.2z"/>
	<path d="M60.8,560.6c0.7,0.2,1.2,0.7,1.6,1.5s0.5,1.9,0.5,3.5c0,1.8-0.2,3.1-0.7,3.9s-1.1,1.3-1.8,1.3c-0.4,0-0.9-0.1-1.2-0.4
		s-0.6-0.7-0.7-1.1s-0.2-1.2-0.2-2.1v-3.9c0-0.9-0.1-1.5-0.2-1.8s-0.3-0.6-0.7-0.9s-0.7-0.4-1.2-0.4c-1.4,0-2.2,0.9-2.3,2.7h0.4
		c0.2-1,0.5-1.6,1-1.6c0.4,0,0.6,0.1,0.7,0.4s0.2,0.7,0.2,1.4v3.9c0,1.1,0.1,1.9,0.3,2.5s0.6,1.1,1.3,1.5s1.3,0.6,2.1,0.6
		c1.4,0,2.5-0.6,3.5-1.8c1-1.2,1.5-2.6,1.5-4.3c0-1.3-0.3-2.5-1-3.6c-0.7-1-1.7-1.6-3.1-1.8L60.8,560.6z"/>
	<path d="M61.5,592.7c0-0.7,0-1.2,0.1-1.5s0.2-0.5,0.3-0.7s0.4-0.3,0.7-0.3c0.7,0,1.3,0.4,1.9,1.3c0.5,0.9,0.8,2,0.8,3.3
		c0,2.8-1.2,4.4-3.7,4.8V592.7z M56.1,590.5c-0.9,1-1.3,2.2-1.3,3.8c0,1.7,0.5,3.1,1.5,4.2s2.3,1.7,3.9,1.8v4.8h1.3v-4.8
		c1.9-0.2,3.3-0.8,4.2-2s1.4-2.5,1.4-4c0-1.6-0.5-2.9-1.4-3.9s-1.9-1.5-2.9-1.5c-0.6,0-1.1,0.2-1.5,0.5s-0.7,0.8-0.8,1.2
		s-0.2,1.2-0.2,2.2v6.8c-2.1-0.5-3.2-2.3-3.2-5.4c0-2.8,0.9-4.5,2.6-4.9v-0.4C58.2,589,57,589.5,56.1,590.5z"/>
	<path d="M59.5,623.7l-0.6-2.5c-0.3-1.2-0.6-2.1-0.9-2.6s-0.8-0.7-1.5-0.7c-0.8,0-1.3,0.4-1.7,1.1s-0.6,1.6-0.6,2.7h0.4
		c0.2-1.4,0.8-2.1,1.7-2.1c0.5,0,0.9,0.2,1.1,0.5s0.5,1,0.7,2l0.7,2.8l-4.5,9h2.1l3.1-6.3l0.8,3.3c0.3,1.2,0.6,2,1,2.5
		s0.9,0.6,1.5,0.6c0.7,0,1.3-0.3,1.8-1s0.7-1.6,0.7-2.7h-0.4c-0.1,1.3-0.7,2-1.8,2c-0.5,0-0.9-0.1-1.2-0.4s-0.6-1-0.9-2.1l-0.8-3.3
		l4.3-8.4h-2.1L59.5,623.7z"/>
	<path d="M62.1,646.7h-1.3v10.5c-0.8-0.2-1.3-0.6-1.7-1.3s-0.7-2.1-0.9-4.5c-0.1-1.4-0.3-2.4-0.4-3s-0.4-1-0.8-1.3s-0.9-0.5-1.5-0.5
		c-0.4,0-0.8,0.1-1.2,0.2v0.4l0.2,0c0.3,0,0.6,0.2,0.8,0.6s0.4,1.4,0.6,2.9c0.2,1.5,0.4,2.6,0.6,3.2s0.5,1.2,0.9,1.8s0.9,1,1.4,1.4
		s1.2,0.6,2,0.7v4.9h1.3v-4.9c0.7-0.1,1.4-0.4,1.9-0.7c0.5-0.3,1-0.7,1.5-1.3s0.8-1.2,1-1.8s0.4-1.6,0.5-3.1c0.2-1.6,0.4-2.6,0.6-3
		s0.5-0.6,0.9-0.6l0.2,0v-0.4c-0.4-0.1-0.8-0.2-1.2-0.2c-0.6,0-1.1,0.2-1.5,0.5s-0.6,0.8-0.8,1.3s-0.3,1.6-0.5,3.3
		c-0.2,2-0.5,3.3-0.8,4c-0.4,0.7-0.9,1.2-1.8,1.4V646.7z"/>
	<path d="M65,686.7c1,0,2-0.5,2.7-1.4s1.2-2.2,1.2-3.9c0-1.4-0.2-2.5-0.7-3.4s-1.1-1.5-1.9-2s-1.8-0.7-3.2-0.7v0.4
		c0.8,0,1.5,0.3,2,0.7s1,1,1.2,1.8s0.4,1.8,0.4,3.3c0,1.7-0.2,2.9-0.6,3.5s-0.9,0.9-1.5,0.9c-1,0-1.9-0.9-2.4-2.6
		c0.5-1.2,0.8-2.4,0.8-3.5c0-1.6-0.4-2.4-1.1-2.4s-1.1,0.9-1.1,2.6c0,1.1,0.2,2.2,0.7,3.3c-0.3,0.8-0.5,1.3-0.6,1.6
		s-0.4,0.5-0.7,0.7s-0.7,0.3-1.1,0.3c-0.6,0-1.1-0.3-1.5-1S57,683,57,681.3c0-1.8,0.3-3.1,1-4.1s1.5-1.4,2.7-1.4v-0.4
		c-1.3,0-2.4,0.2-3.2,0.7s-1.4,1.1-1.9,2s-0.7,2-0.7,3.4c0,1.7,0.4,3,1.2,3.9s1.7,1.4,2.7,1.4c1.4,0,2.4-0.8,3.1-2.3
		C62.5,686,63.5,686.7,65,686.7z"/>
	<path d="M141.8,22.9c-0.4,0-0.8-0.2-1.2-0.6s-0.5-0.8-0.5-1.4c0-0.4,0.1-0.9,0.4-1.2s0.7-0.7,1.3-1.1c0.3-0.2,1.1-0.5,2.3-1v4.1
		C143.2,22.5,142.4,22.9,141.8,22.9z M144.5,23.8c0.2,0.3,0.5,0.4,0.9,0.4c0.8,0,1.6-0.6,2.5-1.8v-0.7c-0.5,0.5-0.8,0.8-0.9,0.9
		c-0.1,0.1-0.2,0.1-0.3,0.1c-0.1,0-0.2,0-0.3-0.1s-0.2-0.2-0.2-0.5s-0.1-0.9-0.1-1.9v-3.6c0-1-0.1-1.7-0.2-2.1
		c-0.2-0.5-0.6-0.9-1-1.1c-0.6-0.3-1.4-0.5-2.3-0.5c-1.2,0-2.2,0.3-2.9,0.8s-1,1.2-1,1.9c0,0.4,0.1,0.6,0.3,0.8s0.4,0.3,0.7,0.3
		c0.3,0,0.5-0.1,0.7-0.3s0.3-0.5,0.3-0.8l0-0.7c0-0.3,0.1-0.6,0.4-0.9c0.3-0.3,0.7-0.4,1.2-0.4c0.6,0,1.1,0.2,1.5,0.6
		s0.5,1.1,0.5,2.2v0.4c-1.8,0.7-3.2,1.2-4,1.7s-1.3,1-1.7,1.5c-0.2,0.4-0.4,0.8-0.4,1.4c0,0.8,0.2,1.5,0.7,2s1.1,0.8,1.8,0.8
		c0.5,0,0.9-0.1,1.3-0.3c0.3-0.1,1-0.6,2.1-1.5C144.2,23.1,144.3,23.5,144.5,23.8z M128.7,7.3l-3.2,1.3l0.2,0.4
		c0.4-0.1,0.6-0.2,0.8-0.2c0.2,0,0.4,0.1,0.5,0.2s0.2,0.3,0.3,0.6s0.1,1,0.1,2.3v9.7c0,0.7,0,1.1-0.1,1.3s-0.2,0.4-0.4,0.4
		c-0.3,0.1-0.6,0.2-1.1,0.2V24h5.3v-0.4c-0.5,0-0.9-0.1-1.2-0.2s-0.4-0.3-0.5-0.5s-0.1-0.6-0.1-1.4v-5.7c0.6-0.6,1.1-1,1.5-1.2
		s0.8-0.3,1.2-0.3c0.4,0,0.7,0.1,1,0.3s0.5,0.5,0.6,0.8s0.2,1.1,0.2,2.3v3.8c0,0.6,0,1,0,1.1c-0.1,0.3-0.2,0.5-0.4,0.7
		s-0.5,0.2-1,0.2h-0.2V24h5.3v-0.4c-0.5,0-0.8-0.1-1-0.2s-0.3-0.3-0.4-0.4c-0.1-0.2-0.2-0.7-0.2-1.4v-3.8c0-1.3-0.1-2.2-0.2-2.7
		c-0.2-0.7-0.5-1.2-1-1.6s-1-0.5-1.6-0.5c-0.5,0-1,0.1-1.5,0.4s-1.2,0.9-2.1,1.8V7.3H128.7z M118.4,14.9c0.4-0.2,0.7-0.3,1.1-0.3
		c0.7,0,1.3,0.3,1.8,0.9c0.7,0.9,1.1,2.1,1.1,3.8c0,1.4-0.3,2.6-0.9,3.4c-0.5,0.6-1.1,0.9-1.9,0.9c-0.6,0-1.2-0.2-1.6-0.5
		s-0.7-0.7-0.8-1.2c-0.1-0.3-0.1-0.8-0.1-1.7v-4C117.7,15.5,118.2,15.1,118.4,14.9z M113.4,14.7c0.3-0.1,0.5-0.2,0.7-0.2
		c0.2,0,0.4,0,0.6,0.1s0.2,0.2,0.3,0.4s0.1,0.6,0.1,1.3v10.1c0,0.8,0,1.3-0.1,1.5s-0.2,0.3-0.3,0.4c-0.3,0.2-0.7,0.3-1.1,0.2h-0.3
		v0.4h5.6v-0.4c-0.6,0-1-0.1-1.2-0.2s-0.4-0.3-0.5-0.5s-0.1-0.7-0.1-1.4v-3.3c0.4,0.4,0.7,0.6,1.1,0.7c0.4,0.2,0.9,0.2,1.5,0.2
		c1.3,0,2.4-0.5,3.3-1.5c1.1-1.2,1.6-2.7,1.6-4.6c0-1.7-0.4-3-1.3-4c-0.7-0.8-1.6-1.3-2.7-1.3c-0.6,0-1.2,0.2-1.8,0.6s-1.1,1-1.7,2
		V13h-0.4l-3.3,1.3L113.4,14.7z M110.6,7.3l-3.2,1.3l0.2,0.4c0.3-0.1,0.6-0.2,0.8-0.2c0.2,0,0.3,0.1,0.5,0.2s0.2,0.3,0.3,0.6
		s0.1,1,0.1,2.2v9.8c0,0.7-0.1,1.1-0.2,1.3s-0.2,0.4-0.4,0.5s-0.5,0.2-1,0.2V24h5.3v-0.4c-0.6,0-0.9-0.1-1.1-0.2s-0.4-0.3-0.5-0.5
		s-0.1-0.7-0.1-1.3V7.3H110.6z M100.5,22.9c-0.4,0-0.8-0.2-1.2-0.6s-0.5-0.8-0.5-1.4c0-0.4,0.1-0.9,0.4-1.2s0.7-0.7,1.3-1.1
		c0.3-0.2,1.1-0.5,2.3-1v4.1C101.9,22.5,101.1,22.9,100.5,22.9z M103.2,23.8c0.2,0.3,0.5,0.4,0.9,0.4c0.8,0,1.6-0.6,2.5-1.8v-0.7
		c-0.5,0.5-0.8,0.8-0.9,0.9c-0.1,0.1-0.2,0.1-0.3,0.1c-0.1,0-0.2,0-0.3-0.1s-0.2-0.2-0.2-0.5s-0.1-0.9-0.1-1.9v-3.6
		c0-1-0.1-1.7-0.2-2.1c-0.2-0.5-0.6-0.9-1-1.1c-0.6-0.3-1.4-0.5-2.3-0.5c-1.2,0-2.2,0.3-2.9,0.8s-1,1.2-1,1.9c0,0.4,0.1,0.6,0.3,0.8
		s0.4,0.3,0.7,0.3c0.3,0,0.5-0.1,0.7-0.3s0.3-0.5,0.3-0.8l0-0.7c0-0.3,0.1-0.6,0.4-0.9c0.3-0.3,0.7-0.4,1.2-0.4
		c0.6,0,1.1,0.2,1.5,0.6s0.5,1.1,0.5,2.2v0.4c-1.8,0.7-3.2,1.2-4,1.7s-1.3,1-1.7,1.5c-0.2,0.4-0.4,0.8-0.4,1.4c0,0.8,0.2,1.5,0.7,2
		s1.1,0.8,1.8,0.8c0.5,0,0.9-0.1,1.3-0.3c0.3-0.1,1-0.6,2.1-1.5C102.8,23.1,103,23.5,103.2,23.8z"/>
	<path d="M129.8,51.7c-0.4,0-0.8-0.2-1.2-0.6s-0.5-0.8-0.5-1.4c0-0.4,0.1-0.9,0.4-1.2s0.7-0.7,1.3-1.1c0.3-0.2,1.1-0.5,2.3-1v4.1
		C131.2,51.3,130.4,51.7,129.8,51.7z M132.5,52.6c0.2,0.3,0.5,0.4,0.9,0.4c0.8,0,1.6-0.6,2.5-1.8v-0.7c-0.5,0.5-0.8,0.8-0.9,0.9
		c-0.1,0.1-0.2,0.1-0.3,0.1c-0.1,0-0.2,0-0.3-0.1s-0.2-0.2-0.2-0.5s-0.1-0.9-0.1-1.9v-3.6c0-1-0.1-1.7-0.2-2.1
		c-0.2-0.5-0.6-0.9-1-1.1c-0.6-0.3-1.4-0.5-2.3-0.5c-1.2,0-2.2,0.3-2.9,0.8c-0.7,0.6-1,1.2-1,1.9c0,0.4,0.1,0.6,0.3,0.8
		s0.4,0.3,0.7,0.3c0.3,0,0.5-0.1,0.7-0.3s0.3-0.5,0.3-0.8l0-0.7c0-0.3,0.1-0.6,0.4-0.9c0.3-0.3,0.7-0.4,1.2-0.4
		c0.6,0,1.1,0.2,1.5,0.6s0.5,1.1,0.5,2.2v0.4c-1.8,0.7-3.2,1.2-4,1.7c-0.8,0.5-1.3,1-1.7,1.5c-0.2,0.4-0.4,0.8-0.4,1.4
		c0,0.8,0.2,1.5,0.7,2s1.1,0.8,1.8,0.8c0.5,0,0.9-0.1,1.3-0.3c0.3-0.1,1-0.6,2.1-1.5C132.2,51.9,132.3,52.3,132.5,52.6z M122.2,38.5
		c-0.3,0.8-0.6,1.3-0.8,1.6c-0.4,0.6-0.8,1-1.2,1.5s-0.9,0.7-1.3,0.9v0.4h1.7v7.2c0,0.8,0.1,1.3,0.2,1.7s0.4,0.7,0.8,0.9
		s0.7,0.3,1.1,0.3c0.5,0,1-0.2,1.5-0.6s0.9-1,1.2-1.7h-0.5c-0.1,0.3-0.3,0.5-0.6,0.7s-0.5,0.2-0.8,0.2c-0.3,0-0.6-0.1-0.8-0.4
		s-0.3-0.7-0.3-1.4v-7h2.5v-0.8h-2.5v-3.5H122.2z M111.5,43.3c0.5-0.5,1.1-0.8,1.7-0.8c0.4,0,0.8,0.1,1.2,0.4s0.7,0.6,0.9,1
		c0.1,0.3,0.2,0.8,0.2,1.5h-5C110.6,44.5,110.9,43.8,111.5,43.3z M118,46.1c0-1.3-0.4-2.4-1.2-3.2s-1.8-1.2-3-1.2
		c-1.4,0-2.6,0.5-3.5,1.5s-1.4,2.5-1.4,4.3c0,1.7,0.5,3,1.4,4s2,1.5,3.3,1.5c1.2,0,2.2-0.4,3-1.3s1.3-1.9,1.4-2.9l-0.4-0.2
		c-0.4,0.9-0.8,1.6-1.3,2s-1.1,0.6-1.8,0.6c-1.1,0-2-0.5-2.8-1.4s-1.2-2.2-1.2-3.8H118z M100.9,43.7c0.4-0.2,0.8-0.3,1.2-0.3
		c0.8,0,1.5,0.4,2.1,1.1s0.9,1.8,0.9,3.2c0,1.5-0.3,2.6-0.9,3.4s-1.3,1.2-2,1.2c-0.4,0-0.9-0.1-1.3-0.3s-0.8-0.5-1.2-0.9v-6.4
		C100.2,44.2,100.6,43.9,100.9,43.7z M99.7,36.1h-0.5l-3.2,1.3l0.2,0.4c0.3-0.1,0.6-0.2,0.8-0.2c0.2,0,0.3,0.1,0.5,0.2
		s0.2,0.3,0.3,0.6s0.1,1,0.1,2.2v11.1c0.7,0.5,1.3,0.8,2,1s1.3,0.3,1.9,0.3c1.3,0,2.5-0.5,3.6-1.5c1.3-1.2,1.9-2.7,1.9-4.6
		c0-1.6-0.4-2.9-1.2-3.9s-1.8-1.4-2.9-1.4c-1.2,0-2.3,0.7-3.4,2.2V36.1z"/>
	<path d="M160.5,80.5c-0.4,0-0.8-0.2-1.2-0.6s-0.5-0.8-0.5-1.4c0-0.4,0.1-0.9,0.4-1.2s0.7-0.7,1.3-1.1c0.3-0.2,1.1-0.5,2.3-1v4.1
		C161.9,80.1,161.1,80.5,160.5,80.5z M163.2,81.4c0.2,0.3,0.5,0.4,0.9,0.4c0.8,0,1.6-0.6,2.5-1.8v-0.7c-0.5,0.5-0.8,0.8-0.9,0.9
		c-0.1,0.1-0.2,0.1-0.3,0.1c-0.1,0-0.2,0-0.3-0.1s-0.2-0.2-0.2-0.5s-0.1-0.9-0.1-1.9v-3.6c0-1-0.1-1.7-0.2-2.1
		c-0.2-0.5-0.6-0.9-1-1.1c-0.6-0.3-1.4-0.5-2.3-0.5c-1.2,0-2.2,0.3-2.9,0.8s-1,1.2-1,1.9c0,0.4,0.1,0.6,0.3,0.8s0.4,0.3,0.7,0.3
		c0.3,0,0.5-0.1,0.7-0.3s0.3-0.5,0.3-0.8l0-0.7c0-0.3,0.1-0.6,0.4-0.9c0.3-0.3,0.7-0.4,1.2-0.4c0.6,0,1.1,0.2,1.5,0.6
		s0.5,1.1,0.5,2.2v0.4c-1.8,0.7-3.2,1.2-4,1.7s-1.3,1-1.7,1.5c-0.2,0.4-0.4,0.8-0.4,1.4c0,0.8,0.2,1.5,0.7,2s1.1,0.8,1.8,0.8
		c0.5,0,0.9-0.1,1.3-0.3c0.3-0.1,1-0.6,2.1-1.5C162.8,80.7,162.9,81.1,163.2,81.4z M141.3,70.5h-0.5l-3.2,1.3l0.2,0.4
		c0.3-0.1,0.6-0.2,0.8-0.2c0.2,0,0.4,0,0.5,0.1s0.2,0.3,0.3,0.5c0.1,0.3,0.1,1.1,0.1,2.3v4.1c0,0.7-0.1,1.1-0.2,1.3
		s-0.2,0.4-0.4,0.5s-0.5,0.2-1,0.2v0.4h5.3v-0.4c-0.6,0-1-0.1-1.2-0.2s-0.3-0.3-0.4-0.5s-0.1-0.7-0.1-1.4v-5.8
		c0.4-0.4,0.9-0.8,1.5-1.2c0.4-0.2,0.8-0.3,1.3-0.3c0.6,0,1.1,0.2,1.4,0.8c0.3,0.4,0.4,1,0.4,1.9v4.6c0,0.6,0,1-0.1,1.2
		c-0.1,0.3-0.2,0.5-0.5,0.6s-0.6,0.2-1.2,0.2v0.4h5.4v-0.4c-0.5,0-0.9-0.1-1.2-0.2s-0.4-0.3-0.5-0.5s-0.1-0.6-0.1-1.4v-5.1l0-0.5
		l0-0.1c0.6-0.6,1.1-0.9,1.5-1.2s0.8-0.3,1.2-0.3c0.7,0,1.2,0.2,1.5,0.8c0.2,0.4,0.3,1,0.3,1.9v4.6c0,0.6,0,1,0,1.1
		c-0.1,0.3-0.2,0.5-0.4,0.6c-0.3,0.2-0.6,0.3-1.1,0.3h-0.2v0.4h5.3v-0.4c-0.5,0-0.8-0.1-1-0.2s-0.4-0.3-0.4-0.4
		c-0.1-0.2-0.2-0.7-0.2-1.4v-4.6c0-1-0.1-1.7-0.3-2.1c-0.3-0.7-0.6-1.1-1-1.4s-0.9-0.4-1.5-0.4c-0.6,0-1.2,0.1-1.7,0.4
		s-1.2,0.9-2,1.8c-0.2-0.7-0.5-1.3-1-1.7s-1.1-0.6-1.7-0.6c-0.4,0-0.8,0.1-1.2,0.2s-0.8,0.4-1.1,0.7c-0.1,0.1-0.6,0.6-1.4,1.3V70.5z
		 M122.6,70.5h-0.5l-3.2,1.3l0.2,0.4c0.3-0.1,0.6-0.2,0.8-0.2c0.2,0,0.4,0,0.5,0.1s0.2,0.3,0.3,0.5c0.1,0.3,0.1,1.1,0.1,2.3v4.1
		c0,0.7-0.1,1.1-0.2,1.3s-0.2,0.4-0.4,0.5s-0.5,0.2-1,0.2v0.4h5.3v-0.4c-0.6,0-1-0.1-1.2-0.2s-0.3-0.3-0.4-0.5s-0.1-0.7-0.1-1.4
		v-5.8c0.4-0.4,0.9-0.8,1.5-1.2c0.4-0.2,0.8-0.3,1.3-0.3c0.6,0,1.1,0.2,1.4,0.8c0.3,0.4,0.4,1,0.4,1.9v4.6c0,0.6,0,1-0.1,1.2
		c-0.1,0.3-0.2,0.5-0.5,0.6s-0.6,0.2-1.2,0.2v0.4h5.4v-0.4c-0.5,0-0.9-0.1-1.2-0.2s-0.4-0.3-0.5-0.5s-0.1-0.6-0.1-1.4v-5.1l0-0.5
		l0-0.1c0.6-0.6,1.1-0.9,1.5-1.2s0.8-0.3,1.2-0.3c0.7,0,1.2,0.2,1.5,0.8c0.2,0.4,0.3,1,0.3,1.9v4.6c0,0.6,0,1,0,1.1
		c-0.1,0.3-0.2,0.5-0.4,0.6c-0.3,0.2-0.6,0.3-1.1,0.3h-0.2v0.4h5.3v-0.4c-0.5,0-0.8-0.1-1-0.2s-0.4-0.3-0.4-0.4
		c-0.1-0.2-0.2-0.7-0.2-1.4v-4.6c0-1-0.1-1.7-0.3-2.1c-0.3-0.7-0.6-1.1-1-1.4s-0.9-0.4-1.5-0.4c-0.6,0-1.2,0.1-1.7,0.4
		s-1.2,0.9-2,1.8c-0.2-0.7-0.5-1.3-1-1.7c-0.5-0.4-1.1-0.6-1.7-0.6c-0.4,0-0.8,0.1-1.2,0.2s-0.8,0.4-1.1,0.7
		c-0.1,0.1-0.6,0.6-1.4,1.3V70.5z M112.5,80.5c-0.4,0-0.8-0.2-1.2-0.6s-0.5-0.8-0.5-1.4c0-0.4,0.1-0.9,0.4-1.2s0.7-0.7,1.3-1.1
		c0.3-0.2,1.1-0.5,2.3-1v4.1C113.9,80.1,113.1,80.5,112.5,80.5z M115.2,81.4c0.2,0.3,0.5,0.4,0.9,0.4c0.8,0,1.6-0.6,2.5-1.8v-0.7
		c-0.5,0.5-0.8,0.8-0.9,0.9c-0.1,0.1-0.2,0.1-0.3,0.1c-0.1,0-0.2,0-0.3-0.1s-0.2-0.2-0.2-0.5s-0.1-0.9-0.1-1.9v-3.6
		c0-1-0.1-1.7-0.2-2.1c-0.2-0.5-0.6-0.9-1-1.1c-0.6-0.3-1.4-0.5-2.3-0.5c-1.2,0-2.2,0.3-2.9,0.8s-1,1.2-1,1.9c0,0.4,0.1,0.6,0.3,0.8
		s0.4,0.3,0.7,0.3c0.3,0,0.5-0.1,0.7-0.3s0.3-0.5,0.3-0.8l0-0.7c0-0.3,0.1-0.6,0.4-0.9c0.3-0.3,0.7-0.4,1.2-0.4
		c0.6,0,1.1,0.2,1.5,0.6s0.5,1.1,0.5,2.2v0.4c-1.8,0.7-3.2,1.2-4,1.7s-1.3,1-1.7,1.5c-0.2,0.4-0.4,0.8-0.4,1.4c0,0.8,0.2,1.5,0.7,2
		s1.1,0.8,1.8,0.8c0.5,0,0.9-0.1,1.3-0.3c0.3-0.1,1-0.6,2.1-1.5C114.8,80.7,115,81.1,115.2,81.4z M103.6,81.9c1.2,0,2,0.1,2.4,0.3
		c0.4,0.2,0.6,0.5,0.6,0.9c0,0.6-0.3,1.1-1,1.6s-1.7,0.7-3.1,0.7c-1.5,0-2.6-0.2-3.4-0.7c-0.5-0.3-0.7-0.6-0.7-1
		c0-0.3,0.1-0.6,0.3-0.9s0.5-0.7,0.8-1.1C100.4,81.7,101.8,81.8,103.6,81.9z M103.2,71.9c0.5,0.7,0.8,1.7,0.8,2.9
		c0,1-0.2,1.7-0.6,2.1s-0.9,0.7-1.5,0.7c-0.6,0-1.1-0.3-1.5-0.8c-0.5-0.7-0.8-1.6-0.8-2.9c0-1,0.2-1.7,0.6-2.1s0.9-0.7,1.5-0.7
		C102.3,71.1,102.8,71.4,103.2,71.9z M98.1,79.2c-0.2,0.4-0.3,0.7-0.3,1c0,0.2,0.1,0.5,0.3,0.7s0.5,0.4,0.9,0.7
		c-0.7,0.8-1.1,1.2-1.2,1.3c-0.4,0.5-0.7,0.9-0.8,1.2c-0.1,0.2-0.1,0.4-0.1,0.6c0,0.4,0.3,0.8,0.9,1.2c1,0.7,2.3,1,3.8,1
		c2,0,3.6-0.6,4.8-1.7c0.8-0.8,1.2-1.6,1.2-2.5c0-0.6-0.2-1.2-0.7-1.6s-1-0.7-1.7-0.8c-0.5-0.1-1.5-0.1-3.1-0.2
		c-0.9,0-1.4-0.1-1.6-0.1c-0.4-0.1-0.6-0.1-0.8-0.3s-0.2-0.3-0.2-0.4c0-0.2,0.1-0.3,0.2-0.6s0.4-0.5,0.7-0.8
		c0.6,0.2,1.1,0.2,1.6,0.2c1.3,0,2.3-0.4,3.1-1.1s1.1-1.6,1.1-2.6c0-0.9-0.2-1.6-0.7-2.2h1.4c0.3,0,0.5,0,0.6,0l0.1-0.1
		c0-0.1,0.1-0.2,0.1-0.4c0-0.2,0-0.3-0.1-0.4l-0.1-0.1c-0.1,0-0.2,0-0.6,0h-2.3c-0.8-0.5-1.6-0.8-2.7-0.8c-1.2,0-2.3,0.4-3.1,1.1
		s-1.2,1.7-1.2,2.7c0,0.7,0.2,1.3,0.5,1.9s0.9,1,1.5,1.3C98.8,78.4,98.3,78.9,98.1,79.2z"/>
	<path d="M136.5,109.3c-0.4,0-0.8-0.2-1.2-0.6s-0.5-0.8-0.5-1.4c0-0.4,0.1-0.9,0.4-1.2s0.7-0.7,1.3-1.1c0.3-0.2,1.1-0.5,2.3-1v4.1
		C137.9,108.9,137.1,109.3,136.5,109.3z M139.2,110.2c0.2,0.3,0.5,0.4,0.9,0.4c0.8,0,1.6-0.6,2.5-1.8v-0.7c-0.5,0.5-0.8,0.8-0.9,0.9
		c-0.1,0.1-0.2,0.1-0.3,0.1c-0.1,0-0.2,0-0.3-0.1s-0.2-0.2-0.2-0.5s-0.1-0.9-0.1-1.9V103c0-1-0.1-1.7-0.2-2.1
		c-0.2-0.5-0.6-0.9-1-1.1c-0.6-0.3-1.4-0.5-2.3-0.5c-1.2,0-2.2,0.3-2.9,0.8s-1,1.2-1,1.9c0,0.4,0.1,0.6,0.3,0.8s0.4,0.3,0.7,0.3
		c0.3,0,0.5-0.1,0.7-0.3s0.3-0.5,0.3-0.8l0-0.7c0-0.3,0.1-0.6,0.4-0.9c0.3-0.3,0.7-0.4,1.2-0.4c0.6,0,1.1,0.2,1.5,0.6
		s0.5,1.1,0.5,2.2v0.4c-1.8,0.7-3.2,1.2-4,1.7s-1.3,1-1.7,1.5c-0.2,0.4-0.4,0.8-0.4,1.4c0,0.8,0.2,1.5,0.7,2s1.1,0.8,1.8,0.8
		c0.5,0,0.9-0.1,1.3-0.3c0.3-0.1,1-0.6,2.1-1.5C138.8,109.5,138.9,109.9,139.2,110.2z M128.8,96.1c-0.3,0.8-0.6,1.3-0.8,1.6
		c-0.4,0.6-0.8,1-1.2,1.5s-0.9,0.7-1.3,0.9v0.4h1.7v7.2c0,0.8,0.1,1.3,0.2,1.7s0.4,0.7,0.8,0.9c0.3,0.2,0.7,0.3,1.1,0.3
		c0.5,0,1-0.2,1.5-0.6s0.9-1,1.2-1.7h-0.5c-0.1,0.3-0.3,0.5-0.6,0.7s-0.5,0.2-0.8,0.2c-0.3,0-0.6-0.1-0.8-0.4s-0.3-0.7-0.3-1.4v-7
		h2.5v-0.8h-2.5v-3.5H128.8z M122.6,93.7l-3.2,1.3l0.2,0.4c0.3-0.1,0.6-0.2,0.8-0.2c0.2,0,0.3,0.1,0.5,0.2s0.2,0.3,0.3,0.6
		s0.1,1,0.1,2.2v9.8c0,0.7-0.1,1.1-0.2,1.3s-0.2,0.4-0.4,0.5s-0.5,0.2-1,0.2v0.4h5.3V110c-0.6,0-0.9-0.1-1.1-0.2s-0.4-0.3-0.5-0.5
		s-0.1-0.7-0.1-1.3V93.7H122.6z M111.5,100.9c0.5-0.5,1.1-0.8,1.7-0.8c0.4,0,0.8,0.1,1.2,0.4s0.7,0.6,0.9,1c0.1,0.3,0.2,0.8,0.2,1.5
		h-5C110.6,102.1,110.9,101.4,111.5,100.9z M118,103.7c0-1.3-0.4-2.4-1.2-3.2s-1.8-1.2-3-1.2c-1.4,0-2.6,0.5-3.5,1.5
		s-1.4,2.5-1.4,4.3c0,1.7,0.5,3,1.4,4s2,1.5,3.3,1.5c1.2,0,2.2-0.4,3-1.3s1.3-1.9,1.4-2.9l-0.4-0.2c-0.4,0.9-0.8,1.6-1.3,2
		s-1.1,0.6-1.8,0.6c-1.1,0-2-0.5-2.8-1.4s-1.2-2.2-1.2-3.8H118z M102.3,109.4c-0.8,0-1.6-0.4-2.3-1.3s-1-2-1-3.6
		c0-1.6,0.4-2.8,1.1-3.6c0.5-0.6,1.2-0.9,1.8-0.9c0.4,0,0.7,0.1,1.1,0.3s0.7,0.6,0.9,1s0.4,0.9,0.4,1.5v5.5
		C103.7,109.1,103,109.4,102.3,109.4z M104.3,110.7h0.5l3.2-1.3l-0.1-0.4c-0.4,0.1-0.6,0.2-0.8,0.2c-0.2,0-0.3-0.1-0.5-0.2
		s-0.2-0.3-0.3-0.6s-0.1-1-0.1-2.3V93.7h-0.5l-3.2,1.3l0.2,0.4c0.3-0.1,0.6-0.2,0.8-0.2c0.2,0,0.3,0.1,0.5,0.2s0.2,0.3,0.3,0.6
		s0.1,1,0.1,2.3v2c-0.6-0.6-1.4-0.9-2.3-0.9c-1.5,0-2.8,0.6-3.7,1.9s-1.5,2.7-1.5,4.2s0.4,2.8,1.3,3.8s1.9,1.5,3.1,1.5
		c0.6,0,1.1-0.1,1.6-0.4s1-0.6,1.5-1.2V110.7z"/>
	<path d="M157.2,128.1h-0.5l-3.2,1.3l0.2,0.4c0.3-0.1,0.6-0.2,0.8-0.2c0.2,0,0.4,0.1,0.5,0.2s0.2,0.3,0.3,0.6s0.1,1.1,0.1,2.4v4
		c0,0.8-0.1,1.3-0.3,1.6s-0.6,0.4-1.1,0.4h-0.2v0.4h5.3v-0.4c-0.6,0-1-0.1-1.2-0.2s-0.3-0.3-0.5-0.5c-0.1-0.2-0.1-0.6-0.1-1.3v-5.7
		c0.9-1,1.8-1.5,2.8-1.5c0.6,0,1,0.2,1.3,0.7s0.4,1.2,0.4,2.1v4.4c0,0.6,0,1,0,1.1c-0.1,0.3-0.2,0.5-0.4,0.7s-0.5,0.2-1,0.2h-0.2
		v0.4h5.3v-0.4c-0.5,0-0.9-0.1-1.1-0.2s-0.3-0.3-0.4-0.5c-0.1-0.2-0.2-0.7-0.2-1.4v-4.6c0-1-0.1-1.7-0.3-2.2c-0.2-0.7-0.6-1.2-1-1.4
		s-0.9-0.4-1.5-0.4c-1.1,0-2.3,0.8-3.6,2.3V128.1z M149.1,130c0.8,1.1,1.2,2.6,1.2,4.5c0,1.5-0.2,2.6-0.7,3.2s-1.1,0.9-1.9,0.9
		c-1,0-1.8-0.6-2.5-1.7s-0.9-2.5-0.9-4c0-1,0.1-1.8,0.4-2.4s0.6-1,1-1.3s0.8-0.4,1.2-0.4C147.8,128.9,148.5,129.3,149.1,130z
		 M144.8,128.8c-0.8,0.5-1.4,1.2-1.9,2.2s-0.7,2-0.7,2.9c0,1.4,0.4,2.6,1.2,3.7c1,1.3,2.2,1.9,3.9,1.9c1,0,1.9-0.2,2.7-0.8
		s1.4-1.2,1.9-2.2s0.7-2,0.7-2.9c0-1.4-0.4-2.6-1.3-3.6c-1-1.2-2.3-1.9-3.9-1.9C146.4,128.1,145.6,128.4,144.8,128.8z M138.6,122.5
		l-3.2,1.3l0.2,0.4c0.3-0.1,0.6-0.2,0.8-0.2c0.2,0,0.3,0.1,0.5,0.2s0.2,0.3,0.3,0.6s0.1,1,0.1,2.2v9.8c0,0.7-0.1,1.1-0.2,1.3
		s-0.2,0.4-0.4,0.5s-0.5,0.2-1,0.2v0.4h5.3v-0.4c-0.6,0-0.9-0.1-1.1-0.2s-0.4-0.3-0.5-0.5s-0.1-0.7-0.1-1.3v-14.2H138.6z
		 M131.9,128.1l-3.2,1.3l0.2,0.4c0.3-0.1,0.6-0.2,0.8-0.2c0.2,0,0.4,0,0.5,0.1s0.2,0.3,0.3,0.5c0.1,0.3,0.1,1.1,0.1,2.3v4.1
		c0,0.7-0.1,1.1-0.2,1.3s-0.2,0.4-0.4,0.5s-0.5,0.2-1.1,0.2v0.4h5.2v-0.4c-0.5,0-0.9-0.1-1-0.2s-0.3-0.3-0.4-0.5s-0.1-0.7-0.1-1.3
		v-8.6H131.9z M130.6,122.9c-0.2,0.2-0.3,0.5-0.3,0.8s0.1,0.6,0.4,0.8s0.5,0.4,0.8,0.4s0.6-0.1,0.8-0.4s0.3-0.5,0.3-0.8
		s-0.1-0.6-0.3-0.8s-0.5-0.3-0.8-0.3C131.1,122.5,130.9,122.7,130.6,122.9z M126,128.1c-0.1,0.2-0.2,0.3-0.2,0.4s-0.2,0.1-0.3,0.1
		c-0.1,0-0.4-0.1-0.8-0.2c-0.6-0.2-1.1-0.3-1.5-0.3c-1,0-1.7,0.3-2.3,0.9s-0.9,1.3-0.9,2.2c0,0.7,0.2,1.2,0.5,1.7
		c0.4,0.5,1.1,1,2.2,1.5s1.9,1,2.3,1.4s0.6,0.8,0.6,1.4c0,0.4-0.2,0.8-0.5,1.1s-0.8,0.5-1.3,0.5c-0.8,0-1.5-0.3-2.1-0.8
		s-1-1.4-1.3-2.5h-0.4v3.8h0.4c0.1-0.2,0.2-0.3,0.4-0.3c0.2,0,0.4,0,0.6,0.1c0.8,0.2,1.6,0.4,2.2,0.4c0.9,0,1.7-0.3,2.5-0.9
		s1.1-1.4,1.1-2.4c0-1.3-0.8-2.3-2.4-3.1l-1.7-0.8c-0.7-0.4-1.2-0.7-1.5-1c-0.2-0.3-0.4-0.7-0.4-1.1c0-0.4,0.2-0.7,0.5-1
		s0.8-0.4,1.3-0.4c0.7,0,1.3,0.2,1.8,0.6s0.8,1.2,1.1,2.3h0.4v-3.7H126z M111.8,130.1c0.4-0.2,0.7-0.3,1.1-0.3
		c0.7,0,1.3,0.3,1.8,0.9c0.7,0.9,1.1,2.1,1.1,3.8c0,1.4-0.3,2.6-0.9,3.4c-0.5,0.6-1.1,0.9-1.9,0.9c-0.6,0-1.2-0.2-1.6-0.5
		s-0.7-0.7-0.8-1.2c-0.1-0.3-0.1-0.8-0.1-1.7v-4C111,130.7,111.5,130.3,111.8,130.1z M106.8,129.9c0.3-0.1,0.5-0.2,0.7-0.2
		c0.2,0,0.4,0,0.6,0.1s0.2,0.2,0.3,0.4s0.1,0.6,0.1,1.3v10.1c0,0.8,0,1.3-0.1,1.5s-0.2,0.3-0.3,0.4c-0.3,0.2-0.7,0.3-1.1,0.2h-0.3
		v0.4h5.6v-0.4c-0.6,0-1-0.1-1.2-0.2s-0.4-0.3-0.5-0.5s-0.1-0.7-0.1-1.4v-3.3c0.4,0.4,0.7,0.6,1.1,0.7c0.4,0.2,0.9,0.2,1.5,0.2
		c1.3,0,2.4-0.5,3.3-1.5c1.1-1.2,1.6-2.7,1.6-4.6c0-1.7-0.4-3-1.3-4c-0.7-0.8-1.6-1.3-2.7-1.3c-0.6,0-1.2,0.2-1.8,0.6s-1.1,1-1.7,2
		v-2.5h-0.4l-3.3,1.3L106.8,129.9z M99.5,129.7c0.5-0.5,1.1-0.8,1.7-0.8c0.4,0,0.8,0.1,1.2,0.4s0.7,0.6,0.9,1
		c0.1,0.3,0.2,0.8,0.2,1.5h-5C98.6,130.9,98.9,130.2,99.5,129.7z M106,132.5c0-1.3-0.4-2.4-1.2-3.2s-1.8-1.2-3-1.2
		c-1.4,0-2.6,0.5-3.5,1.5s-1.4,2.5-1.4,4.3c0,1.7,0.5,3,1.4,4s2,1.5,3.3,1.5c1.2,0,2.2-0.4,3-1.3s1.3-1.9,1.4-2.9l-0.4-0.2
		c-0.4,0.9-0.8,1.6-1.3,2s-1.1,0.6-1.8,0.6c-1.1,0-2-0.5-2.8-1.4s-1.2-2.2-1.2-3.8H106z"/>
	<path d="M128.5,166.9c-0.4,0-0.8-0.2-1.2-0.6s-0.5-0.8-0.5-1.4c0-0.4,0.1-0.9,0.4-1.2s0.7-0.7,1.3-1.1c0.3-0.2,1.1-0.5,2.3-1v4.1
		C129.8,166.5,129.1,166.9,128.5,166.9z M131.2,167.8c0.2,0.3,0.5,0.4,0.9,0.4c0.8,0,1.6-0.6,2.5-1.8v-0.7c-0.5,0.5-0.8,0.8-0.9,0.9
		c-0.1,0.1-0.2,0.1-0.3,0.1c-0.1,0-0.2,0-0.3-0.1s-0.2-0.2-0.2-0.5s-0.1-0.9-0.1-1.9v-3.6c0-1-0.1-1.7-0.2-2.1
		c-0.2-0.5-0.6-0.9-1-1.1c-0.6-0.3-1.4-0.5-2.3-0.5c-1.2,0-2.2,0.3-2.9,0.8s-1,1.2-1,1.9c0,0.4,0.1,0.6,0.3,0.8s0.4,0.3,0.7,0.3
		c0.3,0,0.5-0.1,0.7-0.3s0.3-0.5,0.3-0.8l0-0.7c0-0.3,0.1-0.6,0.4-0.9c0.3-0.3,0.7-0.4,1.2-0.4c0.6,0,1.1,0.2,1.5,0.6
		s0.5,1.1,0.5,2.2v0.4c-1.8,0.7-3.2,1.2-4,1.7s-1.3,1-1.7,1.5c-0.2,0.4-0.4,0.8-0.4,1.4c0,0.8,0.2,1.5,0.7,2s1.1,0.8,1.8,0.8
		c0.5,0,0.9-0.1,1.3-0.3c0.3-0.1,1-0.6,2.1-1.5C130.8,167.1,130.9,167.5,131.2,167.8z M120.8,153.7c-0.3,0.8-0.6,1.3-0.8,1.6
		c-0.4,0.6-0.8,1-1.2,1.5s-0.9,0.7-1.3,0.9v0.4h1.7v7.2c0,0.8,0.1,1.3,0.2,1.7s0.4,0.7,0.8,0.9s0.7,0.3,1.1,0.3c0.5,0,1-0.2,1.5-0.6
		s0.9-1,1.2-1.7h-0.5c-0.1,0.3-0.3,0.5-0.6,0.7s-0.5,0.2-0.8,0.2c-0.3,0-0.6-0.1-0.8-0.4s-0.3-0.7-0.3-1.4v-7h2.5v-0.8h-2.5v-3.5
		H120.8z M110.1,158.5c0.5-0.5,1.1-0.8,1.7-0.8c0.4,0,0.8,0.1,1.2,0.4s0.7,0.6,0.9,1c0.1,0.3,0.2,0.8,0.2,1.5h-5
		C109.3,159.7,109.6,159,110.1,158.5z M116.6,161.3c0-1.3-0.4-2.4-1.2-3.2s-1.8-1.2-3-1.2c-1.4,0-2.6,0.5-3.5,1.5s-1.4,2.5-1.4,4.3
		c0,1.7,0.5,3,1.4,4s2,1.5,3.3,1.5c1.2,0,2.2-0.4,3-1.3s1.3-1.9,1.4-2.9l-0.4-0.2c-0.4,0.9-0.8,1.6-1.3,2s-1.1,0.6-1.8,0.6
		c-1.1,0-2-0.5-2.8-1.4s-1.2-2.2-1.2-3.8H116.6z M105.7,164.7c-0.1,0.8-0.2,1.3-0.3,1.6c-0.2,0.3-0.4,0.6-0.7,0.7s-0.8,0.2-1.7,0.2
		h-3.9l7.2-9.5v-0.4h-9l-0.1,3h0.5c0-0.6,0.2-1.1,0.4-1.5c0.1-0.3,0.3-0.5,0.6-0.6s0.7-0.1,1.5-0.1h3.5l-7.1,9.5v0.4h9.5l0.1-3.3
		H105.7z"/>
	<path d="M117.8,195.7c-0.4,0-0.8-0.2-1.2-0.6s-0.5-0.8-0.5-1.4c0-0.4,0.1-0.9,0.4-1.2s0.7-0.7,1.3-1.1c0.3-0.2,1.1-0.5,2.3-1v4.1
		C119.2,195.3,118.4,195.7,117.8,195.7z M120.5,196.6c0.2,0.3,0.5,0.4,0.9,0.4c0.8,0,1.6-0.6,2.5-1.8v-0.7c-0.5,0.5-0.8,0.8-0.9,0.9
		c-0.1,0.1-0.2,0.1-0.3,0.1c-0.1,0-0.2,0-0.3-0.1s-0.2-0.2-0.2-0.5s-0.1-0.9-0.1-1.9v-3.6c0-1-0.1-1.7-0.2-2.1
		c-0.2-0.5-0.6-0.9-1-1.1c-0.6-0.3-1.4-0.5-2.3-0.5c-1.2,0-2.2,0.3-2.9,0.8s-1,1.2-1,1.9c0,0.4,0.1,0.6,0.3,0.8s0.4,0.3,0.7,0.3
		c0.3,0,0.5-0.1,0.7-0.3s0.3-0.5,0.3-0.8l0-0.7c0-0.3,0.1-0.6,0.4-0.9c0.3-0.3,0.7-0.4,1.2-0.4c0.6,0,1.1,0.2,1.5,0.6
		s0.5,1.1,0.5,2.2v0.4c-1.8,0.7-3.2,1.2-4,1.7s-1.3,1-1.7,1.5c-0.2,0.4-0.4,0.8-0.4,1.4c0,0.8,0.2,1.5,0.7,2s1.1,0.8,1.8,0.8
		c0.5,0,0.9-0.1,1.3-0.3c0.3-0.1,1-0.6,2.1-1.5C120.2,195.9,120.3,196.3,120.5,196.6z M110.2,182.5c-0.3,0.8-0.6,1.3-0.8,1.6
		c-0.4,0.6-0.8,1-1.2,1.5s-0.9,0.7-1.3,0.9v0.4h1.7v7.2c0,0.8,0.1,1.3,0.2,1.7s0.4,0.7,0.8,0.9s0.7,0.3,1.1,0.3c0.5,0,1-0.2,1.5-0.6
		s0.9-1,1.2-1.7h-0.5c-0.1,0.3-0.3,0.5-0.6,0.7s-0.5,0.2-0.8,0.2c-0.3,0-0.6-0.1-0.8-0.4s-0.3-0.7-0.3-1.4v-7h2.5v-0.8h-2.5v-3.5
		H110.2z M99.5,187.3c0.5-0.5,1.1-0.8,1.7-0.8c0.4,0,0.8,0.1,1.2,0.4s0.7,0.6,0.9,1c0.1,0.3,0.2,0.8,0.2,1.5h-5
		C98.6,188.5,98.9,187.8,99.5,187.3z M106,190.1c0-1.3-0.4-2.4-1.2-3.2s-1.8-1.2-3-1.2c-1.4,0-2.6,0.5-3.5,1.5s-1.4,2.5-1.4,4.3
		c0,1.7,0.5,3,1.4,4s2,1.5,3.3,1.5c1.2,0,2.2-0.4,3-1.3s1.3-1.9,1.4-2.9l-0.4-0.2c-0.4,0.9-0.8,1.6-1.3,2s-1.1,0.6-1.8,0.6
		c-1.1,0-2-0.5-2.8-1.4s-1.2-2.2-1.2-3.8H106z"/>
	<path d="M136.5,224.5c-0.4,0-0.8-0.2-1.2-0.6s-0.5-0.8-0.5-1.4c0-0.4,0.1-0.9,0.4-1.2s0.7-0.7,1.3-1.1c0.3-0.2,1.1-0.5,2.3-1v4.1
		C137.9,224.1,137.1,224.5,136.5,224.5z M139.2,225.4c0.2,0.3,0.5,0.4,0.9,0.4c0.8,0,1.6-0.6,2.5-1.8v-0.7c-0.5,0.5-0.8,0.8-0.9,0.9
		c-0.1,0.1-0.2,0.1-0.3,0.1c-0.1,0-0.2,0-0.3-0.1s-0.2-0.2-0.2-0.5s-0.1-0.9-0.1-1.9v-3.6c0-1-0.1-1.7-0.2-2.1
		c-0.2-0.5-0.6-0.9-1-1.1c-0.6-0.3-1.4-0.5-2.3-0.5c-1.2,0-2.2,0.3-2.9,0.8s-1,1.2-1,1.9c0,0.4,0.1,0.6,0.3,0.8s0.4,0.3,0.7,0.3
		c0.3,0,0.5-0.1,0.7-0.3s0.3-0.5,0.3-0.8l0-0.7c0-0.3,0.1-0.6,0.4-0.9c0.3-0.3,0.7-0.4,1.2-0.4c0.6,0,1.1,0.2,1.5,0.6
		s0.5,1.1,0.5,2.2v0.4c-1.8,0.7-3.2,1.2-4,1.7s-1.3,1-1.7,1.5c-0.2,0.4-0.4,0.8-0.4,1.4c0,0.8,0.2,1.5,0.7,2s1.1,0.8,1.8,0.8
		c0.5,0,0.9-0.1,1.3-0.3c0.3-0.1,1-0.6,2.1-1.5C138.8,224.7,138.9,225.1,139.2,225.4z M128.8,211.3c-0.3,0.8-0.6,1.3-0.8,1.6
		c-0.4,0.6-0.8,1-1.2,1.5s-0.9,0.7-1.3,0.9v0.4h1.7v7.2c0,0.8,0.1,1.3,0.2,1.7s0.4,0.7,0.8,0.9c0.3,0.2,0.7,0.3,1.1,0.3
		c0.5,0,1-0.2,1.5-0.6s0.9-1,1.2-1.7h-0.5c-0.1,0.3-0.3,0.5-0.6,0.7s-0.5,0.2-0.8,0.2c-0.3,0-0.6-0.1-0.8-0.4s-0.3-0.7-0.3-1.4v-7
		h2.5v-0.8h-2.5v-3.5H128.8z M118.1,216.1c0.5-0.5,1.1-0.8,1.7-0.8c0.4,0,0.8,0.1,1.2,0.4s0.7,0.6,0.9,1c0.1,0.3,0.2,0.8,0.2,1.5h-5
		C117.3,217.3,117.6,216.6,118.1,216.1z M124.6,218.9c0-1.3-0.4-2.4-1.2-3.2s-1.8-1.2-3-1.2c-1.4,0-2.6,0.5-3.5,1.5
		s-1.4,2.5-1.4,4.3c0,1.7,0.5,3,1.4,4s2,1.5,3.3,1.5c1.2,0,2.2-0.4,3-1.3s1.3-1.9,1.4-2.9l-0.4-0.2c-0.4,0.9-0.8,1.6-1.3,2
		s-1.1,0.6-1.8,0.6c-1.1,0-2-0.5-2.8-1.4s-1.2-2.2-1.2-3.8H124.6z M106,208.9l-3.2,1.3l0.2,0.4c0.4-0.1,0.6-0.2,0.8-0.2
		c0.2,0,0.4,0.1,0.5,0.2s0.2,0.3,0.3,0.6s0.1,1,0.1,2.3v9.7c0,0.7,0,1.1-0.1,1.3s-0.2,0.4-0.4,0.4c-0.3,0.1-0.6,0.2-1.1,0.2v0.4h5.3
		v-0.4c-0.5,0-0.9-0.1-1.2-0.2s-0.4-0.3-0.5-0.5s-0.1-0.6-0.1-1.4v-5.7c0.6-0.6,1.1-1,1.5-1.2s0.8-0.3,1.2-0.3c0.4,0,0.7,0.1,1,0.3
		s0.5,0.5,0.6,0.8s0.2,1.1,0.2,2.3v3.8c0,0.6,0,1,0,1.1c-0.1,0.3-0.2,0.5-0.4,0.7s-0.5,0.2-1,0.2h-0.2v0.4h5.3v-0.4
		c-0.5,0-0.8-0.1-1-0.2s-0.3-0.3-0.4-0.4c-0.1-0.2-0.2-0.7-0.2-1.4v-3.8c0-1.3-0.1-2.2-0.2-2.7c-0.2-0.7-0.5-1.2-1-1.6
		s-1-0.5-1.6-0.5c-0.5,0-1,0.1-1.5,0.4s-1.2,0.9-2.1,1.8v-7.9H106z M99.5,211.3c-0.3,0.8-0.6,1.3-0.8,1.6c-0.4,0.6-0.8,1-1.2,1.5
		s-0.9,0.7-1.3,0.9v0.4h1.7v7.2c0,0.8,0.1,1.3,0.2,1.7s0.4,0.7,0.8,0.9s0.7,0.3,1.1,0.3c0.5,0,1-0.2,1.5-0.6s0.9-1,1.2-1.7h-0.5
		c-0.1,0.3-0.3,0.5-0.6,0.7s-0.5,0.2-0.8,0.2c-0.3,0-0.6-0.1-0.8-0.4s-0.3-0.7-0.3-1.4v-7h2.5v-0.8h-2.5v-3.5H99.5z"/>
	<path d="M125.8,253.3c-0.4,0-0.8-0.2-1.2-0.6s-0.5-0.8-0.5-1.4c0-0.4,0.1-0.9,0.4-1.2s0.7-0.7,1.3-1.1c0.3-0.2,1.1-0.5,2.3-1v4.1
		C127.2,252.9,126.4,253.3,125.8,253.3z M128.5,254.2c0.2,0.3,0.5,0.4,0.9,0.4c0.8,0,1.6-0.6,2.5-1.8v-0.7c-0.5,0.5-0.8,0.8-0.9,0.9
		c-0.1,0.1-0.2,0.1-0.3,0.1c-0.1,0-0.2,0-0.3-0.1s-0.2-0.2-0.2-0.5s-0.1-0.9-0.1-1.9V247c0-1-0.1-1.7-0.2-2.1
		c-0.2-0.5-0.6-0.9-1-1.1c-0.6-0.3-1.4-0.5-2.3-0.5c-1.2,0-2.2,0.3-2.9,0.8s-1,1.2-1,1.9c0,0.4,0.1,0.6,0.3,0.8s0.4,0.3,0.7,0.3
		c0.3,0,0.5-0.1,0.7-0.3s0.3-0.5,0.3-0.8l0-0.7c0-0.3,0.1-0.6,0.4-0.9c0.3-0.3,0.7-0.4,1.2-0.4c0.6,0,1.1,0.2,1.5,0.6
		s0.5,1.1,0.5,2.2v0.4c-1.8,0.7-3.2,1.2-4,1.7s-1.3,1-1.7,1.5c-0.2,0.4-0.4,0.8-0.4,1.4c0,0.8,0.2,1.5,0.7,2s1.1,0.8,1.8,0.8
		c0.5,0,0.9-0.1,1.3-0.3c0.3-0.1,1-0.6,2.1-1.5C128.2,253.5,128.3,253.9,128.5,254.2z M118.2,240.1c-0.3,0.8-0.6,1.3-0.8,1.6
		c-0.4,0.6-0.8,1-1.2,1.5s-0.9,0.7-1.3,0.9v0.4h1.7v7.2c0,0.8,0.1,1.3,0.2,1.7s0.4,0.7,0.8,0.9s0.7,0.3,1.1,0.3c0.5,0,1-0.2,1.5-0.6
		s0.9-1,1.2-1.7h-0.5c-0.1,0.3-0.3,0.5-0.6,0.7s-0.5,0.2-0.8,0.2c-0.3,0-0.6-0.1-0.8-0.4s-0.3-0.7-0.3-1.4v-7h2.5v-0.8h-2.5v-3.5
		H118.2z M110.4,245.2c0.8,1.1,1.2,2.6,1.2,4.5c0,1.5-0.2,2.6-0.7,3.2s-1.1,0.9-1.9,0.9c-1,0-1.8-0.6-2.5-1.7s-0.9-2.5-0.9-4
		c0-1,0.1-1.8,0.4-2.4s0.6-1,1-1.3s0.8-0.4,1.2-0.4C109.2,244.1,109.9,244.5,110.4,245.2z M106.1,244c-0.8,0.5-1.4,1.2-1.9,2.2
		s-0.7,2-0.7,2.9c0,1.4,0.4,2.6,1.2,3.7c1,1.3,2.2,1.9,3.9,1.9c1,0,1.9-0.2,2.7-0.8s1.4-1.2,1.9-2.2s0.7-2,0.7-2.9
		c0-1.4-0.4-2.6-1.3-3.6c-1-1.2-2.3-1.9-3.9-1.9C107.8,243.3,106.9,243.6,106.1,244z M99.9,243.3l-3.2,1.3l0.2,0.4
		c0.3-0.1,0.6-0.2,0.8-0.2c0.2,0,0.4,0,0.5,0.1s0.2,0.3,0.3,0.5c0.1,0.3,0.1,1.1,0.1,2.3v4.1c0,0.7-0.1,1.1-0.2,1.3
		s-0.2,0.4-0.4,0.5s-0.5,0.2-1.1,0.2v0.4h5.2V254c-0.5,0-0.9-0.1-1-0.2s-0.3-0.3-0.4-0.5s-0.1-0.7-0.1-1.3v-8.6H99.9z M98.6,238.1
		c-0.2,0.2-0.3,0.5-0.3,0.8s0.1,0.6,0.4,0.8s0.5,0.4,0.8,0.4s0.6-0.1,0.8-0.4s0.3-0.5,0.3-0.8s-0.1-0.6-0.3-0.8s-0.5-0.3-0.8-0.3
		C99.1,237.7,98.9,237.9,98.6,238.1z"/>
	<path d="M147.1,282.1c-0.4,0-0.8-0.2-1.2-0.6s-0.5-0.8-0.5-1.4c0-0.4,0.1-0.9,0.4-1.2s0.7-0.7,1.3-1.1c0.3-0.2,1.1-0.5,2.3-1v4.1
		C148.5,281.7,147.7,282.1,147.1,282.1z M149.8,283c0.2,0.3,0.5,0.4,0.9,0.4c0.8,0,1.6-0.6,2.5-1.8V281c-0.5,0.5-0.8,0.8-0.9,0.9
		c-0.1,0.1-0.2,0.1-0.3,0.1c-0.1,0-0.2,0-0.3-0.1s-0.2-0.2-0.2-0.5s-0.1-0.9-0.1-1.9v-3.6c0-1-0.1-1.7-0.2-2.1
		c-0.2-0.5-0.6-0.9-1-1.1c-0.6-0.3-1.4-0.5-2.3-0.5c-1.2,0-2.2,0.3-2.9,0.8s-1,1.2-1,1.9c0,0.4,0.1,0.6,0.3,0.8s0.4,0.3,0.7,0.3
		c0.3,0,0.5-0.1,0.7-0.3s0.3-0.5,0.3-0.8l0-0.7c0-0.3,0.1-0.6,0.4-0.9c0.3-0.3,0.7-0.4,1.2-0.4c0.6,0,1.1,0.2,1.5,0.6
		s0.5,1.1,0.5,2.2v0.4c-1.8,0.7-3.2,1.2-4,1.7s-1.3,1-1.7,1.5c-0.2,0.4-0.4,0.8-0.4,1.4c0,0.8,0.2,1.5,0.7,2s1.1,0.8,1.8,0.8
		c0.5,0,0.9-0.1,1.3-0.3c0.3-0.1,1-0.6,2.1-1.5C149.5,282.3,149.6,282.7,149.8,283z M135.8,274.1c0.4-0.2,0.7-0.3,1.1-0.3
		c0.7,0,1.3,0.3,1.8,0.9c0.7,0.9,1.1,2.1,1.1,3.8c0,1.4-0.3,2.6-0.9,3.4c-0.5,0.6-1.1,0.9-1.9,0.9c-0.6,0-1.2-0.2-1.6-0.5
		s-0.7-0.7-0.8-1.2c-0.1-0.3-0.1-0.8-0.1-1.7v-4C135,274.7,135.5,274.3,135.8,274.1z M130.8,273.9c0.3-0.1,0.5-0.2,0.7-0.2
		c0.2,0,0.4,0,0.6,0.1s0.2,0.2,0.3,0.4s0.1,0.6,0.1,1.3v10.1c0,0.8,0,1.3-0.1,1.5s-0.2,0.3-0.3,0.4c-0.3,0.2-0.7,0.3-1.1,0.2h-0.3
		v0.4h5.6v-0.4c-0.6,0-1-0.1-1.2-0.2s-0.4-0.3-0.5-0.5s-0.1-0.7-0.1-1.4v-3.3c0.4,0.4,0.7,0.6,1.1,0.7c0.4,0.2,0.9,0.2,1.5,0.2
		c1.3,0,2.4-0.5,3.3-1.5c1.1-1.2,1.6-2.7,1.6-4.6c0-1.7-0.4-3-1.3-4c-0.7-0.8-1.6-1.3-2.7-1.3c-0.6,0-1.2,0.2-1.8,0.6s-1.1,1-1.7,2
		v-2.5h-0.4l-3.3,1.3L130.8,273.9z M123.8,274.1c0.4-0.2,0.7-0.3,1.1-0.3c0.7,0,1.3,0.3,1.8,0.9c0.7,0.9,1.1,2.1,1.1,3.8
		c0,1.4-0.3,2.6-0.9,3.4c-0.5,0.6-1.1,0.9-1.9,0.9c-0.6,0-1.2-0.2-1.6-0.5s-0.7-0.7-0.8-1.2c-0.1-0.3-0.1-0.8-0.1-1.7v-4
		C123,274.7,123.5,274.3,123.8,274.1z M118.8,273.9c0.3-0.1,0.5-0.2,0.7-0.2c0.2,0,0.4,0,0.6,0.1s0.2,0.2,0.3,0.4s0.1,0.6,0.1,1.3
		v10.1c0,0.8,0,1.3-0.1,1.5s-0.2,0.3-0.3,0.4c-0.3,0.2-0.7,0.3-1.1,0.2h-0.3v0.4h5.6v-0.4c-0.6,0-1-0.1-1.2-0.2s-0.4-0.3-0.5-0.5
		s-0.1-0.7-0.1-1.4v-3.3c0.4,0.4,0.7,0.6,1.1,0.7c0.4,0.2,0.9,0.2,1.5,0.2c1.3,0,2.4-0.5,3.3-1.5c1.1-1.2,1.6-2.7,1.6-4.6
		c0-1.7-0.4-3-1.3-4c-0.7-0.8-1.6-1.3-2.7-1.3c-0.6,0-1.2,0.2-1.8,0.6s-1.1,1-1.7,2v-2.5h-0.4l-3.3,1.3L118.8,273.9z M112.5,282.1
		c-0.4,0-0.8-0.2-1.2-0.6s-0.5-0.8-0.5-1.4c0-0.4,0.1-0.9,0.4-1.2s0.7-0.7,1.3-1.1c0.3-0.2,1.1-0.5,2.3-1v4.1
		C113.9,281.7,113.1,282.1,112.5,282.1z M115.2,283c0.2,0.3,0.5,0.4,0.9,0.4c0.8,0,1.6-0.6,2.5-1.8V281c-0.5,0.5-0.8,0.8-0.9,0.9
		c-0.1,0.1-0.2,0.1-0.3,0.1c-0.1,0-0.2,0-0.3-0.1s-0.2-0.2-0.2-0.5s-0.1-0.9-0.1-1.9v-3.6c0-1-0.1-1.7-0.2-2.1
		c-0.2-0.5-0.6-0.9-1-1.1c-0.6-0.3-1.4-0.5-2.3-0.5c-1.2,0-2.2,0.3-2.9,0.8s-1,1.2-1,1.9c0,0.4,0.1,0.6,0.3,0.8s0.4,0.3,0.7,0.3
		c0.3,0,0.5-0.1,0.7-0.3s0.3-0.5,0.3-0.8l0-0.7c0-0.3,0.1-0.6,0.4-0.9c0.3-0.3,0.7-0.4,1.2-0.4c0.6,0,1.1,0.2,1.5,0.6
		s0.5,1.1,0.5,2.2v0.4c-1.8,0.7-3.2,1.2-4,1.7s-1.3,1-1.7,1.5c-0.2,0.4-0.4,0.8-0.4,1.4c0,0.8,0.2,1.5,0.7,2s1.1,0.8,1.8,0.8
		c0.5,0,0.9-0.1,1.3-0.3c0.3-0.1,1-0.6,2.1-1.5C114.8,282.3,115,282.7,115.2,283z M99.4,266.5l-3.2,1.3l0.2,0.4
		c0.3-0.1,0.6-0.2,0.7-0.2c0.2,0,0.4,0.1,0.5,0.2s0.2,0.3,0.3,0.6s0.1,1,0.1,2.3v9.8c0,0.6-0.1,1.1-0.2,1.3
		c-0.1,0.2-0.2,0.3-0.4,0.4c-0.3,0.1-0.7,0.2-1.2,0.2v0.4h5.5v-0.4c-0.6,0-1-0.1-1.2-0.2s-0.3-0.2-0.4-0.5s-0.1-0.7-0.1-1.4v-3.6
		l3.3,4.2c0.3,0.4,0.5,0.7,0.5,0.9c0,0.1-0.1,0.3-0.2,0.3s-0.3,0.1-0.6,0.1v0.4h5.2v-0.4c-0.5,0-0.8,0-1-0.1c-0.3-0.1-0.6-0.3-1-0.7
		c-0.3-0.3-0.8-0.9-1.5-1.8l-2.8-3.5l2.8-2.5c0.5-0.5,1-0.8,1.4-1s1-0.3,1.6-0.3v-0.4h-4.7v0.4c0.3,0,0.5,0.1,0.6,0.2
		s0.2,0.2,0.2,0.4c0,0.1,0,0.2-0.1,0.3c-0.1,0.1-0.4,0.5-1,1l-2.7,2.5v-10.7H99.4z"/>
	<path d="M160.5,310.9c-0.4,0-0.8-0.2-1.2-0.6s-0.5-0.8-0.5-1.4c0-0.4,0.1-0.9,0.4-1.2s0.7-0.7,1.3-1.1c0.3-0.2,1.1-0.5,2.3-1v4.1
		C161.9,310.5,161.1,310.9,160.5,310.9z M163.2,311.8c0.2,0.3,0.5,0.4,0.9,0.4c0.8,0,1.6-0.6,2.5-1.8v-0.7c-0.5,0.5-0.8,0.8-0.9,0.9
		c-0.1,0.1-0.2,0.1-0.3,0.1c-0.1,0-0.2,0-0.3-0.1s-0.2-0.2-0.2-0.5s-0.1-0.9-0.1-1.9v-3.6c0-1-0.1-1.7-0.2-2.1
		c-0.2-0.5-0.6-0.9-1-1.1c-0.6-0.3-1.4-0.5-2.3-0.5c-1.2,0-2.2,0.3-2.9,0.8s-1,1.2-1,1.9c0,0.4,0.1,0.6,0.3,0.8s0.4,0.3,0.7,0.3
		c0.3,0,0.5-0.1,0.7-0.3s0.3-0.5,0.3-0.8l0-0.7c0-0.3,0.1-0.6,0.4-0.9c0.3-0.3,0.7-0.4,1.2-0.4c0.6,0,1.1,0.2,1.5,0.6
		s0.5,1.1,0.5,2.2v0.4c-1.8,0.7-3.2,1.2-4,1.7s-1.3,1-1.7,1.5c-0.2,0.4-0.4,0.8-0.4,1.4c0,0.8,0.2,1.5,0.7,2s1.1,0.8,1.8,0.8
		c0.5,0,0.9-0.1,1.3-0.3c0.3-0.1,1-0.6,2.1-1.5C162.8,311.1,162.9,311.5,163.2,311.8z M150.3,311c-0.8,0-1.6-0.4-2.3-1.3s-1-2-1-3.6
		c0-1.6,0.4-2.8,1.1-3.6c0.5-0.6,1.2-0.9,1.8-0.9c0.4,0,0.7,0.1,1.1,0.3s0.7,0.6,0.9,1s0.4,0.9,0.4,1.5v5.5
		C151.7,310.7,151,311,150.3,311z M152.3,312.3h0.5l3.2-1.3l-0.1-0.4c-0.4,0.1-0.6,0.2-0.8,0.2c-0.2,0-0.3-0.1-0.5-0.2
		s-0.2-0.3-0.3-0.6s-0.1-1-0.1-2.3v-12.4h-0.5l-3.2,1.3l0.2,0.4c0.3-0.1,0.6-0.2,0.8-0.2c0.2,0,0.3,0.1,0.5,0.2s0.2,0.3,0.3,0.6
		s0.1,1,0.1,2.3v2c-0.6-0.6-1.4-0.9-2.3-0.9c-1.5,0-2.8,0.6-3.7,1.9s-1.5,2.7-1.5,4.2s0.4,2.8,1.3,3.8s1.9,1.5,3.1,1.5
		c0.6,0,1.1-0.1,1.6-0.4s1-0.6,1.5-1.2V312.3z M136.9,302.9c0.4-0.2,0.8-0.3,1.2-0.3c0.8,0,1.5,0.4,2.1,1.1s0.9,1.8,0.9,3.2
		c0,1.5-0.3,2.6-0.9,3.4s-1.3,1.2-2,1.2c-0.4,0-0.9-0.1-1.3-0.3s-0.8-0.5-1.2-0.9v-6.4C136.2,303.4,136.6,303.1,136.9,302.9z
		 M135.7,295.3h-0.5l-3.2,1.3l0.2,0.4c0.3-0.1,0.6-0.2,0.8-0.2c0.2,0,0.3,0.1,0.5,0.2s0.2,0.3,0.3,0.6s0.1,1,0.1,2.2V311
		c0.7,0.5,1.3,0.8,2,1s1.3,0.3,1.9,0.3c1.3,0,2.5-0.5,3.6-1.5c1.3-1.2,1.9-2.7,1.9-4.6c0-1.6-0.4-2.9-1.2-3.9s-1.8-1.4-2.9-1.4
		c-1.2,0-2.3,0.7-3.4,2.2V295.3z M117.3,300.9h-0.5l-3.2,1.3l0.2,0.4c0.3-0.1,0.6-0.2,0.8-0.2c0.2,0,0.4,0,0.5,0.1s0.2,0.3,0.3,0.5
		c0.1,0.3,0.1,1.1,0.1,2.3v4.1c0,0.7-0.1,1.1-0.2,1.3s-0.2,0.4-0.4,0.5s-0.5,0.2-1,0.2v0.4h5.3v-0.4c-0.6,0-1-0.1-1.2-0.2
		s-0.3-0.3-0.4-0.5s-0.1-0.7-0.1-1.4v-5.8c0.4-0.4,0.9-0.8,1.5-1.2c0.4-0.2,0.8-0.3,1.3-0.3c0.6,0,1.1,0.2,1.4,0.8
		c0.3,0.4,0.4,1,0.4,1.9v4.6c0,0.6,0,1-0.1,1.2c-0.1,0.3-0.2,0.5-0.5,0.6s-0.6,0.2-1.2,0.2v0.4h5.4v-0.4c-0.5,0-0.9-0.1-1.2-0.2
		s-0.4-0.3-0.5-0.5s-0.1-0.6-0.1-1.4v-5.1l0-0.5l0-0.1c0.6-0.6,1.1-0.9,1.5-1.2s0.8-0.3,1.2-0.3c0.7,0,1.2,0.2,1.5,0.8
		c0.2,0.4,0.3,1,0.3,1.9v4.6c0,0.6,0,1,0,1.1c-0.1,0.3-0.2,0.5-0.4,0.6c-0.3,0.2-0.6,0.3-1.1,0.3h-0.2v0.4h5.3v-0.4
		c-0.5,0-0.8-0.1-1-0.2s-0.4-0.3-0.4-0.4c-0.1-0.2-0.2-0.7-0.2-1.4V305c0-1-0.1-1.7-0.3-2.1c-0.3-0.7-0.6-1.1-1-1.4
		s-0.9-0.4-1.5-0.4c-0.6,0-1.2,0.1-1.7,0.4s-1.2,0.9-2,1.8c-0.2-0.7-0.5-1.3-1-1.7s-1.1-0.6-1.7-0.6c-0.4,0-0.8,0.1-1.2,0.2
		s-0.8,0.4-1.1,0.7c-0.1,0.1-0.6,0.6-1.4,1.3V300.9z M107.2,310.9c-0.4,0-0.8-0.2-1.2-0.6s-0.5-0.8-0.5-1.4c0-0.4,0.1-0.9,0.4-1.2
		s0.7-0.7,1.3-1.1c0.3-0.2,1.1-0.5,2.3-1v4.1C108.5,310.5,107.8,310.9,107.2,310.9z M109.9,311.8c0.2,0.3,0.5,0.4,0.9,0.4
		c0.8,0,1.6-0.6,2.5-1.8v-0.7c-0.5,0.5-0.8,0.8-0.9,0.9c-0.1,0.1-0.2,0.1-0.3,0.1c-0.1,0-0.2,0-0.3-0.1s-0.2-0.2-0.2-0.5
		s-0.1-0.9-0.1-1.9v-3.6c0-1-0.1-1.7-0.2-2.1c-0.2-0.5-0.6-0.9-1-1.1c-0.6-0.3-1.4-0.5-2.3-0.5c-1.2,0-2.2,0.3-2.9,0.8s-1,1.2-1,1.9
		c0,0.4,0.1,0.6,0.3,0.8s0.4,0.3,0.7,0.3c0.3,0,0.5-0.1,0.7-0.3s0.3-0.5,0.3-0.8l0-0.7c0-0.3,0.1-0.6,0.4-0.9
		c0.3-0.3,0.7-0.4,1.2-0.4c0.6,0,1.1,0.2,1.5,0.6s0.5,1.1,0.5,2.2v0.4c-1.8,0.7-3.2,1.2-4,1.7s-1.3,1-1.7,1.5
		c-0.2,0.4-0.4,0.8-0.4,1.4c0,0.8,0.2,1.5,0.7,2s1.1,0.8,1.8,0.8c0.5,0,0.9-0.1,1.3-0.3c0.3-0.1,1-0.6,2.1-1.5
		C109.5,311.1,109.6,311.5,109.9,311.8z M99.9,295.3l-3.2,1.3l0.2,0.4c0.3-0.1,0.6-0.2,0.8-0.2c0.2,0,0.3,0.1,0.5,0.2
		s0.2,0.3,0.3,0.6s0.1,1,0.1,2.2v9.8c0,0.7-0.1,1.1-0.2,1.3s-0.2,0.4-0.4,0.5s-0.5,0.2-1,0.2v0.4h5.3v-0.4c-0.6,0-0.9-0.1-1.1-0.2
		s-0.4-0.3-0.5-0.5s-0.1-0.7-0.1-1.3v-14.2H99.9z"/>
	<path d="M121.2,330.1v0.4c0.7,0,1.2,0.1,1.4,0.3s0.3,0.6,0.3,1.2v6.1c-0.6,0.6-1.1,1-1.5,1.2s-0.8,0.3-1.1,0.3
		c-0.5,0-0.9-0.2-1.3-0.5s-0.5-1-0.5-2v-7.2h-3.8v0.4c0.6,0,1,0,1.2,0.1s0.4,0.3,0.5,0.5s0.2,0.5,0.2,1.1v4.8c0,1,0.1,1.8,0.3,2.3
		s0.5,1,0.9,1.3s1,0.5,1.6,0.5c0.5,0,1.1-0.1,1.5-0.4s1.2-0.9,2.1-1.9v2.3h0.5l3.2-1.3l-0.2-0.4c-0.3,0.1-0.6,0.2-0.8,0.2
		c-0.2,0-0.3-0.1-0.5-0.2s-0.2-0.3-0.3-0.6s-0.1-1-0.1-2.3v-6.5H121.2z M99.9,329.7h-0.5l-3.2,1.3l0.2,0.4c0.3-0.1,0.6-0.2,0.8-0.2
		c0.2,0,0.4,0,0.5,0.1s0.2,0.3,0.3,0.5c0.1,0.3,0.1,1.1,0.1,2.3v4.1c0,0.7-0.1,1.1-0.2,1.3s-0.2,0.4-0.4,0.5s-0.5,0.2-1,0.2v0.4h5.3
		v-0.4c-0.6,0-1-0.1-1.2-0.2s-0.3-0.3-0.4-0.5s-0.1-0.7-0.1-1.4v-5.8c0.4-0.4,0.9-0.8,1.5-1.2c0.4-0.2,0.8-0.3,1.3-0.3
		c0.6,0,1.1,0.2,1.4,0.8c0.3,0.4,0.4,1,0.4,1.9v4.6c0,0.6,0,1-0.1,1.2c-0.1,0.3-0.2,0.5-0.5,0.6s-0.6,0.2-1.2,0.2v0.4h5.4v-0.4
		c-0.5,0-0.9-0.1-1.2-0.2s-0.4-0.3-0.5-0.5s-0.1-0.6-0.1-1.4v-5.1l0-0.5l0-0.1c0.6-0.6,1.1-0.9,1.5-1.2s0.8-0.3,1.2-0.3
		c0.7,0,1.2,0.2,1.5,0.8c0.2,0.4,0.3,1,0.3,1.9v4.6c0,0.6,0,1,0,1.1c-0.1,0.3-0.2,0.5-0.4,0.6c-0.3,0.2-0.6,0.3-1.1,0.3h-0.2v0.4
		h5.3v-0.4c-0.5,0-0.8-0.1-1-0.2s-0.4-0.3-0.4-0.4c-0.1-0.2-0.2-0.7-0.2-1.4v-4.6c0-1-0.1-1.7-0.3-2.1c-0.3-0.7-0.6-1.1-1-1.4
		s-0.9-0.4-1.5-0.4c-0.6,0-1.2,0.1-1.7,0.4s-1.2,0.9-2,1.8c-0.2-0.7-0.5-1.3-1-1.7s-1.1-0.6-1.7-0.6c-0.4,0-0.8,0.1-1.2,0.2
		s-0.8,0.4-1.1,0.7c-0.1,0.1-0.6,0.6-1.4,1.3V329.7z"/>
	<path d="M114.5,358.9v0.4c0.7,0,1.2,0.1,1.4,0.3s0.3,0.6,0.3,1.2v6.1c-0.6,0.6-1.1,1-1.5,1.2s-0.8,0.3-1.1,0.3
		c-0.5,0-0.9-0.2-1.3-0.5s-0.5-1-0.5-2v-7.2H108v0.4c0.6,0,1,0,1.2,0.1s0.4,0.3,0.5,0.5s0.2,0.5,0.2,1.1v4.8c0,1,0.1,1.8,0.3,2.3
		s0.5,1,0.9,1.3s1,0.5,1.6,0.5c0.5,0,1.1-0.1,1.5-0.4s1.2-0.9,2.1-1.9v2.3h0.5l3.2-1.3l-0.2-0.4c-0.3,0.1-0.6,0.2-0.8,0.2
		c-0.2,0-0.3-0.1-0.5-0.2s-0.2-0.3-0.3-0.6s-0.1-1-0.1-2.3v-6.5H114.5z M99.9,358.5h-0.5l-3.2,1.3l0.2,0.4c0.3-0.1,0.6-0.2,0.8-0.2
		c0.2,0,0.4,0.1,0.5,0.2s0.2,0.3,0.3,0.6s0.1,1.1,0.1,2.4v4c0,0.8-0.1,1.3-0.3,1.6s-0.6,0.4-1.1,0.4h-0.2v0.4h5.3v-0.4
		c-0.6,0-1-0.1-1.2-0.2s-0.3-0.3-0.5-0.5c-0.1-0.2-0.1-0.6-0.1-1.3v-5.7c0.9-1,1.8-1.5,2.8-1.5c0.6,0,1,0.2,1.3,0.7s0.4,1.2,0.4,2.1
		v4.4c0,0.6,0,1,0,1.1c-0.1,0.3-0.2,0.5-0.4,0.7s-0.5,0.2-1,0.2h-0.2v0.4h5.3v-0.4c-0.5,0-0.9-0.1-1.1-0.2s-0.3-0.3-0.4-0.5
		c-0.1-0.2-0.2-0.7-0.2-1.4v-4.6c0-1-0.1-1.7-0.3-2.2c-0.2-0.7-0.6-1.2-1-1.4s-0.9-0.4-1.5-0.4c-1.1,0-2.3,0.8-3.6,2.3V358.5z"/>
	<path d="M111.9,387.3l-3.2,1.3l0.2,0.4c0.3-0.1,0.6-0.2,0.8-0.2c0.2,0,0.4,0,0.5,0.1s0.2,0.3,0.3,0.5c0.1,0.3,0.1,1.1,0.1,2.3v4.1
		c0,0.7-0.1,1.1-0.2,1.3s-0.2,0.4-0.4,0.5s-0.5,0.2-1.1,0.2v0.4h5.2V398c-0.5,0-0.9-0.1-1-0.2s-0.3-0.3-0.4-0.5s-0.1-0.7-0.1-1.3
		v-8.6H111.9z M110.6,382.1c-0.2,0.2-0.3,0.5-0.3,0.8s0.1,0.6,0.4,0.8s0.5,0.4,0.8,0.4s0.6-0.1,0.8-0.4s0.3-0.5,0.3-0.8
		s-0.1-0.6-0.3-0.8s-0.5-0.3-0.8-0.3C111.1,381.7,110.9,381.9,110.6,382.1z M96.3,388.1c0.5,0,0.9,0.1,1.2,0.3s0.8,0.7,1.3,1.6l2,3
		l-2.2,3c-0.7,0.9-1.2,1.5-1.5,1.7c-0.2,0.2-0.5,0.3-0.7,0.3v0.4h3.5V398c-0.4,0-0.6-0.1-0.8-0.3s-0.3-0.3-0.3-0.5
		c0-0.1,0.3-0.6,0.8-1.3l1.7-2.3l1.6,2.3c0.5,0.7,0.8,1.2,0.8,1.4s-0.1,0.3-0.2,0.4c-0.2,0.2-0.5,0.2-0.8,0.2v0.4h5.1V398
		c-0.4,0-0.8-0.1-1.1-0.3s-0.8-0.8-1.4-1.7l-2.7-3.8l1.5-2c0.7-0.9,1.2-1.5,1.6-1.7c0.3-0.2,0.6-0.3,1-0.3v-0.4h-3.6v0.4
		c0.3,0,0.5,0.1,0.6,0.2s0.2,0.3,0.2,0.4c0,0.2-0.3,0.7-0.8,1.5l-0.9,1.2l-0.8-1.2c-0.2-0.3-0.3-0.5-0.4-0.6
		c-0.3-0.4-0.4-0.7-0.4-0.9c0-0.2,0.1-0.3,0.2-0.4s0.4-0.2,0.7-0.2v-0.4h-5.1V388.1z"/>
	<path d="M167.9,416.1h-0.5l-3.2,1.3l0.2,0.4c0.3-0.1,0.6-0.2,0.8-0.2c0.2,0,0.4,0.1,0.5,0.2s0.2,0.3,0.3,0.6s0.1,1.1,0.1,2.4v4
		c0,0.8-0.1,1.3-0.3,1.6s-0.6,0.4-1.1,0.4h-0.2v0.4h5.3v-0.4c-0.6,0-1-0.1-1.2-0.2s-0.3-0.3-0.5-0.5c-0.1-0.2-0.1-0.6-0.1-1.3v-5.7
		c0.9-1,1.8-1.5,2.8-1.5c0.6,0,1,0.2,1.3,0.7s0.4,1.2,0.4,2.1v4.4c0,0.6,0,1,0,1.1c-0.1,0.3-0.2,0.5-0.4,0.7s-0.5,0.2-1,0.2h-0.2
		v0.4h5.3v-0.4c-0.5,0-0.9-0.1-1.1-0.2s-0.3-0.3-0.4-0.5c-0.1-0.2-0.2-0.7-0.2-1.4v-4.6c0-1-0.1-1.7-0.3-2.2c-0.2-0.7-0.6-1.2-1-1.4
		s-0.9-0.4-1.5-0.4c-1.1,0-2.3,0.8-3.6,2.3V416.1z M159.7,418c0.8,1.1,1.2,2.6,1.2,4.5c0,1.5-0.2,2.6-0.7,3.2s-1.1,0.9-1.9,0.9
		c-1,0-1.8-0.6-2.5-1.7s-0.9-2.5-0.9-4c0-1,0.1-1.8,0.4-2.4s0.6-1,1-1.3s0.8-0.4,1.2-0.4C158.5,416.9,159.2,417.3,159.7,418z
		 M155.4,416.8c-0.8,0.5-1.4,1.2-1.9,2.2s-0.7,2-0.7,2.9c0,1.4,0.4,2.6,1.2,3.7c1,1.3,2.2,1.9,3.9,1.9c1,0,1.9-0.2,2.7-0.8
		s1.4-1.2,1.9-2.2s0.7-2,0.7-2.9c0-1.4-0.4-2.6-1.3-3.6c-1-1.2-2.3-1.9-3.9-1.9C157.1,416.1,156.2,416.4,155.4,416.8z M147.4,416.1
		l-3.2,1.3l0.1,0.4c0.3-0.1,0.6-0.2,0.8-0.2c0.2,0,0.4,0.1,0.5,0.2s0.2,0.3,0.3,0.5s0.1,1,0.1,2.2v4.2c0,0.6,0,1-0.1,1.1
		c-0.1,0.3-0.2,0.5-0.4,0.6c-0.3,0.2-0.7,0.3-1.2,0.3v0.4h5.5v-0.4c-0.5,0-0.9-0.1-1.1-0.2s-0.4-0.3-0.5-0.5
		c-0.1-0.3-0.2-0.8-0.2-1.3v-5.1c0.4-0.7,0.7-1.3,1.1-1.6c0.2-0.2,0.3-0.2,0.5-0.2c0.2,0,0.4,0.1,0.8,0.4s0.6,0.4,0.9,0.4
		c0.3,0,0.5-0.1,0.7-0.3s0.3-0.5,0.3-0.8c0-0.3-0.1-0.6-0.4-0.9s-0.6-0.4-1.1-0.4c-0.9,0-1.9,0.8-2.8,2.4v-2.4H147.4z M142.9,423
		c-0.4,0.9-0.8,1.6-1.3,2c-0.6,0.5-1.3,0.8-2.1,0.8c-1.1,0-1.9-0.5-2.5-1.5s-0.9-2.1-0.9-3.4c0-1.3,0.3-2.3,0.9-3
		c0.5-0.6,1.1-0.9,1.9-0.9c0.5,0,0.9,0.1,1.1,0.4c0.3,0.2,0.4,0.6,0.5,1.1s0.1,0.8,0.3,0.9c0.2,0.3,0.6,0.4,1,0.4
		c0.3,0,0.6-0.1,0.8-0.3s0.3-0.4,0.3-0.7c0-0.6-0.3-1.2-1-1.7s-1.5-0.8-2.6-0.8c-1.4,0-2.6,0.5-3.6,1.6s-1.5,2.4-1.5,4.1
		c0,1.7,0.5,3.1,1.4,4.1s2,1.5,3.2,1.5c1,0,2-0.4,2.8-1.1s1.4-1.8,1.7-3.3L142.9,423z M130.6,416.1l-3.2,1.3l0.2,0.4
		c0.3-0.1,0.6-0.2,0.8-0.2c0.2,0,0.4,0,0.5,0.1s0.2,0.3,0.3,0.5c0.1,0.3,0.1,1.1,0.1,2.3v4.1c0,0.7-0.1,1.1-0.2,1.3
		s-0.2,0.4-0.4,0.5s-0.5,0.2-1.1,0.2v0.4h5.2v-0.4c-0.5,0-0.9-0.1-1-0.2s-0.3-0.3-0.4-0.5s-0.1-0.7-0.1-1.3v-8.6H130.6z
		 M129.3,410.9c-0.2,0.2-0.3,0.5-0.3,0.8s0.1,0.6,0.4,0.8s0.5,0.4,0.8,0.4s0.6-0.1,0.8-0.4s0.3-0.5,0.3-0.8s-0.1-0.6-0.3-0.8
		s-0.5-0.3-0.8-0.3C129.8,410.5,129.5,410.7,129.3,410.9z M111.9,416.1h-0.5l-3.2,1.3l0.2,0.4c0.3-0.1,0.6-0.2,0.8-0.2
		c0.2,0,0.4,0,0.5,0.1s0.2,0.3,0.3,0.5c0.1,0.3,0.1,1.1,0.1,2.3v4.1c0,0.7-0.1,1.1-0.2,1.3s-0.2,0.4-0.4,0.5s-0.5,0.2-1,0.2v0.4h5.3
		v-0.4c-0.6,0-1-0.1-1.2-0.2s-0.3-0.3-0.4-0.5s-0.1-0.7-0.1-1.4V419c0.4-0.4,0.9-0.8,1.5-1.2c0.4-0.2,0.8-0.3,1.3-0.3
		c0.6,0,1.1,0.2,1.4,0.8c0.3,0.4,0.4,1,0.4,1.9v4.6c0,0.6,0,1-0.1,1.2c-0.1,0.3-0.2,0.5-0.5,0.6s-0.6,0.2-1.2,0.2v0.4h5.4v-0.4
		c-0.5,0-0.9-0.1-1.2-0.2s-0.4-0.3-0.5-0.5s-0.1-0.6-0.1-1.4v-5.1l0-0.5l0-0.1c0.6-0.6,1.1-0.9,1.5-1.2s0.8-0.3,1.2-0.3
		c0.7,0,1.2,0.2,1.5,0.8c0.2,0.4,0.3,1,0.3,1.9v4.6c0,0.6,0,1,0,1.1c-0.1,0.3-0.2,0.5-0.4,0.6c-0.3,0.2-0.6,0.3-1.1,0.3h-0.2v0.4
		h5.3v-0.4c-0.5,0-0.8-0.1-1-0.2s-0.4-0.3-0.4-0.4c-0.1-0.2-0.2-0.7-0.2-1.4v-4.6c0-1-0.1-1.7-0.3-2.1c-0.3-0.7-0.6-1.1-1-1.4
		s-0.9-0.4-1.5-0.4c-0.6,0-1.2,0.1-1.7,0.4s-1.2,0.9-2,1.8c-0.2-0.7-0.5-1.3-1-1.7s-1.1-0.6-1.7-0.6c-0.4,0-0.8,0.1-1.2,0.2
		s-0.8,0.4-1.1,0.7c-0.1,0.1-0.6,0.6-1.4,1.3V416.1z M103.8,418c0.8,1.1,1.2,2.6,1.2,4.5c0,1.5-0.2,2.6-0.7,3.2s-1.1,0.9-1.9,0.9
		c-1,0-1.8-0.6-2.5-1.7s-0.9-2.5-0.9-4c0-1,0.1-1.8,0.4-2.4s0.6-1,1-1.3s0.8-0.4,1.2-0.4C102.5,416.9,103.2,417.3,103.8,418z
		 M99.5,416.8c-0.8,0.5-1.4,1.2-1.9,2.2s-0.7,2-0.7,2.9c0,1.4,0.4,2.6,1.2,3.7c1,1.3,2.2,1.9,3.9,1.9c1,0,1.9-0.2,2.7-0.8
		s1.4-1.2,1.9-2.2s0.7-2,0.7-2.9c0-1.4-0.4-2.6-1.3-3.6c-1-1.2-2.3-1.9-3.9-1.9C101.1,416.1,100.3,416.4,99.5,416.8z"/>
	<path d="M111.9,444.9l-3.2,1.3l0.2,0.4c0.3-0.1,0.6-0.2,0.8-0.2c0.2,0,0.4,0,0.5,0.1s0.2,0.3,0.3,0.5c0.1,0.3,0.1,1.1,0.1,2.3v4.1
		c0,0.7-0.1,1.1-0.2,1.3s-0.2,0.4-0.4,0.5s-0.5,0.2-1.1,0.2v0.4h5.2v-0.4c-0.5,0-0.9-0.1-1-0.2s-0.3-0.3-0.4-0.5s-0.1-0.7-0.1-1.3
		v-8.6H111.9z M110.6,439.7c-0.2,0.2-0.3,0.5-0.3,0.8s0.1,0.6,0.4,0.8s0.5,0.4,0.8,0.4s0.6-0.1,0.8-0.4s0.3-0.5,0.3-0.8
		s-0.1-0.6-0.3-0.8s-0.5-0.3-0.8-0.3C111.1,439.3,110.9,439.5,110.6,439.7z M101.1,446.9c0.4-0.2,0.7-0.3,1.1-0.3
		c0.7,0,1.3,0.3,1.8,0.9c0.7,0.9,1.1,2.1,1.1,3.8c0,1.4-0.3,2.6-0.9,3.4c-0.5,0.6-1.1,0.9-1.9,0.9c-0.6,0-1.2-0.2-1.6-0.5
		s-0.7-0.7-0.8-1.2c-0.1-0.3-0.1-0.8-0.1-1.7v-4C100.4,447.5,100.8,447.1,101.1,446.9z M96.1,446.7c0.3-0.1,0.5-0.2,0.7-0.2
		c0.2,0,0.4,0,0.6,0.1s0.2,0.2,0.3,0.4s0.1,0.6,0.1,1.3v10.1c0,0.8,0,1.3-0.1,1.5s-0.2,0.3-0.3,0.4c-0.3,0.2-0.7,0.3-1.1,0.2h-0.3
		v0.4h5.6v-0.4c-0.6,0-1-0.1-1.2-0.2s-0.4-0.3-0.5-0.5s-0.1-0.7-0.1-1.4v-3.3c0.4,0.4,0.7,0.6,1.1,0.7c0.4,0.2,0.9,0.2,1.5,0.2
		c1.3,0,2.4-0.5,3.3-1.5c1.1-1.2,1.6-2.7,1.6-4.6c0-1.7-0.4-3-1.3-4c-0.7-0.8-1.6-1.3-2.7-1.3c-0.6,0-1.2,0.2-1.8,0.6s-1.1,1-1.7,2
		V445h-0.4l-3.3,1.3L96.1,446.7z"/>
	<path d="M123.8,475.6c0.8,1.1,1.2,2.6,1.2,4.5c0,1.5-0.2,2.6-0.7,3.2s-1.1,0.9-1.9,0.9c-1,0-1.8-0.6-2.5-1.7s-0.9-2.5-0.9-4
		c0-1,0.1-1.8,0.4-2.4s0.6-1,1-1.3s0.8-0.4,1.2-0.4C122.5,474.5,123.2,474.9,123.8,475.6z M119.5,474.4c-0.8,0.5-1.4,1.2-1.9,2.2
		s-0.7,2-0.7,2.9c0,1.4,0.4,2.6,1.2,3.7c1,1.3,2.2,1.9,3.9,1.9c1,0,1.9-0.2,2.7-0.8s1.4-1.2,1.9-2.2s0.7-2,0.7-2.9
		c0-1.4-0.4-2.6-1.3-3.6c-1-1.2-2.3-1.9-3.9-1.9C121.1,473.7,120.3,474,119.5,474.4z M107.4,468.1l-3.2,1.3l0.2,0.4
		c0.4-0.1,0.6-0.2,0.8-0.2c0.2,0,0.4,0.1,0.5,0.2s0.2,0.3,0.3,0.6s0.1,1,0.1,2.3v9.7c0,0.7,0,1.1-0.1,1.3s-0.2,0.4-0.4,0.4
		c-0.3,0.1-0.6,0.2-1.1,0.2v0.4h5.3v-0.4c-0.5,0-0.9-0.1-1.2-0.2s-0.4-0.3-0.5-0.5s-0.1-0.6-0.1-1.4v-5.7c0.6-0.6,1.1-1,1.5-1.2
		s0.8-0.3,1.2-0.3c0.4,0,0.7,0.1,1,0.3s0.5,0.5,0.6,0.8s0.2,1.1,0.2,2.3v3.8c0,0.6,0,1,0,1.1c-0.1,0.3-0.2,0.5-0.4,0.7
		s-0.5,0.2-1,0.2h-0.2v0.4h5.3v-0.4c-0.5,0-0.8-0.1-1-0.2s-0.3-0.3-0.4-0.4c-0.1-0.2-0.2-0.7-0.2-1.4v-3.8c0-1.3-0.1-2.2-0.2-2.7
		c-0.2-0.7-0.5-1.2-1-1.6s-1-0.5-1.6-0.5c-0.5,0-1,0.1-1.5,0.4s-1.2,0.9-2.1,1.8v-7.9H107.4z M99.4,473.7l-3.2,1.3l0.1,0.4
		c0.3-0.1,0.6-0.2,0.8-0.2c0.2,0,0.4,0.1,0.5,0.2s0.2,0.3,0.3,0.5s0.1,1,0.1,2.2v4.2c0,0.6,0,1-0.1,1.1c-0.1,0.3-0.2,0.5-0.4,0.6
		c-0.3,0.2-0.7,0.3-1.2,0.3v0.4h5.5v-0.4c-0.5,0-0.9-0.1-1.1-0.2s-0.4-0.3-0.5-0.5c-0.1-0.3-0.2-0.8-0.2-1.3v-5.1
		c0.4-0.7,0.7-1.3,1.1-1.6c0.2-0.2,0.3-0.2,0.5-0.2c0.2,0,0.4,0.1,0.8,0.4s0.6,0.4,0.9,0.4c0.3,0,0.5-0.1,0.7-0.3s0.3-0.5,0.3-0.8
		c0-0.3-0.1-0.6-0.4-0.9s-0.6-0.4-1.1-0.4c-0.9,0-1.9,0.8-2.8,2.4v-2.4H99.4z"/>
	<path d="M147.2,512.5c-0.4,0-0.8-0.2-1.2-0.6s-0.5-0.8-0.5-1.4c0-0.4,0.1-0.9,0.4-1.2s0.7-0.7,1.3-1.1c0.3-0.2,1.1-0.5,2.3-1v4.1
		C148.5,512.1,147.8,512.5,147.2,512.5z M149.9,513.4c0.2,0.3,0.5,0.4,0.9,0.4c0.8,0,1.6-0.6,2.5-1.8v-0.7c-0.5,0.5-0.8,0.8-0.9,0.9
		c-0.1,0.1-0.2,0.1-0.3,0.1c-0.1,0-0.2,0-0.3-0.1s-0.2-0.2-0.2-0.5s-0.1-0.9-0.1-1.9v-3.6c0-1-0.1-1.7-0.2-2.1
		c-0.2-0.5-0.6-0.9-1-1.1c-0.6-0.3-1.4-0.5-2.3-0.5c-1.2,0-2.2,0.3-2.9,0.8s-1,1.2-1,1.9c0,0.4,0.1,0.6,0.3,0.8s0.4,0.3,0.7,0.3
		c0.3,0,0.5-0.1,0.7-0.3s0.3-0.5,0.3-0.8l0-0.7c0-0.3,0.1-0.6,0.4-0.9c0.3-0.3,0.7-0.4,1.2-0.4c0.6,0,1.1,0.2,1.5,0.6
		s0.5,1.1,0.5,2.2v0.4c-1.8,0.7-3.2,1.2-4,1.7s-1.3,1-1.7,1.5c-0.2,0.4-0.4,0.8-0.4,1.4c0,0.8,0.2,1.5,0.7,2s1.1,0.8,1.8,0.8
		c0.5,0,0.9-0.1,1.3-0.3c0.3-0.1,1-0.6,2.1-1.5C149.5,512.7,149.6,513.1,149.9,513.4z M127.9,502.5h-0.5l-3.2,1.3l0.2,0.4
		c0.3-0.1,0.6-0.2,0.8-0.2c0.2,0,0.4,0,0.5,0.1s0.2,0.3,0.3,0.5c0.1,0.3,0.1,1.1,0.1,2.3v4.1c0,0.7-0.1,1.1-0.2,1.3
		s-0.2,0.4-0.4,0.5s-0.5,0.2-1,0.2v0.4h5.3v-0.4c-0.6,0-1-0.1-1.2-0.2s-0.3-0.3-0.4-0.5c-0.1-0.2-0.1-0.7-0.1-1.4v-5.8
		c0.4-0.4,0.9-0.8,1.5-1.2c0.4-0.2,0.8-0.3,1.3-0.3c0.6,0,1.1,0.2,1.4,0.8c0.3,0.4,0.4,1,0.4,1.9v4.6c0,0.6,0,1-0.1,1.2
		c-0.1,0.3-0.2,0.5-0.5,0.6s-0.6,0.2-1.2,0.2v0.4h5.4v-0.4c-0.5,0-0.9-0.1-1.2-0.2s-0.4-0.3-0.5-0.5s-0.1-0.6-0.1-1.4v-5.1l0-0.5
		l0-0.1c0.6-0.6,1.1-0.9,1.5-1.2s0.8-0.3,1.2-0.3c0.7,0,1.2,0.2,1.5,0.8c0.2,0.4,0.3,1,0.3,1.9v4.6c0,0.6,0,1,0,1.1
		c-0.1,0.3-0.2,0.5-0.4,0.6c-0.3,0.2-0.6,0.3-1.1,0.3h-0.2v0.4h5.3v-0.4c-0.5,0-0.8-0.1-1-0.2s-0.4-0.3-0.4-0.4
		c-0.1-0.2-0.2-0.7-0.2-1.4v-4.6c0-1-0.1-1.7-0.3-2.1c-0.3-0.7-0.6-1.1-1-1.4s-0.9-0.4-1.5-0.4c-0.6,0-1.2,0.1-1.7,0.4
		s-1.2,0.9-2,1.8c-0.2-0.7-0.5-1.3-1-1.7s-1.1-0.6-1.7-0.6c-0.4,0-0.8,0.1-1.2,0.2s-0.8,0.4-1.1,0.7c-0.1,0.1-0.6,0.6-1.4,1.3V502.5
		z M119.6,513.9c1.2,0,2,0.1,2.4,0.3c0.4,0.2,0.6,0.5,0.6,0.9c0,0.6-0.3,1.1-1,1.6s-1.7,0.7-3.1,0.7c-1.5,0-2.6-0.2-3.4-0.7
		c-0.5-0.3-0.7-0.6-0.7-1c0-0.3,0.1-0.6,0.3-0.9s0.5-0.7,0.8-1.1C116.5,513.7,117.8,513.8,119.6,513.9z M119.2,503.9
		c0.5,0.7,0.8,1.7,0.8,2.9c0,1-0.2,1.7-0.6,2.1s-0.9,0.7-1.5,0.7c-0.6,0-1.1-0.3-1.5-0.8c-0.5-0.7-0.8-1.6-0.8-2.9
		c0-1,0.2-1.7,0.6-2.1s0.9-0.7,1.5-0.7C118.3,503.1,118.8,503.4,119.2,503.9z M114.1,511.2c-0.2,0.4-0.3,0.7-0.3,1
		c0,0.2,0.1,0.5,0.3,0.7s0.5,0.4,0.9,0.7c-0.7,0.8-1.1,1.2-1.2,1.3c-0.4,0.5-0.7,0.9-0.8,1.2c-0.1,0.2-0.1,0.4-0.1,0.6
		c0,0.4,0.3,0.8,0.9,1.2c1,0.7,2.3,1,3.8,1c2,0,3.6-0.6,4.8-1.7c0.8-0.8,1.2-1.6,1.2-2.5c0-0.6-0.2-1.2-0.7-1.6s-1-0.7-1.7-0.8
		c-0.5-0.1-1.5-0.1-3.1-0.2c-0.9,0-1.4-0.1-1.6-0.1c-0.4-0.1-0.6-0.1-0.8-0.3s-0.2-0.3-0.2-0.4c0-0.2,0.1-0.3,0.2-0.6
		s0.4-0.5,0.7-0.8c0.6,0.2,1.1,0.2,1.6,0.2c1.3,0,2.3-0.4,3.1-1.1s1.1-1.6,1.1-2.6c0-0.9-0.2-1.6-0.7-2.2h1.4c0.3,0,0.5,0,0.6,0
		l0.1-0.1c0-0.1,0.1-0.2,0.1-0.4c0-0.2,0-0.3-0.1-0.4l-0.1-0.1c-0.1,0-0.2,0-0.6,0h-2.3c-0.8-0.5-1.6-0.8-2.7-0.8
		c-1.2,0-2.3,0.4-3.1,1.1s-1.2,1.7-1.2,2.7c0,0.7,0.2,1.3,0.5,1.9s0.9,1,1.5,1.3C114.8,510.4,114.3,510.9,114.1,511.2z M109.3,502.5
		l-3.2,1.3l0.2,0.4c0.3-0.1,0.6-0.2,0.8-0.2c0.2,0,0.4,0,0.5,0.1s0.2,0.3,0.3,0.5c0.1,0.3,0.1,1.1,0.1,2.3v4.1
		c0,0.7-0.1,1.1-0.2,1.3s-0.2,0.4-0.4,0.5s-0.5,0.2-1.1,0.2v0.4h5.2v-0.4c-0.5,0-0.9-0.1-1-0.2s-0.3-0.3-0.4-0.5s-0.1-0.7-0.1-1.3
		v-8.6H109.3z M108,497.3c-0.2,0.2-0.3,0.5-0.3,0.8s0.1,0.6,0.4,0.8s0.5,0.4,0.8,0.4s0.6-0.1,0.8-0.4s0.3-0.5,0.3-0.8
		s-0.1-0.6-0.3-0.8s-0.5-0.3-0.8-0.3C108.5,496.9,108.2,497.1,108,497.3z M103.3,502.5c-0.1,0.2-0.2,0.3-0.2,0.4s-0.2,0.1-0.3,0.1
		c-0.1,0-0.4-0.1-0.8-0.2c-0.6-0.2-1.1-0.3-1.5-0.3c-1,0-1.7,0.3-2.3,0.9s-0.9,1.3-0.9,2.2c0,0.7,0.2,1.2,0.5,1.7
		c0.4,0.5,1.1,1,2.2,1.5s1.9,1,2.3,1.4s0.6,0.8,0.6,1.4c0,0.4-0.2,0.8-0.5,1.1s-0.8,0.5-1.3,0.5c-0.8,0-1.5-0.3-2.1-0.8
		s-1-1.4-1.3-2.5h-0.4v3.8h0.4c0.1-0.2,0.2-0.3,0.4-0.3c0.2,0,0.4,0,0.6,0.1c0.8,0.2,1.6,0.4,2.2,0.4c0.9,0,1.7-0.3,2.5-0.9
		s1.1-1.4,1.1-2.4c0-1.3-0.8-2.3-2.4-3.1l-1.7-0.8c-0.7-0.4-1.2-0.7-1.5-1c-0.2-0.3-0.4-0.7-0.4-1.1c0-0.4,0.2-0.7,0.5-1
		s0.8-0.4,1.3-0.4c0.7,0,1.3,0.2,1.8,0.6s0.8,1.2,1.1,2.3h0.4v-3.7H103.3z"/>
	<path d="M119.8,531.7v0.4c0.7,0,1.2,0.1,1.4,0.3s0.3,0.6,0.3,1.2v6.1c-0.6,0.6-1.1,1-1.5,1.2s-0.8,0.3-1.1,0.3
		c-0.5,0-0.9-0.2-1.3-0.5s-0.5-1-0.5-2v-7.2h-3.8v0.4c0.6,0,1,0,1.2,0.1s0.4,0.3,0.5,0.5s0.2,0.5,0.2,1.1v4.8c0,1,0.1,1.8,0.3,2.3
		s0.5,1,0.9,1.3s1,0.5,1.6,0.5c0.5,0,1.1-0.1,1.5-0.4s1.2-0.9,2.1-1.9v2.3h0.5l3.2-1.3l-0.2-0.4c-0.3,0.1-0.6,0.2-0.8,0.2
		c-0.2,0-0.3-0.1-0.5-0.2s-0.2-0.3-0.3-0.6s-0.1-1-0.1-2.3v-6.5H119.8z M107.2,541.3c-0.4,0-0.8-0.2-1.2-0.6s-0.5-0.8-0.5-1.4
		c0-0.4,0.1-0.9,0.4-1.2s0.7-0.7,1.3-1.1c0.3-0.2,1.1-0.5,2.3-1v4.1C108.5,540.9,107.8,541.3,107.2,541.3z M109.9,542.2
		c0.2,0.3,0.5,0.4,0.9,0.4c0.8,0,1.6-0.6,2.5-1.8v-0.7c-0.5,0.5-0.8,0.8-0.9,0.9c-0.1,0.1-0.2,0.1-0.3,0.1c-0.1,0-0.2,0-0.3-0.1
		s-0.2-0.2-0.2-0.5s-0.1-0.9-0.1-1.9V535c0-1-0.1-1.7-0.2-2.1c-0.2-0.5-0.6-0.9-1-1.1c-0.6-0.3-1.4-0.5-2.3-0.5
		c-1.2,0-2.2,0.3-2.9,0.8s-1,1.2-1,1.9c0,0.4,0.1,0.6,0.3,0.8s0.4,0.3,0.7,0.3c0.3,0,0.5-0.1,0.7-0.3s0.3-0.5,0.3-0.8l0-0.7
		c0-0.3,0.1-0.6,0.4-0.9c0.3-0.3,0.7-0.4,1.2-0.4c0.6,0,1.1,0.2,1.5,0.6s0.5,1.1,0.5,2.2v0.4c-1.8,0.7-3.2,1.2-4,1.7s-1.3,1-1.7,1.5
		c-0.2,0.4-0.4,0.8-0.4,1.4c0,0.8,0.2,1.5,0.7,2s1.1,0.8,1.8,0.8c0.5,0,0.9-0.1,1.3-0.3c0.3-0.1,1-0.6,2.1-1.5
		C109.5,541.5,109.6,541.9,109.9,542.2z M99.5,528.1c-0.3,0.8-0.6,1.3-0.8,1.6c-0.4,0.6-0.8,1-1.2,1.5s-0.9,0.7-1.3,0.9v0.4h1.7v7.2
		c0,0.8,0.1,1.3,0.2,1.7s0.4,0.7,0.8,0.9s0.7,0.3,1.1,0.3c0.5,0,1-0.2,1.5-0.6s0.9-1,1.2-1.7h-0.5c-0.1,0.3-0.3,0.5-0.6,0.7
		s-0.5,0.2-0.8,0.2c-0.3,0-0.6-0.1-0.8-0.4s-0.3-0.7-0.3-1.4v-7h2.5v-0.8h-2.5v-3.5H99.5z"/>
	<path d="M158.6,560.1h-0.5l-3.2,1.3l0.2,0.4c0.3-0.1,0.6-0.2,0.8-0.2c0.2,0,0.4,0.1,0.5,0.2s0.2,0.3,0.3,0.6s0.1,1.1,0.1,2.4v4
		c0,0.8-0.1,1.3-0.3,1.6s-0.6,0.4-1.1,0.4H155v0.4h5.3v-0.4c-0.6,0-1-0.1-1.2-0.2s-0.3-0.3-0.5-0.5c-0.1-0.2-0.1-0.6-0.1-1.3v-5.7
		c0.9-1,1.8-1.5,2.8-1.5c0.6,0,1,0.2,1.3,0.7s0.4,1.2,0.4,2.1v4.4c0,0.6,0,1,0,1.1c-0.1,0.3-0.2,0.5-0.4,0.7s-0.5,0.2-1,0.2h-0.2
		v0.4h5.3v-0.4c-0.5,0-0.9-0.1-1.1-0.2s-0.3-0.3-0.4-0.5c-0.1-0.2-0.2-0.7-0.2-1.4v-4.6c0-1-0.1-1.7-0.3-2.2c-0.2-0.7-0.6-1.2-1-1.4
		s-0.9-0.4-1.5-0.4c-1.1,0-2.3,0.8-3.6,2.3V560.1z M150.4,562c0.8,1.1,1.2,2.6,1.2,4.5c0,1.5-0.2,2.6-0.7,3.2s-1.1,0.9-1.9,0.9
		c-1,0-1.8-0.6-2.5-1.7s-0.9-2.5-0.9-4c0-1,0.1-1.8,0.4-2.4s0.6-1,1-1.3s0.8-0.4,1.2-0.4C149.2,560.9,149.9,561.3,150.4,562z
		 M146.1,560.8c-0.8,0.5-1.4,1.2-1.9,2.2s-0.7,2-0.7,2.9c0,1.4,0.4,2.6,1.2,3.7c1,1.3,2.2,1.9,3.9,1.9c1,0,1.9-0.2,2.7-0.8
		s1.4-1.2,1.9-2.2s0.7-2,0.7-2.9c0-1.4-0.4-2.6-1.3-3.6c-1-1.2-2.3-1.9-3.9-1.9C147.8,560.1,146.9,560.4,146.1,560.8z M139.9,554.5
		l-3.2,1.3l0.2,0.4c0.3-0.1,0.6-0.2,0.8-0.2c0.2,0,0.3,0.1,0.5,0.2s0.2,0.3,0.3,0.6s0.1,1,0.1,2.2v9.8c0,0.7-0.1,1.1-0.2,1.3
		s-0.2,0.4-0.4,0.5s-0.5,0.2-1,0.2v0.4h5.3v-0.4c-0.6,0-0.9-0.1-1.1-0.2s-0.4-0.3-0.5-0.5s-0.1-0.7-0.1-1.3v-14.2H139.9z
		 M133.3,560.1l-3.2,1.3l0.2,0.4c0.3-0.1,0.6-0.2,0.8-0.2c0.2,0,0.4,0,0.5,0.1s0.2,0.3,0.3,0.5c0.1,0.3,0.1,1.1,0.1,2.3v4.1
		c0,0.7-0.1,1.1-0.2,1.3s-0.2,0.4-0.4,0.5s-0.5,0.2-1.1,0.2v0.4h5.2v-0.4c-0.5,0-0.9-0.1-1-0.2s-0.3-0.3-0.4-0.5s-0.1-0.7-0.1-1.3
		v-8.6H133.3z M132,554.9c-0.2,0.2-0.3,0.5-0.3,0.8s0.1,0.6,0.4,0.8s0.5,0.4,0.8,0.4s0.6-0.1,0.8-0.4s0.3-0.5,0.3-0.8
		s-0.1-0.6-0.3-0.8s-0.5-0.3-0.8-0.3C132.5,554.5,132.2,554.7,132,554.9z M127.3,560.1c-0.1,0.2-0.2,0.3-0.2,0.4s-0.2,0.1-0.3,0.1
		c-0.1,0-0.4-0.1-0.8-0.2c-0.6-0.2-1.1-0.3-1.5-0.3c-1,0-1.7,0.3-2.3,0.9s-0.9,1.3-0.9,2.2c0,0.7,0.2,1.2,0.5,1.7
		c0.4,0.5,1.1,1,2.2,1.5s1.9,1,2.3,1.4s0.6,0.8,0.6,1.4c0,0.4-0.2,0.8-0.5,1.1s-0.8,0.5-1.3,0.5c-0.8,0-1.5-0.3-2.1-0.8
		s-1-1.4-1.3-2.5h-0.4v3.8h0.4c0.1-0.2,0.2-0.3,0.4-0.3c0.2,0,0.4,0,0.6,0.1c0.8,0.2,1.6,0.4,2.2,0.4c0.9,0,1.7-0.3,2.5-0.9
		c0.7-0.6,1.1-1.4,1.1-2.4c0-1.3-0.8-2.3-2.4-3.1l-1.7-0.8c-0.7-0.4-1.2-0.7-1.5-1c-0.2-0.3-0.4-0.7-0.4-1.1c0-0.4,0.2-0.7,0.5-1
		s0.8-0.4,1.3-0.4c0.7,0,1.3,0.2,1.8,0.6s0.8,1.2,1.1,2.3h0.4v-3.7H127.3z M113.1,562.1c0.4-0.2,0.7-0.3,1.1-0.3
		c0.7,0,1.3,0.3,1.8,0.9c0.7,0.9,1.1,2.1,1.1,3.8c0,1.4-0.3,2.6-0.9,3.4c-0.5,0.6-1.1,0.9-1.9,0.9c-0.6,0-1.2-0.2-1.6-0.5
		s-0.7-0.7-0.8-1.2c-0.1-0.3-0.1-0.8-0.1-1.7v-4C112.4,562.7,112.8,562.3,113.1,562.1z M108.1,561.9c0.3-0.1,0.5-0.2,0.7-0.2
		c0.2,0,0.4,0,0.6,0.1s0.2,0.2,0.3,0.4s0.1,0.6,0.1,1.3v10.1c0,0.8,0,1.3-0.1,1.5s-0.2,0.3-0.3,0.4c-0.3,0.2-0.7,0.3-1.1,0.2h-0.3
		v0.4h5.6v-0.4c-0.6,0-1-0.1-1.2-0.2s-0.4-0.3-0.5-0.5s-0.1-0.7-0.1-1.4v-3.3c0.4,0.4,0.7,0.6,1.1,0.7c0.4,0.2,0.9,0.2,1.5,0.2
		c1.3,0,2.4-0.5,3.3-1.5c1.1-1.2,1.6-2.7,1.6-4.6c0-1.7-0.4-3-1.3-4c-0.7-0.8-1.6-1.3-2.7-1.3c-0.6,0-1.2,0.2-1.8,0.6s-1.1,1-1.7,2
		v-2.5h-0.4l-3.3,1.3L108.1,561.9z M102.5,560.5v0.4c0.7,0,1.2,0.1,1.4,0.3s0.3,0.6,0.3,1.2v6.1c-0.6,0.6-1.1,1-1.5,1.2
		s-0.8,0.3-1.1,0.3c-0.5,0-0.9-0.2-1.3-0.5s-0.5-1-0.5-2v-7.2H96v0.4c0.6,0,1,0,1.2,0.1s0.4,0.3,0.5,0.5s0.2,0.5,0.2,1.1v4.8
		c0,1,0.1,1.8,0.3,2.3s0.5,1,0.9,1.3s1,0.5,1.6,0.5c0.5,0,1.1-0.1,1.5-0.4s1.2-0.9,2.1-1.9v2.3h0.5l3.2-1.3l-0.2-0.4
		c-0.3,0.1-0.6,0.2-0.8,0.2c-0.2,0-0.3-0.1-0.5-0.2s-0.2-0.3-0.3-0.6s-0.1-1-0.1-2.3v-6.5H102.5z"/>
	<path d="M123.9,588.9l-3.2,1.3l0.2,0.4c0.3-0.1,0.6-0.2,0.8-0.2c0.2,0,0.4,0,0.5,0.1s0.2,0.3,0.3,0.5c0.1,0.3,0.1,1.1,0.1,2.3v4.1
		c0,0.7-0.1,1.1-0.2,1.3s-0.2,0.4-0.4,0.5s-0.5,0.2-1.1,0.2v0.4h5.2v-0.4c-0.5,0-0.9-0.1-1-0.2s-0.3-0.3-0.4-0.5s-0.1-0.7-0.1-1.3
		v-8.6H123.9z M122.6,583.7c-0.2,0.2-0.3,0.5-0.3,0.8s0.1,0.6,0.4,0.8s0.5,0.4,0.8,0.4s0.6-0.1,0.8-0.4s0.3-0.5,0.3-0.8
		s-0.1-0.6-0.3-0.8s-0.5-0.3-0.8-0.3C123.1,583.3,122.9,583.5,122.6,583.7z M111.4,583.3l-3.2,1.3l0.2,0.4c0.4-0.1,0.6-0.2,0.8-0.2
		c0.2,0,0.4,0.1,0.5,0.2s0.2,0.3,0.3,0.6s0.1,1,0.1,2.3v9.7c0,0.7,0,1.1-0.1,1.3s-0.2,0.4-0.4,0.4c-0.3,0.1-0.6,0.2-1.1,0.2v0.4h5.3
		v-0.4c-0.5,0-0.9-0.1-1.2-0.2s-0.4-0.3-0.5-0.5s-0.1-0.6-0.1-1.4v-5.7c0.6-0.6,1.1-1,1.5-1.2s0.8-0.3,1.2-0.3c0.4,0,0.7,0.1,1,0.3
		s0.5,0.5,0.6,0.8s0.2,1.1,0.2,2.3v3.8c0,0.6,0,1,0,1.1c-0.1,0.3-0.2,0.5-0.4,0.7s-0.5,0.2-1,0.2h-0.2v0.4h5.3v-0.4
		c-0.5,0-0.8-0.1-1-0.2s-0.3-0.3-0.4-0.4c-0.1-0.2-0.2-0.7-0.2-1.4v-3.8c0-1.3-0.1-2.2-0.2-2.7c-0.2-0.7-0.5-1.2-1-1.6
		s-1-0.5-1.6-0.5c-0.5,0-1,0.1-1.5,0.4s-1.2,0.9-2.1,1.8v-7.9H111.4z M101.1,590.9c0.4-0.2,0.7-0.3,1.1-0.3c0.7,0,1.3,0.3,1.8,0.9
		c0.7,0.9,1.1,2.1,1.1,3.8c0,1.4-0.3,2.6-0.9,3.4c-0.5,0.6-1.1,0.9-1.9,0.9c-0.6,0-1.2-0.2-1.6-0.5s-0.7-0.7-0.8-1.2
		c-0.1-0.3-0.1-0.8-0.1-1.7v-4C100.4,591.5,100.8,591.1,101.1,590.9z M96.1,590.7c0.3-0.1,0.5-0.2,0.7-0.2c0.2,0,0.4,0,0.6,0.1
		s0.2,0.2,0.3,0.4s0.1,0.6,0.1,1.3v10.1c0,0.8,0,1.3-0.1,1.5s-0.2,0.3-0.3,0.4c-0.3,0.2-0.7,0.3-1.1,0.2h-0.3v0.4h5.6v-0.4
		c-0.6,0-1-0.1-1.2-0.2s-0.4-0.3-0.5-0.5s-0.1-0.7-0.1-1.4v-3.3c0.4,0.4,0.7,0.6,1.1,0.7c0.4,0.2,0.9,0.2,1.5,0.2
		c1.3,0,2.4-0.5,3.3-1.5c1.1-1.2,1.6-2.7,1.6-4.6c0-1.7-0.4-3-1.3-4c-0.7-0.8-1.6-1.3-2.7-1.3c-0.6,0-1.2,0.2-1.8,0.6s-1.1,1-1.7,2
		V589h-0.4l-3.3,1.3L96.1,590.7z"/>
	<path d="M122.6,617.7l-3.2,1.3l0.2,0.4c0.3-0.1,0.6-0.2,0.8-0.2c0.2,0,0.4,0,0.5,0.1s0.2,0.3,0.3,0.5c0.1,0.3,0.1,1.1,0.1,2.3v4.1
		c0,0.7-0.1,1.1-0.2,1.3s-0.2,0.4-0.4,0.5s-0.5,0.2-1.1,0.2v0.4h5.2v-0.4c-0.5,0-0.9-0.1-1-0.2s-0.3-0.3-0.4-0.5s-0.1-0.7-0.1-1.3
		v-8.6H122.6z M121.3,612.5c-0.2,0.2-0.3,0.5-0.3,0.8s0.1,0.6,0.4,0.8s0.5,0.4,0.8,0.4s0.6-0.1,0.8-0.4s0.3-0.5,0.3-0.8
		s-0.1-0.6-0.3-0.8s-0.5-0.3-0.8-0.3C121.8,612.1,121.5,612.3,121.3,612.5z M110,612.1l-3.2,1.3l0.2,0.4c0.4-0.1,0.6-0.2,0.8-0.2
		c0.2,0,0.4,0.1,0.5,0.2s0.2,0.3,0.3,0.6s0.1,1,0.1,2.3v9.7c0,0.7,0,1.1-0.1,1.3s-0.2,0.4-0.4,0.4c-0.3,0.1-0.6,0.2-1.1,0.2v0.4h5.3
		v-0.4c-0.5,0-0.9-0.1-1.2-0.2s-0.4-0.3-0.5-0.5s-0.1-0.6-0.1-1.4v-5.7c0.6-0.6,1.1-1,1.5-1.2s0.8-0.3,1.2-0.3c0.4,0,0.7,0.1,1,0.3
		s0.5,0.5,0.6,0.8s0.2,1.1,0.2,2.3v3.8c0,0.6,0,1,0,1.1c-0.1,0.3-0.2,0.5-0.4,0.7s-0.5,0.2-1,0.2h-0.2v0.4h5.3v-0.4
		c-0.5,0-0.8-0.1-1-0.2s-0.3-0.3-0.4-0.4c-0.1-0.2-0.2-0.7-0.2-1.4v-3.8c0-1.3-0.1-2.2-0.2-2.7c-0.2-0.7-0.5-1.2-1-1.6
		s-1-0.5-1.6-0.5c-0.5,0-1,0.1-1.5,0.4s-1.2,0.9-2.1,1.8v-7.9H110z M105.5,624.6c-0.4,0.9-0.8,1.6-1.3,2c-0.6,0.5-1.3,0.8-2.1,0.8
		c-1.1,0-1.9-0.5-2.5-1.5s-0.9-2.1-0.9-3.4c0-1.3,0.3-2.3,0.9-3c0.5-0.6,1.1-0.9,1.9-0.9c0.5,0,0.9,0.1,1.1,0.4
		c0.3,0.2,0.4,0.6,0.5,1.1s0.1,0.8,0.3,0.9c0.2,0.3,0.6,0.4,1,0.4c0.3,0,0.6-0.1,0.8-0.3s0.3-0.4,0.3-0.7c0-0.6-0.3-1.2-1-1.7
		s-1.5-0.8-2.6-0.8c-1.4,0-2.6,0.5-3.6,1.6s-1.5,2.4-1.5,4.1c0,1.7,0.5,3.1,1.4,4.1s2,1.5,3.2,1.5c1,0,2-0.4,2.8-1.1
		s1.4-1.8,1.7-3.3L105.5,624.6z"/>
	<path d="M121.3,646.5l-3.2,1.3l0.2,0.4c0.3-0.1,0.6-0.2,0.8-0.2c0.2,0,0.4,0,0.5,0.1s0.2,0.3,0.3,0.5c0.1,0.3,0.1,1.1,0.1,2.3v4.1
		c0,0.7-0.1,1.1-0.2,1.3s-0.2,0.4-0.4,0.5s-0.5,0.2-1.1,0.2v0.4h5.2v-0.4c-0.5,0-0.9-0.1-1-0.2s-0.3-0.3-0.4-0.5s-0.1-0.7-0.1-1.3
		v-8.6H121.3z M120,641.3c-0.2,0.2-0.3,0.5-0.3,0.8s0.1,0.6,0.4,0.8s0.5,0.4,0.8,0.4s0.6-0.1,0.8-0.4s0.3-0.5,0.3-0.8
		s-0.1-0.6-0.3-0.8s-0.5-0.3-0.8-0.3C120.5,640.9,120.2,641.1,120,641.3z M115.3,646.5c-0.1,0.2-0.2,0.3-0.2,0.4s-0.2,0.1-0.3,0.1
		c-0.1,0-0.4-0.1-0.8-0.2c-0.6-0.2-1.1-0.3-1.5-0.3c-1,0-1.7,0.3-2.3,0.9s-0.9,1.3-0.9,2.2c0,0.7,0.2,1.2,0.5,1.7
		c0.4,0.5,1.1,1,2.2,1.5s1.9,1,2.3,1.4s0.6,0.8,0.6,1.4c0,0.4-0.2,0.8-0.5,1.1s-0.8,0.5-1.3,0.5c-0.8,0-1.5-0.3-2.1-0.8
		s-1-1.4-1.3-2.5h-0.4v3.8h0.4c0.1-0.2,0.2-0.3,0.4-0.3c0.2,0,0.4,0,0.6,0.1c0.8,0.2,1.6,0.4,2.2,0.4c0.9,0,1.7-0.3,2.5-0.9
		s1.1-1.4,1.1-2.4c0-1.3-0.8-2.3-2.4-3.1l-1.7-0.8c-0.7-0.4-1.2-0.7-1.5-1c-0.2-0.3-0.4-0.7-0.4-1.1c0-0.4,0.2-0.7,0.5-1
		s0.8-0.4,1.3-0.4c0.7,0,1.3,0.2,1.8,0.6s0.8,1.2,1.1,2.3h0.4v-3.7H115.3z M101.1,648.5c0.4-0.2,0.7-0.3,1.1-0.3
		c0.7,0,1.3,0.3,1.8,0.9c0.7,0.9,1.1,2.1,1.1,3.8c0,1.4-0.3,2.6-0.9,3.4c-0.5,0.6-1.1,0.9-1.9,0.9c-0.6,0-1.2-0.2-1.6-0.5
		s-0.7-0.7-0.8-1.2c-0.1-0.3-0.1-0.8-0.1-1.7v-4C100.4,649.1,100.8,648.7,101.1,648.5z M96.1,648.3c0.3-0.1,0.5-0.2,0.7-0.2
		c0.2,0,0.4,0,0.6,0.1s0.2,0.2,0.3,0.4s0.1,0.6,0.1,1.3v10.1c0,0.8,0,1.3-0.1,1.5s-0.2,0.3-0.3,0.4c-0.3,0.2-0.7,0.3-1.1,0.2h-0.3
		v0.4h5.6v-0.4c-0.6,0-1-0.1-1.2-0.2s-0.4-0.3-0.5-0.5s-0.1-0.7-0.1-1.4V657c0.4,0.4,0.7,0.6,1.1,0.7c0.4,0.2,0.9,0.2,1.5,0.2
		c1.3,0,2.4-0.5,3.3-1.5c1.1-1.2,1.6-2.7,1.6-4.6c0-1.7-0.4-3-1.3-4c-0.7-0.8-1.6-1.3-2.7-1.3c-0.6,0-1.2,0.2-1.8,0.6s-1.1,1-1.7,2
		v-2.5h-0.4l-3.3,1.3L96.1,648.3z"/>
	<path d="M153.8,685.3c-0.4,0-0.8-0.2-1.2-0.6s-0.5-0.8-0.5-1.4c0-0.4,0.1-0.9,0.4-1.2s0.7-0.7,1.3-1.1c0.3-0.2,1.1-0.5,2.3-1v4.1
		C155.2,684.9,154.4,685.3,153.8,685.3z M156.5,686.2c0.2,0.3,0.5,0.4,0.9,0.4c0.8,0,1.6-0.6,2.5-1.8v-0.7c-0.5,0.5-0.8,0.8-0.9,0.9
		c-0.1,0.1-0.2,0.1-0.3,0.1c-0.1,0-0.2,0-0.3-0.1s-0.2-0.2-0.2-0.5s-0.1-0.9-0.1-1.9V679c0-1-0.1-1.7-0.2-2.1
		c-0.2-0.5-0.6-0.9-1-1.1c-0.6-0.3-1.4-0.5-2.3-0.5c-1.2,0-2.2,0.3-2.9,0.8s-1,1.2-1,1.9c0,0.4,0.1,0.6,0.3,0.8s0.4,0.3,0.7,0.3
		c0.3,0,0.5-0.1,0.7-0.3s0.3-0.5,0.3-0.8l0-0.7c0-0.3,0.1-0.6,0.4-0.9c0.3-0.3,0.7-0.4,1.2-0.4c0.6,0,1.1,0.2,1.5,0.6
		s0.5,1.1,0.5,2.2v0.4c-1.8,0.7-3.2,1.2-4,1.7s-1.3,1-1.7,1.5c-0.2,0.4-0.4,0.8-0.4,1.4c0,0.8,0.2,1.5,0.7,2s1.1,0.8,1.8,0.8
		c0.5,0,0.9-0.1,1.3-0.3c0.3-0.1,1-0.6,2.1-1.5C156.2,685.5,156.3,685.9,156.5,686.2z M144.9,686.7c1.2,0,2,0.1,2.4,0.3
		c0.4,0.2,0.6,0.5,0.6,0.9c0,0.6-0.3,1.1-1,1.6s-1.7,0.7-3.1,0.7c-1.5,0-2.6-0.2-3.4-0.7c-0.5-0.3-0.7-0.6-0.7-1
		c0-0.3,0.1-0.6,0.3-0.9s0.5-0.7,0.8-1.1C141.8,686.5,143.1,686.6,144.9,686.7z M144.5,676.7c0.5,0.7,0.8,1.7,0.8,2.9
		c0,1-0.2,1.7-0.6,2.1s-0.9,0.7-1.5,0.7c-0.6,0-1.1-0.3-1.5-0.8c-0.5-0.7-0.8-1.6-0.8-2.9c0-1,0.2-1.7,0.6-2.1s0.9-0.7,1.5-0.7
		C143.6,675.9,144.1,676.2,144.5,676.7z M139.4,684c-0.2,0.4-0.3,0.7-0.3,1c0,0.2,0.1,0.5,0.3,0.7s0.5,0.4,0.9,0.7
		c-0.7,0.8-1.1,1.2-1.2,1.3c-0.4,0.5-0.7,0.9-0.8,1.2c-0.1,0.2-0.1,0.4-0.1,0.6c0,0.4,0.3,0.8,0.9,1.2c1,0.7,2.3,1,3.8,1
		c2,0,3.6-0.6,4.8-1.7c0.8-0.8,1.2-1.6,1.2-2.5c0-0.6-0.2-1.2-0.7-1.6s-1-0.7-1.7-0.8c-0.5-0.1-1.5-0.1-3.1-0.2
		c-0.9,0-1.4-0.1-1.6-0.1c-0.4-0.1-0.6-0.1-0.8-0.3s-0.2-0.3-0.2-0.4c0-0.2,0.1-0.3,0.2-0.6s0.4-0.5,0.7-0.8
		c0.6,0.2,1.1,0.2,1.6,0.2c1.3,0,2.3-0.4,3.1-1.1s1.1-1.6,1.1-2.6c0-0.9-0.2-1.6-0.7-2.2h1.4c0.3,0,0.5,0,0.6,0l0.1-0.1
		c0-0.1,0.1-0.2,0.1-0.4c0-0.2,0-0.3-0.1-0.4l-0.1-0.1c-0.1,0-0.2,0-0.6,0h-2.3c-0.8-0.5-1.6-0.8-2.7-0.8c-1.2,0-2.3,0.4-3.1,1.1
		s-1.2,1.7-1.2,2.7c0,0.7,0.2,1.3,0.5,1.9s0.9,1,1.5,1.3C140.1,683.2,139.6,683.7,139.4,684z M130.1,676.9c0.5-0.5,1.1-0.8,1.7-0.8
		c0.4,0,0.8,0.1,1.2,0.4s0.7,0.6,0.9,1c0.1,0.3,0.2,0.8,0.2,1.5h-5C129.3,678.1,129.6,677.4,130.1,676.9z M136.6,679.7
		c0-1.3-0.4-2.4-1.2-3.2s-1.8-1.2-3-1.2c-1.4,0-2.6,0.5-3.5,1.5s-1.4,2.5-1.4,4.3c0,1.7,0.5,3,1.4,4s2,1.5,3.3,1.5
		c1.2,0,2.2-0.4,3-1.3s1.3-1.9,1.4-2.9l-0.4-0.2c-0.4,0.9-0.8,1.6-1.3,2s-1.1,0.6-1.8,0.6c-1.1,0-2-0.5-2.8-1.4s-1.2-2.2-1.2-3.8
		H136.6z M111.9,675.3h-0.5l-3.2,1.3l0.2,0.4c0.3-0.1,0.6-0.2,0.8-0.2c0.2,0,0.4,0,0.5,0.1s0.2,0.3,0.3,0.5c0.1,0.3,0.1,1.1,0.1,2.3
		v4.1c0,0.7-0.1,1.1-0.2,1.3s-0.2,0.4-0.4,0.5s-0.5,0.2-1,0.2v0.4h5.3V686c-0.6,0-1-0.1-1.2-0.2s-0.3-0.3-0.4-0.5s-0.1-0.7-0.1-1.4
		v-5.8c0.4-0.4,0.9-0.8,1.5-1.2c0.4-0.2,0.8-0.3,1.3-0.3c0.6,0,1.1,0.2,1.4,0.8c0.3,0.4,0.4,1,0.4,1.9v4.6c0,0.6,0,1-0.1,1.2
		c-0.1,0.3-0.2,0.5-0.5,0.6s-0.6,0.2-1.2,0.2v0.4h5.4V686c-0.5,0-0.9-0.1-1.2-0.2s-0.4-0.3-0.5-0.5s-0.1-0.6-0.1-1.4v-5.1l0-0.5
		l0-0.1c0.6-0.6,1.1-0.9,1.5-1.2s0.8-0.3,1.2-0.3c0.7,0,1.2,0.2,1.5,0.8c0.2,0.4,0.3,1,0.3,1.9v4.6c0,0.6,0,1,0,1.1
		c-0.1,0.3-0.2,0.5-0.4,0.6c-0.3,0.2-0.6,0.3-1.1,0.3h-0.2v0.4h5.3V686c-0.5,0-0.8-0.1-1-0.2s-0.4-0.3-0.4-0.4
		c-0.1-0.2-0.2-0.7-0.2-1.4v-4.6c0-1-0.1-1.7-0.3-2.1c-0.3-0.7-0.6-1.1-1-1.4s-0.9-0.4-1.5-0.4c-0.6,0-1.2,0.1-1.7,0.4
		s-1.2,0.9-2,1.8c-0.2-0.7-0.5-1.3-1-1.7s-1.1-0.6-1.7-0.6c-0.4,0-0.8,0.1-1.2,0.2s-0.8,0.4-1.1,0.7c-0.1,0.1-0.6,0.6-1.4,1.3V675.3
		z M103.8,677.2c0.8,1.1,1.2,2.6,1.2,4.5c0,1.5-0.2,2.6-0.7,3.2s-1.1,0.9-1.9,0.9c-1,0-1.8-0.6-2.5-1.7s-0.9-2.5-0.9-4
		c0-1,0.1-1.8,0.4-2.4s0.6-1,1-1.3s0.8-0.4,1.2-0.4C102.5,676.1,103.2,676.5,103.8,677.2z M99.5,676c-0.8,0.5-1.4,1.2-1.9,2.2
		s-0.7,2-0.7,2.9c0,1.4,0.4,2.6,1.2,3.7c1,1.3,2.2,1.9,3.9,1.9c1,0,1.9-0.2,2.7-0.8s1.4-1.2,1.9-2.2s0.7-2,0.7-2.9
		c0-1.4-0.4-2.6-1.3-3.6c-1-1.2-2.3-1.9-3.9-1.9C101.1,675.3,100.3,675.6,99.5,676z"/>
</g>
</svg>
