<?xml version="1.0" encoding="UTF-8" standalone="no"?>
<!-- Generator: Adobe Illustrator 19.1.0, SVG Export Plug-In . SVG Version: 6.00 Build 0)  -->

<svg
   xmlns:dc="http://purl.org/dc/elements/1.1/"
   xmlns:cc="http://creativecommons.org/ns#"
   xmlns:rdf="http://www.w3.org/1999/02/22-rdf-syntax-ns#"
   xmlns:svg="http://www.w3.org/2000/svg"
   xmlns="http://www.w3.org/2000/svg"
   xmlns:sodipodi="http://sodipodi.sourceforge.net/DTD/sodipodi-0.dtd"
   xmlns:inkscape="http://www.inkscape.org/namespaces/inkscape"
   version="1.1"
   id="Layer_1"
   x="0px"
   y="0px"
   viewBox="0 0 250.98499 221.90076"
   xml:space="preserve"
   inkscape:version="0.91 r13725"
   sodipodi:docname="inductor_kickback6.svg"
   width="250.985"
   height="221.90076"><metadata
     id="metadata151"><rdf:RDF><cc:Work
         rdf:about=""><dc:format>image/svg+xml</dc:format><dc:type
           rdf:resource="http://purl.org/dc/dcmitype/StillImage" /><dc:title></dc:title></cc:Work></rdf:RDF></metadata><defs
     id="defs149" /><sodipodi:namedview
     pagecolor="#ffffff"
     bordercolor="#666666"
     borderopacity="1"
     objecttolerance="10"
     gridtolerance="10"
     guidetolerance="10"
     inkscape:pageopacity="0"
     inkscape:pageshadow="2"
     inkscape:window-width="640"
     inkscape:window-height="480"
     id="namedview147"
     showgrid="false"
     fit-margin-top="10"
     fit-margin-right="10"
     fit-margin-bottom="10"
     fit-margin-left="10"
     inkscape:zoom="2.4425334"
     inkscape:cx="125.4925"
     inkscape:cy="110.95038"
     inkscape:current-layer="Layer_1" /><style
     type="text/css"
     id="style3">
	.st0{fill:none;stroke:#E8C11C;stroke-miterlimit:10;}
	.st1{fill:none;stroke:#11ACCD;stroke-width:3;stroke-linecap:round;stroke-miterlimit:10;}
	.st2{fill:#11ACCD;}
	.st3{fill:none;stroke:#11ACCD;stroke-width:4;stroke-miterlimit:10;}
	.st4{fill:none;stroke:#BABEC2;stroke-linecap:round;stroke-miterlimit:10;}
	.st5{fill:none;stroke:#11ACCD;stroke-width:6;stroke-miterlimit:10;}
	.st6{fill:none;stroke:#000000;stroke-linecap:round;stroke-linejoin:round;stroke-miterlimit:10;}
	.st7{fill:none;stroke:#000000;stroke-width:2;stroke-linecap:round;stroke-linejoin:round;stroke-miterlimit:10;}
	.st8{fill:none;stroke:#000000;stroke-width:2;stroke-miterlimit:10;}
	.st9{fill:none;stroke:#000000;stroke-linecap:round;stroke-miterlimit:10;}
	.st10{fill:none;stroke:#000000;stroke-width:1.5;stroke-miterlimit:10;}
	.st11{fill:none;stroke:#000000;stroke-width:2;stroke-linecap:round;stroke-miterlimit:10;}
	.st12{fill:none;}
	.st13{stroke:#000000;stroke-linecap:round;stroke-linejoin:round;stroke-miterlimit:10;}
	.st14{fill:none;stroke:#000000;stroke-miterlimit:10;}
	.st15{fill:#FFFFFF;stroke:#000000;stroke-miterlimit:10;}
	.st16{fill:#1FAB54;}
	.st17{fill:none;stroke:#000000;stroke-width:5;stroke-miterlimit:10;}
	.st18{fill:none;stroke:#000000;stroke-width:4;stroke-miterlimit:10;}
	.st19{fill:#FF9C39;}
	.st20{fill:#E8C11C;}
	.st21{fill:none;stroke:#E8C11C;stroke-linecap:round;stroke-miterlimit:10;}
	.st22{fill:#BABEC2;stroke:#BABEC2;stroke-linecap:round;stroke-linejoin:round;stroke-miterlimit:10;}
	.st23{fill:#BABEC2;stroke:#BABEC2;stroke-miterlimit:10;}
	.st24{fill:none;stroke:#BABEC2;stroke-linecap:round;stroke-linejoin:round;stroke-miterlimit:10;}
	.st25{fill:none;stroke:#1FAB54;stroke-width:2;stroke-linecap:round;stroke-miterlimit:10;}
	.st26{fill:none;stroke:#BABEC2;stroke-width:2;stroke-linecap:round;stroke-miterlimit:10;}
	.st27{fill:#BABEC2;}
	.st28{fill:none;stroke:#BABEC2;stroke-width:2;stroke-miterlimit:10;}
	.st29{fill:none;stroke:#BABEC2;stroke-width:2;stroke-linecap:round;stroke-linejoin:round;stroke-miterlimit:10;}
	.st30{opacity:0.1;fill:none;stroke:#000000;stroke-width:2;enable-background:new    ;}
	.st31{fill:none;stroke:#000000;stroke-width:2;stroke-linecap:round;stroke-linejoin:round;}
	.st32{fill:none;stroke:#000000;stroke-width:2;}
	.st33{fill:none;stroke:#000000;}
	.st34{clip-path:url(#SVGID_2_);fill:none;stroke:#29ABCA;stroke-width:5;}
	.st35{clip-path:url(#SVGID_4_);fill:none;stroke:#29ABCA;stroke-width:5;}
	.st36{clip-path:url(#SVGID_6_);fill:none;stroke:#E1A158;stroke-width:5;}
	.st37{clip-path:url(#SVGID_8_);fill:none;stroke:#E1A158;stroke-width:5;}
	.st38{clip-path:url(#SVGID_10_);fill:none;stroke:#E1A158;stroke-width:5;}
	.st39{fill:#E07D10;}
	.st40{fill:none;stroke:#FF9C39;stroke-width:2;stroke-linecap:round;stroke-miterlimit:10;}
	.st41{fill:none;stroke:#E07D10;stroke-width:2;stroke-linecap:round;stroke-miterlimit:10;}
	.st42{font-family:'KaTeX_Main-Italic';}
	.st43{font-size:21px;}
	.st44{font-family:'KaTeX_Main-Regular';}
	.st45{font-size:18px;}
	.st46{fill:none;stroke:#000000;stroke-width:4;stroke-linecap:round;stroke-miterlimit:10;}
	.st47{fill:none;stroke:#11ACCD;stroke-width:4;stroke-linecap:round;stroke-miterlimit:10;}
	.st48{fill:none;stroke:#E8C11C;stroke-width:2;stroke-miterlimit:10;}
</style><g
     style="font-style:normal;font-variant:normal;font-weight:normal;font-stretch:normal;font-size:22.5px;line-height:125%;font-family:KaTeX_Main;-inkscape-font-specification:'KaTeX_Main, Normal';text-align:start;writing-mode:lr-tb;text-anchor:start;fill:#ff9c39"
     id="text25"><path
       d="m 176.47749,157.61499 q -1.44,0 -2.295,-0.72 -0.8325,-0.7425 -0.8325,-2.16 0,-0.405 0.045,-0.765 0.2025,-1.08 1.0575,-3.3075 l 0.36,-1.08 q 0.135,-0.405 0.135,-0.765 0,-0.5625 -0.4275,-0.5625 -0.1575,0 -0.36,0.0675 -1.1475,0.405 -1.7325,2.5875 0,0.0225 -0.0225,0.09 -0.0225,0.045 -0.045,0.0675 0,0 -0.0225,0.0225 -0.0225,0.0225 -0.09,0.0225 -0.045,0 -0.09,0 -0.045,0 -0.18,0 l -0.315,0 q -0.135,-0.135 -0.135,-0.2025 0,-0.0675 0.0675,-0.3375 0.54,-1.7775 1.665,-2.655 0.6075,-0.4725 1.395,-0.4725 0.8775,0 1.44,0.495 0.5625,0.495 0.5625,1.305 0,0.3825 -0.0675,0.585 0,0.1575 -0.3375,0.99 -1.035,2.8125 -1.1025,4.005 0,0.6075 0.1125,0.99 0.2925,0.9675 1.4175,0.9675 0.6075,0 1.08,-0.36 1.395,-0.9225 2.3175,-4.2525 0.18,-0.63 0.18,-1.035 0,-0.99 -0.8775,-1.7775 -0.2925,-0.27 -0.2925,-0.6075 0,-0.5175 0.405,-0.9225 0.4275,-0.4275 0.945,-0.4275 0.54,0 0.8325,0.5175 0.2925,0.495 0.2925,1.1925 0,0.7875 -0.45,2.5875 -0.4275,1.7325 -1.08,3.015 -1.4175,2.9025 -3.555,2.9025 z"
       style="font-style:normal;font-variant:normal;font-weight:normal;font-stretch:normal;font-size:22.5px;line-height:125%;font-family:KaTeX_Math;-inkscape-font-specification:'KaTeX_Math, Normal';text-align:start;writing-mode:lr-tb;text-anchor:start"
       id="path4327" /><path
       d="m 182.47993,164.03199 0.20475,0 q 0.57038,0 0.68738,-0.20475 l 0,-0.117 q 0,-0.10237 0,-0.2925 0,-0.1755 0,-0.42412 0.0146,-0.24863 0.0146,-0.57038 0,-0.32175 0,-0.6435 0,-0.33637 0,-0.71662 0,-0.39488 0,-0.74588 0,-0.49725 0,-1.03837 0,-0.54113 0,-0.96525 0,-0.42413 -0.0146,-0.77513 0,-0.36562 0,-0.57037 0,-0.21938 0,-0.234 -0.0439,-0.27788 -0.21938,-0.36563 -0.16087,-0.10237 -0.6435,-0.13162 l -0.26325,0 0,-0.33638 q 0,-0.33637 0.0293,-0.33637 l 0.14625,-0.0146 q 0.14625,-0.0146 0.42413,-0.0292 0.27787,-0.0146 0.54112,-0.0292 0.24863,-0.0146 0.54113,-0.0293 0.2925,-0.0292 0.43875,-0.0439 0.14625,-0.0146 0.16087,-0.0146 l 0.0439,0 0,0.38025 0.0146,0.38025 0.117,-0.10237 q 0.89212,-0.6435 2.01825,-0.6435 0.32175,0 0.468,0.0293 1.02375,0.20475 1.71112,1.09687 0.68738,0.89213 0.68738,2.1645 0,0.27788 -0.0293,0.51188 -0.14625,0.95062 -0.71663,1.638 -0.55575,0.68737 -1.44787,1.02375 -0.43875,0.14625 -0.90675,0.14625 -0.9945,0 -1.755,-0.6435 l -0.117,-0.10238 0,1.24313 q 0,1.27237 0.0146,1.30162 0.0585,0.117 0.17549,0.16088 0.30713,0.0439 0.71663,0.0439 l 0.234,0 0,0.67275 -0.117,0 q -0.19013,-0.0439 -1.638,-0.0439 -1.44787,0 -1.638,0.0439 l -0.117,0 0,-0.67275 0.234,0 z m 5.6745,-5.35275 q 0,-1.00912 -0.45338,-1.78425 -0.43875,-0.77512 -1.08225,-0.89212 -0.0292,0 -0.10237,0 -0.0585,-0.0146 -0.10238,-0.0146 -1.03837,0 -1.79887,0.95063 l 0,3.49537 q 0.59962,1.053 1.638,1.053 0.61425,0 1.1115,-0.54112 0.78975,-0.819 0.78975,-2.26688 z"
       style="font-size:64.99999762%;baseline-shift:sub"
       id="path4329" /><path
       d="m 191.49898,151.80549 q 0.24863,-0.0146 0.54113,-0.0292 0.2925,-0.0292 0.43875,-0.0439 0.14625,-0.0146 0.16087,-0.0146 l 0.0439,0 0,2.20838 q 0,2.223 0.0146,2.223 0.0439,-0.0293 0.0877,-0.0731 0.80438,-0.67275 2.00363,-0.67275 0.26325,0 0.48262,0.0439 1.03838,0.20475 1.72575,1.09687 0.702,0.8775 0.702,2.1645 0,0.27788 -0.0293,0.51188 -0.19012,1.18462 -1.03837,2.00362 -0.83363,0.80438 -2.07675,0.80438 -1.12613,0 -1.9305,-0.86288 l -0.10238,-0.10237 -0.14625,0.26325 q -0.0292,0.0439 -0.0877,0.14625 -0.0439,0.0877 -0.0877,0.16087 -0.0292,0.0585 -0.0439,0.0877 l -0.0731,0.13163 -0.2925,0.0146 -0.2925,0 0,-4.35825 q 0,-4.40212 -0.0146,-4.46062 -0.0439,-0.27788 -0.21938,-0.36563 -0.16087,-0.10237 -0.6435,-0.13162 l -0.26325,0 0,-0.33638 q 0,-0.33637 0.0293,-0.33637 l 0.14625,-0.0146 q 0.14625,-0.0146 0.42413,-0.0292 0.27787,-0.0146 0.54112,-0.0293 z m 3.40763,4.18275 q -0.351,-0.0439 -0.45338,-0.0439 -1.02375,0 -1.638,0.84825 l -0.0877,0.117 0,3.52462 0.0731,0.10238 q 0.43875,0.702 1.12612,0.89212 0.19013,0.0585 0.45338,0.0585 0.936,0 1.47712,-0.78975 0.117,-0.16087 0.234,-0.48262 0.1755,-0.51188 0.1755,-1.44788 0,-1.08225 -0.1755,-1.62337 -0.30712,-0.92138 -1.18462,-1.15538 z"
       style="font-size:64.99999762%;baseline-shift:sub"
       id="path4331" /></g><g
     style="font-style:normal;font-variant:normal;font-weight:normal;font-stretch:normal;font-size:22.5px;line-height:125%;font-family:KaTeX_Main;-inkscape-font-specification:'KaTeX_Main, Normal';text-align:start;writing-mode:lr-tb;text-anchor:start;fill:#ff9c39"
     id="text29"><path
       d="m 172.6304,128.19229 q -0.315,-0.1575 -0.315,-0.45 0,-0.2925 0.315,-0.45 l 6.7275,0 0,-3.375 0.0225,-3.375 q 0.225,-0.2925 0.4275,-0.2925 0.2925,0 0.45,0.3375 l 0,6.705 6.705,0 q 0.3375,0.18 0.3375,0.45 0,0.27 -0.3375,0.45 l -6.705,0 0,6.705 q -0.1575,0.315 -0.45,0.315 -0.2925,0 -0.45,-0.315 l 0,-6.705 -6.7275,0 z"
       style="font-style:normal;font-variant:normal;font-weight:normal;font-stretch:normal;font-size:22.5px;line-height:125%;font-family:KaTeX_Main;-inkscape-font-specification:'KaTeX_Main, Normal';text-align:start;writing-mode:lr-tb;text-anchor:start;fill:#ff9c39"
       id="path4324" /></g><g
     style="font-style:normal;font-variant:normal;font-weight:normal;font-stretch:normal;font-size:22.5px;line-height:125%;font-family:KaTeX_Main;-inkscape-font-specification:'KaTeX_Main, Normal';text-align:start;writing-mode:lr-tb;text-anchor:start;fill:#ff9c39"
     id="text31"><path
       d="m 173.26021,182.19249 q -0.315,-0.1575 -0.315,-0.45 0,-0.2925 0.315,-0.45 l 13.0725,0 q 0.3375,0.18 0.3375,0.45 0,0.27 -0.3375,0.45 l -13.0725,0 z"
       style="font-style:normal;font-variant:normal;font-weight:normal;font-stretch:normal;font-size:22.5px;line-height:125%;font-family:KaTeX_Main;-inkscape-font-specification:'KaTeX_Main, Normal';text-align:start;writing-mode:lr-tb;text-anchor:start;fill:#ff9c39"
       id="path4321" /></g><g
     id="g33"
     transform="translate(-8.9448,1.7008)"><rect
       x="204"
       y="29.700001"
       class="st12"
       width="24"
       height="84"
       id="rect35"
       style="fill:none" /><line
       class="st6"
       x1="216"
       y1="29.700001"
       x2="216"
       y2="113.7"
       id="line37"
       style="fill:none;stroke:#000000;stroke-linecap:round;stroke-linejoin:round;stroke-miterlimit:10" /><polyline
       class="st6"
       points="207,63.3 216,63.3 225,63.3  "
       id="polyline39"
       style="fill:none;stroke:#000000;stroke-linecap:round;stroke-linejoin:round;stroke-miterlimit:10" /><polygon
       class="st13"
       points="207,75.9 216,63.3 225,75.9 "
       id="polygon41"
       style="stroke:#000000;stroke-linecap:round;stroke-linejoin:round;stroke-miterlimit:10" /></g><g
     id="g43"
     transform="translate(-8.9448,1.7008)"><polyline
       class="st6"
       points="120,197.7 127.5,197.7 127.5,197.7 127.5,197.7 120,209.7 112.5,197.7 120,197.7 120,185.7  "
       id="polyline45"
       style="fill:none;stroke:#000000;stroke-linecap:round;stroke-linejoin:round;stroke-miterlimit:10" /><rect
       x="108"
       y="185.7"
       class="st12"
       width="24"
       height="24"
       id="rect47"
       style="fill:none" /></g><g
     id="g49"
     transform="translate(-8.9448,1.7008)"><circle
       class="st13"
       cx="120"
       cy="185.7"
       r="1.5"
       id="circle51"
       style="stroke:#000000;stroke-linecap:round;stroke-linejoin:round;stroke-miterlimit:10" /><rect
       x="114"
       y="179.7"
       class="st12"
       width="12"
       height="12"
       id="rect53"
       style="fill:none" /></g><g
     id="g55"
     transform="translate(-8.9448,1.7008)"><circle
       class="st13"
       cx="156"
       cy="113.7"
       r="1.5"
       id="circle57"
       style="stroke:#000000;stroke-linecap:round;stroke-linejoin:round;stroke-miterlimit:10" /><rect
       x="150"
       y="107.7"
       class="st12"
       width="12"
       height="12"
       id="rect59"
       style="fill:none" /></g><g
     id="g61"
     transform="translate(-8.9448,1.7008)"><circle
       class="st13"
       cx="156"
       cy="29.700001"
       r="1.5"
       id="circle63"
       style="stroke:#000000;stroke-linecap:round;stroke-linejoin:round;stroke-miterlimit:10" /><rect
       x="150"
       y="23.700001"
       class="st12"
       width="12"
       height="12"
       id="rect65"
       style="fill:none" /></g><g
     id="g67"
     transform="translate(-8.9448,1.7008)"><circle
       class="st8"
       cx="72"
       cy="107.7"
       r="18"
       id="circle69"
       style="fill:none;stroke:#000000;stroke-width:2;stroke-miterlimit:10" /><polyline
       class="st9"
       points="72,89.7 72,65.7 72,17.7 156,17.7 156,29.7  "
       id="polyline71"
       style="fill:none;stroke:#000000;stroke-linecap:round;stroke-miterlimit:10" /><polyline
       class="st6"
       points="156,161.7 156,185.7 72,185.7 72,149.7 72,125.7  "
       id="polyline73"
       style="fill:none;stroke:#000000;stroke-linecap:round;stroke-linejoin:round;stroke-miterlimit:10" /><line
       class="st10"
       x1="72"
       y1="94.199997"
       x2="72"
       y2="106.2"
       id="line75"
       style="fill:none;stroke:#000000;stroke-width:1.5;stroke-miterlimit:10" /><line
       class="st10"
       x1="66"
       y1="100.2"
       x2="78"
       y2="100.2"
       id="line77"
       style="fill:none;stroke:#000000;stroke-width:1.5;stroke-miterlimit:10" /><line
       class="st10"
       x1="66"
       y1="118.2"
       x2="78"
       y2="118.2"
       id="line79"
       style="fill:none;stroke:#000000;stroke-width:1.5;stroke-miterlimit:10" /></g><g
     id="g81"
     transform="translate(-8.9448,1.7008)"><line
       class="st9"
       x1="156"
       y1="101.7"
       x2="156"
       y2="113.7"
       id="line83"
       style="fill:none;stroke:#000000;stroke-linecap:round;stroke-miterlimit:10" /><path
       class="st11"
       d="m 156,87.8 c -5,0 -9,3.1 -9,6.9 0,3.8 4,6.9 9,6.9"
       id="path85"
       inkscape:connector-curvature="0"
       style="fill:none;stroke:#000000;stroke-width:2;stroke-linecap:round;stroke-miterlimit:10" /><path
       class="st11"
       d="m 156,87.8 c 5,0 9,1 9,2.3 0,1.3 -4,2.3 -9,2.3"
       id="path87"
       inkscape:connector-curvature="0"
       style="fill:none;stroke:#000000;stroke-width:2;stroke-linecap:round;stroke-miterlimit:10" /><path
       class="st11"
       d="m 156,78.6 c -5,0 -9,3.1 -9,6.9 0,3.8 4,6.9 9,6.9"
       id="path89"
       inkscape:connector-curvature="0"
       style="fill:none;stroke:#000000;stroke-width:2;stroke-linecap:round;stroke-miterlimit:10" /><path
       class="st11"
       d="m 156,78.6 c 5,0 9,1 9,2.3 0,1.3 -4,2.3 -9,2.3"
       id="path91"
       inkscape:connector-curvature="0"
       style="fill:none;stroke:#000000;stroke-width:2;stroke-linecap:round;stroke-miterlimit:10" /><path
       class="st11"
       d="m 156,69.4 c -5,0 -9,3.1 -9,6.9 0,3.8 4,6.9 9,6.9"
       id="path93"
       inkscape:connector-curvature="0"
       style="fill:none;stroke:#000000;stroke-width:2;stroke-linecap:round;stroke-miterlimit:10" /><path
       class="st11"
       d="m 156,69.4 c 5,0 9,1 9,2.3 0,1.3 -4,2.3 -9,2.3"
       id="path95"
       inkscape:connector-curvature="0"
       style="fill:none;stroke:#000000;stroke-width:2;stroke-linecap:round;stroke-miterlimit:10" /><path
       class="st11"
       d="m 156,60.1 c -5,0 -9,3.1 -9,6.9 0,3.8 4,6.9 9,6.9"
       id="path97"
       inkscape:connector-curvature="0"
       style="fill:none;stroke:#000000;stroke-width:2;stroke-linecap:round;stroke-miterlimit:10" /><path
       class="st11"
       d="m 156,60.1 c 5,0 9,1 9,2.3 0,1.3 -4,2.3 -9,2.3"
       id="path99"
       inkscape:connector-curvature="0"
       style="fill:none;stroke:#000000;stroke-width:2;stroke-linecap:round;stroke-miterlimit:10" /><path
       class="st11"
       d="m 156,50.9 c 5,0 9,1 9,2.3 0,1.3 -4,2.3 -9,2.3"
       id="path101"
       inkscape:connector-curvature="0"
       style="fill:none;stroke:#000000;stroke-width:2;stroke-linecap:round;stroke-miterlimit:10" /><path
       class="st11"
       d="m 156,50.9 c -5,0 -9,3.1 -9,6.9 0,3.8 4,6.9 9,6.9"
       id="path103"
       inkscape:connector-curvature="0"
       style="fill:none;stroke:#000000;stroke-width:2;stroke-linecap:round;stroke-miterlimit:10" /><path
       class="st11"
       d="m 156,41.7 c -5,0 -9,3.1 -9,6.9 0,3.8 4,6.9 9,6.9"
       id="path105"
       inkscape:connector-curvature="0"
       style="fill:none;stroke:#000000;stroke-width:2;stroke-linecap:round;stroke-miterlimit:10" /><line
       class="st9"
       x1="156"
       y1="29.700001"
       x2="156"
       y2="41.700001"
       id="line107"
       style="fill:none;stroke:#000000;stroke-linecap:round;stroke-miterlimit:10" /><rect
       x="144"
       y="29.700001"
       class="st12"
       width="24"
       height="84"
       id="rect109"
       style="fill:none" /></g><g
     id="g111"
     transform="translate(-8.9448,1.7008)"><circle
       cx="156"
       cy="161.7"
       r="3"
       id="circle113" /><rect
       x="150"
       y="155.7"
       class="st12"
       width="12"
       height="12"
       id="rect115"
       style="fill:none" /></g><g
     id="g117"
     transform="translate(-8.9448,1.7008)"><circle
       cx="156"
       cy="137.7"
       r="3"
       id="circle119" /><rect
       x="150"
       y="131.7"
       class="st12"
       width="12"
       height="12"
       id="rect121"
       style="fill:none" /></g><polyline
     class="st9"
     points="156,137.7 156,113.7 216,113.7 "
     id="polyline123"
     style="fill:none;stroke:#000000;stroke-linecap:round;stroke-miterlimit:10"
     transform="translate(-8.9448,1.7008)" /><polyline
     class="st14"
     points="145,131.7 145,149.7 145,167.7 "
     id="polyline125"
     style="fill:none;stroke:#000000;stroke-miterlimit:10"
     transform="translate(-8.9448,1.7008)" /><line
     class="st14"
     x1="123.0552"
     y1="151.4008"
     x2="135.05521"
     y2="151.4008"
     id="line127"
     style="fill:none;stroke:#000000;stroke-miterlimit:10" /><g
     style="font-style:normal;font-variant:normal;font-weight:normal;font-stretch:normal;font-size:22.5px;line-height:125%;font-family:KaTeX_Main;-inkscape-font-specification:'KaTeX_Main, Normal';text-align:start;writing-mode:lr-tb;text-anchor:start"
     id="text129"><path
       d="m 168.41499,25.3675 q -0.3825,-0.0675 -3.5775,-0.0675 -3.15,0 -3.5325,0.0675 l -0.27,0 0,-1.035 0.585,0 q 1.305,0 1.6875,-0.0675 0.18,-0.0225 0.54,-0.27 l 0,-11.6325 q -0.045,0 -0.18,0.0675 -1.035,0.405 -2.3175,0.4275 l -0.4275,0 0,-1.035 0.4275,0 q 1.89,-0.0675 3.15,-0.855 0.405,-0.225 0.6975,-0.5175 0.045,-0.0675 0.27,-0.0675 0.225,0 0.3825,0.135 l 0,6.7275 0.0225,6.75 q 0.3375,0.3375 1.4625,0.3375 l 0.7425,0 0.585,0 0,1.035 -0.2475,0 z"
       style="font-style:normal;font-variant:normal;font-weight:normal;font-stretch:normal;font-size:22.5px;line-height:125%;font-family:KaTeX_Main;-inkscape-font-specification:'KaTeX_Main, Normal';text-align:start;writing-mode:lr-tb;text-anchor:start"
       id="path4312" /><path
       d="m 172.46499,12.205 q 1.26,-1.8225 3.4425,-1.8225 1.6425,0 2.88,1.125 0.6075,0.585 1.035,1.53 0.8325,1.8675 0.8325,5.13 0,3.4875 -0.9675,5.3325 -0.63,1.305 -1.845,1.89 -0.945,0.4725 -1.9125,0.4725 -2.5875,0 -3.78,-2.3625 -0.9675,-1.845 -0.9675,-5.3325 0,-2.0925 0.27,-3.4425 0.2925,-1.3725 1.0125,-2.52 z m 5.0625,-0.27 q -0.6525,-0.72 -1.5975,-0.72 -0.945,0 -1.62,0.72 -0.495,0.5175 -0.675,1.26 -0.18,0.7425 -0.225,2.565 0,0.135 -0.0225,0.8775 0,0.7425 0,1.2375 0,2.16 0.045,3.015 0.09,1.575 0.27,2.2725 0.18,0.675 0.675,1.17 0.6075,0.675 1.5525,0.675 0.9225,0 1.53,-0.675 0.495,-0.495 0.675,-1.17 0.18,-0.6975 0.27,-2.2725 0.045,-0.855 0.045,-3.015 0,-0.495 -0.0225,-1.2375 0,-0.7425 0,-0.8775 -0.045,-1.8225 -0.225,-2.565 -0.18,-0.7425 -0.675,-1.26 z"
       style="font-style:normal;font-variant:normal;font-weight:normal;font-stretch:normal;font-size:22.5px;line-height:125%;font-family:KaTeX_Main;-inkscape-font-specification:'KaTeX_Main, Normal';text-align:start;writing-mode:lr-tb;text-anchor:start"
       id="path4314" /><path
       d="m 188.78499,24.0175 q 0.18,0.315 1.0575,0.315 l 0.315,0 0.36,0 0,1.035 -0.18,0 q -0.2925,-0.0675 -2.52,-0.0675 -2.2275,0 -2.52,0.0675 l -0.18,0 0,-1.035 0.36,0 0.315,0 q 0.8775,0 1.0575,-0.315 l 0,-0.18 q 0,-0.2025 0,-0.5175 0,-0.315 0,-0.6975 0.0225,-0.405 0.0225,-0.8775 0,-0.495 0,-0.945 0,-0.6975 -0.0225,-1.485 0,-0.81 0,-1.3275 l 0,-0.5175 q -0.0675,-0.4275 -0.3375,-0.5625 -0.2475,-0.1575 -0.99,-0.2025 l -0.405,0 0,-0.5175 q 0,-0.5175 0.045,-0.5175 l 0.225,-0.0225 q 0.225,-0.0225 0.63,-0.045 0.4275,-0.0225 0.8325,-0.045 0.3825,-0.0225 0.81,-0.045 0.4275,-0.045 0.6525,-0.0675 0.225,-0.0225 0.2475,-0.0225 l 0.0675,0 0,0.9 q 0,0.855 0.0225,0.855 l 0.0225,-0.0225 q 1.215,-1.7325 3.4425,-1.7325 2.1825,0.0675 2.6775,1.71 l 0.045,0.1125 q 0.54,-0.675 0.6075,-0.7425 1.1475,-1.08 2.6775,-1.08 2.8125,0 3.0825,2.5425 0.0225,0.1575 0.0225,3.1275 0,2.88 0.0225,2.925 0.09,0.18 0.27,0.2475 0.4725,0.0675 1.1025,0.0675 l 0.36,0 0,1.035 -0.18,0 q -0.2925,-0.0675 -2.52,-0.0675 -2.2275,0 -2.52,0.0675 l -0.18,0 0,-1.035 0.36,0 0.18,0 q 1.1925,0 1.1925,-0.36 0.0225,-0.045 0.0225,-3.105 -0.0225,-3.0375 -0.045,-3.2175 -0.1575,-0.72 -0.5175,-1.035 -0.3375,-0.3375 -1.0575,-0.3375 -1.0125,0 -1.7775,0.765 -0.7875,0.7875 -0.9225,1.98 0,0.0225 -0.0225,0.4275 0,0.3825 0,0.99 0,0.6075 0,1.1475 0,0.3375 0,0.72 0,0.36 0,0.6525 0,0.2925 0,0.54 0.0225,0.225 0.0225,0.3825 l 0,0.135 q 0.18,0.315 1.0575,0.315 l 0.315,0 0.36,0 0,1.035 -0.18,0 q -0.2925,-0.0675 -2.52,-0.0675 -2.2275,0 -2.52,0.0675 l -0.18,0 0,-1.035 0.36,0 0.18,0 q 1.1925,0 1.1925,-0.36 0.0225,-0.045 0.0225,-3.105 -0.0225,-3.0375 -0.045,-3.2175 -0.1575,-0.72 -0.5175,-1.035 -0.3375,-0.3375 -1.0575,-0.3375 -1.0125,0 -1.7775,0.765 -0.7875,0.7875 -0.9225,1.98 0,0.0225 0,0.4275 0,0.3825 -0.0225,0.99 0,0.6075 0,1.1475 0,0.3375 0,0.72 0,0.36 0,0.6525 0.0225,0.2925 0.0225,0.54 0,0.225 0,0.3825 l 0,0.135 z"
       style="font-style:normal;font-variant:normal;font-weight:normal;font-stretch:normal;font-size:22.5px;line-height:125%;font-family:KaTeX_Main;-inkscape-font-specification:'KaTeX_Main, Normal';text-align:start;writing-mode:lr-tb;text-anchor:start"
       id="path4316" /><path
       d="m 206.19964,11.3725 q -0.225,-0.225 -0.45,-0.27 -0.2025,-0.045 -1.125,-0.0675 l -0.7425,0 0,-1.035 0.2475,0 q 0.3825,0.0675 3.24,0.0675 2.8575,0 3.24,-0.0675 l 0.2475,0 0,1.035 -0.7425,0 q -0.9225,0.0225 -1.17,0.0675 -0.225,0.045 -0.3825,0.27 l -0.0225,2.745 0,2.745 6.4125,0 0,-5.49 q -0.225,-0.225 -0.45,-0.27 -0.2025,-0.045 -1.125,-0.0675 l -0.7425,0 0,-1.035 0.2475,0 q 0.3825,0.0675 3.24,0.0675 2.8575,0 3.24,-0.0675 l 0.2475,0 0,1.035 -0.7425,0 q -0.9225,0.0225 -1.17,0.0675 -0.225,0.045 -0.3825,0.27 l 0,12.6225 q 0.1575,0.225 0.3825,0.27 0.2475,0.045 1.17,0.0675 l 0.7425,0 0,1.035 -0.2475,0 q -0.3825,-0.0675 -3.24,-0.0675 -2.8575,0 -3.24,0.0675 l -0.2475,0 0,-1.035 0.7425,0 q 0.9225,-0.0225 1.125,-0.0675 0.225,-0.045 0.45,-0.27 l 0,-6.0975 -6.4125,0 0,3.0375 0.0225,3.06 q 0.1575,0.225 0.3825,0.27 0.2475,0.045 1.17,0.0675 l 0.7425,0 0,1.035 -0.2475,0 q -0.3825,-0.0675 -3.24,-0.0675 -2.8575,0 -3.24,0.0675 l -0.2475,0 0,-1.035 0.7425,0 q 0.9225,-0.0225 1.125,-0.0675 0.225,-0.045 0.45,-0.27 l 0,-12.6225 z"
       style="font-style:normal;font-variant:normal;font-weight:normal;font-stretch:normal;font-size:22.5px;line-height:125%;font-family:KaTeX_Main;-inkscape-font-specification:'KaTeX_Main, Normal';text-align:start;writing-mode:lr-tb;text-anchor:start"
       id="path4318" /></g><g
     style="font-style:normal;font-variant:normal;font-weight:normal;font-stretch:normal;font-size:22.5px;line-height:125%;font-family:KaTeX_Main;-inkscape-font-specification:'KaTeX_Main, Normal';text-align:start;writing-mode:lr-tb;text-anchor:start"
     id="text131"><path
       d="m 11.9125,104.95 q -0.6075,0 -0.9675,-0.3825 -0.3375,-0.3825 -0.3375,-0.99 0,-1.2825 1.0125,-2.1375 1.0125,-0.8775 2.34,-1.035 l 0.3375,0 q 0.7875,0 0.99,0.0225 0.7425,0.1125 1.5075,0.4725 1.485,0.7425 1.8675,2.115 0.0675,0.225 0.0675,0.6075 0,1.3275 -0.8325,2.385 -0.81,1.035 -2.0475,1.485 -0.1125,0.045 0,0.0675 0.045,0.0225 0.225,0.0675 1.3725,0.3825 2.3175,1.44 0.945,1.035 0.945,2.3625 0,0.9225 -0.4275,1.7775 -0.54,1.1475 -1.7775,1.9125 -1.215,0.7425 -2.7225,0.7425 -1.485,0 -2.6325,-0.63 Q 10.63,114.6025 10.225,113.545 10,113.0725 10,112.4425 q 0,-0.63 0.405,-1.0125 0.4275,-0.405 1.0125,-0.405 0.63,0 1.035,0.405 0.405,0.405 0.405,1.0125 0,0.5175 -0.2925,0.9 -0.2925,0.3825 -0.7875,0.495 l -0.1575,0.045 q 1.215,1.0125 2.79,1.0125 1.2375,0 1.8675,-1.1925 Q 16.66,112.96 16.66,111.43 l 0,-0.45 q 0,-2.1375 -1.44,-2.8575 -0.3375,-0.135 -1.3725,-0.1575 l -0.945,-0.0225 -0.0675,-0.045 q -0.045,-0.0675 -0.045,-0.36 0,-0.27 0.0675,-0.3375 0.0675,-0.0675 0.1125,-0.0675 0.63,0 1.305,-0.1125 0.99,-0.135 1.5075,-1.1025 0.5175,-0.99 0.5175,-2.3625 0,-1.4625 -0.7875,-1.9575 -0.4725,-0.315 -1.0575,-0.315 -1.125,0 -1.98,0.6075 -0.09,0.045 -0.2025,0.1575 -0.1125,0.09 -0.18,0.18 l -0.0675,0.09 q 0.0675,0.0225 0.1575,0.045 0.45,0.045 0.7425,0.4275 0.315,0.3825 0.315,0.8775 0,0.54 -0.3825,0.9225 -0.36,0.36 -0.945,0.36 z"
       style="font-style:normal;font-variant:normal;font-weight:normal;font-stretch:normal;font-size:22.5px;line-height:125%;font-family:KaTeX_Main;-inkscape-font-specification:'KaTeX_Main, Normal';text-align:start;writing-mode:lr-tb;text-anchor:start"
       id="path4307" /><path
       d="m 25.87,101.4175 q -0.2475,-0.2475 -0.45,-0.2925 -0.2025,-0.0675 -1.035,-0.09 l -0.6525,0 0,-1.035 0.2025,0 q 0.315,0.0675 2.79,0.0675 2.7,0 3.195,-0.0675 l 0.2475,0 0,1.035 -0.4725,0 q -1.035,0.0225 -1.2825,0.2475 -0.09,0.0675 -0.09,0.135 0,0.045 2.025,5.58 2.025,5.535 2.0475,5.535 0.8775,-2.3625 1.935,-5.22 1.9125,-5.175 1.9125,-5.3775 0,-0.4275 -0.4725,-0.6525 -0.4725,-0.2475 -1.035,-0.2475 l -0.1125,0 0,-1.035 0.2025,0 q 0.3825,0.0675 2.5875,0.0675 1.935,0 2.1825,-0.0675 l 0.135,0 0,1.035 -0.1575,0 q -1.665,0 -2.16,0.9225 0,0.0225 -2.5425,6.8625 -2.52,6.84 -2.5425,6.8625 -0.0675,0.18 -0.405,0.18 l -0.2025,0 -0.2025,0 q -0.315,0 -0.3825,-0.18 -0.045,-0.045 -2.6325,-7.1325 -2.6325,-7.065 -2.6325,-7.1325 z"
       style="font-style:normal;font-variant:normal;font-weight:normal;font-stretch:normal;font-size:22.5px;line-height:125%;font-family:KaTeX_Main;-inkscape-font-specification:'KaTeX_Main, Normal';text-align:start;writing-mode:lr-tb;text-anchor:start"
       id="path4309" /></g><g
     style="font-style:normal;font-variant:normal;font-weight:normal;font-stretch:normal;font-size:22.5px;line-height:125%;font-family:KaTeX_Main;-inkscape-font-specification:'KaTeX_Main, Normal';text-align:start;writing-mode:lr-tb;text-anchor:start"
     id="text133"><path
       d="m 227.97999,65.3725 q -0.225,-0.225 -0.45,-0.27 -0.2025,-0.045 -1.125,-0.0675 l -0.7425,0 0,-1.035 4.5225,0 q 3.8475,0.0225 4.2975,0.045 0.45,0 0.945,0.1125 2.205,0.4725 3.69,2.34 1.5075,1.8675 1.8225,4.3425 0.045,0.45 0.045,0.9675 0,0.5175 -0.045,0.9675 -0.315,2.4975 -1.9125,4.32 -1.5975,1.8 -4.0275,2.205 -0.2925,0.045 -4.815,0.0675 l -4.5225,0 0,-1.035 0.7425,0 q 0.9225,-0.0225 1.125,-0.0675 0.225,-0.045 0.45,-0.27 l 0,-12.6225 z m 5.9625,-0.315 q -0.045,0 -0.315,0 -0.2475,0 -0.63,0 -0.3825,-0.0225 -0.6975,-0.0225 -0.315,0 -0.6975,0.0225 -0.3825,0 -0.63,0 -0.2475,0 -0.2925,0 -0.2925,0.0225 -0.36,0.18 -0.0675,0.09 -0.0675,6.39 0,6.345 0.0225,6.4125 0.045,0.2025 0.27,0.2475 0.18,0.045 2.1375,0.045 1.4625,0 2.295,-0.225 0.855,-0.225 1.665,-0.8775 1.755,-1.4625 1.755,-5.4675 0,-1.53 -0.1575,-2.34 -0.36,-2.43 -2.0925,-3.6 -0.99,-0.6525 -2.205,-0.765 z"
       style="font-style:normal;font-variant:normal;font-weight:normal;font-stretch:normal;font-size:22.5px;line-height:125%;font-family:KaTeX_Main;-inkscape-font-specification:'KaTeX_Main, Normal';text-align:start;writing-mode:lr-tb;text-anchor:start"
       id="path4304" /></g><g
     style="font-style:normal;font-variant:normal;font-weight:normal;font-stretch:normal;font-size:22.5px;line-height:125%;font-family:KaTeX_Main;-inkscape-font-specification:'KaTeX_Main, Normal';text-align:start;writing-mode:lr-tb;text-anchor:start"
     id="text135"><path
       d="m 93.865,160.69749 0.315,0 q 0.8775,0 1.0575,-0.315 l 0,-0.18 q 0,-0.1575 0,-0.45 0,-0.27 0,-0.6525 0.0225,-0.3825 0.0225,-0.8775 0,-0.495 0,-0.99 0,-0.5175 0,-1.1025 0,-0.6075 0,-1.1475 0,-0.765 0,-1.5975 0,-0.8325 0,-1.485 0,-0.6525 -0.0225,-1.1925 0,-0.5625 0,-0.8775 0,-0.3375 0,-0.36 -0.0675,-0.4275 -0.3375,-0.5625 -0.2475,-0.1575 -0.99,-0.2025 l -0.405,0 0,-0.5175 q 0,-0.5175 0.045,-0.5175 l 0.225,-0.0225 q 0.225,-0.0225 0.6525,-0.045 0.4275,-0.0225 0.8325,-0.045 0.3825,-0.0225 0.8325,-0.045 0.45,-0.045 0.675,-0.0675 0.225,-0.0225 0.2475,-0.0225 l 0.0675,0 0,0.585 0.0225,0.585 0.18,-0.1575 q 1.3725,-0.99 3.105,-0.99 0.495,0 0.72,0.045 1.575,0.315 2.6325,1.6875 1.0575,1.3725 1.0575,3.33 0,0.4275 -0.045,0.7875 -0.225,1.4625 -1.1025,2.52 -0.855,1.0575 -2.2275,1.575 -0.675,0.225 -1.395,0.225 -1.53,0 -2.7,-0.99 l -0.18,-0.1575 0,1.9125 q 0,1.9575 0.0225,2.0025 0.09,0.18 0.27,0.2475 0.4725,0.0675 1.1025,0.0675 l 0.36,0 0,1.035 -0.18,0 q -0.2925,-0.0675 -2.52,-0.0675 -2.2275,0 -2.52,0.0675 l -0.18,0 0,-1.035 0.36,0 z m 8.73,-8.235 q 0,-1.5525 -0.6975,-2.745 -0.675,-1.1925 -1.665,-1.3725 -0.045,0 -0.1575,0 -0.09,-0.0225 -0.1575,-0.0225 -1.5975,0 -2.7675,1.4625 l 0,5.3775 q 0.9225,1.62 2.52,1.62 0.945,0 1.71,-0.8325 1.215,-1.26 1.215,-3.4875 z"
       style="font-style:normal;font-variant:normal;font-weight:normal;font-stretch:normal;font-size:22.5px;line-height:125%;font-family:KaTeX_Main;-inkscape-font-specification:'KaTeX_Main, Normal';text-align:start;writing-mode:lr-tb;text-anchor:start"
       id="path4299" /><path
       d="m 107.74047,141.88749 q 0.3825,-0.0225 0.8325,-0.045 0.45,-0.045 0.675,-0.0675 0.225,-0.0225 0.2475,-0.0225 l 0.0675,0 0,3.3975 q 0,3.42 0.0225,3.42 0.0675,-0.045 0.135,-0.1125 1.2375,-1.035 3.0825,-1.035 0.405,0 0.7425,0.0675 1.5975,0.315 2.655,1.6875 1.08,1.35 1.08,3.33 0,0.4275 -0.045,0.7875 -0.2925,1.8225 -1.5975,3.0825 -1.2825,1.2375 -3.195,1.2375 -1.7325,0 -2.97,-1.3275 l -0.1575,-0.1575 -0.225,0.405 q -0.045,0.0675 -0.135,0.225 -0.0675,0.135 -0.135,0.2475 -0.045,0.09 -0.0675,0.135 l -0.1125,0.2025 -0.45,0.0225 -0.45,0 0,-6.705 q 0,-6.7725 -0.0225,-6.8625 -0.0675,-0.4275 -0.3375,-0.5625 -0.2475,-0.1575 -0.99,-0.2025 l -0.405,0 0,-0.5175 q 0,-0.5175 0.045,-0.5175 l 0.225,-0.0225 q 0.225,-0.0225 0.6525,-0.045 0.4275,-0.0225 0.8325,-0.045 z m 5.2425,6.435 q -0.54,-0.0675 -0.6975,-0.0675 -1.575,0 -2.52,1.305 l -0.135,0.18 0,5.4225 0.1125,0.1575 q 0.675,1.08 1.7325,1.3725 0.2925,0.09 0.6975,0.09 1.44,0 2.2725,-1.215 0.18,-0.2475 0.36,-0.7425 0.27,-0.7875 0.27,-2.2275 0,-1.665 -0.27,-2.4975 -0.4725,-1.4175 -1.8225,-1.7775 z"
       style="font-style:normal;font-variant:normal;font-weight:normal;font-stretch:normal;font-size:22.5px;line-height:125%;font-family:KaTeX_Main;-inkscape-font-specification:'KaTeX_Main, Normal';text-align:start;writing-mode:lr-tb;text-anchor:start"
       id="path4301" /></g><line
     class="st9"
     x1="147.05521"
     y1="31.400801"
     x2="207.05521"
     y2="31.400801"
     id="line137"
     style="fill:none;stroke:#000000;stroke-linecap:round;stroke-miterlimit:10" /><g
     style="font-style:normal;font-variant:normal;font-weight:normal;font-stretch:normal;font-size:22.5px;line-height:125%;font-family:KaTeX_Main;-inkscape-font-specification:'KaTeX_Main, Normal';text-align:start;writing-mode:lr-tb;text-anchor:start;fill:#ff9c39"
     id="text139"><path
       d="m 116.4777,73.615 q -1.44,0 -2.295,-0.72 -0.8325,-0.7425 -0.8325,-2.16 0,-0.405 0.045,-0.765 0.2025,-1.08 1.0575,-3.3075 l 0.36,-1.08 q 0.135,-0.405 0.135,-0.765 0,-0.5625 -0.4275,-0.5625 -0.1575,0 -0.36,0.0675 -1.1475,0.405 -1.7325,2.5875 0,0.0225 -0.0225,0.09 -0.0225,0.045 -0.045,0.0675 0,0 -0.0225,0.0225 -0.0225,0.0225 -0.09,0.0225 -0.045,0 -0.09,0 -0.045,0 -0.18,0 l -0.315,0 q -0.135,-0.135 -0.135,-0.2025 0,-0.0675 0.0675,-0.3375 0.54,-1.7775 1.665,-2.655 0.6075,-0.4725 1.395,-0.4725 0.8775,0 1.44,0.495 0.5625,0.495 0.5625,1.305 0,0.3825 -0.0675,0.585 0,0.1575 -0.3375,0.99 -1.035,2.8125 -1.1025,4.005 0,0.6075 0.1125,0.99 0.2925,0.9675 1.4175,0.9675 0.6075,0 1.08,-0.36 1.395,-0.9225 2.3175,-4.2525 0.18,-0.63 0.18,-1.035 0,-0.99 -0.8775,-1.7775 -0.2925,-0.27 -0.2925,-0.6075 0,-0.5175 0.405,-0.9225 0.4275,-0.4275 0.945,-0.4275 0.54,0 0.8325,0.5175 0.2925,0.495 0.2925,1.1925 0,0.7875 -0.45,2.5875 -0.4275,1.7325 -1.08,3.015 -1.4175,2.9025 -3.555,2.9025 z"
       style="font-style:normal;font-variant:normal;font-weight:normal;font-stretch:normal;font-size:22.5px;line-height:125%;font-family:KaTeX_Math;-inkscape-font-specification:'KaTeX_Math, Normal';text-align:start;writing-mode:lr-tb;text-anchor:start"
       id="path4294" /><path
       d="m 123.82564,68.770751 q -0.14625,-0.14625 -0.2925,-0.1755 -0.13163,-0.02925 -0.73125,-0.04387 l -0.48263,0 0,-0.67275 0.16088,0 q 0.26325,0.04387 2.13525,0.04387 2.1645,0 2.42775,-0.04387 l 0.1755,0 0,0.67275 -0.39488,0 q -0.54112,0 -0.702,0.01462 -0.4095,0.01462 -0.5265,0.0585 -0.117,0.02925 -0.234,0.14625 l -0.0146,4.095 q 0,4.094999 0.0146,4.138874 0.0146,0.07312 0.0585,0.102375 0.0877,0.07313 1.1115,0.07313 1.03838,0 1.41863,-0.08775 0.86287,-0.248625 1.27237,-0.819 0.4095,-0.570375 0.57038,-1.637999 0,-0.07312 0.0146,-0.248625 0.0292,-0.190125 0.0439,-0.336375 0.0293,-0.14625 0.0293,-0.160875 0,-0.01462 0.2925,-0.01462 l 0.2925,0 0,0.07313 q -0.0293,0.04387 -0.20475,1.930499 -0.1755,1.872 -0.20475,1.915875 l 0,0.07313 -7.73663,0 0,-0.67275 0.48263,0 q 0.59962,-0.01462 0.73125,-0.04387 0.14625,-0.02925 0.2925,-0.1755 l 0,-8.204624 z"
       style="font-size:64.99999762%;baseline-shift:sub"
       id="path4296" /></g><g
     style="font-style:normal;font-variant:normal;font-weight:normal;font-stretch:normal;font-size:22.5px;line-height:125%;font-family:KaTeX_Main;-inkscape-font-specification:'KaTeX_Main, Normal';text-align:start;writing-mode:lr-tb;text-anchor:start;fill:#ff9c39"
     id="text143"><path
       d="m 118.6304,44.192298 q -0.315,-0.1575 -0.315,-0.45 0,-0.2925 0.315,-0.45 l 6.7275,0 0,-3.375 0.0225,-3.375 q 0.225,-0.2925 0.4275,-0.2925 0.2925,0 0.45,0.3375 l 0,6.705 6.705,0 q 0.3375,0.18 0.3375,0.45 0,0.27 -0.3375,0.45 l -6.705,0 0,6.705 q -0.1575,0.315 -0.45,0.315 -0.2925,0 -0.45,-0.315 l 0,-6.705 -6.7275,0 z"
       style="font-style:normal;font-variant:normal;font-weight:normal;font-stretch:normal;font-size:22.5px;line-height:125%;font-family:KaTeX_Main;-inkscape-font-specification:'KaTeX_Main, Normal';text-align:start;writing-mode:lr-tb;text-anchor:start;fill:#ff9c39"
       id="path4291" /></g><g
     style="font-style:normal;font-variant:normal;font-weight:normal;font-stretch:normal;font-size:22.5px;line-height:125%;font-family:KaTeX_Main;-inkscape-font-specification:'KaTeX_Main, Normal';text-align:start;writing-mode:lr-tb;text-anchor:start;fill:#ff9c39"
     id="text145"><path
       d="m 119.2604,104.1925 q -0.315,-0.1575 -0.315,-0.45 0,-0.2925 0.315,-0.45 l 13.0725,0 q 0.3375,0.18 0.3375,0.45 0,0.27 -0.3375,0.45 l -13.0725,0 z"
       style="font-style:normal;font-variant:normal;font-weight:normal;font-stretch:normal;font-size:22.5px;line-height:125%;font-family:KaTeX_Main;-inkscape-font-specification:'KaTeX_Main, Normal';text-align:start;writing-mode:lr-tb;text-anchor:start;fill:#ff9c39"
       id="path4288" /></g></svg>