<?xml version="1.0" standalone="no"?><!DOCTYPE svg PUBLIC "-//W3C//DTD SVG 1.1//EN" "http://www.w3.org/Graphics/SVG/1.1/DTD/svg11.dtd"><svg width="400" height="340" transform="translate(0,0)" version="1.1" xmlns="http://www.w3.org/2000/svg" xmlns:xlink="http://www.w3.org/1999/xlink"><defs xmlns="http://www.w3.org/1999/xhtml"><style type="text/css"><![CDATA[
svg .grid { stroke-width: 0.5px; stroke: rgb(187, 187, 187); opacity: 0.5; }
svg .domain { stroke-width: 3px; stroke: black; }
svg { border: none; }
svg .path { stroke-width: 4px; stroke: rgb(17, 172, 205); stroke-linecap: round; fill: none; }
svg text { font-style: normal; font-variant: normal; font-weight: normal; font-stretch: normal; font-size: 12px; line-height: normal; font-family: katex_math; }]]></style></defs><g transform="translate(40,40)"><g class="x-axis" transform="translate(0,160)" fill="none" font-size="10" font-family="sans-serif" text-anchor="middle"><path class="domain" stroke="#000" d="M0.5,0V0.5H280.5V0"/><g class="tick" opacity="1" transform="translate(0.5,0)"><line stroke="#000" y2="6"/><text fill="#000" y="9" dy="0.71em">-2</text><line class="grid" x1="0" y1="-160" x2="0" y2="100"/></g><g class="tick" opacity="1" transform="translate(40.5,0)"><line stroke="#000" y2="6"/><text fill="#000" y="9" dy="0.71em">-1</text><line class="grid" x1="0" y1="-160" x2="0" y2="100"/></g><g class="tick" opacity="1" transform="translate(80.5,0)"><line stroke="#000" y2="6"/><line class="grid" x1="0" y1="-160" x2="0" y2="100"/></g><g class="tick" opacity="1" transform="translate(120.5,0)"><line stroke="#000" y2="6"/><text fill="#000" y="9" dy="0.71em">1</text><line class="grid" x1="0" y1="-160" x2="0" y2="100"/></g><g class="tick" opacity="1" transform="translate(160.5,0)"><line stroke="#000" y2="6"/><text fill="#000" y="9" dy="0.71em">2</text><line class="grid" x1="0" y1="-160" x2="0" y2="100"/></g><g class="tick" opacity="1" transform="translate(200.5,0)"><line stroke="#000" y2="6"/><text fill="#000" y="9" dy="0.71em">3</text><line class="grid" x1="0" y1="-160" x2="0" y2="100"/></g><g class="tick" opacity="1" transform="translate(240.5,0)"><line stroke="#000" y2="6"/><text fill="#000" y="9" dy="0.71em">4</text><line class="grid" x1="0" y1="-160" x2="0" y2="100"/></g><g class="tick" opacity="1" transform="translate(280.5,0)"><line stroke="#000" y2="6"/><text fill="#000" y="9" dy="0.71em">5</text><line class="grid" x1="0" y1="-160" x2="0" y2="100"/></g><text x="280" dx=".71em" style="text-anchor: start; font-size: 16px; fill: black;">t (sec)</text></g><g class="y-axis" transform="translate(80,0)" fill="none" font-size="10" font-family="sans-serif" text-anchor="end"><path class="domain" stroke="#000" d="M0,260.5H0.5V0.5H0"/><g class="tick" opacity="1" transform="translate(0,260.5)"><line stroke="#000" x2="-6"/><text fill="#000" x="-9" dy="0.32em">-1,000</text><line class="grid" x1="-80" y1="0" x2="200" y2="0"/></g><g class="tick" opacity="1" transform="translate(0,240.5)"><line stroke="#000" x2="-6"/><text fill="#000" x="-9" dy="0.32em">-800</text><line class="grid" x1="-80" y1="0" x2="200" y2="0"/></g><g class="tick" opacity="1" transform="translate(0,220.5)"><line stroke="#000" x2="-6"/><text fill="#000" x="-9" dy="0.32em">-600</text><line class="grid" x1="-80" y1="0" x2="200" y2="0"/></g><g class="tick" opacity="1" transform="translate(0,200.5)"><line stroke="#000" x2="-6"/><text fill="#000" x="-9" dy="0.32em">-400</text><line class="grid" x1="-80" y1="0" x2="200" y2="0"/></g><g class="tick" opacity="1" transform="translate(0,180.5)"><line stroke="#000" x2="-6"/><text fill="#000" x="-9" dy="0.32em">-200</text><line class="grid" x1="-80" y1="0" x2="200" y2="0"/></g><g class="tick" opacity="1" transform="translate(0,160.5)"><line stroke="#000" x2="-6"/><line class="grid" x1="-80" y1="0" x2="200" y2="0"/></g><g class="tick" opacity="1" transform="translate(0,140.5)"><line stroke="#000" x2="-6"/><text fill="#000" x="-9" dy="0.32em">200</text><line class="grid" x1="-80" y1="0" x2="200" y2="0"/></g><g class="tick" opacity="1" transform="translate(0,120.5)"><line stroke="#000" x2="-6"/><text fill="#000" x="-9" dy="0.32em">400</text><line class="grid" x1="-80" y1="0" x2="200" y2="0"/></g><g class="tick" opacity="1" transform="translate(0,100.5)"><line stroke="#000" x2="-6"/><text fill="#000" x="-9" dy="0.32em">600</text><line class="grid" x1="-80" y1="0" x2="200" y2="0"/></g><g class="tick" opacity="1" transform="translate(0,80.5)"><line stroke="#000" x2="-6"/><text fill="#000" x="-9" dy="0.32em">800</text><line class="grid" x1="-80" y1="0" x2="200" y2="0"/></g><g class="tick" opacity="1" transform="translate(0,60.5)"><line stroke="#000" x2="-6"/><text fill="#000" x="-9" dy="0.32em">1,000</text><line class="grid" x1="-80" y1="0" x2="200" y2="0"/></g><g class="tick" opacity="1" transform="translate(0,40.5)"><line stroke="#000" x2="-6"/><text fill="#000" x="-9" dy="0.32em">1,200</text><line class="grid" x1="-80" y1="0" x2="200" y2="0"/></g><g class="tick" opacity="1" transform="translate(0,20.5)"><line stroke="#000" x2="-6"/><text fill="#000" x="-9" dy="0.32em">1,400</text><line class="grid" x1="-80" y1="0" x2="200" y2="0"/></g><g class="tick" opacity="1" transform="translate(0,0.5)"><line stroke="#000" x2="-6"/><text fill="#000" x="-9" dy="0.32em">1,600</text><line class="grid" x1="-80" y1="0" x2="200" y2="0"/></g><text dx="6" dy="-6" style="text-anchor: start; font-size: 16px; fill: black;">i (amps))</text></g><path class="path" d="M0,160L80,160L280,10"/></g></svg>