<?xml version="1.0" encoding="UTF-8" standalone="no"?>
<!-- Generator: Adobe Illustrator 19.1.0, SVG Export Plug-In . SVG Version: 6.00 Build 0)  -->

<svg
   xmlns:dc="http://purl.org/dc/elements/1.1/"
   xmlns:cc="http://creativecommons.org/ns#"
   xmlns:rdf="http://www.w3.org/1999/02/22-rdf-syntax-ns#"
   xmlns:svg="http://www.w3.org/2000/svg"
   xmlns="http://www.w3.org/2000/svg"
   xmlns:sodipodi="http://sodipodi.sourceforge.net/DTD/sodipodi-0.dtd"
   xmlns:inkscape="http://www.inkscape.org/namespaces/inkscape"
   version="1.1"
   id="Layer_1"
   x="0px"
   y="0px"
   viewBox="0 0 78.728004 138.37132"
   xml:space="preserve"
   sodipodi:docname="inductor_symbol2.svg"
   width="78.728004"
   height="138.37132"
   inkscape:version="0.92.2 5c3e80d, 2017-08-06"><metadata
     id="metadata2874"><rdf:RDF><cc:Work
         rdf:about=""><dc:format>image/svg+xml</dc:format><dc:type
           rdf:resource="http://purl.org/dc/dcmitype/StillImage" /><dc:title></dc:title></cc:Work></rdf:RDF></metadata><defs
     id="defs2872" /><sodipodi:namedview
     pagecolor="#ffffff"
     bordercolor="#666666"
     borderopacity="1"
     objecttolerance="10"
     gridtolerance="10"
     guidetolerance="10"
     inkscape:pageopacity="0"
     inkscape:pageshadow="2"
     inkscape:window-width="640"
     inkscape:window-height="480"
     id="namedview2870"
     showgrid="false"
     fit-margin-top="10"
     fit-margin-left="10"
     fit-margin-bottom="10"
     fit-margin-right="10"
     inkscape:zoom="3.7146425"
     inkscape:cx="39.364002"
     inkscape:cy="69.185661"
     inkscape:current-layer="Layer_1" /><style
     type="text/css"
     id="style2817">
	.st0{fill:none;stroke:#E8C11C;stroke-miterlimit:10;}
	.st1{fill:none;stroke:#11ACCD;stroke-width:3;stroke-linecap:round;stroke-miterlimit:10;}
	.st2{fill:#11ACCD;}
	.st3{fill:none;stroke:#11ACCD;stroke-width:4;stroke-miterlimit:10;}
	.st4{fill:none;stroke:#BABEC2;stroke-linecap:round;stroke-miterlimit:10;}
	.st5{fill:none;stroke:#11ACCD;stroke-width:6;stroke-miterlimit:10;}
	.st6{fill:none;stroke:#000000;stroke-linecap:round;stroke-linejoin:round;stroke-miterlimit:10;}
	.st7{fill:none;stroke:#000000;stroke-width:2;stroke-linecap:round;stroke-linejoin:round;stroke-miterlimit:10;}
	.st8{fill:none;stroke:#000000;stroke-width:2;stroke-miterlimit:10;}
	.st9{fill:none;stroke:#000000;stroke-linecap:round;stroke-miterlimit:10;}
	.st10{fill:none;stroke:#000000;stroke-width:1.5;stroke-miterlimit:10;}
	.st11{fill:none;stroke:#000000;stroke-width:2;stroke-linecap:round;stroke-miterlimit:10;}
	.st12{fill:none;}
	.st13{stroke:#000000;stroke-linecap:round;stroke-linejoin:round;stroke-miterlimit:10;}
	.st14{fill:none;stroke:#000000;stroke-miterlimit:10;}
	.st15{fill:#FFFFFF;stroke:#000000;stroke-miterlimit:10;}
	.st16{fill:#1FAB54;}
	.st17{font-family:'KaTeX_Main-Italic';}
	.st18{font-size:18px;}
	.st19{fill:none;stroke:#000000;stroke-width:5;stroke-miterlimit:10;}
	.st20{fill:none;stroke:#000000;stroke-width:4;stroke-miterlimit:10;}
	.st21{fill:#FF9C39;}
	.st22{fill:#E8C11C;}
	.st23{fill:none;stroke:#E8C11C;stroke-linecap:round;stroke-miterlimit:10;}
	.st24{fill:#BABEC2;stroke:#BABEC2;stroke-linecap:round;stroke-linejoin:round;stroke-miterlimit:10;}
	.st25{fill:#BABEC2;stroke:#BABEC2;stroke-miterlimit:10;}
	.st26{fill:none;stroke:#BABEC2;stroke-linecap:round;stroke-linejoin:round;stroke-miterlimit:10;}
	.st27{fill:none;stroke:#1FAB54;stroke-width:2;stroke-linecap:round;stroke-miterlimit:10;}
	.st28{font-family:'KaTeX_Main-Regular';}
	.st29{font-size:21px;}
	.st30{fill:none;stroke:#BABEC2;stroke-width:2;stroke-linecap:round;stroke-miterlimit:10;}
	.st31{fill:#BABEC2;}
	.st32{fill:none;stroke:#BABEC2;stroke-width:2;stroke-miterlimit:10;}
	.st33{fill:none;stroke:#BABEC2;stroke-width:2;stroke-linecap:round;stroke-linejoin:round;stroke-miterlimit:10;}
	.st34{opacity:0.1;fill:none;stroke:#000000;stroke-width:2;enable-background:new    ;}
	.st35{fill:none;stroke:#000000;stroke-width:2;stroke-linecap:round;stroke-linejoin:round;}
	.st36{fill:none;stroke:#000000;stroke-width:2;}
	.st37{fill:none;stroke:#000000;}
	.st38{clip-path:url(#SVGID_2_);fill:none;stroke:#29ABCA;stroke-width:5;}
	.st39{clip-path:url(#SVGID_4_);fill:none;stroke:#29ABCA;stroke-width:5;}
	.st40{clip-path:url(#SVGID_6_);fill:none;stroke:#E1A158;stroke-width:5;}
	.st41{clip-path:url(#SVGID_8_);fill:none;stroke:#E1A158;stroke-width:5;}
	.st42{clip-path:url(#SVGID_10_);fill:none;stroke:#E1A158;stroke-width:5;}
	.st43{fill:#E07D10;}
	.st44{fill:none;stroke:#FF9C39;stroke-width:2;stroke-linecap:round;stroke-miterlimit:10;}
	.st45{fill:none;stroke:#E07D10;stroke-width:2;stroke-linecap:round;stroke-miterlimit:10;}
	.st46{fill:none;stroke:#000000;stroke-width:4;stroke-linecap:round;stroke-miterlimit:10;}
	.st47{fill:none;stroke:#11ACCD;stroke-width:4;stroke-linecap:round;stroke-miterlimit:10;}
	.st48{fill:none;stroke:#E8C11C;stroke-width:2;stroke-miterlimit:10;}
</style><g
     id="g2847"
     transform="translate(3.4000001,7.8641997)"><line
       class="st9"
       x1="36"
       y1="108"
       x2="36"
       y2="120"
       id="line2819"
       style="fill:none;stroke:#000000;stroke-linecap:round;stroke-miterlimit:10" /><path
       class="st11"
       d="m 36,94.2 c -5,0 -9,3.1 -9,6.9 0,3.8 4,6.9 9,6.9"
       id="path2821"
       inkscape:connector-curvature="0"
       style="fill:none;stroke:#000000;stroke-width:2;stroke-linecap:round;stroke-miterlimit:10" /><path
       class="st11"
       d="m 36,94.2 c 5,0 9,1 9,2.3 0,1.3 -4,2.3 -9,2.3"
       id="path2823"
       inkscape:connector-curvature="0"
       style="fill:none;stroke:#000000;stroke-width:2;stroke-linecap:round;stroke-miterlimit:10" /><path
       class="st11"
       d="m 36,84.9 c -5,0 -9,3.1 -9,6.9 0,3.8 4,6.9 9,6.9"
       id="path2825"
       inkscape:connector-curvature="0"
       style="fill:none;stroke:#000000;stroke-width:2;stroke-linecap:round;stroke-miterlimit:10" /><path
       class="st11"
       d="m 36,84.9 c 5,0 9,1 9,2.3 0,1.3 -4,2.3 -9,2.3"
       id="path2827"
       inkscape:connector-curvature="0"
       style="fill:none;stroke:#000000;stroke-width:2;stroke-linecap:round;stroke-miterlimit:10" /><path
       class="st11"
       d="m 36,75.7 c -5,0 -9,3.1 -9,6.9 0,3.8 4,6.9 9,6.9"
       id="path2829"
       inkscape:connector-curvature="0"
       style="fill:none;stroke:#000000;stroke-width:2;stroke-linecap:round;stroke-miterlimit:10" /><path
       class="st11"
       d="m 36,75.7 c 5,0 9,1 9,2.3 0,1.3 -4,2.3 -9,2.3"
       id="path2831"
       inkscape:connector-curvature="0"
       style="fill:none;stroke:#000000;stroke-width:2;stroke-linecap:round;stroke-miterlimit:10" /><path
       class="st11"
       d="m 36,66.5 c -5,0 -9,3.1 -9,6.9 0,3.8 4,6.9 9,6.9"
       id="path2833"
       inkscape:connector-curvature="0"
       style="fill:none;stroke:#000000;stroke-width:2;stroke-linecap:round;stroke-miterlimit:10" /><path
       class="st11"
       d="m 36,66.5 c 5,0 9,1 9,2.3 0,1.3 -4,2.3 -9,2.3"
       id="path2835"
       inkscape:connector-curvature="0"
       style="fill:none;stroke:#000000;stroke-width:2;stroke-linecap:round;stroke-miterlimit:10" /><path
       class="st11"
       d="m 36,57.2 c 5,0 9,1 9,2.3 0,1.3 -4,2.3 -9,2.3"
       id="path2837"
       inkscape:connector-curvature="0"
       style="fill:none;stroke:#000000;stroke-width:2;stroke-linecap:round;stroke-miterlimit:10" /><path
       class="st11"
       d="m 36,57.2 c -5,0 -9,3.1 -9,6.9 0,3.8 4,6.9 9,6.9"
       id="path2839"
       inkscape:connector-curvature="0"
       style="fill:none;stroke:#000000;stroke-width:2;stroke-linecap:round;stroke-miterlimit:10" /><path
       class="st11"
       d="m 36,48 c -5,0 -9,3.1 -9,6.9 0,3.8 4,6.9 9,6.9"
       id="path2841"
       inkscape:connector-curvature="0"
       style="fill:none;stroke:#000000;stroke-width:2;stroke-linecap:round;stroke-miterlimit:10" /><line
       class="st9"
       x1="36"
       y1="36"
       x2="36"
       y2="48"
       id="line2843"
       style="fill:none;stroke:#000000;stroke-linecap:round;stroke-miterlimit:10" /><rect
       x="24"
       y="36"
       class="st12"
       width="24"
       height="84"
       id="rect2845"
       style="fill:none" /></g><g
     id="g2857"
     transform="translate(3.4000001,7.8641997)"><g
       id="g2855"><line
         class="st1"
         x1="36"
         y1="6"
         x2="36"
         y2="20.9"
         id="line2849"
         style="fill:none;stroke:#11accd;stroke-width:3;stroke-linecap:round;stroke-miterlimit:10" /><g
         id="g2853"><path
           class="st2"
           d="M 36,30 C 34.4,25.7 31.7,20.5 28.9,17.2 l 7.1,2.6 7.1,-2.6 C 40.3,20.5 37.6,25.7 36,30 Z"
           id="path2851"
           inkscape:connector-curvature="0"
           style="fill:#11accd" /></g></g></g><g
     aria-label="i"
     style="font-style:normal;font-variant:normal;font-weight:normal;font-stretch:normal;font-size:24px;font-family:KaTeX_Math;-inkscape-font-specification:'KaTeX_Math, Normal';font-variant-ligatures:normal;font-variant-caps:normal;font-variant-numeric:normal;font-feature-settings:normal;text-align:start;writing-mode:lr-tb;text-anchor:start;fill:#11accd"
     id="text2859"><path
       d="m 25.8159,11.464 q 0,-0.552 0.456,-1.008 0.456,-0.456 1.056,-0.456 0.432,0 0.72,0.288 0.312,0.288 0.312,0.72 0,0.528 -0.48,1.008 -0.48,0.48 -1.056,0.48 -0.432,0 -0.72,-0.288 -0.288,-0.288 -0.288,-0.744 z m -0.552,14.664 q -0.936,0 -1.512,-0.552 -0.576,-0.552 -0.576,-1.488 0,-0.408 0.048,-0.552 0,-0.048 1.104,-2.952 1.104,-2.928 1.104,-2.976 0.12,-0.384 0.12,-0.864 0,-0.576 -0.408,-0.576 h -0.048 q -0.576,0 -1.104,0.552 -0.768,0.792 -1.128,2.256 0,0.024 -0.024,0.096 -0.024,0.048 -0.048,0.072 0,0 -0.024,0.024 -0.024,0.024 -0.096,0.024 -0.048,0 -0.096,0 -0.048,0 -0.192,0 h -0.336 q -0.144,-0.144 -0.144,-0.216 0,-0.072 0.072,-0.336 0.624,-2.064 1.824,-2.88 0.648,-0.504 1.392,-0.504 0.96,0 1.584,0.552 0.624,0.552 0.624,1.488 0,0.312 -0.12,0.72 -0.024,0.048 -1.104,2.952 l -1.08,2.904 q -0.12,0.528 -0.12,0.768 0,0.6 0.408,0.6 0.336,0 0.6,-0.144 1.056,-0.504 1.656,-2.52 0.072,-0.288 0.12,-0.336 0.072,-0.048 0.408,-0.048 0.216,0 0.288,0.024 0.096,0 0.144,0.048 0.048,0.048 0.048,0.168 0,0.096 -0.072,0.312 -0.456,1.368 -1.32,2.376 -0.84,1.008 -1.992,1.008 z"
       style="font-style:normal;font-variant:normal;font-weight:normal;font-stretch:normal;font-size:24px;font-family:KaTeX_Math;-inkscape-font-specification:'KaTeX_Math, Normal';font-variant-ligatures:normal;font-variant-caps:normal;font-variant-numeric:normal;font-feature-settings:normal;text-align:start;writing-mode:lr-tb;text-anchor:start;fill:#11accd"
       id="path2888" /></g><g
     aria-label="v"
     style="font-style:normal;font-variant:normal;font-weight:normal;font-stretch:normal;font-size:24px;font-family:KaTeX_Math;-inkscape-font-specification:'KaTeX_Math, Normal';font-variant-ligatures:normal;font-variant-caps:normal;font-variant-numeric:normal;font-feature-settings:normal;text-align:start;writing-mode:lr-tb;text-anchor:start;fill:#ff9c39"
     id="text2861"><path
       d="m 63.184398,86.128197 q -1.536,0 -2.448,-0.768 -0.888,-0.792 -0.888,-2.304 0,-0.432 0.048,-0.816 0.216,-1.152 1.128,-3.528 l 0.384,-1.152 q 0.144,-0.432 0.144,-0.816 0,-0.6 -0.456,-0.6 -0.168,0 -0.384,0.072 -1.224,0.432 -1.848,2.76 0,0.024 -0.024,0.096 -0.024,0.048 -0.048,0.072 0,0 -0.024,0.024 -0.024,0.024 -0.096,0.024 -0.048,0 -0.096,0 -0.048,0 -0.192,0 h -0.336 q -0.144,-0.144 -0.144,-0.216 0,-0.072 0.072,-0.36 0.576,-1.896 1.776,-2.832 0.648,-0.504 1.488,-0.504 0.936,0 1.536,0.528 0.6,0.528 0.6,1.392 0,0.408 -0.072,0.624 0,0.168 -0.36,1.056 -1.104,3 -1.176,4.272 0,0.648 0.12,1.056 0.312,1.032 1.512,1.032 0.648,0 1.152,-0.384 1.488,-0.984 2.472,-4.536 0.192,-0.672 0.192,-1.104 0,-1.056 -0.936,-1.896 -0.312,-0.288 -0.312,-0.648 0,-0.552 0.432,-0.984 0.456,-0.456 1.008,-0.456 0.576,0 0.888,0.552 0.312,0.528 0.312,1.272 0,0.84 -0.48,2.76 -0.456,1.848 -1.152,3.216 -1.512,3.096 -3.792,3.096 z"
       style="font-style:normal;font-variant:normal;font-weight:normal;font-stretch:normal;font-size:24px;font-family:KaTeX_Math;-inkscape-font-specification:'KaTeX_Math, Normal';font-variant-ligatures:normal;font-variant-caps:normal;font-variant-numeric:normal;font-feature-settings:normal;text-align:start;writing-mode:lr-tb;text-anchor:start;fill:#ff9c39"
       id="path2885" /></g><g
     aria-label="+"
     style="font-style:normal;font-variant:normal;font-weight:normal;font-stretch:normal;font-size:24px;font-family:KaTeX_Main;-inkscape-font-specification:'KaTeX_Main, Normal';font-variant-ligatures:normal;font-variant-caps:normal;font-variant-numeric:normal;font-feature-settings:normal;text-align:start;writing-mode:lr-tb;text-anchor:start;fill:#ff9c39"
     id="text2863"><path
       d="m 53.080002,42.123826 q -0.336,-0.168 -0.336,-0.48 0,-0.312 0.336,-0.48 h 7.176 v -3.6 l 0.024,-3.6 q 0.24,-0.312 0.456,-0.312 0.312,0 0.48,0.36 v 7.152 h 7.152 q 0.36,0.192 0.36,0.48 0,0.288 -0.36,0.48 h -7.152 v 7.152 q -0.168,0.336 -0.48,0.336 -0.312,0 -0.48,-0.336 v -7.152 z"
       style="font-style:normal;font-variant:normal;font-weight:normal;font-stretch:normal;font-size:24px;font-family:KaTeX_Main;-inkscape-font-specification:'KaTeX_Main, Normal';font-variant-ligatures:normal;font-variant-caps:normal;font-variant-numeric:normal;font-feature-settings:normal;text-align:start;writing-mode:lr-tb;text-anchor:start;fill:#ff9c39"
       id="path2882" /></g><g
     aria-label="−"
     style="font-style:normal;font-variant:normal;font-weight:normal;font-stretch:normal;font-size:24px;font-family:KaTeX_Main;-inkscape-font-specification:'KaTeX_Main, Normal';font-variant-ligatures:normal;font-variant-caps:normal;font-variant-numeric:normal;font-feature-settings:normal;text-align:start;writing-mode:lr-tb;text-anchor:start;fill:#ff9c39"
     id="text2865"><path
       d="m 53.752002,128.3443 q -0.336,-0.168 -0.336,-0.48 0,-0.312 0.336,-0.48 h 13.944 q 0.36,0.192 0.36,0.48 0,0.288 -0.36,0.48 z"
       style="font-style:normal;font-variant:normal;font-weight:normal;font-stretch:normal;font-size:24px;font-family:KaTeX_Main;-inkscape-font-specification:'KaTeX_Main, Normal';font-variant-ligatures:normal;font-variant-caps:normal;font-variant-numeric:normal;font-feature-settings:normal;text-align:start;writing-mode:lr-tb;text-anchor:start;fill:#ff9c39"
       id="path2879" /></g><g
     aria-label="L"
     style="font-style:normal;font-variant:normal;font-weight:normal;font-stretch:normal;font-size:24px;font-family:KaTeX_Main;-inkscape-font-specification:'KaTeX_Main, Normal';font-variant-ligatures:normal;font-variant-caps:normal;font-variant-numeric:normal;font-feature-settings:normal;text-align:start;writing-mode:lr-tb;text-anchor:start"
     id="text2867"><path
       d="m 12.472,70.936197 q -0.24,-0.24 -0.48,-0.288 -0.216,-0.048 -1.2,-0.072 H 9.9999996 v -1.104 H 10.264 q 0.432,0.072 3.504,0.072 3.552,0 3.984,-0.072 h 0.288 v 1.104 h -0.648 q -0.888,0 -1.152,0.024 -0.672,0.024 -0.864,0.096 -0.192,0.048 -0.384,0.24 l -0.024,6.72 q 0,6.72 0.024,6.792 0.024,0.12 0.096,0.168 0.144,0.12 1.824,0.12 1.704,0 2.328,-0.144 1.416,-0.408 2.088,-1.344 0.672,-0.936 0.936,-2.688 0,-0.12 0.024,-0.408 0.048,-0.312 0.072,-0.552 0.048,-0.24 0.048,-0.264 0,-0.024 0.48,-0.024 h 0.48 v 0.12 q -0.048,0.072 -0.336,3.168 -0.288,3.072 -0.336,3.144 v 0.12 H 9.9999996 v -1.104 H 10.792 q 0.984,-0.024 1.2,-0.072 0.24,-0.048 0.48,-0.288 z"
       style="font-style:normal;font-variant:normal;font-weight:normal;font-stretch:normal;font-size:24px;font-family:KaTeX_Main;-inkscape-font-specification:'KaTeX_Main, Normal';font-variant-ligatures:normal;font-variant-caps:normal;font-variant-numeric:normal;font-feature-settings:normal;text-align:start;writing-mode:lr-tb;text-anchor:start"
       id="path2876" /></g></svg>