<?xml version="1.0" encoding="UTF-8" standalone="no"?>
<svg
   xmlns:xhtml="http://www.w3.org/1999/xhtml"
   xmlns:dc="http://purl.org/dc/elements/1.1/"
   xmlns:cc="http://creativecommons.org/ns#"
   xmlns:rdf="http://www.w3.org/1999/02/22-rdf-syntax-ns#"
   xmlns:svg="http://www.w3.org/2000/svg"
   xmlns="http://www.w3.org/2000/svg"
   xmlns:sodipodi="http://sodipodi.sourceforge.net/DTD/sodipodi-0.dtd"
   xmlns:inkscape="http://www.inkscape.org/namespaces/inkscape"
   width="374.74377"
   height="313.76874"
   version="1.1"
   id="svg2"
   inkscape:version="0.91 r13725"
   sodipodi:docname="inductor_in_action_current_ramp.svg">
  <metadata
     id="metadata196">
    <rdf:RDF>
      <cc:Work
         rdf:about="">
        <dc:format>image/svg+xml</dc:format>
        <dc:type
           rdf:resource="http://purl.org/dc/dcmitype/StillImage" />
        <dc:title></dc:title>
      </cc:Work>
    </rdf:RDF>
  </metadata>
  <defs
     id="defs194" />
  <sodipodi:namedview
     pagecolor="#ffffff"
     bordercolor="#666666"
     borderopacity="1"
     objecttolerance="10"
     gridtolerance="10"
     guidetolerance="10"
     inkscape:pageopacity="0"
     inkscape:pageshadow="2"
     inkscape:window-width="640"
     inkscape:window-height="480"
     id="namedview192"
     showgrid="false"
     fit-margin-top="10"
     fit-margin-right="10"
     fit-margin-bottom="10"
     fit-margin-left="10"
     inkscape:zoom="1.7273869"
     inkscape:cx="187.37189"
     inkscape:cy="156.88437"
     inkscape:current-layer="svg2" />
  <xhtml:defs>
    <xhtml:style
       type="text/css"><![CDATA[
svg .grid { stroke-width: 0.5px; stroke: rgb(187, 187, 187); opacity: 0.5; }
svg .domain { stroke-width: 3px; stroke: black; }
svg { border: none; }
svg .path { stroke-width: 4px; stroke: rgb(17, 172, 205); stroke-linecap: round; fill: none; }
svg text { font-style: normal; font-variant: normal; font-weight: normal; font-stretch: normal; font-size: 12px; line-height: normal; font-family: katex_math; }]]></xhtml:style>
  </xhtml:defs>
  <path
     class="domain"
     d="m 15.074902,197.30043 0,0.5 279.999998,0 0,-0.5"
     id="path8"
     inkscape:connector-curvature="0"
     style="font-size:medium;font-family:sans-serif;text-anchor:middle;fill:none;stroke:#000000" />
  <line
     style="font-size:medium;font-family:sans-serif;text-anchor:middle;fill:none;stroke:#000000"
     x2="15.074903"
     y1="197.30043"
     x1="15.074903"
     id="line12"
     y2="203.30043" />
  <g
     style="font-style:normal;font-variant:normal;font-weight:normal;font-stretch:normal;font-size:12.5px;line-height:125%;font-family:KaTeX_Main;-inkscape-font-specification:'KaTeX_Main, Normal';text-align:center;writing-mode:lr-tb;text-anchor:middle;fill:#000000"
     id="text14">
    <path
       d="m 10,214.69284 0,-0.9125 3.325,0 0,0.9125 -3.325,0 z"
       style="font-style:normal;font-variant:normal;font-weight:normal;font-stretch:normal;font-size:12.5px;line-height:125%;font-family:KaTeX_Main;-inkscape-font-specification:'KaTeX_Main, Normal';text-align:center;writing-mode:lr-tb;text-anchor:middle;fill:#000000"
       id="path4745" />
    <path
       d="m 15.412305,211.56784 q -0.35,0 -0.55,-0.225 -0.2,-0.225 -0.2,-0.55 0,-0.9 0.675,-1.5375 0.6875,-0.65 1.6375,-0.65 1.075,0 1.775,0.5875 0.7125,0.575 0.875,1.5125 0.025,0.225 0.025,0.4125 0,0.725 -0.4375,1.3625 -0.35,0.525 -1.4125,1.4375 -0.45,0.3875 -1.25,1.15 l -0.7375,0.7 0.95,0.0125 q 1.9625,0 2.0875,-0.0625 0.05,-0.0125 0.125,-0.2625 0.05,-0.1375 0.175,-0.85 l 0,-0.0375 0.5,0 0,0.0375 -0.35,2.2875 0,0.0375 -4.6375,0 0,-0.2375 q 0,-0.25 0.025,-0.2875 0.0125,-0.0125 1.05,-1.1875 1.3625,-1.5125 1.75,-2 0.8375,-1.1375 0.8375,-2.0875 0,-0.825 -0.4375,-1.375 -0.425,-0.5625 -1.2,-0.5625 -0.725,0 -1.175,0.65 -0.025,0.05 -0.075,0.1375 -0.0375,0.0625 -0.0375,0.075 0,0.0125 0.0625,0.0125 0.3125,0 0.5,0.225 0.2,0.225 0.2,0.525 0,0.3125 -0.2125,0.5375 -0.2,0.2125 -0.5375,0.2125 z"
       style="font-style:normal;font-variant:normal;font-weight:normal;font-stretch:normal;font-size:12.5px;line-height:125%;font-family:KaTeX_Main;-inkscape-font-specification:'KaTeX_Main, Normal';text-align:center;writing-mode:lr-tb;text-anchor:middle;fill:#000000"
       id="path4747" />
  </g>
  <line
     style="font-size:medium;font-family:sans-serif;text-anchor:middle;fill:none"
     id="line16"
     y2="297.30042"
     x2="15.074903"
     y1="37.300426"
     x1="15.074903"
     class="grid" />
  <line
     style="font-size:medium;font-family:sans-serif;text-anchor:middle;fill:none;stroke:#000000"
     x2="55.074902"
     y1="197.30043"
     x1="55.074902"
     id="line20"
     y2="203.30043" />
  <g
     style="font-style:normal;font-variant:normal;font-weight:normal;font-stretch:normal;font-size:12.5px;line-height:125%;font-family:KaTeX_Main;-inkscape-font-specification:'KaTeX_Main, Normal';text-align:center;writing-mode:lr-tb;text-anchor:middle;fill:#000000"
     id="text22">
    <path
       d="m 49.999992,214.69284 0,-0.9125 3.325,0 0,0.9125 -3.325,0 z"
       style="font-style:normal;font-variant:normal;font-weight:normal;font-stretch:normal;font-size:12.5px;line-height:125%;font-family:KaTeX_Main;-inkscape-font-specification:'KaTeX_Main, Normal';text-align:center;writing-mode:lr-tb;text-anchor:middle;fill:#000000"
       id="path4740" />
    <path
       d="m 59.237296,216.93034 q -0.2125,-0.0375 -1.9875,-0.0375 -1.75,0 -1.9625,0.0375 l -0.15,0 0,-0.575 0.325,0 q 0.725,0 0.9375,-0.0375 0.1,-0.0125 0.3,-0.15 l 0,-6.4625 q -0.025,0 -0.1,0.0375 -0.575,0.225 -1.2875,0.2375 l -0.2375,0 0,-0.575 0.2375,0 q 1.05,-0.0375 1.75,-0.475 0.225,-0.125 0.3875,-0.2875 0.025,-0.0375 0.15,-0.0375 0.125,0 0.2125,0.075 l 0,3.7375 0.0125,3.75 q 0.1875,0.1875 0.8125,0.1875 l 0.4125,0 0.325,0 0,0.575 -0.1375,0 z"
       style="font-style:normal;font-variant:normal;font-weight:normal;font-stretch:normal;font-size:12.5px;line-height:125%;font-family:KaTeX_Main;-inkscape-font-specification:'KaTeX_Main, Normal';text-align:center;writing-mode:lr-tb;text-anchor:middle;fill:#000000"
       id="path4742" />
  </g>
  <line
     style="font-size:medium;font-family:sans-serif;text-anchor:middle;fill:none"
     id="line24"
     y2="297.30042"
     x2="55.074902"
     y1="37.300426"
     x1="55.074902"
     class="grid" />
  <line
     style="font-size:medium;font-family:sans-serif;text-anchor:middle;fill:none;stroke:#000000"
     x2="95.074905"
     y1="197.30043"
     x1="95.074905"
     id="line28"
     y2="203.30043" />
  <line
     style="font-size:medium;font-family:sans-serif;text-anchor:middle;fill:none"
     id="line30"
     y2="297.30042"
     x2="95.074905"
     y1="37.300426"
     x1="95.074905"
     class="grid" />
  <line
     style="font-size:medium;font-family:sans-serif;text-anchor:middle;fill:none;stroke:#000000"
     x2="135.07491"
     y1="197.30043"
     x1="135.07491"
     id="line34"
     y2="203.30043" />
  <g
     style="font-style:normal;font-variant:normal;font-weight:normal;font-stretch:normal;font-size:12.5px;line-height:125%;font-family:KaTeX_Main;-inkscape-font-specification:'KaTeX_Main, Normal';text-align:center;writing-mode:lr-tb;text-anchor:middle;fill:#000000"
     id="text36">
    <path
       d="m 137.14989,216.93034 q -0.2125,-0.0375 -1.9875,-0.0375 -1.75,0 -1.9625,0.0375 l -0.15,0 0,-0.575 0.325,0 q 0.725,0 0.9375,-0.0375 0.1,-0.0125 0.3,-0.15 l 0,-6.4625 q -0.025,0 -0.1,0.0375 -0.575,0.225 -1.2875,0.2375 l -0.2375,0 0,-0.575 0.2375,0 q 1.05,-0.0375 1.75,-0.475 0.225,-0.125 0.3875,-0.2875 0.025,-0.0375 0.15,-0.0375 0.125,0 0.2125,0.075 l 0,3.7375 0.0125,3.75 q 0.1875,0.1875 0.8125,0.1875 l 0.4125,0 0.325,0 0,0.575 -0.1375,0 z"
       style="font-style:normal;font-variant:normal;font-weight:normal;font-stretch:normal;font-size:12.5px;line-height:125%;font-family:KaTeX_Main;-inkscape-font-specification:'KaTeX_Main, Normal';text-align:center;writing-mode:lr-tb;text-anchor:middle;fill:#000000"
       id="path4737" />
  </g>
  <line
     style="font-size:medium;font-family:sans-serif;text-anchor:middle;fill:none"
     id="line38"
     y2="297.30042"
     x2="135.07491"
     y1="37.300426"
     x1="135.07491"
     class="grid" />
  <line
     style="font-size:medium;font-family:sans-serif;text-anchor:middle;fill:none;stroke:#000000"
     x2="175.07491"
     y1="197.30043"
     x1="175.07491"
     id="line42"
     y2="203.30043" />
  <g
     style="font-style:normal;font-variant:normal;font-weight:normal;font-stretch:normal;font-size:12.5px;line-height:125%;font-family:KaTeX_Main;-inkscape-font-specification:'KaTeX_Main, Normal';text-align:center;writing-mode:lr-tb;text-anchor:middle;fill:#000000"
     id="text44">
    <path
       d="m 173.32489,211.56784 q -0.35,0 -0.55,-0.225 -0.2,-0.225 -0.2,-0.55 0,-0.9 0.675,-1.5375 0.6875,-0.65 1.6375,-0.65 1.075,0 1.775,0.5875 0.7125,0.575 0.875,1.5125 0.025,0.225 0.025,0.4125 0,0.725 -0.4375,1.3625 -0.35,0.525 -1.4125,1.4375 -0.45,0.3875 -1.25,1.15 l -0.7375,0.7 0.95,0.0125 q 1.9625,0 2.0875,-0.0625 0.05,-0.0125 0.125,-0.2625 0.05,-0.1375 0.175,-0.85 l 0,-0.0375 0.5,0 0,0.0375 -0.35,2.2875 0,0.0375 -4.6375,0 0,-0.2375 q 0,-0.25 0.025,-0.2875 0.0125,-0.0125 1.05,-1.1875 1.3625,-1.5125 1.75,-2 0.8375,-1.1375 0.8375,-2.0875 0,-0.825 -0.4375,-1.375 -0.425,-0.5625 -1.2,-0.5625 -0.725,0 -1.175,0.65 -0.025,0.05 -0.075,0.1375 -0.0375,0.0625 -0.0375,0.075 0,0.0125 0.0625,0.0125 0.3125,0 0.5,0.225 0.2,0.225 0.2,0.525 0,0.3125 -0.2125,0.5375 -0.2,0.2125 -0.5375,0.2125 z"
       style="font-style:normal;font-variant:normal;font-weight:normal;font-stretch:normal;font-size:12.5px;line-height:125%;font-family:KaTeX_Main;-inkscape-font-specification:'KaTeX_Main, Normal';text-align:center;writing-mode:lr-tb;text-anchor:middle;fill:#000000"
       id="path4734" />
  </g>
  <line
     style="font-size:medium;font-family:sans-serif;text-anchor:middle;fill:none"
     id="line46"
     y2="297.30042"
     x2="175.07491"
     y1="37.300426"
     x1="175.07491"
     class="grid" />
  <line
     style="font-size:medium;font-family:sans-serif;text-anchor:middle;fill:none;stroke:#000000"
     x2="215.07491"
     y1="197.30043"
     x1="215.07491"
     id="line50"
     y2="203.30043" />
  <g
     style="font-style:normal;font-variant:normal;font-weight:normal;font-stretch:normal;font-size:12.5px;line-height:125%;font-family:KaTeX_Main;-inkscape-font-specification:'KaTeX_Main, Normal';text-align:center;writing-mode:lr-tb;text-anchor:middle;fill:#000000"
     id="text52">
    <path
       d="m 213.53739,211.14284 q -0.3375,0 -0.5375,-0.2125 -0.1875,-0.2125 -0.1875,-0.55 0,-0.7125 0.5625,-1.1875 0.5625,-0.4875 1.3,-0.575 l 0.1875,0 q 0.4375,0 0.55,0.0125 0.4125,0.0625 0.8375,0.2625 0.825,0.4125 1.0375,1.175 0.0375,0.125 0.0375,0.3375 0,0.7375 -0.4625,1.325 -0.45,0.575 -1.1375,0.825 -0.0625,0.025 0,0.0375 0.025,0.0125 0.125,0.0375 0.7625,0.2125 1.2875,0.8 0.525,0.575 0.525,1.3125 0,0.5125 -0.2375,0.9875 -0.3,0.6375 -0.9875,1.0625 -0.675,0.4125 -1.5125,0.4125 -0.825,0 -1.4625,-0.35 -0.6375,-0.35 -0.8625,-0.9375 -0.125,-0.2625 -0.125,-0.6125 0,-0.35 0.225,-0.5625 0.2375,-0.225 0.5625,-0.225 0.35,0 0.575,0.225 0.225,0.225 0.225,0.5625 0,0.2875 -0.1625,0.5 -0.1625,0.2125 -0.4375,0.275 l -0.0875,0.025 q 0.675,0.5625 1.55,0.5625 0.6875,0 1.0375,-0.6625 0.2125,-0.4125 0.2125,-1.2625 l 0,-0.25 q 0,-1.1875 -0.8,-1.5875 -0.1875,-0.075 -0.7625,-0.0875 l -0.525,-0.0125 -0.0375,-0.025 q -0.025,-0.0375 -0.025,-0.2 0,-0.15 0.0375,-0.1875 0.0375,-0.0375 0.0625,-0.0375 0.35,0 0.725,-0.0625 0.55,-0.075 0.8375,-0.6125 0.2875,-0.55 0.2875,-1.3125 0,-0.8125 -0.4375,-1.0875 -0.2625,-0.175 -0.5875,-0.175 -0.625,0 -1.1,0.3375 -0.05,0.025 -0.1125,0.0875 -0.0625,0.05 -0.1,0.1 l -0.0375,0.05 q 0.0375,0.0125 0.0875,0.025 0.25,0.025 0.4125,0.2375 0.175,0.2125 0.175,0.4875 0,0.3 -0.2125,0.5125 -0.2,0.2 -0.525,0.2 z"
       style="font-style:normal;font-variant:normal;font-weight:normal;font-stretch:normal;font-size:12.5px;line-height:125%;font-family:KaTeX_Main;-inkscape-font-specification:'KaTeX_Main, Normal';text-align:center;writing-mode:lr-tb;text-anchor:middle;fill:#000000"
       id="path4731" />
  </g>
  <line
     style="font-size:medium;font-family:sans-serif;text-anchor:middle;fill:none"
     id="line54"
     y2="297.30042"
     x2="215.07491"
     y1="37.300426"
     x1="215.07491"
     class="grid" />
  <line
     style="font-size:medium;font-family:sans-serif;text-anchor:middle;fill:none;stroke:#000000"
     x2="255.07491"
     y1="197.30043"
     x1="255.07491"
     id="line58"
     y2="203.30043" />
  <g
     style="font-style:normal;font-variant:normal;font-weight:normal;font-stretch:normal;font-size:12.5px;line-height:125%;font-family:KaTeX_Main;-inkscape-font-specification:'KaTeX_Main, Normal';text-align:center;writing-mode:lr-tb;text-anchor:middle;fill:#000000"
     id="text60">
    <path
       d="m 257.72491,216.93034 q -0.175,-0.0375 -1.6125,-0.0375 -1.5,0 -1.675,0.0375 l -0.1125,0 0,-0.575 0.3875,0 q 0.5375,-0.0125 0.6625,-0.0625 0.1,-0.025 0.15,-0.125 0.0125,-0.025 0.0125,-0.675 l 0,-0.625 -3.2375,0 0,-0.575 1.8875,-2.8875 q 1.9125,-2.9 1.9375,-2.9125 0.025,-0.025 0.2625,-0.025 l 0.225,0 0.075,0.075 0,5.75 1.15,0 0,0.575 -1.15,0 0,0.6375 q 0,0.5125 0,0.6 0.0125,0.0875 0.075,0.15 0.1,0.0875 0.7125,0.1 l 0.3625,0 0,0.575 -0.1125,0 z m -2.1125,-2.6375 0,-4.175 -2.7375,4.1625 1.3625,0.0125 1.375,0 z"
       style="font-style:normal;font-variant:normal;font-weight:normal;font-stretch:normal;font-size:12.5px;line-height:125%;font-family:KaTeX_Main;-inkscape-font-specification:'KaTeX_Main, Normal';text-align:center;writing-mode:lr-tb;text-anchor:middle;fill:#000000"
       id="path4728" />
  </g>
  <line
     style="font-size:medium;font-family:sans-serif;text-anchor:middle;fill:none"
     id="line62"
     y2="297.30042"
     x2="255.07491"
     y1="37.300426"
     x1="255.07491"
     class="grid" />
  <line
     style="font-size:medium;font-family:sans-serif;text-anchor:middle;fill:none;stroke:#000000"
     x2="295.07489"
     y1="197.30043"
     x1="295.07489"
     id="line66"
     y2="203.30043" />
  <g
     style="font-style:normal;font-variant:normal;font-weight:normal;font-stretch:normal;font-size:12.5px;line-height:125%;font-family:KaTeX_Main;-inkscape-font-specification:'KaTeX_Main, Normal';text-align:center;writing-mode:lr-tb;text-anchor:middle;fill:#000000"
     id="text68">
    <path
       d="m 293.28739,214.25534 q 0.3,0 0.5,0.2125 0.2125,0.2 0.2125,0.5125 0,0.2875 -0.2125,0.4875 -0.2125,0.2 -0.475,0.2 l -0.0875,0 0.0375,0.0625 q 0.1875,0.4 0.575,0.6625 0.3875,0.2625 0.9125,0.2625 0.8875,0 1.275,-0.75 0.2375,-0.4625 0.2375,-1.6 0,-1.2875 -0.3375,-1.7375 -0.325,-0.4125 -0.8,-0.4125 -0.975,0 -1.475,0.85 -0.05,0.0875 -0.1,0.1125 -0.0375,0.0125 -0.175,0.0125 -0.2125,0 -0.2375,-0.075 -0.025,-0.05 -0.025,-2.1875 0,-0.375 -0.0125,-0.8875 0,-0.5125 0,-0.65 0,-0.7 0.075,-0.7 0.025,-0.025 0.05,-0.025 l 0.225,0.075 q 0.8125,0.325 1.6625,0.325 0.8875,0 1.7,-0.35 0.1,-0.05 0.1625,-0.05 0.1,0 0.1,0.225 l 0,0.1625 q -1.0125,1.2125 -2.5625,1.2125 -0.3875,0 -0.7,-0.075 l -0.125,-0.025 0,2.15 q 0.7125,-0.575 1.4625,-0.575 0.2375,0 0.5125,0.0625 0.8375,0.2125 1.3625,0.95 0.5375,0.7375 0.5375,1.725 0,1.1375 -0.8,1.9625 -0.7875,0.825 -1.95,0.825 -0.7875,0 -1.3375,-0.4375 -0.2375,-0.15 -0.4125,-0.4125 -0.375,-0.45 -0.475,-1.1125 0,-0.0375 -0.0125,-0.1125 0,-0.0875 0,-0.125 0,-0.35 0.2,-0.55 0.2,-0.2 0.5125,-0.2 z"
       style="font-style:normal;font-variant:normal;font-weight:normal;font-stretch:normal;font-size:12.5px;line-height:125%;font-family:KaTeX_Main;-inkscape-font-specification:'KaTeX_Main, Normal';text-align:center;writing-mode:lr-tb;text-anchor:middle;fill:#000000"
       id="path4725" />
  </g>
  <line
     style="font-size:medium;font-family:sans-serif;text-anchor:middle;fill:none"
     id="line70"
     y2="297.30042"
     x2="295.07489"
     y1="37.300426"
     x1="295.07489"
     class="grid" />
  <g
     style="font-style:normal;font-variant:normal;font-weight:normal;font-stretch:normal;font-size:22.5px;line-height:125%;font-family:KaTeX_Main;-inkscape-font-specification:'KaTeX_Main, Normal';text-align:center;writing-mode:lr-tb;text-anchor:middle;fill:#000000"
     id="text72">
    <path
       d="m 307.42957,195.28347 q -0.1575,-0.1575 -0.1575,-0.225 0,-0.09 0.0675,-0.36 0.09,-0.2925 0.1125,-0.315 0.045,-0.1125 0.2025,-0.1125 0.18,-0.0225 1.1475,-0.0225 l 1.1925,0 0.4275,-1.8 q 0.4725,-1.8225 0.54,-1.9575 0.27,-0.63 1.035,-0.63 0.2925,0.0225 0.495,0.2025 0.225,0.18 0.225,0.4725 0,0.27 -0.4275,1.9125 -0.09,0.3825 -0.225,0.855 -0.1125,0.45 -0.18,0.675 l -0.045,0.225 q 0,0.045 1.125,0.045 l 1.1475,0 q 0.1575,0.1575 0.1575,0.2475 0,0.495 -0.2925,0.7875 l -2.4075,0 -0.81,3.2625 q -0.8325,3.3525 -0.855,3.5325 -0.0225,0.1125 -0.0225,0.3375 0,0.945 0.6075,0.945 0.1575,0 0.27,-0.0225 1.125,-0.2025 2.0475,-1.8 0.225,-0.36 0.405,-0.8325 0.045,-0.135 0.1125,-0.1575 0.0675,-0.045 0.3375,-0.045 0.45,0 0.45,0.18 0,0.045 -0.09,0.27 -0.2475,0.72 -0.81,1.4625 -0.54,0.72 -1.1025,1.1475 -0.8325,0.63 -1.7775,0.63 -0.81,0 -1.395,-0.405 -0.5625,-0.4275 -0.765,-1.1025 -0.045,-0.18 -0.045,-0.6075 l 0,-0.405 0.7875,-3.15 q 0.7875,-3.1725 0.81,-3.195 0,-0.045 -1.1475,-0.045 l -1.1475,0 z"
       style="font-style:normal;font-variant:normal;font-weight:normal;font-stretch:normal;font-size:22.5px;line-height:125%;font-family:KaTeX_Math;-inkscape-font-specification:'KaTeX_Math, Normal';text-align:center;writing-mode:lr-tb;text-anchor:middle"
       id="path4712" />
    <path
       d="m 328.09196,209.36847 q 0,0.2025 -0.405,0.2025 l -0.2925,0 q -0.1575,-0.135 -0.63,-0.54 -4.05,-3.69 -4.05,-10.71 0,-2.745 0.6525,-5.0175 1.035,-3.5325 3.3975,-5.6925 0.1575,-0.135 0.36,-0.2925 0.2025,-0.18 0.27,-0.2475 l 0.2925,0 q 0.27,0 0.3375,0.0675 0.0675,0.0675 0.0675,0.135 0,0.09 -0.2475,0.3375 -3.4875,3.69 -3.4875,10.71 0,7.02 3.4875,10.71 0.2475,0.2475 0.2475,0.3375 z"
       style="font-style:normal;font-variant:normal;font-weight:normal;font-stretch:normal;font-size:22.5px;line-height:125%;font-family:KaTeX_Main;-inkscape-font-specification:'KaTeX_Main, Normal';text-align:center;writing-mode:lr-tb;text-anchor:middle;fill:#000000"
       id="path4714" />
    <path
       d="m 333.61957,194.63097 q -2.07,0 -2.07,1.4625 0,0.2925 0.045,0.3825 0.2025,0.54 0.6975,0.7875 0.495,0.225 1.53,0.4275 1.2825,0.225 1.755,0.495 1.4175,0.675 1.8225,2.2275 0.0225,0.135 0.0225,0.54 0,0.8775 -0.315,1.5525 -0.8775,1.665 -3.3075,1.665 -1.35,0 -2.34,-0.81 l -0.18,0.1575 -0.2025,0.2025 q -0.135,0.135 -0.27,0.2475 l -0.2475,0.225 -0.18,0 q -0.1575,0 -0.2925,-0.135 l 0,-1.7775 q 0,-1.4625 0,-1.6875 0.0225,-0.225 0.1125,-0.27 0.045,-0.0225 0.36,-0.0225 0.2925,0 0.3375,0.045 0.0675,0.045 0.135,0.315 0.18,0.855 0.585,1.5525 0.7875,1.1475 2.1825,1.1475 2.1825,0 2.1825,-1.755 0,-0.6525 -0.405,-1.0575 -0.36,-0.4275 -0.945,-0.6075 -0.3825,-0.09 -1.08,-0.2475 -1.26,-0.2475 -1.71,-0.4725 -1.485,-0.6975 -1.7325,-2.0925 -0.0225,-0.09 -0.0225,-0.3375 0,-2.5875 3.1725,-2.9025 0.09,-0.045 0.54,0 0.9,0 1.575,0.3375 l 0.3375,0.18 0.2025,-0.1575 q 0.2925,-0.2475 0.495,-0.3825 l 0.18,0 q 0.1575,0 0.2925,0.135 l 0,2.97 -0.135,0.135 -0.63,0 q -0.135,-0.135 -0.135,-0.27 0,-1.035 -0.63,-1.62 -0.63,-0.585 -1.7325,-0.585 z"
       style="font-style:normal;font-variant:normal;font-weight:normal;font-stretch:normal;font-size:22.5px;line-height:125%;font-family:KaTeX_Main;-inkscape-font-specification:'KaTeX_Main, Normal';text-align:center;writing-mode:lr-tb;text-anchor:middle;fill:#000000"
       id="path4716" />
    <path
       d="m 347.51508,198.43347 q 0,0.1575 -0.1575,0.315 l -6.345,0 0,0.3375 q 0,1.665 0.45,2.52 0.81,1.665 2.79,1.665 0.9675,0 1.62,-0.72 0.45,-0.45 0.6975,-1.17 0.0675,-0.2475 0.135,-0.315 0.0675,-0.0675 0.36,-0.0675 0.45,0 0.45,0.225 0,0.09 -0.0675,0.2925 -0.4275,1.17 -1.3725,1.935 -0.9225,0.7425 -2.2725,0.7425 -0.4275,0 -0.99,-0.1125 -1.2825,-0.2475 -2.295,-1.17 -1.0125,-0.9225 -1.44,-2.2275 -0.27,-0.81 -0.27,-1.6425 0,-2.07 1.215,-3.4875 1.215,-1.44 2.9925,-1.665 0.09,-0.0225 0.315,-0.0225 2.0475,0 3.105,1.215 1.08,1.1925 1.08,3.3525 z m -1.845,-0.675 q -0.2025,-2.4525 -1.665,-2.97 -0.1575,-0.0675 -0.4725,-0.09 -1.17,0 -1.9125,1.08 -0.45,0.72 -0.585,2.0025 l 0,0.1575 4.635,0 0,-0.18 z"
       style="font-style:normal;font-variant:normal;font-weight:normal;font-stretch:normal;font-size:22.5px;line-height:125%;font-family:KaTeX_Main;-inkscape-font-specification:'KaTeX_Main, Normal';text-align:center;writing-mode:lr-tb;text-anchor:middle;fill:#000000"
       id="path4718" />
    <path
       d="m 356.88317,196.76847 q -0.3375,0.315 -0.855,0.315 -0.5175,0 -0.855,-0.3375 -0.3375,-0.36 -0.3375,-0.855 0,-0.5175 0.3375,-0.855 0.1125,-0.1125 0.09,-0.135 0,-0.0225 -0.2025,-0.045 -0.585,-0.09 -1.1025,-0.09 -1.1475,0 -1.8,0.72 -1.0575,1.0575 -1.0575,3.5325 0,1.845 0.6975,2.9025 0.9225,1.3725 2.475,1.3725 0.5625,0 0.99,-0.225 0.945,-0.4725 1.305,-1.755 0.045,-0.18 0.1125,-0.225 0.0675,-0.045 0.36,-0.045 l 0.315,0 q 0.135,0.135 0.135,0.2025 0,0.4275 -0.5625,1.3275 -1.125,1.62 -3.1725,1.62 -1.125,0 -2.1375,-0.5175 -2.2275,-1.1475 -2.6775,-3.825 -0.0225,-0.135 -0.0225,-0.72 0,-0.585 0.0225,-0.7425 0.27,-2.115 1.845,-3.4425 1.35,-1.08 2.9925,-1.08 2.9025,0 3.3975,1.53 0.0675,0.2025 0.0675,0.5175 0,0.5175 -0.36,0.855 z"
       style="font-style:normal;font-variant:normal;font-weight:normal;font-stretch:normal;font-size:22.5px;line-height:125%;font-family:KaTeX_Main;-inkscape-font-specification:'KaTeX_Main, Normal';text-align:center;writing-mode:lr-tb;text-anchor:middle;fill:#000000"
       id="path4720" />
    <path
       d="m 359.47875,187.09347 0.09,-0.0225 q 0.1125,0 0.225,0 l 0.27,0 q 0.1575,0.135 0.63,0.54 4.05,3.69 4.05,10.71 0,2.7675 -0.6525,4.995 -1.035,3.555 -3.3975,5.715 -0.1575,0.135 -0.36,0.2925 -0.2025,0.18 -0.27,0.2475 l -0.27,0 q -0.27,0 -0.36,-0.045 -0.0675,-0.045 -0.0675,-0.225 0.0225,-0.0225 0.2475,-0.2925 3.4875,-3.6225 3.4875,-10.6875 0,-7.065 -3.4875,-10.6875 -0.225,-0.27 -0.2475,-0.2925 0,-0.18 0.1125,-0.2475 z"
       style="font-style:normal;font-variant:normal;font-weight:normal;font-stretch:normal;font-size:22.5px;line-height:125%;font-family:KaTeX_Main;-inkscape-font-specification:'KaTeX_Main, Normal';text-align:center;writing-mode:lr-tb;text-anchor:middle;fill:#000000"
       id="path4722" />
  </g>
  <path
     class="domain"
     d="m 94.574902,297.80043 0.5,0 0,-260.000004 -0.5,0"
     id="path76"
     inkscape:connector-curvature="0"
     style="font-size:medium;font-family:sans-serif;text-anchor:end;fill:none;stroke:#000000" />
  <line
     style="font-size:medium;font-family:sans-serif;text-anchor:end;fill:none;stroke:#000000"
     y2="297.80042"
     y1="297.80042"
     x1="94.574905"
     id="line80"
     x2="88.574905" />
  <g
     style="font-style:normal;font-variant:normal;font-weight:normal;font-stretch:normal;font-size:12.5px;line-height:125%;font-family:KaTeX_Main;-inkscape-font-specification:'KaTeX_Main, Normal';text-align:center;writing-mode:lr-tb;text-anchor:middle;fill:#000000"
     id="text82">
    <path
       d="m 53.903285,299.10622 0,-0.9125 3.325,0 0,0.9125 -3.325,0 z"
       style="font-style:normal;font-variant:normal;font-weight:normal;font-stretch:normal;font-size:12.5px;line-height:125%;font-family:KaTeX_Main;-inkscape-font-specification:'KaTeX_Main, Normal';text-align:center;writing-mode:lr-tb;text-anchor:middle;fill:#000000"
       id="path4699" />
    <path
       d="m 63.14059,301.34372 q -0.2125,-0.0375 -1.9875,-0.0375 -1.75,0 -1.9625,0.0375 l -0.15,0 0,-0.575 0.325,0 q 0.725,0 0.9375,-0.0375 0.1,-0.0125 0.3,-0.15 l 0,-6.4625 q -0.025,0 -0.1,0.0375 -0.575,0.225 -1.2875,0.2375 l -0.2375,0 0,-0.575 0.2375,0 q 1.05,-0.0375 1.75,-0.475 0.225,-0.125 0.3875,-0.2875 0.025,-0.0375 0.15,-0.0375 0.125,0 0.2125,0.075 l 0,3.7375 0.0125,3.75 q 0.1875,0.1875 0.8125,0.1875 l 0.4125,0 0.325,0 0,0.575 -0.1375,0 z"
       style="font-style:normal;font-variant:normal;font-weight:normal;font-stretch:normal;font-size:12.5px;line-height:125%;font-family:KaTeX_Main;-inkscape-font-specification:'KaTeX_Main, Normal';text-align:center;writing-mode:lr-tb;text-anchor:middle;fill:#000000"
       id="path4701" />
    <path
       d="m 65.39059,301.13122 q -0.225,-0.225 -0.225,-0.5375 0,-0.3125 0.2,-0.5375 0.2125,-0.225 0.5375,-0.225 0.475,0 0.6875,0.4 0.225,0.4 0.225,1.0125 0,0.2375 -0.025,0.4375 -0.175,1.1125 -0.9125,1.9125 -0.175,0.175 -0.225,0.175 -0.05,0 -0.1625,-0.1125 -0.1125,-0.1125 -0.1125,-0.1625 0,-0.0625 0.125,-0.1875 0.775,-0.7875 0.85,-1.925 l 0,-0.15 q -0.0125,0 -0.075,0.0375 -0.1625,0.075 -0.3375,0.075 -0.325,0 -0.55,-0.2125 z"
       style="font-style:normal;font-variant:normal;font-weight:normal;font-stretch:normal;font-size:12.5px;line-height:125%;font-family:KaTeX_Main;-inkscape-font-specification:'KaTeX_Main, Normal';text-align:center;writing-mode:lr-tb;text-anchor:middle;fill:#000000"
       id="path4703" />
    <path
       d="m 68.857387,294.03122 q 0.7,-1.0125 1.9125,-1.0125 0.9125,0 1.6,0.625 0.3375,0.325 0.575,0.85 0.4625,1.0375 0.4625,2.85 0,1.9375 -0.5375,2.9625 -0.35,0.725 -1.025,1.05 -0.525,0.2625 -1.0625,0.2625 -1.4375,0 -2.1,-1.3125 -0.5375,-1.025 -0.5375,-2.9625 0,-1.1625 0.15,-1.9125 0.1625,-0.7625 0.5625,-1.4 z m 2.8125,-0.15 q -0.3625,-0.4 -0.8875,-0.4 -0.525,0 -0.9,0.4 -0.275,0.2875 -0.375,0.7 -0.1,0.4125 -0.125,1.425 0,0.075 -0.0125,0.4875 0,0.4125 0,0.6875 0,1.2 0.025,1.675 0.05,0.875 0.15,1.2625 0.1,0.375 0.375,0.65 0.3375,0.375 0.8625,0.375 0.5125,0 0.85,-0.375 0.275,-0.275 0.375,-0.65 0.1,-0.3875 0.15,-1.2625 0.025,-0.475 0.025,-1.675 0,-0.275 -0.0125,-0.6875 0,-0.4125 0,-0.4875 -0.025,-1.0125 -0.125,-1.425 -0.1,-0.4125 -0.375,-0.7 z"
       style="font-style:normal;font-variant:normal;font-weight:normal;font-stretch:normal;font-size:12.5px;line-height:125%;font-family:KaTeX_Main;-inkscape-font-specification:'KaTeX_Main, Normal';text-align:center;writing-mode:lr-tb;text-anchor:middle;fill:#000000"
       id="path4705" />
    <path
       d="m 75.107387,294.03122 q 0.7,-1.0125 1.9125,-1.0125 0.9125,0 1.6,0.625 0.3375,0.325 0.575,0.85 0.4625,1.0375 0.4625,2.85 0,1.9375 -0.5375,2.9625 -0.35,0.725 -1.025,1.05 -0.525,0.2625 -1.0625,0.2625 -1.4375,0 -2.1,-1.3125 -0.5375,-1.025 -0.5375,-2.9625 0,-1.1625 0.15,-1.9125 0.1625,-0.7625 0.5625,-1.4 z m 2.8125,-0.15 q -0.3625,-0.4 -0.8875,-0.4 -0.525,0 -0.9,0.4 -0.275,0.2875 -0.375,0.7 -0.1,0.4125 -0.125,1.425 0,0.075 -0.0125,0.4875 0,0.4125 0,0.6875 0,1.2 0.025,1.675 0.05,0.875 0.15,1.2625 0.1,0.375 0.375,0.65 0.3375,0.375 0.8625,0.375 0.5125,0 0.85,-0.375 0.275,-0.275 0.375,-0.65 0.1,-0.3875 0.15,-1.2625 0.025,-0.475 0.025,-1.675 0,-0.275 -0.0125,-0.6875 0,-0.4125 0,-0.4875 -0.025,-1.0125 -0.125,-1.425 -0.1,-0.4125 -0.375,-0.7 z"
       style="font-style:normal;font-variant:normal;font-weight:normal;font-stretch:normal;font-size:12.5px;line-height:125%;font-family:KaTeX_Main;-inkscape-font-specification:'KaTeX_Main, Normal';text-align:center;writing-mode:lr-tb;text-anchor:middle;fill:#000000"
       id="path4707" />
    <path
       d="m 81.357387,294.03122 q 0.7,-1.0125 1.9125,-1.0125 0.9125,0 1.6,0.625 0.3375,0.325 0.575,0.85 0.4625,1.0375 0.4625,2.85 0,1.9375 -0.5375,2.9625 -0.35,0.725 -1.025,1.05 -0.525,0.2625 -1.0625,0.2625 -1.4375,0 -2.1,-1.3125 -0.5375,-1.025 -0.5375,-2.9625 0,-1.1625 0.15,-1.9125 0.1625,-0.7625 0.5625,-1.4 z m 2.8125,-0.15 q -0.3625,-0.4 -0.8875,-0.4 -0.525,0 -0.9,0.4 -0.275,0.2875 -0.375,0.7 -0.1,0.4125 -0.125,1.425 0,0.075 -0.0125,0.4875 0,0.4125 0,0.6875 0,1.2 0.025,1.675 0.05,0.875 0.15,1.2625 0.1,0.375 0.375,0.65 0.3375,0.375 0.8625,0.375 0.5125,0 0.85,-0.375 0.275,-0.275 0.375,-0.65 0.1,-0.3875 0.15,-1.2625 0.025,-0.475 0.025,-1.675 0,-0.275 -0.0125,-0.6875 0,-0.4125 0,-0.4875 -0.025,-1.0125 -0.125,-1.425 -0.1,-0.4125 -0.375,-0.7 z"
       style="font-style:normal;font-variant:normal;font-weight:normal;font-stretch:normal;font-size:12.5px;line-height:125%;font-family:KaTeX_Main;-inkscape-font-specification:'KaTeX_Main, Normal';text-align:center;writing-mode:lr-tb;text-anchor:middle;fill:#000000"
       id="path4709" />
  </g>
  <line
     style="font-size:medium;font-family:sans-serif;text-anchor:end;fill:none"
     id="line84"
     y2="297.80042"
     x2="294.57489"
     y1="297.80042"
     x1="14.574903"
     class="grid" />
  <line
     style="font-size:medium;font-family:sans-serif;text-anchor:end;fill:none;stroke:#000000"
     y2="277.80042"
     y1="277.80042"
     x1="94.574905"
     id="line88"
     x2="88.574905" />
  <g
     style="font-style:normal;font-variant:normal;font-weight:normal;font-stretch:normal;font-size:12.5px;line-height:125%;font-family:KaTeX_Main;-inkscape-font-specification:'KaTeX_Main, Normal';text-align:center;writing-mode:lr-tb;text-anchor:middle;fill:#000000"
     id="text90">
    <path
       d="m 63.620082,279.10622 0,-0.9125 3.325,0 0,0.9125 -3.325,0 z"
       style="font-style:normal;font-variant:normal;font-weight:normal;font-stretch:normal;font-size:12.5px;line-height:125%;font-family:KaTeX_Main;-inkscape-font-specification:'KaTeX_Main, Normal';text-align:center;writing-mode:lr-tb;text-anchor:middle;fill:#000000"
       id="path4690" />
    <path
       d="m 69.807387,277.15622 q -0.6125,-0.4 -0.95,-0.8375 -0.325,-0.4375 -0.325,-1.15 0,-0.5375 0.2,-0.9 0.275,-0.5625 0.8,-0.9 0.5375,-0.35 1.225,-0.35 0.85,0 1.475,0.45 0.625,0.4375 0.775,1.1375 0.0125,0.075 0.0125,0.3 0,0.275 -0.025,0.375 -0.1875,0.825 -1.1375,1.425 l -0.15,0.1 q 0.7,0.475 0.725,0.5 0.9375,0.75 0.9375,1.8625 0,1.0125 -0.75,1.7375 -0.7375,0.7125 -1.85,0.7125 -1.5375,0 -2.2625,-1.125 -0.3125,-0.45 -0.3125,-1.0875 0,-1.3625 1.6125,-2.25 z m 2.4875,-2.225 q 0,-0.5375 -0.35,-0.9125 -0.35,-0.375 -0.85,-0.475 -0.0875,-0.0125 -0.4125,-0.0125 -0.6625,0 -1.1125,0.45 -0.3125,0.2875 -0.3125,0.6875 0,0.5375 0.45,0.85 0.0625,0.0625 0.8,0.525 l 0.725,0.475 q 0.0125,-0.0125 0.1625,-0.1 0.15,-0.1 0.225,-0.175 0.675,-0.5375 0.675,-1.3125 z m -3.3,4.45 q 0,0.7375 0.5375,1.225 0.5375,0.475 1.25,0.475 0.5125,0 0.925,-0.2125 0.425,-0.2125 0.6375,-0.55 0.2125,-0.325 0.2125,-0.6875 0,-0.5375 -0.4375,-0.95 -0.1,-0.1 -1.0375,-0.7125 -0.175,-0.1125 -0.3875,-0.2375 -0.2,-0.1375 -0.3125,-0.2125 l -0.1,-0.0625 -0.15,0.075 q -0.7875,0.5125 -1.0375,1.25 -0.1,0.325 -0.1,0.6 z"
       style="font-style:normal;font-variant:normal;font-weight:normal;font-stretch:normal;font-size:12.5px;line-height:125%;font-family:KaTeX_Main;-inkscape-font-specification:'KaTeX_Main, Normal';text-align:center;writing-mode:lr-tb;text-anchor:middle;fill:#000000"
       id="path4692" />
    <path
       d="m 75.107387,274.03122 q 0.7,-1.0125 1.9125,-1.0125 0.9125,0 1.6,0.625 0.3375,0.325 0.575,0.85 0.4625,1.0375 0.4625,2.85 0,1.9375 -0.5375,2.9625 -0.35,0.725 -1.025,1.05 -0.525,0.2625 -1.0625,0.2625 -1.4375,0 -2.1,-1.3125 -0.5375,-1.025 -0.5375,-2.9625 0,-1.1625 0.15,-1.9125 0.1625,-0.7625 0.5625,-1.4 z m 2.8125,-0.15 q -0.3625,-0.4 -0.8875,-0.4 -0.525,0 -0.9,0.4 -0.275,0.2875 -0.375,0.7 -0.1,0.4125 -0.125,1.425 0,0.075 -0.0125,0.4875 0,0.4125 0,0.6875 0,1.2 0.025,1.675 0.05,0.875 0.15,1.2625 0.1,0.375 0.375,0.65 0.3375,0.375 0.8625,0.375 0.5125,0 0.85,-0.375 0.275,-0.275 0.375,-0.65 0.1,-0.3875 0.15,-1.2625 0.025,-0.475 0.025,-1.675 0,-0.275 -0.0125,-0.6875 0,-0.4125 0,-0.4875 -0.025,-1.0125 -0.125,-1.425 -0.1,-0.4125 -0.375,-0.7 z"
       style="font-style:normal;font-variant:normal;font-weight:normal;font-stretch:normal;font-size:12.5px;line-height:125%;font-family:KaTeX_Main;-inkscape-font-specification:'KaTeX_Main, Normal';text-align:center;writing-mode:lr-tb;text-anchor:middle;fill:#000000"
       id="path4694" />
    <path
       d="m 81.357387,274.03122 q 0.7,-1.0125 1.9125,-1.0125 0.9125,0 1.6,0.625 0.3375,0.325 0.575,0.85 0.4625,1.0375 0.4625,2.85 0,1.9375 -0.5375,2.9625 -0.35,0.725 -1.025,1.05 -0.525,0.2625 -1.0625,0.2625 -1.4375,0 -2.1,-1.3125 -0.5375,-1.025 -0.5375,-2.9625 0,-1.1625 0.15,-1.9125 0.1625,-0.7625 0.5625,-1.4 z m 2.8125,-0.15 q -0.3625,-0.4 -0.8875,-0.4 -0.525,0 -0.9,0.4 -0.275,0.2875 -0.375,0.7 -0.1,0.4125 -0.125,1.425 0,0.075 -0.0125,0.4875 0,0.4125 0,0.6875 0,1.2 0.025,1.675 0.05,0.875 0.15,1.2625 0.1,0.375 0.375,0.65 0.3375,0.375 0.8625,0.375 0.5125,0 0.85,-0.375 0.275,-0.275 0.375,-0.65 0.1,-0.3875 0.15,-1.2625 0.025,-0.475 0.025,-1.675 0,-0.275 -0.0125,-0.6875 0,-0.4125 0,-0.4875 -0.025,-1.0125 -0.125,-1.425 -0.1,-0.4125 -0.375,-0.7 z"
       style="font-style:normal;font-variant:normal;font-weight:normal;font-stretch:normal;font-size:12.5px;line-height:125%;font-family:KaTeX_Main;-inkscape-font-specification:'KaTeX_Main, Normal';text-align:center;writing-mode:lr-tb;text-anchor:middle;fill:#000000"
       id="path4696" />
  </g>
  <line
     style="font-size:medium;font-family:sans-serif;text-anchor:end;fill:none"
     id="line92"
     y2="277.80042"
     x2="294.57489"
     y1="277.80042"
     x1="14.574903"
     class="grid" />
  <line
     style="font-size:medium;font-family:sans-serif;text-anchor:end;fill:none;stroke:#000000"
     y2="257.80042"
     y1="257.80042"
     x1="94.574905"
     id="line96"
     x2="88.574905" />
  <g
     style="font-style:normal;font-variant:normal;font-weight:normal;font-stretch:normal;font-size:12.5px;line-height:125%;font-family:KaTeX_Main;-inkscape-font-specification:'KaTeX_Main, Normal';text-align:center;writing-mode:lr-tb;text-anchor:middle;fill:#000000"
     id="text98">
    <path
       d="m 63.620082,259.10622 0,-0.9125 3.325,0 0,0.9125 -3.325,0 z"
       style="font-style:normal;font-variant:normal;font-weight:normal;font-stretch:normal;font-size:12.5px;line-height:125%;font-family:KaTeX_Main;-inkscape-font-specification:'KaTeX_Main, Normal';text-align:center;writing-mode:lr-tb;text-anchor:middle;fill:#000000"
       id="path4681" />
    <path
       d="m 72.319887,253.83122 q -0.275,-0.275 -0.775,-0.3125 -0.875,0 -1.4625,0.75 -0.5875,0.8125 -0.5875,2.525 l 0.0125,0.05 0.1,-0.1625 q 0.5125,-0.75 1.3875,-0.75 0.575,0 1.0125,0.2375 0.3,0.175 0.6,0.5125 0.3,0.325 0.4875,0.7 0.2625,0.6125 0.2625,1.3375 l 0,0.225 q 0,0.2875 -0.0625,0.5375 -0.15,0.7375 -0.775,1.3875 -0.5375,0.5625 -1.2,0.7 -0.2,0.05 -0.5,0.05 -0.2375,0 -0.425,-0.0375 -0.925,-0.175 -1.475,-1 -0.7375,-1.1625 -0.7375,-3.15 0,-1.35 0.475,-2.3625 0.475,-1.0125 1.325,-1.575 0.675,-0.475 1.4625,-0.475 0.725,0 1.1625,0.3875 0.45,0.3875 0.45,1.0625 0,0.3125 -0.1875,0.5 -0.175,0.1875 -0.475,0.1875 -0.3,0 -0.4875,-0.175 -0.175,-0.175 -0.175,-0.4875 0,-0.5625 0.5875,-0.6625 z m -0.55,3 q -0.35,-0.45 -0.9,-0.45 -0.4625,0 -0.75,0.2875 -0.6125,0.6125 -0.6125,1.975 0,1.1125 0.15,1.5375 0.125,0.375 0.425,0.6375 0.3,0.2625 0.7125,0.2625 0.6375,0 0.975,-0.475 0.1875,-0.2625 0.2375,-0.625 0.05,-0.3625 0.05,-1.05 l 0,-0.2 0,-0.2 q 0,-0.7125 -0.05,-1.075 -0.05,-0.3625 -0.2375,-0.625 z"
       style="font-style:normal;font-variant:normal;font-weight:normal;font-stretch:normal;font-size:12.5px;line-height:125%;font-family:KaTeX_Main;-inkscape-font-specification:'KaTeX_Main, Normal';text-align:center;writing-mode:lr-tb;text-anchor:middle;fill:#000000"
       id="path4683" />
    <path
       d="m 75.107387,254.03122 q 0.7,-1.0125 1.9125,-1.0125 0.9125,0 1.6,0.625 0.3375,0.325 0.575,0.85 0.4625,1.0375 0.4625,2.85 0,1.9375 -0.5375,2.9625 -0.35,0.725 -1.025,1.05 -0.525,0.2625 -1.0625,0.2625 -1.4375,0 -2.1,-1.3125 -0.5375,-1.025 -0.5375,-2.9625 0,-1.1625 0.15,-1.9125 0.1625,-0.7625 0.5625,-1.4 z m 2.8125,-0.15 q -0.3625,-0.4 -0.8875,-0.4 -0.525,0 -0.9,0.4 -0.275,0.2875 -0.375,0.7 -0.1,0.4125 -0.125,1.425 0,0.075 -0.0125,0.4875 0,0.4125 0,0.6875 0,1.2 0.025,1.675 0.05,0.875 0.15,1.2625 0.1,0.375 0.375,0.65 0.3375,0.375 0.8625,0.375 0.5125,0 0.85,-0.375 0.275,-0.275 0.375,-0.65 0.1,-0.3875 0.15,-1.2625 0.025,-0.475 0.025,-1.675 0,-0.275 -0.0125,-0.6875 0,-0.4125 0,-0.4875 -0.025,-1.0125 -0.125,-1.425 -0.1,-0.4125 -0.375,-0.7 z"
       style="font-style:normal;font-variant:normal;font-weight:normal;font-stretch:normal;font-size:12.5px;line-height:125%;font-family:KaTeX_Main;-inkscape-font-specification:'KaTeX_Main, Normal';text-align:center;writing-mode:lr-tb;text-anchor:middle;fill:#000000"
       id="path4685" />
    <path
       d="m 81.357387,254.03122 q 0.7,-1.0125 1.9125,-1.0125 0.9125,0 1.6,0.625 0.3375,0.325 0.575,0.85 0.4625,1.0375 0.4625,2.85 0,1.9375 -0.5375,2.9625 -0.35,0.725 -1.025,1.05 -0.525,0.2625 -1.0625,0.2625 -1.4375,0 -2.1,-1.3125 -0.5375,-1.025 -0.5375,-2.9625 0,-1.1625 0.15,-1.9125 0.1625,-0.7625 0.5625,-1.4 z m 2.8125,-0.15 q -0.3625,-0.4 -0.8875,-0.4 -0.525,0 -0.9,0.4 -0.275,0.2875 -0.375,0.7 -0.1,0.4125 -0.125,1.425 0,0.075 -0.0125,0.4875 0,0.4125 0,0.6875 0,1.2 0.025,1.675 0.05,0.875 0.15,1.2625 0.1,0.375 0.375,0.65 0.3375,0.375 0.8625,0.375 0.5125,0 0.85,-0.375 0.275,-0.275 0.375,-0.65 0.1,-0.3875 0.15,-1.2625 0.025,-0.475 0.025,-1.675 0,-0.275 -0.0125,-0.6875 0,-0.4125 0,-0.4875 -0.025,-1.0125 -0.125,-1.425 -0.1,-0.4125 -0.375,-0.7 z"
       style="font-style:normal;font-variant:normal;font-weight:normal;font-stretch:normal;font-size:12.5px;line-height:125%;font-family:KaTeX_Main;-inkscape-font-specification:'KaTeX_Main, Normal';text-align:center;writing-mode:lr-tb;text-anchor:middle;fill:#000000"
       id="path4687" />
  </g>
  <line
     style="font-size:medium;font-family:sans-serif;text-anchor:end;fill:none"
     id="line100"
     y2="257.80042"
     x2="294.57489"
     y1="257.80042"
     x1="14.574903"
     class="grid" />
  <line
     style="font-size:medium;font-family:sans-serif;text-anchor:end;fill:none;stroke:#000000"
     y2="237.80043"
     y1="237.80043"
     x1="94.574905"
     id="line104"
     x2="88.574905" />
  <g
     style="font-style:normal;font-variant:normal;font-weight:normal;font-stretch:normal;font-size:12.5px;line-height:125%;font-family:KaTeX_Main;-inkscape-font-specification:'KaTeX_Main, Normal';text-align:center;writing-mode:lr-tb;text-anchor:middle;fill:#000000"
     id="text106">
    <path
       d="m 63.620082,239.10623 0,-0.9125 3.325,0 0,0.9125 -3.325,0 z"
       style="font-style:normal;font-variant:normal;font-weight:normal;font-stretch:normal;font-size:12.5px;line-height:125%;font-family:KaTeX_Main;-inkscape-font-specification:'KaTeX_Main, Normal';text-align:center;writing-mode:lr-tb;text-anchor:middle;fill:#000000"
       id="path4672" />
    <path
       d="m 73.432387,241.34373 q -0.175,-0.0375 -1.6125,-0.0375 -1.5,0 -1.675,0.0375 l -0.1125,0 0,-0.575 0.3875,0 q 0.5375,-0.0125 0.6625,-0.0625 0.1,-0.025 0.15,-0.125 0.0125,-0.025 0.0125,-0.675 l 0,-0.625 -3.2375,0 0,-0.575 1.8875,-2.8875 q 1.9125,-2.9 1.9375,-2.9125 0.025,-0.025 0.2625,-0.025 l 0.225,0 0.075,0.075 0,5.75 1.15,0 0,0.575 -1.15,0 0,0.6375 q 0,0.5125 0,0.6 0.0125,0.0875 0.075,0.15 0.1,0.0875 0.7125,0.1 l 0.3625,0 0,0.575 -0.1125,0 z m -2.1125,-2.6375 0,-4.175 -2.7375,4.1625 1.3625,0.0125 1.375,0 z"
       style="font-style:normal;font-variant:normal;font-weight:normal;font-stretch:normal;font-size:12.5px;line-height:125%;font-family:KaTeX_Main;-inkscape-font-specification:'KaTeX_Main, Normal';text-align:center;writing-mode:lr-tb;text-anchor:middle;fill:#000000"
       id="path4674" />
    <path
       d="m 75.107387,234.03123 q 0.7,-1.0125 1.9125,-1.0125 0.9125,0 1.6,0.625 0.3375,0.325 0.575,0.85 0.4625,1.0375 0.4625,2.85 0,1.9375 -0.5375,2.9625 -0.35,0.725 -1.025,1.05 -0.525,0.2625 -1.0625,0.2625 -1.4375,0 -2.1,-1.3125 -0.5375,-1.025 -0.5375,-2.9625 0,-1.1625 0.15,-1.9125 0.1625,-0.7625 0.5625,-1.4 z m 2.8125,-0.15 q -0.3625,-0.4 -0.8875,-0.4 -0.525,0 -0.9,0.4 -0.275,0.2875 -0.375,0.7 -0.1,0.4125 -0.125,1.425 0,0.075 -0.0125,0.4875 0,0.4125 0,0.6875 0,1.2 0.025,1.675 0.05,0.875 0.15,1.2625 0.1,0.375 0.375,0.65 0.3375,0.375 0.8625,0.375 0.5125,0 0.85,-0.375 0.275,-0.275 0.375,-0.65 0.1,-0.3875 0.15,-1.2625 0.025,-0.475 0.025,-1.675 0,-0.275 -0.0125,-0.6875 0,-0.4125 0,-0.4875 -0.025,-1.0125 -0.125,-1.425 -0.1,-0.4125 -0.375,-0.7 z"
       style="font-style:normal;font-variant:normal;font-weight:normal;font-stretch:normal;font-size:12.5px;line-height:125%;font-family:KaTeX_Main;-inkscape-font-specification:'KaTeX_Main, Normal';text-align:center;writing-mode:lr-tb;text-anchor:middle;fill:#000000"
       id="path4676" />
    <path
       d="m 81.357387,234.03123 q 0.7,-1.0125 1.9125,-1.0125 0.9125,0 1.6,0.625 0.3375,0.325 0.575,0.85 0.4625,1.0375 0.4625,2.85 0,1.9375 -0.5375,2.9625 -0.35,0.725 -1.025,1.05 -0.525,0.2625 -1.0625,0.2625 -1.4375,0 -2.1,-1.3125 -0.5375,-1.025 -0.5375,-2.9625 0,-1.1625 0.15,-1.9125 0.1625,-0.7625 0.5625,-1.4 z m 2.8125,-0.15 q -0.3625,-0.4 -0.8875,-0.4 -0.525,0 -0.9,0.4 -0.275,0.2875 -0.375,0.7 -0.1,0.4125 -0.125,1.425 0,0.075 -0.0125,0.4875 0,0.4125 0,0.6875 0,1.2 0.025,1.675 0.05,0.875 0.15,1.2625 0.1,0.375 0.375,0.65 0.3375,0.375 0.8625,0.375 0.5125,0 0.85,-0.375 0.275,-0.275 0.375,-0.65 0.1,-0.3875 0.15,-1.2625 0.025,-0.475 0.025,-1.675 0,-0.275 -0.0125,-0.6875 0,-0.4125 0,-0.4875 -0.025,-1.0125 -0.125,-1.425 -0.1,-0.4125 -0.375,-0.7 z"
       style="font-style:normal;font-variant:normal;font-weight:normal;font-stretch:normal;font-size:12.5px;line-height:125%;font-family:KaTeX_Main;-inkscape-font-specification:'KaTeX_Main, Normal';text-align:center;writing-mode:lr-tb;text-anchor:middle;fill:#000000"
       id="path4678" />
  </g>
  <line
     style="font-size:medium;font-family:sans-serif;text-anchor:end;fill:none"
     id="line108"
     y2="237.80043"
     x2="294.57489"
     y1="237.80043"
     x1="14.574903"
     class="grid" />
  <line
     style="font-size:medium;font-family:sans-serif;text-anchor:end;fill:none;stroke:#000000"
     y2="217.80043"
     y1="217.80043"
     x1="94.574905"
     id="line112"
     x2="88.574905" />
  <g
     style="font-style:normal;font-variant:normal;font-weight:normal;font-stretch:normal;font-size:12.5px;line-height:125%;font-family:KaTeX_Main;-inkscape-font-specification:'KaTeX_Main, Normal';text-align:center;writing-mode:lr-tb;text-anchor:middle;fill:#000000"
     id="text114">
    <path
       d="m 63.620082,219.10623 0,-0.9125 3.325,0 0,0.9125 -3.325,0 z"
       style="font-style:normal;font-variant:normal;font-weight:normal;font-stretch:normal;font-size:12.5px;line-height:125%;font-family:KaTeX_Main;-inkscape-font-specification:'KaTeX_Main, Normal';text-align:center;writing-mode:lr-tb;text-anchor:middle;fill:#000000"
       id="path4663" />
    <path
       d="m 69.032387,215.98123 q -0.35,0 -0.55,-0.225 -0.2,-0.225 -0.2,-0.55 0,-0.9 0.675,-1.5375 0.6875,-0.65 1.6375,-0.65 1.075,0 1.775,0.5875 0.7125,0.575 0.875,1.5125 0.025,0.225 0.025,0.4125 0,0.725 -0.4375,1.3625 -0.35,0.525 -1.4125,1.4375 -0.45,0.3875 -1.25,1.15 l -0.7375,0.7 0.95,0.0125 q 1.9625,0 2.0875,-0.0625 0.05,-0.0125 0.125,-0.2625 0.05,-0.1375 0.175,-0.85 l 0,-0.0375 0.5,0 0,0.0375 -0.35,2.2875 0,0.0375 -4.6375,0 0,-0.2375 q 0,-0.25 0.025,-0.2875 0.0125,-0.0125 1.05,-1.1875 1.3625,-1.5125 1.75,-2 0.8375,-1.1375 0.8375,-2.0875 0,-0.825 -0.4375,-1.375 -0.425,-0.5625 -1.2,-0.5625 -0.725,0 -1.175,0.65 -0.025,0.05 -0.075,0.1375 -0.0375,0.0625 -0.0375,0.075 0,0.0125 0.0625,0.0125 0.3125,0 0.5,0.225 0.2,0.225 0.2,0.525 0,0.3125 -0.2125,0.5375 -0.2,0.2125 -0.5375,0.2125 z"
       style="font-style:normal;font-variant:normal;font-weight:normal;font-stretch:normal;font-size:12.5px;line-height:125%;font-family:KaTeX_Main;-inkscape-font-specification:'KaTeX_Main, Normal';text-align:center;writing-mode:lr-tb;text-anchor:middle;fill:#000000"
       id="path4665" />
    <path
       d="m 75.107387,214.03123 q 0.7,-1.0125 1.9125,-1.0125 0.9125,0 1.6,0.625 0.3375,0.325 0.575,0.85 0.4625,1.0375 0.4625,2.85 0,1.9375 -0.5375,2.9625 -0.35,0.725 -1.025,1.05 -0.525,0.2625 -1.0625,0.2625 -1.4375,0 -2.1,-1.3125 -0.5375,-1.025 -0.5375,-2.9625 0,-1.1625 0.15,-1.9125 0.1625,-0.7625 0.5625,-1.4 z m 2.8125,-0.15 q -0.3625,-0.4 -0.8875,-0.4 -0.525,0 -0.9,0.4 -0.275,0.2875 -0.375,0.7 -0.1,0.4125 -0.125,1.425 0,0.075 -0.0125,0.4875 0,0.4125 0,0.6875 0,1.2 0.025,1.675 0.05,0.875 0.15,1.2625 0.1,0.375 0.375,0.65 0.3375,0.375 0.8625,0.375 0.5125,0 0.85,-0.375 0.275,-0.275 0.375,-0.65 0.1,-0.3875 0.15,-1.2625 0.025,-0.475 0.025,-1.675 0,-0.275 -0.0125,-0.6875 0,-0.4125 0,-0.4875 -0.025,-1.0125 -0.125,-1.425 -0.1,-0.4125 -0.375,-0.7 z"
       style="font-style:normal;font-variant:normal;font-weight:normal;font-stretch:normal;font-size:12.5px;line-height:125%;font-family:KaTeX_Main;-inkscape-font-specification:'KaTeX_Main, Normal';text-align:center;writing-mode:lr-tb;text-anchor:middle;fill:#000000"
       id="path4667" />
    <path
       d="m 81.357387,214.03123 q 0.7,-1.0125 1.9125,-1.0125 0.9125,0 1.6,0.625 0.3375,0.325 0.575,0.85 0.4625,1.0375 0.4625,2.85 0,1.9375 -0.5375,2.9625 -0.35,0.725 -1.025,1.05 -0.525,0.2625 -1.0625,0.2625 -1.4375,0 -2.1,-1.3125 -0.5375,-1.025 -0.5375,-2.9625 0,-1.1625 0.15,-1.9125 0.1625,-0.7625 0.5625,-1.4 z m 2.8125,-0.15 q -0.3625,-0.4 -0.8875,-0.4 -0.525,0 -0.9,0.4 -0.275,0.2875 -0.375,0.7 -0.1,0.4125 -0.125,1.425 0,0.075 -0.0125,0.4875 0,0.4125 0,0.6875 0,1.2 0.025,1.675 0.05,0.875 0.15,1.2625 0.1,0.375 0.375,0.65 0.3375,0.375 0.8625,0.375 0.5125,0 0.85,-0.375 0.275,-0.275 0.375,-0.65 0.1,-0.3875 0.15,-1.2625 0.025,-0.475 0.025,-1.675 0,-0.275 -0.0125,-0.6875 0,-0.4125 0,-0.4875 -0.025,-1.0125 -0.125,-1.425 -0.1,-0.4125 -0.375,-0.7 z"
       style="font-style:normal;font-variant:normal;font-weight:normal;font-stretch:normal;font-size:12.5px;line-height:125%;font-family:KaTeX_Main;-inkscape-font-specification:'KaTeX_Main, Normal';text-align:center;writing-mode:lr-tb;text-anchor:middle;fill:#000000"
       id="path4669" />
  </g>
  <line
     style="font-size:medium;font-family:sans-serif;text-anchor:end;fill:none"
     id="line116"
     y2="217.80043"
     x2="294.57489"
     y1="217.80043"
     x1="14.574903"
     class="grid" />
  <line
     style="font-size:medium;font-family:sans-serif;text-anchor:end;fill:none;stroke:#000000"
     y2="197.80043"
     y1="197.80043"
     x1="94.574905"
     id="line120"
     x2="88.574905" />
  <line
     style="font-size:medium;font-family:sans-serif;text-anchor:end;fill:none"
     id="line122"
     y2="197.80043"
     x2="294.57489"
     y1="197.80043"
     x1="14.574903"
     class="grid" />
  <line
     style="font-size:medium;font-family:sans-serif;text-anchor:end;fill:none;stroke:#000000"
     y2="177.80043"
     y1="177.80043"
     x1="94.574905"
     id="line126"
     x2="88.574905" />
  <g
     style="font-style:normal;font-variant:normal;font-weight:normal;font-stretch:normal;font-size:12.5px;line-height:125%;font-family:KaTeX_Main;-inkscape-font-specification:'KaTeX_Main, Normal';text-align:center;writing-mode:lr-tb;text-anchor:middle;fill:#000000"
     id="text128">
    <path
       d="m 68.260078,175.98123 q -0.35,0 -0.55,-0.225 -0.2,-0.225 -0.2,-0.55 0,-0.9 0.675,-1.5375 0.6875,-0.65 1.6375,-0.65 1.075,0 1.775,0.5875 0.7125,0.575 0.875,1.5125 0.025,0.225 0.025,0.4125 0,0.725 -0.4375,1.3625 -0.35,0.525 -1.4125,1.4375 -0.45,0.3875 -1.25,1.15 l -0.7375,0.7 0.95,0.0125 q 1.9625,0 2.0875,-0.0625 0.05,-0.0125 0.125,-0.2625 0.05,-0.1375 0.175,-0.85 l 0,-0.0375 0.5,0 0,0.0375 -0.35,2.2875 0,0.0375 -4.6375,0 0,-0.2375 q 0,-0.25 0.025,-0.2875 0.0125,-0.0125 1.05,-1.1875 1.3625,-1.5125 1.75,-2 0.8375,-1.1375 0.8375,-2.0875 0,-0.825 -0.4375,-1.375 -0.425,-0.5625 -1.2,-0.5625 -0.725,0 -1.175,0.65 -0.025,0.05 -0.075,0.1375 -0.0375,0.0625 -0.0375,0.075 0,0.0125 0.0625,0.0125 0.3125,0 0.5,0.225 0.2,0.225 0.2,0.525 0,0.3125 -0.2125,0.5375 -0.2,0.2125 -0.5375,0.2125 z"
       style="font-style:normal;font-variant:normal;font-weight:normal;font-stretch:normal;font-size:12.5px;line-height:125%;font-family:KaTeX_Main;-inkscape-font-specification:'KaTeX_Main, Normal';text-align:center;writing-mode:lr-tb;text-anchor:middle;fill:#000000"
       id="path4656" />
    <path
       d="m 74.335078,174.03123 q 0.7,-1.0125 1.9125,-1.0125 0.9125,0 1.6,0.625 0.3375,0.325 0.575,0.85 0.4625,1.0375 0.4625,2.85 0,1.9375 -0.5375,2.9625 -0.35,0.725 -1.025,1.05 -0.525,0.2625 -1.0625,0.2625 -1.4375,0 -2.1,-1.3125 -0.5375,-1.025 -0.5375,-2.9625 0,-1.1625 0.15,-1.9125 0.1625,-0.7625 0.5625,-1.4 z m 2.8125,-0.15 q -0.3625,-0.4 -0.8875,-0.4 -0.525,0 -0.9,0.4 -0.275,0.2875 -0.375,0.7 -0.1,0.4125 -0.125,1.425 0,0.075 -0.0125,0.4875 0,0.4125 0,0.6875 0,1.2 0.025,1.675 0.05,0.875 0.15,1.2625 0.1,0.375 0.375,0.65 0.3375,0.375 0.8625,0.375 0.5125,0 0.85,-0.375 0.275,-0.275 0.375,-0.65 0.1,-0.3875 0.15,-1.2625 0.025,-0.475 0.025,-1.675 0,-0.275 -0.0125,-0.6875 0,-0.4125 0,-0.4875 -0.025,-1.0125 -0.125,-1.425 -0.1,-0.4125 -0.375,-0.7 z"
       style="font-style:normal;font-variant:normal;font-weight:normal;font-stretch:normal;font-size:12.5px;line-height:125%;font-family:KaTeX_Main;-inkscape-font-specification:'KaTeX_Main, Normal';text-align:center;writing-mode:lr-tb;text-anchor:middle;fill:#000000"
       id="path4658" />
    <path
       d="m 80.585078,174.03123 q 0.7,-1.0125 1.9125,-1.0125 0.9125,0 1.6,0.625 0.3375,0.325 0.575,0.85 0.4625,1.0375 0.4625,2.85 0,1.9375 -0.5375,2.9625 -0.35,0.725 -1.025,1.05 -0.525,0.2625 -1.0625,0.2625 -1.4375,0 -2.1,-1.3125 -0.5375,-1.025 -0.5375,-2.9625 0,-1.1625 0.15,-1.9125 0.1625,-0.7625 0.5625,-1.4 z m 2.8125,-0.15 q -0.3625,-0.4 -0.8875,-0.4 -0.525,0 -0.9,0.4 -0.275,0.2875 -0.375,0.7 -0.1,0.4125 -0.125,1.425 0,0.075 -0.0125,0.4875 0,0.4125 0,0.6875 0,1.2 0.025,1.675 0.05,0.875 0.15,1.2625 0.1,0.375 0.375,0.65 0.3375,0.375 0.8625,0.375 0.5125,0 0.85,-0.375 0.275,-0.275 0.375,-0.65 0.1,-0.3875 0.15,-1.2625 0.025,-0.475 0.025,-1.675 0,-0.275 -0.0125,-0.6875 0,-0.4125 0,-0.4875 -0.025,-1.0125 -0.125,-1.425 -0.1,-0.4125 -0.375,-0.7 z"
       style="font-style:normal;font-variant:normal;font-weight:normal;font-stretch:normal;font-size:12.5px;line-height:125%;font-family:KaTeX_Main;-inkscape-font-specification:'KaTeX_Main, Normal';text-align:center;writing-mode:lr-tb;text-anchor:middle;fill:#000000"
       id="path4660" />
  </g>
  <line
     style="font-size:medium;font-family:sans-serif;text-anchor:end;fill:none"
     id="line130"
     y2="177.80043"
     x2="294.57489"
     y1="177.80043"
     x1="14.574903"
     class="grid" />
  <line
     style="font-size:medium;font-family:sans-serif;text-anchor:end;fill:none;stroke:#000000"
     y2="157.80043"
     y1="157.80043"
     x1="94.574905"
     id="line134"
     x2="88.574905" />
  <g
     style="font-style:normal;font-variant:normal;font-weight:normal;font-stretch:normal;font-size:12.5px;line-height:125%;font-family:KaTeX_Main;-inkscape-font-specification:'KaTeX_Main, Normal';text-align:center;writing-mode:lr-tb;text-anchor:middle;fill:#000000"
     id="text136">
    <path
       d="m 72.660078,161.34373 q -0.175,-0.0375 -1.6125,-0.0375 -1.5,0 -1.675,0.0375 l -0.1125,0 0,-0.575 0.3875,0 q 0.5375,-0.0125 0.6625,-0.0625 0.1,-0.025 0.15,-0.125 0.0125,-0.025 0.0125,-0.675 l 0,-0.625 -3.2375,0 0,-0.575 1.8875,-2.8875 q 1.9125,-2.9 1.9375,-2.9125 0.025,-0.025 0.2625,-0.025 l 0.225,0 0.075,0.075 0,5.75 1.15,0 0,0.575 -1.15,0 0,0.6375 q 0,0.5125 0,0.6 0.0125,0.0875 0.075,0.15 0.1,0.0875 0.7125,0.1 l 0.3625,0 0,0.575 -0.1125,0 z m -2.1125,-2.6375 0,-4.175 -2.7375,4.1625 1.3625,0.0125 1.375,0 z"
       style="font-style:normal;font-variant:normal;font-weight:normal;font-stretch:normal;font-size:12.5px;line-height:125%;font-family:KaTeX_Main;-inkscape-font-specification:'KaTeX_Main, Normal';text-align:center;writing-mode:lr-tb;text-anchor:middle;fill:#000000"
       id="path4649" />
    <path
       d="m 74.335078,154.03123 q 0.7,-1.0125 1.9125,-1.0125 0.9125,0 1.6,0.625 0.3375,0.325 0.575,0.85 0.4625,1.0375 0.4625,2.85 0,1.9375 -0.5375,2.9625 -0.35,0.725 -1.025,1.05 -0.525,0.2625 -1.0625,0.2625 -1.4375,0 -2.1,-1.3125 -0.5375,-1.025 -0.5375,-2.9625 0,-1.1625 0.15,-1.9125 0.1625,-0.7625 0.5625,-1.4 z m 2.8125,-0.15 q -0.3625,-0.4 -0.8875,-0.4 -0.525,0 -0.9,0.4 -0.275,0.2875 -0.375,0.7 -0.1,0.4125 -0.125,1.425 0,0.075 -0.0125,0.4875 0,0.4125 0,0.6875 0,1.2 0.025,1.675 0.05,0.875 0.15,1.2625 0.1,0.375 0.375,0.65 0.3375,0.375 0.8625,0.375 0.5125,0 0.85,-0.375 0.275,-0.275 0.375,-0.65 0.1,-0.3875 0.15,-1.2625 0.025,-0.475 0.025,-1.675 0,-0.275 -0.0125,-0.6875 0,-0.4125 0,-0.4875 -0.025,-1.0125 -0.125,-1.425 -0.1,-0.4125 -0.375,-0.7 z"
       style="font-style:normal;font-variant:normal;font-weight:normal;font-stretch:normal;font-size:12.5px;line-height:125%;font-family:KaTeX_Main;-inkscape-font-specification:'KaTeX_Main, Normal';text-align:center;writing-mode:lr-tb;text-anchor:middle;fill:#000000"
       id="path4651" />
    <path
       d="m 80.585078,154.03123 q 0.7,-1.0125 1.9125,-1.0125 0.9125,0 1.6,0.625 0.3375,0.325 0.575,0.85 0.4625,1.0375 0.4625,2.85 0,1.9375 -0.5375,2.9625 -0.35,0.725 -1.025,1.05 -0.525,0.2625 -1.0625,0.2625 -1.4375,0 -2.1,-1.3125 -0.5375,-1.025 -0.5375,-2.9625 0,-1.1625 0.15,-1.9125 0.1625,-0.7625 0.5625,-1.4 z m 2.8125,-0.15 q -0.3625,-0.4 -0.8875,-0.4 -0.525,0 -0.9,0.4 -0.275,0.2875 -0.375,0.7 -0.1,0.4125 -0.125,1.425 0,0.075 -0.0125,0.4875 0,0.4125 0,0.6875 0,1.2 0.025,1.675 0.05,0.875 0.15,1.2625 0.1,0.375 0.375,0.65 0.3375,0.375 0.8625,0.375 0.5125,0 0.85,-0.375 0.275,-0.275 0.375,-0.65 0.1,-0.3875 0.15,-1.2625 0.025,-0.475 0.025,-1.675 0,-0.275 -0.0125,-0.6875 0,-0.4125 0,-0.4875 -0.025,-1.0125 -0.125,-1.425 -0.1,-0.4125 -0.375,-0.7 z"
       style="font-style:normal;font-variant:normal;font-weight:normal;font-stretch:normal;font-size:12.5px;line-height:125%;font-family:KaTeX_Main;-inkscape-font-specification:'KaTeX_Main, Normal';text-align:center;writing-mode:lr-tb;text-anchor:middle;fill:#000000"
       id="path4653" />
  </g>
  <line
     style="font-size:medium;font-family:sans-serif;text-anchor:end;fill:none"
     id="line138"
     y2="157.80043"
     x2="294.57489"
     y1="157.80043"
     x1="14.574903"
     class="grid" />
  <line
     style="font-size:medium;font-family:sans-serif;text-anchor:end;fill:none;stroke:#000000"
     y2="137.80043"
     y1="137.80043"
     x1="94.574905"
     id="line142"
     x2="88.574905" />
  <g
     style="font-style:normal;font-variant:normal;font-weight:normal;font-stretch:normal;font-size:12.5px;line-height:125%;font-family:KaTeX_Main;-inkscape-font-specification:'KaTeX_Main, Normal';text-align:center;writing-mode:lr-tb;text-anchor:middle;fill:#000000"
     id="text144">
    <path
       d="m 71.547578,133.83123 q -0.275,-0.275 -0.775,-0.3125 -0.875,0 -1.4625,0.75 -0.5875,0.8125 -0.5875,2.525 l 0.0125,0.05 0.1,-0.1625 q 0.5125,-0.75 1.3875,-0.75 0.575,0 1.0125,0.2375 0.3,0.175 0.6,0.5125 0.3,0.325 0.4875,0.7 0.2625,0.6125 0.2625,1.3375 l 0,0.225 q 0,0.2875 -0.0625,0.5375 -0.15,0.7375 -0.775,1.3875 -0.5375,0.5625 -1.2,0.7 -0.2,0.05 -0.5,0.05 -0.2375,0 -0.425,-0.0375 -0.925,-0.175 -1.475,-1 -0.7375,-1.1625 -0.7375,-3.15 0,-1.35 0.475,-2.3625 0.475,-1.0125 1.325,-1.575 0.675,-0.475 1.4625,-0.475 0.725,0 1.1625,0.3875 0.45,0.3875 0.45,1.0625 0,0.3125 -0.1875,0.5 -0.175,0.1875 -0.475,0.1875 -0.3,0 -0.4875,-0.175 -0.175,-0.175 -0.175,-0.4875 0,-0.5625 0.5875,-0.6625 z m -0.55,3 q -0.35,-0.45 -0.9,-0.45 -0.4625,0 -0.75,0.2875 -0.6125,0.6125 -0.6125,1.975 0,1.1125 0.15,1.5375 0.125,0.375 0.425,0.6375 0.3,0.2625 0.7125,0.2625 0.6375,0 0.975,-0.475 0.1875,-0.2625 0.2375,-0.625 0.05,-0.3625 0.05,-1.05 l 0,-0.2 0,-0.2 q 0,-0.7125 -0.05,-1.075 -0.05,-0.3625 -0.2375,-0.625 z"
       style="font-style:normal;font-variant:normal;font-weight:normal;font-stretch:normal;font-size:12.5px;line-height:125%;font-family:KaTeX_Main;-inkscape-font-specification:'KaTeX_Main, Normal';text-align:center;writing-mode:lr-tb;text-anchor:middle;fill:#000000"
       id="path4642" />
    <path
       d="m 74.335078,134.03123 q 0.7,-1.0125 1.9125,-1.0125 0.9125,0 1.6,0.625 0.3375,0.325 0.575,0.85 0.4625,1.0375 0.4625,2.85 0,1.9375 -0.5375,2.9625 -0.35,0.725 -1.025,1.05 -0.525,0.2625 -1.0625,0.2625 -1.4375,0 -2.1,-1.3125 -0.5375,-1.025 -0.5375,-2.9625 0,-1.1625 0.15,-1.9125 0.1625,-0.7625 0.5625,-1.4 z m 2.8125,-0.15 q -0.3625,-0.4 -0.8875,-0.4 -0.525,0 -0.9,0.4 -0.275,0.2875 -0.375,0.7 -0.1,0.4125 -0.125,1.425 0,0.075 -0.0125,0.4875 0,0.4125 0,0.6875 0,1.2 0.025,1.675 0.05,0.875 0.15,1.2625 0.1,0.375 0.375,0.65 0.3375,0.375 0.8625,0.375 0.5125,0 0.85,-0.375 0.275,-0.275 0.375,-0.65 0.1,-0.3875 0.15,-1.2625 0.025,-0.475 0.025,-1.675 0,-0.275 -0.0125,-0.6875 0,-0.4125 0,-0.4875 -0.025,-1.0125 -0.125,-1.425 -0.1,-0.4125 -0.375,-0.7 z"
       style="font-style:normal;font-variant:normal;font-weight:normal;font-stretch:normal;font-size:12.5px;line-height:125%;font-family:KaTeX_Main;-inkscape-font-specification:'KaTeX_Main, Normal';text-align:center;writing-mode:lr-tb;text-anchor:middle;fill:#000000"
       id="path4644" />
    <path
       d="m 80.585078,134.03123 q 0.7,-1.0125 1.9125,-1.0125 0.9125,0 1.6,0.625 0.3375,0.325 0.575,0.85 0.4625,1.0375 0.4625,2.85 0,1.9375 -0.5375,2.9625 -0.35,0.725 -1.025,1.05 -0.525,0.2625 -1.0625,0.2625 -1.4375,0 -2.1,-1.3125 -0.5375,-1.025 -0.5375,-2.9625 0,-1.1625 0.15,-1.9125 0.1625,-0.7625 0.5625,-1.4 z m 2.8125,-0.15 q -0.3625,-0.4 -0.8875,-0.4 -0.525,0 -0.9,0.4 -0.275,0.2875 -0.375,0.7 -0.1,0.4125 -0.125,1.425 0,0.075 -0.0125,0.4875 0,0.4125 0,0.6875 0,1.2 0.025,1.675 0.05,0.875 0.15,1.2625 0.1,0.375 0.375,0.65 0.3375,0.375 0.8625,0.375 0.5125,0 0.85,-0.375 0.275,-0.275 0.375,-0.65 0.1,-0.3875 0.15,-1.2625 0.025,-0.475 0.025,-1.675 0,-0.275 -0.0125,-0.6875 0,-0.4125 0,-0.4875 -0.025,-1.0125 -0.125,-1.425 -0.1,-0.4125 -0.375,-0.7 z"
       style="font-style:normal;font-variant:normal;font-weight:normal;font-stretch:normal;font-size:12.5px;line-height:125%;font-family:KaTeX_Main;-inkscape-font-specification:'KaTeX_Main, Normal';text-align:center;writing-mode:lr-tb;text-anchor:middle;fill:#000000"
       id="path4646" />
  </g>
  <line
     style="font-size:medium;font-family:sans-serif;text-anchor:end;fill:none"
     id="line146"
     y2="137.80043"
     x2="294.57489"
     y1="137.80043"
     x1="14.574903"
     class="grid" />
  <line
     style="font-size:medium;font-family:sans-serif;text-anchor:end;fill:none;stroke:#000000"
     y2="117.80043"
     y1="117.80043"
     x1="94.574905"
     id="line150"
     x2="88.574905" />
  <g
     style="font-style:normal;font-variant:normal;font-weight:normal;font-stretch:normal;font-size:12.5px;line-height:125%;font-family:KaTeX_Main;-inkscape-font-specification:'KaTeX_Main, Normal';text-align:center;writing-mode:lr-tb;text-anchor:middle;fill:#000000"
     id="text152">
    <path
       d="m 69.035078,117.15622 q -0.6125,-0.4 -0.95,-0.8375 -0.325,-0.4375 -0.325,-1.15 0,-0.5375 0.2,-0.9 0.275,-0.5625 0.8,-0.9 0.5375,-0.35 1.225,-0.35 0.85,0 1.475,0.45 0.625,0.4375 0.775,1.1375 0.0125,0.075 0.0125,0.3 0,0.275 -0.025,0.375 -0.1875,0.825 -1.1375,1.425 l -0.15,0.1 q 0.7,0.475 0.725,0.5 0.9375,0.75 0.9375,1.8625 0,1.0125 -0.75,1.7375 -0.7375,0.7125 -1.85,0.7125 -1.5375,0 -2.2625,-1.125 -0.3125,-0.45 -0.3125,-1.0875 0,-1.3625 1.6125,-2.25 z m 2.4875,-2.225 q 0,-0.5375 -0.35,-0.9125 -0.35,-0.375 -0.85,-0.475 -0.0875,-0.0125 -0.4125,-0.0125 -0.6625,0 -1.1125,0.45 -0.3125,0.2875 -0.3125,0.6875 0,0.5375 0.45,0.85 0.0625,0.0625 0.8,0.525 l 0.725,0.475 q 0.0125,-0.0125 0.1625,-0.1 0.15,-0.1 0.225,-0.175 0.675,-0.5375 0.675,-1.3125 z m -3.3,4.45 q 0,0.7375 0.5375,1.225 0.5375,0.475 1.25,0.475 0.5125,0 0.925,-0.2125 0.425,-0.2125 0.6375,-0.55 0.2125,-0.325 0.2125,-0.6875 0,-0.5375 -0.4375,-0.95 -0.1,-0.1 -1.0375,-0.7125 -0.175,-0.1125 -0.3875,-0.2375 -0.2,-0.1375 -0.3125,-0.2125 l -0.1,-0.0625 -0.15,0.075 q -0.7875,0.5125 -1.0375,1.25 -0.1,0.325 -0.1,0.6 z"
       style="font-style:normal;font-variant:normal;font-weight:normal;font-stretch:normal;font-size:12.5px;line-height:125%;font-family:KaTeX_Main;-inkscape-font-specification:'KaTeX_Main, Normal';text-align:center;writing-mode:lr-tb;text-anchor:middle;fill:#000000"
       id="path4635" />
    <path
       d="m 74.335078,114.03122 q 0.7,-1.0125 1.9125,-1.0125 0.9125,0 1.6,0.625 0.3375,0.325 0.575,0.85 0.4625,1.0375 0.4625,2.85 0,1.9375 -0.5375,2.9625 -0.35,0.725 -1.025,1.05 -0.525,0.2625 -1.0625,0.2625 -1.4375,0 -2.1,-1.3125 -0.5375,-1.025 -0.5375,-2.9625 0,-1.1625 0.15,-1.9125 0.1625,-0.7625 0.5625,-1.4 z m 2.8125,-0.15 q -0.3625,-0.4 -0.8875,-0.4 -0.525,0 -0.9,0.4 -0.275,0.2875 -0.375,0.7 -0.1,0.4125 -0.125,1.425 0,0.075 -0.0125,0.4875 0,0.4125 0,0.6875 0,1.2 0.025,1.675 0.05,0.875 0.15,1.2625 0.1,0.375 0.375,0.65 0.3375,0.375 0.8625,0.375 0.5125,0 0.85,-0.375 0.275,-0.275 0.375,-0.65 0.1,-0.3875 0.15,-1.2625 0.025,-0.475 0.025,-1.675 0,-0.275 -0.0125,-0.6875 0,-0.4125 0,-0.4875 -0.025,-1.0125 -0.125,-1.425 -0.1,-0.4125 -0.375,-0.7 z"
       style="font-style:normal;font-variant:normal;font-weight:normal;font-stretch:normal;font-size:12.5px;line-height:125%;font-family:KaTeX_Main;-inkscape-font-specification:'KaTeX_Main, Normal';text-align:center;writing-mode:lr-tb;text-anchor:middle;fill:#000000"
       id="path4637" />
    <path
       d="m 80.585078,114.03122 q 0.7,-1.0125 1.9125,-1.0125 0.9125,0 1.6,0.625 0.3375,0.325 0.575,0.85 0.4625,1.0375 0.4625,2.85 0,1.9375 -0.5375,2.9625 -0.35,0.725 -1.025,1.05 -0.525,0.2625 -1.0625,0.2625 -1.4375,0 -2.1,-1.3125 -0.5375,-1.025 -0.5375,-2.9625 0,-1.1625 0.15,-1.9125 0.1625,-0.7625 0.5625,-1.4 z m 2.8125,-0.15 q -0.3625,-0.4 -0.8875,-0.4 -0.525,0 -0.9,0.4 -0.275,0.2875 -0.375,0.7 -0.1,0.4125 -0.125,1.425 0,0.075 -0.0125,0.4875 0,0.4125 0,0.6875 0,1.2 0.025,1.675 0.05,0.875 0.15,1.2625 0.1,0.375 0.375,0.65 0.3375,0.375 0.8625,0.375 0.5125,0 0.85,-0.375 0.275,-0.275 0.375,-0.65 0.1,-0.3875 0.15,-1.2625 0.025,-0.475 0.025,-1.675 0,-0.275 -0.0125,-0.6875 0,-0.4125 0,-0.4875 -0.025,-1.0125 -0.125,-1.425 -0.1,-0.4125 -0.375,-0.7 z"
       style="font-style:normal;font-variant:normal;font-weight:normal;font-stretch:normal;font-size:12.5px;line-height:125%;font-family:KaTeX_Main;-inkscape-font-specification:'KaTeX_Main, Normal';text-align:center;writing-mode:lr-tb;text-anchor:middle;fill:#000000"
       id="path4639" />
  </g>
  <line
     style="font-size:medium;font-family:sans-serif;text-anchor:end;fill:none"
     id="line154"
     y2="117.80043"
     x2="294.57489"
     y1="117.80043"
     x1="14.574903"
     class="grid" />
  <line
     style="font-size:medium;font-family:sans-serif;text-anchor:end;fill:none;stroke:#000000"
     y2="97.80043"
     y1="97.80043"
     x1="94.574905"
     id="line158"
     x2="88.574905" />
  <g
     style="font-style:normal;font-variant:normal;font-weight:normal;font-stretch:normal;font-size:12.5px;line-height:125%;font-family:KaTeX_Main;-inkscape-font-specification:'KaTeX_Main, Normal';text-align:center;writing-mode:lr-tb;text-anchor:middle;fill:#000000"
     id="text160">
    <path
       d="m 62.368282,101.34373 q -0.2125,-0.0375 -1.9875,-0.0375 -1.75,0 -1.9625,0.0375 l -0.15,0 0,-0.575 0.325,0 q 0.725,0 0.9375,-0.0375 0.1,-0.0125 0.3,-0.15 l 0,-6.462503 q -0.025,0 -0.1,0.0375 -0.575,0.225 -1.2875,0.2375 l -0.2375,0 0,-0.575 0.2375,0 q 1.05,-0.0375 1.75,-0.475 0.225,-0.125 0.3875,-0.2875 0.025,-0.0375 0.15,-0.0375 0.125,0 0.2125,0.075 l 0,3.7375 0.0125,3.750003 q 0.1875,0.1875 0.8125,0.1875 l 0.4125,0 0.325,0 0,0.575 -0.1375,0 z"
       style="font-style:normal;font-variant:normal;font-weight:normal;font-stretch:normal;font-size:12.5px;line-height:125%;font-family:KaTeX_Main;-inkscape-font-specification:'KaTeX_Main, Normal';text-align:center;writing-mode:lr-tb;text-anchor:middle;fill:#000000"
       id="path4624" />
    <path
       d="m 64.618282,101.13123 q -0.225,-0.225 -0.225,-0.5375 0,-0.3125 0.2,-0.5375 0.2125,-0.225003 0.5375,-0.225003 0.475,0 0.6875,0.400003 0.225,0.4 0.225,1.0125 0,0.2375 -0.025,0.4375 -0.175,1.1125 -0.9125,1.9125 -0.175,0.175 -0.225,0.175 -0.05,0 -0.1625,-0.1125 -0.1125,-0.1125 -0.1125,-0.1625 0,-0.0625 0.125,-0.1875 0.775,-0.7875 0.85,-1.925 l 0,-0.15 q -0.0125,0 -0.075,0.0375 -0.1625,0.075 -0.3375,0.075 -0.325,0 -0.55,-0.2125 z"
       style="font-style:normal;font-variant:normal;font-weight:normal;font-stretch:normal;font-size:12.5px;line-height:125%;font-family:KaTeX_Main;-inkscape-font-specification:'KaTeX_Main, Normal';text-align:center;writing-mode:lr-tb;text-anchor:middle;fill:#000000"
       id="path4626" />
    <path
       d="m 68.085078,94.031227 q 0.7,-1.0125 1.9125,-1.0125 0.9125,0 1.6,0.625 0.3375,0.325 0.575,0.85 0.4625,1.0375 0.4625,2.85 0,1.9375 -0.5375,2.962503 -0.35,0.725 -1.025,1.05 -0.525,0.2625 -1.0625,0.2625 -1.4375,0 -2.1,-1.3125 -0.5375,-1.025003 -0.5375,-2.962503 0,-1.1625 0.15,-1.9125 0.1625,-0.7625 0.5625,-1.4 z m 2.8125,-0.15 q -0.3625,-0.4 -0.8875,-0.4 -0.525,0 -0.9,0.4 -0.275,0.2875 -0.375,0.7 -0.1,0.4125 -0.125,1.425 0,0.075 -0.0125,0.4875 0,0.4125 0,0.6875 0,1.2 0.025,1.675 0.05,0.875 0.15,1.262503 0.1,0.375 0.375,0.65 0.3375,0.375 0.8625,0.375 0.5125,0 0.85,-0.375 0.275,-0.275 0.375,-0.65 0.1,-0.387503 0.15,-1.262503 0.025,-0.475 0.025,-1.675 0,-0.275 -0.0125,-0.6875 0,-0.4125 0,-0.4875 -0.025,-1.0125 -0.125,-1.425 -0.1,-0.4125 -0.375,-0.7 z"
       style="font-style:normal;font-variant:normal;font-weight:normal;font-stretch:normal;font-size:12.5px;line-height:125%;font-family:KaTeX_Main;-inkscape-font-specification:'KaTeX_Main, Normal';text-align:center;writing-mode:lr-tb;text-anchor:middle;fill:#000000"
       id="path4628" />
    <path
       d="m 74.335078,94.031227 q 0.7,-1.0125 1.9125,-1.0125 0.9125,0 1.6,0.625 0.3375,0.325 0.575,0.85 0.4625,1.0375 0.4625,2.85 0,1.9375 -0.5375,2.962503 -0.35,0.725 -1.025,1.05 -0.525,0.2625 -1.0625,0.2625 -1.4375,0 -2.1,-1.3125 -0.5375,-1.025003 -0.5375,-2.962503 0,-1.1625 0.15,-1.9125 0.1625,-0.7625 0.5625,-1.4 z m 2.8125,-0.15 q -0.3625,-0.4 -0.8875,-0.4 -0.525,0 -0.9,0.4 -0.275,0.2875 -0.375,0.7 -0.1,0.4125 -0.125,1.425 0,0.075 -0.0125,0.4875 0,0.4125 0,0.6875 0,1.2 0.025,1.675 0.05,0.875 0.15,1.262503 0.1,0.375 0.375,0.65 0.3375,0.375 0.8625,0.375 0.5125,0 0.85,-0.375 0.275,-0.275 0.375,-0.65 0.1,-0.387503 0.15,-1.262503 0.025,-0.475 0.025,-1.675 0,-0.275 -0.0125,-0.6875 0,-0.4125 0,-0.4875 -0.025,-1.0125 -0.125,-1.425 -0.1,-0.4125 -0.375,-0.7 z"
       style="font-style:normal;font-variant:normal;font-weight:normal;font-stretch:normal;font-size:12.5px;line-height:125%;font-family:KaTeX_Main;-inkscape-font-specification:'KaTeX_Main, Normal';text-align:center;writing-mode:lr-tb;text-anchor:middle;fill:#000000"
       id="path4630" />
    <path
       d="m 80.585078,94.031227 q 0.7,-1.0125 1.9125,-1.0125 0.9125,0 1.6,0.625 0.3375,0.325 0.575,0.85 0.4625,1.0375 0.4625,2.85 0,1.9375 -0.5375,2.962503 -0.35,0.725 -1.025,1.05 -0.525,0.2625 -1.0625,0.2625 -1.4375,0 -2.1,-1.3125 -0.5375,-1.025003 -0.5375,-2.962503 0,-1.1625 0.15,-1.9125 0.1625,-0.7625 0.5625,-1.4 z m 2.8125,-0.15 q -0.3625,-0.4 -0.8875,-0.4 -0.525,0 -0.9,0.4 -0.275,0.2875 -0.375,0.7 -0.1,0.4125 -0.125,1.425 0,0.075 -0.0125,0.4875 0,0.4125 0,0.6875 0,1.2 0.025,1.675 0.05,0.875 0.15,1.262503 0.1,0.375 0.375,0.65 0.3375,0.375 0.8625,0.375 0.5125,0 0.85,-0.375 0.275,-0.275 0.375,-0.65 0.1,-0.387503 0.15,-1.262503 0.025,-0.475 0.025,-1.675 0,-0.275 -0.0125,-0.6875 0,-0.4125 0,-0.4875 -0.025,-1.0125 -0.125,-1.425 -0.1,-0.4125 -0.375,-0.7 z"
       style="font-style:normal;font-variant:normal;font-weight:normal;font-stretch:normal;font-size:12.5px;line-height:125%;font-family:KaTeX_Main;-inkscape-font-specification:'KaTeX_Main, Normal';text-align:center;writing-mode:lr-tb;text-anchor:middle;fill:#000000"
       id="path4632" />
  </g>
  <line
     style="font-size:medium;font-family:sans-serif;text-anchor:end;fill:none"
     id="line162"
     y2="97.80043"
     x2="294.57489"
     y1="97.80043"
     x1="14.574903"
     class="grid" />
  <line
     style="font-size:medium;font-family:sans-serif;text-anchor:end;fill:none;stroke:#000000"
     y2="77.80043"
     y1="77.80043"
     x1="94.574905"
     id="line166"
     x2="88.574905" />
  <g
     style="font-style:normal;font-variant:normal;font-weight:normal;font-stretch:normal;font-size:12.5px;line-height:125%;font-family:KaTeX_Main;-inkscape-font-specification:'KaTeX_Main, Normal';text-align:center;writing-mode:lr-tb;text-anchor:middle;fill:#000000"
     id="text168">
    <path
       d="m 62.368282,81.343735 q -0.2125,-0.0375 -1.9875,-0.0375 -1.75,0 -1.9625,0.0375 l -0.15,0 0,-0.575 0.325,0 q 0.725,0 0.9375,-0.0375 0.1,-0.0125 0.3,-0.15 l 0,-6.4625 q -0.025,0 -0.1,0.0375 -0.575,0.225 -1.2875,0.2375 l -0.2375,0 0,-0.575 0.2375,0 q 1.05,-0.0375 1.75,-0.475 0.225,-0.125 0.3875,-0.2875 0.025,-0.0375 0.15,-0.0375 0.125,0 0.2125,0.075 l 0,3.7375 0.0125,3.75 q 0.1875,0.1875 0.8125,0.1875 l 0.4125,0 0.325,0 0,0.575 -0.1375,0 z"
       style="font-style:normal;font-variant:normal;font-weight:normal;font-stretch:normal;font-size:12.5px;line-height:125%;font-family:KaTeX_Main;-inkscape-font-specification:'KaTeX_Main, Normal';text-align:center;writing-mode:lr-tb;text-anchor:middle;fill:#000000"
       id="path4613" />
    <path
       d="m 64.618282,81.131235 q -0.225,-0.225 -0.225,-0.5375 0,-0.3125 0.2,-0.5375 0.2125,-0.225 0.5375,-0.225 0.475,0 0.6875,0.4 0.225,0.4 0.225,1.0125 0,0.2375 -0.025,0.4375 -0.175,1.1125 -0.9125,1.9125 -0.175,0.175 -0.225,0.175 -0.05,0 -0.1625,-0.1125 -0.1125,-0.1125 -0.1125,-0.1625 0,-0.0625 0.125,-0.1875 0.775,-0.7875 0.85,-1.925 l 0,-0.15 q -0.0125,0 -0.075,0.0375 -0.1625,0.075 -0.3375,0.075 -0.325,0 -0.55,-0.2125 z"
       style="font-style:normal;font-variant:normal;font-weight:normal;font-stretch:normal;font-size:12.5px;line-height:125%;font-family:KaTeX_Main;-inkscape-font-specification:'KaTeX_Main, Normal';text-align:center;writing-mode:lr-tb;text-anchor:middle;fill:#000000"
       id="path4615" />
    <path
       d="m 68.260078,75.981235 q -0.35,0 -0.55,-0.225 -0.2,-0.225 -0.2,-0.55 0,-0.9 0.675,-1.5375 0.6875,-0.65 1.6375,-0.65 1.075,0 1.775,0.5875 0.7125,0.575 0.875,1.5125 0.025,0.225 0.025,0.4125 0,0.725 -0.4375,1.3625 -0.35,0.525 -1.4125,1.4375 -0.45,0.3875 -1.25,1.15 l -0.7375,0.7 0.95,0.0125 q 1.9625,0 2.0875,-0.0625 0.05,-0.0125 0.125,-0.2625 0.05,-0.1375 0.175,-0.85 l 0,-0.0375 0.5,0 0,0.0375 -0.35,2.2875 0,0.0375 -4.6375,0 0,-0.2375 q 0,-0.25 0.025,-0.2875 0.0125,-0.0125 1.05,-1.1875 1.3625,-1.5125 1.75,-2 0.8375,-1.1375 0.8375,-2.0875 0,-0.825 -0.4375,-1.375 -0.425,-0.5625 -1.2,-0.5625 -0.725,0 -1.175,0.65 -0.025,0.05 -0.075,0.1375 -0.0375,0.0625 -0.0375,0.075 0,0.0125 0.0625,0.0125 0.3125,0 0.5,0.225 0.2,0.225 0.2,0.525 0,0.3125 -0.2125,0.5375 -0.2,0.2125 -0.5375,0.2125 z"
       style="font-style:normal;font-variant:normal;font-weight:normal;font-stretch:normal;font-size:12.5px;line-height:125%;font-family:KaTeX_Main;-inkscape-font-specification:'KaTeX_Main, Normal';text-align:center;writing-mode:lr-tb;text-anchor:middle;fill:#000000"
       id="path4617" />
    <path
       d="m 74.335078,74.031235 q 0.7,-1.0125 1.9125,-1.0125 0.9125,0 1.6,0.625 0.3375,0.325 0.575,0.85 0.4625,1.0375 0.4625,2.85 0,1.9375 -0.5375,2.9625 -0.35,0.725 -1.025,1.05 -0.525,0.2625 -1.0625,0.2625 -1.4375,0 -2.1,-1.3125 -0.5375,-1.025 -0.5375,-2.9625 0,-1.1625 0.15,-1.9125 0.1625,-0.7625 0.5625,-1.4 z m 2.8125,-0.15 q -0.3625,-0.4 -0.8875,-0.4 -0.525,0 -0.9,0.4 -0.275,0.2875 -0.375,0.7 -0.1,0.4125 -0.125,1.425 0,0.075 -0.0125,0.4875 0,0.4125 0,0.6875 0,1.2 0.025,1.675 0.05,0.875 0.15,1.2625 0.1,0.375 0.375,0.65 0.3375,0.375 0.8625,0.375 0.5125,0 0.85,-0.375 0.275,-0.275 0.375,-0.65 0.1,-0.3875 0.15,-1.2625 0.025,-0.475 0.025,-1.675 0,-0.275 -0.0125,-0.6875 0,-0.4125 0,-0.4875 -0.025,-1.0125 -0.125,-1.425 -0.1,-0.4125 -0.375,-0.7 z"
       style="font-style:normal;font-variant:normal;font-weight:normal;font-stretch:normal;font-size:12.5px;line-height:125%;font-family:KaTeX_Main;-inkscape-font-specification:'KaTeX_Main, Normal';text-align:center;writing-mode:lr-tb;text-anchor:middle;fill:#000000"
       id="path4619" />
    <path
       d="m 80.585078,74.031235 q 0.7,-1.0125 1.9125,-1.0125 0.9125,0 1.6,0.625 0.3375,0.325 0.575,0.85 0.4625,1.0375 0.4625,2.85 0,1.9375 -0.5375,2.9625 -0.35,0.725 -1.025,1.05 -0.525,0.2625 -1.0625,0.2625 -1.4375,0 -2.1,-1.3125 -0.5375,-1.025 -0.5375,-2.9625 0,-1.1625 0.15,-1.9125 0.1625,-0.7625 0.5625,-1.4 z m 2.8125,-0.15 q -0.3625,-0.4 -0.8875,-0.4 -0.525,0 -0.9,0.4 -0.275,0.2875 -0.375,0.7 -0.1,0.4125 -0.125,1.425 0,0.075 -0.0125,0.4875 0,0.4125 0,0.6875 0,1.2 0.025,1.675 0.05,0.875 0.15,1.2625 0.1,0.375 0.375,0.65 0.3375,0.375 0.8625,0.375 0.5125,0 0.85,-0.375 0.275,-0.275 0.375,-0.65 0.1,-0.3875 0.15,-1.2625 0.025,-0.475 0.025,-1.675 0,-0.275 -0.0125,-0.6875 0,-0.4125 0,-0.4875 -0.025,-1.0125 -0.125,-1.425 -0.1,-0.4125 -0.375,-0.7 z"
       style="font-style:normal;font-variant:normal;font-weight:normal;font-stretch:normal;font-size:12.5px;line-height:125%;font-family:KaTeX_Main;-inkscape-font-specification:'KaTeX_Main, Normal';text-align:center;writing-mode:lr-tb;text-anchor:middle;fill:#000000"
       id="path4621" />
  </g>
  <line
     style="font-size:medium;font-family:sans-serif;text-anchor:end;fill:none"
     id="line170"
     y2="77.80043"
     x2="294.57489"
     y1="77.80043"
     x1="14.574903"
     class="grid" />
  <line
     style="font-size:medium;font-family:sans-serif;text-anchor:end;fill:none;stroke:#000000"
     y2="57.800426"
     y1="57.800426"
     x1="94.574905"
     id="line174"
     x2="88.574905" />
  <g
     style="font-style:normal;font-variant:normal;font-weight:normal;font-stretch:normal;font-size:12.5px;line-height:125%;font-family:KaTeX_Main;-inkscape-font-specification:'KaTeX_Main, Normal';text-align:center;writing-mode:lr-tb;text-anchor:middle;fill:#000000"
     id="text176">
    <path
       d="m 62.368282,61.343739 q -0.2125,-0.0375 -1.9875,-0.0375 -1.75,0 -1.9625,0.0375 l -0.15,0 0,-0.575 0.325,0 q 0.725,0 0.9375,-0.0375 0.1,-0.0125 0.3,-0.15 l 0,-6.4625 q -0.025,0 -0.1,0.0375 -0.575,0.225 -1.2875,0.2375 l -0.2375,0 0,-0.575 0.2375,0 q 1.05,-0.0375 1.75,-0.475 0.225,-0.125 0.3875,-0.2875 0.025,-0.0375 0.15,-0.0375 0.125,0 0.2125,0.075 l 0,3.7375 0.0125,3.75 q 0.1875,0.1875 0.8125,0.1875 l 0.4125,0 0.325,0 0,0.575 -0.1375,0 z"
       style="font-style:normal;font-variant:normal;font-weight:normal;font-stretch:normal;font-size:12.5px;line-height:125%;font-family:KaTeX_Main;-inkscape-font-specification:'KaTeX_Main, Normal';text-align:center;writing-mode:lr-tb;text-anchor:middle;fill:#000000"
       id="path4602" />
    <path
       d="m 64.618282,61.131239 q -0.225,-0.225 -0.225,-0.5375 0,-0.3125 0.2,-0.5375 0.2125,-0.225 0.5375,-0.225 0.475,0 0.6875,0.4 0.225,0.4 0.225,1.0125 0,0.2375 -0.025,0.4375 -0.175,1.1125 -0.9125,1.9125 -0.175,0.175 -0.225,0.175 -0.05,0 -0.1625,-0.1125 -0.1125,-0.1125 -0.1125,-0.1625 0,-0.0625 0.125,-0.1875 0.775,-0.7875 0.85,-1.925 l 0,-0.15 q -0.0125,0 -0.075,0.0375 -0.1625,0.075 -0.3375,0.075 -0.325,0 -0.55,-0.2125 z"
       style="font-style:normal;font-variant:normal;font-weight:normal;font-stretch:normal;font-size:12.5px;line-height:125%;font-family:KaTeX_Main;-inkscape-font-specification:'KaTeX_Main, Normal';text-align:center;writing-mode:lr-tb;text-anchor:middle;fill:#000000"
       id="path4604" />
    <path
       d="m 72.660078,61.343739 q -0.175,-0.0375 -1.6125,-0.0375 -1.5,0 -1.675,0.0375 l -0.1125,0 0,-0.575 0.3875,0 q 0.5375,-0.0125 0.6625,-0.0625 0.1,-0.025 0.15,-0.125 0.0125,-0.025 0.0125,-0.675 l 0,-0.625 -3.2375,0 0,-0.575 1.8875,-2.8875 q 1.9125,-2.9 1.9375,-2.9125 0.025,-0.025 0.2625,-0.025 l 0.225,0 0.075,0.075 0,5.75 1.15,0 0,0.575 -1.15,0 0,0.6375 q 0,0.5125 0,0.6 0.0125,0.0875 0.075,0.15 0.1,0.0875 0.7125,0.1 l 0.3625,0 0,0.575 -0.1125,0 z m -2.1125,-2.6375 0,-4.175 -2.7375,4.1625 1.3625,0.0125 1.375,0 z"
       style="font-style:normal;font-variant:normal;font-weight:normal;font-stretch:normal;font-size:12.5px;line-height:125%;font-family:KaTeX_Main;-inkscape-font-specification:'KaTeX_Main, Normal';text-align:center;writing-mode:lr-tb;text-anchor:middle;fill:#000000"
       id="path4606" />
    <path
       d="m 74.335078,54.031239 q 0.7,-1.0125 1.9125,-1.0125 0.9125,0 1.6,0.625 0.3375,0.325 0.575,0.85 0.4625,1.0375 0.4625,2.85 0,1.9375 -0.5375,2.9625 -0.35,0.725 -1.025,1.05 -0.525,0.2625 -1.0625,0.2625 -1.4375,0 -2.1,-1.3125 -0.5375,-1.025 -0.5375,-2.9625 0,-1.1625 0.15,-1.9125 0.1625,-0.7625 0.5625,-1.4 z m 2.8125,-0.15 q -0.3625,-0.4 -0.8875,-0.4 -0.525,0 -0.9,0.4 -0.275,0.2875 -0.375,0.7 -0.1,0.4125 -0.125,1.425 0,0.075 -0.0125,0.4875 0,0.4125 0,0.6875 0,1.2 0.025,1.675 0.05,0.875 0.15,1.2625 0.1,0.375 0.375,0.65 0.3375,0.375 0.8625,0.375 0.5125,0 0.85,-0.375 0.275,-0.275 0.375,-0.65 0.1,-0.3875 0.15,-1.2625 0.025,-0.475 0.025,-1.675 0,-0.275 -0.0125,-0.6875 0,-0.4125 0,-0.4875 -0.025,-1.0125 -0.125,-1.425 -0.1,-0.4125 -0.375,-0.7 z"
       style="font-style:normal;font-variant:normal;font-weight:normal;font-stretch:normal;font-size:12.5px;line-height:125%;font-family:KaTeX_Main;-inkscape-font-specification:'KaTeX_Main, Normal';text-align:center;writing-mode:lr-tb;text-anchor:middle;fill:#000000"
       id="path4608" />
    <path
       d="m 80.585078,54.031239 q 0.7,-1.0125 1.9125,-1.0125 0.9125,0 1.6,0.625 0.3375,0.325 0.575,0.85 0.4625,1.0375 0.4625,2.85 0,1.9375 -0.5375,2.9625 -0.35,0.725 -1.025,1.05 -0.525,0.2625 -1.0625,0.2625 -1.4375,0 -2.1,-1.3125 -0.5375,-1.025 -0.5375,-2.9625 0,-1.1625 0.15,-1.9125 0.1625,-0.7625 0.5625,-1.4 z m 2.8125,-0.15 q -0.3625,-0.4 -0.8875,-0.4 -0.525,0 -0.9,0.4 -0.275,0.2875 -0.375,0.7 -0.1,0.4125 -0.125,1.425 0,0.075 -0.0125,0.4875 0,0.4125 0,0.6875 0,1.2 0.025,1.675 0.05,0.875 0.15,1.2625 0.1,0.375 0.375,0.65 0.3375,0.375 0.8625,0.375 0.5125,0 0.85,-0.375 0.275,-0.275 0.375,-0.65 0.1,-0.3875 0.15,-1.2625 0.025,-0.475 0.025,-1.675 0,-0.275 -0.0125,-0.6875 0,-0.4125 0,-0.4875 -0.025,-1.0125 -0.125,-1.425 -0.1,-0.4125 -0.375,-0.7 z"
       style="font-style:normal;font-variant:normal;font-weight:normal;font-stretch:normal;font-size:12.5px;line-height:125%;font-family:KaTeX_Main;-inkscape-font-specification:'KaTeX_Main, Normal';text-align:center;writing-mode:lr-tb;text-anchor:middle;fill:#000000"
       id="path4610" />
  </g>
  <line
     style="font-size:medium;font-family:sans-serif;text-anchor:end;fill:none"
     id="line178"
     y2="57.800426"
     x2="294.57489"
     y1="57.800426"
     x1="14.574903"
     class="grid" />
  <line
     style="font-size:medium;font-family:sans-serif;text-anchor:end;fill:none;stroke:#000000"
     y2="37.800426"
     y1="37.800426"
     x1="94.574905"
     id="line182"
     x2="88.574905" />
  <g
     style="font-style:normal;font-variant:normal;font-weight:normal;font-stretch:normal;font-size:12.5px;line-height:125%;font-family:KaTeX_Main;-inkscape-font-specification:'KaTeX_Main, Normal';text-align:center;writing-mode:lr-tb;text-anchor:middle;fill:#000000"
     id="text184">
    <path
       d="m 62.368282,41.343731 q -0.2125,-0.0375 -1.9875,-0.0375 -1.75,0 -1.9625,0.0375 l -0.15,0 0,-0.575 0.325,0 q 0.725,0 0.9375,-0.0375 0.1,-0.0125 0.3,-0.15 l 0,-6.4625 q -0.025,0 -0.1,0.0375 -0.575,0.225 -1.2875,0.2375 l -0.2375,0 0,-0.575 0.2375,0 q 1.05,-0.0375 1.75,-0.475 0.225,-0.125 0.3875,-0.2875 0.025,-0.0375 0.15,-0.0375 0.125,0 0.2125,0.075 l 0,3.7375 0.0125,3.75 q 0.1875,0.1875 0.8125,0.1875 l 0.4125,0 0.325,0 0,0.575 -0.1375,0 z"
       style="font-style:normal;font-variant:normal;font-weight:normal;font-stretch:normal;font-size:12.5px;line-height:125%;font-family:KaTeX_Main;-inkscape-font-specification:'KaTeX_Main, Normal';text-align:center;writing-mode:lr-tb;text-anchor:middle;fill:#000000"
       id="path4591" />
    <path
       d="m 64.618282,41.131231 q -0.225,-0.225 -0.225,-0.5375 0,-0.3125 0.2,-0.5375 0.2125,-0.225 0.5375,-0.225 0.475,0 0.6875,0.4 0.225,0.4 0.225,1.0125 0,0.2375 -0.025,0.4375 -0.175,1.1125 -0.9125,1.9125 -0.175,0.175 -0.225,0.175 -0.05,0 -0.1625,-0.1125 -0.1125,-0.1125 -0.1125,-0.1625 0,-0.0625 0.125,-0.1875 0.775,-0.7875 0.85,-1.925 l 0,-0.15 q -0.0125,0 -0.075,0.0375 -0.1625,0.075 -0.3375,0.075 -0.325,0 -0.55,-0.2125 z"
       style="font-style:normal;font-variant:normal;font-weight:normal;font-stretch:normal;font-size:12.5px;line-height:125%;font-family:KaTeX_Main;-inkscape-font-specification:'KaTeX_Main, Normal';text-align:center;writing-mode:lr-tb;text-anchor:middle;fill:#000000"
       id="path4593" />
    <path
       d="m 71.547578,33.831231 q -0.275,-0.275 -0.775,-0.3125 -0.875,0 -1.4625,0.75 -0.5875,0.8125 -0.5875,2.525 l 0.0125,0.05 0.1,-0.1625 q 0.5125,-0.75 1.3875,-0.75 0.575,0 1.0125,0.2375 0.3,0.175 0.6,0.5125 0.3,0.325 0.4875,0.7 0.2625,0.6125 0.2625,1.3375 l 0,0.225 q 0,0.2875 -0.0625,0.5375 -0.15,0.7375 -0.775,1.3875 -0.5375,0.5625 -1.2,0.7 -0.2,0.05 -0.5,0.05 -0.2375,0 -0.425,-0.0375 -0.925,-0.175 -1.475,-1 -0.7375,-1.1625 -0.7375,-3.15 0,-1.35 0.475,-2.3625 0.475,-1.0125 1.325,-1.575 0.675,-0.475 1.4625,-0.475 0.725,0 1.1625,0.3875 0.45,0.3875 0.45,1.0625 0,0.3125 -0.1875,0.5 -0.175,0.1875 -0.475,0.1875 -0.3,0 -0.4875,-0.175 -0.175,-0.175 -0.175,-0.4875 0,-0.5625 0.5875,-0.6625 z m -0.55,3 q -0.35,-0.45 -0.9,-0.45 -0.4625,0 -0.75,0.2875 -0.6125,0.6125 -0.6125,1.975 0,1.1125 0.15,1.5375 0.125,0.375 0.425,0.6375 0.3,0.2625 0.7125,0.2625 0.6375,0 0.975,-0.475 0.1875,-0.2625 0.2375,-0.625 0.05,-0.3625 0.05,-1.05 l 0,-0.2 0,-0.2 q 0,-0.7125 -0.05,-1.075 -0.05,-0.3625 -0.2375,-0.625 z"
       style="font-style:normal;font-variant:normal;font-weight:normal;font-stretch:normal;font-size:12.5px;line-height:125%;font-family:KaTeX_Main;-inkscape-font-specification:'KaTeX_Main, Normal';text-align:center;writing-mode:lr-tb;text-anchor:middle;fill:#000000"
       id="path4595" />
    <path
       d="m 74.335078,34.031231 q 0.7,-1.0125 1.9125,-1.0125 0.9125,0 1.6,0.625 0.3375,0.325 0.575,0.85 0.4625,1.0375 0.4625,2.85 0,1.9375 -0.5375,2.9625 -0.35,0.725 -1.025,1.05 -0.525,0.2625 -1.0625,0.2625 -1.4375,0 -2.1,-1.3125 -0.5375,-1.025 -0.5375,-2.9625 0,-1.1625 0.15,-1.9125 0.1625,-0.7625 0.5625,-1.4 z m 2.8125,-0.15 q -0.3625,-0.4 -0.8875,-0.4 -0.525,0 -0.9,0.4 -0.275,0.2875 -0.375,0.7 -0.1,0.4125 -0.125,1.425 0,0.075 -0.0125,0.4875 0,0.4125 0,0.6875 0,1.2 0.025,1.675 0.05,0.875 0.15,1.2625 0.1,0.375 0.375,0.65 0.3375,0.375 0.8625,0.375 0.5125,0 0.85,-0.375 0.275,-0.275 0.375,-0.65 0.1,-0.3875 0.15,-1.2625 0.025,-0.475 0.025,-1.675 0,-0.275 -0.0125,-0.6875 0,-0.4125 0,-0.4875 -0.025,-1.0125 -0.125,-1.425 -0.1,-0.4125 -0.375,-0.7 z"
       style="font-style:normal;font-variant:normal;font-weight:normal;font-stretch:normal;font-size:12.5px;line-height:125%;font-family:KaTeX_Main;-inkscape-font-specification:'KaTeX_Main, Normal';text-align:center;writing-mode:lr-tb;text-anchor:middle;fill:#000000"
       id="path4597" />
    <path
       d="m 80.585078,34.031231 q 0.7,-1.0125 1.9125,-1.0125 0.9125,0 1.6,0.625 0.3375,0.325 0.575,0.85 0.4625,1.0375 0.4625,2.85 0,1.9375 -0.5375,2.9625 -0.35,0.725 -1.025,1.05 -0.525,0.2625 -1.0625,0.2625 -1.4375,0 -2.1,-1.3125 -0.5375,-1.025 -0.5375,-2.9625 0,-1.1625 0.15,-1.9125 0.1625,-0.7625 0.5625,-1.4 z m 2.8125,-0.15 q -0.3625,-0.4 -0.8875,-0.4 -0.525,0 -0.9,0.4 -0.275,0.2875 -0.375,0.7 -0.1,0.4125 -0.125,1.425 0,0.075 -0.0125,0.4875 0,0.4125 0,0.6875 0,1.2 0.025,1.675 0.05,0.875 0.15,1.2625 0.1,0.375 0.375,0.65 0.3375,0.375 0.8625,0.375 0.5125,0 0.85,-0.375 0.275,-0.275 0.375,-0.65 0.1,-0.3875 0.15,-1.2625 0.025,-0.475 0.025,-1.675 0,-0.275 -0.0125,-0.6875 0,-0.4125 0,-0.4875 -0.025,-1.0125 -0.125,-1.425 -0.1,-0.4125 -0.375,-0.7 z"
       style="font-style:normal;font-variant:normal;font-weight:normal;font-stretch:normal;font-size:12.5px;line-height:125%;font-family:KaTeX_Main;-inkscape-font-specification:'KaTeX_Main, Normal';text-align:center;writing-mode:lr-tb;text-anchor:middle;fill:#000000"
       id="path4599" />
  </g>
  <line
     style="font-size:medium;font-family:sans-serif;text-anchor:end;fill:none"
     id="line186"
     y2="37.800426"
     x2="294.57489"
     y1="37.800426"
     x1="14.574903"
     class="grid" />
  <g
     style="font-style:normal;font-variant:normal;font-weight:normal;font-stretch:normal;font-size:22.5px;line-height:125%;font-family:KaTeX_Main;-inkscape-font-specification:'KaTeX_Main, Normal';text-align:center;writing-mode:lr-tb;text-anchor:middle;fill:#000000"
     id="text188">
    <path
       d="m 95.512696,13.375 q 0,-0.5175 0.4275,-0.945 0.4275,-0.4275 0.99,-0.4275 0.405,0 0.675,0.27 0.2925,0.27 0.2925,0.675 0,0.495 -0.45,0.945 -0.45,0.45 -0.99,0.45 -0.405,0 -0.675,-0.27 -0.27,-0.27 -0.27,-0.6975 z m -0.5175,13.7475 q -0.8775,0 -1.4175,-0.5175 -0.54,-0.5175 -0.54,-1.395 0,-0.3825 0.045,-0.5175 0,-0.045 1.035,-2.7675 1.035,-2.745 1.035,-2.79 0.1125,-0.36 0.1125,-0.81 0,-0.54 -0.3825,-0.54 l -0.045,0 q -0.54,0 -1.035,0.5175 -0.72,0.7425 -1.0575,2.115 0,0.0225 -0.0225,0.09 -0.0225,0.045 -0.045,0.0675 0,0 -0.0225,0.0225 -0.0225,0.0225 -0.09,0.0225 -0.045,0 -0.09,0 -0.045,0 -0.18,0 l -0.315,0 q -0.135,-0.135 -0.135,-0.2025 0,-0.0675 0.0675,-0.315 0.585,-1.935 1.71,-2.7 0.6075,-0.4725 1.305,-0.4725 0.9,0 1.485,0.5175 0.585,0.5175 0.585,1.395 0,0.2925 -0.1125,0.675 -0.0225,0.045 -1.035,2.7675 l -1.0125,2.7225 q -0.1125,0.495 -0.1125,0.72 0,0.5625 0.3825,0.5625 0.315,0 0.5625,-0.135 0.99,-0.4725 1.5525,-2.3625 0.0675,-0.27 0.1125,-0.315 0.0675,-0.045 0.3825,-0.045 0.2025,0 0.27,0.0225 0.09,0 0.135,0.045 0.045,0.045 0.045,0.1575 0,0.09 -0.0675,0.2925 -0.4275,1.2825 -1.2375,2.2275 -0.7875,0.945 -1.8675,0.945 z"
       style="font-style:normal;font-variant:normal;font-weight:normal;font-stretch:normal;font-size:22.5px;line-height:125%;font-family:KaTeX_Math;-inkscape-font-specification:'KaTeX_Math, Normal';text-align:center;writing-mode:lr-tb;text-anchor:middle"
       id="path4576" />
    <path
       d="m 112.26852,32.2975 q 0,0.2025 -0.405,0.2025 l -0.2925,0 q -0.1575,-0.135 -0.63,-0.54 -4.05,-3.69 -4.05,-10.71 0,-2.745 0.6525,-5.0175 1.035,-3.5325 3.3975,-5.6925 0.1575,-0.135 0.36,-0.2925 0.2025,-0.18 0.27,-0.2475 l 0.2925,0 q 0.27,0 0.3375,0.0675 0.0675,0.0675 0.0675,0.135 0,0.09 -0.2475,0.3375 -3.4875,3.69 -3.4875,10.71 0,7.02 3.4875,10.71 0.2475,0.2475 0.2475,0.3375 z"
       style="font-style:normal;font-variant:normal;font-weight:normal;font-stretch:normal;font-size:22.5px;line-height:125%;font-family:KaTeX_Main;-inkscape-font-specification:'KaTeX_Main, Normal';text-align:center;writing-mode:lr-tb;text-anchor:middle;fill:#000000"
       id="path4578" />
    <path
       d="m 116.98613,19.6525 q -0.3375,0.36 -0.855,0.36 -0.5175,0 -0.855,-0.36 -0.3375,-0.36 -0.3375,-0.855 0,-0.315 0.18,-0.72 0.2925,-0.6075 1.17,-0.945 0.8775,-0.3375 2.1375,-0.3375 1.485,0 2.565,0.675 1.1025,0.675 1.44,1.755 0.1125,0.315 0.1125,0.72 0.0225,0.3825 0.0225,2.565 0,2.205 0,2.5875 0.0225,0.36 0.135,0.5625 0.135,0.315 0.45,0.315 0.2925,0 0.4275,-0.315 0.135,-0.27 0.135,-1.2375 l 0,-0.81 0.9,0 0,0.8775 q -0.0225,0.9 -0.0675,1.0575 -0.2025,0.63 -0.7425,1.0575 -0.54,0.405 -1.2825,0.405 -0.5625,0 -1.0125,-0.3825 -0.4275,-0.405 -0.585,-0.9675 l 0,-0.09 q -0.0675,0.0675 -0.27,0.315 -0.2025,0.225 -0.2925,0.315 -1.1025,0.9225 -2.565,0.9225 -1.17,0 -2.0925,-0.495 -0.9225,-0.495 -1.2375,-1.305 -0.18,-0.4275 -0.18,-0.855 0,-1.0575 0.8775,-1.935 0.5175,-0.5175 1.2825,-0.855 1.53,-0.6975 3.915,-0.8325 l 0.315,0 0,-0.495 q 0,-0.765 -0.135,-1.125 -0.225,-0.7425 -0.7875,-1.17 -0.5625,-0.4275 -1.395,-0.4275 -1.5075,0 -1.5075,0.18 0.495,0.3375 0.495,0.99 0,0.495 -0.36,0.855 z m 3.69,3.285 q 0,-1.305 -0.0225,-1.305 -0.0675,0 -0.1125,0.0225 -3.0825,0.2025 -3.9375,1.8225 -0.2475,0.45 -0.2475,1.0125 0,0.765 0.54,1.2825 0.54,0.5175 1.3275,0.5175 0.9,0 1.53,-0.54 0.6525,-0.54 0.855,-1.3275 0.045,-0.1575 0.0675,-1.485 z"
       style="font-style:normal;font-variant:normal;font-weight:normal;font-stretch:normal;font-size:22.5px;line-height:125%;font-family:KaTeX_Main;-inkscape-font-specification:'KaTeX_Main, Normal';text-align:center;writing-mode:lr-tb;text-anchor:middle;fill:#000000"
       id="path4580" />
    <path
       d="m 129.00113,25.525 q 0.18,0.315 1.0575,0.315 l 0.315,0 0.36,0 0,1.035 -0.18,0 q -0.2925,-0.0675 -2.52,-0.0675 -2.2275,0 -2.52,0.0675 l -0.18,0 0,-1.035 0.36,0 0.315,0 q 0.8775,0 1.0575,-0.315 l 0,-0.18 q 0,-0.2025 0,-0.5175 0,-0.315 0,-0.6975 0.0225,-0.405 0.0225,-0.8775 0,-0.495 0,-0.945 0,-0.6975 -0.0225,-1.485 0,-0.81 0,-1.3275 l 0,-0.5175 q -0.0675,-0.4275 -0.3375,-0.5625 -0.2475,-0.1575 -0.99,-0.2025 l -0.405,0 0,-0.5175 q 0,-0.5175 0.045,-0.5175 l 0.225,-0.0225 q 0.225,-0.0225 0.63,-0.045 0.4275,-0.0225 0.8325,-0.045 0.3825,-0.0225 0.81,-0.045 0.4275,-0.045 0.6525,-0.0675 0.225,-0.0225 0.2475,-0.0225 l 0.0675,0 0,0.9 q 0,0.855 0.0225,0.855 l 0.0225,-0.0225 q 1.215,-1.7325 3.4425,-1.7325 2.1825,0.0675 2.6775,1.71 l 0.045,0.1125 q 0.54,-0.675 0.6075,-0.7425 1.1475,-1.08 2.6775,-1.08 2.8125,0 3.0825,2.5425 0.0225,0.1575 0.0225,3.1275 0,2.88 0.0225,2.925 0.09,0.18 0.27,0.2475 0.4725,0.0675 1.1025,0.0675 l 0.36,0 0,1.035 -0.18,0 q -0.2925,-0.0675 -2.52,-0.0675 -2.2275,0 -2.52,0.0675 l -0.18,0 0,-1.035 0.36,0 0.18,0 q 1.1925,0 1.1925,-0.36 0.0225,-0.045 0.0225,-3.105 -0.0225,-3.0375 -0.045,-3.2175 -0.1575,-0.72 -0.5175,-1.035 -0.3375,-0.3375 -1.0575,-0.3375 -1.0125,0 -1.7775,0.765 -0.7875,0.7875 -0.9225,1.98 0,0.0225 -0.0225,0.4275 0,0.3825 0,0.99 0,0.6075 0,1.1475 0,0.3375 0,0.72 0,0.36 0,0.6525 0,0.2925 0,0.54 0.0225,0.225 0.0225,0.3825 l 0,0.135 q 0.18,0.315 1.0575,0.315 l 0.315,0 0.36,0 0,1.035 -0.18,0 q -0.2925,-0.0675 -2.52,-0.0675 -2.2275,0 -2.52,0.0675 l -0.18,0 0,-1.035 0.36,0 0.18,0 q 1.1925,0 1.1925,-0.36 0.0225,-0.045 0.0225,-3.105 -0.0225,-3.0375 -0.045,-3.2175 -0.1575,-0.72 -0.5175,-1.035 -0.3375,-0.3375 -1.0575,-0.3375 -1.0125,0 -1.7775,0.765 -0.7875,0.7875 -0.9225,1.98 0,0.0225 0,0.4275 0,0.3825 -0.0225,0.99 0,0.6075 0,1.1475 0,0.3375 0,0.72 0,0.36 0,0.6525 0.0225,0.2925 0.0225,0.54 0,0.225 0,0.3825 l 0,0.135 z"
       style="font-style:normal;font-variant:normal;font-weight:normal;font-stretch:normal;font-size:22.5px;line-height:125%;font-family:KaTeX_Main;-inkscape-font-specification:'KaTeX_Main, Normal';text-align:center;writing-mode:lr-tb;text-anchor:middle;fill:#000000"
       id="path4582" />
    <path
       d="m 144.34578,30.205 0.315,0 q 0.8775,0 1.0575,-0.315 l 0,-0.18 q 0,-0.1575 0,-0.45 0,-0.27 0,-0.6525 0.0225,-0.3825 0.0225,-0.8775 0,-0.495 0,-0.99 0,-0.5175 0,-1.1025 0,-0.6075 0,-1.1475 0,-0.765 0,-1.5975 0,-0.8325 0,-1.485 0,-0.6525 -0.0225,-1.1925 0,-0.5625 0,-0.8775 0,-0.3375 0,-0.36 -0.0675,-0.4275 -0.3375,-0.5625 -0.2475,-0.1575 -0.99,-0.2025 l -0.405,0 0,-0.5175 q 0,-0.5175 0.045,-0.5175 l 0.225,-0.0225 q 0.225,-0.0225 0.6525,-0.045 0.4275,-0.0225 0.8325,-0.045 0.3825,-0.0225 0.8325,-0.045 0.45,-0.045 0.675,-0.0675 0.225,-0.0225 0.2475,-0.0225 l 0.0675,0 0,0.585 0.0225,0.585 0.18,-0.1575 q 1.3725,-0.99 3.105,-0.99 0.495,0 0.72,0.045 1.575,0.315 2.6325,1.6875 1.0575,1.3725 1.0575,3.33 0,0.4275 -0.045,0.7875 -0.225,1.4625 -1.1025,2.52 -0.855,1.0575 -2.2275,1.575 -0.675,0.225 -1.395,0.225 -1.53,0 -2.7,-0.99 l -0.18,-0.1575 0,1.9125 q 0,1.9575 0.0225,2.0025 0.09,0.18 0.27,0.2475 0.4725,0.0675 1.1025,0.0675 l 0.36,0 0,1.035 -0.18,0 q -0.2925,-0.0675 -2.52,-0.0675 -2.2275,0 -2.52,0.0675 l -0.18,0 0,-1.035 0.36,0 z m 8.73,-8.235 q 0,-1.5525 -0.6975,-2.745 -0.675,-1.1925 -1.665,-1.3725 -0.045,0 -0.1575,0 -0.09,-0.0225 -0.1575,-0.0225 -1.5975,0 -2.7675,1.4625 l 0,5.3775 q 0.9225,1.62 2.52,1.62 0.945,0 1.71,-0.8325 1.215,-1.26 1.215,-3.4875 z"
       style="font-style:normal;font-variant:normal;font-weight:normal;font-stretch:normal;font-size:22.5px;line-height:125%;font-family:KaTeX_Main;-inkscape-font-specification:'KaTeX_Main, Normal';text-align:center;writing-mode:lr-tb;text-anchor:middle;fill:#000000"
       id="path4584" />
    <path
       d="m 160.29125,17.56 q -2.07,0 -2.07,1.4625 0,0.2925 0.045,0.3825 0.2025,0.54 0.6975,0.7875 0.495,0.225 1.53,0.4275 1.2825,0.225 1.755,0.495 1.4175,0.675 1.8225,2.2275 0.0225,0.135 0.0225,0.54 0,0.8775 -0.315,1.5525 -0.8775,1.665 -3.3075,1.665 -1.35,0 -2.34,-0.81 l -0.18,0.1575 -0.2025,0.2025 q -0.135,0.135 -0.27,0.2475 l -0.2475,0.225 -0.18,0 q -0.1575,0 -0.2925,-0.135 l 0,-1.7775 q 0,-1.4625 0,-1.6875 0.0225,-0.225 0.1125,-0.27 0.045,-0.0225 0.36,-0.0225 0.2925,0 0.3375,0.045 0.0675,0.045 0.135,0.315 0.18,0.855 0.585,1.5525 0.7875,1.1475 2.1825,1.1475 2.1825,0 2.1825,-1.755 0,-0.6525 -0.405,-1.0575 -0.36,-0.4275 -0.945,-0.6075 -0.3825,-0.09 -1.08,-0.2475 -1.26,-0.2475 -1.71,-0.4725 -1.485,-0.6975 -1.7325,-2.0925 -0.0225,-0.09 -0.0225,-0.3375 0,-2.5875 3.1725,-2.9025 0.09,-0.045 0.54,0 0.9,0 1.575,0.3375 l 0.3375,0.18 0.2025,-0.1575 q 0.2925,-0.2475 0.495,-0.3825 l 0.18,0 q 0.1575,0 0.2925,0.135 l 0,2.97 -0.135,0.135 -0.63,0 q -0.135,-0.135 -0.135,-0.27 0,-1.035 -0.63,-1.62 -0.63,-0.585 -1.7325,-0.585 z"
       style="font-style:normal;font-variant:normal;font-weight:normal;font-stretch:normal;font-size:22.5px;line-height:125%;font-family:KaTeX_Main;-inkscape-font-specification:'KaTeX_Main, Normal';text-align:center;writing-mode:lr-tb;text-anchor:middle;fill:#000000"
       id="path4586" />
    <path
       d="m 166.19926,10.0225 0.09,-0.0225 q 0.1125,0 0.225,0 l 0.27,0 q 0.1575,0.135 0.63,0.54 4.05,3.69 4.05,10.71 0,2.7675 -0.6525,4.995 -1.035,3.555 -3.3975,5.715 -0.1575,0.135 -0.36,0.2925 -0.2025,0.18 -0.27,0.2475 l -0.27,0 q -0.27,0 -0.36,-0.045 -0.0675,-0.045 -0.0675,-0.225 0.0225,-0.0225 0.2475,-0.2925 3.4875,-3.6225 3.4875,-10.6875 0,-7.065 -3.4875,-10.6875 -0.225,-0.27 -0.2475,-0.2925 0,-0.18 0.1125,-0.2475 z"
       style="font-style:normal;font-variant:normal;font-weight:normal;font-stretch:normal;font-size:22.5px;line-height:125%;font-family:KaTeX_Main;-inkscape-font-specification:'KaTeX_Main, Normal';text-align:center;writing-mode:lr-tb;text-anchor:middle;fill:#000000"
       id="path4588" />
  </g>
  <path
     inkscape:connector-curvature="0"
     id="path190"
     d="m 14.574902,197.30043 80,0 L 294.5749,47.300426"
     class="path"
     style="fill:none;stroke:#00aad4;stroke-width:3;stroke-miterlimit:4;stroke-dasharray:none" />
</svg>
