<?xml version="1.0" encoding="UTF-8" standalone="no"?>
<!-- Generator: Adobe Illustrator 19.1.0, SVG Export Plug-In . SVG Version: 6.00 Build 0)  -->

<svg
   xmlns:dc="http://purl.org/dc/elements/1.1/"
   xmlns:cc="http://creativecommons.org/ns#"
   xmlns:rdf="http://www.w3.org/1999/02/22-rdf-syntax-ns#"
   xmlns:svg="http://www.w3.org/2000/svg"
   xmlns="http://www.w3.org/2000/svg"
   xmlns:sodipodi="http://sodipodi.sourceforge.net/DTD/sodipodi-0.dtd"
   xmlns:inkscape="http://www.inkscape.org/namespaces/inkscape"
   version="1.1"
   id="Layer_1"
   x="0px"
   y="0px"
   viewBox="0 0 295.7215 212.99996"
   xml:space="preserve"
   inkscape:version="0.91 r13725"
   sodipodi:docname="inductor_kickback5.svg"
   width="295.7215"
   height="212.99995"><metadata
     id="metadata181"><rdf:RDF><cc:Work
         rdf:about=""><dc:format>image/svg+xml</dc:format><dc:type
           rdf:resource="http://purl.org/dc/dcmitype/StillImage" /><dc:title></dc:title></cc:Work></rdf:RDF></metadata><defs
     id="defs179" /><sodipodi:namedview
     pagecolor="#ffffff"
     bordercolor="#666666"
     borderopacity="1"
     objecttolerance="10"
     gridtolerance="10"
     guidetolerance="10"
     inkscape:pageopacity="0"
     inkscape:pageshadow="2"
     inkscape:window-width="640"
     inkscape:window-height="480"
     id="namedview177"
     showgrid="false"
     fit-margin-top="10"
     fit-margin-right="10"
     fit-margin-bottom="10"
     fit-margin-left="10"
     inkscape:zoom="2.2690268"
     inkscape:cx="165.48945"
     inkscape:cy="88.871274"
     inkscape:current-layer="Layer_1" /><style
     type="text/css"
     id="style3">
	.st0{fill:none;stroke:#E8C11C;stroke-miterlimit:10;}
	.st1{fill:none;stroke:#11ACCD;stroke-width:3;stroke-linecap:round;stroke-miterlimit:10;}
	.st2{fill:#11ACCD;}
	.st3{fill:none;stroke:#11ACCD;stroke-width:4;stroke-miterlimit:10;}
	.st4{fill:none;stroke:#BABEC2;stroke-linecap:round;stroke-miterlimit:10;}
	.st5{fill:none;stroke:#11ACCD;stroke-width:6;stroke-miterlimit:10;}
	.st6{fill:none;stroke:#000000;stroke-linecap:round;stroke-linejoin:round;stroke-miterlimit:10;}
	.st7{fill:none;stroke:#000000;stroke-width:2;stroke-linecap:round;stroke-linejoin:round;stroke-miterlimit:10;}
	.st8{fill:none;stroke:#000000;stroke-width:2;stroke-miterlimit:10;}
	.st9{fill:none;stroke:#000000;stroke-linecap:round;stroke-miterlimit:10;}
	.st10{fill:none;stroke:#000000;stroke-width:1.5;stroke-miterlimit:10;}
	.st11{fill:none;stroke:#000000;stroke-width:2;stroke-linecap:round;stroke-miterlimit:10;}
	.st12{fill:none;}
	.st13{stroke:#000000;stroke-linecap:round;stroke-linejoin:round;stroke-miterlimit:10;}
	.st14{fill:none;stroke:#000000;stroke-miterlimit:10;}
	.st15{fill:#FFFFFF;stroke:#000000;stroke-miterlimit:10;}
	.st16{font-family:'KaTeX_Main-Regular';}
	.st17{font-size:21px;}
	.st18{font-family:'KaTeX_Main-Italic';}
	.st19{font-size:18px;}
	.st20{fill:#1FAB54;}
	.st21{fill:none;stroke:#000000;stroke-width:5;stroke-miterlimit:10;}
	.st22{fill:none;stroke:#000000;stroke-width:4;stroke-miterlimit:10;}
	.st23{fill:#FF9C39;}
	.st24{fill:#E8C11C;}
	.st25{fill:none;stroke:#E8C11C;stroke-linecap:round;stroke-miterlimit:10;}
	.st26{fill:#BABEC2;stroke:#BABEC2;stroke-linecap:round;stroke-linejoin:round;stroke-miterlimit:10;}
	.st27{fill:#BABEC2;stroke:#BABEC2;stroke-miterlimit:10;}
	.st28{fill:none;stroke:#BABEC2;stroke-linecap:round;stroke-linejoin:round;stroke-miterlimit:10;}
	.st29{fill:none;stroke:#1FAB54;stroke-width:2;stroke-linecap:round;stroke-miterlimit:10;}
	.st30{fill:none;stroke:#BABEC2;stroke-width:2;stroke-linecap:round;stroke-miterlimit:10;}
	.st31{fill:#BABEC2;}
	.st32{fill:none;stroke:#BABEC2;stroke-width:2;stroke-miterlimit:10;}
	.st33{fill:none;stroke:#BABEC2;stroke-width:2;stroke-linecap:round;stroke-linejoin:round;stroke-miterlimit:10;}
	.st34{opacity:0.1;fill:none;stroke:#000000;stroke-width:2;enable-background:new    ;}
	.st35{fill:none;stroke:#000000;stroke-width:2;stroke-linecap:round;stroke-linejoin:round;}
	.st36{fill:none;stroke:#000000;stroke-width:2;}
	.st37{fill:none;stroke:#000000;}
	.st38{clip-path:url(#SVGID_2_);fill:none;stroke:#29ABCA;stroke-width:5;}
	.st39{clip-path:url(#SVGID_4_);fill:none;stroke:#29ABCA;stroke-width:5;}
	.st40{clip-path:url(#SVGID_6_);fill:none;stroke:#E1A158;stroke-width:5;}
	.st41{clip-path:url(#SVGID_8_);fill:none;stroke:#E1A158;stroke-width:5;}
	.st42{clip-path:url(#SVGID_10_);fill:none;stroke:#E1A158;stroke-width:5;}
	.st43{fill:#E07D10;}
	.st44{fill:none;stroke:#FF9C39;stroke-width:2;stroke-linecap:round;stroke-miterlimit:10;}
	.st45{fill:none;stroke:#E07D10;stroke-width:2;stroke-linecap:round;stroke-miterlimit:10;}
	.st46{fill:none;stroke:#000000;stroke-width:4;stroke-linecap:round;stroke-miterlimit:10;}
	.st47{fill:none;stroke:#11ACCD;stroke-width:4;stroke-linecap:round;stroke-miterlimit:10;}
	.st48{fill:none;stroke:#E8C11C;stroke-width:2;stroke-miterlimit:10;}
</style><ellipse
     class="st0"
     cx="140.7215"
     cy="133.39999"
     rx="12"
     ry="15"
     id="ellipse5"
     style="fill:none;stroke:#e8c11c;stroke-miterlimit:10" /><g
     id="g7"
     transform="translate(-3.2785,-1.5)"><circle
       cx="264"
       cy="119.9"
       r="9"
       id="circle9" /><rect
       x="252"
       y="107.9"
       class="st12"
       width="24"
       height="24"
       id="rect11"
       style="fill:none" /></g><g
     id="g13"
     transform="translate(-3.2785,-1.5)"><polyline
       class="st6"
       points="108.3,192 115.8,192 115.8,192 115.8,192 108.3,204 100.8,192 108.3,192 108.3,180  "
       id="polyline15"
       style="fill:none;stroke:#000000;stroke-linecap:round;stroke-linejoin:round;stroke-miterlimit:10" /><rect
       x="96.300003"
       y="180"
       class="st12"
       width="24"
       height="24"
       id="rect17"
       style="fill:none" /></g><g
     id="g19"
     transform="translate(-3.2785,-1.5)"><circle
       class="st13"
       cx="108.3"
       cy="180"
       r="1.5"
       id="circle21"
       style="stroke:#000000;stroke-linecap:round;stroke-linejoin:round;stroke-miterlimit:10" /><rect
       x="102.3"
       y="174"
       class="st12"
       width="12"
       height="12"
       id="rect23"
       style="fill:none" /></g><g
     id="g25"
     transform="translate(-3.2785,-1.5)"><circle
       class="st8"
       cx="66.300003"
       cy="102"
       r="18"
       id="circle27"
       style="fill:none;stroke:#000000;stroke-width:2;stroke-miterlimit:10" /><polyline
       class="st9"
       points="66.3,84 66.3,60 66.3,12 150.3,12 150.3,24  "
       id="polyline29"
       style="fill:none;stroke:#000000;stroke-linecap:round;stroke-miterlimit:10" /><polyline
       class="st6"
       points="150.3,156 150.3,180 66.3,180 66.3,144 66.3,120  "
       id="polyline31"
       style="fill:none;stroke:#000000;stroke-linecap:round;stroke-linejoin:round;stroke-miterlimit:10" /><line
       class="st10"
       x1="66.300003"
       y1="88.5"
       x2="66.300003"
       y2="100.5"
       id="line33"
       style="fill:none;stroke:#000000;stroke-width:1.5;stroke-miterlimit:10" /><line
       class="st10"
       x1="60.299999"
       y1="94.5"
       x2="72.300003"
       y2="94.5"
       id="line35"
       style="fill:none;stroke:#000000;stroke-width:1.5;stroke-miterlimit:10" /><line
       class="st10"
       x1="60.299999"
       y1="112.5"
       x2="72.300003"
       y2="112.5"
       id="line37"
       style="fill:none;stroke:#000000;stroke-width:1.5;stroke-miterlimit:10" /></g><g
     id="g39"
     transform="translate(-3.2785,-1.5)"><line
       class="st9"
       x1="150.3"
       y1="96"
       x2="150.3"
       y2="108"
       id="line41"
       style="fill:none;stroke:#000000;stroke-linecap:round;stroke-miterlimit:10" /><path
       class="st11"
       d="m 150.3,82.2 c -5,0 -9,3.1 -9,6.9 0,3.8 4,6.9 9,6.9"
       id="path43"
       inkscape:connector-curvature="0"
       style="fill:none;stroke:#000000;stroke-width:2;stroke-linecap:round;stroke-miterlimit:10" /><path
       class="st11"
       d="m 150.3,82.2 c 5,0 9,1 9,2.3 0,1.3 -4,2.3 -9,2.3"
       id="path45"
       inkscape:connector-curvature="0"
       style="fill:none;stroke:#000000;stroke-width:2;stroke-linecap:round;stroke-miterlimit:10" /><path
       class="st11"
       d="m 150.3,72.9 c -5,0 -9,3.1 -9,6.9 0,3.8 4,6.9 9,6.9"
       id="path47"
       inkscape:connector-curvature="0"
       style="fill:none;stroke:#000000;stroke-width:2;stroke-linecap:round;stroke-miterlimit:10" /><path
       class="st11"
       d="m 150.3,72.9 c 5,0 9,1 9,2.3 0,1.3 -4,2.3 -9,2.3"
       id="path49"
       inkscape:connector-curvature="0"
       style="fill:none;stroke:#000000;stroke-width:2;stroke-linecap:round;stroke-miterlimit:10" /><path
       class="st11"
       d="m 150.3,63.7 c -5,0 -9,3.1 -9,6.9 0,3.8 4,6.9 9,6.9"
       id="path51"
       inkscape:connector-curvature="0"
       style="fill:none;stroke:#000000;stroke-width:2;stroke-linecap:round;stroke-miterlimit:10" /><path
       class="st11"
       d="m 150.3,63.7 c 5,0 9,1 9,2.3 0,1.3 -4,2.3 -9,2.3"
       id="path53"
       inkscape:connector-curvature="0"
       style="fill:none;stroke:#000000;stroke-width:2;stroke-linecap:round;stroke-miterlimit:10" /><path
       class="st11"
       d="m 150.3,54.5 c -5,0 -9,3.1 -9,6.9 0,3.8 4,6.9 9,6.9"
       id="path55"
       inkscape:connector-curvature="0"
       style="fill:none;stroke:#000000;stroke-width:2;stroke-linecap:round;stroke-miterlimit:10" /><path
       class="st11"
       d="m 150.3,54.5 c 5,0 9,1 9,2.3 0,1.3 -4,2.3 -9,2.3"
       id="path57"
       inkscape:connector-curvature="0"
       style="fill:none;stroke:#000000;stroke-width:2;stroke-linecap:round;stroke-miterlimit:10" /><path
       class="st11"
       d="m 150.3,45.2 c 5,0 9,1 9,2.3 0,1.3 -4,2.3 -9,2.3"
       id="path59"
       inkscape:connector-curvature="0"
       style="fill:none;stroke:#000000;stroke-width:2;stroke-linecap:round;stroke-miterlimit:10" /><path
       class="st11"
       d="m 150.3,45.2 c -5,0 -9,3.1 -9,6.9 0,3.8 4,6.9 9,6.9"
       id="path61"
       inkscape:connector-curvature="0"
       style="fill:none;stroke:#000000;stroke-width:2;stroke-linecap:round;stroke-miterlimit:10" /><path
       class="st11"
       d="m 150.3,36 c -5,0 -9,3.1 -9,6.9 0,3.8 4,6.9 9,6.9"
       id="path63"
       inkscape:connector-curvature="0"
       style="fill:none;stroke:#000000;stroke-width:2;stroke-linecap:round;stroke-miterlimit:10" /><line
       class="st9"
       x1="150.3"
       y1="24"
       x2="150.3"
       y2="36"
       id="line65"
       style="fill:none;stroke:#000000;stroke-linecap:round;stroke-miterlimit:10" /><rect
       x="138.3"
       y="24"
       class="st12"
       width="24"
       height="84"
       id="rect67"
       style="fill:none" /></g><g
     id="g69"
     transform="translate(-3.2785,-1.5)"><circle
       cx="150.3"
       cy="156"
       r="3"
       id="circle71" /><rect
       x="144.3"
       y="150"
       class="st12"
       width="12"
       height="12"
       id="rect73"
       style="fill:none" /></g><g
     id="g75"
     transform="translate(-3.2785,-1.5)"><circle
       cx="150.3"
       cy="132"
       r="3"
       id="circle77" /><rect
       x="144.3"
       y="126"
       class="st12"
       width="12"
       height="12"
       id="rect79"
       style="fill:none" /></g><line
     class="st9"
     x1="147.0215"
     y1="106.5"
     x2="147.0215"
     y2="130.5"
     id="line81"
     style="fill:none;stroke:#000000;stroke-linecap:round;stroke-miterlimit:10" /><polyline
     class="st14"
     points="144.3,126 144.3,144 144.3,162 "
     id="polyline83"
     style="fill:none;stroke:#000000;stroke-miterlimit:10"
     transform="translate(-3.2785,-1.5)" /><g
     id="g85"
     transform="translate(-3.2785,-1.5)"><g
       id="g87"><line
         class="st14"
         x1="136"
         y1="144"
         x2="144.3"
         y2="144"
         id="line89"
         style="fill:none;stroke:#000000;stroke-miterlimit:10" /><g
         id="g91"><path
           d="m 132.3,144 c 1.7,0.6 3.8,1.7 5.1,2.9 l -1,-2.9 1,-2.9 c -1.2,1.2 -3.4,2.3 -5.1,2.9 z"
           id="path93"
           inkscape:connector-curvature="0" /></g></g></g><g
     style="font-style:normal;font-variant:normal;font-weight:normal;font-stretch:normal;font-size:22.5px;line-height:125%;font-family:KaTeX_Main;-inkscape-font-specification:'KaTeX_Main, Normal';text-align:start;writing-mode:lr-tb;text-anchor:start"
     id="text95"><path
       d="m 168.4151,34.500099 q -0.3825,-0.0675 -3.5775,-0.0675 -3.15,0 -3.5325,0.0675 l -0.27,0 0,-1.035 0.585,0 q 1.305,0 1.6875,-0.0675 0.18,-0.0225 0.54,-0.27 l 0,-11.6325 q -0.045,0 -0.18,0.0675 -1.035,0.405 -2.3175,0.4275 l -0.4275,0 0,-1.035 0.4275,0 q 1.89,-0.0675 3.15,-0.855 0.405,-0.225 0.6975,-0.5175 0.045,-0.0675 0.27,-0.0675 0.225,0 0.3825,0.135 l 0,6.7275 0.0225,6.75 q 0.3375,0.3375 1.4625,0.3375 l 0.7425,0 0.585,0 0,1.035 -0.2475,0 z"
       style="font-style:normal;font-variant:normal;font-weight:normal;font-stretch:normal;font-size:22.5px;line-height:125%;font-family:KaTeX_Main;-inkscape-font-specification:'KaTeX_Main, Normal';text-align:start;writing-mode:lr-tb;text-anchor:start"
       id="path4362" /><path
       d="m 172.4651,21.337599 q 1.26,-1.8225 3.4425,-1.8225 1.6425,0 2.88,1.125 0.6075,0.585 1.035,1.53 0.8325,1.8675 0.8325,5.13 0,3.4875 -0.9675,5.3325 -0.63,1.305 -1.845,1.89 -0.945,0.4725 -1.9125,0.4725 -2.5875,0 -3.78,-2.3625 -0.9675,-1.845 -0.9675,-5.3325 0,-2.0925 0.27,-3.4425 0.2925,-1.3725 1.0125,-2.52 z m 5.0625,-0.27 q -0.6525,-0.72 -1.5975,-0.72 -0.945,0 -1.62,0.72 -0.495,0.5175 -0.675,1.26 -0.18,0.7425 -0.225,2.565 0,0.135 -0.0225,0.8775 0,0.7425 0,1.2375 0,2.16 0.045,3.015 0.09,1.575 0.27,2.2725 0.18,0.675 0.675,1.17 0.6075,0.675 1.5525,0.675 0.9225,0 1.53,-0.675 0.495,-0.495 0.675,-1.17 0.18,-0.6975 0.27,-2.2725 0.045,-0.855 0.045,-3.015 0,-0.495 -0.0225,-1.2375 0,-0.7425 0,-0.8775 -0.045,-1.8225 -0.225,-2.565 -0.18,-0.7425 -0.675,-1.26 z"
       style="font-style:normal;font-variant:normal;font-weight:normal;font-stretch:normal;font-size:22.5px;line-height:125%;font-family:KaTeX_Main;-inkscape-font-specification:'KaTeX_Main, Normal';text-align:start;writing-mode:lr-tb;text-anchor:start"
       id="path4364" /><path
       d="m 188.7851,33.150099 q 0.18,0.315 1.0575,0.315 l 0.315,0 0.36,0 0,1.035 -0.18,0 q -0.2925,-0.0675 -2.52,-0.0675 -2.2275,0 -2.52,0.0675 l -0.18,0 0,-1.035 0.36,0 0.315,0 q 0.8775,0 1.0575,-0.315 l 0,-0.18 q 0,-0.2025 0,-0.5175 0,-0.315 0,-0.6975 0.0225,-0.405 0.0225,-0.8775 0,-0.495 0,-0.945 0,-0.6975 -0.0225,-1.485 0,-0.81 0,-1.3275 l 0,-0.5175 q -0.0675,-0.4275 -0.3375,-0.5625 -0.2475,-0.1575 -0.99,-0.2025 l -0.405,0 0,-0.5175 q 0,-0.5175 0.045,-0.5175 l 0.225,-0.0225 q 0.225,-0.0225 0.63,-0.045 0.4275,-0.0225 0.8325,-0.045 0.3825,-0.0225 0.81,-0.045 0.4275,-0.045 0.6525,-0.0675 0.225,-0.0225 0.2475,-0.0225 l 0.0675,0 0,0.9 q 0,0.855 0.0225,0.855 l 0.0225,-0.0225 q 1.215,-1.7325 3.4425,-1.7325 2.1825,0.0675 2.6775,1.71 l 0.045,0.1125 q 0.54,-0.675 0.6075,-0.7425 1.1475,-1.08 2.6775,-1.08 2.8125,0 3.0825,2.5425 0.0225,0.1575 0.0225,3.1275 0,2.88 0.0225,2.925 0.09,0.18 0.27,0.2475 0.4725,0.0675 1.1025,0.0675 l 0.36,0 0,1.035 -0.18,0 q -0.2925,-0.0675 -2.52,-0.0675 -2.2275,0 -2.52,0.0675 l -0.18,0 0,-1.035 0.36,0 0.18,0 q 1.1925,0 1.1925,-0.36 0.0225,-0.045 0.0225,-3.105 -0.0225,-3.0375 -0.045,-3.2175 -0.1575,-0.72 -0.5175,-1.035 -0.3375,-0.3375 -1.0575,-0.3375 -1.0125,0 -1.7775,0.765 -0.7875,0.7875 -0.9225,1.98 0,0.0225 -0.0225,0.4275 0,0.3825 0,0.99 0,0.6075 0,1.1475 0,0.3375 0,0.72 0,0.36 0,0.6525 0,0.2925 0,0.54 0.0225,0.225 0.0225,0.3825 l 0,0.135 q 0.18,0.315 1.0575,0.315 l 0.315,0 0.36,0 0,1.035 -0.18,0 q -0.2925,-0.0675 -2.52,-0.0675 -2.2275,0 -2.52,0.0675 l -0.18,0 0,-1.035 0.36,0 0.18,0 q 1.1925,0 1.1925,-0.36 0.0225,-0.045 0.0225,-3.105 -0.0225,-3.0375 -0.045,-3.2175 -0.1575,-0.72 -0.5175,-1.035 -0.3375,-0.3375 -1.0575,-0.3375 -1.0125,0 -1.7775,0.765 -0.7875,0.7875 -0.9225,1.98 0,0.0225 0,0.4275 0,0.3825 -0.0225,0.99 0,0.6075 0,1.1475 0,0.3375 0,0.72 0,0.36 0,0.6525 0.0225,0.2925 0.0225,0.54 0,0.225 0,0.3825 l 0,0.135 z"
       style="font-style:normal;font-variant:normal;font-weight:normal;font-stretch:normal;font-size:22.5px;line-height:125%;font-family:KaTeX_Main;-inkscape-font-specification:'KaTeX_Main, Normal';text-align:start;writing-mode:lr-tb;text-anchor:start"
       id="path4366" /><path
       d="m 206.19975,20.505099 q -0.225,-0.225 -0.45,-0.27 -0.2025,-0.045 -1.125,-0.0675 l -0.7425,0 0,-1.035 0.2475,0 q 0.3825,0.0675 3.24,0.0675 2.8575,0 3.24,-0.0675 l 0.2475,0 0,1.035 -0.7425,0 q -0.9225,0.0225 -1.17,0.0675 -0.225,0.045 -0.3825,0.27 l -0.0225,2.745 0,2.745 6.4125,0 0,-5.49 q -0.225,-0.225 -0.45,-0.27 -0.2025,-0.045 -1.125,-0.0675 l -0.7425,0 0,-1.035 0.2475,0 q 0.3825,0.0675 3.24,0.0675 2.8575,0 3.24,-0.0675 l 0.2475,0 0,1.035 -0.7425,0 q -0.9225,0.0225 -1.17,0.0675 -0.225,0.045 -0.3825,0.27 l 0,12.6225 q 0.1575,0.225 0.3825,0.27 0.2475,0.045 1.17,0.0675 l 0.7425,0 0,1.035 -0.2475,0 q -0.3825,-0.0675 -3.24,-0.0675 -2.8575,0 -3.24,0.0675 l -0.2475,0 0,-1.035 0.7425,0 q 0.9225,-0.0225 1.125,-0.0675 0.225,-0.045 0.45,-0.27 l 0,-6.0975 -6.4125,0 0,3.0375 0.0225,3.06 q 0.1575,0.225 0.3825,0.27 0.2475,0.045 1.17,0.0675 l 0.7425,0 0,1.035 -0.2475,0 q -0.3825,-0.0675 -3.24,-0.0675 -2.8575,0 -3.24,0.0675 l -0.2475,0 0,-1.035 0.7425,0 q 0.9225,-0.0225 1.125,-0.0675 0.225,-0.045 0.45,-0.27 l 0,-12.6225 z"
       style="font-style:normal;font-variant:normal;font-weight:normal;font-stretch:normal;font-size:22.5px;line-height:125%;font-family:KaTeX_Main;-inkscape-font-specification:'KaTeX_Main, Normal';text-align:start;writing-mode:lr-tb;text-anchor:start"
       id="path4368" /></g><g
     style="font-style:normal;font-variant:normal;font-weight:normal;font-stretch:normal;font-size:22.5px;line-height:125%;font-family:KaTeX_Main;-inkscape-font-specification:'KaTeX_Main, Normal';text-align:start;writing-mode:lr-tb;text-anchor:start"
     id="text97"><path
       d="m 11.9125,96.082599 q -0.6075,0 -0.9675,-0.3825 -0.3375,-0.3825 -0.3375,-0.99 0,-1.2825 1.0125,-2.1375 1.0125,-0.8775 2.34,-1.035 l 0.3375,0 q 0.7875,0 0.99,0.0225 0.7425,0.1125 1.5075,0.4725 1.485,0.7425 1.8675,2.115 0.0675,0.225 0.0675,0.6075 0,1.3275 -0.8325,2.385 -0.81,1.035 -2.0475,1.485 -0.1125,0.045 0,0.0675 0.045,0.0225 0.225,0.0675 1.3725,0.3825 2.3175,1.440001 0.945,1.035 0.945,2.3625 0,0.9225 -0.4275,1.7775 -0.54,1.1475 -1.7775,1.9125 -1.215,0.7425 -2.7225,0.7425 -1.485,0 -2.6325,-0.63 -1.1475,-0.63 -1.5525,-1.6875 Q 10,104.2051 10,103.5751 q 0,-0.63 0.405,-1.0125 0.4275,-0.405 1.0125,-0.405 0.63,0 1.035,0.405 0.405,0.405 0.405,1.0125 0,0.5175 -0.2925,0.9 -0.2925,0.3825 -0.7875,0.495 l -0.1575,0.045 q 1.215,1.0125 2.79,1.0125 1.2375,0 1.8675,-1.1925 0.3825,-0.7425 0.3825,-2.2725 l 0,-0.45 q 0,-2.137501 -1.44,-2.857501 -0.3375,-0.135 -1.3725,-0.1575 l -0.945,-0.0225 -0.0675,-0.045 q -0.045,-0.0675 -0.045,-0.36 0,-0.27 0.0675,-0.3375 0.0675,-0.0675 0.1125,-0.0675 0.63,0 1.305,-0.1125 0.99,-0.135 1.5075,-1.1025 0.5175,-0.99 0.5175,-2.3625 0,-1.4625 -0.7875,-1.9575 -0.4725,-0.315 -1.0575,-0.315 -1.125,0 -1.98,0.6075 -0.09,0.045 -0.2025,0.1575 -0.1125,0.09 -0.18,0.18 l -0.0675,0.09 q 0.0675,0.0225 0.1575,0.045 0.45,0.045 0.7425,0.4275 0.315,0.3825 0.315,0.8775 0,0.54 -0.3825,0.9225 -0.36,0.36 -0.945,0.36 z"
       style="font-style:normal;font-variant:normal;font-weight:normal;font-stretch:normal;font-size:22.5px;line-height:125%;font-family:KaTeX_Main;-inkscape-font-specification:'KaTeX_Main, Normal';text-align:start;writing-mode:lr-tb;text-anchor:start"
       id="path4357" /><path
       d="m 25.87,92.550099 q -0.2475,-0.2475 -0.45,-0.2925 -0.2025,-0.0675 -1.035,-0.09 l -0.6525,0 0,-1.035 0.2025,0 q 0.315,0.0675 2.79,0.0675 2.7,0 3.195,-0.0675 l 0.2475,0 0,1.035 -0.4725,0 q -1.035,0.0225 -1.2825,0.2475 -0.09,0.0675 -0.09,0.135 0,0.045 2.025,5.58 2.025,5.535001 2.0475,5.535001 0.8775,-2.3625 1.935,-5.220001 1.9125,-5.175 1.9125,-5.3775 0,-0.4275 -0.4725,-0.6525 -0.4725,-0.2475 -1.035,-0.2475 l -0.1125,0 0,-1.035 0.2025,0 q 0.3825,0.0675 2.5875,0.0675 1.935,0 2.1825,-0.0675 l 0.135,0 0,1.035 -0.1575,0 q -1.665,0 -2.16,0.9225 0,0.0225 -2.5425,6.8625 -2.52,6.840001 -2.5425,6.862501 -0.0675,0.18 -0.405,0.18 l -0.2025,0 -0.2025,0 q -0.315,0 -0.3825,-0.18 -0.045,-0.045 -2.6325,-7.132501 -2.6325,-7.065 -2.6325,-7.1325 z"
       style="font-style:normal;font-variant:normal;font-weight:normal;font-stretch:normal;font-size:22.5px;line-height:125%;font-family:KaTeX_Main;-inkscape-font-specification:'KaTeX_Main, Normal';text-align:start;writing-mode:lr-tb;text-anchor:start"
       id="path4359" /></g><g
     style="font-style:normal;font-variant:normal;font-weight:normal;font-stretch:normal;font-size:22.5px;line-height:125%;font-family:KaTeX_Main;-inkscape-font-specification:'KaTeX_Main, Normal';text-align:start;writing-mode:lr-tb;text-anchor:start"
     id="text99"><path
       d="m 99.865,151.83011 0.315,0 q 0.8775,0 1.0575,-0.315 l 0,-0.18 q 0,-0.1575 0,-0.45 0,-0.27 0,-0.6525 0.0225,-0.3825 0.0225,-0.8775 0,-0.495 0,-0.99 0,-0.5175 0,-1.1025 0,-0.6075 0,-1.1475 0,-0.765 0,-1.5975 0,-0.8325 0,-1.485 0,-0.6525 -0.0225,-1.1925 0,-0.5625 0,-0.8775 0,-0.3375 0,-0.36 -0.0675,-0.4275 -0.3375,-0.5625 -0.2475,-0.1575 -0.99,-0.2025 l -0.405,0 0,-0.5175 q 0,-0.5175 0.045,-0.5175 l 0.225,-0.0225 q 0.225,-0.0225 0.6525,-0.045 0.4275,-0.0225 0.8325,-0.045 0.3825,-0.0225 0.8325,-0.045 0.45,-0.045 0.675,-0.0675 0.225,-0.0225 0.2475,-0.0225 l 0.0675,0 0,0.585 0.0225,0.585 0.18,-0.1575 q 1.3725,-0.99 3.105,-0.99 0.495,0 0.72,0.045 1.575,0.315 2.6325,1.6875 1.0575,1.3725 1.0575,3.33 0,0.4275 -0.045,0.7875 -0.225,1.4625 -1.1025,2.52 -0.855,1.0575 -2.2275,1.575 -0.675,0.225 -1.395,0.225 -1.53,0 -2.7,-0.99 l -0.18,-0.1575 0,1.9125 q 0,1.9575 0.0225,2.0025 0.09,0.18 0.27,0.2475 0.4725,0.0675 1.1025,0.0675 l 0.36,0 0,1.035 -0.18,0 q -0.2925,-0.0675 -2.52,-0.0675 -2.2275,0 -2.52,0.0675 l -0.18,0 0,-1.035 0.36,0 z m 8.73,-8.235 q 0,-1.5525 -0.6975,-2.745 -0.675,-1.1925 -1.665,-1.3725 -0.045,0 -0.1575,0 -0.09,-0.0225 -0.1575,-0.0225 -1.5975,0 -2.7675,1.4625 l 0,5.3775 q 0.9225,1.62 2.52,1.62 0.945,0 1.71,-0.8325 1.215,-1.26 1.215,-3.4875 z"
       style="font-style:normal;font-variant:normal;font-weight:normal;font-stretch:normal;font-size:22.5px;line-height:125%;font-family:KaTeX_Main;-inkscape-font-specification:'KaTeX_Main, Normal';text-align:start;writing-mode:lr-tb;text-anchor:start"
       id="path4352" /><path
       d="m 113.74047,133.02011 q 0.3825,-0.0225 0.8325,-0.045 0.45,-0.045 0.675,-0.0675 0.225,-0.0225 0.2475,-0.0225 l 0.0675,0 0,3.3975 q 0,3.42 0.0225,3.42 0.0675,-0.045 0.135,-0.1125 1.2375,-1.035 3.0825,-1.035 0.405,0 0.7425,0.0675 1.5975,0.315 2.655,1.6875 1.08,1.35 1.08,3.33 0,0.4275 -0.045,0.7875 -0.2925,1.8225 -1.5975,3.0825 -1.2825,1.2375 -3.195,1.2375 -1.7325,0 -2.97,-1.3275 l -0.1575,-0.1575 -0.225,0.405 q -0.045,0.0675 -0.135,0.225 -0.0675,0.135 -0.135,0.2475 -0.045,0.09 -0.0675,0.135 l -0.1125,0.2025 -0.45,0.0225 -0.45,0 0,-6.705 q 0,-6.7725 -0.0225,-6.8625 -0.0675,-0.4275 -0.3375,-0.5625 -0.2475,-0.1575 -0.99,-0.2025 l -0.405,0 0,-0.5175 q 0,-0.5175 0.045,-0.5175 l 0.225,-0.0225 q 0.225,-0.0225 0.6525,-0.045 0.4275,-0.0225 0.8325,-0.045 z m 5.2425,6.435 q -0.54,-0.0675 -0.6975,-0.0675 -1.575,0 -2.52,1.305 l -0.135,0.18 0,5.4225 0.1125,0.1575 q 0.675,1.08 1.7325,1.3725 0.2925,0.09 0.6975,0.09 1.44,0 2.2725,-1.215 0.18,-0.2475 0.36,-0.7425 0.27,-0.7875 0.27,-2.2275 0,-1.665 -0.27,-2.4975 -0.4725,-1.4175 -1.8225,-1.7775 z"
       style="font-style:normal;font-variant:normal;font-weight:normal;font-stretch:normal;font-size:22.5px;line-height:125%;font-family:KaTeX_Main;-inkscape-font-specification:'KaTeX_Main, Normal';text-align:start;writing-mode:lr-tb;text-anchor:start"
       id="path4354" /></g><g
     style="font-style:normal;font-variant:normal;font-weight:normal;font-stretch:normal;font-size:22.5px;line-height:125%;font-family:KaTeX_Main;-inkscape-font-specification:'KaTeX_Main, Normal';text-align:start;writing-mode:lr-tb;text-anchor:start"
     id="text101"><path
       d="m 243.5315,175.70511 0.315,0 q 0.8775,0 1.0575,-0.315 l 0,-0.18 q 0,-0.1575 0,-0.45 0,-0.27 0,-0.6525 0.0225,-0.3825 0.0225,-0.8775 0,-0.495 0,-0.99 0,-0.5175 0,-1.1025 0,-0.6075 0,-1.1475 0,-0.765 0,-1.5975 0,-0.8325 0,-1.485 0,-0.6525 -0.0225,-1.1925 0,-0.5625 0,-0.8775 0,-0.3375 0,-0.36 -0.0675,-0.4275 -0.3375,-0.5625 -0.2475,-0.1575 -0.99,-0.2025 l -0.405,0 0,-0.5175 q 0,-0.5175 0.045,-0.5175 l 0.225,-0.0225 q 0.225,-0.0225 0.6525,-0.045 0.4275,-0.0225 0.8325,-0.045 0.3825,-0.0225 0.8325,-0.045 0.45,-0.045 0.675,-0.0675 0.225,-0.0225 0.2475,-0.0225 l 0.0675,0 0,0.585 0.0225,0.585 0.18,-0.1575 q 1.3725,-0.99 3.105,-0.99 0.495,0 0.72,0.045 1.575,0.315 2.6325,1.6875 1.0575,1.3725 1.0575,3.33 0,0.4275 -0.045,0.7875 -0.225,1.4625 -1.1025,2.52 -0.855,1.0575 -2.2275,1.575 -0.675,0.225 -1.395,0.225 -1.53,0 -2.7,-0.99 l -0.18,-0.1575 0,1.9125 q 0,1.9575 0.0225,2.0025 0.09,0.18 0.27,0.2475 0.4725,0.0675 1.1025,0.0675 l 0.36,0 0,1.035 -0.18,0 q -0.2925,-0.0675 -2.52,-0.0675 -2.2275,0 -2.52,0.0675 l -0.18,0 0,-1.035 0.36,0 z m 8.73,-8.235 q 0,-1.5525 -0.6975,-2.745 -0.675,-1.1925 -1.665,-1.3725 -0.045,0 -0.1575,0 -0.09,-0.0225 -0.1575,-0.0225 -1.5975,0 -2.7675,1.4625 l 0,5.3775 q 0.9225,1.62 2.52,1.62 0.945,0 1.71,-0.8325 1.215,-1.26 1.215,-3.4875 z"
       style="font-style:normal;font-variant:normal;font-weight:normal;font-stretch:normal;font-size:22.5px;line-height:125%;font-family:KaTeX_Main;-inkscape-font-specification:'KaTeX_Main, Normal';text-align:start;writing-mode:lr-tb;text-anchor:start"
       id="path4347" /><path
       d="m 257.40697,156.89511 q 0.3825,-0.0225 0.8325,-0.045 0.45,-0.045 0.675,-0.0675 0.225,-0.0225 0.2475,-0.0225 l 0.0675,0 0,3.3975 q 0,3.42 0.0225,3.42 0.0675,-0.045 0.135,-0.1125 1.2375,-1.035 3.0825,-1.035 0.405,0 0.7425,0.0675 1.5975,0.315 2.655,1.6875 1.08,1.35 1.08,3.33 0,0.4275 -0.045,0.7875 -0.2925,1.8225 -1.5975,3.0825 -1.2825,1.2375 -3.195,1.2375 -1.7325,0 -2.97,-1.3275 l -0.1575,-0.1575 -0.225,0.405 q -0.045,0.0675 -0.135,0.225 -0.0675,0.135 -0.135,0.2475 -0.045,0.09 -0.0675,0.135 l -0.1125,0.2025 -0.45,0.0225 -0.45,0 0,-6.705 q 0,-6.7725 -0.0225,-6.8625 -0.0675,-0.4275 -0.3375,-0.5625 -0.2475,-0.1575 -0.99,-0.2025 l -0.405,0 0,-0.5175 q 0,-0.5175 0.045,-0.5175 l 0.225,-0.0225 q 0.225,-0.0225 0.6525,-0.045 0.4275,-0.0225 0.8325,-0.045 z m 5.2425,6.435 q -0.54,-0.0675 -0.6975,-0.0675 -1.575,0 -2.52,1.305 l -0.135,0.18 0,5.4225 0.1125,0.1575 q 0.675,1.08 1.7325,1.3725 0.2925,0.09 0.6975,0.09 1.44,0 2.2725,-1.215 0.18,-0.2475 0.36,-0.7425 0.27,-0.7875 0.27,-2.2275 0,-1.665 -0.27,-2.4975 -0.4725,-1.4175 -1.8225,-1.7775 z"
       style="font-style:normal;font-variant:normal;font-weight:normal;font-stretch:normal;font-size:22.5px;line-height:125%;font-family:KaTeX_Main;-inkscape-font-specification:'KaTeX_Main, Normal';text-align:start;writing-mode:lr-tb;text-anchor:start"
       id="path4349" /></g><g
     style="font-style:normal;font-variant:normal;font-weight:normal;font-stretch:normal;font-size:22.5px;line-height:125%;font-family:KaTeX_Main;-inkscape-font-specification:'KaTeX_Main, Normal';text-align:start;writing-mode:lr-tb;text-anchor:start;fill:#11accd"
     id="text103"><path
       d="m 175.19479,50.999802 q 0,-0.5175 0.4275,-0.945 0.4275,-0.4275 0.99,-0.4275 0.405,0 0.675,0.27 0.2925,0.27 0.2925,0.675 0,0.495 -0.45,0.945 -0.45,0.45 -0.99,0.45 -0.405,0 -0.675,-0.27 -0.27,-0.27 -0.27,-0.6975 z m -0.5175,13.7475 q -0.8775,0 -1.4175,-0.5175 -0.54,-0.5175 -0.54,-1.395 0,-0.3825 0.045,-0.5175 0,-0.045 1.035,-2.7675 1.035,-2.745 1.035,-2.79 0.1125,-0.36 0.1125,-0.81 0,-0.54 -0.3825,-0.54 l -0.045,0 q -0.54,0 -1.035,0.5175 -0.72,0.7425 -1.0575,2.115 0,0.0225 -0.0225,0.09 -0.0225,0.045 -0.045,0.0675 0,0 -0.0225,0.0225 -0.0225,0.0225 -0.09,0.0225 -0.045,0 -0.09,0 -0.045,0 -0.18,0 l -0.315,0 q -0.135,-0.135 -0.135,-0.2025 0,-0.0675 0.0675,-0.315 0.585,-1.935 1.71,-2.7 0.6075,-0.4725 1.305,-0.4725 0.9,0 1.485,0.5175 0.585,0.5175 0.585,1.395 0,0.2925 -0.1125,0.675 -0.0225,0.045 -1.035,2.7675 l -1.0125,2.7225 q -0.1125,0.495 -0.1125,0.72 0,0.5625 0.3825,0.5625 0.315,0 0.5625,-0.135 0.99,-0.4725 1.5525,-2.3625 0.0675,-0.27 0.1125,-0.315 0.0675,-0.045 0.3825,-0.045 0.2025,0 0.27,0.0225 0.09,0 0.135,0.045 0.045,0.045 0.045,0.1575 0,0.09 -0.0675,0.2925 -0.4275,1.2825 -1.2375,2.2275 -0.7875,0.945 -1.8675,0.945 z"
       style="font-style:normal;font-variant:normal;font-weight:normal;font-stretch:normal;font-size:22.5px;line-height:125%;font-family:KaTeX_Math;-inkscape-font-specification:'KaTeX_Math, Normal';text-align:start;writing-mode:lr-tb;text-anchor:start"
       id="path4344" /></g><g
     id="g105"
     transform="translate(-3.2785,-1.5)"><g
       id="g107"><line
         class="st1"
         x1="168.3"
         y1="41.900002"
         x2="168.3"
         y2="158.8"
         id="line109"
         style="fill:none;stroke:#11accd;stroke-width:3;stroke-linecap:round;stroke-miterlimit:10" /><g
         id="g111"><path
           class="st2"
           d="m 168.3,167.9 c -1.6,-4.3 -4.3,-9.5 -7.1,-12.8 l 7.1,2.6 7.1,-2.6 c -2.8,3.2 -5.5,8.5 -7.1,12.8 z"
           id="path113"
           inkscape:connector-curvature="0"
           style="fill:#11accd" /></g></g></g><line
     class="st21"
     x1="230.7215"
     y1="112.4"
     x2="230.7215"
     y2="188.3"
     id="line115"
     style="fill:none;stroke:#000000;stroke-width:5;stroke-miterlimit:10" /><line
     class="st22"
     x1="260.7215"
     y1="93.300003"
     x2="260.7215"
     y2="118.4"
     id="line117"
     style="fill:none;stroke:#000000;stroke-width:4;stroke-miterlimit:10" /><g
     id="g119"
     style="fill:#c8beb7"
     transform="translate(-3.2785,-1.5)"><path
       class="st23"
       d="m 258.4,120.3 c -3.3,0.9 -6.6,1.9 -9.9,2.8 1.9,-0.3 4,0 5.7,0.9 -4.2,2.3 -8.6,4.2 -13.2,5.6 2.2,0.4 4.4,0.9 6.5,1.3 -4.8,1.7 -9.3,4.1 -13.5,7.1"
       id="path121"
       style="fill:#c8beb7"
       inkscape:connector-curvature="0" /><g
       id="g123"
       style="fill:#c8beb7"><path
         class="st24"
         d="m 257.9,118.4 c -3.3,0.9 -6.6,1.9 -9.9,2.8 -2.1,0.6 -1.8,4.1 0.5,3.9 1.6,-0.3 3.2,-0.1 4.7,0.6 0,-1.2 0,-2.3 0,-3.5 -4.1,2.2 -8.3,4 -12.8,5.4 -1.8,0.6 -2,3.4 0,3.9 2.2,0.4 4.4,0.9 6.5,1.3 0,-1.3 0,-2.6 0,-3.9 -5,1.9 -9.6,4.3 -13.9,7.3 -2.1,1.5 -0.1,4.9 2,3.5 4.1,-2.9 8.3,-5.2 13,-6.9 1.7,-0.6 2.1,-3.4 0,-3.9 -2.2,-0.4 -4.4,-0.9 -6.5,-1.3 0,1.3 0,2.6 0,3.9 4.8,-1.5 9.3,-3.4 13.7,-5.8 1.2,-0.7 1.4,-2.9 0,-3.5 -2.3,-1 -4.2,-1.4 -6.7,-1.2 0.2,1.3 0.4,2.6 0.5,3.9 3.3,-0.9 6.6,-1.9 9.9,-2.8 2.5,-0.6 1.5,-4.4 -1,-3.7 l 0,0 z"
         id="path125"
         style="fill:#c8beb7"
         inkscape:connector-curvature="0" /></g></g><g
     id="g127"
     style="fill:#c8beb7;fill-opacity:1"
     transform="translate(-3.2785,-1.5)"><g
       id="g129"
       style="fill:#c8beb7;fill-opacity:1"><path
         class="st24"
         d="m 145,131.9 c -0.1,0.2 0,0.1 0.1,-0.2 0.1,-0.1 0.1,-0.2 0.2,-0.3 0.4,-0.4 0.3,-0.2 0.1,-0.1 -0.2,0.1 -0.4,0.2 -0.6,0.3 -0.8,0.4 -1.3,1.1 -1.6,2 -0.4,1 0.4,2.2 1.4,2.5 1.2,0.3 2,-0.4 2.5,-1.4 0,0.2 -0.1,0.3 -0.3,0.5 0,0 0,-0.1 0.1,-0.1 0.3,-0.3 -0.4,0.2 -0.1,0.1 0.2,-0.1 0.4,-0.2 0.6,-0.3 0.7,-0.4 1.3,-1 1.4,-1.8 0.2,-1 -0.3,-2.2 -1.4,-2.5 -1,-0.3 -2.2,0.2 -2.4,1.3 l 0,0 z"
         id="path131"
         style="fill:#c8beb7;fill-opacity:1"
         inkscape:connector-curvature="0" /></g></g><g
     id="g133"
     style="fill:#c8beb7;fill-opacity:1"
     transform="translate(-3.2785,-1.5)"><g
       id="g135"
       style="fill:#c8beb7;fill-opacity:1"><path
         class="st24"
         d="m 146.7,153.8 c 0.4,-0.1 0.7,-0.1 1.1,0.1 -0.3,-0.2 0.4,0.3 0.1,0.1 -0.1,-0.1 -0.3,-0.3 -0.4,-0.4 -0.7,-0.6 -1.4,-0.9 -2.4,-0.9 -1,0 -2,0.9 -2,2 0,1.1 0.9,2 2,2 0.2,0 0.2,0 -0.2,0 0.2,0.1 0.1,0 -0.2,-0.1 0.3,0.2 -0.3,-0.3 -0.1,-0.1 0.1,0.1 0.3,0.3 0.4,0.4 0.8,0.7 1.6,0.9 2.7,0.8 1,-0.2 1.7,-1.5 1.4,-2.5 -0.3,-1.1 -1.3,-1.6 -2.4,-1.4 l 0,0 z"
         id="path137"
         style="fill:#c8beb7;fill-opacity:1"
         inkscape:connector-curvature="0" /></g></g><g
     style="font-style:normal;font-variant:normal;font-weight:normal;font-stretch:normal;font-size:22.5px;line-height:125%;font-family:KaTeX_Main;-inkscape-font-specification:'KaTeX_Main, Normal';text-align:start;writing-mode:lr-tb;text-anchor:start;fill:#ff9c39"
     id="text139"><path
       d="m 176.4771,148.6225 q -1.44,0 -2.295,-0.72 -0.8325,-0.7425 -0.8325,-2.16 0,-0.405 0.045,-0.765 0.2025,-1.08 1.0575,-3.3075 l 0.36,-1.08 q 0.135,-0.405 0.135,-0.765 0,-0.5625 -0.4275,-0.5625 -0.1575,0 -0.36,0.0675 -1.1475,0.405 -1.7325,2.5875 0,0.0225 -0.0225,0.09 -0.0225,0.045 -0.045,0.0675 0,0 -0.0225,0.0225 -0.0225,0.0225 -0.09,0.0225 -0.045,0 -0.09,0 -0.045,0 -0.18,0 l -0.315,0 q -0.135,-0.135 -0.135,-0.2025 0,-0.0675 0.0675,-0.3375 0.54,-1.7775 1.665,-2.655 0.6075,-0.4725 1.395,-0.4725 0.8775,0 1.44,0.495 0.5625,0.495 0.5625,1.305 0,0.3825 -0.0675,0.585 0,0.1575 -0.3375,0.99 -1.035,2.8125 -1.1025,4.005 0,0.6075 0.1125,0.99 0.2925,0.9675 1.4175,0.9675 0.6075,0 1.08,-0.36 1.395,-0.9225 2.3175,-4.2525 0.18,-0.63 0.18,-1.035 0,-0.99 -0.8775,-1.7775 -0.2925,-0.27 -0.2925,-0.6075 0,-0.5175 0.405,-0.9225 0.4275,-0.4275 0.945,-0.4275 0.54,0 0.8325,0.5175 0.2925,0.495 0.2925,1.1925 0,0.7875 -0.45,2.5875 -0.4275,1.7325 -1.08,3.015 -1.4175,2.9025 -3.555,2.9025 z"
       style="font-style:normal;font-variant:normal;font-weight:normal;font-stretch:normal;font-size:22.5px;line-height:125%;font-family:KaTeX_Math;-inkscape-font-specification:'KaTeX_Math, Normal';text-align:start;writing-mode:lr-tb;text-anchor:start"
       id="path4337" /><path
       d="m 182.47953,155.0395 0.20475,0 q 0.57038,0 0.68738,-0.20475 l 0,-0.117 q 0,-0.10238 0,-0.2925 0,-0.1755 0,-0.42413 0.0146,-0.24862 0.0146,-0.57037 0,-0.32175 0,-0.6435 0,-0.33637 0,-0.71662 0,-0.39488 0,-0.74588 0,-0.49725 0,-1.03837 0,-0.54113 0,-0.96525 0,-0.42413 -0.0146,-0.77513 0,-0.36562 0,-0.57037 0,-0.21938 0,-0.234 -0.0439,-0.27788 -0.21938,-0.36563 -0.16087,-0.10237 -0.6435,-0.13162 l -0.26325,0 0,-0.33638 q 0,-0.33637 0.0292,-0.33637 l 0.14625,-0.0146 q 0.14625,-0.0146 0.42413,-0.0292 0.27787,-0.0146 0.54112,-0.0292 0.24863,-0.0146 0.54113,-0.0293 0.2925,-0.0292 0.43875,-0.0439 0.14625,-0.0146 0.16087,-0.0146 l 0.0439,0 0,0.38025 0.0146,0.38025 0.117,-0.10237 q 0.89213,-0.6435 2.01825,-0.6435 0.32175,0 0.468,0.0293 1.02375,0.20475 1.71113,1.09687 0.68737,0.89213 0.68737,2.1645 0,0.27788 -0.0292,0.51188 -0.14625,0.95062 -0.71662,1.638 -0.55575,0.68737 -1.44788,1.02374 -0.43875,0.14625 -0.90675,0.14625 -0.9945,0 -1.755,-0.64349 l -0.117,-0.10238 0,1.24312 q 0,1.27238 0.0146,1.30163 0.0585,0.117 0.1755,0.16087 0.30712,0.0439 0.71662,0.0439 l 0.234,0 0,0.67275 -0.117,0 q -0.19012,-0.0439 -1.638,-0.0439 -1.44787,0 -1.638,0.0439 l -0.117,0 0,-0.67275 0.234,0 z m 5.6745,-5.35275 q 0,-1.00912 -0.45337,-1.78425 -0.43875,-0.77512 -1.08225,-0.89212 -0.0293,0 -0.10238,0 -0.0585,-0.0146 -0.10237,-0.0146 -1.03838,0 -1.79888,0.95063 l 0,3.49537 q 0.59963,1.053 1.638,1.053 0.61425,0 1.1115,-0.54112 0.78975,-0.819 0.78975,-2.26688 z"
       style="font-size:64.99999762%;baseline-shift:sub"
       id="path4339" /><path
       d="m 191.49859,142.813 q 0.24862,-0.0146 0.54112,-0.0292 0.2925,-0.0292 0.43875,-0.0439 0.14625,-0.0146 0.16088,-0.0146 l 0.0439,0 0,2.20838 q 0,2.223 0.0146,2.223 0.0439,-0.0293 0.0877,-0.0731 0.80437,-0.67275 2.00362,-0.67275 0.26325,0 0.48263,0.0439 1.03837,0.20475 1.72575,1.09687 0.702,0.8775 0.702,2.1645 0,0.27788 -0.0292,0.51188 -0.19013,1.18462 -1.03838,2.00362 -0.83362,0.80437 -2.07675,0.80437 -1.12612,0 -1.9305,-0.86287 l -0.10237,-0.10237 -0.14625,0.26325 q -0.0293,0.0439 -0.0877,0.14625 -0.0439,0.0877 -0.0877,0.16087 -0.0293,0.0585 -0.0439,0.0877 l -0.0731,0.13163 -0.2925,0.0146 -0.2925,0 0,-4.35825 q 0,-4.40212 -0.0146,-4.46062 -0.0439,-0.27788 -0.21937,-0.36563 -0.16088,-0.10237 -0.6435,-0.13162 l -0.26325,0 0,-0.33638 q 0,-0.33637 0.0292,-0.33637 l 0.14625,-0.0146 q 0.14625,-0.0146 0.42412,-0.0292 0.27788,-0.0146 0.54113,-0.0293 z m 3.40762,4.18275 q -0.351,-0.0439 -0.45337,-0.0439 -1.02375,0 -1.638,0.84825 l -0.0877,0.117 0,3.52462 0.0731,0.10238 q 0.43875,0.702 1.12613,0.89212 0.19012,0.0585 0.45337,0.0585 0.936,0 1.47713,-0.78975 0.117,-0.16087 0.234,-0.48262 0.1755,-0.51188 0.1755,-1.44788 0,-1.08225 -0.1755,-1.62337 -0.30713,-0.92138 -1.18463,-1.15538 z"
       style="font-size:64.99999762%;baseline-shift:sub"
       id="path4341" /></g><g
     style="font-style:normal;font-variant:normal;font-weight:normal;font-stretch:normal;font-size:22.5px;line-height:125%;font-family:KaTeX_Main;-inkscape-font-specification:'KaTeX_Main, Normal';text-align:start;writing-mode:lr-tb;text-anchor:start;fill:#ff9c39"
     id="text143"><path
       d="m 172.62999,119.1999 q -0.315,-0.1575 -0.315,-0.45 0,-0.2925 0.315,-0.45 l 6.7275,0 0,-3.375 0.0225,-3.375 q 0.225,-0.2925 0.4275,-0.2925 0.2925,0 0.45,0.3375 l 0,6.705 6.705,0 q 0.3375,0.18 0.3375,0.45 0,0.27 -0.3375,0.45 l -6.705,0 0,6.705 q -0.1575,0.315 -0.45,0.315 -0.2925,0 -0.45,-0.315 l 0,-6.705 -6.7275,0 z"
       style="font-style:normal;font-variant:normal;font-weight:normal;font-stretch:normal;font-size:22.5px;line-height:125%;font-family:KaTeX_Main;-inkscape-font-specification:'KaTeX_Main, Normal';text-align:start;writing-mode:lr-tb;text-anchor:start;fill:#ff9c39"
       id="path4334" /></g><g
     style="font-style:normal;font-variant:normal;font-weight:normal;font-stretch:normal;font-size:22.5px;line-height:125%;font-family:KaTeX_Main;-inkscape-font-specification:'KaTeX_Main, Normal';text-align:start;writing-mode:lr-tb;text-anchor:start;fill:#ff9c39"
     id="text145"><path
       d="m 173.25979,173.2 q -0.315,-0.1575 -0.315,-0.45 0,-0.2925 0.315,-0.45 l 13.0725,0 q 0.3375,0.18 0.3375,0.45 0,0.27 -0.3375,0.45 l -13.0725,0 z"
       style="font-style:normal;font-variant:normal;font-weight:normal;font-stretch:normal;font-size:22.5px;line-height:125%;font-family:KaTeX_Main;-inkscape-font-specification:'KaTeX_Main, Normal';text-align:start;writing-mode:lr-tb;text-anchor:start;fill:#ff9c39"
       id="path4331" /></g><g
     style="font-style:normal;font-variant:normal;font-weight:normal;font-stretch:normal;font-size:22.5px;line-height:125%;font-family:KaTeX_Main;-inkscape-font-specification:'KaTeX_Main, Normal';text-align:start;writing-mode:lr-tb;text-anchor:start;fill:#ff9c39"
     id="text147"><path
       d="m 116.4774,64.7475 q -1.44,0 -2.295,-0.72 -0.8325,-0.7425 -0.8325,-2.16 0,-0.405 0.045,-0.765 0.2025,-1.08 1.0575,-3.3075 l 0.36,-1.08 q 0.135,-0.405 0.135,-0.765 0,-0.5625 -0.4275,-0.5625 -0.1575,0 -0.36,0.0675 -1.1475,0.405 -1.7325,2.5875 0,0.0225 -0.0225,0.09 -0.0225,0.045 -0.045,0.0675 0,0 -0.0225,0.0225 -0.0225,0.0225 -0.09,0.0225 -0.045,0 -0.09,0 -0.045,0 -0.18,0 l -0.315,0 q -0.135,-0.135 -0.135,-0.2025 0,-0.0675 0.0675,-0.3375 0.54,-1.7775 1.665,-2.655 0.6075,-0.4725 1.395,-0.4725 0.8775,0 1.44,0.495 0.5625,0.495 0.5625,1.305 0,0.3825 -0.0675,0.585 0,0.1575 -0.3375,0.99 -1.035,2.8125 -1.1025,4.005 0,0.6075 0.1125,0.99 0.2925,0.9675 1.4175,0.9675 0.6075,0 1.08,-0.36 1.395,-0.9225 2.3175,-4.2525 0.18,-0.63 0.18,-1.035 0,-0.99 -0.8775,-1.7775 -0.2925,-0.27 -0.2925,-0.6075 0,-0.5175 0.405,-0.9225 0.4275,-0.4275 0.945,-0.4275 0.54,0 0.8325,0.5175 0.2925,0.495 0.2925,1.1925 0,0.7875 -0.45,2.5875 -0.4275,1.7325 -1.08,3.015 -1.4175,2.9025 -3.555,2.9025 z"
       style="font-style:normal;font-variant:normal;font-weight:normal;font-stretch:normal;font-size:22.5px;line-height:125%;font-family:KaTeX_Math;-inkscape-font-specification:'KaTeX_Math, Normal';text-align:start;writing-mode:lr-tb;text-anchor:start"
       id="path4326" /><path
       d="m 123.82534,59.903251 q -0.14625,-0.14625 -0.2925,-0.1755 -0.13163,-0.02925 -0.73125,-0.04387 l -0.48263,0 0,-0.67275 0.16088,0 q 0.26325,0.04387 2.13525,0.04387 2.1645,0 2.42775,-0.04387 l 0.1755,0 0,0.67275 -0.39488,0 q -0.54112,0 -0.702,0.01463 -0.4095,0.01463 -0.5265,0.0585 -0.117,0.02925 -0.234,0.14625 l -0.0146,4.094999 q 0,4.095 0.0146,4.138875 0.0146,0.07313 0.0585,0.102375 0.0877,0.07312 1.1115,0.07312 1.03838,0 1.41863,-0.08775 0.86287,-0.248625 1.27237,-0.819 0.4095,-0.570375 0.57038,-1.638 0,-0.07313 0.0146,-0.248625 0.0292,-0.190125 0.0439,-0.336375 0.0292,-0.14625 0.0292,-0.160875 0,-0.01463 0.2925,-0.01463 l 0.2925,0 0,0.07313 q -0.0292,0.04387 -0.20475,1.9305 -0.1755,1.872 -0.20475,1.915875 l 0,0.07313 -7.73663,0 0,-0.67275 0.48263,0 q 0.59962,-0.01463 0.73125,-0.04387 0.14625,-0.02925 0.2925,-0.1755 l 0,-8.204624 z"
       style="font-size:64.99999762%;baseline-shift:sub"
       id="path4328" /></g><g
     style="font-style:normal;font-variant:normal;font-weight:normal;font-stretch:normal;font-size:22.5px;line-height:125%;font-family:KaTeX_Main;-inkscape-font-specification:'KaTeX_Main, Normal';text-align:start;writing-mode:lr-tb;text-anchor:start;fill:#ff9c39"
     id="text151"><path
       d="m 118.63,35.199802 q -0.315,-0.1575 -0.315,-0.45 0,-0.2925 0.315,-0.45 l 6.7275,0 0,-3.375 0.0225,-3.375 q 0.225,-0.2925 0.4275,-0.2925 0.2925,0 0.45,0.3375 l 0,6.705 6.705,0 q 0.3375,0.18 0.3375,0.45 0,0.27 -0.3375,0.45 l -6.705,0 0,6.705 q -0.1575,0.315 -0.45,0.315 -0.2925,0 -0.45,-0.315 l 0,-6.705 -6.7275,0 z"
       style="font-style:normal;font-variant:normal;font-weight:normal;font-stretch:normal;font-size:22.5px;line-height:125%;font-family:KaTeX_Main;-inkscape-font-specification:'KaTeX_Main, Normal';text-align:start;writing-mode:lr-tb;text-anchor:start;fill:#ff9c39"
       id="path4323" /></g><g
     style="font-style:normal;font-variant:normal;font-weight:normal;font-stretch:normal;font-size:22.5px;line-height:125%;font-family:KaTeX_Main;-inkscape-font-specification:'KaTeX_Main, Normal';text-align:start;writing-mode:lr-tb;text-anchor:start;fill:#ff9c39"
     id="text153"><path
       d="m 119.2599,95.2 q -0.315,-0.1575 -0.315,-0.45 0,-0.2925 0.315,-0.45 l 13.0725,0 q 0.3375,0.18 0.3375,0.45 0,0.27 -0.3375,0.45 l -13.0725,0 z"
       style="font-style:normal;font-variant:normal;font-weight:normal;font-stretch:normal;font-size:22.5px;line-height:125%;font-family:KaTeX_Main;-inkscape-font-specification:'KaTeX_Main, Normal';text-align:start;writing-mode:lr-tb;text-anchor:start;fill:#ff9c39"
       id="path4320" /></g><g
     id="g155"
     transform="translate(-3.2785,-1.5)"><g
       id="g157"><line
         class="st46"
         x1="217.2"
         y1="167.89999"
         x2="234"
         y2="167.89999"
         id="line159"
         style="fill:none;stroke:#000000;stroke-width:4;stroke-linecap:round;stroke-miterlimit:10" /><g
         id="g161"><path
           d="m 210,167.9 c 3.4,1.3 7.6,3.4 10.3,5.7 l -2.1,-5.7 2.1,-5.7 c -2.7,2.3 -6.9,4.4 -10.3,5.7 z"
           id="path163"
           inkscape:connector-curvature="0" /></g></g></g><g
     id="g165"
     transform="translate(-3.2785,-1.5)"><g
       id="g167"><path
         class="st0"
         d="m 205.4,109.6 c -4.8,-3.5 -12.1,-7.3 -21,-6.7 -16.7,1 -27.5,16.4 -30.2,20.5"
         id="path169"
         inkscape:connector-curvature="0"
         style="fill:none;stroke:#e8c11c;stroke-miterlimit:10" /><g
         id="g171"><path
           class="st24"
           d="m 210,113.5 c -1.5,-2.6 -3.1,-6.2 -3.6,-9.1 l -1.7,4.8 -4.3,2.6 c 2.9,-0.2 6.7,0.7 9.6,1.7 z"
           id="path173"
           inkscape:connector-curvature="0"
           style="fill:#e8c11c" /></g></g></g><ellipse
     class="st48"
     cx="242.7215"
     cy="139.39999"
     rx="42"
     ry="51"
     id="ellipse175"
     style="fill:none;stroke:#e8c11c;stroke-width:2;stroke-miterlimit:10" /></svg>