<?xml version="1.0" encoding="UTF-8" standalone="no"?>
<!-- Generator: Adobe Illustrator 19.1.0, SVG Export Plug-In . SVG Version: 6.00 Build 0)  -->

<svg
   xmlns:dc="http://purl.org/dc/elements/1.1/"
   xmlns:cc="http://creativecommons.org/ns#"
   xmlns:rdf="http://www.w3.org/1999/02/22-rdf-syntax-ns#"
   xmlns:svg="http://www.w3.org/2000/svg"
   xmlns="http://www.w3.org/2000/svg"
   xmlns:sodipodi="http://sodipodi.sourceforge.net/DTD/sodipodi-0.dtd"
   xmlns:inkscape="http://www.inkscape.org/namespaces/inkscape"
   version="1.1"
   id="Layer_1"
   x="0px"
   y="0px"
   viewBox="0 0 217.62415 131.98379"
   xml:space="preserve"
   sodipodi:docname="kcl5.svg"
   width="217.62415"
   height="131.9838"
   inkscape:version="0.92.2 5c3e80d, 2017-08-06"><metadata
     id="metadata1381"><rdf:RDF><cc:Work
         rdf:about=""><dc:format>image/svg+xml</dc:format><dc:type
           rdf:resource="http://purl.org/dc/dcmitype/StillImage" /><dc:title></dc:title></cc:Work></rdf:RDF></metadata><defs
     id="defs1379" /><sodipodi:namedview
     pagecolor="#ffffff"
     bordercolor="#666666"
     borderopacity="1"
     objecttolerance="10"
     gridtolerance="10"
     guidetolerance="10"
     inkscape:pageopacity="0"
     inkscape:pageshadow="2"
     inkscape:window-width="640"
     inkscape:window-height="480"
     id="namedview1377"
     showgrid="false"
     fit-margin-top="10"
     fit-margin-right="10"
     fit-margin-bottom="10"
     fit-margin-left="10"
     inkscape:zoom="2.3021343"
     inkscape:cx="108.81207"
     inkscape:cy="65.991898"
     inkscape:current-layer="Layer_1" /><style
     type="text/css"
     id="style1286">
	.st0{fill:#FF9C39;stroke:#E07D10;stroke-linecap:round;stroke-linejoin:round;stroke-miterlimit:10;}
	.st1{fill:none;stroke:#ED5FA6;stroke-width:7;stroke-linecap:round;stroke-linejoin:round;stroke-miterlimit:10;}
	.st2{fill:none;stroke:#AA87FF;stroke-width:7;stroke-linecap:round;stroke-linejoin:round;stroke-miterlimit:10;}
	.st3{fill:none;stroke:#FF9C39;stroke-width:7;stroke-linecap:round;stroke-linejoin:round;stroke-miterlimit:10;}
	.st4{fill:#8AF281;stroke:#8AF281;stroke-linecap:round;stroke-linejoin:round;stroke-miterlimit:10;}
	.st5{fill:none;stroke:#8AF281;stroke-width:7;stroke-linecap:round;stroke-linejoin:round;stroke-miterlimit:10;}
	.st6{fill:#ED5FA6;stroke:#ED5FA6;stroke-width:7;stroke-linecap:round;stroke-linejoin:round;stroke-miterlimit:10;}
	.st7{fill:none;stroke:#1FAB54;stroke-width:7;stroke-linecap:round;stroke-linejoin:round;stroke-miterlimit:10;}
	.st8{fill:none;stroke:#1FAB54;stroke-width:6;stroke-linecap:round;stroke-linejoin:round;stroke-miterlimit:10;}
	.st9{fill:#FF9C39;stroke:#FF9C39;stroke-width:5;stroke-linecap:round;stroke-miterlimit:10;}
	.st10{fill:none;stroke:#1FAB54;stroke-width:4;stroke-miterlimit:10;}
	.st11{fill:none;stroke:#3C91E5;stroke-width:4;stroke-miterlimit:10;}
	.st12{fill:#FFFFFF;}
	.st13{fill:none;stroke:#11ACCD;stroke-width:5;stroke-linecap:round;stroke-miterlimit:10;}
	.st14{fill:#11ACCD;}
	.st15{fill:none;stroke:#FF9C39;stroke-width:4;stroke-miterlimit:10;}
	.st16{fill:none;stroke:#63D9EA;stroke-width:7;stroke-linecap:round;stroke-miterlimit:10;}
	.st17{fill:none;stroke:#63D9EA;stroke-width:8;stroke-linecap:round;stroke-miterlimit:10;}
	.st18{fill:none;stroke:#000000;stroke-linecap:round;stroke-linejoin:round;stroke-miterlimit:10;}
	.st19{fill:none;stroke:#000000;stroke-width:1.5;stroke-linecap:round;stroke-linejoin:round;stroke-miterlimit:10;}
	.st20{fill:none;stroke:#000000;stroke-width:2;stroke-linecap:round;stroke-linejoin:round;stroke-miterlimit:10;}
	.st21{fill:none;stroke:#000000;stroke-linecap:round;stroke-miterlimit:10;}
	.st22{fill:none;stroke:#000000;stroke-width:1.5;stroke-linecap:round;stroke-miterlimit:10;}
	.st23{fill:none;stroke:#000000;stroke-width:1.5;stroke-miterlimit:10;}
	.st24{fill:none;stroke:#000000;stroke-miterlimit:10;}
	.st25{fill:none;stroke:#000000;stroke-width:2;stroke-miterlimit:10;}
	.st26{fill:none;stroke:#000000;stroke-width:2;stroke-linecap:round;stroke-miterlimit:10;}
	.st27{fill:none;stroke:#000000;stroke-linecap:round;stroke-linejoin:round;}
	.st28{fill:none;}
	.st29{stroke:#000000;stroke-linecap:round;stroke-linejoin:round;stroke-miterlimit:10;}
	.st30{fill:none;stroke:#000000;stroke-width:1.5;stroke-linejoin:round;stroke-miterlimit:10;}
	.st31{fill:none;stroke:#000000;stroke-linejoin:round;stroke-miterlimit:10;}
	.st32{clip-path:url(#SVGID_2_);fill:none;stroke:#000000;stroke-linejoin:round;stroke-miterlimit:10;}
	.st33{clip-path:url(#SVGID_2_);fill:none;stroke:#ADADEB;stroke-linejoin:round;stroke-miterlimit:10;}
	.st34{stroke:#000000;stroke-linejoin:round;stroke-miterlimit:10;}
	.st35{stroke:#000000;stroke-width:3;stroke-linejoin:round;stroke-miterlimit:10;}
	.st36{fill:none;stroke:#E84D39;stroke-width:3;stroke-linecap:round;stroke-linejoin:round;}
	.st37{fill:#E84D39;}
	.st38{fill:none;stroke:#11ACCD;stroke-width:2;stroke-linecap:round;stroke-linejoin:round;}
	.st39{fill:none;stroke:#F9685D;stroke-width:2;stroke-linecap:round;stroke-linejoin:round;}
	.st40{fill:#F9685D;}
	.st41{fill:#11ACCD;stroke:#000000;stroke-linecap:round;stroke-miterlimit:10;}
	.st42{stroke:#000000;stroke-linecap:round;stroke-miterlimit:10;}
	.st43{fill:#FFFF00;stroke:#000000;stroke-linecap:round;stroke-miterlimit:10;}
	.st44{fill:#D6D8DA;stroke:#000000;stroke-linecap:round;stroke-miterlimit:10;}
	.st45{fill:none;stroke:#FF9C39;stroke-width:5;stroke-linecap:round;stroke-linejoin:round;stroke-miterlimit:10;}
	.st46{fill:#FF9C39;}
	.st47{fill:#AA87FF;}
	.st48{fill:#ED5FA6;}
	.st49{fill:#1FAB54;}
	.st50{fill:none;stroke:#000000;stroke-width:4;stroke-linecap:round;stroke-linejoin:round;stroke-miterlimit:10;}
	.st51{stroke:#000000;stroke-miterlimit:10;}
	.st52{stroke:#000000;stroke-width:2;stroke-linecap:round;stroke-linejoin:round;stroke-miterlimit:10;}
	.st53{fill:none;stroke:#000000;stroke-width:3;stroke-linecap:round;stroke-linejoin:round;stroke-miterlimit:10;}
	.st54{fill:none;stroke:#000000;stroke-linejoin:round;}
	.st55{font-family:'KaTeX_Main-Regular';}
	.st56{font-size:24px;}
	.st57{font-family:'KaTeX_Main-Italic';}
	.st58{fill:none;stroke:#000000;stroke-width:7;stroke-linecap:round;stroke-linejoin:round;stroke-miterlimit:10;}
	.st59{fill:none;stroke:#11ACCD;stroke-width:3;stroke-linecap:round;stroke-linejoin:round;}
	.st60{fill:none;stroke:#11ACCD;stroke-width:2;stroke-miterlimit:10;}
	.st61{fill:none;stroke:#E07D10;stroke-width:2;stroke-miterlimit:10;}
	.st62{fill:#E07D10;}
	.st63{fill:none;stroke:#E07D10;stroke-width:3;stroke-miterlimit:10;}
	.st64{fill:none;stroke:#000000;stroke-width:3;stroke-linecap:square;stroke-miterlimit:10;}
</style><g
     aria-label="6"
     style="font-style:normal;font-variant:normal;font-weight:normal;font-stretch:normal;font-size:24px;font-family:KaTeX_Main;-inkscape-font-specification:'KaTeX_Main, Normal';font-variant-ligatures:normal;font-variant-caps:normal;font-variant-numeric:normal;font-feature-settings:normal;text-align:start;writing-mode:lr-tb;text-anchor:start;fill:#11accd"
     id="text1288"><path
       d="m 84.951901,34.772556 q -0.528,-0.528 -1.488,-0.6 -1.68,0 -2.808,1.44 -1.128,1.56 -1.128,4.848 l 0.024,0.096 0.192,-0.312 q 0.984,-1.44 2.664,-1.44 1.104,0 1.944,0.456 0.576,0.336 1.152,0.984 0.576,0.624 0.936,1.344 0.504,1.176 0.504,2.568 v 0.432 q 0,0.552 -0.12,1.032 -0.288,1.416 -1.488,2.664 -1.032,1.08 -2.304,1.344 -0.384,0.096 -0.96,0.096 -0.456,0 -0.816,-0.072 -1.776,-0.336 -2.832,-1.92 -1.416,-2.232 -1.416,-6.048 0,-2.592 0.912,-4.536 0.912,-1.944 2.544,-3.024 1.296,-0.912 2.808,-0.912 1.392,0 2.232,0.744 0.864,0.744 0.864,2.04 0,0.6 -0.36,0.96 -0.336,0.36 -0.912,0.36 -0.576,0 -0.936,-0.336 -0.336,-0.336 -0.336,-0.936 0,-1.08 1.128,-1.272 z m -1.056,5.76 q -0.672,-0.864 -1.728,-0.864 -0.888,0 -1.44,0.552 -1.176,1.176 -1.176,3.792 0,2.136 0.288,2.952 0.24,0.72 0.816,1.224 0.576,0.504 1.368,0.504 1.224,0 1.872,-0.912 0.36,-0.504 0.456,-1.2 0.096,-0.696 0.096,-2.016 v -0.384 -0.384 q 0,-1.368 -0.096,-2.064 -0.096,-0.696 -0.456,-1.2 z"
       style="font-style:normal;font-variant:normal;font-weight:normal;font-stretch:normal;font-size:24px;font-family:KaTeX_Main;-inkscape-font-specification:'KaTeX_Main, Normal';font-variant-ligatures:normal;font-variant-caps:normal;font-variant-numeric:normal;font-feature-settings:normal;text-align:start;writing-mode:lr-tb;text-anchor:start;fill:#11accd"
       id="path1948" /></g><g
     aria-label="−4"
     style="font-style:normal;font-variant:normal;font-weight:normal;font-stretch:normal;font-size:24px;font-family:KaTeX_Main;-inkscape-font-specification:'KaTeX_Main, Normal';font-variant-ligatures:normal;font-variant-caps:normal;font-variant-numeric:normal;font-feature-settings:normal;text-align:start;writing-mode:lr-tb;text-anchor:start;fill:#11accd"
     id="text1290"><path
       d="m 18.3519,56.464001 q -0.336,-0.168 -0.336,-0.48 0,-0.312 0.336,-0.48 h 13.944 q 0.36,0.192 0.36,0.48 0,0.288 -0.36,0.48 z"
       style="font-style:normal;font-variant:normal;font-weight:normal;font-stretch:normal;font-size:24px;font-family:KaTeX_Main;-inkscape-font-specification:'KaTeX_Main, Normal';font-variant-ligatures:normal;font-variant-caps:normal;font-variant-numeric:normal;font-feature-settings:normal;text-align:start;writing-mode:lr-tb;text-anchor:start;fill:#11accd"
       id="path1943" /><path
       d="m 45.74415,61.984001 q -0.336,-0.072 -3.096,-0.072 -2.88,0 -3.216,0.072 h -0.216 v -1.104 h 0.744 q 1.032,-0.024 1.272,-0.12 0.192,-0.048 0.288,-0.24 0.024,-0.048 0.024,-1.296 v -1.2 h -6.216 v -1.104 l 3.624,-5.544 q 3.672,-5.568 3.72,-5.592 0.048,-0.048 0.504,-0.048 h 0.432 l 0.144,0.144 v 11.04 h 2.208 v 1.104 h -2.208 v 1.224 q 0,0.984 0,1.152 0.024,0.168 0.144,0.288 0.192,0.168 1.368,0.192 h 0.696 v 1.104 z m -4.056,-5.064 v -8.016 l -5.256,7.992 2.616,0.024 z"
       style="font-style:normal;font-variant:normal;font-weight:normal;font-stretch:normal;font-size:24px;font-family:KaTeX_Main;-inkscape-font-specification:'KaTeX_Main, Normal';font-variant-ligatures:normal;font-variant-caps:normal;font-variant-numeric:normal;font-feature-settings:normal;text-align:start;writing-mode:lr-tb;text-anchor:start;fill:#11accd"
       id="path1945" /></g><g
     aria-label="i3"
     style="font-style:normal;font-variant:normal;font-weight:normal;font-stretch:normal;font-size:24px;font-family:KaTeX_Main;-inkscape-font-specification:'KaTeX_Main, Normal';font-variant-ligatures:normal;font-variant-caps:normal;font-variant-numeric:normal;font-feature-settings:normal;text-align:start;writing-mode:lr-tb;text-anchor:start;fill:#11accd"
     id="text1292"><path
       d="m 62.415901,97.240213 q 0,-0.552 0.456,-1.008 0.456,-0.456 1.056,-0.456 0.432,0 0.72,0.288 0.312,0.288 0.312,0.72 0,0.528 -0.48,1.008 -0.48,0.48 -1.056,0.48 -0.432,0 -0.72,-0.288 -0.288,-0.288 -0.288,-0.744 z m -0.552,14.663997 q -0.936,0 -1.512,-0.552 -0.576,-0.552 -0.576,-1.488 0,-0.408 0.048,-0.552 0,-0.048 1.104,-2.952 1.104,-2.928 1.104,-2.976 0.12,-0.384 0.12,-0.864 0,-0.576 -0.408,-0.576 h -0.048 q -0.576,0 -1.104,0.552 -0.768,0.792 -1.128,2.256 0,0.024 -0.024,0.096 -0.024,0.048 -0.048,0.072 0,0 -0.024,0.024 -0.024,0.024 -0.096,0.024 -0.048,0 -0.096,0 -0.048,0 -0.192,0 h -0.336 q -0.144,-0.144 -0.144,-0.216 0,-0.072 0.072,-0.336 0.624,-2.064 1.824,-2.88 0.648,-0.504 1.392,-0.504 0.96,0 1.584,0.552 0.624,0.552 0.624,1.488 0,0.312 -0.12,0.72 -0.024,0.048 -1.104,2.952 l -1.08,2.904 q -0.12,0.528 -0.12,0.768 0,0.6 0.408,0.6 0.336,0 0.6,-0.144 1.056,-0.504 1.656,-2.52 0.072,-0.288 0.12,-0.336 0.072,-0.048 0.408,-0.048 0.216,0 0.288,0.024 0.096,0 0.144,0.048 0.048,0.048 0.048,0.168 0,0.096 -0.072,0.312 -0.456,1.368 -1.32,2.376 -0.84,1.008 -1.992,1.008 z"
       style="font-style:normal;font-variant:normal;font-weight:normal;font-stretch:normal;font-size:24px;font-family:KaTeX_Math;-inkscape-font-specification:'KaTeX_Math, Normal';font-variant-ligatures:normal;font-variant-caps:normal;font-variant-numeric:normal;font-feature-settings:normal;text-align:start;writing-mode:lr-tb;text-anchor:start"
       id="path1938" /><path
       d="m 68.277976,109.21741 q -0.4212,0 -0.6708,-0.2652 -0.234,-0.2652 -0.234,-0.6864 0,-0.8892 0.702,-1.482 0.702,-0.6084 1.6224,-0.7176 h 0.234 q 0.546,0 0.6864,0.0156 0.5148,0.078 1.0452,0.3276 1.0296,0.5148 1.2948,1.4664 0.0468,0.156 0.0468,0.4212 0,0.9204 -0.5772,1.6536 -0.5616,0.7176 -1.4196,1.0296 -0.078,0.0312 0,0.0468 0.0312,0.0156 0.156,0.0468 0.9516,0.2652 1.6068,0.9984 0.6552,0.7176 0.6552,1.638 0,0.6396 -0.2964,1.2324 -0.3744,0.7956 -1.2324,1.326 -0.8424,0.5148 -1.8876,0.5148 -1.0296,0 -1.8252,-0.4368 -0.7956,-0.4368 -1.0764,-1.17 -0.156,-0.3276 -0.156,-0.7644 0,-0.4368 0.2808,-0.702 0.2964,-0.2808 0.702,-0.2808 0.4368,0 0.7176,0.2808 0.2808,0.2808 0.2808,0.702 0,0.3588 -0.2028,0.624 -0.2028,0.2652 -0.546,0.3432 l -0.1092,0.0312 q 0.8424,0.702 1.9344,0.702 0.858,0 1.2948,-0.8268 0.2652,-0.5148 0.2652,-1.5756 v -0.312 q 0,-1.482 -0.9984,-1.9812 -0.234,-0.0936 -0.9516,-0.1092 l -0.6552,-0.0156 -0.0468,-0.0312 q -0.0312,-0.0468 -0.0312,-0.2496 0,-0.1872 0.0468,-0.234 0.0468,-0.0468 0.078,-0.0468 0.4368,0 0.9048,-0.078 0.6864,-0.0936 1.0452,-0.7644 0.3588,-0.6864 0.3588,-1.638 0,-1.014 -0.546,-1.3572 -0.3276,-0.2184 -0.7332,-0.2184 -0.78,0 -1.3728,0.4212 -0.0624,0.0312 -0.1404,0.1092 -0.078,0.0624 -0.1248,0.1248 l -0.0468,0.0624 q 0.0468,0.0156 0.1092,0.0312 0.312,0.0312 0.5148,0.2964 0.2184,0.2652 0.2184,0.6084 0,0.3744 -0.2652,0.6396 -0.2496,0.2496 -0.6552,0.2496 z"
       style="font-size:64.99999762%;baseline-shift:sub"
       id="path1940" /></g><g
     aria-label="−3"
     style="font-style:normal;font-variant:normal;font-weight:normal;font-stretch:normal;font-size:24px;font-family:KaTeX_Main;-inkscape-font-specification:'KaTeX_Main, Normal';font-variant-ligatures:normal;font-variant-caps:normal;font-variant-numeric:normal;font-feature-settings:normal;text-align:start;writing-mode:lr-tb;text-anchor:start;fill:#11accd"
     id="text1296"><path
       d="m 180.35189,86.464001 q -0.336,-0.168 -0.336,-0.48 0,-0.312 0.336,-0.48 h 13.944 q 0.36,0.192 0.36,0.48 0,0.288 -0.36,0.48 z"
       style="font-style:normal;font-variant:normal;font-weight:normal;font-stretch:normal;font-size:24px;font-family:KaTeX_Main;-inkscape-font-specification:'KaTeX_Main, Normal';font-variant-ligatures:normal;font-variant-caps:normal;font-variant-numeric:normal;font-feature-settings:normal;text-align:start;writing-mode:lr-tb;text-anchor:start;fill:#11accd"
       id="path1933" /><path
       d="m 199.70414,80.872001 q -0.648,0 -1.032,-0.408 -0.36,-0.408 -0.36,-1.056 0,-1.368 1.08,-2.28 1.08,-0.936 2.496,-1.104 h 0.36 q 0.84,0 1.056,0.024 0.792,0.12 1.608,0.504 1.584,0.792 1.992,2.256 0.072,0.24 0.072,0.648 0,1.416 -0.888,2.544 -0.864,1.104 -2.184,1.584 -0.12,0.048 0,0.072 0.048,0.024 0.24,0.072 1.464,0.408 2.472,1.536 1.008,1.104 1.008,2.52 0,0.984 -0.456,1.896 -0.576,1.224 -1.896,2.04 -1.296,0.792 -2.904,0.792 -1.584,0 -2.808,-0.672 -1.224,-0.672 -1.656,-1.8 -0.24,-0.504 -0.24,-1.176 0,-0.672 0.432,-1.08 0.456,-0.432 1.08,-0.432 0.672,0 1.104,0.432 0.432,0.432 0.432,1.08 0,0.552 -0.312,0.96 -0.312,0.408 -0.84,0.528 l -0.168,0.048 q 1.296,1.08 2.976,1.08 1.32,0 1.992,-1.272 0.408,-0.792 0.408,-2.424 v -0.48 q 0,-2.28 -1.536,-3.048 -0.36,-0.144 -1.464,-0.168 l -1.008,-0.024 -0.072,-0.048 q -0.048,-0.072 -0.048,-0.384 0,-0.288 0.072,-0.36 0.072,-0.072 0.12,-0.072 0.672,0 1.392,-0.12 1.056,-0.144 1.608,-1.176 0.552,-1.056 0.552,-2.52 0,-1.56 -0.84,-2.088 -0.504,-0.336 -1.128,-0.336 -1.2,0 -2.112,0.648 -0.096,0.048 -0.216,0.168 -0.12,0.096 -0.192,0.192 l -0.072,0.096 q 0.072,0.024 0.168,0.048 0.48,0.048 0.792,0.456 0.336,0.408 0.336,0.936 0,0.576 -0.408,0.984 -0.384,0.384 -1.008,0.384 z"
       style="font-style:normal;font-variant:normal;font-weight:normal;font-stretch:normal;font-size:24px;font-family:KaTeX_Main;-inkscape-font-specification:'KaTeX_Main, Normal';font-variant-ligatures:normal;font-variant-caps:normal;font-variant-numeric:normal;font-feature-settings:normal;text-align:start;writing-mode:lr-tb;text-anchor:start;fill:#11accd"
       id="path1935" /></g><g
     aria-label="1"
     style="font-style:normal;font-variant:normal;font-weight:normal;font-stretch:normal;font-size:24px;font-family:KaTeX_Main;-inkscape-font-specification:'KaTeX_Main, Normal';font-variant-ligatures:normal;font-variant-caps:normal;font-variant-numeric:normal;font-feature-settings:normal;text-align:start;writing-mode:lr-tb;text-anchor:start;fill:#11accd"
     id="text1298"><path
       d="m 169.98389,25.983999 q -0.408,-0.072 -3.816,-0.072 -3.36,0 -3.768,0.072 h -0.288 v -1.104 h 0.624 q 1.392,0 1.8,-0.072 0.192,-0.024 0.576,-0.288 v -12.408 q -0.048,0 -0.192,0.072 -1.104,0.432 -2.472,0.456 h -0.456 v -1.104 h 0.456 q 2.016,-0.072 3.36,-0.912 0.432,-0.24 0.744,-0.552 0.048,-0.072 0.288,-0.072 0.24,0 0.408,0.1439997 v 7.176 l 0.024,7.2 q 0.36,0.36 1.56,0.36 h 0.792 0.624 v 1.104 z"
       style="font-style:normal;font-variant:normal;font-weight:normal;font-stretch:normal;font-size:24px;font-family:KaTeX_Main;-inkscape-font-specification:'KaTeX_Main, Normal';font-variant-ligatures:normal;font-variant-caps:normal;font-variant-numeric:normal;font-feature-settings:normal;text-align:start;writing-mode:lr-tb;text-anchor:start;fill:#11accd"
       id="path1930" /></g><g
     id="g1304"
     transform="translate(-20.5,1.9838)"><circle
       cx="114.5"
       cy="78"
       r="4.5"
       id="circle1300" /><rect
       x="108.5"
       y="72"
       class="st28"
       width="12"
       height="12"
       id="rect1302"
       style="fill:none" /></g><g
     id="g1310"
     transform="translate(-20.5,1.9838)"><circle
       cx="78.5"
       cy="78"
       r="4.5"
       id="circle1306" /><rect
       x="72.5"
       y="72"
       class="st28"
       width="12"
       height="12"
       id="rect1308"
       style="fill:none" /></g><g
     id="g1316"
     transform="translate(-20.5,1.9838)"><circle
       cx="150.5"
       cy="66"
       r="4.5"
       id="circle1312" /><rect
       x="144.5"
       y="60"
       class="st28"
       width="12"
       height="12"
       id="rect1314"
       style="fill:none" /></g><polyline
     class="st20"
     points="48.5,78 150.5,78 150.5,42 198.5,42 "
     id="polyline1318"
     style="fill:none;stroke:#000000;stroke-width:2;stroke-linecap:round;stroke-linejoin:round;stroke-miterlimit:10"
     transform="translate(-20.5,1.9838)" /><line
     class="st20"
     x1="58"
     y1="25.983801"
     x2="58"
     y2="79.983803"
     id="line1320"
     style="fill:none;stroke:#000000;stroke-width:2;stroke-linecap:round;stroke-linejoin:round;stroke-miterlimit:10" /><line
     class="st20"
     x1="94"
     y1="109.9838"
     x2="94"
     y2="79.983803"
     id="line1322"
     style="fill:none;stroke:#000000;stroke-width:2;stroke-linecap:round;stroke-linejoin:round;stroke-miterlimit:10" /><polyline
     class="st20"
     points="150.5,66 180.5,66 180.5,96 "
     id="polyline1324"
     style="fill:none;stroke:#000000;stroke-width:2;stroke-linecap:round;stroke-linejoin:round;stroke-miterlimit:10"
     transform="translate(-20.5,1.9838)" /><g
     id="g1334"
     transform="translate(-20.5,1.9838)"><g
       id="g1332"><line
         class="st38"
         x1="37.700001"
         y1="66"
         x2="60.5"
         y2="66"
         id="line1326"
         style="fill:none;stroke:#11accd;stroke-width:2;stroke-linecap:round;stroke-linejoin:round" /><g
         id="g1330"><path
           class="st14"
           d="m 30.5,66 c 3.4,1.3 7.6,3.4 10.3,5.7 L 38.7,66 40.8,60.3 c -2.7,2.3 -6.9,4.4 -10.3,5.7 z"
           id="path1328"
           inkscape:connector-curvature="0"
           style="fill:#11accd" /></g></g></g><g
     id="g1344"
     transform="translate(-20.5,1.9838)"><g
       id="g1342"><line
         class="st38"
         x1="90.5"
         y1="25.200001"
         x2="90.5"
         y2="48"
         id="line1336"
         style="fill:none;stroke:#11accd;stroke-width:2;stroke-linecap:round;stroke-linejoin:round" /><g
         id="g1340"><path
           class="st14"
           d="m 90.5,18 c -1.3,3.4 -3.4,7.6 -5.7,10.3 l 5.7,-2.1 5.7,2.1 C 93.9,25.6 91.8,21.4 90.5,18 Z"
           id="path1338"
           inkscape:connector-curvature="0"
           style="fill:#11accd" /></g></g></g><g
     id="g1354"
     transform="translate(-20.5,1.9838)"><g
       id="g1352"><line
         class="st38"
         x1="102.5"
         y1="112.8"
         x2="102.5"
         y2="90"
         id="line1346"
         style="fill:none;stroke:#11accd;stroke-width:2;stroke-linecap:round;stroke-linejoin:round" /><g
         id="g1350"><path
           class="st14"
           d="m 102.5,120 c 1.3,-3.4 3.4,-7.6 5.7,-10.3 l -5.7,2.1 -5.7,-2.1 c 2.3,2.7 4.4,6.9 5.7,10.3 z"
           id="path1348"
           inkscape:connector-curvature="0"
           style="fill:#11accd" /></g></g></g><g
     id="g1364"
     transform="translate(-20.5,1.9838)"><g
       id="g1362"><line
         class="st38"
         x1="192.5"
         y1="94.800003"
         x2="192.5"
         y2="72"
         id="line1356"
         style="fill:none;stroke:#11accd;stroke-width:2;stroke-linecap:round;stroke-linejoin:round" /><g
         id="g1360"><path
           class="st14"
           d="m 192.5,102 c 1.3,-3.4 3.4,-7.6 5.7,-10.3 l -5.7,2.1 -5.7,-2.1 c 2.3,2.7 4.4,6.9 5.7,10.3 z"
           id="path1358"
           inkscape:connector-curvature="0"
           style="fill:#11accd" /></g></g></g><g
     id="g1374"
     transform="translate(-20.5,1.9838)"><g
       id="g1372"><line
         class="st38"
         x1="197.3"
         y1="30"
         x2="174.5"
         y2="30"
         id="line1366"
         style="fill:none;stroke:#11accd;stroke-width:2;stroke-linecap:round;stroke-linejoin:round" /><g
         id="g1370"><path
           class="st14"
           d="m 204.5,30 c -3.4,-1.3 -7.6,-3.4 -10.3,-5.7 l 2.1,5.7 -2.1,5.7 c 2.7,-2.3 6.9,-4.4 10.3,-5.7 z"
           id="path1368"
           inkscape:connector-curvature="0"
           style="fill:#11accd" /></g></g></g></svg>