<?xml version="1.0" encoding="UTF-8" standalone="no"?>
<!-- Generator: Adobe Illustrator 19.1.0, SVG Export Plug-In . SVG Version: 6.00 Build 0)  -->

<svg
   xmlns:dc="http://purl.org/dc/elements/1.1/"
   xmlns:cc="http://creativecommons.org/ns#"
   xmlns:rdf="http://www.w3.org/1999/02/22-rdf-syntax-ns#"
   xmlns:svg="http://www.w3.org/2000/svg"
   xmlns="http://www.w3.org/2000/svg"
   xmlns:sodipodi="http://sodipodi.sourceforge.net/DTD/sodipodi-0.dtd"
   xmlns:inkscape="http://www.inkscape.org/namespaces/inkscape"
   version="1.1"
   id="Layer_1"
   x="0px"
   y="0px"
   width="359.59991"
   height="258.91989"
   viewBox="0 0 359.59991 258.91989"
   xml:space="preserve"
   sodipodi:docname="kvl3.svg"
   inkscape:version="0.92.2 5c3e80d, 2017-08-06"><metadata
     id="metadata1288"><rdf:RDF><cc:Work
         rdf:about=""><dc:format>image/svg+xml</dc:format><dc:type
           rdf:resource="http://purl.org/dc/dcmitype/StillImage" /><dc:title></dc:title></cc:Work></rdf:RDF></metadata><defs
     id="defs1286" /><sodipodi:namedview
     pagecolor="#ffffff"
     bordercolor="#666666"
     borderopacity="1"
     objecttolerance="10"
     gridtolerance="10"
     guidetolerance="10"
     inkscape:pageopacity="0"
     inkscape:pageshadow="2"
     inkscape:window-width="640"
     inkscape:window-height="480"
     id="namedview1284"
     showgrid="false"
     fit-margin-top="10"
     fit-margin-left="10"
     fit-margin-bottom="10"
     fit-margin-right="10"
     inkscape:zoom="1.393215"
     inkscape:cx="179.79996"
     inkscape:cy="129.45995"
     inkscape:current-layer="Layer_1" /><style
     type="text/css"
     id="style1087">
	.st0{fill:none;}
	.st1{fill:#E07D10;}
	.st2{fill:none;stroke:#ED5FA6;stroke-width:7;stroke-linecap:round;stroke-linejoin:round;stroke-miterlimit:10;}
	.st3{fill:none;stroke:#AA87FF;stroke-width:7;stroke-linecap:round;stroke-linejoin:round;stroke-miterlimit:10;}
	.st4{fill:none;stroke:#FF9C39;stroke-width:7;stroke-linecap:round;stroke-linejoin:round;stroke-miterlimit:10;}
	.st5{fill:#8AF281;stroke:#8AF281;stroke-linecap:round;stroke-linejoin:round;stroke-miterlimit:10;}
	.st6{fill:#FF9C39;stroke:#E07D10;stroke-linecap:round;stroke-linejoin:round;stroke-miterlimit:10;}
	.st7{fill:none;stroke:#8AF281;stroke-width:7;stroke-linecap:round;stroke-linejoin:round;stroke-miterlimit:10;}
	.st8{fill:#ED5FA6;stroke:#ED5FA6;stroke-width:7;stroke-linecap:round;stroke-linejoin:round;stroke-miterlimit:10;}
	.st9{fill:none;stroke:#1FAB54;stroke-width:7;stroke-linecap:round;stroke-linejoin:round;stroke-miterlimit:10;}
	.st10{fill:none;stroke:#1FAB54;stroke-width:6;stroke-linecap:round;stroke-linejoin:round;stroke-miterlimit:10;}
	.st11{fill:#FF9C39;stroke:#FF9C39;stroke-width:5;stroke-linecap:round;stroke-miterlimit:10;}
	.st12{fill:none;stroke:#1FAB54;stroke-width:4;stroke-miterlimit:10;}
	.st13{fill:none;stroke:#3C91E5;stroke-width:4;stroke-miterlimit:10;}
	.st14{fill:#FFFFFF;}
	.st15{fill:none;stroke:#11ACCD;stroke-width:5;stroke-linecap:round;stroke-miterlimit:10;}
	.st16{fill:#11ACCD;}
	.st17{fill:none;stroke:#FF9C39;stroke-width:4;stroke-miterlimit:10;}
	.st18{fill:none;stroke:#63D9EA;stroke-width:7;stroke-linecap:round;stroke-miterlimit:10;}
	.st19{fill:none;stroke:#63D9EA;stroke-width:8;stroke-linecap:round;stroke-miterlimit:10;}
	.st20{fill:none;stroke:#000000;stroke-linecap:round;stroke-linejoin:round;stroke-miterlimit:10;}
	.st21{fill:none;stroke:#000000;stroke-width:1.5;stroke-linecap:round;stroke-linejoin:round;stroke-miterlimit:10;}
	.st22{fill:none;stroke:#000000;stroke-linecap:round;stroke-miterlimit:10;}
	.st23{fill:none;stroke:#000000;stroke-width:1.5;stroke-linecap:round;stroke-miterlimit:10;}
	.st24{fill:none;stroke:#000000;stroke-width:2;stroke-linecap:round;stroke-linejoin:round;stroke-miterlimit:10;}
	.st25{fill:none;stroke:#000000;stroke-width:1.5;stroke-miterlimit:10;}
	.st26{fill:none;stroke:#000000;stroke-miterlimit:10;}
	.st27{fill:none;stroke:#000000;stroke-width:2;stroke-miterlimit:10;}
	.st28{fill:none;stroke:#000000;stroke-width:2;stroke-linecap:round;stroke-miterlimit:10;}
	.st29{fill:none;stroke:#000000;stroke-linecap:round;stroke-linejoin:round;}
	.st30{stroke:#000000;stroke-linecap:round;stroke-linejoin:round;stroke-miterlimit:10;}
	.st31{fill:none;stroke:#000000;stroke-width:1.5;stroke-linejoin:round;stroke-miterlimit:10;}
	.st32{fill:none;stroke:#000000;stroke-linejoin:round;stroke-miterlimit:10;}
	.st33{clip-path:url(#SVGID_2_);fill:none;stroke:#000000;stroke-linejoin:round;stroke-miterlimit:10;}
	.st34{clip-path:url(#SVGID_2_);fill:none;stroke:#ADADEB;stroke-linejoin:round;stroke-miterlimit:10;}
	.st35{clip-path:url(#SVGID_2_);}
	.st36{stroke:#000000;stroke-linejoin:round;stroke-miterlimit:10;}
	.st37{stroke:#000000;stroke-width:3;stroke-linejoin:round;stroke-miterlimit:10;}
	.st38{fill:none;stroke:#E84D39;stroke-width:3;stroke-linecap:round;stroke-linejoin:round;}
	.st39{fill:#E84D39;}
	.st40{fill:none;stroke:#11ACCD;stroke-width:2;stroke-linecap:round;stroke-linejoin:round;}
	.st41{fill:none;stroke:#F9685D;stroke-width:2;stroke-linecap:round;stroke-linejoin:round;}
	.st42{fill:#F9685D;}
	.st43{fill:#11ACCD;stroke:#000000;stroke-linecap:round;stroke-miterlimit:10;}
	.st44{stroke:#000000;stroke-linecap:round;stroke-miterlimit:10;}
	.st45{fill:#FFFF00;stroke:#000000;stroke-linecap:round;stroke-miterlimit:10;}
	.st46{fill:#F9685D;stroke:#000000;stroke-linecap:round;stroke-miterlimit:10;}
	.st47{fill:#D6D8DA;stroke:#000000;stroke-linecap:round;stroke-miterlimit:10;}
	.st48{fill:none;stroke:#FF9C39;stroke-width:5;stroke-linecap:round;stroke-linejoin:round;stroke-miterlimit:10;}
	.st49{fill:#FF9C39;}
	.st50{fill:#AA87FF;}
	.st51{fill:#ED5FA6;}
	.st52{fill:#1FAB54;}
	.st53{fill:none;stroke:#000000;stroke-width:4;stroke-linecap:round;stroke-linejoin:round;stroke-miterlimit:10;}
	.st54{stroke:#000000;stroke-miterlimit:10;}
	.st55{stroke:#000000;stroke-width:2;stroke-linecap:round;stroke-linejoin:round;stroke-miterlimit:10;}
	.st56{fill:none;stroke:#000000;stroke-width:3;stroke-linecap:round;stroke-linejoin:round;stroke-miterlimit:10;}
	.st57{fill:none;stroke:#000000;stroke-linejoin:round;}
	.st58{fill:none;stroke:#000000;stroke-width:7;stroke-linecap:round;stroke-linejoin:round;stroke-miterlimit:10;}
	.st59{fill:none;stroke:#11ACCD;stroke-width:3;stroke-linecap:round;stroke-linejoin:round;}
	.st60{fill:none;stroke:#11ACCD;stroke-width:2;stroke-linecap:round;stroke-miterlimit:10;}
	.st61{fill:none;stroke:#E07D10;stroke-width:2;stroke-linecap:round;stroke-miterlimit:10;}
	.st62{fill:none;stroke:#11ACCD;stroke-width:2;stroke-miterlimit:10;}
	.st63{fill:none;stroke:#000000;stroke-width:3;stroke-linecap:square;stroke-miterlimit:10;}
	.st64{fill:#BE2612;}
	.st65{fill:none;stroke:#BE2612;stroke-width:2;stroke-linecap:round;stroke-linejoin:round;}
	.st66{fill:none;stroke:#21242C;stroke-linecap:round;stroke-linejoin:round;stroke-miterlimit:10;}
	.st67{font-family:'KaTeX_Main-Italic';}
	.st68{font-size:21px;}
	.st69{letter-spacing:1;}
	.st70{font-family:'KaTeX_Main-Regular';}
	.st71{font-size:24px;}
	.st72{font-size:18px;}
	.st73{fill:none;stroke:#11ACCD;stroke-width:3;stroke-linecap:round;stroke-miterlimit:10;}
	.st74{fill:#FFFFFF;stroke:#000000;stroke-miterlimit:10;}
</style><g
     aria-label="i"
     style="font-style:normal;font-variant:normal;font-weight:normal;font-stretch:normal;font-size:24px;font-family:KaTeX_Math;-inkscape-font-specification:'KaTeX_Math, Normal';font-variant-ligatures:normal;font-variant-caps:normal;font-variant-numeric:normal;font-feature-settings:normal;text-align:start;letter-spacing:1;writing-mode:lr-tb;text-anchor:start;fill:#11accd"
     id="text1089"><path
       d="m 184.99583,72.9918 q 0,-0.552 0.456,-1.008 0.456,-0.456 1.056,-0.456 0.432,0 0.72,0.288 0.312,0.288 0.312,0.72 0,0.528 -0.48,1.008 -0.48,0.48 -1.056,0.48 -0.432,0 -0.72,-0.288 -0.288,-0.288 -0.288,-0.744 z m -0.552,14.664 q -0.936,0 -1.512,-0.552 -0.576,-0.552 -0.576,-1.488 0,-0.408 0.048,-0.552 0,-0.048 1.104,-2.952 1.104,-2.928 1.104,-2.976 0.12,-0.384 0.12,-0.864 0,-0.576 -0.408,-0.576 h -0.048 q -0.576,0 -1.104,0.552 -0.768,0.792 -1.128,2.256 0,0.024 -0.024,0.096 -0.024,0.048 -0.048,0.072 0,0 -0.024,0.024 -0.024,0.024 -0.096,0.024 -0.048,0 -0.096,0 -0.048,0 -0.192,0 h -0.336 q -0.144,-0.144 -0.144,-0.216 0,-0.072 0.072,-0.336 0.624,-2.064 1.824,-2.88 0.648,-0.504 1.392,-0.504 0.96,0 1.584,0.552 0.624,0.552 0.624,1.488 0,0.312 -0.12,0.72 -0.024,0.048 -1.104,2.952 l -1.08,2.904 q -0.12,0.528 -0.12,0.768 0,0.6 0.408,0.6 0.336,0 0.6,-0.144 1.056,-0.504 1.656,-2.52 0.072,-0.288 0.12,-0.336 0.072,-0.048 0.408,-0.048 0.216,0 0.288,0.024 0.096,0 0.144,0.048 0.048,0.048 0.048,0.168 0,0.096 -0.072,0.312 -0.456,1.368 -1.32,2.376 -0.84,1.008 -1.992,1.008 z"
       style="font-style:normal;font-variant:normal;font-weight:normal;font-stretch:normal;font-size:24px;font-family:KaTeX_Math;-inkscape-font-specification:'KaTeX_Math, Normal';font-variant-ligatures:normal;font-variant-caps:normal;font-variant-numeric:normal;font-feature-settings:normal;text-align:start;letter-spacing:1;writing-mode:lr-tb;text-anchor:start;fill:#11accd"
       id="path1412" /></g><g
     aria-label="+      "
     transform="scale(-1,1)"
     style="font-style:normal;font-variant:normal;font-weight:normal;font-stretch:normal;font-size:24px;font-family:KaTeX_Main;-inkscape-font-specification:'KaTeX_Main, Normal';font-variant-ligatures:normal;font-variant-caps:normal;font-variant-numeric:normal;font-feature-settings:normal;text-align:start;writing-mode:lr-tb;text-anchor:start;fill:#e07d10"
     id="text1091"><path
       d="m -230.31384,236.87191 q -0.336,-0.168 -0.336,-0.48 0,-0.312 0.336,-0.48 h 7.176 v -3.6 l 0.024,-3.6 q 0.24,-0.312 0.456,-0.312 0.312,0 0.48,0.36 v 7.152 h 7.152 q 0.36,0.192 0.36,0.48 0,0.288 -0.36,0.48 h -7.152 v 7.152 q -0.168,0.336 -0.48,0.336 -0.312,0 -0.48,-0.336 v -7.152 z"
       style="font-style:normal;font-variant:normal;font-weight:normal;font-stretch:normal;font-size:24px;font-family:KaTeX_Main;-inkscape-font-specification:'KaTeX_Main, Normal';font-variant-ligatures:normal;font-variant-caps:normal;font-variant-numeric:normal;font-feature-settings:normal;text-align:start;writing-mode:lr-tb;text-anchor:start;fill:#e07d10"
       id="path1409" /></g><g
     transform="scale(-1,1)"
     style="font-style:normal;font-variant:normal;font-weight:normal;font-stretch:normal;font-size:24px;font-family:KaTeX_Main;-inkscape-font-specification:'KaTeX_Main, Normal';font-variant-ligatures:normal;font-variant-caps:normal;font-variant-numeric:normal;font-feature-settings:normal;text-align:start;writing-mode:lr-tb;text-anchor:start;fill:#e07d10;stroke-width:0.583"
     id="text1093" /><g
     aria-label="−"
     transform="scale(-1,1)"
     style="font-style:normal;font-variant:normal;font-weight:normal;font-stretch:normal;font-size:24px;font-family:KaTeX_Main;-inkscape-font-specification:'KaTeX_Main, Normal';font-variant-ligatures:normal;font-variant-caps:normal;font-variant-numeric:normal;font-feature-settings:normal;text-align:start;writing-mode:lr-tb;text-anchor:start;fill:#e07d10"
     id="text1095"><path
       d="m -157.47973,236.87191 q -0.336,-0.168 -0.336,-0.48 0,-0.312 0.336,-0.48 h 13.944 q 0.36,0.192 0.36,0.48 0,0.288 -0.36,0.48 z"
       style="font-style:normal;font-variant:normal;font-weight:normal;font-stretch:normal;font-size:24px;font-family:KaTeX_Main;-inkscape-font-specification:'KaTeX_Main, Normal';font-variant-ligatures:normal;font-variant-caps:normal;font-variant-numeric:normal;font-feature-settings:normal;text-align:start;writing-mode:lr-tb;text-anchor:start;fill:#e07d10"
       id="path1405" /></g><g
     id="g1109"
     transform="translate(0.57972794,-3.6080992)"><circle
       class="st27"
       cx="90"
       cy="138"
       r="18"
       id="circle1097"
       style="fill:none;stroke:#000000;stroke-width:2;stroke-miterlimit:10" /><polyline
       class="st22"
       points="96,66 90,66 90,96 90,120  "
       id="polyline1099"
       style="fill:none;stroke:#000000;stroke-linecap:round;stroke-miterlimit:10" /><polyline
       class="st20"
       points="132,204 90,204 90,180 90,156  "
       id="polyline1101"
       style="fill:none;stroke:#000000;stroke-linecap:round;stroke-linejoin:round;stroke-miterlimit:10" /><line
       class="st25"
       x1="90"
       y1="124.5"
       x2="90"
       y2="136.5"
       id="line1103"
       style="fill:none;stroke:#000000;stroke-width:1.5;stroke-miterlimit:10" /><line
       class="st25"
       x1="84"
       y1="130.5"
       x2="96"
       y2="130.5"
       id="line1105"
       style="fill:none;stroke:#000000;stroke-width:1.5;stroke-miterlimit:10" /><line
       class="st25"
       x1="84"
       y1="148.5"
       x2="96"
       y2="148.5"
       id="line1107"
       style="fill:none;stroke:#000000;stroke-width:1.5;stroke-miterlimit:10" /></g><g
     id="g1115"
     transform="translate(0.57972794,-3.6080992)"><circle
       cx="90"
       cy="204"
       r="3"
       id="circle1111" /><rect
       x="84"
       y="198"
       class="st0"
       width="12"
       height="12"
       id="rect1113"
       style="fill:none" /></g><g
     id="g1125"
     transform="translate(0.57972794,-3.6080992)"><g
       id="g1123"><path
         class="st61"
         d="m 66,174 c -3.7,-7 -6.2,-20.5 -6.2,-36 0,-11.4 1.4,-21.8 3.6,-29.3"
         id="path1117"
         inkscape:connector-curvature="0"
         style="fill:none;stroke:#e07d10;stroke-width:2;stroke-linecap:round;stroke-miterlimit:10" /><g
         id="g1121"><path
           class="st1"
           d="m 66,102 c 0,3.6 0.5,8.4 1.7,11.6 l -4.6,-3.9 -6.1,-0.1 c 3.1,-1.7 6.6,-4.9 9,-7.6 z"
           id="path1119"
           inkscape:connector-curvature="0"
           style="fill:#e07d10" /></g></g></g><g
     id="g1135"
     transform="translate(0.57972794,-3.6080992)"><g
       id="g1133"><path
         class="st61"
         d="m 300,174 c 3.7,-7 6.2,-20.5 6.2,-36 0,-11.4 -1.4,-21.8 -3.6,-29.3"
         id="path1127"
         inkscape:connector-curvature="0"
         style="fill:none;stroke:#e07d10;stroke-width:2;stroke-linecap:round;stroke-miterlimit:10" /><g
         id="g1131"><path
           class="st1"
           d="m 300,102 c 2.4,2.7 5.9,5.9 9,7.6 l -6.1,0.1 -4.6,3.9 c 1.2,-3.2 1.7,-8 1.7,-11.6 z"
           id="path1129"
           inkscape:connector-curvature="0"
           style="fill:#e07d10" /></g></g></g><g
     id="g1145"
     transform="translate(0.57972794,-3.6080992)"><g
       id="g1143"><path
         class="st61"
         d="m 168,48 c -6.4,-3.7 -18.8,-6.2 -33,-6.2 -10.2,0 -19.5,1.3 -26.3,3.4"
         id="path1137"
         inkscape:connector-curvature="0"
         style="fill:none;stroke:#e07d10;stroke-width:2;stroke-linecap:round;stroke-miterlimit:10" /><g
         id="g1141"><path
           class="st1"
           d="m 102,48 c 2.7,-2.4 5.8,-6 7.4,-9.1 l 0.2,6.1 4,4.5 c -3.2,-1.2 -8,-1.6 -11.6,-1.5 z"
           id="path1139"
           inkscape:connector-curvature="0"
           style="fill:#e07d10" /></g></g></g><g
     id="g1155"
     transform="translate(0.57972794,-3.6080992)"><g
       id="g1153"><path
         class="st61"
         d="m 215.3,224.6 c -7.5,2.2 -17.8,3.6 -29.3,3.6 -15.5,0 -29,-2.5 -36,-6.2"
         id="path1147"
         inkscape:connector-curvature="0"
         style="fill:none;stroke:#e07d10;stroke-width:2;stroke-linecap:round;stroke-miterlimit:10" /><g
         id="g1151"><path
           class="st1"
           d="m 222,222 c -3.6,0 -8.4,-0.5 -11.6,-1.7 l 3.9,4.6 0.1,6.1 c 1.7,-3.1 4.9,-6.6 7.6,-9 z"
           id="path1149"
           inkscape:connector-curvature="0"
           style="fill:#e07d10" /></g></g></g><g
     id="g1165"
     transform="translate(0.57972794,-3.6080992)"><g
       id="g1163"><path
         class="st61"
         d="m 264,48 c -6.4,-3.7 -18.8,-6.2 -33,-6.2 -10.2,0 -19.5,1.3 -26.3,3.4"
         id="path1157"
         inkscape:connector-curvature="0"
         style="fill:none;stroke:#e07d10;stroke-width:2;stroke-linecap:round;stroke-miterlimit:10" /><g
         id="g1161"><path
           class="st1"
           d="m 198,48 c 2.7,-2.4 5.8,-6 7.4,-9.1 l 0.2,6.1 4,4.5 c -3.2,-1.2 -8,-1.6 -11.6,-1.5 z"
           id="path1159"
           inkscape:connector-curvature="0"
           style="fill:#e07d10" /></g></g></g><g
     id="g1175"
     transform="translate(0.57972794,-3.6080992)"><line
       class="st20"
       x1="161.39999"
       y1="66"
       x2="180"
       y2="66"
       id="line1167"
       style="fill:none;stroke:#000000;stroke-linecap:round;stroke-linejoin:round;stroke-miterlimit:10" /><polyline
       class="st24"
       points="114.6,66 118.5,57 126.3,75 134.1,57 141.9,75 149.7,57 157.5,75 161.4,66  "
       id="polyline1169"
       style="fill:none;stroke:#000000;stroke-width:2;stroke-linecap:round;stroke-linejoin:round;stroke-miterlimit:10" /><line
       class="st20"
       x1="96"
       y1="66"
       x2="114.6"
       y2="66"
       id="line1171"
       style="fill:none;stroke:#000000;stroke-linecap:round;stroke-linejoin:round;stroke-miterlimit:10" /><rect
       x="96"
       y="54"
       class="st0"
       width="84"
       height="24"
       id="rect1173"
       style="fill:none" /></g><g
     id="g1185"
     transform="translate(0.57972794,-3.6080992)"><line
       class="st20"
       x1="257.39999"
       y1="66"
       x2="276"
       y2="66"
       id="line1177"
       style="fill:none;stroke:#000000;stroke-linecap:round;stroke-linejoin:round;stroke-miterlimit:10" /><polyline
       class="st24"
       points="210.6,66 214.5,57 222.3,75 230.1,57 237.9,75 245.7,57 253.5,75 257.4,66  "
       id="polyline1179"
       style="fill:none;stroke:#000000;stroke-width:2;stroke-linecap:round;stroke-linejoin:round;stroke-miterlimit:10" /><line
       class="st20"
       x1="192"
       y1="66"
       x2="210.60001"
       y2="66"
       id="line1181"
       style="fill:none;stroke:#000000;stroke-linecap:round;stroke-linejoin:round;stroke-miterlimit:10" /><rect
       x="192"
       y="54"
       class="st0"
       width="84"
       height="24"
       id="rect1183"
       style="fill:none" /></g><g
     id="g1195"
     transform="translate(0.57972794,-3.6080992)"><line
       class="st20"
       x1="208.8"
       y1="204"
       x2="227.39999"
       y2="204"
       id="line1187"
       style="fill:none;stroke:#000000;stroke-linecap:round;stroke-linejoin:round;stroke-miterlimit:10" /><polyline
       class="st24"
       points="162,204 165.9,195 173.7,213 181.5,195 189.3,213 197.1,195 204.9,213 208.8,204  "
       id="polyline1189"
       style="fill:none;stroke:#000000;stroke-width:2;stroke-linecap:round;stroke-linejoin:round;stroke-miterlimit:10" /><line
       class="st20"
       x1="132"
       y1="204"
       x2="162"
       y2="204"
       id="line1191"
       style="fill:none;stroke:#000000;stroke-linecap:round;stroke-linejoin:round;stroke-miterlimit:10" /><rect
       x="132"
       y="192"
       class="st0"
       width="95.400002"
       height="24"
       id="rect1193"
       style="fill:none" /></g><g
     id="g1205"
     transform="translate(0.57972794,-3.6080992)"><line
       class="st20"
       x1="282"
       y1="114.6"
       x2="282"
       y2="96"
       id="line1197"
       style="fill:none;stroke:#000000;stroke-linecap:round;stroke-linejoin:round;stroke-miterlimit:10" /><polyline
       class="st24"
       points="282,161.4 273,157.5 291,149.7 273,141.9 291,134.1 273,126.3 291,118.5 282,114.6  "
       id="polyline1199"
       style="fill:none;stroke:#000000;stroke-width:2;stroke-linecap:round;stroke-linejoin:round;stroke-miterlimit:10" /><line
       class="st20"
       x1="282"
       y1="180"
       x2="282"
       y2="161.39999"
       id="line1201"
       style="fill:none;stroke:#000000;stroke-linecap:round;stroke-linejoin:round;stroke-miterlimit:10" /><rect
       x="270"
       y="96"
       class="st0"
       width="24"
       height="84"
       id="rect1203"
       style="fill:none" /></g><line
     class="st22"
     x1="180.57973"
     y1="62.391899"
     x2="192.57973"
     y2="62.391899"
     id="line1207"
     style="fill:none;stroke:#000000;stroke-linecap:round;stroke-miterlimit:10" /><polyline
     class="st22"
     points="276,66 282,66 282,96 "
     id="polyline1209"
     style="fill:none;stroke:#000000;stroke-linecap:round;stroke-miterlimit:10"
     transform="translate(0.57972794,-3.6080992)" /><polyline
     class="st22"
     points="282,180 282,204 227.4,204 "
     id="polyline1211"
     style="fill:none;stroke:#000000;stroke-linecap:round;stroke-miterlimit:10"
     transform="translate(0.57972794,-3.6080992)" /><g
     id="g1217"
     transform="translate(0.57972794,-3.6080992)"><polyline
       class="st20"
       points="90,216 97.5,216 97.5,216 97.5,216 90,228 82.5,216 90,216 90,204  "
       id="polyline1213"
       style="fill:none;stroke:#000000;stroke-linecap:round;stroke-linejoin:round;stroke-miterlimit:10" /><rect
       x="78"
       y="204"
       class="st0"
       width="24"
       height="24"
       id="rect1215"
       style="fill:none" /></g><g
     aria-label="8V"
     style="font-style:normal;font-variant:normal;font-weight:normal;font-stretch:normal;font-size:24px;font-family:KaTeX_Main;-inkscape-font-specification:'KaTeX_Main, Normal';font-variant-ligatures:normal;font-variant-caps:normal;font-variant-numeric:normal;font-feature-settings:normal;text-align:start;writing-mode:lr-tb;text-anchor:start;fill:#e07d10"
     id="text1219"><path
       d="m 173.42809,240.35191 q -1.176,-0.768 -1.824,-1.608 -0.624,-0.84 -0.624,-2.208 0,-1.032 0.384,-1.728 0.528,-1.08 1.536,-1.728 1.032,-0.672 2.352,-0.672 1.632,0 2.832,0.864 1.2,0.84 1.488,2.184 0.024,0.144 0.024,0.576 0,0.528 -0.048,0.72 -0.36,1.584 -2.184,2.736 l -0.288,0.192 q 1.344,0.912 1.392,0.96 1.8,1.44 1.8,3.576 0,1.944 -1.44,3.336 -1.416,1.368 -3.552,1.368 -2.952,0 -4.344,-2.16 -0.6,-0.864 -0.6,-2.088 0,-2.616 3.096,-4.32 z m 4.776,-4.272 q 0,-1.032 -0.672,-1.752 -0.672,-0.72 -1.632,-0.912 -0.168,-0.024 -0.792,-0.024 -1.272,0 -2.136,0.864 -0.6,0.552 -0.6,1.32 0,1.032 0.864,1.632 0.12,0.12 1.536,1.008 l 1.392,0.912 q 0.024,-0.024 0.312,-0.192 0.288,-0.192 0.432,-0.336 1.296,-1.032 1.296,-2.52 z m -6.336,8.544 q 0,1.416 1.032,2.352 1.032,0.912 2.4,0.912 0.984,0 1.776,-0.408 0.816,-0.408 1.224,-1.056 0.408,-0.624 0.408,-1.32 0,-1.032 -0.84,-1.824 -0.192,-0.192 -1.992,-1.368 -0.336,-0.216 -0.744,-0.456 -0.384,-0.264 -0.6,-0.408 l -0.192,-0.12 -0.288,0.144 q -1.512,0.984 -1.992,2.4 -0.192,0.624 -0.192,1.152 z"
       style="font-style:normal;font-variant:normal;font-weight:normal;font-stretch:normal;font-size:24px;font-family:KaTeX_Main;-inkscape-font-specification:'KaTeX_Main, Normal';font-variant-ligatures:normal;font-variant-caps:normal;font-variant-numeric:normal;font-feature-settings:normal;text-align:start;writing-mode:lr-tb;text-anchor:start;fill:#e07d10"
       id="path1400" /><path
       d="m 187.03609,233.51191 q -0.264,-0.264 -0.48,-0.312 -0.216,-0.072 -1.104,-0.096 h -0.696 v -1.104 h 0.216 q 0.336,0.072 2.976,0.072 2.88,0 3.408,-0.072 h 0.264 v 1.104 h -0.504 q -1.104,0.024 -1.368,0.264 -0.096,0.072 -0.096,0.144 0,0.048 2.16,5.952 2.16,5.904 2.184,5.904 0.936,-2.52 2.064,-5.568 2.04,-5.52 2.04,-5.736 0,-0.456 -0.504,-0.696 -0.504,-0.264 -1.104,-0.264 h -0.12 v -1.104 h 0.216 q 0.408,0.072 2.76,0.072 2.064,0 2.328,-0.072 h 0.144 v 1.104 h -0.168 q -1.776,0 -2.304,0.984 0,0.024 -2.712,7.32 -2.688,7.296 -2.712,7.32 -0.072,0.192 -0.432,0.192 h -0.216 -0.216 q -0.336,0 -0.408,-0.192 -0.048,-0.048 -2.808,-7.608 -2.808,-7.536 -2.808,-7.608 z"
       style="font-style:normal;font-variant:normal;font-weight:normal;font-stretch:normal;font-size:24px;font-family:KaTeX_Main;-inkscape-font-specification:'KaTeX_Main, Normal';font-variant-ligatures:normal;font-variant-caps:normal;font-variant-numeric:normal;font-feature-settings:normal;text-align:start;writing-mode:lr-tb;text-anchor:start;fill:#e07d10"
       id="path1402" /></g><g
     aria-label="+"
     style="font-style:normal;font-variant:normal;font-weight:normal;font-stretch:normal;font-size:24px;font-family:KaTeX_Main;-inkscape-font-specification:'KaTeX_Main, Normal';font-variant-ligatures:normal;font-variant-caps:normal;font-variant-numeric:normal;font-feature-settings:normal;text-align:start;writing-mode:lr-tb;text-anchor:start;fill:#e07d10"
     id="text1221"
     transform="translate(0,-3.7795276)"><path
       d="m 34.923629,104.872 q -0.336,-0.168 -0.336,-0.48 0,-0.312 0.336,-0.48 h 7.176 v -3.6 l 0.024,-3.600002 q 0.24,-0.312 0.456,-0.312 0.312,0 0.48,0.36 V 103.912 h 7.152 q 0.36,0.192 0.36,0.48 0,0.288 -0.36,0.48 h -7.152 v 7.152 q -0.168,0.336 -0.48,0.336 -0.312,0 -0.48,-0.336 v -7.152 z"
       style="font-style:normal;font-variant:normal;font-weight:normal;font-stretch:normal;font-size:24px;font-family:KaTeX_Main;-inkscape-font-specification:'KaTeX_Main, Normal';font-variant-ligatures:normal;font-variant-caps:normal;font-variant-numeric:normal;font-feature-settings:normal;text-align:start;writing-mode:lr-tb;text-anchor:start;fill:#e07d10"
       id="path1397"
       inkscape:connector-curvature="0" /></g><g
     style="font-style:normal;font-variant:normal;font-weight:normal;font-stretch:normal;font-size:24px;font-family:KaTeX_Main;-inkscape-font-specification:'KaTeX_Main, Normal';font-variant-ligatures:normal;font-variant-caps:normal;font-variant-numeric:normal;font-feature-settings:normal;text-align:start;writing-mode:lr-tb;text-anchor:start;fill:#e07d10;stroke-width:0.583"
     id="text1223" /><g
     aria-label="−"
     style="font-style:normal;font-variant:normal;font-weight:normal;font-stretch:normal;font-size:24px;font-family:KaTeX_Main;-inkscape-font-specification:'KaTeX_Main, Normal';font-variant-ligatures:normal;font-variant-caps:normal;font-variant-numeric:normal;font-feature-settings:normal;text-align:start;writing-mode:lr-tb;text-anchor:start;fill:#e07d10"
     id="text1225"
     transform="translate(0,3.7795276)"><path
       d="m 35.595629,162.47161 q -0.336,-0.168 -0.336,-0.48 0,-0.312 0.336,-0.48 h 13.944 q 0.36,0.192 0.36,0.48 0,0.288 -0.36,0.48 z"
       style="font-style:normal;font-variant:normal;font-weight:normal;font-stretch:normal;font-size:24px;font-family:KaTeX_Main;-inkscape-font-specification:'KaTeX_Main, Normal';font-variant-ligatures:normal;font-variant-caps:normal;font-variant-numeric:normal;font-feature-settings:normal;text-align:start;writing-mode:lr-tb;text-anchor:start;fill:#e07d10"
       id="path1393"
       inkscape:connector-curvature="0" /></g><g
     aria-label="20V"
     style="font-style:normal;font-variant:normal;font-weight:normal;font-stretch:normal;font-size:24px;font-family:KaTeX_Main;-inkscape-font-specification:'KaTeX_Main, Normal';font-variant-ligatures:normal;font-variant-caps:normal;font-variant-numeric:normal;font-feature-settings:normal;text-align:start;writing-mode:lr-tb;text-anchor:start;fill:#e07d10"
     id="text1227"><path
       d="m 11.44,130.09601 q -0.672,0 -1.056,-0.432 -0.384,-0.432 -0.384,-1.056 0,-1.728 1.296,-2.952 1.32,-1.248 3.144,-1.248 2.064,0 3.408,1.128 1.368,1.104 1.68,2.904 0.048,0.432 0.048,0.792 0,1.392 -0.84,2.616 -0.672,1.008 -2.712,2.76 -0.864,0.744 -2.4,2.208 l -1.416,1.344 1.824,0.024 q 3.768,0 4.008,-0.12 0.096,-0.024 0.24,-0.504 0.096,-0.264 0.336,-1.632 v -0.072 h 0.96 v 0.072 l -0.672,4.392 v 0.072 H 10 v -0.456 q 0,-0.48 0.048,-0.552 0.024,-0.024 2.016,-2.28 2.616,-2.904 3.36,-3.84 1.608,-2.184 1.608,-4.008 0,-1.584 -0.84,-2.64 -0.816,-1.08 -2.304,-1.08 -1.392,0 -2.256,1.248 -0.048,0.096 -0.144,0.264 -0.072,0.12 -0.072,0.144 0,0.024 0.12,0.024 0.6,0 0.96,0.432 0.384,0.432 0.384,1.008 0,0.6 -0.408,1.032 -0.384,0.408 -1.032,0.408 z"
       style="font-style:normal;font-variant:normal;font-weight:normal;font-stretch:normal;font-size:24px;font-family:KaTeX_Main;-inkscape-font-specification:'KaTeX_Main, Normal';font-variant-ligatures:normal;font-variant-caps:normal;font-variant-numeric:normal;font-feature-settings:normal;text-align:start;writing-mode:lr-tb;text-anchor:start;fill:#e07d10"
       id="path1386" /><path
       d="m 23.104,126.35201 q 1.344,-1.944 3.672,-1.944 1.752,0 3.072,1.2 0.648,0.624 1.104,1.632 0.888,1.992 0.888,5.472 0,3.72 -1.032,5.688 -0.672,1.392 -1.968,2.016 -1.008,0.504 -2.04,0.504 -2.76,0 -4.032,-2.52 -1.032,-1.968 -1.032,-5.688 0,-2.232 0.288,-3.672 0.312,-1.464 1.08,-2.688 z m 5.4,-0.288 q -0.696,-0.768 -1.704,-0.768 -1.008,0 -1.728,0.768 -0.528,0.552 -0.72,1.344 -0.192,0.792 -0.24,2.736 0,0.144 -0.024,0.936 0,0.792 0,1.32 0,2.304 0.048,3.216 0.096,1.68 0.288,2.424 0.192,0.72 0.72,1.248 0.648,0.72 1.656,0.72 0.984,0 1.632,-0.72 0.528,-0.528 0.72,-1.248 0.192,-0.744 0.288,-2.424 0.048,-0.912 0.048,-3.216 0,-0.528 -0.024,-1.32 0,-0.792 0,-0.936 -0.048,-1.944 -0.24,-2.736 -0.192,-0.792 -0.72,-1.344 z"
       style="font-style:normal;font-variant:normal;font-weight:normal;font-stretch:normal;font-size:24px;font-family:KaTeX_Main;-inkscape-font-specification:'KaTeX_Main, Normal';font-variant-ligatures:normal;font-variant-caps:normal;font-variant-numeric:normal;font-feature-settings:normal;text-align:start;writing-mode:lr-tb;text-anchor:start;fill:#e07d10"
       id="path1388" /><path
       d="m 38.536,125.51201 q -0.264,-0.264 -0.48,-0.312 -0.216,-0.072 -1.104,-0.096 h -0.696 v -1.104 h 0.216 q 0.336,0.072 2.976,0.072 2.88,0 3.408,-0.072 h 0.264 v 1.104 h -0.504 q -1.104,0.024 -1.368,0.264 -0.096,0.072 -0.096,0.144 0,0.048 2.16,5.952 2.16,5.904 2.184,5.904 0.936,-2.52 2.064,-5.568 2.04,-5.52 2.04,-5.736 0,-0.456 -0.504,-0.696 -0.504,-0.264 -1.104,-0.264 h -0.12 v -1.104 h 0.216 q 0.408,0.072 2.76,0.072 2.064,0 2.328,-0.072 h 0.144 v 1.104 h -0.168 q -1.776,0 -2.304,0.984 0,0.024 -2.712,7.32 -2.688,7.296 -2.712,7.32 -0.072,0.192 -0.432,0.192 H 44.776 44.56 q -0.336,0 -0.408,-0.192 -0.048,-0.048 -2.808,-7.608 -2.808,-7.536 -2.808,-7.608 z"
       style="font-style:normal;font-variant:normal;font-weight:normal;font-stretch:normal;font-size:24px;font-family:KaTeX_Main;-inkscape-font-specification:'KaTeX_Main, Normal';font-variant-ligatures:normal;font-variant-caps:normal;font-variant-numeric:normal;font-feature-settings:normal;text-align:start;writing-mode:lr-tb;text-anchor:start;fill:#e07d10"
       id="path1390" /></g><g
     aria-label="−"
     transform="matrix(1,0,0,-1,0,3.7795276)"
     style="font-style:normal;font-variant:normal;font-weight:normal;font-stretch:normal;font-size:24px;font-family:KaTeX_Main;-inkscape-font-specification:'KaTeX_Main, Normal';font-variant-ligatures:normal;font-variant-caps:normal;font-variant-numeric:normal;font-feature-settings:normal;text-align:start;writing-mode:lr-tb;text-anchor:start;fill:#e07d10"
     id="text1229"><path
       d="m 317.59593,-164.91191 q -0.336,-0.168 -0.336,-0.48 0,-0.312 0.336,-0.48 h 13.944 q 0.36,0.192 0.36,0.48 0,0.288 -0.36,0.48 z"
       style="font-style:normal;font-variant:normal;font-weight:normal;font-stretch:normal;font-size:24px;font-family:KaTeX_Main;-inkscape-font-specification:'KaTeX_Main, Normal';font-variant-ligatures:normal;font-variant-caps:normal;font-variant-numeric:normal;font-feature-settings:normal;text-align:start;writing-mode:lr-tb;text-anchor:start;fill:#e07d10"
       id="path1383"
       inkscape:connector-curvature="0" /></g><g
     transform="scale(1,-1)"
     style="font-style:normal;font-variant:normal;font-weight:normal;font-stretch:normal;font-size:24px;font-family:KaTeX_Main;-inkscape-font-specification:'KaTeX_Main, Normal';font-variant-ligatures:normal;font-variant-caps:normal;font-variant-numeric:normal;font-feature-settings:normal;text-align:start;writing-mode:lr-tb;text-anchor:start;fill:#e07d10;stroke-width:0.583"
     id="text1231" /><g
     aria-label="+"
     transform="matrix(1,0,0,-1,0,-3.7795276)"
     style="font-style:normal;font-variant:normal;font-weight:normal;font-stretch:normal;font-size:24px;font-family:KaTeX_Main;-inkscape-font-specification:'KaTeX_Main, Normal';font-variant-ligatures:normal;font-variant-caps:normal;font-variant-numeric:normal;font-feature-settings:normal;text-align:start;writing-mode:lr-tb;text-anchor:start;fill:#e07d10"
     id="text1233"><path
       d="m 316.92396,-103.53277 q -0.336,-0.168 -0.336,-0.48 0,-0.312 0.336,-0.48 h 7.176 v -3.6 l 0.024,-3.6 q 0.24,-0.312 0.456,-0.312 0.312,0 0.48,0.36 v 7.152 h 7.152 q 0.36,0.192 0.36,0.48 0,0.288 -0.36,0.48 h -7.152 v 7.151998 q -0.168,0.336 -0.48,0.336 -0.312,0 -0.48,-0.336 v -7.151998 z"
       style="font-style:normal;font-variant:normal;font-weight:normal;font-stretch:normal;font-size:24px;font-family:KaTeX_Main;-inkscape-font-specification:'KaTeX_Main, Normal';font-variant-ligatures:normal;font-variant-caps:normal;font-variant-numeric:normal;font-feature-settings:normal;text-align:start;writing-mode:lr-tb;text-anchor:start;fill:#e07d10"
       id="path1379"
       inkscape:connector-curvature="0" /></g><g
     aria-label="6V"
     style="font-style:normal;font-variant:normal;font-weight:normal;font-stretch:normal;font-size:24px;font-family:KaTeX_Main;-inkscape-font-specification:'KaTeX_Main, Normal';font-variant-ligatures:normal;font-variant-caps:normal;font-variant-numeric:normal;font-feature-settings:normal;text-align:start;writing-mode:lr-tb;text-anchor:start;fill:#e07d10"
     id="text1235"><path
       d="m 326.03193,125.968 q -0.528,-0.528 -1.488,-0.6 -1.68,0 -2.808,1.44 -1.128,1.56 -1.128,4.848 l 0.024,0.096 0.192,-0.312 q 0.984,-1.44 2.664,-1.44 1.104,0 1.944,0.456 0.576,0.336 1.152,0.984 0.576,0.624 0.936,1.344 0.504,1.176 0.504,2.568 v 0.432 q 0,0.552 -0.12,1.032 -0.288,1.416 -1.488,2.664 -1.032,1.08 -2.304,1.344 -0.384,0.096 -0.96,0.096 -0.456,0 -0.816,-0.072 -1.776,-0.336 -2.832,-1.92 -1.416,-2.232 -1.416,-6.048 0,-2.592 0.912,-4.536 0.912,-1.944 2.544,-3.024 1.296,-0.912 2.808,-0.912 1.392,0 2.232,0.744 0.864,0.744 0.864,2.04 0,0.6 -0.36,0.96 -0.336,0.36 -0.912,0.36 -0.576,0 -0.936,-0.336 -0.336,-0.336 -0.336,-0.936 0,-1.08 1.128,-1.272 z m -1.056,5.76 q -0.672,-0.864 -1.728,-0.864 -0.888,0 -1.44,0.552 -1.176,1.176 -1.176,3.792 0,2.136 0.288,2.952 0.24,0.72 0.816,1.224 0.576,0.504 1.368,0.504 1.224,0 1.872,-0.912 0.36,-0.504 0.456,-1.2 0.096,-0.696 0.096,-2.016 v -0.384 -0.384 q 0,-1.368 -0.096,-2.064 -0.096,-0.696 -0.456,-1.2 z"
       style="font-style:normal;font-variant:normal;font-weight:normal;font-stretch:normal;font-size:24px;font-family:KaTeX_Main;-inkscape-font-specification:'KaTeX_Main, Normal';font-variant-ligatures:normal;font-variant-caps:normal;font-variant-numeric:normal;font-feature-settings:normal;text-align:start;writing-mode:lr-tb;text-anchor:start;fill:#e07d10"
       id="path1374" /><path
       d="m 334.81593,125.512 q -0.264,-0.264 -0.48,-0.312 -0.216,-0.072 -1.104,-0.096 h -0.696 V 124 h 0.216 q 0.336,0.072 2.976,0.072 2.88,0 3.408,-0.072 h 0.264 v 1.104 h -0.504 q -1.104,0.024 -1.368,0.264 -0.096,0.072 -0.096,0.144 0,0.048 2.16,5.952 2.16,5.904 2.184,5.904 0.936,-2.52 2.064,-5.568 2.04,-5.52 2.04,-5.736 0,-0.456 -0.504,-0.696 -0.504,-0.264 -1.104,-0.264 h -0.12 V 124 h 0.216 q 0.408,0.072 2.76,0.072 2.064,0 2.328,-0.072 h 0.144 v 1.104 h -0.168 q -1.776,0 -2.304,0.984 0,0.024 -2.712,7.32 -2.688,7.296 -2.712,7.32 -0.072,0.192 -0.432,0.192 h -0.216 -0.216 q -0.336,0 -0.408,-0.192 -0.048,-0.048 -2.808,-7.608 -2.808,-7.536 -2.808,-7.608 z"
       style="font-style:normal;font-variant:normal;font-weight:normal;font-stretch:normal;font-size:24px;font-family:KaTeX_Main;-inkscape-font-specification:'KaTeX_Main, Normal';font-variant-ligatures:normal;font-variant-caps:normal;font-variant-numeric:normal;font-feature-settings:normal;text-align:start;writing-mode:lr-tb;text-anchor:start;fill:#e07d10"
       id="path1376" /></g><g
     aria-label="−      "
     transform="scale(-1,1)"
     style="font-style:normal;font-variant:normal;font-weight:normal;font-stretch:normal;font-size:24px;font-family:KaTeX_Main;-inkscape-font-specification:'KaTeX_Main, Normal';font-variant-ligatures:normal;font-variant-caps:normal;font-variant-numeric:normal;font-feature-settings:normal;text-align:start;writing-mode:lr-tb;text-anchor:start;fill:#e07d10"
     id="text1237"><path
       d="m -179.89272,26.872002 q -0.336,-0.168 -0.336,-0.48 0,-0.312 0.336,-0.48 h 13.944 q 0.36,0.192 0.36,0.48 0,0.288 -0.36,0.48 z"
       style="font-style:normal;font-variant:normal;font-weight:normal;font-stretch:normal;font-size:24px;font-family:KaTeX_Main;-inkscape-font-specification:'KaTeX_Main, Normal';font-variant-ligatures:normal;font-variant-caps:normal;font-variant-numeric:normal;font-feature-settings:normal;text-align:start;writing-mode:lr-tb;text-anchor:start;fill:#e07d10"
       id="path1371" /></g><g
     transform="scale(-1,1)"
     style="font-style:normal;font-variant:normal;font-weight:normal;font-stretch:normal;font-size:24px;font-family:KaTeX_Main;-inkscape-font-specification:'KaTeX_Main, Normal';font-variant-ligatures:normal;font-variant-caps:normal;font-variant-numeric:normal;font-feature-settings:normal;text-align:start;writing-mode:lr-tb;text-anchor:start;fill:#e07d10;stroke-width:0.583"
     id="text1239" /><g
     aria-label="+"
     transform="scale(-1,1)"
     style="font-style:normal;font-variant:normal;font-weight:normal;font-stretch:normal;font-size:24px;font-family:KaTeX_Main;-inkscape-font-specification:'KaTeX_Main, Normal';font-variant-ligatures:normal;font-variant-caps:normal;font-variant-numeric:normal;font-feature-settings:normal;text-align:start;writing-mode:lr-tb;text-anchor:start;fill:#e07d10"
     id="text1241"><path
       d="m -111.90073,26.872002 q -0.336,-0.168 -0.336,-0.48 0,-0.312 0.336,-0.48 h 7.176 v -3.6 l 0.024,-3.6 q 0.24,-0.312 0.456,-0.312 0.312,0 0.48,0.36 v 7.152 h 7.152003 q 0.36,0.192 0.36,0.48 0,0.288 -0.36,0.48 h -7.152003 v 7.152 q -0.168,0.336 -0.48,0.336 -0.312,0 -0.48,-0.336 v -7.152 z"
       style="font-style:normal;font-variant:normal;font-weight:normal;font-stretch:normal;font-size:24px;font-family:KaTeX_Main;-inkscape-font-specification:'KaTeX_Main, Normal';font-variant-ligatures:normal;font-variant-caps:normal;font-variant-numeric:normal;font-feature-settings:normal;text-align:start;writing-mode:lr-tb;text-anchor:start;fill:#e07d10"
       id="path1367" /></g><g
     aria-label="2V"
     style="font-style:normal;font-variant:normal;font-weight:normal;font-stretch:normal;font-size:24px;font-family:KaTeX_Main;-inkscape-font-specification:'KaTeX_Main, Normal';font-variant-ligatures:normal;font-variant-caps:normal;font-variant-numeric:normal;font-feature-settings:normal;text-align:start;writing-mode:lr-tb;text-anchor:start;fill:#e07d10"
     id="text1243"><path
       d="m 129.9404,16.096 q -0.672,0 -1.056,-0.432 -0.384,-0.432 -0.384,-1.056 0,-1.728 1.296,-2.952 1.32,-1.248 3.144,-1.248 2.064,0 3.408,1.128 1.368,1.104 1.68,2.904 0.048,0.432 0.048,0.792 0,1.392 -0.84,2.616 -0.672,1.008 -2.712,2.76 -0.864,0.744 -2.4,2.208 l -1.416,1.344 1.824,0.024 q 3.768,0 4.008,-0.12 0.096,-0.024 0.24,-0.504 0.096,-0.264 0.336,-1.632 v -0.072 h 0.96 v 0.072 l -0.672,4.392 v 0.072 h -8.904 v -0.456 q 0,-0.48 0.048,-0.552 0.024,-0.024 2.016,-2.28 2.616,-2.904 3.36,-3.84 1.608,-2.184 1.608,-4.008 0,-1.584 -0.84,-2.64 -0.816,-1.08 -2.304,-1.08 -1.392,0 -2.256,1.248 -0.048,0.096 -0.144,0.264 -0.072,0.12 -0.072,0.144 0,0.024 0.12,0.024 0.6,0 0.96,0.432 0.384,0.432 0.384,1.008 0,0.6 -0.408,1.032 -0.384,0.408 -1.032,0.408 z"
       style="font-style:normal;font-variant:normal;font-weight:normal;font-stretch:normal;font-size:24px;font-family:KaTeX_Main;-inkscape-font-specification:'KaTeX_Main, Normal';font-variant-ligatures:normal;font-variant-caps:normal;font-variant-numeric:normal;font-feature-settings:normal;text-align:start;writing-mode:lr-tb;text-anchor:start;fill:#e07d10"
       id="path1362" /><path
       d="m 145.0364,11.512 q -0.264,-0.264 -0.48,-0.312 -0.216,-0.072 -1.104,-0.096 h -0.696 V 10 h 0.216 q 0.336,0.072 2.976,0.072 2.88,0 3.408,-0.072 h 0.264 v 1.104 h -0.504 q -1.104,0.024 -1.368,0.264 -0.096,0.072 -0.096,0.144 0,0.048 2.16,5.952 2.16,5.904 2.184,5.904 0.936,-2.52 2.064,-5.568 2.04,-5.52 2.04,-5.736 0,-0.456 -0.504,-0.696 -0.504,-0.264 -1.104,-0.264 h -0.12 V 10 h 0.216 q 0.408,0.072 2.76,0.072 2.064,0 2.328,-0.072 h 0.144 v 1.104 h -0.168 q -1.776,0 -2.304,0.984 0,0.024 -2.712,7.32 -2.688,7.296 -2.712,7.32 -0.072,0.192 -0.432,0.192 h -0.216 -0.216 q -0.336,0 -0.408,-0.192 -0.048,-0.048 -2.808,-7.608 -2.808,-7.536 -2.808,-7.608 z"
       style="font-style:normal;font-variant:normal;font-weight:normal;font-stretch:normal;font-size:24px;font-family:KaTeX_Main;-inkscape-font-specification:'KaTeX_Main, Normal';font-variant-ligatures:normal;font-variant-caps:normal;font-variant-numeric:normal;font-feature-settings:normal;text-align:start;writing-mode:lr-tb;text-anchor:start;fill:#e07d10"
       id="path1364" /></g><g
     aria-label="−       "
     transform="scale(-1,1)"
     style="font-style:normal;font-variant:normal;font-weight:normal;font-stretch:normal;font-size:24px;font-family:KaTeX_Main;-inkscape-font-specification:'KaTeX_Main, Normal';font-variant-ligatures:normal;font-variant-caps:normal;font-variant-numeric:normal;font-feature-settings:normal;text-align:start;writing-mode:lr-tb;text-anchor:start;fill:#e07d10"
     id="text1245"><path
       d="m -277.14373,26.872002 q -0.336,-0.168 -0.336,-0.48 0,-0.312 0.336,-0.48 h 13.944 q 0.36,0.192 0.36,0.48 0,0.288 -0.36,0.48 z"
       style="font-style:normal;font-variant:normal;font-weight:normal;font-stretch:normal;font-size:24px;font-family:KaTeX_Main;-inkscape-font-specification:'KaTeX_Main, Normal';font-variant-ligatures:normal;font-variant-caps:normal;font-variant-numeric:normal;font-feature-settings:normal;text-align:start;writing-mode:lr-tb;text-anchor:start;fill:#e07d10"
       id="path1359" /></g><g
     transform="scale(-1,1)"
     style="font-style:normal;font-variant:normal;font-weight:normal;font-stretch:normal;font-size:24px;font-family:KaTeX_Main;-inkscape-font-specification:'KaTeX_Main, Normal';font-variant-ligatures:normal;font-variant-caps:normal;font-variant-numeric:normal;font-feature-settings:normal;text-align:start;writing-mode:lr-tb;text-anchor:start;fill:#e07d10;stroke-width:0.583"
     id="text1247" /><g
     aria-label="+"
     transform="scale(-1,1)"
     style="font-style:normal;font-variant:normal;font-weight:normal;font-stretch:normal;font-size:24px;font-family:KaTeX_Main;-inkscape-font-specification:'KaTeX_Main, Normal';font-variant-ligatures:normal;font-variant-caps:normal;font-variant-numeric:normal;font-feature-settings:normal;text-align:start;writing-mode:lr-tb;text-anchor:start;fill:#e07d10"
     id="text1249"><path
       d="m -206.64973,26.872002 q -0.336,-0.168 -0.336,-0.48 0,-0.312 0.336,-0.48 h 7.176 v -3.6 l 0.024,-3.6 q 0.24,-0.312 0.456,-0.312 0.312,0 0.48,0.36 v 7.152 h 7.152 q 0.36,0.192 0.36,0.48 0,0.288 -0.36,0.48 h -7.152 v 7.152 q -0.168,0.336 -0.48,0.336 -0.312,0 -0.48,-0.336 v -7.152 z"
       style="font-style:normal;font-variant:normal;font-weight:normal;font-stretch:normal;font-size:24px;font-family:KaTeX_Main;-inkscape-font-specification:'KaTeX_Main, Normal';font-variant-ligatures:normal;font-variant-caps:normal;font-variant-numeric:normal;font-feature-settings:normal;text-align:start;writing-mode:lr-tb;text-anchor:start;fill:#e07d10"
       id="path1355" /></g><g
     aria-label="4V"
     style="font-style:normal;font-variant:normal;font-weight:normal;font-stretch:normal;font-size:24px;font-family:KaTeX_Main;-inkscape-font-specification:'KaTeX_Main, Normal';font-variant-ligatures:normal;font-variant-caps:normal;font-variant-numeric:normal;font-feature-settings:normal;text-align:start;writing-mode:lr-tb;text-anchor:start;fill:#e07d10"
     id="text1251"><path
       d="m 232.16762,26.392 q -0.336,-0.072 -3.096,-0.072 -2.88,0 -3.216,0.072 h -0.216 v -1.104 h 0.744 q 1.032,-0.024 1.272,-0.12 0.192,-0.048 0.288,-0.24 0.024,-0.048 0.024,-1.296 v -1.2 h -6.216 v -1.104 l 3.624,-5.544 q 3.672,-5.568 3.72,-5.592 0.048,-0.048 0.504,-0.048 h 0.432 l 0.144,0.144 v 11.04 h 2.208 v 1.104 h -2.208 v 1.224 q 0,0.984 0,1.152 0.024,0.168 0.144,0.288 0.192,0.168 1.368,0.192 h 0.696 v 1.104 z m -4.056,-5.064 v -8.016 l -5.256,7.992 2.616,0.024 z"
       style="font-style:normal;font-variant:normal;font-weight:normal;font-stretch:normal;font-size:24px;font-family:KaTeX_Main;-inkscape-font-specification:'KaTeX_Main, Normal';font-variant-ligatures:normal;font-variant-caps:normal;font-variant-numeric:normal;font-feature-settings:normal;text-align:start;writing-mode:lr-tb;text-anchor:start;fill:#e07d10"
       id="path1350" /><path
       d="m 238.81562,11.512 q -0.264,-0.264 -0.48,-0.312 -0.216,-0.072 -1.104,-0.096 h -0.696 V 10 h 0.216 q 0.336,0.072 2.976,0.072 2.88,0 3.408,-0.072 h 0.264 v 1.104 h -0.504 q -1.104,0.024 -1.368,0.264 -0.096,0.072 -0.096,0.144 0,0.048 2.16,5.952 2.16,5.904 2.184,5.904 0.936,-2.52 2.064,-5.568 2.04,-5.52 2.04,-5.736 0,-0.456 -0.504,-0.696 -0.504,-0.264 -1.104,-0.264 h -0.12 V 10 h 0.216 q 0.408,0.072 2.76,0.072 2.064,0 2.328,-0.072 h 0.144 v 1.104 h -0.168 q -1.776,0 -2.304,0.984 0,0.024 -2.712,7.32 -2.688,7.296 -2.712,7.32 -0.072,0.192 -0.432,0.192 h -0.216 -0.216 q -0.336,0 -0.408,-0.192 -0.048,-0.048 -2.808,-7.608 -2.808,-7.536 -2.808,-7.608 z"
       style="font-style:normal;font-variant:normal;font-weight:normal;font-stretch:normal;font-size:24px;font-family:KaTeX_Main;-inkscape-font-specification:'KaTeX_Main, Normal';font-variant-ligatures:normal;font-variant-caps:normal;font-variant-numeric:normal;font-feature-settings:normal;text-align:start;writing-mode:lr-tb;text-anchor:start;fill:#e07d10"
       id="path1352" /></g><g
     aria-label="100Ω"
     style="font-style:normal;font-variant:normal;font-weight:normal;font-stretch:normal;font-size:24px;font-family:KaTeX_Main;-inkscape-font-specification:'KaTeX_Main, Normal';font-variant-ligatures:normal;font-variant-caps:normal;font-variant-numeric:normal;font-feature-settings:normal;text-align:start;letter-spacing:1;writing-mode:lr-tb;text-anchor:start"
     id="text1253"><path
       d="m 117.00477,92.3918 q -0.408,-0.072 -3.816,-0.072 -3.36,0 -3.768,0.072 h -0.288 v -1.104 h 0.624 q 1.392,0 1.8,-0.072 0.192,-0.024 0.576,-0.288 v -12.408 q -0.048,0 -0.192,0.072 -1.104,0.432 -2.472,0.456 h -0.456 v -1.104 h 0.456 q 2.016,-0.072 3.36,-0.912 0.432,-0.24 0.744,-0.552 0.048,-0.072 0.288,-0.072 0.24,0 0.408,0.144 v 7.176 l 0.024,7.2 q 0.36,0.36 1.56,0.36 h 0.792 0.624 v 1.104 z"
       style=""
       id="path1341" /><path
       d="m 122.32477,78.3518 q 1.344,-1.944 3.672,-1.944 1.752,0 3.072,1.2 0.648,0.624 1.104,1.632 0.888,1.992 0.888,5.472 0,3.72 -1.032,5.688 -0.672,1.392 -1.968,2.016 -1.008,0.504 -2.04,0.504 -2.76,0 -4.032,-2.52 -1.032,-1.968 -1.032,-5.688 0,-2.232 0.288,-3.672 0.312,-1.464 1.08,-2.688 z m 5.4,-0.288 q -0.696,-0.768 -1.704,-0.768 -1.008,0 -1.728,0.768 -0.528,0.552 -0.72,1.344 -0.192,0.792 -0.24,2.736 0,0.144 -0.024,0.936 0,0.792 0,1.32 0,2.304 0.048,3.216 0.096,1.68 0.288,2.424 0.192,0.72 0.72,1.248 0.648,0.72 1.656,0.72 0.984,0 1.632,-0.72 0.528,-0.528 0.72,-1.248 0.192,-0.744 0.288,-2.424 0.048,-0.912 0.048,-3.216 0,-0.528 -0.024,-1.32 0,-0.792 0,-0.936 -0.048,-1.944 -0.24,-2.736 -0.192,-0.792 -0.72,-1.344 z"
       style=""
       id="path1343" /><path
       d="m 135.32477,78.3518 q 1.344,-1.944 3.672,-1.944 1.752,0 3.072,1.2 0.648,0.624 1.104,1.632 0.888,1.992 0.888,5.472 0,3.72 -1.032,5.688 -0.672,1.392 -1.968,2.016 -1.008,0.504 -2.04,0.504 -2.76,0 -4.032,-2.52 -1.032,-1.968 -1.032,-5.688 0,-2.232 0.288,-3.672 0.312,-1.464 1.08,-2.688 z m 5.4,-0.288 q -0.696,-0.768 -1.704,-0.768 -1.008,0 -1.728,0.768 -0.528,0.552 -0.72,1.344 -0.192,0.792 -0.24,2.736 0,0.144 -0.024,0.936 0,0.792 0,1.32 0,2.304 0.048,3.216 0.096,1.68 0.288,2.424 0.192,0.72 0.72,1.248 0.648,0.72 1.656,0.72 0.984,0 1.632,-0.72 0.528,-0.528 0.72,-1.248 0.192,-0.744 0.288,-2.424 0.048,-0.912 0.048,-3.216 0,-0.528 -0.024,-1.32 0,-0.792 0,-0.936 -0.048,-1.944 -0.24,-2.736 -0.192,-0.792 -0.72,-1.344 z"
       style=""
       id="path1345" /><path
       d="m 155.50077,91.9118 q 0,0.312 -0.168,0.48 h -4.464 v -0.048 q -0.024,-0.024 -0.384,-2.088 l -0.408,-2.064 v -0.048 h 0.96 l 0.024,0.12 q 0,0.12 0.096,0.456 0.168,1.08 0.36,1.44 0.096,0.12 0.168,0.168 0.312,0.12 1.608,0.144 h 1.056 v -0.072 q -0.12,-0.384 -0.528,-1.272 -0.384,-0.744 -1.32,-2.208 -1.536,-2.472 -1.92,-3.768 -0.24,-0.888 -0.24,-1.656 0,-0.72 0.192,-1.368 0.528,-1.8 2.232,-3.096 1.704,-1.32 3.984,-1.512 0.144,-0.024 0.36,-0.024 h 0.36 q 3.384,0 5.544,1.848 1.368,1.2 1.8,2.784 0.192,0.648 0.192,1.368 0,0.768 -0.24,1.656 -0.384,1.296 -1.92,3.768 -0.936,1.464 -1.32,2.208 -0.408,0.888 -0.528,1.272 v 0.072 h 1.056 q 1.296,-0.024 1.608,-0.144 0.096,-0.048 0.168,-0.168 0.168,-0.36 0.36,-1.44 0.096,-0.336 0.096,-0.456 l 0.024,-0.12 h 0.96 v 0.048 l -0.408,2.064 q -0.36,2.064 -0.384,2.088 v 0.048 h -2.208 q -1.776,0 -2.064,0 -0.264,-0.024 -0.312,-0.144 -0.048,-0.096 -0.048,-0.336 0,-0.696 0.216,-1.896 0.192,-0.96 0.936,-3.24 0.768,-2.328 1.008,-3.648 0.168,-1.008 0.168,-1.656 0,-3.384 -2.472,-4.632 -1.008,-0.48 -2.016,-0.48 -2.448,0 -3.744,2.04 -0.744,1.176 -0.744,3.048 0,0.816 0.144,1.68 0.24,1.32 1.008,3.648 0.744,2.28 0.936,3.24 0.216,1.176 0.216,1.896 z"
       style=""
       id="path1347" /></g><g
     aria-label="200Ω"
     style="font-style:normal;font-variant:normal;font-weight:normal;font-stretch:normal;font-size:24px;font-family:KaTeX_Main;-inkscape-font-specification:'KaTeX_Main, Normal';font-variant-ligatures:normal;font-variant-caps:normal;font-variant-numeric:normal;font-feature-settings:normal;text-align:start;letter-spacing:1;writing-mode:lr-tb;text-anchor:start"
     id="text1255"><path
       d="m 209.44029,82.0958 q -0.672,0 -1.056,-0.432 -0.384,-0.432 -0.384,-1.056 0,-1.728 1.296,-2.952 1.32,-1.248 3.144,-1.248 2.064,0 3.408,1.128 1.368,1.104 1.68,2.904 0.048,0.432 0.048,0.792 0,1.392 -0.84,2.616 -0.672,1.008 -2.712,2.76 -0.864,0.744 -2.4,2.208 l -1.416,1.344 1.824,0.024 q 3.768,0 4.008,-0.12 0.096,-0.024 0.24,-0.504 0.096,-0.264 0.336,-1.632 v -0.072 h 0.96 v 0.072 l -0.672,4.392 v 0.072 h -8.904 v -0.456 q 0,-0.48 0.048,-0.552 0.024,-0.024 2.016,-2.28 2.616,-2.904 3.36,-3.84 1.608,-2.184 1.608,-4.008 0,-1.584 -0.84,-2.64 -0.816,-1.08 -2.304,-1.08 -1.392,0 -2.256,1.248 -0.048,0.096 -0.144,0.264 -0.072,0.12 -0.072,0.144 0,0.024 0.12,0.024 0.6,0 0.96,0.432 0.384,0.432 0.384,1.008 0,0.6 -0.408,1.032 -0.384,0.408 -1.032,0.408 z"
       style="font-style:normal;font-variant:normal;font-weight:normal;font-stretch:normal;font-size:24px;font-family:KaTeX_Main;-inkscape-font-specification:'KaTeX_Main, Normal';font-variant-ligatures:normal;font-variant-caps:normal;font-variant-numeric:normal;font-feature-settings:normal;text-align:start;letter-spacing:1;writing-mode:lr-tb;text-anchor:start"
       id="path1332" /><path
       d="m 222.10429,78.3518 q 1.344,-1.944 3.672,-1.944 1.752,0 3.072,1.2 0.648,0.624 1.104,1.632 0.888,1.992 0.888,5.472 0,3.72 -1.032,5.688 -0.672,1.392 -1.968,2.016 -1.008,0.504 -2.04,0.504 -2.76,0 -4.032,-2.52 -1.032,-1.968 -1.032,-5.688 0,-2.232 0.288,-3.672 0.312,-1.464 1.08,-2.688 z m 5.4,-0.288 q -0.696,-0.768 -1.704,-0.768 -1.008,0 -1.728,0.768 -0.528,0.552 -0.72,1.344 -0.192,0.792 -0.24,2.736 0,0.144 -0.024,0.936 0,0.792 0,1.32 0,2.304 0.048,3.216 0.096,1.68 0.288,2.424 0.192,0.72 0.72,1.248 0.648,0.72 1.656,0.72 0.984,0 1.632,-0.72 0.528,-0.528 0.72,-1.248 0.192,-0.744 0.288,-2.424 0.048,-0.912 0.048,-3.216 0,-0.528 -0.024,-1.32 0,-0.792 0,-0.936 -0.048,-1.944 -0.24,-2.736 -0.192,-0.792 -0.72,-1.344 z"
       style="font-style:normal;font-variant:normal;font-weight:normal;font-stretch:normal;font-size:24px;font-family:KaTeX_Main;-inkscape-font-specification:'KaTeX_Main, Normal';font-variant-ligatures:normal;font-variant-caps:normal;font-variant-numeric:normal;font-feature-settings:normal;text-align:start;letter-spacing:1;writing-mode:lr-tb;text-anchor:start"
       id="path1334" /><path
       d="m 235.10429,78.3518 q 1.344,-1.944 3.672,-1.944 1.752,0 3.072,1.2 0.648,0.624 1.104,1.632 0.888,1.992 0.888,5.472 0,3.72 -1.032,5.688 -0.672,1.392 -1.968,2.016 -1.008,0.504 -2.04,0.504 -2.76,0 -4.032,-2.52 -1.032,-1.968 -1.032,-5.688 0,-2.232 0.288,-3.672 0.312,-1.464 1.08,-2.688 z m 5.4,-0.288 q -0.696,-0.768 -1.704,-0.768 -1.008,0 -1.728,0.768 -0.528,0.552 -0.72,1.344 -0.192,0.792 -0.24,2.736 0,0.144 -0.024,0.936 0,0.792 0,1.32 0,2.304 0.048,3.216 0.096,1.68 0.288,2.424 0.192,0.72 0.72,1.248 0.648,0.72 1.656,0.72 0.984,0 1.632,-0.72 0.528,-0.528 0.72,-1.248 0.192,-0.744 0.288,-2.424 0.048,-0.912 0.048,-3.216 0,-0.528 -0.024,-1.32 0,-0.792 0,-0.936 -0.048,-1.944 -0.24,-2.736 -0.192,-0.792 -0.72,-1.344 z"
       style="font-style:normal;font-variant:normal;font-weight:normal;font-stretch:normal;font-size:24px;font-family:KaTeX_Main;-inkscape-font-specification:'KaTeX_Main, Normal';font-variant-ligatures:normal;font-variant-caps:normal;font-variant-numeric:normal;font-feature-settings:normal;text-align:start;letter-spacing:1;writing-mode:lr-tb;text-anchor:start"
       id="path1336" /><path
       d="m 255.28029,91.9118 q 0,0.312 -0.168,0.48 h -4.464 v -0.048 q -0.024,-0.024 -0.384,-2.088 l -0.408,-2.064 v -0.048 h 0.96 l 0.024,0.12 q 0,0.12 0.096,0.456 0.168,1.08 0.36,1.44 0.096,0.12 0.168,0.168 0.312,0.12 1.608,0.144 h 1.056 v -0.072 q -0.12,-0.384 -0.528,-1.272 -0.384,-0.744 -1.32,-2.208 -1.536,-2.472 -1.92,-3.768 -0.24,-0.888 -0.24,-1.656 0,-0.72 0.192,-1.368 0.528,-1.8 2.232,-3.096 1.704,-1.32 3.984,-1.512 0.144,-0.024 0.36,-0.024 h 0.36 q 3.384,0 5.544,1.848 1.368,1.2 1.8,2.784 0.192,0.648 0.192,1.368 0,0.768 -0.24,1.656 -0.384,1.296 -1.92,3.768 -0.936,1.464 -1.32,2.208 -0.408,0.888 -0.528,1.272 v 0.072 h 1.056 q 1.296,-0.024 1.608,-0.144 0.096,-0.048 0.168,-0.168 0.168,-0.36 0.36,-1.44 0.096,-0.336 0.096,-0.456 l 0.024,-0.12 h 0.96 v 0.048 l -0.408,2.064 q -0.36,2.064 -0.384,2.088 v 0.048 h -2.208 q -1.776,0 -2.064,0 -0.264,-0.024 -0.312,-0.144 -0.048,-0.096 -0.048,-0.336 0,-0.696 0.216,-1.896 0.192,-0.96 0.936,-3.24 0.768,-2.328 1.008,-3.648 0.168,-1.008 0.168,-1.656 0,-3.384 -2.472,-4.632 -1.008,-0.48 -2.016,-0.48 -2.448,0 -3.744,2.04 -0.744,1.176 -0.744,3.048 0,0.816 0.144,1.68 0.24,1.32 1.008,3.648 0.744,2.28 0.936,3.24 0.216,1.176 0.216,1.896 z"
       style="font-style:normal;font-variant:normal;font-weight:normal;font-stretch:normal;font-size:24px;font-family:KaTeX_Main;-inkscape-font-specification:'KaTeX_Main, Normal';font-variant-ligatures:normal;font-variant-caps:normal;font-variant-numeric:normal;font-feature-settings:normal;text-align:start;letter-spacing:1;writing-mode:lr-tb;text-anchor:start"
       id="path1338" /></g><g
     aria-label="300Ω"
     style="font-style:normal;font-variant:normal;font-weight:normal;font-stretch:normal;font-size:24px;font-family:KaTeX_Main;-inkscape-font-specification:'KaTeX_Main, Normal';font-variant-ligatures:normal;font-variant-caps:normal;font-variant-numeric:normal;font-feature-settings:normal;text-align:start;letter-spacing:1;writing-mode:lr-tb;text-anchor:start"
     id="text1257"><path
       d="m 214.28924,129.27991 q -0.648,0 -1.032,-0.408 -0.36,-0.408 -0.36,-1.056 0,-1.368 1.08,-2.28 1.08,-0.936 2.496,-1.104 h 0.36 q 0.84,0 1.056,0.024 0.792,0.12 1.608,0.504 1.584,0.792 1.992,2.256 0.072,0.24 0.072,0.648 0,1.416 -0.888,2.544 -0.864,1.104 -2.184,1.584 -0.12,0.048 0,0.072 0.048,0.024 0.24,0.072 1.464,0.408 2.472,1.536 1.008,1.104 1.008,2.52 0,0.984 -0.456,1.896 -0.576,1.224 -1.896,2.04 -1.296,0.792 -2.904,0.792 -1.584,0 -2.808,-0.672 -1.224,-0.672 -1.656,-1.8 -0.24,-0.504 -0.24,-1.176 0,-0.672 0.432,-1.08 0.456,-0.432 1.08,-0.432 0.672,0 1.104,0.432 0.432,0.432 0.432,1.08 0,0.552 -0.312,0.96 -0.312,0.408 -0.84,0.528 l -0.168,0.048 q 1.296,1.08 2.976,1.08 1.32,0 1.992,-1.272 0.408,-0.792 0.408,-2.424 v -0.48 q 0,-2.28 -1.536,-3.048 -0.36,-0.144 -1.464,-0.168 l -1.008,-0.024 -0.072,-0.048 q -0.048,-0.072 -0.048,-0.384 0,-0.288 0.072,-0.36 0.072,-0.072 0.12,-0.072 0.672,0 1.392,-0.12 1.056,-0.144 1.608,-1.176 0.552,-1.056 0.552,-2.52 0,-1.56 -0.84,-2.088 -0.504,-0.336 -1.128,-0.336 -1.2,0 -2.112,0.648 -0.096,0.048 -0.216,0.168 -0.12,0.096 -0.192,0.192 l -0.072,0.096 q 0.072,0.024 0.168,0.048 0.48,0.048 0.792,0.456 0.336,0.408 0.336,0.936 0,0.576 -0.408,0.984 -0.384,0.384 -1.008,0.384 z"
       style="font-style:normal;font-variant:normal;font-weight:normal;font-stretch:normal;font-size:24px;font-family:KaTeX_Main;-inkscape-font-specification:'KaTeX_Main, Normal';font-variant-ligatures:normal;font-variant-caps:normal;font-variant-numeric:normal;font-feature-settings:normal;text-align:start;letter-spacing:1;writing-mode:lr-tb;text-anchor:start"
       id="path1323" /><path
       d="m 226.54524,126.35191 q 1.344,-1.944 3.672,-1.944 1.752,0 3.072,1.2 0.648,0.624 1.104,1.632 0.888,1.992 0.888,5.472 0,3.72 -1.032,5.688 -0.672,1.392 -1.968,2.016 -1.008,0.504 -2.04,0.504 -2.76,0 -4.032,-2.52 -1.032,-1.968 -1.032,-5.688 0,-2.232 0.288,-3.672 0.312,-1.464 1.08,-2.688 z m 5.4,-0.288 q -0.696,-0.768 -1.704,-0.768 -1.008,0 -1.728,0.768 -0.528,0.552 -0.72,1.344 -0.192,0.792 -0.24,2.736 0,0.144 -0.024,0.936 0,0.792 0,1.32 0,2.304 0.048,3.216 0.096,1.68 0.288,2.424 0.192,0.72 0.72,1.248 0.648,0.72 1.656,0.72 0.984,0 1.632,-0.72 0.528,-0.528 0.72,-1.248 0.192,-0.744 0.288,-2.424 0.048,-0.912 0.048,-3.216 0,-0.528 -0.024,-1.32 0,-0.792 0,-0.936 -0.048,-1.944 -0.24,-2.736 -0.192,-0.792 -0.72,-1.344 z"
       style="font-style:normal;font-variant:normal;font-weight:normal;font-stretch:normal;font-size:24px;font-family:KaTeX_Main;-inkscape-font-specification:'KaTeX_Main, Normal';font-variant-ligatures:normal;font-variant-caps:normal;font-variant-numeric:normal;font-feature-settings:normal;text-align:start;letter-spacing:1;writing-mode:lr-tb;text-anchor:start"
       id="path1325" /><path
       d="m 239.54524,126.35191 q 1.344,-1.944 3.672,-1.944 1.752,0 3.072,1.2 0.648,0.624 1.104,1.632 0.888,1.992 0.888,5.472 0,3.72 -1.032,5.688 -0.672,1.392 -1.968,2.016 -1.008,0.504 -2.04,0.504 -2.76,0 -4.032,-2.52 -1.032,-1.968 -1.032,-5.688 0,-2.232 0.288,-3.672 0.312,-1.464 1.08,-2.688 z m 5.4,-0.288 q -0.696,-0.768 -1.704,-0.768 -1.008,0 -1.728,0.768 -0.528,0.552 -0.72,1.344 -0.192,0.792 -0.24,2.736 0,0.144 -0.024,0.936 0,0.792 0,1.32 0,2.304 0.048,3.216 0.096,1.68 0.288,2.424 0.192,0.72 0.72,1.248 0.648,0.72 1.656,0.72 0.984,0 1.632,-0.72 0.528,-0.528 0.72,-1.248 0.192,-0.744 0.288,-2.424 0.048,-0.912 0.048,-3.216 0,-0.528 -0.024,-1.32 0,-0.792 0,-0.936 -0.048,-1.944 -0.24,-2.736 -0.192,-0.792 -0.72,-1.344 z"
       style="font-style:normal;font-variant:normal;font-weight:normal;font-stretch:normal;font-size:24px;font-family:KaTeX_Main;-inkscape-font-specification:'KaTeX_Main, Normal';font-variant-ligatures:normal;font-variant-caps:normal;font-variant-numeric:normal;font-feature-settings:normal;text-align:start;letter-spacing:1;writing-mode:lr-tb;text-anchor:start"
       id="path1327" /><path
       d="m 259.72124,139.91191 q 0,0.312 -0.168,0.48 h -4.464 v -0.048 q -0.024,-0.024 -0.384,-2.088 l -0.408,-2.064 v -0.048 h 0.96 l 0.024,0.12 q 0,0.12 0.096,0.456 0.168,1.08 0.36,1.44 0.096,0.12 0.168,0.168 0.312,0.12 1.608,0.144 h 1.056 v -0.072 q -0.12,-0.384 -0.528,-1.272 -0.384,-0.744 -1.32,-2.208 -1.536,-2.472 -1.92,-3.768 -0.24,-0.888 -0.24,-1.656 0,-0.72 0.192,-1.368 0.528,-1.8 2.232,-3.096 1.704,-1.32 3.984,-1.512 0.144,-0.024 0.36,-0.024 h 0.36 q 3.384,0 5.544,1.848 1.368,1.2 1.8,2.784 0.192,0.648 0.192,1.368 0,0.768 -0.24,1.656 -0.384,1.296 -1.92,3.768 -0.936,1.464 -1.32,2.208 -0.408,0.888 -0.528,1.272 v 0.072 h 1.056 q 1.296,-0.024 1.608,-0.144 0.096,-0.048 0.168,-0.168 0.168,-0.36 0.36,-1.44 0.096,-0.336 0.096,-0.456 l 0.024,-0.12 h 0.96 v 0.048 l -0.408,2.064 q -0.36,2.064 -0.384,2.088 v 0.048 h -2.208 q -1.776,0 -2.064,0 -0.264,-0.024 -0.312,-0.144 -0.048,-0.096 -0.048,-0.336 0,-0.696 0.216,-1.896 0.192,-0.96 0.936,-3.24 0.768,-2.328 1.008,-3.648 0.168,-1.008 0.168,-1.656 0,-3.384 -2.472,-4.632 -1.008,-0.48 -2.016,-0.48 -2.448,0 -3.744,2.04 -0.744,1.176 -0.744,3.048 0,0.816 0.144,1.68 0.24,1.32 1.008,3.648 0.744,2.28 0.936,3.24 0.216,1.176 0.216,1.896 z"
       style="font-style:normal;font-variant:normal;font-weight:normal;font-stretch:normal;font-size:24px;font-family:KaTeX_Main;-inkscape-font-specification:'KaTeX_Main, Normal';font-variant-ligatures:normal;font-variant-caps:normal;font-variant-numeric:normal;font-feature-settings:normal;text-align:start;letter-spacing:1;writing-mode:lr-tb;text-anchor:start"
       id="path1329" /></g><g
     aria-label="400Ω"
     style="font-style:normal;font-variant:normal;font-weight:normal;font-stretch:normal;font-size:24px;font-family:KaTeX_Main;-inkscape-font-specification:'KaTeX_Main, Normal';font-variant-ligatures:normal;font-variant-caps:normal;font-variant-numeric:normal;font-feature-settings:normal;text-align:start;letter-spacing:1;writing-mode:lr-tb;text-anchor:start"
     id="text1259"><path
       d="m 172.10877,182.39191 q -0.336,-0.072 -3.096,-0.072 -2.88,0 -3.216,0.072 h -0.216 v -1.104 h 0.744 q 1.032,-0.024 1.272,-0.12 0.192,-0.048 0.288,-0.24 0.024,-0.048 0.024,-1.296 v -1.2 h -6.216 v -1.104 l 3.624,-5.544 q 3.672,-5.568 3.72,-5.592 0.048,-0.048 0.504,-0.048 h 0.432 l 0.144,0.144 v 11.04 h 2.208 v 1.104 h -2.208 v 1.224 q 0,0.984 0,1.152 0.024,0.168 0.144,0.288 0.192,0.168 1.368,0.192 h 0.696 v 1.104 z m -4.056,-5.064 v -8.016 l -5.256,7.992 2.616,0.024 z"
       style="font-style:normal;font-variant:normal;font-weight:normal;font-stretch:normal;font-size:24px;font-family:KaTeX_Main;-inkscape-font-specification:'KaTeX_Main, Normal';font-variant-ligatures:normal;font-variant-caps:normal;font-variant-numeric:normal;font-feature-settings:normal;text-align:start;letter-spacing:1;writing-mode:lr-tb;text-anchor:start"
       id="path1314" /><path
       d="m 176.32477,168.35191 q 1.344,-1.944 3.672,-1.944 1.752,0 3.072,1.2 0.648,0.624 1.104,1.632 0.888,1.992 0.888,5.472 0,3.72 -1.032,5.688 -0.672,1.392 -1.968,2.016 -1.008,0.504 -2.04,0.504 -2.76,0 -4.032,-2.52 -1.032,-1.968 -1.032,-5.688 0,-2.232 0.288,-3.672 0.312,-1.464 1.08,-2.688 z m 5.4,-0.288 q -0.696,-0.768 -1.704,-0.768 -1.008,0 -1.728,0.768 -0.528,0.552 -0.72,1.344 -0.192,0.792 -0.24,2.736 0,0.144 -0.024,0.936 0,0.792 0,1.32 0,2.304 0.048,3.216 0.096,1.68 0.288,2.424 0.192,0.72 0.72,1.248 0.648,0.72 1.656,0.72 0.984,0 1.632,-0.72 0.528,-0.528 0.72,-1.248 0.192,-0.744 0.288,-2.424 0.048,-0.912 0.048,-3.216 0,-0.528 -0.024,-1.32 0,-0.792 0,-0.936 -0.048,-1.944 -0.24,-2.736 -0.192,-0.792 -0.72,-1.344 z"
       style="font-style:normal;font-variant:normal;font-weight:normal;font-stretch:normal;font-size:24px;font-family:KaTeX_Main;-inkscape-font-specification:'KaTeX_Main, Normal';font-variant-ligatures:normal;font-variant-caps:normal;font-variant-numeric:normal;font-feature-settings:normal;text-align:start;letter-spacing:1;writing-mode:lr-tb;text-anchor:start"
       id="path1316" /><path
       d="m 189.32477,168.35191 q 1.344,-1.944 3.672,-1.944 1.752,0 3.072,1.2 0.648,0.624 1.104,1.632 0.888,1.992 0.888,5.472 0,3.72 -1.032,5.688 -0.672,1.392 -1.968,2.016 -1.008,0.504 -2.04,0.504 -2.76,0 -4.032,-2.52 -1.032,-1.968 -1.032,-5.688 0,-2.232 0.288,-3.672 0.312,-1.464 1.08,-2.688 z m 5.4,-0.288 q -0.696,-0.768 -1.704,-0.768 -1.008,0 -1.728,0.768 -0.528,0.552 -0.72,1.344 -0.192,0.792 -0.24,2.736 0,0.144 -0.024,0.936 0,0.792 0,1.32 0,2.304 0.048,3.216 0.096,1.68 0.288,2.424 0.192,0.72 0.72,1.248 0.648,0.72 1.656,0.72 0.984,0 1.632,-0.72 0.528,-0.528 0.72,-1.248 0.192,-0.744 0.288,-2.424 0.048,-0.912 0.048,-3.216 0,-0.528 -0.024,-1.32 0,-0.792 0,-0.936 -0.048,-1.944 -0.24,-2.736 -0.192,-0.792 -0.72,-1.344 z"
       style="font-style:normal;font-variant:normal;font-weight:normal;font-stretch:normal;font-size:24px;font-family:KaTeX_Main;-inkscape-font-specification:'KaTeX_Main, Normal';font-variant-ligatures:normal;font-variant-caps:normal;font-variant-numeric:normal;font-feature-settings:normal;text-align:start;letter-spacing:1;writing-mode:lr-tb;text-anchor:start"
       id="path1318" /><path
       d="m 209.50077,181.91191 q 0,0.312 -0.168,0.48 h -4.464 v -0.048 q -0.024,-0.024 -0.384,-2.088 l -0.408,-2.064 v -0.048 h 0.96 l 0.024,0.12 q 0,0.12 0.096,0.456 0.168,1.08 0.36,1.44 0.096,0.12 0.168,0.168 0.312,0.12 1.608,0.144 h 1.056 v -0.072 q -0.12,-0.384 -0.528,-1.272 -0.384,-0.744 -1.32,-2.208 -1.536,-2.472 -1.92,-3.768 -0.24,-0.888 -0.24,-1.656 0,-0.72 0.192,-1.368 0.528,-1.8 2.232,-3.096 1.704,-1.32 3.984,-1.512 0.144,-0.024 0.36,-0.024 h 0.36 q 3.384,0 5.544,1.848 1.368,1.2 1.8,2.784 0.192,0.648 0.192,1.368 0,0.768 -0.24,1.656 -0.384,1.296 -1.92,3.768 -0.936,1.464 -1.32,2.208 -0.408,0.888 -0.528,1.272 v 0.072 h 1.056 q 1.296,-0.024 1.608,-0.144 0.096,-0.048 0.168,-0.168 0.168,-0.36 0.36,-1.44 0.096,-0.336 0.096,-0.456 l 0.024,-0.12 h 0.96 v 0.048 l -0.408,2.064 q -0.36,2.064 -0.384,2.088 v 0.048 h -2.208 q -1.776,0 -2.064,0 -0.264,-0.024 -0.312,-0.144 -0.048,-0.096 -0.048,-0.336 0,-0.696 0.216,-1.896 0.192,-0.96 0.936,-3.24 0.768,-2.328 1.008,-3.648 0.168,-1.008 0.168,-1.656 0,-3.384 -2.472,-4.632 -1.008,-0.48 -2.016,-0.48 -2.448,0 -3.744,2.04 -0.744,1.176 -0.744,3.048 0,0.816 0.144,1.68 0.24,1.32 1.008,3.648 0.744,2.28 0.936,3.24 0.216,1.176 0.216,1.896 z"
       style="font-style:normal;font-variant:normal;font-weight:normal;font-stretch:normal;font-size:24px;font-family:KaTeX_Main;-inkscape-font-specification:'KaTeX_Main, Normal';font-variant-ligatures:normal;font-variant-caps:normal;font-variant-numeric:normal;font-feature-settings:normal;text-align:start;letter-spacing:1;writing-mode:lr-tb;text-anchor:start"
       id="path1320" /></g><g
     aria-label="20V"
     style="font-style:normal;font-variant:normal;font-weight:normal;font-stretch:normal;font-size:24px;font-family:KaTeX_Main;-inkscape-font-specification:'KaTeX_Main, Normal';font-variant-ligatures:normal;font-variant-caps:normal;font-variant-numeric:normal;font-feature-settings:normal;text-align:start;letter-spacing:1;writing-mode:lr-tb;text-anchor:start"
     id="text1261"><path
       d="m 117.21983,130.09591 q -0.672,0 -1.056,-0.432 -0.384,-0.432 -0.384,-1.056 0,-1.728 1.296,-2.952 1.32,-1.248 3.144,-1.248 2.064,0 3.408,1.128 1.368,1.104 1.68,2.904 0.048,0.432 0.048,0.792 0,1.392 -0.84,2.616 -0.672,1.008 -2.712,2.76 -0.864,0.744 -2.4,2.208 l -1.416,1.344 1.824,0.024 q 3.768,0 4.008,-0.12 0.096,-0.024 0.24,-0.504 0.096,-0.264 0.336,-1.632 v -0.072 h 0.96 v 0.072 l -0.672,4.392 v 0.072 h -8.904 v -0.456 q 0,-0.48 0.048,-0.552 0.024,-0.024 2.016,-2.28 2.616,-2.904 3.36,-3.84 1.608,-2.184 1.608,-4.008 0,-1.584 -0.84,-2.64 -0.816,-1.08 -2.304,-1.08 -1.392,0 -2.256,1.248 -0.048,0.096 -0.144,0.264 -0.072,0.12 -0.072,0.144 0,0.024 0.12,0.024 0.6,0 0.96,0.432 0.384,0.432 0.384,1.008 0,0.6 -0.408,1.032 -0.384,0.408 -1.032,0.408 z"
       style="font-style:normal;font-variant:normal;font-weight:normal;font-stretch:normal;font-size:24px;font-family:KaTeX_Main;-inkscape-font-specification:'KaTeX_Main, Normal';font-variant-ligatures:normal;font-variant-caps:normal;font-variant-numeric:normal;font-feature-settings:normal;text-align:start;letter-spacing:1;writing-mode:lr-tb;text-anchor:start"
       id="path1307" /><path
       d="m 129.88383,126.35191 q 1.344,-1.944 3.672,-1.944 1.752,0 3.072,1.2 0.648,0.624 1.104,1.632 0.888,1.992 0.888,5.472 0,3.72 -1.032,5.688 -0.672,1.392 -1.968,2.016 -1.008,0.504 -2.04,0.504 -2.76,0 -4.032,-2.52 -1.032,-1.968 -1.032,-5.688 0,-2.232 0.288,-3.672 0.312,-1.464 1.08,-2.688 z m 5.4,-0.288 q -0.696,-0.768 -1.704,-0.768 -1.008,0 -1.728,0.768 -0.528,0.552 -0.72,1.344 -0.192,0.792 -0.24,2.736 0,0.144 -0.024,0.936 0,0.792 0,1.32 0,2.304 0.048,3.216 0.096,1.68 0.288,2.424 0.192,0.72 0.72,1.248 0.648,0.72 1.656,0.72 0.984,0 1.632,-0.72 0.528,-0.528 0.72,-1.248 0.192,-0.744 0.288,-2.424 0.048,-0.912 0.048,-3.216 0,-0.528 -0.024,-1.32 0,-0.792 0,-0.936 -0.048,-1.944 -0.24,-2.736 -0.192,-0.792 -0.72,-1.344 z"
       style="font-style:normal;font-variant:normal;font-weight:normal;font-stretch:normal;font-size:24px;font-family:KaTeX_Main;-inkscape-font-specification:'KaTeX_Main, Normal';font-variant-ligatures:normal;font-variant-caps:normal;font-variant-numeric:normal;font-feature-settings:normal;text-align:start;letter-spacing:1;writing-mode:lr-tb;text-anchor:start"
       id="path1309" /><path
       d="m 143.31583,125.51191 q -0.264,-0.264 -0.48,-0.312 -0.216,-0.072 -1.104,-0.096 h -0.696 v -1.104 h 0.216 q 0.336,0.072 2.976,0.072 2.88,0 3.408,-0.072 h 0.264 v 1.104 h -0.504 q -1.104,0.024 -1.368,0.264 -0.096,0.072 -0.096,0.144 0,0.048 2.16,5.952 2.16,5.904 2.184,5.904 0.936,-2.52 2.064,-5.568 2.04,-5.52 2.04,-5.736 0,-0.456 -0.504,-0.696 -0.504,-0.264 -1.104,-0.264 h -0.12 v -1.104 h 0.216 q 0.408,0.072 2.76,0.072 2.064,0 2.328,-0.072 h 0.144 v 1.104 h -0.168 q -1.776,0 -2.304,0.984 0,0.024 -2.712,7.32 -2.688,7.296 -2.712,7.32 -0.072,0.192 -0.432,0.192 h -0.216 -0.216 q -0.336,0 -0.408,-0.192 -0.048,-0.048 -2.808,-7.608 -2.808,-7.536 -2.808,-7.608 z"
       style="font-style:normal;font-variant:normal;font-weight:normal;font-stretch:normal;font-size:24px;font-family:KaTeX_Main;-inkscape-font-specification:'KaTeX_Main, Normal';font-variant-ligatures:normal;font-variant-caps:normal;font-variant-numeric:normal;font-feature-settings:normal;text-align:start;letter-spacing:1;writing-mode:lr-tb;text-anchor:start"
       id="path1311" /></g><g
     id="g1271"
     transform="translate(0.57972794,-3.6080992)"><g
       id="g1269"><line
         class="st59"
         x1="174"
         y1="66"
         x2="187.10001"
         y2="66"
         id="line1263"
         style="fill:none;stroke:#11accd;stroke-width:3;stroke-linecap:round;stroke-linejoin:round" /><g
         id="g1267"><path
           class="st16"
           d="m 198,66 c -5.1,1.9 -11.5,5.1 -15.4,8.6 l 3.1,-8.6 -3.1,-8.6 c 3.9,3.5 10.3,6.7 15.4,8.6 z"
           id="path1265"
           inkscape:connector-curvature="0"
           style="fill:#11accd" /></g></g></g><g
     aria-label="a"
     style="font-style:normal;font-variant:normal;font-weight:normal;font-stretch:normal;font-size:24px;font-family:KaTeX_Math;-inkscape-font-specification:'KaTeX_Math, Normal';font-variant-ligatures:normal;font-variant-caps:normal;font-variant-numeric:normal;font-feature-settings:normal;text-align:start;letter-spacing:1;writing-mode:lr-tb;text-anchor:start;fill:#1fab54"
     id="text1273"><path
       d="m 84.267727,196.71991 q 0.216,0 0.288,0.024 0.072,0 0.12,0.048 0.048,0.048 0.048,0.144 0,0.072 -0.072,0.36 -0.528,2.016 -1.296,2.784 -0.312,0.312 -0.768,0.504 -0.192,0.048 -0.576,0.048 -1.512,0 -2.112,-1.176 -0.12,-0.312 -0.12,-0.288 -0.024,-0.024 -0.096,0.024 -0.048,0.048 -0.096,0.096 -1.152,1.08 -2.28,1.32 -0.144,0.024 -0.6,0.024 -1.584,0 -2.616,-1.32 -0.72,-1.056 -0.72,-2.688 0,-0.384 0.024,-0.528 0.168,-1.536 0.984,-2.928 0.84,-1.416 1.992,-2.28 1.392,-1.08 2.928,-1.08 1.2,0 2.16,1.176 0.384,-0.72 1.104,-0.72 0.312,0 0.552,0.192 0.24,0.192 0.24,0.48 0,0.312 -0.912,3.864 -0.888,3.528 -0.888,3.96 0,1.008 0.672,1.008 0.216,-0.024 0.48,-0.216 0.504,-0.48 0.984,-2.304 0.144,-0.48 0.24,-0.504 0.048,-0.024 0.24,-0.024 z m -8.856,1.128 q 0,0.864 0.36,1.392 0.384,0.528 1.104,0.528 0.696,0 1.488,-0.576 0.288,-0.192 0.768,-0.72 0.504,-0.528 0.6,-0.72 0.048,-0.096 0.648,-2.568 0.624,-2.472 0.624,-2.664 0,-0.288 -0.264,-0.816 -0.528,-1.032 -1.512,-1.032 -0.96,0 -1.704,0.816 -0.72,0.816 -1.104,1.872 -0.696,1.896 -0.984,3.936 0,0.072 -0.024,0.264 0,0.192 0,0.288 z"
       style="font-style:normal;font-variant:normal;font-weight:normal;font-stretch:normal;font-size:24px;font-family:KaTeX_Math;-inkscape-font-specification:'KaTeX_Math, Normal';font-variant-ligatures:normal;font-variant-caps:normal;font-variant-numeric:normal;font-feature-settings:normal;text-align:start;letter-spacing:1;writing-mode:lr-tb;text-anchor:start;fill:#1fab54"
       id="path1304" /></g><g
     aria-label="b"
     style="font-style:normal;font-variant:normal;font-weight:normal;font-stretch:normal;font-size:24px;font-family:KaTeX_Math;-inkscape-font-specification:'KaTeX_Math, Normal';font-variant-ligatures:normal;font-variant-caps:normal;font-variant-numeric:normal;font-feature-settings:normal;text-align:start;letter-spacing:1;writing-mode:lr-tb;text-anchor:start;fill:#1fab54"
     id="text1275"><path
       d="m 74.715727,57.999899 q 0.024,0 1.728,-0.12 1.728,-0.144 1.752,-0.144 0.288,0 0.288,0.216 0,0.216 -0.816,3.432 -0.192,0.816 -0.432,1.68 -0.216,0.864 -0.336,1.296 l -0.096,0.456 q 0,0.072 0.144,-0.072 0.816,-0.672 1.824,-0.912 0.288,-0.048 0.6,-0.048 0.312,0 0.6,0.048 1.248,0.288 1.992,1.296 0.744,1.008 0.744,2.544 0,2.688 -1.896,4.848 -1.872,2.136 -4.08,2.136 -0.696,0 -1.32,-0.312 -1.872,-0.84 -1.872,-3.552 0,-0.696 0.144,-1.368 0,-0.024 1.2,-4.92 l 1.224,-4.896 q 0.048,-0.336 -0.168,-0.408 -0.192,-0.096 -0.672,-0.096 -0.168,0 -0.264,0 -0.504,0 -0.576,-0.072 -0.144,-0.12 -0.024,-0.576 0.096,-0.336 0.168,-0.384 0.072,-0.072 0.144,-0.072 z m 5.928,8.592 q 0,-1.92 -1.464,-1.92 -0.048,0 -0.168,0.024 -0.096,0 -0.12,0 -1.248,0.264 -2.352,1.728 -0.048,0.048 -0.12,0.144 l -0.072,0.096 q 0,0.024 -0.432,1.728 -0.408,1.68 -0.456,1.92 -0.144,0.744 -0.144,1.344 0,1.152 0.576,1.728 0.384,0.384 0.96,0.384 0.792,0 1.608,-0.768 0.6,-0.552 0.96,-1.344 0.384,-0.816 0.792,-2.52 0.432,-1.728 0.432,-2.544 z"
       style="font-style:normal;font-variant:normal;font-weight:normal;font-stretch:normal;font-size:24px;font-family:KaTeX_Math;-inkscape-font-specification:'KaTeX_Math, Normal';font-variant-ligatures:normal;font-variant-caps:normal;font-variant-numeric:normal;font-feature-settings:normal;text-align:start;letter-spacing:1;writing-mode:lr-tb;text-anchor:start;fill:#1fab54"
       id="path1301" /></g><g
     aria-label="c"
     style="font-style:normal;font-variant:normal;font-weight:normal;font-stretch:normal;font-size:24px;font-family:KaTeX_Math;-inkscape-font-specification:'KaTeX_Math, Normal';font-variant-ligatures:normal;font-variant-caps:normal;font-variant-numeric:normal;font-feature-settings:normal;text-align:start;letter-spacing:1;writing-mode:lr-tb;text-anchor:start;fill:#1fab54"
     id="text1277"><path
       d="m 190.32373,47.487899 q 0.096,0 0.312,0.24 0.24,0.216 0.24,0.312 0,0.216 -0.744,0.888 -1.488,1.344 -3.768,1.68 -0.528,0.048 -0.936,0.048 -2.568,0 -3.576,-2.112 -0.456,-0.888 -0.456,-1.968 0,-1.104 0.456,-2.256 0.696,-1.8 2.256,-3.048 1.584,-1.272 3.36,-1.464 0.144,-0.024 0.456,-0.024 0.84,0 1.56,0.264 1.344,0.576 1.344,1.824 0,0.744 -0.456,1.224 -0.456,0.456 -1.152,0.456 -0.456,0 -0.72,-0.24 -0.264,-0.264 -0.264,-0.72 0,-0.408 0.24,-0.792 0.24,-0.384 0.624,-0.552 0.192,-0.12 0.264,-0.12 0.096,0 -0.168,-0.168 -0.456,-0.264 -1.272,-0.264 -0.72,0 -1.368,0.336 -0.504,0.216 -1.032,0.744 -0.624,0.624 -1.008,1.488 -0.384,0.864 -0.768,2.472 -0.264,1.128 -0.264,1.8 0,1.104 0.624,1.656 0.552,0.576 1.488,0.576 0.36,0 0.744,-0.048 2.256,-0.336 3.696,-1.992 0.216,-0.24 0.288,-0.24 z"
       style="font-style:normal;font-variant:normal;font-weight:normal;font-stretch:normal;font-size:24px;font-family:KaTeX_Math;-inkscape-font-specification:'KaTeX_Math, Normal';font-variant-ligatures:normal;font-variant-caps:normal;font-variant-numeric:normal;font-feature-settings:normal;text-align:start;letter-spacing:1;writing-mode:lr-tb;text-anchor:start;fill:#1fab54"
       id="path1298" /></g><g
     aria-label="d"
     style="font-style:normal;font-variant:normal;font-weight:normal;font-stretch:normal;font-size:24px;font-family:KaTeX_Math;-inkscape-font-specification:'KaTeX_Math, Normal';font-variant-ligatures:normal;font-variant-caps:normal;font-variant-numeric:normal;font-feature-settings:normal;text-align:start;letter-spacing:1;writing-mode:lr-tb;text-anchor:start;fill:#1fab54"
     id="text1279"><path
       d="m 299.09174,57.879899 q 0.36,-0.024 0.816,-0.048 0.456,-0.048 0.672,-0.072 0.24,-0.024 0.264,-0.024 0.288,0 0.288,0.192 0,0.168 -1.776,7.272 -1.752,7.08 -1.776,7.2 -0.024,0.12 -0.024,0.36 0,1.008 0.672,1.008 0.216,-0.024 0.48,-0.216 0.504,-0.48 0.984,-2.304 0.144,-0.48 0.24,-0.504 0.048,-0.024 0.24,-0.024 h 0.096 q 0.456,0 0.456,0.192 0,0.096 -0.072,0.384 -0.528,2.016 -1.296,2.784 -0.312,0.312 -0.768,0.504 -0.192,0.048 -0.576,0.048 -1.512,0 -2.112,-1.176 -0.12,-0.312 -0.12,-0.288 -0.024,-0.024 -0.096,0.024 -0.048,0.048 -0.096,0.096 -1.152,1.08 -2.28,1.32 -0.144,0.024 -0.6,0.024 -1.584,0 -2.616,-1.32 -0.72,-1.056 -0.72,-2.688 0,-2.232 1.632,-4.416 1.488,-1.824 3.312,-2.28 0.504,-0.144 0.984,-0.144 1.32,0 2.016,1.008 0.12,0.144 0.12,0.096 0.024,-0.096 0.648,-2.616 0.648,-2.544 0.672,-2.664 0,-0.288 -0.144,-0.384 -0.264,-0.096 -0.96,-0.12 h -0.504 q -0.144,-0.144 -0.168,-0.192 0,-0.048 0.072,-0.456 0.12,-0.456 0.312,-0.456 0.024,0 0.24,-0.024 0.24,-0.024 0.648,-0.048 0.432,-0.024 0.84,-0.048 z m -2.064,8.688 q -0.528,-1.896 -1.8,-1.896 -0.96,0 -1.704,0.816 -0.72,0.816 -1.104,1.872 -0.696,1.896 -0.984,3.936 0,0.072 -0.024,0.264 0,0.192 0,0.288 0,0.864 0.36,1.392 0.384,0.528 1.104,0.528 1.272,0 2.664,-1.728 l 0.192,-0.264 q 0.216,-0.864 0.648,-2.592 0.432,-1.752 0.648,-2.616 z"
       style="font-style:normal;font-variant:normal;font-weight:normal;font-stretch:normal;font-size:24px;font-family:KaTeX_Math;-inkscape-font-specification:'KaTeX_Math, Normal';font-variant-ligatures:normal;font-variant-caps:normal;font-variant-numeric:normal;font-feature-settings:normal;text-align:start;letter-spacing:1;writing-mode:lr-tb;text-anchor:start;fill:#1fab54"
       id="path1295" /></g><g
     aria-label="e"
     style="font-style:normal;font-variant:normal;font-weight:normal;font-stretch:normal;font-size:24px;font-family:KaTeX_Math;-inkscape-font-specification:'KaTeX_Math, Normal';font-variant-ligatures:normal;font-variant-caps:normal;font-variant-numeric:normal;font-feature-settings:normal;text-align:start;letter-spacing:1;writing-mode:lr-tb;text-anchor:start;fill:#1fab54"
     id="text1281"><path
       d="m 298.32374,197.48791 q 0.096,0 0.312,0.24 0.24,0.216 0.24,0.312 0,0.216 -0.744,0.888 -1.968,1.728 -4.632,1.728 -1.32,0 -2.232,-0.648 -0.528,-0.288 -0.96,-0.936 -0.792,-1.2 -0.792,-2.712 0,-0.912 0.192,-1.8 0.504,-1.872 2.064,-3.192 1.584,-1.32 3.792,-1.56 0.024,-0.024 0.384,-0.024 h 0.072 q 1.008,0 1.704,0.456 0.72,0.432 0.936,1.2 0.024,0.096 0.024,0.432 0,0.432 -0.048,0.6 -0.504,1.704 -2.616,2.232 -1.176,0.312 -3.216,0.336 -0.888,0 -0.912,0.048 0,0.024 -0.048,0.312 -0.264,1.176 -0.264,1.92 0,1.128 0.504,1.8 0.504,0.648 1.512,0.648 2.688,0 4.44,-2.04 0.216,-0.24 0.288,-0.24 z m -0.792,-5.568 q -0.144,-1.248 -1.632,-1.248 -0.84,0 -1.728,0.48 -1.176,0.696 -1.752,2.184 -0.264,0.72 -0.264,0.792 0,0.024 0.48,0.024 0.792,0 1.464,-0.048 1.416,-0.12 2.112,-0.408 0.696,-0.288 1.152,-0.96 0.168,-0.36 0.168,-0.816 z"
       style="font-style:normal;font-variant:normal;font-weight:normal;font-stretch:normal;font-size:24px;font-family:KaTeX_Math;-inkscape-font-specification:'KaTeX_Math, Normal';font-variant-ligatures:normal;font-variant-caps:normal;font-variant-numeric:normal;font-feature-settings:normal;text-align:start;letter-spacing:1;writing-mode:lr-tb;text-anchor:start;fill:#1fab54"
       id="path1292" /></g></svg>