<?xml version="1.0" encoding="UTF-8" standalone="no"?>
<!-- Generator: Adobe Illustrator 19.1.0, SVG Export Plug-In . SVG Version: 6.00 Build 0)  -->

<svg
   xmlns:dc="http://purl.org/dc/elements/1.1/"
   xmlns:cc="http://creativecommons.org/ns#"
   xmlns:rdf="http://www.w3.org/1999/02/22-rdf-syntax-ns#"
   xmlns:svg="http://www.w3.org/2000/svg"
   xmlns="http://www.w3.org/2000/svg"
   xmlns:sodipodi="http://sodipodi.sourceforge.net/DTD/sodipodi-0.dtd"
   xmlns:inkscape="http://www.inkscape.org/namespaces/inkscape"
   version="1.1"
   id="Layer_1"
   x="0px"
   y="0px"
   width="356.32385"
   height="262.69913"
   viewBox="0 0 356.32385 262.69913"
   xml:space="preserve"
   sodipodi:docname="kvl5.svg"
   inkscape:version="0.92.2 5c3e80d, 2017-08-06"><metadata
     id="metadata3203"><rdf:RDF><cc:Work
         rdf:about=""><dc:format>image/svg+xml</dc:format><dc:type
           rdf:resource="http://purl.org/dc/dcmitype/StillImage" /><dc:title></dc:title></cc:Work></rdf:RDF></metadata><defs
     id="defs3201" /><sodipodi:namedview
     pagecolor="#ffffff"
     bordercolor="#666666"
     borderopacity="1"
     objecttolerance="10"
     gridtolerance="10"
     guidetolerance="10"
     inkscape:pageopacity="0"
     inkscape:pageshadow="2"
     inkscape:window-width="640"
     inkscape:window-height="480"
     id="namedview3199"
     showgrid="false"
     inkscape:zoom="1.3688525"
     inkscape:cx="178.31696"
     inkscape:cy="134.30722"
     inkscape:current-layer="Layer_1"
     fit-margin-top="10"
     fit-margin-right="10"
     fit-margin-bottom="10"
     fit-margin-left="10" /><style
     type="text/css"
     id="style2998">
	.st0{fill:none;}
	.st1{fill:#E07D10;}
	.st2{fill:none;stroke:#ED5FA6;stroke-width:7;stroke-linecap:round;stroke-linejoin:round;stroke-miterlimit:10;}
	.st3{fill:none;stroke:#AA87FF;stroke-width:7;stroke-linecap:round;stroke-linejoin:round;stroke-miterlimit:10;}
	.st4{fill:none;stroke:#FF9C39;stroke-width:7;stroke-linecap:round;stroke-linejoin:round;stroke-miterlimit:10;}
	.st5{fill:#8AF281;stroke:#8AF281;stroke-linecap:round;stroke-linejoin:round;stroke-miterlimit:10;}
	.st6{fill:#FF9C39;stroke:#E07D10;stroke-linecap:round;stroke-linejoin:round;stroke-miterlimit:10;}
	.st7{fill:none;stroke:#8AF281;stroke-width:7;stroke-linecap:round;stroke-linejoin:round;stroke-miterlimit:10;}
	.st8{fill:#ED5FA6;stroke:#ED5FA6;stroke-width:7;stroke-linecap:round;stroke-linejoin:round;stroke-miterlimit:10;}
	.st9{fill:none;stroke:#1FAB54;stroke-width:7;stroke-linecap:round;stroke-linejoin:round;stroke-miterlimit:10;}
	.st10{fill:none;stroke:#1FAB54;stroke-width:6;stroke-linecap:round;stroke-linejoin:round;stroke-miterlimit:10;}
	.st11{fill:#FF9C39;stroke:#FF9C39;stroke-width:5;stroke-linecap:round;stroke-miterlimit:10;}
	.st12{fill:none;stroke:#1FAB54;stroke-width:4;stroke-miterlimit:10;}
	.st13{fill:none;stroke:#3C91E5;stroke-width:4;stroke-miterlimit:10;}
	.st14{fill:#FFFFFF;}
	.st15{fill:none;stroke:#11ACCD;stroke-width:5;stroke-linecap:round;stroke-miterlimit:10;}
	.st16{fill:#11ACCD;}
	.st17{fill:none;stroke:#FF9C39;stroke-width:4;stroke-miterlimit:10;}
	.st18{fill:none;stroke:#63D9EA;stroke-width:7;stroke-linecap:round;stroke-miterlimit:10;}
	.st19{fill:none;stroke:#63D9EA;stroke-width:8;stroke-linecap:round;stroke-miterlimit:10;}
	.st20{fill:none;stroke:#000000;stroke-linecap:round;stroke-linejoin:round;stroke-miterlimit:10;}
	.st21{fill:none;stroke:#000000;stroke-width:1.5;stroke-linecap:round;stroke-linejoin:round;stroke-miterlimit:10;}
	.st22{fill:none;stroke:#000000;stroke-linecap:round;stroke-miterlimit:10;}
	.st23{fill:none;stroke:#000000;stroke-width:1.5;stroke-linecap:round;stroke-miterlimit:10;}
	.st24{fill:none;stroke:#000000;stroke-width:2;stroke-linecap:round;stroke-linejoin:round;stroke-miterlimit:10;}
	.st25{fill:none;stroke:#000000;stroke-width:1.5;stroke-miterlimit:10;}
	.st26{fill:none;stroke:#000000;stroke-miterlimit:10;}
	.st27{fill:none;stroke:#000000;stroke-width:2;stroke-miterlimit:10;}
	.st28{fill:none;stroke:#000000;stroke-width:2;stroke-linecap:round;stroke-miterlimit:10;}
	.st29{fill:none;stroke:#000000;stroke-linecap:round;stroke-linejoin:round;}
	.st30{stroke:#000000;stroke-linecap:round;stroke-linejoin:round;stroke-miterlimit:10;}
	.st31{fill:none;stroke:#000000;stroke-width:1.5;stroke-linejoin:round;stroke-miterlimit:10;}
	.st32{fill:none;stroke:#000000;stroke-linejoin:round;stroke-miterlimit:10;}
	.st33{clip-path:url(#SVGID_2_);fill:none;stroke:#000000;stroke-linejoin:round;stroke-miterlimit:10;}
	.st34{clip-path:url(#SVGID_2_);fill:none;stroke:#ADADEB;stroke-linejoin:round;stroke-miterlimit:10;}
	.st35{clip-path:url(#SVGID_2_);}
	.st36{stroke:#000000;stroke-linejoin:round;stroke-miterlimit:10;}
	.st37{stroke:#000000;stroke-width:3;stroke-linejoin:round;stroke-miterlimit:10;}
	.st38{fill:none;stroke:#E84D39;stroke-width:3;stroke-linecap:round;stroke-linejoin:round;}
	.st39{fill:#E84D39;}
	.st40{fill:none;stroke:#11ACCD;stroke-width:2;stroke-linecap:round;stroke-linejoin:round;}
	.st41{fill:none;stroke:#F9685D;stroke-width:2;stroke-linecap:round;stroke-linejoin:round;}
	.st42{fill:#F9685D;}
	.st43{fill:#11ACCD;stroke:#000000;stroke-linecap:round;stroke-miterlimit:10;}
	.st44{stroke:#000000;stroke-linecap:round;stroke-miterlimit:10;}
	.st45{fill:#FFFF00;stroke:#000000;stroke-linecap:round;stroke-miterlimit:10;}
	.st46{fill:#F9685D;stroke:#000000;stroke-linecap:round;stroke-miterlimit:10;}
	.st47{fill:#D6D8DA;stroke:#000000;stroke-linecap:round;stroke-miterlimit:10;}
	.st48{fill:none;stroke:#FF9C39;stroke-width:5;stroke-linecap:round;stroke-linejoin:round;stroke-miterlimit:10;}
	.st49{fill:#FF9C39;}
	.st50{fill:#AA87FF;}
	.st51{fill:#ED5FA6;}
	.st52{fill:#1FAB54;}
	.st53{fill:none;stroke:#000000;stroke-width:4;stroke-linecap:round;stroke-linejoin:round;stroke-miterlimit:10;}
	.st54{stroke:#000000;stroke-miterlimit:10;}
	.st55{stroke:#000000;stroke-width:2;stroke-linecap:round;stroke-linejoin:round;stroke-miterlimit:10;}
	.st56{fill:none;stroke:#000000;stroke-width:3;stroke-linecap:round;stroke-linejoin:round;stroke-miterlimit:10;}
	.st57{fill:none;stroke:#000000;stroke-linejoin:round;}
	.st58{fill:none;stroke:#000000;stroke-width:7;stroke-linecap:round;stroke-linejoin:round;stroke-miterlimit:10;}
	.st59{fill:none;stroke:#11ACCD;stroke-width:3;stroke-linecap:round;stroke-linejoin:round;}
	.st60{fill:none;stroke:#11ACCD;stroke-width:2;stroke-linecap:round;stroke-miterlimit:10;}
	.st61{fill:none;stroke:#E07D10;stroke-width:2;stroke-linecap:round;stroke-miterlimit:10;}
	.st62{font-family:'KaTeX_Main-Regular';}
	.st63{font-size:24px;}
	.st64{font-family:'KaTeX_Main-Italic';}
	.st65{font-size:18px;}
	.st66{fill:none;stroke:#11ACCD;stroke-width:2;stroke-miterlimit:10;}
	.st67{font-family:'Verdana';}
	.st68{letter-spacing:1;}
	.st69{fill:none;stroke:#000000;stroke-width:3;stroke-linecap:square;stroke-miterlimit:10;}
	.st70{fill:#BE2612;}
	.st71{fill:none;stroke:#BE2612;stroke-width:2;stroke-linecap:round;stroke-linejoin:round;}
	.st72{fill:none;stroke:#21242C;stroke-linecap:round;stroke-linejoin:round;stroke-miterlimit:10;}
	.st73{fill:none;stroke:#11ACCD;stroke-width:3;stroke-linecap:round;stroke-miterlimit:10;}
	.st74{fill:#FFFFFF;stroke:#000000;stroke-miterlimit:10;}
</style><g
     aria-label="+"
     transform="translate(134.83286,236.3916)"
     style="font-style:normal;font-variant:normal;font-weight:normal;font-stretch:normal;font-size:24px;font-family:KaTeX_Main;-inkscape-font-specification:'KaTeX_Main, Normal';font-variant-ligatures:normal;font-variant-caps:normal;font-variant-numeric:normal;font-feature-settings:normal;text-align:start;writing-mode:lr-tb;text-anchor:start;fill:#e07d10"
     id="text3000"><path
       d="M 1.68,-5.52 Q 1.344,-5.688 1.344,-6 q 0,-0.312 0.336,-0.48 h 7.176 v -3.6 l 0.024,-3.6 q 0.24,-0.312 0.456,-0.312 0.312,0 0.48,0.36 v 7.152 h 7.152 q 0.36,0.192 0.36,0.48 0,0.288 -0.36,0.48 H 9.816 v 7.152 q -0.168,0.336 -0.48,0.336 -0.312,0 -0.48,-0.336 V -5.52 Z"
       style="font-style:normal;font-variant:normal;font-weight:normal;font-stretch:normal;font-size:24px;font-family:KaTeX_Main;-inkscape-font-specification:'KaTeX_Main, Normal';font-variant-ligatures:normal;font-variant-caps:normal;font-variant-numeric:normal;font-feature-settings:normal;text-align:start;writing-mode:lr-tb;text-anchor:start;fill:#e07d10"
       id="path3868"
       inkscape:connector-curvature="0" /></g><g
     transform="translate(153.50466,236.3916)"
     style="font-style:normal;font-variant:normal;font-weight:normal;font-stretch:normal;font-size:24px;font-family:KaTeX_Main;-inkscape-font-specification:'KaTeX_Main, Normal';font-variant-ligatures:normal;font-variant-caps:normal;font-variant-numeric:normal;font-feature-settings:normal;text-align:start;writing-mode:lr-tb;text-anchor:start;fill:#e07d10"
     id="text3002" /><g
     transform="translate(183.50466,236.3916)"
     style="font-style:normal;font-variant:normal;font-weight:normal;font-stretch:normal;font-size:24px;font-family:KaTeX_Main;-inkscape-font-specification:'KaTeX_Main, Normal';font-variant-ligatures:normal;font-variant-caps:normal;font-variant-numeric:normal;font-feature-settings:normal;text-align:start;writing-mode:lr-tb;text-anchor:start;fill:#e07d10"
     id="text3004" /><g
     transform="matrix(0.583,0,0,0.583,189.50466,244.3838)"
     style="font-style:normal;font-variant:normal;font-weight:normal;font-stretch:normal;font-size:41.16638184px;font-family:KaTeX_Main;-inkscape-font-specification:'KaTeX_Main, Normal';font-variant-ligatures:normal;font-variant-caps:normal;font-variant-numeric:normal;font-feature-settings:normal;text-align:start;writing-mode:lr-tb;text-anchor:start;fill:#e07d10"
     id="text3006" /><g
     transform="matrix(0.583,0,0,0.583,196.50076,244.3838)"
     style="font-style:normal;font-variant:normal;font-weight:normal;font-stretch:normal;font-size:41.16638184px;font-family:KaTeX_Main;-inkscape-font-specification:'KaTeX_Main, Normal';font-variant-ligatures:normal;font-variant-caps:normal;font-variant-numeric:normal;font-feature-settings:normal;text-align:start;writing-mode:lr-tb;text-anchor:start;fill:#e07d10"
     id="text3008" /><g
     aria-label="−"
     style="font-style:normal;font-variant:normal;font-weight:normal;font-stretch:normal;font-size:24px;font-family:KaTeX_Main;-inkscape-font-specification:'KaTeX_Main, Normal';font-variant-ligatures:normal;font-variant-caps:normal;font-variant-numeric:normal;font-feature-settings:normal;text-align:start;writing-mode:lr-tb;text-anchor:start;fill:#e07d10"
     id="text3010"
     transform="translate(-4.683044,-3.608099)"><path
       d="m 221.58906,234.47969 q -0.336,-0.168 -0.336,-0.48 0,-0.312 0.336,-0.48 h 13.944 q 0.36,0.192 0.36,0.48 0,0.288 -0.36,0.48 z"
       style="font-style:normal;font-variant:normal;font-weight:normal;font-stretch:normal;font-size:24px;font-family:KaTeX_Main;-inkscape-font-specification:'KaTeX_Main, Normal';font-variant-ligatures:normal;font-variant-caps:normal;font-variant-numeric:normal;font-feature-settings:normal;text-align:start;writing-mode:lr-tb;text-anchor:start;fill:#e07d10"
       id="path3861"
       inkscape:connector-curvature="0" /></g><g
     id="g3024"
     transform="translate(-4.683044,-3.608099)"><circle
       class="st27"
       cx="94.900002"
       cy="137.8"
       r="18"
       id="circle3012"
       style="fill:none;stroke:#000000;stroke-width:2;stroke-miterlimit:10" /><polyline
       class="st22"
       points="100.9,65.8 94.9,65.8 94.9,95.8 94.9,119.8  "
       id="polyline3014"
       style="fill:none;stroke:#000000;stroke-linecap:round;stroke-miterlimit:10" /><polyline
       class="st20"
       points="136.9,203.8 94.9,203.8 94.9,179.8 94.9,155.8  "
       id="polyline3016"
       style="fill:none;stroke:#000000;stroke-linecap:round;stroke-linejoin:round;stroke-miterlimit:10" /><line
       class="st25"
       x1="94.900002"
       y1="124.3"
       x2="94.900002"
       y2="136.3"
       id="line3018"
       style="fill:none;stroke:#000000;stroke-width:1.5;stroke-miterlimit:10" /><line
       class="st25"
       x1="88.900002"
       y1="130.3"
       x2="100.9"
       y2="130.3"
       id="line3020"
       style="fill:none;stroke:#000000;stroke-width:1.5;stroke-miterlimit:10" /><line
       class="st25"
       x1="88.900002"
       y1="148.3"
       x2="100.9"
       y2="148.3"
       id="line3022"
       style="fill:none;stroke:#000000;stroke-width:1.5;stroke-miterlimit:10" /></g><g
     id="g3030"
     transform="translate(-4.683044,-3.608099)"><circle
       cx="94.900002"
       cy="203.8"
       r="3"
       id="circle3026" /><rect
       x="88.900002"
       y="197.8"
       class="st0"
       width="12"
       height="12"
       id="rect3028"
       style="fill:none" /></g><g
     id="g3040"
     transform="translate(-4.683044,-3.608099)"><g
       id="g3038"><path
         class="st61"
         d="m 70.9,173.8 c -3.7,-7 -6.2,-20.5 -6.2,-36 0,-11.4 1.4,-21.8 3.6,-29.3"
         id="path3032"
         inkscape:connector-curvature="0"
         style="fill:none;stroke:#e07d10;stroke-width:2;stroke-linecap:round;stroke-miterlimit:10" /><g
         id="g3036"><path
           class="st1"
           d="m 70.9,101.8 c 0,3.6 0.5,8.4 1.7,11.6 l -4.6,-3.9 -6.1,-0.1 c 3.1,-1.6 6.6,-4.8 9,-7.6 z"
           id="path3034"
           inkscape:connector-curvature="0"
           style="fill:#e07d10" /></g></g></g><g
     id="g3050"
     transform="translate(-4.683044,-3.608099)"><g
       id="g3048"><path
         class="st61"
         d="m 304.9,173.8 c 3.7,-7 6.2,-20.5 6.2,-36 0,-11.4 -1.4,-21.8 -3.6,-29.3"
         id="path3042"
         inkscape:connector-curvature="0"
         style="fill:none;stroke:#e07d10;stroke-width:2;stroke-linecap:round;stroke-miterlimit:10" /><g
         id="g3046"><path
           class="st1"
           d="m 304.9,101.8 c 2.4,2.7 5.9,5.9 9,7.6 l -6.1,0.1 -4.6,3.9 c 1.2,-3.2 1.8,-8 1.7,-11.6 z"
           id="path3044"
           inkscape:connector-curvature="0"
           style="fill:#e07d10" /></g></g></g><g
     id="g3060"
     transform="translate(-4.683044,-3.608099)"><g
       id="g3058"><path
         class="st61"
         d="m 172.9,47.8 c -6.4,-3.7 -18.8,-6.2 -33,-6.2 -10.2,0 -19.5,1.3 -26.3,3.4"
         id="path3052"
         inkscape:connector-curvature="0"
         style="fill:none;stroke:#e07d10;stroke-width:2;stroke-linecap:round;stroke-miterlimit:10" /><g
         id="g3056"><path
           class="st1"
           d="m 106.9,47.8 c 2.7,-2.4 5.8,-6 7.4,-9.1 l 0.2,6.1 4,4.5 c -3.2,-1.2 -7.9,-1.6 -11.6,-1.5 z"
           id="path3054"
           inkscape:connector-curvature="0"
           style="fill:#e07d10" /></g></g></g><g
     id="g3070"
     transform="translate(-4.683044,-3.608099)"><g
       id="g3068"><path
         class="st61"
         d="m 226.9,221.8 c -7,3.7 -20.5,6.2 -36,6.2 -11.4,0 -21.8,-1.4 -29.3,-3.6"
         id="path3062"
         inkscape:connector-curvature="0"
         style="fill:none;stroke:#e07d10;stroke-width:2;stroke-linecap:round;stroke-miterlimit:10" /><g
         id="g3066"><path
           class="st1"
           d="m 154.9,221.8 c 3.6,0 8.4,-0.5 11.6,-1.7 l -3.9,4.6 -0.1,6.1 c -1.6,-3.1 -4.8,-6.6 -7.6,-9 z"
           id="path3064"
           inkscape:connector-curvature="0"
           style="fill:#e07d10" /></g></g></g><g
     id="g3080"
     transform="translate(-4.683044,-3.608099)"><line
       class="st20"
       x1="166.3"
       y1="65.800003"
       x2="184.89999"
       y2="65.800003"
       id="line3072"
       style="fill:none;stroke:#000000;stroke-linecap:round;stroke-linejoin:round;stroke-miterlimit:10" /><polyline
       class="st24"
       points="119.5,65.8 123.4,56.8 131.2,74.8 139,56.8 146.8,74.8 154.6,56.8 162.4,74.8 166.3,65.8  "
       id="polyline3074"
       style="fill:none;stroke:#000000;stroke-width:2;stroke-linecap:round;stroke-linejoin:round;stroke-miterlimit:10" /><line
       class="st20"
       x1="100.9"
       y1="65.800003"
       x2="119.5"
       y2="65.800003"
       id="line3076"
       style="fill:none;stroke:#000000;stroke-linecap:round;stroke-linejoin:round;stroke-miterlimit:10" /><rect
       x="100.9"
       y="53.799999"
       class="st0"
       width="84"
       height="24"
       id="rect3078"
       style="fill:none" /></g><g
     id="g3090"
     transform="translate(-4.683044,-3.608099)"><line
       class="st20"
       x1="262.29999"
       y1="65.800003"
       x2="280.89999"
       y2="65.800003"
       id="line3082"
       style="fill:none;stroke:#000000;stroke-linecap:round;stroke-linejoin:round;stroke-miterlimit:10" /><polyline
       class="st24"
       points="215.5,65.8 219.4,56.8 227.2,74.8 235,56.8 242.8,74.8 250.6,56.8 258.4,74.8 262.3,65.8  "
       id="polyline3084"
       style="fill:none;stroke:#000000;stroke-width:2;stroke-linecap:round;stroke-linejoin:round;stroke-miterlimit:10" /><line
       class="st20"
       x1="196.89999"
       y1="65.800003"
       x2="215.5"
       y2="65.800003"
       id="line3086"
       style="fill:none;stroke:#000000;stroke-linecap:round;stroke-linejoin:round;stroke-miterlimit:10" /><rect
       x="196.89999"
       y="53.799999"
       class="st0"
       width="84"
       height="24"
       id="rect3088"
       style="fill:none" /></g><g
     id="g3100"
     transform="translate(-4.683044,-3.608099)"><line
       class="st20"
       x1="213.7"
       y1="203.8"
       x2="232.3"
       y2="203.8"
       id="line3092"
       style="fill:none;stroke:#000000;stroke-linecap:round;stroke-linejoin:round;stroke-miterlimit:10" /><polyline
       class="st24"
       points="166.9,203.8 170.8,194.8 178.6,212.8 186.4,194.8 194.2,212.8 202,194.8 209.8,212.8 213.7,203.8     "
       id="polyline3094"
       style="fill:none;stroke:#000000;stroke-width:2;stroke-linecap:round;stroke-linejoin:round;stroke-miterlimit:10" /><line
       class="st20"
       x1="136.89999"
       y1="203.8"
       x2="166.89999"
       y2="203.8"
       id="line3096"
       style="fill:none;stroke:#000000;stroke-linecap:round;stroke-linejoin:round;stroke-miterlimit:10" /><rect
       x="136.89999"
       y="191.8"
       class="st0"
       width="95.400002"
       height="24"
       id="rect3098"
       style="fill:none" /></g><g
     id="g3110"
     transform="translate(-4.683044,-3.608099)"><line
       class="st20"
       x1="286.89999"
       y1="114.4"
       x2="286.89999"
       y2="95.800003"
       id="line3102"
       style="fill:none;stroke:#000000;stroke-linecap:round;stroke-linejoin:round;stroke-miterlimit:10" /><polyline
       class="st24"
       points="286.9,161.2 277.9,157.3 295.9,149.5 277.9,141.7 295.9,133.9 277.9,126.1 295.9,118.3 286.9,114.4     "
       id="polyline3104"
       style="fill:none;stroke:#000000;stroke-width:2;stroke-linecap:round;stroke-linejoin:round;stroke-miterlimit:10" /><line
       class="st20"
       x1="286.89999"
       y1="179.8"
       x2="286.89999"
       y2="161.2"
       id="line3106"
       style="fill:none;stroke:#000000;stroke-linecap:round;stroke-linejoin:round;stroke-miterlimit:10" /><rect
       x="274.89999"
       y="95.800003"
       class="st0"
       width="24"
       height="84"
       id="rect3108"
       style="fill:none" /></g><line
     class="st22"
     x1="180.21695"
     y1="62.191902"
     x2="192.21695"
     y2="62.191902"
     id="line3112"
     style="fill:none;stroke:#000000;stroke-linecap:round;stroke-miterlimit:10" /><polyline
     class="st22"
     points="280.9,65.8 286.9,65.8 286.9,95.8 "
     id="polyline3114"
     style="fill:none;stroke:#000000;stroke-linecap:round;stroke-miterlimit:10"
     transform="translate(-4.683044,-3.608099)" /><polyline
     class="st22"
     points="286.9,179.8 286.9,203.8 232.3,203.8 "
     id="polyline3116"
     style="fill:none;stroke:#000000;stroke-linecap:round;stroke-miterlimit:10"
     transform="translate(-4.683044,-3.608099)" /><g
     id="g3122"
     transform="translate(-4.683044,-3.608099)"><polyline
       class="st20"
       points="94.9,215.8 102.4,215.8 102.4,215.8 102.4,215.8 94.9,227.8 87.4,215.8 94.9,215.8 94.9,203.8  "
       id="polyline3118"
       style="fill:none;stroke:#000000;stroke-linecap:round;stroke-linejoin:round;stroke-miterlimit:10" /><rect
       x="82.900002"
       y="203.8"
       class="st0"
       width="24"
       height="24"
       id="rect3120"
       style="fill:none" /></g><g
     aria-label="−1V"
     style="font-style:normal;font-variant:normal;font-weight:normal;font-stretch:normal;font-size:24px;font-family:KaTeX_Main;-inkscape-font-specification:'KaTeX_Main, Normal';font-variant-ligatures:normal;font-variant-caps:normal;font-variant-numeric:normal;font-feature-settings:normal;text-align:start;writing-mode:lr-tb;text-anchor:start;fill:#e07d10"
     id="text3124"
     transform="translate(-4.683044,-3.608099)"><path
       d="m 158.76171,250.25922 q -0.336,-0.168 -0.336,-0.48 0,-0.312 0.336,-0.48 h 13.944 q 0.36,0.192 0.36,0.48 0,0.288 -0.36,0.48 z"
       style="font-style:normal;font-variant:normal;font-weight:normal;font-stretch:normal;font-size:24px;font-family:KaTeX_Main;-inkscape-font-specification:'KaTeX_Main, Normal';font-variant-ligatures:normal;font-variant-caps:normal;font-variant-numeric:normal;font-feature-settings:normal;text-align:start;writing-mode:lr-tb;text-anchor:start;fill:#e07d10"
       id="path3854"
       inkscape:connector-curvature="0" /><path
       d="m 185.04996,255.77922 q -0.408,-0.072 -3.816,-0.072 -3.36,0 -3.768,0.072 h -0.288 v -1.104 h 0.624 q 1.392,0 1.8,-0.072 0.192,-0.024 0.576,-0.288 v -12.408 q -0.048,0 -0.192,0.072 -1.104,0.432 -2.472,0.456 h -0.456 v -1.104 h 0.456 q 2.016,-0.072 3.36,-0.912 0.432,-0.24 0.744,-0.552 0.048,-0.072 0.288,-0.072 0.24,0 0.408,0.144 v 7.176 l 0.024,7.2 q 0.36,0.36 1.56,0.36 h 0.792 0.624 v 1.104 z"
       style="font-style:normal;font-variant:normal;font-weight:normal;font-stretch:normal;font-size:24px;font-family:KaTeX_Main;-inkscape-font-specification:'KaTeX_Main, Normal';font-variant-ligatures:normal;font-variant-caps:normal;font-variant-numeric:normal;font-feature-settings:normal;text-align:start;writing-mode:lr-tb;text-anchor:start;fill:#e07d10"
       id="path3856"
       inkscape:connector-curvature="0" /><path
       d="m 192.80196,240.89922 q -0.264,-0.264 -0.48,-0.312 -0.216,-0.072 -1.104,-0.096 h -0.696 v -1.104 h 0.216 q 0.336,0.072 2.976,0.072 2.88,0 3.408,-0.072 h 0.264 v 1.104 h -0.504 q -1.104,0.024 -1.368,0.264 -0.096,0.072 -0.096,0.144 0,0.048 2.16,5.952 2.16,5.904 2.184,5.904 0.936,-2.52 2.064,-5.568 2.04,-5.52 2.04,-5.736 0,-0.456 -0.504,-0.696 -0.504,-0.264 -1.104,-0.264 h -0.12 v -1.104 h 0.216 q 0.408,0.072 2.76,0.072 2.064,0 2.328,-0.072 h 0.144 v 1.104 h -0.168 q -1.776,0 -2.304,0.984 0,0.024 -2.712,7.32 -2.688,7.296 -2.712,7.32 -0.072,0.192 -0.432,0.192 h -0.216 -0.216 q -0.336,0 -0.408,-0.192 -0.048,-0.048 -2.808,-7.608 -2.808,-7.536 -2.808,-7.608 z"
       style="font-style:normal;font-variant:normal;font-weight:normal;font-stretch:normal;font-size:24px;font-family:KaTeX_Main;-inkscape-font-specification:'KaTeX_Main, Normal';font-variant-ligatures:normal;font-variant-caps:normal;font-variant-numeric:normal;font-feature-settings:normal;text-align:start;writing-mode:lr-tb;text-anchor:start;fill:#e07d10"
       id="path3858"
       inkscape:connector-curvature="0" /></g><g
     aria-label="+"
     style="font-style:normal;font-variant:normal;font-weight:normal;font-stretch:normal;font-size:24px;font-family:KaTeX_Main;-inkscape-font-specification:'KaTeX_Main, Normal';font-variant-ligatures:normal;font-variant-caps:normal;font-variant-numeric:normal;font-feature-settings:normal;text-align:start;writing-mode:lr-tb;text-anchor:start;fill:#e07d10"
     id="text3126"
     transform="translate(-4.683044,-3.608099)"><path
       d="m 44.615379,100.73214 q -0.336,-0.168 -0.336,-0.48 0,-0.312004 0.336,-0.480004 h 7.176 v -3.6 l 0.024,-3.6 q 0.24,-0.312 0.456,-0.312 0.312,0 0.48,0.36 v 7.152 h 7.152 q 0.36,0.192 0.36,0.480004 0,0.288 -0.36,0.48 h -7.152 v 7.152 q -0.168,0.336 -0.48,0.336 -0.312,0 -0.48,-0.336 v -7.152 z"
       style="font-style:normal;font-variant:normal;font-weight:normal;font-stretch:normal;font-size:24px;font-family:KaTeX_Main;-inkscape-font-specification:'KaTeX_Main, Normal';font-variant-ligatures:normal;font-variant-caps:normal;font-variant-numeric:normal;font-feature-settings:normal;text-align:start;writing-mode:lr-tb;text-anchor:start;fill:#e07d10"
       id="path3851"
       inkscape:connector-curvature="0" /></g><g
     transform="matrix(0.583,0,0,0.583,36.249656,146.9951)"
     style="font-style:normal;font-variant:normal;font-weight:normal;font-stretch:normal;font-size:41.16638184px;font-family:KaTeX_Main;-inkscape-font-specification:'KaTeX_Main, Normal';font-variant-ligatures:normal;font-variant-caps:normal;font-variant-numeric:normal;font-feature-settings:normal;text-align:start;writing-mode:lr-tb;text-anchor:start;fill:#e07d10"
     id="text3128" /><g
     aria-label="−"
     style="font-style:normal;font-variant:normal;font-weight:normal;font-stretch:normal;font-size:24px;font-family:KaTeX_Main;-inkscape-font-specification:'KaTeX_Main, Normal';font-variant-ligatures:normal;font-variant-caps:normal;font-variant-numeric:normal;font-feature-settings:normal;text-align:start;writing-mode:lr-tb;text-anchor:start;fill:#e07d10"
     id="text3130"
     transform="translate(-4.683044,-3.608099)"><path
       d="m 45.287379,173.44985 q -0.336,-0.168 -0.336,-0.48 0,-0.312 0.336,-0.48 h 13.944 q 0.36,0.192 0.36,0.48 0,0.288 -0.36,0.48 z"
       style="font-style:normal;font-variant:normal;font-weight:normal;font-stretch:normal;font-size:24px;font-family:KaTeX_Main;-inkscape-font-specification:'KaTeX_Main, Normal';font-variant-ligatures:normal;font-variant-caps:normal;font-variant-numeric:normal;font-feature-settings:normal;text-align:start;writing-mode:lr-tb;text-anchor:start;fill:#e07d10"
       id="path3847"
       inkscape:connector-curvature="0" /></g><g
     aria-label="15V"
     style="font-style:normal;font-variant:normal;font-weight:normal;font-stretch:normal;font-size:24px;font-family:KaTeX_Main;-inkscape-font-specification:'KaTeX_Main, Normal';font-variant-ligatures:normal;font-variant-caps:normal;font-variant-numeric:normal;font-feature-settings:normal;text-align:start;writing-mode:lr-tb;text-anchor:start;fill:#e07d10"
     id="text3132"
     transform="translate(-4.683044,-3.608099)"><path
       d="m 22.675044,144.0002 q -0.408,-0.072 -3.816,-0.072 -3.36,0 -3.768,0.072 h -0.288 v -1.104 h 0.624 q 1.392,0 1.8,-0.072 0.192,-0.024 0.576,-0.288 v -12.408 q -0.048,0 -0.192,0.072 -1.104,0.432 -2.472,0.456 h -0.456 v -1.104 h 0.456 q 2.016,-0.072 3.36,-0.912 0.432,-0.24 0.744,-0.552 0.048,-0.072 0.288,-0.072 0.24,0 0.408,0.144 v 7.176 l 0.024,7.2 q 0.36,0.36 1.56,0.36 h 0.792 0.624 v 1.104 z"
       style="font-style:normal;font-variant:normal;font-weight:normal;font-stretch:normal;font-size:24px;font-family:KaTeX_Main;-inkscape-font-specification:'KaTeX_Main, Normal';font-variant-ligatures:normal;font-variant-caps:normal;font-variant-numeric:normal;font-feature-settings:normal;text-align:start;writing-mode:lr-tb;text-anchor:start;fill:#e07d10"
       id="path3840"
       inkscape:connector-curvature="0" /><path
       d="m 27.259044,138.8642 q 0.576,0 0.96,0.408 0.408,0.384 0.408,0.984 0,0.552 -0.408,0.936 -0.408,0.384 -0.912,0.384 h -0.168 l 0.072,0.12 q 0.36,0.768 1.104,1.272 0.744,0.504 1.752,0.504 1.704,0 2.448,-1.44 0.456,-0.888 0.456,-3.072 0,-2.472 -0.648,-3.336 -0.624,-0.792 -1.536,-0.792 -1.872,0 -2.832,1.632 -0.096,0.168 -0.192,0.216 -0.072,0.024 -0.336,0.024 -0.408,0 -0.456,-0.144 -0.048,-0.096 -0.048,-4.2 0,-0.72 -0.024,-1.704 0,-0.984 0,-1.248 0,-1.344 0.144,-1.344 0.048,-0.048 0.096,-0.048 l 0.432,0.144 q 1.56,0.624 3.192,0.624 1.704,0 3.264,-0.672 0.192,-0.096 0.312,-0.096 0.192,0 0.192,0.432 v 0.312 q -1.944,2.328 -4.92,2.328 -0.744,0 -1.344,-0.144 l -0.24,-0.048 v 4.128 q 1.368,-1.104 2.808,-1.104 0.456,0 0.984,0.12 1.608,0.408 2.616,1.824 1.032,1.416 1.032,3.312 0,2.184 -1.536,3.768 -1.512,1.584 -3.744,1.584 -1.512,0 -2.568,-0.84 -0.456,-0.288 -0.792,-0.792 -0.72,-0.864 -0.912,-2.136 0,-0.072 -0.024,-0.216 0,-0.168 0,-0.24 0,-0.672 0.384,-1.056 0.384,-0.384 0.984,-0.384 z"
       style="font-style:normal;font-variant:normal;font-weight:normal;font-stretch:normal;font-size:24px;font-family:KaTeX_Main;-inkscape-font-specification:'KaTeX_Main, Normal';font-variant-ligatures:normal;font-variant-caps:normal;font-variant-numeric:normal;font-feature-settings:normal;text-align:start;writing-mode:lr-tb;text-anchor:start;fill:#e07d10"
       id="path3842"
       inkscape:connector-curvature="0" /><path
       d="m 42.427044,129.1202 q -0.264,-0.264 -0.48,-0.312 -0.216,-0.072 -1.104,-0.096 h -0.696 v -1.104 h 0.216 q 0.336,0.072 2.976,0.072 2.88,0 3.408,-0.072 h 0.264 v 1.104 h -0.504 q -1.104,0.024 -1.368,0.264 -0.096,0.072 -0.096,0.144 0,0.048 2.16,5.952 2.16,5.904 2.184,5.904 0.936,-2.52 2.064,-5.568 2.04,-5.52 2.04,-5.736 0,-0.456 -0.504,-0.696 -0.504,-0.264 -1.104,-0.264 h -0.12 v -1.104 h 0.216 q 0.408,0.072 2.76,0.072 2.064,0 2.328,-0.072 h 0.144 v 1.104 h -0.168 q -1.776,0 -2.304,0.984 0,0.024 -2.712,7.32 -2.688,7.296 -2.712,7.32 -0.072,0.192 -0.432,0.192 h -0.216 -0.216 q -0.336,0 -0.408,-0.192 -0.048,-0.048 -2.808,-7.608 -2.808,-7.536 -2.808,-7.608 z"
       style="font-style:normal;font-variant:normal;font-weight:normal;font-stretch:normal;font-size:24px;font-family:KaTeX_Main;-inkscape-font-specification:'KaTeX_Main, Normal';font-variant-ligatures:normal;font-variant-caps:normal;font-variant-numeric:normal;font-feature-settings:normal;text-align:start;writing-mode:lr-tb;text-anchor:start;fill:#e07d10"
       id="path3844"
       inkscape:connector-curvature="0" /></g><g
     aria-label="+"
     style="font-style:normal;font-variant:normal;font-weight:normal;font-stretch:normal;font-size:24px;font-family:KaTeX_Main;-inkscape-font-specification:'KaTeX_Main, Normal';font-variant-ligatures:normal;font-variant-caps:normal;font-variant-numeric:normal;font-feature-settings:normal;text-align:start;writing-mode:lr-tb;text-anchor:start;fill:#e07d10"
     id="text3134"
     transform="translate(-4.683044,-3.608099)"><path
       d="m 315.93836,100.73215 q -0.336,-0.168 -0.336,-0.48 0,-0.311999 0.336,-0.479999 h 7.176 v -3.6 l 0.024,-3.6 q 0.24,-0.312 0.456,-0.312 0.312,0 0.48,0.36 v 7.152 h 7.152 q 0.36,0.192 0.36,0.479999 0,0.288 -0.36,0.48 h -7.152 v 7.152 q -0.168,0.336 -0.48,0.336 -0.312,0 -0.48,-0.336 v -7.152 z"
       style="font-style:normal;font-variant:normal;font-weight:normal;font-stretch:normal;font-size:24px;font-family:KaTeX_Main;-inkscape-font-specification:'KaTeX_Main, Normal';font-variant-ligatures:normal;font-variant-caps:normal;font-variant-numeric:normal;font-feature-settings:normal;text-align:start;writing-mode:lr-tb;text-anchor:start;fill:#e07d10"
       id="path3837"
       inkscape:connector-curvature="0" /></g><g
     style="font-style:normal;font-variant:normal;font-weight:normal;font-stretch:normal;font-size:24px;font-family:KaTeX_Main;-inkscape-font-specification:'KaTeX_Main, Normal';font-variant-ligatures:normal;font-variant-caps:normal;font-variant-numeric:normal;font-feature-settings:normal;text-align:start;writing-mode:lr-tb;text-anchor:start;fill:#e07d10;stroke-width:0.583"
     id="text3136"
     transform="translate(-4.683044,-3.608099)" /><g
     aria-label="−"
     style="font-style:normal;font-variant:normal;font-weight:normal;font-stretch:normal;font-size:24px;font-family:KaTeX_Main;-inkscape-font-specification:'KaTeX_Main, Normal';font-variant-ligatures:normal;font-variant-caps:normal;font-variant-numeric:normal;font-feature-settings:normal;text-align:start;writing-mode:lr-tb;text-anchor:start;fill:#e07d10"
     id="text3138"
     transform="translate(-4.683044,-3.608099)"><path
       d="m 316.61036,173.44985 q -0.336,-0.168 -0.336,-0.48 0,-0.312 0.336,-0.48 h 13.944 q 0.36,0.192 0.36,0.48 0,0.288 -0.36,0.48 z"
       style="font-style:normal;font-variant:normal;font-weight:normal;font-stretch:normal;font-size:24px;font-family:KaTeX_Main;-inkscape-font-specification:'KaTeX_Main, Normal';font-variant-ligatures:normal;font-variant-caps:normal;font-variant-numeric:normal;font-feature-settings:normal;text-align:start;writing-mode:lr-tb;text-anchor:start;fill:#e07d10"
       id="path3833"
       inkscape:connector-curvature="0" /></g><g
     aria-label="vR3"
     style="font-style:normal;font-variant:normal;font-weight:normal;font-stretch:normal;font-size:24px;font-family:KaTeX_Main;-inkscape-font-specification:'KaTeX_Main, Normal';font-variant-ligatures:normal;font-variant-caps:normal;font-variant-numeric:normal;font-feature-settings:normal;text-align:start;writing-mode:lr-tb;text-anchor:start;fill:#e07d10"
     id="text3140"
     transform="translate(-4.683044,-3.608099)"><path
       d="m 326.54999,138.0752 q -1.536,0 -2.448,-0.768 -0.888,-0.792 -0.888,-2.304 0,-0.432 0.048,-0.816 0.216,-1.152 1.128,-3.528 l 0.384,-1.152 q 0.144,-0.432 0.144,-0.816 0,-0.6 -0.456,-0.6 -0.168,0 -0.384,0.072 -1.224,0.432 -1.848,2.76 0,0.024 -0.024,0.096 -0.024,0.048 -0.048,0.072 0,0 -0.024,0.024 -0.024,0.024 -0.096,0.024 -0.048,0 -0.096,0 -0.048,0 -0.192,0 h -0.336 q -0.144,-0.144 -0.144,-0.216 0,-0.072 0.072,-0.36 0.576,-1.896 1.776,-2.832 0.648,-0.504 1.488,-0.504 0.936,0 1.536,0.528 0.6,0.528 0.6,1.392 0,0.408 -0.072,0.624 0,0.168 -0.36,1.056 -1.104,3 -1.176,4.272 0,0.648 0.12,1.056 0.312,1.032 1.512,1.032 0.648,0 1.152,-0.384 1.488,-0.984 2.472,-4.536 0.192,-0.672 0.192,-1.104 0,-1.056 -0.936,-1.896 -0.312,-0.288 -0.312,-0.648 0,-0.552 0.432,-0.984 0.456,-0.456 1.008,-0.456 0.576,0 0.888,0.552 0.312,0.528 0.312,1.272 0,0.84 -0.48,2.76 -0.456,1.848 -1.152,3.216 -1.512,3.096 -3.792,3.096 z"
       style="font-style:normal;font-variant:normal;font-weight:normal;font-stretch:normal;font-size:24px;font-family:KaTeX_Math;-inkscape-font-specification:'KaTeX_Math, Normal';font-variant-ligatures:normal;font-variant-caps:normal;font-variant-numeric:normal;font-feature-settings:normal;text-align:start;writing-mode:lr-tb;text-anchor:start"
       id="path3826"
       inkscape:connector-curvature="0" /><path
       d="m 334.41899,132.908 q -0.156,-0.156 -0.312,-0.1872 -0.1404,-0.0312 -0.78,-0.0468 h -0.5148 v -0.7176 h 2.73 q 2.9016,0.0156 3.198,0.0624 0.0468,0.0156 0.2028,0.0468 0.702,0.1404 1.248,0.4368 1.482,0.7488 1.7004,2.0436 0.0156,0.078 0.0156,0.2496 0,0.8736 -0.6708,1.5288 -0.6552,0.6552 -1.56,0.9516 -0.0312,0.0156 -0.078,0.0312 -0.0312,0 -0.0624,0.0156 l -0.0312,0.0156 q 0.0468,0.0468 0.1716,0.0936 1.1232,0.624 1.3884,1.6536 0.0156,0.0624 0.1716,1.0296 0.156,0.9672 0.1716,1.0296 0.1092,0.5616 0.2652,0.8268 0.1716,0.2652 0.4368,0.3588 0.0624,0.0312 0.2652,0.0312 h 0.078 q 0.2028,0 0.3744,-0.1716 0.312,-0.312 0.3588,-0.936 0,-0.1716 0.0468,-0.2184 0.0624,-0.0624 0.2652,-0.0624 0.1872,0 0.2496,0.0468 0.0624,0.0312 0.0624,0.1872 0,0.5616 -0.2808,1.0296 -0.2652,0.4524 -0.6552,0.624 -0.2496,0.0936 -0.6552,0.0936 -2.3244,-0.0936 -2.6832,-1.7472 -0.0312,-0.1716 -0.0468,-1.1388 0,-0.9672 -0.0936,-1.2948 -0.1404,-0.4212 -0.468,-0.7176 -0.312,-0.312 -0.7176,-0.4368 l -0.156,-0.0312 -1.0296,-0.0156 h -1.0296 v 2.0436 l 0.0156,2.0436 q 0.1092,0.156 0.2652,0.1872 0.1716,0.0312 0.8112,0.0468 h 0.5148 v 0.7176 h -0.1716 q -0.2496,-0.0468 -2.2152,-0.0468 -1.9812,0 -2.2308,0.0468 h -0.1716 v -0.7176 h 0.5148 q 0.6396,-0.0156 0.78,-0.0468 0.156,-0.0312 0.312,-0.1872 z m 5.616,1.2948 q -0.156,-0.936 -0.8424,-1.2324 -0.6708,-0.2964 -2.0592,-0.2964 -0.234,0 -0.5304,0.0156 -0.2964,0 -0.312,0 -0.2028,0.0156 -0.2496,0.1248 -0.0468,0.0624 -0.0468,2.1216 v 2.0592 h 0.9048 q 1.17,0 1.7316,-0.0936 0.5616,-0.1092 0.9828,-0.5304 0.2652,-0.2652 0.3432,-0.5928 0.0936,-0.3276 0.0936,-0.9516 0,-0.4992 -0.0156,-0.624 z"
       style="font-size:64.99999762%;baseline-shift:sub"
       id="path3828"
       inkscape:connector-curvature="0" /><path
       d="m 345.85891,135.3884 q -0.4212,0 -0.6708,-0.2652 -0.234,-0.2652 -0.234,-0.6864 0,-0.8892 0.702,-1.482 0.702,-0.6084 1.6224,-0.7176 h 0.234 q 0.546,0 0.6864,0.0156 0.5148,0.078 1.0452,0.3276 1.0296,0.5148 1.2948,1.4664 0.0468,0.156 0.0468,0.4212 0,0.9204 -0.5772,1.6536 -0.5616,0.7176 -1.4196,1.0296 -0.078,0.0312 0,0.0468 0.0312,0.0156 0.156,0.0468 0.9516,0.2652 1.6068,0.9984 0.6552,0.7176 0.6552,1.638 0,0.6396 -0.2964,1.2324 -0.3744,0.7956 -1.2324,1.326 -0.8424,0.5148 -1.8876,0.5148 -1.0296,0 -1.8252,-0.4368 -0.7956,-0.4368 -1.0764,-1.17 -0.156,-0.3276 -0.156,-0.7644 0,-0.4368 0.2808,-0.702 0.2964,-0.2808 0.702,-0.2808 0.4368,0 0.7176,0.2808 0.2808,0.2808 0.2808,0.702 0,0.3588 -0.2028,0.624 -0.2028,0.2652 -0.546,0.3432 l -0.1092,0.0312 q 0.8424,0.702 1.9344,0.702 0.858,0 1.2948,-0.8268 0.2652,-0.5148 0.2652,-1.5756 v -0.312 q 0,-1.482 -0.9984,-1.9812 -0.234,-0.0936 -0.9516,-0.1092 l -0.6552,-0.0156 -0.0468,-0.0312 q -0.0312,-0.0468 -0.0312,-0.2496 0,-0.1872 0.0468,-0.234 0.0468,-0.0468 0.078,-0.0468 0.4368,0 0.9048,-0.078 0.6864,-0.0936 1.0452,-0.7644 0.3588,-0.6864 0.3588,-1.638 0,-1.014 -0.546,-1.3572 -0.3276,-0.2184 -0.7332,-0.2184 -0.78,0 -1.3728,0.4212 -0.0624,0.0312 -0.1404,0.1092 -0.078,0.0624 -0.1248,0.1248 l -0.0468,0.0624 q 0.0468,0.0156 0.1092,0.0312 0.312,0.0312 0.5148,0.2964 0.2184,0.2652 0.2184,0.6084 0,0.3744 -0.2652,0.6396 -0.2496,0.2496 -0.6552,0.2496 z"
       style="font-size:64.99999762%;baseline-shift:sub"
       id="path3830"
       inkscape:connector-curvature="0" /></g><g
     aria-label="+"
     transform="translate(89.649256,32.392001)"
     style="font-style:normal;font-variant:normal;font-weight:normal;font-stretch:normal;font-size:24px;font-family:KaTeX_Main;-inkscape-font-specification:'KaTeX_Main, Normal';font-variant-ligatures:normal;font-variant-caps:normal;font-variant-numeric:normal;font-feature-settings:normal;text-align:start;writing-mode:lr-tb;text-anchor:start;fill:#e07d10"
     id="text3146"><path
       d="M 1.68,-5.52 Q 1.344,-5.688 1.344,-6 q 0,-0.312 0.336,-0.48 h 7.176 v -3.6 l 0.024,-3.6 q 0.24,-0.312 0.456,-0.312 0.312,0 0.48,0.36 v 7.152 h 7.152 q 0.36,0.192 0.36,0.48 0,0.288 -0.36,0.48 H 9.816 v 7.152 q -0.168,0.336 -0.48,0.336 -0.312,0 -0.48,-0.336 V -5.52 Z"
       style="font-style:normal;font-variant:normal;font-weight:normal;font-stretch:normal;font-size:24px;font-family:KaTeX_Main;-inkscape-font-specification:'KaTeX_Main, Normal';font-variant-ligatures:normal;font-variant-caps:normal;font-variant-numeric:normal;font-feature-settings:normal;text-align:start;writing-mode:lr-tb;text-anchor:start;fill:#e07d10"
       id="path3823"
       inkscape:connector-curvature="0" /></g><g
     transform="translate(108.32116,32.392001)"
     style="font-style:normal;font-variant:normal;font-weight:normal;font-stretch:normal;font-size:24px;font-family:KaTeX_Main;-inkscape-font-specification:'KaTeX_Main, Normal';font-variant-ligatures:normal;font-variant-caps:normal;font-variant-numeric:normal;font-feature-settings:normal;text-align:start;writing-mode:lr-tb;text-anchor:start;fill:#e07d10"
     id="text3148" /><g
     transform="matrix(0.583,0,0,0.583,144.32116,40.384201)"
     style="font-style:normal;font-variant:normal;font-weight:normal;font-stretch:normal;font-size:41.16638184px;font-family:KaTeX_Main;-inkscape-font-specification:'KaTeX_Main, Normal';font-variant-ligatures:normal;font-variant-caps:normal;font-variant-numeric:normal;font-feature-settings:normal;text-align:start;writing-mode:lr-tb;text-anchor:start;fill:#e07d10"
     id="text3150" /><g
     aria-label="−"
     transform="translate(158.31326,32.392001)"
     style="font-style:normal;font-variant:normal;font-weight:normal;font-stretch:normal;font-size:24px;font-family:KaTeX_Main;-inkscape-font-specification:'KaTeX_Main, Normal';font-variant-ligatures:normal;font-variant-caps:normal;font-variant-numeric:normal;font-feature-settings:normal;text-align:start;writing-mode:lr-tb;text-anchor:start;fill:#e07d10"
     id="text3152"><path
       d="M 2.352,-5.52 Q 2.016,-5.688 2.016,-6 q 0,-0.312 0.336,-0.48 h 13.944 q 0.36,0.192 0.36,0.48 0,0.288 -0.36,0.48 z"
       style="font-style:normal;font-variant:normal;font-weight:normal;font-stretch:normal;font-size:24px;font-family:KaTeX_Main;-inkscape-font-specification:'KaTeX_Main, Normal';font-variant-ligatures:normal;font-variant-caps:normal;font-variant-numeric:normal;font-feature-settings:normal;text-align:start;writing-mode:lr-tb;text-anchor:start;fill:#e07d10"
       id="path3818"
       inkscape:connector-curvature="0" /></g><g
     id="g3162"
     transform="translate(-4.683044,-3.608099)"><g
       id="g3160"><path
         class="st61"
         d="m 270,48 c -6.4,-3.7 -18.8,-6.2 -33,-6.2 -10.2,0 -19.5,1.3 -26.3,3.4"
         id="path3154"
         inkscape:connector-curvature="0"
         style="fill:none;stroke:#e07d10;stroke-width:2;stroke-linecap:round;stroke-miterlimit:10" /><g
         id="g3158"><path
           class="st1"
           d="m 204,48 c 2.7,-2.4 5.8,-6 7.4,-9.1 l 0.2,6.1 4,4.5 c -3.2,-1.2 -8,-1.6 -11.6,-1.5 z"
           id="path3156"
           inkscape:connector-curvature="0"
           style="fill:#e07d10" /></g></g></g><g
     aria-label="+"
     transform="translate(186.71826,32.391801)"
     style="font-style:normal;font-variant:normal;font-weight:normal;font-stretch:normal;font-size:24px;font-family:KaTeX_Main;-inkscape-font-specification:'KaTeX_Main, Normal';font-variant-ligatures:normal;font-variant-caps:normal;font-variant-numeric:normal;font-feature-settings:normal;text-align:start;writing-mode:lr-tb;text-anchor:start;fill:#e07d10"
     id="text3164"><path
       d="M 1.68,-5.52 Q 1.344,-5.688 1.344,-6 q 0,-0.312 0.336,-0.48 h 7.176 v -3.6 l 0.024,-3.6 q 0.24,-0.312 0.456,-0.312 0.312,0 0.48,0.36 v 7.152 h 7.152 q 0.36,0.192 0.36,0.48 0,0.288 -0.36,0.48 H 9.816 v 7.152 q -0.168,0.336 -0.48,0.336 -0.312,0 -0.48,-0.336 V -5.52 Z"
       style="font-style:normal;font-variant:normal;font-weight:normal;font-stretch:normal;font-size:24px;font-family:KaTeX_Main;-inkscape-font-specification:'KaTeX_Main, Normal';font-variant-ligatures:normal;font-variant-caps:normal;font-variant-numeric:normal;font-feature-settings:normal;text-align:start;writing-mode:lr-tb;text-anchor:start;fill:#e07d10"
       id="path3815"
       inkscape:connector-curvature="0" /></g><g
     transform="translate(205.39016,32.391801)"
     style="font-style:normal;font-variant:normal;font-weight:normal;font-stretch:normal;font-size:24px;font-family:KaTeX_Main;-inkscape-font-specification:'KaTeX_Main, Normal';font-variant-ligatures:normal;font-variant-caps:normal;font-variant-numeric:normal;font-feature-settings:normal;text-align:start;writing-mode:lr-tb;text-anchor:start;fill:#e07d10"
     id="text3166" /><g
     transform="matrix(0.583,0,0,0.583,241.39016,40.384001)"
     style="font-style:normal;font-variant:normal;font-weight:normal;font-stretch:normal;font-size:41.16638184px;font-family:KaTeX_Main;-inkscape-font-specification:'KaTeX_Main, Normal';font-variant-ligatures:normal;font-variant-caps:normal;font-variant-numeric:normal;font-feature-settings:normal;text-align:start;writing-mode:lr-tb;text-anchor:start;fill:#e07d10"
     id="text3168" /><g
     aria-label="−"
     style="font-style:normal;font-variant:normal;font-weight:normal;font-stretch:normal;font-size:24px;font-family:KaTeX_Main;-inkscape-font-specification:'KaTeX_Main, Normal';font-variant-ligatures:normal;font-variant-caps:normal;font-variant-numeric:normal;font-feature-settings:normal;text-align:start;writing-mode:lr-tb;text-anchor:start;fill:#e07d10"
     id="text3170"
     transform="translate(-4.683044,-3.608099)"><path
       d="m 266.19694,30.479901 q -0.336,-0.168 -0.336,-0.48 0,-0.312 0.336,-0.48 h 13.944 q 0.36,0.192 0.36,0.48 0,0.288 -0.36,0.48 z"
       style="font-style:normal;font-variant:normal;font-weight:normal;font-stretch:normal;font-size:24px;font-family:KaTeX_Main;-inkscape-font-specification:'KaTeX_Main, Normal';font-variant-ligatures:normal;font-variant-caps:normal;font-variant-numeric:normal;font-feature-settings:normal;text-align:start;writing-mode:lr-tb;text-anchor:start;fill:#e07d10"
       id="path3810"
       inkscape:connector-curvature="0" /></g><g
     aria-label="5V"
     style="font-style:normal;font-variant:normal;font-weight:normal;font-stretch:normal;font-size:24px;font-family:KaTeX_Main;-inkscape-font-specification:'KaTeX_Main, Normal';font-variant-ligatures:normal;font-variant-caps:normal;font-variant-numeric:normal;font-feature-settings:normal;text-align:start;writing-mode:lr-tb;text-anchor:start;fill:#e07d10"
     id="text3172"
     transform="translate(-4.683044,-3.608099)"><path
       d="m 130.47118,24.864099 q 0.576,0 0.96,0.408 0.408,0.384 0.408,0.984 0,0.552 -0.408,0.936 -0.408,0.384 -0.912,0.384 h -0.168 l 0.072,0.12 q 0.36,0.768 1.104,1.272 0.744,0.504 1.752,0.504 1.704,0 2.448,-1.44 0.456,-0.888 0.456,-3.072 0,-2.472 -0.648,-3.336 -0.624,-0.792 -1.536,-0.792 -1.872,0 -2.832,1.632 -0.096,0.168 -0.192,0.216 -0.072,0.024 -0.336,0.024 -0.408,0 -0.456,-0.144 -0.048,-0.096 -0.048,-4.2 0,-0.72 -0.024,-1.704 0,-0.984 0,-1.248 0,-1.344 0.144,-1.344 0.048,-0.048 0.096,-0.048 l 0.432,0.144 q 1.56,0.624 3.192,0.624 1.704,0 3.264,-0.672 0.192,-0.096 0.312,-0.096 0.192,0 0.192,0.432 v 0.312 q -1.944,2.328 -4.92,2.328 -0.744,0 -1.344,-0.144 l -0.24,-0.048 v 4.128 q 1.368,-1.104 2.808,-1.104 0.456,0 0.984,0.12 1.608,0.408 2.616,1.824 1.032,1.416 1.032,3.312 0,2.184 -1.536,3.768 -1.512,1.584 -3.744,1.584 -1.512,0 -2.568,-0.84 -0.456,-0.288 -0.792,-0.792 -0.72,-0.864 -0.912,-2.136 0,-0.072 -0.024,-0.216 0,-0.168 0,-0.24 0,-0.672 0.384,-1.056 0.384,-0.384 0.984,-0.384 z"
       style="font-style:normal;font-variant:normal;font-weight:normal;font-stretch:normal;font-size:24px;font-family:KaTeX_Main;-inkscape-font-specification:'KaTeX_Main, Normal';font-variant-ligatures:normal;font-variant-caps:normal;font-variant-numeric:normal;font-feature-settings:normal;text-align:start;writing-mode:lr-tb;text-anchor:start;fill:#e07d10"
       id="path3805"
       inkscape:connector-curvature="0" /><path
       d="m 145.63918,15.120099 q -0.264,-0.264 -0.48,-0.312 -0.216,-0.072 -1.104,-0.096 h -0.696 v -1.104 h 0.216 q 0.336,0.072 2.976,0.072 2.88,0 3.408,-0.072 h 0.264 v 1.104 h -0.504 q -1.104,0.024 -1.368,0.264 -0.096,0.072 -0.096,0.144 0,0.048 2.16,5.952 2.16,5.904 2.184,5.904 0.936,-2.52 2.064,-5.568 2.04,-5.52 2.04,-5.736 0,-0.456 -0.504,-0.696 -0.504,-0.264 -1.104,-0.264 h -0.12 v -1.104 h 0.216 q 0.408,0.072 2.76,0.072 2.064,0 2.328,-0.072 h 0.144 v 1.104 h -0.168 q -1.776,0 -2.304,0.984 0,0.024 -2.712,7.32 -2.688,7.296 -2.712,7.32 -0.072,0.192 -0.432,0.192 h -0.216 -0.216 q -0.336,0 -0.408,-0.192 -0.048,-0.048 -2.808,-7.608 -2.808,-7.536 -2.808,-7.608 z"
       style="font-style:normal;font-variant:normal;font-weight:normal;font-stretch:normal;font-size:24px;font-family:KaTeX_Main;-inkscape-font-specification:'KaTeX_Main, Normal';font-variant-ligatures:normal;font-variant-caps:normal;font-variant-numeric:normal;font-feature-settings:normal;text-align:start;writing-mode:lr-tb;text-anchor:start;fill:#e07d10"
       id="path3807"
       inkscape:connector-curvature="0" /></g><g
     aria-label="3V"
     style="font-style:normal;font-variant:normal;font-weight:normal;font-stretch:normal;font-size:24px;font-family:KaTeX_Main;-inkscape-font-specification:'KaTeX_Main, Normal';font-variant-ligatures:normal;font-variant-caps:normal;font-variant-numeric:normal;font-feature-settings:normal;text-align:start;writing-mode:lr-tb;text-anchor:start;fill:#e07d10"
     id="text3174"
     transform="translate(-4.683044,-3.608099)"><path
       d="m 226.95137,18.888099 q -0.648,0 -1.032,-0.408 -0.36,-0.408 -0.36,-1.056 0,-1.368 1.08,-2.28 1.08,-0.936 2.496,-1.104 h 0.36 q 0.84,0 1.056,0.024 0.792,0.12 1.608,0.504 1.584,0.792 1.992,2.256 0.072,0.24 0.072,0.648 0,1.416 -0.888,2.544 -0.864,1.104 -2.184,1.584 -0.12,0.048 0,0.072 0.048,0.024 0.24,0.072 1.464,0.408 2.472,1.536 1.008,1.104 1.008,2.52 0,0.984 -0.456,1.896 -0.576,1.224 -1.896,2.04 -1.296,0.792 -2.904,0.792 -1.584,0 -2.808,-0.672 -1.224,-0.672 -1.656,-1.8 -0.24,-0.504 -0.24,-1.176 0,-0.672 0.432,-1.08 0.456,-0.432 1.08,-0.432 0.672,0 1.104,0.432 0.432,0.432 0.432,1.08 0,0.552 -0.312,0.96 -0.312,0.408 -0.84,0.528 l -0.168,0.048 q 1.296,1.08 2.976,1.08 1.32,0 1.992,-1.272 0.408,-0.792 0.408,-2.424 v -0.48 q 0,-2.28 -1.536,-3.048 -0.36,-0.144 -1.464,-0.168 l -1.008,-0.024 -0.072,-0.048 q -0.048,-0.072 -0.048,-0.384 0,-0.288 0.072,-0.36 0.072,-0.072 0.12,-0.072 0.672,0 1.392,-0.12 1.056,-0.144 1.608,-1.176 0.552,-1.056 0.552,-2.52 0,-1.56 -0.84,-2.088 -0.504,-0.336 -1.128,-0.336 -1.2,0 -2.112,0.648 -0.096,0.048 -0.216,0.168 -0.12,0.096 -0.192,0.192 l -0.072,0.096 q 0.072,0.024 0.168,0.048 0.48,0.048 0.792,0.456 0.336,0.408 0.336,0.936 0,0.576 -0.408,0.984 -0.384,0.384 -1.008,0.384 z"
       style="font-style:normal;font-variant:normal;font-weight:normal;font-stretch:normal;font-size:24px;font-family:KaTeX_Main;-inkscape-font-specification:'KaTeX_Main, Normal';font-variant-ligatures:normal;font-variant-caps:normal;font-variant-numeric:normal;font-feature-settings:normal;text-align:start;writing-mode:lr-tb;text-anchor:start;fill:#e07d10"
       id="path3800"
       inkscape:connector-curvature="0" /><path
       d="m 241.63937,15.120099 q -0.264,-0.264 -0.48,-0.312 -0.216,-0.072 -1.104,-0.096 h -0.696 v -1.104 h 0.216 q 0.336,0.072 2.976,0.072 2.88,0 3.408,-0.072 h 0.264 v 1.104 h -0.504 q -1.104,0.024 -1.368,0.264 -0.096,0.072 -0.096,0.144 0,0.048 2.16,5.952 2.16,5.904 2.184,5.904 0.936,-2.52 2.064,-5.568 2.04,-5.52 2.04,-5.736 0,-0.456 -0.504,-0.696 -0.504,-0.264 -1.104,-0.264 h -0.12 v -1.104 h 0.216 q 0.408,0.072 2.76,0.072 2.064,0 2.328,-0.072 h 0.144 v 1.104 h -0.168 q -1.776,0 -2.304,0.984 0,0.024 -2.712,7.32 -2.688,7.296 -2.712,7.32 -0.072,0.192 -0.432,0.192 h -0.216 -0.216 q -0.336,0 -0.408,-0.192 -0.048,-0.048 -2.808,-7.608 -2.808,-7.536 -2.808,-7.608 z"
       style="font-style:normal;font-variant:normal;font-weight:normal;font-stretch:normal;font-size:24px;font-family:KaTeX_Main;-inkscape-font-specification:'KaTeX_Main, Normal';font-variant-ligatures:normal;font-variant-caps:normal;font-variant-numeric:normal;font-feature-settings:normal;text-align:start;writing-mode:lr-tb;text-anchor:start;fill:#e07d10"
       id="path3802"
       inkscape:connector-curvature="0" /></g><g
     aria-label="R1"
     style="font-style:normal;font-variant:normal;font-weight:normal;font-stretch:normal;font-size:24px;font-family:KaTeX_Main;-inkscape-font-specification:'KaTeX_Main, Normal';font-variant-ligatures:normal;font-variant-caps:normal;font-variant-numeric:normal;font-feature-settings:normal;text-align:start;letter-spacing:1;writing-mode:lr-tb;text-anchor:start"
     id="text3176"
     transform="translate(-4.683044,-3.608099)"><path
       d="m 131.34047,84.851526 q -0.24,-0.24 -0.48,-0.288 -0.216,-0.048 -1.2,-0.072 h -0.792 v -1.104 h 4.2 q 4.464,0.024 4.92,0.096 0.072,0.024 0.312,0.072 1.08,0.216 1.92,0.672 2.28,1.152 2.616,3.144 0.024,0.12 0.024,0.384 0,1.344 -1.032,2.352 -1.008,1.008 -2.4,1.464 -0.048,0.024 -0.12,0.048 -0.048,0 -0.096,0.024 l -0.048,0.024 q 0.072,0.072 0.264,0.144 1.728,0.96 2.136,2.544 0.024,0.096 0.264,1.584 0.24,1.488 0.264,1.584 0.168,0.864 0.408,1.272 0.264,0.408 0.672,0.552 0.096,0.048 0.408,0.048 h 0.12 q 0.312,0 0.576,-0.264 0.48,-0.48 0.552,-1.44 0,-0.264 0.072,-0.336 0.096,-0.096 0.408,-0.096 0.288,0 0.384,0.072 0.096,0.048 0.096,0.288 0,0.864 -0.432,1.584 -0.408,0.696 -1.008,0.960004 -0.384,0.144 -1.008,0.144 -3.576,-0.144 -4.128,-2.688004 -0.048,-0.264 -0.072,-1.752 0,-1.488 -0.144,-1.992 -0.216,-0.648 -0.72,-1.104 -0.48,-0.48 -1.104,-0.672 l -0.24,-0.048 -1.584,-0.024 h -1.584 v 3.144 l 0.024,3.144 q 0.168,0.24 0.408,0.288 0.264,0.048 1.248,0.072 h 0.792 v 1.104 h -0.264 q -0.384,-0.072 -3.408,-0.072 -3.048,0 -3.432,0.072 h -0.264 v -1.104 h 0.792 q 0.984,-0.024 1.2,-0.072 0.24,-0.048 0.48,-0.288 z m 8.64,1.992 q -0.24,-1.44 -1.296,-1.896 -1.032,-0.456 -3.168,-0.456 -0.36,0 -0.816,0.024 -0.456,0 -0.48,0 -0.312,0.024 -0.384,0.192 -0.072,0.096 -0.072,3.264 v 3.168 h 1.392 q 1.8,0 2.664,-0.144 0.864,-0.168 1.512,-0.816 0.408,-0.408 0.528,-0.912 0.144,-0.504 0.144,-1.464 0,-0.768 -0.024,-0.96 z"
       style="font-style:normal;font-variant:normal;font-weight:normal;font-stretch:normal;font-size:24px;font-family:KaTeX_Main;-inkscape-font-specification:'KaTeX_Main, Normal';font-variant-ligatures:normal;font-variant-caps:normal;font-variant-numeric:normal;font-feature-settings:normal;text-align:start;letter-spacing:1;writing-mode:lr-tb;text-anchor:start"
       id="path3795"
       inkscape:connector-curvature="0" /><path
       d="m 156.87635,99.779526 q -0.408,-0.072 -3.816,-0.072 -3.36,0 -3.768,0.072 h -0.288 v -1.104 h 0.624 q 1.392,0 1.8,-0.072 0.192,-0.024 0.576,-0.288 v -12.408 q -0.048,0 -0.192,0.072 -1.104,0.432 -2.472,0.456 h -0.456 v -1.104 h 0.456 q 2.016,-0.072 3.36,-0.912 0.432,-0.24 0.744,-0.552 0.048,-0.072 0.288,-0.072 0.24,0 0.408,0.144 v 7.176 l 0.024,7.2 q 0.36,0.36 1.56,0.36 h 0.792 0.624 v 1.104 z"
       style="font-style:normal;font-variant:normal;font-weight:normal;font-stretch:normal;font-size:24px;font-family:KaTeX_Main;-inkscape-font-specification:'KaTeX_Main, Normal';font-variant-ligatures:normal;font-variant-caps:normal;font-variant-numeric:normal;font-feature-settings:normal;text-align:start;letter-spacing:1;writing-mode:lr-tb;text-anchor:start"
       id="path3797"
       inkscape:connector-curvature="0" /></g><g
     aria-label="R2"
     style="font-style:normal;font-variant:normal;font-weight:normal;font-stretch:normal;font-size:24px;font-family:KaTeX_Main;-inkscape-font-specification:'KaTeX_Main, Normal';font-variant-ligatures:normal;font-variant-caps:normal;font-variant-numeric:normal;font-feature-settings:normal;text-align:start;letter-spacing:1;writing-mode:lr-tb;text-anchor:start"
     id="text3178"
     transform="translate(-4.683044,-3.608099)"><path
       d="m 227.34047,84.851526 q -0.24,-0.24 -0.48,-0.288 -0.216,-0.048 -1.2,-0.072 h -0.792 v -1.104 h 4.2 q 4.464,0.024 4.92,0.096 0.072,0.024 0.312,0.072 1.08,0.216 1.92,0.672 2.28,1.152 2.616,3.144 0.024,0.12 0.024,0.384 0,1.344 -1.032,2.352 -1.008,1.008 -2.4,1.464 -0.048,0.024 -0.12,0.048 -0.048,0 -0.096,0.024 l -0.048,0.024 q 0.072,0.072 0.264,0.144 1.728,0.96 2.136,2.544 0.024,0.096 0.264,1.584 0.24,1.488 0.264,1.584 0.168,0.864 0.408,1.272 0.264,0.408 0.672,0.552 0.096,0.048 0.408,0.048 h 0.12 q 0.312,0 0.576,-0.264 0.48,-0.48 0.552,-1.44 0,-0.264 0.072,-0.336 0.096,-0.096 0.408,-0.096 0.288,0 0.384,0.072 0.096,0.048 0.096,0.288 0,0.864 -0.432,1.584 -0.408,0.696 -1.008,0.960004 -0.384,0.144 -1.008,0.144 -3.576,-0.144 -4.128,-2.688004 -0.048,-0.264 -0.072,-1.752 0,-1.488 -0.144,-1.992 -0.216,-0.648 -0.72,-1.104 -0.48,-0.48 -1.104,-0.672 l -0.24,-0.048 -1.584,-0.024 h -1.584 v 3.144 l 0.024,3.144 q 0.168,0.24 0.408,0.288 0.264,0.048 1.248,0.072 h 0.792 v 1.104 h -0.264 q -0.384,-0.072 -3.408,-0.072 -3.048,0 -3.432,0.072 h -0.264 v -1.104 h 0.792 q 0.984,-0.024 1.2,-0.072 0.24,-0.048 0.48,-0.288 z m 8.64,1.992 q -0.24,-1.44 -1.296,-1.896 -1.032,-0.456 -3.168,-0.456 -0.36,0 -0.816,0.024 -0.456,0 -0.48,0 -0.312,0.024 -0.384,0.192 -0.072,0.096 -0.072,3.264 v 3.168 h 1.392 q 1.8,0 2.664,-0.144 0.864,-0.168 1.512,-0.816 0.408,-0.408 0.528,-0.912 0.144,-0.504 0.144,-1.464 0,-0.768 -0.024,-0.96 z"
       style="font-style:normal;font-variant:normal;font-weight:normal;font-stretch:normal;font-size:24px;font-family:KaTeX_Main;-inkscape-font-specification:'KaTeX_Main, Normal';font-variant-ligatures:normal;font-variant-caps:normal;font-variant-numeric:normal;font-feature-settings:normal;text-align:start;letter-spacing:1;writing-mode:lr-tb;text-anchor:start"
       id="path3790"
       inkscape:connector-curvature="0" /><path
       d="m 245.53235,89.483526 q -0.672,0 -1.056,-0.432 -0.384,-0.432 -0.384,-1.056 0,-1.728 1.296,-2.952 1.32,-1.248 3.144,-1.248 2.064,0 3.408,1.128 1.368,1.104 1.68,2.904 0.048,0.432 0.048,0.792 0,1.392 -0.84,2.616 -0.672,1.008 -2.712,2.76 -0.864,0.744 -2.4,2.208 l -1.416,1.344 1.824,0.024 q 3.768,0 4.008,-0.12 0.096,-0.024 0.24,-0.504 0.096,-0.264 0.336,-1.632 v -0.072 h 0.96 v 0.072 l -0.672,4.392 v 0.072 h -8.904 v -0.456 q 0,-0.48 0.048,-0.552 0.024,-0.024 2.016,-2.28 2.616,-2.904 3.36,-3.84 1.608,-2.184 1.608,-4.008 0,-1.584 -0.84,-2.64 -0.816,-1.08 -2.304,-1.08 -1.392,0 -2.256,1.248 -0.048,0.096 -0.144,0.264 -0.072,0.12 -0.072,0.144 0,0.024 0.12,0.024 0.6,0 0.96,0.432 0.384,0.432 0.384,1.008 0,0.6 -0.408,1.032 -0.384,0.408 -1.032,0.408 z"
       style="font-style:normal;font-variant:normal;font-weight:normal;font-stretch:normal;font-size:24px;font-family:KaTeX_Main;-inkscape-font-specification:'KaTeX_Main, Normal';font-variant-ligatures:normal;font-variant-caps:normal;font-variant-numeric:normal;font-feature-settings:normal;text-align:start;letter-spacing:1;writing-mode:lr-tb;text-anchor:start"
       id="path3792"
       inkscape:connector-curvature="0" /></g><g
     aria-label="R3"
     style="font-style:normal;font-variant:normal;font-weight:normal;font-stretch:normal;font-size:24px;font-family:KaTeX_Main;-inkscape-font-specification:'KaTeX_Main, Normal';font-variant-ligatures:normal;font-variant-caps:normal;font-variant-numeric:normal;font-feature-settings:normal;text-align:start;letter-spacing:1;writing-mode:lr-tb;text-anchor:start"
     id="text3180"
     transform="translate(-4.683044,-3.608099)"><path
       d="m 245.34047,129.072 q -0.24,-0.24 -0.48,-0.288 -0.216,-0.048 -1.2,-0.072 h -0.792 v -1.104 h 4.2 q 4.464,0.024 4.92,0.096 0.072,0.024 0.312,0.072 1.08,0.216 1.92,0.672 2.28,1.152 2.616,3.144 0.024,0.12 0.024,0.384 0,1.344 -1.032,2.352 -1.008,1.008 -2.4,1.464 -0.048,0.024 -0.12,0.048 -0.048,0 -0.096,0.024 l -0.048,0.024 q 0.072,0.072 0.264,0.144 1.728,0.96 2.136,2.544 0.024,0.096 0.264,1.584 0.24,1.488 0.264,1.584 0.168,0.864 0.408,1.272 0.264,0.408 0.672,0.552 0.096,0.048 0.408,0.048 h 0.12 q 0.312,0 0.576,-0.264 0.48,-0.48 0.552,-1.44 0,-0.264 0.072,-0.336 0.096,-0.096 0.408,-0.096 0.288,0 0.384,0.072 0.096,0.048 0.096,0.288 0,0.864 -0.432,1.584 -0.408,0.696 -1.008,0.96 -0.384,0.144 -1.008,0.144 -3.576,-0.144 -4.128,-2.688 -0.048,-0.264 -0.072,-1.752 0,-1.488 -0.144,-1.992 -0.216,-0.648 -0.72,-1.104 -0.48,-0.48 -1.104,-0.672 l -0.24,-0.048 -1.584,-0.024 h -1.584 v 3.144 l 0.024,3.144 q 0.168,0.24 0.408,0.288 0.264,0.048 1.248,0.072 h 0.792 V 144 h -0.264 q -0.384,-0.072 -3.408,-0.072 -3.048,0 -3.432,0.072 h -0.264 v -1.104 h 0.792 q 0.984,-0.024 1.2,-0.072 0.24,-0.048 0.48,-0.288 z m 8.64,1.992 q -0.24,-1.44 -1.296,-1.896 -1.032,-0.456 -3.168,-0.456 -0.36,0 -0.816,0.024 -0.456,0 -0.48,0 -0.312,0.024 -0.384,0.192 -0.072,0.096 -0.072,3.264 v 3.168 h 1.392 q 1.8,0 2.664,-0.144 0.864,-0.168 1.512,-0.816 0.408,-0.408 0.528,-0.912 0.144,-0.504 0.144,-1.464 0,-0.768 -0.024,-0.96 z"
       style="font-style:normal;font-variant:normal;font-weight:normal;font-stretch:normal;font-size:24px;font-family:KaTeX_Main;-inkscape-font-specification:'KaTeX_Main, Normal';font-variant-ligatures:normal;font-variant-caps:normal;font-variant-numeric:normal;font-feature-settings:normal;text-align:start;letter-spacing:1;writing-mode:lr-tb;text-anchor:start"
       id="path3785"
       inkscape:connector-curvature="0" /><path
       d="m 263.94035,132.888 q -0.648,0 -1.032,-0.408 -0.36,-0.408 -0.36,-1.056 0,-1.368 1.08,-2.28 1.08,-0.936 2.496,-1.104 h 0.36 q 0.84,0 1.056,0.024 0.792,0.12 1.608,0.504 1.584,0.792 1.992,2.256 0.072,0.24 0.072,0.648 0,1.416 -0.888,2.544 -0.864,1.104 -2.184,1.584 -0.12,0.048 0,0.072 0.048,0.024 0.24,0.072 1.464,0.408 2.472,1.536 1.008,1.104 1.008,2.52 0,0.984 -0.456,1.896 -0.576,1.224 -1.896,2.04 -1.296,0.792 -2.904,0.792 -1.584,0 -2.808,-0.672 -1.224,-0.672 -1.656,-1.8 -0.24,-0.504 -0.24,-1.176 0,-0.672 0.432,-1.08 0.456,-0.432 1.08,-0.432 0.672,0 1.104,0.432 0.432,0.432 0.432,1.08 0,0.552 -0.312,0.96 -0.312,0.408 -0.84,0.528 l -0.168,0.048 q 1.296,1.08 2.976,1.08 1.32,0 1.992,-1.272 0.408,-0.792 0.408,-2.424 v -0.48 q 0,-2.28 -1.536,-3.048 -0.36,-0.144 -1.464,-0.168 l -1.008,-0.024 -0.072,-0.048 q -0.048,-0.072 -0.048,-0.384 0,-0.288 0.072,-0.36 0.072,-0.072 0.12,-0.072 0.672,0 1.392,-0.12 1.056,-0.144 1.608,-1.176 0.552,-1.056 0.552,-2.52 0,-1.56 -0.84,-2.088 -0.504,-0.336 -1.128,-0.336 -1.2,0 -2.112,0.648 -0.096,0.048 -0.216,0.168 -0.12,0.096 -0.192,0.192 l -0.072,0.096 q 0.072,0.024 0.168,0.048 0.48,0.048 0.792,0.456 0.336,0.408 0.336,0.936 0,0.576 -0.408,0.984 -0.384,0.384 -1.008,0.384 z"
       style="font-style:normal;font-variant:normal;font-weight:normal;font-stretch:normal;font-size:24px;font-family:KaTeX_Main;-inkscape-font-specification:'KaTeX_Main, Normal';font-variant-ligatures:normal;font-variant-caps:normal;font-variant-numeric:normal;font-feature-settings:normal;text-align:start;letter-spacing:1;writing-mode:lr-tb;text-anchor:start"
       id="path3787"
       inkscape:connector-curvature="0" /></g><g
     aria-label="R4"
     transform="translate(175.31696,182.3919)"
     style="font-style:normal;font-variant:normal;font-weight:normal;font-stretch:normal;font-size:24px;font-family:KaTeX_Main;-inkscape-font-specification:'KaTeX_Main, Normal';font-variant-ligatures:normal;font-variant-caps:normal;font-variant-numeric:normal;font-feature-settings:normal;text-align:start;letter-spacing:1;writing-mode:lr-tb;text-anchor:start"
     id="text3182"><path
       d="m 3.12,-14.928 q -0.24,-0.24 -0.48,-0.288 -0.216,-0.048 -1.2,-0.072 H 0.648 v -1.104 h 4.2 q 4.464,0.024 4.92,0.096 0.072,0.024 0.312,0.072 1.08,0.216 1.92,0.672 2.28,1.152 2.616,3.144 0.024,0.12 0.024,0.384 0,1.344 -1.032,2.352 -1.008,1.008 -2.4,1.464 -0.048,0.024 -0.12,0.048 -0.048,0 -0.096,0.024 l -0.048,0.024 q 0.072,0.072 0.264,0.144 1.728,0.96 2.136,2.544 0.024,0.096 0.264,1.584 0.24,1.488 0.264,1.584 0.168,0.864 0.408,1.272 0.264,0.408 0.672,0.552 0.096,0.048 0.408,0.048 h 0.12 q 0.312,0 0.576,-0.264 0.48,-0.48 0.552,-1.44 0,-0.264 0.072,-0.336 0.096,-0.096 0.408,-0.096 0.288,0 0.384,0.072 0.096,0.048 0.096,0.288 0,0.864 -0.432,1.584 Q 16.728,0.12 16.128,0.384 15.744,0.528 15.12,0.528 11.544,0.384 10.992,-2.16 10.944,-2.424 10.92,-3.912 10.92,-5.4 10.776,-5.904 10.56,-6.552 10.056,-7.008 9.576,-7.488 8.952,-7.68 L 8.712,-7.728 7.128,-7.752 H 5.544 v 3.144 l 0.024,3.144 q 0.168,0.24 0.408,0.288 0.264,0.048 1.248,0.072 H 8.016 V 0 H 7.752 Q 7.368,-0.072 4.344,-0.072 1.296,-0.072 0.912,0 H 0.648 V -1.104 H 1.44 q 0.984,-0.024 1.2,-0.072 0.24,-0.048 0.48,-0.288 z m 8.64,1.992 q -0.24,-1.44 -1.296,-1.896 -1.032,-0.456 -3.168,-0.456 -0.36,0 -0.816,0.024 -0.456,0 -0.48,0 -0.312,0.024 -0.384,0.192 -0.072,0.096 -0.072,3.264 v 3.168 h 1.392 q 1.8,0 2.664,-0.144 0.864,-0.168 1.512,-0.816 0.408,-0.408 0.528,-0.912 0.144,-0.504 0.144,-1.464 0,-0.768 -0.024,-0.96 z"
       style="font-style:normal;font-variant:normal;font-weight:normal;font-stretch:normal;font-size:24px;font-family:KaTeX_Main;-inkscape-font-specification:'KaTeX_Main, Normal';font-variant-ligatures:normal;font-variant-caps:normal;font-variant-numeric:normal;font-feature-settings:normal;text-align:start;letter-spacing:1;writing-mode:lr-tb;text-anchor:start"
       id="path3780"
       inkscape:connector-curvature="0" /><path
       d="m 29.759875,0 q -0.336,-0.072 -3.096,-0.072 -2.88,0 -3.216,0.072 h -0.216 v -1.104 h 0.744 q 1.032,-0.024 1.272,-0.12 0.192,-0.048 0.288,-0.24 0.024,-0.048 0.024,-1.296 v -1.2 h -6.216 v -1.104 l 3.624,-5.544 q 3.672,-5.568 3.72,-5.592 0.048,-0.048 0.504,-0.048 h 0.432 l 0.144,0.144 v 11.04 h 2.208 v 1.104 h -2.208 v 1.224 q 0,0.984 0,1.152 0.024,0.168 0.144,0.288 0.192,0.168 1.368,0.192 h 0.696 V 0 Z m -4.056,-5.064 v -8.016 l -5.256,7.992 2.616,0.024 z"
       style="font-style:normal;font-variant:normal;font-weight:normal;font-stretch:normal;font-size:24px;font-family:KaTeX_Main;-inkscape-font-specification:'KaTeX_Main, Normal';font-variant-ligatures:normal;font-variant-caps:normal;font-variant-numeric:normal;font-feature-settings:normal;text-align:start;letter-spacing:1;writing-mode:lr-tb;text-anchor:start"
       id="path3782"
       inkscape:connector-curvature="0" /></g><g
     aria-label="V"
     transform="translate(115.31696,140.3919)"
     style="font-style:normal;font-variant:normal;font-weight:normal;font-stretch:normal;font-size:24px;font-family:KaTeX_Main;-inkscape-font-specification:'KaTeX_Main, Normal';font-variant-ligatures:normal;font-variant-caps:normal;font-variant-numeric:normal;font-feature-settings:normal;text-align:start;letter-spacing:1;writing-mode:lr-tb;text-anchor:start"
     id="text3184"><path
       d="M 2.736,-14.88 Q 2.472,-15.144 2.256,-15.192 2.04,-15.264 1.152,-15.288 H 0.456 v -1.104 h 0.216 q 0.336,0.072 2.976,0.072 2.88,0 3.408,-0.072 H 7.32 v 1.104 H 6.816 q -1.104,0.024 -1.368,0.264 -0.096,0.072 -0.096,0.144 0,0.048 2.16,5.952 2.16,5.904 2.184,5.904 0.936,-2.52 2.064,-5.568 2.04,-5.52 2.04,-5.736 0,-0.456 -0.504,-0.696 -0.504,-0.264 -1.104,-0.264 h -0.12 v -1.104 h 0.216 q 0.408,0.072 2.76,0.072 2.064,0 2.328,-0.072 h 0.144 v 1.104 h -0.168 q -1.776,0 -2.304,0.984 0,0.024 -2.712,7.32 Q 9.648,0.312 9.624,0.336 9.552,0.528 9.192,0.528 H 8.976 8.76 Q 8.424,0.528 8.352,0.336 8.304,0.288 5.544,-7.272 2.736,-14.808 2.736,-14.88 Z"
       style="font-style:normal;font-variant:normal;font-weight:normal;font-stretch:normal;font-size:24px;font-family:KaTeX_Main;-inkscape-font-specification:'KaTeX_Main, Normal';font-variant-ligatures:normal;font-variant-caps:normal;font-variant-numeric:normal;font-feature-settings:normal;text-align:start;letter-spacing:1;writing-mode:lr-tb;text-anchor:start"
       id="path3777"
       inkscape:connector-curvature="0" /></g><g
     aria-label="in"
     transform="matrix(0.583,0,0,0.583,128.97176,146.386)"
     style="font-style:normal;font-variant:normal;font-weight:normal;font-stretch:normal;font-size:41.16638184px;font-family:KaTeX_Main;-inkscape-font-specification:'KaTeX_Main, Normal';font-variant-ligatures:normal;font-variant-caps:normal;font-variant-numeric:normal;font-feature-settings:normal;text-align:start;writing-mode:lr-tb;text-anchor:start"
     id="text3186"><path
       d="m 5.392796,-27.540309 q 1.0291596,0.08233 1.6878217,0.740994 0.6586621,0.617496 0.6586621,1.728988 0,1.48199 -1.1114923,2.099486 -0.535163,0.370497 -1.3173242,0.370497 -0.8233277,0 -1.3584906,-0.370497 -1.1114924,-0.617496 -1.1114924,-2.099486 0,-1.152658 0.6998285,-1.81132 0.7409949,-0.658662 1.8524872,-0.658662 z M 10.168096,0 Q 9.7152661,-0.12349915 5.8867926,-0.12349915 2.1406519,-0.12349915 1.399657,0 H 1.0703259 V -1.8936536 H 1.728988 q 1.1526587,0 2.0171527,-0.1234991 0.3293311,-0.1234992 0.4939966,-0.4528302 0.041166,-0.082333 0.041166,-5.9691254 0,-6.1749577 -0.1646655,-6.5866207 -0.3293311,-0.823328 -2.4288165,-0.823328 H 1.2349915 v -0.946827 q 0,-0.946827 0.082333,-0.946827 l 0.4116638,-0.04117 q 0.4116639,-0.04117 1.1526587,-0.08233 0.7409949,-0.04117 1.4819898,-0.08233 0.6998285,-0.04117 1.4819897,-0.08233 0.7821613,-0.08233 1.1938251,-0.123499 0.4116638,-0.04117 0.4528302,-0.04117 h 0.1234991 v 15.6432253 q 0.2058319,0.4116638 0.4939966,0.535163 0.2881647,0.082333 1.4408234,0.1234991 H 10.497427 V 0 Z"
       style="font-style:normal;font-variant:normal;font-weight:normal;font-stretch:normal;font-size:41.16638184px;font-family:KaTeX_Main;-inkscape-font-specification:'KaTeX_Main, Normal';font-variant-ligatures:normal;font-variant-caps:normal;font-variant-numeric:normal;font-feature-settings:normal;text-align:start;writing-mode:lr-tb;text-anchor:start"
       id="path3772"
       inkscape:connector-curvature="0" /><path
       d="m 19.156518,-2.4699829 q 0.329331,0.5763293 1.93482,0.5763293 h 0.576329 0.658662 V 0 h -0.329331 q -0.535163,-0.12349915 -4.610634,-0.12349915 -4.075472,0 -4.610635,0.12349915 h -0.329331 v -1.8936536 h 0.658662 0.576329 q 1.605489,0 1.93482,-0.5763293 V -2.799314 q 0,-0.3704974 0,-0.9468267 0,-0.5763294 0,-1.2761579 0.04117,-0.7409949 0.04117,-1.6054889 0,-0.9056604 0,-1.728988 0,-1.2761578 -0.04117,-2.7169815 0,-1.481989 0,-2.428816 V -14.4494 q -0.123499,-0.782161 -0.617496,-1.02916 -0.45283,-0.288164 -1.81132,-0.370497 h -0.740995 v -0.946827 q 0,-0.946827 0.08233,-0.946827 l 0.411663,-0.04117 q 0.411664,-0.04117 1.152659,-0.08233 0.782161,-0.04117 1.523156,-0.08233 0.699829,-0.04117 1.48199,-0.08233 0.782161,-0.08233 1.193825,-0.123499 0.411664,-0.04117 0.45283,-0.04117 h 0.123499 v 1.646656 q 0,1.564322 0.04117,1.564322 l 0.04117,-0.04117 q 2.222985,-3.169812 6.298457,-3.169812 4.734133,0.164666 5.22813,4.651801 0.04117,0.288165 0.04117,5.7221275 0,5.2692968 0.04117,5.3516296 0.164665,0.329331 0.493996,0.4528302 0.864494,0.1234991 2.017153,0.1234991 h 0.658662 V 0 h -0.329331 q -0.535163,-0.12349915 -4.610635,-0.12349915 -4.075471,0 -4.610634,0.12349915 h -0.329331 v -1.8936536 h 0.658662 0.329331 q 2.181818,0 2.181818,-0.6586621 0.04117,-0.082333 0.04117,-5.6809607 -0.04117,-5.5574616 -0.08233,-5.8867926 -0.288165,-1.317324 -0.946827,-1.893654 -0.617496,-0.617495 -1.93482,-0.617495 -1.852487,0 -3.252144,1.399657 -1.440824,1.440823 -1.687822,3.622641 0,0.04117 0,0.782162 0,0.699828 -0.04117,1.8113204 0,1.1114923 0,2.0994855 0,0.6174957 0,1.3173242 0,0.6586621 0,1.193825 0.04117,0.535163 0.04117,0.9879932 0,0.4116638 0,0.6998285 z"
       style="font-style:normal;font-variant:normal;font-weight:normal;font-stretch:normal;font-size:41.16638184px;font-family:KaTeX_Main;-inkscape-font-specification:'KaTeX_Main, Normal';font-variant-ligatures:normal;font-variant-caps:normal;font-variant-numeric:normal;font-feature-settings:normal;text-align:start;writing-mode:lr-tb;text-anchor:start"
       id="path3774"
       inkscape:connector-curvature="0" /></g><g
     aria-label="a"
     transform="translate(73.316956,200.3919)"
     style="font-style:normal;font-variant:normal;font-weight:normal;font-stretch:normal;font-size:24px;font-family:KaTeX_Math;-inkscape-font-specification:'KaTeX_Math, Normal';font-variant-ligatures:normal;font-variant-caps:normal;font-variant-numeric:normal;font-feature-settings:normal;text-align:start;letter-spacing:1;writing-mode:lr-tb;text-anchor:start;fill:#1fab54"
     id="text3188"><path
       d="m 11.688,-3.672 q 0.216,0 0.288,0.024 0.072,0 0.12,0.048 0.048,0.048 0.048,0.144 0,0.072 -0.072,0.36 -0.528,2.016 -1.296,2.784 Q 10.464,0 10.008,0.192 9.816,0.24 9.432,0.24 7.92,0.24 7.32,-0.936 7.2,-1.248 7.2,-1.224 7.176,-1.248 7.104,-1.2 q -0.048,0.048 -0.096,0.096 -1.152,1.08 -2.28,1.32 -0.144,0.024 -0.6,0.024 -1.584,0 -2.616,-1.32 -0.72,-1.056 -0.72,-2.688 0,-0.384 0.024,-0.528 0.168,-1.536 0.984,-2.928 0.84,-1.416 1.992,-2.28 1.392,-1.08 2.928,-1.08 1.2,0 2.16,1.176 0.384,-0.72 1.104,-0.72 0.312,0 0.552,0.192 0.24,0.192 0.24,0.48 0,0.312 -0.912,3.864 -0.888,3.528 -0.888,3.96 0,1.008 0.672,1.008 0.216,-0.024 0.48,-0.216 0.504,-0.48 0.984,-2.304 0.144,-0.48 0.24,-0.504 0.048,-0.024 0.24,-0.024 z m -8.856,1.128 q 0,0.864 0.36,1.392 0.384,0.528 1.104,0.528 0.696,0 1.488,-0.576 0.288,-0.192 0.768,-0.72 0.504,-0.528 0.6,-0.72 Q 7.2,-2.736 7.8,-5.208 8.424,-7.68 8.424,-7.872 8.424,-8.16 8.16,-8.688 7.632,-9.72 6.648,-9.72 q -0.96,0 -1.704,0.816 -0.72,0.816 -1.104,1.872 -0.696,1.896 -0.984,3.936 0,0.072 -0.024,0.264 0,0.192 0,0.288 z"
       style="font-style:normal;font-variant:normal;font-weight:normal;font-stretch:normal;font-size:24px;font-family:KaTeX_Math;-inkscape-font-specification:'KaTeX_Math, Normal';font-variant-ligatures:normal;font-variant-caps:normal;font-variant-numeric:normal;font-feature-settings:normal;text-align:start;letter-spacing:1;writing-mode:lr-tb;text-anchor:start;fill:#1fab54"
       id="path3769"
       inkscape:connector-curvature="0" /></g><g
     aria-label="b"
     transform="translate(73.316956,74.391901)"
     style="font-style:normal;font-variant:normal;font-weight:normal;font-stretch:normal;font-size:24px;font-family:KaTeX_Math;-inkscape-font-specification:'KaTeX_Math, Normal';font-variant-ligatures:normal;font-variant-caps:normal;font-variant-numeric:normal;font-feature-settings:normal;text-align:start;letter-spacing:1;writing-mode:lr-tb;text-anchor:start;fill:#1fab54"
     id="text3190"><path
       d="m 2.136,-16.392 q 0.024,0 1.728,-0.12 1.728,-0.144 1.752,-0.144 0.288,0 0.288,0.216 0,0.216 -0.816,3.432 -0.192,0.816 -0.432,1.68 -0.216,0.864 -0.336,1.296 l -0.096,0.456 q 0,0.072 0.144,-0.072 0.816,-0.672 1.824,-0.912 0.288,-0.048 0.6,-0.048 0.312,0 0.6,0.048 1.248,0.288 1.992,1.296 0.744,1.008 0.744,2.544 0,2.688 -1.896,4.848 -1.872,2.136 -4.08,2.136 -0.696,0 -1.32,-0.312 Q 0.96,-0.888 0.96,-3.6 q 0,-0.696 0.144,-1.368 0,-0.024 1.2,-4.92 l 1.224,-4.896 q 0.048,-0.336 -0.168,-0.408 -0.192,-0.096 -0.672,-0.096 -0.168,0 -0.264,0 -0.504,0 -0.576,-0.072 -0.144,-0.12 -0.024,-0.576 0.096,-0.336 0.168,-0.384 0.072,-0.072 0.144,-0.072 z M 8.064,-7.8 q 0,-1.92 -1.464,-1.92 -0.048,0 -0.168,0.024 -0.096,0 -0.12,0 -1.248,0.264 -2.352,1.728 -0.048,0.048 -0.12,0.144 l -0.072,0.096 q 0,0.024 -0.432,1.728 -0.408,1.68 -0.456,1.92 -0.144,0.744 -0.144,1.344 0,1.152 0.576,1.728 0.384,0.384 0.96,0.384 0.792,0 1.608,-0.768 0.6,-0.552 0.96,-1.344 0.384,-0.816 0.792,-2.52 0.432,-1.728 0.432,-2.544 z"
       style="font-style:normal;font-variant:normal;font-weight:normal;font-stretch:normal;font-size:24px;font-family:KaTeX_Math;-inkscape-font-specification:'KaTeX_Math, Normal';font-variant-ligatures:normal;font-variant-caps:normal;font-variant-numeric:normal;font-feature-settings:normal;text-align:start;letter-spacing:1;writing-mode:lr-tb;text-anchor:start;fill:#1fab54"
       id="path3766"
       inkscape:connector-curvature="0" /></g><g
     aria-label="c"
     transform="translate(181.31696,56.391901)"
     style="font-style:normal;font-variant:normal;font-weight:normal;font-stretch:normal;font-size:24px;font-family:KaTeX_Math;-inkscape-font-specification:'KaTeX_Math, Normal';font-variant-ligatures:normal;font-variant-caps:normal;font-variant-numeric:normal;font-feature-settings:normal;text-align:start;letter-spacing:1;writing-mode:lr-tb;text-anchor:start;fill:#1fab54"
     id="text3192"><path
       d="m 9.744,-2.904 q 0.096,0 0.312,0.24 0.24,0.216 0.24,0.312 0,0.216 -0.744,0.888 -1.488,1.344 -3.768,1.68 -0.528,0.048 -0.936,0.048 -2.568,0 -3.576,-2.112 -0.456,-0.888 -0.456,-1.968 0,-1.104 0.456,-2.256 0.696,-1.8 2.256,-3.048 1.584,-1.272 3.36,-1.464 0.144,-0.024 0.456,-0.024 0.84,0 1.56,0.264 1.344,0.576 1.344,1.824 0,0.744 -0.456,1.224 -0.456,0.456 -1.152,0.456 -0.456,0 -0.72,-0.24 -0.264,-0.264 -0.264,-0.72 0,-0.408 0.24,-0.792 0.24,-0.384 0.624,-0.552 0.192,-0.12 0.264,-0.12 0.096,0 -0.168,-0.168 -0.456,-0.264 -1.272,-0.264 -0.72,0 -1.368,0.336 -0.504,0.216 -1.032,0.744 -0.624,0.624 -1.008,1.488 -0.384,0.864 -0.768,2.472 -0.264,1.128 -0.264,1.8 0,1.104 0.624,1.656 0.552,0.576 1.488,0.576 0.36,0 0.744,-0.048 2.256,-0.336 3.696,-1.992 0.216,-0.24 0.288,-0.24 z"
       style="font-style:normal;font-variant:normal;font-weight:normal;font-stretch:normal;font-size:24px;font-family:KaTeX_Math;-inkscape-font-specification:'KaTeX_Math, Normal';font-variant-ligatures:normal;font-variant-caps:normal;font-variant-numeric:normal;font-feature-settings:normal;text-align:start;letter-spacing:1;writing-mode:lr-tb;text-anchor:start;fill:#1fab54"
       id="path3763"
       inkscape:connector-curvature="0" /></g><g
     aria-label="d"
     transform="translate(289.31696,74.391901)"
     style="font-style:normal;font-variant:normal;font-weight:normal;font-stretch:normal;font-size:24px;font-family:KaTeX_Math;-inkscape-font-specification:'KaTeX_Math, Normal';font-variant-ligatures:normal;font-variant-caps:normal;font-variant-numeric:normal;font-feature-settings:normal;text-align:start;letter-spacing:1;writing-mode:lr-tb;text-anchor:start;fill:#1fab54"
     id="text3194"><path
       d="m 10.512,-16.512 q 0.36,-0.024 0.816,-0.048 0.456,-0.048 0.672,-0.072 0.24,-0.024 0.264,-0.024 0.288,0 0.288,0.192 0,0.168 -1.776,7.272 -1.752,7.08 -1.776,7.2 -0.024,0.12 -0.024,0.36 0,1.008 0.672,1.008 0.216,-0.024 0.48,-0.216 0.504,-0.48 0.984,-2.304 0.144,-0.48 0.24,-0.504 0.048,-0.024 0.24,-0.024 h 0.096 q 0.456,0 0.456,0.192 0,0.096 -0.072,0.384 -0.528,2.016 -1.296,2.784 Q 10.464,0 10.008,0.192 9.816,0.24 9.432,0.24 7.92,0.24 7.32,-0.936 7.2,-1.248 7.2,-1.224 7.176,-1.248 7.104,-1.2 q -0.048,0.048 -0.096,0.096 -1.152,1.08 -2.28,1.32 -0.144,0.024 -0.6,0.024 -1.584,0 -2.616,-1.32 -0.72,-1.056 -0.72,-2.688 0,-2.232 1.632,-4.416 1.488,-1.824 3.312,-2.28 0.504,-0.144 0.984,-0.144 1.32,0 2.016,1.008 0.12,0.144 0.12,0.096 0.024,-0.096 0.648,-2.616 0.648,-2.544 0.672,-2.664 0,-0.288 -0.144,-0.384 -0.264,-0.096 -0.96,-0.12 H 8.568 Q 8.424,-15.432 8.4,-15.48 q 0,-0.048 0.072,-0.456 0.12,-0.456 0.312,-0.456 0.024,0 0.24,-0.024 0.24,-0.024 0.648,-0.048 0.432,-0.024 0.84,-0.048 z M 8.448,-7.824 Q 7.92,-9.72 6.648,-9.72 q -0.96,0 -1.704,0.816 -0.72,0.816 -1.104,1.872 -0.696,1.896 -0.984,3.936 0,0.072 -0.024,0.264 0,0.192 0,0.288 0,0.864 0.36,1.392 0.384,0.528 1.104,0.528 1.272,0 2.664,-1.728 L 7.152,-2.616 Q 7.368,-3.48 7.8,-5.208 8.232,-6.96 8.448,-7.824 Z"
       style="font-style:normal;font-variant:normal;font-weight:normal;font-stretch:normal;font-size:24px;font-family:KaTeX_Math;-inkscape-font-specification:'KaTeX_Math, Normal';font-variant-ligatures:normal;font-variant-caps:normal;font-variant-numeric:normal;font-feature-settings:normal;text-align:start;letter-spacing:1;writing-mode:lr-tb;text-anchor:start;fill:#1fab54"
       id="path3760"
       inkscape:connector-curvature="0" /></g><g
     aria-label="e"
     transform="translate(289.31696,200.3919)"
     style="font-style:normal;font-variant:normal;font-weight:normal;font-stretch:normal;font-size:24px;font-family:KaTeX_Math;-inkscape-font-specification:'KaTeX_Math, Normal';font-variant-ligatures:normal;font-variant-caps:normal;font-variant-numeric:normal;font-feature-settings:normal;text-align:start;letter-spacing:1;writing-mode:lr-tb;text-anchor:start;fill:#1fab54"
     id="text3196"><path
       d="m 9.744,-2.904 q 0.096,0 0.312,0.24 0.24,0.216 0.24,0.312 0,0.216 -0.744,0.888 Q 7.584,0.264 4.92,0.264 3.6,0.264 2.688,-0.384 2.16,-0.672 1.728,-1.32 0.936,-2.52 0.936,-4.032 q 0,-0.912 0.192,-1.8 0.504,-1.872 2.064,-3.192 1.584,-1.32 3.792,-1.56 0.024,-0.024 0.384,-0.024 H 7.44 q 1.008,0 1.704,0.456 0.72,0.432 0.936,1.2 0.024,0.096 0.024,0.432 0,0.432 -0.048,0.6 -0.504,1.704 -2.616,2.232 -1.176,0.312 -3.216,0.336 -0.888,0 -0.912,0.048 0,0.024 -0.048,0.312 Q 3,-3.816 3,-3.072 q 0,1.128 0.504,1.8 0.504,0.648 1.512,0.648 2.688,0 4.44,-2.04 0.216,-0.24 0.288,-0.24 z M 8.952,-8.472 Q 8.808,-9.72 7.32,-9.72 q -0.84,0 -1.728,0.48 -1.176,0.696 -1.752,2.184 -0.264,0.72 -0.264,0.792 0,0.024 0.48,0.024 0.792,0 1.464,-0.048 1.416,-0.12 2.112,-0.408 0.696,-0.288 1.152,-0.96 0.168,-0.36 0.168,-0.816 z"
       style="font-style:normal;font-variant:normal;font-weight:normal;font-stretch:normal;font-size:24px;font-family:KaTeX_Math;-inkscape-font-specification:'KaTeX_Math, Normal';font-variant-ligatures:normal;font-variant-caps:normal;font-variant-numeric:normal;font-feature-settings:normal;text-align:start;letter-spacing:1;writing-mode:lr-tb;text-anchor:start;fill:#1fab54"
       id="path3757"
       inkscape:connector-curvature="0" /></g></svg>