<?xml version="1.0" encoding="UTF-8" standalone="no"?>
<svg
   xmlns:xhtml="http://www.w3.org/1999/xhtml"
   xmlns:dc="http://purl.org/dc/elements/1.1/"
   xmlns:cc="http://creativecommons.org/ns#"
   xmlns:rdf="http://www.w3.org/1999/02/22-rdf-syntax-ns#"
   xmlns:svg="http://www.w3.org/2000/svg"
   xmlns="http://www.w3.org/2000/svg"
   xmlns:sodipodi="http://sodipodi.sourceforge.net/DTD/sodipodi-0.dtd"
   xmlns:inkscape="http://www.inkscape.org/namespaces/inkscape"
   width="361.58185"
   height="354.47766"
   version="1.1"
   id="svg2"
   inkscape:version="0.91 r13725"
   sodipodi:docname="linearity_x_squared.svg">
  <metadata
     id="metadata208">
    <rdf:RDF>
      <cc:Work
         rdf:about="">
        <dc:format>image/svg+xml</dc:format>
        <dc:type
           rdf:resource="http://purl.org/dc/dcmitype/StillImage" />
        <dc:title></dc:title>
      </cc:Work>
    </rdf:RDF>
  </metadata>
  <defs
     id="defs206" />
  <sodipodi:namedview
     pagecolor="#ffffff"
     bordercolor="#666666"
     borderopacity="1"
     objecttolerance="10"
     gridtolerance="10"
     guidetolerance="10"
     inkscape:pageopacity="0"
     inkscape:pageshadow="2"
     inkscape:window-width="640"
     inkscape:window-height="480"
     id="namedview204"
     showgrid="false"
     fit-margin-top="10"
     fit-margin-right="10"
     fit-margin-bottom="10"
     fit-margin-left="10"
     inkscape:zoom="1.27"
     inkscape:cx="171.47171"
     inkscape:cy="164.3183"
     inkscape:current-layer="svg2" />
  <xhtml:defs>
    <xhtml:style
       type="text/css"><![CDATA[
svg .grid { stroke-width: 0.5px; stroke: rgb(187, 187, 187); opacity: 0.5; }
svg .domain { stroke-width: 3px; stroke: black; }
svg { border: none; }
svg .path { stroke-width: 3px; stroke: rgb(17, 172, 205); fill: none; }
svg text { font: 16px katex_math; }
svg .tick text { font: 12px katex_math; }]]></xhtml:style>
  </xhtml:defs>
  <path
     class="domain"
     d="m 21.971713,190.15937 0,0.5 299.999997,0 0,-0.5"
     id="path8"
     inkscape:connector-curvature="0"
     style="font-size:medium;font-family:sans-serif;text-anchor:middle;fill:none;stroke:#000000" />
  <line
     style="font-size:medium;font-family:sans-serif;text-anchor:middle;fill:none;stroke:#000000"
     x2="21.971712"
     y1="190.15936"
     x1="21.971712"
     id="line12"
     y2="196.15936" />
  <g
     style="font-style:normal;font-variant:normal;font-weight:normal;font-stretch:normal;font-size:12.5px;line-height:125%;font-family:KaTeX_Main;-inkscape-font-specification:'KaTeX_Main, Normal';text-align:center;writing-mode:lr-tb;text-anchor:middle;fill:#000000"
     id="text14">
    <path
       d="m 13.77181,207.55178 0,-0.9125 3.325,0 0,0.9125 -3.325,0 z"
       style="font-style:normal;font-variant:normal;font-weight:normal;font-stretch:normal;font-size:12.5px;line-height:125%;font-family:KaTeX_Main;-inkscape-font-specification:'KaTeX_Main, Normal';text-align:center;writing-mode:lr-tb;text-anchor:middle;fill:#000000"
       id="path4712" />
    <path
       d="m 23.009114,209.78928 q -0.2125,-0.0375 -1.9875,-0.0375 -1.75,0 -1.9625,0.0375 l -0.15,0 0,-0.575 0.325,0 q 0.725,0 0.9375,-0.0375 0.1,-0.0125 0.3,-0.15 l 0,-6.4625 q -0.025,0 -0.1,0.0375 -0.575,0.225 -1.2875,0.2375 l -0.2375,0 0,-0.575 0.2375,0 q 1.05,-0.0375 1.75,-0.475 0.225,-0.125 0.3875,-0.2875 0.025,-0.0375 0.15,-0.0375 0.125,0 0.2125,0.075 l 0,3.7375 0.0125,3.75 q 0.1875,0.1875 0.8125,0.1875 l 0.4125,0 0.325,0 0,0.575 -0.1375,0 z"
       style="font-style:normal;font-variant:normal;font-weight:normal;font-stretch:normal;font-size:12.5px;line-height:125%;font-family:KaTeX_Main;-inkscape-font-specification:'KaTeX_Main, Normal';text-align:center;writing-mode:lr-tb;text-anchor:middle;fill:#000000"
       id="path4714" />
    <path
       d="m 25.259114,202.47678 q 0.7,-1.0125 1.9125,-1.0125 0.9125,0 1.6,0.625 0.3375,0.325 0.575,0.85 0.4625,1.0375 0.4625,2.85 0,1.9375 -0.5375,2.9625 -0.35,0.725 -1.025,1.05 -0.525,0.2625 -1.0625,0.2625 -1.4375,0 -2.1,-1.3125 -0.5375,-1.025 -0.5375,-2.9625 0,-1.1625 0.15,-1.9125 0.1625,-0.7625 0.5625,-1.4 z m 2.8125,-0.15 q -0.3625,-0.4 -0.8875,-0.4 -0.525,0 -0.9,0.4 -0.275,0.2875 -0.375,0.7 -0.1,0.4125 -0.125,1.425 0,0.075 -0.0125,0.4875 0,0.4125 0,0.6875 0,1.2 0.025,1.675 0.05,0.875 0.15,1.2625 0.1,0.375 0.375,0.65 0.3375,0.375 0.8625,0.375 0.5125,0 0.85,-0.375 0.275,-0.275 0.375,-0.65 0.1,-0.3875 0.15,-1.2625 0.025,-0.475 0.025,-1.675 0,-0.275 -0.0125,-0.6875 0,-0.4125 0,-0.4875 -0.025,-1.0125 -0.125,-1.425 -0.1,-0.4125 -0.375,-0.7 z"
       style="font-style:normal;font-variant:normal;font-weight:normal;font-stretch:normal;font-size:12.5px;line-height:125%;font-family:KaTeX_Main;-inkscape-font-specification:'KaTeX_Main, Normal';text-align:center;writing-mode:lr-tb;text-anchor:middle;fill:#000000"
       id="path4716" />
  </g>
  <line
     style="font-size:medium;font-family:sans-serif;text-anchor:middle;fill:none"
     id="line16"
     y2="340.15936"
     x2="21.971712"
     y1="40.15937"
     x1="21.971712"
     class="grid" />
  <line
     style="font-size:medium;font-family:sans-serif;text-anchor:middle;fill:none;stroke:#000000"
     x2="51.971714"
     y1="190.15936"
     x1="51.971714"
     id="line20"
     y2="196.15936" />
  <g
     style="font-style:normal;font-variant:normal;font-weight:normal;font-stretch:normal;font-size:12.5px;line-height:125%;font-family:KaTeX_Main;-inkscape-font-specification:'KaTeX_Main, Normal';text-align:center;writing-mode:lr-tb;text-anchor:middle;fill:#000000"
     id="text22">
    <path
       d="m 46.896812,207.55178 0,-0.9125 3.325,0 0,0.9125 -3.325,0 z"
       style="font-style:normal;font-variant:normal;font-weight:normal;font-stretch:normal;font-size:12.5px;line-height:125%;font-family:KaTeX_Main;-inkscape-font-specification:'KaTeX_Main, Normal';text-align:center;writing-mode:lr-tb;text-anchor:middle;fill:#000000"
       id="path4707" />
    <path
       d="m 53.084116,205.60178 q -0.6125,-0.4 -0.95,-0.8375 -0.325,-0.4375 -0.325,-1.15 0,-0.5375 0.2,-0.9 0.275,-0.5625 0.8,-0.9 0.5375,-0.35 1.225,-0.35 0.85,0 1.475,0.45 0.625,0.4375 0.775,1.1375 0.0125,0.075 0.0125,0.3 0,0.275 -0.025,0.375 -0.1875,0.825 -1.1375,1.425 l -0.15,0.1 q 0.7,0.475 0.725,0.5 0.9375,0.75 0.9375,1.8625 0,1.0125 -0.75,1.7375 -0.7375,0.7125 -1.85,0.7125 -1.5375,0 -2.2625,-1.125 -0.3125,-0.45 -0.3125,-1.0875 0,-1.3625 1.6125,-2.25 z m 2.4875,-2.225 q 0,-0.5375 -0.35,-0.9125 -0.35,-0.375 -0.85,-0.475 -0.0875,-0.0125 -0.4125,-0.0125 -0.6625,0 -1.1125,0.45 -0.3125,0.2875 -0.3125,0.6875 0,0.5375 0.45,0.85 0.0625,0.0625 0.8,0.525 l 0.725,0.475 q 0.0125,-0.0125 0.1625,-0.1 0.15,-0.1 0.225,-0.175 0.675,-0.5375 0.675,-1.3125 z m -3.3,4.45 q 0,0.7375 0.5375,1.225 0.5375,0.475 1.25,0.475 0.5125,0 0.925,-0.2125 0.425,-0.2125 0.6375,-0.55 0.2125,-0.325 0.2125,-0.6875 0,-0.5375 -0.4375,-0.95 -0.1,-0.1 -1.0375,-0.7125 -0.175,-0.1125 -0.3875,-0.2375 -0.2,-0.1375 -0.3125,-0.2125 l -0.1,-0.0625 -0.15,0.075 q -0.7875,0.5125 -1.0375,1.25 -0.1,0.325 -0.1,0.6 z"
       style="font-style:normal;font-variant:normal;font-weight:normal;font-stretch:normal;font-size:12.5px;line-height:125%;font-family:KaTeX_Main;-inkscape-font-specification:'KaTeX_Main, Normal';text-align:center;writing-mode:lr-tb;text-anchor:middle;fill:#000000"
       id="path4709" />
  </g>
  <line
     style="font-size:medium;font-family:sans-serif;text-anchor:middle;fill:none"
     id="line24"
     y2="340.15936"
     x2="51.971714"
     y1="40.15937"
     x1="51.971714"
     class="grid" />
  <line
     style="font-size:medium;font-family:sans-serif;text-anchor:middle;fill:none;stroke:#000000"
     x2="81.97171"
     y1="190.15936"
     x1="81.97171"
     id="line28"
     y2="196.15936" />
  <g
     style="font-style:normal;font-variant:normal;font-weight:normal;font-stretch:normal;font-size:12.5px;line-height:125%;font-family:KaTeX_Main;-inkscape-font-specification:'KaTeX_Main, Normal';text-align:center;writing-mode:lr-tb;text-anchor:middle;fill:#000000"
     id="text30">
    <path
       d="m 76.896815,207.55178 0,-0.9125 3.325,0 0,0.9125 -3.325,0 z"
       style="font-style:normal;font-variant:normal;font-weight:normal;font-stretch:normal;font-size:12.5px;line-height:125%;font-family:KaTeX_Main;-inkscape-font-specification:'KaTeX_Main, Normal';text-align:center;writing-mode:lr-tb;text-anchor:middle;fill:#000000"
       id="path4702" />
    <path
       d="m 85.59662,202.27678 q -0.275,-0.275 -0.775,-0.3125 -0.875,0 -1.4625,0.75 -0.5875,0.8125 -0.5875,2.525 l 0.0125,0.05 0.1,-0.1625 q 0.5125,-0.75 1.3875,-0.75 0.575,0 1.0125,0.2375 0.3,0.175 0.6,0.5125 0.3,0.325 0.4875,0.7 0.2625,0.6125 0.2625,1.3375 l 0,0.225 q 0,0.2875 -0.0625,0.5375 -0.15,0.7375 -0.775,1.3875 -0.5375,0.5625 -1.2,0.7 -0.2,0.05 -0.5,0.05 -0.2375,0 -0.425,-0.0375 -0.925,-0.175 -1.475,-1 -0.7375,-1.1625 -0.7375,-3.15 0,-1.35 0.475,-2.3625 0.475,-1.0125 1.325,-1.575 0.675,-0.475 1.4625,-0.475 0.725,0 1.1625,0.3875 0.45,0.3875 0.45,1.0625 0,0.3125 -0.1875,0.5 -0.175,0.1875 -0.475,0.1875 -0.3,0 -0.4875,-0.175 -0.175,-0.175 -0.175,-0.4875 0,-0.5625 0.5875,-0.6625 z m -0.55,3 q -0.35,-0.45 -0.9,-0.45 -0.4625,0 -0.75,0.2875 -0.6125,0.6125 -0.6125,1.975 0,1.1125 0.15,1.5375 0.125,0.375 0.425,0.6375 0.3,0.2625 0.7125,0.2625 0.6375,0 0.975,-0.475 0.1875,-0.2625 0.2375,-0.625 0.05,-0.3625 0.05,-1.05 l 0,-0.2 0,-0.2 q 0,-0.7125 -0.05,-1.075 -0.05,-0.3625 -0.2375,-0.625 z"
       style="font-style:normal;font-variant:normal;font-weight:normal;font-stretch:normal;font-size:12.5px;line-height:125%;font-family:KaTeX_Main;-inkscape-font-specification:'KaTeX_Main, Normal';text-align:center;writing-mode:lr-tb;text-anchor:middle;fill:#000000"
       id="path4704" />
  </g>
  <line
     style="font-size:medium;font-family:sans-serif;text-anchor:middle;fill:none"
     id="line32"
     y2="340.15936"
     x2="81.97171"
     y1="40.15937"
     x1="81.97171"
     class="grid" />
  <line
     style="font-size:medium;font-family:sans-serif;text-anchor:middle;fill:none;stroke:#000000"
     x2="111.97171"
     y1="190.15936"
     x1="111.97171"
     id="line36"
     y2="196.15936" />
  <g
     style="font-style:normal;font-variant:normal;font-weight:normal;font-stretch:normal;font-size:12.5px;line-height:125%;font-family:KaTeX_Main;-inkscape-font-specification:'KaTeX_Main, Normal';text-align:center;writing-mode:lr-tb;text-anchor:middle;fill:#000000"
     id="text38">
    <path
       d="m 106.89681,207.55178 0,-0.9125 3.325,0 0,0.9125 -3.325,0 z"
       style="font-style:normal;font-variant:normal;font-weight:normal;font-stretch:normal;font-size:12.5px;line-height:125%;font-family:KaTeX_Main;-inkscape-font-specification:'KaTeX_Main, Normal';text-align:center;writing-mode:lr-tb;text-anchor:middle;fill:#000000"
       id="path4697" />
    <path
       d="m 116.70911,209.78928 q -0.175,-0.0375 -1.6125,-0.0375 -1.5,0 -1.675,0.0375 l -0.1125,0 0,-0.575 0.3875,0 q 0.5375,-0.0125 0.6625,-0.0625 0.1,-0.025 0.15,-0.125 0.0125,-0.025 0.0125,-0.675 l 0,-0.625 -3.2375,0 0,-0.575 1.8875,-2.8875 q 1.9125,-2.9 1.9375,-2.9125 0.025,-0.025 0.2625,-0.025 l 0.225,0 0.075,0.075 0,5.75 1.15,0 0,0.575 -1.15,0 0,0.6375 q 0,0.5125 0,0.6 0.0125,0.0875 0.075,0.15 0.1,0.0875 0.7125,0.1 l 0.3625,0 0,0.575 -0.1125,0 z m -2.1125,-2.6375 0,-4.175 -2.7375,4.1625 1.3625,0.0125 1.375,0 z"
       style="font-style:normal;font-variant:normal;font-weight:normal;font-stretch:normal;font-size:12.5px;line-height:125%;font-family:KaTeX_Main;-inkscape-font-specification:'KaTeX_Main, Normal';text-align:center;writing-mode:lr-tb;text-anchor:middle;fill:#000000"
       id="path4699" />
  </g>
  <line
     style="font-size:medium;font-family:sans-serif;text-anchor:middle;fill:none"
     id="line40"
     y2="340.15936"
     x2="111.97171"
     y1="40.15937"
     x1="111.97171"
     class="grid" />
  <line
     style="font-size:medium;font-family:sans-serif;text-anchor:middle;fill:none;stroke:#000000"
     x2="141.97171"
     y1="190.15936"
     x1="141.97171"
     id="line44"
     y2="196.15936" />
  <g
     style="font-style:normal;font-variant:normal;font-weight:normal;font-stretch:normal;font-size:12.5px;line-height:125%;font-family:KaTeX_Main;-inkscape-font-specification:'KaTeX_Main, Normal';text-align:center;writing-mode:lr-tb;text-anchor:middle;fill:#000000"
     id="text46">
    <path
       d="m 136.89681,207.55178 0,-0.9125 3.325,0 0,0.9125 -3.325,0 z"
       style="font-style:normal;font-variant:normal;font-weight:normal;font-stretch:normal;font-size:12.5px;line-height:125%;font-family:KaTeX_Main;-inkscape-font-specification:'KaTeX_Main, Normal';text-align:center;writing-mode:lr-tb;text-anchor:middle;fill:#000000"
       id="path4692" />
    <path
       d="m 142.30911,204.42678 q -0.35,0 -0.55,-0.225 -0.2,-0.225 -0.2,-0.55 0,-0.9 0.675,-1.5375 0.6875,-0.65 1.6375,-0.65 1.075,0 1.775,0.5875 0.7125,0.575 0.875,1.5125 0.025,0.225 0.025,0.4125 0,0.725 -0.4375,1.3625 -0.35,0.525 -1.4125,1.4375 -0.45,0.3875 -1.25,1.15 l -0.7375,0.7 0.95,0.0125 q 1.9625,0 2.0875,-0.0625 0.05,-0.0125 0.125,-0.2625 0.05,-0.1375 0.175,-0.85 l 0,-0.0375 0.5,0 0,0.0375 -0.35,2.2875 0,0.0375 -4.6375,0 0,-0.2375 q 0,-0.25 0.025,-0.2875 0.0125,-0.0125 1.05,-1.1875 1.3625,-1.5125 1.75,-2 0.8375,-1.1375 0.8375,-2.0875 0,-0.825 -0.4375,-1.375 -0.425,-0.5625 -1.2,-0.5625 -0.725,0 -1.175,0.65 -0.025,0.05 -0.075,0.1375 -0.0375,0.0625 -0.0375,0.075 0,0.0125 0.0625,0.0125 0.3125,0 0.5,0.225 0.2,0.225 0.2,0.525 0,0.3125 -0.2125,0.5375 -0.2,0.2125 -0.5375,0.2125 z"
       style="font-style:normal;font-variant:normal;font-weight:normal;font-stretch:normal;font-size:12.5px;line-height:125%;font-family:KaTeX_Main;-inkscape-font-specification:'KaTeX_Main, Normal';text-align:center;writing-mode:lr-tb;text-anchor:middle;fill:#000000"
       id="path4694" />
  </g>
  <line
     style="font-size:medium;font-family:sans-serif;text-anchor:middle;fill:none"
     id="line48"
     y2="340.15936"
     x2="141.97171"
     y1="40.15937"
     x1="141.97171"
     class="grid" />
  <line
     style="font-size:medium;font-family:sans-serif;text-anchor:middle;fill:none;stroke:#000000"
     x2="171.97171"
     y1="190.15936"
     x1="171.97171"
     id="line52"
     y2="196.15936" />
  <line
     style="font-size:medium;font-family:sans-serif;text-anchor:middle;fill:none"
     id="line54"
     y2="340.15936"
     x2="171.97171"
     y1="40.15937"
     x1="171.97171"
     class="grid" />
  <line
     style="font-size:medium;font-family:sans-serif;text-anchor:middle;fill:none;stroke:#000000"
     x2="201.97171"
     y1="190.15936"
     x1="201.97171"
     id="line58"
     y2="196.15936" />
  <g
     style="font-style:normal;font-variant:normal;font-weight:normal;font-stretch:normal;font-size:12.5px;line-height:125%;font-family:KaTeX_Main;-inkscape-font-specification:'KaTeX_Main, Normal';text-align:center;writing-mode:lr-tb;text-anchor:middle;fill:#000000"
     id="text60">
    <path
       d="m 200.22171,204.42678 q -0.35,0 -0.55,-0.225 -0.2,-0.225 -0.2,-0.55 0,-0.9 0.675,-1.5375 0.6875,-0.65 1.6375,-0.65 1.075,0 1.775,0.5875 0.7125,0.575 0.875,1.5125 0.025,0.225 0.025,0.4125 0,0.725 -0.4375,1.3625 -0.35,0.525 -1.4125,1.4375 -0.45,0.3875 -1.25,1.15 l -0.7375,0.7 0.95,0.0125 q 1.9625,0 2.0875,-0.0625 0.05,-0.0125 0.125,-0.2625 0.05,-0.1375 0.175,-0.85 l 0,-0.0375 0.5,0 0,0.0375 -0.35,2.2875 0,0.0375 -4.6375,0 0,-0.2375 q 0,-0.25 0.025,-0.2875 0.0125,-0.0125 1.05,-1.1875 1.3625,-1.5125 1.75,-2 0.8375,-1.1375 0.8375,-2.0875 0,-0.825 -0.4375,-1.375 -0.425,-0.5625 -1.2,-0.5625 -0.725,0 -1.175,0.65 -0.025,0.05 -0.075,0.1375 -0.0375,0.0625 -0.0375,0.075 0,0.0125 0.0625,0.0125 0.3125,0 0.5,0.225 0.2,0.225 0.2,0.525 0,0.3125 -0.2125,0.5375 -0.2,0.2125 -0.5375,0.2125 z"
       style="font-style:normal;font-variant:normal;font-weight:normal;font-stretch:normal;font-size:12.5px;line-height:125%;font-family:KaTeX_Main;-inkscape-font-specification:'KaTeX_Main, Normal';text-align:center;writing-mode:lr-tb;text-anchor:middle;fill:#000000"
       id="path4689" />
  </g>
  <line
     style="font-size:medium;font-family:sans-serif;text-anchor:middle;fill:none"
     id="line62"
     y2="340.15936"
     x2="201.97171"
     y1="40.15937"
     x1="201.97171"
     class="grid" />
  <line
     style="font-size:medium;font-family:sans-serif;text-anchor:middle;fill:none;stroke:#000000"
     x2="231.97171"
     y1="190.15936"
     x1="231.97171"
     id="line66"
     y2="196.15936" />
  <g
     style="font-style:normal;font-variant:normal;font-weight:normal;font-stretch:normal;font-size:12.5px;line-height:125%;font-family:KaTeX_Main;-inkscape-font-specification:'KaTeX_Main, Normal';text-align:center;writing-mode:lr-tb;text-anchor:middle;fill:#000000"
     id="text68">
    <path
       d="m 234.62171,209.78928 q -0.175,-0.0375 -1.6125,-0.0375 -1.5,0 -1.675,0.0375 l -0.1125,0 0,-0.575 0.3875,0 q 0.5375,-0.0125 0.6625,-0.0625 0.1,-0.025 0.15,-0.125 0.0125,-0.025 0.0125,-0.675 l 0,-0.625 -3.2375,0 0,-0.575 1.8875,-2.8875 q 1.9125,-2.9 1.9375,-2.9125 0.025,-0.025 0.2625,-0.025 l 0.225,0 0.075,0.075 0,5.75 1.15,0 0,0.575 -1.15,0 0,0.6375 q 0,0.5125 0,0.6 0.0125,0.0875 0.075,0.15 0.1,0.0875 0.7125,0.1 l 0.3625,0 0,0.575 -0.1125,0 z m -2.1125,-2.6375 0,-4.175 -2.7375,4.1625 1.3625,0.0125 1.375,0 z"
       style="font-style:normal;font-variant:normal;font-weight:normal;font-stretch:normal;font-size:12.5px;line-height:125%;font-family:KaTeX_Main;-inkscape-font-specification:'KaTeX_Main, Normal';text-align:center;writing-mode:lr-tb;text-anchor:middle;fill:#000000"
       id="path4686" />
  </g>
  <line
     style="font-size:medium;font-family:sans-serif;text-anchor:middle;fill:none"
     id="line70"
     y2="340.15936"
     x2="231.97171"
     y1="40.15937"
     x1="231.97171"
     class="grid" />
  <line
     style="font-size:medium;font-family:sans-serif;text-anchor:middle;fill:none;stroke:#000000"
     x2="261.97171"
     y1="190.15936"
     x1="261.97171"
     id="line74"
     y2="196.15936" />
  <g
     style="font-style:normal;font-variant:normal;font-weight:normal;font-stretch:normal;font-size:12.5px;line-height:125%;font-family:KaTeX_Main;-inkscape-font-specification:'KaTeX_Main, Normal';text-align:center;writing-mode:lr-tb;text-anchor:middle;fill:#000000"
     id="text76">
    <path
       d="m 263.50921,202.27678 q -0.275,-0.275 -0.775,-0.3125 -0.875,0 -1.4625,0.75 -0.5875,0.8125 -0.5875,2.525 l 0.0125,0.05 0.1,-0.1625 q 0.5125,-0.75 1.3875,-0.75 0.575,0 1.0125,0.2375 0.3,0.175 0.6,0.5125 0.3,0.325 0.4875,0.7 0.2625,0.6125 0.2625,1.3375 l 0,0.225 q 0,0.2875 -0.0625,0.5375 -0.15,0.7375 -0.775,1.3875 -0.5375,0.5625 -1.2,0.7 -0.2,0.05 -0.5,0.05 -0.2375,0 -0.425,-0.0375 -0.925,-0.175 -1.475,-1 -0.7375,-1.1625 -0.7375,-3.15 0,-1.35 0.475,-2.3625 0.475,-1.0125 1.325,-1.575 0.675,-0.475 1.4625,-0.475 0.725,0 1.1625,0.3875 0.45,0.3875 0.45,1.0625 0,0.3125 -0.1875,0.5 -0.175,0.1875 -0.475,0.1875 -0.3,0 -0.4875,-0.175 -0.175,-0.175 -0.175,-0.4875 0,-0.5625 0.5875,-0.6625 z m -0.55,3 q -0.35,-0.45 -0.9,-0.45 -0.4625,0 -0.75,0.2875 -0.6125,0.6125 -0.6125,1.975 0,1.1125 0.15,1.5375 0.125,0.375 0.425,0.6375 0.3,0.2625 0.7125,0.2625 0.6375,0 0.975,-0.475 0.1875,-0.2625 0.2375,-0.625 0.05,-0.3625 0.05,-1.05 l 0,-0.2 0,-0.2 q 0,-0.7125 -0.05,-1.075 -0.05,-0.3625 -0.2375,-0.625 z"
       style="font-style:normal;font-variant:normal;font-weight:normal;font-stretch:normal;font-size:12.5px;line-height:125%;font-family:KaTeX_Main;-inkscape-font-specification:'KaTeX_Main, Normal';text-align:center;writing-mode:lr-tb;text-anchor:middle;fill:#000000"
       id="path4683" />
  </g>
  <line
     style="font-size:medium;font-family:sans-serif;text-anchor:middle;fill:none"
     id="line78"
     y2="340.15936"
     x2="261.97171"
     y1="40.15937"
     x1="261.97171"
     class="grid" />
  <line
     style="font-size:medium;font-family:sans-serif;text-anchor:middle;fill:none;stroke:#000000"
     x2="291.97171"
     y1="190.15936"
     x1="291.97171"
     id="line82"
     y2="196.15936" />
  <g
     style="font-style:normal;font-variant:normal;font-weight:normal;font-stretch:normal;font-size:12.5px;line-height:125%;font-family:KaTeX_Main;-inkscape-font-specification:'KaTeX_Main, Normal';text-align:center;writing-mode:lr-tb;text-anchor:middle;fill:#000000"
     id="text84">
    <path
       d="m 290.99671,205.60178 q -0.6125,-0.4 -0.95,-0.8375 -0.325,-0.4375 -0.325,-1.15 0,-0.5375 0.2,-0.9 0.275,-0.5625 0.8,-0.9 0.5375,-0.35 1.225,-0.35 0.85,0 1.475,0.45 0.625,0.4375 0.775,1.1375 0.0125,0.075 0.0125,0.3 0,0.275 -0.025,0.375 -0.1875,0.825 -1.1375,1.425 l -0.15,0.1 q 0.7,0.475 0.725,0.5 0.9375,0.75 0.9375,1.8625 0,1.0125 -0.75,1.7375 -0.7375,0.7125 -1.85,0.7125 -1.5375,0 -2.2625,-1.125 -0.3125,-0.45 -0.3125,-1.0875 0,-1.3625 1.6125,-2.25 z m 2.4875,-2.225 q 0,-0.5375 -0.35,-0.9125 -0.35,-0.375 -0.85,-0.475 -0.0875,-0.0125 -0.4125,-0.0125 -0.6625,0 -1.1125,0.45 -0.3125,0.2875 -0.3125,0.6875 0,0.5375 0.45,0.85 0.0625,0.0625 0.8,0.525 l 0.725,0.475 q 0.0125,-0.0125 0.1625,-0.1 0.15,-0.1 0.225,-0.175 0.675,-0.5375 0.675,-1.3125 z m -3.3,4.45 q 0,0.7375 0.5375,1.225 0.5375,0.475 1.25,0.475 0.5125,0 0.925,-0.2125 0.425,-0.2125 0.6375,-0.55 0.2125,-0.325 0.2125,-0.6875 0,-0.5375 -0.4375,-0.95 -0.1,-0.1 -1.0375,-0.7125 -0.175,-0.1125 -0.3875,-0.2375 -0.2,-0.1375 -0.3125,-0.2125 l -0.1,-0.0625 -0.15,0.075 q -0.7875,0.5125 -1.0375,1.25 -0.1,0.325 -0.1,0.6 z"
       style="font-style:normal;font-variant:normal;font-weight:normal;font-stretch:normal;font-size:12.5px;line-height:125%;font-family:KaTeX_Main;-inkscape-font-specification:'KaTeX_Main, Normal';text-align:center;writing-mode:lr-tb;text-anchor:middle;fill:#000000"
       id="path4680" />
  </g>
  <line
     style="font-size:medium;font-family:sans-serif;text-anchor:middle;fill:none"
     id="line86"
     y2="340.15936"
     x2="291.97171"
     y1="40.15937"
     x1="291.97171"
     class="grid" />
  <line
     style="font-size:medium;font-family:sans-serif;text-anchor:middle;fill:none;stroke:#000000"
     x2="321.97171"
     y1="190.15936"
     x1="321.97171"
     id="line90"
     y2="196.15936" />
  <g
     style="font-style:normal;font-variant:normal;font-weight:normal;font-stretch:normal;font-size:12.5px;line-height:125%;font-family:KaTeX_Main;-inkscape-font-specification:'KaTeX_Main, Normal';text-align:center;writing-mode:lr-tb;text-anchor:middle;fill:#000000"
     id="text92">
    <path
       d="m 320.92171,209.78928 q -0.2125,-0.0375 -1.9875,-0.0375 -1.75,0 -1.9625,0.0375 l -0.15,0 0,-0.575 0.325,0 q 0.725,0 0.9375,-0.0375 0.1,-0.0125 0.3,-0.15 l 0,-6.4625 q -0.025,0 -0.1,0.0375 -0.575,0.225 -1.2875,0.2375 l -0.2375,0 0,-0.575 0.2375,0 q 1.05,-0.0375 1.75,-0.475 0.225,-0.125 0.3875,-0.2875 0.025,-0.0375 0.15,-0.0375 0.125,0 0.2125,0.075 l 0,3.7375 0.0125,3.75 q 0.1875,0.1875 0.8125,0.1875 l 0.4125,0 0.325,0 0,0.575 -0.1375,0 z"
       style="font-style:normal;font-variant:normal;font-weight:normal;font-stretch:normal;font-size:12.5px;line-height:125%;font-family:KaTeX_Main;-inkscape-font-specification:'KaTeX_Main, Normal';text-align:center;writing-mode:lr-tb;text-anchor:middle;fill:#000000"
       id="path4675" />
    <path
       d="m 323.17171,202.47678 q 0.7,-1.0125 1.9125,-1.0125 0.9125,0 1.6,0.625 0.3375,0.325 0.575,0.85 0.4625,1.0375 0.4625,2.85 0,1.9375 -0.5375,2.9625 -0.35,0.725 -1.025,1.05 -0.525,0.2625 -1.0625,0.2625 -1.4375,0 -2.1,-1.3125 -0.5375,-1.025 -0.5375,-2.9625 0,-1.1625 0.15,-1.9125 0.1625,-0.7625 0.5625,-1.4 z m 2.8125,-0.15 q -0.3625,-0.4 -0.8875,-0.4 -0.525,0 -0.9,0.4 -0.275,0.2875 -0.375,0.7 -0.1,0.4125 -0.125,1.425 0,0.075 -0.0125,0.4875 0,0.4125 0,0.6875 0,1.2 0.025,1.675 0.05,0.875 0.15,1.2625 0.1,0.375 0.375,0.65 0.3375,0.375 0.8625,0.375 0.5125,0 0.85,-0.375 0.275,-0.275 0.375,-0.65 0.1,-0.3875 0.15,-1.2625 0.025,-0.475 0.025,-1.675 0,-0.275 -0.0125,-0.6875 0,-0.4125 0,-0.4875 -0.025,-1.0125 -0.125,-1.425 -0.1,-0.4125 -0.375,-0.7 z"
       style="font-style:normal;font-variant:normal;font-weight:normal;font-stretch:normal;font-size:12.5px;line-height:125%;font-family:KaTeX_Main;-inkscape-font-specification:'KaTeX_Main, Normal';text-align:center;writing-mode:lr-tb;text-anchor:middle;fill:#000000"
       id="path4677" />
  </g>
  <line
     style="font-size:medium;font-family:sans-serif;text-anchor:middle;fill:none"
     id="line94"
     y2="340.15936"
     x2="321.97171"
     y1="40.15937"
     x1="321.97171"
     class="grid" />
  <g
     style="font-style:normal;font-variant:normal;font-weight:normal;font-stretch:normal;font-size:22.5px;line-height:125%;font-family:KaTeX_Math;-inkscape-font-specification:'KaTeX_Math, Normal';text-align:center;writing-mode:lr-tb;text-anchor:middle;fill:#000000"
     id="text96">
    <path
       d="m 341.14185,187.44767 q -0.135,-0.135 -0.135,-0.2475 0.09,-0.6075 0.6975,-1.5525 1.0575,-1.5975 2.655,-1.845 0.315,-0.045 0.4725,-0.045 0.7875,0 1.44,0.405 0.675,0.405 0.9675,1.0125 0.2925,-0.3825 0.36,-0.4725 0.8325,-0.945 1.9125,-0.945 0.9225,0 1.485,0.54 0.585,0.5175 0.585,1.2825 0,0.6975 -0.405,1.17 -0.3825,0.4725 -1.035,0.4725 -0.4275,0 -0.6975,-0.2475 -0.27,-0.2475 -0.27,-0.6525 0,-1.035 1.125,-1.4175 0,-0.0225 -0.2475,-0.1575 -0.225,-0.135 -0.6525,-0.135 -0.2925,0 -0.4275,0.045 -0.855,0.36 -1.26,1.485 -0.0675,0.18 -0.6525,2.52 -0.585,2.3175 -0.63,2.61 -0.0675,0.3375 -0.0675,0.675 0,0.54 0.315,0.855 0.315,0.315 0.8325,0.315 0.945,0 1.71,-0.7875 0.765,-0.81 1.035,-1.7775 0.0675,-0.225 0.135,-0.2475 0.0675,-0.045 0.36,-0.045 0.4275,0 0.4275,0.18 0,0.0225 -0.045,0.2475 -0.3825,1.395 -1.575,2.43 -1.0575,0.8325 -2.2275,0.8325 -1.575,0 -2.385,-1.4175 -0.6525,1.0125 -1.665,1.35 -0.2025,0.045 -0.585,0.045 -1.305,0 -1.845,-0.9225 -0.225,-0.3825 -0.225,-0.9 0,-0.675 0.405,-1.1475 0.405,-0.4725 1.035,-0.4725 0.9675,0 0.9675,0.945 0,0.8325 -0.7875,1.215 -0.045,0.0225 -0.1125,0.0675 -0.0675,0.0225 -0.1125,0.045 -0.045,0.0225 -0.0675,0.0225 l -0.0675,0.0225 q 0,0.0675 0.3375,0.2025 0.27,0.1125 0.585,0.1125 0.81,0 1.395,-1.0125 0.2475,-0.405 0.8775,-2.925 0.135,-0.5175 0.2925,-1.1475 0.1575,-0.63 0.225,-0.9675 0.09,-0.3375 0.1125,-0.405 0.1125,-0.6075 0.1125,-0.8775 0,-0.54 -0.2925,-0.855 -0.2925,-0.315 -0.81,-0.315 -1.0125,0 -1.755,0.7875 -0.7425,0.765 -1.035,1.7775 -0.045,0.2025 -0.1125,0.2475 -0.045,0.0225 -0.36,0.0225 l -0.315,0 z"
       style="font-style:normal;font-variant:normal;font-weight:normal;font-stretch:normal;font-size:22.5px;line-height:125%;font-family:KaTeX_Math;-inkscape-font-specification:'KaTeX_Math, Normal';text-align:center;writing-mode:lr-tb;text-anchor:middle;fill:#000000"
       id="path4672" />
  </g>
  <path
     class="domain"
     d="m 171.47171,340.65937 0.5,0 0,-300 -0.5,0"
     id="path100"
     inkscape:connector-curvature="0"
     style="font-size:medium;font-family:sans-serif;text-anchor:end;fill:none;stroke:#000000" />
  <line
     style="font-size:medium;font-family:sans-serif;text-anchor:end;fill:none;stroke:#000000"
     y2="340.65936"
     y1="340.65936"
     x1="171.47171"
     id="line104"
     x2="165.47171" />
  <g
     style="font-style:normal;font-variant:normal;font-weight:normal;font-stretch:normal;font-size:12.5px;line-height:125%;font-family:KaTeX_Main;-inkscape-font-specification:'KaTeX_Main, Normal';text-align:center;writing-mode:lr-tb;text-anchor:middle;fill:#000000"
     id="text106">
    <path
       d="m 145.0978,341.96517 0,-0.9125 3.325,0 0,0.9125 -3.325,0 z"
       style="font-style:normal;font-variant:normal;font-weight:normal;font-stretch:normal;font-size:12.5px;line-height:125%;font-family:KaTeX_Main;-inkscape-font-specification:'KaTeX_Main, Normal';text-align:center;writing-mode:lr-tb;text-anchor:middle;fill:#000000"
       id="path4665" />
    <path
       d="m 154.3351,344.20267 q -0.2125,-0.0375 -1.9875,-0.0375 -1.75,0 -1.9625,0.0375 l -0.15,0 0,-0.575 0.325,0 q 0.725,0 0.9375,-0.0375 0.1,-0.0125 0.3,-0.15 l 0,-6.4625 q -0.025,0 -0.1,0.0375 -0.575,0.225 -1.2875,0.2375 l -0.2375,0 0,-0.575 0.2375,0 q 1.05,-0.0375 1.75,-0.475 0.225,-0.125 0.3875,-0.2875 0.025,-0.0375 0.15,-0.0375 0.125,0 0.2125,0.075 l 0,3.7375 0.0125,3.75 q 0.1875,0.1875 0.8125,0.1875 l 0.4125,0 0.325,0 0,0.575 -0.1375,0 z"
       style="font-style:normal;font-variant:normal;font-weight:normal;font-stretch:normal;font-size:12.5px;line-height:125%;font-family:KaTeX_Main;-inkscape-font-specification:'KaTeX_Main, Normal';text-align:center;writing-mode:lr-tb;text-anchor:middle;fill:#000000"
       id="path4667" />
    <path
       d="m 156.5851,336.89017 q 0.7,-1.0125 1.9125,-1.0125 0.9125,0 1.6,0.625 0.3375,0.325 0.575,0.85 0.4625,1.0375 0.4625,2.85 0,1.9375 -0.5375,2.9625 -0.35,0.725 -1.025,1.05 -0.525,0.2625 -1.0625,0.2625 -1.4375,0 -2.1,-1.3125 -0.5375,-1.025 -0.5375,-2.9625 0,-1.1625 0.15,-1.9125 0.1625,-0.7625 0.5625,-1.4 z m 2.8125,-0.15 q -0.3625,-0.4 -0.8875,-0.4 -0.525,0 -0.9,0.4 -0.275,0.2875 -0.375,0.7 -0.1,0.4125 -0.125,1.425 0,0.075 -0.0125,0.4875 0,0.4125 0,0.6875 0,1.2 0.025,1.675 0.05,0.875 0.15,1.2625 0.1,0.375 0.375,0.65 0.3375,0.375 0.8625,0.375 0.5125,0 0.85,-0.375 0.275,-0.275 0.375,-0.65 0.1,-0.3875 0.15,-1.2625 0.025,-0.475 0.025,-1.675 0,-0.275 -0.0125,-0.6875 0,-0.4125 0,-0.4875 -0.025,-1.0125 -0.125,-1.425 -0.1,-0.4125 -0.375,-0.7 z"
       style="font-style:normal;font-variant:normal;font-weight:normal;font-stretch:normal;font-size:12.5px;line-height:125%;font-family:KaTeX_Main;-inkscape-font-specification:'KaTeX_Main, Normal';text-align:center;writing-mode:lr-tb;text-anchor:middle;fill:#000000"
       id="path4669" />
  </g>
  <line
     style="font-size:medium;font-family:sans-serif;text-anchor:end;fill:none"
     id="line108"
     y2="340.65936"
     x2="321.47171"
     y1="340.65936"
     x1="21.471712"
     class="grid" />
  <line
     style="font-size:medium;font-family:sans-serif;text-anchor:end;fill:none;stroke:#000000"
     y2="310.65936"
     y1="310.65936"
     x1="171.47171"
     id="line112"
     x2="165.47171" />
  <g
     style="font-style:normal;font-variant:normal;font-weight:normal;font-stretch:normal;font-size:12.5px;line-height:125%;font-family:KaTeX_Main;-inkscape-font-specification:'KaTeX_Main, Normal';text-align:center;writing-mode:lr-tb;text-anchor:middle;fill:#000000"
     id="text114">
    <path
       d="m 151.3853,311.96517 0,-0.9125 3.325,0 0,0.9125 -3.325,0 z"
       style="font-style:normal;font-variant:normal;font-weight:normal;font-stretch:normal;font-size:12.5px;line-height:125%;font-family:KaTeX_Main;-inkscape-font-specification:'KaTeX_Main, Normal';text-align:center;writing-mode:lr-tb;text-anchor:middle;fill:#000000"
       id="path4660" />
    <path
       d="m 157.57261,310.01517 q -0.6125,-0.4 -0.95,-0.8375 -0.325,-0.4375 -0.325,-1.15 0,-0.5375 0.2,-0.9 0.275,-0.5625 0.8,-0.9 0.5375,-0.35 1.225,-0.35 0.85,0 1.475,0.45 0.625,0.4375 0.775,1.1375 0.0125,0.075 0.0125,0.3 0,0.275 -0.025,0.375 -0.1875,0.825 -1.1375,1.425 l -0.15,0.1 q 0.7,0.475 0.725,0.5 0.9375,0.75 0.9375,1.8625 0,1.0125 -0.75,1.7375 -0.7375,0.7125 -1.85,0.7125 -1.5375,0 -2.2625,-1.125 -0.3125,-0.45 -0.3125,-1.0875 0,-1.3625 1.6125,-2.25 z m 2.4875,-2.225 q 0,-0.5375 -0.35,-0.9125 -0.35,-0.375 -0.85,-0.475 -0.0875,-0.0125 -0.4125,-0.0125 -0.6625,0 -1.1125,0.45 -0.3125,0.2875 -0.3125,0.6875 0,0.5375 0.45,0.85 0.0625,0.0625 0.8,0.525 l 0.725,0.475 q 0.0125,-0.0125 0.1625,-0.1 0.15,-0.1 0.225,-0.175 0.675,-0.5375 0.675,-1.3125 z m -3.3,4.45 q 0,0.7375 0.5375,1.225 0.5375,0.475 1.25,0.475 0.5125,0 0.925,-0.2125 0.425,-0.2125 0.6375,-0.55 0.2125,-0.325 0.2125,-0.6875 0,-0.5375 -0.4375,-0.95 -0.1,-0.1 -1.0375,-0.7125 -0.175,-0.1125 -0.3875,-0.2375 -0.2,-0.1375 -0.3125,-0.2125 l -0.1,-0.0625 -0.15,0.075 q -0.7875,0.5125 -1.0375,1.25 -0.1,0.325 -0.1,0.6 z"
       style="font-style:normal;font-variant:normal;font-weight:normal;font-stretch:normal;font-size:12.5px;line-height:125%;font-family:KaTeX_Main;-inkscape-font-specification:'KaTeX_Main, Normal';text-align:center;writing-mode:lr-tb;text-anchor:middle;fill:#000000"
       id="path4662" />
  </g>
  <line
     style="font-size:medium;font-family:sans-serif;text-anchor:end;fill:none"
     id="line116"
     y2="310.65936"
     x2="321.47171"
     y1="310.65936"
     x1="21.471712"
     class="grid" />
  <line
     style="font-size:medium;font-family:sans-serif;text-anchor:end;fill:none;stroke:#000000"
     y2="280.65936"
     y1="280.65936"
     x1="171.47171"
     id="line120"
     x2="165.47171" />
  <g
     style="font-style:normal;font-variant:normal;font-weight:normal;font-stretch:normal;font-size:12.5px;line-height:125%;font-family:KaTeX_Main;-inkscape-font-specification:'KaTeX_Main, Normal';text-align:center;writing-mode:lr-tb;text-anchor:middle;fill:#000000"
     id="text122">
    <path
       d="m 151.3978,281.96517 0,-0.9125 3.325,0 0,0.9125 -3.325,0 z"
       style="font-style:normal;font-variant:normal;font-weight:normal;font-stretch:normal;font-size:12.5px;line-height:125%;font-family:KaTeX_Main;-inkscape-font-specification:'KaTeX_Main, Normal';text-align:center;writing-mode:lr-tb;text-anchor:middle;fill:#000000"
       id="path4655" />
    <path
       d="m 160.0976,276.69017 q -0.275,-0.275 -0.775,-0.3125 -0.875,0 -1.4625,0.75 -0.5875,0.8125 -0.5875,2.525 l 0.0125,0.05 0.1,-0.1625 q 0.5125,-0.75 1.3875,-0.75 0.575,0 1.0125,0.2375 0.3,0.175 0.6,0.5125 0.3,0.325 0.4875,0.7 0.2625,0.6125 0.2625,1.3375 l 0,0.225 q 0,0.2875 -0.0625,0.5375 -0.15,0.7375 -0.775,1.3875 -0.5375,0.5625 -1.2,0.7 -0.2,0.05 -0.5,0.05 -0.2375,0 -0.425,-0.0375 -0.925,-0.175 -1.475,-1 -0.7375,-1.1625 -0.7375,-3.15 0,-1.35 0.475,-2.3625 0.475,-1.0125 1.325,-1.575 0.675,-0.475 1.4625,-0.475 0.725,0 1.1625,0.3875 0.45,0.3875 0.45,1.0625 0,0.3125 -0.1875,0.5 -0.175,0.1875 -0.475,0.1875 -0.3,0 -0.4875,-0.175 -0.175,-0.175 -0.175,-0.4875 0,-0.5625 0.5875,-0.6625 z m -0.55,3 q -0.35,-0.45 -0.9,-0.45 -0.4625,0 -0.75,0.2875 -0.6125,0.6125 -0.6125,1.975 0,1.1125 0.15,1.5375 0.125,0.375 0.425,0.6375 0.3,0.2625 0.7125,0.2625 0.6375,0 0.975,-0.475 0.1875,-0.2625 0.2375,-0.625 0.05,-0.3625 0.05,-1.05 l 0,-0.2 0,-0.2 q 0,-0.7125 -0.05,-1.075 -0.05,-0.3625 -0.2375,-0.625 z"
       style="font-style:normal;font-variant:normal;font-weight:normal;font-stretch:normal;font-size:12.5px;line-height:125%;font-family:KaTeX_Main;-inkscape-font-specification:'KaTeX_Main, Normal';text-align:center;writing-mode:lr-tb;text-anchor:middle;fill:#000000"
       id="path4657" />
  </g>
  <line
     style="font-size:medium;font-family:sans-serif;text-anchor:end;fill:none"
     id="line124"
     y2="280.65936"
     x2="321.47171"
     y1="280.65936"
     x1="21.471712"
     class="grid" />
  <line
     style="font-size:medium;font-family:sans-serif;text-anchor:end;fill:none;stroke:#000000"
     y2="250.65936"
     y1="250.65936"
     x1="171.47171"
     id="line128"
     x2="165.47171" />
  <g
     style="font-style:normal;font-variant:normal;font-weight:normal;font-stretch:normal;font-size:12.5px;line-height:125%;font-family:KaTeX_Main;-inkscape-font-specification:'KaTeX_Main, Normal';text-align:center;writing-mode:lr-tb;text-anchor:middle;fill:#000000"
     id="text130">
    <path
       d="m 151.2103,251.96517 0,-0.9125 3.325,0 0,0.9125 -3.325,0 z"
       style="font-style:normal;font-variant:normal;font-weight:normal;font-stretch:normal;font-size:12.5px;line-height:125%;font-family:KaTeX_Main;-inkscape-font-specification:'KaTeX_Main, Normal';text-align:center;writing-mode:lr-tb;text-anchor:middle;fill:#000000"
       id="path4650" />
    <path
       d="m 161.0226,254.20267 q -0.175,-0.0375 -1.6125,-0.0375 -1.5,0 -1.675,0.0375 l -0.1125,0 0,-0.575 0.3875,0 q 0.5375,-0.0125 0.6625,-0.0625 0.1,-0.025 0.15,-0.125 0.0125,-0.025 0.0125,-0.675 l 0,-0.625 -3.2375,0 0,-0.575 1.8875,-2.8875 q 1.9125,-2.9 1.9375,-2.9125 0.025,-0.025 0.2625,-0.025 l 0.225,0 0.075,0.075 0,5.75 1.15,0 0,0.575 -1.15,0 0,0.6375 q 0,0.5125 0,0.6 0.0125,0.0875 0.075,0.15 0.1,0.0875 0.7125,0.1 l 0.3625,0 0,0.575 -0.1125,0 z m -2.1125,-2.6375 0,-4.175 -2.7375,4.1625 1.3625,0.0125 1.375,0 z"
       style="font-style:normal;font-variant:normal;font-weight:normal;font-stretch:normal;font-size:12.5px;line-height:125%;font-family:KaTeX_Main;-inkscape-font-specification:'KaTeX_Main, Normal';text-align:center;writing-mode:lr-tb;text-anchor:middle;fill:#000000"
       id="path4652" />
  </g>
  <line
     style="font-size:medium;font-family:sans-serif;text-anchor:end;fill:none"
     id="line132"
     y2="250.65936"
     x2="321.47171"
     y1="250.65936"
     x1="21.471712"
     class="grid" />
  <line
     style="font-size:medium;font-family:sans-serif;text-anchor:end;fill:none;stroke:#000000"
     y2="220.65936"
     y1="220.65936"
     x1="171.47171"
     id="line136"
     x2="165.47171" />
  <g
     style="font-style:normal;font-variant:normal;font-weight:normal;font-stretch:normal;font-size:12.5px;line-height:125%;font-family:KaTeX_Main;-inkscape-font-specification:'KaTeX_Main, Normal';text-align:center;writing-mode:lr-tb;text-anchor:middle;fill:#000000"
     id="text138">
    <path
       d="m 151.48529,221.96517 0,-0.9125 3.325,0 0,0.9125 -3.325,0 z"
       style="font-style:normal;font-variant:normal;font-weight:normal;font-stretch:normal;font-size:12.5px;line-height:125%;font-family:KaTeX_Main;-inkscape-font-specification:'KaTeX_Main, Normal';text-align:center;writing-mode:lr-tb;text-anchor:middle;fill:#000000"
       id="path4645" />
    <path
       d="m 156.8976,218.84017 q -0.35,0 -0.55,-0.225 -0.2,-0.225 -0.2,-0.55 0,-0.9 0.675,-1.5375 0.6875,-0.65 1.6375,-0.65 1.075,0 1.775,0.5875 0.7125,0.575 0.875,1.5125 0.025,0.225 0.025,0.4125 0,0.725 -0.4375,1.3625 -0.35,0.525 -1.4125,1.4375 -0.45,0.3875 -1.25,1.15 l -0.7375,0.7 0.95,0.0125 q 1.9625,0 2.0875,-0.0625 0.05,-0.0125 0.125,-0.2625 0.05,-0.1375 0.175,-0.85 l 0,-0.0375 0.5,0 0,0.0375 -0.35,2.2875 0,0.0375 -4.6375,0 0,-0.2375 q 0,-0.25 0.025,-0.2875 0.0125,-0.0125 1.05,-1.1875 1.3625,-1.5125 1.75,-2 0.8375,-1.1375 0.8375,-2.0875 0,-0.825 -0.4375,-1.375 -0.425,-0.5625 -1.2,-0.5625 -0.725,0 -1.175,0.65 -0.025,0.05 -0.075,0.1375 -0.0375,0.0625 -0.0375,0.075 0,0.0125 0.0625,0.0125 0.3125,0 0.5,0.225 0.2,0.225 0.2,0.525 0,0.3125 -0.2125,0.5375 -0.2,0.2125 -0.5375,0.2125 z"
       style="font-style:normal;font-variant:normal;font-weight:normal;font-stretch:normal;font-size:12.5px;line-height:125%;font-family:KaTeX_Main;-inkscape-font-specification:'KaTeX_Main, Normal';text-align:center;writing-mode:lr-tb;text-anchor:middle;fill:#000000"
       id="path4647" />
  </g>
  <line
     style="font-size:medium;font-family:sans-serif;text-anchor:end;fill:none"
     id="line140"
     y2="220.65936"
     x2="321.47171"
     y1="220.65936"
     x1="21.471712"
     class="grid" />
  <line
     style="font-size:medium;font-family:sans-serif;text-anchor:end;fill:none;stroke:#000000"
     y2="190.65936"
     y1="190.65936"
     x1="171.47171"
     id="line144"
     x2="165.47171" />
  <line
     style="font-size:medium;font-family:sans-serif;text-anchor:end;fill:none"
     id="line146"
     y2="190.65936"
     x2="321.47171"
     y1="190.65936"
     x1="21.471712"
     class="grid" />
  <line
     style="font-size:medium;font-family:sans-serif;text-anchor:end;fill:none;stroke:#000000"
     y2="160.65936"
     y1="160.65936"
     x1="171.47171"
     id="line150"
     x2="165.47171" />
  <g
     style="font-style:normal;font-variant:normal;font-weight:normal;font-stretch:normal;font-size:12.5px;line-height:125%;font-family:KaTeX_Main;-inkscape-font-specification:'KaTeX_Main, Normal';text-align:center;writing-mode:lr-tb;text-anchor:middle;fill:#000000"
     id="text152">
    <path
       d="m 156.8976,158.84017 q -0.35,0 -0.55,-0.225 -0.2,-0.225 -0.2,-0.55 0,-0.9 0.675,-1.5375 0.6875,-0.65 1.6375,-0.65 1.075,0 1.775,0.5875 0.7125,0.575 0.875,1.5125 0.025,0.225 0.025,0.4125 0,0.725 -0.4375,1.3625 -0.35,0.525 -1.4125,1.4375 -0.45,0.3875 -1.25,1.15 l -0.7375,0.7 0.95,0.0125 q 1.9625,0 2.0875,-0.0625 0.05,-0.0125 0.125,-0.2625 0.05,-0.1375 0.175,-0.85 l 0,-0.0375 0.5,0 0,0.0375 -0.35,2.2875 0,0.0375 -4.6375,0 0,-0.2375 q 0,-0.25 0.025,-0.2875 0.0125,-0.0125 1.05,-1.1875 1.3625,-1.5125 1.75,-2 0.8375,-1.1375 0.8375,-2.0875 0,-0.825 -0.4375,-1.375 -0.425,-0.5625 -1.2,-0.5625 -0.725,0 -1.175,0.65 -0.025,0.05 -0.075,0.1375 -0.0375,0.0625 -0.0375,0.075 0,0.0125 0.0625,0.0125 0.3125,0 0.5,0.225 0.2,0.225 0.2,0.525 0,0.3125 -0.2125,0.5375 -0.2,0.2125 -0.5375,0.2125 z"
       style="font-style:normal;font-variant:normal;font-weight:normal;font-stretch:normal;font-size:12.5px;line-height:125%;font-family:KaTeX_Main;-inkscape-font-specification:'KaTeX_Main, Normal';text-align:center;writing-mode:lr-tb;text-anchor:middle;fill:#000000"
       id="path4642" />
  </g>
  <line
     style="font-size:medium;font-family:sans-serif;text-anchor:end;fill:none"
     id="line154"
     y2="160.65936"
     x2="321.47171"
     y1="160.65936"
     x1="21.471712"
     class="grid" />
  <line
     style="font-size:medium;font-family:sans-serif;text-anchor:end;fill:none;stroke:#000000"
     y2="130.65936"
     y1="130.65936"
     x1="171.47171"
     id="line158"
     x2="165.47171" />
  <g
     style="font-style:normal;font-variant:normal;font-weight:normal;font-stretch:normal;font-size:12.5px;line-height:125%;font-family:KaTeX_Main;-inkscape-font-specification:'KaTeX_Main, Normal';text-align:center;writing-mode:lr-tb;text-anchor:middle;fill:#000000"
     id="text160">
    <path
       d="m 161.0226,134.20267 q -0.175,-0.0375 -1.6125,-0.0375 -1.5,0 -1.675,0.0375 l -0.1125,0 0,-0.575 0.3875,0 q 0.5375,-0.0125 0.6625,-0.0625 0.1,-0.025 0.15,-0.125 0.0125,-0.025 0.0125,-0.675 l 0,-0.625 -3.2375,0 0,-0.575 1.8875,-2.8875 q 1.9125,-2.9 1.9375,-2.9125 0.025,-0.025 0.2625,-0.025 l 0.225,0 0.075,0.075 0,5.75 1.15,0 0,0.575 -1.15,0 0,0.6375 q 0,0.5125 0,0.6 0.0125,0.0875 0.075,0.15 0.1,0.0875 0.7125,0.1 l 0.3625,0 0,0.575 -0.1125,0 z m -2.1125,-2.6375 0,-4.175 -2.7375,4.1625 1.3625,0.0125 1.375,0 z"
       style="font-style:normal;font-variant:normal;font-weight:normal;font-stretch:normal;font-size:12.5px;line-height:125%;font-family:KaTeX_Main;-inkscape-font-specification:'KaTeX_Main, Normal';text-align:center;writing-mode:lr-tb;text-anchor:middle;fill:#000000"
       id="path4639" />
  </g>
  <line
     style="font-size:medium;font-family:sans-serif;text-anchor:end;fill:none"
     id="line162"
     y2="130.65936"
     x2="321.47171"
     y1="130.65936"
     x1="21.471712"
     class="grid" />
  <line
     style="font-size:medium;font-family:sans-serif;text-anchor:end;fill:none;stroke:#000000"
     y2="100.65937"
     y1="100.65937"
     x1="171.47171"
     id="line166"
     x2="165.47171" />
  <g
     style="font-style:normal;font-variant:normal;font-weight:normal;font-stretch:normal;font-size:12.5px;line-height:125%;font-family:KaTeX_Main;-inkscape-font-specification:'KaTeX_Main, Normal';text-align:center;writing-mode:lr-tb;text-anchor:middle;fill:#000000"
     id="text168">
    <path
       d="m 160.0976,96.690167 q -0.275,-0.275 -0.775,-0.3125 -0.875,0 -1.4625,0.75 -0.5875,0.8125 -0.5875,2.525 l 0.0125,0.05 0.1,-0.1625 q 0.5125,-0.75 1.3875,-0.75 0.575,0 1.0125,0.2375 0.3,0.175 0.6,0.5125 0.3,0.325 0.4875,0.700003 0.2625,0.6125 0.2625,1.3375 l 0,0.225 q 0,0.2875 -0.0625,0.5375 -0.15,0.7375 -0.775,1.3875 -0.5375,0.5625 -1.2,0.7 -0.2,0.05 -0.5,0.05 -0.2375,0 -0.425,-0.0375 -0.925,-0.175 -1.475,-1 -0.7375,-1.1625 -0.7375,-3.15 0,-1.350003 0.475,-2.362503 0.475,-1.0125 1.325,-1.575 0.675,-0.475 1.4625,-0.475 0.725,0 1.1625,0.3875 0.45,0.3875 0.45,1.0625 0,0.3125 -0.1875,0.5 -0.175,0.1875 -0.475,0.1875 -0.3,0 -0.4875,-0.175 -0.175,-0.175 -0.175,-0.4875 0,-0.5625 0.5875,-0.6625 z m -0.55,3 q -0.35,-0.45 -0.9,-0.45 -0.4625,0 -0.75,0.2875 -0.6125,0.612503 -0.6125,1.975003 0,1.1125 0.15,1.5375 0.125,0.375 0.425,0.6375 0.3,0.2625 0.7125,0.2625 0.6375,0 0.975,-0.475 0.1875,-0.2625 0.2375,-0.625 0.05,-0.3625 0.05,-1.05 l 0,-0.2 0,-0.2 q 0,-0.7125 -0.05,-1.075 -0.05,-0.362503 -0.2375,-0.625003 z"
       style="font-style:normal;font-variant:normal;font-weight:normal;font-stretch:normal;font-size:12.5px;line-height:125%;font-family:KaTeX_Main;-inkscape-font-specification:'KaTeX_Main, Normal';text-align:center;writing-mode:lr-tb;text-anchor:middle;fill:#000000"
       id="path4636" />
  </g>
  <line
     style="font-size:medium;font-family:sans-serif;text-anchor:end;fill:none"
     id="line170"
     y2="100.65937"
     x2="321.47171"
     y1="100.65937"
     x1="21.471712"
     class="grid" />
  <line
     style="font-size:medium;font-family:sans-serif;text-anchor:end;fill:none;stroke:#000000"
     y2="70.65937"
     y1="70.65937"
     x1="171.47171"
     id="line174"
     x2="165.47171" />
  <g
     style="font-style:normal;font-variant:normal;font-weight:normal;font-stretch:normal;font-size:12.5px;line-height:125%;font-family:KaTeX_Main;-inkscape-font-specification:'KaTeX_Main, Normal';text-align:center;writing-mode:lr-tb;text-anchor:middle;fill:#000000"
     id="text176">
    <path
       d="m 157.57261,70.015175 q -0.6125,-0.4 -0.95,-0.8375 -0.325,-0.4375 -0.325,-1.15 0,-0.5375 0.2,-0.9 0.275,-0.5625 0.8,-0.9 0.5375,-0.35 1.225,-0.35 0.85,0 1.475,0.45 0.625,0.4375 0.775,1.1375 0.0125,0.075 0.0125,0.3 0,0.275 -0.025,0.375 -0.1875,0.825 -1.1375,1.425 l -0.15,0.1 q 0.7,0.475 0.725,0.5 0.9375,0.75 0.9375,1.8625 0,1.0125 -0.75,1.7375 -0.7375,0.7125 -1.85,0.7125 -1.5375,0 -2.2625,-1.125 -0.3125,-0.45 -0.3125,-1.0875 0,-1.3625 1.6125,-2.25 z m 2.4875,-2.225 q 0,-0.5375 -0.35,-0.9125 -0.35,-0.375 -0.85,-0.475 -0.0875,-0.0125 -0.4125,-0.0125 -0.6625,0 -1.1125,0.45 -0.3125,0.2875 -0.3125,0.6875 0,0.5375 0.45,0.85 0.0625,0.0625 0.8,0.525 l 0.725,0.475 q 0.0125,-0.0125 0.1625,-0.1 0.15,-0.1 0.225,-0.175 0.675,-0.5375 0.675,-1.3125 z m -3.3,4.45 q 0,0.7375 0.5375,1.225 0.5375,0.475 1.25,0.475 0.5125,0 0.925,-0.2125 0.425,-0.2125 0.6375,-0.55 0.2125,-0.325 0.2125,-0.6875 0,-0.5375 -0.4375,-0.95 -0.1,-0.1 -1.0375,-0.7125 -0.175,-0.1125 -0.3875,-0.2375 -0.2,-0.1375 -0.3125,-0.2125 l -0.1,-0.0625 -0.15,0.075 q -0.7875,0.5125 -1.0375,1.25 -0.1,0.325 -0.1,0.6 z"
       style="font-style:normal;font-variant:normal;font-weight:normal;font-stretch:normal;font-size:12.5px;line-height:125%;font-family:KaTeX_Main;-inkscape-font-specification:'KaTeX_Main, Normal';text-align:center;writing-mode:lr-tb;text-anchor:middle;fill:#000000"
       id="path4633" />
  </g>
  <line
     style="font-size:medium;font-family:sans-serif;text-anchor:end;fill:none"
     id="line178"
     y2="70.65937"
     x2="321.47171"
     y1="70.65937"
     x1="21.471712"
     class="grid" />
  <line
     style="font-size:medium;font-family:sans-serif;text-anchor:end;fill:none;stroke:#000000"
     y2="40.65937"
     y1="40.65937"
     x1="171.47171"
     id="line182"
     x2="165.47171" />
  <g
     style="font-style:normal;font-variant:normal;font-weight:normal;font-stretch:normal;font-size:12.5px;line-height:125%;font-family:KaTeX_Main;-inkscape-font-specification:'KaTeX_Main, Normal';text-align:center;writing-mode:lr-tb;text-anchor:middle;fill:#000000"
     id="text184">
    <path
       d="m 154.3351,44.202679 q -0.2125,-0.0375 -1.9875,-0.0375 -1.75,0 -1.9625,0.0375 l -0.15,0 0,-0.575 0.325,0 q 0.725,0 0.9375,-0.0375 0.1,-0.0125 0.3,-0.15 l 0,-6.4625 q -0.025,0 -0.1,0.0375 -0.575,0.225 -1.2875,0.2375 l -0.2375,0 0,-0.575 0.2375,0 q 1.05,-0.0375 1.75,-0.475 0.225,-0.125 0.3875,-0.2875 0.025,-0.0375 0.15,-0.0375 0.125,0 0.2125,0.075 l 0,3.7375 0.0125,3.75 q 0.1875,0.1875 0.8125,0.1875 l 0.4125,0 0.325,0 0,0.575 -0.1375,0 z"
       style="font-style:normal;font-variant:normal;font-weight:normal;font-stretch:normal;font-size:12.5px;line-height:125%;font-family:KaTeX_Main;-inkscape-font-specification:'KaTeX_Main, Normal';text-align:center;writing-mode:lr-tb;text-anchor:middle;fill:#000000"
       id="path4628" />
    <path
       d="m 156.5851,36.890179 q 0.7,-1.0125 1.9125,-1.0125 0.9125,0 1.6,0.625 0.3375,0.325 0.575,0.85 0.4625,1.0375 0.4625,2.85 0,1.9375 -0.5375,2.9625 -0.35,0.725 -1.025,1.05 -0.525,0.2625 -1.0625,0.2625 -1.4375,0 -2.1,-1.3125 -0.5375,-1.025 -0.5375,-2.9625 0,-1.1625 0.15,-1.9125 0.1625,-0.7625 0.5625,-1.4 z m 2.8125,-0.15 q -0.3625,-0.4 -0.8875,-0.4 -0.525,0 -0.9,0.4 -0.275,0.2875 -0.375,0.7 -0.1,0.4125 -0.125,1.425 0,0.075 -0.0125,0.4875 0,0.4125 0,0.6875 0,1.2 0.025,1.675 0.05,0.875 0.15,1.2625 0.1,0.375 0.375,0.65 0.3375,0.375 0.8625,0.375 0.5125,0 0.85,-0.375 0.275,-0.275 0.375,-0.65 0.1,-0.3875 0.15,-1.2625 0.025,-0.475 0.025,-1.675 0,-0.275 -0.0125,-0.6875 0,-0.4125 0,-0.4875 -0.025,-1.0125 -0.125,-1.425 -0.1,-0.4125 -0.375,-0.7 z"
       style="font-style:normal;font-variant:normal;font-weight:normal;font-stretch:normal;font-size:12.5px;line-height:125%;font-family:KaTeX_Main;-inkscape-font-specification:'KaTeX_Main, Normal';text-align:center;writing-mode:lr-tb;text-anchor:middle;fill:#000000"
       id="path4630" />
  </g>
  <line
     style="font-size:medium;font-family:sans-serif;text-anchor:end;fill:none"
     id="line186"
     y2="40.65937"
     x2="321.47171"
     y1="40.65937"
     x1="21.471712"
     class="grid" />
  <g
     style="font-style:normal;font-variant:normal;font-weight:normal;font-stretch:normal;font-size:22.5px;line-height:125%;font-family:KaTeX_Math;-inkscape-font-specification:'KaTeX_Math, Normal';text-align:center;writing-mode:lr-tb;text-anchor:middle;fill:#000000"
     id="text188">
    <path
       d="m 152.84122,30.717754 q 0.6075,0.135 0.6525,0.135 0.5175,0 0.9,-0.945 0.27,-0.7425 1.6425,-8.01 0.63,-3.3975 0.6525,-3.42 l 0,-0.0675 -1.0575,0 q -1.0575,0 -1.125,-0.045 -0.1575,-0.09 -0.045,-0.495 0.09,-0.3375 0.1125,-0.36 0.045,-0.1125 0.18,-0.1125 0.1575,-0.0225 1.0575,-0.0225 1.08,0 1.08,-0.0225 0,-0.045 0.2025,-1.125 0.2025,-1.08 0.27,-1.305 0.4725,-2.1375 1.4175,-2.97 0.9,-0.7425 1.8675,-0.7425 0.81,0.045 1.35,0.495 0.5625,0.45 0.5625,1.1925 0,0.6525 -0.405,1.1025 -0.405,0.45 -1.0125,0.45 -0.99,0 -0.99,-0.945 0,-0.8325 0.7875,-1.215 l 0.2025,-0.1125 q -0.405,-0.135 -0.675,-0.135 -0.6525,0 -0.855,0.855 -0.18,0.675 -0.585,2.9475 l -0.2925,1.485 q 0,0.045 1.2375,0.045 1.0125,0 1.215,0.0225 0.2025,0.0225 0.2025,0.1575 0,0.2475 -0.1575,0.72 -0.045,0.1125 -0.225,0.135 -0.1575,0 -1.1925,0 l -1.26,0 -0.5175,2.745 q -0.8325,4.2975 -1.035,5.1975 -0.765,3.3975 -2.0475,4.6125 -0.8325,0.72 -1.6425,0.72 -0.81,0 -1.35,-0.45 -0.54,-0.45 -0.54,-1.1925 0,-0.675 0.405,-1.1475 0.405,-0.45 1.0125,-0.45 0.99,0 0.99,0.945 0,0.8325 -0.7875,1.215 l -0.2025,0.1125 z"
       style="font-style:normal;font-variant:normal;font-weight:normal;font-stretch:normal;font-size:22.5px;line-height:125%;font-family:KaTeX_Math;-inkscape-font-specification:'KaTeX_Math, Normal';text-align:center;writing-mode:lr-tb;text-anchor:middle;fill:#000000"
       id="path4619" />
    <path
       d="m 168.19281,10 q -1.47217,2.526855 -2.18628,4.998779 -0.71411,2.471924 -0.71411,5.009766 0,2.537842 0.71411,5.031738 0.7251,2.48291 2.18628,4.998779 l -1.75781,0 q -1.64795,-2.581787 -2.47193,-5.075683 -0.81298,-2.493897 -0.81298,-4.954834 0,-2.449951 0.81298,-4.932861 Q 164.77606,12.592773 166.435,10 l 1.75781,0 z"
       style="font-style:normal;font-variant:normal;font-weight:normal;font-stretch:normal;font-size:22.5px;line-height:125%;font-family:KaTeX_Math;-inkscape-font-specification:'KaTeX_Math, Normal';text-align:center;writing-mode:lr-tb;text-anchor:middle;fill:#000000"
       id="path4621" />
    <path
       d="m 171.31055,20.817754 q -0.135,-0.135 -0.135,-0.2475 0.09,-0.6075 0.6975,-1.5525 1.0575,-1.5975 2.655,-1.845 0.315,-0.045 0.4725,-0.045 0.7875,0 1.44,0.405 0.675,0.405 0.9675,1.0125 0.2925,-0.3825 0.36,-0.4725 0.8325,-0.945 1.9125,-0.945 0.9225,0 1.485,0.54 0.585,0.5175 0.585,1.2825 0,0.6975 -0.405,1.17 -0.3825,0.4725 -1.035,0.4725 -0.4275,0 -0.6975,-0.2475 -0.27,-0.2475 -0.27,-0.6525 0,-1.035 1.125,-1.4175 0,-0.0225 -0.2475,-0.1575 -0.225,-0.135 -0.6525,-0.135 -0.2925,0 -0.4275,0.045 -0.855,0.36 -1.26,1.485 -0.0675,0.18 -0.6525,2.52 -0.585,2.3175 -0.63,2.61 -0.0675,0.3375 -0.0675,0.675 0,0.54 0.315,0.855 0.315,0.315 0.8325,0.315 0.945,0 1.71,-0.7875 0.765,-0.81 1.035,-1.7775 0.0675,-0.225 0.135,-0.2475 0.0675,-0.045 0.36,-0.045 0.4275,0 0.4275,0.18 0,0.0225 -0.045,0.2475 -0.3825,1.395 -1.575,2.43 -1.0575,0.8325 -2.2275,0.8325 -1.575,0 -2.385,-1.4175 -0.6525,1.0125 -1.665,1.35 -0.2025,0.045 -0.585,0.045 -1.305,0 -1.845,-0.9225 -0.225,-0.3825 -0.225,-0.9 0,-0.675 0.405,-1.1475 0.405,-0.4725 1.035,-0.4725 0.9675,0 0.9675,0.945 0,0.8325 -0.7875,1.215 -0.045,0.0225 -0.1125,0.0675 -0.0675,0.0225 -0.1125,0.045 -0.045,0.0225 -0.0675,0.0225 l -0.0675,0.0225 q 0,0.0675 0.3375,0.2025 0.27,0.1125 0.585,0.1125 0.81,0 1.395,-1.0125 0.2475,-0.405 0.8775,-2.925 0.135,-0.5175 0.2925,-1.1475 0.1575,-0.63 0.225,-0.9675 0.09,-0.3375 0.1125,-0.405 0.1125,-0.6075 0.1125,-0.8775 0,-0.54 -0.2925,-0.855 -0.2925,-0.315 -0.81,-0.315 -1.0125,0 -1.755,0.7875 -0.7425,0.765 -1.035,1.7775 -0.045,0.2025 -0.1125,0.2475 -0.045,0.0225 -0.36,0.0225 l -0.315,0 z"
       style="font-style:normal;font-variant:normal;font-weight:normal;font-stretch:normal;font-size:22.5px;line-height:125%;font-family:KaTeX_Math;-inkscape-font-specification:'KaTeX_Math, Normal';text-align:center;writing-mode:lr-tb;text-anchor:middle;fill:#000000"
       id="path4623" />
    <path
       d="m 184.68329,10 1.75781,0 q 1.64795,2.592773 2.46094,5.075684 0.82397,2.48291 0.82397,4.932861 0,2.460937 -0.82397,4.954834 -0.81299,2.493896 -2.46094,5.075683 l -1.75781,0 q 1.46118,-2.515869 2.17529,-4.998779 0.7251,-2.493896 0.7251,-5.031738 0,-2.537842 -0.7251,-5.009766 Q 186.14447,12.526855 184.68329,10 Z"
       style="font-style:normal;font-variant:normal;font-weight:normal;font-stretch:normal;font-size:22.5px;line-height:125%;font-family:KaTeX_Math;-inkscape-font-specification:'KaTeX_Math, Normal';text-align:center;writing-mode:lr-tb;text-anchor:middle;fill:#000000"
       id="path4625" />
  </g>
  <path
     inkscape:connector-curvature="0"
     id="path190"
     style="fill:none;stroke:#1fab54;stroke-width:4px"
     d="m 21.471713,96.40937 3,3.7125 3,3.6375 3,3.5625 3,3.4875 3,3.4125 3,3.3375 3,3.2625 3,3.1875 3,3.1125 3,3.0375 3,2.9625 3,2.8875 3,2.8125 3,2.7375 3,2.6625 3,2.5875 3,2.5125 3,2.4375 3,2.3625 3,2.2875 3,2.2125 3,2.1375 3,2.0625 3,1.9875 3,1.9125 3,1.8375 2.999997,1.7625 3,1.6875 3,1.6125 3,1.5375 3,1.4625 3,1.3875 3,1.3125 3,1.2375 3,1.1625 3,1.0875 3,1.0125 3,0.9375 3,0.8625 3,0.7875 3,0.7125 3,0.6375 3,0.5625 3,0.4875 3,0.4125 3,0.3375 3,0.2625 3,0.1875 3,0.1125 3,0.0375 3,-0.0375 3,-0.1125 3,-0.1875 3,-0.2625 3,-0.3375 3,-0.4125 3,-0.4875 3,-0.5625 3,-0.6375 3,-0.7125 3,-0.7875 3,-0.8625 3,-0.9375 3,-1.0125 3,-1.0875 3,-1.1625 3,-1.2375 3,-1.3125 3,-1.3875 3,-1.4625 3,-1.5375 3,-1.6125 3,-1.6875 3,-1.7625 3,-1.8375 3,-1.9125 3,-1.9875 3,-2.0625 3,-2.1375 3,-2.2125 3,-2.2875 3,-2.3625 3,-2.4375 3,-2.5125 3,-2.5875 3,-2.6625 3,-2.7375 3,-2.8125 3,-2.8875 3,-2.9625 3,-3.0375 3,-3.1125 3,-3.1875 3,-3.2625 3,-3.3375 3,-3.4125 3,-3.4875 3,-3.5625 3,-3.6375 3,-3.7125"
     class="path" />
  <circle
     id="circle192"
     style="fill:#1fab54"
     r="5"
     cy="175.15936"
     cx="231.47171" />
  <circle
     id="circle194"
     style="fill:#ffa500"
     r="5"
     cy="130.15936"
     cx="291.47171" />
  <circle
     id="circle196"
     style="fill:#ffa500"
     r="5"
     cy="160.15936"
     cx="291.47171" />
  <g
     style="font-style:normal;font-variant:normal;font-weight:normal;font-stretch:normal;font-size:22.5px;line-height:125%;font-family:KaTeX_Math;-inkscape-font-specification:'KaTeX_Math, Normal';text-align:center;writing-mode:lr-tb;text-anchor:middle;fill:#1fab54"
     id="text198">
    <path
       d="m 11.417497,88.410663 q 0.6075,0.135 0.6525,0.135 0.5175,0 0.9,-0.945 0.27,-0.7425 1.6425,-8.01 0.63,-3.3975 0.6525,-3.42 l 0,-0.0675 -1.0575,0 q -1.0575,0 -1.125,-0.045 -0.1575,-0.09 -0.045,-0.495 0.09,-0.3375 0.1125,-0.36 0.045,-0.1125 0.18,-0.1125 0.1575,-0.0225 1.0575,-0.0225 1.08,0 1.08,-0.0225 0,-0.045 0.2025,-1.125 0.2025,-1.08 0.27,-1.305 0.4725,-2.1375 1.4175,-2.97 0.9,-0.7425 1.8675,-0.7425 0.81,0.045 1.35,0.495 0.5625,0.45 0.5625,1.1925 0,0.6525 -0.405,1.1025 -0.405,0.45 -1.0125,0.45 -0.99,0 -0.99,-0.945 0,-0.8325 0.7875,-1.215 l 0.2025,-0.1125 q -0.405,-0.135 -0.675,-0.135 -0.6525,0 -0.855,0.855 -0.18,0.675 -0.585,2.9475 l -0.2925,1.485 q 0,0.045 1.2375,0.045 1.0125,0 1.215,0.0225 0.2025,0.0225 0.2025,0.1575 0,0.2475 -0.1575,0.72 -0.045,0.1125 -0.225,0.135 -0.1575,0 -1.1925,0 l -1.26,0 -0.5175,2.745 q -0.8325,4.2975 -1.035,5.1975 -0.765,3.3975 -2.0475,4.6125 -0.8325,0.72 -1.6425,0.72 -0.81,0 -1.35,-0.45 -0.5399998,-0.45 -0.5399998,-1.1925 0,-0.675 0.4049998,-1.1475 0.405,-0.45 1.0125,-0.45 0.99,0 0.99,0.945 0,0.8325 -0.7875,1.215 l -0.2025,0.1125 z"
       style="font-style:normal;font-variant:normal;font-weight:normal;font-stretch:normal;font-size:22.5px;line-height:125%;font-family:KaTeX_Math;-inkscape-font-specification:'KaTeX_Math, Normal';text-align:center;writing-mode:lr-tb;text-anchor:middle;fill:#1fab54"
       id="path4598" />
    <path
       d="m 26.769089,67.692909 q -1.472168,2.526856 -2.186279,4.99878 -0.714112,2.471923 -0.714112,5.009765 0,2.537842 0.714112,5.031738 0.725097,2.482911 2.186279,4.99878 l -1.757813,0 q -1.647949,-2.581787 -2.471923,-5.075684 -0.812989,-2.493896 -0.812989,-4.954834 0,-2.449951 0.812989,-4.932861 0.812988,-2.48291 2.471923,-5.075684 l 1.757813,0 z"
       style="font-style:normal;font-variant:normal;font-weight:normal;font-stretch:normal;font-size:22.5px;line-height:125%;font-family:KaTeX_Math;-inkscape-font-specification:'KaTeX_Math, Normal';text-align:center;writing-mode:lr-tb;text-anchor:middle;fill:#1fab54"
       id="path4600" />
    <path
       d="m 29.886833,78.510663 q -0.135,-0.135 -0.135,-0.2475 0.09,-0.6075 0.6975,-1.5525 1.0575,-1.5975 2.655,-1.845 0.315,-0.045 0.4725,-0.045 0.7875,0 1.44,0.405 0.675,0.405 0.9675,1.0125 0.2925,-0.3825 0.36,-0.4725 0.8325,-0.945 1.9125,-0.945 0.9225,0 1.485,0.54 0.585,0.5175 0.585,1.2825 0,0.6975 -0.405,1.17 -0.3825,0.4725 -1.035,0.4725 -0.4275,0 -0.6975,-0.2475 -0.27,-0.2475 -0.27,-0.6525 0,-1.035 1.125,-1.4175 0,-0.0225 -0.2475,-0.1575 -0.225,-0.135 -0.6525,-0.135 -0.2925,0 -0.4275,0.045 -0.855,0.36 -1.26,1.485 -0.0675,0.18 -0.6525,2.52 -0.585,2.3175 -0.63,2.61 -0.0675,0.3375 -0.0675,0.675 0,0.54 0.315,0.855 0.315,0.315 0.8325,0.315 0.945,0 1.71,-0.7875 0.765,-0.81 1.035,-1.7775 0.0675,-0.225 0.135,-0.2475 0.0675,-0.045 0.36,-0.045 0.4275,0 0.4275,0.18 0,0.0225 -0.045,0.2475 -0.3825,1.395 -1.575,2.43 -1.0575,0.8325 -2.2275,0.8325 -1.575,0 -2.385,-1.4175 -0.6525,1.0125 -1.665,1.35 -0.2025,0.045 -0.585,0.045 -1.305,0 -1.845,-0.9225 -0.225,-0.3825 -0.225,-0.9 0,-0.675 0.405,-1.1475 0.405,-0.4725 1.035,-0.4725 0.9675,0 0.9675,0.945 0,0.8325 -0.7875,1.215 -0.045,0.0225 -0.1125,0.0675 -0.0675,0.0225 -0.1125,0.045 -0.045,0.0225 -0.0675,0.0225 l -0.0675,0.0225 q 0,0.0675 0.3375,0.2025 0.27,0.1125 0.585,0.1125 0.81,0 1.395,-1.0125 0.2475,-0.405 0.8775,-2.925 0.135,-0.5175 0.2925,-1.1475 0.1575,-0.63 0.225,-0.9675 0.09,-0.3375 0.1125,-0.405 0.1125,-0.6075 0.1125,-0.8775 0,-0.54 -0.2925,-0.855 -0.2925,-0.315 -0.81,-0.315 -1.0125,0 -1.755,0.7875 -0.7425,0.765 -1.035,1.7775 -0.045,0.2025 -0.1125,0.2475 -0.045,0.0225 -0.36,0.0225 l -0.315,0 z"
       style="font-style:normal;font-variant:normal;font-weight:normal;font-stretch:normal;font-size:22.5px;line-height:125%;font-family:KaTeX_Math;-inkscape-font-specification:'KaTeX_Math, Normal';text-align:center;writing-mode:lr-tb;text-anchor:middle;fill:#1fab54"
       id="path4602" />
    <path
       d="m 43.259567,67.692909 1.757813,0 q 1.647949,2.592774 2.460937,5.075684 0.823975,2.48291 0.823975,4.932861 0,2.460938 -0.823975,4.954834 -0.812988,2.493897 -2.460937,5.075684 l -1.757813,0 q 1.461182,-2.515869 2.175293,-4.99878 0.725098,-2.493896 0.725098,-5.031738 0,-2.537842 -0.725098,-5.009765 -0.714111,-2.471924 -2.175293,-4.99878 z"
       style="font-style:normal;font-variant:normal;font-weight:normal;font-stretch:normal;font-size:22.5px;line-height:125%;font-family:KaTeX_Math;-inkscape-font-specification:'KaTeX_Math, Normal';text-align:center;writing-mode:lr-tb;text-anchor:middle;fill:#1fab54"
       id="path4604" />
    <path
       d="m 58.669958,76.958163 q 0,-0.2925 0.315,-0.45 l 14.3325,0 q 0.3375,0.1575 0.3375,0.45 0,0.2475 -0.315,0.4275 l -7.155,0.0225 -7.155,0 q -0.36,-0.1125 -0.36,-0.45 z m 0,4.365 q 0,-0.3375 0.36,-0.45 l 14.31,0 q 0.0225,0.0225 0.09,0.09 0.09,0.045 0.1125,0.09 0.045,0.0225 0.0675,0.1125 0.045,0.0675 0.045,0.1575 0,0.2925 -0.3375,0.45 l -14.3325,0 q -0.315,-0.1575 -0.315,-0.45 z"
       style="font-style:normal;font-variant:normal;font-weight:normal;font-stretch:normal;font-size:22.5px;line-height:125%;font-family:KaTeX_Main;-inkscape-font-specification:'KaTeX_Main, Normal';text-align:center;writing-mode:lr-tb;text-anchor:middle"
       id="path4606" />
    <path
       d="m 81.874138,78.510663 q -0.135,-0.135 -0.135,-0.2475 0.09,-0.6075 0.6975,-1.5525 1.0575,-1.5975 2.655,-1.845 0.315,-0.045 0.4725,-0.045 0.7875,0 1.44,0.405 0.675,0.405 0.9675,1.0125 0.2925,-0.3825 0.36,-0.4725 0.8325,-0.945 1.9125,-0.945 0.9225,0 1.485,0.54 0.585,0.5175 0.585,1.2825 0,0.6975 -0.405,1.17 -0.3825,0.4725 -1.035,0.4725 -0.4275,0 -0.6975,-0.2475 -0.27,-0.2475 -0.27,-0.6525 0,-1.035 1.125,-1.4175 0,-0.0225 -0.2475,-0.1575 -0.225,-0.135 -0.6525,-0.135 -0.2925,0 -0.4275,0.045 -0.855,0.36 -1.26,1.485 -0.0675,0.18 -0.6525,2.52 -0.585,2.3175 -0.63,2.61 -0.0675,0.3375 -0.0675,0.675 0,0.54 0.315,0.855 0.315,0.315 0.8325,0.315 0.945,0 1.71,-0.7875 0.765,-0.81 1.035,-1.7775 0.0675,-0.225 0.135,-0.2475 0.0675,-0.045 0.36,-0.045 0.4275,0 0.4275,0.18 0,0.0225 -0.045,0.2475 -0.3825,1.395 -1.575,2.43 -1.0575,0.8325 -2.2275,0.8325 -1.575,0 -2.385,-1.4175 -0.6525,1.0125 -1.665,1.35 -0.2025,0.045 -0.585,0.045 -1.305,0 -1.845,-0.9225 -0.225,-0.3825 -0.225,-0.9 0,-0.675 0.405,-1.1475 0.405,-0.4725 1.035,-0.4725 0.9675,0 0.9675,0.945 0,0.8325 -0.7875,1.215 -0.045,0.0225 -0.1125,0.0675 -0.0675,0.0225 -0.1125,0.045 -0.045,0.0225 -0.0675,0.0225 l -0.0675,0.0225 q 0,0.0675 0.3375,0.2025 0.27,0.1125 0.585,0.1125 0.81,0 1.395,-1.0125 0.2475,-0.405 0.8775,-2.925 0.135,-0.5175 0.2925,-1.1475 0.1575,-0.63 0.225,-0.9675 0.09,-0.3375 0.1125,-0.405 0.1125,-0.6075 0.1125,-0.8775 0,-0.54 -0.2925,-0.855 -0.2925,-0.315 -0.81,-0.315 -1.0125,0 -1.755,0.7875 -0.7425,0.765 -1.035,1.7775 -0.045,0.2025 -0.1125,0.2475 -0.045,0.0225 -0.36,0.0225 l -0.315,0 z"
       style="font-style:normal;font-variant:normal;font-weight:normal;font-stretch:normal;font-size:22.5px;line-height:125%;font-family:KaTeX_Math;-inkscape-font-specification:'KaTeX_Math, Normal';text-align:center;writing-mode:lr-tb;text-anchor:middle;fill:#1fab54"
       id="path4608" />
    <path
       d="m 95.053864,69.491539 q -0.4095,0 -0.6435,-0.26325 -0.234,-0.26325 -0.234,-0.6435 0,-1.053 0.78975,-1.798875 0.804375,-0.7605 1.915875,-0.7605 1.25775,0 2.07675,0.687375 0.833625,0.67275 1.02375,1.769625 0.02925,0.26325 0.02925,0.482625 0,0.84825 -0.511876,1.594124 -0.4095,0.61425 -1.652625,1.681875 -0.5265,0.453375 -1.4625,1.3455 l -0.862875,0.819 1.1115,0.01462 q 2.296125,0 2.442375,-0.07313 0.0585,-0.01462 0.14625,-0.307125 0.0585,-0.160875 0.20475,-0.9945 l 0,-0.04387 0.585001,0 0,0.04387 -0.409501,2.676375 0,0.04387 -5.425875,0 0,-0.277875 q 0,-0.2925 0.02925,-0.336375 0.01463,-0.01463 1.2285,-1.389375 1.594125,-1.769625 2.0475,-2.34 0.979875,-1.330874 0.979875,-2.442374 0,-0.96525 -0.511875,-1.60875 -0.49725,-0.658125 -1.404,-0.658125 -0.84825,0 -1.37475,0.7605 -0.02925,0.0585 -0.08775,0.160875 -0.04387,0.07313 -0.04387,0.08775 0,0.01462 0.07313,0.01462 0.365625,0 0.585,0.26325 0.234,0.26325 0.234,0.61425 0,0.365625 -0.248625,0.628875 -0.234,0.248625 -0.628875,0.248625 z"
       style="font-style:normal;font-variant:normal;font-weight:normal;font-stretch:normal;font-size:64.99999762%;line-height:125%;font-family:KaTeX_Main;-inkscape-font-specification:'KaTeX_Main, Normal';text-align:center;writing-mode:lr-tb;baseline-shift:super;text-anchor:middle"
       id="path4610" />
    <path
       d="m 98.335114,95.603163 q -0.45,0 -0.45,-0.405 0,-0.1575 0.1125,-0.315 0.2925,-0.585 5.264996,-10.2825 4.995,-9.6975 5.04,-9.7425 0.09,-0.2025 0.36,-0.2025 0.18,0 0.315,0.135 0.135,0.135 0.135,0.315 0,0.1125 -5.22,10.26 -5.219996,10.125 -5.309996,10.17 -0.09,0.0675 -0.2475,0.0675 z"
       style="font-style:normal;font-variant:normal;font-weight:normal;font-stretch:normal;font-size:22.5px;line-height:125%;font-family:KaTeX_Math;-inkscape-font-specification:'KaTeX_Math, Normal';text-align:center;writing-mode:lr-tb;text-anchor:middle;fill:#1fab54"
       id="path4612" />
    <path
       d="m 115.60785,96.765663 q -0.3825,-0.0675 -3.5775,-0.0675 -3.15,0 -3.5325,0.0675 l -0.27,0 0,-1.035 0.585,0 q 1.305,0 1.6875,-0.0675 0.18,-0.0225 0.54,-0.27 l 0,-11.6325 q -0.045,0 -0.18,0.0675 -1.035,0.405 -2.3175,0.4275 l -0.4275,0 0,-1.035 0.4275,0 q 1.89,-0.0675 3.15,-0.855 0.405,-0.225 0.6975,-0.5175 0.045,-0.0675 0.27,-0.0675 0.225,0 0.3825,0.135 l 0,6.7275 0.0225,6.75 q 0.3375,0.3375 1.4625,0.3375 l 0.7425,0 0.585,0 0,1.035 -0.2475,0 z"
       style="font-style:normal;font-variant:normal;font-weight:normal;font-stretch:normal;font-size:22.5px;line-height:125%;font-family:KaTeX_Main;-inkscape-font-specification:'KaTeX_Main, Normal';text-align:center;writing-mode:lr-tb;text-anchor:middle"
       id="path4614" />
    <path
       d="m 125.89035,83.243163 q -0.495,-0.495 -1.395,-0.5625 -1.575,0 -2.6325,1.35 -1.0575,1.4625 -1.0575,4.545 l 0.0225,0.09 0.18,-0.2925 q 0.9225,-1.35 2.4975,-1.35 1.035,0 1.8225,0.4275 0.54,0.315 1.08,0.9225 0.54,0.585 0.8775,1.26 0.4725,1.1025 0.4725,2.4075 l 0,0.405 q 0,0.5175 -0.1125,0.9675 -0.27,1.3275 -1.395,2.4975 -0.9675,1.0125 -2.16,1.26 -0.36,0.09 -0.9,0.09 -0.4275,0 -0.765,-0.0675 -1.665,-0.315 -2.655,-1.8 -1.3275,-2.0925 -1.3275,-5.67 0,-2.43 0.855,-4.2525 0.855,-1.8225 2.385,-2.835 1.215,-0.855 2.6325,-0.855 1.305,0 2.0925,0.6975 0.81,0.6975 0.81,1.9125 0,0.5625 -0.3375,0.9 -0.315,0.3375 -0.855,0.3375 -0.54,0 -0.8775,-0.315 -0.315,-0.315 -0.315,-0.8775 0,-1.0125 1.0575,-1.1925 z m -0.99,5.4 q -0.63,-0.81 -1.62,-0.81 -0.8325,0 -1.35,0.5175 -1.1025,1.1025 -1.1025,3.555 0,2.0025 0.27,2.7675 0.225,0.675 0.765,1.1475 0.54,0.4725 1.2825,0.4725 1.1475,0 1.755,-0.855 0.3375,-0.4725 0.4275,-1.125 0.09,-0.6525 0.09,-1.89 l 0,-0.36 0,-0.36 q 0,-1.2825 -0.09,-1.935 -0.09,-0.6525 -0.4275,-1.125 z"
       style="font-style:normal;font-variant:normal;font-weight:normal;font-stretch:normal;font-size:22.5px;line-height:125%;font-family:KaTeX_Main;-inkscape-font-specification:'KaTeX_Main, Normal';text-align:center;writing-mode:lr-tb;text-anchor:middle"
       id="path4616" />
  </g>
</svg>
