<?xml version="1.0" standalone="no"?><!DOCTYPE svg PUBLIC "-//W3C//DTD SVG 1.1//EN" "http://www.w3.org/Graphics/SVG/1.1/DTD/svg11.dtd"><svg width="460" height="460" transform="translate(0,0)" version="1.1" xmlns="http://www.w3.org/2000/svg" xmlns:xlink="http://www.w3.org/1999/xlink"><defs xmlns="http://www.w3.org/1999/xhtml"><style type="text/css"><![CDATA[
svg .grid { stroke-width: 0.5px; stroke: rgb(187, 187, 187); opacity: 0.5; }
svg .domain { stroke-width: 3px; stroke: black; }
svg { border: none; }
svg .path { stroke-width: 3px; stroke: rgb(17, 172, 205); fill: none; }
svg text { font: 16px katex_math; }
svg .tick text { font: 12px katex_math; }]]></style></defs><g transform="translate(50,50)"><g class="x-axis" transform="translate(0,180)" fill="none" font-size="10" font-family="sans-serif" text-anchor="middle"><path class="domain" stroke="#000" d="M0.5,0V0.5H360.5V0"/><g class="tick" opacity="1" transform="translate(0.5,0)"><line stroke="#000" y2="6"/><text fill="#000" y="9" dy="0.71em">-30</text><line class="grid" x1="0" y1="-180" x2="0" y2="180"/></g><g class="tick" opacity="1" transform="translate(60.5,0)"><line stroke="#000" y2="6"/><text fill="#000" y="9" dy="0.71em">-20</text><line class="grid" x1="0" y1="-180" x2="0" y2="180"/></g><g class="tick" opacity="1" transform="translate(120.5,0)"><line stroke="#000" y2="6"/><text fill="#000" y="9" dy="0.71em">-10</text><line class="grid" x1="0" y1="-180" x2="0" y2="180"/></g><g class="tick" opacity="1" transform="translate(180.5,0)"><line stroke="#000" y2="6"/><line class="grid" x1="0" y1="-180" x2="0" y2="180"/></g><g class="tick" opacity="1" transform="translate(240.5,0)"><line stroke="#000" y2="6"/><text fill="#000" y="9" dy="0.71em">10</text><line class="grid" x1="0" y1="-180" x2="0" y2="180"/></g><g class="tick" opacity="1" transform="translate(300.5,0)"><line stroke="#000" y2="6"/><text fill="#000" y="9" dy="0.71em">20</text><line class="grid" x1="0" y1="-180" x2="0" y2="180"/></g><g class="tick" opacity="1" transform="translate(360.5,0)"><line stroke="#000" y2="6"/><text fill="#000" y="9" dy="0.71em">30</text><line class="grid" x1="0" y1="-180" x2="0" y2="180"/></g><text x="360" dx=".71em" style="text-anchor: start; fill: black;">x</text></g><g class="y-axis" transform="translate(180,0)" fill="none" font-size="10" font-family="sans-serif" text-anchor="end"><path class="domain" stroke="#000" d="M0,360.5H0.5V0.5H0"/><g class="tick" opacity="1" transform="translate(0,360.5)"><line stroke="#000" x2="-6"/><text fill="#000" x="-9" dy="0.32em">-30</text><line class="grid" x1="-180" y1="0" x2="180" y2="0"/></g><g class="tick" opacity="1" transform="translate(0,300.5)"><line stroke="#000" x2="-6"/><text fill="#000" x="-9" dy="0.32em">-20</text><line class="grid" x1="-180" y1="0" x2="180" y2="0"/></g><g class="tick" opacity="1" transform="translate(0,240.5)"><line stroke="#000" x2="-6"/><text fill="#000" x="-9" dy="0.32em">-10</text><line class="grid" x1="-180" y1="0" x2="180" y2="0"/></g><g class="tick" opacity="1" transform="translate(0,180.5)"><line stroke="#000" x2="-6"/><line class="grid" x1="-180" y1="0" x2="180" y2="0"/></g><g class="tick" opacity="1" transform="translate(0,120.5)"><line stroke="#000" x2="-6"/><text fill="#000" x="-9" dy="0.32em">10</text><line class="grid" x1="-180" y1="0" x2="180" y2="0"/></g><g class="tick" opacity="1" transform="translate(0,60.5)"><line stroke="#000" x2="-6"/><text fill="#000" x="-9" dy="0.32em">20</text><line class="grid" x1="-180" y1="0" x2="180" y2="0"/></g><g class="tick" opacity="1" transform="translate(0,0.5)"><line stroke="#000" x2="-6"/><text fill="#000" x="-9" dy="0.32em">30</text><line class="grid" x1="-180" y1="0" x2="180" y2="0"/></g><text dx="6" dy="-6" style="text-anchor: start; fill: black;">f(x)</text></g><line x1="120" y1="360" x2="240" y2="0" style="stroke: rgb(17, 172, 205); stroke-width: 3px;"/><circle cx="204" cy="108.00000000000003" r="5" style="fill: rgb(17, 172, 205);"/><circle cx="228" cy="36" r="5" style="fill: orange;"/><text x="60" y="276" style="text-anchor: start; font-size: 20px; fill: rgb(17, 172, 205);">f(x) = 3x</text></g></svg>