<?xml version="1.0" encoding="UTF-8" standalone="no"?>
<!-- Created with Inkscape (http://www.inkscape.org/) -->

<svg
   xmlns:dc="http://purl.org/dc/elements/1.1/"
   xmlns:cc="http://creativecommons.org/ns#"
   xmlns:rdf="http://www.w3.org/1999/02/22-rdf-syntax-ns#"
   xmlns:svg="http://www.w3.org/2000/svg"
   xmlns="http://www.w3.org/2000/svg"
   xmlns:sodipodi="http://sodipodi.sourceforge.net/DTD/sodipodi-0.dtd"
   xmlns:inkscape="http://www.inkscape.org/namespaces/inkscape"
   width="110.75101mm"
   height="48.489445mm"
   viewBox="0 0 110.75101 48.489446"
   version="1.1"
   id="svg8"
   inkscape:version="0.92.2 5c3e80d, 2017-08-06"
   sodipodi:docname="logic_tt_XOR_universal.svg">
  <defs
     id="defs2" />
  <sodipodi:namedview
     id="base"
     pagecolor="#ffffff"
     bordercolor="#666666"
     borderopacity="1.0"
     inkscape:pageopacity="0.0"
     inkscape:pageshadow="2"
     inkscape:zoom="1.0866493"
     inkscape:cx="208.40661"
     inkscape:cy="91.633597"
     inkscape:document-units="mm"
     inkscape:current-layer="layer1"
     showgrid="false"
     fit-margin-top="5"
     fit-margin-right="5"
     fit-margin-bottom="5"
     fit-margin-left="5" />
  <metadata
     id="metadata5">
    <rdf:RDF>
      <cc:Work
         rdf:about="">
        <dc:format>image/svg+xml</dc:format>
        <dc:type
           rdf:resource="http://purl.org/dc/dcmitype/StillImage" />
        <dc:title></dc:title>
      </cc:Work>
    </rdf:RDF>
  </metadata>
  <g
     inkscape:label="Layer 1"
     inkscape:groupmode="layer"
     id="layer1"
     transform="translate(-59.267174,-60.100215)">
    <g
       aria-label="A    B    A   B   AB  AB  AB AB=A   B 
0    0    1    1
0    1    1    0
1    0    0    1
1    1    0    0

"
       style="font-style:normal;font-variant:normal;font-weight:normal;font-stretch:normal;font-size:5.64444447px;line-height:125%;font-family:sans-serif;-inkscape-font-specification:'sans-serif, Normal';font-variant-ligatures:normal;font-variant-caps:normal;font-variant-numeric:normal;font-feature-settings:normal;text-align:start;letter-spacing:0px;word-spacing:0px;writing-mode:lr-tb;text-anchor:start;fill:#000000;fill-opacity:1;stroke:none;stroke-width:0.26458332px;stroke-linecap:butt;stroke-linejoin:miter;stroke-opacity:1"
       id="text819">
      <path
         d="m 68.119401,69.531164 -0.755165,2.047764 h 1.513086 z m -0.314193,-0.54846 h 0.631142 l 1.568207,4.114823 h -0.578776 l -0.374826,-1.055578 h -1.85484 l -0.374826,1.055578 h -0.587044 z"
         style=""
         id="path46213" />
      <path
         d="m 78.3472,71.132444 v 1.507574 h 0.892969 q 0.449241,0 0.664215,-0.184657 0.21773,-0.187413 0.21773,-0.570508 0,-0.385851 -0.21773,-0.567752 -0.214974,-0.184657 -0.664215,-0.184657 z m 0,-1.692231 v 1.240235 h 0.824067 q 0.4079,0 0.606337,-0.151585 0.201194,-0.15434 0.201194,-0.468533 0,-0.311436 -0.201194,-0.465777 -0.198437,-0.15434 -0.606337,-0.15434 z m -0.556727,-0.457509 h 1.422135 q 0.636654,0 0.981164,0.264584 0.344509,0.264583 0.344509,0.752409 0,0.377582 -0.176389,0.600824 -0.176389,0.223243 -0.518142,0.278364 0.410655,0.08819 0.636654,0.369314 0.228754,0.278364 0.228754,0.697288 0,0.551215 -0.374826,0.851627 -0.374827,0.300413 -1.066602,0.300413 h -1.477257 z"
         style=""
         id="path46215" />
      <path
         d="m 90.223134,69.531164 -0.755165,2.047764 h 1.513086 z m -0.314193,-0.54846 h 0.631142 l 1.568207,4.114823 h -0.578776 l -0.374826,-1.055578 h -1.85484 l -0.374826,1.055578 h -0.587044 z"
         style=""
         id="path46217" />
      <path
         d="m 98.653971,71.132444 v 1.507574 h 0.892969 q 0.44924,0 0.66421,-0.184657 0.21773,-0.187413 0.21773,-0.570508 0,-0.385851 -0.21773,-0.567752 -0.21497,-0.184657 -0.66421,-0.184657 z m 0,-1.692231 v 1.240235 h 0.824067 q 0.407899,0 0.606332,-0.151585 0.2012,-0.15434 0.2012,-0.468533 0,-0.311436 -0.2012,-0.465777 -0.198433,-0.15434 -0.606332,-0.15434 z m -0.556728,-0.457509 h 1.422136 q 0.636651,0 0.981161,0.264584 0.34451,0.264583 0.34451,0.752409 0,0.377582 -0.17639,0.600824 -0.17639,0.223243 -0.51814,0.278364 0.41066,0.08819 0.63665,0.369314 0.22876,0.278364 0.22876,0.697288 0,0.551215 -0.37483,0.851627 -0.37482,0.300413 -1.0666,0.300413 h -1.477257 z"
         style=""
         id="path46219" />
      <path
         d="m 108.73294,69.531164 -0.75516,2.047764 h 1.51308 z m -0.31419,-0.54846 h 0.63114 l 1.56821,4.114823 h -0.57878 l -0.37482,-1.055578 h -1.85484 l -0.37483,1.055578 h -0.58704 z"
         style=""
         id="path46221" />
      <path
         d="m 111.7729,71.132444 v 1.507574 h 0.89296 q 0.44925,0 0.66422,-0.184657 0.21773,-0.187413 0.21773,-0.570508 0,-0.385851 -0.21773,-0.567752 -0.21497,-0.184657 -0.66422,-0.184657 z m 0,-1.692231 v 1.240235 h 0.82406 q 0.4079,0 0.60634,-0.151585 0.20119,-0.15434 0.20119,-0.468533 0,-0.311436 -0.20119,-0.465777 -0.19844,-0.15434 -0.60634,-0.15434 z m -0.55673,-0.457509 h 1.42213 q 0.63666,0 0.98117,0.264584 0.34451,0.264583 0.34451,0.752409 0,0.377582 -0.17639,0.600824 -0.17639,0.223243 -0.51814,0.278364 0.41065,0.08819 0.63665,0.369314 0.22875,0.278364 0.22875,0.697288 0,0.551215 -0.37482,0.851627 -0.37483,0.300413 -1.0666,0.300413 h -1.47726 z"
         style=""
         id="path46223" />
      <path
         d="m 120.0549,69.531164 -0.75516,2.047764 h 1.51308 z m -0.31419,-0.54846 h 0.63114 l 1.56821,4.114823 h -0.57878 l -0.37482,-1.055578 h -1.85484 l -0.37483,1.055578 h -0.58704 z"
         style=""
         id="path46225" />
      <path
         d="m 123.09486,71.132444 v 1.507574 h 0.89297 q 0.44924,0 0.66421,-0.184657 0.21773,-0.187413 0.21773,-0.570508 0,-0.385851 -0.21773,-0.567752 -0.21497,-0.184657 -0.66421,-0.184657 z m 0,-1.692231 v 1.240235 h 0.82406 q 0.4079,0 0.60634,-0.151585 0.20119,-0.15434 0.20119,-0.468533 0,-0.311436 -0.20119,-0.465777 -0.19844,-0.15434 -0.60634,-0.15434 z m -0.55673,-0.457509 h 1.42213 q 0.63666,0 0.98117,0.264584 0.34451,0.264583 0.34451,0.752409 0,0.377582 -0.17639,0.600824 -0.17639,0.223243 -0.51814,0.278364 0.41065,0.08819 0.63665,0.369314 0.22875,0.278364 0.22875,0.697288 0,0.551215 -0.37482,0.851627 -0.37483,0.300413 -1.0666,0.300413 h -1.47726 z"
         style=""
         id="path46227" />
      <path
         d="m 131.37687,69.531164 -0.75517,2.047764 h 1.51309 z m -0.3142,-0.54846 h 0.63115 l 1.5682,4.114823 h -0.57877 l -0.37483,-1.055578 h -1.85484 l -0.37483,1.055578 h -0.58704 z"
         style=""
         id="path46229" />
      <path
         d="m 134.41682,71.132444 v 1.507574 h 0.89297 q 0.44924,0 0.66421,-0.184657 0.21773,-0.187413 0.21773,-0.570508 0,-0.385851 -0.21773,-0.567752 -0.21497,-0.184657 -0.66421,-0.184657 z m 0,-1.692231 v 1.240235 h 0.82407 q 0.4079,0 0.60633,-0.151585 0.2012,-0.15434 0.2012,-0.468533 0,-0.311436 -0.2012,-0.465777 -0.19843,-0.15434 -0.60633,-0.15434 z m -0.55673,-0.457509 h 1.42214 q 0.63665,0 0.98116,0.264584 0.34451,0.264583 0.34451,0.752409 0,0.377582 -0.17639,0.600824 -0.17639,0.223243 -0.51814,0.278364 0.41066,0.08819 0.63665,0.369314 0.22876,0.278364 0.22876,0.697288 0,0.551215 -0.37483,0.851627 -0.37482,0.300413 -1.0666,0.300413 h -1.47726 z"
         style=""
         id="path46231" />
      <path
         d="m 140.90186,69.531164 -0.75516,2.047764 h 1.51308 z m -0.31419,-0.54846 h 0.63114 l 1.56821,4.114823 h -0.57878 l -0.37482,-1.055578 h -1.85484 l -0.37483,1.055578 h -0.58704 z"
         style=""
         id="path46233" />
      <path
         d="m 143.94181,71.132444 v 1.507574 h 0.89297 q 0.44924,0 0.66422,-0.184657 0.21773,-0.187413 0.21773,-0.570508 0,-0.385851 -0.21773,-0.567752 -0.21498,-0.184657 -0.66422,-0.184657 z m 0,-1.692231 v 1.240235 h 0.82407 q 0.4079,0 0.60634,-0.151585 0.20119,-0.15434 0.20119,-0.468533 0,-0.311436 -0.20119,-0.465777 -0.19844,-0.15434 -0.60634,-0.15434 z m -0.55672,-0.457509 h 1.42213 q 0.63666,0 0.98117,0.264584 0.34451,0.264583 0.34451,0.752409 0,0.377582 -0.17639,0.600824 -0.17639,0.223243 -0.51815,0.278364 0.41066,0.08819 0.63666,0.369314 0.22875,0.278364 0.22875,0.697288 0,0.551215 -0.37482,0.851627 -0.37483,0.300413 -1.06661,0.300413 h -1.47725 z"
         style=""
         id="path46235" />
      <path
         d="m 147.29872,70.534375 h 3.53329 v 0.463021 h -3.53329 z m 0,1.12448 h 3.53329 v 0.468533 h -3.53329 z"
         style=""
         id="path46237" />
      <path
         d="m 153.35933,69.531164 -0.75516,2.047764 h 1.51308 z m -0.31419,-0.54846 h 0.63114 l 1.56821,4.114823 h -0.57878 l -0.37483,-1.055578 h -1.85484 l -0.37482,1.055578 h -0.58705 z"
         style=""
         id="path46239" />
      <path
         d="m 161.79017,71.132444 v 1.507574 h 0.89296 q 0.44924,0 0.66422,-0.184657 0.21773,-0.187413 0.21773,-0.570508 0,-0.385851 -0.21773,-0.567752 -0.21498,-0.184657 -0.66422,-0.184657 z m 0,-1.692231 v 1.240235 h 0.82406 q 0.4079,0 0.60634,-0.151585 0.20119,-0.15434 0.20119,-0.468533 0,-0.311436 -0.20119,-0.465777 -0.19844,-0.15434 -0.60634,-0.15434 z m -0.55673,-0.457509 h 1.42213 q 0.63666,0 0.98117,0.264584 0.34451,0.264583 0.34451,0.752409 0,0.377582 -0.17639,0.600824 -0.17639,0.223243 -0.51815,0.278364 0.41066,0.08819 0.63666,0.369314 0.22875,0.278364 0.22875,0.697288 0,0.551215 -0.37482,0.851627 -0.37483,0.300413 -1.06661,0.300413 h -1.47725 z"
         style=""
         id="path46241" />
      <path
         d="m 67.984353,76.404818 q -0.429948,0 -0.647678,0.424436 -0.214974,0.42168 -0.214974,1.270551 0,0.846116 0.214974,1.270551 0.21773,0.42168 0.647678,0.42168 0.432704,0 0.647678,-0.42168 0.21773,-0.424435 0.21773,-1.270551 0,-0.848871 -0.21773,-1.270551 -0.214974,-0.424436 -0.647678,-0.424436 z m 0,-0.440972 q 0.691775,0 1.055577,0.548459 0.366559,0.545703 0.366559,1.5875 0,1.039041 -0.366559,1.5875 -0.363802,0.545703 -1.055577,0.545703 -0.691775,0 -1.058333,-0.545703 -0.363802,-0.548459 -0.363802,-1.5875 0,-1.041797 0.363802,-1.5875 0.366558,-0.548459 1.058333,-0.548459 z"
         style=""
         id="path46243" />
      <path
         d="m 78.766124,76.404818 q -0.429948,0 -0.647678,0.424436 -0.214974,0.42168 -0.214974,1.270551 0,0.846116 0.214974,1.270551 0.21773,0.42168 0.647678,0.42168 0.432704,0 0.647678,-0.42168 0.21773,-0.424435 0.21773,-1.270551 0,-0.848871 -0.21773,-1.270551 -0.214974,-0.424436 -0.647678,-0.424436 z m 0,-0.440972 q 0.691775,0 1.055577,0.548459 0.366558,0.545703 0.366558,1.5875 0,1.039041 -0.366558,1.5875 -0.363802,0.545703 -1.055577,0.545703 -0.691775,0 -1.058333,-0.545703 -0.363803,-0.548459 -0.363803,-1.5875 0,-1.041797 0.363803,-1.5875 0.366558,-0.548459 1.058333,-0.548459 z"
         style=""
         id="path46245" />
      <path
         d="m 88.453732,79.684549 h 0.909505 v -3.139171 l -0.989431,0.198438 v -0.507118 l 0.983919,-0.198438 h 0.556728 v 3.646289 h 0.909505 v 0.468533 h -2.370226 z"
         style=""
         id="path46247" />
      <path
         d="m 99.235505,79.684549 h 0.909505 v -3.139171 l -0.989431,0.198438 V 76.236698 L 100.1395,76.03826 h 0.55673 v 3.646289 h 0.9095 v 0.468533 h -2.370225 z"
         style=""
         id="path46249" />
      <path
         d="m 67.984353,83.460374 q -0.429948,0 -0.647678,0.424436 -0.214974,0.421679 -0.214974,1.270551 0,0.846115 0.214974,1.270551 0.21773,0.42168 0.647678,0.42168 0.432704,0 0.647678,-0.42168 0.21773,-0.424436 0.21773,-1.270551 0,-0.848872 -0.21773,-1.270551 -0.214974,-0.424436 -0.647678,-0.424436 z m 0,-0.440972 q 0.691775,0 1.055577,0.548459 0.366559,0.545703 0.366559,1.5875 0,1.039041 -0.366559,1.5875 -0.363802,0.545703 -1.055577,0.545703 -0.691775,0 -1.058333,-0.545703 -0.363802,-0.548459 -0.363802,-1.5875 0,-1.041797 0.363802,-1.5875 0.366558,-0.548459 1.058333,-0.548459 z"
         style=""
         id="path46251" />
      <path
         d="m 77.671962,86.740105 h 0.909505 v -3.139171 l -0.989432,0.198437 v -0.507118 l 0.98392,-0.198437 h 0.556727 v 3.646289 h 0.909505 v 0.468533 h -2.370225 z"
         style=""
         id="path46253" />
      <path
         d="m 88.453732,86.740105 h 0.909505 v -3.139171 l -0.989431,0.198437 v -0.507118 l 0.983919,-0.198437 h 0.556728 v 3.646289 h 0.909505 v 0.468533 h -2.370226 z"
         style=""
         id="path46255" />
      <path
         d="m 100.32967,83.460374 q -0.429951,0 -0.647681,0.424436 -0.214974,0.421679 -0.214974,1.270551 0,0.846115 0.214974,1.270551 0.21773,0.42168 0.647681,0.42168 0.4327,0 0.64768,-0.42168 0.21773,-0.424436 0.21773,-1.270551 0,-0.848872 -0.21773,-1.270551 -0.21498,-0.424436 -0.64768,-0.424436 z m 0,-0.440972 q 0.69177,0 1.05557,0.548459 0.36656,0.545703 0.36656,1.5875 0,1.039041 -0.36656,1.5875 -0.3638,0.545703 -1.05557,0.545703 -0.691778,0 -1.058336,-0.545703 -0.363802,-0.548459 -0.363802,-1.5875 0,-1.041797 0.363802,-1.5875 0.366558,-0.548459 1.058336,-0.548459 z"
         style=""
         id="path46257" />
      <path
         d="m 66.890191,93.79566 h 0.909505 v -3.139171 l -0.989431,0.198438 v -0.507118 l 0.983919,-0.198438 h 0.556727 v 3.646289 h 0.909506 v 0.468533 h -2.370226 z"
         style=""
         id="path46259" />
      <path
         d="m 78.766124,90.515929 q -0.429948,0 -0.647678,0.424436 -0.214974,0.42168 -0.214974,1.270551 0,0.846116 0.214974,1.270552 0.21773,0.421679 0.647678,0.421679 0.432704,0 0.647678,-0.421679 0.21773,-0.424436 0.21773,-1.270552 0,-0.848871 -0.21773,-1.270551 -0.214974,-0.424436 -0.647678,-0.424436 z m 0,-0.440972 q 0.691775,0 1.055577,0.548459 0.366558,0.545704 0.366558,1.5875 0,1.039041 -0.366558,1.5875 -0.363802,0.545704 -1.055577,0.545704 -0.691775,0 -1.058333,-0.545704 -0.363803,-0.548459 -0.363803,-1.5875 0,-1.041796 0.363803,-1.5875 0.366558,-0.548459 1.058333,-0.548459 z"
         style=""
         id="path46261" />
      <path
         d="m 89.547895,90.515929 q -0.429948,0 -0.647678,0.424436 -0.214974,0.42168 -0.214974,1.270551 0,0.846116 0.214974,1.270552 0.21773,0.421679 0.647678,0.421679 0.432704,0 0.647678,-0.421679 0.21773,-0.424436 0.21773,-1.270552 0,-0.848871 -0.21773,-1.270551 -0.214974,-0.424436 -0.647678,-0.424436 z m 0,-0.440972 q 0.691775,0 1.055577,0.548459 0.366558,0.545704 0.366558,1.5875 0,1.039041 -0.366558,1.5875 -0.363802,0.545704 -1.055577,0.545704 -0.691776,0 -1.058334,-0.545704 -0.363802,-0.548459 -0.363802,-1.5875 0,-1.041796 0.363802,-1.5875 0.366558,-0.548459 1.058334,-0.548459 z"
         style=""
         id="path46263" />
      <path
         d="m 99.235505,93.79566 h 0.909505 v -3.139171 l -0.989431,0.198438 v -0.507118 l 0.983921,-0.198438 h 0.55673 v 3.646289 h 0.9095 v 0.468533 h -2.370225 z"
         style=""
         id="path46265" />
      <path
         d="m 66.890191,100.85122 h 0.909505 v -3.139175 l -0.989431,0.198437 v -0.507118 l 0.983919,-0.198437 h 0.556727 v 3.646293 h 0.909506 v 0.46853 h -2.370226 z"
         style=""
         id="path46267" />
      <path
         d="m 77.671962,100.85122 h 0.909505 v -3.139175 l -0.989432,0.198437 v -0.507118 l 0.98392,-0.198437 h 0.556727 v 3.646293 h 0.909505 v 0.46853 h -2.370225 z"
         style=""
         id="path46269" />
      <path
         d="m 89.547895,97.571485 q -0.429948,0 -0.647678,0.424436 -0.214974,0.421679 -0.214974,1.270551 0,0.846118 0.214974,1.270548 0.21773,0.42168 0.647678,0.42168 0.432704,0 0.647678,-0.42168 0.21773,-0.42443 0.21773,-1.270548 0,-0.848872 -0.21773,-1.270551 -0.214974,-0.424436 -0.647678,-0.424436 z m 0,-0.440972 q 0.691775,0 1.055577,0.548459 0.366558,0.545703 0.366558,1.5875 0,1.039038 -0.366558,1.587498 -0.363802,0.54571 -1.055577,0.54571 -0.691776,0 -1.058334,-0.54571 -0.363802,-0.54846 -0.363802,-1.587498 0,-1.041797 0.363802,-1.5875 0.366558,-0.548459 1.058334,-0.548459 z"
         style=""
         id="path46271" />
      <path
         d="m 100.32967,97.571485 q -0.429951,0 -0.647681,0.424436 -0.214974,0.421679 -0.214974,1.270551 0,0.846118 0.214974,1.270548 0.21773,0.42168 0.647681,0.42168 0.4327,0 0.64768,-0.42168 0.21773,-0.42443 0.21773,-1.270548 0,-0.848872 -0.21773,-1.270551 -0.21498,-0.424436 -0.64768,-0.424436 z m 0,-0.440972 q 0.69177,0 1.05557,0.548459 0.36656,0.545703 0.36656,1.5875 0,1.039038 -0.36656,1.587498 -0.3638,0.54571 -1.05557,0.54571 -0.691778,0 -1.058336,-0.54571 -0.363802,-0.54846 -0.363802,-1.587498 0,-1.041797 0.363802,-1.5875 0.366558,-0.548459 1.058336,-0.548459 z"
         style=""
         id="path46273" />
    </g>
    <path
       style="fill:none;fill-rule:evenodd;stroke:#000000;stroke-width:0.2;stroke-linecap:butt;stroke-linejoin:miter;stroke-miterlimit:4;stroke-dasharray:none;stroke-opacity:1"
       d="M 64.267174,74.489662 H 165.01818"
       id="path889"
       inkscape:connector-curvature="0" />
    <text
       xml:space="preserve"
       style="font-style:normal;font-variant:normal;font-weight:normal;font-stretch:normal;font-size:10.58333302px;line-height:125%;font-family:KaTeX_Main;-inkscape-font-specification:'KaTeX_Main, Normal';text-align:start;letter-spacing:0px;word-spacing:0px;writing-mode:lr-tb;text-anchor:start;fill:#000000;fill-opacity:1;stroke:none;stroke-width:0.26458332px;stroke-linecap:butt;stroke-linejoin:miter;stroke-opacity:1"
       x="92.728935"
       y="106.19131"
       id="text831"><tspan
         sodipodi:role="line"
         id="tspan829"
         x="92.728935"
         y="115.98089"
         style="stroke-width:0.26458332px" /><tspan
         sodipodi:role="line"
         x="92.728935"
         y="129.21005"
         style="stroke-width:0.26458332px"
         id="tspan833" /></text>
    <path
       style="font-style:normal;font-variant:normal;font-weight:normal;font-stretch:normal;font-size:5.64444447px;line-height:125%;font-family:sans-serif;-inkscape-font-specification:'sans-serif, Normal';font-variant-ligatures:normal;font-variant-caps:normal;font-variant-numeric:normal;font-feature-settings:normal;text-align:start;letter-spacing:0px;word-spacing:0px;writing-mode:lr-tb;text-anchor:start;fill:#000000;fill-opacity:1;stroke:none;stroke-width:0.26458332px;stroke-linecap:butt;stroke-linejoin:miter;stroke-opacity:1"
       d="m 158.14812,72.924506 q -0.7028,0 -1.20165,-0.498849 -0.49885,-0.49885 -0.49885,-1.20165 0,-0.702799 0.49885,-1.201649 0.49885,-0.501606 1.20165,-0.501606 0.7028,0 1.20165,0.501606 0.49885,0.49885 0.49885,1.201649 0,0.7028 -0.49885,1.20165 -0.49885,0.498849 -1.20165,0.498849 z m 0.13505,-1.565451 0.003,1.287088 q 0.51263,-0.05237 0.87092,-0.410656 0.36104,-0.361046 0.41341,-0.876432 z m -0.2701,-0.272851 v -1.284332 q -0.51538,0.04961 -0.87643,0.410655 -0.35829,0.35829 -0.4079,0.873677 z m 0.2701,0 h 1.28709 q -0.0524,-0.515387 -0.41342,-0.873677 -0.35829,-0.361046 -0.87092,-0.410655 z m -0.2701,0.272851 h -1.28709 q 0.0524,0.515386 0.41066,0.876432 0.36105,0.35829 0.87643,0.410656 z"
       id="path1079"
       inkscape:connector-curvature="0" />
    <path
       style="fill:none;fill-rule:evenodd;stroke:#000000;stroke-width:0.26458332px;stroke-linecap:butt;stroke-linejoin:miter;stroke-opacity:1"
       d="m 87.885071,67.82681 h 4.206753"
       id="path19920"
       inkscape:connector-curvature="0" />
    <path
       style="fill:none;fill-rule:evenodd;stroke:#000000;stroke-width:0.26458332px;stroke-linecap:butt;stroke-linejoin:miter;stroke-opacity:1"
       d="m 107.01579,66.725041 h 6.71078"
       id="path19926"
       inkscape:connector-curvature="0" />
    <path
       style="fill:none;fill-rule:evenodd;stroke:#000000;stroke-width:0.26458332px;stroke-linecap:butt;stroke-linejoin:miter;stroke-opacity:1"
       d="m 118.58437,67.977052 h 2.75442"
       id="path19928"
       inkscape:connector-curvature="0" />
    <path
       style="fill:none;fill-rule:evenodd;stroke:#000000;stroke-width:0.26458332px;stroke-linecap:butt;stroke-linejoin:miter;stroke-opacity:1"
       d="m 118.38405,66.775122 h 6.46037"
       id="path19930"
       inkscape:connector-curvature="0" />
    <path
       style="fill:none;fill-rule:evenodd;stroke:#000000;stroke-width:0.26458332px;stroke-linecap:butt;stroke-linejoin:miter;stroke-opacity:1"
       d="m 111.03349,67.977052 h 2.75442"
       id="path19928-0"
       inkscape:connector-curvature="0" />
    <path
       style="fill:none;fill-rule:evenodd;stroke:#b3b3b3;stroke-width:0.2;stroke-linecap:butt;stroke-linejoin:miter;stroke-miterlimit:4;stroke-dasharray:none;stroke-opacity:1"
       d="M 64.267174,81.489663 H 165.01818"
       id="path889-6"
       inkscape:connector-curvature="0" />
    <path
       style="fill:none;fill-rule:evenodd;stroke:#b3b3b3;stroke-width:0.2;stroke-linecap:butt;stroke-linejoin:miter;stroke-miterlimit:4;stroke-dasharray:none;stroke-opacity:1"
       d="M 64.267174,88.489662 H 165.01818"
       id="path889-6-9"
       inkscape:connector-curvature="0" />
    <path
       style="fill:none;fill-rule:evenodd;stroke:#b3b3b3;stroke-width:0.2;stroke-linecap:butt;stroke-linejoin:miter;stroke-miterlimit:4;stroke-dasharray:none;stroke-opacity:1"
       d="M 64.267174,95.489662 H 165.01818"
       id="path889-6-7"
       inkscape:connector-curvature="0" />
    <path
       style="fill:none;fill-rule:evenodd;stroke:#000000;stroke-width:0.2;stroke-linecap:butt;stroke-linejoin:miter;stroke-miterlimit:4;stroke-dasharray:none;stroke-opacity:1"
       d="M 64.267174,103.48966 H 165.01818"
       id="path889-0"
       inkscape:connector-curvature="0" />
    <path
       style="fill:none;fill-rule:evenodd;stroke:#000000;stroke-width:0.26458332px;stroke-linecap:butt;stroke-linejoin:miter;stroke-opacity:1"
       d="m 97.166627,67.82681 h 4.206753"
       id="path19920-9"
       inkscape:connector-curvature="0" />
    <path
       style="fill:none;fill-rule:evenodd;stroke:#000000;stroke-width:0.26458332px;stroke-linecap:butt;stroke-linejoin:miter;stroke-opacity:1"
       d="m 130.01579,66.72504 h 6.71078"
       id="path19926-4"
       inkscape:connector-curvature="0" />
    <path
       style="fill:none;fill-rule:evenodd;stroke:#000000;stroke-width:0.26458332px;stroke-linecap:butt;stroke-linejoin:miter;stroke-opacity:1"
       d="m 139.58437,67.977051 h 2.75442"
       id="path19928-4"
       inkscape:connector-curvature="0" />
    <path
       style="fill:none;fill-rule:evenodd;stroke:#000000;stroke-width:0.26458332px;stroke-linecap:butt;stroke-linejoin:miter;stroke-opacity:1"
       d="m 139.38405,66.775121 h 6.46037"
       id="path19930-8"
       inkscape:connector-curvature="0" />
    <path
       style="fill:none;fill-rule:evenodd;stroke:#000000;stroke-width:0.26458332px;stroke-linecap:butt;stroke-linejoin:miter;stroke-opacity:1"
       d="m 134.03349,67.977051 h 2.75442"
       id="path19928-0-8"
       inkscape:connector-curvature="0" />
    <path
       style="fill:none;fill-rule:evenodd;stroke:#000000;stroke-width:0.26458332px;stroke-linecap:butt;stroke-linejoin:miter;stroke-opacity:1"
       d="m 130.14637,65.232507 h 15.76711"
       id="path21815"
       inkscape:connector-curvature="0" />
    <circle
       style="opacity:0.97000002;fill:#000000;fill-opacity:1;stroke:#000000;stroke-width:0.28222224;stroke-linecap:round;stroke-linejoin:round;stroke-miterlimit:10;stroke-dasharray:none;stroke-opacity:0.99215686"
       id="path34743"
       cx="138.1707"
       cy="71.03434"
       r="0.5" />
    <text
       xml:space="preserve"
       style="font-style:normal;font-variant:normal;font-weight:normal;font-stretch:normal;font-size:10.58333302px;line-height:125%;font-family:KaTeX_Main;-inkscape-font-specification:'KaTeX_Main, Normal';text-align:start;letter-spacing:0px;word-spacing:0px;writing-mode:lr-tb;text-anchor:start;fill:#000000;fill-opacity:1;stroke:none;stroke-width:0.26458332px;stroke-linecap:butt;stroke-linejoin:miter;stroke-opacity:1"
       x="147.84442"
       y="69.775124"
       id="text23208"><tspan
         sodipodi:role="line"
         id="tspan23206"
         x="147.84442"
         y="69.775124"
         style="font-style:normal;font-variant:normal;font-weight:normal;font-stretch:normal;font-size:4.93888903px;font-family:sans-serif;-inkscape-font-specification:'sans-serif, Normal';font-variant-ligatures:normal;font-variant-caps:normal;font-variant-numeric:normal;font-feature-settings:normal;text-align:start;writing-mode:lr-tb;text-anchor:start;stroke-width:0.26458332px">?</tspan></text>
  </g>
</svg>
