<?xml version="1.0" encoding="UTF-8" standalone="no"?>
<!-- Generator: Adobe Illustrator 19.1.0, SVG Export Plug-In . SVG Version: 6.00 Build 0)  -->

<svg
   xmlns:dc="http://purl.org/dc/elements/1.1/"
   xmlns:cc="http://creativecommons.org/ns#"
   xmlns:rdf="http://www.w3.org/1999/02/22-rdf-syntax-ns#"
   xmlns:svg="http://www.w3.org/2000/svg"
   xmlns="http://www.w3.org/2000/svg"
   xmlns:sodipodi="http://sodipodi.sourceforge.net/DTD/sodipodi-0.dtd"
   xmlns:inkscape="http://www.inkscape.org/namespaces/inkscape"
   version="1.1"
   id="Layer_1"
   x="0px"
   y="0px"
   width="300px"
   height="174px"
   viewBox="0 0 300 174"
   style="enable-background:new 0 0 300 174;"
   xml:space="preserve"
   sodipodi:docname="loop2.svg"
   inkscape:version="0.92.2 5c3e80d, 2017-08-06"><metadata
     id="metadata18909"><rdf:RDF><cc:Work
         rdf:about=""><dc:format>image/svg+xml</dc:format><dc:type
           rdf:resource="http://purl.org/dc/dcmitype/StillImage" /><dc:title></dc:title></cc:Work></rdf:RDF></metadata><defs
     id="defs18907" /><sodipodi:namedview
     pagecolor="#ffffff"
     bordercolor="#666666"
     borderopacity="1"
     objecttolerance="10"
     gridtolerance="10"
     guidetolerance="10"
     inkscape:pageopacity="0"
     inkscape:pageshadow="2"
     inkscape:window-width="640"
     inkscape:window-height="480"
     id="namedview18905"
     showgrid="false"
     inkscape:zoom="1.67"
     inkscape:cx="150"
     inkscape:cy="87"
     inkscape:current-layer="Layer_1" /><style
     type="text/css"
     id="style18784">
	.st0{fill:none;stroke:#1FAB54;stroke-width:6;stroke-linecap:round;stroke-miterlimit:10;}
	.st1{fill:none;stroke:#FF9C39;stroke-width:6;stroke-linecap:round;stroke-miterlimit:10;}
	.st2{fill:none;stroke:#FF9C39;stroke-width:6;stroke-linecap:round;stroke-linejoin:round;stroke-miterlimit:10;}
	.st3{fill:none;stroke:#11ACCD;stroke-width:5;stroke-linecap:round;stroke-linejoin:round;stroke-miterlimit:10;}
	.st4{fill:none;stroke:#1FAB54;stroke-width:6;stroke-linecap:round;stroke-linejoin:round;stroke-miterlimit:10;}
	.st5{fill:none;stroke:#BABEC2;stroke-width:2;stroke-linecap:round;stroke-miterlimit:10;}
	.st6{fill:none;stroke:#ED5FA6;stroke-width:4;stroke-linecap:round;stroke-miterlimit:10;}
	.st7{fill:#ED5FA6;}
	.st8{fill:none;stroke:#1FAB54;stroke-width:4;stroke-linecap:round;stroke-miterlimit:10;}
	.st9{fill:#1FAB54;}
	.st10{fill:none;stroke:#11ACCD;stroke-width:4;stroke-linecap:round;stroke-miterlimit:10;}
	.st11{fill:#11ACCD;}
	.st12{fill:none;stroke:#FF9C39;stroke-width:4;stroke-linecap:round;stroke-miterlimit:10;}
	.st13{fill:#FF9C39;}
	.st14{fill:none;stroke:#000000;stroke-linecap:round;stroke-linejoin:round;stroke-miterlimit:10;}
	.st15{fill:none;stroke:#000000;stroke-width:1.5;stroke-linecap:round;stroke-linejoin:round;stroke-miterlimit:10;}
	.st16{fill:none;stroke:#000000;stroke-linecap:round;stroke-miterlimit:10;}
	.st17{fill:none;stroke:#000000;stroke-width:1.5;stroke-linecap:round;stroke-miterlimit:10;}
	.st18{fill:none;stroke:#000000;stroke-width:2;stroke-linecap:round;stroke-linejoin:round;stroke-miterlimit:10;}
	.st19{fill:none;stroke:#000000;stroke-width:1.5;stroke-miterlimit:10;}
	.st20{fill:none;stroke:#000000;stroke-miterlimit:10;}
	.st21{fill:none;stroke:#000000;stroke-width:2;stroke-miterlimit:10;}
	.st22{fill:none;stroke:#000000;stroke-width:2;stroke-linecap:round;stroke-miterlimit:10;}
	.st23{fill:none;stroke:#000000;stroke-linecap:round;stroke-linejoin:round;}
	.st24{fill:none;}
	.st25{stroke:#000000;stroke-linecap:round;stroke-linejoin:round;stroke-miterlimit:10;}
	.st26{fill:none;stroke:#000000;stroke-width:1.5;stroke-linejoin:round;stroke-miterlimit:10;}
	.st27{fill:none;stroke:#000000;stroke-linejoin:round;stroke-miterlimit:10;}
	.st28{clip-path:url(#SVGID_2_);fill:none;stroke:#000000;stroke-linejoin:round;stroke-miterlimit:10;}
	.st29{clip-path:url(#SVGID_2_);fill:none;stroke:#ADADEB;stroke-linejoin:round;stroke-miterlimit:10;}
	.st30{clip-path:url(#SVGID_2_);}
	.st31{stroke:#000000;stroke-linejoin:round;stroke-miterlimit:10;}
	.st32{stroke:#000000;stroke-width:3;stroke-linejoin:round;stroke-miterlimit:10;}
	.st33{fill:none;stroke:#000000;stroke-linejoin:round;}
	.st34{fill:#FFFFFF;stroke:#000000;stroke-miterlimit:10;}
	.st35{fill:#E07D10;}
	.st36{fill:none;stroke:#11ACCD;stroke-width:3;stroke-linecap:round;stroke-miterlimit:10;}
	.st37{fill:none;stroke:#E07D10;stroke-width:2;stroke-linecap:round;stroke-miterlimit:10;}
	.st38{font-family:'KaTeX_Main-Regular';}
	.st39{font-size:18px;}
	.st40{fill:none;stroke:#FF9C39;stroke-width:3;stroke-linecap:round;stroke-miterlimit:10;}
	.st41{fill:none;stroke:#FFBB71;stroke-width:2;stroke-linecap:round;stroke-miterlimit:10;}
	.st42{fill:#FFBB71;}
	.st43{fill:none;stroke:#000000;stroke-width:2;stroke-linecap:round;stroke-miterlimit:10;stroke-dasharray:6.1241,6.1241;}
	.st44{fill:#66AFE9;}
	.st45{fill:none;stroke:#66AFE9;stroke-miterlimit:10;}
	.st46{fill:none;stroke:#11ACCD;stroke-width:1.5;stroke-miterlimit:10;}
	.st47{fill:none;stroke:#11ACCD;stroke-width:4;stroke-linecap:round;stroke-linejoin:round;stroke-miterlimit:10;}
	.st48{fill:#CA337C;}
	.st49{font-size:12px;}
</style><g
     id="g18802"><g
       id="g18794"><g
         id="g18792"><line
           class="st22"
           x1="162"
           y1="70.5"
           x2="162"
           y2="90.4"
           id="line18786" /><g
           id="g18790"><polygon
             points="156,88.6 162,99 168,88.6     "
             id="polygon18788" /></g></g></g><circle
       class="st21"
       cx="162"
       cy="84"
       r="18"
       id="circle18796" /><polyline
       class="st16"
       points="162,102 162,126 162.2,143.7  "
       id="polyline18798" /><polyline
       class="st14"
       points="162,66 162,42 161.8,24.3  "
       id="polyline18800" /></g><g
     id="g18812"><line
       class="st14"
       x1="239.6"
       y1="24"
       x2="264"
       y2="24"
       id="line18804" /><polyline
       class="st18"
       points="192.8,24 196.7,15 204.5,33 212.3,15 220.1,33 227.9,15 235.7,33 239.6,24  "
       id="polyline18806" /><line
       class="st14"
       x1="162.4"
       y1="24"
       x2="192.8"
       y2="24"
       id="line18808" /><polygon
       class="st24"
       points="264,36 264.2,12 162.4,12 162.4,36  "
       id="polygon18810" /></g><g
     aria-label="Is"
     style="font-style:normal;font-variant:normal;font-weight:normal;font-stretch:normal;font-size:24px;font-family:KaTeX_Main;-inkscape-font-specification:'KaTeX_Main, Normal';font-variant-ligatures:normal;font-variant-caps:normal;font-variant-numeric:normal;font-feature-settings:normal;text-align:start;writing-mode:lr-tb;text-anchor:start"
     id="text18814"><path
       d="m 148.09237,120.0001 q -0.384,-0.072 -3.552,-0.072 -3.168,0 -3.552,0.072 h -0.264 v -1.104 h 0.528 q 0.936,0 1.584,-0.072 0.288,-0.072 0.408,-0.264 0.048,-0.072 0.048,-6.768 0,-6.672 -0.048,-6.744 -0.12,-0.192 -0.408,-0.264 -0.648,-0.072 -1.584,-0.072 h -0.528 v -1.104 h 0.264 q 0.384,0.072 3.552,0.072 3.168,0 3.552,-0.072 h 0.264 v 1.104 h -0.528 q -0.936,0 -1.584,0.072 -0.288,0.072 -0.408,0.264 -0.048,0.072 -0.048,6.744 0,6.696 0.048,6.768 0.12,0.192 0.408,0.264 0.648,0.072 1.584,0.072 h 0.528 v 1.104 z"
       style="font-style:normal;font-variant:normal;font-weight:normal;font-stretch:normal;font-size:24px;font-family:KaTeX_Main;-inkscape-font-specification:'KaTeX_Main, Normal';font-variant-ligatures:normal;font-variant-caps:normal;font-variant-numeric:normal;font-feature-settings:normal;text-align:start;writing-mode:lr-tb;text-anchor:start"
       id="path19461" /><path
       d="m 151.85624,118.3417 q -1.4352,0 -1.4352,1.014 0,0.2028 0.0312,0.2652 0.1404,0.3744 0.4836,0.546 0.3432,0.156 1.0608,0.2964 0.8892,0.156 1.2168,0.3432 0.9828,0.468 1.2636,1.5444 0.0156,0.0936 0.0156,0.3744 0,0.6084 -0.2184,1.0764 -0.6084,1.1544 -2.2932,1.1544 -0.936,0 -1.6224,-0.5616 l -0.1248,0.1092 -0.1404,0.1404 q -0.0936,0.0936 -0.1872,0.1716 l -0.1716,0.156 h -0.1248 q -0.1092,0 -0.2028,-0.0936 v -1.2324 q 0,-1.014 0,-1.17 0.0156,-0.156 0.078,-0.1872 0.0312,-0.0156 0.2496,-0.0156 0.2028,0 0.234,0.0312 0.0468,0.0312 0.0936,0.2184 0.1248,0.5928 0.4056,1.0764 0.546,0.7956 1.5132,0.7956 1.5132,0 1.5132,-1.2168 0,-0.4524 -0.2808,-0.7332 -0.2496,-0.2964 -0.6552,-0.4212 -0.2652,-0.0624 -0.7488,-0.1716 -0.8736,-0.1716 -1.1856,-0.3276 -1.0296,-0.4836 -1.2012,-1.4508 -0.0156,-0.0624 -0.0156,-0.234 0,-1.794 2.1996,-2.0124 0.0624,-0.0312 0.3744,0 0.624,0 1.092,0.234 l 0.234,0.1248 0.1404,-0.1092 q 0.2028,-0.1716 0.3432,-0.2652 h 0.1248 q 0.1092,0 0.2028,0.0936 v 2.0592 l -0.0936,0.0936 h -0.4368 q -0.0936,-0.0936 -0.0936,-0.1872 0,-0.7176 -0.4368,-1.1232 -0.4368,-0.4056 -1.2012,-0.4056 z"
       style="font-size:64.99999762%;baseline-shift:sub"
       id="path19463" /></g><g
     id="g18824"><g
       id="g18822"><path
         class="st12"
         d="M73.5,119.7h44.7c4.3,0,7.8-3.5,7.8-7.8V61.4c0-7.4-4.4-7.4-8.7-7.4l-49.6-0.3c-4.3,0-7.8,3.5-7.8,7.8v50.5"
         id="path18816" /><g
         id="g18820"><path
           class="st13"
           d="M63.9,119.7c4.5,1.7,10.2,4.6,13.7,7.6l-2.8-7.6l2.8-7.6C74.1,115.1,68.4,118,63.9,119.7z"
           id="path18818" /></g></g></g><g
     id="g18834"><g
       id="g18832"><path
         class="st12"
         d="M205.5,120h44.7c4.3,0,7.8-3.5,7.8-7.8V61.8c0-7.4-4.4-7.4-8.7-7.4L199.8,54c-4.3,0-7.8,3.5-7.8,7.8v50.5"
         id="path18826" /><g
         id="g18830"><path
           class="st13"
           d="M195.9,120c4.5,1.7,10.2,4.6,13.7,7.6l-2.8-7.6l2.8-7.6C206.1,115.4,200.4,118.3,195.9,120z"
           id="path18828" /></g></g></g><g
     id="g18848"><circle
       class="st21"
       cx="30"
       cy="83.7"
       r="18"
       id="circle18836" /><polyline
       class="st16"
       points="30,65.7 30,41.7 30,23.7 48,23.7  "
       id="polyline18838" /><polyline
       class="st14"
       points="30,101.7 29.8,143.7 264,144  "
       id="polyline18840" /><line
       class="st19"
       x1="30"
       y1="70.2"
       x2="30"
       y2="82.2"
       id="line18842" /><line
       class="st19"
       x1="24"
       y1="76.2"
       x2="36"
       y2="76.2"
       id="line18844" /><line
       class="st19"
       x1="24"
       y1="94.2"
       x2="36"
       y2="94.2"
       id="line18846" /></g><g
     id="g18858"><line
       class="st14"
       x1="125.2"
       y1="23.7"
       x2="149.6"
       y2="23.7"
       id="line18850" /><polyline
       class="st18"
       points="78.4,23.7 82.3,14.7 90.1,32.7 97.9,14.7 105.7,32.7 113.5,14.7 121.3,32.7 125.2,23.7  "
       id="polyline18852" /><line
       class="st14"
       x1="48"
       y1="23.7"
       x2="78.4"
       y2="23.7"
       id="line18854" /><polygon
       class="st24"
       points="149.6,35.7 149.8,11.7 48,11.7 48,35.7  "
       id="polygon18856" /></g><g
     id="g18868"><line
       class="st14"
       x1="282"
       y1="60.3"
       x2="282"
       y2="41.7"
       id="line18860" /><polyline
       class="st18"
       points="282,107.1 273,103.2 291,95.4 273,87.6 291,79.8 273,72 291,64.2 282,60.3  "
       id="polyline18862" /><line
       class="st14"
       x1="282"
       y1="143.7"
       x2="282"
       y2="107.1"
       id="line18864" /><rect
       x="270"
       y="41.7"
       class="st24"
       width="24"
       height="102"
       id="rect18866" /></g><g
     id="g18874"><polyline
       class="st14"
       points="29.8,155.7 37.3,155.7 37.3,155.7 37.3,155.7 29.8,167.7 22.3,155.7 29.8,155.7 29.8,143.7  "
       id="polyline18870" /><rect
       x="17.8"
       y="143.7"
       class="st24"
       width="24"
       height="24"
       id="rect18872" /></g><g
     id="g18880"><circle
       class="st25"
       cx="162"
       cy="23.7"
       r="1.5"
       id="circle18876" /><rect
       x="156"
       y="17.7"
       class="st24"
       width="12"
       height="12"
       id="rect18878" /></g><g
     id="g18886"><circle
       class="st25"
       cx="162.2"
       cy="143.7"
       r="1.5"
       id="circle18882" /><rect
       x="156.2"
       y="137.7"
       class="st24"
       width="12"
       height="12"
       id="rect18884" /></g><g
     id="g18892"><circle
       class="st25"
       cx="29.8"
       cy="143.7"
       r="1.5"
       id="circle18888" /><rect
       x="23.8"
       y="137.7"
       class="st24"
       width="12"
       height="12"
       id="rect18890" /></g><g
     aria-label="I"
     style="font-style:normal;font-variant:normal;font-weight:normal;font-stretch:normal;font-size:24px;font-family:KaTeX_Main;-inkscape-font-specification:'KaTeX_Main, Normal';font-variant-ligatures:normal;font-variant-caps:normal;font-variant-numeric:normal;font-feature-settings:normal;text-align:start;writing-mode:lr-tb;text-anchor:start;fill:#ff9c39"
     id="text18894"><path
       d="m 96.501898,93.779526 q -0.384,-0.072 -3.552,-0.072 -3.168,0 -3.552,0.072 h -0.264 v -1.104 h 0.528 q 0.936,0 1.584,-0.072 0.288,-0.072 0.408,-0.264 0.048,-0.072 0.048,-6.768 0,-6.672 -0.048,-6.744 -0.12,-0.192 -0.408,-0.264 -0.648,-0.072 -1.584,-0.072 h -0.528 v -1.104 h 0.264 q 0.384,0.072 3.552,0.072 3.168,0 3.552,-0.072 h 0.264 v 1.104 h -0.528 q -0.936,0 -1.584,0.072 -0.288,0.072 -0.408,0.264 -0.048,0.072 -0.048,6.744 0,6.696 0.048,6.768 0.12,0.192 0.408,0.264 0.648,0.072 1.584,0.072 h 0.528 v 1.104 z"
       style="font-style:normal;font-variant:normal;font-weight:normal;font-stretch:normal;font-size:24px;font-family:KaTeX_Main;-inkscape-font-specification:'KaTeX_Main, Normal';font-variant-ligatures:normal;font-variant-caps:normal;font-variant-numeric:normal;font-feature-settings:normal;text-align:start;writing-mode:lr-tb;text-anchor:start;fill:#ff9c39"
       id="path19466" /></g><g
     aria-label="II"
     style="font-style:normal;font-variant:normal;font-weight:normal;font-stretch:normal;font-size:24px;font-family:KaTeX_Main;-inkscape-font-specification:'KaTeX_Main, Normal';font-variant-ligatures:normal;font-variant-caps:normal;font-variant-numeric:normal;font-feature-settings:normal;text-align:start;writing-mode:lr-tb;text-anchor:start;fill:#ff9c39"
     id="text18896"><path
       d="m 224.21596,93.779526 q -0.384,-0.072 -3.552,-0.072 -3.168,0 -3.552,0.072 h -0.264 v -1.104 h 0.528 q 0.936,0 1.584,-0.072 0.288,-0.072 0.408,-0.264 0.048,-0.072 0.048,-6.768 0,-6.672 -0.048,-6.744 -0.12,-0.192 -0.408,-0.264 -0.648,-0.072 -1.584,-0.072 h -0.528 v -1.104 h 0.264 q 0.384,0.072 3.552,0.072 3.168,0 3.552,-0.072 h 0.264 v 1.104 h -0.528 q -0.936,0 -1.584,0.072 -0.288,0.072 -0.408,0.264 -0.048,0.072 -0.048,6.744 0,6.696 0.048,6.768 0.12,0.192 0.408,0.264 0.648,0.072 1.584,0.072 h 0.528 v 1.104 z"
       style="font-style:normal;font-variant:normal;font-weight:normal;font-stretch:normal;font-size:24px;font-family:KaTeX_Main;-inkscape-font-specification:'KaTeX_Main, Normal';font-variant-ligatures:normal;font-variant-caps:normal;font-variant-numeric:normal;font-feature-settings:normal;text-align:start;writing-mode:lr-tb;text-anchor:start;fill:#ff9c39"
       id="path19456" /><path
       d="m 232.88784,93.779526 q -0.384,-0.072 -3.552,-0.072 -3.168,0 -3.552,0.072 h -0.264 v -1.104 h 0.528 q 0.936,0 1.584,-0.072 0.288,-0.072 0.408,-0.264 0.048,-0.072 0.048,-6.768 0,-6.672 -0.048,-6.744 -0.12,-0.192 -0.408,-0.264 -0.648,-0.072 -1.584,-0.072 h -0.528 v -1.104 h 0.264 q 0.384,0.072 3.552,0.072 3.168,0 3.552,-0.072 h 0.264 v 1.104 h -0.528 q -0.936,0 -1.584,0.072 -0.288,0.072 -0.408,0.264 -0.048,0.072 -0.048,6.744 0,6.696 0.048,6.768 0.12,0.192 0.408,0.264 0.648,0.072 1.584,0.072 h 0.528 v 1.104 z"
       style="font-style:normal;font-variant:normal;font-weight:normal;font-stretch:normal;font-size:24px;font-family:KaTeX_Main;-inkscape-font-specification:'KaTeX_Main, Normal';font-variant-ligatures:normal;font-variant-caps:normal;font-variant-numeric:normal;font-feature-settings:normal;text-align:start;writing-mode:lr-tb;text-anchor:start;fill:#ff9c39"
       id="path19458" /></g><line
     class="st16"
     x1="149.6"
     y1="23.7"
     x2="162"
     y2="23.7"
     id="line18898" /><polyline
     class="st16"
     points="264,24 282,23.7 282,41.7 "
     id="polyline18900" /><line
     class="st16"
     x1="264"
     y1="144"
     x2="282"
     y2="143.7"
     id="line18902" /></svg>