<?xml version="1.0" encoding="UTF-8" standalone="no"?>
<!-- Generator: Adobe Illustrator 19.1.0, SVG Export Plug-In . SVG Version: 6.00 Build 0)  -->

<svg
   xmlns:dc="http://purl.org/dc/elements/1.1/"
   xmlns:cc="http://creativecommons.org/ns#"
   xmlns:rdf="http://www.w3.org/1999/02/22-rdf-syntax-ns#"
   xmlns:svg="http://www.w3.org/2000/svg"
   xmlns="http://www.w3.org/2000/svg"
   xmlns:sodipodi="http://sodipodi.sourceforge.net/DTD/sodipodi-0.dtd"
   xmlns:inkscape="http://www.inkscape.org/namespaces/inkscape"
   version="1.1"
   id="Layer_1"
   x="0px"
   y="0px"
   width="360px"
   height="180px"
   viewBox="0 0 360 180"
   style="enable-background:new 0 0 360 180;"
   xml:space="preserve"
   inkscape:version="0.91 r13725"
   sodipodi:docname="mesh_current3.svg"><metadata
     id="metadata6347"><rdf:RDF><cc:Work
         rdf:about=""><dc:format>image/svg+xml</dc:format><dc:type
           rdf:resource="http://purl.org/dc/dcmitype/StillImage" /><dc:title></dc:title></cc:Work></rdf:RDF></metadata><defs
     id="defs6345" /><sodipodi:namedview
     pagecolor="#ffffff"
     bordercolor="#666666"
     borderopacity="1"
     objecttolerance="10"
     gridtolerance="10"
     guidetolerance="10"
     inkscape:pageopacity="0"
     inkscape:pageshadow="2"
     inkscape:window-width="1277"
     inkscape:window-height="745"
     id="namedview6343"
     showgrid="false"
     inkscape:zoom="3.2251926"
     inkscape:cx="197.38173"
     inkscape:cy="91.878043"
     inkscape:window-x="0"
     inkscape:window-y="0"
     inkscape:window-maximized="0"
     inkscape:current-layer="Layer_1" /><style
     type="text/css"
     id="style5993">
	.st0{fill:none;stroke:#11ACCD;stroke-width:3;stroke-miterlimit:10;}
	.st1{opacity:0.5;fill:#CCFAFF;}
	.st2{fill:none;stroke:#000000;stroke-linecap:round;stroke-linejoin:round;stroke-miterlimit:10;}
	.st3{fill:none;stroke:#000000;stroke-width:1.5;stroke-linecap:round;stroke-linejoin:round;stroke-miterlimit:10;}
	.st4{fill:none;stroke:#000000;stroke-linecap:round;stroke-miterlimit:10;}
	.st5{fill:none;stroke:#000000;stroke-width:1.5;stroke-linecap:round;stroke-miterlimit:10;}
	.st6{fill:none;stroke:#000000;stroke-width:2;stroke-linecap:round;stroke-linejoin:round;stroke-miterlimit:10;}
	.st7{fill:none;stroke:#000000;stroke-width:1.5;stroke-miterlimit:10;}
	.st8{fill:none;stroke:#000000;stroke-miterlimit:10;}
	.st9{fill:none;stroke:#000000;stroke-width:2;stroke-miterlimit:10;}
	.st10{fill:none;stroke:#000000;stroke-width:2;stroke-linecap:round;stroke-miterlimit:10;}
	.st11{fill:none;stroke:#000000;stroke-linecap:round;stroke-linejoin:round;}
	.st12{fill:none;}
	.st13{stroke:#000000;stroke-linecap:round;stroke-linejoin:round;stroke-miterlimit:10;}
	.st14{fill:none;stroke:#000000;stroke-width:1.5;stroke-linejoin:round;stroke-miterlimit:10;}
	.st15{fill:none;stroke:#000000;stroke-linejoin:round;stroke-miterlimit:10;}
	.st16{clip-path:url(#SVGID_2_);fill:none;stroke:#000000;stroke-linejoin:round;stroke-miterlimit:10;}
	.st17{clip-path:url(#SVGID_2_);fill:none;stroke:#ADADEB;stroke-linejoin:round;stroke-miterlimit:10;}
	.st18{clip-path:url(#SVGID_2_);}
	.st19{stroke:#000000;stroke-linejoin:round;stroke-miterlimit:10;}
	.st20{stroke:#000000;stroke-width:3;stroke-linejoin:round;stroke-miterlimit:10;}
	.st21{fill:none;stroke:#000000;stroke-linejoin:round;}
	.st22{fill:#FFFFFF;stroke:#000000;stroke-miterlimit:10;}
	.st23{fill:none;stroke:#11ACCD;stroke-width:3;stroke-linecap:round;stroke-miterlimit:10;}
	.st24{fill:#11ACCD;}
	.st25{fill:#0C7F99;}
	.st26{fill:#FF9C39;}
	.st27{fill:none;stroke:#000000;stroke-width:2;stroke-linecap:round;stroke-miterlimit:10;stroke-dasharray:6.1241,6.1241;}
	.st28{fill:none;stroke:#11ACCD;stroke-width:4;stroke-linecap:round;stroke-miterlimit:10;}
	.st29{fill:#1FAB54;}
	.st30{fill:none;stroke:#1FAB54;stroke-width:3;stroke-linecap:round;stroke-miterlimit:10;}
	.st31{fill:none;stroke:#1FAB54;stroke-width:4;stroke-linecap:round;stroke-miterlimit:10;}
	.st32{fill:none;stroke:#11ACCD;stroke-width:3;stroke-linecap:round;stroke-linejoin:round;}
	.st33{fill:none;stroke:#11ACCD;stroke-width:2;stroke-linecap:round;stroke-linejoin:round;}
	.st34{fill:none;stroke:#11ACCD;stroke-width:2;stroke-linecap:round;stroke-linejoin:round;stroke-dasharray:5.9723,5.9723;}
	.st35{fill:#E07D10;}
	.st36{fill:#BABEC2;}
	.st37{font-family:'KaTeX_Main-Regular';}
	.st38{font-size:18px;}
	.st39{letter-spacing:1;}
	.st40{fill:#9ECCD6;}
	.st41{fill:none;stroke:#BABEC2;stroke-width:2;stroke-linecap:round;stroke-linejoin:round;stroke-miterlimit:10;}
	.st42{fill:none;stroke:#BABEC2;stroke-linecap:round;stroke-linejoin:round;stroke-miterlimit:10;}
	.st43{fill:none;stroke:#BABEC2;stroke-width:1.5;stroke-linecap:round;stroke-linejoin:round;stroke-miterlimit:10;}
	.st44{fill:none;stroke:#BABEC2;stroke-width:0;stroke-miterlimit:10;}
	.st45{fill:none;stroke:#A0DEEB;stroke-width:3;stroke-linecap:round;stroke-linejoin:round;}
	.st46{fill:#A0DEEB;}
	.st47{font-family:'KaTeX_Main-Italic';}
	.st48{font-size:21px;}
	.st49{fill:#F3CB9F;}
	.st50{fill:#A5DDBB;}
	.st51{fill:none;stroke:#CCFAFF;stroke-width:3;stroke-linecap:round;stroke-linejoin:round;}
	.st52{fill:#CCFAFF;}
	.st53{fill:#FFBB71;}
	.st54{stroke:#000000;stroke-miterlimit:10;}
</style><text
     transform="matrix(1 0 0 1 6.0002 107.9996)"
     id="text5995"><tspan
       x="0"
       y="0"
       class="st36 st37 st38 st39"
       id="tspan5997">5</tspan><tspan
       x="10.8"
       y="0"
       class="st36 st37 st38"
       id="tspan5999">V</tspan></text>
<text
     transform="matrix(1 0 0 1 108.5996 23.9992)"
     id="text6001"><tspan
       x="0"
       y="0"
       class="st36 st37 st38 st39"
       id="tspan6003">2</tspan><tspan
       x="10.8"
       y="0"
       class="st36 st37 st38"
       id="tspan6005">kΩ</tspan></text>
<text
     transform="matrix(1 0 0 1 137.313 154.9996)"
     id="text6007"><tspan
       x="0"
       y="0"
       class="st37 st38 st39"
       id="tspan6009">1</tspan><tspan
       x="10.8"
       y="0"
       class="st37 st38"
       id="tspan6011">kΩ</tspan></text>
<text
     transform="matrix(1 0 0 1 221.9995 23.9996)"
     id="text6013"><tspan
       x="0"
       y="0"
       class="st37 st38 st39"
       id="tspan6015">2</tspan><tspan
       x="10.8"
       y="0"
       class="st37 st38"
       id="tspan6017">kΩ</tspan></text>
<text
     transform="matrix(1 0 0 1 329.9994 107.9996)"
     id="text6019"><tspan
       x="0"
       y="0"
       class="st37 st38 st39"
       id="tspan6021">2</tspan><tspan
       x="10.8"
       y="0"
       class="st37 st38"
       id="tspan6023">V</tspan></text>
<g
     id="g6025"><circle
       class="st6"
       cx="306"
       cy="102"
       r="18"
       id="circle6027" /><polyline
       class="st2"
       points="288,42 306,42 306,60 306,84  "
       id="polyline6029" /><polyline
       class="st2"
       points="306,120 306,144 306,162 180,162  "
       id="polyline6031" /><line
       class="st3"
       x1="306"
       y1="88.5"
       x2="306"
       y2="100.5"
       id="line6033" /><line
       class="st3"
       x1="300"
       y1="94.5"
       x2="312"
       y2="94.5"
       id="line6035" /><line
       class="st3"
       x1="300"
       y1="112.5"
       x2="312"
       y2="112.5"
       id="line6037" /></g><circle
     class="st1"
     cx="120"
     cy="102"
     r="24"
     id="circle6039" /><text
     transform="matrix(1 0 0 1 116.7509 107.9996)"
     class="st40 st37 st38"
     id="text6041"
     style="fill:#0c7f99;fill-opacity:1;">I</text>
<circle
     class="st1"
     cx="239.3"
     cy="102"
     r="24"
     id="circle6043" /><text
     transform="matrix(1 0 0 1 232.8154 107.9996)"
     class="st25 st37 st38"
     id="text6045">II</text>
<g
     id="g6047"><circle
       class="st41"
       cx="54"
       cy="102"
       r="18"
       id="circle6049" /><polyline
       class="st42"
       points="54,84 54,60 54,42 72,42  "
       id="polyline6051" /><polyline
       class="st42"
       points="54,120 53.8,162 180,162  "
       id="polyline6053" /><line
       class="st43"
       x1="54"
       y1="88.5"
       x2="54"
       y2="100.5"
       id="line6055" /><line
       class="st43"
       x1="48"
       y1="94.5"
       x2="60"
       y2="94.5"
       id="line6057" /><line
       class="st43"
       x1="48"
       y1="112.5"
       x2="60"
       y2="112.5"
       id="line6059" /></g><g
     id="g6061"><line
       class="st42"
       x1="149.2"
       y1="42"
       x2="179"
       y2="42"
       id="line6063" /><polyline
       class="st41"
       points="102.4,42 106.3,33 114.1,51 121.9,33 129.7,51 137.5,33 145.3,51 149.2,42  "
       id="polyline6065" /><line
       class="st42"
       x1="72"
       y1="42"
       x2="102.4"
       y2="42"
       id="line6067" /><polygon
       class="st44"
       points="179,54 179.2,30 72,30 72,54  "
       id="polygon6069" /></g><g
     id="g6071"><line
       class="st2"
       x1="258"
       y1="42"
       x2="287.8"
       y2="42"
       id="line6073" /><polyline
       class="st6"
       points="211.2,42 215.1,33 222.9,51 230.7,33 238.5,51 246.3,33 254.1,51 258,42  "
       id="polyline6075" /><line
       class="st2"
       x1="180.8"
       y1="42"
       x2="211.2"
       y2="42"
       id="line6077" /><polygon
       class="st12"
       points="287.8,54 288,30 180.8,30 180.8,54  "
       id="polygon6079" /></g><g
     id="g6081"><line
       class="st2"
       x1="179.8"
       y1="78.6"
       x2="179.8"
       y2="60"
       id="line6083" /><polyline
       class="st6"
       points="179.8,125.4 170.8,121.5 188.8,113.7 170.8,105.9 188.8,98.1 170.8,90.3 188.8,82.5 179.8,78.6  "
       id="polyline6085" /><line
       class="st2"
       x1="179.8"
       y1="162"
       x2="179.8"
       y2="125.4"
       id="line6087" /><rect
       x="167.8"
       y="60"
       class="st12"
       width="24"
       height="102"
       id="rect6089" /></g><g
     id="g6091"><circle
       class="st13"
       cx="179.8"
       cy="42"
       r="1.5"
       id="circle6093" /><rect
       x="173.8"
       y="36"
       class="st12"
       width="12"
       height="12"
       id="rect6095" /></g><g
     id="g6097"><circle
       class="st13"
       cx="179.8"
       cy="162"
       r="1.5"
       id="circle6099" /><rect
       x="173.8"
       y="156"
       class="st12"
       width="12"
       height="12"
       id="rect6101" /></g><line
     class="st2"
     x1="179.6"
     y1="60"
     x2="179.6"
     y2="42"
     id="line6103" /><g
     id="g6105"
     style="stroke:#11accd;stroke-opacity:1"><g
       id="g6107"
       style="stroke:#11accd;stroke-opacity:1"><path
         class="st45"
         d="M96.2,135.6c6.8,4.7,15,7.4,23.8,7.4c23.2,0,42-18.8,42-42s-18.8-42-42-42c-23.2,0-42,18.8-42,42    c0,11.8,4.8,22.4,12.6,30"
         id="path6109"
         style="stroke:#11accd;stroke-opacity:1" /><g
         id="g6111"
         style="stroke:#11accd;stroke-opacity:1"><path
           class="st46"
           d="M 91.015117,131.50594 C 92.915117,134.60594 94.4,138.5 95,141.9 l 2,-5.7 5.2,-3.1 c -3.5,0.1 -7.784883,-0.39406 -11.184883,-1.59406 z"
           id="path6113"
           inkscape:connector-curvature="0"
           style="fill:#11accd;fill-opacity:1;stroke:#11accd;stroke-opacity:1"
           sodipodi:nodetypes="ccccc" /></g></g></g><g
     id="g6115"><g
       id="g6117"><path
         class="st32"
         d="M215.5,135.6c6.8,4.7,15,7.4,23.8,7.4c23.2,0,42-18.8,42-42s-18.8-42-42-42c-23.2,0-42,18.8-42,42    c0,11.8,4.8,22.4,12.6,30"
         id="path6119" /><g
         id="g6121"><path
           class="st24"
           d="M209.9,131c1.9,3.1,3.8,7.5,4.4,10.9l2-5.7l5.2-3.1C218,133.2,213.4,132.2,209.9,131z"
           id="path6123" /></g></g></g><text
     transform="matrix(1 0 0 1 77.9999 144.0001)"
     class="st40 st47 st48"
     id="text6125">i</text>
<text
     transform="matrix(0.583 0 0 0.583 84.4472 150.9932)"
     class="st40 st37 st48"
     id="text6127">I</text>
<text
     transform="matrix(1 0 0 1 197.9996 144.0001)"
     class="st25 st47 st48"
     id="text6129">i</text>
<text
     transform="matrix(0.583 0 0 0.583 204.4469 150.9932)"
     class="st25 st37 st48"
     id="text6131">II</text>
<g
     id="g6133"><g
       id="g6135"><path
         class="st49"
         d="M85.7,22.8c-0.1,3.8,0.1,7.5,0.4,11.3c0.2,1.9,3.2,1.9,3,0c-0.3-3.7-0.4-7.5-0.4-11.3    C88.7,20.8,85.7,20.8,85.7,22.8L85.7,22.8z"
         id="path6137" /></g></g><g
     id="g6139"><g
       id="g6141"><path
         class="st49"
         d="M80.9,31.2c4-1.2,8-1.7,12.1-1.4c1.9,0.1,1.9-2.9,0-3c-4.4-0.3-8.7,0.2-12.9,1.5    C78.3,28.9,79.1,31.8,80.9,31.2L80.9,31.2z"
         id="path6143" /></g></g><g
     id="g6145"><g
       id="g6147"><path
         class="st49"
         d="M153.2,30.4c2.2-1.2,4.7-1.7,7.2-1.4c1.9,0.3,2.7-2.6,0.8-2.9c-3.3-0.5-6.5,0-9.5,1.7    C149.9,28.7,151.5,31.3,153.2,30.4L153.2,30.4z"
         id="path6149" /></g></g><g
     id="g6151"><g
       id="g6153"><path
         class="st35"
         d="M168.9,65.7c0.1,2.9,0.1,5.8,0.2,8.8c0,1.9,3,1.9,3,0c-0.1-2.9-0.1-5.8-0.2-8.8    C171.9,63.8,168.9,63.8,168.9,65.7L168.9,65.7z"
         id="path6155" /></g></g><g
     id="g6157"><g
       id="g6159"><path
         class="st35"
         d="M165.1,70.7c3.1-0.6,6.2-0.8,9.4-0.4c1.9,0.2,1.9-2.8,0-3c-3.4-0.4-6.8-0.2-10.2,0.5    C162.4,68.2,163.2,71.1,165.1,70.7L165.1,70.7z"
         id="path6161" /></g></g><g
     id="g6163"><g
       id="g6165"><path
         class="st35"
         d="M166,135.8c3.2-0.1,6.3-0.2,9.5-0.3c1.9-0.1,1.9-3.1,0-3c-3.2,0.1-6.3,0.2-9.5,0.3    C164.1,132.9,164.1,135.9,166,135.8L166,135.8z"
         id="path6167" /></g></g><g
     id="g6169"><g
       id="g6171"><path
         class="st35"
         d="M199.2,26.6c0.4,2.9,0.9,5.9,1.3,8.8c0.3,1.9,3.2,1.1,2.9-0.8c-0.4-2.9-0.9-5.9-1.3-8.8    C201.8,23.9,198.9,24.7,199.2,26.6L199.2,26.6z"
         id="path6173" /></g></g><g
     id="g6175"><g
       id="g6177"><path
         class="st35"
         d="M197.4,33.5c3.2-0.6,6.3-1.2,9.5-1.6c1.9-0.3,1.1-3.2-0.8-2.9c-3.2,0.5-6.4,1-9.5,1.6    C194.7,31,195.5,33.9,197.4,33.5L197.4,33.5z"
         id="path6179" /></g></g><g
     id="g6181"><g
       id="g6183"><path
         class="st35"
         d="M262.1,33c3.4,0.1,6.8,0.1,10.2-0.1c1.9-0.1,1.9-3.1,0-3c-3.4,0.2-6.8,0.2-10.2,0.1    C260.1,29.9,260.1,32.9,262.1,33L262.1,33z"
         id="path6185" /></g></g><g
     id="g6187"><g
       id="g6189"><path
         class="st50"
         d="M74.5,38.9c2.7,0.1,5.2,2.6,7.2,4.2c-0.1-0.8-0.2-1.6-0.3-2.4c-2.2,1.8-4.5,3.5-6.9,5    c-1.6,1-0.1,3.6,1.5,2.6c2.6-1.7,5.1-3.5,7.5-5.5c0.8-0.7,0.4-1.8-0.3-2.4c-2.7-2-5.2-4.5-8.8-4.6C72.5,35.8,72.6,38.8,74.5,38.9    L74.5,38.9z"
         id="path6191" /></g></g><g
     id="g6193"><g
       id="g6195"><path
         class="st50"
         d="M78.4,40.6c-3,0.7-6,1.4-9,2.3c-1.5,0.5-2.3,0.5-4,0.4c-1.9-0.2-1.9,2.8,0,3c4.6,0.5,9.3-1.6,13.7-2.7    C81.1,43,80.3,40.1,78.4,40.6L78.4,40.6z"
         id="path6197" /></g></g><g
     id="g6199"><g
       id="g6201"><path
         class="st29"
         d="M180.3,65.5c-1.1-2.6-2.6-4.9-4.5-7.1c-1.2-1.5-3.4,0.7-2.1,2.1c1.6,2,3,4.1,4,6.5    C178.5,68.8,181.1,67.2,180.3,65.5L180.3,65.5z"
         id="path6203" /></g></g><g
     id="g6205"><g
       id="g6207"><path
         class="st29"
         d="M178,65.7c0.1,0.2,0.2,0.3,0.3,0.5c0.5,0.7,1.7,1.1,2.4,0.3c1.9-2.2,3.9-4.3,6.2-6.1    c1.5-1.2-0.6-3.3-2.1-2.1c-2.2,1.9-4.3,3.9-6.2,6.1c0.8,0.1,1.6,0.2,2.4,0.3c-0.1-0.2-0.2-0.3-0.3-0.5    C179.5,62.6,176.9,64.1,178,65.7L178,65.7z"
         id="path6209" /></g></g><g
     id="g6211"><g
       id="g6213"><path
         class="st29"
         d="M180,64c-0.2-5,0.3-9.8,1.4-14.6c0.5-1.9-2.4-2.7-2.9-0.8c-1.2,5.1-1.8,10.2-1.5,15.4    C177.1,65.9,180.1,65.9,180,64L180,64z"
         id="path6215" /></g></g><g
     id="g6217"><g
       id="g6219"><path
         class="st29"
         d="M196.4,42.7c1.2-1.8-0.6-3.3-1.8-4.5c-1.9-1.8-3.7-3.7-5.5-5.6c-1.3-1.4-3.4,0.7-2.1,2.1    c1.1,1.2,2.3,2.4,3.5,3.6c0.6,0.6,1.2,1.2,1.8,1.8c0.3,0.3,1.3,1.6,1.6,1.1C192.7,42.8,195.3,44.3,196.4,42.7L196.4,42.7z"
         id="path6221" /></g></g><g
     id="g6223"><g
       id="g6225"><path
         class="st29"
         d="M192.9,41.8c-1.6,2.6-3.2,5.3-4.8,7.9c-1,1.7,1.6,3.2,2.6,1.5c1.6-2.6,3.2-5.3,4.8-7.9    C196.5,41.6,193.9,40.1,192.9,41.8L192.9,41.8z"
         id="path6227" /></g></g><g
     id="g6229"><g
       id="g6231"><path
         class="st29"
         d="M193,40.2c-2.8,0-5.7,0-8.5,0c-1.9,0-1.9,3,0,3c2.8,0,5.7,0,8.5,0C194.9,43.2,194.9,40.2,193,40.2L193,40.2z    "
         id="path6233" /></g></g><g
     id="g6235"
     style="fill:#11accd;fill-opacity:1"><g
       id="g6237"
       style="fill:#11accd;fill-opacity:1"><path
         class="st46"
         d="M163.1,100.9c-2.2-2.7-4.5-5.1-7.2-7.3c-1.5-1.2-3.6,0.9-2.1,2.1c2.6,2.2,5,4.7,7.2,7.3    C162.2,104.6,164.3,102.4,163.1,100.9L163.1,100.9z"
         id="path6239"
         style="fill:#11accd;fill-opacity:1" /></g></g><g
     id="g6241"
     style="fill:#11accd;fill-opacity:1"><g
       id="g6243"
       style="fill:#11accd;fill-opacity:1"><path
         class="st46"
         d="M163.5,102.4c1-2.7,2.4-5.2,4.1-7.5c1.1-1.6-1.5-3.1-2.6-1.5c-1.9,2.5-3.3,5.3-4.5,8.2    C159.9,103.4,162.8,104.2,163.5,102.4L163.5,102.4z"
         id="path6245"
         style="fill:#11accd;fill-opacity:1" /></g></g><g
     id="g6247"><g
       id="g6249"><path
         class="st24"
         d="M196,93.8c-2.5,2.4-4.8,5.1-6.9,7.9c-1.1,1.6,1.5,3.1,2.6,1.5c1.9-2.6,4.1-5.1,6.4-7.3    C199.5,94.5,197.4,92.4,196,93.8L196,93.8z"
         id="path6251" /></g></g><g
     id="g6253"><g
       id="g6255"><path
         class="st24"
         d="M196.2,95.5c2.7,2.3,5,4.9,7.1,7.8c1.1,1.6,3.7,0.1,2.6-1.5c-2.2-3.1-4.7-5.9-7.6-8.4    C196.9,92.1,194.8,94.2,196.2,95.5L196.2,95.5z"
         id="path6257" /></g></g><g
     id="g6259"
     style="fill:#11accd;fill-opacity:1"><g
       id="g6261"
       style="fill:#11accd;fill-opacity:1"><path
         class="st46"
         d="M123.2,59c0.2-1.7-1.3-2.8-2.4-3.9c-1.3-1.3-2.7-2.7-4-4c-1.4-1.4-3.5,0.8-2.1,2.1c1,1,1.9,1.9,2.9,2.9    c0.4,0.4,0.9,0.9,1.3,1.3c0.3,0.3,1.4,1.1,1.3,1.6C120,60.9,123,60.9,123.2,59L123.2,59z"
         id="path6263"
         style="fill:#11accd;fill-opacity:1" /></g></g><g
     id="g6265"
     style="fill:#11accd;fill-opacity:1"><g
       id="g6267"
       style="fill:#11accd;fill-opacity:1"><path
         class="st46"
         d="M120.7,58.6c-1.8,2.3-3.7,4.6-5.5,6.9c-1.2,1.5,0.9,3.6,2.1,2.1c1.8-2.3,3.7-4.6,5.5-6.9    C124,59.2,121.9,57.1,120.7,58.6L120.7,58.6z"
         id="path6269"
         style="fill:#11accd;fill-opacity:1" /></g></g><g
     id="g6271"><g
       id="g6273"><path
         class="st24"
         d="M239.2,57.1c-2-1.3-4-2.6-6-3.9c-1.6-1.1-3.1,1.5-1.5,2.6c2,1.3,4,2.6,6,3.9    C239.3,60.7,240.8,58.1,239.2,57.1L239.2,57.1z"
         id="path6275" /></g></g><g
     id="g6277"><g
       id="g6279"><path
         class="st24"
         d="M236.4,58.6c-1.8,2.1-3.5,4.4-5,6.8c-1,1.6,1.6,3.1,2.6,1.5c1.4-2.2,2.9-4.2,4.6-6.2    C239.8,59.3,237.6,57.2,236.4,58.6L236.4,58.6z"
         id="path6281" /></g></g><g
     id="g6283"><g
       id="g6285"><path
         class="st24"
         d="M281.4,100.4c-2.2-1.3-4.2-2.9-6.1-4.7c-1.4-1.4-3.5,0.7-2.1,2.1c2,2,4.2,3.8,6.7,5.2    C281.6,104,283.1,101.4,281.4,100.4L281.4,100.4z"
         id="path6287" /></g></g><g
     id="g6289"><g
       id="g6291"><path
         class="st24"
         d="M282.4,103.3c1.8-3.6,4-7,6.7-10c1.3-1.4-0.8-3.6-2.1-2.1c-2.9,3.2-5.3,6.7-7.1,10.6    C279,103.5,281.6,105,282.4,103.3L282.4,103.3z"
         id="path6293" /></g></g><g
     id="g6295"
     style="fill:#11accd;fill-opacity:1"><g
       id="g6297"
       style="fill:#11accd;fill-opacity:1"><path
         class="st46"
         d="M75.6,97.6c-3.4,3.1-6.2,6.8-8.4,10.9c-0.9,1.7,1.7,3.2,2.6,1.5c2-3.9,4.7-7.3,7.9-10.3    C79.2,98.4,77.1,96.3,75.6,97.6L75.6,97.6z"
         id="path6299"
         style="fill:#11accd;fill-opacity:1" /></g></g><g
     id="g6301"
     style="fill:#11accd;fill-opacity:1"><g
       id="g6303"
       style="fill:#11accd;fill-opacity:1"><path
         class="st46"
         d="M78.3,100.8c-1,0-1.1,0.2-0.4,0.6c0.3,0.3,0.6,0.6,0.9,0.8c0.6,0.6,1.2,1.1,1.7,1.7c1.2,1.1,2.3,2.3,3.5,3.4    c1.4,1.4,3.5-0.8,2.1-2.1c-1.9-1.8-3.7-3.7-5.6-5.5c-1.1-1.1-2.8-2.6-4.3-1.1C74.8,100.1,76.9,102.2,78.3,100.8L78.3,100.8z"
         id="path6305"
         style="fill:#11accd;fill-opacity:1" /></g></g><g
     id="g6307"><g
       id="g6309"><path
         class="st35"
         d="M326.6,73.7c-0.3,3.9,0,7.7,0.7,11.5c0.4,1.9,3.2,1.1,2.9-0.8c-0.7-3.5-0.8-7.1-0.6-10.7    C329.7,71.7,326.7,71.7,326.6,73.7L326.6,73.7z"
         id="path6311" /></g></g><g
     id="g6313"><g
       id="g6315"><path
         class="st35"
         d="M324.6,80.7c2.7-1.4,5.6-2,8.7-1.9c1.9,0.1,1.9-2.9,0-3c-3.6-0.1-7,0.7-10.2,2.4    C321.4,79,322.9,81.6,324.6,80.7L324.6,80.7z"
         id="path6317" /></g></g><g
     id="g6319"><g
       id="g6321"><path
         class="st35"
         d="M326.6,126.4c2.8-0.7,5.7-1,8.6-0.9c1.9,0.1,1.9-2.9,0-3c-3.2-0.1-6.3,0.2-9.4,1    C324,124,324.8,126.9,326.6,126.4L326.6,126.4z"
         id="path6323" /></g></g><g
     id="g6325"><g
       id="g6327"><path
         class="st49"
         d="M28.2,80.9c0.5,3,1,6,1.6,9c0.3,1.9,3.2,1.1,2.9-0.8c-0.5-3-1-6-1.6-9C30.7,78.2,27.8,79,28.2,80.9    L28.2,80.9z"
         id="path6329" /></g></g><g
     id="g6331"><g
       id="g6333"><path
         class="st49"
         d="M26.2,87.7c3.3-1.1,6.6-1.5,10-1.4c1.9,0.1,1.9-2.9,0-3c-3.7-0.2-7.3,0.3-10.8,1.5    C23.6,85.4,24.4,88.3,26.2,87.7L26.2,87.7z"
         id="path6335" /></g></g><g
     id="g6337"><g
       id="g6339"><path
         class="st49"
         d="M28.5,128.5c2.9-0.1,5.8-0.1,8.8,0.1c1.9,0.1,1.9-2.9,0-3c-2.9-0.2-5.8-0.2-8.8-0.1    C26.6,125.6,26.6,128.6,28.5,128.5L28.5,128.5z"
         id="path6341" /></g></g></svg>