<?xml version="1.0" encoding="UTF-8" standalone="no"?>
<!-- Generator: Adobe Illustrator 19.1.0, SVG Export Plug-In . SVG Version: 6.00 Build 0)  -->

<svg
   xmlns:dc="http://purl.org/dc/elements/1.1/"
   xmlns:cc="http://creativecommons.org/ns#"
   xmlns:rdf="http://www.w3.org/1999/02/22-rdf-syntax-ns#"
   xmlns:svg="http://www.w3.org/2000/svg"
   xmlns="http://www.w3.org/2000/svg"
   xmlns:sodipodi="http://sodipodi.sourceforge.net/DTD/sodipodi-0.dtd"
   xmlns:inkscape="http://www.inkscape.org/namespaces/inkscape"
   version="1.1"
   id="Layer_1"
   x="0px"
   y="0px"
   width="376.64243"
   height="185.8398"
   viewBox="0 0 376.64243 185.8398"
   xml:space="preserve"
   inkscape:version="0.91 r13725"
   sodipodi:docname="mesh_current6.svg"><metadata
     id="metadata4503"><rdf:RDF><cc:Work
         rdf:about=""><dc:format>image/svg+xml</dc:format><dc:type
           rdf:resource="http://purl.org/dc/dcmitype/StillImage" /><dc:title></dc:title></cc:Work></rdf:RDF></metadata><defs
     id="defs4501" /><sodipodi:namedview
     pagecolor="#ffffff"
     bordercolor="#666666"
     borderopacity="1"
     objecttolerance="10"
     gridtolerance="10"
     guidetolerance="10"
     inkscape:pageopacity="0"
     inkscape:pageshadow="2"
     inkscape:window-width="1250"
     inkscape:window-height="731"
     id="namedview4499"
     showgrid="false"
     inkscape:zoom="1.8001159"
     inkscape:cx="188.32121"
     inkscape:cy="92.919896"
     inkscape:window-x="0"
     inkscape:window-y="0"
     inkscape:window-maximized="0"
     inkscape:current-layer="Layer_1"
     fit-margin-top="10"
     fit-margin-right="10"
     fit-margin-bottom="10"
     fit-margin-left="10" /><style
     type="text/css"
     id="style4339">
	.st0{fill:none;stroke:#11ACCD;stroke-width:3;stroke-miterlimit:10;}
	.st1{opacity:0.5;fill:#CCFAFF;}
	.st2{fill:none;stroke:#000000;stroke-linecap:round;stroke-linejoin:round;stroke-miterlimit:10;}
	.st3{fill:none;stroke:#000000;stroke-width:1.5;stroke-linecap:round;stroke-linejoin:round;stroke-miterlimit:10;}
	.st4{fill:none;stroke:#000000;stroke-linecap:round;stroke-miterlimit:10;}
	.st5{fill:none;stroke:#000000;stroke-width:1.5;stroke-linecap:round;stroke-miterlimit:10;}
	.st6{fill:none;stroke:#000000;stroke-width:2;stroke-linecap:round;stroke-linejoin:round;stroke-miterlimit:10;}
	.st7{fill:none;stroke:#000000;stroke-width:1.5;stroke-miterlimit:10;}
	.st8{fill:none;stroke:#000000;stroke-miterlimit:10;}
	.st9{fill:none;stroke:#000000;stroke-width:2;stroke-miterlimit:10;}
	.st10{fill:none;stroke:#000000;stroke-width:2;stroke-linecap:round;stroke-miterlimit:10;}
	.st11{fill:none;stroke:#000000;stroke-linecap:round;stroke-linejoin:round;}
	.st12{fill:none;}
	.st13{stroke:#000000;stroke-linecap:round;stroke-linejoin:round;stroke-miterlimit:10;}
	.st14{fill:none;stroke:#000000;stroke-width:1.5;stroke-linejoin:round;stroke-miterlimit:10;}
	.st15{fill:none;stroke:#000000;stroke-linejoin:round;stroke-miterlimit:10;}
	.st16{clip-path:url(#SVGID_2_);fill:none;stroke:#000000;stroke-linejoin:round;stroke-miterlimit:10;}
	.st17{clip-path:url(#SVGID_2_);fill:none;stroke:#ADADEB;stroke-linejoin:round;stroke-miterlimit:10;}
	.st18{clip-path:url(#SVGID_2_);}
	.st19{stroke:#000000;stroke-linejoin:round;stroke-miterlimit:10;}
	.st20{stroke:#000000;stroke-width:3;stroke-linejoin:round;stroke-miterlimit:10;}
	.st21{fill:none;stroke:#000000;stroke-linejoin:round;}
	.st22{fill:#FFFFFF;stroke:#000000;stroke-miterlimit:10;}
	.st23{fill:none;stroke:#11ACCD;stroke-width:3;stroke-linecap:round;stroke-miterlimit:10;}
	.st24{fill:#11ACCD;}
	.st25{fill:#0C7F99;}
	.st26{fill:#FF9C39;}
	.st27{fill:none;stroke:#000000;stroke-width:2;stroke-linecap:round;stroke-miterlimit:10;stroke-dasharray:6.1241,6.1241;}
	.st28{fill:none;stroke:#11ACCD;stroke-width:4;stroke-linecap:round;stroke-miterlimit:10;}
	.st29{fill:none;stroke:#11ACCD;stroke-width:3;stroke-linecap:round;stroke-linejoin:round;}
	.st30{fill:none;stroke:#11ACCD;stroke-width:2;stroke-linecap:round;stroke-linejoin:round;}
	.st31{fill:none;stroke:#11ACCD;stroke-width:2;stroke-linecap:round;stroke-linejoin:round;stroke-dasharray:5.9723,5.9723;}
	.st32{font-family:'KaTeX_Main-Regular';}
	.st33{font-size:18px;}
	.st34{letter-spacing:1;}
	.st35{font-family:'KaTeX_Main-Italic';}
	.st36{font-size:14px;}
	.st37{fill:#E07D10;}
	.st38{stroke:#000000;stroke-miterlimit:10;}
</style><g
     style="font-style:normal;font-variant:normal;font-weight:normal;font-stretch:normal;font-size:22.5px;line-height:125%;font-family:KaTeX_Main;-inkscape-font-specification:'KaTeX_Main, Normal';text-align:start;writing-mode:lr-tb;text-anchor:start"
     id="text4341"><path
       d="m 11.2825,105.0255 q 0.54,0 0.9,0.3825 0.3825,0.36 0.3825,0.9225 0,0.5175 -0.3825,0.8775 -0.3825,0.36 -0.855,0.36 l -0.1575,0 0.0675,0.1125 q 0.3375,0.72 1.035,1.1925 0.6975,0.4725 1.6425,0.4725 1.5975,0 2.295,-1.35 0.4275,-0.8325 0.4275,-2.88 0,-2.3175 -0.6075,-3.1275 -0.585,-0.7425 -1.44,-0.7425 -1.755,0 -2.655,1.53 -0.09,0.1575 -0.18,0.2025 -0.0675,0.0225 -0.315,0.0225 -0.3825,0 -0.4275,-0.135 -0.045,-0.09 -0.045,-3.9375 0,-0.675 -0.0225,-1.5975 0,-0.9225 0,-1.17 0,-1.26 0.135,-1.26 0.045,-0.045 0.09,-0.045 l 0.405,0.135 q 1.4625,0.585 2.9925,0.585 1.5975,0 3.06,-0.63 0.18,-0.09 0.2925,-0.09 0.18,0 0.18,0.405 l 0,0.2925 q -1.8225,2.1825 -4.6125,2.1825 -0.6975,0 -1.26,-0.135 l -0.225,-0.045 0,3.87 q 1.2825,-1.035 2.6325,-1.035 0.4275,0 0.9225,0.1125 1.5075,0.3825 2.4525,1.71 0.9675,1.3275 0.9675,3.105 0,2.0475 -1.44,3.5325 -1.4175,1.485 -3.51,1.485 -1.4175,0 -2.4075,-0.7875 -0.4275,-0.27 -0.7425,-0.7425 -0.675,-0.81 -0.855,-2.0025 0,-0.0675 -0.0225,-0.2025 0,-0.1575 0,-0.225 0,-0.63 0.36,-0.99 0.36,-0.36 0.9225,-0.36 z"
       style="font-style:normal;font-variant:normal;font-weight:normal;font-stretch:normal;font-size:22.5px;line-height:125%;font-family:KaTeX_Main;-inkscape-font-specification:'KaTeX_Main, Normal';text-align:start;letter-spacing:1;writing-mode:lr-tb;text-anchor:start"
       id="path4271" /><path
       d="m 25.240003,95.8905 q -0.2475,-0.2475 -0.45,-0.2925 -0.2025,-0.0675 -1.035,-0.09 l -0.6525,0 0,-1.035 0.2025,0 q 0.315,0.0675 2.79,0.0675 2.7,0 3.195,-0.0675 l 0.2475,0 0,1.035 -0.4725,0 q -1.035,0.0225 -1.2825,0.2475 -0.09,0.0675 -0.09,0.135 0,0.045 2.025,5.58 2.025,5.535 2.0475,5.535 0.8775,-2.3625 1.935,-5.22 1.9125,-5.175 1.9125,-5.3775 0,-0.4275 -0.4725,-0.6525 -0.4725,-0.2475 -1.035,-0.2475 l -0.1125,0 0,-1.035 0.2025,0 q 0.3825,0.0675 2.5875,0.0675 1.935,0 2.1825,-0.0675 l 0.135,0 0,1.035 -0.1575,0 q -1.665,0 -2.16,0.9225 0,0.0225 -2.5425,6.8625 -2.52,6.84 -2.5425,6.8625 -0.0675,0.18 -0.405,0.18 l -0.2025,0 -0.2025,0 q -0.315,0 -0.3825,-0.18 -0.045,-0.045 -2.6325,-7.1325 -2.6325,-7.065 -2.6325,-7.1325 z"
       style="font-style:normal;font-variant:normal;font-weight:normal;font-stretch:normal;font-size:22.5px;line-height:125%;font-family:KaTeX_Main;-inkscape-font-specification:'KaTeX_Main, Normal';text-align:start;writing-mode:lr-tb;text-anchor:start"
       id="path4273" /></g><g
     style="font-style:normal;font-variant:normal;font-weight:normal;font-stretch:normal;font-size:22.5px;line-height:125%;font-family:KaTeX_Main;-inkscape-font-specification:'KaTeX_Main, Normal';text-align:start;writing-mode:lr-tb;text-anchor:start"
     id="text4347"><path
       d="m 113.9493,16.187798 q -0.63,0 -0.99,-0.405 -0.36,-0.405 -0.36,-0.99 0,-1.62 1.215,-2.7675 1.2375,-1.17 2.9475,-1.17 1.935,0 3.195,1.0575 1.2825,1.035 1.575,2.7225 0.045,0.405 0.045,0.7425 0,1.305 -0.7875,2.4525 -0.63,0.945 -2.5425,2.5875 -0.81,0.6975 -2.25,2.07 l -1.3275,1.26 1.71,0.0225 q 3.5325,0 3.7575,-0.1125 0.09,-0.0225 0.225,-0.4725 0.09,-0.2475 0.315,-1.53 l 0,-0.0675 0.9,0 0,0.0675 -0.63,4.1175 0,0.0675 -8.3475,0 0,-0.4275 q 0,-0.45 0.045,-0.5175 0.0225,-0.0225 1.89,-2.1375 2.4525,-2.7225 3.15,-3.6 1.5075,-2.0475 1.5075,-3.7575 0,-1.485 -0.7875,-2.475 -0.765,-1.0125 -2.16,-1.0125 -1.305,0 -2.115,1.17 -0.045,0.09 -0.135,0.2475 -0.0675,0.1125 -0.0675,0.135 0,0.0225 0.1125,0.0225 0.5625,0 0.9,0.405 0.36,0.405 0.36,0.945 0,0.5625 -0.3825,0.9675 -0.36,0.3825 -0.9675,0.3825 z"
       style="font-style:normal;font-variant:normal;font-weight:normal;font-stretch:normal;font-size:22.5px;line-height:125%;font-family:KaTeX_Main;-inkscape-font-specification:'KaTeX_Main, Normal';text-align:start;letter-spacing:1;writing-mode:lr-tb;text-anchor:start"
       id="path4264" /><path
       d="m 126.08429,24.805298 0.315,0 q 0.8775,0 1.0575,-0.315 l 0,-0.18 q 0,-0.2025 0,-0.5175 0,-0.315 0,-0.7425 0.0225,-0.4275 0.0225,-0.9675 0,-0.5625 0,-1.125 0,-0.585 0,-1.2375 0,-0.675 0,-1.2825 0,-0.8325 0,-1.755 0,-0.945 0,-1.6875 0,-0.7425 -0.0225,-1.35 0,-0.63 0,-0.99 0,-0.36 0,-0.3825 -0.0675,-0.4275 -0.3375,-0.5625 -0.2475,-0.1575 -0.99,-0.2025 l -0.405,0 0,-0.5175 q 0,-0.5175 0.045,-0.5175 l 0.225,-0.0225 q 0.225,-0.0225 0.6525,-0.045 0.4275,-0.0225 0.8325,-0.045 0.3825,-0.0225 0.8325,-0.045 0.45,-0.045 0.675,-0.0675 0.225,-0.0225 0.2475,-0.0225 l 0.0675,0 0,5.1975 0.0225,5.175 1.35,-1.215 q 1.35,-1.215 1.44,-1.35 0.135,-0.2025 0.135,-0.3825 0,-0.405 -0.4725,-0.4725 l -0.1125,0 0,-1.035 0.2025,0 q 0.2925,0.0675 2.6775,0.0675 0.1575,0 0.405,0 0.27,-0.0225 0.405,-0.0225 0.135,0 0.3375,0 0.225,-0.0225 0.3375,-0.0225 0.1125,-0.0225 0.135,-0.0225 l 0.1125,0 0,1.035 -0.2925,0 q -1.5525,0.1125 -2.61,0.99 -1.665,1.4175 -1.665,1.5075 0,0.0225 1.4175,2.115 1.44,2.07 1.5975,2.2725 0.315,0.4275 0.6975,0.585 0.405,0.1575 1.1025,0.1575 l 0.2475,0 0,1.035 -0.135,0 q -0.27,-0.0675 -1.9575,-0.0675 -2.205,0 -2.4975,0.0675 l -0.18,0 0,-1.035 0.1575,0 q 0.54,-0.045 0.54,-0.4275 0,-0.1575 -0.09,-0.315 -0.0675,-0.1125 -1.125,-1.665 -1.0575,-1.5525 -1.08,-1.5525 -0.27,0.225 -0.585,0.5175 l -0.585,0.5175 0,1.26 q 0,1.305 0.0225,1.35 0.09,0.18 0.27,0.2475 0.4725,0.0675 1.1025,0.0675 l 0.36,0 0,1.035 -0.18,0 q -0.2475,-0.0675 -2.4525,-0.0675 -2.205,0 -2.4525,0.0675 l -0.18,0 0,-1.035 0.36,0 z"
       style="font-style:normal;font-variant:normal;font-weight:normal;font-stretch:normal;font-size:22.5px;line-height:125%;font-family:KaTeX_Main;-inkscape-font-specification:'KaTeX_Main, Normal';text-align:start;writing-mode:lr-tb;text-anchor:start"
       id="path4266" /><path
       d="m 143.25847,25.390298 q 0,0.2925 -0.1575,0.45 l -4.185,0 0,-0.045 q -0.0225,-0.0225 -0.36,-1.9575 l -0.3825,-1.935 0,-0.045 0.9,0 0.0225,0.1125 q 0,0.1125 0.09,0.4275 0.1575,1.0125 0.3375,1.35 0.09,0.1125 0.1575,0.1575 0.2925,0.1125 1.5075,0.135 l 0.99,0 0,-0.0675 q -0.1125,-0.36 -0.495,-1.1925 -0.36,-0.6975 -1.2375,-2.07 -1.44,-2.3175 -1.8,-3.5325 -0.225,-0.8325 -0.225,-1.5525 0,-0.675 0.18,-1.2825 0.495,-1.6875 2.0925,-2.9025 1.5975,-1.2375 3.735,-1.4175 0.135,-0.0225 0.3375,-0.0225 l 0.3375,0 q 3.1725,0 5.1975,1.7325 1.2825,1.125 1.6875,2.61 0.18,0.6075 0.18,1.2825 0,0.72 -0.225,1.5525 -0.36,1.215 -1.8,3.5325 -0.8775,1.3725 -1.2375,2.07 -0.3825,0.8325 -0.495,1.1925 l 0,0.0675 0.99,0 q 1.215,-0.0225 1.5075,-0.135 0.09,-0.045 0.1575,-0.1575 0.1575,-0.3375 0.3375,-1.35 0.09,-0.315 0.09,-0.4275 l 0.0225,-0.1125 0.9,0 0,0.045 -0.3825,1.935 q -0.3375,1.935 -0.36,1.9575 l 0,0.045 -2.07,0 q -1.665,0 -1.935,0 -0.2475,-0.0225 -0.2925,-0.135 -0.045,-0.09 -0.045,-0.315 0,-0.6525 0.2025,-1.7775 0.18,-0.9 0.8775,-3.0375 0.72,-2.1825 0.945,-3.42 0.1575,-0.945 0.1575,-1.5525 0,-3.1725 -2.3175,-4.3425 -0.945,-0.45 -1.89,-0.45 -2.295,0 -3.51,1.9125 -0.6975,1.1025 -0.6975,2.8575 0,0.765 0.135,1.575 0.225,1.2375 0.945,3.42 0.6975,2.1375 0.8775,3.0375 0.2025,1.1025 0.2025,1.7775 z"
       style="font-style:normal;font-variant:normal;font-weight:normal;font-stretch:normal;font-size:22.5px;line-height:125%;font-family:KaTeX_Main;-inkscape-font-specification:'KaTeX_Main, Normal';text-align:start;writing-mode:lr-tb;text-anchor:start"
       id="path4268" /></g><g
     style="font-style:normal;font-variant:normal;font-weight:normal;font-stretch:normal;font-size:22.5px;line-height:125%;font-family:KaTeX_Main;-inkscape-font-specification:'KaTeX_Main, Normal';text-align:start;writing-mode:lr-tb;text-anchor:start"
     id="text4353"><path
       d="m 227.34921,16.1875 q -0.63,0 -0.99,-0.405 -0.36,-0.405 -0.36,-0.99 0,-1.62 1.215,-2.7675 1.2375,-1.17 2.9475,-1.17 1.935,0 3.195,1.0575 1.2825,1.035 1.575,2.7225 0.045,0.405 0.045,0.7425 0,1.305 -0.7875,2.4525 -0.63,0.945 -2.5425,2.5875 -0.81,0.6975 -2.25,2.07 l -1.3275,1.26 1.71,0.0225 q 3.5325,0 3.7575,-0.1125 0.09,-0.0225 0.225,-0.4725 0.09,-0.2475 0.315,-1.53 l 0,-0.0675 0.9,0 0,0.0675 -0.63,4.1175 0,0.0675 -8.3475,0 0,-0.4275 q 0,-0.45 0.045,-0.5175 0.0225,-0.0225 1.89,-2.1375 2.4525,-2.7225 3.15,-3.6 1.5075,-2.0475 1.5075,-3.7575 0,-1.485 -0.7875,-2.475 -0.765,-1.0125 -2.16,-1.0125 -1.305,0 -2.115,1.17 -0.045,0.09 -0.135,0.2475 -0.0675,0.1125 -0.0675,0.135 0,0.0225 0.1125,0.0225 0.5625,0 0.9,0.405 0.36,0.405 0.36,0.945 0,0.5625 -0.3825,0.9675 -0.36,0.3825 -0.9675,0.3825 z"
       style="font-style:normal;font-variant:normal;font-weight:normal;font-stretch:normal;font-size:22.5px;line-height:125%;font-family:KaTeX_Main;-inkscape-font-specification:'KaTeX_Main, Normal';text-align:start;letter-spacing:1;writing-mode:lr-tb;text-anchor:start"
       id="path4257" /><path
       d="m 239.48421,24.805 0.315,0 q 0.8775,0 1.0575,-0.315 l 0,-0.18 q 0,-0.2025 0,-0.5175 0,-0.315 0,-0.7425 0.0225,-0.4275 0.0225,-0.9675 0,-0.5625 0,-1.125 0,-0.585 0,-1.2375 0,-0.675 0,-1.2825 0,-0.8325 0,-1.755 0,-0.945 0,-1.6875 0,-0.7425 -0.0225,-1.35 0,-0.63 0,-0.99 0,-0.36 0,-0.3825 -0.0675,-0.4275 -0.3375,-0.5625 -0.2475,-0.1575 -0.99,-0.2025 l -0.405,0 0,-0.5175 q 0,-0.5175 0.045,-0.5175 l 0.225,-0.0225 q 0.225,-0.0225 0.6525,-0.045 0.4275,-0.0225 0.8325,-0.045 0.3825,-0.0225 0.8325,-0.045 0.45,-0.045 0.675,-0.0675 0.225,-0.0225 0.2475,-0.0225 l 0.0675,0 0,5.1975 0.0225,5.175 1.35,-1.215 q 1.35,-1.215 1.44,-1.35 0.135,-0.2025 0.135,-0.3825 0,-0.405 -0.4725,-0.4725 l -0.1125,0 0,-1.035 0.2025,0 q 0.2925,0.0675 2.6775,0.0675 0.1575,0 0.405,0 0.27,-0.0225 0.405,-0.0225 0.135,0 0.3375,0 0.225,-0.0225 0.3375,-0.0225 0.1125,-0.0225 0.135,-0.0225 l 0.1125,0 0,1.035 -0.2925,0 q -1.5525,0.1125 -2.61,0.99 -1.665,1.4175 -1.665,1.5075 0,0.0225 1.4175,2.115 1.44,2.07 1.5975,2.2725 0.315,0.4275 0.6975,0.585 0.405,0.1575 1.1025,0.1575 l 0.2475,0 0,1.035 -0.135,0 q -0.27,-0.0675 -1.9575,-0.0675 -2.205,0 -2.4975,0.0675 l -0.18,0 0,-1.035 0.1575,0 q 0.54,-0.045 0.54,-0.4275 0,-0.1575 -0.09,-0.315 -0.0675,-0.1125 -1.125,-1.665 -1.0575,-1.5525 -1.08,-1.5525 -0.27,0.225 -0.585,0.5175 l -0.585,0.5175 0,1.26 q 0,1.305 0.0225,1.35 0.09,0.18 0.27,0.2475 0.4725,0.0675 1.1025,0.0675 l 0.36,0 0,1.035 -0.18,0 q -0.2475,-0.0675 -2.4525,-0.0675 -2.205,0 -2.4525,0.0675 l -0.18,0 0,-1.035 0.36,0 z"
       style="font-style:normal;font-variant:normal;font-weight:normal;font-stretch:normal;font-size:22.5px;line-height:125%;font-family:KaTeX_Main;-inkscape-font-specification:'KaTeX_Main, Normal';text-align:start;writing-mode:lr-tb;text-anchor:start"
       id="path4259" /><path
       d="m 256.65839,25.39 q 0,0.2925 -0.1575,0.45 l -4.185,0 0,-0.045 q -0.0225,-0.0225 -0.36,-1.9575 l -0.3825,-1.935 0,-0.045 0.9,0 0.0225,0.1125 q 0,0.1125 0.09,0.4275 0.1575,1.0125 0.3375,1.35 0.09,0.1125 0.1575,0.1575 0.2925,0.1125 1.5075,0.135 l 0.99,0 0,-0.0675 q -0.1125,-0.36 -0.495,-1.1925 -0.36,-0.6975 -1.2375,-2.07 -1.44,-2.3175 -1.8,-3.5325 -0.225,-0.8325 -0.225,-1.5525 0,-0.675 0.18,-1.2825 0.495,-1.6875 2.0925,-2.9025 1.5975,-1.2375 3.735,-1.4175 Q 257.96339,10 258.16589,10 l 0.3375,0 q 3.1725,0 5.1975,1.7325 1.2825,1.125 1.6875,2.61 0.18,0.6075 0.18,1.2825 0,0.72 -0.225,1.5525 -0.36,1.215 -1.8,3.5325 -0.8775,1.3725 -1.2375,2.07 -0.3825,0.8325 -0.495,1.1925 l 0,0.0675 0.99,0 q 1.215,-0.0225 1.5075,-0.135 0.09,-0.045 0.1575,-0.1575 0.1575,-0.3375 0.3375,-1.35 0.09,-0.315 0.09,-0.4275 l 0.0225,-0.1125 0.9,0 0,0.045 -0.3825,1.935 q -0.3375,1.935 -0.36,1.9575 l 0,0.045 -2.07,0 q -1.665,0 -1.935,0 -0.2475,-0.0225 -0.2925,-0.135 -0.045,-0.09 -0.045,-0.315 0,-0.6525 0.2025,-1.7775 0.18,-0.9 0.8775,-3.0375 0.72,-2.1825 0.945,-3.42 0.1575,-0.945 0.1575,-1.5525 0,-3.1725 -2.3175,-4.3425 -0.945,-0.45 -1.89,-0.45 -2.295,0 -3.51,1.9125 -0.6975,1.1025 -0.6975,2.8575 0,0.765 0.135,1.575 0.225,1.2375 0.945,3.42 0.6975,2.1375 0.8775,3.0375 0.2025,1.1025 0.2025,1.7775 z"
       style="font-style:normal;font-variant:normal;font-weight:normal;font-stretch:normal;font-size:22.5px;line-height:125%;font-family:KaTeX_Main;-inkscape-font-specification:'KaTeX_Main, Normal';text-align:start;writing-mode:lr-tb;text-anchor:start"
       id="path4261" /></g><g
     style="font-style:normal;font-variant:normal;font-weight:normal;font-stretch:normal;font-size:22.5px;line-height:125%;font-family:KaTeX_Main;-inkscape-font-specification:'KaTeX_Main, Normal';text-align:start;writing-mode:lr-tb;text-anchor:start"
     id="text4359"><path
       d="m 338.89242,100.188 q -0.63,0 -0.99,-0.405 -0.36,-0.405 -0.36,-0.99 0,-1.62 1.215,-2.7675 1.2375,-1.17 2.9475,-1.17 1.935,0 3.195,1.0575 1.2825,1.035 1.575,2.7225 0.045,0.405 0.045,0.7425 0,1.305 -0.7875,2.4525 -0.63,0.945 -2.5425,2.5875 -0.81,0.6975 -2.25,2.07 l -1.3275,1.26 1.71,0.0225 q 3.5325,0 3.7575,-0.1125 0.09,-0.0225 0.225,-0.4725 0.09,-0.2475 0.315,-1.53 l 0,-0.0675 0.9,0 0,0.0675 -0.63,4.1175 0,0.0675 -8.3475,0 0,-0.4275 q 0,-0.45 0.045,-0.5175 0.0225,-0.0225 1.89,-2.1375 2.4525,-2.7225 3.15,-3.6 1.5075,-2.0475 1.5075,-3.7575 0,-1.485 -0.7875,-2.475 -0.765,-1.0125 -2.16,-1.0125 -1.305,0 -2.115,1.17 -0.045,0.09 -0.135,0.2475 -0.0675,0.1125 -0.0675,0.135 0,0.0225 0.1125,0.0225 0.5625,0 0.9,0.405 0.36,0.405 0.36,0.945 0,0.5625 -0.3825,0.9675 -0.36,0.3825 -0.9675,0.3825 z"
       style="font-style:normal;font-variant:normal;font-weight:normal;font-stretch:normal;font-size:22.5px;line-height:125%;font-family:KaTeX_Main;-inkscape-font-specification:'KaTeX_Main, Normal';text-align:start;letter-spacing:1;writing-mode:lr-tb;text-anchor:start"
       id="path4252" /><path
       d="m 352.78241,95.8905 q -0.2475,-0.2475 -0.45,-0.2925 -0.2025,-0.0675 -1.035,-0.09 l -0.6525,0 0,-1.035 0.2025,0 q 0.315,0.0675 2.79,0.0675 2.7,0 3.195,-0.0675 l 0.2475,0 0,1.035 -0.4725,0 q -1.035,0.0225 -1.2825,0.2475 -0.09,0.0675 -0.09,0.135 0,0.045 2.025,5.58 2.025,5.535 2.0475,5.535 0.8775,-2.3625 1.935,-5.22 1.9125,-5.175 1.9125,-5.3775 0,-0.4275 -0.4725,-0.6525 -0.4725,-0.2475 -1.035,-0.2475 l -0.1125,0 0,-1.035 0.2025,0 q 0.3825,0.0675 2.5875,0.0675 1.935,0 2.1825,-0.0675 l 0.135,0 0,1.035 -0.1575,0 q -1.665,0 -2.16,0.9225 0,0.0225 -2.5425,6.8625 -2.52,6.84 -2.5425,6.8625 -0.0675,0.18 -0.405,0.18 l -0.2025,0 -0.2025,0 q -0.315,0 -0.3825,-0.18 -0.045,-0.045 -2.6325,-7.1325 -2.6325,-7.065 -2.6325,-7.1325 z"
       style="font-style:normal;font-variant:normal;font-weight:normal;font-stretch:normal;font-size:22.5px;line-height:125%;font-family:KaTeX_Main;-inkscape-font-specification:'KaTeX_Main, Normal';text-align:start;writing-mode:lr-tb;text-anchor:start"
       id="path4254" /></g><g
     id="g4365"
     transform="translate(6.4179119,1.8397998)"><circle
       class="st6"
       cx="306"
       cy="102"
       r="18"
       id="circle4367"
       style="fill:none;stroke:#000000;stroke-width:2;stroke-linecap:round;stroke-linejoin:round;stroke-miterlimit:10" /><polyline
       class="st2"
       points="288,42 306,42 306,60 306,84  "
       id="polyline4369"
       style="fill:none;stroke:#000000;stroke-linecap:round;stroke-linejoin:round;stroke-miterlimit:10" /><polyline
       class="st2"
       points="306,120 306,144 306.2,168  "
       id="polyline4371"
       style="fill:none;stroke:#000000;stroke-linecap:round;stroke-linejoin:round;stroke-miterlimit:10" /><line
       class="st3"
       x1="306"
       y1="88.5"
       x2="306"
       y2="100.5"
       id="line4373"
       style="fill:none;stroke:#000000;stroke-width:1.5;stroke-linecap:round;stroke-linejoin:round;stroke-miterlimit:10" /><line
       class="st3"
       x1="300"
       y1="94.5"
       x2="312"
       y2="94.5"
       id="line4375"
       style="fill:none;stroke:#000000;stroke-width:1.5;stroke-linecap:round;stroke-linejoin:round;stroke-miterlimit:10" /><line
       class="st3"
       x1="300"
       y1="112.5"
       x2="312"
       y2="112.5"
       id="line4377"
       style="fill:none;stroke:#000000;stroke-width:1.5;stroke-linecap:round;stroke-linejoin:round;stroke-miterlimit:10" /></g><circle
     class="st1"
     cx="126.41792"
     cy="103.8398"
     r="24"
     id="circle4379"
     style="opacity:0.5;fill:#ccfaff" /><g
     style="font-style:normal;font-variant:normal;font-weight:normal;font-stretch:normal;font-size:22.5px;line-height:125%;font-family:KaTeX_Main;-inkscape-font-specification:'KaTeX_Main, Normal';text-align:start;writing-mode:lr-tb;text-anchor:start;fill:#0c7f99"
     id="text4381"><path
       d="m 129.74792,111.52354 q -0.36,-0.0675 -3.33,-0.0675 -2.97,0 -3.33,0.0675 l -0.2475,0 0,-1.035 0.495,0 q 0.8775,0 1.485,-0.0675 0.27,-0.0675 0.3825,-0.2475 0.045,-0.0675 0.045,-6.345 0,-6.255003 -0.045,-6.322503 -0.1125,-0.18 -0.3825,-0.2475 -0.6075,-0.0675 -1.485,-0.0675 l -0.495,0 0,-1.035 0.2475,0 q 0.36,0.0675 3.33,0.0675 2.97,0 3.33,-0.0675 l 0.2475,0 0,1.035 -0.495,0 q -0.8775,0 -1.485,0.0675 -0.27,0.0675 -0.3825,0.2475 -0.045,0.0675 -0.045,6.322503 0,6.2775 0.045,6.345 0.1125,0.18 0.3825,0.2475 0.6075,0.0675 1.485,0.0675 l 0.495,0 0,1.035 -0.2475,0 z"
       style="font-style:normal;font-variant:normal;font-weight:normal;font-stretch:normal;font-size:22.5px;line-height:125%;font-family:KaTeX_Main;-inkscape-font-specification:'KaTeX_Main, Normal';text-align:start;writing-mode:lr-tb;text-anchor:start;fill:#0c7f99"
       id="path4249" /></g><circle
     class="st1"
     cx="245.71791"
     cy="103.8398"
     r="24"
     id="circle4383"
     style="opacity:0.5;fill:#ccfaff" /><g
     style="font-style:normal;font-variant:normal;font-weight:normal;font-stretch:normal;font-size:22.5px;line-height:125%;font-family:KaTeX_Main;-inkscape-font-specification:'KaTeX_Main, Normal';text-align:start;writing-mode:lr-tb;text-anchor:start;fill:#0c7f99"
     id="text4385"><path
       d="m 244.98297,111.52354 q -0.36,-0.0675 -3.33,-0.0675 -2.97,0 -3.33,0.0675 l -0.2475,0 0,-1.035 0.495,0 q 0.8775,0 1.485,-0.0675 0.27,-0.0675 0.3825,-0.2475 0.045,-0.0675 0.045,-6.345 0,-6.255003 -0.045,-6.322503 -0.1125,-0.18 -0.3825,-0.2475 -0.6075,-0.0675 -1.485,-0.0675 l -0.495,0 0,-1.035 0.2475,0 q 0.36,0.0675 3.33,0.0675 2.97,0 3.33,-0.0675 l 0.2475,0 0,1.035 -0.495,0 q -0.8775,0 -1.485,0.0675 -0.27,0.0675 -0.3825,0.2475 -0.045,0.0675 -0.045,6.322503 0,6.2775 0.045,6.345 0.1125,0.18 0.3825,0.2475 0.6075,0.0675 1.485,0.0675 l 0.495,0 0,1.035 -0.2475,0 z"
       style="font-style:normal;font-variant:normal;font-weight:normal;font-stretch:normal;font-size:22.5px;line-height:125%;font-family:KaTeX_Main;-inkscape-font-specification:'KaTeX_Main, Normal';text-align:start;writing-mode:lr-tb;text-anchor:start;fill:#0c7f99"
       id="path4244" /><path
       d="m 253.11285,111.52354 q -0.36,-0.0675 -3.33,-0.0675 -2.97,0 -3.33,0.0675 l -0.2475,0 0,-1.035 0.495,0 q 0.8775,0 1.485,-0.0675 0.27,-0.0675 0.3825,-0.2475 0.045,-0.0675 0.045,-6.345 0,-6.255003 -0.045,-6.322503 -0.1125,-0.18 -0.3825,-0.2475 -0.6075,-0.0675 -1.485,-0.0675 l -0.495,0 0,-1.035 0.2475,0 q 0.36,0.0675 3.33,0.0675 2.97,0 3.33,-0.0675 l 0.2475,0 0,1.035 -0.495,0 q -0.8775,0 -1.485,0.0675 -0.27,0.0675 -0.3825,0.2475 -0.045,0.0675 -0.045,6.322503 0,6.2775 0.045,6.345 0.1125,0.18 0.3825,0.2475 0.6075,0.0675 1.485,0.0675 l 0.495,0 0,1.035 -0.2475,0 z"
       style="font-style:normal;font-variant:normal;font-weight:normal;font-stretch:normal;font-size:22.5px;line-height:125%;font-family:KaTeX_Main;-inkscape-font-specification:'KaTeX_Main, Normal';text-align:start;writing-mode:lr-tb;text-anchor:start;fill:#0c7f99"
       id="path4246" /></g><g
     id="g4387"
     transform="translate(6.4179119,1.8397998)"><circle
       class="st6"
       cx="54"
       cy="102"
       r="18"
       id="circle4389"
       style="fill:none;stroke:#000000;stroke-width:2;stroke-linecap:round;stroke-linejoin:round;stroke-miterlimit:10" /><polyline
       class="st2"
       points="54,84 54,60 54,42 72,42  "
       id="polyline4391"
       style="fill:none;stroke:#000000;stroke-linecap:round;stroke-linejoin:round;stroke-miterlimit:10" /><polyline
       class="st2"
       points="54,120 54,168 306.2,168  "
       id="polyline4393"
       style="fill:none;stroke:#000000;stroke-linecap:round;stroke-linejoin:round;stroke-miterlimit:10" /><line
       class="st3"
       x1="54"
       y1="88.5"
       x2="54"
       y2="100.5"
       id="line4395"
       style="fill:none;stroke:#000000;stroke-width:1.5;stroke-linecap:round;stroke-linejoin:round;stroke-miterlimit:10" /><line
       class="st3"
       x1="48"
       y1="94.5"
       x2="60"
       y2="94.5"
       id="line4397"
       style="fill:none;stroke:#000000;stroke-width:1.5;stroke-linecap:round;stroke-linejoin:round;stroke-miterlimit:10" /><line
       class="st3"
       x1="48"
       y1="112.5"
       x2="60"
       y2="112.5"
       id="line4399"
       style="fill:none;stroke:#000000;stroke-width:1.5;stroke-linecap:round;stroke-linejoin:round;stroke-miterlimit:10" /></g><g
     id="g4401"
     transform="translate(6.4179119,1.8397998)"><line
       class="st2"
       x1="149.2"
       y1="42"
       x2="179"
       y2="42"
       id="line4403"
       style="fill:none;stroke:#000000;stroke-linecap:round;stroke-linejoin:round;stroke-miterlimit:10" /><polyline
       class="st6"
       points="102.4,42 106.3,33 114.1,51 121.9,33 129.7,51 137.5,33 145.3,51 149.2,42  "
       id="polyline4405"
       style="fill:none;stroke:#000000;stroke-width:2;stroke-linecap:round;stroke-linejoin:round;stroke-miterlimit:10" /><line
       class="st2"
       x1="72"
       y1="42"
       x2="102.4"
       y2="42"
       id="line4407"
       style="fill:none;stroke:#000000;stroke-linecap:round;stroke-linejoin:round;stroke-miterlimit:10" /><polygon
       class="st12"
       points="72,30 72,54 179,54 179.2,30 "
       id="polygon4409"
       style="fill:none" /></g><g
     id="g4411"
     transform="translate(6.4179119,1.8397998)"><line
       class="st2"
       x1="258"
       y1="42"
       x2="287.79999"
       y2="42"
       id="line4413"
       style="fill:none;stroke:#000000;stroke-linecap:round;stroke-linejoin:round;stroke-miterlimit:10" /><polyline
       class="st6"
       points="211.2,42 215.1,33 222.9,51 230.7,33 238.5,51 246.3,33 254.1,51 258,42  "
       id="polyline4415"
       style="fill:none;stroke:#000000;stroke-width:2;stroke-linecap:round;stroke-linejoin:round;stroke-miterlimit:10" /><line
       class="st2"
       x1="180.8"
       y1="42"
       x2="211.2"
       y2="42"
       id="line4417"
       style="fill:none;stroke:#000000;stroke-linecap:round;stroke-linejoin:round;stroke-miterlimit:10" /><polygon
       class="st12"
       points="180.8,30 180.8,54 287.8,54 288,30 "
       id="polygon4419"
       style="fill:none" /></g><g
     id="g4421"
     transform="translate(6.4179119,1.8397998)"><line
       class="st2"
       x1="180"
       y1="78.599998"
       x2="180"
       y2="60"
       id="line4423"
       style="fill:none;stroke:#000000;stroke-linecap:round;stroke-linejoin:round;stroke-miterlimit:10" /><polyline
       class="st6"
       points="180,125.4 171,121.5 189,113.7 171,105.9 189,98.1 171,90.3 189,82.5 180,78.6  "
       id="polyline4425"
       style="fill:none;stroke:#000000;stroke-width:2;stroke-linecap:round;stroke-linejoin:round;stroke-miterlimit:10" /><line
       class="st2"
       x1="180.2"
       y1="168"
       x2="180"
       y2="125.4"
       id="line4427"
       style="fill:none;stroke:#000000;stroke-linecap:round;stroke-linejoin:round;stroke-miterlimit:10" /><polygon
       class="st12"
       points="168.2,168 192.2,168 192,60 168,60 "
       id="polygon4429"
       style="fill:none" /></g><g
     id="g4431"
     transform="translate(6.4179119,1.8397998)"><circle
       class="st13"
       cx="179.8"
       cy="42"
       r="1.5"
       id="circle4433"
       style="stroke:#000000;stroke-linecap:round;stroke-linejoin:round;stroke-miterlimit:10" /><rect
       x="173.8"
       y="36"
       class="st12"
       width="12"
       height="12"
       id="rect4435"
       style="fill:none" /></g><g
     id="g4437"
     transform="translate(6.4179119,1.8397998)"><circle
       class="st13"
       cx="180.2"
       cy="168"
       r="1.5"
       id="circle4439"
       style="stroke:#000000;stroke-linecap:round;stroke-linejoin:round;stroke-miterlimit:10" /><polygon
       class="st12"
       points="174.2,174 186.2,174 186,168 174,168 "
       id="polygon4441"
       style="fill:none" /></g><line
     class="st2"
     x1="186.41791"
     y1="61.839802"
     x2="186.41791"
     y2="43.839802"
     id="line4443"
     style="fill:none;stroke:#000000;stroke-linecap:round;stroke-linejoin:round;stroke-miterlimit:10" /><g
     id="g4445"
     transform="translate(6.4179119,1.8397998)"><g
       id="g4447"><path
         class="st29"
         d="m 96.2,135.6 c 6.8,4.7 15,7.4 23.8,7.4 23.2,0 42,-18.8 42,-42 0,-23.2 -18.8,-42 -42,-42 -23.2,0 -42,18.8 -42,42 0,11.8 4.8,22.4 12.6,30"
         id="path4449"
         inkscape:connector-curvature="0"
         style="fill:none;stroke:#11accd;stroke-width:3;stroke-linecap:round;stroke-linejoin:round" /><g
         id="g4451"><path
           class="st24"
           d="m 90.6,131 c 1.9,3.1 3.8,7.5 4.4,10.9 l 2,-5.7 5.2,-3.1 C 98.7,133.2 94,132.2 90.6,131 Z"
           id="path4453"
           inkscape:connector-curvature="0"
           style="fill:#11accd" /></g></g></g><g
     id="g4455"
     transform="translate(6.4179119,1.8397998)"><g
       id="g4457"><path
         class="st29"
         d="m 215.5,135.6 c 6.8,4.7 15,7.4 23.8,7.4 23.2,0 42,-18.8 42,-42 0,-23.2 -18.8,-42 -42,-42 -23.2,0 -42,18.8 -42,42 0,11.8 4.8,22.4 12.6,30"
         id="path4459"
         inkscape:connector-curvature="0"
         style="fill:none;stroke:#11accd;stroke-width:3;stroke-linecap:round;stroke-linejoin:round" /><g
         id="g4461"><path
           class="st24"
           d="m 209.9,131 c 1.9,3.1 3.8,7.5 4.4,10.9 l 2,-5.7 5.2,-3.1 c -3.5,0.1 -8.1,-0.9 -11.6,-2.1 z"
           id="path4463"
           inkscape:connector-curvature="0"
           style="fill:#11accd" /></g></g></g><g
     style="font-style:normal;font-variant:normal;font-weight:normal;font-stretch:normal;font-size:18.75px;line-height:125%;font-family:'Comic Sans MS';-inkscape-font-specification:'Comic Sans MS, Normal';text-align:start;writing-mode:lr-tb;text-anchor:start;fill:#11accd;fill-opacity:1"
     id="text4469"><path
       d="m 36.714003,158.28809 q 0,0.33874 -0.228882,0.59509 -0.219727,0.24719 -0.558472,0.24719 -0.109863,0 -0.32959,-0.0366 -0.219726,-0.0366 -0.338745,-0.0366 l -0.915527,0.0183 q -0.558472,0.0183 -0.915528,0 l 0,2.15149 q 0,0.82397 -0.814819,0.82397 -0.402832,0 -0.613403,-0.20141 -0.201416,-0.21057 -0.201416,-0.62256 l -0.0092,-1.05286 -0.0092,-1.06201 q -1.107788,0.0641 -1.565552,0.0641 -1.419067,0 -1.419067,-0.84229 0,-0.59509 0.50354,-0.74157 0.17395,-0.0458 0.915527,-0.0458 0.457764,0 1.565552,-0.0641 l -0.0092,-1.07117 q 0,-0.83313 0.0824,-1.15356 0.09155,-0.32959 0.283814,-0.49438 0.192261,-0.1648 0.494385,-0.1648 0.3479,0 0.585937,0.22888 0.247193,0.21973 0.247193,0.56763 0,0.15564 -0.03662,0.49438 -0.02746,0.33875 -0.02746,0.5127 l 0.0092,1.0437 0.686645,0.0275 q 0.183106,0 0.558472,-0.0183 0.375366,-0.0275 0.558472,-0.0275 1.501465,0 1.501465,0.8606 z"
       style="font-style:normal;font-variant:normal;font-weight:normal;font-stretch:normal;font-size:18.75px;line-height:125%;font-family:'Comic Sans MS';-inkscape-font-specification:'Comic Sans MS, Normal';text-align:start;writing-mode:lr-tb;text-anchor:start;fill:#11accd;fill-opacity:1"
       id="path4227" /><path
       d="m 43.80934,164.18408 -1.8219,0 -1.812744,-0.009 q -0.640869,0 -0.897217,-0.0824 -0.466919,-0.1648 -0.466919,-0.6958 0,-0.92468 1.437378,-0.92468 l 0.439453,0.009 0.375366,0.0183 q 0,-0.43945 -0.0824,-1.30005 -0.07324,-0.86059 -0.07324,-1.29089 0,-1.16272 0.210571,-3.53394 0.201416,-2.33459 0.192261,-3.54309 -1.226807,0.95215 -1.565552,0.95215 -0.366211,0 -0.640869,-0.27466 -0.265503,-0.27466 -0.265503,-0.63171 0,-0.4303 0.787354,-1.0437 0.494384,-0.3479 1.400756,-1.11695 0.805664,-0.81481 1.538086,-0.81481 0.613404,0 0.613404,0.70495 0,0.21057 -0.05493,0.63172 -0.05493,0.41198 -0.05493,0.62255 0,0.30213 0.02747,0.91553 0.03662,0.6134 0.03662,0.91553 0,1.0437 -0.219726,3.11279 -0.219727,2.06909 -0.219727,3.10364 0,0.53101 0.07324,1.29089 0.07324,0.75989 0.0824,1.24512 l 0.961304,-0.0183 q 0.384521,0 0.631713,0.25635 0.256348,0.24719 0.256348,0.62256 0,0.38452 -0.256348,0.63171 -0.247192,0.24719 -0.631713,0.24719 z"
       style="font-style:normal;font-variant:normal;font-weight:normal;font-stretch:normal;font-size:18.75px;line-height:125%;font-family:'Comic Sans MS';-inkscape-font-specification:'Comic Sans MS, Normal';text-align:start;writing-mode:lr-tb;text-anchor:start;fill:#11accd;fill-opacity:1"
       id="path4229" /><path
       d="m 48.231337,165.02637 q -0.476075,0 -0.805664,-0.32959 -0.32959,-0.32959 -0.32959,-0.80567 0,-0.46692 0.32959,-0.79651 0.329589,-0.33874 0.805664,-0.33874 0.466919,0 0.796508,0.33874 0.338745,0.32959 0.338745,0.79651 0,0.47608 -0.338745,0.80567 -0.329589,0.32959 -0.796508,0.32959 z"
       style="font-style:normal;font-variant:normal;font-weight:normal;font-stretch:normal;font-size:18.75px;line-height:125%;font-family:'Comic Sans MS';-inkscape-font-specification:'Comic Sans MS, Normal';text-align:start;writing-mode:lr-tb;text-anchor:start;fill:#11accd;fill-opacity:1"
       id="path4231" /><path
       d="m 55.940077,164.83411 q -2.389527,0 -3.515625,-1.74866 -0.933838,-1.43738 -0.933838,-3.83606 0,-4.52271 3.671265,-7.84607 l 0.860595,-0.86975 q 0.631714,-0.60425 0.952149,-0.60425 0.366211,0 0.640869,0.2655 0.274658,0.25635 0.283813,0.61341 0.01831,0.32959 -0.933838,1.27258 l -1.867675,1.8219 q -0.741577,0.75073 -1.272583,2.27051 0.796508,-0.36621 1.391601,-0.54016 0.595093,-0.18311 0.979614,-0.18311 2.142334,0 3.286744,1.14441 1.144409,1.14441 1.144409,3.23181 0,2.18811 -1.235962,3.57056 -1.290894,1.43738 -3.451538,1.43738 z m 0,-7.51648 q -0.787354,0 -1.409912,0.27466 -0.238037,0.10986 -1.199341,0.70495 -0.05493,0.48523 -0.05493,0.95215 0,1.63879 0.549317,2.67334 0.6958,1.31836 2.169799,1.31836 1.382447,0 2.142334,-0.98877 0.704957,-0.91553 0.704957,-2.42615 0,-1.25427 -0.723267,-1.87683 -0.723267,-0.63171 -2.178955,-0.63171 z"
       style="font-style:normal;font-variant:normal;font-weight:normal;font-stretch:normal;font-size:18.75px;line-height:125%;font-family:'Comic Sans MS';-inkscape-font-specification:'Comic Sans MS, Normal';text-align:start;writing-mode:lr-tb;text-anchor:start;fill:#11accd;fill-opacity:1"
       id="path4233" /><path
       d="m 71.165297,164.19324 q -0.228882,0 -0.650025,-0.13733 -0.411987,-0.14649 -0.631714,-0.14649 -0.466919,0 -1.400757,0.0549 -0.933837,0.0549 -1.409912,0.0549 -0.357055,0 -1.062011,0.0915 -0.695801,0.0916 -1.052857,0.0916 -0.100708,0 -0.292969,-0.0366 -0.19226,-0.0366 -0.292968,-0.0366 -0.631714,0 -0.823975,-0.6134 -0.109863,-0.32044 -0.109863,-1.09864 0,-2.13317 1.162719,-3.43322 0.531006,-0.5951 2.865601,-2.19727 1.309204,-0.89722 1.748657,-1.40076 0.787354,-0.8789 0.787354,-2.05993 0,-0.58594 -0.759888,-1.0437 -0.668335,-0.41199 -1.309204,-0.41199 -0.842285,0 -1.602173,0.48523 l -1.309204,1.02539 q -0.393677,0.31128 -0.631714,0.31128 -0.942993,0 -0.942993,-0.75073 0,-0.4303 0.3479,-0.74158 1.071167,-1.00708 1.858521,-1.45569 1.107788,-0.63171 2.279663,-0.63171 1.483154,0 2.645874,0.80566 1.300049,0.90637 1.300049,2.32544 0,0.93384 -0.265503,1.72119 -0.265503,0.78736 -0.805664,1.43738 -0.686646,0.82397 -2.32544,1.84021 -1.721191,1.08032 -2.261352,1.63879 -1.016235,1.05286 -0.997925,2.55432 l 1.885986,-0.17395 q 1.940918,-0.10986 2.774048,-0.10986 0.695801,0 1.31836,0.23804 0.823974,0.32043 0.823974,0.88806 0,0.35706 -0.247192,0.64087 -0.247193,0.27466 -0.613403,0.27466 z"
       style="font-style:normal;font-variant:normal;font-weight:normal;font-stretch:normal;font-size:18.75px;line-height:125%;font-family:'Comic Sans MS';-inkscape-font-specification:'Comic Sans MS, Normal';text-align:start;writing-mode:lr-tb;text-anchor:start;fill:#11accd;fill-opacity:1"
       id="path4235" /><path
       d="m 78.544447,164.75171 q -2.600098,0 -3.826904,-1.92261 -0.164795,-0.2655 -0.164795,-0.51269 0,-0.35706 0.283813,-0.61341 0.283814,-0.2655 0.640869,-0.2655 0.375367,0 0.714112,0.40283 0.485229,0.58594 0.732422,0.75073 0.595092,0.40284 1.620483,0.40284 1.583862,0 2.627563,-1.2085 0.997925,-1.15356 0.997925,-2.77405 0,-1.33667 -0.439453,-2.1698 -0.567627,-1.05285 -1.748657,-1.05285 -0.979614,0 -1.602173,0.2655 -0.494385,0.21057 -0.997925,0.72327 l -0.997925,1.08947 q -0.402832,0.41199 -0.823974,0.41199 -0.366211,0 -0.622559,-0.25635 -0.256347,-0.2655 -0.256347,-0.63171 0,-0.18311 0.146484,-1.62964 0.311279,-2.88391 0.311279,-3.79028 0,-0.32044 -0.164795,-0.6958 -0.155639,-0.38453 -0.155639,-0.56763 0,-0.55847 0.961303,-0.55847 0.183106,0 0.549317,0.0366 0.375366,0.0275 0.558471,0.0275 0.531006,0 1.593018,-0.0366 1.062012,-0.0366 1.593018,-0.0366 0.247192,0 0.750732,0.0183 0.50354,0.0183 0.750732,0.0183 0.173951,0 0.50354,-0.0641 0.32959,-0.0733 0.494385,-0.0733 0.357056,0 0.631714,0.26551 0.274658,0.2655 0.274658,0.6134 0,1.02539 -2.169799,1.02539 -0.283814,0 -0.714112,-0.0183 -0.430298,-0.0183 -0.52185,-0.0183 l -1.547242,0.0275 -1.547241,0.0458 q 0,0.41199 -0.338745,3.04871 1.254273,-0.99793 3.341675,-0.99793 2.01416,0 3.076172,1.57471 0.897217,1.33667 0.897217,3.40576 0,2.47193 -1.446534,4.0741 -1.501465,1.66626 -3.964233,1.66626 z"
       style="font-style:normal;font-variant:normal;font-weight:normal;font-stretch:normal;font-size:18.75px;line-height:125%;font-family:'Comic Sans MS';-inkscape-font-specification:'Comic Sans MS, Normal';text-align:start;writing-mode:lr-tb;text-anchor:start;fill:#11accd;fill-opacity:1"
       id="path4237" /><path
       d="m 100.72474,164.93481 q -0.750728,0 -0.878901,-0.7965 -0.164795,-1.00708 -0.32959,-2.83814 l -0.31128,-2.83813 q -0.09155,-0.63172 -0.311279,-1.23597 -0.311279,-0.82397 -0.67749,-0.82397 -0.338745,0 -1.263428,0.57678 -0.878906,0.53101 -1.153564,0.85144 -0.0092,0.8606 0.04578,1.72119 l 0.274658,2.44446 q 0.17395,1.44653 0.17395,2.38953 0,0.40283 -0.256347,0.65918 -0.247193,0.2655 -0.640869,0.2655 -0.393677,0 -0.650025,-0.2655 -0.247192,-0.25635 -0.247192,-0.65918 0,-1.10779 -0.228882,-3.26843 -0.219727,-2.1698 -0.219727,-3.27759 0,-0.97046 -0.274658,-1.51062 -0.640869,0.29297 -1.300049,0.95215 l -1.080322,1.20849 q -0.146484,0.21973 -0.466919,0.57678 0,0.54932 -0.100708,1.62049 -0.100708,1.07116 -0.100708,1.58386 0,0.27466 0.0824,0.76904 0.09155,0.49439 0.09155,0.71411 0,0.37537 -0.283813,0.63172 -0.274658,0.25635 -0.650024,0.25635 -1.034546,0 -1.034546,-2.35291 0,-0.54932 0.100708,-1.63879 0.100708,-1.08948 0.100708,-1.6388 0,-0.48523 -0.09155,-1.45569 -0.0824,-0.97045 -0.0824,-1.46484 0,-2.07825 0.933838,-2.07825 0.357056,0 0.650025,0.31128 0.302124,0.31128 0.302124,0.67749 0,0.17395 -0.04578,0.54016 -0.04578,0.36621 -0.04578,0.55848 l 0.01831,0.9613 q 0.476074,-0.97961 1.400756,-1.76697 0.924683,-0.79651 1.574707,-0.79651 1.437378,0 1.977539,1.42823 0.503541,-0.66834 1.199341,-0.99793 0.695801,-0.33874 1.593018,-0.33874 1.528926,0 2.087406,1.64794 0.10986,0.32959 0.37536,2.57264 0.25635,1.5747 0.65918,5.24597 0.0275,0.36621 -0.24719,0.62256 -0.27466,0.25634 -0.66834,0.25634 z"
       style="font-style:normal;font-variant:normal;font-weight:normal;font-stretch:normal;font-size:18.75px;line-height:125%;font-family:'Comic Sans MS';-inkscape-font-specification:'Comic Sans MS, Normal';text-align:start;writing-mode:lr-tb;text-anchor:start;fill:#11accd;fill-opacity:1"
       id="path4239" /><path
       d="m 113.84425,164.44958 q -0.84228,0 -1.46484,-2.16064 -0.23804,-0.82397 -0.59509,-2.88391 -0.93384,0.12817 -2.44446,0.45776 l -2.43531,0.50354 q -0.45776,1.19934 -1.56555,3.50647 -0.29297,0.5127 -0.79651,0.5127 -0.36621,0 -0.65918,-0.2655 -0.28381,-0.26551 -0.28381,-0.65918 0,-0.43946 1.38245,-3.34168 -0.15564,-0.23804 -0.15564,-0.54932 0,-0.74157 0.89721,-0.95214 1.04371,-1.95923 2.63672,-4.5044 2.1698,-3.46985 2.70081,-3.46985 0.72327,0 0.98877,1.00708 l 0.57678,3.07617 1.36414,6.36292 0.52185,1.44653 q 0.2655,0.74158 0.2655,0.98877 0,0.39368 -0.28381,0.65918 -0.28382,0.2655 -0.65003,0.2655 z m -3.23181,-10.46447 -2.61841,4.22058 q 1.10779,-0.28382 3.35999,-0.68665 l -0.74158,-3.53393 z"
       style="font-style:normal;font-variant:normal;font-weight:normal;font-stretch:normal;font-size:18.75px;line-height:125%;font-family:'Comic Sans MS';-inkscape-font-specification:'Comic Sans MS, Normal';text-align:start;writing-mode:lr-tb;text-anchor:start;fill:#11accd;fill-opacity:1"
       id="path4241" /></g><g
     style="font-style:normal;font-variant:normal;font-weight:normal;font-stretch:normal;font-size:18.75px;line-height:125%;font-family:'Comic Sans MS';-inkscape-font-specification:'Comic Sans MS, Normal';text-align:start;writing-mode:lr-tb;text-anchor:start;fill:#11accd;fill-opacity:1"
     id="text4475"><path
       d="m 261.38454,157.47327 q 0.1831,0 0.55847,-0.0183 0.37536,-0.0275 0.55847,-0.0275 1.50146,0 1.50146,0.8606 0,0.33874 -0.22888,0.59509 -0.21972,0.24719 -0.55847,0.24719 -0.10986,0 -0.32959,-0.0366 -0.21972,-0.0366 -0.33874,-0.0366 -0.84229,0 -2.52686,0.0641 -1.67541,0.0549 -2.5177,0.0549 -1.41907,0 -1.41907,-0.84229 0,-0.57678 0.46692,-0.72326 0.19226,-0.0641 0.95215,-0.0641 0.53101,0 1.60217,-0.0549 1.08033,-0.0641 1.61133,-0.0641 0.10987,0 0.32959,0.0275 0.22888,0.0183 0.33875,0.0183 z"
       style="font-style:normal;font-variant:normal;font-weight:normal;font-stretch:normal;font-size:18.75px;line-height:125%;font-family:'Comic Sans MS';-inkscape-font-specification:'Comic Sans MS, Normal';text-align:start;writing-mode:lr-tb;text-anchor:start;fill:#11accd;fill-opacity:1"
       id="path4210" /><path
       d="m 270.24684,164.53198 q -2.7832,0 -4.06494,-2.54516 -0.97046,-1.95923 -0.97046,-5.09949 0,-2.65503 1.26343,-4.63257 1.49231,-2.31628 4.05578,-2.31628 2.40784,0 3.75367,2.05078 1.16272,1.77612 1.16272,4.33044 0,4.10156 -1.30005,6.1615 -1.30005,2.05078 -3.90015,2.05078 z m 0.27466,-12.82654 q -1.70288,0 -2.70081,1.73035 -0.83313,1.44653 -0.83313,3.30505 0,3.01209 0.81482,4.52271 0.81482,1.51062 2.44446,1.51062 1.94092,0 2.7832,-2.21558 0.58594,-1.53808 0.58594,-3.90014 0,-2.48108 -0.7782,-3.71704 -0.76904,-1.23597 -2.31628,-1.23597 z"
       style="font-style:normal;font-variant:normal;font-weight:normal;font-stretch:normal;font-size:18.75px;line-height:125%;font-family:'Comic Sans MS';-inkscape-font-specification:'Comic Sans MS, Normal';text-align:start;writing-mode:lr-tb;text-anchor:start;fill:#11accd;fill-opacity:1"
       id="path4212" /><path
       d="m 278.55983,165.02637 q -0.47607,0 -0.80566,-0.32959 -0.32959,-0.32959 -0.32959,-0.80567 0,-0.46692 0.32959,-0.79651 0.32959,-0.33874 0.80566,-0.33874 0.46692,0 0.79651,0.33874 0.33874,0.32959 0.33874,0.79651 0,0.47608 -0.33874,0.80567 -0.32959,0.32959 -0.79651,0.32959 z"
       style="font-style:normal;font-variant:normal;font-weight:normal;font-stretch:normal;font-size:18.75px;line-height:125%;font-family:'Comic Sans MS';-inkscape-font-specification:'Comic Sans MS, Normal';text-align:start;writing-mode:lr-tb;text-anchor:start;fill:#11accd;fill-opacity:1"
       id="path4214" /><path
       d="m 287.24818,164.18408 -1.8219,0 -1.81274,-0.009 q -0.64087,0 -0.89722,-0.0824 -0.46692,-0.1648 -0.46692,-0.6958 0,-0.92468 1.43738,-0.92468 l 0.43946,0.009 0.37536,0.0183 q 0,-0.43945 -0.0824,-1.30005 -0.0732,-0.86059 -0.0732,-1.29089 0,-1.16272 0.21057,-3.53394 0.20142,-2.33459 0.19226,-3.54309 -1.2268,0.95215 -1.56555,0.95215 -0.36621,0 -0.64087,-0.27466 -0.2655,-0.27466 -0.2655,-0.63171 0,-0.4303 0.78735,-1.0437 0.49439,-0.3479 1.40076,-1.11695 0.80567,-0.81481 1.53809,-0.81481 0.6134,0 0.6134,0.70495 0,0.21057 -0.0549,0.63172 -0.0549,0.41198 -0.0549,0.62255 0,0.30213 0.0275,0.91553 0.0366,0.6134 0.0366,0.91553 0,1.0437 -0.21972,3.11279 -0.21973,2.06909 -0.21973,3.10364 0,0.53101 0.0732,1.29089 0.0733,0.75989 0.0824,1.24512 l 0.9613,-0.0183 q 0.38453,0 0.63172,0.25635 0.25635,0.24719 0.25635,0.62256 0,0.38452 -0.25635,0.63171 -0.24719,0.24719 -0.63172,0.24719 z"
       style="font-style:normal;font-variant:normal;font-weight:normal;font-stretch:normal;font-size:18.75px;line-height:125%;font-family:'Comic Sans MS';-inkscape-font-specification:'Comic Sans MS, Normal';text-align:start;writing-mode:lr-tb;text-anchor:start;fill:#11accd;fill-opacity:1"
       id="path4216" /><path
       d="m 298.45424,164.19324 q -0.22888,0 -0.65003,-0.13733 -0.41198,-0.14649 -0.63171,-0.14649 -0.46692,0 -1.40076,0.0549 -0.93383,0.0549 -1.40991,0.0549 -0.35705,0 -1.06201,0.0915 -0.6958,0.0916 -1.05286,0.0916 -0.1007,0 -0.29297,-0.0366 -0.19226,-0.0366 -0.29296,-0.0366 -0.63172,0 -0.82398,-0.6134 -0.10986,-0.32044 -0.10986,-1.09864 0,-2.13317 1.16272,-3.43322 0.531,-0.5951 2.8656,-2.19727 1.3092,-0.89722 1.74866,-1.40076 0.78735,-0.8789 0.78735,-2.05993 0,-0.58594 -0.75989,-1.0437 -0.66833,-0.41199 -1.3092,-0.41199 -0.84229,0 -1.60218,0.48523 l -1.3092,1.02539 q -0.39368,0.31128 -0.63171,0.31128 -0.943,0 -0.943,-0.75073 0,-0.4303 0.3479,-0.74158 1.07117,-1.00708 1.85852,-1.45569 1.10779,-0.63171 2.27967,-0.63171 1.48315,0 2.64587,0.80566 1.30005,0.90637 1.30005,2.32544 0,0.93384 -0.2655,1.72119 -0.26551,0.78736 -0.80567,1.43738 -0.68664,0.82397 -2.32544,1.84021 -1.72119,1.08032 -2.26135,1.63879 -1.01623,1.05286 -0.99792,2.55432 l 1.88598,-0.17395 q 1.94092,-0.10986 2.77405,-0.10986 0.6958,0 1.31836,0.23804 0.82397,0.32043 0.82397,0.88806 0,0.35706 -0.24719,0.64087 -0.24719,0.27466 -0.6134,0.27466 z"
       style="font-style:normal;font-variant:normal;font-weight:normal;font-stretch:normal;font-size:18.75px;line-height:125%;font-family:'Comic Sans MS';-inkscape-font-specification:'Comic Sans MS, Normal';text-align:start;writing-mode:lr-tb;text-anchor:start;fill:#11accd;fill-opacity:1"
       id="path4218" /><path
       d="m 305.83339,164.75171 q -2.6001,0 -3.82691,-1.92261 -0.16479,-0.2655 -0.16479,-0.51269 0,-0.35706 0.28381,-0.61341 0.28382,-0.2655 0.64087,-0.2655 0.37537,0 0.71411,0.40283 0.48523,0.58594 0.73243,0.75073 0.59509,0.40284 1.62048,0.40284 1.58386,0 2.62756,-1.2085 0.99793,-1.15356 0.99793,-2.77405 0,-1.33667 -0.43946,-2.1698 -0.56762,-1.05285 -1.74865,-1.05285 -0.97962,0 -1.60218,0.2655 -0.49438,0.21057 -0.99792,0.72327 l -0.99793,1.08947 q -0.40283,0.41199 -0.82397,0.41199 -0.36621,0 -0.62256,-0.25635 -0.25635,-0.2655 -0.25635,-0.63171 0,-0.18311 0.14649,-1.62964 0.31128,-2.88391 0.31128,-3.79028 0,-0.32044 -0.1648,-0.6958 -0.15564,-0.38453 -0.15564,-0.56763 0,-0.55847 0.96131,-0.55847 0.1831,0 0.54931,0.0366 0.37537,0.0275 0.55847,0.0275 0.53101,0 1.59302,-0.0366 1.06201,-0.0366 1.59302,-0.0366 0.24719,0 0.75073,0.0183 0.50354,0.0183 0.75073,0.0183 0.17395,0 0.50354,-0.0641 0.32959,-0.0733 0.49439,-0.0733 0.35706,0 0.63171,0.26551 0.27466,0.2655 0.27466,0.6134 0,1.02539 -2.1698,1.02539 -0.28381,0 -0.71411,-0.0183 -0.4303,-0.0183 -0.52185,-0.0183 l -1.54724,0.0275 -1.54724,0.0458 q 0,0.41199 -0.33875,3.04871 1.25427,-0.99793 3.34168,-0.99793 2.01416,0 3.07617,1.57471 0.89722,1.33667 0.89722,3.40576 0,2.47193 -1.44654,4.0741 -1.50146,1.66626 -3.96423,1.66626 z"
       style="font-style:normal;font-variant:normal;font-weight:normal;font-stretch:normal;font-size:18.75px;line-height:125%;font-family:'Comic Sans MS';-inkscape-font-specification:'Comic Sans MS, Normal';text-align:start;writing-mode:lr-tb;text-anchor:start;fill:#11accd;fill-opacity:1"
       id="path4220" /><path
       d="m 328.01369,164.93481 q -0.75074,0 -0.87891,-0.7965 -0.16479,-1.00708 -0.32959,-2.83814 l -0.31128,-2.83813 q -0.0916,-0.63172 -0.31128,-1.23597 -0.31128,-0.82397 -0.67749,-0.82397 -0.33874,0 -1.26343,0.57678 -0.8789,0.53101 -1.15356,0.85144 -0.009,0.8606 0.0458,1.72119 l 0.27465,2.44446 q 0.17395,1.44653 0.17395,2.38953 0,0.40283 -0.25634,0.65918 -0.2472,0.2655 -0.64087,0.2655 -0.39368,0 -0.65003,-0.2655 -0.24719,-0.25635 -0.24719,-0.65918 0,-1.10779 -0.22888,-3.26843 -0.21973,-2.1698 -0.21973,-3.27759 0,-0.97046 -0.27466,-1.51062 -0.64086,0.29297 -1.30004,0.95215 l -1.08033,1.20849 q -0.14648,0.21973 -0.46692,0.57678 0,0.54932 -0.1007,1.62049 -0.10071,1.07116 -0.10071,1.58386 0,0.27466 0.0824,0.76904 0.0916,0.49439 0.0916,0.71411 0,0.37537 -0.28381,0.63172 -0.27466,0.25635 -0.65003,0.25635 -1.03455,0 -1.03455,-2.35291 0,-0.54932 0.10071,-1.63879 0.10071,-1.08948 0.10071,-1.6388 0,-0.48523 -0.0915,-1.45569 -0.0824,-0.97045 -0.0824,-1.46484 0,-2.07825 0.93384,-2.07825 0.35705,0 0.65002,0.31128 0.30213,0.31128 0.30213,0.67749 0,0.17395 -0.0458,0.54016 -0.0458,0.36621 -0.0458,0.55848 l 0.0183,0.9613 q 0.47608,-0.97961 1.40076,-1.76697 0.92468,-0.79651 1.57471,-0.79651 1.43738,0 1.97754,1.42823 0.50354,-0.66834 1.19934,-0.99793 0.6958,-0.33874 1.59302,-0.33874 1.52893,0 2.0874,1.64794 0.10986,0.32959 0.37536,2.57264 0.25635,1.5747 0.65918,5.24597 0.0275,0.36621 -0.24719,0.62256 -0.27466,0.25634 -0.66833,0.25634 z"
       style="font-style:normal;font-variant:normal;font-weight:normal;font-stretch:normal;font-size:18.75px;line-height:125%;font-family:'Comic Sans MS';-inkscape-font-specification:'Comic Sans MS, Normal';text-align:start;writing-mode:lr-tb;text-anchor:start;fill:#11accd;fill-opacity:1"
       id="path4222" /><path
       d="m 341.13319,164.44958 q -0.84228,0 -1.46484,-2.16064 -0.23804,-0.82397 -0.59509,-2.88391 -0.93384,0.12817 -2.44446,0.45776 l -2.4353,0.50354 q -0.45777,1.19934 -1.56556,3.50647 -0.29296,0.5127 -0.7965,0.5127 -0.36621,0 -0.65918,-0.2655 -0.28382,-0.26551 -0.28382,-0.65918 0,-0.43946 1.38245,-3.34168 -0.15564,-0.23804 -0.15564,-0.54932 0,-0.74157 0.89722,-0.95214 1.0437,-1.95923 2.63672,-4.5044 2.16979,-3.46985 2.7008,-3.46985 0.72327,0 0.98877,1.00708 l 0.57678,3.07617 1.36414,6.36292 0.52185,1.44653 q 0.2655,0.74158 0.2655,0.98877 0,0.39368 -0.28381,0.65918 -0.28382,0.2655 -0.65003,0.2655 z m -3.23181,-10.46447 -2.61841,4.22058 q 1.10779,-0.28382 3.35999,-0.68665 l -0.74158,-3.53393 z"
       style="font-style:normal;font-variant:normal;font-weight:normal;font-stretch:normal;font-size:18.75px;line-height:125%;font-family:'Comic Sans MS';-inkscape-font-specification:'Comic Sans MS, Normal';text-align:start;writing-mode:lr-tb;text-anchor:start;fill:#11accd;fill-opacity:1"
       id="path4224" /></g><g
     style="font-style:normal;font-variant:normal;font-weight:normal;font-stretch:normal;font-size:22.5px;line-height:125%;font-family:KaTeX_Main;-inkscape-font-specification:'KaTeX_Main, Normal';text-align:start;writing-mode:lr-tb;text-anchor:start"
     id="text4479"><path
       d="m 150.2343,157.8398 q -0.3825,-0.0675 -3.5775,-0.0675 -3.15,0 -3.5325,0.0675 l -0.27,0 0,-1.035 0.585,0 q 1.305,0 1.6875,-0.0675 0.18,-0.0225 0.54,-0.27 l 0,-11.6325 q -0.045,0 -0.18,0.0675 -1.035,0.405 -2.3175,0.4275 l -0.4275,0 0,-1.035 0.4275,0 q 1.89,-0.0675 3.15,-0.855 0.405,-0.225 0.6975,-0.5175 0.045,-0.0675 0.27,-0.0675 0.225,0 0.3825,0.135 l 0,6.7275 0.0225,6.75 q 0.3375,0.3375 1.4625,0.3375 l 0.7425,0 0.585,0 0,1.035 -0.2475,0 z"
       style="font-style:normal;font-variant:normal;font-weight:normal;font-stretch:normal;font-size:22.5px;line-height:125%;font-family:KaTeX_Main;-inkscape-font-specification:'KaTeX_Main, Normal';text-align:start;letter-spacing:1;writing-mode:lr-tb;text-anchor:start"
       id="path4203" /><path
       d="m 155.4843,156.8048 0.315,0 q 0.8775,0 1.0575,-0.315 l 0,-0.18 q 0,-0.2025 0,-0.5175 0,-0.315 0,-0.7425 0.0225,-0.4275 0.0225,-0.9675 0,-0.5625 0,-1.125 0,-0.585 0,-1.2375 0,-0.675 0,-1.2825 0,-0.8325 0,-1.755 0,-0.945 0,-1.6875 0,-0.7425 -0.0225,-1.35 0,-0.63 0,-0.99 0,-0.36 0,-0.3825 -0.0675,-0.4275 -0.3375,-0.5625 -0.2475,-0.1575 -0.99,-0.2025 l -0.405,0 0,-0.5175 q 0,-0.5175 0.045,-0.5175 l 0.225,-0.0225 q 0.225,-0.0225 0.6525,-0.045 0.4275,-0.0225 0.8325,-0.045 0.3825,-0.0225 0.8325,-0.045 0.45,-0.045 0.675,-0.0675 0.225,-0.0225 0.2475,-0.0225 l 0.0675,0 0,5.1975 0.0225,5.175 1.35,-1.215 q 1.35,-1.215 1.44,-1.35 0.135,-0.2025 0.135,-0.3825 0,-0.405 -0.4725,-0.4725 l -0.1125,0 0,-1.035 0.2025,0 q 0.2925,0.0675 2.6775,0.0675 0.1575,0 0.405,0 0.27,-0.0225 0.405,-0.0225 0.135,0 0.3375,0 0.225,-0.0225 0.3375,-0.0225 0.1125,-0.0225 0.135,-0.0225 l 0.1125,0 0,1.035 -0.2925,0 q -1.5525,0.1125 -2.61,0.99 -1.665,1.4175 -1.665,1.5075 0,0.0225 1.4175,2.115 1.44,2.07 1.5975,2.2725 0.315,0.4275 0.6975,0.585 0.405,0.1575 1.1025,0.1575 l 0.2475,0 0,1.035 -0.135,0 q -0.27,-0.0675 -1.9575,-0.0675 -2.205,0 -2.4975,0.0675 l -0.18,0 0,-1.035 0.1575,0 q 0.54,-0.045 0.54,-0.4275 0,-0.1575 -0.09,-0.315 -0.0675,-0.1125 -1.125,-1.665 -1.0575,-1.5525 -1.08,-1.5525 -0.27,0.225 -0.585,0.5175 l -0.585,0.5175 0,1.26 q 0,1.305 0.0225,1.35 0.09,0.18 0.27,0.2475 0.4725,0.0675 1.1025,0.0675 l 0.36,0 0,1.035 -0.18,0 q -0.2475,-0.0675 -2.4525,-0.0675 -2.205,0 -2.4525,0.0675 l -0.18,0 0,-1.035 0.36,0 z"
       style="font-style:normal;font-variant:normal;font-weight:normal;font-stretch:normal;font-size:22.5px;line-height:125%;font-family:KaTeX_Main;-inkscape-font-specification:'KaTeX_Main, Normal';text-align:start;writing-mode:lr-tb;text-anchor:start"
       id="path4205" /><path
       d="m 172.65848,157.3898 q 0,0.2925 -0.1575,0.45 l -4.185,0 0,-0.045 q -0.0225,-0.0225 -0.36,-1.9575 l -0.3825,-1.935 0,-0.045 0.9,0 0.0225,0.1125 q 0,0.1125 0.09,0.4275 0.1575,1.0125 0.3375,1.35 0.09,0.1125 0.1575,0.1575 0.2925,0.1125 1.5075,0.135 l 0.99,0 0,-0.0675 q -0.1125,-0.36 -0.495,-1.1925 -0.36,-0.6975 -1.2375,-2.07 -1.44,-2.3175 -1.8,-3.5325 -0.225,-0.8325 -0.225,-1.5525 0,-0.675 0.18,-1.2825 0.495,-1.6875 2.0925,-2.9025 1.5975,-1.2375 3.735,-1.4175 0.135,-0.0225 0.3375,-0.0225 l 0.3375,0 q 3.1725,0 5.1975,1.7325 1.2825,1.125 1.6875,2.61 0.18,0.6075 0.18,1.2825 0,0.72 -0.225,1.5525 -0.36,1.215 -1.8,3.5325 -0.8775,1.3725 -1.2375,2.07 -0.3825,0.8325 -0.495,1.1925 l 0,0.0675 0.99,0 q 1.215,-0.0225 1.5075,-0.135 0.09,-0.045 0.1575,-0.1575 0.1575,-0.3375 0.3375,-1.35 0.09,-0.315 0.09,-0.4275 l 0.0225,-0.1125 0.9,0 0,0.045 -0.3825,1.935 q -0.3375,1.935 -0.36,1.9575 l 0,0.045 -2.07,0 q -1.665,0 -1.935,0 -0.2475,-0.0225 -0.2925,-0.135 -0.045,-0.09 -0.045,-0.315 0,-0.6525 0.2025,-1.7775 0.18,-0.9 0.8775,-3.0375 0.72,-2.1825 0.945,-3.42 0.1575,-0.945 0.1575,-1.5525 0,-3.1725 -2.3175,-4.3425 -0.945,-0.45 -1.89,-0.45 -2.295,0 -3.51,1.9125 -0.6975,1.1025 -0.6975,2.8575 0,0.765 0.135,1.575 0.225,1.2375 0.945,3.42 0.6975,2.1375 0.8775,3.0375 0.2025,1.1025 0.2025,1.7775 z"
       style="font-style:normal;font-variant:normal;font-weight:normal;font-stretch:normal;font-size:22.5px;line-height:125%;font-family:KaTeX_Main;-inkscape-font-specification:'KaTeX_Main, Normal';text-align:start;writing-mode:lr-tb;text-anchor:start"
       id="path4207" /></g></svg>