<?xml version="1.0" encoding="UTF-8" standalone="no"?>
<svg
   xmlns:dc="http://purl.org/dc/elements/1.1/"
   xmlns:cc="http://creativecommons.org/ns#"
   xmlns:rdf="http://www.w3.org/1999/02/22-rdf-syntax-ns#"
   xmlns:svg="http://www.w3.org/2000/svg"
   xmlns="http://www.w3.org/2000/svg"
   xmlns:sodipodi="http://sodipodi.sourceforge.net/DTD/sodipodi-0.dtd"
   xmlns:inkscape="http://www.inkscape.org/namespaces/inkscape"
   version="1.1"
   id="Layer_1"
   x="0px"
   y="0px"
   width="148.2753"
   height="92.857124"
   viewBox="0 0 139.00809 87.053552"
   xml:space="preserve"
   inkscape:version="1.1-dev (48d18c81, 2020-07-08)"
   sodipodi:docname="mosfet_terminals.svg"><metadata
   id="metadata17228"><rdf:RDF><cc:Work
       rdf:about=""><dc:format>image/svg+xml</dc:format><dc:type
         rdf:resource="http://purl.org/dc/dcmitype/StillImage" /><cc:license
         rdf:resource="http://creativecommons.org/licenses/by-nc-sa/4.0/" /><dc:creator><cc:Agent><dc:title>Willy McAllister</dc:title></cc:Agent></dc:creator></cc:Work><cc:License
       rdf:about="http://creativecommons.org/licenses/by-nc-sa/4.0/"><cc:permits
         rdf:resource="http://creativecommons.org/ns#Reproduction" /><cc:permits
         rdf:resource="http://creativecommons.org/ns#Distribution" /><cc:requires
         rdf:resource="http://creativecommons.org/ns#Notice" /><cc:requires
         rdf:resource="http://creativecommons.org/ns#Attribution" /><cc:prohibits
         rdf:resource="http://creativecommons.org/ns#CommercialUse" /><cc:permits
         rdf:resource="http://creativecommons.org/ns#DerivativeWorks" /><cc:requires
         rdf:resource="http://creativecommons.org/ns#ShareAlike" /></cc:License></rdf:RDF></metadata><defs
   id="defs17226"><marker
     inkscape:isstock="true"
     style="overflow:visible"
     id="marker24406"
     refX="0"
     refY="0"
     orient="auto"
     inkscape:stockid="Arrow2Lstart"><path
       transform="matrix(1.1,0,0,1.1,1.1,0)"
       d="M 8.7185878,4.0337352 -2.2072895,0.01601326 8.7185884,-4.0017078 c -1.7454984,2.3720609 -1.7354408,5.6174519 -6e-7,8.035443 z"
       style="fill:#000000;fill-opacity:1;fill-rule:evenodd;stroke:#000000;stroke-width:0.625;stroke-linejoin:round;stroke-opacity:1"
       id="path24408"
       inkscape:connector-curvature="0" /></marker><marker
     inkscape:isstock="true"
     style="overflow:visible"
     id="marker23437"
     refX="0"
     refY="0"
     orient="auto"
     inkscape:stockid="Arrow2Lend"><path
       transform="matrix(-1.1,0,0,-1.1,-1.1,0)"
       d="M 8.7185878,4.0337352 -2.2072895,0.01601326 8.7185884,-4.0017078 c -1.7454984,2.3720609 -1.7354408,5.6174519 -6e-7,8.035443 z"
       style="fill:#000000;fill-opacity:1;fill-rule:evenodd;stroke:#000000;stroke-width:0.625;stroke-linejoin:round;stroke-opacity:1"
       id="path23439"
       inkscape:connector-curvature="0" /></marker><marker
     inkscape:stockid="Arrow2Lend"
     orient="auto"
     refY="0"
     refX="0"
     id="marker22908"
     style="overflow:visible"
     inkscape:isstock="true"><path
       id="path22910"
       style="fill:#000000;fill-opacity:1;fill-rule:evenodd;stroke:#000000;stroke-width:0.625;stroke-linejoin:round;stroke-opacity:1"
       d="M 8.7185878,4.0337352 -2.2072895,0.01601326 8.7185884,-4.0017078 c -1.7454984,2.3720609 -1.7354408,5.6174519 -6e-7,8.035443 z"
       transform="matrix(-1.1,0,0,-1.1,-1.1,0)"
       inkscape:connector-curvature="0" /></marker><marker
     inkscape:isstock="true"
     style="overflow:visible"
     id="marker22682"
     refX="0"
     refY="0"
     orient="auto"
     inkscape:stockid="Arrow2Lend"><path
       transform="matrix(-1.1,0,0,-1.1,-1.1,0)"
       d="M 8.7185878,4.0337352 -2.2072895,0.01601326 8.7185884,-4.0017078 c -1.7454984,2.3720609 -1.7354408,5.6174519 -6e-7,8.035443 z"
       style="fill:#000000;fill-opacity:1;fill-rule:evenodd;stroke:#000000;stroke-width:0.625;stroke-linejoin:round;stroke-opacity:1"
       id="path22684"
       inkscape:connector-curvature="0" /></marker><marker
     inkscape:isstock="true"
     style="overflow:visible"
     id="marker22450"
     refX="0"
     refY="0"
     orient="auto"
     inkscape:stockid="Arrow2Lend"><path
       transform="matrix(-1.1,0,0,-1.1,-1.1,0)"
       d="M 8.7185878,4.0337352 -2.2072895,0.01601326 8.7185884,-4.0017078 c -1.7454984,2.3720609 -1.7354408,5.6174519 -6e-7,8.035443 z"
       style="fill:#000000;fill-opacity:1;fill-rule:evenodd;stroke:#000000;stroke-width:0.625;stroke-linejoin:round;stroke-opacity:1"
       id="path22452"
       inkscape:connector-curvature="0" /></marker><marker
     inkscape:isstock="true"
     style="overflow:visible"
     id="marker22242"
     refX="0"
     refY="0"
     orient="auto"
     inkscape:stockid="Arrow2Lend"><path
       transform="matrix(-1.1,0,0,-1.1,-1.1,0)"
       d="M 8.7185878,4.0337352 -2.2072895,0.01601326 8.7185884,-4.0017078 c -1.7454984,2.3720609 -1.7354408,5.6174519 -6e-7,8.035443 z"
       style="fill:#000000;fill-opacity:1;fill-rule:evenodd;stroke:#000000;stroke-width:0.625;stroke-linejoin:round;stroke-opacity:1"
       id="path22244"
       inkscape:connector-curvature="0" /></marker><marker
     inkscape:isstock="true"
     style="overflow:visible"
     id="marker21738"
     refX="0"
     refY="0"
     orient="auto"
     inkscape:stockid="Arrow2Mstart"><path
       transform="scale(0.6)"
       d="M 8.7185878,4.0337352 -2.2072895,0.01601326 8.7185884,-4.0017078 c -1.7454984,2.3720609 -1.7354408,5.6174519 -6e-7,8.035443 z"
       style="fill:#000000;fill-opacity:1;fill-rule:evenodd;stroke:#000000;stroke-width:0.625;stroke-linejoin:round;stroke-opacity:1"
       id="path21740"
       inkscape:connector-curvature="0" /></marker><marker
     inkscape:stockid="Arrow2Lstart"
     orient="auto"
     refY="0"
     refX="0"
     id="marker21352"
     style="overflow:visible"
     inkscape:isstock="true"><path
       id="path21354"
       style="fill:#000000;fill-opacity:1;fill-rule:evenodd;stroke:#000000;stroke-width:0.625;stroke-linejoin:round;stroke-opacity:1"
       d="M 8.7185878,4.0337352 -2.2072895,0.01601326 8.7185884,-4.0017078 c -1.7454984,2.3720609 -1.7354408,5.6174519 -6e-7,8.035443 z"
       transform="matrix(1.1,0,0,1.1,1.1,0)"
       inkscape:connector-curvature="0" /></marker><marker
     inkscape:stockid="Arrow2Lstart"
     orient="auto"
     refY="0"
     refX="0"
     id="marker21192"
     style="overflow:visible"
     inkscape:isstock="true"><path
       id="path21194"
       style="fill:#000000;fill-opacity:1;fill-rule:evenodd;stroke:#000000;stroke-width:0.625;stroke-linejoin:round;stroke-opacity:1"
       d="M 8.7185878,4.0337352 -2.2072895,0.01601326 8.7185884,-4.0017078 c -1.7454984,2.3720609 -1.7354408,5.6174519 -6e-7,8.035443 z"
       transform="matrix(1.1,0,0,1.1,1.1,0)"
       inkscape:connector-curvature="0" /></marker><marker
     inkscape:stockid="Arrow2Lstart"
     orient="auto"
     refY="0"
     refX="0"
     id="Arrow2Lstart"
     style="overflow:visible"
     inkscape:isstock="true"><path
       id="path4252"
       style="fill:#000000;fill-opacity:1;fill-rule:evenodd;stroke:#000000;stroke-width:0.625;stroke-linejoin:round;stroke-opacity:1"
       d="M 8.7185878,4.0337352 -2.2072895,0.01601326 8.7185884,-4.0017078 c -1.7454984,2.3720609 -1.7354408,5.6174519 -6e-7,8.035443 z"
       transform="matrix(1.1,0,0,1.1,1.1,0)"
       inkscape:connector-curvature="0" /></marker><marker
     inkscape:stockid="Arrow2Mstart"
     orient="auto"
     refY="0"
     refX="0"
     id="marker20892"
     style="overflow:visible"
     inkscape:isstock="true"><path
       id="path20894"
       style="fill:#000000;fill-opacity:1;fill-rule:evenodd;stroke:#000000;stroke-width:0.625;stroke-linejoin:round;stroke-opacity:1"
       d="M 8.7185878,4.0337352 -2.2072895,0.01601326 8.7185884,-4.0017078 c -1.7454984,2.3720609 -1.7354408,5.6174519 -6e-7,8.035443 z"
       transform="scale(0.6)"
       inkscape:connector-curvature="0" /></marker><marker
     inkscape:stockid="Arrow2Mstart"
     orient="auto"
     refY="0"
     refX="0"
     id="Arrow2Mstart"
     style="overflow:visible"
     inkscape:isstock="true"><path
       id="path4258"
       style="fill:#000000;fill-opacity:1;fill-rule:evenodd;stroke:#000000;stroke-width:0.625;stroke-linejoin:round;stroke-opacity:1"
       d="M 8.7185878,4.0337352 -2.2072895,0.01601326 8.7185884,-4.0017078 c -1.7454984,2.3720609 -1.7354408,5.6174519 -6e-7,8.035443 z"
       transform="scale(0.6)"
       inkscape:connector-curvature="0" /></marker><marker
     inkscape:stockid="Arrow1Mstart"
     orient="auto"
     refY="0"
     refX="0"
     id="Arrow1Mstart"
     style="overflow:visible"
     inkscape:isstock="true"><path
       id="path4240"
       d="M 0,0 5,-5 -12.5,0 5,5 Z"
       style="fill:#000000;fill-opacity:1;fill-rule:evenodd;stroke:#000000;stroke-width:1pt;stroke-opacity:1"
       transform="matrix(0.4,0,0,0.4,4,0)"
       inkscape:connector-curvature="0" /></marker><marker
     inkscape:stockid="Arrow2Mend"
     orient="auto"
     refY="0"
     refX="0"
     id="Arrow2Mend"
     style="overflow:visible"
     inkscape:isstock="true"><path
       id="path4261"
       style="fill:#000000;fill-opacity:1;fill-rule:evenodd;stroke:#000000;stroke-width:0.625;stroke-linejoin:round;stroke-opacity:1"
       d="M 8.7185878,4.0337352 -2.2072895,0.01601326 8.7185884,-4.0017078 c -1.7454984,2.3720609 -1.7354408,5.6174519 -6e-7,8.035443 z"
       transform="scale(-0.6)"
       inkscape:connector-curvature="0" /></marker><marker
     inkscape:stockid="Arrow1Lend"
     orient="auto"
     refY="0"
     refX="0"
     id="Arrow1Lend"
     style="overflow:visible"
     inkscape:isstock="true"><path
       id="path4237"
       d="M 0,0 5,-5 -12.5,0 5,5 Z"
       style="fill:#000000;fill-opacity:1;fill-rule:evenodd;stroke:#000000;stroke-width:1pt;stroke-opacity:1"
       transform="matrix(-0.8,0,0,-0.8,-10,0)"
       inkscape:connector-curvature="0" /></marker><marker
     inkscape:stockid="Arrow2Mend"
     orient="auto"
     refY="0"
     refX="0"
     id="Arrow2Mend-6"
     style="overflow:visible"
     inkscape:isstock="true"><path
       inkscape:connector-curvature="0"
       id="path4261-8"
       style="fill:#000000;fill-opacity:1;fill-rule:evenodd;stroke:#000000;stroke-width:0.625;stroke-linejoin:round;stroke-opacity:1"
       d="M 8.7185878,4.0337352 -2.2072895,0.01601326 8.7185884,-4.0017078 c -1.7454984,2.3720609 -1.7354408,5.6174519 -6e-7,8.035443 z"
       transform="scale(-0.6)" /></marker><marker
     inkscape:stockid="Arrow2Mend"
     orient="auto"
     refY="0"
     refX="0"
     id="Arrow2Mend-7"
     style="overflow:visible"
     inkscape:isstock="true"><path
       inkscape:connector-curvature="0"
       id="path4261-2"
       style="fill:#000000;fill-opacity:1;fill-rule:evenodd;stroke:#000000;stroke-width:0.625;stroke-linejoin:round;stroke-opacity:1"
       d="M 8.7185878,4.0337352 -2.2072895,0.01601326 8.7185884,-4.0017078 c -1.7454984,2.3720609 -1.7354408,5.6174519 -6e-7,8.035443 z"
       transform="scale(-0.6)" /></marker><marker
     inkscape:stockid="Arrow2Lstart"
     orient="auto"
     refY="0"
     refX="0"
     id="marker21536-8"
     style="overflow:visible"
     inkscape:isstock="true"><path
       inkscape:connector-curvature="0"
       id="path21538-4"
       style="fill:#000000;fill-opacity:1;fill-rule:evenodd;stroke:#000000;stroke-width:0.625;stroke-linejoin:round;stroke-opacity:1"
       d="M 8.7185878,4.0337352 -2.2072895,0.01601326 8.7185884,-4.0017078 c -1.7454984,2.3720609 -1.7354408,5.6174519 -6e-7,8.035443 z"
       transform="matrix(1.1,0,0,1.1,1.1,0)" /></marker><marker
     inkscape:isstock="true"
     style="overflow:visible"
     id="marker23437-6"
     refX="0"
     refY="0"
     orient="auto"
     inkscape:stockid="Arrow2Lend"><path
       transform="matrix(-1.1,0,0,-1.1,-1.1,0)"
       d="M 8.7185878,4.0337352 -2.2072895,0.01601326 8.7185884,-4.0017078 c -1.7454984,2.3720609 -1.7354408,5.6174519 -6e-7,8.035443 z"
       style="fill:#000000;fill-opacity:1;fill-rule:evenodd;stroke:#000000;stroke-width:0.625;stroke-linejoin:round;stroke-opacity:1"
       id="path23439-6"
       inkscape:connector-curvature="0" /></marker><marker
     inkscape:stockid="Arrow2Lstart"
     orient="auto"
     refY="0"
     refX="0"
     id="Arrow2Lstart-0"
     style="overflow:visible"
     inkscape:isstock="true"><path
       id="path4252-5"
       style="fill:#000000;fill-opacity:1;fill-rule:evenodd;stroke:#000000;stroke-width:0.625;stroke-linejoin:round;stroke-opacity:1"
       d="M 8.7185878,4.0337352 -2.2072895,0.01601326 8.7185884,-4.0017078 c -1.7454984,2.3720609 -1.7354408,5.6174519 -6e-7,8.035443 z"
       transform="matrix(1.1,0,0,1.1,1.1,0)"
       inkscape:connector-curvature="0" /></marker><marker
     inkscape:isstock="true"
     style="overflow:visible"
     id="marker23437-6-4"
     refX="0"
     refY="0"
     orient="auto"
     inkscape:stockid="Arrow2Lend"><path
       transform="matrix(-1.1,0,0,-1.1,-1.1,0)"
       d="M 8.7185878,4.0337352 -2.2072895,0.01601326 8.7185884,-4.0017078 c -1.7454984,2.3720609 -1.7354408,5.6174519 -6e-7,8.035443 z"
       style="fill:#000000;fill-opacity:1;fill-rule:evenodd;stroke:#000000;stroke-width:0.625;stroke-linejoin:round;stroke-opacity:1"
       id="path23439-6-3"
       inkscape:connector-curvature="0" /></marker><marker
     inkscape:isstock="true"
     style="overflow:visible"
     id="marker23437-6-4-5"
     refX="0"
     refY="0"
     orient="auto"
     inkscape:stockid="Arrow2Lend"><path
       transform="matrix(-1.1,0,0,-1.1,-1.1,0)"
       d="M 8.7185878,4.0337352 -2.2072895,0.01601326 8.7185884,-4.0017078 c -1.7454984,2.3720609 -1.7354408,5.6174519 -6e-7,8.035443 z"
       style="fill:#000000;fill-opacity:1;fill-rule:evenodd;stroke:#000000;stroke-width:0.625;stroke-linejoin:round;stroke-opacity:1"
       id="path23439-6-3-9"
       inkscape:connector-curvature="0" /></marker><marker
     inkscape:isstock="true"
     style="overflow:visible"
     id="Arrow2Lstart-8"
     refX="0"
     refY="0"
     orient="auto"
     inkscape:stockid="Arrow2Lstart"><path
       inkscape:connector-curvature="0"
       transform="matrix(1.1,0,0,1.1,1.1,0)"
       d="M 8.7185878,4.0337352 -2.2072895,0.01601326 8.7185884,-4.0017078 c -1.7454984,2.3720609 -1.7354408,5.6174519 -6e-7,8.035443 z"
       style="fill:#000000;fill-opacity:1;fill-rule:evenodd;stroke:#000000;stroke-width:0.625;stroke-linejoin:round;stroke-opacity:1"
       id="path4252-0" /></marker></defs><sodipodi:namedview
   pagecolor="#ffffff"
   bordercolor="#666666"
   borderopacity="1"
   objecttolerance="10"
   gridtolerance="10000"
   guidetolerance="10"
   inkscape:pageopacity="0"
   inkscape:pageshadow="2"
   inkscape:window-width="1278"
   inkscape:window-height="729"
   id="namedview17224"
   showgrid="true"
   fit-margin-top="10"
   fit-margin-right="10"
   fit-margin-bottom="10"
   fit-margin-left="10"
   inkscape:zoom="4.747925"
   inkscape:cx="74.13765"
   inkscape:cy="46.44134"
   inkscape:window-x="0"
   inkscape:window-y="23"
   inkscape:window-maximized="0"
   inkscape:current-layer="Layer_1"
   inkscape:snap-grids="true"
   showguides="false"
   inkscape:snap-nodes="true"
   inkscape:object-nodes="true"
   inkscape:snap-global="true"
   inkscape:snap-object-midpoints="true"
   inkscape:object-paths="true"
   inkscape:snap-others="false"><inkscape:grid
     type="xygrid"
     id="grid18156"
     visible="true"
     empspacing="5"
     units="mm"
     spacingx="3.5433071"
     spacingy="3.5433071"
     dotted="false"
     snapvisiblegridlinesonly="false"
     originx="-397.96168"
     originy="-150.10045" /></sodipodi:namedview><style
   type="text/css"
   id="style17124">
	.st0{fill:none;stroke:#000000;stroke-linecap:round;stroke-linejoin:round;stroke-miterlimit:10;}
	.st1{fill:none;stroke:#BABEC2;stroke-linecap:round;stroke-linejoin:round;stroke-miterlimit:10;}
	.st2{fill:none;stroke:#BABEC2;stroke-width:2;stroke-linecap:round;stroke-linejoin:round;stroke-miterlimit:10;}
	.st3{fill:none;}
	.st4{fill:none;stroke:#000000;stroke-width:1.5;stroke-linecap:round;stroke-linejoin:round;stroke-miterlimit:10;}
	.st5{fill:none;stroke:#000000;stroke-linecap:round;stroke-miterlimit:10;}
	.st6{fill:none;stroke:#000000;stroke-width:1.5;stroke-linecap:round;stroke-miterlimit:10;}
	.st7{fill:none;stroke:#000000;stroke-width:2;stroke-linecap:round;stroke-linejoin:round;stroke-miterlimit:10;}
	.st8{fill:none;stroke:#000000;stroke-width:1.5;stroke-miterlimit:10;}
	.st9{fill:none;stroke:#000000;stroke-miterlimit:10;}
	.st10{fill:none;stroke:#000000;stroke-width:2;stroke-miterlimit:10;}
	.st11{fill:none;stroke:#000000;stroke-width:2;stroke-linecap:round;stroke-miterlimit:10;}
	.st12{fill:none;stroke:#000000;stroke-linecap:round;stroke-linejoin:round;}
	.st13{stroke:#000000;stroke-linecap:round;stroke-linejoin:round;stroke-miterlimit:10;}
	.st14{fill:none;stroke:#000000;stroke-width:1.5;stroke-linejoin:round;stroke-miterlimit:10;}
	.st15{fill:none;stroke:#000000;stroke-linejoin:round;stroke-miterlimit:10;}
	.st16{clip-path:url(#SVGID_2_);fill:none;stroke:#000000;stroke-linejoin:round;stroke-miterlimit:10;}
	.st17{clip-path:url(#SVGID_2_);fill:none;stroke:#ADADEB;stroke-linejoin:round;stroke-miterlimit:10;}
	.st18{clip-path:url(#SVGID_2_);}
	.st19{stroke:#000000;stroke-linejoin:round;stroke-miterlimit:10;}
	.st20{stroke:#000000;stroke-width:3;stroke-linejoin:round;stroke-miterlimit:10;}
	.st21{fill:none;stroke:#000000;stroke-linejoin:round;}
	.st22{opacity:0.5;fill:#CCFAFF;}
	.st23{fill:none;stroke:#0C7F99;stroke-miterlimit:10;}
	.st24{fill:#0C7F99;}
	.st25{fill:none;stroke:#11ACCD;stroke-width:3;stroke-linecap:round;stroke-miterlimit:10;}
	.st26{fill:#11ACCD;}
	.st27{fill:none;stroke:#01D1C1;stroke-width:2;stroke-miterlimit:10;}
	.st28{fill:none;stroke:#01D1C1;stroke-linecap:round;stroke-miterlimit:10;}
	.st29{fill:none;stroke:#01D1C1;stroke-linecap:round;stroke-linejoin:round;stroke-miterlimit:10;}
	.st30{fill:none;stroke:#01D1C1;stroke-width:1.5;stroke-miterlimit:10;}
	.st31{fill:none;stroke:#01D1C1;stroke-width:2;stroke-linecap:round;stroke-linejoin:round;stroke-miterlimit:10;}
	.st32{fill:#01D1C1;stroke:#01D1C1;stroke-linecap:round;stroke-linejoin:round;stroke-miterlimit:10;}
	.st33{fill:none;stroke:#01D1C1;stroke-miterlimit:10;}
	.st34{fill:#01D1C1;}
	.st35{fill:none;stroke:#FCA9A9;stroke-width:3;stroke-linecap:round;stroke-miterlimit:10;}
	.st36{fill:#FCA9A9;}
	.st37{fill:#FFFFFF;stroke:#000000;stroke-miterlimit:10;}
	.st38{fill:#11ACCD;stroke:#000000;stroke-miterlimit:10;}
	.st39{font-family:'KaTeX_Main-Regular';}
	.st40{font-size:21px;}
	.st41{letter-spacing:2;}
	.st42{fill:#BABEC2;stroke:#BABEC2;stroke-miterlimit:10;}
	.st43{stroke:#000000;stroke-miterlimit:10;}
</style>

<circle
   style="opacity:0.97;fill:#000000;fill-opacity:1;stroke:#000000;stroke-width:1;stroke-linecap:round;stroke-linejoin:round;stroke-miterlimit:10;stroke-dasharray:none;stroke-opacity:0.992157"
   id="path34745"
   cx="-167.64671"
   cy="-199.66342"
   r="0" /><circle
   style="opacity:1;vector-effect:none;fill:none;fill-opacity:1;stroke:#000000;stroke-width:2.8125;stroke-linecap:round;stroke-linejoin:round;stroke-miterlimit:4;stroke-dasharray:none;stroke-dashoffset:0;stroke-opacity:1"
   id="path1321-3"
   cx="204.40053"
   cy="-61.474453"
   r="0" /><circle
   style="opacity:1;vector-effect:none;fill:none;fill-opacity:1;stroke:#000000;stroke-width:2.8125;stroke-linecap:round;stroke-linejoin:round;stroke-miterlimit:4;stroke-dasharray:none;stroke-dashoffset:0;stroke-opacity:1"
   id="path1321-4"
   cx="204.40053"
   cy="-61.474453"
   r="0" /><circle
   style="opacity:1;vector-effect:none;fill:none;fill-opacity:1;stroke:#000000;stroke-width:2.8125;stroke-linecap:round;stroke-linejoin:round;stroke-miterlimit:4;stroke-dasharray:none;stroke-dashoffset:0;stroke-opacity:1"
   id="path1321-8"
   cx="204.40053"
   cy="-61.474453"
   r="0" /><circle
   style="opacity:1;vector-effect:none;fill:none;fill-opacity:1;stroke:#000000;stroke-width:2.8125;stroke-linecap:round;stroke-linejoin:round;stroke-miterlimit:4;stroke-dasharray:none;stroke-dashoffset:0;stroke-opacity:1"
   id="path1321-6"
   cx="204.40053"
   cy="-61.474453"
   r="0" />






<text
   xml:space="preserve"
   style="font-style:normal;font-variant:normal;font-weight:normal;font-stretch:normal;font-size:37.5px;line-height:125%;font-family:KaTeX_Main;-inkscape-font-specification:'KaTeX_Main, Normal';text-align:start;letter-spacing:0px;word-spacing:0px;writing-mode:lr-tb;text-anchor:start;fill:#000000;fill-opacity:1;stroke:none;stroke-width:0.9375px;stroke-linecap:butt;stroke-linejoin:miter;stroke-opacity:1"
   x="615.42426"
   y="-472.49802"
   id="text2520" />















<path
   inkscape:connector-curvature="0"
   id="path18296-6-6"
   d="m 63.517635,28.260999 v 33.2185"
   style="fill:none;fill-rule:evenodd;stroke:#000000;stroke-width:3.75;stroke-linecap:square;stroke-linejoin:miter;stroke-miterlimit:4;stroke-dasharray:none;stroke-opacity:1" /><path
   inkscape:connector-curvature="0"
   id="path18298-5-0-7"
   d="m 44.951715,44.870199 h 16.6909"
   style="fill:none;fill-rule:evenodd;stroke:#000000;stroke-width:0.939802px;stroke-linecap:round;stroke-linejoin:miter;stroke-opacity:1" /><g
   style="font-style:normal;font-variant:normal;font-weight:normal;font-stretch:normal;font-size:11.25px;line-height:0%;font-family:KaTeX_Main;-inkscape-font-specification:'KaTeX_Main, Normal';text-align:start;letter-spacing:0px;word-spacing:0px;writing-mode:lr-tb;text-anchor:start;fill:#000000;fill-opacity:1;stroke:none;stroke-width:0.9375px;stroke-linecap:butt;stroke-linejoin:miter;stroke-opacity:1"
   id="text37959"
   aria-label="drain"><path
     id="path1086"
     style="font-size:16.4062px;line-height:1.25;stroke-width:0.9375px"
     d="m 89.304863,13.509362 q 1.214059,0 2.165619,0.803904 v -1.673433 q 0,-1.706245 -0.01641,-1.771869 -0.04922,-0.311718 -0.246093,-0.410155 -0.180468,-0.114844 -0.721872,-0.147656 H 90.190798 V 9.9328101 q 0,-0.3773426 0.03281,-0.3773426 l 0.164062,-0.016406 q 0.164062,-0.016406 0.47578,-0.032812 0.311718,-0.016406 0.60703,-0.032812 0.278905,-0.016406 0.607029,-0.032812 0.328124,-0.032812 0.492186,-0.049219 0.164062,-0.016406 0.180468,-0.016406 h 0.04922 v 4.9874847 q 0,5.020298 0.01641,5.069516 0.04922,0.328124 0.229687,0.442968 0.196874,0.09844 0.738279,0.131249 h 0.295311 v 0.754685 q -0.03281,0 -1.263277,0.08203 -1.214059,0.08203 -1.279684,0.09844 H 91.421263 V 20.03903 l -0.13125,0.114843 q -0.935153,0.787498 -2.132806,0.787498 -1.148434,0 -2.034369,-0.771092 -1.017184,-0.902341 -1.246871,-2.362493 -0.01641,-0.131249 -0.01641,-0.574217 0,-1.591401 1.017184,-2.657804 1.017185,-1.066403 2.428118,-1.066403 z m 2.1164,1.64062 q -0.738279,-1.033591 -1.853901,-1.033591 -0.803904,0 -1.427339,0.590623 -0.410155,0.426562 -0.557811,1.000779 -0.13125,0.574217 -0.13125,1.591401 0,1.821088 0.689061,2.493743 0.508592,0.541404 1.279683,0.541404 0.574218,0 1.099216,-0.311718 0.524998,-0.311717 0.836716,-0.853122 l 0.06562,-0.09844 z" /><path
     id="path1088"
     style="font-size:16.4062px;line-height:1.25;stroke-width:0.9375px"
     d="m 95.024731,20.006217 h 0.229687 q 0.639842,0 0.771091,-0.229687 v -0.131249 q 0,-0.147656 0,-0.377343 0.01641,-0.229687 0.01641,-0.508592 0,-0.295312 0,-0.639842 0,-0.360936 0,-0.68906 0,-0.508592 0,-1.08281 0,-0.590623 0,-0.967965 l -0.01641,-0.377343 q -0.04922,-0.311718 -0.246093,-0.410155 -0.180468,-0.114843 -0.721873,-0.147656 h -0.295311 v -0.377342 q 0,-0.377343 0.03281,-0.377343 l 0.164062,-0.01641 q 0.164062,-0.01641 0.459374,-0.03281 0.295311,-0.01641 0.590623,-0.03281 0.262499,-0.01641 0.574217,-0.03281 0.311718,-0.03281 0.47578,-0.04922 0.164062,-0.01641 0.180468,-0.01641 h 0.04922 v 1.132028 q 0.311717,-0.524999 0.68906,-0.82031 0.377343,-0.295312 1.000778,-0.295312 0.459374,0 0.787498,0.180468 0.639837,0.328124 0.639837,0.935154 0,0.360936 -0.24609,0.607029 -0.246091,0.229687 -0.590621,0.229687 -0.344531,0 -0.590624,-0.229687 -0.229687,-0.229687 -0.229687,-0.590623 0,-0.278906 0.13125,-0.459374 0.03281,-0.06563 0.03281,-0.08203 -0.03281,-0.03281 -0.377342,0.06563 -0.262499,0.13125 -0.393749,0.246093 -0.656248,0.623436 -0.754685,2.067181 v 0.639842 q -0.01641,0.639842 -0.01641,1.099216 0,0.21328 0,0.459373 0,0.229687 0,0.410155 0.01641,0.180468 0.01641,0.328124 0,0.147656 0,0.246093 v 0.08203 q 0.06562,0.13125 0.196874,0.164062 0.164062,0.06563 0.869529,0.08203 h 0.508592 v 0.754685 h -0.147656 q -0.295311,-0.04922 -2.083587,-0.04922 -1.607808,0 -1.837495,0.04922 h -0.131249 v -0.754685 z" /><path
     id="path1090"
     style="font-size:16.4062px;line-height:1.25;stroke-width:0.9375px"
     d="m 103.40138,15.494512 q -0.2461,0.262499 -0.62344,0.262499 -0.37734,0 -0.62343,-0.262499 -0.2461,-0.262499 -0.2461,-0.623436 0,-0.229686 0.13125,-0.524998 0.21328,-0.442967 0.85313,-0.68906 0.63984,-0.246093 1.55858,-0.246093 1.08281,0 1.87031,0.492186 0.8039,0.492186 1.05,1.279683 0.082,0.229687 0.082,0.524999 0.0164,0.278905 0.0164,1.870307 0,1.607807 0,1.886713 0.0164,0.262499 0.0984,0.410155 0.0984,0.229686 0.32813,0.229686 0.21328,0 0.31171,-0.229686 0.0984,-0.196875 0.0984,-0.902341 v -0.590624 h 0.65625 v 0.639842 q -0.0164,0.656248 -0.0492,0.771092 -0.14765,0.459373 -0.5414,0.771091 -0.39375,0.295312 -0.93516,0.295312 -0.41015,0 -0.73828,-0.278906 -0.31171,-0.295311 -0.42656,-0.705466 v -0.06563 q -0.0492,0.04922 -0.19687,0.229687 -0.14766,0.164062 -0.21328,0.229686 -0.80391,0.672655 -1.87031,0.672655 -0.85312,0 -1.52578,-0.360937 -0.67265,-0.360936 -0.90234,-0.951559 -0.13125,-0.311718 -0.13125,-0.623436 0,-0.771091 0.63985,-1.410933 0.37734,-0.377343 0.93515,-0.623436 1.11562,-0.508592 2.85468,-0.607029 h 0.22968 v -0.360937 q 0,-0.557811 -0.0984,-0.82031 -0.16406,-0.541404 -0.57422,-0.853122 -0.41015,-0.311718 -1.01718,-0.311718 -1.09922,0 -1.09922,0.13125 0.36094,0.246093 0.36094,0.721872 0,0.360937 -0.2625,0.623436 z m 2.69061,2.395305 q 0,-0.951559 -0.0164,-0.951559 -0.0492,0 -0.082,0.01641 -2.24765,0.147656 -2.87109,1.328902 -0.18047,0.328124 -0.18047,0.738279 0,0.557811 0.39375,0.935154 0.39375,0.377342 0.96797,0.377342 0.65625,0 1.11562,-0.393749 0.47578,-0.393748 0.62344,-0.967965 0.0328,-0.114844 0.0492,-1.08281 z" /><path
     id="path1092"
     style="font-size:16.4062px;line-height:1.25;stroke-width:0.9375px"
     d="m 111.22714,9.7851543 q 0.41015,0.032812 0.67265,0.2953117 0.2625,0.246093 0.2625,0.68906 0,0.590624 -0.44297,0.836717 -0.21328,0.147655 -0.525,0.147655 -0.32812,0 -0.5414,-0.147655 -0.44297,-0.246093 -0.44297,-0.836717 0,-0.459373 0.27891,-0.721872 0.29531,-0.2624997 0.73828,-0.2624997 z m 1.90311,10.9757477 q -0.18046,-0.04922 -1.70624,-0.04922 -1.49296,0 -1.78828,0.04922 h -0.13125 v -0.754685 h 0.2625 q 0.45938,0 0.80391,-0.04922 0.13125,-0.04922 0.19687,-0.180469 0.0164,-0.03281 0.0164,-2.378899 0,-2.46093 -0.0656,-2.624992 -0.13125,-0.328124 -0.96796,-0.328124 h -0.18047 v -0.377342 q 0,-0.377343 0.0328,-0.377343 l 0.16406,-0.01641 q 0.16407,-0.01641 0.45938,-0.03281 0.29531,-0.01641 0.59062,-0.03281 0.27891,-0.01641 0.59062,-0.03281 0.31172,-0.03281 0.47578,-0.04922 0.16407,-0.01641 0.18047,-0.01641 h 0.0492 v 6.234356 q 0.082,0.164062 0.19687,0.213281 0.11485,0.03281 0.57422,0.04922 h 0.37734 v 0.754685 z" /><path
     id="path1094"
     style="font-size:16.4062px;line-height:1.25;stroke-width:0.9375px"
     d="m 116.71245,19.77653 q 0.13125,0.229687 0.77109,0.229687 h 0.22968 0.2625 v 0.754685 h -0.13125 q -0.21328,-0.04922 -1.83749,-0.04922 -1.62421,0 -1.8375,0.04922 h -0.13124 v -0.754685 h 0.26249 0.22969 q 0.63984,0 0.77109,-0.229687 v -0.131249 q 0,-0.147656 0,-0.377343 0,-0.229687 0,-0.508592 0.0164,-0.295312 0.0164,-0.639842 0,-0.360936 0,-0.68906 0,-0.508592 -0.0164,-1.08281 0,-0.590623 0,-0.967965 v -0.377343 q -0.0492,-0.311718 -0.24609,-0.410155 -0.18047,-0.114843 -0.72187,-0.147656 h -0.29531 v -0.377342 q 0,-0.377343 0.0328,-0.377343 l 0.16406,-0.01641 q 0.16406,-0.01641 0.45937,-0.03281 0.31172,-0.01641 0.60703,-0.03281 0.27891,-0.01641 0.59063,-0.03281 0.31171,-0.03281 0.47578,-0.04922 0.16406,-0.01641 0.18046,-0.01641 h 0.0492 v 0.656248 q 0,0.623435 0.0164,0.623435 l 0.0164,-0.01641 q 0.88593,-1.263277 2.51014,-1.263277 1.88672,0.06563 2.08359,1.8539 0.0164,0.114844 0.0164,2.280462 0,2.099994 0.0164,2.132806 0.0656,0.13125 0.19688,0.180469 0.34453,0.04922 0.8039,0.04922 h 0.2625 v 0.754685 h -0.13125 q -0.21328,-0.04922 -1.83749,-0.04922 -1.62422,0 -1.8375,0.04922 h -0.13125 v -0.754685 h 0.2625 0.13125 q 0.86953,0 0.86953,-0.262499 0.0164,-0.03281 0.0164,-2.264056 -0.0164,-2.214837 -0.0328,-2.346086 -0.11484,-0.524999 -0.37734,-0.754686 -0.24609,-0.246093 -0.77109,-0.246093 -0.73828,0 -1.29609,0.557811 -0.57422,0.574217 -0.67265,1.443746 0,0.01641 0,0.311718 0,0.278905 -0.0164,0.721873 0,0.442967 0,0.836716 0,0.246093 0,0.524998 0,0.262499 0,0.47578 0.0164,0.213281 0.0164,0.393749 0,0.164062 0,0.278905 z" /></g><g
   style="font-style:normal;font-variant:normal;font-weight:normal;font-stretch:normal;font-size:11.25px;line-height:0%;font-family:KaTeX_Main;-inkscape-font-specification:'KaTeX_Main, Normal';text-align:start;letter-spacing:0px;word-spacing:0px;writing-mode:lr-tb;text-anchor:start;fill:#000000;fill-opacity:1;stroke:none;stroke-width:0.9375px;stroke-linecap:butt;stroke-linejoin:miter;stroke-opacity:1"
   id="text37963"
   aria-label="source"><path
     id="path1097"
     style="font-size:16.4062px;line-height:1.25;stroke-width:0.9375px"
     d="m 88.418928,70.705918 q -1.50937,0 -1.50937,1.066403 0,0.213281 0.03281,0.278905 0.147656,0.393749 0.508592,0.574218 0.360937,0.164062 1.115622,0.311717 0.935153,0.164062 1.279684,0.360937 1.03359,0.492186 1.328902,1.624214 0.01641,0.09844 0.01641,0.393748 0,0.639842 -0.229687,1.132028 -0.639841,1.214059 -2.411711,1.214059 -0.984372,0 -1.706245,-0.590623 l -0.13125,0.114843 -0.147655,0.147656 q -0.09844,0.09844 -0.196875,0.180468 l -0.180468,0.164062 h -0.13125 q -0.114843,0 -0.21328,-0.09844 v -1.29609 q 0,-1.066403 0,-1.230465 0.01641,-0.164062 0.08203,-0.196874 0.03281,-0.01641 0.262499,-0.01641 0.213281,0 0.246093,0.03281 0.04922,0.03281 0.09844,0.229687 0.13125,0.623435 0.426561,1.132028 0.574217,0.836716 1.591402,0.836716 1.591401,0 1.591401,-1.279684 0,-0.47578 -0.295311,-0.771091 -0.2625,-0.311718 -0.689061,-0.442968 -0.278905,-0.06562 -0.787497,-0.180468 -0.918748,-0.180468 -1.246872,-0.34453 -1.082809,-0.508592 -1.263277,-1.525777 -0.01641,-0.06562 -0.01641,-0.246093 0,-1.886713 2.313274,-2.1164 0.06562,-0.03281 0.393749,0 0.656248,0 1.148434,0.246093 l 0.246093,0.13125 0.147656,-0.114843 q 0.21328,-0.180469 0.360936,-0.278906 h 0.13125 q 0.114843,0 0.21328,0.09844 v 2.165619 l -0.09844,0.09844 h -0.459373 q -0.09844,-0.09844 -0.09844,-0.196874 0,-0.754686 -0.459373,-1.181247 -0.459374,-0.426561 -1.263278,-0.426561 z" /><path
     id="path1099"
     style="font-size:16.4062px;line-height:1.25;stroke-width:0.9375px"
     d="m 92.233883,73.987158 q 0,-1.492964 0.951559,-2.559367 0.95156,-1.082809 2.280462,-1.246871 0.262499,-0.03281 0.410155,-0.03281 1.427339,0 2.477336,1.049997 1.148434,1.148434 1.148434,2.772648 0,0.328124 -0.08203,0.771091 -0.196874,1.033591 -0.935153,1.804682 -0.721873,0.754686 -1.755464,1.017185 -0.377342,0.09844 -0.853122,0.09844 -0.492186,0 -0.869529,-0.09844 -1.230465,-0.311718 -2.001556,-1.29609 -0.771091,-1.000778 -0.771091,-2.280462 z m 3.937488,-3.215615 q -0.08203,-0.01641 -0.2625,-0.01641 -0.492186,0 -0.935153,0.196874 -0.918747,0.459374 -1.099215,1.788276 -0.03281,0.295312 -0.03281,1.049997 0,1.558589 0.311718,2.214837 0.524998,1.000778 1.722651,1.000778 2.001557,0 2.001557,-2.674211 V 73.80669 q 0,-1.066403 -0.08203,-1.443746 -0.278906,-1.29609 -1.624214,-1.591401 z" /><path
     id="path1101"
     style="font-size:16.4062px;line-height:1.25;stroke-width:0.9375px"
     d="m 101.70026,70.344982 q 0.27891,-0.01641 0.60703,-0.03281 0.32812,-0.03281 0.49219,-0.04922 0.18046,-0.01641 0.19687,-0.01641 h 0.0492 v 2.969523 q 0.0164,3.018741 0.0328,3.117178 0.0656,0.34453 0.24609,0.508592 0.32813,0.229687 0.98438,0.229687 0.45937,0 0.77109,-0.147656 0.95156,-0.459374 1.11562,-1.788276 0,-0.01641 0,-0.278905 0.0164,-0.262499 0.0164,-0.656248 0,-0.410155 0,-0.771092 0,-0.360936 0,-0.754685 0,-0.410155 0,-0.672654 l -0.0164,-0.262499 q -0.0492,-0.311718 -0.24609,-0.410155 -0.18047,-0.114844 -0.72188,-0.147656 h -0.29531 v -0.754685 q 0.0328,0 1.24687,-0.08203 1.23047,-0.08203 1.29609,-0.09844 h 0.11485 v 2.920304 q 0,2.953116 0.0164,3.002335 0.0492,0.328124 0.22969,0.442967 0.19687,0.09844 0.73828,0.13125 h 0.29531 v 0.754685 q -0.0328,0 -1.23046,0.08203 -1.19766,0.08203 -1.26328,0.09844 h -0.11485 v -1.132028 q -0.68906,0.836717 -1.3289,1.000779 -0.31172,0.114843 -0.86953,0.114843 -1.04999,0 -1.62421,-0.377343 -0.57422,-0.393748 -0.73828,-1.246871 -0.0164,-0.114843 -0.0328,-2.247649 -0.0164,-1.788276 -0.0328,-2.001557 0,-0.21328 -0.082,-0.34453 -0.16406,-0.262499 -0.98437,-0.262499 h -0.18047 v -0.377343 q 0,-0.377342 0.0328,-0.377342 l 0.18047,-0.01641 q 0.16406,-0.01641 0.47578,-0.03281 0.31171,-0.01641 0.62343,-0.03281 z" /><path
     id="path1103"
     style="font-size:16.4062px;line-height:1.25;stroke-width:0.9375px"
     d="m 109.70059,76.7434 h 0.22969 q 0.63984,0 0.77109,-0.229687 v -0.13125 q 0,-0.147655 0,-0.377342 0.0164,-0.229687 0.0164,-0.508592 0,-0.295312 0,-0.639842 0,-0.360937 0,-0.689061 0,-0.508592 0,-1.082809 0,-0.590623 0,-0.967966 l -0.0164,-0.377342 q -0.0492,-0.311718 -0.2461,-0.410155 -0.18046,-0.114844 -0.72187,-0.147656 h -0.29531 v -0.377343 q 0,-0.377342 0.0328,-0.377342 l 0.16406,-0.01641 q 0.16407,-0.01641 0.45938,-0.03281 0.29531,-0.01641 0.59062,-0.03281 0.2625,-0.01641 0.57422,-0.03281 0.31172,-0.03281 0.47578,-0.04922 0.16406,-0.01641 0.18047,-0.01641 h 0.0492 v 1.132028 q 0.31171,-0.524998 0.68906,-0.82031 0.37734,-0.295311 1.00077,-0.295311 0.45938,0 0.7875,0.180468 0.63984,0.328124 0.63984,0.935153 0,0.360937 -0.24609,0.60703 -0.24609,0.229686 -0.59062,0.229686 -0.34453,0 -0.59063,-0.229686 -0.22968,-0.229687 -0.22968,-0.590624 0,-0.278905 0.13125,-0.459373 0.0328,-0.06562 0.0328,-0.08203 -0.0328,-0.03281 -0.37734,0.06563 -0.2625,0.131249 -0.39375,0.246093 -0.65625,0.623435 -0.75469,2.067181 v 0.639842 q -0.0164,0.639842 -0.0164,1.099215 0,0.213281 0,0.459374 0,0.229687 0,0.410155 0.0164,0.180468 0.0164,0.328124 0,0.147656 0,0.246093 v 0.08203 q 0.0656,0.131249 0.19688,0.164062 0.16406,0.06563 0.86953,0.08203 h 0.50859 v 0.754685 h -0.14766 q -0.29531,-0.04922 -2.08359,-0.04922 -1.6078,0 -1.83749,0.04922 h -0.13125 V 76.7434 Z" /><path
     id="path1105"
     style="font-size:16.4062px;line-height:1.25;stroke-width:0.9375px"
     d="m 121.91629,72.264507 q -0.2461,0.229687 -0.62344,0.229687 -0.37734,0 -0.62343,-0.246093 -0.2461,-0.262499 -0.2461,-0.623436 0,-0.377342 0.2461,-0.623435 0.082,-0.08203 0.0656,-0.09844 0,-0.01641 -0.14765,-0.03281 -0.42657,-0.06562 -0.80391,-0.06562 -0.83671,0 -1.31249,0.524999 -0.7711,0.771091 -0.7711,2.575773 0,1.345309 0.5086,2.1164 0.67265,1.000778 1.80468,1.000778 0.41015,0 0.72187,-0.164062 0.68906,-0.34453 0.95156,-1.279683 0.0328,-0.13125 0.082,-0.164062 0.0492,-0.03281 0.2625,-0.03281 h 0.22969 q 0.0984,0.09844 0.0984,0.147656 0,0.311718 -0.41016,0.967966 -0.82031,1.181246 -2.31327,1.181246 -0.82031,0 -1.55859,-0.377342 -1.62422,-0.836717 -1.95234,-2.789054 -0.0164,-0.09844 -0.0164,-0.524999 0,-0.426561 0.0164,-0.541404 0.19687,-1.542183 1.34531,-2.510149 0.98437,-0.787498 2.18202,-0.787498 2.1164,0 2.47734,1.115622 0.0492,0.147656 0.0492,0.377342 0,0.377343 -0.2625,0.623436 z" /><path
     id="path1107"
     style="font-size:16.4062px;line-height:1.25;stroke-width:0.9375px"
     d="m 129.6331,73.478566 q 0,0.114843 -0.11485,0.229687 h -4.62654 v 0.246093 q 0,1.214059 0.32812,1.837494 0.59062,1.214059 2.03437,1.214059 0.70546,0 1.18124,-0.524998 0.32813,-0.328124 0.5086,-0.853123 0.0492,-0.180468 0.0984,-0.229687 0.0492,-0.04922 0.2625,-0.04922 0.32813,0 0.32813,0.164062 0,0.06562 -0.0492,0.21328 -0.31172,0.853123 -1.00078,1.410934 -0.67265,0.541404 -1.65703,0.541404 -0.31171,0 -0.72187,-0.08203 -0.93515,-0.180468 -1.67343,-0.853122 -0.73828,-0.672654 -1.05,-1.624214 -0.19687,-0.590623 -0.19687,-1.197653 0,-1.50937 0.88593,-2.542961 0.88594,-1.049997 2.18203,-1.214059 0.0656,-0.01641 0.22968,-0.01641 1.49297,0 2.26406,0.885935 0.7875,0.869529 0.7875,2.444524 z m -1.34531,-0.492186 q -0.14766,-1.788276 -1.21406,-2.165619 -0.11484,-0.04922 -0.34453,-0.06562 -0.85312,0 -1.39453,0.787497 -0.32812,0.524999 -0.42656,1.460152 v 0.114844 h 3.37968 z" /></g><g
   style="font-style:normal;font-variant:normal;font-weight:normal;font-stretch:normal;font-size:11.25px;line-height:0%;font-family:KaTeX_Main;-inkscape-font-specification:'KaTeX_Main, Normal';text-align:start;letter-spacing:0px;word-spacing:0px;writing-mode:lr-tb;text-anchor:start;fill:#000000;fill-opacity:1;stroke:none;stroke-width:0.9375px;stroke-linecap:butt;stroke-linejoin:miter;stroke-opacity:1"
   id="text37967"
   aria-label="gate"><path
     id="path1110"
     style="font-size:16.4062px;line-height:1.25;stroke-width:0.9375px"
     d="m 14.296859,41.481797 q 0.721873,-0.721873 1.64062,-0.721873 0.393749,0 0.656249,0.262499 0.262499,0.262499 0.262499,0.672654 0,0.2625 -0.164062,0.426562 -0.164062,0.164062 -0.426562,0.164062 -0.524998,0 -0.607029,-0.492186 -0.03281,-0.229687 0.04922,-0.344531 0,-0.01641 0.01641,-0.04922 v -0.01641 q -0.06563,0.01641 -0.147656,0.03281 -0.393749,0.06562 -0.721873,0.328124 -0.131249,0.08203 -0.131249,0.114843 0.03281,0.03281 0.06562,0.08203 0.541405,0.672655 0.541405,1.460152 0,0.672654 -0.442967,1.312496 -0.771092,1.132028 -2.346087,1.132028 -0.787498,0 -1.624214,-0.459374 -0.180468,0.328124 -0.180468,0.623436 0,0.574217 0.426561,0.853122 0.147656,0.09844 0.278906,0.114844 0.147655,0 1.181246,0.01641 1.378121,0.01641 1.77187,0.09844 1.000778,0.147656 1.574995,0.672654 0.639842,0.639842 0.639842,1.607808 0,0.295312 -0.03281,0.393749 -0.229687,0.803904 -1.246871,1.29609 -0.967966,0.508592 -2.32968,0.508592 -1.345309,0 -2.346087,-0.508592 -1.0171845,-0.492186 -1.2468713,-1.29609 -0.032812,-0.09844 -0.032812,-0.34453 0,-0.672655 0.5085922,-1.148434 0.2460935,-0.246093 0.5249985,-0.377343 l 0.180468,-0.09844 q -0.5906231,-0.508592 -0.5906231,-1.378121 0,-0.754685 0.4757801,-1.394527 -0.7218731,-0.721873 -0.7218731,-1.624214 0,-0.68906 0.4429671,-1.328902 0.344531,-0.508592 0.967966,-0.82031 0.623436,-0.311718 1.394527,-0.311718 0.836716,0 1.558589,0.426561 z M 11.2289,43.401322 q 0,0.885935 0.278905,1.345309 0.278906,0.459373 1.033591,0.459373 0.524998,0 0.853122,-0.262499 0.328124,-0.278905 0.410155,-0.721873 0.04922,-0.262499 0.04922,-0.82031 0,-0.557811 -0.04922,-0.836716 -0.196874,-1.000778 -1.279683,-1.000778 -0.47578,0 -0.82031,0.278905 -0.34453,0.262499 -0.426561,0.721873 -0.04922,0.278905 -0.04922,0.836716 z m 3.822645,5.167953 q -0.360937,-0.246093 -0.82031,-0.311718 -0.442968,-0.06562 -1.279684,-0.06562 h -0.47578 q -1.099215,0 -1.312496,0.09844 -0.328124,0.147656 -0.524998,0.459373 -0.180468,0.311718 -0.180468,0.656249 0,0.180468 0.04922,0.328124 0.13125,0.377342 0.590623,0.68906 0.459374,0.328124 1.066403,0.442967 0.295312,0.06562 0.836717,0.06562 0.524998,0 0.82031,-0.06562 0.607029,-0.131249 1.066403,-0.459373 0.475779,-0.311718 0.590623,-0.689061 0.03281,-0.08203 0.03281,-0.295311 0,-0.557811 -0.459373,-0.853123 z" /><path
     id="path1112"
     style="font-size:16.4062px;line-height:1.25;stroke-width:0.9375px"
     d="m 19.628875,42.925542 q -0.246093,0.2625 -0.623436,0.2625 -0.377343,0 -0.623436,-0.2625 -0.246093,-0.262499 -0.246093,-0.623435 0,-0.229687 0.13125,-0.524999 0.213281,-0.442967 0.853122,-0.68906 0.639842,-0.246093 1.558589,-0.246093 1.08281,0 1.870307,0.492186 0.803904,0.492186 1.049997,1.279684 0.08203,0.229686 0.08203,0.524998 0.01641,0.278905 0.01641,1.870307 0,1.607807 0,1.886713 0.01641,0.262499 0.09844,0.410155 0.09844,0.229687 0.328124,0.229687 0.213281,0 0.311718,-0.229687 0.09844,-0.196875 0.09844,-0.902341 v -0.590623 h 0.656248 v 0.639841 q -0.01641,0.656248 -0.04922,0.771092 -0.147656,0.459373 -0.541405,0.771091 -0.393749,0.295312 -0.935153,0.295312 -0.410155,0 -0.738279,-0.278906 -0.311718,-0.295311 -0.426561,-0.705466 v -0.06563 q -0.04922,0.04922 -0.196875,0.229687 -0.147656,0.164062 -0.21328,0.229687 -0.803904,0.672654 -1.870307,0.672654 -0.853123,0 -1.525777,-0.360937 -0.672654,-0.360936 -0.902341,-0.951559 -0.131249,-0.311718 -0.131249,-0.623436 0,-0.771091 0.639841,-1.410933 0.377343,-0.377343 0.935154,-0.623436 1.115621,-0.508592 2.854679,-0.607029 h 0.229686 v -0.360936 q 0,-0.557811 -0.09844,-0.82031 -0.164062,-0.541405 -0.574217,-0.853123 -0.410155,-0.311718 -1.017184,-0.311718 -1.099216,0 -1.099216,0.13125 0.360937,0.246093 0.360937,0.721873 0,0.360936 -0.262499,0.623435 z m 2.690616,2.395306 q 0,-0.95156 -0.01641,-0.95156 -0.04922,0 -0.08203,0.01641 -2.247649,0.147656 -2.871085,1.328902 -0.180468,0.328124 -0.180468,0.738279 0,0.557811 0.393749,0.935154 0.393749,0.377342 0.967966,0.377342 0.656248,0 1.115621,-0.393748 0.47578,-0.393749 0.623436,-0.967966 0.03281,-0.114844 0.04922,-1.082809 z" /><path
     id="path1114"
     style="font-size:16.4062px;line-height:1.25;stroke-width:0.9375px"
     d="m 27.618694,38.348212 v -0.246093 h 0.656248 v 3.018741 h 2.214837 v 0.754686 h -2.214837 v 2.362492 q 0.01641,2.050775 0.01641,2.329681 0.01641,0.262499 0.114844,0.508592 0.229687,0.639842 0.803904,0.639842 0.721872,0 0.885934,-1.16484 0.01641,-0.13125 0.01641,-0.754686 V 45.22241 h 0.656248 v 0.574217 q 0,0.754686 -0.08203,1.08281 -0.180469,0.656248 -0.623436,1.066403 -0.426561,0.410155 -1.132028,0.410155 -0.885935,0 -1.410933,-0.47578 -0.524998,-0.492186 -0.607029,-1.328902 -0.01641,-0.114844 -0.01641,-2.428118 v -2.247649 h -1.296089 v -0.60703 h 0.147655 q 0.60703,-0.04922 1.033591,-0.524998 0.754685,-0.787498 0.836716,-2.395306 z" /><path
     id="path1116"
     style="font-size:16.4062px;line-height:1.25;stroke-width:0.9375px"
     d="m 38.490622,44.172414 q 0,0.114843 -0.114843,0.229686 H 33.74923 v 0.246093 q 0,1.214059 0.328124,1.837495 0.590623,1.214059 2.034369,1.214059 0.705467,0 1.181246,-0.524999 0.328124,-0.328124 0.508593,-0.853122 0.04922,-0.180468 0.09844,-0.229687 0.04922,-0.04922 0.262499,-0.04922 0.328124,0 0.328124,0.164062 0,0.06563 -0.04922,0.213281 -0.311717,0.853122 -1.000778,1.410933 -0.672654,0.541405 -1.657026,0.541405 -0.311718,0 -0.721873,-0.08203 -0.935153,-0.180468 -1.673432,-0.853123 -0.738279,-0.672654 -1.049997,-1.624213 -0.196875,-0.590624 -0.196875,-1.197653 0,-1.50937 0.885935,-2.542961 0.885935,-1.049997 2.182025,-1.214059 0.06563,-0.01641 0.229687,-0.01641 1.492964,0 2.264055,0.885935 0.787498,0.869528 0.787498,2.444524 z m -1.345308,-0.492186 q -0.147656,-1.788276 -1.214059,-2.165619 -0.114844,-0.04922 -0.344531,-0.06562 -0.853122,0 -1.394527,0.787498 -0.328124,0.524998 -0.426561,1.460152 v 0.114843 h 3.379678 z" /></g><path
   id="path1064"
   d="M 62.668248,34.151518 H 80.384784 V 16.434982"
   style="fill:none;stroke:#000000;stroke-width:0.9375px;stroke-linecap:round;stroke-linejoin:miter;stroke-opacity:1" /><path
   id="path1068"
   d="M 62.668248,55.411361 H 80.384784 V 73.127896"
   style="fill:none;stroke:#000000;stroke-width:0.9375px;stroke-linecap:round;stroke-linejoin:miter;stroke-opacity:1" /></svg>
