<?xml version="1.0" encoding="UTF-8" standalone="no"?>
<!-- Generator: Adobe Illustrator 19.1.0, SVG Export Plug-In . SVG Version: 6.00 Build 0)  -->

<svg
   xmlns:dc="http://purl.org/dc/elements/1.1/"
   xmlns:cc="http://creativecommons.org/ns#"
   xmlns:rdf="http://www.w3.org/1999/02/22-rdf-syntax-ns#"
   xmlns:svg="http://www.w3.org/2000/svg"
   xmlns="http://www.w3.org/2000/svg"
   xmlns:sodipodi="http://sodipodi.sourceforge.net/DTD/sodipodi-0.dtd"
   xmlns:inkscape="http://www.inkscape.org/namespaces/inkscape"
   version="1.1"
   id="Layer_1"
   x="0px"
   y="0px"
   width="458.46008"
   height="186.11505"
   viewBox="0 0 458.46008 186.11505"
   xml:space="preserve"
   inkscape:version="0.91 r13725"
   sodipodi:docname="node_voltage4.svg"><metadata
     id="metadata8264"><rdf:RDF><cc:Work
         rdf:about=""><dc:format>image/svg+xml</dc:format><dc:type
           rdf:resource="http://purl.org/dc/dcmitype/StillImage" /><dc:title></dc:title></cc:Work></rdf:RDF></metadata><defs
     id="defs8262" /><sodipodi:namedview
     pagecolor="#ffffff"
     bordercolor="#666666"
     borderopacity="1"
     objecttolerance="10"
     gridtolerance="10"
     guidetolerance="10"
     inkscape:pageopacity="0"
     inkscape:pageshadow="2"
     inkscape:window-width="1066"
     inkscape:window-height="714"
     id="namedview8260"
     showgrid="false"
     inkscape:zoom="1.3294118"
     inkscape:cx="228.5277"
     inkscape:cy="100.49996"
     inkscape:window-x="142"
     inkscape:window-y="6"
     inkscape:window-maximized="0"
     inkscape:current-layer="Layer_1"
     fit-margin-top="10"
     fit-margin-right="10"
     fit-margin-bottom="10"
     fit-margin-left="10" /><style
     type="text/css"
     id="style8074">
	.st0{fill:none;stroke:#FF9C39;stroke-width:5;stroke-linecap:round;stroke-miterlimit:10;}
	.st1{fill:#FF9C39;}
	.st2{fill:none;stroke:#1FAB54;stroke-width:6;stroke-linecap:round;stroke-miterlimit:10;}
	.st3{fill:none;stroke:#FF9C39;stroke-width:6;stroke-linecap:round;stroke-miterlimit:10;}
	.st4{fill:none;stroke:#FF9C39;stroke-width:6;stroke-linecap:round;stroke-linejoin:round;stroke-miterlimit:10;}
	.st5{fill:none;stroke:#11ACCD;stroke-width:5;stroke-linecap:round;stroke-linejoin:round;stroke-miterlimit:10;}
	.st6{fill:none;stroke:#1FAB54;stroke-width:6;stroke-linecap:round;stroke-linejoin:round;stroke-miterlimit:10;}
	.st7{fill:none;stroke:#BABEC2;stroke-width:2;stroke-linecap:round;stroke-miterlimit:10;}
	.st8{fill:none;stroke:#ED5FA6;stroke-width:4;stroke-linecap:round;stroke-miterlimit:10;}
	.st9{fill:#ED5FA6;}
	.st10{fill:none;stroke:#1FAB54;stroke-width:4;stroke-linecap:round;stroke-miterlimit:10;}
	.st11{fill:#1FAB54;}
	.st12{fill:none;stroke:#11ACCD;stroke-width:4;stroke-linecap:round;stroke-miterlimit:10;}
	.st13{fill:#11ACCD;}
	.st14{fill:none;stroke:#FF9C39;stroke-width:4;stroke-linecap:round;stroke-miterlimit:10;}
	.st15{fill:none;stroke:#000000;stroke-linecap:round;stroke-linejoin:round;stroke-miterlimit:10;}
	.st16{fill:none;stroke:#000000;stroke-width:1.5;stroke-linecap:round;stroke-linejoin:round;stroke-miterlimit:10;}
	.st17{fill:none;stroke:#000000;stroke-linecap:round;stroke-miterlimit:10;}
	.st18{fill:none;stroke:#000000;stroke-width:1.5;stroke-linecap:round;stroke-miterlimit:10;}
	.st19{fill:none;stroke:#000000;stroke-width:2;stroke-linecap:round;stroke-linejoin:round;stroke-miterlimit:10;}
	.st20{fill:none;stroke:#000000;stroke-width:1.5;stroke-miterlimit:10;}
	.st21{fill:none;stroke:#000000;stroke-miterlimit:10;}
	.st22{fill:none;stroke:#000000;stroke-width:2;stroke-miterlimit:10;}
	.st23{fill:none;stroke:#000000;stroke-width:2;stroke-linecap:round;stroke-miterlimit:10;}
	.st24{fill:none;stroke:#000000;stroke-linecap:round;stroke-linejoin:round;}
	.st25{fill:none;}
	.st26{stroke:#000000;stroke-linecap:round;stroke-linejoin:round;stroke-miterlimit:10;}
	.st27{fill:none;stroke:#000000;stroke-width:1.5;stroke-linejoin:round;stroke-miterlimit:10;}
	.st28{fill:none;stroke:#000000;stroke-linejoin:round;stroke-miterlimit:10;}
	.st29{clip-path:url(#SVGID_2_);fill:none;stroke:#000000;stroke-linejoin:round;stroke-miterlimit:10;}
	.st30{clip-path:url(#SVGID_2_);fill:none;stroke:#ADADEB;stroke-linejoin:round;stroke-miterlimit:10;}
	.st31{clip-path:url(#SVGID_2_);}
	.st32{stroke:#000000;stroke-linejoin:round;stroke-miterlimit:10;}
	.st33{stroke:#000000;stroke-width:3;stroke-linejoin:round;stroke-miterlimit:10;}
	.st34{fill:none;stroke:#000000;stroke-linejoin:round;}
	.st35{fill:#FFFFFF;stroke:#000000;stroke-miterlimit:10;}
	.st36{fill:#E07D10;}
	.st37{fill:none;stroke:#11ACCD;stroke-width:3;stroke-linecap:round;stroke-miterlimit:10;}
	.st38{fill:none;stroke:#E07D10;stroke-width:2;stroke-linecap:round;stroke-miterlimit:10;}
	.st39{fill:none;stroke:#FF9C39;stroke-width:3;stroke-linecap:round;stroke-miterlimit:10;}
	.st40{fill:none;stroke:#FFBB71;stroke-width:2;stroke-linecap:round;stroke-miterlimit:10;}
	.st41{fill:#FFBB71;}
	.st42{font-family:'KaTeX_Main-Regular';}
	.st43{font-size:18px;}
	.st44{letter-spacing:1;}
	.st45{font-family:'KaTeX_Main-Italic';}
	.st46{font-size:21px;}
	.st47{fill:none;stroke:#000000;stroke-width:2;stroke-linecap:round;stroke-miterlimit:10;stroke-dasharray:6.1241,6.1241;}
	.st48{fill:#66AFE9;}
	.st49{fill:none;stroke:#66AFE9;stroke-miterlimit:10;}
	.st50{fill:none;stroke:#11ACCD;stroke-width:1.5;stroke-miterlimit:10;}
	.st51{fill:none;stroke:#11ACCD;stroke-width:4;stroke-linecap:round;stroke-linejoin:round;stroke-miterlimit:10;}
	.st52{fill:#CA337C;}
</style><g
     id="g8076"
     transform="translate(-26.472302,-10.384901)"><circle
       class="st22"
       cx="90.199997"
       cy="102"
       r="18"
       id="circle8078"
       style="fill:none;stroke:#000000;stroke-width:2;stroke-miterlimit:10" /><polyline
       class="st17"
       points="90.2,84 90.2,60 90.2,42 108.2,42  "
       id="polyline8080"
       style="fill:none;stroke:#000000;stroke-linecap:round;stroke-miterlimit:10" /><polyline
       class="st15"
       points="90.2,120 90,162 413.8,162  "
       id="polyline8082"
       style="fill:none;stroke:#000000;stroke-linecap:round;stroke-linejoin:round;stroke-miterlimit:10" /><line
       class="st20"
       x1="90.199997"
       y1="88.5"
       x2="90.199997"
       y2="100.5"
       id="line8084"
       style="fill:none;stroke:#000000;stroke-width:1.5;stroke-miterlimit:10" /><line
       class="st20"
       x1="84.199997"
       y1="94.5"
       x2="96.199997"
       y2="94.5"
       id="line8086"
       style="fill:none;stroke:#000000;stroke-width:1.5;stroke-miterlimit:10" /><line
       class="st20"
       x1="84.199997"
       y1="112.5"
       x2="96.199997"
       y2="112.5"
       id="line8088"
       style="fill:none;stroke:#000000;stroke-width:1.5;stroke-miterlimit:10" /></g><g
     id="g8090"
     transform="translate(-26.472302,-10.384901)"><g
       id="g8092"><g
         id="g8094"><line
           class="st23"
           x1="414"
           y1="115.5"
           x2="414"
           y2="95.599998"
           id="line8096"
           style="fill:none;stroke:#000000;stroke-width:2;stroke-linecap:round;stroke-miterlimit:10" /><g
           id="g8098"><polygon
             points="420,97.4 414,87 408,97.4 "
             id="polygon8100" /></g></g></g><circle
       class="st22"
       cx="414"
       cy="102"
       r="18"
       id="circle8102"
       style="fill:none;stroke:#000000;stroke-width:2;stroke-miterlimit:10" /><polyline
       class="st17"
       points="209.8,42 414,42 414,60 414,84  "
       id="polyline8104"
       style="fill:none;stroke:#000000;stroke-linecap:round;stroke-miterlimit:10" /><line
       class="st15"
       x1="414"
       y1="120"
       x2="414"
       y2="162"
       id="line8106"
       style="fill:none;stroke:#000000;stroke-linecap:round;stroke-linejoin:round;stroke-miterlimit:10" /></g><g
     id="g8108"
     transform="translate(-26.472302,-10.384901)"><line
       class="st15"
       x1="185.39999"
       y1="42"
       x2="209.8"
       y2="42"
       id="line8110"
       style="fill:none;stroke:#000000;stroke-linecap:round;stroke-linejoin:round;stroke-miterlimit:10" /><polyline
       class="st19"
       points="138.6,42 142.5,33 150.3,51 158.1,33 165.9,51 173.7,33 181.5,51 185.4,42  "
       id="polyline8112"
       style="fill:none;stroke:#000000;stroke-width:2;stroke-linecap:round;stroke-linejoin:round;stroke-miterlimit:10" /><line
       class="st15"
       x1="108.2"
       y1="42"
       x2="138.60001"
       y2="42"
       id="line8114"
       style="fill:none;stroke:#000000;stroke-linecap:round;stroke-linejoin:round;stroke-miterlimit:10" /><polygon
       class="st25"
       points="108.2,54 209.8,54 210,30 108.2,30 "
       id="polygon8116"
       style="fill:none" /></g><g
     id="g8118"
     transform="translate(-26.472302,-10.384901)"><line
       class="st15"
       x1="234.2"
       y1="78.599998"
       x2="234.2"
       y2="60"
       id="line8120"
       style="fill:none;stroke:#000000;stroke-linecap:round;stroke-linejoin:round;stroke-miterlimit:10" /><polyline
       class="st19"
       points="234.2,125.4 225.2,121.5 243.2,113.7 225.2,105.9 243.2,98.1 225.2,90.3 243.2,82.5 234.2,78.6  "
       id="polyline8122"
       style="fill:none;stroke:#000000;stroke-width:2;stroke-linecap:round;stroke-linejoin:round;stroke-miterlimit:10" /><line
       class="st15"
       x1="234.2"
       y1="162"
       x2="234.2"
       y2="125.4"
       id="line8124"
       style="fill:none;stroke:#000000;stroke-linecap:round;stroke-linejoin:round;stroke-miterlimit:10" /><rect
       x="222.2"
       y="60"
       class="st25"
       width="24"
       height="102"
       id="rect8126"
       style="fill:none" /></g><g
     id="g8128"
     transform="translate(-26.472302,-10.384901)"><line
       class="st15"
       x1="312"
       y1="78.599998"
       x2="312"
       y2="60"
       id="line8130"
       style="fill:none;stroke:#000000;stroke-linecap:round;stroke-linejoin:round;stroke-miterlimit:10" /><polyline
       class="st19"
       points="312,125.4 303,121.5 321,113.7 303,105.9 321,98.1 303,90.3 321,82.5 312,78.6  "
       id="polyline8132"
       style="fill:none;stroke:#000000;stroke-width:2;stroke-linecap:round;stroke-linejoin:round;stroke-miterlimit:10" /><line
       class="st15"
       x1="312"
       y1="162"
       x2="312"
       y2="125.4"
       id="line8134"
       style="fill:none;stroke:#000000;stroke-linecap:round;stroke-linejoin:round;stroke-miterlimit:10" /><rect
       x="300"
       y="60"
       class="st25"
       width="24"
       height="102"
       id="rect8136"
       style="fill:none" /></g><g
     id="g8138"
     transform="translate(-26.472302,-10.384901)"><polyline
       class="st15"
       points="276,174 283.5,174 283.5,174 283.5,174 276,186 268.5,174 276,174 276,162  "
       id="polyline8140"
       style="fill:none;stroke:#000000;stroke-linecap:round;stroke-linejoin:round;stroke-miterlimit:10" /><rect
       x="264"
       y="162"
       class="st25"
       width="24"
       height="24"
       id="rect8142"
       style="fill:none" /></g><g
     id="g8144"
     transform="translate(-26.472302,-10.384901)"><circle
       class="st26"
       cx="234"
       cy="42"
       r="1.5"
       id="circle8146"
       style="stroke:#000000;stroke-linecap:round;stroke-linejoin:round;stroke-miterlimit:10" /><rect
       x="228"
       y="36"
       class="st25"
       width="12"
       height="12"
       id="rect8148"
       style="fill:none" /></g><g
     id="g8150"
     transform="translate(-26.472302,-10.384901)"><circle
       class="st26"
       cx="312"
       cy="42"
       r="1.5"
       id="circle8152"
       style="stroke:#000000;stroke-linecap:round;stroke-linejoin:round;stroke-miterlimit:10" /><rect
       x="306"
       y="36"
       class="st25"
       width="12"
       height="12"
       id="rect8154"
       style="fill:none" /></g><g
     id="g8156"
     transform="translate(-26.472302,-10.384901)"><circle
       class="st26"
       cx="312"
       cy="162"
       r="1.5"
       id="circle8158"
       style="stroke:#000000;stroke-linecap:round;stroke-linejoin:round;stroke-miterlimit:10" /><rect
       x="306"
       y="156"
       class="st25"
       width="12"
       height="12"
       id="rect8160"
       style="fill:none" /></g><g
     id="g8162"
     transform="translate(-26.472302,-10.384901)"><circle
       class="st26"
       cx="234.2"
       cy="162"
       r="1.5"
       id="circle8164"
       style="stroke:#000000;stroke-linecap:round;stroke-linejoin:round;stroke-miterlimit:10" /><rect
       x="228.2"
       y="156"
       class="st25"
       width="12"
       height="12"
       id="rect8166"
       style="fill:none" /></g><g
     id="g8168"
     transform="translate(-26.472302,-10.384901)"><circle
       class="st26"
       cx="276"
       cy="162"
       r="1.5"
       id="circle8170"
       style="stroke:#000000;stroke-linecap:round;stroke-linejoin:round;stroke-miterlimit:10" /><rect
       x="270"
       y="156"
       class="st25"
       width="12"
       height="12"
       id="rect8172"
       style="fill:none" /></g><line
     class="st17"
     x1="285.52771"
     y1="49.615101"
     x2="285.52771"
     y2="31.615099"
     id="line8174"
     style="fill:none;stroke:#000000;stroke-linecap:round;stroke-miterlimit:10" /><line
     class="st17"
     x1="207.72769"
     y1="49.615101"
     x2="207.72769"
     y2="31.615099"
     id="line8176"
     style="fill:none;stroke:#000000;stroke-linecap:round;stroke-miterlimit:10" /><g
     style="font-style:normal;font-variant:normal;font-weight:normal;font-stretch:normal;font-size:22.5px;line-height:125%;font-family:KaTeX_Main;-inkscape-font-specification:'KaTeX_Main, Normal';text-align:start;writing-mode:lr-tb;text-anchor:start"
     id="text8178"><path
       d="m 96.887802,97.615097 q -0.3825,-0.0675 -3.5775,-0.0675 -3.15,0 -3.5325,0.0675 l -0.27,0 0,-1.035 0.585,0 q 1.305,0 1.6875,-0.0675 0.18,-0.0225 0.54,-0.27 l 0,-11.6325 q -0.045,0 -0.18,0.0675 -1.035,0.405 -2.3175,0.4275 l -0.4275,0 0,-1.035 0.4275,0 q 1.89,-0.0675 3.15,-0.855 0.405,-0.225 0.6975,-0.5175 0.045,-0.0675 0.27,-0.0675 0.225,0 0.3825,0.135 l 0,6.7275 0.0225,6.75 q 0.3375,0.3375 1.4625,0.3375 l 0.7425,0 0.585,0 0,1.035 -0.2475,0 z"
       style="font-style:normal;font-variant:normal;font-weight:normal;font-stretch:normal;font-size:22.5px;line-height:125%;font-family:KaTeX_Main;-inkscape-font-specification:'KaTeX_Main, Normal';text-align:start;writing-mode:lr-tb;text-anchor:start"
       id="path4287" /><path
       d="m 109.1728,97.615097 q -0.315,-0.0675 -2.9025,-0.0675 -2.7,0 -3.015,0.0675 l -0.2025,0 0,-1.035 0.6975,0 q 0.9675,-0.0225 1.1925,-0.1125 0.18,-0.045 0.27,-0.225 0.0225,-0.045 0.0225,-1.215 l 0,-1.125 -5.827498,0 0,-1.035 3.397498,-5.1975 q 3.4425,-5.22 3.4875,-5.2425 0.045,-0.045 0.4725,-0.045 l 0.405,0 0.135,0.135 0,10.35 2.07,0 0,1.035 -2.07,0 0,1.1475 q 0,0.9225 0,1.08 0.0225,0.1575 0.135,0.27 0.18,0.1575 1.2825,0.18 l 0.6525,0 0,1.035 -0.2025,0 z m -3.8025,-4.7475 0,-7.515 -4.9275,7.4925 2.4525,0.0225 2.475,0 z"
       style="font-style:normal;font-variant:normal;font-weight:normal;font-stretch:normal;font-size:22.5px;line-height:125%;font-family:KaTeX_Main;-inkscape-font-specification:'KaTeX_Main, Normal';text-align:start;writing-mode:lr-tb;text-anchor:start"
       id="path4289" /><path
       d="m 112.1878,84.452597 q 1.26,-1.8225 3.4425,-1.8225 1.6425,0 2.88,1.125 0.6075,0.585 1.035,1.53 0.8325,1.8675 0.8325,5.13 0,3.4875 -0.9675,5.3325 -0.63,1.305 -1.845,1.89 -0.945,0.4725 -1.9125,0.4725 -2.5875,0 -3.78,-2.3625 -0.9675,-1.845 -0.9675,-5.3325 0,-2.0925 0.27,-3.4425 0.2925,-1.3725 1.0125,-2.52 z m 5.0625,-0.27 q -0.6525,-0.72 -1.5975,-0.72 -0.945,0 -1.62,0.72 -0.495,0.5175 -0.675,1.26 -0.18,0.7425 -0.225,2.565 0,0.135 -0.0225,0.8775 0,0.7425 0,1.2375 0,2.16 0.045,3.015 0.09,1.575 0.27,2.2725 0.18,0.675 0.675,1.17 0.6075,0.675 1.5525,0.675 0.9225,0 1.53,-0.675 0.495,-0.495 0.675,-1.17 0.18,-0.6975 0.27,-2.2725 0.045,-0.855 0.045,-3.015 0,-0.495 -0.0225,-1.2375 0,-0.7425 0,-0.8775 -0.045,-1.8225 -0.225,-2.565 -0.18,-0.7425 -0.675,-1.26 z"
       style="font-style:normal;font-variant:normal;font-weight:normal;font-stretch:normal;font-size:22.5px;line-height:125%;font-family:KaTeX_Main;-inkscape-font-specification:'KaTeX_Main, Normal';text-align:start;writing-mode:lr-tb;text-anchor:start"
       id="path4291" /><path
       d="m 126.8428,83.665097 q -0.2475,-0.2475 -0.45,-0.2925 -0.2025,-0.0675 -1.035,-0.09 l -0.6525,0 0,-1.035 0.2025,0 q 0.315,0.0675 2.79,0.0675 2.7,0 3.195,-0.0675 l 0.2475,0 0,1.035 -0.4725,0 q -1.035,0.0225 -1.2825,0.2475 -0.09,0.0675 -0.09,0.135 0,0.045 2.025,5.58 2.025,5.535 2.0475,5.535 0.8775,-2.3625 1.935,-5.22 1.9125,-5.175 1.9125,-5.3775 0,-0.4275 -0.4725,-0.6525 -0.4725,-0.2475 -1.035,-0.2475 l -0.1125,0 0,-1.035 0.2025,0 q 0.3825,0.0675 2.5875,0.0675 1.935,0 2.1825,-0.0675 l 0.135,0 0,1.035 -0.1575,0 q -1.665,0 -2.16,0.9225 0,0.0225 -2.5425,6.8625 -2.52,6.84 -2.5425,6.8625 -0.0675,0.18 -0.405,0.18 l -0.2025,0 -0.2025,0 q -0.315,0 -0.3825,-0.18 -0.045,-0.045 -2.6325,-7.1325 -2.6325,-7.065 -2.6325,-7.1325 z"
       style="font-style:normal;font-variant:normal;font-weight:normal;font-stretch:normal;font-size:22.5px;line-height:125%;font-family:KaTeX_Main;-inkscape-font-specification:'KaTeX_Main, Normal';text-align:start;writing-mode:lr-tb;text-anchor:start"
       id="path4293" /></g><g
     style="font-style:normal;font-variant:normal;font-weight:normal;font-stretch:normal;font-size:22.5px;line-height:125%;font-family:KaTeX_Main;-inkscape-font-specification:'KaTeX_Main, Normal';text-align:start;writing-mode:lr-tb;text-anchor:start"
     id="text8186"><path
       d="m 120.0028,51.962799 q -0.63,0 -0.99,-0.405 -0.36,-0.405 -0.36,-0.99 0,-1.62 1.215,-2.7675 1.2375,-1.17 2.9475,-1.17 1.935,0 3.195,1.0575 1.2825,1.035 1.575,2.7225 0.045,0.405 0.045,0.7425 0,1.305 -0.7875,2.4525 -0.63,0.945 -2.5425,2.5875 -0.81,0.6975 -2.25,2.07 l -1.3275,1.26 1.71,0.0225 q 3.5325,0 3.7575,-0.1125 0.09,-0.0225 0.225,-0.4725 0.09,-0.2475 0.315,-1.53 l 0,-0.0675 0.9,0 0,0.0675 -0.63,4.1175 0,0.0675 -8.3475,0 0,-0.4275 q 0,-0.45 0.045,-0.5175 0.0225,-0.0225 1.89,-2.1375 2.4525,-2.7225 3.15,-3.6 1.5075,-2.0475 1.5075,-3.7575 0,-1.485 -0.7875,-2.475 -0.765,-1.0125 -2.16,-1.0125 -1.305,0 -2.115,1.17 -0.045,0.09 -0.135,0.2475 -0.0675,0.1125 -0.0675,0.135 0,0.0225 0.1125,0.0225 0.5625,0 0.9,0.405 0.36,0.405 0.36,0.945 0,0.5625 -0.3825,0.9675 -0.36,0.3825 -0.9675,0.3825 z"
       style="font-style:normal;font-variant:normal;font-weight:normal;font-stretch:normal;font-size:22.5px;line-height:125%;font-family:KaTeX_Main;-inkscape-font-specification:'KaTeX_Main, Normal';text-align:start;writing-mode:lr-tb;text-anchor:start"
       id="path4280" /><path
       d="m 130.9378,48.452799 q 1.26,-1.8225 3.4425,-1.8225 1.6425,0 2.88,1.125 0.6075,0.585 1.035,1.53 0.8325,1.8675 0.8325,5.13 0,3.4875 -0.9675,5.3325 -0.63,1.305 -1.845,1.89 -0.945,0.4725 -1.9125,0.4725 -2.5875,0 -3.78,-2.3625 -0.9675,-1.845 -0.9675,-5.3325 0,-2.0925 0.27,-3.4425 0.2925,-1.3725 1.0125,-2.52 z m 5.0625,-0.27 q -0.6525,-0.72 -1.5975,-0.72 -0.945,0 -1.62,0.72 -0.495,0.5175 -0.675,1.26 -0.18,0.7425 -0.225,2.565 0,0.135 -0.0225,0.8775 0,0.7425 0,1.2375 0,2.16 0.045,3.015 0.09,1.575 0.27,2.2725 0.18,0.675 0.675,1.17 0.6075,0.675 1.5525,0.675 0.9225,0 1.53,-0.675 0.495,-0.495 0.675,-1.17 0.18,-0.6975 0.27,-2.2725 0.045,-0.855 0.045,-3.015 0,-0.495 -0.0225,-1.2375 0,-0.7425 0,-0.8775 -0.045,-1.8225 -0.225,-2.565 -0.18,-0.7425 -0.675,-1.26 z"
       style="font-style:normal;font-variant:normal;font-weight:normal;font-stretch:normal;font-size:22.5px;line-height:125%;font-family:KaTeX_Main;-inkscape-font-specification:'KaTeX_Main, Normal';text-align:start;writing-mode:lr-tb;text-anchor:start"
       id="path4282" /><path
       d="m 149.1028,61.165299 q 0,0.2925 -0.1575,0.45 l -4.185,0 0,-0.045 q -0.0225,-0.0225 -0.36,-1.9575 l -0.3825,-1.935 0,-0.045 0.9,0 0.0225,0.1125 q 0,0.1125 0.09,0.4275 0.1575,1.0125 0.3375,1.35 0.09,0.1125 0.1575,0.1575 0.2925,0.1125 1.5075,0.135 l 0.99,0 0,-0.0675 q -0.1125,-0.36 -0.495,-1.1925 -0.36,-0.6975 -1.2375,-2.07 -1.44,-2.3175 -1.8,-3.5325 -0.225,-0.8325 -0.225,-1.5525 0,-0.675 0.18,-1.2825 0.495,-1.6875 2.0925,-2.9025 1.5975,-1.2375 3.735,-1.4175 0.135,-0.0225 0.3375,-0.0225 l 0.3375,0 q 3.1725,0 5.1975,1.7325 1.2825,1.125 1.6875,2.61 0.18,0.6075 0.18,1.2825 0,0.72 -0.225,1.5525 -0.36,1.215 -1.8,3.5325 -0.8775,1.3725 -1.2375,2.07 -0.3825,0.8325 -0.495,1.1925 l 0,0.0675 0.99,0 q 1.215,-0.0225 1.5075,-0.135 0.09,-0.045 0.1575,-0.1575 0.1575,-0.3375 0.3375,-1.35 0.09,-0.315 0.09,-0.4275 l 0.0225,-0.1125 0.9,0 0,0.045 -0.3825,1.935 q -0.3375,1.935 -0.36,1.9575 l 0,0.045 -2.07,0 q -1.665,0 -1.935,0 -0.2475,-0.0225 -0.2925,-0.135 -0.045,-0.09 -0.045,-0.315 0,-0.6525 0.2025,-1.7775 0.18,-0.9 0.8775,-3.0375 0.72,-2.1825 0.945,-3.42 0.1575,-0.945 0.1575,-1.5525 0,-3.1725 -2.3175,-4.3425 -0.945,-0.45 -1.89,-0.45 -2.295,0 -3.51,1.9125 -0.6975,1.1025 -0.6975,2.8575 0,0.765 0.135,1.575 0.225,1.2375 0.945,3.42 0.6975,2.1375 0.8775,3.0375 0.2025,1.1025 0.2025,1.7775 z"
       style="font-style:normal;font-variant:normal;font-weight:normal;font-stretch:normal;font-size:22.5px;line-height:125%;font-family:KaTeX_Main;-inkscape-font-specification:'KaTeX_Main, Normal';text-align:start;writing-mode:lr-tb;text-anchor:start"
       id="path4284" /></g><g
     style="font-style:normal;font-variant:normal;font-weight:normal;font-stretch:normal;font-size:22.5px;line-height:125%;font-family:KaTeX_Main;-inkscape-font-specification:'KaTeX_Main, Normal';text-align:start;writing-mode:lr-tb;text-anchor:start"
     id="text8194"><path
       d="m 170.37718,84.092597 q -0.495,-0.495 -1.395,-0.5625 -1.575,0 -2.6325,1.35 -1.0575,1.4625 -1.0575,4.545 l 0.0225,0.09 0.18,-0.2925 q 0.9225,-1.35 2.4975,-1.35 1.035,0 1.8225,0.4275 0.54,0.315 1.08,0.9225 0.54,0.585 0.8775,1.26 0.4725,1.1025 0.4725,2.4075 l 0,0.405 q 0,0.5175 -0.1125,0.9675 -0.27,1.3275 -1.395,2.4975 -0.9675,1.0125 -2.16,1.26 -0.36,0.09 -0.9,0.09 -0.4275,0 -0.765,-0.0675 -1.665,-0.315 -2.655,-1.8 -1.3275,-2.0925 -1.3275,-5.67 0,-2.43 0.855,-4.2525 0.855,-1.8225 2.385,-2.835 1.215,-0.855 2.6325,-0.855 1.305,0 2.0925,0.6975 0.81,0.6975 0.81,1.9125 0,0.5625 -0.3375,0.9 -0.315,0.3375 -0.855,0.3375 -0.54,0 -0.8775,-0.315 -0.315,-0.315 -0.315,-0.8775 0,-1.0125 1.0575,-1.1925 z m -0.99,5.4 q -0.63,-0.81 -1.62,-0.81 -0.8325,0 -1.35,0.5175 -1.1025,1.1025 -1.1025,3.555 0,2.0025 0.27,2.7675 0.225,0.675 0.765,1.1475 0.54,0.4725 1.2825,0.4725 1.1475,0 1.755,-0.855 0.3375,-0.4725 0.4275,-1.125 0.09,-0.6525 0.09,-1.89 l 0,-0.36 0,-0.36 q 0,-1.2825 -0.09,-1.935 -0.09,-0.6525 -0.4275,-1.125 z"
       style="font-style:normal;font-variant:normal;font-weight:normal;font-stretch:normal;font-size:22.5px;line-height:125%;font-family:KaTeX_Main;-inkscape-font-specification:'KaTeX_Main, Normal';text-align:start;letter-spacing:1;writing-mode:lr-tb;text-anchor:start"
       id="path4275" /><path
       d="m 181.85968,97.165097 q 0,0.2925 -0.1575,0.45 l -4.185,0 0,-0.045 q -0.0225,-0.0225 -0.36,-1.9575 l -0.3825,-1.935 0,-0.045 0.9,0 0.0225,0.1125 q 0,0.1125 0.09,0.4275 0.1575,1.0125 0.3375,1.35 0.09,0.1125 0.1575,0.1575 0.2925,0.1125 1.5075,0.135 l 0.99,0 0,-0.0675 q -0.1125,-0.36 -0.495,-1.1925 -0.36,-0.6975 -1.2375,-2.07 -1.44,-2.3175 -1.8,-3.5325 -0.225,-0.8325 -0.225,-1.5525 0,-0.675 0.18,-1.2825 0.495,-1.6875 2.0925,-2.9025 1.5975,-1.2375 3.735,-1.4175 0.135,-0.0225 0.3375,-0.0225 l 0.3375,0 q 3.1725,0 5.1975,1.7325 1.2825,1.125 1.6875,2.61 0.18,0.6075 0.18,1.2825 0,0.72 -0.225,1.5525 -0.36,1.215 -1.8,3.5325 -0.8775,1.3725 -1.2375,2.07 -0.3825,0.8325 -0.495,1.1925 l 0,0.0675 0.99,0 q 1.215,-0.0225 1.5075,-0.135 0.09,-0.045 0.1575,-0.1575 0.1575,-0.3375 0.3375,-1.35 0.09,-0.315 0.09,-0.4275 l 0.0225,-0.1125 0.9,0 0,0.045 -0.3825,1.935 q -0.3375,1.935 -0.36,1.9575 l 0,0.045 -2.07,0 q -1.665,0 -1.935,0 -0.2475,-0.0225 -0.2925,-0.135 -0.045,-0.09 -0.045,-0.315 0,-0.6525 0.2025,-1.7775 0.18,-0.9 0.8775,-3.0375 0.72,-2.1825 0.945,-3.42 0.1575,-0.945 0.1575,-1.5525 0,-3.1725 -2.3175,-4.3425 -0.945,-0.45 -1.89,-0.45 -2.295,0 -3.51,1.9125 -0.6975,1.1025 -0.6975,2.8575 0,0.765 0.135,1.575 0.225,1.2375 0.945,3.42 0.6975,2.1375 0.8775,3.0375 0.2025,1.1025 0.2025,1.7775 z"
       style="font-style:normal;font-variant:normal;font-weight:normal;font-stretch:normal;font-size:22.5px;line-height:125%;font-family:KaTeX_Main;-inkscape-font-specification:'KaTeX_Main, Normal';text-align:start;writing-mode:lr-tb;text-anchor:start"
       id="path4277" /></g><g
     style="font-style:normal;font-variant:normal;font-weight:normal;font-stretch:normal;font-size:22.5px;line-height:125%;font-family:KaTeX_Main;-inkscape-font-specification:'KaTeX_Main, Normal';text-align:start;writing-mode:lr-tb;text-anchor:start"
     id="text8200"><path
       d="m 302.39191,92.800097 q 0.54,0 0.9,0.3825 0.3825,0.36 0.3825,0.9225 0,0.5175 -0.3825,0.8775 -0.3825,0.36 -0.855,0.36 l -0.1575,0 0.0675,0.1125 q 0.3375,0.72 1.035,1.1925 0.6975,0.4725 1.6425,0.4725 1.5975,0 2.295,-1.35 0.4275,-0.8325 0.4275,-2.88 0,-2.3175 -0.6075,-3.1275 -0.585,-0.7425 -1.44,-0.7425 -1.755,0 -2.655,1.53 -0.09,0.1575 -0.18,0.2025 -0.0675,0.0225 -0.315,0.0225 -0.3825,0 -0.4275,-0.135 -0.045,-0.09 -0.045,-3.9375 0,-0.675 -0.0225,-1.5975 0,-0.9225 0,-1.17 0,-1.26 0.135,-1.26 0.045,-0.045 0.09,-0.045 l 0.405,0.135 q 1.4625,0.585 2.9925,0.585 1.5975,0 3.06,-0.63 0.18,-0.09 0.2925,-0.09 0.18,0 0.18,0.405 l 0,0.2925 q -1.8225,2.1825 -4.6125,2.1825 -0.6975,0 -1.26,-0.135 l -0.225,-0.045 0,3.87 q 1.2825,-1.035 2.6325,-1.035 0.4275,0 0.9225,0.1125 1.5075,0.3825 2.4525,1.71 0.9675,1.3275 0.9675,3.105 0,2.0475 -1.44,3.5325 -1.4175,1.485 -3.51,1.485 -1.4175,0 -2.4075,-0.7875 -0.4275,-0.27 -0.7425,-0.7425 -0.675,-0.81 -0.855,-2.0025 0,-0.0675 -0.0225,-0.2025 0,-0.1575 0,-0.225 0,-0.63 0.36,-0.99 0.36,-0.36 0.9225,-0.36 z"
       style="font-style:normal;font-variant:normal;font-weight:normal;font-stretch:normal;font-size:22.5px;line-height:125%;font-family:KaTeX_Main;-inkscape-font-specification:'KaTeX_Main, Normal';text-align:start;letter-spacing:1;writing-mode:lr-tb;text-anchor:start"
       id="path4270" /><path
       d="m 319.85939,97.165097 q 0,0.2925 -0.1575,0.45 l -4.185,0 0,-0.045 q -0.0225,-0.0225 -0.36,-1.9575 l -0.3825,-1.935 0,-0.045 0.9,0 0.0225,0.1125 q 0,0.1125 0.09,0.4275 0.1575,1.0125 0.3375,1.35 0.09,0.1125 0.1575,0.1575 0.2925,0.1125 1.5075,0.135 l 0.99,0 0,-0.0675 q -0.1125,-0.36 -0.495,-1.1925 -0.36,-0.6975 -1.2375,-2.07 -1.44,-2.3175 -1.8,-3.5325 -0.225,-0.8325 -0.225,-1.5525 0,-0.675 0.18,-1.2825 0.495,-1.6875 2.0925,-2.9025 1.5975,-1.2375 3.735,-1.4175 0.135,-0.0225 0.3375,-0.0225 l 0.3375,0 q 3.1725,0 5.1975,1.7325 1.2825,1.125 1.6875,2.61 0.18,0.6075 0.18,1.2825 0,0.72 -0.225,1.5525 -0.36,1.215 -1.8,3.5325 -0.8775,1.3725 -1.2375,2.07 -0.3825,0.8325 -0.495,1.1925 l 0,0.0675 0.99,0 q 1.215,-0.0225 1.5075,-0.135 0.09,-0.045 0.1575,-0.1575 0.1575,-0.3375 0.3375,-1.35 0.09,-0.315 0.09,-0.4275 l 0.0225,-0.1125 0.9,0 0,0.045 -0.3825,1.935 q -0.3375,1.935 -0.36,1.9575 l 0,0.045 -2.07,0 q -1.665,0 -1.935,0 -0.2475,-0.0225 -0.2925,-0.135 -0.045,-0.09 -0.045,-0.315 0,-0.6525 0.2025,-1.7775 0.18,-0.9 0.8775,-3.0375 0.72,-2.1825 0.945,-3.42 0.1575,-0.945 0.1575,-1.5525 0,-3.1725 -2.3175,-4.3425 -0.945,-0.45 -1.89,-0.45 -2.295,0 -3.51,1.9125 -0.6975,1.1025 -0.6975,2.8575 0,0.765 0.135,1.575 0.225,1.2375 0.945,3.42 0.6975,2.1375 0.8775,3.0375 0.2025,1.1025 0.2025,1.7775 z"
       style="font-style:normal;font-variant:normal;font-weight:normal;font-stretch:normal;font-size:22.5px;line-height:125%;font-family:KaTeX_Main;-inkscape-font-specification:'KaTeX_Main, Normal';text-align:start;writing-mode:lr-tb;text-anchor:start"
       id="path4272" /></g><g
     style="font-style:normal;font-variant:normal;font-weight:normal;font-stretch:normal;font-size:22.5px;line-height:125%;font-family:KaTeX_Main;-inkscape-font-specification:'KaTeX_Main, Normal';text-align:start;writing-mode:lr-tb;text-anchor:start"
     id="text8206"><path
       d="m 420.88759,97.615097 q -0.3825,-0.0675 -3.5775,-0.0675 -3.15,0 -3.5325,0.0675 l -0.27,0 0,-1.035 0.585,0 q 1.305,0 1.6875,-0.0675 0.18,-0.0225 0.54,-0.27 l 0,-11.6325 q -0.045,0 -0.18,0.0675 -1.035,0.405 -2.3175,0.4275 l -0.4275,0 0,-1.035 0.4275,0 q 1.89,-0.0675 3.15,-0.855 0.405,-0.225 0.6975,-0.5175 0.045,-0.0675 0.27,-0.0675 0.225,0 0.3825,0.135 l 0,6.7275 0.0225,6.75 q 0.3375,0.3375 1.4625,0.3375 l 0.7425,0 0.585,0 0,1.035 -0.2475,0 z"
       style="font-style:normal;font-variant:normal;font-weight:normal;font-stretch:normal;font-size:22.5px;line-height:125%;font-family:KaTeX_Main;-inkscape-font-specification:'KaTeX_Main, Normal';text-align:start;writing-mode:lr-tb;text-anchor:start"
       id="path4263" /><path
       d="m 424.39759,90.077597 q -1.1025,-0.72 -1.71,-1.5075 -0.585,-0.7875 -0.585,-2.07 0,-0.9675 0.36,-1.62 0.495,-1.0125 1.44,-1.62 0.9675,-0.63 2.205,-0.63 1.53,0 2.655,0.81 1.125,0.7875 1.395,2.0475 0.0225,0.135 0.0225,0.54 0,0.495 -0.045,0.675 -0.3375,1.485 -2.0475,2.565 l -0.27,0.18 q 1.26,0.855 1.305,0.9 1.6875,1.35 1.6875,3.3525 0,1.8225 -1.35,3.1275 -1.3275,1.2825 -3.33,1.2825 -2.7675,0 -4.0725,-2.025 -0.5625,-0.81 -0.5625,-1.9575 0,-2.4525 2.9025,-4.05 z m 4.4775,-4.005 q 0,-0.9675 -0.63,-1.6425 -0.63,-0.675 -1.53,-0.855 -0.1575,-0.0225 -0.7425,-0.0225 -1.1925,0 -2.0025,0.81 -0.5625,0.5175 -0.5625,1.2375 0,0.9675 0.81,1.53 0.1125,0.1125 1.44,0.945 l 1.305,0.855 q 0.0225,-0.0225 0.2925,-0.18 0.27,-0.18 0.405,-0.315 1.215,-0.9675 1.215,-2.3625 z m -5.94,8.01 q 0,1.3275 0.9675,2.205 0.9675,0.855 2.25,0.855 0.9225,0 1.665,-0.3825 0.765,-0.3825 1.1475,-0.99 0.3825,-0.585 0.3825,-1.2375 0,-0.9675 -0.7875,-1.71 -0.18,-0.18 -1.8675,-1.2825 -0.315,-0.2025 -0.6975,-0.4275 -0.36,-0.2475 -0.5625,-0.3825 l -0.18,-0.1125 -0.27,0.135 q -1.4175,0.9225 -1.8675,2.25 -0.18,0.585 -0.18,1.08 z"
       style="font-style:normal;font-variant:normal;font-weight:normal;font-stretch:normal;font-size:22.5px;line-height:125%;font-family:KaTeX_Main;-inkscape-font-specification:'KaTeX_Main, Normal';text-align:start;letter-spacing:1;writing-mode:lr-tb;text-anchor:start"
       id="path4265" /><path
       d="m 438.06511,97.615097 q -0.405,-0.0675 -2.5875,-0.0675 -2.0025,0 -2.2725,0.0675 l -0.1575,0 0,-1.035 0.3375,0 q 1.62,-0.0675 2.07,-0.945 0.0225,-0.0675 1.1925,-3.5325 1.17,-3.4875 2.3175,-6.93 1.17,-3.465 1.1925,-3.4875 0.0675,-0.18 0.4275,-0.18 l 0.2025,0 q 0.45,0.0225 0.54,0.1575 0.0225,0.0225 2.1825,6.435 2.1825,6.4125 2.7,8.01 0.0675,0.135 0.1575,0.225 0.2475,0.225 1.4175,0.2475 l 0.675,0 0,1.035 -0.2025,0 q -0.3375,-0.0675 -2.8575,-0.0675 -2.9025,0 -3.24,0.0675 l -0.225,0 0,-1.035 0.2925,0 q 1.575,0 1.575,-0.405 0,-0.045 -0.54,-1.665 l -0.54,-1.5975 -5.2425,0 -0.45,1.3275 q -0.45,1.3275 -0.45,1.4625 0,0.1125 0.0675,0.2025 0.135,0.2925 0.5625,0.495 0.45,0.18 0.945,0.18 l 0.1125,0 0,1.035 -0.2025,0 z m 3.6225,-7.8075 q -0.6525,-1.9575 -1.1475,-3.3975 l -0.45,-1.3275 -1.125,3.375 -1.1475,3.3975 q 0,0.0225 2.2725,0.0225 l 2.295,0 -0.6975,-2.07 z"
       style="font-style:normal;font-variant:normal;font-weight:normal;font-stretch:normal;font-size:22.5px;line-height:125%;font-family:KaTeX_Main;-inkscape-font-specification:'KaTeX_Main, Normal';text-align:start;writing-mode:lr-tb;text-anchor:start"
       id="path4267" /></g><g
     style="font-style:normal;font-variant:normal;font-weight:normal;font-stretch:normal;font-size:22.5px;line-height:125%;font-family:KaTeX_Math;-inkscape-font-specification:'KaTeX_Math, Normal';text-align:start;letter-spacing:1;writing-mode:lr-tb;text-anchor:start;fill:#1fab54"
     id="text8214"><path
       d="m 229.18394,10.2475 q 0.0225,0 1.62,-0.1125 1.62,-0.1350002 1.6425,-0.1350002 0.27,0 0.27,0.2025002 0,0.2025 -0.765,3.2175 -0.18,0.765 -0.405,1.575 -0.2025,0.81 -0.315,1.215 l -0.09,0.4275 q 0,0.0675 0.135,-0.0675 0.765,-0.63 1.71,-0.855 0.27,-0.045 0.5625,-0.045 0.2925,0 0.5625,0.045 1.17,0.27 1.8675,1.215 0.6975,0.945 0.6975,2.385 0,2.52 -1.7775,4.545 -1.755,2.0025 -3.825,2.0025 -0.6525,0 -1.2375,-0.2925 -1.755,-0.7875 -1.755,-3.33 0,-0.6525 0.135,-1.2825 0,-0.0225 1.125,-4.6125 l 1.1475,-4.59 q 0.045,-0.315 -0.1575,-0.3825 -0.18,-0.09 -0.63,-0.09 -0.1575,0 -0.2475,0 -0.4725,0 -0.54,-0.0675 -0.135,-0.1125 -0.0225,-0.54 0.09,-0.315 0.1575,-0.36 0.0675,-0.0675 0.135,-0.0675 z m 5.5575,8.055 q 0,-1.8 -1.3725,-1.8 -0.045,0 -0.1575,0.0225 -0.09,0 -0.1125,0 -1.17,0.2475 -2.205,1.62 -0.045,0.045 -0.1125,0.135 l -0.0675,0.09 q 0,0.0225 -0.405,1.62 -0.3825,1.575 -0.4275,1.8 -0.135,0.6975 -0.135,1.26 0,1.08 0.54,1.62 0.36,0.36 0.9,0.36 0.7425,0 1.5075,-0.72 0.5625,-0.5175 0.9,-1.26 0.36,-0.765 0.7425,-2.3625 0.405,-1.62 0.405,-2.385 z"
       style="font-style:normal;font-variant:normal;font-weight:normal;font-stretch:normal;font-size:22.5px;line-height:125%;font-family:KaTeX_Math;-inkscape-font-specification:'KaTeX_Math, Normal';text-align:start;letter-spacing:1;writing-mode:lr-tb;text-anchor:start;fill:#1fab54"
       id="path4260" /></g><g
     style="font-style:normal;font-variant:normal;font-weight:normal;font-stretch:normal;font-size:22.5px;line-height:125%;font-family:KaTeX_Math;-inkscape-font-specification:'KaTeX_Math, Normal';text-align:start;letter-spacing:1;writing-mode:lr-tb;text-anchor:start;fill:#1fab54"
     id="text8216"><path
       d="m 80.485401,22.1725 q 0.2025,0 0.27,0.0225 0.0675,0 0.1125,0.045 0.045,0.045 0.045,0.135 0,0.0675 -0.0675,0.3375 -0.495,1.89 -1.215,2.61 -0.2925,0.2925 -0.72,0.4725 -0.18,0.045 -0.54,0.045 -1.4175,0 -1.98,-1.1025 -0.1125,-0.2925 -0.1125,-0.27 -0.0225,-0.0225 -0.09,0.0225 -0.045,0.045 -0.09,0.09 -1.08,1.0125 -2.1375,1.2375 -0.135,0.0225 -0.5625,0.0225 -1.485,0 -2.4525,-1.2375 -0.675,-0.99 -0.675,-2.52 0,-0.36 0.0225,-0.495 0.1575,-1.44 0.9225,-2.745 0.7875,-1.3275 1.8675,-2.1375 1.305,-1.0125 2.745,-1.0125 1.125,0 2.025,1.1025 0.36,-0.675 1.035,-0.675 0.2925,0 0.5175,0.18 0.225,0.18 0.225,0.45 0,0.2925 -0.855,3.6225 -0.8325,3.3075 -0.8325,3.7125 0,0.945 0.63,0.945 0.2025,-0.0225 0.45,-0.2025 0.4725,-0.45 0.9225,-2.16 0.135,-0.45 0.225,-0.4725 0.045,-0.0225 0.225,-0.0225 l 0.09,0 z m -8.3025,1.0575 q 0,0.81 0.3375,1.305 0.36,0.495 1.035,0.495 0.6525,0 1.395,-0.54 0.27,-0.18 0.72,-0.675 0.4725,-0.495 0.5625,-0.675 0.045,-0.09 0.6075,-2.4075 0.585,-2.3175 0.585,-2.4975 0,-0.27 -0.2475,-0.765 -0.495,-0.9675 -1.4175,-0.9675 -0.9,0 -1.5975,0.765 -0.675,0.765 -1.035,1.755 -0.6525,1.7775 -0.9225,3.69 0,0.0675 -0.0225,0.2475 0,0.18 0,0.27 z"
       style="font-style:normal;font-variant:normal;font-weight:normal;font-stretch:normal;font-size:22.5px;line-height:125%;font-family:KaTeX_Math;-inkscape-font-specification:'KaTeX_Math, Normal';text-align:start;letter-spacing:1;writing-mode:lr-tb;text-anchor:start;fill:#1fab54"
       id="path4257" /></g><g
     style="font-style:normal;font-variant:normal;font-weight:normal;font-stretch:normal;font-size:22.5px;line-height:125%;font-family:KaTeX_Math;-inkscape-font-specification:'KaTeX_Math, Normal';text-align:start;letter-spacing:1;writing-mode:lr-tb;text-anchor:start;fill:#1fab54"
     id="text8218"><path
       d="m 233.5763,164.4357 q 0.09,0 0.2925,0.225 0.225,0.2025 0.225,0.2925 0,0.2025 -0.6975,0.8325 -1.395,1.26 -3.5325,1.575 -0.495,0.045 -0.8775,0.045 -2.4075,0 -3.3525,-1.98 -0.4275,-0.8325 -0.4275,-1.845 0,-1.035 0.4275,-2.115 0.6525,-1.6875 2.115,-2.8575 1.485,-1.1925 3.15,-1.3725 0.135,-0.0225 0.4275,-0.0225 0.7875,0 1.4625,0.2475 1.26,0.54 1.26,1.71 0,0.6975 -0.4275,1.1475 -0.4275,0.4275 -1.08,0.4275 -0.4275,0 -0.675,-0.225 -0.2475,-0.2475 -0.2475,-0.675 0,-0.3825 0.225,-0.7425 0.225,-0.36 0.585,-0.5175 0.18,-0.1125 0.2475,-0.1125 0.09,0 -0.1575,-0.1575 -0.4275,-0.2475 -1.1925,-0.2475 -0.675,0 -1.2825,0.315 -0.4725,0.2025 -0.9675,0.6975 -0.585,0.585 -0.945,1.395 -0.36,0.81 -0.72,2.3175 -0.2475,1.0575 -0.2475,1.6875 0,1.035 0.585,1.5525 0.5175,0.54 1.395,0.54 0.3375,0 0.6975,-0.045 2.115,-0.315 3.465,-1.8675 0.2025,-0.225 0.27,-0.225 z"
       style="font-style:normal;font-variant:normal;font-weight:normal;font-stretch:normal;font-size:22.5px;line-height:125%;font-family:KaTeX_Math;-inkscape-font-specification:'KaTeX_Math, Normal';text-align:start;letter-spacing:1;writing-mode:lr-tb;text-anchor:start;fill:#1fab54"
       id="path4254" /></g><g
     style="font-style:normal;font-variant:normal;font-weight:normal;font-stretch:normal;font-size:22.5px;line-height:125%;font-family:KaTeX_Math;-inkscape-font-specification:'KaTeX_Math, Normal';text-align:start;writing-mode:lr-tb;text-anchor:start;fill:#e07d10"
     id="text8220"><path
       d="m 254.95019,95.406001 q -1.44,0 -2.295,-0.72 -0.8325,-0.7425 -0.8325,-2.16 0,-0.405 0.045,-0.765 0.2025,-1.08 1.0575,-3.3075 l 0.36,-1.08 q 0.135,-0.405 0.135,-0.765 0,-0.5625 -0.4275,-0.5625 -0.1575,0 -0.36,0.0675 -1.1475,0.405 -1.7325,2.5875 0,0.0225 -0.0225,0.09 -0.0225,0.045 -0.045,0.0675 0,0 -0.0225,0.0225 -0.0225,0.0225 -0.09,0.0225 -0.045,0 -0.09,0 -0.045,0 -0.18,0 l -0.315,0 q -0.135,-0.135 -0.135,-0.2025 0,-0.0675 0.0675,-0.3375 0.54,-1.7775 1.665,-2.655 0.6075,-0.4725 1.395,-0.4725 0.8775,0 1.44,0.495 0.5625,0.495 0.5625,1.305 0,0.3825 -0.0675,0.585 0,0.1575 -0.3375,0.99 -1.035,2.8125 -1.1025,4.005 0,0.6075 0.1125,0.99 0.2925,0.9675 1.4175,0.9675 0.6075,0 1.08,-0.36 1.395,-0.9225 2.3175,-4.2525 0.18,-0.63 0.18,-1.035 0,-0.99 -0.8775,-1.7775 -0.2925,-0.27 -0.2925,-0.6075 0,-0.5175 0.405,-0.9225 0.4275,-0.4275 0.945,-0.4275 0.54,0 0.8325,0.5175 0.2925,0.495 0.2925,1.1925 0,0.7875 -0.45,2.5875 -0.4275,1.7325 -1.08,3.015 -1.4175,2.9025 -3.555,2.9025 z"
       style="font-style:normal;font-variant:normal;font-weight:normal;font-stretch:normal;font-size:22.5px;line-height:125%;font-family:KaTeX_Math;-inkscape-font-specification:'KaTeX_Math, Normal';text-align:start;writing-mode:lr-tb;text-anchor:start;fill:#e07d10"
       id="path4249" /><path
       d="m 261.72776,89.669626 q 0.0146,0 1.053,-0.07312 1.053,-0.08775 1.06762,-0.08775 0.1755,0 0.1755,0.131625 0,0.131625 -0.49725,2.091375 -0.117,0.49725 -0.26325,1.02375 -0.13162,0.5265 -0.20475,0.78975 l -0.0585,0.277875 q 0,0.04387 0.0877,-0.04387 0.49725,-0.4095 1.1115,-0.55575 0.1755,-0.02925 0.36563,-0.02925 0.19012,0 0.36562,0.02925 0.7605,0.1755 1.21388,0.78975 0.45337,0.61425 0.45337,1.55025 0,1.638 -1.15537,2.95425 -1.14075,1.301625 -2.48625,1.301625 -0.42413,0 -0.80438,-0.190125 -1.14075,-0.511875 -1.14075,-2.1645 0,-0.424125 0.0878,-0.833625 0,-0.01462 0.73125,-2.998125 l 0.74588,-2.9835 q 0.0292,-0.20475 -0.10238,-0.248625 -0.117,-0.0585 -0.4095,-0.0585 -0.10237,0 -0.16087,0 -0.30713,0 -0.351,-0.04387 -0.0877,-0.07313 -0.0146,-0.351 0.0585,-0.20475 0.10238,-0.234 0.0439,-0.04387 0.0877,-0.04387 z m 3.61237,5.23575 q 0,-1.17 -0.89212,-1.17 -0.0292,0 -0.10238,0.01462 -0.0585,0 -0.0731,0 -0.7605,0.160875 -1.43325,1.053 -0.0293,0.02925 -0.0731,0.08775 l -0.0439,0.0585 q 0,0.01462 -0.26325,1.053 -0.24863,1.02375 -0.27788,1.17 -0.0877,0.453375 -0.0877,0.819 0,0.702 0.351,1.053 0.234,0.234 0.585,0.234 0.48263,0 0.97988,-0.468 0.36562,-0.336375 0.585,-0.819 0.234,-0.49725 0.48262,-1.535625 0.26325,-1.053 0.26325,-1.55025 z"
       style="font-size:64.99999762%;baseline-shift:sub"
       id="path4251" /></g><g
     style="font-style:normal;font-variant:normal;font-weight:normal;font-stretch:normal;font-size:22.5px;line-height:125%;font-family:KaTeX_Math;-inkscape-font-specification:'KaTeX_Math, Normal';text-align:start;writing-mode:lr-tb;text-anchor:start;fill:#e07d10"
     id="text8224"><path
       d="m 14.95,95.406001 q -1.44,0 -2.295,-0.72 -0.8325,-0.7425 -0.8325,-2.16 0,-0.405 0.045,-0.765 0.2025,-1.08 1.0575,-3.3075 l 0.36,-1.08 q 0.135,-0.405 0.135,-0.765 0,-0.5625 -0.4275,-0.5625 -0.1575,0 -0.36,0.0675 -1.1475,0.405 -1.7325,2.5875 0,0.0225 -0.0225,0.09 -0.0225,0.045 -0.045,0.0675 0,0 -0.0225,0.0225 -0.0225,0.0225 -0.09,0.0225 -0.045,0 -0.09,0 -0.045,0 -0.18,0 l -0.315,0 Q 10,88.768501 10,88.701001 q 0,-0.0675 0.0675,-0.3375 0.54,-1.7775 1.665,-2.655 0.6075,-0.4725 1.395,-0.4725 0.8775,0 1.44,0.495 0.5625,0.495 0.5625,1.305 0,0.3825 -0.0675,0.585 0,0.1575 -0.3375,0.99 -1.035,2.8125 -1.1025,4.005 0,0.6075 0.1125,0.99 0.2925,0.9675 1.4175,0.9675 0.6075,0 1.08,-0.36 1.395,-0.9225 2.3175,-4.2525 0.18,-0.63 0.18,-1.035 0,-0.99 -0.8775,-1.7775 -0.2925,-0.27 -0.2925,-0.6075 0,-0.5175 0.405,-0.9225 0.4275,-0.4275 0.945,-0.4275 0.54,0 0.8325,0.5175 0.2925,0.495 0.2925,1.1925 0,0.7875 -0.45,2.5875 -0.4275,1.7325 -1.08,3.015 -1.4175,2.9025 -3.555,2.9025 z"
       style="font-style:normal;font-variant:normal;font-weight:normal;font-stretch:normal;font-size:22.5px;line-height:125%;font-family:KaTeX_Math;-inkscape-font-specification:'KaTeX_Math, Normal';text-align:start;writing-mode:lr-tb;text-anchor:start;fill:#e07d10"
       id="path4244" /><path
       d="m 27.548312,97.420876 q 0.131625,0 0.1755,0.01462 0.04387,0 0.07313,0.02925 0.02925,0.02925 0.02925,0.08775 0,0.04387 -0.04387,0.219375 -0.32175,1.2285 -0.78975,1.6965 -0.190125,0.190125 -0.468,0.307125 -0.117,0.02925 -0.351,0.02925 -0.921375,0 -1.287,-0.716625 -0.07313,-0.190125 -0.07313,-0.1755 -0.01462,-0.01463 -0.0585,0.01462 -0.02925,0.02925 -0.0585,0.0585 -0.702,0.658125 -1.389375,0.804375 -0.08775,0.01462 -0.365625,0.01462 -0.965249,0 -1.594124,-0.804375 -0.43875,-0.6435 -0.43875,-1.638 0,-0.234 0.01462,-0.32175 0.102375,-0.936 0.599625,-1.78425 0.511875,-0.862875 1.213875,-1.389375 0.848249,-0.658125 1.784249,-0.658125 0.73125,0 1.31625,0.716625 0.234,-0.43875 0.67275,-0.43875 0.190125,0 0.336375,0.117 0.14625,0.117 0.14625,0.2925 0,0.190125 -0.55575,2.354625 -0.541125,2.149875 -0.541125,2.413125 0,0.61425 0.4095,0.61425 0.131625,-0.01462 0.2925,-0.131625 0.307125,-0.2925 0.599625,-1.404 0.08775,-0.2925 0.14625,-0.307125 0.02925,-0.01462 0.14625,-0.01462 l 0.0585,0 z m -5.396624,0.687375 q 0,0.5265 0.219375,0.84825 0.234,0.32175 0.672749,0.32175 0.424125,0 0.90675,-0.351 0.1755,-0.117 0.468,-0.43875 0.307125,-0.32175 0.365625,-0.43875 0.02925,-0.0585 0.394875,-1.564875 0.38025,-1.506375 0.38025,-1.623375 0,-0.1755 -0.160875,-0.49725 -0.32175,-0.628875 -0.921375,-0.628875 -0.585,0 -1.038375,0.49725 -0.43875,0.49725 -0.67275,1.14075 -0.424124,1.155375 -0.599624,2.3985 0,0.04387 -0.01462,0.160875 0,0.117 0,0.1755 z"
       style="font-size:64.99999762%;baseline-shift:sub"
       id="path4246" /></g><g
     style="font-style:normal;font-variant:normal;font-weight:normal;font-stretch:normal;font-size:22.5px;line-height:125%;font-family:KaTeX_Main;-inkscape-font-specification:'KaTeX_Main, Normal';text-align:start;writing-mode:lr-tb;text-anchor:start"
     id="text8228"><path
       d="m 251.10269,44.4402 q -0.315,-0.1575 -0.315,-0.45 0,-0.2925 0.315,-0.45 l 6.7275,0 0,-3.375 0.0225,-3.375 q 0.225,-0.2925 0.4275,-0.2925 0.2925,0 0.45,0.3375 l 0,6.705 6.705,0 q 0.3375,0.18 0.3375,0.45 0,0.27 -0.3375,0.45 l -6.705,0 0,6.705 q -0.1575,0.315 -0.45,0.315 -0.2925,0 -0.45,-0.315 l 0,-6.705 -6.7275,0 z"
       style="font-style:normal;font-variant:normal;font-weight:normal;font-stretch:normal;font-size:22.5px;line-height:125%;font-family:KaTeX_Main;-inkscape-font-specification:'KaTeX_Main, Normal';text-align:start;writing-mode:lr-tb;text-anchor:start;fill:#e07d10"
       id="path4239" /><path
       d="m 251.73269,145.2402 q -0.315,-0.1575 -0.315,-0.45 0,-0.2925 0.315,-0.45 l 13.0725,0 q 0.3375,0.18 0.3375,0.45 0,0.27 -0.3375,0.45 l -13.0725,0 z"
       style="font-style:normal;font-variant:normal;font-weight:normal;font-stretch:normal;font-size:22.5px;line-height:125%;font-family:KaTeX_Main;-inkscape-font-specification:'KaTeX_Main, Normal';text-align:start;writing-mode:lr-tb;text-anchor:start;fill:#e07d10"
       id="path4241" /></g><g
     style="font-style:normal;font-variant:normal;font-weight:normal;font-stretch:normal;font-size:22.5px;line-height:125%;font-family:KaTeX_Main;-inkscape-font-specification:'KaTeX_Main, Normal';text-align:start;writing-mode:lr-tb;text-anchor:start"
     id="text8234"><path
       d="m 17.102899,44.4402 q -0.315,-0.1575 -0.315,-0.45 0,-0.2925 0.315,-0.45 l 6.7275,0 0,-3.375 0.0225,-3.375 q 0.225,-0.2925 0.4275,-0.2925 0.2925,0 0.45,0.3375 l 0,6.705 6.705,0 q 0.3375,0.18 0.3375,0.45 0,0.27 -0.3375,0.45 l -6.705,0 0,6.705 q -0.1575,0.315 -0.45,0.315 -0.2925,0 -0.45,-0.315 l 0,-6.705 -6.7275,0 z"
       style="font-style:normal;font-variant:normal;font-weight:normal;font-stretch:normal;font-size:22.5px;line-height:125%;font-family:KaTeX_Main;-inkscape-font-specification:'KaTeX_Main, Normal';text-align:start;writing-mode:lr-tb;text-anchor:start;fill:#e07d10"
       id="path4234" /><path
       d="m 17.732899,145.2402 q -0.315,-0.1575 -0.315,-0.45 0,-0.2925 0.315,-0.45 l 13.0725,0 q 0.3375,0.18 0.3375,0.45 0,0.27 -0.3375,0.45 l -13.0725,0 z"
       style="font-style:normal;font-variant:normal;font-weight:normal;font-stretch:normal;font-size:22.5px;line-height:125%;font-family:KaTeX_Main;-inkscape-font-specification:'KaTeX_Main, Normal';text-align:start;writing-mode:lr-tb;text-anchor:start;fill:#e07d10"
       id="path4236" /></g><g
     id="g8240"
     transform="translate(-26.472302,-10.384901)"><g
       id="g8242"><path
         class="st38"
         d="m 264,156 c 3.7,-10.5 6.2,-30.8 6.2,-54 0,-18.8 -1.6,-35.7 -4.2,-47"
         id="path8244"
         inkscape:connector-curvature="0"
         style="fill:none;stroke:#e07d10;stroke-width:2;stroke-linecap:round;stroke-miterlimit:10" /><g
         id="g8246"><path
           class="st36"
           d="m 264,48 c 2.1,3 5.3,6.5 8.2,8.4 l -6,-0.5 -5,3.5 c 1.5,-3.1 2.5,-7.8 2.8,-11.4 z"
           id="path8248"
           inkscape:connector-curvature="0"
           style="fill:#e07d10" /></g></g></g><g
     id="g8250"
     transform="translate(-26.472302,-10.384901)"><g
       id="g8252"><path
         class="st38"
         d="M 66,156 C 62.3,145.5 59.8,125.2 59.8,102 59.8,83.2 61.4,66.3 64,55"
         id="path8254"
         inkscape:connector-curvature="0"
         style="fill:none;stroke:#e07d10;stroke-width:2;stroke-linecap:round;stroke-miterlimit:10" /><g
         id="g8256"><path
           class="st36"
           d="m 66,48 c 0.3,3.6 1.3,8.3 2.8,11.4 l -5,-3.5 -6,0.5 C 60.7,54.5 63.9,51 66,48 Z"
           id="path8258"
           inkscape:connector-curvature="0"
           style="fill:#e07d10" /></g></g></g><path
     style="fill:none;fill-rule:evenodd;stroke:#00aad4;stroke-width:2;stroke-linecap:round;stroke-linejoin:round;stroke-miterlimit:4;stroke-dasharray:none;stroke-opacity:1"
     d="m 23.553742,13.174942 c 0.970815,3.499229 -0.531873,11.433141 0.460705,14.281843"
     id="path10571"
     inkscape:connector-curvature="0"
     sodipodi:nodetypes="cc" /><path
     style="fill:none;fill-rule:evenodd;stroke:#00aad4;stroke-width:2;stroke-linecap:round;stroke-linejoin:round;stroke-miterlimit:4;stroke-dasharray:none;stroke-opacity:1"
     d="m 35.992768,21.467625 c -2.344579,-0.796641 -9.955393,1.204854 -8.753389,0 1.492745,-3.300796 3.63964,-5.613643 4.607046,-7.371273 0.541559,1.551178 0.460705,3.02624 0.460705,4.607046 -0.09923,3.719004 -0.151756,6.177036 0,9.674796"
     id="path10573"
     inkscape:connector-curvature="0"
     sodipodi:nodetypes="ccccc" /><path
     style="fill:none;fill-rule:evenodd;stroke:#00aad4;stroke-width:2;stroke-linecap:round;stroke-linejoin:round;stroke-miterlimit:4;stroke-dasharray:none;stroke-opacity:1"
     d="m 42.580995,16.745457 c -1.769027,0.356827 -2.431144,0.734524 -3.363295,1.957941 -0.810548,1.063817 -0.693848,3.105059 -0.460705,4.146341 0.736783,3.290669 5.978357,2.562779 6.910569,0.921409 0.971008,-1.709681 0.222845,-5.052381 -0.460704,-5.98916 -1.091016,-0.929844 -1.430228,-0.983352 -2.625865,-1.036531 z"
     id="path10575"
     inkscape:connector-curvature="0"
     sodipodi:nodetypes="cssscc" /><path
     style="fill:none;fill-rule:evenodd;stroke:#00aad4;stroke-width:2;stroke-linecap:round;stroke-linejoin:round;stroke-miterlimit:4;stroke-dasharray:none;stroke-opacity:1"
     d="m 49.813906,17.781988 c 2.425551,1.382084 1.337044,6.093188 2.303523,7.831979 2.531163,4.105474 4.31321,-5.503748 6.102735,-7.767339"
     id="path10577"
     inkscape:connector-curvature="0"
     sodipodi:nodetypes="ccc" /></svg>