<?xml version="1.0" encoding="UTF-8" standalone="no"?>
<!-- Generator: Adobe Illustrator 19.1.0, SVG Export Plug-In . SVG Version: 6.00 Build 0)  -->

<svg
   xmlns:dc="http://purl.org/dc/elements/1.1/"
   xmlns:cc="http://creativecommons.org/ns#"
   xmlns:rdf="http://www.w3.org/1999/02/22-rdf-syntax-ns#"
   xmlns:svg="http://www.w3.org/2000/svg"
   xmlns="http://www.w3.org/2000/svg"
   xmlns:sodipodi="http://sodipodi.sourceforge.net/DTD/sodipodi-0.dtd"
   xmlns:inkscape="http://www.inkscape.org/namespaces/inkscape"
   version="1.1"
   id="Layer_1"
   x="0px"
   y="0px"
   width="274.74527"
   height="254.0054"
   viewBox="0 0 274.74527 254.0054"
   xml:space="preserve"
   sodipodi:docname="node_voltage14.svg"
   inkscape:version="0.92.2 5c3e80d, 2017-08-06"><metadata
     id="metadata21827"><rdf:RDF><cc:Work
         rdf:about=""><dc:format>image/svg+xml</dc:format><dc:type
           rdf:resource="http://purl.org/dc/dcmitype/StillImage" /><dc:title></dc:title></cc:Work></rdf:RDF></metadata><defs
     id="defs21825" /><sodipodi:namedview
     pagecolor="#ffffff"
     bordercolor="#666666"
     borderopacity="1"
     objecttolerance="10"
     gridtolerance="10"
     guidetolerance="10"
     inkscape:pageopacity="0"
     inkscape:pageshadow="2"
     inkscape:window-width="640"
     inkscape:window-height="480"
     id="namedview21823"
     showgrid="false"
     fit-margin-top="10"
     fit-margin-right="10"
     fit-margin-bottom="10"
     fit-margin-left="10"
     inkscape:zoom="1.8235073"
     inkscape:cx="137.37263"
     inkscape:cy="127.0027"
     inkscape:current-layer="Layer_1" /><style
     type="text/css"
     id="style21694">
	.st0{fill:none;stroke:#FF9C39;stroke-width:5;stroke-linecap:round;stroke-miterlimit:10;}
	.st1{fill:#FF9C39;}
	.st2{fill:none;stroke:#1FAB54;stroke-width:6;stroke-linecap:round;stroke-miterlimit:10;}
	.st3{fill:none;stroke:#FF9C39;stroke-width:6;stroke-linecap:round;stroke-miterlimit:10;}
	.st4{fill:none;stroke:#FF9C39;stroke-width:6;stroke-linecap:round;stroke-linejoin:round;stroke-miterlimit:10;}
	.st5{fill:none;stroke:#11ACCD;stroke-width:5;stroke-linecap:round;stroke-linejoin:round;stroke-miterlimit:10;}
	.st6{fill:none;stroke:#1FAB54;stroke-width:6;stroke-linecap:round;stroke-linejoin:round;stroke-miterlimit:10;}
	.st7{fill:none;stroke:#BABEC2;stroke-width:2;stroke-linecap:round;stroke-miterlimit:10;}
	.st8{fill:none;stroke:#ED5FA6;stroke-width:4;stroke-linecap:round;stroke-miterlimit:10;}
	.st9{fill:#ED5FA6;}
	.st10{fill:none;stroke:#1FAB54;stroke-width:4;stroke-linecap:round;stroke-miterlimit:10;}
	.st11{fill:#1FAB54;}
	.st12{fill:none;stroke:#11ACCD;stroke-width:4;stroke-linecap:round;stroke-miterlimit:10;}
	.st13{fill:#11ACCD;}
	.st14{fill:none;stroke:#FF9C39;stroke-width:4;stroke-linecap:round;stroke-miterlimit:10;}
	.st15{fill:none;stroke:#000000;stroke-linecap:round;stroke-linejoin:round;stroke-miterlimit:10;}
	.st16{fill:none;stroke:#000000;stroke-width:1.5;stroke-linecap:round;stroke-linejoin:round;stroke-miterlimit:10;}
	.st17{fill:none;stroke:#000000;stroke-linecap:round;stroke-miterlimit:10;}
	.st18{fill:none;stroke:#000000;stroke-width:1.5;stroke-linecap:round;stroke-miterlimit:10;}
	.st19{fill:none;stroke:#000000;stroke-width:2;stroke-linecap:round;stroke-linejoin:round;stroke-miterlimit:10;}
	.st20{fill:none;stroke:#000000;stroke-width:1.5;stroke-miterlimit:10;}
	.st21{fill:none;stroke:#000000;stroke-miterlimit:10;}
	.st22{fill:none;stroke:#000000;stroke-width:2;stroke-miterlimit:10;}
	.st23{fill:none;stroke:#000000;stroke-width:2;stroke-linecap:round;stroke-miterlimit:10;}
	.st24{fill:none;stroke:#000000;stroke-linecap:round;stroke-linejoin:round;}
	.st25{fill:none;}
	.st26{stroke:#000000;stroke-linecap:round;stroke-linejoin:round;stroke-miterlimit:10;}
	.st27{fill:none;stroke:#000000;stroke-width:1.5;stroke-linejoin:round;stroke-miterlimit:10;}
	.st28{fill:none;stroke:#000000;stroke-linejoin:round;stroke-miterlimit:10;}
	.st29{clip-path:url(#SVGID_2_);fill:none;stroke:#000000;stroke-linejoin:round;stroke-miterlimit:10;}
	.st30{clip-path:url(#SVGID_2_);fill:none;stroke:#ADADEB;stroke-linejoin:round;stroke-miterlimit:10;}
	.st31{clip-path:url(#SVGID_2_);}
	.st32{stroke:#000000;stroke-linejoin:round;stroke-miterlimit:10;}
	.st33{stroke:#000000;stroke-width:3;stroke-linejoin:round;stroke-miterlimit:10;}
	.st34{fill:none;stroke:#000000;stroke-linejoin:round;}
	.st35{fill:#FFFFFF;stroke:#000000;stroke-miterlimit:10;}
	.st36{fill:#E07D10;}
	.st37{fill:none;stroke:#11ACCD;stroke-width:3;stroke-linecap:round;stroke-miterlimit:10;}
	.st38{fill:none;stroke:#E07D10;stroke-width:2;stroke-linecap:round;stroke-miterlimit:10;}
	.st39{fill:none;stroke:#FF9C39;stroke-width:3;stroke-linecap:round;stroke-miterlimit:10;}
	.st40{fill:none;stroke:#FFBB71;stroke-width:2;stroke-linecap:round;stroke-miterlimit:10;}
	.st41{fill:#FFBB71;}
	.st42{font-family:'KaTeX_Main-Regular';}
	.st43{font-size:18px;}
	.st44{letter-spacing:1;}
	.st45{font-family:'KaTeX_Main-Italic';}
	.st46{font-size:21px;}
	.st47{fill:none;stroke:#000000;stroke-width:2;stroke-linecap:round;stroke-miterlimit:10;stroke-dasharray:6.1241,6.1241;}
	.st48{fill:#66AFE9;}
	.st49{fill:none;stroke:#66AFE9;stroke-miterlimit:10;}
	.st50{fill:none;stroke:#11ACCD;stroke-width:1.5;stroke-miterlimit:10;}
	.st51{fill:none;stroke:#11ACCD;stroke-width:4;stroke-linecap:round;stroke-linejoin:round;stroke-miterlimit:10;}
	.st52{fill:#CA337C;}
</style><g
     id="g21708"
     transform="translate(11.103056,-8.494561)"><polyline
       class="st17"
       points="168,174 168,144 168,120  "
       id="polyline21696"
       style="fill:none;stroke:#000000;stroke-linecap:round;stroke-miterlimit:10" /><line
       class="st17"
       x1="168"
       y1="192"
       x2="168"
       y2="228"
       id="line21698"
       style="fill:none;stroke:#000000;stroke-linecap:round;stroke-miterlimit:10" /><line
       class="st23"
       x1="150"
       y1="174"
       x2="186"
       y2="174"
       id="line21700"
       style="fill:none;stroke:#000000;stroke-width:2;stroke-linecap:round;stroke-miterlimit:10" /><line
       class="st23"
       x1="163.5"
       y1="180"
       x2="172.5"
       y2="180"
       id="line21702"
       style="fill:none;stroke:#000000;stroke-width:2;stroke-linecap:round;stroke-miterlimit:10" /><line
       class="st23"
       x1="150"
       y1="186.2"
       x2="186"
       y2="186.2"
       id="line21704"
       style="fill:none;stroke:#000000;stroke-width:2;stroke-linecap:round;stroke-miterlimit:10" /><line
       class="st23"
       x1="163.5"
       y1="192"
       x2="172.5"
       y2="192"
       id="line21706"
       style="fill:none;stroke:#000000;stroke-width:2;stroke-linecap:round;stroke-miterlimit:10" /></g><g
     id="g21722"
     transform="translate(11.103056,-8.494561)"><polyline
       class="st17"
       points="48,72 48,36 168,36  "
       id="polyline21710"
       style="fill:none;stroke:#000000;stroke-linecap:round;stroke-miterlimit:10" /><polyline
       class="st17"
       points="48,144 48,126 48,90  "
       id="polyline21712"
       style="fill:none;stroke:#000000;stroke-linecap:round;stroke-miterlimit:10" /><line
       class="st23"
       x1="30"
       y1="72"
       x2="66"
       y2="72"
       id="line21714"
       style="fill:none;stroke:#000000;stroke-width:2;stroke-linecap:round;stroke-miterlimit:10" /><line
       class="st23"
       x1="43.5"
       y1="78"
       x2="52.5"
       y2="78"
       id="line21716"
       style="fill:none;stroke:#000000;stroke-width:2;stroke-linecap:round;stroke-miterlimit:10" /><line
       class="st23"
       x1="30"
       y1="84.199997"
       x2="66"
       y2="84.199997"
       id="line21718"
       style="fill:none;stroke:#000000;stroke-width:2;stroke-linecap:round;stroke-miterlimit:10" /><line
       class="st23"
       x1="43.5"
       y1="90"
       x2="52.5"
       y2="90"
       id="line21720"
       style="fill:none;stroke:#000000;stroke-width:2;stroke-linecap:round;stroke-miterlimit:10" /></g><g
     id="g21732"
     transform="translate(11.103056,-8.494561)"><line
       class="st15"
       x1="131.39999"
       y1="132"
       x2="150"
       y2="132"
       id="line21724"
       style="fill:none;stroke:#000000;stroke-linecap:round;stroke-linejoin:round;stroke-miterlimit:10" /><polyline
       class="st19"
       points="84.6,132 88.5,123 96.3,141 104.1,123 111.9,141 119.7,123 127.5,141 131.4,132  "
       id="polyline21726"
       style="fill:none;stroke:#000000;stroke-width:2;stroke-linecap:round;stroke-linejoin:round;stroke-miterlimit:10" /><line
       class="st15"
       x1="66"
       y1="132"
       x2="84.599998"
       y2="132"
       id="line21728"
       style="fill:none;stroke:#000000;stroke-linecap:round;stroke-linejoin:round;stroke-miterlimit:10" /><rect
       x="66"
       y="120"
       class="st25"
       width="84"
       height="24"
       id="rect21730"
       style="fill:none" /></g><g
     id="g21742"
     transform="translate(11.103056,-8.494561)"><line
       class="st15"
       x1="48"
       y1="156.60001"
       x2="48"
       y2="144"
       id="line21734"
       style="fill:none;stroke:#000000;stroke-linecap:round;stroke-linejoin:round;stroke-miterlimit:10" /><polyline
       class="st19"
       points="48,203.4 39,199.5 57,191.7 39,183.9 57,176.1 39,168.3 57,160.5 48,156.6  "
       id="polyline21736"
       style="fill:none;stroke:#000000;stroke-width:2;stroke-linecap:round;stroke-linejoin:round;stroke-miterlimit:10" /><line
       class="st15"
       x1="48"
       y1="228"
       x2="48"
       y2="203.39999"
       id="line21738"
       style="fill:none;stroke:#000000;stroke-linecap:round;stroke-linejoin:round;stroke-miterlimit:10" /><rect
       x="36"
       y="138"
       class="st25"
       width="24"
       height="84"
       id="rect21740"
       style="fill:none" /></g><g
     id="g21752"
     transform="translate(11.103056,-8.494561)"><line
       class="st15"
       x1="168"
       y1="54.599998"
       x2="168"
       y2="36"
       id="line21744"
       style="fill:none;stroke:#000000;stroke-linecap:round;stroke-linejoin:round;stroke-miterlimit:10" /><polyline
       class="st19"
       points="168,101.4 159,97.5 177,89.7 159,81.9 177,74.1 159,66.3 177,58.5 168,54.6  "
       id="polyline21746"
       style="fill:none;stroke:#000000;stroke-width:2;stroke-linecap:round;stroke-linejoin:round;stroke-miterlimit:10" /><line
       class="st15"
       x1="168"
       y1="120"
       x2="168"
       y2="101.4"
       id="line21748"
       style="fill:none;stroke:#000000;stroke-linecap:round;stroke-linejoin:round;stroke-miterlimit:10" /><rect
       x="156"
       y="36"
       class="st25"
       width="24"
       height="84"
       id="rect21750"
       style="fill:none" /></g><g
     id="g21758"
     transform="translate(11.103056,-8.494561)"><polyline
       class="st15"
       points="168,240 175.5,240 175.5,240 175.5,240 168,252 160.5,240 168,240 168,228  "
       id="polyline21754"
       style="fill:none;stroke:#000000;stroke-linecap:round;stroke-linejoin:round;stroke-miterlimit:10" /><rect
       x="156"
       y="228"
       class="st25"
       width="24"
       height="24"
       id="rect21756"
       style="fill:none" /></g><g
     id="g21764"
     transform="translate(11.103056,-8.494561)"><circle
       class="st26"
       cx="168"
       cy="228"
       r="1.5"
       id="circle21760"
       style="stroke:#000000;stroke-linecap:round;stroke-linejoin:round;stroke-miterlimit:10" /><rect
       x="162"
       y="222"
       class="st25"
       width="12"
       height="12"
       id="rect21762"
       style="fill:none" /></g><g
     id="g21770"
     transform="translate(11.103056,-8.494561)"><circle
       class="st26"
       cx="168"
       cy="132"
       r="1.5"
       id="circle21766"
       style="stroke:#000000;stroke-linecap:round;stroke-linejoin:round;stroke-miterlimit:10" /><rect
       x="162"
       y="126"
       class="st25"
       width="12"
       height="12"
       id="rect21768"
       style="fill:none" /></g><g
     id="g21776"
     transform="translate(11.103056,-8.494561)"><circle
       class="st26"
       cx="48"
       cy="132"
       r="1.5"
       id="circle21772"
       style="stroke:#000000;stroke-linecap:round;stroke-linejoin:round;stroke-miterlimit:10" /><rect
       x="42"
       y="126"
       class="st25"
       width="12"
       height="12"
       id="rect21774"
       style="fill:none" /></g><g
     aria-label="b"
     style="font-style:normal;font-variant:normal;font-weight:normal;font-stretch:normal;font-size:24px;font-family:KaTeX_Math;-inkscape-font-specification:'KaTeX_Math, Normal';font-variant-ligatures:normal;font-variant-caps:normal;font-variant-numeric:normal;font-feature-settings:normal;text-align:start;letter-spacing:1;writing-mode:lr-tb;text-anchor:start;fill:#1fab54"
     id="text21778"
     transform="translate(3e-7,-5.126561)"><path
       d="m 67.239859,106.24 q 0.024,0 1.728,-0.12 1.728,-0.144 1.752,-0.144 0.288,0 0.288,0.216 0,0.216 -0.816,3.432 -0.192,0.816 -0.432,1.68 -0.216,0.864 -0.336,1.296 l -0.096,0.456 q 0,0.072 0.144,-0.072 0.816,-0.672 1.824,-0.912 0.288,-0.048 0.6,-0.048 0.312,0 0.6,0.048 1.248,0.288 1.992,1.296 0.744,1.008 0.744,2.544 0,2.688 -1.896,4.848 -1.872,2.136 -4.08,2.136 -0.696,0 -1.32,-0.312 -1.872,-0.84 -1.872,-3.552 0,-0.696 0.144,-1.368 0,-0.024 1.2,-4.92 l 1.224,-4.896 q 0.048,-0.336 -0.168,-0.408 -0.192,-0.096 -0.672,-0.096 -0.168,0 -0.264,0 -0.504,0 -0.576,-0.072 -0.144,-0.12 -0.024,-0.576 0.096,-0.336 0.168,-0.384 0.072,-0.072 0.144,-0.072 z m 5.928,8.592 q 0,-1.92 -1.464,-1.92 -0.048,0 -0.168,0.024 -0.096,0 -0.12,0 -1.248,0.264 -2.352,1.728 -0.048,0.048 -0.12,0.144 l -0.072,0.096 q 0,0.024 -0.432,1.728 -0.408,1.68 -0.456,1.92 -0.144,0.744 -0.144,1.344 0,1.152 0.576,1.728 0.384,0.384 0.96,0.384 0.792,0 1.608,-0.768 0.6,-0.552 0.96,-1.344 0.384,-0.816 0.792,-2.52 0.432,-1.728 0.432,-2.544 z"
       style="font-style:normal;font-variant:normal;font-weight:normal;font-stretch:normal;font-size:24px;font-family:KaTeX_Math;-inkscape-font-specification:'KaTeX_Math, Normal';font-variant-ligatures:normal;font-variant-caps:normal;font-variant-numeric:normal;font-feature-settings:normal;text-align:start;letter-spacing:1;writing-mode:lr-tb;text-anchor:start;fill:#1fab54"
       id="path22444"
       inkscape:connector-curvature="0" /></g><g
     aria-label="a"
     style="font-style:normal;font-variant:normal;font-weight:normal;font-stretch:normal;font-size:24px;font-family:KaTeX_Math;-inkscape-font-specification:'KaTeX_Math, Normal';font-variant-ligatures:normal;font-variant-caps:normal;font-variant-numeric:normal;font-feature-settings:normal;text-align:start;letter-spacing:1;writing-mode:lr-tb;text-anchor:start;fill:#1fab54"
     id="text21780"
     transform="translate(3e-7,-5.126561)"><path
       d="m 175.01233,118.96 q 0.216,0 0.288,0.024 0.072,0 0.12,0.048 0.048,0.048 0.048,0.144 0,0.072 -0.072,0.36 -0.528,2.016 -1.296,2.784 -0.312,0.312 -0.768,0.504 -0.192,0.048 -0.576,0.048 -1.512,0 -2.112,-1.176 -0.12,-0.312 -0.12,-0.288 -0.024,-0.024 -0.096,0.024 -0.048,0.048 -0.096,0.096 -1.152,1.08 -2.28,1.32 -0.144,0.024 -0.6,0.024 -1.584,0 -2.616,-1.32 -0.72,-1.056 -0.72,-2.688 0,-0.384 0.024,-0.528 0.168,-1.536 0.984,-2.928 0.84,-1.416 1.992,-2.28 1.392,-1.08 2.928,-1.08 1.2,0 2.16,1.176 0.384,-0.72 1.104,-0.72 0.312,0 0.552,0.192 0.24,0.192 0.24,0.48 0,0.312 -0.912,3.864 -0.888,3.528 -0.888,3.96 0,1.008 0.672,1.008 0.216,-0.024 0.48,-0.216 0.504,-0.48 0.984,-2.304 0.144,-0.48 0.24,-0.504 0.048,-0.024 0.24,-0.024 z m -8.856,1.128 q 0,0.864 0.36,1.392 0.384,0.528 1.104,0.528 0.696,0 1.488,-0.576 0.288,-0.192 0.768,-0.72 0.504,-0.528 0.6,-0.72 0.048,-0.096 0.648,-2.568 0.624,-2.472 0.624,-2.664 0,-0.288 -0.264,-0.816 -0.528,-1.032 -1.512,-1.032 -0.96,0 -1.704,0.816 -0.72,0.816 -1.104,1.872 -0.696,1.896 -0.984,3.936 0,0.072 -0.024,0.264 0,0.192 0,0.288 z"
       style="font-style:normal;font-variant:normal;font-weight:normal;font-stretch:normal;font-size:24px;font-family:KaTeX_Math;-inkscape-font-specification:'KaTeX_Math, Normal';font-variant-ligatures:normal;font-variant-caps:normal;font-variant-numeric:normal;font-feature-settings:normal;text-align:start;letter-spacing:1;writing-mode:lr-tb;text-anchor:start;fill:#1fab54"
       id="path22441"
       inkscape:connector-curvature="0" /></g><g
     aria-label="c"
     style="font-style:normal;font-variant:normal;font-weight:normal;font-stretch:normal;font-size:24px;font-family:KaTeX_Math;-inkscape-font-specification:'KaTeX_Math, Normal';font-variant-ligatures:normal;font-variant-caps:normal;font-variant-numeric:normal;font-feature-settings:normal;text-align:start;letter-spacing:1;writing-mode:lr-tb;text-anchor:start;fill:#1fab54"
     id="text21782"
     transform="translate(3e-7,-27.803728)"><path
       d="m 122.84786,45.507728 q 0.096,0 0.312,0.24 0.24,0.216 0.24,0.312 0,0.216 -0.744,0.888 -1.488,1.344 -3.768,1.68 -0.528,0.048 -0.936,0.048 -2.568,0 -3.576,-2.112 -0.456,-0.888 -0.456,-1.968 0,-1.104 0.456,-2.256 0.696,-1.8 2.256,-3.048 1.584,-1.272 3.36,-1.464 0.144,-0.024 0.456,-0.024 0.84,0 1.56,0.264 1.344,0.576 1.344,1.824 0,0.744 -0.456,1.224 -0.456,0.456 -1.152,0.456 -0.456,0 -0.72,-0.24 -0.264,-0.264 -0.264,-0.72 0,-0.408 0.24,-0.792 0.24,-0.384 0.624,-0.552 0.192,-0.12 0.264,-0.12 0.096,0 -0.168,-0.168 -0.456,-0.264 -1.272,-0.264 -0.72,0 -1.368,0.336 -0.504,0.216 -1.032,0.744 -0.624,0.624 -1.008,1.488 -0.384,0.864 -0.768,2.472 -0.264,1.128 -0.264,1.8 0,1.104 0.624,1.656 0.552,0.576 1.488,0.576 0.36,0 0.744,-0.048 2.256,-0.336 3.696,-1.992 0.216,-0.24 0.288,-0.24 z"
       style="font-style:normal;font-variant:normal;font-weight:normal;font-stretch:normal;font-size:24px;font-family:KaTeX_Math;-inkscape-font-specification:'KaTeX_Math, Normal';font-variant-ligatures:normal;font-variant-caps:normal;font-variant-numeric:normal;font-feature-settings:normal;text-align:start;letter-spacing:1;writing-mode:lr-tb;text-anchor:start;fill:#1fab54"
       id="path22438"
       inkscape:connector-curvature="0" /></g><g
     aria-label="vc"
     style="font-style:normal;font-variant:normal;font-weight:normal;font-stretch:normal;font-size:24px;font-family:KaTeX_Main;-inkscape-font-specification:'KaTeX_Main, Normal';font-variant-ligatures:normal;font-variant-caps:normal;font-variant-numeric:normal;font-feature-settings:normal;text-align:start;writing-mode:lr-tb;text-anchor:start;fill:#e07d10"
     id="text21784"
     transform="translate(-79.370087,13.771078)"><path
       d="m 116.66668,20.896 q -1.536,0 -2.448,-0.768 -0.888,-0.792 -0.888,-2.304 0,-0.432 0.048,-0.816 0.216,-1.152 1.128,-3.528 l 0.384,-1.152 q 0.144,-0.432 0.144,-0.816 0,-0.6 -0.456,-0.6 -0.168,0 -0.384,0.072 -1.224,0.432 -1.848,2.76 0,0.024 -0.024,0.096 -0.024,0.048 -0.048,0.072 0,0 -0.024,0.024 -0.024,0.024 -0.096,0.024 -0.048,0 -0.096,0 -0.048,0 -0.192,0 h -0.336 q -0.144,-0.144 -0.144,-0.216 0,-0.072 0.072,-0.36 0.576,-1.896 1.776,-2.832 0.648,-0.504 1.488,-0.504 0.936,0 1.536,0.528 0.6,0.528 0.6,1.392 0,0.408 -0.072,0.624 0,0.168 -0.36,1.056 -1.104,3 -1.176,4.272 0,0.648 0.12,1.056 0.312,1.032 1.512,1.032 0.648,0 1.152,-0.384 1.488,-0.984 2.472,-4.536 0.192,-0.672 0.192,-1.104 0,-1.056 -0.936,-1.896 -0.312,-0.288 -0.312,-0.648 0,-0.552 0.432,-0.984 0.456,-0.456 1.008,-0.456 0.576,0 0.888,0.552 0.312,0.528 0.312,1.272 0,0.84 -0.48,2.76 -0.456,1.848 -1.152,3.216 -1.512,3.096 -3.792,3.096 z"
       style="font-style:normal;font-variant:normal;font-weight:normal;font-stretch:normal;font-size:24px;font-family:KaTeX_Math;-inkscape-font-specification:'KaTeX_Math, Normal';font-variant-ligatures:normal;font-variant-caps:normal;font-variant-numeric:normal;font-feature-settings:normal;text-align:start;writing-mode:lr-tb;text-anchor:start"
       id="path22433"
       inkscape:connector-curvature="0" /><path
       d="m 128.84128,23.5444 q 0.0624,0 0.2028,0.156 0.156,0.1404 0.156,0.2028 0,0.1404 -0.4836,0.5772 -0.9672,0.8736 -2.4492,1.092 -0.3432,0.0312 -0.6084,0.0312 -1.6692,0 -2.3244,-1.3728 -0.2964,-0.5772 -0.2964,-1.2792 0,-0.7176 0.2964,-1.4664 0.4524,-1.17 1.4664,-1.9812 1.0296,-0.8268 2.184,-0.9516 0.0936,-0.0156 0.2964,-0.0156 0.546,0 1.014,0.1716 0.8736,0.3744 0.8736,1.1856 0,0.4836 -0.2964,0.7956 -0.2964,0.2964 -0.7488,0.2964 -0.2964,0 -0.468,-0.156 -0.1716,-0.1716 -0.1716,-0.468 0,-0.2652 0.156,-0.5148 0.156,-0.2496 0.4056,-0.3588 0.1248,-0.078 0.1716,-0.078 0.0624,0 -0.1092,-0.1092 -0.2964,-0.1716 -0.8268,-0.1716 -0.468,0 -0.8892,0.2184 -0.3276,0.1404 -0.6708,0.4836 -0.4056,0.4056 -0.6552,0.9672 -0.2496,0.5616 -0.4992,1.6068 -0.1716,0.7332 -0.1716,1.17 0,0.7176 0.4056,1.0764 0.3588,0.3744 0.9672,0.3744 0.234,0 0.4836,-0.0312 1.4664,-0.2184 2.4024,-1.2948 0.1404,-0.156 0.1872,-0.156 z"
       style="font-size:64.99999762%;baseline-shift:sub"
       id="path22435"
       inkscape:connector-curvature="0" /></g><g
     aria-label="vb"
     style="font-style:normal;font-variant:normal;font-weight:normal;font-stretch:normal;font-size:24px;font-family:KaTeX_Main;-inkscape-font-specification:'KaTeX_Main, Normal';font-variant-ligatures:normal;font-variant-caps:normal;font-variant-numeric:normal;font-feature-settings:normal;text-align:start;writing-mode:lr-tb;text-anchor:start;fill:#e07d10"
     id="text21788"
     transform="translate(3e-7,-5.126561)"><path
       d="m 37.107729,128.8961 q -1.536,0 -2.448,-0.768 -0.888,-0.792 -0.888,-2.304 0,-0.432 0.048,-0.816 0.216,-1.152 1.128,-3.528 l 0.384,-1.152 q 0.144,-0.432 0.144,-0.816 0,-0.6 -0.456,-0.6 -0.168,0 -0.384,0.072 -1.224,0.432 -1.848,2.76 0,0.024 -0.024,0.096 -0.024,0.048 -0.048,0.072 0,0 -0.024,0.024 -0.024,0.024 -0.096,0.024 -0.048,0 -0.096,0 -0.048,0 -0.192,0 h -0.336 q -0.144,-0.144 -0.144,-0.216 0,-0.072 0.072,-0.36 0.576,-1.896 1.776,-2.832 0.648,-0.504 1.488,-0.504 0.936,0 1.536,0.528 0.6,0.528 0.6,1.392 0,0.408 -0.072,0.624 0,0.168 -0.36,1.056 -1.104,3 -1.176,4.272 0,0.648 0.12,1.056 0.312,1.032 1.512,1.032 0.648,0 1.152,-0.384 1.488,-0.984 2.472,-4.536 0.192,-0.672 0.192,-1.104 0,-1.056 -0.936,-1.896 -0.312,-0.288 -0.312,-0.648 0,-0.552 0.432,-0.984 0.456,-0.456 1.008,-0.456 0.576,0 0.888,0.552 0.312,0.528 0.312,1.272 0,0.84 -0.48,2.76 -0.456,1.848 -1.152,3.216 -1.512,3.096 -3.792,3.096 z"
       style="font-style:normal;font-variant:normal;font-weight:normal;font-stretch:normal;font-size:24px;font-family:KaTeX_Math;-inkscape-font-specification:'KaTeX_Math, Normal';font-variant-ligatures:normal;font-variant-caps:normal;font-variant-numeric:normal;font-feature-settings:normal;text-align:start;writing-mode:lr-tb;text-anchor:start"
       id="path22428"
       inkscape:connector-curvature="0" /><path
       d="m 44.337129,122.7773 q 0.0156,0 1.123199,-0.078 1.1232,-0.0936 1.1388,-0.0936 0.1872,0 0.1872,0.1404 0,0.1404 -0.5304,2.2308 -0.1248,0.5304 -0.2808,1.092 -0.1404,0.5616 -0.2184,0.8424 l -0.0624,0.2964 q 0,0.0468 0.0936,-0.0468 0.5304,-0.4368 1.1856,-0.5928 0.1872,-0.0312 0.39,-0.0312 0.2028,0 0.39,0.0312 0.8112,0.1872 1.2948,0.8424 0.4836,0.6552 0.4836,1.6536 0,1.7472 -1.2324,3.1512 -1.2168,1.3884 -2.652,1.3884 -0.4524,0 -0.858,-0.2028 -1.216799,-0.546 -1.216799,-2.3088 0,-0.4524 0.0936,-0.8892 0,-0.0156 0.78,-3.198 l 0.795599,-3.1824 q 0.0312,-0.2184 -0.1092,-0.2652 -0.1248,-0.0624 -0.4368,-0.0624 -0.109199,0 -0.171599,0 -0.3276,0 -0.3744,-0.0468 -0.0936,-0.078 -0.0156,-0.3744 0.0624,-0.2184 0.1092,-0.2496 0.0468,-0.0468 0.0936,-0.0468 z m 3.853199,5.5848 q 0,-1.248 -0.9516,-1.248 -0.0312,0 -0.1092,0.0156 -0.0624,0 -0.078,0 -0.8112,0.1716 -1.5288,1.1232 -0.0312,0.0312 -0.078,0.0936 l -0.0468,0.0624 q 0,0.0156 -0.2808,1.1232 -0.2652,1.092 -0.2964,1.248 -0.0936,0.4836 -0.0936,0.8736 0,0.7488 0.3744,1.1232 0.2496,0.2496 0.624,0.2496 0.5148,0 1.0452,-0.4992 0.39,-0.3588 0.624,-0.8736 0.2496,-0.5304 0.5148,-1.638 0.2808,-1.1232 0.2808,-1.6536 z"
       style="font-size:64.99999762%;baseline-shift:sub"
       id="path22430"
       inkscape:connector-curvature="0" /></g><g
     aria-label="va = V1"
     style="font-style:normal;font-variant:normal;font-weight:normal;font-stretch:normal;font-size:24px;font-family:KaTeX_Main;-inkscape-font-specification:'KaTeX_Main, Normal';font-variant-ligatures:normal;font-variant-caps:normal;font-variant-numeric:normal;font-feature-settings:normal;text-align:start;writing-mode:lr-tb;text-anchor:start;fill:#e07d10"
     id="text21796"
     transform="translate(3e-7,-5.126561)"><path
       d="m 195.32978,132.67564 q -1.536,0 -2.448,-0.768 -0.888,-0.792 -0.888,-2.304 0,-0.432 0.048,-0.816 0.216,-1.152 1.128,-3.528 l 0.384,-1.152 q 0.144,-0.432 0.144,-0.816 0,-0.6 -0.456,-0.6 -0.168,0 -0.384,0.072 -1.224,0.432 -1.848,2.76 0,0.024 -0.024,0.096 -0.024,0.048 -0.048,0.072 0,0 -0.024,0.024 -0.024,0.024 -0.096,0.024 -0.048,0 -0.096,0 -0.048,0 -0.192,0 h -0.336 q -0.144,-0.144 -0.144,-0.216 0,-0.072 0.072,-0.36 0.576,-1.896 1.776,-2.832 0.648,-0.504 1.488,-0.504 0.936,0 1.536,0.528 0.6,0.528 0.6,1.392 0,0.408 -0.072,0.624 0,0.168 -0.36,1.056 -1.104,3 -1.176,4.272 0,0.648 0.12,1.056 0.312,1.032 1.512,1.032 0.648,0 1.152,-0.384 1.488,-0.984 2.472,-4.536 0.192,-0.672 0.192,-1.104 0,-1.056 -0.936,-1.896 -0.312,-0.288 -0.312,-0.648 0,-0.552 0.432,-0.984 0.456,-0.456 1.008,-0.456 0.576,0 0.888,0.552 0.312,0.528 0.312,1.272 0,0.84 -0.48,2.76 -0.456,1.848 -1.152,3.216 -1.512,3.096 -3.792,3.096 z"
       style="font-style:normal;font-variant:normal;font-weight:normal;font-stretch:normal;font-size:24px;font-family:KaTeX_Math;-inkscape-font-specification:'KaTeX_Math, Normal';font-variant-ligatures:normal;font-variant-caps:normal;font-variant-numeric:normal;font-feature-settings:normal;text-align:start;writing-mode:lr-tb;text-anchor:start"
       id="path22417"
       inkscape:connector-curvature="0" /><path
       d="m 208.76798,134.82484 q 0.1404,0 0.1872,0.0156 0.0468,0 0.078,0.0312 0.0312,0.0312 0.0312,0.0936 0,0.0468 -0.0468,0.234 -0.3432,1.3104 -0.8424,1.8096 -0.2028,0.2028 -0.4992,0.3276 -0.1248,0.0312 -0.3744,0.0312 -0.9828,0 -1.3728,-0.7644 -0.078,-0.2028 -0.078,-0.1872 -0.0156,-0.0156 -0.0624,0.0156 -0.0312,0.0312 -0.0624,0.0624 -0.7488,0.702 -1.482,0.858 -0.0936,0.0156 -0.39,0.0156 -1.0296,0 -1.7004,-0.858 -0.468,-0.6864 -0.468,-1.7472 0,-0.2496 0.0156,-0.3432 0.1092,-0.9984 0.6396,-1.9032 0.546,-0.9204 1.2948,-1.482 0.9048,-0.702 1.9032,-0.702 0.78,0 1.404,0.7644 0.2496,-0.468 0.7176,-0.468 0.2028,0 0.3588,0.1248 0.156,0.1248 0.156,0.312 0,0.2028 -0.5928,2.5116 -0.5772,2.2932 -0.5772,2.574 0,0.6552 0.4368,0.6552 0.1404,-0.0156 0.312,-0.1404 0.3276,-0.312 0.6396,-1.4976 0.0936,-0.312 0.156,-0.3276 0.0312,-0.0156 0.156,-0.0156 z m -5.7564,0.7332 q 0,0.5616 0.234,0.9048 0.2496,0.3432 0.7176,0.3432 0.4524,0 0.9672,-0.3744 0.1872,-0.1248 0.4992,-0.468 0.3276,-0.3432 0.39,-0.468 0.0312,-0.0624 0.4212,-1.6692 0.4056,-1.6068 0.4056,-1.7316 0,-0.1872 -0.1716,-0.5304 -0.3432,-0.6708 -0.9828,-0.6708 -0.624,0 -1.1076,0.5304 -0.468,0.5304 -0.7176,1.2168 -0.4524,1.2324 -0.6396,2.5584 0,0.0468 -0.0156,0.1716 0,0.1248 0,0.1872 z"
       style="font-size:64.99999762%;baseline-shift:sub"
       id="path22419"
       inkscape:connector-curvature="0" /><path
       d="m 216.77181,124.08364 q 0,-0.312 0.336,-0.48 h 15.288 q 0.36,0.168 0.36,0.48 0,0.264 -0.336,0.456 l -7.632,0.024 h -7.632 q -0.384,-0.12 -0.384,-0.48 z m 0,4.656 q 0,-0.36 0.384,-0.48 h 15.264 q 0.024,0.024 0.096,0.096 0.096,0.048 0.12,0.096 0.048,0.024 0.072,0.12 0.048,0.072 0.048,0.168 0,0.312 -0.36,0.48 h -15.288 q -0.336,-0.168 -0.336,-0.48 z"
       style="font-style:normal;font-variant:normal;font-weight:normal;font-stretch:normal;font-size:24px;font-family:KaTeX_Main;-inkscape-font-specification:'KaTeX_Main, Normal';font-variant-ligatures:normal;font-variant-caps:normal;font-variant-numeric:normal;font-feature-settings:normal;text-align:start;writing-mode:lr-tb;text-anchor:start;fill:#e07d10"
       id="path22421"
       inkscape:connector-curvature="0" /><path
       d="m 242.82006,117.53164 q -0.264,-0.264 -0.48,-0.312 -0.216,-0.072 -1.104,-0.096 h -0.696 v -1.104 h 0.216 q 0.336,0.072 2.976,0.072 2.88,0 3.408,-0.072 h 0.264 v 1.104 h -0.504 q -1.104,0.024 -1.368,0.264 -0.096,0.072 -0.096,0.144 0,0.048 2.16,5.952 2.16,5.904 2.184,5.904 0.936,-2.52 2.064,-5.568 2.04,-5.52 2.04,-5.736 0,-0.456 -0.504,-0.696 -0.504,-0.264 -1.104,-0.264 h -0.12 v -1.104 h 0.216 q 0.408,0.072 2.76,0.072 2.064,0 2.328,-0.072 h 0.144 v 1.104 h -0.168 q -1.776,0 -2.304,0.984 0,0.024 -2.712,7.32 -2.688,7.296 -2.712,7.32 -0.072,0.192 -0.432,0.192 h -0.216 -0.216 q -0.336,0 -0.408,-0.192 -0.048,-0.048 -2.808,-7.608 -2.808,-7.536 -2.808,-7.608 z"
       style="font-style:normal;font-variant:normal;font-weight:normal;font-stretch:normal;font-size:24px;font-family:KaTeX_Main;-inkscape-font-specification:'KaTeX_Main, Normal';font-variant-ligatures:normal;font-variant-caps:normal;font-variant-numeric:normal;font-feature-settings:normal;text-align:start;writing-mode:lr-tb;text-anchor:start;fill:#e07d10"
       id="path22423"
       inkscape:connector-curvature="0" /><path
       d="m 264.57366,137.21164 q -0.2652,-0.0468 -2.4804,-0.0468 -2.184,0 -2.4492,0.0468 h -0.1872 v -0.7176 h 0.4056 q 0.9048,0 1.17,-0.0468 0.1248,-0.0156 0.3744,-0.1872 v -8.0652 q -0.0312,0 -0.1248,0.0468 -0.7176,0.2808 -1.6068,0.2964 h -0.2964 v -0.7176 h 0.2964 q 1.3104,-0.0468 2.184,-0.5928 0.2808,-0.156 0.4836,-0.3588 0.0312,-0.0468 0.1872,-0.0468 0.156,0 0.2652,0.0936 v 4.6644 l 0.0156,4.68 q 0.234,0.234 1.014,0.234 h 0.5148 0.4056 v 0.7176 z"
       style="font-size:64.99999762%;baseline-shift:sub"
       id="path22425"
       inkscape:connector-curvature="0" /></g><line
     class="st17"
     x1="59.103054"
     y1="219.50545"
     x2="179.10306"
     y2="219.50545"
     id="line21802"
     style="fill:none;stroke:#000000;stroke-linecap:round;stroke-miterlimit:10" /><line
     class="st17"
     x1="161.10306"
     y1="123.50544"
     x2="179.10306"
     y2="123.50544"
     id="line21804"
     style="fill:none;stroke:#000000;stroke-linecap:round;stroke-miterlimit:10" /><line
     class="st17"
     x1="77.103058"
     y1="123.50544"
     x2="59.103054"
     y2="123.50544"
     id="line21806"
     style="fill:none;stroke:#000000;stroke-linecap:round;stroke-miterlimit:10" /><g
     aria-label="R1"
     style="font-style:normal;font-variant:normal;font-weight:normal;font-stretch:normal;font-size:24px;font-family:KaTeX_Main;-inkscape-font-specification:'KaTeX_Main, Normal';font-variant-ligatures:normal;font-variant-caps:normal;font-variant-numeric:normal;font-feature-settings:normal;text-align:start;writing-mode:lr-tb;text-anchor:start"
     id="text21808"
     transform="translate(3e-7,-5.126561)"><path
       d="m 198.00258,69.48353 q -0.24,-0.24 -0.48,-0.288 -0.216,-0.048 -1.2,-0.072 h -0.792 v -1.104 h 4.2 q 4.464,0.024 4.92,0.096 0.072,0.024 0.312,0.072 1.08,0.216 1.92,0.672 2.28,1.152 2.616,3.144 0.024,0.12 0.024,0.384 0,1.344 -1.032,2.352 -1.008,1.008 -2.4,1.464 -0.048,0.024 -0.12,0.048 -0.048,0 -0.096,0.024 l -0.048,0.024 q 0.072,0.072 0.264,0.144 1.728,0.96 2.136,2.544 0.024,0.096 0.264,1.584 0.24,1.488 0.264,1.584 0.168,0.864 0.408,1.272 0.264,0.408 0.672,0.552 0.096,0.048 0.408,0.048 h 0.12 q 0.312,0 0.576,-0.264 0.48,-0.48 0.552,-1.44 0,-0.264 0.072,-0.336 0.096,-0.096 0.408,-0.096 0.288,0 0.384,0.072 0.096,0.048 0.096,0.288 0,0.864 -0.432,1.584 -0.408,0.696 -1.008,0.96 -0.384,0.144 -1.008,0.144 -3.576,-0.144 -4.128,-2.688 -0.048,-0.264 -0.072,-1.752 0,-1.488 -0.144,-1.992 -0.216,-0.648 -0.72,-1.104 -0.48,-0.48 -1.104,-0.672 l -0.24,-0.048 -1.584,-0.024 h -1.584 v 3.144 l 0.024,3.144 q 0.168,0.24 0.408,0.288 0.264,0.048 1.248,0.072 h 0.792 v 1.104 h -0.264 q -0.384,-0.072 -3.408,-0.072 -3.048,0 -3.432,0.072 h -0.264 v -1.104 h 0.792 q 0.984,-0.024 1.2,-0.072 0.24,-0.048 0.48,-0.288 z m 8.64,1.992 q -0.24,-1.44 -1.296,-1.896 -1.032,-0.456 -3.168,-0.456 -0.36,0 -0.816,0.024 -0.456,0 -0.48,0 -0.312,0.024 -0.384,0.192 -0.072,0.096 -0.072,3.264 v 3.168 h 1.392 q 1.8,0 2.664,-0.144 0.864,-0.168 1.512,-0.816 0.408,-0.408 0.528,-0.912 0.144,-0.504 0.144,-1.464 0,-0.768 -0.024,-0.96 z"
       style="font-style:normal;font-variant:normal;font-weight:normal;font-stretch:normal;font-size:24px;font-family:KaTeX_Main;-inkscape-font-specification:'KaTeX_Main, Normal';font-variant-ligatures:normal;font-variant-caps:normal;font-variant-numeric:normal;font-feature-settings:normal;text-align:start;writing-mode:lr-tb;text-anchor:start"
       id="path22412"
       inkscape:connector-curvature="0" /><path
       d="m 222.53846,84.41153 q -0.408,-0.072 -3.816,-0.072 -3.36,0 -3.768,0.072 h -0.288 v -1.104 h 0.624 q 1.392,0 1.8,-0.072 0.192,-0.024 0.576,-0.288 v -12.408 q -0.048,0 -0.192,0.072 -1.104,0.432 -2.472,0.456 h -0.456 v -1.104 h 0.456 q 2.016,-0.072 3.36,-0.912 0.432,-0.24 0.744,-0.552 0.048,-0.072 0.288,-0.072 0.24,0 0.408,0.144 v 7.176 l 0.024,7.2 q 0.36,0.36 1.56,0.36 h 0.792 0.624 v 1.104 z"
       style="font-style:normal;font-variant:normal;font-weight:normal;font-stretch:normal;font-size:24px;font-family:KaTeX_Main;-inkscape-font-specification:'KaTeX_Main, Normal';font-variant-ligatures:normal;font-variant-caps:normal;font-variant-numeric:normal;font-feature-settings:normal;text-align:start;writing-mode:lr-tb;text-anchor:start"
       id="path22414"
       inkscape:connector-curvature="0" /></g><g
     aria-label="R2"
     style="font-style:normal;font-variant:normal;font-weight:normal;font-stretch:normal;font-size:24px;font-family:KaTeX_Main;-inkscape-font-specification:'KaTeX_Main, Normal';font-variant-ligatures:normal;font-variant-caps:normal;font-variant-numeric:normal;font-feature-settings:normal;text-align:start;writing-mode:lr-tb;text-anchor:start"
     id="text21810"
     transform="translate(3e-7,-5.126561)"><path
       d="m 106.44353,145.26306 q -0.24,-0.24 -0.48,-0.288 -0.216,-0.048 -1.2,-0.072 h -0.792 v -1.104 h 4.2 q 4.464,0.024 4.92,0.096 0.072,0.024 0.312,0.072 1.08,0.216 1.92,0.672 2.28,1.152 2.616,3.144 0.024,0.12 0.024,0.384 0,1.344 -1.032,2.352 -1.008,1.008 -2.4,1.464 -0.048,0.024 -0.12,0.048 -0.048,0 -0.096,0.024 l -0.048,0.024 q 0.072,0.072 0.264,0.144 1.728,0.96 2.136,2.544 0.024,0.096 0.264,1.584 0.24,1.488 0.264,1.584 0.168,0.864 0.408,1.272 0.264,0.408 0.672,0.552 0.096,0.048 0.408,0.048 h 0.12 q 0.312,0 0.576,-0.264 0.48,-0.48 0.552,-1.44 0,-0.264 0.072,-0.336 0.096,-0.096 0.408,-0.096 0.288,0 0.384,0.072 0.096,0.048 0.096,0.288 0,0.864 -0.432,1.584 -0.408,0.696 -1.008,0.96 -0.384,0.144 -1.008,0.144 -3.576,-0.144 -4.128,-2.688 -0.048,-0.264 -0.072,-1.752 0,-1.488 -0.144,-1.992 -0.216,-0.648 -0.72,-1.104 -0.48,-0.48 -1.104,-0.672 l -0.24,-0.048 -1.584,-0.024 h -1.584 v 3.144 l 0.024,3.144 q 0.168,0.24 0.408,0.288 0.264,0.048 1.248,0.072 h 0.792 v 1.104 h -0.264 q -0.384,-0.072 -3.408,-0.072 -3.048,0 -3.432,0.072 h -0.264 v -1.104 h 0.792 q 0.984,-0.024 1.2,-0.072 0.24,-0.048 0.48,-0.288 z m 8.64,1.992 q -0.24,-1.44 -1.296,-1.896 -1.032,-0.456 -3.168,-0.456 -0.36,0 -0.816,0.024 -0.456,0 -0.48,0 -0.312,0.024 -0.384,0.192 -0.072,0.096 -0.072,3.264 v 3.168 h 1.392 q 1.8,0 2.664,-0.144 0.864,-0.168 1.512,-0.816 0.408,-0.408 0.528,-0.912 0.144,-0.504 0.144,-1.464 0,-0.768 -0.024,-0.96 z"
       style="font-style:normal;font-variant:normal;font-weight:normal;font-stretch:normal;font-size:24px;font-family:KaTeX_Main;-inkscape-font-specification:'KaTeX_Main, Normal';font-variant-ligatures:normal;font-variant-caps:normal;font-variant-numeric:normal;font-feature-settings:normal;text-align:start;writing-mode:lr-tb;text-anchor:start"
       id="path22407"
       inkscape:connector-curvature="0" /><path
       d="m 123.63541,149.89506 q -0.672,0 -1.056,-0.432 -0.384,-0.432 -0.384,-1.056 0,-1.728 1.296,-2.952 1.32,-1.248 3.144,-1.248 2.064,0 3.408,1.128 1.368,1.104 1.68,2.904 0.048,0.432 0.048,0.792 0,1.392 -0.84,2.616 -0.672,1.008 -2.712,2.76 -0.864,0.744 -2.4,2.208 l -1.416,1.344 1.824,0.024 q 3.768,0 4.008,-0.12 0.096,-0.024 0.24,-0.504 0.096,-0.264 0.336,-1.632 v -0.072 h 0.96 v 0.072 l -0.672,4.392 v 0.072 h -8.904 v -0.456 q 0,-0.48 0.048,-0.552 0.024,-0.024 2.016,-2.28 2.616,-2.904 3.36,-3.84 1.608,-2.184 1.608,-4.008 0,-1.584 -0.84,-2.64 -0.816,-1.08 -2.304,-1.08 -1.392,0 -2.256,1.248 -0.048,0.096 -0.144,0.264 -0.072,0.12 -0.072,0.144 0,0.024 0.12,0.024 0.6,0 0.96,0.432 0.384,0.432 0.384,1.008 0,0.6 -0.408,1.032 -0.384,0.408 -1.032,0.408 z"
       style="font-style:normal;font-variant:normal;font-weight:normal;font-stretch:normal;font-size:24px;font-family:KaTeX_Main;-inkscape-font-specification:'KaTeX_Main, Normal';font-variant-ligatures:normal;font-variant-caps:normal;font-variant-numeric:normal;font-feature-settings:normal;text-align:start;writing-mode:lr-tb;text-anchor:start"
       id="path22409"
       inkscape:connector-curvature="0" /></g><g
     aria-label="V2"
     style="font-style:normal;font-variant:normal;font-weight:normal;font-stretch:normal;font-size:24px;font-family:KaTeX_Main;-inkscape-font-specification:'KaTeX_Main, Normal';font-variant-ligatures:normal;font-variant-caps:normal;font-variant-numeric:normal;font-feature-settings:normal;text-align:start;writing-mode:lr-tb;text-anchor:start"
     id="text21812"
     transform="translate(3e-7,-1.3470334)"><path
       d="m 12.28,65.752004 q -0.264,-0.264 -0.48,-0.312 -0.216,-0.072 -1.104,-0.096 H 9.9999997 v -1.104 H 10.216 q 0.336,0.072 2.976,0.072 2.88,0 3.408,-0.072 h 0.264 v 1.104 H 16.36 q -1.104,0.024 -1.368,0.264 -0.096,0.072 -0.096,0.144 0,0.048 2.16,5.952 2.16,5.904 2.184,5.904 0.936,-2.52 2.064,-5.568 2.04,-5.52 2.04,-5.736 0,-0.456 -0.504,-0.696 -0.504,-0.264 -1.104,-0.264 h -0.12 v -1.104 h 0.216 q 0.408,0.072 2.76,0.072 2.064,0 2.328,-0.072 h 0.144 v 1.104 h -0.168 q -1.776,0 -2.304,0.984 0,0.024 -2.712,7.32 -2.688,7.296 -2.712,7.32 -0.072,0.192 -0.432,0.192 H 18.52 18.304 q -0.336,0 -0.408,-0.192 -0.048,-0.048 -2.808,-7.608 -2.808,-7.536 -2.808,-7.608 z"
       style="font-style:normal;font-variant:normal;font-weight:normal;font-stretch:normal;font-size:24px;font-family:KaTeX_Main;-inkscape-font-specification:'KaTeX_Main, Normal';font-variant-ligatures:normal;font-variant-caps:normal;font-variant-numeric:normal;font-feature-settings:normal;text-align:start;writing-mode:lr-tb;text-anchor:start"
       id="path22402"
       inkscape:connector-curvature="0" /><path
       d="m 29.26,78.739604 q -0.4368,0 -0.6864,-0.2808 -0.2496,-0.2808 -0.2496,-0.6864 0,-1.1232 0.8424,-1.9188 0.858,-0.8112 2.0436,-0.8112 1.341599,0 2.215199,0.7332 0.8892,0.7176 1.092,1.8876 0.0312,0.2808 0.0312,0.5148 0,0.9048 -0.546,1.7004 -0.4368,0.6552 -1.7628,1.794 -0.561599,0.4836 -1.559999,1.4352 l -0.9204,0.8736 1.1856,0.0156 q 2.449199,0 2.605199,-0.078 0.0624,-0.0156 0.156,-0.3276 0.0624,-0.1716 0.2184,-1.0608 v -0.0468 h 0.624 v 0.0468 l -0.4368,2.8548 v 0.0468 H 28.324 v -0.2964 q 0,-0.312 0.0312,-0.3588 0.0156,-0.0156 1.3104,-1.482 1.7004,-1.8876 2.184,-2.496 1.045199,-1.4196 1.045199,-2.6052 0,-1.0296 -0.546,-1.716 -0.530399,-0.702 -1.497599,-0.702 -0.9048,0 -1.4664,0.8112 -0.0312,0.0624 -0.0936,0.1716 -0.0468,0.078 -0.0468,0.0936 0,0.0156 0.078,0.0156 0.39,0 0.624,0.2808 0.2496,0.2808 0.2496,0.6552 0,0.39 -0.2652,0.6708 -0.2496,0.2652 -0.6708,0.2652 z"
       style="font-size:64.99999762%;baseline-shift:sub"
       id="path22404"
       inkscape:connector-curvature="0" /></g><g
     aria-label="V1"
     style="font-style:normal;font-variant:normal;font-weight:normal;font-stretch:normal;font-size:24px;font-family:KaTeX_Main;-inkscape-font-specification:'KaTeX_Main, Normal';font-variant-ligatures:normal;font-variant-caps:normal;font-variant-numeric:normal;font-feature-settings:normal;text-align:start;writing-mode:lr-tb;text-anchor:start"
     id="text21816"
     transform="translate(3e-7,-5.126561)"><path
       d="m 205.83906,171.53153 q -0.264,-0.264 -0.48,-0.312 -0.216,-0.072 -1.104,-0.096 h -0.696 v -1.104 h 0.216 q 0.336,0.072 2.976,0.072 2.88,0 3.408,-0.072 h 0.264 v 1.104 h -0.504 q -1.104,0.024 -1.368,0.264 -0.096,0.072 -0.096,0.144 0,0.048 2.16,5.952 2.16,5.904 2.184,5.904 0.936,-2.52 2.064,-5.568 2.04,-5.52 2.04,-5.736 0,-0.456 -0.504,-0.696 -0.504,-0.264 -1.104,-0.264 h -0.12 v -1.104 h 0.216 q 0.408,0.072 2.76,0.072 2.064,0 2.328,-0.072 h 0.144 v 1.104 h -0.168 q -1.776,0 -2.304,0.984 0,0.024 -2.712,7.32 -2.688,7.296 -2.712,7.32 -0.072,0.192 -0.432,0.192 h -0.216 -0.216 q -0.336,0 -0.408,-0.192 -0.048,-0.048 -2.808,-7.608 -2.808,-7.536 -2.808,-7.608 z"
       style="font-style:normal;font-variant:normal;font-weight:normal;font-stretch:normal;font-size:24px;font-family:KaTeX_Main;-inkscape-font-specification:'KaTeX_Main, Normal';font-variant-ligatures:normal;font-variant-caps:normal;font-variant-numeric:normal;font-feature-settings:normal;text-align:start;writing-mode:lr-tb;text-anchor:start"
       id="path22397"
       inkscape:connector-curvature="0" /><path
       d="m 227.59266,191.21153 q -0.2652,-0.0468 -2.4804,-0.0468 -2.184,0 -2.4492,0.0468 h -0.1872 v -0.7176 h 0.4056 q 0.9048,0 1.17,-0.0468 0.1248,-0.0156 0.3744,-0.1872 v -8.0652 q -0.0312,0 -0.1248,0.0468 -0.7176,0.2808 -1.6068,0.2964 h -0.2964 v -0.7176 h 0.2964 q 1.3104,-0.0468 2.184,-0.5928 0.2808,-0.156 0.4836,-0.3588 0.0312,-0.0468 0.1872,-0.0468 0.156,0 0.2652,0.0936 v 4.6644 l 0.0156,4.68 q 0.234,0.234 1.014,0.234 h 0.5148 0.4056 v 0.7176 z"
       style="font-size:64.99999762%;baseline-shift:sub"
       id="path22399"
       inkscape:connector-curvature="0" /></g><g
     aria-label="R3"
     style="font-style:normal;font-variant:normal;font-weight:normal;font-stretch:normal;font-size:24px;font-family:KaTeX_Main;-inkscape-font-specification:'KaTeX_Main, Normal';font-variant-ligatures:normal;font-variant-caps:normal;font-variant-numeric:normal;font-feature-settings:normal;text-align:start;writing-mode:lr-tb;text-anchor:start"
     id="text21820"
     transform="translate(3e-7,-5.126561)"><path
       d="m 16.443527,171.48353 q -0.24,-0.24 -0.48,-0.288 -0.216,-0.048 -1.2,-0.072 h -0.792 v -1.104 h 4.2 q 4.464,0.024 4.92,0.096 0.072,0.024 0.312,0.072 1.08,0.216 1.92,0.672 2.28,1.152 2.616,3.144 0.024,0.12 0.024,0.384 0,1.344 -1.032,2.352 -1.008,1.008 -2.4,1.464 -0.048,0.024 -0.12,0.048 -0.048,0 -0.096,0.024 l -0.048,0.024 q 0.072,0.072 0.264,0.144 1.728,0.96 2.136,2.544 0.024,0.096 0.264,1.584 0.24,1.488 0.264,1.584 0.168,0.864 0.408,1.272 0.264,0.408 0.672,0.552 0.096,0.048 0.408,0.048 h 0.12 q 0.312,0 0.576,-0.264 0.48,-0.48 0.552,-1.44 0,-0.264 0.072,-0.336 0.096,-0.096 0.408,-0.096 0.288,0 0.384,0.072 0.096,0.048 0.096,0.288 0,0.864 -0.432,1.584 -0.408,0.696 -1.008,0.96 -0.384,0.144 -1.008,0.144 -3.576,-0.144 -4.128,-2.688 -0.048,-0.264 -0.072,-1.752 0,-1.488 -0.144,-1.992 -0.216,-0.648 -0.72,-1.104 -0.48,-0.48 -1.104,-0.672 l -0.24,-0.048 -1.584,-0.024 h -1.584 v 3.144 l 0.024,3.144 q 0.168,0.24 0.408,0.288 0.264,0.048 1.248,0.072 h 0.792 v 1.104 h -0.264 q -0.384,-0.072 -3.408,-0.072 -3.048,0 -3.432,0.072 h -0.264 v -1.104 h 0.792 q 0.984,-0.024 1.2,-0.072 0.24,-0.048 0.48,-0.288 z m 8.64,1.992 q -0.24,-1.44 -1.296,-1.896 -1.032,-0.456 -3.168,-0.456 -0.36,0 -0.816,0.024 -0.456,0 -0.48,0 -0.312,0.024 -0.384,0.192 -0.072,0.096 -0.072,3.264 v 3.168 h 1.392 q 1.8,0 2.664,-0.144 0.864,-0.168 1.512,-0.816 0.408,-0.408 0.528,-0.912 0.144,-0.504 0.144,-1.464 0,-0.768 -0.024,-0.96 z"
       style="font-style:normal;font-variant:normal;font-weight:normal;font-stretch:normal;font-size:24px;font-family:KaTeX_Main;-inkscape-font-specification:'KaTeX_Main, Normal';font-variant-ligatures:normal;font-variant-caps:normal;font-variant-numeric:normal;font-feature-settings:normal;text-align:start;writing-mode:lr-tb;text-anchor:start"
       id="path22392"
       inkscape:connector-curvature="0" /><path
       d="m 34.043402,175.29953 q -0.648,0 -1.032,-0.408 -0.36,-0.408 -0.36,-1.056 0,-1.368 1.08,-2.28 1.08,-0.936 2.496,-1.104 h 0.36 q 0.84,0 1.056,0.024 0.792,0.12 1.608,0.504 1.584,0.792 1.992,2.256 0.072,0.24 0.072,0.648 0,1.416 -0.888,2.544 -0.864,1.104 -2.184,1.584 -0.12,0.048 0,0.072 0.048,0.024 0.24,0.072 1.464,0.408 2.472,1.536 1.008,1.104 1.008,2.52 0,0.984 -0.456,1.896 -0.576,1.224 -1.896,2.04 -1.296,0.792 -2.904,0.792 -1.584,0 -2.808,-0.672 -1.224,-0.672 -1.656,-1.8 -0.24,-0.504 -0.24,-1.176 0,-0.672 0.432,-1.08 0.456,-0.432 1.08,-0.432 0.672,0 1.104,0.432 0.432,0.432 0.432,1.08 0,0.552 -0.312,0.96 -0.312,0.408 -0.84,0.528 l -0.168,0.048 q 1.296,1.08 2.976,1.08 1.32,0 1.992,-1.272 0.408,-0.792 0.408,-2.424 v -0.48 q 0,-2.28 -1.536,-3.048 -0.36,-0.144 -1.464,-0.168 l -1.008,-0.024 -0.072,-0.048 q -0.048,-0.072 -0.048,-0.384 0,-0.288 0.072,-0.36 0.072,-0.072 0.12,-0.072 0.672,0 1.392,-0.12 1.056,-0.144 1.608,-1.176 0.552,-1.056 0.552,-2.52 0,-1.56 -0.84,-2.088 -0.504,-0.336 -1.128,-0.336 -1.2,0 -2.112,0.648 -0.096,0.048 -0.216,0.168 -0.12,0.096 -0.192,0.192 l -0.072,0.096 q 0.072,0.024 0.168,0.048 0.48,0.048 0.792,0.456 0.336,0.408 0.336,0.936 0,0.576 -0.408,0.984 -0.384,0.384 -1.008,0.384 z"
       style="font-style:normal;font-variant:normal;font-weight:normal;font-stretch:normal;font-size:24px;font-family:KaTeX_Main;-inkscape-font-specification:'KaTeX_Main, Normal';font-variant-ligatures:normal;font-variant-caps:normal;font-variant-numeric:normal;font-feature-settings:normal;text-align:start;writing-mode:lr-tb;text-anchor:start"
       id="path22394"
       inkscape:connector-curvature="0" /></g></svg>