<?xml version="1.0" encoding="UTF-8" standalone="no"?>
<!-- Generator: Adobe Illustrator 19.1.0, SVG Export Plug-In . SVG Version: 6.00 Build 0)  -->

<svg
   xmlns:dc="http://purl.org/dc/elements/1.1/"
   xmlns:cc="http://creativecommons.org/ns#"
   xmlns:rdf="http://www.w3.org/1999/02/22-rdf-syntax-ns#"
   xmlns:svg="http://www.w3.org/2000/svg"
   xmlns="http://www.w3.org/2000/svg"
   xmlns:sodipodi="http://sodipodi.sourceforge.net/DTD/sodipodi-0.dtd"
   xmlns:inkscape="http://www.inkscape.org/namespaces/inkscape"
   version="1.1"
   id="Layer_1"
   x="0px"
   y="0px"
   width="462.00311"
   height="202.19183"
   viewBox="0 0 462.00312 202.19183"
   xml:space="preserve"
   inkscape:version="0.91 r13725"
   sodipodi:docname="node_voltage4-1b.svg"><metadata
     id="metadata5180"><rdf:RDF><cc:Work
         rdf:about=""><dc:format>image/svg+xml</dc:format><dc:type
           rdf:resource="http://purl.org/dc/dcmitype/StillImage" /><dc:title></dc:title></cc:Work></rdf:RDF></metadata><defs
     id="defs5178" /><sodipodi:namedview
     pagecolor="#ffffff"
     bordercolor="#666666"
     borderopacity="1"
     objecttolerance="10"
     gridtolerance="10"
     guidetolerance="10"
     inkscape:pageopacity="0"
     inkscape:pageshadow="2"
     inkscape:window-width="1224"
     inkscape:window-height="702"
     id="namedview5176"
     showgrid="false"
     inkscape:zoom="1.4876257"
     inkscape:cx="231.33071"
     inkscape:cy="97.756552"
     inkscape:window-x="0"
     inkscape:window-y="0"
     inkscape:window-maximized="0"
     inkscape:current-layer="Layer_1"
     fit-margin-top="10"
     fit-margin-right="10"
     fit-margin-bottom="10"
     fit-margin-left="10" /><style
     type="text/css"
     id="style4970">
	.st0{fill:none;stroke:#FF9C39;stroke-width:5;stroke-linecap:round;stroke-miterlimit:10;}
	.st1{fill:#FF9C39;}
	.st2{fill:none;stroke:#1FAB54;stroke-width:6;stroke-linecap:round;stroke-miterlimit:10;}
	.st3{fill:none;stroke:#FF9C39;stroke-width:6;stroke-linecap:round;stroke-miterlimit:10;}
	.st4{fill:none;stroke:#FF9C39;stroke-width:6;stroke-linecap:round;stroke-linejoin:round;stroke-miterlimit:10;}
	.st5{fill:none;stroke:#11ACCD;stroke-width:5;stroke-linecap:round;stroke-linejoin:round;stroke-miterlimit:10;}
	.st6{fill:none;stroke:#1FAB54;stroke-width:6;stroke-linecap:round;stroke-linejoin:round;stroke-miterlimit:10;}
	.st7{fill:none;stroke:#BABEC2;stroke-width:2;stroke-linecap:round;stroke-miterlimit:10;}
	.st8{fill:none;stroke:#ED5FA6;stroke-width:4;stroke-linecap:round;stroke-miterlimit:10;}
	.st9{fill:#ED5FA6;}
	.st10{fill:none;stroke:#1FAB54;stroke-width:4;stroke-linecap:round;stroke-miterlimit:10;}
	.st11{fill:#1FAB54;}
	.st12{fill:none;stroke:#11ACCD;stroke-width:4;stroke-linecap:round;stroke-miterlimit:10;}
	.st13{fill:#11ACCD;}
	.st14{fill:none;stroke:#FF9C39;stroke-width:4;stroke-linecap:round;stroke-miterlimit:10;}
	.st15{fill:none;stroke:#000000;stroke-linecap:round;stroke-linejoin:round;stroke-miterlimit:10;}
	.st16{fill:none;stroke:#000000;stroke-width:1.5;stroke-linecap:round;stroke-linejoin:round;stroke-miterlimit:10;}
	.st17{fill:none;stroke:#000000;stroke-linecap:round;stroke-miterlimit:10;}
	.st18{fill:none;stroke:#000000;stroke-width:1.5;stroke-linecap:round;stroke-miterlimit:10;}
	.st19{fill:none;stroke:#000000;stroke-width:2;stroke-linecap:round;stroke-linejoin:round;stroke-miterlimit:10;}
	.st20{fill:none;stroke:#000000;stroke-width:1.5;stroke-miterlimit:10;}
	.st21{fill:none;stroke:#000000;stroke-miterlimit:10;}
	.st22{fill:none;stroke:#000000;stroke-width:2;stroke-miterlimit:10;}
	.st23{fill:none;stroke:#000000;stroke-width:2;stroke-linecap:round;stroke-miterlimit:10;}
	.st24{fill:none;stroke:#000000;stroke-linecap:round;stroke-linejoin:round;}
	.st25{fill:none;}
	.st26{stroke:#000000;stroke-linecap:round;stroke-linejoin:round;stroke-miterlimit:10;}
	.st27{fill:none;stroke:#000000;stroke-width:1.5;stroke-linejoin:round;stroke-miterlimit:10;}
	.st28{fill:none;stroke:#000000;stroke-linejoin:round;stroke-miterlimit:10;}
	.st29{clip-path:url(#SVGID_2_);fill:none;stroke:#000000;stroke-linejoin:round;stroke-miterlimit:10;}
	.st30{clip-path:url(#SVGID_2_);fill:none;stroke:#ADADEB;stroke-linejoin:round;stroke-miterlimit:10;}
	.st31{clip-path:url(#SVGID_2_);}
	.st32{stroke:#000000;stroke-linejoin:round;stroke-miterlimit:10;}
	.st33{stroke:#000000;stroke-width:3;stroke-linejoin:round;stroke-miterlimit:10;}
	.st34{fill:none;stroke:#000000;stroke-linejoin:round;}
	.st35{fill:#FFFFFF;stroke:#000000;stroke-miterlimit:10;}
	.st36{fill:#E07D10;}
	.st37{fill:none;stroke:#11ACCD;stroke-width:3;stroke-linecap:round;stroke-miterlimit:10;}
	.st38{fill:none;stroke:#E07D10;stroke-width:2;stroke-linecap:round;stroke-miterlimit:10;}
	.st39{fill:none;stroke:#FF9C39;stroke-width:3;stroke-linecap:round;stroke-miterlimit:10;}
	.st40{fill:none;stroke:#FFBB71;stroke-width:2;stroke-linecap:round;stroke-miterlimit:10;}
	.st41{fill:#FFBB71;}
	.st42{fill:none;stroke:#000000;stroke-width:2;stroke-linecap:round;stroke-miterlimit:10;stroke-dasharray:6.1241,6.1241;}
	.st43{fill:#66AFE9;}
	.st44{fill:none;stroke:#66AFE9;stroke-miterlimit:10;}
	.st45{font-family:'KaTeX_Main-Regular';}
	.st46{font-size:18px;}
	.st47{letter-spacing:1;}
	.st48{font-family:'KaTeX_Main-Italic';}
	.st49{font-size:21px;}
	.st50{fill:none;stroke:#11ACCD;stroke-width:1.5;stroke-miterlimit:10;}
	.st51{fill:none;stroke:#11ACCD;stroke-width:4;stroke-linecap:round;stroke-linejoin:round;stroke-miterlimit:10;}
	.st52{fill:#CA337C;}
</style><g
     id="g4972"
     transform="translate(-22.929593,5.6918825)"><circle
       class="st22"
       cx="90.199997"
       cy="102"
       r="18"
       id="circle4974"
       style="fill:none;stroke:#000000;stroke-width:2;stroke-miterlimit:10" /><polyline
       class="st17"
       points="90.2,84 90.2,60 90.2,42 108.2,42  "
       id="polyline4976"
       style="fill:none;stroke:#000000;stroke-linecap:round;stroke-miterlimit:10" /><polyline
       class="st15"
       points="90.2,120 90,162 413.8,162  "
       id="polyline4978"
       style="fill:none;stroke:#000000;stroke-linecap:round;stroke-linejoin:round;stroke-miterlimit:10" /><line
       class="st20"
       x1="90.199997"
       y1="88.5"
       x2="90.199997"
       y2="100.5"
       id="line4980"
       style="fill:none;stroke:#000000;stroke-width:1.5;stroke-miterlimit:10" /><line
       class="st20"
       x1="84.199997"
       y1="94.5"
       x2="96.199997"
       y2="94.5"
       id="line4982"
       style="fill:none;stroke:#000000;stroke-width:1.5;stroke-miterlimit:10" /><line
       class="st20"
       x1="84.199997"
       y1="112.5"
       x2="96.199997"
       y2="112.5"
       id="line4984"
       style="fill:none;stroke:#000000;stroke-width:1.5;stroke-miterlimit:10" /></g><g
     id="g4986"
     transform="translate(-22.929593,5.6918825)"><g
       id="g4988"><g
         id="g4990"><line
           class="st23"
           x1="414"
           y1="115.5"
           x2="414"
           y2="95.599998"
           id="line4992"
           style="fill:none;stroke:#000000;stroke-width:2;stroke-linecap:round;stroke-miterlimit:10" /><g
           id="g4994"><polygon
             points="420,97.4 414,87 408,97.4 "
             id="polygon4996" /></g></g></g><circle
       class="st22"
       cx="414"
       cy="102"
       r="18"
       id="circle4998"
       style="fill:none;stroke:#000000;stroke-width:2;stroke-miterlimit:10" /><polyline
       class="st17"
       points="209.8,42 414,42 414,60 414,84  "
       id="polyline5000"
       style="fill:none;stroke:#000000;stroke-linecap:round;stroke-miterlimit:10" /><line
       class="st15"
       x1="414"
       y1="120"
       x2="414"
       y2="162"
       id="line5002"
       style="fill:none;stroke:#000000;stroke-linecap:round;stroke-linejoin:round;stroke-miterlimit:10" /></g><g
     id="g5004"
     transform="translate(-22.929593,5.6918825)"><line
       class="st15"
       x1="185.39999"
       y1="42"
       x2="209.8"
       y2="42"
       id="line5006"
       style="fill:none;stroke:#000000;stroke-linecap:round;stroke-linejoin:round;stroke-miterlimit:10" /><polyline
       class="st19"
       points="138.6,42 142.5,33 150.3,51 158.1,33 165.9,51 173.7,33 181.5,51 185.4,42  "
       id="polyline5008"
       style="fill:none;stroke:#000000;stroke-width:2;stroke-linecap:round;stroke-linejoin:round;stroke-miterlimit:10" /><line
       class="st15"
       x1="108.2"
       y1="42"
       x2="138.60001"
       y2="42"
       id="line5010"
       style="fill:none;stroke:#000000;stroke-linecap:round;stroke-linejoin:round;stroke-miterlimit:10" /><polygon
       class="st25"
       points="108.2,30 108.2,54 209.8,54 210,30 "
       id="polygon5012"
       style="fill:none" /></g><g
     id="g5014"
     transform="translate(-22.929593,5.6918825)"><line
       class="st15"
       x1="234.2"
       y1="78.599998"
       x2="234.2"
       y2="60"
       id="line5016"
       style="fill:none;stroke:#000000;stroke-linecap:round;stroke-linejoin:round;stroke-miterlimit:10" /><polyline
       class="st19"
       points="234.2,125.4 225.2,121.5 243.2,113.7 225.2,105.9 243.2,98.1 225.2,90.3 243.2,82.5 234.2,78.6  "
       id="polyline5018"
       style="fill:none;stroke:#000000;stroke-width:2;stroke-linecap:round;stroke-linejoin:round;stroke-miterlimit:10" /><line
       class="st15"
       x1="234.2"
       y1="162"
       x2="234.2"
       y2="125.4"
       id="line5020"
       style="fill:none;stroke:#000000;stroke-linecap:round;stroke-linejoin:round;stroke-miterlimit:10" /><rect
       x="222.2"
       y="60"
       class="st25"
       width="24"
       height="102"
       id="rect5022"
       style="fill:none" /></g><g
     id="g5024"
     transform="translate(-22.929593,5.6918825)"><line
       class="st15"
       x1="312"
       y1="78.599998"
       x2="312"
       y2="60"
       id="line5026"
       style="fill:none;stroke:#000000;stroke-linecap:round;stroke-linejoin:round;stroke-miterlimit:10" /><polyline
       class="st19"
       points="312,125.4 303,121.5 321,113.7 303,105.9 321,98.1 303,90.3 321,82.5 312,78.6  "
       id="polyline5028"
       style="fill:none;stroke:#000000;stroke-width:2;stroke-linecap:round;stroke-linejoin:round;stroke-miterlimit:10" /><line
       class="st15"
       x1="312"
       y1="162"
       x2="312"
       y2="125.4"
       id="line5030"
       style="fill:none;stroke:#000000;stroke-linecap:round;stroke-linejoin:round;stroke-miterlimit:10" /><rect
       x="300"
       y="60"
       class="st25"
       width="24"
       height="102"
       id="rect5032"
       style="fill:none" /></g><g
     id="g5034"
     transform="translate(-22.929593,5.6918825)"><polyline
       class="st15"
       points="276,174 283.5,174 283.5,174 283.5,174 276,186 268.5,174 276,174 276,162  "
       id="polyline5036"
       style="fill:none;stroke:#000000;stroke-linecap:round;stroke-linejoin:round;stroke-miterlimit:10" /><rect
       x="264"
       y="162"
       class="st25"
       width="24"
       height="24"
       id="rect5038"
       style="fill:none" /></g><g
     id="g5040"
     transform="translate(-22.929593,5.6918825)"><circle
       class="st26"
       cx="234"
       cy="42"
       r="1.5"
       id="circle5042"
       style="stroke:#000000;stroke-linecap:round;stroke-linejoin:round;stroke-miterlimit:10" /><rect
       x="228"
       y="36"
       class="st25"
       width="12"
       height="12"
       id="rect5044"
       style="fill:none" /></g><g
     id="g5046"
     transform="translate(-22.929593,5.6918825)"><circle
       class="st26"
       cx="312"
       cy="42"
       r="1.5"
       id="circle5048"
       style="stroke:#000000;stroke-linecap:round;stroke-linejoin:round;stroke-miterlimit:10" /><rect
       x="306"
       y="36"
       class="st25"
       width="12"
       height="12"
       id="rect5050"
       style="fill:none" /></g><g
     id="g5052"
     transform="translate(-22.929593,5.6918825)"><circle
       class="st26"
       cx="312"
       cy="162"
       r="1.5"
       id="circle5054"
       style="stroke:#000000;stroke-linecap:round;stroke-linejoin:round;stroke-miterlimit:10" /><rect
       x="306"
       y="156"
       class="st25"
       width="12"
       height="12"
       id="rect5056"
       style="fill:none" /></g><g
     id="g5058"
     transform="translate(-22.929593,5.6918825)"><circle
       class="st26"
       cx="234.2"
       cy="162"
       r="1.5"
       id="circle5060"
       style="stroke:#000000;stroke-linecap:round;stroke-linejoin:round;stroke-miterlimit:10" /><rect
       x="228.2"
       y="156"
       class="st25"
       width="12"
       height="12"
       id="rect5062"
       style="fill:none" /></g><g
     id="g5064"
     transform="translate(-22.929593,5.6918825)"><circle
       class="st26"
       cx="276"
       cy="162"
       r="1.5"
       id="circle5066"
       style="stroke:#000000;stroke-linecap:round;stroke-linejoin:round;stroke-miterlimit:10" /><rect
       x="270"
       y="156"
       class="st25"
       width="12"
       height="12"
       id="rect5068"
       style="fill:none" /></g><line
     class="st17"
     x1="289.0704"
     y1="65.691879"
     x2="289.0704"
     y2="47.691883"
     id="line5070"
     style="fill:none;stroke:#000000;stroke-linecap:round;stroke-miterlimit:10" /><line
     class="st17"
     x1="211.2704"
     y1="65.691879"
     x2="211.2704"
     y2="47.691883"
     id="line5072"
     style="fill:none;stroke:#000000;stroke-linecap:round;stroke-miterlimit:10" /><g
     style="font-style:normal;font-variant:normal;font-weight:normal;font-stretch:normal;font-size:22.5px;line-height:125%;font-family:KaTeX_Main;-inkscape-font-specification:'KaTeX_Main, Normal';text-align:start;writing-mode:lr-tb;text-anchor:start"
     id="text5074"><path
       d="m 100.4305,113.69189 q -0.3825,-0.0675 -3.577497,-0.0675 -3.15,0 -3.5325,0.0675 l -0.27,0 0,-1.035 0.585,0 q 1.305,0 1.6875,-0.0675 0.18,-0.0225 0.54,-0.27 l 0,-11.6325 q -0.045,0 -0.18,0.0675 -1.035,0.405 -2.3175,0.4275 l -0.4275,0 0,-1.035 0.4275,0 q 1.89,-0.0675 3.15,-0.855003 0.405,-0.225 0.6975,-0.5175 0.045,-0.0675 0.27,-0.0675 0.225,0 0.3825,0.135 l 0,6.727503 0.0225,6.75 q 0.3375,0.3375 1.4625,0.3375 l 0.742497,0 0.585,0 0,1.035 -0.2475,0 z"
       style="font-style:normal;font-variant:normal;font-weight:normal;font-stretch:normal;font-size:22.5px;line-height:125%;font-family:KaTeX_Main;-inkscape-font-specification:'KaTeX_Main, Normal';text-align:start;writing-mode:lr-tb;text-anchor:start"
       id="path4331" /><path
       d="m 112.7155,113.69189 q -0.315,-0.0675 -2.9025,-0.0675 -2.7,0 -3.015,0.0675 l -0.2025,0 0,-1.035 0.6975,0 q 0.9675,-0.0225 1.1925,-0.1125 0.18,-0.045 0.27,-0.225 0.0225,-0.045 0.0225,-1.215 l 0,-1.125 -5.8275,0 0,-1.035 3.3975,-5.1975 q 3.4425,-5.220003 3.4875,-5.242503 0.045,-0.045 0.4725,-0.045 l 0.405,0 0.135,0.135 0,10.350003 2.07,0 0,1.035 -2.07,0 0,1.1475 q 0,0.9225 0,1.08 0.0225,0.1575 0.135,0.27 0.18,0.1575 1.2825,0.18 l 0.6525,0 0,1.035 -0.2025,0 z m -3.8025,-4.7475 0,-7.515 -4.9275,7.4925 2.4525,0.0225 2.475,0 z"
       style="font-style:normal;font-variant:normal;font-weight:normal;font-stretch:normal;font-size:22.5px;line-height:125%;font-family:KaTeX_Main;-inkscape-font-specification:'KaTeX_Main, Normal';text-align:start;writing-mode:lr-tb;text-anchor:start"
       id="path4333" /><path
       d="m 115.7305,100.52939 q 1.26,-1.822503 3.4425,-1.822503 1.6425,0 2.88,1.125 0.6075,0.585003 1.035,1.530003 0.8325,1.8675 0.8325,5.13 0,3.4875 -0.9675,5.3325 -0.63,1.305 -1.845,1.89 -0.945,0.4725 -1.9125,0.4725 -2.5875,0 -3.78,-2.3625 -0.9675,-1.845 -0.9675,-5.3325 0,-2.0925 0.27,-3.4425 0.2925,-1.3725 1.0125,-2.52 z m 5.0625,-0.27 q -0.6525,-0.720003 -1.5975,-0.720003 -0.945,0 -1.62,0.720003 -0.495,0.5175 -0.675,1.26 -0.18,0.7425 -0.225,2.565 0,0.135 -0.0225,0.8775 0,0.7425 0,1.2375 0,2.16 0.045,3.015 0.09,1.575 0.27,2.2725 0.18,0.675 0.675,1.17 0.6075,0.675 1.5525,0.675 0.9225,0 1.53,-0.675 0.495,-0.495 0.675,-1.17 0.18,-0.6975 0.27,-2.2725 0.045,-0.855 0.045,-3.015 0,-0.495 -0.0225,-1.2375 0,-0.7425 0,-0.8775 -0.045,-1.8225 -0.225,-2.565 -0.18,-0.7425 -0.675,-1.26 z"
       style="font-style:normal;font-variant:normal;font-weight:normal;font-stretch:normal;font-size:22.5px;line-height:125%;font-family:KaTeX_Main;-inkscape-font-specification:'KaTeX_Main, Normal';text-align:start;writing-mode:lr-tb;text-anchor:start"
       id="path4335" /><path
       d="m 130.3855,99.741887 q -0.2475,-0.2475 -0.45,-0.2925 -0.2025,-0.0675 -1.035,-0.09 l -0.6525,0 0,-1.035 0.2025,0 q 0.315,0.0675 2.79,0.0675 2.7,0 3.195,-0.0675 l 0.2475,0 0,1.035 -0.4725,0 q -1.035,0.0225 -1.2825,0.2475 -0.09,0.0675 -0.09,0.135 0,0.045 2.025,5.580003 2.025,5.535 2.0475,5.535 0.8775,-2.3625 1.935,-5.22 1.9125,-5.175 1.9125,-5.3775 0,-0.427503 -0.4725,-0.652503 -0.4725,-0.2475 -1.035,-0.2475 l -0.1125,0 0,-1.035 0.2025,0 q 0.3825,0.0675 2.5875,0.0675 1.935,0 2.1825,-0.0675 l 0.135,0 0,1.035 -0.1575,0 q -1.665,0 -2.16,0.922503 0,0.0225 -2.5425,6.8625 -2.52,6.84 -2.5425,6.8625 -0.0675,0.18 -0.405,0.18 l -0.2025,0 -0.2025,0 q -0.315,0 -0.3825,-0.18 -0.045,-0.045 -2.6325,-7.1325 -2.6325,-7.065003 -2.6325,-7.132503 z"
       style="font-style:normal;font-variant:normal;font-weight:normal;font-stretch:normal;font-size:22.5px;line-height:125%;font-family:KaTeX_Main;-inkscape-font-specification:'KaTeX_Main, Normal';text-align:start;writing-mode:lr-tb;text-anchor:start"
       id="path4337" /></g><g
     style="font-style:normal;font-variant:normal;font-weight:normal;font-stretch:normal;font-size:22.5px;line-height:125%;font-family:KaTeX_Main;-inkscape-font-specification:'KaTeX_Main, Normal';text-align:start;writing-mode:lr-tb;text-anchor:start"
     id="text5082"><path
       d="m 123.54581,68.039486 q -0.63,0 -0.99,-0.405 -0.36,-0.405 -0.36,-0.99 0,-1.62 1.215,-2.7675 1.2375,-1.17 2.9475,-1.17 1.935,0 3.195,1.0575 1.2825,1.035 1.575,2.7225 0.045,0.405 0.045,0.7425 0,1.305 -0.7875,2.4525 -0.63,0.945 -2.5425,2.5875 -0.81,0.6975 -2.25,2.07 l -1.3275,1.26 1.71,0.0225 q 3.5325,0 3.7575,-0.1125 0.09,-0.0225 0.225,-0.4725 0.09,-0.2475 0.315,-1.53 l 0,-0.0675 0.9,0 0,0.0675 -0.63,4.1175 0,0.0675 -8.3475,0 0,-0.4275 q 0,-0.45 0.045,-0.5175 0.0225,-0.0225 1.89,-2.1375 2.4525,-2.7225 3.15,-3.6 1.5075,-2.0475 1.5075,-3.7575 0,-1.485 -0.7875,-2.475 -0.765,-1.0125 -2.16,-1.0125 -1.305,0 -2.115,1.17 -0.045,0.09 -0.135,0.2475 -0.0675,0.1125 -0.0675,0.135 0,0.0225 0.1125,0.0225 0.5625,0 0.9,0.405 0.36,0.405 0.36,0.945 0,0.5625 -0.3825,0.9675 -0.36,0.3825 -0.9675,0.3825 z"
       style="font-style:normal;font-variant:normal;font-weight:normal;font-stretch:normal;font-size:22.5px;line-height:125%;font-family:KaTeX_Main;-inkscape-font-specification:'KaTeX_Main, Normal';text-align:start;writing-mode:lr-tb;text-anchor:start"
       id="path4324" /><path
       d="m 134.48081,64.529486 q 1.26,-1.8225 3.4425,-1.8225 1.6425,0 2.88,1.125 0.6075,0.585 1.035,1.53 0.8325,1.8675 0.8325,5.13 0,3.4875 -0.9675,5.3325 -0.63,1.305 -1.845,1.89 -0.945,0.4725 -1.9125,0.4725 -2.5875,0 -3.78,-2.3625 -0.9675,-1.845 -0.9675,-5.3325 0,-2.0925 0.27,-3.4425 0.2925,-1.3725 1.0125,-2.52 z m 5.0625,-0.27 q -0.6525,-0.72 -1.5975,-0.72 -0.945,0 -1.62,0.72 -0.495,0.5175 -0.675,1.26 -0.18,0.7425 -0.225,2.565 0,0.135 -0.0225,0.8775 0,0.7425 0,1.2375 0,2.16 0.045,3.015 0.09,1.575 0.27,2.2725 0.18,0.675 0.675,1.17 0.6075,0.675 1.5525,0.675 0.9225,0 1.53,-0.675 0.495,-0.495 0.675,-1.17 0.18,-0.6975 0.27,-2.2725 0.045,-0.855 0.045,-3.015 0,-0.495 -0.0225,-1.2375 0,-0.7425 0,-0.8775 -0.045,-1.8225 -0.225,-2.565 -0.18,-0.7425 -0.675,-1.26 z"
       style="font-style:normal;font-variant:normal;font-weight:normal;font-stretch:normal;font-size:22.5px;line-height:125%;font-family:KaTeX_Main;-inkscape-font-specification:'KaTeX_Main, Normal';text-align:start;writing-mode:lr-tb;text-anchor:start"
       id="path4326" /><path
       d="m 152.64581,77.241986 q 0,0.2925 -0.1575,0.45 l -4.185,0 0,-0.045 q -0.0225,-0.0225 -0.36,-1.9575 l -0.3825,-1.935 0,-0.045 0.9,0 0.0225,0.1125 q 0,0.1125 0.09,0.4275 0.1575,1.0125 0.3375,1.35 0.09,0.1125 0.1575,0.1575 0.2925,0.1125 1.5075,0.135 l 0.99,0 0,-0.0675 q -0.1125,-0.36 -0.495,-1.1925 -0.36,-0.6975 -1.2375,-2.07 -1.44,-2.3175 -1.8,-3.5325 -0.225,-0.8325 -0.225,-1.5525 0,-0.675 0.18,-1.2825 0.495,-1.6875 2.0925,-2.9025 1.5975,-1.2375 3.735,-1.4175 0.135,-0.0225 0.3375,-0.0225 l 0.3375,0 q 3.1725,0 5.1975,1.7325 1.2825,1.125 1.6875,2.61 0.18,0.6075 0.18,1.2825 0,0.72 -0.225,1.5525 -0.36,1.215 -1.8,3.5325 -0.8775,1.3725 -1.2375,2.07 -0.3825,0.8325 -0.495,1.1925 l 0,0.0675 0.99,0 q 1.215,-0.0225 1.5075,-0.135 0.09,-0.045 0.1575,-0.1575 0.1575,-0.3375 0.3375,-1.35 0.09,-0.315 0.09,-0.4275 l 0.0225,-0.1125 0.9,0 0,0.045 -0.3825,1.935 q -0.3375,1.935 -0.36,1.9575 l 0,0.045 -2.07,0 q -1.665,0 -1.935,0 -0.2475,-0.0225 -0.2925,-0.135 -0.045,-0.09 -0.045,-0.315 0,-0.6525 0.2025,-1.7775 0.18,-0.9 0.8775,-3.0375 0.72,-2.1825 0.945,-3.42 0.1575,-0.945 0.1575,-1.5525 0,-3.1725 -2.3175,-4.3425 -0.945,-0.45 -1.89,-0.45 -2.295,0 -3.51,1.9125 -0.6975,1.1025 -0.6975,2.8575 0,0.765 0.135,1.575 0.225,1.2375 0.945,3.42 0.6975,2.1375 0.8775,3.0375 0.2025,1.1025 0.2025,1.7775 z"
       style="font-style:normal;font-variant:normal;font-weight:normal;font-stretch:normal;font-size:22.5px;line-height:125%;font-family:KaTeX_Main;-inkscape-font-specification:'KaTeX_Main, Normal';text-align:start;writing-mode:lr-tb;text-anchor:start"
       id="path4328" /></g><g
     style="font-style:normal;font-variant:normal;font-weight:normal;font-stretch:normal;font-size:22.5px;line-height:125%;font-family:KaTeX_Main;-inkscape-font-specification:'KaTeX_Main, Normal';text-align:start;writing-mode:lr-tb;text-anchor:start"
     id="text5090"><path
       d="m 173.92,100.16939 q -0.495,-0.495003 -1.395,-0.562503 -1.575,0 -2.6325,1.350003 -1.0575,1.4625 -1.0575,4.545 l 0.0225,0.09 0.18,-0.2925 q 0.9225,-1.35 2.4975,-1.35 1.035,0 1.8225,0.4275 0.54,0.315 1.08,0.9225 0.54,0.585 0.8775,1.26 0.4725,1.1025 0.4725,2.4075 l 0,0.405 q 0,0.5175 -0.1125,0.9675 -0.27,1.3275 -1.395,2.4975 -0.9675,1.0125 -2.16,1.26 -0.36,0.09 -0.9,0.09 -0.4275,0 -0.765,-0.0675 -1.665,-0.315 -2.655,-1.8 -1.3275,-2.0925 -1.3275,-5.67 0,-2.43 0.855,-4.2525 0.855,-1.8225 2.385,-2.835003 1.215,-0.855 2.6325,-0.855 1.305,0 2.0925,0.6975 0.81,0.697503 0.81,1.912503 0,0.5625 -0.3375,0.9 -0.315,0.3375 -0.855,0.3375 -0.54,0 -0.8775,-0.315 -0.315,-0.315 -0.315,-0.8775 0,-1.0125 1.0575,-1.1925 z m -0.99,5.4 q -0.63,-0.81 -1.62,-0.81 -0.8325,0 -1.35,0.5175 -1.1025,1.1025 -1.1025,3.555 0,2.0025 0.27,2.7675 0.225,0.675 0.765,1.1475 0.54,0.4725 1.2825,0.4725 1.1475,0 1.755,-0.855 0.3375,-0.4725 0.4275,-1.125 0.09,-0.6525 0.09,-1.89 l 0,-0.36 0,-0.36 q 0,-1.2825 -0.09,-1.935 -0.09,-0.6525 -0.4275,-1.125 z"
       style="font-style:normal;font-variant:normal;font-weight:normal;font-stretch:normal;font-size:22.5px;line-height:125%;font-family:KaTeX_Main;-inkscape-font-specification:'KaTeX_Main, Normal';text-align:start;letter-spacing:1;writing-mode:lr-tb;text-anchor:start"
       id="path4319" /><path
       d="m 185.4025,113.24189 q 0,0.2925 -0.1575,0.45 l -4.185,0 0,-0.045 q -0.0225,-0.0225 -0.36,-1.9575 l -0.3825,-1.935 0,-0.045 0.9,0 0.0225,0.1125 q 0,0.1125 0.09,0.4275 0.1575,1.0125 0.3375,1.35 0.09,0.1125 0.1575,0.1575 0.2925,0.1125 1.5075,0.135 l 0.99,0 0,-0.0675 q -0.1125,-0.36 -0.495,-1.1925 -0.36,-0.6975 -1.2375,-2.07 -1.44,-2.3175 -1.8,-3.5325 -0.225,-0.8325 -0.225,-1.5525 0,-0.675 0.18,-1.2825 0.495,-1.6875 2.0925,-2.902503 1.5975,-1.2375 3.735,-1.4175 0.135,-0.0225 0.3375,-0.0225 l 0.3375,0 q 3.1725,0 5.1975,1.7325 1.2825,1.125003 1.6875,2.610003 0.18,0.6075 0.18,1.2825 0,0.72 -0.225,1.5525 -0.36,1.215 -1.8,3.5325 -0.8775,1.3725 -1.2375,2.07 -0.3825,0.8325 -0.495,1.1925 l 0,0.0675 0.99,0 q 1.215,-0.0225 1.5075,-0.135 0.09,-0.045 0.1575,-0.1575 0.1575,-0.3375 0.3375,-1.35 0.09,-0.315 0.09,-0.4275 l 0.0225,-0.1125 0.9,0 0,0.045 -0.3825,1.935 q -0.3375,1.935 -0.36,1.9575 l 0,0.045 -2.07,0 q -1.665,0 -1.935,0 -0.2475,-0.0225 -0.2925,-0.135 -0.045,-0.09 -0.045,-0.315 0,-0.6525 0.2025,-1.7775 0.18,-0.9 0.8775,-3.0375 0.72,-2.1825 0.945,-3.42 0.1575,-0.945 0.1575,-1.5525 0,-3.1725 -2.3175,-4.342503 -0.945,-0.45 -1.89,-0.45 -2.295,0 -3.51,1.912503 -0.6975,1.1025 -0.6975,2.8575 0,0.765 0.135,1.575 0.225,1.2375 0.945,3.42 0.6975,2.1375 0.8775,3.0375 0.2025,1.1025 0.2025,1.7775 z"
       style="font-style:normal;font-variant:normal;font-weight:normal;font-stretch:normal;font-size:22.5px;line-height:125%;font-family:KaTeX_Main;-inkscape-font-specification:'KaTeX_Main, Normal';text-align:start;writing-mode:lr-tb;text-anchor:start"
       id="path4321" /></g><g
     style="font-style:normal;font-variant:normal;font-weight:normal;font-stretch:normal;font-size:22.5px;line-height:125%;font-family:KaTeX_Main;-inkscape-font-specification:'KaTeX_Main, Normal';text-align:start;writing-mode:lr-tb;text-anchor:start"
     id="text5096"><path
       d="m 305.93481,108.87689 q 0.54,0 0.9,0.3825 0.3825,0.36 0.3825,0.9225 0,0.5175 -0.3825,0.8775 -0.3825,0.36 -0.855,0.36 l -0.1575,0 0.0675,0.1125 q 0.3375,0.72 1.035,1.1925 0.6975,0.4725 1.6425,0.4725 1.5975,0 2.295,-1.35 0.4275,-0.8325 0.4275,-2.88 0,-2.3175 -0.6075,-3.1275 -0.585,-0.7425 -1.44,-0.7425 -1.755,0 -2.655,1.53 -0.09,0.1575 -0.18,0.2025 -0.0675,0.0225 -0.315,0.0225 -0.3825,0 -0.4275,-0.135 -0.045,-0.09 -0.045,-3.9375 0,-0.675 -0.0225,-1.5975 0,-0.9225 0,-1.17 0,-1.260003 0.135,-1.260003 0.045,-0.045 0.09,-0.045 l 0.405,0.135 q 1.4625,0.585 2.9925,0.585 1.5975,0 3.06,-0.63 0.18,-0.09 0.2925,-0.09 0.18,0 0.18,0.405 l 0,0.2925 q -1.8225,2.182503 -4.6125,2.182503 -0.6975,0 -1.26,-0.135 l -0.225,-0.045 0,3.87 q 1.2825,-1.035 2.6325,-1.035 0.4275,0 0.9225,0.1125 1.5075,0.3825 2.4525,1.71 0.9675,1.3275 0.9675,3.105 0,2.0475 -1.44,3.5325 -1.4175,1.485 -3.51,1.485 -1.4175,0 -2.4075,-0.7875 -0.4275,-0.27 -0.7425,-0.7425 -0.675,-0.81 -0.855,-2.0025 0,-0.0675 -0.0225,-0.2025 0,-0.1575 0,-0.225 0,-0.63 0.36,-0.99 0.36,-0.36 0.9225,-0.36 z"
       style="font-style:normal;font-variant:normal;font-weight:normal;font-stretch:normal;font-size:22.5px;line-height:125%;font-family:KaTeX_Main;-inkscape-font-specification:'KaTeX_Main, Normal';text-align:start;letter-spacing:1;writing-mode:lr-tb;text-anchor:start"
       id="path4314" /><path
       d="m 323.4023,113.24189 q 0,0.2925 -0.1575,0.45 l -4.185,0 0,-0.045 q -0.0225,-0.0225 -0.36,-1.9575 l -0.3825,-1.935 0,-0.045 0.9,0 0.0225,0.1125 q 0,0.1125 0.09,0.4275 0.1575,1.0125 0.3375,1.35 0.09,0.1125 0.1575,0.1575 0.2925,0.1125 1.5075,0.135 l 0.99,0 0,-0.0675 q -0.1125,-0.36 -0.495,-1.1925 -0.36,-0.6975 -1.2375,-2.07 -1.44,-2.3175 -1.8,-3.5325 -0.225,-0.8325 -0.225,-1.5525 0,-0.675 0.18,-1.2825 0.495,-1.6875 2.0925,-2.902503 1.5975,-1.2375 3.735,-1.4175 0.135,-0.0225 0.3375,-0.0225 l 0.3375,0 q 3.1725,0 5.1975,1.7325 1.2825,1.125003 1.6875,2.610003 0.18,0.6075 0.18,1.2825 0,0.72 -0.225,1.5525 -0.36,1.215 -1.8,3.5325 -0.8775,1.3725 -1.2375,2.07 -0.3825,0.8325 -0.495,1.1925 l 0,0.0675 0.99,0 q 1.215,-0.0225 1.5075,-0.135 0.09,-0.045 0.1575,-0.1575 0.1575,-0.3375 0.3375,-1.35 0.09,-0.315 0.09,-0.4275 l 0.0225,-0.1125 0.9,0 0,0.045 -0.3825,1.935 q -0.3375,1.935 -0.36,1.9575 l 0,0.045 -2.07,0 q -1.665,0 -1.935,0 -0.2475,-0.0225 -0.2925,-0.135 -0.045,-0.09 -0.045,-0.315 0,-0.6525 0.2025,-1.7775 0.18,-0.9 0.8775,-3.0375 0.72,-2.1825 0.945,-3.42 0.1575,-0.945 0.1575,-1.5525 0,-3.1725 -2.3175,-4.342503 -0.945,-0.45 -1.89,-0.45 -2.295,0 -3.51,1.912503 -0.6975,1.1025 -0.6975,2.8575 0,0.765 0.135,1.575 0.225,1.2375 0.945,3.42 0.6975,2.1375 0.8775,3.0375 0.2025,1.1025 0.2025,1.7775 z"
       style="font-style:normal;font-variant:normal;font-weight:normal;font-stretch:normal;font-size:22.5px;line-height:125%;font-family:KaTeX_Main;-inkscape-font-specification:'KaTeX_Main, Normal';text-align:start;writing-mode:lr-tb;text-anchor:start"
       id="path4316" /></g><g
     style="font-style:normal;font-variant:normal;font-weight:normal;font-stretch:normal;font-size:22.5px;line-height:125%;font-family:KaTeX_Main;-inkscape-font-specification:'KaTeX_Main, Normal';text-align:start;writing-mode:lr-tb;text-anchor:start"
     id="text5102"><path
       d="m 424.43062,113.69189 q -0.3825,-0.0675 -3.5775,-0.0675 -3.15,0 -3.5325,0.0675 l -0.27,0 0,-1.035 0.585,0 q 1.305,0 1.6875,-0.0675 0.18,-0.0225 0.54,-0.27 l 0,-11.6325 q -0.045,0 -0.18,0.0675 -1.035,0.405 -2.3175,0.4275 l -0.4275,0 0,-1.035 0.4275,0 q 1.89,-0.0675 3.15,-0.855003 0.405,-0.225 0.6975,-0.5175 0.045,-0.0675 0.27,-0.0675 0.225,0 0.3825,0.135 l 0,6.727503 0.0225,6.75 q 0.3375,0.3375 1.4625,0.3375 l 0.7425,0 0.585,0 0,1.035 -0.2475,0 z"
       style="font-style:normal;font-variant:normal;font-weight:normal;font-stretch:normal;font-size:22.5px;line-height:125%;font-family:KaTeX_Main;-inkscape-font-specification:'KaTeX_Main, Normal';text-align:start;writing-mode:lr-tb;text-anchor:start"
       id="path4307" /><path
       d="m 427.94062,106.15439 q -1.1025,-0.72 -1.71,-1.5075 -0.585,-0.7875 -0.585,-2.07 0,-0.9675 0.36,-1.62 0.495,-1.012503 1.44,-1.620003 0.9675,-0.63 2.205,-0.63 1.53,0 2.655,0.81 1.125,0.787503 1.395,2.047503 0.0225,0.135 0.0225,0.54 0,0.495 -0.045,0.675 -0.3375,1.485 -2.0475,2.565 l -0.27,0.18 q 1.26,0.855 1.305,0.9 1.6875,1.35 1.6875,3.3525 0,1.8225 -1.35,3.1275 -1.3275,1.2825 -3.33,1.2825 -2.7675,0 -4.0725,-2.025 -0.5625,-0.81 -0.5625,-1.9575 0,-2.4525 2.9025,-4.05 z m 4.4775,-4.005 q 0,-0.9675 -0.63,-1.6425 -0.63,-0.675003 -1.53,-0.855003 -0.1575,-0.0225 -0.7425,-0.0225 -1.1925,0 -2.0025,0.810003 -0.5625,0.5175 -0.5625,1.2375 0,0.9675 0.81,1.53 0.1125,0.1125 1.44,0.945 l 1.305,0.855 q 0.0225,-0.0225 0.2925,-0.18 0.27,-0.18 0.405,-0.315 1.215,-0.9675 1.215,-2.3625 z m -5.94,8.01 q 0,1.3275 0.9675,2.205 0.9675,0.855 2.25,0.855 0.9225,0 1.665,-0.3825 0.765,-0.3825 1.1475,-0.99 0.3825,-0.585 0.3825,-1.2375 0,-0.9675 -0.7875,-1.71 -0.18,-0.18 -1.8675,-1.2825 -0.315,-0.2025 -0.6975,-0.4275 -0.36,-0.2475 -0.5625,-0.3825 l -0.18,-0.1125 -0.27,0.135 q -1.4175,0.9225 -1.8675,2.25 -0.18,0.585 -0.18,1.08 z"
       style="font-style:normal;font-variant:normal;font-weight:normal;font-stretch:normal;font-size:22.5px;line-height:125%;font-family:KaTeX_Main;-inkscape-font-specification:'KaTeX_Main, Normal';text-align:start;letter-spacing:1;writing-mode:lr-tb;text-anchor:start"
       id="path4309" /><path
       d="m 441.60811,113.69189 q -0.405,-0.0675 -2.5875,-0.0675 -2.0025,0 -2.2725,0.0675 l -0.1575,0 0,-1.035 0.3375,0 q 1.62,-0.0675 2.07,-0.945 0.0225,-0.0675 1.1925,-3.5325 1.17,-3.4875 2.3175,-6.93 1.17,-3.465003 1.1925,-3.487503 0.0675,-0.18 0.4275,-0.18 l 0.2025,0 q 0.45,0.0225 0.54,0.1575 0.0225,0.0225 2.1825,6.435003 2.1825,6.4125 2.7,8.01 0.0675,0.135 0.1575,0.225 0.2475,0.225 1.4175,0.2475 l 0.675,0 0,1.035 -0.2025,0 q -0.3375,-0.0675 -2.8575,-0.0675 -2.9025,0 -3.24,0.0675 l -0.225,0 0,-1.035 0.2925,0 q 1.575,0 1.575,-0.405 0,-0.045 -0.54,-1.665 l -0.54,-1.5975 -5.2425,0 -0.45,1.3275 q -0.45,1.3275 -0.45,1.4625 0,0.1125 0.0675,0.2025 0.135,0.2925 0.5625,0.495 0.45,0.18 0.945,0.18 l 0.1125,0 0,1.035 -0.2025,0 z m 3.6225,-7.8075 q -0.6525,-1.9575 -1.1475,-3.3975 l -0.45,-1.3275 -1.125,3.375 -1.1475,3.3975 q 0,0.0225 2.2725,0.0225 l 2.295,0 -0.6975,-2.07 z"
       style="font-style:normal;font-variant:normal;font-weight:normal;font-stretch:normal;font-size:22.5px;line-height:125%;font-family:KaTeX_Main;-inkscape-font-specification:'KaTeX_Main, Normal';text-align:start;writing-mode:lr-tb;text-anchor:start"
       id="path4311" /></g><g
     style="font-style:normal;font-variant:normal;font-weight:normal;font-stretch:normal;font-size:22.5px;line-height:125%;font-family:KaTeX_Math;-inkscape-font-specification:'KaTeX_Math, Normal';text-align:start;letter-spacing:1;writing-mode:lr-tb;text-anchor:start;fill:#1fab54"
     id="text5110"><path
       d="m 237.07341,26.324185 q 0.0225,0 1.62,-0.1125 1.62,-0.135 1.6425,-0.135 0.27,0 0.27,0.2025 0,0.2025 -0.765,3.2175 -0.18,0.765 -0.405,1.575 -0.2025,0.81 -0.315,1.215 l -0.09,0.4275 q 0,0.0675 0.135,-0.0675 0.765,-0.63 1.71,-0.855 0.27,-0.045 0.5625,-0.045 0.2925,0 0.5625,0.045 1.17,0.27 1.8675,1.215 0.6975,0.945 0.6975,2.385 0,2.52 -1.7775,4.545 -1.755,2.0025 -3.825,2.0025 -0.6525,0 -1.2375,-0.2925 -1.755,-0.7875 -1.755,-3.33 0,-0.6525 0.135,-1.2825 0,-0.0225 1.125,-4.6125 l 1.1475,-4.59 q 0.045,-0.315 -0.1575,-0.3825 -0.18,-0.09 -0.63,-0.09 -0.1575,0 -0.2475,0 -0.4725,0 -0.54,-0.0675 -0.135,-0.1125 -0.0225,-0.54 0.09,-0.315 0.1575,-0.36 0.0675,-0.0675 0.135,-0.0675 z m 5.5575,8.055 q 0,-1.8 -1.3725,-1.8 -0.045,0 -0.1575,0.0225 -0.09,0 -0.1125,0 -1.17,0.2475 -2.205,1.62 -0.045,0.045 -0.1125,0.135 l -0.0675,0.09 q 0,0.0225 -0.405,1.62 -0.3825,1.575 -0.4275,1.8 -0.135,0.6975 -0.135,1.26 0,1.08 0.54,1.62 0.36,0.36 0.9,0.36 0.7425,0 1.5075,-0.72 0.5625,-0.5175 0.9,-1.26 0.36,-0.765 0.7425,-2.3625 0.405,-1.62 0.405,-2.385 z"
       style="font-style:normal;font-variant:normal;font-weight:normal;font-stretch:normal;font-size:22.5px;line-height:125%;font-family:KaTeX_Math;-inkscape-font-specification:'KaTeX_Math, Normal';text-align:start;letter-spacing:1;writing-mode:lr-tb;text-anchor:start;fill:#1fab54"
       id="path4304" /></g><g
     style="font-style:normal;font-variant:normal;font-weight:normal;font-stretch:normal;font-size:22.5px;line-height:125%;font-family:KaTeX_Math;-inkscape-font-specification:'KaTeX_Math, Normal';text-align:start;letter-spacing:1;writing-mode:lr-tb;text-anchor:start;fill:#1fab54"
     id="text5112"><path
       d="m 80.028408,38.249185 q 0.2025,0 0.27,0.0225 0.0675,0 0.1125,0.045 0.045,0.045 0.045,0.135 0,0.0675 -0.0675,0.3375 -0.495,1.89 -1.215,2.61 -0.2925,0.2925 -0.72,0.4725 -0.18,0.045 -0.54,0.045 -1.4175,0 -1.98,-1.1025 -0.1125,-0.2925 -0.1125,-0.27 -0.0225,-0.0225 -0.09,0.0225 -0.045,0.045 -0.09,0.09 -1.08,1.0125 -2.1375,1.2375 -0.135,0.0225 -0.5625,0.0225 -1.485,0 -2.4525,-1.2375 -0.675,-0.99 -0.675,-2.52 0,-0.36 0.0225,-0.495 0.1575,-1.44 0.9225,-2.745 0.7875,-1.3275 1.8675,-2.1375 1.305,-1.0125 2.745,-1.0125 1.125,0 2.025,1.1025 0.36,-0.675 1.035,-0.675 0.2925,0 0.5175,0.18 0.225,0.18 0.225,0.45 0,0.2925 -0.855,3.6225 -0.8325,3.3075 -0.8325,3.7125 0,0.945 0.63,0.945 0.2025,-0.0225 0.45,-0.2025 0.4725,-0.45 0.9225,-2.16 0.135,-0.45 0.225,-0.4725 0.045,-0.0225 0.225,-0.0225 l 0.09,0 z m -8.3025,1.0575 q 0,0.81 0.3375,1.305 0.36,0.495 1.035,0.495 0.6525,0 1.395,-0.54 0.27,-0.18 0.72,-0.675 0.4725,-0.495 0.5625,-0.675 0.045,-0.09 0.6075,-2.4075 0.585,-2.3175 0.585,-2.4975 0,-0.27 -0.2475,-0.765 -0.495,-0.9675 -1.4175,-0.9675 -0.9,0 -1.5975,0.765 -0.675,0.765 -1.035,1.755 -0.6525,1.7775 -0.9225,3.69 0,0.0675 -0.0225,0.2475 0,0.18 0,0.27 z"
       style="font-style:normal;font-variant:normal;font-weight:normal;font-stretch:normal;font-size:22.5px;line-height:125%;font-family:KaTeX_Math;-inkscape-font-specification:'KaTeX_Math, Normal';text-align:start;letter-spacing:1;writing-mode:lr-tb;text-anchor:start;fill:#1fab54"
       id="path4301" /></g><g
     style="font-style:normal;font-variant:normal;font-weight:normal;font-stretch:normal;font-size:22.5px;line-height:125%;font-family:KaTeX_Math;-inkscape-font-specification:'KaTeX_Math, Normal';text-align:start;letter-spacing:1;writing-mode:lr-tb;text-anchor:start;fill:#1fab54"
     id="text5114"><path
       d="m 237.1193,180.51229 q 0.09,0 0.2925,0.225 0.225,0.2025 0.225,0.2925 0,0.2025 -0.6975,0.8325 -1.395,1.26 -3.5325,1.575 -0.495,0.045 -0.8775,0.045 -2.4075,0 -3.3525,-1.98 -0.4275,-0.8325 -0.4275,-1.845 0,-1.035 0.4275,-2.115 0.6525,-1.6875 2.115,-2.8575 1.485,-1.1925 3.15,-1.3725 0.135,-0.0225 0.4275,-0.0225 0.7875,0 1.4625,0.2475 1.26,0.54 1.26,1.71 0,0.6975 -0.4275,1.1475 -0.4275,0.4275 -1.08,0.4275 -0.4275,0 -0.675,-0.225 -0.2475,-0.2475 -0.2475,-0.675 0,-0.3825 0.225,-0.7425 0.225,-0.36 0.585,-0.5175 0.18,-0.1125 0.2475,-0.1125 0.09,0 -0.1575,-0.1575 -0.4275,-0.2475 -1.1925,-0.2475 -0.675,0 -1.2825,0.315 -0.4725,0.2025 -0.9675,0.6975 -0.585,0.585 -0.945,1.395 -0.36,0.81 -0.72,2.3175 -0.2475,1.0575 -0.2475,1.6875 0,1.035 0.585,1.5525 0.5175,0.54 1.395,0.54 0.3375,0 0.6975,-0.045 2.115,-0.315 3.465,-1.8675 0.2025,-0.225 0.27,-0.225 z"
       style="font-style:normal;font-variant:normal;font-weight:normal;font-stretch:normal;font-size:22.5px;line-height:125%;font-family:KaTeX_Math;-inkscape-font-specification:'KaTeX_Math, Normal';text-align:start;letter-spacing:1;writing-mode:lr-tb;text-anchor:start;fill:#1fab54"
       id="path4298" /></g><g
     style="font-style:normal;font-variant:normal;font-weight:normal;font-stretch:normal;font-size:22.5px;line-height:125%;font-family:KaTeX_Main;-inkscape-font-specification:'KaTeX_Main, Normal';text-align:start;writing-mode:lr-tb;text-anchor:start;fill:#e07d10"
     id="text5116"><path
       d="m 258.4933,111.4827 q -1.44,0 -2.295,-0.72 -0.8325,-0.7425 -0.8325,-2.16 0,-0.405 0.045,-0.765 0.2025,-1.08 1.0575,-3.3075 l 0.36,-1.08 q 0.135,-0.405 0.135,-0.765 0,-0.5625 -0.4275,-0.5625 -0.1575,0 -0.36,0.0675 -1.1475,0.405 -1.7325,2.5875 0,0.0225 -0.0225,0.09 -0.0225,0.045 -0.045,0.0675 0,0 -0.0225,0.0225 -0.0225,0.0225 -0.09,0.0225 -0.045,0 -0.09,0 -0.045,0 -0.18,0 l -0.315,0 q -0.135,-0.135 -0.135,-0.2025 0,-0.0675 0.0675,-0.3375 0.54,-1.7775 1.665,-2.655 0.6075,-0.4725 1.395,-0.4725 0.8775,0 1.44,0.495 0.5625,0.495 0.5625,1.305 0,0.3825 -0.0675,0.585 0,0.1575 -0.3375,0.99 -1.035,2.8125 -1.1025,4.005 0,0.6075 0.1125,0.99 0.2925,0.9675 1.4175,0.9675 0.6075,0 1.08,-0.36 1.395,-0.9225 2.3175,-4.2525 0.18,-0.63 0.18,-1.035 0,-0.99 -0.8775,-1.7775 -0.2925,-0.27 -0.2925,-0.6075 0,-0.5175 0.405,-0.9225 0.4275,-0.4275 0.945,-0.4275 0.54,0 0.8325,0.5175 0.2925,0.495 0.2925,1.1925 0,0.7875 -0.45,2.5875 -0.4275,1.7325 -1.08,3.015 -1.4175,2.9025 -3.555,2.9025 z"
       style="font-style:normal;font-variant:normal;font-weight:normal;font-stretch:normal;font-size:22.5px;line-height:125%;font-family:KaTeX_Math;-inkscape-font-specification:'KaTeX_Math, Normal';text-align:start;writing-mode:lr-tb;text-anchor:start"
       id="path4293" /><path
       d="m 265.27086,105.74632 q 0.0146,0 1.053,-0.0731 1.053,-0.0877 1.06763,-0.0877 0.1755,0 0.1755,0.13162 0,0.13163 -0.49725,2.09138 -0.117,0.49725 -0.26325,1.02375 -0.13163,0.5265 -0.20475,0.78975 l -0.0585,0.27787 q 0,0.0439 0.0877,-0.0439 0.49725,-0.4095 1.1115,-0.55575 0.1755,-0.0293 0.36562,-0.0293 0.19013,0 0.36563,0.0293 0.7605,0.1755 1.21387,0.78975 0.45338,0.61425 0.45338,1.55025 0,1.638 -1.15538,2.95425 -1.14075,1.30162 -2.48625,1.30162 -0.42412,0 -0.80437,-0.19012 -1.14075,-0.51188 -1.14075,-2.1645 0,-0.42413 0.0878,-0.83363 0,-0.0146 0.73125,-2.99812 l 0.74587,-2.9835 q 0.0293,-0.20475 -0.10237,-0.24863 -0.117,-0.0585 -0.4095,-0.0585 -0.10238,0 -0.16088,0 -0.30712,0 -0.351,-0.0439 -0.0878,-0.0731 -0.0146,-0.351 0.0585,-0.20475 0.10237,-0.234 0.0439,-0.0439 0.0878,-0.0439 z m 3.61238,5.23575 q 0,-1.17 -0.89213,-1.17 -0.0292,0 -0.10237,0.0146 -0.0585,0 -0.0731,0 -0.7605,0.16087 -1.43325,1.053 -0.0292,0.0293 -0.0731,0.0877 l -0.0439,0.0585 q 0,0.0146 -0.26325,1.053 -0.24862,1.02375 -0.27787,1.17 -0.0878,0.45337 -0.0878,0.819 0,0.702 0.351,1.053 0.234,0.234 0.585,0.234 0.48262,0 0.97987,-0.468 0.36563,-0.33638 0.585,-0.819 0.234,-0.49725 0.48263,-1.53563 0.26325,-1.053 0.26325,-1.55025 z"
       style="font-size:64.99999762%;baseline-shift:sub"
       id="path4295" /></g><g
     style="font-style:normal;font-variant:normal;font-weight:normal;font-stretch:normal;font-size:22.5px;line-height:125%;font-family:KaTeX_Main;-inkscape-font-specification:'KaTeX_Main, Normal';text-align:start;writing-mode:lr-tb;text-anchor:start;fill:#e07d10"
     id="text5120"><path
       d="m 14.95,113.93939 q -1.44,0 -2.295,-0.72 -0.8325,-0.7425 -0.8325,-2.16 0,-0.405 0.045,-0.765 0.2025,-1.08 1.0575,-3.3075 l 0.36,-1.08 q 0.135,-0.405 0.135,-0.765 0,-0.5625 -0.4275,-0.5625 -0.1575,0 -0.36,0.0675 -1.1475,0.405 -1.7325,2.5875 0,0.0225 -0.0225,0.09 -0.0225,0.045 -0.045,0.0675 0,0 -0.0225,0.0225 -0.0225,0.0225 -0.09,0.0225 -0.045,0 -0.09,0 -0.045,0 -0.18,0 l -0.315,0 Q 10,107.30189 10,107.23439 q 0,-0.0675 0.0675,-0.3375 0.54,-1.7775 1.665,-2.655 0.6075,-0.4725 1.395,-0.4725 0.8775,0 1.44,0.495 0.5625,0.495 0.5625,1.305 0,0.3825 -0.0675,0.585 0,0.1575 -0.3375,0.99 -1.035,2.8125 -1.1025,4.005 0,0.6075 0.1125,0.99 0.2925,0.9675 1.4175,0.9675 0.6075,0 1.08,-0.36 1.395,-0.9225 2.3175,-4.2525 0.18,-0.63 0.18,-1.035 0,-0.99 -0.8775,-1.7775 -0.2925,-0.27 -0.2925,-0.6075 0,-0.5175 0.405,-0.9225 0.4275,-0.4275 0.945,-0.4275 0.54,0 0.8325,0.5175 0.2925,0.495 0.2925,1.1925 0,0.7875 -0.45,2.5875 -0.4275,1.7325 -1.08,3.015 -1.4175,2.9025 -3.555,2.9025 z"
       style="font-style:normal;font-variant:normal;font-weight:normal;font-stretch:normal;font-size:22.5px;line-height:125%;font-family:KaTeX_Math;-inkscape-font-specification:'KaTeX_Math, Normal';text-align:start;writing-mode:lr-tb;text-anchor:start"
       id="path4288" /><path
       d="m 27.548312,115.95426 q 0.131625,0 0.1755,0.0146 0.04387,0 0.07313,0.0293 0.02925,0.0292 0.02925,0.0877 0,0.0439 -0.04387,0.21937 -0.32175,1.2285 -0.78975,1.6965 -0.190125,0.19013 -0.468,0.30713 -0.117,0.0292 -0.351,0.0292 -0.921375,0 -1.287,-0.71663 -0.07313,-0.19012 -0.07313,-0.1755 -0.01462,-0.0146 -0.0585,0.0146 -0.02925,0.0293 -0.0585,0.0585 -0.702,0.65812 -1.389375,0.80437 -0.08775,0.0146 -0.365625,0.0146 -0.965249,0 -1.594124,-0.80438 -0.43875,-0.6435 -0.43875,-1.638 0,-0.234 0.01462,-0.32175 0.102375,-0.936 0.599625,-1.78425 0.511875,-0.86287 1.213875,-1.38937 0.848249,-0.65813 1.784249,-0.65813 0.73125,0 1.31625,0.71663 0.234,-0.43875 0.67275,-0.43875 0.190125,0 0.336375,0.117 0.14625,0.117 0.14625,0.2925 0,0.19012 -0.55575,2.35462 -0.541125,2.14988 -0.541125,2.41313 0,0.61425 0.4095,0.61425 0.131625,-0.0146 0.2925,-0.13163 0.307125,-0.2925 0.599625,-1.404 0.08775,-0.2925 0.14625,-0.30712 0.02925,-0.0146 0.14625,-0.0146 l 0.0585,0 z m -5.396624,0.68738 q 0,0.5265 0.219375,0.84825 0.234,0.32175 0.672749,0.32175 0.424125,0 0.90675,-0.351 0.1755,-0.117 0.468,-0.43875 0.307125,-0.32175 0.365625,-0.43875 0.02925,-0.0585 0.394875,-1.56488 0.38025,-1.50637 0.38025,-1.62337 0,-0.1755 -0.160875,-0.49725 -0.32175,-0.62888 -0.921375,-0.62888 -0.585,0 -1.038375,0.49725 -0.43875,0.49725 -0.67275,1.14075 -0.424124,1.15538 -0.599624,2.3985 0,0.0439 -0.01462,0.16088 0,0.117 0,0.1755 z"
       style="font-size:64.99999762%;baseline-shift:sub"
       id="path4290" /></g><g
     style="font-style:normal;font-variant:normal;font-weight:normal;font-stretch:normal;font-size:22.5px;line-height:125%;font-family:KaTeX_Main;-inkscape-font-specification:'KaTeX_Main, Normal';text-align:start;writing-mode:lr-tb;text-anchor:start"
     id="text5124"><path
       d="m 254.6458,60.516879 q -0.315,-0.1575 -0.315,-0.45 0,-0.2925 0.315,-0.45 l 6.7275,0 0,-3.375 0.0225,-3.375 q 0.225,-0.2925 0.4275,-0.2925 0.2925,0 0.45,0.3375 l 0,6.705 6.705,0 q 0.3375,0.18 0.3375,0.45 0,0.27 -0.3375,0.45 l -6.705,0 0,6.705 q -0.1575,0.315 -0.45,0.315 -0.2925,0 -0.45,-0.315 l 0,-6.705 -6.7275,0 z"
       style="font-style:normal;font-variant:normal;font-weight:normal;font-stretch:normal;font-size:22.5px;line-height:125%;font-family:KaTeX_Main;-inkscape-font-specification:'KaTeX_Main, Normal';text-align:start;writing-mode:lr-tb;text-anchor:start;fill:#e07d10"
       id="path4283" /><path
       d="m 255.2758,161.31688 q -0.315,-0.1575 -0.315,-0.45 0,-0.2925 0.315,-0.45 l 13.0725,0 q 0.3375,0.18 0.3375,0.45 0,0.27 -0.3375,0.45 l -13.0725,0 z"
       style="font-style:normal;font-variant:normal;font-weight:normal;font-stretch:normal;font-size:22.5px;line-height:125%;font-family:KaTeX_Main;-inkscape-font-specification:'KaTeX_Main, Normal';text-align:start;writing-mode:lr-tb;text-anchor:start;fill:#e07d10"
       id="path4285" /></g><g
     style="font-style:normal;font-variant:normal;font-weight:normal;font-stretch:normal;font-size:22.5px;line-height:125%;font-family:KaTeX_Main;-inkscape-font-specification:'KaTeX_Main, Normal';text-align:start;writing-mode:lr-tb;text-anchor:start"
     id="text5130"><path
       d="m 17.1025,60.516879 q -0.315,-0.1575 -0.315,-0.45 0,-0.2925 0.315,-0.45 l 6.7275,0 0,-3.375 0.0225,-3.375 q 0.225,-0.2925 0.4275,-0.2925 0.2925,0 0.45,0.3375 l 0,6.705 6.705,0 q 0.3375,0.18 0.3375,0.45 0,0.27 -0.3375,0.45 l -6.705,0 0,6.705 q -0.1575,0.315 -0.45,0.315 -0.2925,0 -0.45,-0.315 l 0,-6.705 -6.7275,0 z"
       style="font-style:normal;font-variant:normal;font-weight:normal;font-stretch:normal;font-size:22.5px;line-height:125%;font-family:KaTeX_Main;-inkscape-font-specification:'KaTeX_Main, Normal';text-align:start;writing-mode:lr-tb;text-anchor:start;fill:#e07d10"
       id="path4278" /><path
       d="m 17.7325,161.31688 q -0.315,-0.1575 -0.315,-0.45 0,-0.2925 0.315,-0.45 l 13.0725,0 q 0.3375,0.18 0.3375,0.45 0,0.27 -0.3375,0.45 l -13.0725,0 z"
       style="font-style:normal;font-variant:normal;font-weight:normal;font-stretch:normal;font-size:22.5px;line-height:125%;font-family:KaTeX_Main;-inkscape-font-specification:'KaTeX_Main, Normal';text-align:start;writing-mode:lr-tb;text-anchor:start;fill:#e07d10"
       id="path4280" /></g><g
     id="g5136"
     transform="translate(-22.929593,5.6918825)"><g
       id="g5138"><path
         class="st38"
         d="m 264,156 c 3.7,-10.5 6.2,-30.8 6.2,-54 0,-18.8 -1.6,-35.7 -4.2,-47"
         id="path5140"
         style="fill:none;stroke:#e07d10;stroke-width:2;stroke-linecap:round;stroke-miterlimit:10"
         inkscape:connector-curvature="0" /><g
         id="g5142"><path
           class="st36"
           d="m 264,48 c 2.1,3 5.3,6.5 8.2,8.4 l -6,-0.5 -5,3.5 c 1.5,-3.1 2.5,-7.8 2.8,-11.4 z"
           id="path5144"
           style="fill:#e07d10"
           inkscape:connector-curvature="0" /></g></g></g><g
     id="g5146"
     transform="translate(-22.929593,5.6918825)"><g
       id="g5148"><path
         class="st38"
         d="M 66,156 C 62.3,145.5 59.8,125.2 59.8,102 59.8,83.2 61.4,66.3 64,55"
         id="path5150"
         style="fill:none;stroke:#e07d10;stroke-width:2;stroke-linecap:round;stroke-miterlimit:10"
         inkscape:connector-curvature="0" /><g
         id="g5152"><path
           class="st36"
           d="m 66,48 c 0.3,3.6 1.3,8.3 2.8,11.4 l -5,-3.5 -6,0.5 C 60.7,54.5 63.9,51 66,48 Z"
           id="path5154"
           style="fill:#e07d10"
           inkscape:connector-curvature="0" /></g></g></g><path
     class="st50"
     d="m 122.07041,17.691882 c 1.3,3.1 2.7,6.3 4,9.4 0.2,0.4 0.3,0.7 0.6,0.9 0.6,0.2 1.1,-0.6 1.3,-1.3 1,-2.9 1.9,-5.9 2.7,-8.9"
     id="path5156"
     style="fill:none;stroke:#11accd;stroke-width:2;stroke-linecap:round;stroke-miterlimit:10;stroke-dasharray:none"
     inkscape:connector-curvature="0"
     sodipodi:nodetypes="ccccc" /><path
     class="st50"
     d="m 136.24859,26.575791 c 1.35832,0.454036 -1.67392,-0.855503 -2.07818,-0.983909 -0.6,-0.2 -1.4,-0.4 -1.8,0.2 -0.2,0.3 -0.3,0.8 -0.4,1.2 -0.2,1.2 -0.4,2.7 0.3,3.5 0.7,0.9 2,0.5 2.7,-0.4 2.44673,-4.211029 0.35769,-4.518084 4.1,0.6"
     id="path5158"
     inkscape:connector-curvature="0"
     style="fill:none;stroke:#11accd;stroke-width:2;stroke-linecap:round;stroke-linejoin:round;stroke-miterlimit:10;stroke-dasharray:none"
     sodipodi:nodetypes="ccscccc" /><path
     class="st50"
     d="m 140.67041,24.691882 4.2,0"
     id="path5160"
     style="fill:none;stroke:#11accd;stroke-width:2;stroke-linecap:round;stroke-miterlimit:10;stroke-dasharray:none"
     inkscape:connector-curvature="0"
     sodipodi:nodetypes="cc" /><path
     class="st50"
     d="m 107.39677,25.251855 c 0.2,3.9 -0.0264,6.040027 -0.12636,9.940027"
     id="path5162"
     style="fill:none;stroke:#11accd;stroke-width:2;stroke-linecap:round;stroke-miterlimit:10;stroke-dasharray:none"
     inkscape:connector-curvature="0"
     sodipodi:nodetypes="cc" /><path
     class="st50"
     d="m 103.07041,30.391882 c 3,0.2 6.1,0.1 9.1,-0.2"
     id="path5164"
     style="fill:none;stroke:#11accd;stroke-width:2;stroke-linecap:round;stroke-miterlimit:10;stroke-dasharray:none"
     inkscape:connector-curvature="0" /><path
     class="st50"
     d="m 169.37041,29.391882 c 2.8,-0.1 5.7,-0.1 8.5,0.1"
     id="path5166"
     style="fill:none;stroke:#11accd;stroke-width:2;stroke-linecap:round;stroke-miterlimit:10;stroke-dasharray:none"
     inkscape:connector-curvature="0" /><path
     class="st50"
     d="m 147.17041,20.391882 c 0.4,0.4 0.5,0.9 0.7,1.5 1,2.8 1.9,5.7 2.9,8.5 1.5,-3.5 2.7,-7.2 3.7,-11.1"
     id="path5168"
     style="fill:none;stroke:#11accd;stroke-width:2;stroke-linecap:round;stroke-linejoin:round;stroke-miterlimit:10;stroke-dasharray:none"
     inkscape:connector-curvature="0"
     sodipodi:nodetypes="cccc" /><path
     class="st50"
     d="m 157.07041,23.991882 0,9.2 c -0.2,-1.6 0.3,-3.3 1.2,-4.4 0.7,-0.8 1.8,-1.2 2.4,-0.3 0.5,0.7 0.4,1.8 -0.1,2.5 -0.4,0.7 -2.14039,1.84695 -2.74039,2.24695"
     id="path5170"
     style="fill:none;stroke:#11accd;stroke-width:2;stroke-linecap:round;stroke-linejoin:round;stroke-miterlimit:10;stroke-dasharray:none"
     inkscape:connector-curvature="0"
     sodipodi:nodetypes="cccccc" /><path
     style="fill:none;fill-rule:evenodd;stroke:#00aad4;stroke-width:2;stroke-linecap:round;stroke-linejoin:round;stroke-miterlimit:4;stroke-dasharray:none;stroke-opacity:1"
     d="m 27.215642,28.53183 c 0.970815,3.499229 -0.531873,11.43314 0.460705,14.281842"
     id="path10571"
     inkscape:connector-curvature="0"
     sodipodi:nodetypes="cc" /><path
     style="fill:none;fill-rule:evenodd;stroke:#00aad4;stroke-width:2;stroke-linecap:round;stroke-linejoin:round;stroke-miterlimit:4;stroke-dasharray:none;stroke-opacity:1"
     d="m 39.654667,36.824513 c -2.344579,-0.796641 -9.955392,1.204853 -8.753388,0 1.492745,-3.300796 3.63964,-5.613643 4.607046,-7.371273 0.541559,1.551178 0.460705,3.02624 0.460705,4.607046 -0.09923,3.719003 -0.151756,6.177035 0,9.674795"
     id="path10573"
     inkscape:connector-curvature="0"
     sodipodi:nodetypes="ccccc" /><path
     style="fill:none;fill-rule:evenodd;stroke:#00aad4;stroke-width:2;stroke-linecap:round;stroke-linejoin:round;stroke-miterlimit:4;stroke-dasharray:none;stroke-opacity:1"
     d="m 46.242894,32.102345 c -1.769027,0.356827 -2.431144,0.734524 -3.363295,1.957941 -0.810548,1.063817 -0.693848,3.105059 -0.460705,4.14634 0.736783,3.290669 5.978357,2.562779 6.910569,0.921409 0.971008,-1.70968 0.222845,-5.05238 -0.460704,-5.989159 -1.091016,-0.929844 -1.430228,-0.983352 -2.625865,-1.036531 z"
     id="path10575"
     inkscape:connector-curvature="0"
     sodipodi:nodetypes="cssscc" /><path
     style="fill:none;fill-rule:evenodd;stroke:#00aad4;stroke-width:2;stroke-linecap:round;stroke-linejoin:round;stroke-miterlimit:4;stroke-dasharray:none;stroke-opacity:1"
     d="m 53.475805,33.138876 c 2.425551,1.382084 1.337044,6.093187 2.303523,7.831978 2.531163,4.105474 4.31321,-5.503747 6.102735,-7.767338"
     id="path10577"
     inkscape:connector-curvature="0"
     sodipodi:nodetypes="ccc" /><path
     style="fill:none;fill-rule:evenodd;stroke:#11accd;stroke-width:2;stroke-linecap:round;stroke-linejoin:round;stroke-miterlimit:4;stroke-dasharray:none;stroke-opacity:1"
     d="m 340.03901,41.925945 c -0.98874,1.608981 -1.41238,2.739632 -2.32771,4.09636 -1.1183,0.592095 -1.60958,1.915584 -0.11577,2.392771 1.23823,0.963196 2.63888,1.687556 4.01741,2.325396 0.28521,0.03721 1.04868,0.598334 1.32171,0.506914"
     id="path6286"
     inkscape:connector-curvature="0"
     sodipodi:nodetypes="ccccc" /><path
     style="fill:#37c8ab;fill-rule:evenodd;stroke:#11accd;stroke-width:2;stroke-linecap:round;stroke-linejoin:round;stroke-miterlimit:4;stroke-dasharray:none;stroke-opacity:1"
     d="m 338.58325,47.263718 c 3.42279,1.000977 7.01097,0.236539 10.50761,0.485168 l 0.32659,-5.56e-4 0.3266,6.85e-4"
     id="path6288"
     inkscape:connector-curvature="0"
     sodipodi:nodetypes="cccc" /><path
     style="fill:none;fill-rule:evenodd;stroke:#11accd;stroke-width:2;stroke-linecap:round;stroke-linejoin:round;stroke-miterlimit:4;stroke-dasharray:none;stroke-opacity:1"
     d="m 191.36062,14.075048 c 0.19123,3.099521 2.33789,5.512642 3.48206,8.267129 0.53968,1.44271 0.85852,-1.64046 1.56259,-2.168928 0.97448,-1.99093 1.58834,-4.151702 2.51469,-6.174305 0.3285,-0.585803 0.16314,-1.566747 0.78037,-1.926831"
     id="path6404"
     inkscape:connector-curvature="0" /><path
     style="fill:none;fill-rule:evenodd;stroke:#11accd;stroke-width:2;stroke-linecap:round;stroke-linejoin:round;stroke-miterlimit:4;stroke-dasharray:none;stroke-opacity:1"
     d="m 206.12885,19.901768 c -2.38025,-0.887204 -4.71694,1.487557 -4.67302,3.947071 0.0756,3.104045 3.97142,2.501655 4.06304,-0.257039 0.31633,-0.858444 0.5396,-3.67913 0.58421,-3.306905 -0.16699,1.407207 1.35118,5.006003 2.45824,4.351082"
     id="path6406"
     inkscape:connector-curvature="0" /><path
     style="fill:none;fill-rule:evenodd;stroke:#11accd;stroke-width:2;stroke-linecap:round;stroke-linejoin:round;stroke-miterlimit:4;stroke-dasharray:none;stroke-opacity:1"
     d="m 214.46854,17.898833 c 1.15463,1.043648 2.68484,0.221406 3.99612,0.182084"
     id="path6408"
     inkscape:connector-curvature="0" /><path
     style="fill:none;fill-rule:evenodd;stroke:#11accd;stroke-width:2;stroke-linecap:round;stroke-linejoin:round;stroke-miterlimit:4;stroke-dasharray:none;stroke-opacity:1"
     d="m 224.1982,12.254198 c 1.09104,2.626041 1.99737,5.331478 3.0929,7.955547 -0.12581,1.10959 1.2344,2.52011 0.69515,0.603178 0.53139,-2.162367 1.27948,-4.297109 1.61717,-6.490431 0.0831,-0.599066 0.41741,-4.111689 1.02327,-3.160805"
     id="path6410"
     inkscape:connector-curvature="0" /><path
     style="fill:none;fill-rule:evenodd;stroke:#11accd;stroke-width:2;stroke-linecap:round;stroke-linejoin:round;stroke-miterlimit:4;stroke-dasharray:none;stroke-opacity:1"
     d="m 233.5996,17.909844 c 0.59273,2.312705 1.39066,5.423518 1.57789,7.295527 -0.84003,-1.832546 1.24729,-6.150514 3.47959,-3.928088 1.10549,2.373482 -1.60844,3.904707 -3.53986,5.033484 0.12715,0.08116 -1.24808,0.448557 -0.41193,0.0045"
     id="path6412"
     inkscape:connector-curvature="0" /><path
     style="fill:none;fill-rule:evenodd;stroke:#11accd;stroke-width:2;stroke-linecap:round;stroke-linejoin:round;stroke-miterlimit:4;stroke-dasharray:none;stroke-opacity:1"
     d="m 201.26403,32.647717 c 2.21434,-0.637539 4.4124,-1.325674 6.65062,-1.802764 3.2681,-1.330638 6.6443,-2.316523 9.93436,-3.582511 1.97308,-0.338692 4.03406,-0.42734 6.00502,-0.896076 1.99824,-0.282902 4.27374,-0.393563 6.15096,-0.393682 l -0.0733,0.119978"
     id="path6414"
     inkscape:connector-curvature="0" /><path
     style="fill:none;fill-rule:evenodd;stroke:#11accd;stroke-width:2;stroke-linecap:round;stroke-linejoin:round;stroke-miterlimit:4;stroke-dasharray:none;stroke-opacity:1"
     d="m 210.2987,36.653585 c 0.93635,-3.168677 5.15699,-0.08897 3.13193,2.264079 -0.83783,1.692121 -2.25189,4.737432 -2.17012,5.894103 0.59572,-2.262112 2.75481,-2.141482 4.5427,-2.268172 0.44326,-0.09204 0.89812,-0.34064 1.09776,-0.79163"
     id="path6416"
     inkscape:connector-curvature="0" /><path
     style="fill:none;fill-rule:evenodd;stroke:#11accd;stroke-width:2;stroke-linecap:round;stroke-linejoin:round;stroke-miterlimit:4;stroke-dasharray:none;stroke-opacity:1"
     d="m 222.6345,33.011886 c -2.76766,0.153279 -3.21157,3.574115 -2.93011,5.832252 0.65448,3.193044 4.34333,1.757254 4.73091,-0.818707 1.00924,-2.28459 0.23754,-5.076732 -2.49576,-5.19563"
     id="path6418"
     inkscape:connector-curvature="0" /><path
     style="fill:none;fill-rule:evenodd;stroke:#11accd;stroke-width:2;stroke-linecap:round;stroke-linejoin:round;stroke-miterlimit:4;stroke-dasharray:none;stroke-opacity:1"
     d="m 307.99825,52.555637 c 2.02155,1.067503 2.38953,2.596456 3.6085,4.764125 1.00681,1.92073 1.87871,3.234618 2.29174,1.095389 1.31108,-2.478088 2.22221,-5.102344 3.71467,-7.512213 l 0.25346,-0.213964 0.30069,-0.163755"
     id="path6436"
     inkscape:connector-curvature="0"
     sodipodi:nodetypes="cccccc" /><path
     style="fill:none;fill-rule:evenodd;stroke:#11accd;stroke-width:2;stroke-linecap:round;stroke-linejoin:round;stroke-miterlimit:4;stroke-dasharray:none;stroke-opacity:1"
     d="m 317.96791,57.29328 c -0.22074,2.568181 0.74238,5.057374 0.98126,7.597701 -0.23134,-1.576579 -0.19112,-4.292543 2.34269,-4.327797 2.54931,0.254536 3.41388,4.236427 -1.23139,5.26526"
     id="path6438"
     inkscape:connector-curvature="0"
     sodipodi:nodetypes="cccc" /><path
     style="fill:none;fill-rule:evenodd;stroke:#11accd;stroke-width:2;stroke-linecap:round;stroke-linejoin:round;stroke-miterlimit:4;stroke-dasharray:none;stroke-opacity:1"
     d="m 306.20373,72.352221 c 7.51965,-0.455545 14.03488,-2.836454 20.80724,-3.923264 1.32915,-0.206842 2.65599,-0.210695 4.11684,0.03158"
     id="path6442"
     inkscape:connector-curvature="0"
     sodipodi:nodetypes="ccc" /><path
     style="fill:none;fill-rule:evenodd;stroke:#11accd;stroke-width:2;stroke-linecap:round;stroke-linejoin:round;stroke-miterlimit:4;stroke-dasharray:none;stroke-opacity:1"
     d="m 314.17945,86.903556 c 1.90444,-1.065818 4.6087,0.559842 6.25602,-1.041572 1.33873,-0.76921 2.48554,-2.015978 2.39755,-3.471071 -0.16425,-1.938624 -2.22757,-3.716505 -4.51642,-3.854657 -1.59119,-0.502015 -2.69878,1.996893 -3.29655,1.770956 0.45243,-1.890896 -0.0494,-4.17985 0.60866,-5.84942 2.62366,-0.953103 5.48825,-1.312149 8.32101,-1.428764"
     id="path6444"
     inkscape:connector-curvature="0" /><g
     id="g6607"
     transform="matrix(-1,0,0,-1,572.75161,123.63666)"><path
       inkscape:connector-curvature="0"
       id="path6468"
       d="m 284.93993,49.909431 c 0.33228,1.429618 0.70435,2.998061 0.70435,4.46085 0,2.647351 0.82173,5.112464 0.82173,7.982572 -0.12852,1.706604 -0.18028,3.238508 -0.35217,4.695631 0,0.156521 0.15652,0.469563 0,0.469563 -0.15652,0 0,-0.313042 0,-0.469563"
       style="fill:none;fill-rule:evenodd;stroke:#11accd;stroke-width:2;stroke-linecap:round;stroke-linejoin:round;stroke-miterlimit:4;stroke-dasharray:none;stroke-opacity:1"
       sodipodi:nodetypes="csccsc" /><path
       inkscape:connector-curvature="0"
       id="path6470"
       d="m 284.70515,49.439868 c -0.21028,1.103968 -1.63628,2.575412 -2.34781,3.286942 -0.22882,0.228819 -0.96249,1.807591 -0.58696,1.056517"
       style="fill:none;fill-rule:evenodd;stroke:#11accd;stroke-width:2;stroke-linecap:round;stroke-linejoin:round;stroke-miterlimit:4;stroke-dasharray:none;stroke-opacity:1" /><path
       inkscape:connector-curvature="0"
       id="path6472"
       d="m 284.82254,49.79204 c 1.69353,1.476077 4.3454,3.290821 4.81302,4.226068"
       style="fill:none;fill-rule:evenodd;stroke:#11accd;stroke-width:2;stroke-linecap:round;stroke-linejoin:round;stroke-miterlimit:4;stroke-dasharray:none;stroke-opacity:1" /></g><path
     style="fill:none;fill-rule:evenodd;stroke:#11accd;stroke-width:2.2646122;stroke-linecap:round;stroke-linejoin:round;stroke-miterlimit:4;stroke-dasharray:none;stroke-opacity:1"
     d="m 351.71306,25.407603 c 0.29234,4.524229 -0.33212,8.539854 -0.60124,12.803208 -0.0397,0.821316 0.0457,-0.769478 -0.12339,2.540337"
     id="path6506"
     inkscape:connector-curvature="0"
     sodipodi:nodetypes="ccc" /><path
     style="fill:none;fill-rule:evenodd;stroke:#11accd;stroke-width:2.2646122;stroke-linecap:round;stroke-linejoin:round;stroke-miterlimit:4;stroke-dasharray:none;stroke-opacity:1"
     d="m 364.75743,24.107302 c -1.41154,0.126274 -2.91047,-0.338464 -4.1596,0.777061 -1.28051,0.920831 -2.3787,2.764815 -1.6379,4.424141 0.95581,1.377297 2.75783,0.718603 4.09273,1.178254 1.65105,0.347372 2.69712,2.015213 2.81368,3.747085 0.28954,1.58194 0.22165,3.572282 -1.46279,4.151962 -1.78712,0.974085 -4.04144,0.95706 -5.80034,-0.06256 -1.41037,-1.465223 -0.1276,-3.428103 1.10813,-4.578308 1.66613,-1.699946 2.82461,-3.318399 4.40013,-5.067737 0.66014,-2.038662 0.32506,-2.205478 0.64596,-3.269591"
     id="path6508"
     inkscape:connector-curvature="0"
     sodipodi:nodetypes="cccccccccc" /><path
     style="fill:none;fill-rule:evenodd;stroke:#11accd;stroke-width:2.2646122;stroke-linecap:round;stroke-linejoin:round;stroke-miterlimit:4;stroke-dasharray:none;stroke-opacity:1"
     d="m 371.2431,38.434416 c 0.25838,-3.08184 1.64992,-5.896824 1.8986,-8.983321 0.29983,-1.455023 0.23112,-3.240194 1.15801,-4.389793 1.13148,0.590919 1.40348,2.637808 1.68579,3.77245 0.84843,2.478783 1.55032,5.128198 3.13175,7.200631 l 0.17774,0.162166"
     id="path6510"
     inkscape:connector-curvature="0"
     sodipodi:nodetypes="cccccc" /><path
     style="fill:none;fill-rule:evenodd;stroke:#11accd;stroke-width:2.2646122;stroke-linecap:round;stroke-linejoin:round;stroke-miterlimit:4;stroke-dasharray:none;stroke-opacity:1"
     d="m 372.48743,33.209405 c 1.56211,-0.57775 3.16668,-0.176643 4.70315,-0.872124"
     id="path6512"
     inkscape:connector-curvature="0"
     sodipodi:nodetypes="cc" /><g
     id="g6602"
     transform="matrix(-1,0,0,-1,419.02009,123.68106)"><path
       sodipodi:nodetypes="ccc"
       inkscape:connector-curvature="0"
       id="path6522"
       d="m 207.70163,50.231892 c -1.3257,2.063747 -2.26729,2.398856 -3.37312,4.655149 -0.2986,0.494602 -1.24678,2.531653 -1.60735,2.98157"
       style="fill:none;fill-rule:evenodd;stroke:#11accd;stroke-width:2;stroke-linecap:round;stroke-linejoin:round;stroke-miterlimit:4;stroke-dasharray:none;stroke-opacity:1" /><path
       inkscape:connector-curvature="0"
       id="path6524"
       d="m 208.19968,51.394001 c 1.95681,1.69722 3.42866,3.876531 4.64844,6.142578"
       style="fill:none;fill-rule:evenodd;stroke:#11accd;stroke-width:2;stroke-linecap:round;stroke-linejoin:round;stroke-miterlimit:4;stroke-dasharray:none;stroke-opacity:1" /><path
       inkscape:connector-curvature="0"
       id="path6526"
       d="m 207.03757,52.058064 c -0.23677,4.900259 -0.21692,9.809043 -0.099,14.712372 -0.0757,-0.154272 0.0896,-0.291366 0.0989,-0.43503"
       style="fill:none;fill-rule:evenodd;stroke:#11accd;stroke-width:2;stroke-linecap:round;stroke-linejoin:round;stroke-miterlimit:4;stroke-dasharray:none;stroke-opacity:1" /></g><path
     style="fill:none;fill-rule:evenodd;stroke:#11accd;stroke-width:2.20000005;stroke-linecap:round;stroke-linejoin:round;stroke-miterlimit:4;stroke-dasharray:none;stroke-opacity:1"
     d="m 193.1164,42.977573 c 0.92655,2.064517 7.02145,2.614653 4.28153,5.492898 -1.07924,1.614476 -3.61898,3.897509 -4.53206,4.844948"
     id="path6528"
     inkscape:connector-curvature="0" /><path
     style="fill:none;fill-rule:evenodd;stroke:#11accd;stroke-width:2.1859684;stroke-linecap:round;stroke-linejoin:round;stroke-miterlimit:4;stroke-dasharray:none;stroke-opacity:1"
     d="m 197.12623,47.707755 c -5.14995,1.096562 -6.99178,0.401689 -12.30094,0.458081 -4.92038,0.07524 -5.51057,0.520597 -6.37368,0.356427"
     id="path6530"
     inkscape:connector-curvature="0"
     sodipodi:nodetypes="ccc" /><path
     style="fill:none;fill-rule:evenodd;stroke:#11accd;stroke-width:2;stroke-linecap:round;stroke-linejoin:round;stroke-miterlimit:4;stroke-dasharray:none;stroke-opacity:1"
     d="m 224.64475,65.044359 c 1.52473,1.780018 2.06332,7.293112 4.94919,5.968987 0.89286,-2.546943 -0.31118,-6.086165 2.25826,-7.88906"
     id="path6534"
     inkscape:connector-curvature="0" /><path
     style="fill:none;fill-rule:evenodd;stroke:#11accd;stroke-width:2;stroke-linecap:round;stroke-linejoin:round;stroke-miterlimit:4;stroke-dasharray:none;stroke-opacity:1"
     d="m 233.34321,69.844551 c -0.94638,2.659352 1.07256,5.115569 1.22036,7.727265 -1.3855,-2.246334 2.06058,-6.500341 4.36193,-4.574341 1.30709,2.369425 -2.17781,4.532136 -4.3397,4.047362"
     id="path6536"
     inkscape:connector-curvature="0" /><path
     style="fill:none;fill-rule:evenodd;stroke:#11accd;stroke-width:2;stroke-linecap:round;stroke-linejoin:round;stroke-miterlimit:4;stroke-dasharray:none;stroke-opacity:1"
     d="m 223.98405,86.965326 c 6.92757,-3.780603 14.86972,-5.023413 21.96772,-8.398125"
     id="path6538"
     inkscape:connector-curvature="0" /><path
     style="fill:none;fill-rule:evenodd;stroke:#11accd;stroke-width:2;stroke-linecap:round;stroke-linejoin:round;stroke-miterlimit:4;stroke-dasharray:none;stroke-opacity:1"
     d="m 234.11236,87.85656 c -0.81359,3.307717 -1.37146,7.01824 0.36089,10.153592 3.46815,1.167049 6.63262,-3.268084 5.31697,-6.241012 -3.12098,-2.079784 -4.49743,4.209964 -4.44768,5.685404 0.087,-0.159208 0.17387,-0.318414 0.26079,-0.477621"
     id="path6540"
     inkscape:connector-curvature="0" /></svg>