<?xml version="1.0" encoding="utf-8"?>
<!-- Generator: Adobe Illustrator 19.1.0, SVG Export Plug-In . SVG Version: 6.00 Build 0)  -->
<svg version="1.1" id="Layer_1" xmlns="http://www.w3.org/2000/svg" xmlns:xlink="http://www.w3.org/1999/xlink" x="0px" y="0px"
	 width="510px" height="192px" viewBox="0 0 510 192" style="enable-background:new 0 0 510 192;" xml:space="preserve">
<style type="text/css">
	.st0{fill:none;stroke:#FF9C39;stroke-width:5;stroke-linecap:round;stroke-miterlimit:10;}
	.st1{fill:#FF9C39;}
	.st2{fill:none;stroke:#1FAB54;stroke-width:6;stroke-linecap:round;stroke-miterlimit:10;}
	.st3{fill:none;stroke:#FF9C39;stroke-width:6;stroke-linecap:round;stroke-miterlimit:10;}
	.st4{fill:none;stroke:#FF9C39;stroke-width:6;stroke-linecap:round;stroke-linejoin:round;stroke-miterlimit:10;}
	.st5{fill:none;stroke:#11ACCD;stroke-width:5;stroke-linecap:round;stroke-linejoin:round;stroke-miterlimit:10;}
	.st6{fill:none;stroke:#1FAB54;stroke-width:6;stroke-linecap:round;stroke-linejoin:round;stroke-miterlimit:10;}
	.st7{fill:none;stroke:#BABEC2;stroke-width:2;stroke-linecap:round;stroke-miterlimit:10;}
	.st8{fill:none;stroke:#ED5FA6;stroke-width:4;stroke-linecap:round;stroke-miterlimit:10;}
	.st9{fill:#ED5FA6;}
	.st10{fill:none;stroke:#1FAB54;stroke-width:4;stroke-linecap:round;stroke-miterlimit:10;}
	.st11{fill:#1FAB54;}
	.st12{fill:none;stroke:#11ACCD;stroke-width:4;stroke-linecap:round;stroke-miterlimit:10;}
	.st13{fill:#11ACCD;}
	.st14{fill:none;stroke:#FF9C39;stroke-width:4;stroke-linecap:round;stroke-miterlimit:10;}
	.st15{fill:none;stroke:#000000;stroke-linecap:round;stroke-linejoin:round;stroke-miterlimit:10;}
	.st16{fill:none;stroke:#000000;stroke-width:1.5;stroke-linecap:round;stroke-linejoin:round;stroke-miterlimit:10;}
	.st17{fill:none;stroke:#000000;stroke-linecap:round;stroke-miterlimit:10;}
	.st18{fill:none;stroke:#000000;stroke-width:1.5;stroke-linecap:round;stroke-miterlimit:10;}
	.st19{fill:none;stroke:#000000;stroke-width:2;stroke-linecap:round;stroke-linejoin:round;stroke-miterlimit:10;}
	.st20{fill:none;stroke:#000000;stroke-width:1.5;stroke-miterlimit:10;}
	.st21{fill:none;stroke:#000000;stroke-miterlimit:10;}
	.st22{fill:none;stroke:#000000;stroke-width:2;stroke-miterlimit:10;}
	.st23{fill:none;stroke:#000000;stroke-width:2;stroke-linecap:round;stroke-miterlimit:10;}
	.st24{fill:none;stroke:#000000;stroke-linecap:round;stroke-linejoin:round;}
	.st25{fill:none;}
	.st26{stroke:#000000;stroke-linecap:round;stroke-linejoin:round;stroke-miterlimit:10;}
	.st27{fill:none;stroke:#000000;stroke-width:1.5;stroke-linejoin:round;stroke-miterlimit:10;}
	.st28{fill:none;stroke:#000000;stroke-linejoin:round;stroke-miterlimit:10;}
	.st29{clip-path:url(#SVGID_2_);fill:none;stroke:#000000;stroke-linejoin:round;stroke-miterlimit:10;}
	.st30{clip-path:url(#SVGID_2_);fill:none;stroke:#ADADEB;stroke-linejoin:round;stroke-miterlimit:10;}
	.st31{clip-path:url(#SVGID_2_);}
	.st32{stroke:#000000;stroke-linejoin:round;stroke-miterlimit:10;}
	.st33{stroke:#000000;stroke-width:3;stroke-linejoin:round;stroke-miterlimit:10;}
	.st34{fill:none;stroke:#000000;stroke-linejoin:round;}
	.st35{fill:#FFFFFF;stroke:#000000;stroke-miterlimit:10;}
	.st36{fill:#E07D10;}
	.st37{fill:none;stroke:#11ACCD;stroke-width:3;stroke-linecap:round;stroke-miterlimit:10;}
	.st38{fill:none;stroke:#E07D10;stroke-width:2;stroke-linecap:round;stroke-miterlimit:10;}
	.st39{fill:none;stroke:#FF9C39;stroke-width:3;stroke-linecap:round;stroke-miterlimit:10;}
	.st40{fill:none;stroke:#FFBB71;stroke-width:2;stroke-linecap:round;stroke-miterlimit:10;}
	.st41{fill:#FFBB71;}
	.st42{fill:none;stroke:#000000;stroke-width:2;stroke-linecap:round;stroke-miterlimit:10;stroke-dasharray:6.1241,6.1241;}
	.st43{fill:#66AFE9;}
	.st44{fill:none;stroke:#66AFE9;stroke-miterlimit:10;}
	.st45{font-family:'KaTeX_Main-Regular';}
	.st46{font-size:18px;}
	.st47{letter-spacing:1;}
	.st48{font-family:'KaTeX_Main-Italic';}
	.st49{font-size:21px;}
	.st50{fill:none;stroke:#11ACCD;stroke-width:1.5;stroke-miterlimit:10;}
	.st51{fill:none;stroke:#11ACCD;stroke-width:4;stroke-linecap:round;stroke-linejoin:round;stroke-miterlimit:10;}
	.st52{fill:#CA337C;}
</style>
<g>
	<circle class="st22" cx="90.2" cy="102" r="18"/>
	<polyline class="st17" points="90.2,84 90.2,60 90.2,42 108.2,42 	"/>
	<polyline class="st15" points="90.2,120 90,162 413.8,162 	"/>
	<line class="st20" x1="90.2" y1="88.5" x2="90.2" y2="100.5"/>
	<line class="st20" x1="84.2" y1="94.5" x2="96.2" y2="94.5"/>
	<line class="st20" x1="84.2" y1="112.5" x2="96.2" y2="112.5"/>
</g>
<g>
	<g>
		<g>
			<line class="st23" x1="414" y1="115.5" x2="414" y2="95.6"/>
			<g>
				<polygon points="420,97.4 414,87 408,97.4 				"/>
			</g>
		</g>
	</g>
	<circle class="st22" cx="414" cy="102" r="18"/>
	<polyline class="st17" points="209.8,42 414,42 414,60 414,84 	"/>
	<line class="st15" x1="414" y1="120" x2="414" y2="162"/>
</g>
<g>
	<line class="st15" x1="185.4" y1="42" x2="209.8" y2="42"/>
	<polyline class="st19" points="138.6,42 142.5,33 150.3,51 158.1,33 165.9,51 173.7,33 181.5,51 185.4,42 	"/>
	<line class="st15" x1="108.2" y1="42" x2="138.6" y2="42"/>
	<polygon class="st25" points="209.8,54 210,30 108.2,30 108.2,54 	"/>
</g>
<g>
	<line class="st15" x1="234.2" y1="78.6" x2="234.2" y2="60"/>
	<polyline class="st19" points="234.2,125.4 225.2,121.5 243.2,113.7 225.2,105.9 243.2,98.1 225.2,90.3 243.2,82.5 234.2,78.6 	"/>
	<line class="st15" x1="234.2" y1="162" x2="234.2" y2="125.4"/>
	<rect x="222.2" y="60" class="st25" width="24" height="102"/>
</g>
<g>
	<line class="st15" x1="312" y1="78.6" x2="312" y2="60"/>
	<polyline class="st19" points="312,125.4 303,121.5 321,113.7 303,105.9 321,98.1 303,90.3 321,82.5 312,78.6 	"/>
	<line class="st15" x1="312" y1="162" x2="312" y2="125.4"/>
	<rect x="300" y="60" class="st25" width="24" height="102"/>
</g>
<g>
	<polyline class="st15" points="276,174 283.5,174 283.5,174 283.5,174 276,186 268.5,174 276,174 276,162 	"/>
	<rect x="264" y="162" class="st25" width="24" height="24"/>
</g>
<g>
	<circle class="st26" cx="234" cy="42" r="1.5"/>
	<rect x="228" y="36" class="st25" width="12" height="12"/>
</g>
<g>
	<circle class="st26" cx="312" cy="42" r="1.5"/>
	<rect x="306" y="36" class="st25" width="12" height="12"/>
</g>
<g>
	<circle class="st26" cx="312" cy="162" r="1.5"/>
	<rect x="306" y="156" class="st25" width="12" height="12"/>
</g>
<g>
	<circle class="st26" cx="234.2" cy="162" r="1.5"/>
	<rect x="228.2" y="156" class="st25" width="12" height="12"/>
</g>
<g>
	<circle class="st26" cx="276" cy="162" r="1.5"/>
	<rect x="270" y="156" class="st25" width="12" height="12"/>
</g>
<line class="st17" x1="312" y1="60" x2="312" y2="42"/>
<line class="st17" x1="234.2" y1="60" x2="234.2" y2="42"/>
<text transform="matrix(1 0 0 1 114.0001 108)"><tspan x="0" y="0" class="st45 st46">14</tspan><tspan x="18" y="0" class="st45 st46 st47">0</tspan><tspan x="28.8" y="0" class="st45 st46">V</tspan></text>
<text transform="matrix(1 0 0 1 144.0004 72.0001)"><tspan x="0" y="0" class="st45 st46">2</tspan><tspan x="9" y="0" class="st45 st46 st47">0</tspan><tspan x="19.8" y="0" class="st45 st46">Ω</tspan></text>
<text transform="matrix(1 0 0 1 192.0004 108)"><tspan x="0" y="0" class="st45 st46 st47">6</tspan><tspan x="10.8" y="0" class="st45 st46">Ω</tspan></text>
<text transform="matrix(1 0 0 1 330.0002 108)"><tspan x="0" y="0" class="st45 st46 st47">5</tspan><tspan x="10.8" y="0" class="st45 st46">Ω</tspan></text>
<text transform="matrix(1 0 0 1 438.0002 108)"><tspan x="0" y="0" class="st45 st46">1</tspan><tspan x="9" y="0" class="st45 st46 st47">8</tspan><tspan x="19.8" y="0" class="st45 st46">A</tspan></text>
<text transform="matrix(1 0 0 1 258.0005 35.9998)" class="st11 st45 st46 st47">b</text>
<text transform="matrix(1 0 0 1 78.0005 35.9998)" class="st11 st45 st46 st47">a</text>
<text transform="matrix(1 0 0 1 258.0005 173.9996)" class="st11 st45 st46 st47">c</text>
<text transform="matrix(1 0 0 1 276.0004 102)" class="st36 st48 st46">v</text>
<text transform="matrix(0.583 0 0 0.583 284.2802 107.9942)" class="st36 st45 st46">b</text>
<text transform="matrix(1 0 0 1 36.0004 108)" class="st36 st48 st46">v</text>
<text transform="matrix(0.583 0 0 0.583 44.2802 113.9942)" class="st36 st45 st46">a</text>
<text transform="matrix(1 0 0 1 276.0004 60)"><tspan x="0" y="0" class="st36 st45 st49">+</tspan><tspan x="0" y="100.8" class="st36 st45 st49">−</tspan></text>
<text transform="matrix(1 0 0 1 42.0004 60)"><tspan x="0" y="0" class="st36 st45 st49">+</tspan><tspan x="0" y="100.8" class="st36 st45 st49">−</tspan></text>
<g>
	<g>
		<path class="st38" d="M264,156c3.7-10.5,6.2-30.8,6.2-54c0-18.8-1.6-35.7-4.2-47"/>
		<g>
			<path class="st36" d="M264,48c2.1,3,5.3,6.5,8.2,8.4l-6-0.5l-5,3.5C262.7,56.3,263.7,51.6,264,48z"/>
		</g>
	</g>
</g>
<g>
	<g>
		<path class="st38" d="M66,156c-3.7-10.5-6.2-30.8-6.2-54c0-18.8,1.6-35.7,4.2-47"/>
		<g>
			<path class="st36" d="M66,48c0.3,3.6,1.3,8.3,2.8,11.4l-5-3.5l-6,0.5C60.7,54.5,63.9,51,66,48z"/>
		</g>
	</g>
</g>
<path class="st50" d="M144.7,12.7c-0.1-0.3,0-0.7,0.3-0.7c1.3,3.1,2.7,6.3,4,9.4c0.2,0.4,0.3,0.7,0.6,0.9c0.6,0.2,1.1-0.6,1.3-1.3
	c1-2.9,1.9-5.9,2.7-8.9"/>
<path class="st50" d="M159.5,20.9c-0.1,0.1,0.2,0.2,0.2,0s-0.1-0.2-0.3-0.3c-0.8-0.2-1.6-0.5-2.3-0.7c-0.6-0.2-1.4-0.4-1.8,0.2
	c-0.2,0.3-0.3,0.8-0.4,1.2c-0.2,1.2-0.4,2.7,0.3,3.5c0.7,0.9,2,0.5,2.7-0.4s1-2.2,1.2-3.4c0.6,1.7,1.6,3.1,2.9,4"/>
<path class="st50" d="M163.7,18.3c-0.2,0.1-0.3,0.5-0.1,0.7c1.4,0,2.8,0,4.2,0c0.4,0,0.9-0.4,0.6-0.7"/>
<path class="st50" d="M130.1,17.9c0.2,3.9,0.2,7.7,0.1,11.6"/>
<path class="st50" d="M126,24.7c3,0.2,6.1,0.1,9.1-0.2"/>
<path class="st50" d="M192.3,23.7c2.8-0.1,5.7-0.1,8.5,0.1"/>
<path class="st50" d="M168.9,14.7c0.3-0.4,0.9-0.3,1.2,0c0.4,0.4,0.5,0.9,0.7,1.5c1,2.8,1.9,5.7,2.9,8.5c1.5-3.5,2.7-7.2,3.7-11.1"
	/>
<path class="st50" d="M180,18.3c0,3.1,0,6.2,0,9.2c-0.2-1.6,0.3-3.3,1.2-4.4c0.7-0.8,1.8-1.2,2.4-0.3c0.5,0.7,0.4,1.8-0.1,2.5
	c-0.4,0.7-1.1,1.1-1.7,1.5c-0.9,0.5-1.8,1.1-2.7,1.6c0.4-0.3,0.7-0.5,1.1-0.8"/>
<path class="st50" d="M108,39.6c6.2-0.3,12.4,0.1,18.5,1.2c-0.1,0.4,0.4,0.8,0.8,0.6"/>
<path class="st50" d="M123.3,36.7c0-0.2-0.1-0.4-0.1-0.7c2.3,1.6,4.6,3.1,6.9,4.7c-2.5,1.4-4.9,2.8-7.4,4.2c0.2,0.3,0.7,0.4,1.1,0.3
	"/>
</svg>
