<?xml version="1.0" encoding="UTF-8" standalone="no"?>
<!-- Generator: Adobe Illustrator 19.1.0, SVG Export Plug-In . SVG Version: 6.00 Build 0)  -->

<svg
   xmlns:dc="http://purl.org/dc/elements/1.1/"
   xmlns:cc="http://creativecommons.org/ns#"
   xmlns:rdf="http://www.w3.org/1999/02/22-rdf-syntax-ns#"
   xmlns:svg="http://www.w3.org/2000/svg"
   xmlns="http://www.w3.org/2000/svg"
   xmlns:sodipodi="http://sodipodi.sourceforge.net/DTD/sodipodi-0.dtd"
   xmlns:inkscape="http://www.inkscape.org/namespaces/inkscape"
   version="1.1"
   id="Layer_1"
   x="0px"
   y="0px"
   width="217.3925"
   height="129"
   viewBox="0 0 217.39251 129"
   xml:space="preserve"
   inkscape:version="0.91 r13725"
   sodipodi:docname="parallel_resistors3.svg"><metadata
     id="metadata77"><rdf:RDF><cc:Work
         rdf:about=""><dc:format>image/svg+xml</dc:format><dc:type
           rdf:resource="http://purl.org/dc/dcmitype/StillImage" /><dc:title></dc:title></cc:Work></rdf:RDF></metadata><defs
     id="defs75" /><sodipodi:namedview
     pagecolor="#ffffff"
     bordercolor="#666666"
     borderopacity="1"
     objecttolerance="10"
     gridtolerance="10"
     guidetolerance="10"
     inkscape:pageopacity="0"
     inkscape:pageshadow="2"
     inkscape:window-width="1240"
     inkscape:window-height="709"
     id="namedview73"
     showgrid="false"
     inkscape:zoom="2.5753968"
     inkscape:cx="93.3925"
     inkscape:cy="64.500001"
     inkscape:window-x="0"
     inkscape:window-y="0"
     inkscape:window-maximized="0"
     inkscape:current-layer="Layer_1"
     fit-margin-top="10"
     fit-margin-right="10"
     fit-margin-bottom="10"
     fit-margin-left="10" /><style
     type="text/css"
     id="style3">
	.st0{fill:none;stroke:#000000;stroke-linecap:round;stroke-miterlimit:10;}
	.st1{fill:#E07D10;}
	.st2{fill:none;stroke:#E07D10;stroke-width:2;stroke-linecap:round;stroke-miterlimit:10;}
	.st3{fill:none;stroke:#000000;stroke-linecap:round;stroke-linejoin:round;stroke-miterlimit:10;}
	.st4{fill:#FF9C39;stroke:#E07D10;stroke-linecap:round;stroke-linejoin:round;stroke-miterlimit:10;}
	.st5{fill:none;stroke:#000000;stroke-width:1.5;stroke-linecap:round;stroke-linejoin:round;stroke-miterlimit:10;}
	.st6{fill:none;stroke:#000000;stroke-width:2;stroke-linecap:round;stroke-linejoin:round;stroke-miterlimit:10;}
	.st7{fill:none;stroke:#000000;stroke-width:1.5;stroke-linecap:round;stroke-miterlimit:10;}
	.st8{fill:none;stroke:#000000;stroke-width:1.5;stroke-miterlimit:10;}
	.st9{fill:none;stroke:#000000;stroke-miterlimit:10;}
	.st10{fill:none;stroke:#000000;stroke-width:2;stroke-miterlimit:10;}
	.st11{fill:none;stroke:#000000;stroke-width:2;stroke-linecap:round;stroke-miterlimit:10;}
	.st12{fill:none;stroke:#000000;stroke-linecap:round;stroke-linejoin:round;}
	.st13{fill:none;}
	.st14{stroke:#000000;stroke-linecap:round;stroke-linejoin:round;stroke-miterlimit:10;}
	.st15{fill:none;stroke:#000000;stroke-width:1.5;stroke-linejoin:round;stroke-miterlimit:10;}
	.st16{fill:none;stroke:#000000;stroke-linejoin:round;stroke-miterlimit:10;}
	.st17{clip-path:url(#SVGID_2_);fill:none;stroke:#000000;stroke-linejoin:round;stroke-miterlimit:10;}
	.st18{clip-path:url(#SVGID_2_);fill:none;stroke:#ADADEB;stroke-linejoin:round;stroke-miterlimit:10;}
	.st19{clip-path:url(#SVGID_2_);}
	.st20{stroke:#000000;stroke-linejoin:round;stroke-miterlimit:10;}
	.st21{stroke:#000000;stroke-width:3;stroke-linejoin:round;stroke-miterlimit:10;}
	.st22{stroke:#000000;stroke-miterlimit:10;}
	.st23{fill:none;stroke:#000000;stroke-linejoin:round;}
	.st24{fill:none;stroke:#11ACCD;stroke-width:4;stroke-linecap:round;stroke-linejoin:round;}
	.st25{fill:#11ACCD;}
	.st26{fill:none;stroke:#E07D10;stroke-width:3;stroke-linecap:round;stroke-linejoin:round;}
	.st27{fill:none;stroke:#11ACCD;stroke-width:2;stroke-linecap:round;stroke-linejoin:round;}
	.st28{fill:none;stroke:#11ACCD;stroke-width:3;stroke-linecap:round;stroke-linejoin:round;}
	.st29{font-family:'KaTeX_Main-Regular';}
	.st30{font-size:21px;}
	.st31{fill:#888D93;}
	.st32{stroke:#000000;stroke-linecap:round;stroke-miterlimit:10;}
	.st33{fill:#01A995;}
	.st34{fill:#66AFE9;}
	.st35{fill:none;stroke:#66AFE9;stroke-miterlimit:10;}
</style><g
     style="font-style:normal;font-variant:normal;font-weight:normal;font-stretch:normal;font-size:22.5px;line-height:125%;font-family:KaTeX_Main;-inkscape-font-specification:'KaTeX_Main, Normal';text-align:start;writing-mode:lr-tb;text-anchor:start"
     id="text5"><path
       d="m 12.3175,56.505 q -0.225,-0.225 -0.45,-0.27 -0.2025,-0.045 -1.125,-0.0675 l -0.7425001,0 0,-1.035 3.9375001,0 q 4.185,0.0225 4.6125,0.09 0.0675,0.0225 0.2925,0.0675 1.0125,0.2025 1.8,0.63 2.1375,1.08 2.4525,2.9475 0.0225,0.1125 0.0225,0.36 0,1.26 -0.9675,2.205 -0.945,0.945 -2.25,1.3725 -0.045,0.0225 -0.1125,0.045 -0.045,0 -0.09,0.0225 l -0.045,0.0225 q 0.0675,0.0675 0.2475,0.135 1.62,0.9 2.0025,2.385 0.0225,0.09 0.2475,1.485 0.225,1.395 0.2475,1.485 0.1575,0.81 0.3825,1.1925 0.2475,0.3825 0.63,0.5175 0.09,0.045 0.3825,0.045 l 0.1125,0 q 0.2925,0 0.54,-0.2475 0.45,-0.45 0.5175,-1.35 0,-0.2475 0.0675,-0.315 0.09,-0.09 0.3825,-0.09 0.27,0 0.36,0.0675 0.09,0.045 0.09,0.27 0,0.81 -0.405,1.485 -0.3825,0.6525 -0.945,0.9 -0.36,0.135 -0.945,0.135 -3.3525,-0.135 -3.87,-2.52 -0.045,-0.2475 -0.0675,-1.6425 0,-1.395 -0.135,-1.8675 Q 19.2925,64.3575 18.82,63.93 18.37,63.48 17.785,63.3 l -0.225,-0.045 -1.485,-0.0225 -1.485,0 0,2.9475 0.0225,2.9475 q 0.1575,0.225 0.3825,0.27 0.2475,0.045 1.17,0.0675 l 0.7425,0 0,1.035 -0.2475,0 q -0.36,-0.0675 -3.195,-0.0675 -2.8575,0 -3.2175,0.0675 l -0.2475001,0 0,-1.035 0.7425001,0 q 0.9225,-0.0225 1.125,-0.0675 0.225,-0.045 0.45,-0.27 l 0,-12.6225 z m 8.1,1.8675 q -0.225,-1.35 -1.215,-1.7775 -0.9675,-0.4275 -2.97,-0.4275 -0.3375,0 -0.765,0.0225 -0.4275,0 -0.45,0 -0.2925,0.0225 -0.36,0.18 -0.0675,0.09 -0.0675,3.06 l 0,2.97 1.305,0 q 1.6875,0 2.4975,-0.135 0.81,-0.1575 1.4175,-0.765 0.3825,-0.3825 0.495,-0.855 0.135,-0.4725 0.135,-1.3725 0,-0.72 -0.0225,-0.9 z"
       style="font-style:normal;font-variant:normal;font-weight:normal;font-stretch:normal;font-size:22.5px;line-height:125%;font-family:KaTeX_Main;-inkscape-font-specification:'KaTeX_Main, Normal';text-align:start;writing-mode:lr-tb;text-anchor:start"
       id="path4216" /><path
       d="m 35.319883,70.5 q -0.3825,-0.0675 -3.5775,-0.0675 -3.15,0 -3.5325,0.0675 l -0.27,0 0,-1.035 0.585,0 q 1.305,0 1.6875,-0.0675 0.18,-0.0225 0.54,-0.27 l 0,-11.6325 q -0.045,0 -0.18,0.0675 -1.035,0.405 -2.3175,0.4275 l -0.4275,0 0,-1.035 0.4275,0 q 1.89,-0.0675 3.15,-0.855 0.405,-0.225 0.6975,-0.5175 0.045,-0.0675 0.27,-0.0675 0.225,0 0.3825,0.135 l 0,6.7275 0.0225,6.75 q 0.3375,0.3375 1.4625,0.3375 l 0.7425,0 0.585,0 0,1.035 -0.2475,0 z"
       style="font-style:normal;font-variant:normal;font-weight:normal;font-stretch:normal;font-size:22.5px;line-height:125%;font-family:KaTeX_Main;-inkscape-font-specification:'KaTeX_Main, Normal';text-align:start;writing-mode:lr-tb;text-anchor:start"
       id="path4218" /></g><g
     style="font-style:normal;font-variant:normal;font-weight:normal;font-stretch:normal;font-size:22.5px;line-height:125%;font-family:KaTeX_Main;-inkscape-font-specification:'KaTeX_Main, Normal';text-align:start;writing-mode:lr-tb;text-anchor:start"
     id="text7"><path
       d="m 84.317502,56.505 q -0.225,-0.225 -0.45,-0.27 -0.2025,-0.045 -1.125,-0.0675 l -0.7425,0 0,-1.035 3.9375,0 q 4.185,0.0225 4.6125,0.09 0.0675,0.0225 0.2925,0.0675 1.0125,0.2025 1.8,0.63 2.1375,1.08 2.4525,2.9475 0.0225,0.1125 0.0225,0.36 0,1.26 -0.9675,2.205 -0.945,0.945 -2.25,1.3725 -0.045,0.0225 -0.1125,0.045 -0.045,0 -0.09,0.0225 l -0.045,0.0225 q 0.0675,0.0675 0.2475,0.135 1.62,0.9 2.0025,2.385 0.0225,0.09 0.2475,1.485 0.225,1.395 0.2475,1.485 0.1575,0.81 0.3825,1.1925 0.2475,0.3825 0.63,0.5175 0.09,0.045 0.3825,0.045 l 0.1125,0 q 0.2925,0 0.54,-0.2475 0.45,-0.45 0.5175,-1.35 0,-0.2475 0.0675,-0.315 0.09,-0.09 0.3825,-0.09 0.27,0 0.36,0.0675 0.09,0.045 0.09,0.27 0,0.81 -0.405,1.485 -0.3825,0.6525 -0.945,0.9 -0.36,0.135 -0.945,0.135 -3.3525,-0.135 -3.87,-2.52 -0.045,-0.2475 -0.0675,-1.6425 0,-1.395 -0.135,-1.8675 -0.2025,-0.6075 -0.675,-1.035 -0.45,-0.45 -1.035,-0.63 l -0.225,-0.045 -1.485,-0.0225 -1.485,0 0,2.9475 0.0225,2.9475 q 0.1575,0.225 0.3825,0.27 0.2475,0.045 1.17,0.0675 l 0.7425,0 0,1.035 -0.2475,0 q -0.36,-0.0675 -3.195,-0.0675 -2.8575,0 -3.2175,0.0675 l -0.2475,0 0,-1.035 0.7425,0 q 0.9225,-0.0225 1.125,-0.0675 0.225,-0.045 0.45,-0.27 l 0,-12.6225 z m 8.1,1.8675 q -0.225,-1.35 -1.215,-1.7775 -0.9675,-0.4275 -2.97,-0.4275 -0.3375,0 -0.765,0.0225 -0.4275,0 -0.45,0 -0.2925,0.0225 -0.36,0.18 -0.0675,0.09 -0.0675,3.06 l 0,2.97 1.305,0 q 1.6875,0 2.4975,-0.135 0.81,-0.1575 1.4175,-0.765 0.3825,-0.3825 0.495,-0.855 0.135,-0.4725 0.135,-1.3725 0,-0.72 -0.0225,-0.9 z"
       style="font-style:normal;font-variant:normal;font-weight:normal;font-stretch:normal;font-size:22.5px;line-height:125%;font-family:KaTeX_Main;-inkscape-font-specification:'KaTeX_Main, Normal';text-align:start;writing-mode:lr-tb;text-anchor:start"
       id="path4211" /><path
       d="m 100.43488,60.8475 q -0.629995,0 -0.989995,-0.405 -0.36,-0.405 -0.36,-0.99 0,-1.62 1.214995,-2.7675 1.2375,-1.17 2.9475,-1.17 1.935,0 3.195,1.0575 1.2825,1.035 1.575,2.7225 0.045,0.405 0.045,0.7425 0,1.305 -0.7875,2.4525 -0.63,0.945 -2.5425,2.5875 -0.81,0.6975 -2.25,2.07 l -1.3275,1.26 1.71,0.0225 q 3.5325,0 3.7575,-0.1125 0.09,-0.0225 0.225,-0.4725 0.09,-0.2475 0.315,-1.53 l 0,-0.0675 0.9,0 0,0.0675 -0.63,4.1175 0,0.0675 -8.347495,0 0,-0.4275 q 0,-0.45 0.045,-0.5175 0.0225,-0.0225 1.889995,-2.1375 2.4525,-2.7225 3.15,-3.6 1.5075,-2.0475 1.5075,-3.7575 0,-1.485 -0.7875,-2.475 -0.765,-1.0125 -2.16,-1.0125 -1.305,0 -2.115,1.17 -0.045,0.09 -0.135,0.2475 -0.0675,0.1125 -0.0675,0.135 0,0.0225 0.1125,0.0225 0.5625,0 0.9,0.405 0.36,0.405 0.36,0.945 0,0.5625 -0.3825,0.9675 -0.36,0.3825 -0.9675,0.3825 z"
       style="font-style:normal;font-variant:normal;font-weight:normal;font-stretch:normal;font-size:22.5px;line-height:125%;font-family:KaTeX_Main;-inkscape-font-specification:'KaTeX_Main, Normal';text-align:start;writing-mode:lr-tb;text-anchor:start"
       id="path4213" /></g><g
     style="font-style:normal;font-variant:normal;font-weight:normal;font-stretch:normal;font-size:22.5px;line-height:125%;font-family:KaTeX_Main;-inkscape-font-specification:'KaTeX_Main, Normal';text-align:start;writing-mode:lr-tb;text-anchor:start"
     id="text9"><path
       d="m 156.3175,56.505 q -0.225,-0.225 -0.45,-0.27 -0.2025,-0.045 -1.125,-0.0675 l -0.7425,0 0,-1.035 3.9375,0 q 4.185,0.0225 4.6125,0.09 0.0675,0.0225 0.2925,0.0675 1.0125,0.2025 1.8,0.63 2.1375,1.08 2.4525,2.9475 0.0225,0.1125 0.0225,0.36 0,1.26 -0.9675,2.205 -0.945,0.945 -2.25,1.3725 -0.045,0.0225 -0.1125,0.045 -0.045,0 -0.09,0.0225 l -0.045,0.0225 q 0.0675,0.0675 0.2475,0.135 1.62,0.9 2.0025,2.385 0.0225,0.09 0.2475,1.485 0.225,1.395 0.2475,1.485 0.1575,0.81 0.3825,1.1925 0.2475,0.3825 0.63,0.5175 0.09,0.045 0.3825,0.045 l 0.1125,0 q 0.2925,0 0.54,-0.2475 0.45,-0.45 0.5175,-1.35 0,-0.2475 0.0675,-0.315 0.09,-0.09 0.3825,-0.09 0.27,0 0.36,0.0675 0.09,0.045 0.09,0.27 0,0.81 -0.405,1.485 -0.3825,0.6525 -0.945,0.9 -0.36,0.135 -0.945,0.135 -3.3525,-0.135 -3.87,-2.52 -0.045,-0.2475 -0.0675,-1.6425 0,-1.395 -0.135,-1.8675 -0.2025,-0.6075 -0.675,-1.035 -0.45,-0.45 -1.035,-0.63 l -0.225,-0.045 -1.485,-0.0225 -1.485,0 0,2.9475 0.0225,2.9475 q 0.1575,0.225 0.3825,0.27 0.2475,0.045 1.17,0.0675 l 0.7425,0 0,1.035 -0.2475,0 q -0.36,-0.0675 -3.195,-0.0675 -2.8575,0 -3.2175,0.0675 l -0.2475,0 0,-1.035 0.7425,0 q 0.9225,-0.0225 1.125,-0.0675 0.225,-0.045 0.45,-0.27 l 0,-12.6225 z m 8.1,1.8675 q -0.225,-1.35 -1.215,-1.7775 -0.9675,-0.4275 -2.97,-0.4275 -0.3375,0 -0.765,0.0225 -0.4275,0 -0.45,0 -0.2925,0.0225 -0.36,0.18 -0.0675,0.09 -0.0675,3.06 l 0,2.97 1.305,0 q 1.6875,0 2.4975,-0.135 0.81,-0.1575 1.4175,-0.765 0.3825,-0.3825 0.495,-0.855 0.135,-0.4725 0.135,-1.3725 0,-0.72 -0.0225,-0.9 z"
       style="font-style:normal;font-variant:normal;font-weight:normal;font-stretch:normal;font-size:22.5px;line-height:125%;font-family:KaTeX_Main;-inkscape-font-specification:'KaTeX_Main, Normal';text-align:start;writing-mode:lr-tb;text-anchor:start"
       id="path4206" /><path
       d="m 172.81738,60.0825 q -0.6075,0 -0.9675,-0.3825 -0.3375,-0.3825 -0.3375,-0.99 0,-1.2825 1.0125,-2.1375 1.0125,-0.8775 2.34,-1.035 l 0.3375,0 q 0.7875,0 0.99,0.0225 0.7425,0.1125 1.5075,0.4725 1.485,0.7425 1.8675,2.115 0.0675,0.225 0.0675,0.6075 0,1.3275 -0.8325,2.385 -0.81,1.035 -2.0475,1.485 -0.1125,0.045 0,0.0675 0.045,0.0225 0.225,0.0675 1.3725,0.3825 2.3175,1.44 0.945,1.035 0.945,2.3625 0,0.9225 -0.4275,1.7775 -0.54,1.1475 -1.7775,1.9125 -1.215,0.7425 -2.7225,0.7425 -1.485,0 -2.6325,-0.63 -1.1475,-0.63 -1.5525,-1.6875 -0.225,-0.4725 -0.225,-1.1025 0,-0.63 0.405,-1.0125 0.4275,-0.405 1.0125,-0.405 0.63,0 1.035,0.405 0.405,0.405 0.405,1.0125 0,0.5175 -0.2925,0.9 -0.2925,0.3825 -0.7875,0.495 l -0.1575,0.045 q 1.215,1.0125 2.79,1.0125 1.2375,0 1.8675,-1.1925 0.3825,-0.7425 0.3825,-2.2725 l 0,-0.45 q 0,-2.1375 -1.44,-2.8575 -0.3375,-0.135 -1.3725,-0.1575 l -0.945,-0.0225 -0.0675,-0.045 q -0.045,-0.0675 -0.045,-0.36 0,-0.27 0.0675,-0.3375 0.0675,-0.0675 0.1125,-0.0675 0.63,0 1.305,-0.1125 0.99,-0.135 1.5075,-1.1025 0.5175,-0.99 0.5175,-2.3625 0,-1.4625 -0.7875,-1.9575 -0.4725,-0.315 -1.0575,-0.315 -1.125,0 -1.98,0.6075 -0.09,0.045 -0.2025,0.1575 -0.1125,0.09 -0.18,0.18 l -0.0675,0.09 q 0.0675,0.0225 0.1575,0.045 0.45,0.045 0.7425,0.4275 0.315,0.3825 0.315,0.8775 0,0.54 -0.3825,0.9225 -0.36,0.36 -0.945,0.36 z"
       style="font-style:normal;font-variant:normal;font-weight:normal;font-stretch:normal;font-size:22.5px;line-height:125%;font-family:KaTeX_Main;-inkscape-font-specification:'KaTeX_Main, Normal';text-align:start;writing-mode:lr-tb;text-anchor:start"
       id="path4208" /></g><g
     id="g11"
     transform="translate(-32.6075,4.4999997)"><circle
       class="st14"
       cx="84"
       cy="18"
       r="1.5"
       id="circle13"
       style="stroke:#000000;stroke-linecap:round;stroke-linejoin:round;stroke-miterlimit:10" /><rect
       x="78"
       y="12"
       class="st13"
       width="12"
       height="12"
       id="rect15"
       style="fill:none" /></g><g
     id="g17"
     transform="translate(-32.6075,4.4999997)"><circle
       class="st14"
       cx="156"
       cy="18"
       r="1.5"
       id="circle19"
       style="stroke:#000000;stroke-linecap:round;stroke-linejoin:round;stroke-miterlimit:10" /><rect
       x="150"
       y="12"
       class="st13"
       width="18"
       height="12"
       id="rect21"
       style="fill:none" /></g><g
     id="g23"
     transform="translate(-32.6075,4.4999997)"><circle
       class="st14"
       cx="156"
       cy="102"
       r="1.5"
       id="circle25"
       style="stroke:#000000;stroke-linecap:round;stroke-linejoin:round;stroke-miterlimit:10" /><rect
       x="150"
       y="96"
       class="st13"
       width="18"
       height="12"
       id="rect27"
       style="fill:none" /></g><g
     id="g29"
     transform="translate(-32.6075,4.4999997)"><circle
       class="st14"
       cx="84"
       cy="102"
       r="1.5"
       id="circle31"
       style="stroke:#000000;stroke-linecap:round;stroke-linejoin:round;stroke-miterlimit:10" /><rect
       x="78"
       y="96"
       class="st13"
       width="12"
       height="12"
       id="rect33"
       style="fill:none" /></g><g
     id="g35"
     transform="translate(-32.6075,4.4999997)"><line
       class="st3"
       x1="84"
       y1="36.599998"
       x2="84"
       y2="18"
       id="line37"
       style="fill:none;stroke:#000000;stroke-linecap:round;stroke-linejoin:round;stroke-miterlimit:10" /><polyline
       class="st6"
       points="84,83.4 75,79.5 93,71.7 75,63.9 93,56.1 75,48.3 93,40.5 84,36.6  "
       id="polyline39"
       style="fill:none;stroke:#000000;stroke-width:2;stroke-linecap:round;stroke-linejoin:round;stroke-miterlimit:10" /><line
       class="st3"
       x1="84"
       y1="102"
       x2="84"
       y2="83.400002"
       id="line41"
       style="fill:none;stroke:#000000;stroke-linecap:round;stroke-linejoin:round;stroke-miterlimit:10" /><rect
       x="72"
       y="18"
       class="st13"
       width="36"
       height="84"
       id="rect43"
       style="fill:none" /></g><g
     id="g45"
     transform="translate(-32.6075,4.4999997)"><line
       class="st3"
       x1="156"
       y1="36.599998"
       x2="156"
       y2="18"
       id="line47"
       style="fill:none;stroke:#000000;stroke-linecap:round;stroke-linejoin:round;stroke-miterlimit:10" /><polyline
       class="st6"
       points="156,83.4 147,79.5 165,71.7 147,63.9 165,56.1 147,48.3 165,40.5 156,36.6  "
       id="polyline49"
       style="fill:none;stroke:#000000;stroke-width:2;stroke-linecap:round;stroke-linejoin:round;stroke-miterlimit:10" /><line
       class="st3"
       x1="156"
       y1="102"
       x2="156"
       y2="83.400002"
       id="line51"
       style="fill:none;stroke:#000000;stroke-linecap:round;stroke-linejoin:round;stroke-miterlimit:10" /><rect
       x="144"
       y="18"
       class="st13"
       width="36"
       height="84"
       id="rect53"
       style="fill:none" /></g><g
     id="g55"
     transform="translate(-32.6075,4.4999997)"><line
       class="st3"
       x1="228"
       y1="36.599998"
       x2="228"
       y2="18"
       id="line57"
       style="fill:none;stroke:#000000;stroke-linecap:round;stroke-linejoin:round;stroke-miterlimit:10" /><polyline
       class="st6"
       points="228,83.4 219,79.5 237,71.7 219,63.9 237,56.1 219,48.3 237,40.5 228,36.6  "
       id="polyline59"
       style="fill:none;stroke:#000000;stroke-width:2;stroke-linecap:round;stroke-linejoin:round;stroke-miterlimit:10" /><line
       class="st3"
       x1="228"
       y1="102"
       x2="228"
       y2="83.400002"
       id="line61"
       style="fill:none;stroke:#000000;stroke-linecap:round;stroke-linejoin:round;stroke-miterlimit:10" /><rect
       x="216"
       y="18"
       class="st13"
       width="24"
       height="84"
       id="rect63"
       style="fill:none" /></g><line
     class="st9"
     x1="195.3925"
     y1="106.5"
     x2="21.3925"
     y2="106.5"
     id="line65"
     style="fill:none;stroke:#000000;stroke-miterlimit:10" /><line
     class="st9"
     x1="195.3925"
     y1="22.5"
     x2="21.3925"
     y2="22.5"
     id="line67"
     style="fill:none;stroke:#000000;stroke-miterlimit:10" /><rect
     x="75.392502"
     y="10.5"
     class="st4"
     width="24"
     height="24"
     id="rect69"
     style="fill:#ff9c39;stroke:#e07d10;stroke-linecap:round;stroke-linejoin:round;stroke-miterlimit:10" /><rect
     x="147.3925"
     y="94.5"
     class="st4"
     width="24"
     height="24"
     id="rect71"
     style="fill:#ff9c39;stroke:#e07d10;stroke-linecap:round;stroke-linejoin:round;stroke-miterlimit:10" /></svg>