<?xml version="1.0" encoding="UTF-8" standalone="no"?>
<!-- Generator: Adobe Illustrator 19.1.0, SVG Export Plug-In . SVG Version: 6.00 Build 0)  -->

<svg
   xmlns:dc="http://purl.org/dc/elements/1.1/"
   xmlns:cc="http://creativecommons.org/ns#"
   xmlns:rdf="http://www.w3.org/1999/02/22-rdf-syntax-ns#"
   xmlns:svg="http://www.w3.org/2000/svg"
   xmlns="http://www.w3.org/2000/svg"
   xmlns:sodipodi="http://sodipodi.sourceforge.net/DTD/sodipodi-0.dtd"
   xmlns:inkscape="http://www.inkscape.org/namespaces/inkscape"
   version="1.1"
   id="Layer_1"
   x="0px"
   y="0px"
   width="158.93134"
   height="105.01424"
   viewBox="0 0 158.93133 105.01425"
   xml:space="preserve"
   inkscape:version="0.91 r13725"
   sodipodi:docname="parallel_conductance1.svg"><metadata
     id="metadata39"><rdf:RDF><cc:Work
         rdf:about=""><dc:format>image/svg+xml</dc:format><dc:type
           rdf:resource="http://purl.org/dc/dcmitype/StillImage" /><dc:title></dc:title></cc:Work></rdf:RDF></metadata><defs
     id="defs37" /><sodipodi:namedview
     pagecolor="#ffffff"
     bordercolor="#666666"
     borderopacity="1"
     objecttolerance="10"
     gridtolerance="10"
     guidetolerance="10"
     inkscape:pageopacity="0"
     inkscape:pageshadow="2"
     inkscape:window-width="640"
     inkscape:window-height="480"
     id="namedview35"
     showgrid="false"
     fit-margin-top="10"
     fit-margin-right="10"
     fit-margin-bottom="10"
     fit-margin-left="10"
     inkscape:zoom="4.2659932"
     inkscape:cx="79.465668"
     inkscape:cy="52.507118"
     inkscape:current-layer="Layer_1" /><style
     type="text/css"
     id="style3">
	.st0{fill:none;stroke:#000000;stroke-linecap:round;stroke-miterlimit:10;}
	.st1{fill:#E07D10;}
	.st2{fill:none;stroke:#E07D10;stroke-width:2;stroke-linecap:round;stroke-miterlimit:10;}
	.st3{fill:none;stroke:#000000;stroke-linecap:round;stroke-linejoin:round;stroke-miterlimit:10;}
	.st4{fill:#FF9C39;stroke:#E07D10;stroke-linecap:round;stroke-linejoin:round;stroke-miterlimit:10;}
	.st5{fill:none;stroke:#000000;stroke-width:1.5;stroke-linecap:round;stroke-linejoin:round;stroke-miterlimit:10;}
	.st6{fill:none;stroke:#000000;stroke-width:2;stroke-linecap:round;stroke-linejoin:round;stroke-miterlimit:10;}
	.st7{fill:none;stroke:#000000;stroke-width:1.5;stroke-linecap:round;stroke-miterlimit:10;}
	.st8{fill:none;stroke:#000000;stroke-width:1.5;stroke-miterlimit:10;}
	.st9{fill:none;stroke:#000000;stroke-miterlimit:10;}
	.st10{fill:none;stroke:#000000;stroke-width:2;stroke-miterlimit:10;}
	.st11{fill:none;stroke:#000000;stroke-width:2;stroke-linecap:round;stroke-miterlimit:10;}
	.st12{fill:none;stroke:#000000;stroke-linecap:round;stroke-linejoin:round;}
	.st13{fill:none;}
	.st14{stroke:#000000;stroke-linecap:round;stroke-linejoin:round;stroke-miterlimit:10;}
	.st15{fill:none;stroke:#000000;stroke-width:1.5;stroke-linejoin:round;stroke-miterlimit:10;}
	.st16{fill:none;stroke:#000000;stroke-linejoin:round;stroke-miterlimit:10;}
	.st17{clip-path:url(#SVGID_2_);fill:none;stroke:#000000;stroke-linejoin:round;stroke-miterlimit:10;}
	.st18{clip-path:url(#SVGID_2_);fill:none;stroke:#ADADEB;stroke-linejoin:round;stroke-miterlimit:10;}
	.st19{clip-path:url(#SVGID_2_);}
	.st20{stroke:#000000;stroke-linejoin:round;stroke-miterlimit:10;}
	.st21{stroke:#000000;stroke-width:3;stroke-linejoin:round;stroke-miterlimit:10;}
	.st22{stroke:#000000;stroke-miterlimit:10;}
	.st23{fill:none;stroke:#000000;stroke-linejoin:round;}
	.st24{fill:none;stroke:#11ACCD;stroke-width:4;stroke-linecap:round;stroke-linejoin:round;}
	.st25{fill:#11ACCD;}
	.st26{fill:none;stroke:#E07D10;stroke-width:3;stroke-linecap:round;stroke-linejoin:round;}
	.st27{fill:none;stroke:#11ACCD;stroke-width:2;stroke-linecap:round;stroke-linejoin:round;}
	.st28{fill:none;stroke:#11ACCD;stroke-width:3;stroke-linecap:round;stroke-linejoin:round;}
	.st29{fill:#888D93;}
	.st30{stroke:#000000;stroke-linecap:round;stroke-miterlimit:10;}
	.st31{font-family:'KaTeX_Main-Regular';}
	.st32{font-size:21px;}
	.st33{letter-spacing:2;}
	.st34{fill:#01A995;}
	.st35{fill:#66AFE9;}
	.st36{fill:none;stroke:#66AFE9;stroke-miterlimit:10;}
</style><g
     id="g5"
     transform="translate(-3.8676035,4.5071212)"><line
       class="st3"
       x1="82.300003"
       y1="24.6"
       x2="82.300003"
       y2="6"
       id="line7"
       style="fill:none;stroke:#000000;stroke-linecap:round;stroke-linejoin:round;stroke-miterlimit:10" /><polyline
       class="st6"
       points="82.3,71.4 73.3,67.5 91.3,59.7 73.3,51.9 91.3,44.1 73.3,36.3 91.3,28.5 82.3,24.6  "
       id="polyline9"
       style="fill:none;stroke:#000000;stroke-width:2;stroke-linecap:round;stroke-linejoin:round;stroke-miterlimit:10" /><line
       class="st3"
       x1="82.300003"
       y1="90"
       x2="82.300003"
       y2="71.400002"
       id="line11"
       style="fill:none;stroke:#000000;stroke-linecap:round;stroke-linejoin:round;stroke-miterlimit:10" /><rect
       x="70.300003"
       y="6"
       class="st13"
       width="24"
       height="84"
       id="rect13"
       style="fill:none" /></g><g
     style="font-style:normal;font-variant:normal;font-weight:normal;font-stretch:normal;font-size:22.5px;line-height:125%;font-family:KaTeX_Main;-inkscape-font-specification:'KaTeX_Main, Normal';text-align:start;writing-mode:lr-tb;text-anchor:start"
     id="text15"><path
       d="m 17.4925,64.507118 q -0.3825,-0.0675 -3.5775,-0.0675 -3.15,0 -3.5325,0.0675 l -0.27,0 0,-1.035 0.585,0 q 1.305,0 1.6875,-0.0675 0.18,-0.0225 0.54,-0.27 l 0,-11.6325 q -0.045,0 -0.18,0.0675 -1.035,0.405 -2.3175,0.4275 l -0.4275003,0 0,-1.035 0.4275003,0 q 1.89,-0.0675 3.15,-0.855 0.405,-0.225 0.6975,-0.5175 0.045,-0.0675 0.27,-0.0675 0.225,0 0.3825,0.135 l 0,6.7275 0.0225,6.75 q 0.3375,0.3375 1.4625,0.3375 l 0.7425,0 0.585,0 0,1.035 -0.2475,0 z"
       style="font-style:normal;font-variant:normal;font-weight:normal;font-stretch:normal;font-size:22.5px;line-height:125%;font-family:KaTeX_Main;-inkscape-font-specification:'KaTeX_Main, Normal';text-align:start;writing-mode:lr-tb;text-anchor:start"
       id="path4166" /><path
       d="m 21.5425,51.344618 q 1.26,-1.8225 3.4425,-1.8225 1.6425,0 2.88,1.125 0.6075,0.585 1.035,1.53 0.8325,1.8675 0.8325,5.13 0,3.4875 -0.9675,5.3325 -0.63,1.305 -1.845,1.89 -0.945,0.4725 -1.9125,0.4725 -2.5875,0 -3.78,-2.3625 -0.9675,-1.845 -0.9675,-5.3325 0,-2.0925 0.27,-3.4425 0.2925,-1.3725 1.0125,-2.52 z m 5.0625,-0.27 q -0.6525,-0.72 -1.5975,-0.72 -0.945,0 -1.62,0.72 -0.495,0.5175 -0.675,1.26 -0.18,0.7425 -0.225,2.565 0,0.135 -0.0225,0.8775 0,0.7425 0,1.2375 0,2.16 0.045,3.015 0.09,1.575 0.27,2.2725 0.18,0.675 0.675,1.17 0.6075,0.675 1.5525,0.675 0.9225,0 1.53,-0.675 0.495,-0.495 0.675,-1.17 0.18,-0.6975 0.27,-2.2725 0.045,-0.855 0.045,-3.015 0,-0.495 -0.0225,-1.2375 0,-0.7425 0,-0.8775 -0.045,-1.8225 -0.225,-2.565 -0.18,-0.7425 -0.675,-1.26 z"
       style="font-style:normal;font-variant:normal;font-weight:normal;font-stretch:normal;font-size:22.5px;line-height:125%;font-family:KaTeX_Main;-inkscape-font-specification:'KaTeX_Main, Normal';text-align:start;writing-mode:lr-tb;text-anchor:start"
       id="path4168" /><path
       d="m 32.7925,51.344618 q 1.26,-1.8225 3.4425,-1.8225 1.6425,0 2.88,1.125 0.6075,0.585 1.035,1.53 0.8325,1.8675 0.8325,5.13 0,3.4875 -0.9675,5.3325 -0.63,1.305 -1.845,1.89 -0.945,0.4725 -1.9125,0.4725 -2.5875,0 -3.78,-2.3625 -0.9675,-1.845 -0.9675,-5.3325 0,-2.0925 0.27,-3.4425 0.2925,-1.3725 1.0125,-2.52 z m 5.0625,-0.27 q -0.6525,-0.72 -1.5975,-0.72 -0.945,0 -1.62,0.72 -0.495,0.5175 -0.675,1.26 -0.18,0.7425 -0.225,2.565 0,0.135 -0.0225,0.8775 0,0.7425 0,1.2375 0,2.16 0.045,3.015 0.09,1.575 0.27,2.2725 0.18,0.675 0.675,1.17 0.6075,0.675 1.5525,0.675 0.9225,0 1.53,-0.675 0.495,-0.495 0.675,-1.17 0.18,-0.6975 0.27,-2.2725 0.045,-0.855 0.045,-3.015 0,-0.495 -0.0225,-1.2375 0,-0.7425 0,-0.8775 -0.045,-1.8225 -0.225,-2.565 -0.18,-0.7425 -0.675,-1.26 z"
       style="font-style:normal;font-variant:normal;font-weight:normal;font-stretch:normal;font-size:22.5px;line-height:125%;font-family:KaTeX_Main;-inkscape-font-specification:'KaTeX_Main, Normal';text-align:start;writing-mode:lr-tb;text-anchor:start"
       id="path4170" /><path
       d="m 50.9575,64.057118 q 0,0.2925 -0.1575,0.45 l -4.185,0 0,-0.045 q -0.0225,-0.0225 -0.36,-1.9575 l -0.3825,-1.935 0,-0.045 0.9,0 0.0225,0.1125 q 0,0.1125 0.09,0.4275 0.1575,1.0125 0.3375,1.35 0.09,0.1125 0.1575,0.1575 0.2925,0.1125 1.5075,0.135 l 0.99,0 0,-0.0675 q -0.1125,-0.36 -0.495,-1.1925 -0.36,-0.6975 -1.2375,-2.07 -1.44,-2.3175 -1.8,-3.5325 -0.225,-0.8325 -0.225,-1.5525 0,-0.675 0.18,-1.2825 0.495,-1.6875 2.0925,-2.9025 1.5975,-1.2375 3.735,-1.4175 0.135,-0.0225 0.3375,-0.0225 l 0.3375,0 q 3.1725,0 5.1975,1.7325 1.2825,1.125 1.6875,2.61 0.18,0.6075 0.18,1.2825 0,0.72 -0.225,1.5525 -0.36,1.215 -1.8,3.5325 -0.8775,1.3725 -1.2375,2.07 -0.3825,0.8325 -0.495,1.1925 l 0,0.0675 0.99,0 q 1.215,-0.0225 1.5075,-0.135 0.09,-0.045 0.1575,-0.1575 0.1575,-0.3375 0.3375,-1.35 0.09,-0.315 0.09,-0.4275 l 0.0225,-0.1125 0.9,0 0,0.045 -0.3825,1.935 q -0.3375,1.935 -0.36,1.9575 l 0,0.045 -2.07,0 q -1.665,0 -1.935,0 -0.2475,-0.0225 -0.2925,-0.135 -0.045,-0.09 -0.045,-0.315 0,-0.6525 0.2025,-1.7775 0.18,-0.9 0.8775,-3.0375 0.72,-2.1825 0.945,-3.42 0.1575,-0.945 0.1575,-1.5525 0,-3.1725 -2.3175,-4.3425 -0.945,-0.45 -1.89,-0.45 -2.295,0 -3.51,1.9125 -0.6975,1.1025 -0.6975,2.8575 0,0.765 0.135,1.575 0.225,1.2375 0.945,3.42 0.6975,2.1375 0.8775,3.0375 0.2025,1.1025 0.2025,1.7775 z"
       style="font-style:normal;font-variant:normal;font-weight:normal;font-stretch:normal;font-size:22.5px;line-height:125%;font-family:KaTeX_Main;-inkscape-font-specification:'KaTeX_Main, Normal';text-align:start;writing-mode:lr-tb;text-anchor:start"
       id="path4172" /></g><g
     style="font-style:normal;font-variant:normal;font-weight:normal;font-stretch:normal;font-size:22.5px;line-height:125%;font-family:KaTeX_Main;-inkscape-font-specification:'KaTeX_Main, Normal';text-align:start;writing-mode:lr-tb;text-anchor:start"
     id="text23"><path
       d="m 96.851093,51.344618 q 1.26,-1.8225 3.442497,-1.8225 1.6425,0 2.88,1.125 0.6075,0.585 1.035,1.53 0.8325,1.8675 0.8325,5.13 0,3.4875 -0.9675,5.3325 -0.63,1.305 -1.845,1.89 -0.945,0.4725 -1.9125,0.4725 -2.587497,0 -3.779997,-2.3625 -0.9675,-1.845 -0.9675,-5.3325 0,-2.0925 0.27,-3.4425 0.2925,-1.3725 1.0125,-2.52 z m 5.062497,-0.27 q -0.6525,-0.72 -1.5975,-0.72 -0.944997,0 -1.619997,0.72 -0.495,0.5175 -0.675,1.26 -0.18,0.7425 -0.225,2.565 0,0.135 -0.0225,0.8775 0,0.7425 0,1.2375 0,2.16 0.045,3.015 0.09,1.575 0.27,2.2725 0.18,0.675 0.675,1.17 0.6075,0.675 1.552497,0.675 0.9225,0 1.53,-0.675 0.495,-0.495 0.675,-1.17 0.18,-0.6975 0.27,-2.2725 0.045,-0.855 0.045,-3.015 0,-0.495 -0.0225,-1.2375 0,-0.7425 0,-0.8775 -0.045,-1.8225 -0.225,-2.565 -0.18,-0.7425 -0.675,-1.26 z"
       style="font-style:normal;font-variant:normal;font-weight:normal;font-stretch:normal;font-size:22.5px;line-height:125%;font-family:KaTeX_Main;-inkscape-font-specification:'KaTeX_Main, Normal';text-align:start;writing-mode:lr-tb;text-anchor:start"
       id="path4155" /><path
       d="m 107.69609,63.157118 q 0,-0.585 0.3825,-0.9675 0.3825,-0.3825 0.9675,-0.3825 0.585,0 0.9675,0.405 0.405,0.3825 0.405,0.9225 0,0.585 -0.405,0.99 -0.405,0.3825 -0.945,0.3825 -0.585,0 -0.99,-0.405 -0.3825,-0.405 -0.3825,-0.945 z"
       style="font-style:normal;font-variant:normal;font-weight:normal;font-stretch:normal;font-size:22.5px;line-height:125%;font-family:KaTeX_Main;-inkscape-font-specification:'KaTeX_Main, Normal';text-align:start;writing-mode:lr-tb;text-anchor:start"
       id="path4157" /><path
       d="m 114.34133,51.344618 q 1.26,-1.8225 3.4425,-1.8225 1.6425,0 2.88,1.125 0.6075,0.585 1.035,1.53 0.8325,1.8675 0.8325,5.13 0,3.4875 -0.9675,5.3325 -0.63,1.305 -1.845,1.89 -0.945,0.4725 -1.9125,0.4725 -2.5875,0 -3.78,-2.3625 -0.9675,-1.845 -0.9675,-5.3325 0,-2.0925 0.27,-3.4425 0.2925,-1.3725 1.0125,-2.52 z m 5.0625,-0.27 q -0.6525,-0.72 -1.5975,-0.72 -0.945,0 -1.62,0.72 -0.495,0.5175 -0.675,1.26 -0.18,0.7425 -0.225,2.565 0,0.135 -0.0225,0.8775 0,0.7425 0,1.2375 0,2.16 0.045,3.015 0.09,1.575 0.27,2.2725 0.18,0.675 0.675,1.17 0.6075,0.675 1.5525,0.675 0.9225,0 1.53,-0.675 0.495,-0.495 0.675,-1.17 0.18,-0.6975 0.27,-2.2725 0.045,-0.855 0.045,-3.015 0,-0.495 -0.0225,-1.2375 0,-0.7425 0,-0.8775 -0.045,-1.8225 -0.225,-2.565 -0.18,-0.7425 -0.675,-1.26 z"
       style="font-style:normal;font-variant:normal;font-weight:normal;font-stretch:normal;font-size:22.5px;line-height:125%;font-family:KaTeX_Main;-inkscape-font-specification:'KaTeX_Main, Normal';text-align:start;writing-mode:lr-tb;text-anchor:start"
       id="path4159" /><path
       d="m 132.79133,64.507118 q -0.3825,-0.0675 -3.5775,-0.0675 -3.15,0 -3.5325,0.0675 l -0.27,0 0,-1.035 0.585,0 q 1.305,0 1.6875,-0.0675 0.18,-0.0225 0.54,-0.27 l 0,-11.6325 q -0.045,0 -0.18,0.0675 -1.035,0.405 -2.3175,0.4275 l -0.4275,0 0,-1.035 0.4275,0 q 1.89,-0.0675 3.15,-0.855 0.405,-0.225 0.6975,-0.5175 0.045,-0.0675 0.27,-0.0675 0.225,0 0.3825,0.135 l 0,6.7275 0.0225,6.75 q 0.3375,0.3375 1.4625,0.3375 l 0.7425,0 0.585,0 0,1.035 -0.2475,0 z"
       style="font-style:normal;font-variant:normal;font-weight:normal;font-stretch:normal;font-size:22.5px;line-height:125%;font-family:KaTeX_Main;-inkscape-font-specification:'KaTeX_Main, Normal';text-align:start;writing-mode:lr-tb;text-anchor:start"
       id="path4161" /><path
       d="m 139.68383,59.399618 q 0.135,0.135 0.135,0.2925 0,2.0025 1.2825,3.15 1.305,1.125 3.4425,1.125 0.27,0 0.36,-0.0225 0.99,-0.2025 1.5975,-1.0125 0.63,-0.81 0.63,-1.9125 0,-0.9675 -0.5175,-1.755 -0.495,-0.81 -1.2825,-1.08 -1.26,-0.315 -1.665,-0.4275 -1.6875,-0.405 -1.7325,-0.4275 -1.305,-0.45 -2.16,-1.575 -0.855,-1.1475 -0.855,-2.655 0,-1.35 0.6975,-2.4075 0.6975,-1.0575 1.7325,-1.575 0.9,-0.45 1.8,-0.45 1.7775,0 2.88,0.765 0.3375,0.225 0.765,0.6525 l 0.4725,-0.6975 q 0.1125,-0.1575 0.225,-0.3375 0.135,-0.18 0.225,-0.2925 l 0.0675,-0.09 q 0.0225,0 0.09,0 0.0675,-0.0225 0.135,-0.0225 0.1575,0 0.2925,0.135 l 0,5.3325 -0.135,0.135 -0.405,0 q -0.2475,0 -0.2925,-0.0675 -0.045,-0.0675 -0.1125,-0.45 -0.3825,-2.835 -2.2725,-3.7575 -0.8325,-0.36 -1.6875,-0.36 -1.17,0 -1.935,0.765 -0.7425,0.7425 -0.7425,1.935 0,0.765 0.3825,1.4175 0.3825,0.63 1.08,0.99 0.225,0.1125 2.115,0.5625 1.5975,0.4275 1.71,0.4725 1.2825,0.495 2.0925,1.6875 0.8325,1.17 0.8325,2.7675 0,1.845 -1.0125,3.1275 -1.0125,1.26 -2.655,1.5975 -0.225,0.045 -0.81,0.045 -2.385,0 -3.87,-1.305 -0.1125,-0.1125 -0.1575,-0.09 -0.09,0.1125 -0.3375,0.4725 -0.2475,0.3375 -0.45,0.6075 -0.2025,0.2925 -0.2025,0.315 -0.045,0.0225 -0.225,0.0225 -0.1575,0 -0.2925,-0.135 l 0,-2.6325 q 0,-2.6775 0.0225,-2.7225 0.045,-0.1125 0.45,-0.1125 l 0.2925,0 z"
       style="font-style:normal;font-variant:normal;font-weight:normal;font-stretch:normal;font-size:22.5px;line-height:125%;font-family:KaTeX_Main;-inkscape-font-specification:'KaTeX_Main, Normal';text-align:start;writing-mode:lr-tb;text-anchor:start"
       id="path4163" /></g><g
     style="font-style:normal;font-variant:normal;font-weight:normal;font-stretch:normal;font-size:22.5px;line-height:125%;font-family:KaTeX_Main;-inkscape-font-specification:'KaTeX_Main, Normal';text-align:start;writing-mode:lr-tb;text-anchor:start"
     id="text31"><path
       d="m 29.057298,26.512122 q -0.225,-0.225 -0.45,-0.27 -0.2025,-0.045 -1.125,-0.0675 l -0.7425,0 0,-1.035 3.9375,0 q 4.185,0.0225 4.6125,0.09 0.0675,0.0225 0.2925,0.0675 1.0125,0.2025 1.8,0.63 2.1375,1.08 2.4525,2.9475 0.0225,0.1125 0.0225,0.36 0,1.26 -0.9675,2.205 -0.945,0.945 -2.25,1.3725 -0.045,0.0225 -0.1125,0.045 -0.045,0 -0.09,0.0225 l -0.045,0.0225 q 0.0675,0.0675 0.2475,0.135 1.62,0.9 2.0025,2.385 0.0225,0.09 0.2475,1.485 0.225,1.395 0.2475,1.485 0.1575,0.81 0.3825,1.1925 0.2475,0.3825 0.63,0.5175 0.09,0.045 0.3825,0.045 l 0.1125,0 q 0.2925,0 0.54,-0.2475 0.45,-0.45 0.5175,-1.35 0,-0.2475 0.0675,-0.315 0.09,-0.09 0.3825,-0.09 0.27,0 0.36,0.0675 0.09,0.045 0.09,0.27 0,0.81 -0.405,1.485 -0.3825,0.6525 -0.945,0.9 -0.36,0.135 -0.945,0.135 -3.3525,-0.135 -3.87,-2.52 -0.045,-0.2475 -0.0675,-1.6425 0,-1.395 -0.135,-1.8675 -0.2025,-0.6075 -0.675,-1.035 -0.45,-0.45 -1.035,-0.63 l -0.225,-0.045 -1.485,-0.0225 -1.485,0 0,2.9475 0.0225,2.9475 q 0.1575,0.225 0.3825,0.27 0.2475,0.045 1.17,0.0675 l 0.7425,0 0,1.035 -0.2475,0 q -0.36,-0.0675 -3.195,-0.0675 -2.8575,0 -3.2175,0.0675 l -0.2475,0 0,-1.035 0.7425,0 q 0.9225,-0.0225 1.125,-0.0675 0.225,-0.045 0.45,-0.27 l 0,-12.6225 z m 8.1,1.8675 q -0.225,-1.35 -1.215,-1.7775 -0.9675,-0.4275 -2.97,-0.4275 -0.3375,0 -0.765,0.0225 -0.4275,0 -0.45,0 -0.2925,0.0225 -0.36,0.18 -0.0675,0.09 -0.0675,3.06 l 0,2.97 1.305,0 q 1.6875,0 2.4975,-0.135 0.81,-0.1575 1.4175,-0.765 0.3825,-0.3825 0.495,-0.855 0.135,-0.4725 0.135,-1.3725 0,-0.72 -0.0225,-0.9 z"
       style="font-style:normal;font-variant:normal;font-weight:normal;font-stretch:normal;font-size:22.5px;line-height:125%;font-family:KaTeX_Main;-inkscape-font-specification:'KaTeX_Main, Normal';text-align:start;writing-mode:lr-tb;text-anchor:start"
       id="path4150" /><path
       d="m 52.05968,40.507122 q -0.3825,-0.0675 -3.5775,-0.0675 -3.15,0 -3.5325,0.0675 l -0.27,0 0,-1.035 0.585,0 q 1.305,0 1.6875,-0.0675 0.18,-0.0225 0.54,-0.27 l 0,-11.6325 q -0.045,0 -0.18,0.0675 -1.035,0.405 -2.3175,0.4275 l -0.4275,0 0,-1.035 0.4275,0 q 1.89,-0.0675 3.15,-0.855 0.405,-0.225 0.6975,-0.5175 0.045,-0.0675 0.27,-0.0675 0.225,0 0.3825,0.135 l 0,6.7275 0.0225,6.75 q 0.3375,0.3375 1.4625,0.3375 l 0.7425,0 0.585,0 0,1.035 -0.2475,0 z"
       style="font-style:normal;font-variant:normal;font-weight:normal;font-stretch:normal;font-size:22.5px;line-height:125%;font-family:KaTeX_Main;-inkscape-font-specification:'KaTeX_Main, Normal';text-align:start;writing-mode:lr-tb;text-anchor:start"
       id="path4152" /></g><g
     style="font-style:normal;font-variant:normal;font-weight:normal;font-stretch:normal;font-size:22.5px;line-height:125%;font-family:KaTeX_Main;-inkscape-font-specification:'KaTeX_Main, Normal';text-align:start;writing-mode:lr-tb;text-anchor:start"
     id="text33"><path
       d="m 114.23479,34.364622 q 0.54,0.0675 3.6,0.0675 0.225,0 0.63,0 0.4275,-0.0225 0.6525,-0.0225 0.2475,0 0.6075,0 0.36,-0.0225 0.54,-0.0225 0.18,-0.0225 0.225,-0.0225 l 0.18,0 0,1.035 -0.315,0 -0.225,0 q -0.81,0 -0.9675,0.27 -0.045,0.09 -0.045,2.4075 l 0,2.295 q -0.135,0.135 -0.2025,0.135 -0.09,0 -0.405,-0.225 -0.495,-0.3375 -0.8775,-0.72 l -0.2925,-0.27 q -0.4275,0.72 -1.8675,1.35 -1.08,0.36 -2.205,0.36 -0.8325,0 -1.485,-0.1575 -2.52,-0.495 -4.2525,-2.385 -1.71,-1.89 -2.115,-4.68 -0.0225,-0.2025 -0.0225,-0.9675 0,-0.7425 0.0225,-0.9675 0.3825,-2.745 2.115,-4.635 1.7325,-1.9125 4.2525,-2.43 0.72,-0.135 1.1475,-0.135 0.045,0 0.18,0.0225 0.135,0 0.2025,0 0.54,0 0.765,0.045 1.6425,0.2925 2.8575,1.485 l 0.2925,0.27 0.675,-0.8775 q 0.6075,-0.8325 0.6975,-0.9225 0.0225,0 0.09,0 0.0675,-0.0225 0.135,-0.0225 0.1575,0 0.2925,0.135 l 0,6.3 -0.135,0.135 -0.765,0 q -0.135,-0.135 -0.1575,-0.3825 -0.2025,-1.845 -1.08,-3.195 -0.8775,-1.35 -2.1375,-1.7775 -0.4275,-0.1575 -1.125,-0.1575 -2.34,0 -3.915,1.575 -1.7775,1.7775 -1.7775,5.6925 0,3.51 1.6875,5.265 1.62,1.7325 4.1175,1.7325 1.0575,0 1.845,-0.4725 0.81,-0.4725 1.035,-1.2375 0.0675,-0.225 0.0675,-1.35 l 0,-1.17 q -0.36,-0.2475 -0.54,-0.27 -0.3825,-0.0675 -1.6875,-0.0675 l -0.585,0 0,-1.035 0.27,0 z"
       style="font-style:normal;font-variant:normal;font-weight:normal;font-stretch:normal;font-size:22.5px;line-height:125%;font-family:KaTeX_Main;-inkscape-font-specification:'KaTeX_Main, Normal';text-align:start;writing-mode:lr-tb;text-anchor:start"
       id="path4145" /><path
       d="m 131.20225,40.507122 q -0.3825,-0.0675 -3.5775,-0.0675 -3.15,0 -3.5325,0.0675 l -0.27,0 0,-1.035 0.585,0 q 1.305,0 1.6875,-0.0675 0.18,-0.0225 0.54,-0.27 l 0,-11.6325 q -0.045,0 -0.18,0.0675 -1.035,0.405 -2.3175,0.4275 l -0.4275,0 0,-1.035 0.4275,0 q 1.89,-0.0675 3.15,-0.855 0.405,-0.225 0.6975,-0.5175 0.045,-0.0675 0.27,-0.0675 0.225,0 0.3825,0.135 l 0,6.7275 0.0225,6.75 q 0.3375,0.3375 1.4625,0.3375 l 0.7425,0 0.585,0 0,1.035 -0.2475,0 z"
       style="font-style:normal;font-variant:normal;font-weight:normal;font-stretch:normal;font-size:22.5px;line-height:125%;font-family:KaTeX_Main;-inkscape-font-specification:'KaTeX_Main, Normal';text-align:start;writing-mode:lr-tb;text-anchor:start"
       id="path4147" /></g></svg>