<?xml version="1.0" encoding="UTF-8" standalone="no"?>
<!-- Generator: Adobe Illustrator 19.1.0, SVG Export Plug-In . SVG Version: 6.00 Build 0)  -->

<svg
   xmlns:dc="http://purl.org/dc/elements/1.1/"
   xmlns:cc="http://creativecommons.org/ns#"
   xmlns:rdf="http://www.w3.org/1999/02/22-rdf-syntax-ns#"
   xmlns:svg="http://www.w3.org/2000/svg"
   xmlns="http://www.w3.org/2000/svg"
   xmlns:sodipodi="http://sodipodi.sourceforge.net/DTD/sodipodi-0.dtd"
   xmlns:inkscape="http://www.inkscape.org/namespaces/inkscape"
   version="1.1"
   id="Layer_1"
   x="0px"
   y="0px"
   width="152"
   height="115.5"
   viewBox="0 0 152 115.5"
   xml:space="preserve"
   inkscape:version="0.91 r13725"
   sodipodi:docname="parallel_resistors10.svg"><metadata
     id="metadata49"><rdf:RDF><cc:Work
         rdf:about=""><dc:format>image/svg+xml</dc:format><dc:type
           rdf:resource="http://purl.org/dc/dcmitype/StillImage" /><dc:title></dc:title></cc:Work></rdf:RDF></metadata><defs
     id="defs47" /><sodipodi:namedview
     pagecolor="#ffffff"
     bordercolor="#666666"
     borderopacity="1"
     objecttolerance="10"
     gridtolerance="10"
     guidetolerance="10"
     inkscape:pageopacity="0"
     inkscape:pageshadow="2"
     inkscape:window-width="640"
     inkscape:window-height="480"
     id="namedview45"
     showgrid="false"
     fit-margin-top="10"
     fit-margin-right="10"
     fit-margin-bottom="10"
     fit-margin-left="10"
     inkscape:zoom="4.3421053"
     inkscape:cx="76"
     inkscape:cy="57.75"
     inkscape:current-layer="Layer_1" /><style
     type="text/css"
     id="style3">
	.st0{fill:none;stroke:#000000;stroke-linecap:round;stroke-miterlimit:10;}
	.st1{fill:#E07D10;}
	.st2{fill:none;stroke:#E07D10;stroke-width:2;stroke-linecap:round;stroke-miterlimit:10;}
	.st3{fill:none;stroke:#000000;stroke-linecap:round;stroke-linejoin:round;stroke-miterlimit:10;}
	.st4{fill:#FF9C39;stroke:#E07D10;stroke-linecap:round;stroke-linejoin:round;stroke-miterlimit:10;}
	.st5{fill:none;stroke:#000000;stroke-width:1.5;stroke-linecap:round;stroke-linejoin:round;stroke-miterlimit:10;}
	.st6{fill:none;stroke:#000000;stroke-width:2;stroke-linecap:round;stroke-linejoin:round;stroke-miterlimit:10;}
	.st7{fill:none;stroke:#000000;stroke-width:1.5;stroke-linecap:round;stroke-miterlimit:10;}
	.st8{fill:none;stroke:#000000;stroke-width:1.5;stroke-miterlimit:10;}
	.st9{fill:none;stroke:#000000;stroke-miterlimit:10;}
	.st10{fill:none;stroke:#000000;stroke-width:2;stroke-miterlimit:10;}
	.st11{fill:none;stroke:#000000;stroke-width:2;stroke-linecap:round;stroke-miterlimit:10;}
	.st12{fill:none;stroke:#000000;stroke-linecap:round;stroke-linejoin:round;}
	.st13{fill:none;}
	.st14{stroke:#000000;stroke-linecap:round;stroke-linejoin:round;stroke-miterlimit:10;}
	.st15{fill:none;stroke:#000000;stroke-width:1.5;stroke-linejoin:round;stroke-miterlimit:10;}
	.st16{fill:none;stroke:#000000;stroke-linejoin:round;stroke-miterlimit:10;}
	.st17{clip-path:url(#SVGID_2_);fill:none;stroke:#000000;stroke-linejoin:round;stroke-miterlimit:10;}
	.st18{clip-path:url(#SVGID_2_);fill:none;stroke:#ADADEB;stroke-linejoin:round;stroke-miterlimit:10;}
	.st19{clip-path:url(#SVGID_2_);}
	.st20{stroke:#000000;stroke-linejoin:round;stroke-miterlimit:10;}
	.st21{stroke:#000000;stroke-width:3;stroke-linejoin:round;stroke-miterlimit:10;}
	.st22{stroke:#000000;stroke-miterlimit:10;}
	.st23{fill:none;stroke:#000000;stroke-linejoin:round;}
	.st24{fill:none;stroke:#11ACCD;stroke-width:4;stroke-linecap:round;stroke-linejoin:round;}
	.st25{fill:#11ACCD;}
	.st26{fill:none;stroke:#E07D10;stroke-width:3;stroke-linecap:round;stroke-linejoin:round;}
	.st27{fill:none;stroke:#11ACCD;stroke-width:2;stroke-linecap:round;stroke-linejoin:round;}
	.st28{fill:none;stroke:#11ACCD;stroke-width:3;stroke-linecap:round;stroke-linejoin:round;}
	.st29{font-family:'KaTeX_Main-Regular';}
	.st30{font-size:21px;}
	.st31{fill:#888D93;}
	.st32{stroke:#000000;stroke-linecap:round;stroke-miterlimit:10;}
	.st33{fill:#01A995;}
	.st34{fill:#66AFE9;}
	.st35{fill:none;stroke:#66AFE9;stroke-miterlimit:10;}
</style><g
     style="font-style:normal;font-variant:normal;font-weight:normal;font-stretch:normal;font-size:22.5px;line-height:125%;font-family:KaTeX_Main;-inkscape-font-specification:'KaTeX_Main, Normal';text-align:start;writing-mode:lr-tb;text-anchor:start"
     id="text5"><path
       d="M 18.925,49.505 Q 18.7,49.28 18.475,49.235 18.2725,49.19 17.35,49.1675 l -0.7425,0 0,-1.035 3.9375,0 q 4.185,0.0225 4.6125,0.09 0.0675,0.0225 0.2925,0.0675 1.0125,0.2025 1.8,0.63 2.1375,1.08 2.4525,2.9475 0.0225,0.1125 0.0225,0.36 0,1.26 -0.9675,2.205 -0.945,0.945 -2.25,1.3725 -0.045,0.0225 -0.1125,0.045 -0.045,0 -0.09,0.0225 L 26.26,55.895 q 0.0675,0.0675 0.2475,0.135 1.62,0.9 2.0025,2.385 0.0225,0.09 0.2475,1.485 0.225,1.395 0.2475,1.485 0.1575,0.81 0.3825,1.1925 0.2475,0.3825 0.63,0.5175 0.09,0.045 0.3825,0.045 l 0.1125,0 q 0.2925,0 0.54,-0.2475 0.45,-0.45 0.5175,-1.35 0,-0.2475 0.0675,-0.315 0.09,-0.09 0.3825,-0.09 0.27,0 0.36,0.0675 0.09,0.045 0.09,0.27 0,0.81 -0.405,1.485 -0.3825,0.6525 -0.945,0.9 -0.36,0.135 -0.945,0.135 -3.3525,-0.135 -3.87,-2.52 -0.045,-0.2475 -0.0675,-1.6425 0,-1.395 -0.135,-1.8675 -0.2025,-0.6075 -0.675,-1.035 -0.45,-0.45 -1.035,-0.63 l -0.225,-0.045 -1.485,-0.0225 -1.485,0 0,2.9475 0.0225,2.9475 q 0.1575,0.225 0.3825,0.27 0.2475,0.045 1.17,0.0675 l 0.7425,0 0,1.035 -0.2475,0 q -0.36,-0.0675 -3.195,-0.0675 -2.8575,0 -3.2175,0.0675 l -0.2475,0 0,-1.035 0.7425,0 q 0.9225,-0.0225 1.125,-0.0675 0.225,-0.045 0.45,-0.27 l 0,-12.6225 z m 8.1,1.8675 q -0.225,-1.35 -1.215,-1.7775 -0.9675,-0.4275 -2.97,-0.4275 -0.3375,0 -0.765,0.0225 -0.4275,0 -0.45,0 -0.2925,0.0225 -0.36,0.18 -0.0675,0.09 -0.0675,3.06 l 0,2.97 1.305,0 q 1.6875,0 2.4975,-0.135 0.81,-0.1575 1.4175,-0.765 0.3825,-0.3825 0.495,-0.855 0.135,-0.4725 0.135,-1.3725 0,-0.72 -0.0225,-0.9 z"
       style="font-style:normal;font-variant:normal;font-weight:normal;font-stretch:normal;font-size:22.5px;line-height:125%;font-family:KaTeX_Main;-inkscape-font-specification:'KaTeX_Main, Normal';text-align:start;writing-mode:lr-tb;text-anchor:start"
       id="path4183" /><path
       d="m 41.927383,63.5 q -0.3825,-0.0675 -3.5775,-0.0675 -3.15,0 -3.5325,0.0675 l -0.27,0 0,-1.035 0.585,0 q 1.305,0 1.6875,-0.0675 0.18,-0.0225 0.54,-0.27 l 0,-11.6325 q -0.045,0 -0.18,0.0675 -1.035,0.405 -2.3175,0.4275 l -0.4275,0 0,-1.035 0.4275,0 q 1.89,-0.0675 3.15,-0.855 0.405,-0.225 0.6975,-0.5175 0.045,-0.0675 0.27,-0.0675 0.225,0 0.3825,0.135 l 0,6.7275 0.0225,6.75 q 0.3375,0.3375 1.4625,0.3375 l 0.7425,0 0.585,0 0,1.035 -0.2475,0 z"
       style="font-style:normal;font-variant:normal;font-weight:normal;font-stretch:normal;font-size:22.5px;line-height:125%;font-family:KaTeX_Main;-inkscape-font-specification:'KaTeX_Main, Normal';text-align:start;writing-mode:lr-tb;text-anchor:start"
       id="path4185" /></g><g
     style="font-style:normal;font-variant:normal;font-weight:normal;font-stretch:normal;font-size:22.5px;line-height:125%;font-family:KaTeX_Main;-inkscape-font-specification:'KaTeX_Main, Normal';text-align:start;writing-mode:lr-tb;text-anchor:start"
     id="text7"><path
       d="M 90.925,49.505 Q 90.7,49.28 90.475,49.235 90.2725,49.19 89.35,49.1675 l -0.7425,0 0,-1.035 3.9375,0 q 4.185,0.0225 4.6125,0.09 0.0675,0.0225 0.2925,0.0675 1.0125,0.2025 1.8,0.63 2.1375,1.08 2.4525,2.9475 0.0225,0.1125 0.0225,0.36 0,1.26 -0.9675,2.205 -0.945,0.945 -2.25,1.3725 -0.045,0.0225 -0.1125,0.045 -0.045,0 -0.09,0.0225 L 98.26,55.895 q 0.0675,0.0675 0.2475,0.135 1.62,0.9 2.0025,2.385 0.0225,0.09 0.2475,1.485 0.225,1.395 0.2475,1.485 0.1575,0.81 0.3825,1.1925 0.2475,0.3825 0.63,0.5175 0.09,0.045 0.3825,0.045 l 0.1125,0 q 0.2925,0 0.54,-0.2475 0.45,-0.45 0.5175,-1.35 0,-0.2475 0.0675,-0.315 0.09,-0.09 0.3825,-0.09 0.27,0 0.36,0.0675 0.09,0.045 0.09,0.27 0,0.81 -0.405,1.485 -0.3825,0.6525 -0.945,0.9 -0.36,0.135 -0.945,0.135 -3.3525,-0.135 -3.87,-2.52 -0.045,-0.2475 -0.0675,-1.6425 0,-1.395 -0.135,-1.8675 -0.2025,-0.6075 -0.675,-1.035 -0.45,-0.45 -1.035,-0.63 l -0.225,-0.045 -1.485,-0.0225 -1.485,0 0,2.9475 0.0225,2.9475 q 0.1575,0.225 0.3825,0.27 0.2475,0.045 1.17,0.0675 l 0.7425,0 0,1.035 -0.2475,0 q -0.36,-0.0675 -3.195,-0.0675 -2.8575,0 -3.2175,0.0675 l -0.2475,0 0,-1.035 0.7425,0 q 0.9225,-0.0225 1.125,-0.0675 0.225,-0.045 0.45,-0.27 l 0,-12.6225 z m 8.1,1.8675 q -0.225,-1.35 -1.215,-1.7775 -0.9675,-0.4275 -2.97,-0.4275 -0.3375,0 -0.765,0.0225 -0.4275,0 -0.45,0 -0.2925,0.0225 -0.36,0.18 -0.0675,0.09 -0.0675,3.06 l 0,2.97 1.305,0 q 1.6875,0 2.4975,-0.135 0.81,-0.1575 1.4175,-0.765 0.3825,-0.3825 0.495,-0.855 0.135,-0.4725 0.135,-1.3725 0,-0.72 -0.0225,-0.9 z"
       style="font-style:normal;font-variant:normal;font-weight:normal;font-stretch:normal;font-size:22.5px;line-height:125%;font-family:KaTeX_Main;-inkscape-font-specification:'KaTeX_Main, Normal';text-align:start;writing-mode:lr-tb;text-anchor:start"
       id="path4178" /><path
       d="m 107.04238,53.8475 q -0.63,0 -0.99,-0.405 -0.36,-0.405 -0.36,-0.99 0,-1.62 1.215,-2.7675 1.2375,-1.17 2.9475,-1.17 1.935,0 3.195,1.0575 1.2825,1.035 1.575,2.7225 0.045,0.405 0.045,0.7425 0,1.305 -0.7875,2.4525 -0.63,0.945 -2.5425,2.5875 -0.81,0.6975 -2.25,2.07 l -1.3275,1.26 1.71,0.0225 q 3.5325,0 3.7575,-0.1125 0.09,-0.0225 0.225,-0.4725 0.09,-0.2475 0.315,-1.53 l 0,-0.0675 0.9,0 0,0.0675 -0.63,4.1175 0,0.0675 -8.3475,0 0,-0.4275 q 0,-0.45 0.045,-0.5175 0.0225,-0.0225 1.89,-2.1375 2.4525,-2.7225 3.15,-3.6 1.5075,-2.0475 1.5075,-3.7575 0,-1.485 -0.7875,-2.475 -0.765,-1.0125 -2.16,-1.0125 -1.305,0 -2.115,1.17 -0.045,0.09 -0.135,0.2475 -0.0675,0.1125 -0.0675,0.135 0,0.0225 0.1125,0.0225 0.5625,0 0.9,0.405 0.36,0.405 0.36,0.945 0,0.5625 -0.3825,0.9675 -0.36,0.3825 -0.9675,0.3825 z"
       style="font-style:normal;font-variant:normal;font-weight:normal;font-stretch:normal;font-size:22.5px;line-height:125%;font-family:KaTeX_Main;-inkscape-font-specification:'KaTeX_Main, Normal';text-align:start;writing-mode:lr-tb;text-anchor:start"
       id="path4180" /></g><g
     id="g9"
     transform="translate(4.0000001,-2.5)"><circle
       class="st14"
       cx="54"
       cy="18.5"
       r="1.5"
       id="circle11"
       style="stroke:#000000;stroke-linecap:round;stroke-linejoin:round;stroke-miterlimit:10" /><rect
       x="48"
       y="12.5"
       class="st13"
       width="12"
       height="12"
       id="rect13"
       style="fill:none" /></g><g
     id="g15"
     transform="translate(4.0000001,-2.5)"><circle
       class="st14"
       cx="54"
       cy="102"
       r="1.5"
       id="circle17"
       style="stroke:#000000;stroke-linecap:round;stroke-linejoin:round;stroke-miterlimit:10" /><rect
       x="48"
       y="96"
       class="st13"
       width="12"
       height="12"
       id="rect19"
       style="fill:none" /></g><g
     id="g21"
     transform="translate(4.0000001,-2.5)"><line
       class="st3"
       x1="54"
       y1="36.599998"
       x2="54"
       y2="18"
       id="line23"
       style="fill:none;stroke:#000000;stroke-linecap:round;stroke-linejoin:round;stroke-miterlimit:10" /><polyline
       class="st6"
       points="54,83.4 45,79.5 63,71.7 45,63.9 63,56.1 45,48.3 63,40.5 54,36.6  "
       id="polyline25"
       style="fill:none;stroke:#000000;stroke-width:2;stroke-linecap:round;stroke-linejoin:round;stroke-miterlimit:10" /><line
       class="st3"
       x1="54"
       y1="102"
       x2="54"
       y2="83.400002"
       id="line27"
       style="fill:none;stroke:#000000;stroke-linecap:round;stroke-linejoin:round;stroke-miterlimit:10" /><rect
       x="42"
       y="18"
       class="st13"
       width="30"
       height="84"
       id="rect29"
       style="fill:none" /></g><g
     id="g31"
     transform="translate(4.0000001,-2.5)"><line
       class="st3"
       x1="126"
       y1="36.599998"
       x2="126"
       y2="18"
       id="line33"
       style="fill:none;stroke:#000000;stroke-linecap:round;stroke-linejoin:round;stroke-miterlimit:10" /><polyline
       class="st6"
       points="126,83.4 117,79.5 135,71.7 117,63.9 135,56.1 117,48.3 135,40.5 126,36.6  "
       id="polyline35"
       style="fill:none;stroke:#000000;stroke-width:2;stroke-linecap:round;stroke-linejoin:round;stroke-miterlimit:10" /><line
       class="st3"
       x1="126"
       y1="102"
       x2="126"
       y2="83.400002"
       id="line37"
       style="fill:none;stroke:#000000;stroke-linecap:round;stroke-linejoin:round;stroke-miterlimit:10" /><rect
       x="114"
       y="18"
       class="st13"
       width="24"
       height="84"
       id="rect39"
       style="fill:none" /></g><line
     class="st9"
     x1="130"
     y1="16"
     x2="10"
     y2="16"
     id="line41"
     style="fill:none;stroke:#000000;stroke-miterlimit:10" /><line
     class="st9"
     x1="130"
     y1="100"
     x2="10"
     y2="100"
     id="line43"
     style="fill:none;stroke:#000000;stroke-miterlimit:10" /></svg>