<?xml version="1.0" encoding="UTF-8" standalone="no"?>
<!-- Created with Inkscape (http://www.inkscape.org/) -->

<svg
   xmlns:dc="http://purl.org/dc/elements/1.1/"
   xmlns:cc="http://creativecommons.org/ns#"
   xmlns:rdf="http://www.w3.org/1999/02/22-rdf-syntax-ns#"
   xmlns:svg="http://www.w3.org/2000/svg"
   xmlns="http://www.w3.org/2000/svg"
   xmlns:sodipodi="http://sodipodi.sourceforge.net/DTD/sodipodi-0.dtd"
   xmlns:inkscape="http://www.inkscape.org/namespaces/inkscape"
   id="svg4155"
   version="1.1"
   inkscape:version="0.91 r13725"
   xml:space="preserve"
   width="326.84515"
   height="244.10808"
   viewBox="0 0 326.84515 244.10808"
   sodipodi:docname="plane_of_charge8.svg"><metadata
     id="metadata4161"><rdf:RDF><cc:Work
         rdf:about=""><dc:format>image/svg+xml</dc:format><dc:type
           rdf:resource="http://purl.org/dc/dcmitype/StillImage" /><dc:title></dc:title></cc:Work></rdf:RDF></metadata><defs
     id="defs4159"><marker
       inkscape:stockid="Arrow1Mend"
       orient="auto"
       refY="0"
       refX="0"
       id="marker12461"
       style="overflow:visible"
       inkscape:isstock="true"><path
         id="path12463"
         d="M 0,0 5,-5 -12.5,0 5,5 0,0 Z"
         style="fill:#000000;fill-opacity:1;fill-rule:evenodd;stroke:#000000;stroke-width:1pt;stroke-opacity:1"
         transform="matrix(-0.4,0,0,-0.4,-4,0)"
         inkscape:connector-curvature="0" /></marker><marker
       inkscape:stockid="Arrow1Mend"
       orient="auto"
       refY="0"
       refX="0"
       id="Arrow1Mend"
       style="overflow:visible"
       inkscape:isstock="true"><path
         id="path8462"
         d="M 0,0 5,-5 -12.5,0 5,5 0,0 Z"
         style="fill:#000000;fill-opacity:1;fill-rule:evenodd;stroke:#000000;stroke-width:1pt;stroke-opacity:1"
         transform="matrix(-0.4,0,0,-0.4,-4,0)"
         inkscape:connector-curvature="0" /></marker><marker
       inkscape:stockid="Arrow1Lend"
       orient="auto"
       refY="0"
       refX="0"
       id="Arrow1Lend"
       style="overflow:visible"
       inkscape:isstock="true"><path
         id="path8456"
         d="M 0,0 5,-5 -12.5,0 5,5 0,0 Z"
         style="fill:#000000;fill-opacity:1;fill-rule:evenodd;stroke:#000000;stroke-width:1pt;stroke-opacity:1"
         transform="matrix(-0.8,0,0,-0.8,-10,0)"
         inkscape:connector-curvature="0" /></marker><clipPath
       clipPathUnits="userSpaceOnUse"
       id="clipPath4171"><path
         d="M 0,0 270,0 270,181 0,181 0,0 Z"
         id="path4173"
         inkscape:connector-curvature="0" /></clipPath></defs><sodipodi:namedview
     pagecolor="#ffffff"
     bordercolor="#666666"
     borderopacity="1"
     objecttolerance="10"
     gridtolerance="10"
     guidetolerance="10"
     inkscape:pageopacity="0"
     inkscape:pageshadow="2"
     inkscape:window-width="1280"
     inkscape:window-height="756"
     id="namedview4157"
     showgrid="false"
     inkscape:zoom="2.0673503"
     inkscape:cx="163.97802"
     inkscape:cy="122.05404"
     inkscape:window-x="0"
     inkscape:window-y="0"
     inkscape:window-maximized="0"
     inkscape:current-layer="g4163"
     fit-margin-top="10"
     fit-margin-right="10"
     fit-margin-bottom="10"
     fit-margin-left="10" /><g
     id="g4163"
     inkscape:groupmode="layer"
     inkscape:label="Electric Field - plane of charge 4"
     transform="matrix(1.25,0,0,-1.25,-322.75262,221.16933)"><path
       inkscape:connector-curvature="0"
       id="path4660-6"
       d="m 365.72234,80.991208 c -0.62921,3.523857 0.0776,6.754507 2.03089,9.259531"
       style="fill:none;stroke:#4fc2de;stroke-width:0.78223997;stroke-linecap:butt;stroke-linejoin:miter;stroke-miterlimit:8;stroke-opacity:1" /><path
       inkscape:connector-curvature="0"
       id="path4660"
       d="m 371.27804,73.064404 c -1.90104,2.295225 -2.34064,5.009826 -1.25493,7.78281"
       style="fill:none;stroke:#4fc2de;stroke-width:0.78223997;stroke-linecap:butt;stroke-linejoin:miter;stroke-miterlimit:8;stroke-opacity:1" /><g
       id="g4165" /><g
       id="g4177"
       transform="matrix(7.874016e-5,0,0,-7.874016e-5,478.25117,168.93546)"><path
         d="M 0,0 0.9689331,2276938"
         style="fill:none;stroke:#41719c;stroke-width:12700;stroke-linecap:butt;stroke-linejoin:miter;stroke-miterlimit:8;stroke-dasharray:38100, 12700;stroke-dashoffset:0;stroke-opacity:1"
         id="path4179"
         inkscape:connector-curvature="0" /></g><g
       id="g4181"
       transform="matrix(7.874016e-5,0,0,-7.874016e-5,478.25117,153.93546)"><path
         d="M 0,0 0.9689331,1870022"
         style="fill:none;stroke:#41719c;stroke-width:12700;stroke-linecap:butt;stroke-linejoin:miter;stroke-miterlimit:8;stroke-dasharray:none;stroke-opacity:1"
         id="path4183"
         inkscape:connector-curvature="0" /></g><g
       id="g4185"
       transform="matrix(7.874016e-5,0,0,-7.874016e-5,478.25117,119.93546)"><path
         d="M 0,0 0.9689331,1015010"
         style="fill:none;stroke:#58c4dd;stroke-width:63500;stroke-linecap:butt;stroke-linejoin:miter;stroke-miterlimit:8;stroke-dasharray:none;stroke-opacity:1"
         id="path4187"
         inkscape:connector-curvature="0" /></g><path
       d="m 354.25117,82.935459 0,-1.5 124.7842,-8e-5 0,-1 -124.7842,8e-5 0,-1.5 -6,2 6,2 z"
       style="fill:#000000;fill-opacity:1;fill-rule:nonzero;stroke:none"
       id="path4195"
       inkscape:connector-curvature="0" /><path
       d="m 476.25117,119.93546 4,0 0,-4 -4,0 0,4 z"
       style="fill:#41719c;fill-opacity:1;fill-rule:nonzero;stroke:none"
       id="path4197"
       inkscape:connector-curvature="0" /><g
       id="g4199"
       transform="matrix(7.874016e-5,0,0,-7.874016e-5,476.25117,119.93546)"><path
         d="m 0,0 50800,0 0,50800 L 0,50800 0,0 Z"
         style="fill:none;stroke:#000000;stroke-width:12700;stroke-linecap:butt;stroke-linejoin:miter;stroke-miterlimit:8;stroke-dasharray:none;stroke-opacity:1"
         id="path4201"
         inkscape:connector-curvature="0" /></g><path
       d="m 476.84397,117.90131 -123.2628,-52.201902 -0.585,1.38124 -4.745,-4.18148 6.3049,0.49817 -0.585,1.38124 123.2629,52.201932 -0.39,0.9208 z"
       style="fill:#000000;fill-opacity:1;fill-rule:nonzero;stroke:none"
       id="path4221"
       inkscape:connector-curvature="0" /><path
       d="m 477.99697,80.818099 -0.2038,29.113961 -1.5,-0.0104 1.958,6.0138 2.0419,-5.9859 -1.4999,-0.0105 0.2037,-29.113961 -0.9999,-0.007 z"
       style="fill:#000000;fill-opacity:1;fill-rule:nonzero;stroke:none"
       id="path4233"
       inkscape:connector-curvature="0" /><g
       id="g4253"
       transform="translate(20.55299,86.14567)"><g
         transform="scale(1,-1)"
         style="font-style:italic;font-variant:normal;font-size:18px;font-family:'Times New Roman';-inkscape-font-specification:TimesNewRomanPS-ItalicMT;writing-mode:lr-tb;fill:#000000;fill-opacity:1;fill-rule:nonzero;stroke:none"
         id="text4255" /></g><g
       id="g4259"
       transform="translate(31.55299,83.14567)" /><path
       d="m 476.25117,44.935459 4,0 0,-4 -4,0 0,4 z"
       style="fill:#41719c;fill-opacity:1;fill-rule:nonzero;stroke:none"
       id="path4277"
       inkscape:connector-curvature="0" /><g
       id="g4279"
       transform="matrix(7.874016e-5,0,0,-7.874016e-5,476.25117,44.935459)"><path
         d="m 0,0 50800,0 0,50800 L 0,50800 0,0 Z"
         style="fill:none;stroke:#000000;stroke-width:12700;stroke-linecap:butt;stroke-linejoin:miter;stroke-miterlimit:8;stroke-dasharray:none;stroke-opacity:1"
         id="path4281"
         inkscape:connector-curvature="0" /></g><path
       d="m 476.84127,43.014429 -123.2771,53.08863 -0.5933,-1.3777 -4.7197,4.2101 6.3018,-0.5363 -0.5933,-1.3776 123.2771,-53.08868 -0.3955,-0.91845 z"
       style="fill:#000000;fill-opacity:1;fill-rule:nonzero;stroke:none"
       id="path4301"
       inkscape:connector-curvature="0" /><path
       d="m 348.25117,98.935459 2.00002,-6 -1.5,0 5e-5,-24.52551 1.5,0 -1.99999,-6 -2.00001,5.99999 1.5,1e-5 -5e-5,24.52551 -1.5,0 1.99998,6 z"
       style="fill:#000000;fill-opacity:1;fill-rule:nonzero;stroke:none"
       id="path4303"
       inkscape:connector-curvature="0" /><path
       d="m 311.25117,82.935449 0,-1.5 36.88417,-7e-5 0,-1 -36.88417,7e-5 0,-1.5 -6,2.00001 6,1.99999 z"
       style="fill:#000000;fill-opacity:1;fill-rule:nonzero;stroke:none"
       id="path4311"
       inkscape:connector-curvature="0" /><g
       transform="scale(1,-1)"
       style="font-style:normal;font-variant:normal;font-weight:normal;font-stretch:normal;font-size:32px;line-height:125%;font-family:KaTeX_Main;-inkscape-font-specification:'KaTeX_Main, Normal';text-align:start;letter-spacing:0px;word-spacing:0px;writing-mode:lr-tb;text-anchor:start;fill:#000000;fill-opacity:1;stroke:none;stroke-width:1px;stroke-linecap:butt;stroke-linejoin:miter;stroke-opacity:1"
       id="text6250"><path
         d="m 273.49209,-88.160047 q 0.27,-0.018 0.612,-0.036 0.342,-0.036 0.504,-0.054 0.18,-0.018 0.198,-0.018 0.216,0 0.216,0.144 0,0.126 -1.332,5.454 -1.314,5.31 -1.332,5.4 -0.018,0.09 -0.018,0.27 0,0.756 0.504,0.756 0.162,-0.018 0.36,-0.162 0.378,-0.36 0.738,-1.728 0.108,-0.36 0.18,-0.378 0.036,-0.018 0.18,-0.018 l 0.072,0 q 0.342,0 0.342,0.144 0,0.072 -0.054,0.288 -0.396,1.512 -0.972,2.088 -0.234,0.234 -0.576,0.378 -0.144,0.036 -0.432,0.036 -1.134,0 -1.584,-0.882 -0.09,-0.234 -0.09,-0.216 -0.018,-0.018 -0.072,0.018 -0.036,0.036 -0.072,0.072 -0.864,0.81 -1.71,0.99 -0.108,0.018 -0.45,0.018 -1.188,0 -1.962,-0.99 -0.54,-0.792 -0.54,-2.016 0,-1.674 1.224,-3.312 1.116,-1.368 2.484,-1.71 0.378,-0.108 0.738,-0.108 0.99,0 1.512,0.756 0.09,0.108 0.09,0.072 0.018,-0.072 0.486,-1.962 0.486,-1.908 0.504,-1.998 0,-0.216 -0.108,-0.288 -0.198,-0.072 -0.72,-0.09 l -0.378,0 q -0.108,-0.108 -0.126,-0.144 0,-0.036 0.054,-0.342 0.09,-0.342 0.234,-0.342 0.018,0 0.18,-0.018 0.18,-0.018 0.486,-0.036 0.324,-0.018 0.63,-0.036 z m -1.548,6.516 q -0.396,-1.422 -1.35,-1.422 -0.72,0 -1.278,0.612 -0.54,0.612 -0.828,1.404 -0.522,1.422 -0.738,2.952 0,0.054 -0.018,0.198 0,0.144 0,0.216 0,0.648 0.27,1.044 0.288,0.396 0.828,0.396 0.954,0 1.998,-1.296 l 0.144,-0.198 q 0.162,-0.648 0.486,-1.944 0.324,-1.314 0.486,-1.962 z"
         style="font-style:normal;font-variant:normal;font-weight:normal;font-stretch:normal;font-size:18px;line-height:125%;font-family:KaTeX_Math;-inkscape-font-specification:'KaTeX_Math, Normal';text-align:start;writing-mode:lr-tb;text-anchor:start"
         id="path4274" /><path
         d="m 287.55881,-83.876047 q 0,-0.18 0.054,-0.72 0.054,-0.54 0.054,-0.684 0,-0.792 -0.27,-1.206 -0.252,-0.414 -0.918,-0.576 -0.594,-0.126 -2.754,-0.126 -1.53,0.018 -1.602,0.036 -0.126,0.054 -0.18,0.18 -0.018,0.054 -0.576,2.214 -0.54,2.16 -0.54,2.196 0.414,0.018 0.864,0.018 l 0.162,0 q 1.17,0 1.674,-0.144 0.522,-0.162 0.81,-0.81 0.108,-0.198 0.27,-0.774 0.018,-0.054 0.018,-0.126 0.018,-0.09 0.018,-0.108 0.018,-0.036 0.036,-0.072 0.018,-0.036 0.054,-0.036 0.054,-0.018 0.108,-0.018 0.072,-0.018 0.18,-0.018 0.09,0 0.144,0.018 0.054,0 0.09,0.018 0.036,0.018 0.036,0.036 0.018,0 0.036,0.054 0.036,0.036 0.054,0.054 l -0.594,2.376 q -0.594,2.394 -0.648,2.43 -0.054,0.054 -0.288,0.054 -0.234,0 -0.288,-0.054 -0.108,-0.054 -0.018,-0.432 0.126,-0.468 0.126,-0.81 0,-0.522 -0.36,-0.666 -0.324,-0.144 -1.764,-0.144 l -0.936,0 q -0.108,0.378 -0.684,2.682 -0.558,2.286 -0.558,2.322 0,0.072 0.198,0.09 0.216,0 1.44,0.018 1.692,0 2.232,-0.036 0.558,-0.054 1.08,-0.234 0.882,-0.288 1.458,-1.008 0.594,-0.72 1.278,-2.358 0.18,-0.396 0.234,-0.432 0.054,-0.036 0.252,-0.036 0.216,0 0.27,0.036 0.108,0.072 0.108,0.198 -1.89,4.572 -1.98,4.662 -0.054,0.036 -5.148,0.036 -3.888,0 -4.536,0 -0.648,-0.018 -0.666,-0.09 l 0,-0.018 q -0.036,-0.072 -0.036,-0.09 0,-0.036 0.054,-0.252 0.072,-0.288 0.144,-0.324 0.072,-0.054 0.414,-0.054 0.486,0 1.08,-0.054 0.252,-0.054 0.342,-0.216 0.036,-0.09 1.278,-5.058 1.26,-4.968 1.26,-5.04 0,-0.126 -0.072,-0.126 -0.144,-0.054 -0.954,-0.09 l -0.558,0 q -0.108,-0.108 -0.126,-0.144 0,-0.054 0.054,-0.306 0.072,-0.324 0.18,-0.378 l 9.972,0 q 0.126,0.126 0.126,0.198 0,0.09 -0.234,2.034 -0.234,1.926 -0.252,1.962 -0.036,0.126 -0.36,0.126 l -0.216,0 q -0.126,-0.108 -0.126,-0.18 z"
         style="font-style:normal;font-variant:normal;font-weight:normal;font-stretch:normal;font-size:18px;line-height:125%;font-family:KaTeX_Math;-inkscape-font-specification:'KaTeX_Math, Normal';text-align:start;writing-mode:lr-tb;text-anchor:start"
         id="path4276" /><path
         d="m 292.17763,-72.176047 q -0.15912,-0.02808 -1.48824,-0.02808 -1.3104,0 -1.46952,0.02808 l -0.11232,0 0,-0.43056 0.24336,0 q 0.54288,0 0.702,-0.02808 0.0749,-0.0094 0.22464,-0.11232 l 0,-4.83912 q -0.0187,0 -0.0749,0.02808 -0.43056,0.16848 -0.96408,0.17784 l -0.17784,0 0,-0.43056 0.17784,0 q 0.78624,-0.02808 1.3104,-0.35568 0.16848,-0.0936 0.29016,-0.21528 0.0187,-0.02808 0.11232,-0.02808 0.0936,0 0.15912,0.05616 l 0,2.79864 0.009,2.808 q 0.1404,0.1404 0.6084,0.1404 l 0.30888,0 0.24336,0 0,0.43056 -0.10296,0 z"
         style="font-style:normal;font-variant:normal;font-weight:normal;font-stretch:normal;font-size:9.35999966px;line-height:125%;font-family:KaTeX_Main;-inkscape-font-specification:'KaTeX_Main, Normal';text-align:start;writing-mode:lr-tb;baseline-shift:sub;text-anchor:start"
         id="path4278" /><path
         d="m 293.99347,-76.191487 q -0.26208,0 -0.41184,-0.16848 -0.14976,-0.16848 -0.14976,-0.41184 0,-0.67392 0.50544,-1.15128 0.5148,-0.48672 1.22616,-0.48672 0.80496,0 1.32912,0.43992 0.53352,0.43056 0.6552,1.13256 0.0187,0.16848 0.0187,0.30888 0,0.54288 -0.3276,1.02024 -0.26208,0.39312 -1.05768,1.0764 -0.33696,0.29016 -0.936,0.86112 l -0.55224,0.52416 0.71136,0.0094 q 1.46952,0 1.56312,-0.0468 0.0374,-0.0094 0.0936,-0.19656 0.0374,-0.10296 0.13104,-0.63648 l 0,-0.02808 0.3744,0 0,0.02808 -0.26208,1.71288 0,0.02808 -3.47256,0 0,-0.17784 q 0,-0.1872 0.0187,-0.21528 0.009,-0.0094 0.78624,-0.8892 1.02024,-1.13256 1.3104,-1.4976 0.62712,-0.85176 0.62712,-1.56312 0,-0.61776 -0.3276,-1.0296 -0.31824,-0.4212 -0.89856,-0.4212 -0.54288,0 -0.87984,0.48672 -0.0187,0.03744 -0.0562,0.10296 -0.0281,0.0468 -0.0281,0.05616 0,0.0094 0.0468,0.0094 0.234,0 0.3744,0.16848 0.14976,0.16848 0.14976,0.39312 0,0.234 -0.15912,0.40248 -0.14976,0.15912 -0.40248,0.15912 z"
         style="font-style:normal;font-variant:normal;font-weight:normal;font-stretch:normal;font-size:9.35999966px;line-height:125%;font-family:KaTeX_Main;-inkscape-font-specification:'KaTeX_Main, Normal';text-align:start;writing-mode:lr-tb;baseline-shift:sub;text-anchor:start"
         id="path4280" /></g><g
       transform="scale(1,-1)"
       style="font-style:normal;font-variant:normal;font-weight:normal;font-stretch:normal;font-size:32px;line-height:125%;font-family:KaTeX_Main;-inkscape-font-specification:'KaTeX_Main, Normal';text-align:start;letter-spacing:0px;word-spacing:0px;writing-mode:lr-tb;text-anchor:start;fill:#000000;fill-opacity:1;stroke:none;stroke-width:1px;stroke-linecap:butt;stroke-linejoin:miter;stroke-opacity:1"
       id="text6250-3"><path
         d="m 326.29135,-61.428628 q 0.27,-0.018 0.612,-0.036 0.342,-0.036 0.504,-0.054 0.18,-0.018 0.198,-0.018 0.216,0 0.216,0.144 0,0.126 -1.332,5.454 -1.314,5.31 -1.332,5.4 -0.018,0.09 -0.018,0.27 0,0.756 0.504,0.756 0.162,-0.018 0.36,-0.162 0.378,-0.36 0.738,-1.728 0.108,-0.36 0.18,-0.378 0.036,-0.018 0.18,-0.018 l 0.072,0 q 0.342,0 0.342,0.144 0,0.072 -0.054,0.288 -0.396,1.512 -0.972,2.088 -0.234,0.234 -0.576,0.378 -0.144,0.036 -0.432,0.036 -1.134,0 -1.584,-0.882 -0.09,-0.234 -0.09,-0.216 -0.018,-0.018 -0.072,0.018 -0.036,0.036 -0.072,0.072 -0.864,0.81 -1.71,0.99 -0.108,0.018 -0.45,0.018 -1.188,0 -1.962,-0.99 -0.54,-0.792 -0.54,-2.016 0,-1.674 1.224,-3.312 1.116,-1.368 2.484,-1.71 0.378,-0.108 0.738,-0.108 0.99,0 1.512,0.756 0.09,0.108 0.09,0.072 0.018,-0.072 0.486,-1.962 0.486,-1.908 0.504,-1.998 0,-0.216 -0.108,-0.288 -0.198,-0.072 -0.72,-0.09 l -0.378,0 q -0.108,-0.108 -0.126,-0.144 0,-0.036 0.054,-0.342 0.09,-0.342 0.234,-0.342 0.018,0 0.18,-0.018 0.18,-0.018 0.486,-0.036 0.324,-0.018 0.63,-0.036 z m -1.548,6.516 q -0.396,-1.422 -1.35,-1.422 -0.72,0 -1.278,0.612 -0.54,0.612 -0.828,1.404 -0.522,1.422 -0.738,2.952 0,0.054 -0.018,0.198 0,0.144 0,0.216 0,0.648 0.27,1.044 0.288,0.396 0.828,0.396 0.954,0 1.998,-1.296 l 0.144,-0.198 q 0.162,-0.648 0.486,-1.944 0.324,-1.314 0.486,-1.962 z"
         style="font-style:normal;font-variant:normal;font-weight:normal;font-stretch:normal;font-size:18px;line-height:125%;font-family:KaTeX_Math;-inkscape-font-specification:'KaTeX_Math, Normal';text-align:start;writing-mode:lr-tb;text-anchor:start"
         id="path4267" /><path
         d="m 340.35807,-57.144628 q 0,-0.18 0.054,-0.72 0.054,-0.54 0.054,-0.684 0,-0.792 -0.27,-1.206 -0.252,-0.414 -0.918,-0.576 -0.594,-0.126 -2.754,-0.126 -1.53,0.018 -1.602,0.036 -0.126,0.054 -0.18,0.18 -0.018,0.054 -0.576,2.214 -0.54,2.16 -0.54,2.196 0.414,0.018 0.864,0.018 l 0.162,0 q 1.17,0 1.674,-0.144 0.522,-0.162 0.81,-0.81 0.108,-0.198 0.27,-0.774 0.018,-0.054 0.018,-0.126 0.018,-0.09 0.018,-0.108 0.018,-0.036 0.036,-0.072 0.018,-0.036 0.054,-0.036 0.054,-0.018 0.108,-0.018 0.072,-0.018 0.18,-0.018 0.09,0 0.144,0.018 0.054,0 0.09,0.018 0.036,0.018 0.036,0.036 0.018,0 0.036,0.054 0.036,0.036 0.054,0.054 l -0.594,2.376 q -0.594,2.394 -0.648,2.43 -0.054,0.054 -0.288,0.054 -0.234,0 -0.288,-0.054 -0.108,-0.054 -0.018,-0.432 0.126,-0.468 0.126,-0.81 0,-0.522 -0.36,-0.666 -0.324,-0.144 -1.764,-0.144 l -0.936,0 q -0.108,0.378 -0.684,2.682 -0.558,2.286 -0.558,2.322 0,0.072 0.198,0.09 0.216,0 1.44,0.018 1.692,0 2.232,-0.036 0.558,-0.054 1.08,-0.234 0.882,-0.288 1.458,-1.008 0.594,-0.72 1.278,-2.358 0.18,-0.396 0.234,-0.432 0.054,-0.036 0.252,-0.036 0.216,0 0.27,0.036 0.108,0.072 0.108,0.198 -1.89,4.572 -1.98,4.662 -0.054,0.036 -5.148,0.036 -3.888,0 -4.536,0 -0.648,-0.018 -0.666,-0.09 l 0,-0.018 q -0.036,-0.072 -0.036,-0.09 0,-0.036 0.054,-0.252 0.072,-0.288 0.144,-0.324 0.072,-0.054 0.414,-0.054 0.486,0 1.08,-0.054 0.252,-0.054 0.342,-0.216 0.036,-0.09 1.278,-5.058 1.26,-4.968 1.26,-5.04 0,-0.126 -0.072,-0.126 -0.144,-0.054 -0.954,-0.09 l -0.558,0 q -0.108,-0.108 -0.126,-0.144 0,-0.054 0.054,-0.306 0.072,-0.324 0.18,-0.378 l 9.972,0 q 0.126,0.126 0.126,0.198 0,0.09 -0.234,2.034 -0.234,1.926 -0.252,1.962 -0.036,0.126 -0.36,0.126 l -0.216,0 q -0.126,-0.108 -0.126,-0.18 z"
         style="font-style:normal;font-variant:normal;font-weight:normal;font-stretch:normal;font-size:18px;line-height:125%;font-family:KaTeX_Math;-inkscape-font-specification:'KaTeX_Math, Normal';text-align:start;writing-mode:lr-tb;text-anchor:start"
         id="path4269" /><path
         d="m 344.97689,-45.444628 q -0.15912,-0.02808 -1.48824,-0.02808 -1.3104,0 -1.46952,0.02808 l -0.11232,0 0,-0.43056 0.24336,0 q 0.54288,0 0.702,-0.02808 0.0749,-0.0094 0.22464,-0.11232 l 0,-4.83912 q -0.0187,0 -0.0749,0.02808 -0.43056,0.16848 -0.96408,0.17784 l -0.17784,0 0,-0.43056 0.17784,0 q 0.78624,-0.02808 1.3104,-0.35568 0.16848,-0.0936 0.29016,-0.21528 0.0187,-0.02808 0.11232,-0.02808 0.0936,0 0.15912,0.05616 l 0,2.79864 0.009,2.808 q 0.1404,0.1404 0.6084,0.1404 l 0.30888,0 0.24336,0 0,0.43056 -0.10296,0 z"
         style="font-style:normal;font-variant:normal;font-weight:normal;font-stretch:normal;font-size:9.35999966px;line-height:125%;font-family:KaTeX_Main;-inkscape-font-specification:'KaTeX_Main, Normal';text-align:start;writing-mode:lr-tb;baseline-shift:sub;text-anchor:start"
         id="path4271" /></g><g
       transform="scale(1,-1)"
       style="font-style:normal;font-variant:normal;font-weight:normal;font-stretch:normal;font-size:32px;line-height:125%;font-family:KaTeX_Main;-inkscape-font-specification:'KaTeX_Main, Normal';text-align:start;letter-spacing:0px;word-spacing:0px;writing-mode:lr-tb;text-anchor:start;fill:#000000;fill-opacity:1;stroke:none;stroke-width:1px;stroke-linecap:butt;stroke-linejoin:miter;stroke-opacity:1"
       id="text6250-4"><path
         d="m 324.61172,-114.75677 q 0.27,-0.018 0.612,-0.036 0.342,-0.036 0.504,-0.054 0.18,-0.018 0.198,-0.018 0.216,0 0.216,0.144 0,0.126 -1.332,5.454 -1.314,5.31 -1.332,5.4 -0.018,0.09 -0.018,0.27 0,0.756 0.504,0.756 0.162,-0.018 0.36,-0.162 0.378,-0.36 0.738,-1.728 0.108,-0.36 0.18,-0.378 0.036,-0.018 0.18,-0.018 l 0.072,0 q 0.342,0 0.342,0.144 0,0.072 -0.054,0.288 -0.396,1.512 -0.972,2.088 -0.234,0.234 -0.576,0.378 -0.144,0.036 -0.432,0.036 -1.134,0 -1.584,-0.882 -0.09,-0.234 -0.09,-0.216 -0.018,-0.018 -0.072,0.018 -0.036,0.036 -0.072,0.072 -0.864,0.81 -1.71,0.99 -0.108,0.018 -0.45,0.018 -1.188,0 -1.962,-0.99 -0.54,-0.792 -0.54,-2.016 0,-1.674 1.224,-3.312 1.116,-1.368 2.484,-1.71 0.378,-0.108 0.738,-0.108 0.99,0 1.512,0.756 0.09,0.108 0.09,0.072 0.018,-0.072 0.486,-1.962 0.486,-1.908 0.504,-1.998 0,-0.216 -0.108,-0.288 -0.198,-0.072 -0.72,-0.09 l -0.378,0 q -0.108,-0.108 -0.126,-0.144 0,-0.036 0.054,-0.342 0.09,-0.342 0.234,-0.342 0.018,0 0.18,-0.018 0.18,-0.018 0.486,-0.036 0.324,-0.018 0.63,-0.036 z m -1.548,6.516 q -0.396,-1.422 -1.35,-1.422 -0.72,0 -1.278,0.612 -0.54,0.612 -0.828,1.404 -0.522,1.422 -0.738,2.952 0,0.054 -0.018,0.198 0,0.144 0,0.216 0,0.648 0.27,1.044 0.288,0.396 0.828,0.396 0.954,0 1.998,-1.296 l 0.144,-0.198 q 0.162,-0.648 0.486,-1.944 0.324,-1.314 0.486,-1.962 z"
         style="font-style:normal;font-variant:normal;font-weight:normal;font-stretch:normal;font-size:18px;line-height:125%;font-family:KaTeX_Math;-inkscape-font-specification:'KaTeX_Math, Normal';text-align:start;writing-mode:lr-tb;text-anchor:start"
         id="path4260" /><path
         d="m 338.67844,-110.47277 q 0,-0.18 0.054,-0.72 0.054,-0.54 0.054,-0.684 0,-0.792 -0.27,-1.206 -0.252,-0.414 -0.918,-0.576 -0.594,-0.126 -2.754,-0.126 -1.53,0.018 -1.602,0.036 -0.126,0.054 -0.18,0.18 -0.018,0.054 -0.576,2.214 -0.54,2.16 -0.54,2.196 0.414,0.018 0.864,0.018 l 0.162,0 q 1.17,0 1.674,-0.144 0.522,-0.162 0.81,-0.81 0.108,-0.198 0.27,-0.774 0.018,-0.054 0.018,-0.126 0.018,-0.09 0.018,-0.108 0.018,-0.036 0.036,-0.072 0.018,-0.036 0.054,-0.036 0.054,-0.018 0.108,-0.018 0.072,-0.018 0.18,-0.018 0.09,0 0.144,0.018 0.054,0 0.09,0.018 0.036,0.018 0.036,0.036 0.018,0 0.036,0.054 0.036,0.036 0.054,0.054 l -0.594,2.376 q -0.594,2.394 -0.648,2.43 -0.054,0.054 -0.288,0.054 -0.234,0 -0.288,-0.054 -0.108,-0.054 -0.018,-0.432 0.126,-0.468 0.126,-0.81 0,-0.522 -0.36,-0.666 -0.324,-0.144 -1.764,-0.144 l -0.936,0 q -0.108,0.378 -0.684,2.682 -0.558,2.286 -0.558,2.322 0,0.072 0.198,0.09 0.216,0 1.44,0.018 1.692,0 2.232,-0.036 0.558,-0.054 1.08,-0.234 0.882,-0.288 1.458,-1.008 0.594,-0.72 1.278,-2.358 0.18,-0.396 0.234,-0.432 0.054,-0.036 0.252,-0.036 0.216,0 0.27,0.036 0.108,0.072 0.108,0.198 -1.89,4.572 -1.98,4.662 -0.054,0.036 -5.148,0.036 -3.888,0 -4.536,0 -0.648,-0.018 -0.666,-0.09 l 0,-0.018 q -0.036,-0.072 -0.036,-0.09 0,-0.036 0.054,-0.252 0.072,-0.288 0.144,-0.324 0.072,-0.054 0.414,-0.054 0.486,0 1.08,-0.054 0.252,-0.054 0.342,-0.216 0.036,-0.09 1.278,-5.058 1.26,-4.968 1.26,-5.04 0,-0.126 -0.072,-0.126 -0.144,-0.054 -0.954,-0.09 l -0.558,0 q -0.108,-0.108 -0.126,-0.144 0,-0.054 0.054,-0.306 0.072,-0.324 0.18,-0.378 l 9.972,0 q 0.126,0.126 0.126,0.198 0,0.09 -0.234,2.034 -0.234,1.926 -0.252,1.962 -0.036,0.126 -0.36,0.126 l -0.216,0 q -0.126,-0.108 -0.126,-0.18 z"
         style="font-style:normal;font-variant:normal;font-weight:normal;font-stretch:normal;font-size:18px;line-height:125%;font-family:KaTeX_Math;-inkscape-font-specification:'KaTeX_Math, Normal';text-align:start;writing-mode:lr-tb;text-anchor:start"
         id="path4262" /><path
         d="m 340.4331,-102.78821 q -0.26208,0 -0.41184,-0.16848 -0.14976,-0.16848 -0.14976,-0.41184 0,-0.67392 0.50544,-1.15128 0.5148,-0.48672 1.22616,-0.48672 0.80496,0 1.32912,0.43992 0.53352,0.43056 0.6552,1.13256 0.0187,0.16848 0.0187,0.30888 0,0.54288 -0.3276,1.02024 -0.26208,0.39312 -1.05768,1.0764 -0.33696,0.29016 -0.936,0.86112 l -0.55224,0.524158 0.71136,0.0094 q 1.46952,0 1.56312,-0.0468 0.0374,-0.0094 0.0936,-0.19656 0.0374,-0.10296 0.13104,-0.636478 l 0,-0.0281 0.3744,0 0,0.0281 -0.26208,1.712878 0,0.02808 -3.47256,0 0,-0.17784 q 0,-0.1872 0.0187,-0.21528 0.009,-0.0094 0.78624,-0.889198 1.02024,-1.13256 1.3104,-1.4976 0.62712,-0.85176 0.62712,-1.56312 0,-0.61776 -0.3276,-1.0296 -0.31824,-0.4212 -0.89856,-0.4212 -0.54288,0 -0.87984,0.48672 -0.0187,0.0374 -0.0562,0.10296 -0.0281,0.0468 -0.0281,0.0562 0,0.009 0.0468,0.009 0.234,0 0.3744,0.16848 0.14976,0.16848 0.14976,0.39312 0,0.234 -0.15912,0.40248 -0.14976,0.15912 -0.40248,0.15912 z"
         style="font-style:normal;font-variant:normal;font-weight:normal;font-stretch:normal;font-size:9.35999966px;line-height:125%;font-family:KaTeX_Main;-inkscape-font-specification:'KaTeX_Main, Normal';text-align:start;writing-mode:lr-tb;baseline-shift:sub;text-anchor:start"
         id="path4264" /></g><g
       transform="scale(1,-1)"
       style="font-style:normal;font-variant:normal;font-weight:normal;font-stretch:normal;font-size:32px;line-height:125%;font-family:KaTeX_Main;-inkscape-font-specification:'KaTeX_Main, Normal';text-align:start;letter-spacing:0px;word-spacing:0px;writing-mode:lr-tb;text-anchor:start;fill:#000000;fill-opacity:1;stroke:none;stroke-width:1px;stroke-linecap:butt;stroke-linejoin:miter;stroke-opacity:1"
       id="text6250-9"><path
         d="m 390.72833,-59.02564 q -0.36,0 -0.99,0 -0.612,0.018 -0.9,0.018 -0.27,0 -0.27,-0.144 0,-0.036 0.018,-0.126 0.036,-0.09 0.036,-0.144 0.072,-0.288 0.126,-0.342 0.072,-0.054 0.36,-0.054 0.864,0 1.044,-0.126 0.108,-0.072 0.504,-1.638 0.36,-1.458 0.378,-1.476 0,-0.018 -0.126,0.054 -0.63,0.504 -1.35,0.684 -0.108,0.018 -0.45,0.018 -1.188,0 -1.962,-0.99 -0.54,-0.792 -0.54,-2.016 0,-0.288 0.018,-0.396 0.126,-1.152 0.738,-2.196 0.63,-1.062 1.494,-1.71 1.044,-0.81 2.196,-0.81 1.026,0 1.656,0.936 0.432,-0.432 0.576,-0.522 0.612,-0.432 0.828,-0.432 0.18,0 0.18,0.144 0,0.162 -1.242,5.13 -1.278,5.112 -1.278,5.184 0,0.144 0.612,0.162 0.126,0 0.198,0 l 0.45,0 q 0.09,0.126 0.09,0.144 0.018,0.036 -0.036,0.342 -0.072,0.234 -0.18,0.342 l -0.234,0 q -0.558,-0.036 -1.944,-0.036 z m 1.62,-9.324 q -0.396,-1.422 -1.35,-1.422 -0.72,0 -1.278,0.612 -0.54,0.612 -0.828,1.404 -0.522,1.422 -0.738,2.952 0,0.054 -0.018,0.198 0,0.144 0,0.216 0,0.648 0.27,1.044 0.288,0.396 0.828,0.396 0.954,0 1.998,-1.296 l 0.144,-0.198 q 0.162,-0.648 0.486,-1.944 0.324,-1.314 0.486,-1.962 z"
         style="font-style:normal;font-variant:normal;font-weight:normal;font-stretch:normal;font-size:18px;line-height:125%;font-family:KaTeX_Math;-inkscape-font-specification:'KaTeX_Math, Normal';text-align:start;writing-mode:lr-tb;text-anchor:start"
         id="path4257" /></g><g
       transform="scale(1,-1)"
       style="font-style:normal;font-variant:normal;font-weight:normal;font-stretch:normal;font-size:32px;line-height:125%;font-family:KaTeX_Main;-inkscape-font-specification:'KaTeX_Main, Normal';text-align:start;letter-spacing:0px;word-spacing:0px;writing-mode:lr-tb;text-anchor:start;fill:#000000;fill-opacity:1;stroke:none;stroke-width:1px;stroke-linecap:butt;stroke-linejoin:miter;stroke-opacity:1"
       id="text6250-96"><path
         d="m 439.0693,-105.33807 q -0.81,0 -1.296,-0.45 -0.486,-0.468 -0.486,-1.278 0,-0.216 0.018,-0.306 l 2.304,-9.252 q 0.018,-0.054 0,-0.108 -0.018,-0.054 -0.018,-0.09 0,-0.036 -0.036,-0.054 -0.036,-0.036 -0.072,-0.054 -0.018,-0.018 -0.072,-0.018 -0.054,-0.018 -0.09,-0.018 -0.036,-0.018 -0.126,-0.018 -0.072,-0.018 -0.126,-0.018 -0.036,0 -0.126,0 -0.09,0 -0.144,0 -0.432,0 -0.504,-0.126 -0.018,-0.054 0.036,-0.306 0.09,-0.342 0.162,-0.378 0.054,-0.018 1.332,-0.108 1.296,-0.108 1.35,-0.108 0.216,0 0.216,0.144 0,0.198 -1.314,5.4 -1.314,5.202 -1.35,5.454 0,0.036 -0.018,0.162 0,0.108 0,0.162 0,0.522 0.252,0.666 0.072,0.036 0.216,0.036 0.144,-0.018 0.216,-0.054 0.504,-0.288 0.9,-1.836 0.108,-0.36 0.18,-0.378 0.036,-0.018 0.18,-0.018 l 0.072,0 q 0.324,0.09 0.342,0.162 0,0.126 -0.144,0.63 -0.144,0.486 -0.27,0.774 -0.504,1.17 -1.296,1.35 -0.18,0.036 -0.288,0.036 z"
         style="font-style:normal;font-variant:normal;font-weight:normal;font-stretch:normal;font-size:18px;line-height:125%;font-family:KaTeX_Math;-inkscape-font-specification:'KaTeX_Math, Normal';text-align:start;writing-mode:lr-tb;text-anchor:start"
         id="path4254" /></g><g
       transform="scale(1,-1)"
       style="font-style:normal;font-variant:normal;font-weight:normal;font-stretch:normal;font-size:32px;line-height:125%;font-family:KaTeX_Main;-inkscape-font-specification:'KaTeX_Main, Normal';text-align:start;letter-spacing:0px;word-spacing:0px;writing-mode:lr-tb;text-anchor:start;fill:#000000;fill-opacity:1;stroke:none;stroke-width:1px;stroke-linecap:butt;stroke-linejoin:miter;stroke-opacity:1"
       id="text6250-2"><path
         d="m 453.14536,-86.650881 q 0.162,0 0.216,0.018 0.054,0 0.09,0.036 0.036,0.036 0.036,0.108 0,0.054 -0.054,0.27 -0.396,1.512 -0.972,2.088 -0.234,0.234 -0.576,0.378 -0.144,0.036 -0.432,0.036 -1.134,0 -1.584,-0.882 -0.09,-0.234 -0.09,-0.216 -0.018,-0.018 -0.072,0.018 -0.036,0.036 -0.072,0.072 -0.864,0.81 -1.71,0.99 -0.108,0.018 -0.45,0.018 -1.188,0 -1.962,-0.99 -0.54,-0.792 -0.54,-2.016 0,-0.288 0.018,-0.396 0.126,-1.152 0.738,-2.196 0.63,-1.062 1.494,-1.71 1.044,-0.81 2.196,-0.81 0.9,0 1.62,0.882 0.288,-0.54 0.828,-0.54 0.234,0 0.414,0.144 0.18,0.144 0.18,0.36 0,0.234 -0.684,2.898 -0.666,2.646 -0.666,2.97 0,0.756 0.504,0.756 0.162,-0.018 0.36,-0.162 0.378,-0.36 0.738,-1.728 0.108,-0.36 0.18,-0.378 0.036,-0.018 0.18,-0.018 l 0.072,0 z m -6.642,0.846 q 0,0.648 0.27,1.044 0.288,0.396 0.828,0.396 0.522,0 1.116,-0.432 0.216,-0.144 0.576,-0.54 0.378,-0.396 0.45,-0.54 0.036,-0.072 0.486,-1.926 0.468,-1.854 0.468,-1.998 0,-0.216 -0.198,-0.612 -0.396,-0.774 -1.134,-0.774 -0.72,0 -1.278,0.612 -0.54,0.612 -0.828,1.404 -0.522,1.422 -0.738,2.952 0,0.054 -0.018,0.198 0,0.144 0,0.216 z"
         style="font-style:normal;font-variant:normal;font-weight:normal;font-stretch:normal;font-size:18px;line-height:125%;font-family:KaTeX_Math;-inkscape-font-specification:'KaTeX_Math, Normal';text-align:start;writing-mode:lr-tb;text-anchor:start"
         id="path4251" /></g><g
       transform="scale(1,-1)"
       style="font-style:normal;font-variant:normal;font-weight:normal;font-stretch:normal;font-size:32px;line-height:125%;font-family:KaTeX_Main;-inkscape-font-specification:'KaTeX_Main, Normal';text-align:start;letter-spacing:0px;word-spacing:0px;writing-mode:lr-tb;text-anchor:start;fill:#000000;fill-opacity:1;stroke:none;stroke-width:1px;stroke-linecap:butt;stroke-linejoin:miter;stroke-opacity:1"
       id="text6250-5"><path
         d="m 491.73459,-132.81276 q 0.27,-0.018 0.612,-0.036 0.342,-0.036 0.504,-0.054 0.18,-0.018 0.198,-0.018 0.216,0 0.216,0.144 0,0.126 -1.332,5.454 -1.314,5.31 -1.332,5.4 -0.018,0.09 -0.018,0.27 0,0.756 0.504,0.756 0.162,-0.018 0.36,-0.162 0.378,-0.36 0.738,-1.728 0.108,-0.36 0.18,-0.378 0.036,-0.018 0.18,-0.018 l 0.072,0 q 0.342,0 0.342,0.144 0,0.072 -0.054,0.288 -0.396,1.512 -0.972,2.088 -0.234,0.234 -0.576,0.378 -0.144,0.036 -0.432,0.036 -1.134,0 -1.584,-0.882 -0.09,-0.234 -0.09,-0.216 -0.018,-0.018 -0.072,0.018 -0.036,0.036 -0.072,0.072 -0.864,0.81 -1.71,0.99 -0.108,0.018 -0.45,0.018 -1.188,0 -1.962,-0.99 -0.54,-0.792 -0.54,-2.016 0,-1.674 1.224,-3.312 1.116,-1.368 2.484,-1.71 0.378,-0.108 0.738,-0.108 0.99,0 1.512,0.756 0.09,0.108 0.09,0.072 0.018,-0.072 0.486,-1.962 0.486,-1.908 0.504,-1.998 0,-0.216 -0.108,-0.288 -0.198,-0.072 -0.72,-0.09 l -0.378,0 q -0.108,-0.108 -0.126,-0.144 0,-0.036 0.054,-0.342 0.09,-0.342 0.234,-0.342 0.018,0 0.18,-0.018 0.18,-0.018 0.486,-0.036 0.324,-0.018 0.63,-0.036 z m -1.548,6.516 q -0.396,-1.422 -1.35,-1.422 -0.72,0 -1.278,0.612 -0.54,0.612 -0.828,1.404 -0.522,1.422 -0.738,2.952 0,0.054 -0.018,0.198 0,0.144 0,0.216 0,0.648 0.27,1.044 0.288,0.396 0.828,0.396 0.954,0 1.998,-1.296 l 0.144,-0.198 q 0.162,-0.648 0.486,-1.944 0.324,-1.314 0.486,-1.962 z"
         style="font-style:normal;font-variant:normal;font-weight:normal;font-stretch:normal;font-size:18px;line-height:125%;font-family:KaTeX_Math;-inkscape-font-specification:'KaTeX_Math, Normal';text-align:start;writing-mode:lr-tb;text-anchor:start"
         id="path4244" /><path
         d="m 500.4193,-118.98876 q 0,-0.198 0.018,-0.666 0.036,-0.45 0.036,-0.576 l 0,-0.072 -0.27,0.072 q -0.828,0.198 -1.512,0.198 -1.908,0 -3.186,-1.224 -1.368,-1.332 -1.368,-3.564 0,-0.63 0.018,-0.81 0.324,-2.466 2.088,-4.536 0.504,-0.576 1.08,-1.08 1.998,-1.656 4.176,-1.854 l 0.306,0 q 0.684,0 0.864,0.018 1.764,0.252 2.826,1.548 1.062,1.296 1.062,3.276 0,2.412 -1.494,4.518 -1.494,2.088 -3.528,3.024 l -0.306,0.144 0,0.09 q 0,0.018 0.018,0.054 0.018,0.054 0.018,0.108 0.018,0.072 0.036,0.126 0.162,0.702 0.414,0.972 0.252,0.27 0.81,0.27 0.684,0 1.242,-0.432 0.558,-0.414 0.72,-0.99 0.108,-0.252 0.234,-0.252 0.162,0 0.198,0.162 0,0.108 -0.126,0.522 -0.738,2.178 -1.998,2.808 -0.45,0.198 -0.9,0.198 -0.828,0 -1.152,-0.54 -0.324,-0.522 -0.324,-1.512 z m -0.936,-4.23 q 0.648,0 1.062,0.468 0.432,0.468 0.522,1.332 l 0.234,-0.162 q 1.386,-0.954 2.232,-2.646 0.864,-1.692 1.134,-3.852 0.018,-0.18 0.018,-0.774 0,-2.106 -1.224,-3.006 -0.702,-0.54 -1.638,-0.54 -0.864,0 -1.764,0.45 -1.62,0.792 -2.7,2.682 -1.08,1.872 -1.35,4.212 -0.018,0.198 -0.018,0.738 0,1.872 0.972,2.826 0.432,0.378 0.522,0.378 l 0,-0.144 q 0,-0.81 0.63,-1.386 0.648,-0.576 1.368,-0.576 z m -0.594,2.466 q 0.828,0 1.62,-0.378 l -0.018,-0.18 q -0.072,-0.99 -0.666,-1.188 -0.216,-0.036 -0.342,-0.036 -0.054,0 -0.108,0 -0.054,-0.018 -0.072,-0.018 -0.072,0 -0.234,0.054 -0.36,0.108 -0.63,0.432 -0.27,0.306 -0.27,0.702 0,0.612 0.72,0.612 z"
         style="font-style:normal;font-variant:normal;font-weight:normal;font-stretch:normal;font-size:18px;line-height:125%;font-family:KaTeX_Math;-inkscape-font-specification:'KaTeX_Math, Normal';text-align:start;writing-mode:lr-tb;text-anchor:start"
         id="path4246" /><path
         d="m 511.36935,-116.82876 q -0.15912,-0.0281 -1.48824,-0.0281 -1.3104,0 -1.46952,0.0281 l -0.11232,0 0,-0.43056 0.24336,0 q 0.54288,0 0.702,-0.0281 0.0749,-0.009 0.22464,-0.11232 l 0,-4.83912 q -0.0187,0 -0.0749,0.0281 -0.43056,0.16848 -0.96408,0.17784 l -0.17784,0 0,-0.43056 0.17784,0 q 0.78624,-0.0281 1.3104,-0.35568 0.16848,-0.0936 0.29016,-0.21528 0.0187,-0.0281 0.11232,-0.0281 0.0936,0 0.15912,0.0562 l 0,2.79864 0.009,2.808 q 0.1404,0.1404 0.6084,0.1404 l 0.30888,0 0.24336,0 0,0.43056 -0.10296,0 z"
         style="font-style:normal;font-variant:normal;font-weight:normal;font-stretch:normal;font-size:9.35999966px;line-height:125%;font-family:KaTeX_Main;-inkscape-font-specification:'KaTeX_Main, Normal';text-align:start;writing-mode:lr-tb;baseline-shift:sub;text-anchor:start"
         id="path4248" /></g><g
       transform="scale(1,-1)"
       style="font-style:normal;font-variant:normal;font-weight:normal;font-stretch:normal;font-size:32px;line-height:125%;font-family:KaTeX_Main;-inkscape-font-specification:'KaTeX_Main, Normal';text-align:start;letter-spacing:0px;word-spacing:0px;writing-mode:lr-tb;text-anchor:start;fill:#000000;fill-opacity:1;stroke:none;stroke-width:1px;stroke-linecap:butt;stroke-linejoin:miter;stroke-opacity:1"
       id="text6250-1"><path
         d="m 491.73459,-41.273095 q 0.27,-0.018 0.612,-0.036 0.342,-0.036 0.504,-0.054 0.18,-0.018 0.198,-0.018 0.216,0 0.216,0.144 0,0.126 -1.332,5.454 -1.314,5.31 -1.332,5.4 -0.018,0.09 -0.018,0.27 0,0.756 0.504,0.756 0.162,-0.018 0.36,-0.162 0.378,-0.36 0.738,-1.728 0.108,-0.36 0.18,-0.378 0.036,-0.018 0.18,-0.018 l 0.072,0 q 0.342,0 0.342,0.144 0,0.072 -0.054,0.288 -0.396,1.512 -0.972,2.088 -0.234,0.234 -0.576,0.378 -0.144,0.036 -0.432,0.036 -1.134,0 -1.584,-0.882 -0.09,-0.234 -0.09,-0.216 -0.018,-0.018 -0.072,0.018 -0.036,0.036 -0.072,0.072 -0.864,0.81 -1.71,0.99 -0.108,0.018 -0.45,0.018 -1.188,0 -1.962,-0.99 -0.54,-0.792 -0.54,-2.016 0,-1.674 1.224,-3.312 1.116,-1.368 2.484,-1.71 0.378,-0.108 0.738,-0.108 0.99,0 1.512,0.756 0.09,0.108 0.09,0.072 0.018,-0.072 0.486,-1.962 0.486,-1.908 0.504,-1.998 0,-0.216 -0.108,-0.288 -0.198,-0.072 -0.72,-0.09 l -0.378,0 q -0.108,-0.108 -0.126,-0.144 0,-0.036 0.054,-0.342 0.09,-0.342 0.234,-0.342 0.018,0 0.18,-0.018 0.18,-0.018 0.486,-0.036 0.324,-0.018 0.63,-0.036 z m -1.548,6.516 q -0.396,-1.422 -1.35,-1.422 -0.72,0 -1.278,0.612 -0.54,0.612 -0.828,1.404 -0.522,1.422 -0.738,2.952 0,0.054 -0.018,0.198 0,0.144 0,0.216 0,0.648 0.27,1.044 0.288,0.396 0.828,0.396 0.954,0 1.998,-1.296 l 0.144,-0.198 q 0.162,-0.648 0.486,-1.944 0.324,-1.314 0.486,-1.962 z"
         style="font-style:normal;font-variant:normal;font-weight:normal;font-stretch:normal;font-size:18px;line-height:125%;font-family:KaTeX_Math;-inkscape-font-specification:'KaTeX_Math, Normal';text-align:start;writing-mode:lr-tb;text-anchor:start"
         id="path4237" /><path
         d="m 500.4193,-27.449095 q 0,-0.198 0.018,-0.666 0.036,-0.45 0.036,-0.576 l 0,-0.072 -0.27,0.072 q -0.828,0.198 -1.512,0.198 -1.908,0 -3.186,-1.224 -1.368,-1.332 -1.368,-3.564 0,-0.63 0.018,-0.81 0.324,-2.466 2.088,-4.536 0.504,-0.576 1.08,-1.08 1.998,-1.656 4.176,-1.854 l 0.306,0 q 0.684,0 0.864,0.018 1.764,0.252 2.826,1.548 1.062,1.296 1.062,3.276 0,2.412 -1.494,4.518 -1.494,2.088 -3.528,3.024 l -0.306,0.144 0,0.09 q 0,0.018 0.018,0.054 0.018,0.054 0.018,0.108 0.018,0.072 0.036,0.126 0.162,0.702 0.414,0.972 0.252,0.27 0.81,0.27 0.684,0 1.242,-0.432 0.558,-0.414 0.72,-0.99 0.108,-0.252 0.234,-0.252 0.162,0 0.198,0.162 0,0.108 -0.126,0.522 -0.738,2.178 -1.998,2.808 -0.45,0.198 -0.9,0.198 -0.828,0 -1.152,-0.54 -0.324,-0.522 -0.324,-1.512 z m -0.936,-4.23 q 0.648,0 1.062,0.468 0.432,0.468 0.522,1.332 l 0.234,-0.162 q 1.386,-0.954 2.232,-2.646 0.864,-1.692 1.134,-3.852 0.018,-0.18 0.018,-0.774 0,-2.106 -1.224,-3.006 -0.702,-0.54 -1.638,-0.54 -0.864,0 -1.764,0.45 -1.62,0.792 -2.7,2.682 -1.08,1.872 -1.35,4.212 -0.018,0.198 -0.018,0.738 0,1.872 0.972,2.826 0.432,0.378 0.522,0.378 l 0,-0.144 q 0,-0.81 0.63,-1.386 0.648,-0.576 1.368,-0.576 z m -0.594,2.466 q 0.828,0 1.62,-0.378 l -0.018,-0.18 q -0.072,-0.99 -0.666,-1.188 -0.216,-0.036 -0.342,-0.036 -0.054,0 -0.108,0 -0.054,-0.018 -0.072,-0.018 -0.072,0 -0.234,0.054 -0.36,0.108 -0.63,0.432 -0.27,0.306 -0.27,0.702 0,0.612 0.72,0.612 z"
         style="font-style:normal;font-variant:normal;font-weight:normal;font-stretch:normal;font-size:18px;line-height:125%;font-family:KaTeX_Math;-inkscape-font-specification:'KaTeX_Math, Normal';text-align:start;writing-mode:lr-tb;text-anchor:start"
         id="path4239" /><path
         d="m 508.50519,-29.304535 q -0.26208,0 -0.41184,-0.16848 -0.14976,-0.16848 -0.14976,-0.41184 0,-0.67392 0.50544,-1.15128 0.5148,-0.48672 1.22616,-0.48672 0.80496,0 1.32912,0.43992 0.53352,0.43056 0.6552,1.13256 0.0187,0.16848 0.0187,0.30888 0,0.54288 -0.3276,1.02024 -0.26208,0.39312 -1.05768,1.0764 -0.33696,0.29016 -0.936,0.86112 l -0.55224,0.52416 0.71136,0.0094 q 1.46952,0 1.56312,-0.0468 0.0374,-0.0094 0.0936,-0.19656 0.0374,-0.10296 0.13104,-0.63648 l 0,-0.02808 0.3744,0 0,0.02808 -0.26208,1.71288 0,0.02808 -3.47256,0 0,-0.17784 q 0,-0.1872 0.0187,-0.21528 0.009,-0.0094 0.78624,-0.8892 1.02024,-1.13256 1.3104,-1.4976 0.62712,-0.85176 0.62712,-1.56312 0,-0.61776 -0.3276,-1.0296 -0.31824,-0.4212 -0.89856,-0.4212 -0.54288,0 -0.87984,0.48672 -0.0187,0.03744 -0.0562,0.10296 -0.0281,0.0468 -0.0281,0.05616 0,0.0094 0.0468,0.0094 0.234,0 0.3744,0.16848 0.14976,0.16848 0.14976,0.39312 0,0.234 -0.15912,0.40248 -0.14976,0.15912 -0.40248,0.15912 z"
         style="font-style:normal;font-variant:normal;font-weight:normal;font-stretch:normal;font-size:9.35999966px;line-height:125%;font-family:KaTeX_Main;-inkscape-font-specification:'KaTeX_Main, Normal';text-align:start;writing-mode:lr-tb;baseline-shift:sub;text-anchor:start"
         id="path4241" /></g><g
       transform="scale(1,-1)"
       style="font-style:normal;font-variant:normal;font-weight:normal;font-stretch:normal;font-size:32px;line-height:125%;font-family:KaTeX_Main;-inkscape-font-specification:'KaTeX_Main, Normal';text-align:start;letter-spacing:0px;word-spacing:0px;writing-mode:lr-tb;text-anchor:start;fill:#000000;fill-opacity:1;stroke:none;stroke-width:1px;stroke-linecap:butt;stroke-linejoin:miter;stroke-opacity:1"
       id="text6250-0"><path
         d="m 487.89413,-94.616438 q -0.252,0 -0.432,-0.144 -0.18,-0.126 -0.18,-0.36 0,-0.234 0.72,-3.096 0.72,-2.862002 0.72,-3.186002 0,-0.702 -0.468,-0.702 -0.198,0 -0.342,0.126 -0.432,0.342 -0.864,1.998002 0,0.018 -0.018,0.072 -0.018,0.036 -0.036,0.054 0,0 -0.018,0.018 -0.018,0.018 -0.072,0.018 -0.036,0 -0.072,0 -0.036,0 -0.144,0 l -0.252,0 q -0.108,-0.108 -0.108,-0.162 0,-0.144002 0.234,-0.846002 0.342,-1.044 0.81,-1.512 0.432,-0.432 0.954,-0.432 0.702,0 1.152,0.342 0.396,0.306 0.522,0.63 0.036,0.108 0.054,0.126 0.018,0 0.144,-0.144 0.666,-0.738 1.53,-0.918 0.108,-0.018 0.468,-0.018 0.666,0 1.08,0.378 0.414,0.378 0.414,1.026 0,0.576 -0.324,0.972 -0.306,0.378002 -0.828,0.378002 -0.342,0 -0.576,-0.198002 -0.216,-0.198 -0.216,-0.522 0,-0.882 1.008,-1.152 -0.396,-0.234 -0.648,-0.234 -0.378,0 -0.72,0.18 -0.594,0.288 -1.134,1.152 -0.18,0.288 -0.27,0.594 -0.09,0.306002 -0.612,2.394002 -0.612,2.52 -0.702,2.682 -0.234,0.486 -0.774,0.486 z"
         style="font-style:normal;font-variant:normal;font-weight:normal;font-stretch:normal;font-size:18px;line-height:125%;font-family:KaTeX_Math;-inkscape-font-specification:'KaTeX_Math, Normal';text-align:start;writing-mode:lr-tb;text-anchor:start"
         id="path4234" /></g><path
       inkscape:connector-curvature="0"
       id="path4696"
       d="m 372.65369,85.072959 -1.78706,6.06769 1.51623,-0.0542 0.0378,0.6591 0.44029,2.39578 1.59625,3.82129 2.14467,3.433131 0.84638,-0.52764 -2.10035,-3.365891 -1.52425,-3.64703 -0.40788,-2.22581 -0.0304,-0.57893 1.47918,-0.0536 z m 0,0"
       style="fill:#000000;fill-opacity:1;fill-rule:nonzero;stroke:none" /><g
       id="g4359"
       style="fill:#000000;fill-opacity:1"
       transform="matrix(1,0,0,-1,284.47239,206.8778)"><g
         style="font-style:normal;font-variant:normal;font-weight:normal;font-stretch:normal;font-size:32px;line-height:125%;font-family:KaTeX_Main;-inkscape-font-specification:'KaTeX_Main, Normal';text-align:start;letter-spacing:0px;word-spacing:0px;writing-mode:lr-tb;text-anchor:start;fill:#000000;fill-opacity:1;stroke:none;stroke-width:1px;stroke-linecap:butt;stroke-linejoin:miter;stroke-opacity:1"
         id="text8169"><path
           d="m 100.64378,92.661488 q 0.018,0 0.144,0 0.126,-0.018 0.216,-0.018 0.972,0.09 1.512,0.882 0.702,1.062 0.702,2.898 0,0.486 -0.036,0.774 -0.234,2.394 -1.242,4.482002 -0.612,1.278 -1.44,2.232 -0.810001,0.954 -1.602001,1.35 -0.558,0.252 -0.972,0.252 l -0.126,0 q -0.792,0 -1.314,-0.558 -0.954,-1.008 -0.954,-3.222 0,-0.864 0.18,-1.818002 0.666,-3.6 2.718,-5.886 1.098,-1.206 2.214001,-1.368 z m 1.152,2.484 q 0,-1.836 -0.954,-1.836 -0.594,0 -1.224001,0.774 -0.9,1.134 -1.53,3.24 -0.36,1.134 -0.36,1.332 0.882,0.018 1.746,0.018 l 1.746001,-0.018 q 0.09,-0.09 0.324,-1.404 0.252,-1.314 0.252,-2.106 z m -0.864,4.662 0.09,-0.306 -3.510001,0 -0.018,0.126 q -0.558,2.232002 -0.558,3.330002 0,1.224 0.432,1.692 0.198,0.216 0.522,0.216 0.72,0 1.512,-1.17 0.846001,-1.242 1.530001,-3.888002 z"
           style="font-style:italic;font-variant:normal;font-weight:normal;font-stretch:normal;font-size:18px;line-height:125%;font-family:KaTeX_Math;-inkscape-font-specification:'KaTeX_Math, Italic';text-align:start;writing-mode:lr-tb;text-anchor:start"
           id="path4231" /></g></g><path
       d="m 386.42407,80.88951 c 0,2.20914 1.7909,4 4,4 2.2091,0 4,-1.79086 4,-4 0,-2.20914 -1.7909,-4 -4,-4 -2.2091,0 -4,1.79086 -4,4 z"
       style="fill:#51c4df;fill-opacity:1;fill-rule:nonzero;stroke:#0088aa"
       id="path4313"
       inkscape:connector-curvature="0" /></g></svg>