<?xml version="1.0" encoding="UTF-8" standalone="no"?>
<!-- Generator: Adobe Illustrator 19.0.0, SVG Export Plug-In . SVG Version: 6.00 Build 0)  -->

<svg
   xmlns:dc="http://purl.org/dc/elements/1.1/"
   xmlns:cc="http://creativecommons.org/ns#"
   xmlns:rdf="http://www.w3.org/1999/02/22-rdf-syntax-ns#"
   xmlns:svg="http://www.w3.org/2000/svg"
   xmlns="http://www.w3.org/2000/svg"
   xmlns:sodipodi="http://sodipodi.sourceforge.net/DTD/sodipodi-0.dtd"
   xmlns:inkscape="http://www.inkscape.org/namespaces/inkscape"
   version="1.1"
   id="Layer_1"
   x="0px"
   y="0px"
   viewBox="0 0 100 100"
   xml:space="preserve"
   sodipodi:docname="quora100.svg"
   inkscape:version="0.92.2 5c3e80d, 2017-08-06"
   width="100"
   height="100"><metadata
     id="metadata52657"><rdf:RDF><cc:Work
         rdf:about=""><dc:format>image/svg+xml</dc:format><dc:type
           rdf:resource="http://purl.org/dc/dcmitype/StillImage" /><dc:title></dc:title></cc:Work></rdf:RDF></metadata><defs
     id="defs52655" /><sodipodi:namedview
     pagecolor="#ffffff"
     bordercolor="#666666"
     borderopacity="1"
     objecttolerance="10"
     gridtolerance="10"
     guidetolerance="10"
     inkscape:pageopacity="0"
     inkscape:pageshadow="2"
     inkscape:window-width="640"
     inkscape:window-height="480"
     id="namedview52653"
     showgrid="false"
     inkscape:zoom="5.01"
     inkscape:cx="50"
     inkscape:cy="50"
     inkscape:current-layer="Layer_1"
     fit-margin-left="0"
     fit-margin-right="0"
     fit-margin-top="0"
     fit-margin-bottom="0" /><path
     style="fill:#808080;stroke-width:1"
     d="M 50,0 A 50,50 0 0 0 0,50 50,50 0 0 0 50,100 50,50 0 0 0 100,50 50,50 0 0 0 50,0 Z m -3.221512,21.38062 c 13.357222,0 24.184802,11.16237 24.184802,24.93209 0,7.63164 -3.32683,14.46114 -8.56629,19.03458 1.84493,2.85684 3.8148,5.05753 6.69937,5.05753 3.73516,0 4.01497,-4.10881 4.01497,-4.10881 h 4.29535 c 0,0 -0.46704,12.32337 -11.76567,12.32337 -5.55117,0 -9.097432,-3.99011 -11.890791,-8.42781 -2.208008,0.68418 -4.547522,1.05362 -6.971741,1.05362 -13.357226,0 -24.185181,-11.16295 -24.185181,-24.93248 0,-13.76953 10.827955,-24.93209 24.185181,-24.93209 z m 0,4.10842 c -7.7875,0 -14.100265,9.32328 -14.100265,20.82367 0,11.50039 6.312765,20.82367 14.100265,20.82367 1.590821,0 3.120371,-0.38945 4.546739,-1.10664 -2.101368,-3.75723 -3.935063,-7.03218 -6.294633,-7.57866 -3.745117,-0.86738 -5.255508,0.001 -5.255508,0.001 l -1.494217,-3.08151 c 1.5875,-1.30742 6.599969,-3.92748 12.419891,-2.61497 3.280664,0.74003 5.575386,3.06408 7.487107,5.79337 1.692186,-3.43535 2.690883,-7.66335 2.690883,-12.2364 0,-11.50039 -6.312762,-20.82367 -14.100262,-20.82367 z"
     id="circle52614"
     inkscape:connector-curvature="0" /><g
     id="g52622"
     transform="scale(0.1953125)"
     style="stroke-width:5.11999989" /><g
     id="g52624"
     transform="scale(0.1953125)"
     style="stroke-width:5.11999989" /><g
     id="g52626"
     transform="scale(0.1953125)"
     style="stroke-width:5.11999989" /><g
     id="g52628"
     transform="scale(0.1953125)"
     style="stroke-width:5.11999989" /><g
     id="g52630"
     transform="scale(0.1953125)"
     style="stroke-width:5.11999989" /><g
     id="g52632"
     transform="scale(0.1953125)"
     style="stroke-width:5.11999989" /><g
     id="g52634"
     transform="scale(0.1953125)"
     style="stroke-width:5.11999989" /><g
     id="g52636"
     transform="scale(0.1953125)"
     style="stroke-width:5.11999989" /><g
     id="g52638"
     transform="scale(0.1953125)"
     style="stroke-width:5.11999989" /><g
     id="g52640"
     transform="scale(0.1953125)"
     style="stroke-width:5.11999989" /><g
     id="g52642"
     transform="scale(0.1953125)"
     style="stroke-width:5.11999989" /><g
     id="g52644"
     transform="scale(0.1953125)"
     style="stroke-width:5.11999989" /><g
     id="g52646"
     transform="scale(0.1953125)"
     style="stroke-width:5.11999989" /><g
     id="g52648"
     transform="scale(0.1953125)"
     style="stroke-width:5.11999989" /><g
     id="g52650"
     transform="scale(0.1953125)"
     style="stroke-width:5.11999989" /></svg>