<?xml version="1.0" encoding="UTF-8" standalone="no"?>
<!-- Generator: Adobe Illustrator 19.0.0, SVG Export Plug-In . SVG Version: 6.00 Build 0)  -->

<svg
   xmlns:dc="http://purl.org/dc/elements/1.1/"
   xmlns:cc="http://creativecommons.org/ns#"
   xmlns:rdf="http://www.w3.org/1999/02/22-rdf-syntax-ns#"
   xmlns:svg="http://www.w3.org/2000/svg"
   xmlns="http://www.w3.org/2000/svg"
   xmlns:sodipodi="http://sodipodi.sourceforge.net/DTD/sodipodi-0.dtd"
   xmlns:inkscape="http://www.inkscape.org/namespaces/inkscape"
   version="1.1"
   id="Layer_1"
   x="0px"
   y="0px"
   viewBox="0 0 512 512"
   style="enable-background:new 0 0 512 512;"
   xml:space="preserve"
   sodipodi:docname="quora.svg"
   inkscape:version="0.92.2 5c3e80d, 2017-08-06"><metadata
     id="metadata52657"><rdf:RDF><cc:Work
         rdf:about=""><dc:format>image/svg+xml</dc:format><dc:type
           rdf:resource="http://purl.org/dc/dcmitype/StillImage" /><dc:title></dc:title></cc:Work></rdf:RDF></metadata><defs
     id="defs52655" /><sodipodi:namedview
     pagecolor="#ffffff"
     bordercolor="#666666"
     borderopacity="1"
     objecttolerance="10"
     gridtolerance="10"
     guidetolerance="10"
     inkscape:pageopacity="0"
     inkscape:pageshadow="2"
     inkscape:window-width="640"
     inkscape:window-height="480"
     id="namedview52653"
     showgrid="false"
     inkscape:zoom="0.97851562"
     inkscape:cx="256"
     inkscape:cy="256"
     inkscape:current-layer="Layer_1" /><circle
     style="fill:#808080"
     cx="256"
     cy="256"
     r="256"
     id="circle52614" /><path
     style="fill:#FFFFFF;"
     d="M374.331,339.435c0,0-1.434,21.037-20.558,21.037c-14.769,0-24.855-11.266-34.301-25.893  c26.826-23.416,43.861-58.384,43.861-97.458c0-70.501-55.439-127.653-123.828-127.653s-123.828,57.153-123.828,127.653  s55.439,127.654,123.828,127.654c12.412,0,24.392-1.891,35.697-5.394c14.302,22.721,32.458,43.151,60.88,43.151  c57.849,0,60.24-63.097,60.24-63.097H374.331L374.331,339.435L374.331,339.435z M239.506,343.738  c-39.872,0-72.194-47.735-72.194-106.617s32.322-106.617,72.194-106.617s72.194,47.735,72.194,106.617  c0,23.414-5.115,45.061-13.779,62.65c-9.788-13.974-21.537-25.872-38.334-29.661c-29.798-6.72-55.46,6.694-63.588,13.388  l7.649,15.777c0,0,7.733-4.446,26.908-0.005c12.081,2.798,21.471,19.565,32.23,38.802  C255.483,341.744,247.651,343.738,239.506,343.738z"
     id="path52618" /><g
     id="g52622" /><g
     id="g52624" /><g
     id="g52626" /><g
     id="g52628" /><g
     id="g52630" /><g
     id="g52632" /><g
     id="g52634" /><g
     id="g52636" /><g
     id="g52638" /><g
     id="g52640" /><g
     id="g52642" /><g
     id="g52644" /><g
     id="g52646" /><g
     id="g52648" /><g
     id="g52650" /></svg>