<?xml version="1.0" encoding="UTF-8" standalone="no"?>
<!-- Generator: Adobe Illustrator 19.1.0, SVG Export Plug-In . SVG Version: 6.00 Build 0)  -->

<svg
   xmlns:dc="http://purl.org/dc/elements/1.1/"
   xmlns:cc="http://creativecommons.org/ns#"
   xmlns:rdf="http://www.w3.org/1999/02/22-rdf-syntax-ns#"
   xmlns:svg="http://www.w3.org/2000/svg"
   xmlns="http://www.w3.org/2000/svg"
   xmlns:sodipodi="http://sodipodi.sourceforge.net/DTD/sodipodi-0.dtd"
   xmlns:inkscape="http://www.inkscape.org/namespaces/inkscape"
   version="1.1"
   id="Layer_1"
   x="0px"
   y="0px"
   viewBox="0 0 413.49622 155.51669"
   xml:space="preserve"
   inkscape:version="0.91 r13725"
   sodipodi:docname="rc_step2a.svg"
   width="413.49622"
   height="155.51669"><metadata
     id="metadata4923"><rdf:RDF><cc:Work
         rdf:about=""><dc:format>image/svg+xml</dc:format><dc:type
           rdf:resource="http://purl.org/dc/dcmitype/StillImage" /><dc:title></dc:title></cc:Work></rdf:RDF></metadata><defs
     id="defs4921" /><sodipodi:namedview
     pagecolor="#ffffff"
     bordercolor="#666666"
     borderopacity="1"
     objecttolerance="10"
     gridtolerance="10"
     guidetolerance="10"
     inkscape:pageopacity="0"
     inkscape:pageshadow="2"
     inkscape:window-width="1252"
     inkscape:window-height="737"
     id="namedview4919"
     showgrid="false"
     fit-margin-top="10"
     fit-margin-left="10"
     fit-margin-right="10"
     fit-margin-bottom="10"
     inkscape:zoom="1.6348396"
     inkscape:cx="206.74811"
     inkscape:cy="77.758347"
     inkscape:window-x="0"
     inkscape:window-y="0"
     inkscape:window-maximized="0"
     inkscape:current-layer="Layer_1" /><style
     type="text/css"
     id="style4823">
	.st0{fill:none;stroke:#000000;stroke-width:0.5;stroke-linecap:round;stroke-miterlimit:10;}
	.st1{fill:none;stroke:#000000;stroke-width:0.5;stroke-miterlimit:10;}
	.st2{fill:none;stroke:#11ACCD;stroke-width:3;stroke-linecap:round;stroke-miterlimit:10;}
	.st3{fill:#11ACCD;}
	.st4{fill:none;stroke:#11ACCD;stroke-width:4;stroke-miterlimit:10;}
	.st5{fill:none;stroke:#000000;stroke-linecap:round;stroke-linejoin:round;stroke-miterlimit:10;}
	.st6{fill:none;stroke:#000000;stroke-width:2;stroke-linecap:round;stroke-linejoin:round;stroke-miterlimit:10;}
	.st7{fill:none;stroke:#000000;stroke-width:2;stroke-miterlimit:10;}
	.st8{fill:none;stroke:#000000;stroke-linecap:round;stroke-miterlimit:10;}
	.st9{fill:none;stroke:#000000;stroke-width:1.5;stroke-miterlimit:10;}
	.st10{fill:none;stroke:#000000;stroke-width:1.5;stroke-linecap:round;stroke-miterlimit:10;}
	.st11{fill:none;stroke:#000000;stroke-width:2;stroke-linecap:round;stroke-miterlimit:10;}
	.st12{fill:none;}
	.st13{stroke:#000000;stroke-linecap:round;stroke-linejoin:round;stroke-miterlimit:10;}
	.st14{fill:none;stroke:#000000;stroke-miterlimit:10;}
	.st15{fill:#FFFFFF;stroke:#000000;stroke-miterlimit:10;}
	.st16{fill:#FF9C39;}
	.st17{fill:none;stroke:#E07D10;stroke-width:2;stroke-linecap:round;stroke-miterlimit:10;}
	.st18{fill:#E07D10;}
	.st19{fill:none;stroke:#FF9C39;stroke-width:2;stroke-linecap:round;stroke-miterlimit:10;}
	.st20{fill:none;stroke:#FF9C39;stroke-width:3;stroke-linecap:round;stroke-miterlimit:10;}
	.st21{fill:none;stroke:#1FAB54;stroke-width:3;stroke-miterlimit:10;}
	.st22{fill:#1FAB54;}
	.st23{font-family:'KaTeX_Main-Regular';}
	.st24{font-size:21px;}
	.st25{font-family:'KaTeX_Main-Italic';}
	.st26{fill:none;stroke:#11ACCD;stroke-width:2;stroke-linecap:round;stroke-miterlimit:10;}
</style><circle
     style="fill:none;stroke:#000000;stroke-width:2;stroke-miterlimit:10"
     id="circle4843"
     r="18"
     cy="91.016693"
     cx="161.14484"
     class="st7" /><path
     style="color:#000000;font-style:normal;font-variant:normal;font-weight:normal;font-stretch:normal;font-size:medium;line-height:normal;font-family:sans-serif;text-indent:0;text-align:start;text-decoration:none;text-decoration-line:none;text-decoration-style:solid;text-decoration-color:#000000;letter-spacing:normal;word-spacing:normal;text-transform:none;direction:ltr;block-progression:tb;writing-mode:lr-tb;baseline-shift:baseline;text-anchor:start;white-space:normal;clip-rule:nonzero;display:inline;overflow:visible;visibility:visible;opacity:1;isolation:auto;mix-blend-mode:normal;color-interpolation:sRGB;color-interpolation-filters:linearRGB;solid-color:#000000;solid-opacity:1;fill:#000000;fill-opacity:1;fill-rule:nonzero;stroke:none;stroke-width:1;stroke-linecap:round;stroke-linejoin:miter;stroke-miterlimit:10;stroke-dasharray:none;stroke-dashoffset:0;stroke-opacity:1;color-rendering:auto;image-rendering:auto;shape-rendering:auto;text-rendering:auto;enable-background:accumulate"
     d="m 160.64485,36.51669 0,36.5 a 0.50005,0.50005 0 1 0 1,0 l 0,-35.5 11.46484,0 12.03516,0 0,-1 -12,0 -12.5,0 z"
     id="polyline4845"
     inkscape:connector-curvature="0" /><line
     style="fill:none;stroke:#000000;stroke-linecap:round;stroke-linejoin:round;stroke-miterlimit:10"
     id="line4847"
     y2="133.01668"
     x2="161.14484"
     y1="109.01669"
     x1="161.14484"
     class="st5" /><line
     style="fill:none;stroke:#000000;stroke-width:1.5;stroke-miterlimit:10"
     id="line4849"
     y2="89.516693"
     x2="161.14484"
     y1="77.516693"
     x1="161.14484"
     class="st9" /><line
     style="fill:none;stroke:#000000;stroke-width:1.5;stroke-miterlimit:10"
     id="line4851"
     y2="83.516693"
     x2="167.14484"
     y1="83.516693"
     x1="155.14484"
     class="st9" /><line
     style="fill:none;stroke:#000000;stroke-width:1.5;stroke-miterlimit:10"
     id="line4853"
     y2="101.51669"
     x2="167.14484"
     y1="101.51669"
     x1="155.14484"
     class="st9" /><g
     id="g4855"
     transform="translate(107.14485,-16.98331)"><polyline
       class="st5"
       points="222,112.5 222,150 222,162 54,162 54,150  "
       id="polyline4857"
       style="fill:none;stroke:#000000;stroke-linecap:round;stroke-linejoin:round;stroke-miterlimit:10" /><line
       class="st6"
       x1="234"
       y1="112.5"
       x2="210"
       y2="112.5"
       id="line4859"
       style="fill:none;stroke:#000000;stroke-width:2;stroke-linecap:round;stroke-linejoin:round;stroke-miterlimit:10" /><line
       class="st6"
       x1="240"
       y1="112.5"
       x2="204"
       y2="112.5"
       id="line4861"
       style="fill:none;stroke:#000000;stroke-width:2;stroke-linecap:round;stroke-linejoin:round;stroke-miterlimit:10" /><polyline
       class="st6"
       points="204,103.5 222,103.5 240,103.5  "
       id="polyline4863"
       style="fill:none;stroke:#000000;stroke-width:2;stroke-linecap:round;stroke-linejoin:round;stroke-miterlimit:10" /><polyline
       class="st5"
       points="222,103.5 222,66 222,54 198,54  "
       id="polyline4865"
       style="fill:none;stroke:#000000;stroke-linecap:round;stroke-linejoin:round;stroke-miterlimit:10" /></g><g
     id="g4867"
     transform="translate(107.14485,-16.98331)"><line
       class="st5"
       x1="179.39999"
       y1="54"
       x2="198"
       y2="54"
       id="line4869"
       style="fill:none;stroke:#000000;stroke-linecap:round;stroke-linejoin:round;stroke-miterlimit:10" /><polyline
       class="st6"
       points="132.6,54 136.5,45 144.3,63 152.1,45 159.9,63 167.7,45 175.5,63 179.4,54  "
       id="polyline4871"
       style="fill:none;stroke:#000000;stroke-width:2;stroke-linecap:round;stroke-linejoin:round;stroke-miterlimit:10" /><line
       class="st5"
       x1="114"
       y1="54"
       x2="132.60001"
       y2="54"
       id="line4873"
       style="fill:none;stroke:#000000;stroke-linecap:round;stroke-linejoin:round;stroke-miterlimit:10" /><rect
       x="114"
       y="42"
       class="st12"
       width="84"
       height="24"
       id="rect4875"
       style="fill:none" /></g><g
     style="font-style:normal;font-variant:normal;font-weight:normal;font-stretch:normal;font-size:21px;line-height:125%;font-family:KaTeX_Main;-inkscape-font-specification:'KaTeX_Main, Normal';text-align:start;writing-mode:lr-tb;text-anchor:start"
     id="text4877"><path
       d="m 253.87474,53.955288 q -0.21,-0.21 -0.42,-0.252 -0.189,-0.042 -1.05,-0.063 l -0.693,0 0,-0.966 3.675,0 q 3.906,0.021 4.305,0.084 0.063,0.021 0.273,0.063 0.945,0.189 1.68,0.588 1.995,1.008 2.289,2.751 0.021,0.105 0.021,0.336 0,1.176 -0.903,2.058 -0.882,0.882 -2.1,1.281 -0.042,0.021 -0.105,0.042 -0.042,0 -0.084,0.021 l -0.042,0.021 q 0.063,0.063 0.231,0.126 1.512,0.84 1.869,2.226 0.021,0.084 0.231,1.386 0.21,1.302 0.231,1.386 0.147,0.756 0.357,1.113 0.231,0.357 0.588,0.483 0.084,0.042 0.357,0.042 l 0.105,0 q 0.273,0 0.504,-0.231 0.42,-0.42 0.483,-1.26 0,-0.231 0.063,-0.294 0.084,-0.084 0.357,-0.084 0.252,0 0.336,0.063 0.084,0.042 0.084,0.252 0,0.756 -0.378,1.386 -0.357,0.609 -0.882,0.84 -0.336,0.126 -0.882,0.126 -3.129,-0.126 -3.612,-2.352 -0.042,-0.231 -0.063,-1.533 0,-1.302 -0.126,-1.743 -0.189,-0.567 -0.63,-0.966 -0.42,-0.42 -0.966,-0.588 l -0.21,-0.042 -1.386,-0.021 -1.386,0 0,2.751 0.021,2.751 q 0.147,0.21 0.357,0.252 0.231,0.042 1.092,0.063 l 0.693,0 0,0.966 -0.231,0 q -0.336,-0.063 -2.982,-0.063 -2.667,0 -3.003,0.063 l -0.231,0 0,-0.966 0.693,0 q 0.861,-0.021 1.05,-0.063 0.21,-0.042 0.42,-0.252 l 0,-11.781 z m 7.56,1.743 q -0.21,-1.26 -1.134,-1.659 -0.903,-0.399 -2.772,-0.399 -0.315,0 -0.714,0.021 -0.399,0 -0.42,0 -0.273,0.021 -0.336,0.168 -0.063,0.084 -0.063,2.856 l 0,2.772 1.218,0 q 1.575,0 2.331,-0.126 0.756,-0.147 1.323,-0.714 0.357,-0.357 0.462,-0.798 0.126,-0.441 0.126,-1.281 0,-0.672 -0.021,-0.84 z"
       style="font-style:normal;font-variant:normal;font-weight:normal;font-stretch:normal;font-size:21px;line-height:125%;font-family:KaTeX_Main;-inkscape-font-specification:'KaTeX_Main, Normal';text-align:start;writing-mode:lr-tb;text-anchor:start"
       id="path4187" /></g><g
     style="font-style:normal;font-variant:normal;font-weight:normal;font-stretch:normal;font-size:21px;line-height:125%;font-family:KaTeX_Main;-inkscape-font-specification:'KaTeX_Main, Normal';text-align:start;writing-mode:lr-tb;text-anchor:start"
     id="text4879"><path
       d="m 301.00575,91.620189 0.126,0.126 0,0.315 q -0.105,1.89 -1.239,3.339 -1.134,1.449 -2.919,1.911 -0.609,0.147 -1.365,0.147 -0.777,0 -1.323,-0.126 -2.352,-0.462 -3.969,-2.226 -1.596,-1.764 -1.974,-4.368 -0.021,-0.189 -0.021,-0.903 0,-0.693 0.021,-0.903 0.357,-2.562 1.974,-4.326 1.617,-1.785 3.969,-2.268 0.672,-0.126 1.071,-0.126 0.042,0 0.168,0.021 0.126,0 0.189,0 0.504,0 0.714,0.042 1.533,0.273 2.667,1.386 l 0.273,0.252 0.63,-0.819 q 0.567,-0.777 0.651,-0.861 0.021,0 0.084,0 0.063,-0.021 0.126,-0.021 0.147,0 0.273,0.126 l 0,5.88 -0.126,0.126 -0.714,0 q -0.126,-0.126 -0.147,-0.357 -0.189,-1.722 -1.008,-2.982 -0.819,-1.26 -1.995,-1.659 -0.399,-0.147 -1.05,-0.147 -2.184,0 -3.654,1.47 -1.659,1.659 -1.659,5.166 0,2.541 0.798,4.011 0.651,1.239 1.848,1.953 1.218,0.714 2.709,0.714 1.533,0 2.667,-1.092 1.134,-1.113 1.386,-2.604 0.105,-0.525 0.105,-0.924 0,-0.147 0.126,-0.273 l 0.588,0 z"
       style="font-style:normal;font-variant:normal;font-weight:normal;font-stretch:normal;font-size:21px;line-height:125%;font-family:KaTeX_Main;-inkscape-font-specification:'KaTeX_Main, Normal';text-align:start;writing-mode:lr-tb;text-anchor:start"
       id="path4190" /></g><g
     style="font-style:normal;font-variant:normal;font-weight:normal;font-stretch:normal;font-size:22.5px;line-height:125%;font-family:KaTeX_Main;-inkscape-font-specification:'KaTeX_Main, Normal';text-align:start;writing-mode:lr-tb;text-anchor:start;fill:#ff9c39"
     id="text4881"><path
       d="m 349.35045,139.8422 q -0.315,-0.1575 -0.315,-0.45 0,-0.2925 0.315,-0.45 l 13.0725,0 q 0.3375,0.18 0.3375,0.45 0,0.27 -0.3375,0.45 l -13.0725,0 z"
       style="font-style:normal;font-variant:normal;font-weight:normal;font-stretch:normal;font-size:22.5px;line-height:125%;font-family:KaTeX_Main;-inkscape-font-specification:'KaTeX_Main, Normal';text-align:start;writing-mode:lr-tb;text-anchor:start;fill:#ff9c39"
       id="path4193" /></g><g
     style="font-style:normal;font-variant:normal;font-weight:normal;font-stretch:normal;font-size:21px;line-height:125%;font-family:KaTeX_Math;-inkscape-font-specification:'KaTeX_Math, Normal';text-align:start;writing-mode:lr-tb;text-anchor:start;fill:#ff9c39"
     id="text4883"><path
       d="m 376.20614,97.24809 q -1.344,0 -2.142,-0.672 -0.777,-0.693 -0.777,-2.016 0,-0.378 0.042,-0.714 0.189,-1.008 0.987,-3.087 l 0.336,-1.008 q 0.126,-0.378 0.126,-0.714 0,-0.525 -0.399,-0.525 -0.147,0 -0.336,0.063 -1.071,0.378 -1.617,2.415 0,0.021 -0.021,0.084 -0.021,0.042 -0.042,0.063 0,0 -0.021,0.021 -0.021,0.021 -0.084,0.021 -0.042,0 -0.084,0 -0.042,0 -0.168,0 l -0.294,0 q -0.126,-0.126 -0.126,-0.189 0,-0.063 0.063,-0.315 0.504,-1.659 1.554,-2.478 0.567,-0.441 1.302,-0.441 0.819,0 1.344,0.462 0.525,0.462 0.525,1.218 0,0.357 -0.063,0.546 0,0.147 -0.315,0.924 -0.966,2.625 -1.029,3.738 0,0.567 0.105,0.924 0.273,0.903 1.323,0.903 0.567,0 1.008,-0.336 1.302,-0.861 2.163,-3.969 0.168,-0.588 0.168,-0.966 0,-0.924 -0.819,-1.659 -0.273,-0.252 -0.273,-0.567 0,-0.483 0.378,-0.861 0.399,-0.399 0.882,-0.399 0.504,0 0.777,0.483 0.273,0.462 0.273,1.113 0,0.735 -0.42,2.415 -0.399,1.617 -1.008,2.814 -1.323,2.709 -3.318,2.709 z"
       style="font-style:normal;font-variant:normal;font-weight:normal;font-stretch:normal;font-size:21px;line-height:125%;font-family:KaTeX_Math;-inkscape-font-specification:'KaTeX_Math, Normal';text-align:start;writing-mode:lr-tb;text-anchor:start;fill:#ff9c39"
       id="path4196" /><path
       d="m 387.82825,81.08252 q -1.37403,2.358398 -2.04053,4.665527 -0.6665,2.307129 -0.6665,4.675781 0,2.368652 0.6665,4.696289 0.67676,2.317383 2.04053,4.665528 l -1.64063,0 q -1.53808,-2.409668 -2.30713,-4.737305 -0.75879,-2.327637 -0.75879,-4.624512 0,-2.286621 0.75879,-4.604004 0.75879,-2.317383 2.30713,-4.737304 l 1.64063,0 z"
       style="font-style:normal;font-variant:normal;font-weight:normal;font-stretch:normal;font-size:21px;line-height:125%;font-family:KaTeX_Math;-inkscape-font-specification:'KaTeX_Math, Normal';text-align:start;writing-mode:lr-tb;text-anchor:start;fill:#ff9c39"
       id="path4198" /><path
       d="m 390.06614,88.93209 q -0.147,-0.147 -0.147,-0.21 0,-0.084 0.063,-0.336 0.084,-0.273 0.105,-0.294 0.042,-0.105 0.189,-0.105 0.168,-0.021 1.071,-0.021 l 1.113,0 0.399,-1.68 q 0.441,-1.701 0.504,-1.827 0.252,-0.588 0.966,-0.588 0.273,0.021 0.462,0.189 0.21,0.168 0.21,0.441 0,0.252 -0.399,1.785 -0.084,0.357 -0.21,0.798 -0.105,0.42 -0.168,0.63 l -0.042,0.21 q 0,0.042 1.05,0.042 l 1.071,0 q 0.147,0.147 0.147,0.231 0,0.462 -0.273,0.735 l -2.247,0 -0.756,3.045 q -0.777,3.129 -0.798,3.297 -0.021,0.105 -0.021,0.315 0,0.882 0.567,0.882 0.147,0 0.252,-0.021 1.05,-0.189 1.911,-1.68 0.21,-0.336 0.378,-0.777 0.042,-0.126 0.105,-0.147 0.063,-0.042 0.315,-0.042 0.42,0 0.42,0.168 0,0.042 -0.084,0.252 -0.231,0.672 -0.756,1.365 -0.504,0.672 -1.029,1.071 -0.777,0.588 -1.659,0.588 -0.756,0 -1.302,-0.378 -0.525,-0.399 -0.714,-1.029 -0.042,-0.168 -0.042,-0.567 l 0,-0.378 0.735,-2.94 q 0.735,-2.961 0.756,-2.982 0,-0.042 -1.071,-0.042 l -1.071,0 z"
       style="font-style:normal;font-variant:normal;font-weight:normal;font-stretch:normal;font-size:21px;line-height:125%;font-family:KaTeX_Math;-inkscape-font-specification:'KaTeX_Math, Normal';text-align:start;writing-mode:lr-tb;text-anchor:start;fill:#ff9c39"
       id="path4200" /><path
       d="m 398.78967,81.08252 1.64063,0 q 1.53808,2.419921 2.29687,4.737304 0.76905,2.317383 0.76905,4.604004 0,2.296875 -0.76905,4.624512 -0.75879,2.327637 -2.29687,4.737305 l -1.64063,0 q 1.36377,-2.348145 2.03028,-4.665528 0.67675,-2.327637 0.67675,-4.696289 0,-2.368652 -0.67675,-4.675781 -0.66651,-2.307129 -2.03028,-4.665527 z"
       style="font-style:normal;font-variant:normal;font-weight:normal;font-stretch:normal;font-size:21px;line-height:125%;font-family:KaTeX_Math;-inkscape-font-specification:'KaTeX_Math, Normal';text-align:start;writing-mode:lr-tb;text-anchor:start;fill:#ff9c39"
       id="path4202" /></g><g
     style="font-style:normal;font-variant:normal;font-weight:normal;font-stretch:normal;font-size:20px;line-height:125%;font-family:KaTeX_Main;-inkscape-font-specification:'KaTeX_Main, Normal';text-align:start;writing-mode:lr-tb;text-anchor:start;fill:#ff9c39"
     id="text4887"><path
       d="m 11.9,94.425706 q -0.22,-0.22 -0.4,-0.26 -0.18,-0.06 -0.92,-0.08 l -0.5800001,0 0,-0.92 0.1800001,0 q 0.28,0.06 2.48,0.06 2.4,0 2.84,-0.06 l 0.22,0 0,0.92 -0.42,0 q -0.92,0.02 -1.14,0.22 -0.08,0.06 -0.08,0.12 0,0.04 1.8,4.96 1.8,4.920004 1.82,4.920004 0.78,-2.1 1.72,-4.640004 1.7,-4.6 1.7,-4.78 0,-0.38 -0.42,-0.58 -0.42,-0.22 -0.92,-0.22 l -0.1,0 0,-0.92 0.18,0 q 0.34,0.06 2.3,0.06 1.72,0 1.94,-0.06 l 0.12,0 0,0.92 -0.14,0 q -1.48,0 -1.92,0.82 0,0.02 -2.26,6.100004 -2.24,6.08 -2.26,6.1 -0.06,0.16 -0.36,0.16 l -0.18,0 -0.18,0 q -0.28,0 -0.34,-0.16 -0.04,-0.04 -2.34,-6.34 -2.34,-6.280004 -2.34,-6.340004 z"
       style="font-style:normal;font-variant:normal;font-weight:normal;font-stretch:normal;font-size:20px;line-height:125%;font-family:KaTeX_Main;-inkscape-font-specification:'KaTeX_Main, Normal';text-align:start;writing-mode:lr-tb;text-anchor:start;fill:#ff9c39"
       id="path4205" /></g><g
     style="font-style:normal;font-variant:normal;font-weight:normal;font-stretch:normal;font-size:16.62125015px;line-height:125%;font-family:KaTeX_Main;-inkscape-font-specification:'KaTeX_Main, Normal';text-align:start;writing-mode:lr-tb;text-anchor:start;fill:#ff9c39"
     id="text4889"><path
       d="m 22.965641,104.09536 q 0.93079,-1.34633 2.543051,-1.34633 1.213351,0 2.12752,0.83107 0.448774,0.43215 0.764578,1.13024 0.614986,1.37957 0.614986,3.78965 0,2.57629 -0.714714,3.93923 -0.465395,0.96404 -1.362942,1.39619 -0.698093,0.34904 -1.412807,0.34904 -1.911443,0 -2.79237,-1.74523 -0.714713,-1.36294 -0.714713,-3.93923 0,-1.54578 0.199455,-2.54305 0.216076,-1.0139 0.747956,-1.86158 z m 3.739781,-0.19946 q -0.482016,-0.53188 -1.180109,-0.53188 -0.698092,0 -1.19673,0.53188 -0.365667,0.38229 -0.498637,0.93079 -0.13297,0.5485 -0.166213,1.89482 0,0.0997 -0.01662,0.64823 0,0.5485 0,0.91417 0,1.59564 0.03324,2.22725 0.06649,1.16349 0.199455,1.67874 0.13297,0.49864 0.498637,0.86431 0.448774,0.49864 1.146866,0.49864 0.681472,0 1.130245,-0.49864 0.365668,-0.36567 0.498638,-0.86431 0.13297,-0.51525 0.199455,-1.67874 0.03324,-0.63161 0.03324,-2.22725 0,-0.36567 -0.01662,-0.91417 0,-0.5485 0,-0.64823 -0.03324,-1.34632 -0.166212,-1.89482 -0.13297,-0.5485 -0.498638,-0.93079 z"
       style="font-style:normal;font-variant:normal;font-weight:normal;font-stretch:normal;font-size:16.62125015px;line-height:125%;font-family:KaTeX_Main;-inkscape-font-specification:'KaTeX_Main, Normal';text-align:start;writing-mode:lr-tb;text-anchor:start;fill:#ff9c39"
       id="path4208" /></g><g
     style="font-style:normal;font-variant:normal;font-weight:normal;font-stretch:normal;font-size:20px;line-height:125%;font-family:KaTeX_Main;-inkscape-font-specification:'KaTeX_Main, Normal';text-align:start;writing-mode:lr-tb;text-anchor:start;fill:#ff9c39;fill-opacity:1;stroke:none;stroke-opacity:1"
     id="text4893"><path
       d="m 105.42475,68.61709 q -0.22,-0.22 -0.4,-0.26 -0.18,-0.06 -0.92,-0.08 l -0.58,0 0,-0.92 0.18,0 q 0.28,0.06 2.48,0.06 2.4,0 2.84,-0.06 l 0.22,0 0,0.92 -0.42,0 q -0.92,0.02 -1.14,0.22 -0.08,0.06 -0.08,0.12 0,0.04 1.8,4.96 1.8,4.92 1.82,4.92 0.78,-2.1 1.72,-4.64 1.7,-4.6 1.7,-4.78 0,-0.38 -0.42,-0.58 -0.42,-0.22 -0.92,-0.22 l -0.1,0 0,-0.92 0.18,0 q 0.34,0.06 2.3,0.06 1.72,0 1.94,-0.06 l 0.12,0 0,0.92 -0.14,0 q -1.48,0 -1.92,0.82 0,0.02 -2.26,6.1 -2.24,6.08 -2.26,6.1 -0.06,0.16 -0.36,0.16 l -0.18,0 -0.18,0 q -0.28,0 -0.34,-0.16 -0.04,-0.04 -2.34,-6.34 -2.34,-6.28 -2.34,-6.34 z"
       style="font-style:normal;font-variant:normal;font-weight:normal;font-stretch:normal;font-size:20px;line-height:125%;font-family:KaTeX_Main;-inkscape-font-specification:'KaTeX_Main, Normal';text-align:start;writing-mode:lr-tb;text-anchor:start;fill:#ff9c39;fill-opacity:1;stroke:none;stroke-opacity:1"
       id="path4211" /></g><g
     style="font-style:normal;font-variant:normal;font-weight:normal;font-stretch:normal;font-size:16.62125015px;line-height:125%;font-family:KaTeX_Main;-inkscape-font-specification:'KaTeX_Main, Normal';text-align:start;writing-mode:lr-tb;text-anchor:start;fill:#ff9c39;fill-opacity:1;stroke:none;stroke-opacity:1"
     id="text4895"><path
       d="m 116.37404,84.237268 q 0.0997,0.09973 0.0997,0.216077 0,1.479291 0.94741,2.326975 0.96404,0.831062 2.54305,0.831062 0.19946,0 0.26594,-0.01662 0.73134,-0.149591 1.18011,-0.747956 0.4654,-0.598365 0.4654,-1.412807 0,-0.714713 -0.38229,-1.296457 -0.36567,-0.598365 -0.94741,-0.79782 -0.93079,-0.232698 -1.22997,-0.315804 -1.2466,-0.299182 -1.27984,-0.315804 -0.96403,-0.332425 -1.59564,-1.163487 -0.63161,-0.847684 -0.63161,-1.961308 0,-0.997275 0.51526,-1.778474 0.51526,-0.781198 1.27984,-1.163487 0.66485,-0.332425 1.3297,-0.332425 1.31308,0 2.12752,0.565122 0.24932,0.166213 0.56512,0.482017 l 0.34905,-0.515259 q 0.0831,-0.116349 0.16621,-0.249319 0.0997,-0.13297 0.16621,-0.216076 l 0.0499,-0.06649 q 0.0166,0 0.0665,0 0.0499,-0.01662 0.0997,-0.01662 0.11635,0 0.21607,0.09973 l 0,3.939236 -0.0997,0.09973 -0.29919,0 q -0.18283,0 -0.21607,-0.04986 -0.0332,-0.04986 -0.0831,-0.332425 -0.28256,-2.094277 -1.67875,-2.775749 -0.61498,-0.26594 -1.24659,-0.26594 -0.8643,0 -1.42943,0.565123 -0.5485,0.548501 -0.5485,1.429427 0,0.565123 0.28256,1.047139 0.28256,0.465395 0.79782,0.731335 0.16622,0.08311 1.5624,0.415531 1.18011,0.315804 1.26322,0.349047 0.94741,0.365667 1.54577,1.246594 0.61499,0.864305 0.61499,2.044413 0,1.362943 -0.74796,2.310354 -0.74795,0.93079 -1.96131,1.180109 -0.16621,0.03324 -0.59836,0.03324 -1.76185,0 -2.85886,-0.964032 -0.0831,-0.08311 -0.11634,-0.06649 -0.0665,0.08311 -0.24932,0.349046 -0.18284,0.249319 -0.33243,0.448774 -0.14959,0.216076 -0.14959,0.232697 -0.0332,0.01662 -0.16621,0.01662 -0.11635,0 -0.21608,-0.09973 l 0,-1.944686 q 0,-1.977929 0.0166,-2.011171 0.0332,-0.08311 0.33243,-0.08311 l 0.21607,0 z"
       style="font-style:normal;font-variant:normal;font-weight:normal;font-stretch:normal;font-size:16.62125015px;line-height:125%;font-family:KaTeX_Main;-inkscape-font-specification:'KaTeX_Main, Normal';text-align:start;writing-mode:lr-tb;text-anchor:start;fill:#ff9c39;fill-opacity:1;stroke:none;stroke-opacity:1"
       id="path4214" /></g><g
     style="font-style:normal;font-variant:normal;font-weight:normal;font-stretch:normal;font-size:22.5px;line-height:125%;font-family:KaTeX_Main;-inkscape-font-specification:'KaTeX_Main, Normal';text-align:start;writing-mode:lr-tb;text-anchor:start;fill:#ff9c39"
     id="text4897"><path
       d="m 348.72045,43.84259 q -0.315,-0.1575 -0.315,-0.45 0,-0.2925 0.315,-0.45 l 6.7275,0 0,-3.375 0.0225,-3.375 q 0.225,-0.2925 0.4275,-0.2925 0.2925,0 0.45,0.3375 l 0,6.705 6.705,0 q 0.3375,0.18 0.3375,0.45 0,0.27 -0.3375,0.45 l -6.705,0 0,6.705 q -0.1575,0.315 -0.45,0.315 -0.2925,0 -0.45,-0.315 l 0,-6.705 -6.7275,0 z"
       style="font-style:normal;font-variant:normal;font-weight:normal;font-stretch:normal;font-size:22.5px;line-height:125%;font-family:KaTeX_Main;-inkscape-font-specification:'KaTeX_Main, Normal';text-align:start;writing-mode:lr-tb;text-anchor:start;fill:#ff9c39"
       id="path4217" /></g><g
     id="g4899"
     transform="translate(107.14485,-16.98331)"><g
       id="g4901"><path
         class="st19"
         d="m 252,144 c 3.7,-7 6.2,-20.5 6.2,-36 0,-11.4 -1.4,-21.8 -3.6,-29.3"
         id="path4903"
         inkscape:connector-curvature="0"
         style="fill:none;stroke:#ff9c39;stroke-width:2;stroke-linecap:round;stroke-miterlimit:10" /><g
         id="g4905"><path
           class="st16"
           d="m 252,72 c 2.4,2.7 5.9,5.9 9,7.6 l -6.1,0.1 -4.6,3.9 c 1.2,-3.2 1.7,-8 1.7,-11.6 z"
           id="path4907"
           inkscape:connector-curvature="0"
           style="fill:#ff9c39" /></g></g></g><path
     style="fill:none;fill-rule:evenodd;stroke:#000000;stroke-width:1px;stroke-linecap:butt;stroke-linejoin:miter;stroke-opacity:1"
     d="m 184.64963,36.970947 36.74721,0.06539"
     id="path4962"
     inkscape:connector-curvature="0" /><path
     style="fill:none;fill-rule:evenodd;stroke:#000000;stroke-width:1px;stroke-linecap:butt;stroke-linejoin:miter;stroke-opacity:1"
     d="m 38.594522,110.49805 72.029818,0"
     id="path4964"
     inkscape:connector-curvature="0" /><path
     style="fill:none;fill-rule:evenodd;stroke:#000000;stroke-width:1.07651222;stroke-linecap:butt;stroke-linejoin:miter;stroke-miterlimit:4;stroke-dasharray:none;stroke-opacity:1"
     d="m 53.788312,67.945968 0,59.996802"
     id="path4966"
     inkscape:connector-curvature="0" /><path
     style="fill:none;fill-rule:evenodd;stroke:#ff9c39;stroke-width:2.73114824;stroke-linecap:butt;stroke-linejoin:miter;stroke-miterlimit:4;stroke-dasharray:none;stroke-opacity:1"
     d="m 32.013838,101.19063 21.7455,0 -0.132324,-25.265685 41.240804,0"
     id="path4968"
     inkscape:connector-curvature="0"
     sodipodi:nodetypes="cccc" /><g
     style="font-style:normal;font-variant:normal;font-weight:normal;font-stretch:normal;font-size:40px;line-height:125%;font-family:KaTeX_Main;-inkscape-font-specification:'KaTeX_Main, Normal';text-align:start;letter-spacing:0px;word-spacing:0px;writing-mode:lr-tb;text-anchor:start;fill:#000000;fill-opacity:1;stroke:none;stroke-width:1px;stroke-linecap:butt;stroke-linejoin:miter;stroke-opacity:1"
     id="text5098"><path
       d="m 109.70377,118.20438 q -0.14,-0.14 -0.14,-0.2 0,-0.08 0.06,-0.32 0.08,-0.26 0.1,-0.28 0.04,-0.1 0.18,-0.1 0.16,-0.02 1.02,-0.02 l 1.06,0 0.38,-1.6 q 0.42,-1.62 0.48,-1.74 0.24,-0.56 0.92,-0.56 0.26,0.02 0.44,0.18 0.2,0.16 0.2,0.42 0,0.24 -0.38,1.7 -0.08,0.34 -0.2,0.76 -0.1,0.4 -0.16,0.6 l -0.04,0.2 q 0,0.04 1,0.04 l 1.02,0 q 0.14,0.14 0.14,0.22 0,0.44 -0.26,0.7 l -2.14,0 -0.72,2.9 q -0.74,2.98 -0.76,3.14 -0.02,0.1 -0.02,0.3 0,0.84 0.54,0.84 0.14,0 0.24,-0.02 1,-0.18 1.82,-1.6 0.2,-0.32 0.36,-0.74 0.04,-0.12 0.1,-0.14 0.06,-0.04 0.3,-0.04 0.4,0 0.4,0.16 0,0.04 -0.08,0.24 -0.22,0.64 -0.72,1.3 -0.48,0.64 -0.98,1.02 -0.74,0.56 -1.58,0.56 -0.72,0 -1.24,-0.36 -0.5,-0.38 -0.68,-0.98 -0.04,-0.16 -0.04,-0.54 l 0,-0.36 0.7,-2.8 q 0.7,-2.82 0.72,-2.84 0,-0.04 -1.02,-0.04 l -1.02,0 z"
       style="font-style:normal;font-variant:normal;font-weight:normal;font-stretch:normal;font-size:20px;line-height:125%;font-family:KaTeX_Math;-inkscape-font-specification:'KaTeX_Math, Normal';text-align:start;writing-mode:lr-tb;text-anchor:start"
       id="path4220" /></g><g
     style="font-style:normal;font-variant:normal;font-weight:normal;font-stretch:normal;font-size:40px;line-height:125%;font-family:KaTeX_Main;-inkscape-font-specification:'KaTeX_Main, Normal';text-align:start;letter-spacing:0px;word-spacing:0px;writing-mode:lr-tb;text-anchor:start;fill:#000000;fill-opacity:1;stroke:none;stroke-width:1px;stroke-linecap:butt;stroke-linejoin:miter;stroke-opacity:1"
     id="text5098-2"><path
       d="m 55.300804,60.800799 q -1.28,0 -2.04,-0.64 -0.74,-0.66 -0.74,-1.92 0,-0.36 0.04,-0.68 0.18,-0.96 0.94,-2.94 l 0.32,-0.96 q 0.12,-0.36 0.12,-0.68 0,-0.5 -0.38,-0.5 -0.14,0 -0.32,0.06 -1.02,0.36 -1.54,2.3 0,0.02 -0.02,0.08 -0.02,0.04 -0.04,0.06 0,0 -0.02,0.02 -0.02,0.02 -0.08,0.02 -0.04,0 -0.08,0 -0.04,0 -0.16,0 l -0.28,0 q -0.12,-0.12 -0.12,-0.18 0,-0.06 0.06,-0.3 0.48,-1.58 1.48,-2.36 0.54,-0.42 1.24,-0.42 0.78,0 1.28,0.44 0.5,0.44 0.5,1.16 0,0.34 -0.06,0.52 0,0.14 -0.3,0.88 -0.92,2.5 -0.98,3.56 0,0.54 0.1,0.88 0.26,0.86 1.26,0.86 0.54,0 0.96,-0.32 1.24,-0.82 2.06,-3.78 0.16,-0.56 0.16,-0.92 0,-0.88 -0.78,-1.58 -0.26,-0.24 -0.26,-0.54 0,-0.46 0.36,-0.82 0.38,-0.38 0.84,-0.38 0.48,0 0.74,0.46 0.26,0.44 0.26,1.06 0,0.7 -0.4,2.3 -0.38,1.54 -0.96,2.68 -1.26,2.58 -3.16,2.58 z"
       style="font-style:normal;font-variant:normal;font-weight:normal;font-stretch:normal;font-size:20px;line-height:125%;font-family:KaTeX_Math;-inkscape-font-specification:'KaTeX_Math, Normal';text-align:start;writing-mode:lr-tb;text-anchor:start"
       id="path4223" /></g><g
     style="font-style:normal;font-variant:normal;font-weight:normal;font-stretch:normal;font-size:22.5px;line-height:125%;font-family:KaTeX_Math;-inkscape-font-specification:'KaTeX_Math, Normal';text-align:start;writing-mode:lr-tb;text-anchor:start;fill:#11accd;stroke:none;stroke-width:3;stroke-miterlimit:10"
     id="text5965"><path
       d="m 307.25401,11.372499 q 0,-0.5175 0.4275,-0.945 0.4275,-0.4274995 0.99,-0.4274995 0.405,0 0.675,0.2699995 0.2925,0.27 0.2925,0.675 0,0.495 -0.45,0.945 -0.45,0.45 -0.99,0.45 -0.405,0 -0.675,-0.27 -0.27,-0.27 -0.27,-0.6975 z m -0.5175,13.7475 q -0.8775,0 -1.4175,-0.5175 -0.54,-0.5175 -0.54,-1.395 0,-0.3825 0.045,-0.5175 0,-0.045 1.035,-2.7675 1.035,-2.745 1.035,-2.79 0.1125,-0.36 0.1125,-0.81 0,-0.54 -0.3825,-0.54 l -0.045,0 q -0.54,0 -1.035,0.5175 -0.72,0.7425 -1.0575,2.115 0,0.0225 -0.0225,0.09 -0.0225,0.045 -0.045,0.0675 0,0 -0.0225,0.0225 -0.0225,0.0225 -0.09,0.0225 -0.045,0 -0.09,0 -0.045,0 -0.18,0 l -0.315,0 q -0.135,-0.135 -0.135,-0.2025 0,-0.0675 0.0675,-0.315 0.585,-1.935 1.71,-2.7 0.6075,-0.4725 1.305,-0.4725 0.9,0 1.485,0.5175 0.585,0.5175 0.585,1.395 0,0.2925 -0.1125,0.675 -0.0225,0.045 -1.035,2.7675 l -1.0125,2.7225 q -0.1125,0.495 -0.1125,0.72 0,0.5625 0.3825,0.5625 0.315,0 0.5625,-0.135 0.99,-0.4725 1.5525,-2.3625 0.0675,-0.27 0.1125,-0.315 0.0675,-0.045 0.3825,-0.045 0.2025,0 0.27,0.0225 0.09,0 0.135,0.045 0.045,0.045 0.045,0.1575 0,0.09 -0.0675,0.2925 -0.4275,1.2825 -1.2375,2.2275 -0.7875,0.945 -1.8675,0.945 z"
       style="font-style:normal;font-variant:normal;font-weight:normal;font-stretch:normal;font-size:22.5px;line-height:125%;font-family:KaTeX_Math;-inkscape-font-specification:'KaTeX_Math, Normal';text-align:start;writing-mode:lr-tb;text-anchor:start;fill:#11accd;stroke:none;stroke-width:3;stroke-miterlimit:10"
       id="path4226" /></g><g
     style="font-style:normal;font-variant:normal;font-weight:normal;font-stretch:normal;font-size:14.24749947px;line-height:125%;font-family:KaTeX_Main;-inkscape-font-specification:'KaTeX_Main, Normal';text-align:start;writing-mode:lr-tb;text-anchor:start;fill:#11accd;stroke:none"
     id="text5967"><path
       d="m 312.49207,22.004659 q -0.14248,-0.142475 -0.28495,-0.17097 -0.12823,-0.02849 -0.71238,-0.04274 l -0.47016,0 0,-0.655385 2.49331,0 q 2.65003,0.01425 2.92073,0.05699 0.0428,0.01425 0.18522,0.04274 0.64114,0.128228 1.1398,0.39893 1.35351,0.68388 1.55298,1.866423 0.0143,0.07124 0.0143,0.22796 0,0.79786 -0.61265,1.396255 -0.59839,0.598395 -1.42475,0.869097 -0.0285,0.01425 -0.0712,0.02849 -0.0285,0 -0.057,0.01425 l -0.0285,0.01425 q 0.0427,0.04274 0.15672,0.08549 1.02582,0.5699 1.26803,1.510235 0.0143,0.05699 0.15672,0.940335 0.14248,0.883345 0.15673,0.940335 0.0997,0.51291 0.2422,0.755117 0.15673,0.242208 0.39893,0.327693 0.057,0.02849 0.24221,0.02849 l 0.0712,0 q 0.18522,0 0.34194,-0.156723 0.28495,-0.28495 0.32769,-0.85485 0,-0.156722 0.0427,-0.199465 0.057,-0.05699 0.24221,-0.05699 0.17097,0 0.22796,0.04274 0.057,0.02849 0.057,0.17097 0,0.51291 -0.25645,0.940335 -0.24221,0.413177 -0.5984,0.5699 -0.22796,0.08549 -0.59839,0.08549 -2.12288,-0.08549 -2.45057,-1.59572 -0.0285,-0.156723 -0.0428,-1.040068 0,-0.883345 -0.0855,-1.182542 -0.12823,-0.384683 -0.42743,-0.655385 -0.28495,-0.28495 -0.65538,-0.39893 l -0.14248,-0.02849 -0.94033,-0.01425 -0.94034,0 0,1.866422 0.0143,1.866422 q 0.0997,0.142475 0.24221,0.17097 0.15672,0.0285 0.74087,0.04274 l 0.47017,0 0,0.655385 -0.15673,0 q -0.22796,-0.04274 -2.02314,-0.04274 -1.80943,0 -2.03739,0.04274 l -0.15672,0 0,-0.655385 0.47016,0 q 0.58415,-0.01425 0.71238,-0.04274 0.14247,-0.02849 0.28495,-0.17097 l 0,-7.992847 z m 5.1291,1.182543 q -0.14248,-0.85485 -0.76937,-1.125553 -0.61264,-0.270702 -1.88067,-0.270702 -0.21371,0 -0.48441,0.01425 -0.27071,0 -0.28495,0 -0.18522,0.01425 -0.22796,0.11398 -0.0428,0.05699 -0.0428,1.93766 l 0,1.88067 0.82636,0 q 1.06856,0 1.58147,-0.08549 0.51291,-0.09973 0.89759,-0.484415 0.24221,-0.242207 0.31345,-0.541405 0.0855,-0.299197 0.0855,-0.869097 0,-0.45592 -0.0142,-0.5699 z"
       style="font-style:normal;font-variant:normal;font-weight:normal;font-stretch:normal;font-size:14.24749947px;line-height:125%;font-family:KaTeX_Main;-inkscape-font-specification:'KaTeX_Main, Normal';text-align:start;writing-mode:lr-tb;text-anchor:start;fill:#11accd;stroke:none"
       id="path4229" /></g><g
     style="font-style:normal;font-variant:normal;font-weight:normal;font-stretch:normal;font-size:22.5px;line-height:125%;font-family:KaTeX_Math;-inkscape-font-specification:'KaTeX_Math, Normal';text-align:start;writing-mode:lr-tb;text-anchor:start;fill:#11accd;stroke:none;stroke-width:3;stroke-miterlimit:10"
     id="text5969"><path
       d="m 307.25401,47.372501 q 0,-0.5175 0.4275,-0.945 0.4275,-0.4275 0.99,-0.4275 0.405,0 0.675,0.27 0.2925,0.27 0.2925,0.675 0,0.495 -0.45,0.945 -0.45,0.45 -0.99,0.45 -0.405,0 -0.675,-0.27 -0.27,-0.27 -0.27,-0.6975 z m -0.5175,13.7475 q -0.8775,0 -1.4175,-0.5175 -0.54,-0.5175 -0.54,-1.395 0,-0.3825 0.045,-0.5175 0,-0.045 1.035,-2.7675 1.035,-2.745 1.035,-2.79 0.1125,-0.36 0.1125,-0.81 0,-0.54 -0.3825,-0.54 l -0.045,0 q -0.54,0 -1.035,0.5175 -0.72,0.7425 -1.0575,2.115 0,0.0225 -0.0225,0.09 -0.0225,0.045 -0.045,0.0675 0,0 -0.0225,0.0225 -0.0225,0.0225 -0.09,0.0225 -0.045,0 -0.09,0 -0.045,0 -0.18,0 l -0.315,0 q -0.135,-0.135 -0.135,-0.2025 0,-0.0675 0.0675,-0.315 0.585,-1.935 1.71,-2.7 0.6075,-0.4725 1.305,-0.4725 0.9,0 1.485,0.5175 0.585,0.5175 0.585,1.395 0,0.2925 -0.1125,0.675 -0.0225,0.045 -1.035,2.7675 l -1.0125,2.7225 q -0.1125,0.495 -0.1125,0.72 0,0.5625 0.3825,0.5625 0.315,0 0.5625,-0.135 0.99,-0.4725 1.5525,-2.3625 0.0675,-0.27 0.1125,-0.315 0.0675,-0.045 0.3825,-0.045 0.2025,0 0.27,0.0225 0.09,0 0.135,0.045 0.045,0.045 0.045,0.1575 0,0.09 -0.0675,0.2925 -0.4275,1.2825 -1.2375,2.2275 -0.7875,0.945 -1.8675,0.945 z"
       style="font-style:normal;font-variant:normal;font-weight:normal;font-stretch:normal;font-size:22.5px;line-height:125%;font-family:KaTeX_Math;-inkscape-font-specification:'KaTeX_Math, Normal';text-align:start;writing-mode:lr-tb;text-anchor:start;fill:#11accd;stroke:none;stroke-width:3;stroke-miterlimit:10"
       id="path4232" /></g><g
     style="font-style:normal;font-variant:normal;font-weight:normal;font-stretch:normal;font-size:14.24749947px;line-height:125%;font-family:KaTeX_Main;-inkscape-font-specification:'KaTeX_Main, Normal';text-align:start;writing-mode:lr-tb;text-anchor:start;fill:#11accd;stroke:none"
     id="text5971"><path
       d="m 320.04324,63.205 0.0855,0.08548 0,0.213713 q -0.0712,1.282275 -0.84061,2.265352 -0.76936,0.983078 -1.9804,1.296523 -0.41318,0.09973 -0.92609,0.09973 -0.52715,0 -0.89759,-0.08549 -1.59572,-0.313445 -2.69278,-1.510235 -1.0828,-1.19679 -1.33926,-2.96348 -0.0143,-0.128227 -0.0143,-0.612642 0,-0.470168 0.0143,-0.612643 0.24221,-1.738195 1.33926,-2.934985 1.09706,-1.211037 2.69278,-1.538729 0.45592,-0.08548 0.72662,-0.08548 0.0285,0 0.11398,0.01425 0.0855,0 0.12823,0 0.34194,0 0.48442,0.02849 1.04006,0.185218 1.80943,0.940335 l 0.18522,0.17097 0.42742,-0.555652 q 0.38468,-0.527158 0.44167,-0.584148 0.0142,0 0.057,0 0.0428,-0.01425 0.0855,-0.01425 0.0997,0 0.18522,0.08548 l 0,3.989299 -0.0855,0.08549 -0.48441,0 q -0.0855,-0.08549 -0.0997,-0.242207 -0.12822,-1.168295 -0.68388,-2.023145 -0.55565,-0.85485 -1.35351,-1.125552 -0.2707,-0.09973 -0.71237,-0.09973 -1.48174,0 -2.47907,0.997325 -1.12555,1.125552 -1.12555,3.504885 0,1.723947 0.5414,2.721272 0.44168,0.840603 1.25378,1.325018 0.82636,0.484415 1.83793,0.484415 1.04007,0 1.80943,-0.74087 0.76937,-0.755118 0.94034,-1.76669 0.0712,-0.356188 0.0712,-0.62689 0,-0.09973 0.0855,-0.185218 l 0.39893,0 z"
       style="font-style:normal;font-variant:normal;font-weight:normal;font-stretch:normal;font-size:14.24749947px;line-height:125%;font-family:KaTeX_Main;-inkscape-font-specification:'KaTeX_Main, Normal';text-align:start;writing-mode:lr-tb;text-anchor:start;fill:#11accd;stroke:none"
       id="path4235" /></g><g
     id="g6055"
     transform="translate(107.11382,-17.127498)"><g
       id="g6057"><line
         class="st2"
         x1="222"
         y1="80.900002"
         x2="222"
         y2="66"
         id="line6059"
         style="fill:none;stroke:#11accd;stroke-width:3;stroke-linecap:round;stroke-miterlimit:10" /><g
         id="g6061"><path
           class="st3"
           d="m 222,90 c 1.6,-4.3 4.3,-9.5 7.1,-12.8 l -7.1,2.6 -7.1,-2.6 c 2.8,3.3 5.5,8.5 7.1,12.8 z"
           id="path6063"
           inkscape:connector-curvature="0"
           style="fill:#11accd" /></g></g></g><g
     id="g6065"
     transform="translate(107.11382,-17.127498)"><g
       id="g6067"><line
         class="st2"
         x1="210"
         y1="54"
         x2="195.10001"
         y2="54"
         id="line6069"
         style="fill:none;stroke:#11accd;stroke-width:3;stroke-linecap:round;stroke-miterlimit:10" /><g
         id="g6071"><path
           class="st3"
           d="m 186,54 c 4.3,-1.6 9.5,-4.3 12.8,-7.1 l -2.6,7.1 2.6,7.1 C 195.5,58.3 190.3,55.6 186,54 Z"
           id="path6073"
           inkscape:connector-curvature="0"
           style="fill:#11accd" /></g></g></g></svg>