<?xml version="1.0" encoding="UTF-8" standalone="no"?>
<svg
   xmlns:dc="http://purl.org/dc/elements/1.1/"
   xmlns:cc="http://creativecommons.org/ns#"
   xmlns:rdf="http://www.w3.org/1999/02/22-rdf-syntax-ns#"
   xmlns:svg="http://www.w3.org/2000/svg"
   xmlns="http://www.w3.org/2000/svg"
   xmlns:sodipodi="http://sodipodi.sourceforge.net/DTD/sodipodi-0.dtd"
   xmlns:inkscape="http://www.inkscape.org/namespaces/inkscape"
   height="165.89787"
   width="401.00772"
   sodipodi:docname="rc_step_alt1.svg"
   inkscape:version="1.1-dev (48d18c81, 2020-07-08)"
   xml:space="preserve"
   viewBox="0 0 401.00774 165.89787"
   y="0px"
   x="0px"
   id="Layer_1"
   version="1.1"><metadata
   id="metadata6199"><rdf:RDF><cc:Work
       rdf:about=""><dc:format>image/svg+xml</dc:format><dc:type
         rdf:resource="http://purl.org/dc/dcmitype/StillImage" /></cc:Work></rdf:RDF></metadata><defs
   id="defs6197"><inkscape:path-effect
     lpeversion="0"
     only_selected="false"
     apply_with_weight="true"
     apply_no_weight="true"
     helper_size="0"
     steps="2"
     weight="33.333333"
     is_visible="true"
     id="path-effect1851"
     effect="bspline" /><inkscape:path-effect
     lpeversion="0"
     only_selected="false"
     apply_with_weight="true"
     apply_no_weight="true"
     helper_size="0"
     steps="2"
     weight="33.333333"
     is_visible="true"
     id="path-effect1847"
     effect="bspline" /></defs><sodipodi:namedview
   fit-margin-left="10"
   fit-margin-bottom="10"
   fit-margin-right="10"
   fit-margin-top="10"
   inkscape:current-layer="Layer_1"
   inkscape:window-maximized="0"
   inkscape:window-y="23"
   inkscape:window-x="0"
   inkscape:cy="78.909064"
   inkscape:cx="159.33561"
   inkscape:zoom="1.3179728"
   showgrid="false"
   id="namedview6195"
   inkscape:window-height="732"
   inkscape:window-width="1268"
   inkscape:pageshadow="2"
   inkscape:pageopacity="0"
   guidetolerance="10"
   gridtolerance="10"
   objecttolerance="10"
   borderopacity="1"
   bordercolor="#666666"
   pagecolor="#ffffff" /><style
   id="style6099"
   type="text/css">
	.st0{fill:none;stroke:#000000;stroke-width:0.5;stroke-linecap:round;stroke-miterlimit:10;}
	.st1{fill:none;stroke:#000000;stroke-width:0.5;stroke-miterlimit:10;}
	.st2{fill:none;stroke:#11ACCD;stroke-width:3;stroke-linecap:round;stroke-miterlimit:10;}
	.st3{fill:#11ACCD;}
	.st4{fill:none;stroke:#11ACCD;stroke-width:4;stroke-miterlimit:10;}
	.st5{fill:none;stroke:#000000;stroke-linecap:round;stroke-linejoin:round;stroke-miterlimit:10;}
	.st6{fill:none;stroke:#000000;stroke-width:2;stroke-linecap:round;stroke-linejoin:round;stroke-miterlimit:10;}
	.st7{fill:none;stroke:#000000;stroke-width:2;stroke-miterlimit:10;}
	.st8{fill:none;stroke:#000000;stroke-linecap:round;stroke-miterlimit:10;}
	.st9{fill:none;stroke:#000000;stroke-width:1.5;stroke-miterlimit:10;}
	.st10{fill:none;stroke:#000000;stroke-width:1.5;stroke-linecap:round;stroke-miterlimit:10;}
	.st11{fill:none;stroke:#000000;stroke-width:2;stroke-linecap:round;stroke-miterlimit:10;}
	.st12{fill:none;}
	.st13{stroke:#000000;stroke-linecap:round;stroke-linejoin:round;stroke-miterlimit:10;}
	.st14{fill:none;stroke:#000000;stroke-miterlimit:10;}
	.st15{fill:#FFFFFF;stroke:#000000;stroke-miterlimit:10;}
	.st16{fill:#FF9C39;}
	.st17{fill:none;stroke:#E07D10;stroke-width:2;stroke-linecap:round;stroke-miterlimit:10;}
	.st18{fill:#E07D10;}
	.st19{fill:none;stroke:#FF9C39;stroke-width:2;stroke-linecap:round;stroke-miterlimit:10;}
	.st20{fill:none;stroke:#FF9C39;stroke-width:3;stroke-linecap:round;stroke-miterlimit:10;}
	.st21{fill:none;stroke:#1FAB54;stroke-width:3;stroke-miterlimit:10;}
	.st22{fill:#1FAB54;}
	.st23{font-family:'KaTeX_Main-Regular';}
	.st24{font-size:21px;}
	.st25{font-family:'KaTeX_Main-Italic';}
	.st26{fill:none;stroke:#11ACCD;stroke-width:2;stroke-linecap:round;stroke-miterlimit:10;}
</style><g
   transform="translate(87.638083,-6.5714593)"
   id="g6101"><g
     id="g6103"><circle
       id="circle6105"
       r="3"
       cy="53.599998"
       cx="114" /><rect
       style="fill:none"
       id="rect6107"
       height="12"
       width="12"
       class="st12"
       y="47.599998"
       x="108" /></g><g
     id="g6109"><circle
       id="circle6111"
       r="3"
       cy="53.599998"
       cx="78" /><rect
       style="fill:none"
       id="rect6113"
       height="12"
       width="12"
       class="st12"
       y="47.599998"
       x="72" /></g><line
     style="fill:none;stroke:#000000;stroke-linecap:round;stroke-linejoin:round;stroke-miterlimit:10"
     id="line6115"
     y2="42"
     x2="114"
     y1="53.599998"
     x1="78.5"
     class="st5" /></g><g
   transform="translate(3.6380834,-6.5714593)"
   id="g6117"><circle
     style="fill:none;stroke:#000000;stroke-width:2;stroke-miterlimit:10"
     id="circle6119"
     r="18"
     cy="108"
     cx="54"
     class="st7" /><polyline
     style="fill:none;stroke:#000000;stroke-linecap:round;stroke-miterlimit:10"
     id="polyline6121"
     points="54,90 54,54 78,54 66,54  "
     class="st8" /><line
     style="fill:none;stroke:#000000;stroke-linecap:round;stroke-linejoin:round;stroke-miterlimit:10"
     id="line6123"
     y2="150"
     x2="54"
     y1="126"
     x1="54"
     class="st5" /><line
     style="fill:none;stroke:#000000;stroke-width:1.5;stroke-miterlimit:10"
     id="line6125"
     y2="106.5"
     x2="54"
     y1="94.5"
     x1="54"
     class="st9" /><line
     style="fill:none;stroke:#000000;stroke-width:1.5;stroke-miterlimit:10"
     id="line6127"
     y2="100.5"
     x2="60"
     y1="100.5"
     x1="48"
     class="st9" /><line
     style="fill:none;stroke:#000000;stroke-width:1.5;stroke-miterlimit:10"
     id="line6129"
     y2="118.5"
     x2="60"
     y1="118.5"
     x1="48"
     class="st9" /></g><polyline
   transform="matrix(1.1349831,0,0,1,-3.6510061,-6.5714593)"
   class="st5"
   points="222,112.5 222,150 222,162 54,162 54,150  "
   id="polyline6133"
   style="fill:none;stroke:#000000;stroke-width:0.938653;stroke-linecap:round;stroke-linejoin:round;stroke-miterlimit:10" /><line
   class="st6"
   x1="260.31525"
   y1="105.92855"
   x2="236.31525"
   y2="105.92855"
   id="line6135"
   style="fill:none;stroke:#000000;stroke-width:2;stroke-linecap:round;stroke-linejoin:round;stroke-miterlimit:10" /><line
   class="st6"
   x1="266.31525"
   y1="105.92855"
   x2="230.31525"
   y2="105.92855"
   id="line6137"
   style="fill:none;stroke:#000000;stroke-width:2;stroke-linecap:round;stroke-linejoin:round;stroke-miterlimit:10" /><polyline
   transform="translate(26.31525,-6.5714593)"
   class="st6"
   points="204,103.5 222,103.5 240,103.5  "
   id="polyline6139"
   style="fill:none;stroke:#000000;stroke-width:2;stroke-linecap:round;stroke-linejoin:round;stroke-miterlimit:10" /><g
   transform="translate(-32.361918,-6.5714593)"
   id="g6143"><line
     style="fill:none;stroke:#000000;stroke-linecap:round;stroke-linejoin:round;stroke-miterlimit:10"
     id="line6145"
     y2="54"
     x2="198"
     y1="54"
     x1="179.39999"
     class="st5" /><polyline
     style="fill:none;stroke:#000000;stroke-width:2;stroke-linecap:round;stroke-linejoin:round;stroke-miterlimit:10"
     id="polyline6147"
     points="132.6,54 136.5,45 144.3,63 152.1,45 159.9,63 167.7,45 175.5,63 179.4,54  "
     class="st6" /><line
     style="fill:none;stroke:#000000;stroke-linecap:round;stroke-linejoin:round;stroke-miterlimit:10"
     id="line6149"
     y2="54"
     x2="132.60001"
     y1="54"
     x1="114"
     class="st5" /><rect
     style="fill:none"
     id="rect6151"
     height="24"
     width="84"
     class="st12"
     y="42"
     x="114" /></g><g
   class="st23 st24"
   style="font-style:normal;font-variant:normal;font-weight:normal;font-stretch:normal;font-size:21px;line-height:0%;font-family:KaTeX_Main;-inkscape-font-specification:'KaTeX_Main, Normal';text-align:start;writing-mode:lr-tb;text-anchor:start"
   id="text6153"
   aria-label="R"><path
     id="path902"
     style="font-style:normal;font-variant:normal;font-weight:normal;font-stretch:normal;font-size:21px;line-height:0%;font-family:KaTeX_Main;-inkscape-font-specification:'KaTeX_Main, Normal';text-align:start;writing-mode:lr-tb;text-anchor:start"
     d="m 114.36799,64.367138 q -0.21,-0.21 -0.42,-0.252 -0.189,-0.042 -1.05,-0.063 h -0.693 v -0.966 h 3.675 q 3.906,0.021 4.305,0.084 0.063,0.021 0.273,0.063 0.945,0.189 1.68,0.588 1.995,1.008 2.289,2.751 0.021,0.105 0.021,0.336 0,1.176 -0.903,2.058 -0.882,0.882 -2.1,1.281 -0.042,0.021 -0.105,0.042 -0.042,0 -0.084,0.021 l -0.042,0.021 q 0.063,0.063 0.231,0.126 1.512,0.84 1.869,2.226 0.021,0.084 0.231,1.386 0.21,1.302 0.231,1.386 0.147,0.756 0.357,1.113 0.231,0.357 0.588,0.483 0.084,0.042 0.357,0.042 h 0.105 q 0.273,0 0.504,-0.231 0.42,-0.42 0.483,-1.26 0,-0.231 0.063,-0.294 0.084,-0.084 0.357,-0.084 0.252,0 0.336,0.063 0.084,0.042 0.084,0.252 0,0.756 -0.378,1.386 -0.357,0.609 -0.882,0.84 -0.336,0.126 -0.882,0.126 -3.129,-0.126 -3.612,-2.352 -0.042,-0.231 -0.063,-1.533 0,-1.302 -0.126,-1.743 -0.189,-0.567 -0.63,-0.966 -0.42,-0.42 -0.966,-0.588 l -0.21,-0.042 -1.386,-0.021 h -1.386 v 2.751 l 0.021,2.751 q 0.147,0.21 0.357,0.252 0.231,0.042 1.092,0.063 h 0.693 v 0.966 h -0.231 q -0.336,-0.063 -2.982,-0.063 -2.667,0 -3.003,0.063 h -0.231 v -0.966 h 0.693 q 0.861,-0.021 1.05,-0.063 0.21,-0.042 0.42,-0.252 z m 7.56,1.743 q -0.21,-1.26 -1.134,-1.659 -0.903,-0.399 -2.772,-0.399 -0.315,0 -0.714,0.021 -0.399,0 -0.42,0 -0.273,0.021 -0.336,0.168 -0.063,0.084 -0.063,2.856 v 2.772 h 1.218 q 1.575,0 2.331,-0.126 0.756,-0.147 1.323,-0.714 0.357,-0.357 0.462,-0.798 0.126,-0.441 0.126,-1.281 0,-0.672 -0.021,-0.84 z" /></g>
<g
   class="st23 st24"
   style="font-style:normal;font-variant:normal;font-weight:normal;font-stretch:normal;font-size:21px;line-height:0%;font-family:KaTeX_Main;-inkscape-font-specification:'KaTeX_Main, Normal';text-align:start;writing-mode:lr-tb;text-anchor:start"
   id="text6155"
   aria-label="C"><path
     id="path905"
     style="font-style:normal;font-variant:normal;font-weight:normal;font-stretch:normal;font-size:21px;line-height:0%;font-family:KaTeX_Main;-inkscape-font-specification:'KaTeX_Main, Normal';text-align:start;writing-mode:lr-tb;text-anchor:start"
     d="m 220.17615,102.03204 0.126,0.126 v 0.315 q -0.105,1.89 -1.239,3.339 -1.134,1.449 -2.919,1.911 -0.609,0.147 -1.365,0.147 -0.777,0 -1.323,-0.126 -2.352,-0.462 -3.969,-2.226 -1.596,-1.764 -1.974,-4.368 -0.021,-0.189 -0.021,-0.903 0,-0.693001 0.021,-0.903001 0.357,-2.562 1.974,-4.326 1.617,-1.785 3.969,-2.268 0.672,-0.126 1.071,-0.126 0.042,0 0.168,0.021 0.126,0 0.189,0 0.504,0 0.714,0.042 1.533,0.273 2.667,1.386 l 0.273,0.252 0.63,-0.819 q 0.567,-0.777 0.651,-0.861 0.021,0 0.084,0 0.063,-0.021 0.126,-0.021 0.147,0 0.273,0.126 v 5.88 l -0.126,0.126 h -0.714 q -0.126,-0.126 -0.147,-0.357 -0.189,-1.722 -1.008,-2.982 -0.819,-1.26 -1.995,-1.659 -0.399,-0.147 -1.05,-0.147 -2.184,0 -3.654,1.47 -1.659,1.659 -1.659,5.166001 0,2.541 0.798,4.011 0.651,1.239 1.848,1.953 1.218,0.714 2.709,0.714 1.533,0 2.667,-1.092 1.134,-1.113 1.386,-2.604 0.105,-0.525 0.105,-0.924 0,-0.147 0.126,-0.273 z" /></g>
<g
   class="st16 st23 st24"
   style="font-style:normal;font-variant:normal;font-weight:normal;font-stretch:normal;font-size:19.0538px;line-height:0%;font-family:KaTeX_Math;-inkscape-font-specification:'KaTeX_Math, Normal';text-align:start;writing-mode:lr-tb;text-anchor:start;fill:#ff9c39"
   id="text6157"
   aria-label="−"><path
     id="path908"
     style="font-style:normal;font-variant:normal;font-weight:normal;font-stretch:normal;font-size:19.0533px;font-family:KaTeX_Main;-inkscape-font-specification:'KaTeX_Main, Normal';font-variant-ligatures:normal;font-variant-caps:normal;font-variant-numeric:normal;font-feature-settings:normal;text-align:start;writing-mode:lr-tb;text-anchor:start"
     d="m 268.18311,151.04677 q -0.26675,-0.13337 -0.26675,-0.38106 0,-0.2477 0.26675,-0.38107 h 11.06997 q 0.2858,0.15243 0.2858,0.38107 0,0.22864 -0.2858,0.38106 z" /></g>
<g
   class="st16 st25 st24"
   style="font-style:normal;font-variant:normal;font-weight:normal;font-stretch:normal;font-size:19.0538px;line-height:0%;font-family:KaTeX_Math;-inkscape-font-specification:'KaTeX_Math, Normal';text-align:start;writing-mode:lr-tb;text-anchor:start;fill:#ff9c39"
   id="text6159"
   aria-label="v(t)"><path
     id="path911"
     style="font-style:normal;font-variant:normal;font-weight:normal;font-stretch:normal;font-size:19.0538px;line-height:0%;font-family:KaTeX_Math;-inkscape-font-specification:'KaTeX_Math, Normal';text-align:start;writing-mode:lr-tb;text-anchor:start;fill:#ff9c39"
     d="m 294.90761,107.63853 q -1.21944,0 -1.94349,-0.60972 -0.70499,-0.62878 -0.70499,-1.82916 0,-0.34297 0.0381,-0.64783 0.17148,-0.91459 0.89553,-2.80091 l 0.30486,-0.91459 q 0.11432,-0.34296 0.11432,-0.64782 0,-0.476349 -0.36202,-0.476349 -0.13338,0 -0.30486,0.05716 -0.97175,0.342968 -1.46714,2.191188 0,0.0191 -0.0191,0.0762 -0.019,0.0381 -0.0381,0.0572 0,0 -0.019,0.0191 -0.019,0.019 -0.0762,0.019 -0.0381,0 -0.0762,0 -0.0381,0 -0.15243,0 h -0.26675 q -0.11433,-0.11432 -0.11433,-0.17148 0,-0.0572 0.0572,-0.28581 0.4573,-1.50525 1.40999,-2.248346 0.51445,-0.40013 1.18133,-0.40013 0.7431,0 1.21944,0.419183 0.47635,0.419184 0.47635,1.105123 0,0.32391 -0.0572,0.4954 0,0.13337 -0.28581,0.83836 -0.87647,2.38173 -0.93363,3.39158 0,0.51445 0.0953,0.83837 0.2477,0.81931 1.20039,0.81931 0.51446,0 0.91459,-0.30486 1.18133,-0.78121 1.96254,-3.60117 0.15243,-0.5335 0.15243,-0.87647 0,-0.83837 -0.7431,-1.50525 -0.2477,-0.22865 -0.2477,-0.51446 0,-0.438233 0.34297,-0.781202 0.36202,-0.362022 0.80026,-0.362022 0.45729,0 0.70499,0.438238 0.2477,0.419183 0.2477,1.009856 0,0.66688 -0.38108,2.19118 -0.36202,1.46714 -0.91458,2.55321 -1.20039,2.45794 -3.0105,2.45794 z" /><path
     id="path913"
     style="font-style:normal;font-variant:normal;font-weight:normal;font-stretch:normal;font-size:19.0538px;line-height:0%;font-family:KaTeX_Math;-inkscape-font-specification:'KaTeX_Math, Normal';text-align:start;writing-mode:lr-tb;text-anchor:start;fill:#ff9c39"
     d="m 306.82956,111.26203 h -2.13053 q -1.64674,-1.88863 -2.55849,-4.1215 -0.91176,-2.23287 -0.91176,-5.03326 0,-2.800385 0.91176,-5.033252 0.91175,-2.232867 2.55849,-4.121501 h 2.13053 v 0.09304 q -0.75359,0.679164 -1.44206,1.572311 -0.67917,0.883843 -1.26529,2.065402 -0.55822,1.144345 -0.91176,2.521279 -0.34423,1.376935 -0.34423,2.902725 0,1.59092 0.33493,2.91203 0.34423,1.32112 0.92106,2.51198 0.55821,1.14434 1.27459,2.0654 0.71638,0.93036 1.43276,1.57231 z" /><path
     id="path915"
     style="font-style:normal;font-variant:normal;font-weight:normal;font-stretch:normal;font-size:19.0538px;line-height:0%;font-family:KaTeX_Math;-inkscape-font-specification:'KaTeX_Math, Normal';text-align:start;writing-mode:lr-tb;text-anchor:start;fill:#ff9c39"
     d="m 308.7112,100.09323 q -0.13338,-0.13338 -0.13338,-0.190541 0,-0.07622 0.0572,-0.304861 0.0762,-0.2477 0.0953,-0.266753 0.0381,-0.09527 0.17148,-0.09527 0.15243,-0.01905 0.97175,-0.01905 h 1.00985 l 0.36202,-1.524304 q 0.40013,-1.543358 0.45729,-1.657681 0.22865,-0.533506 0.87648,-0.533506 0.2477,0.01905 0.41918,0.171484 0.19054,0.15243 0.19054,0.40013 0,0.228645 -0.36202,1.619573 -0.0762,0.323914 -0.19054,0.724044 -0.0953,0.381076 -0.15243,0.571614 l -0.0381,0.190538 q 0,0.03811 0.95269,0.03811 h 0.97175 q 0.13337,0.133376 0.13337,0.209592 0,0.419183 -0.2477,0.666886 h -2.03875 l -0.68594,2.7628 q -0.70499,2.83901 -0.72405,2.99144 -0.0191,0.0953 -0.0191,0.28581 0,0.80026 0.51445,0.80026 0.13338,0 0.22865,-0.019 0.95269,-0.17149 1.73389,-1.52431 0.19054,-0.30486 0.34297,-0.70499 0.0381,-0.11432 0.0953,-0.13337 0.0572,-0.0381 0.28581,-0.0381 0.38108,0 0.38108,0.15243 0,0.0381 -0.0762,0.22864 -0.20959,0.60973 -0.68594,1.2385 -0.45729,0.60972 -0.93363,0.97175 -0.70499,0.5335 -1.50525,0.5335 -0.68594,0 -1.18134,-0.34297 -0.47634,-0.36202 -0.64783,-0.93363 -0.0381,-0.15243 -0.0381,-0.51446 v -0.34296 l 0.66689,-2.66754 q 0.66688,-2.68658 0.68593,-2.70564 0,-0.0381 -0.97174,-0.0381 z" /><path
     id="path917"
     style="font-style:normal;font-variant:normal;font-weight:normal;font-stretch:normal;font-size:19.0538px;line-height:0%;font-family:KaTeX_Math;-inkscape-font-specification:'KaTeX_Math, Normal';text-align:start;writing-mode:lr-tb;text-anchor:start;fill:#ff9c39"
     d="m 322.06888,102.10727 q 0,2.80039 -0.91176,5.03326 -0.91175,2.23287 -2.55849,4.1215 h -2.13053 v -0.093 q 0.71638,-0.64195 1.43276,-1.57231 0.72568,-0.92106 1.27459,-2.0654 0.57683,-1.19086 0.91176,-2.51198 0.34423,-1.32111 0.34423,-2.91203 0,-1.52579 -0.34423,-2.902725 -0.34424,-1.376934 -0.91176,-2.521279 -0.58612,-1.181559 -1.27459,-2.065402 -0.67916,-0.893147 -1.43276,-1.572311 v -0.09304 h 2.13053 q 1.64674,1.888634 2.55849,4.121501 0.91176,2.232867 0.91176,5.033252 z" /></g>
<g
   class="st16 st25 st24"
   style="font-style:normal;font-variant:normal;font-weight:normal;font-stretch:normal;font-size:19.0538px;line-height:0%;font-family:KaTeX_Math;-inkscape-font-specification:'KaTeX_Math, Normal';text-align:start;writing-mode:lr-tb;text-anchor:start;fill:#ff9c39"
   id="text6161"
   aria-label="v(0) = V0"><path
     id="path920"
     style="font-style:normal;font-variant:normal;font-weight:normal;font-stretch:normal;font-size:19.0538px;line-height:0%;font-family:KaTeX_Math;-inkscape-font-specification:'KaTeX_Math, Normal';text-align:start;writing-mode:lr-tb;text-anchor:start;fill:#ff9c39"
     d="m 308.74617,59.306672 q -1.21944,0 -1.94349,-0.609722 -0.70499,-0.628775 -0.70499,-1.829164 0,-0.342969 0.0381,-0.64783 0.17148,-0.914582 0.89553,-2.800908 l 0.30486,-0.914583 q 0.11432,-0.342968 0.11432,-0.647829 0,-0.476345 -0.36202,-0.476345 -0.13338,0 -0.30486,0.05716 -0.97174,0.342969 -1.46714,2.191187 0,0.01905 -0.0191,0.07622 -0.019,0.03811 -0.0381,0.05716 0,0 -0.0191,0.01905 -0.019,0.01905 -0.0762,0.01905 -0.0381,0 -0.0762,0 -0.0381,0 -0.15243,0 h -0.26675 q -0.11432,-0.114323 -0.11432,-0.171485 0,-0.05716 0.0572,-0.285807 0.45729,-1.50525 1.40998,-2.248348 0.51445,-0.40013 1.18133,-0.40013 0.7431,0 1.21945,0.419184 0.47634,0.419183 0.47634,1.10512 0,0.323915 -0.0572,0.495399 0,0.133377 -0.28581,0.838367 -0.87647,2.381725 -0.93363,3.391577 0,0.514452 0.0953,0.838367 0.2477,0.819313 1.20039,0.819313 0.51445,0 0.91458,-0.30486 1.18133,-0.781206 1.96254,-3.601169 0.15243,-0.533506 0.15243,-0.876475 0,-0.838367 -0.7431,-1.50525 -0.2477,-0.228645 -0.2477,-0.514452 0,-0.438238 0.34297,-0.781206 0.36202,-0.362022 0.80026,-0.362022 0.45729,0 0.70499,0.438237 0.2477,0.419184 0.2477,1.009851 0,0.666883 -0.38108,2.191187 -0.36202,1.467143 -0.91458,2.55321 -1.20039,2.45794 -3.0105,2.45794 z" /><path
     id="path922"
     style="font-style:normal;font-variant:normal;font-weight:normal;font-stretch:normal;font-size:19.0538px;line-height:0%;font-family:KaTeX_Math;-inkscape-font-specification:'KaTeX_Math, Normal';text-align:start;writing-mode:lr-tb;text-anchor:start;fill:#ff9c39"
     d="m 320.66812,62.930169 h -2.13053 q -1.64674,-1.888634 -2.55849,-4.121501 -0.91176,-2.232867 -0.91176,-5.033255 0,-2.800387 0.91176,-5.033255 0.91175,-2.232867 2.55849,-4.1215 h 2.13053 v 0.09304 q -0.75359,0.679163 -1.44206,1.57231 -0.67916,0.883844 -1.26529,2.065403 -0.55822,1.144344 -0.91176,2.521279 -0.34423,1.376935 -0.34423,2.902727 0,1.590918 0.33493,2.912031 0.34423,1.321113 0.92106,2.511976 0.55822,1.144344 1.27459,2.065402 0.71638,0.930362 1.43276,1.572311 z" /><path
     id="path924"
     style="font-style:normal;font-variant:normal;font-weight:normal;font-stretch:normal;font-size:19.0533px;font-family:KaTeX_Main;-inkscape-font-specification:'KaTeX_Main, Normal';font-variant-ligatures:normal;font-variant-caps:normal;font-variant-numeric:normal;font-feature-settings:normal;text-align:start;writing-mode:lr-tb;text-anchor:start"
     d="m 323.88348,47.950899 q 1.06698,-1.543317 2.91515,-1.543317 1.39089,0 2.43882,0.952665 0.51444,0.495386 0.87646,1.295624 0.70497,1.581424 0.70497,4.344153 0,2.953262 -0.81929,4.515632 -0.5335,1.105092 -1.56237,1.600478 -0.80024,0.400119 -1.61954,0.400119 -2.19112,0 -3.20095,-2.000597 -0.81929,-1.56237 -0.81929,-4.515632 0,-1.771957 0.22864,-2.915155 0.24769,-1.162251 0.8574,-2.13397 z m 4.28699,-0.228639 q -0.55255,-0.609706 -1.35279,-0.609706 -0.80023,0 -1.37183,0.609706 -0.41918,0.438226 -0.5716,1.066984 -0.15243,0.628759 -0.19054,2.172077 0,0.11432 -0.019,0.743078 0,0.628759 0,1.047932 0,1.829117 0.0381,2.553142 0.0762,1.333731 0.22864,1.924384 0.15242,0.571599 0.5716,0.990771 0.51444,0.571599 1.31467,0.571599 0.78119,0 1.29563,-0.571599 0.41917,-0.419172 0.5716,-0.990771 0.15242,-0.590653 0.22864,-1.924384 0.0381,-0.724025 0.0381,-2.553142 0,-0.419173 -0.019,-1.047932 0,-0.628758 0,-0.743078 -0.0381,-1.543318 -0.19053,-2.172077 -0.15243,-0.628758 -0.5716,-1.066984 z" /><path
     id="path926"
     style="font-style:normal;font-variant:normal;font-weight:normal;font-stretch:normal;font-size:19.0538px;line-height:0%;font-family:KaTeX_Math;-inkscape-font-specification:'KaTeX_Math, Normal';text-align:start;writing-mode:lr-tb;text-anchor:start;fill:#ff9c39"
     d="m 338.54942,53.775413 q 0,2.800388 -0.91176,5.033255 -0.91175,2.232867 -2.55849,4.121501 h -2.13053 v -0.09304 q 0.71638,-0.641949 1.43276,-1.572311 0.72568,-0.921058 1.27459,-2.065402 0.57683,-1.190863 0.91176,-2.511976 0.34423,-1.321113 0.34423,-2.912031 0,-1.525792 -0.34423,-2.902727 -0.34424,-1.376935 -0.91176,-2.521279 -0.58613,-1.181559 -1.27459,-2.065403 -0.67917,-0.893147 -1.43276,-1.57231 v -0.09304 h 2.13053 q 1.64674,1.888633 2.55849,4.1215 0.91176,2.232868 0.91176,5.033255 z" /><path
     id="path928"
     style="font-style:normal;font-variant:normal;font-weight:normal;font-stretch:normal;font-size:19.0538px;line-height:0%;font-family:KaTeX_Math;-inkscape-font-specification:'KaTeX_Math, Normal';text-align:start;writing-mode:lr-tb;text-anchor:start;fill:#ff9c39"
     d="m 360.26405,51.821654 h -11.03409 v -1.488578 h 11.03409 z m 0,3.907518 h -11.03409 v -1.488578 h 11.03409 z" /><path
     id="path930"
     style="font-style:normal;font-variant:normal;font-weight:normal;font-stretch:normal;font-size:19.0538px;line-height:125%;font-family:KaTeX_Main;-inkscape-font-specification:'KaTeX_Main, Normal';text-align:start;writing-mode:lr-tb;text-anchor:start"
     d="m 371.41417,47.283724 q -0.20959,-0.209592 -0.38108,-0.2477 -0.17148,-0.05716 -0.87647,-0.07621 h -0.55256 v -0.876475 h 0.17148 q 0.26675,0.05716 2.36267,0.05716 2.28646,0 2.70564,-0.05716 h 0.20959 v 0.876475 h -0.40013 q -0.87647,0.01905 -1.08606,0.209592 -0.0762,0.05716 -0.0762,0.114323 0,0.03811 1.71484,4.725342 1.71485,4.687235 1.7339,4.687235 0.7431,-2.000649 1.63863,-4.420481 1.61957,-4.382375 1.61957,-4.553859 0,-0.362022 -0.40013,-0.55256 -0.40013,-0.209592 -0.87647,-0.209592 h -0.0953 v -0.876475 h 0.17148 q 0.32392,0.05716 2.19119,0.05716 1.63862,0 1.84822,-0.05716 h 0.11432 v 0.876475 h -0.13338 q -1.40998,0 -1.82916,0.781206 0,0.01905 -2.15308,5.811409 -2.13403,5.792356 -2.15308,5.811409 -0.0572,0.152431 -0.34297,0.152431 h -0.17148 -0.17149 q -0.26675,0 -0.32391,-0.152431 -0.0381,-0.03811 -2.2293,-6.040054 -2.22929,-5.982894 -2.22929,-6.040055 z" /><path
     id="path932"
     style="font-style:normal;font-variant:normal;font-weight:normal;font-stretch:normal;font-size:16.2507px;line-height:125%;font-family:KaTeX_Main;-inkscape-font-specification:'KaTeX_Main, Normal';font-variant-ligatures:normal;font-variant-caps:normal;font-variant-numeric:normal;font-feature-settings:normal;text-align:start;writing-mode:lr-tb;text-anchor:start"
     d="m 385.09245,55.590421 q 0.91004,-1.316307 2.48636,-1.316307 1.1863,0 2.08009,0.812535 0.43877,0.422518 0.74753,1.105048 0.60128,1.348808 0.60128,3.705159 0,2.518859 -0.69878,3.851416 -0.45502,0.942541 -1.33256,1.365059 -0.68253,0.341265 -1.38131,0.341265 -1.86883,0 -2.73012,-1.706324 -0.69878,-1.332557 -0.69878,-3.851416 0,-1.511315 0.19501,-2.486357 0.21126,-0.991293 0.73128,-1.820078 z m 3.65641,-0.195009 q -0.47127,-0.520022 -1.1538,-0.520022 -0.68253,0 -1.17005,0.520022 -0.35751,0.373766 -0.48752,0.91004 -0.13001,0.536273 -0.16251,1.852579 0,0.0975 -0.0163,0.633778 0,0.536273 0,0.893788 0,1.560067 0.0325,2.177594 0.065,1.137549 0.19501,1.641321 0.13001,0.487521 0.48752,0.845036 0.43877,0.487521 1.1213,0.487521 0.66628,0 1.10505,-0.487521 0.35751,-0.357515 0.48752,-0.845036 0.13001,-0.503772 0.19501,-1.641321 0.0325,-0.617527 0.0325,-2.177594 0,-0.357515 -0.0163,-0.893788 0,-0.536273 0,-0.633778 -0.0325,-1.316306 -0.16251,-1.852579 -0.13,-0.536274 -0.48752,-0.91004 z" /></g>
<g
   class="st16 st23 st24"
   style="font-style:normal;font-variant:normal;font-weight:normal;font-stretch:normal;font-size:19.0538px;line-height:0%;font-family:KaTeX_Math;-inkscape-font-specification:'KaTeX_Math, Normal';text-align:start;writing-mode:lr-tb;text-anchor:start;fill:#ff9c39"
   id="text6163" />
<g
   class="st3 st25 st24"
   style="font-style:normal;font-variant:normal;font-weight:normal;font-stretch:normal;font-size:19.0538px;line-height:0%;font-family:KaTeX_Math;-inkscape-font-specification:'KaTeX_Math, Normal';text-align:start;writing-mode:lr-tb;text-anchor:start;fill:#11accd"
   id="text6167"
   aria-label="t = 0"><path
     id="path936"
     style="font-style:normal;font-variant:normal;font-weight:normal;font-stretch:normal;font-size:19.0538px;line-height:0%;font-family:KaTeX_Math;-inkscape-font-specification:'KaTeX_Math, Normal';text-align:start;writing-mode:lr-tb;text-anchor:start;fill:#11accd"
     d="m 147.76392,15.353786 q -0.13337,-0.133377 -0.13337,-0.190538 0,-0.07622 0.0572,-0.304861 0.0762,-0.2477 0.0953,-0.266753 0.0381,-0.09527 0.17148,-0.09527 0.15243,-0.01905 0.97174,-0.01905 h 1.00986 l 0.36202,-1.524304 q 0.40013,-1.543358 0.45729,-1.657681 0.22865,-0.533506 0.87647,-0.533506 0.2477,0.01905 0.41919,0.171484 0.19054,0.15243 0.19054,0.40013 0,0.228645 -0.36203,1.619573 -0.0762,0.323914 -0.19053,0.724044 -0.0953,0.381076 -0.15243,0.571614 l -0.0381,0.190538 q 0,0.03811 0.95269,0.03811 h 0.97174 q 0.13338,0.133376 0.13338,0.209592 0,0.419183 -0.2477,0.666883 h -2.03876 l -0.68593,2.762801 q -0.705,2.839016 -0.72405,2.991446 -0.019,0.09527 -0.019,0.285807 0,0.80026 0.51445,0.80026 0.13338,0 0.22865,-0.01905 0.95269,-0.171484 1.73389,-1.524304 0.19054,-0.304861 0.34297,-0.70499 0.0381,-0.114323 0.0953,-0.133377 0.0572,-0.03811 0.28581,-0.03811 0.38107,0 0.38107,0.152431 0,0.03811 -0.0762,0.228645 -0.2096,0.609722 -0.68594,1.238497 -0.45729,0.609722 -0.93364,0.971744 -0.70499,0.533507 -1.50525,0.533507 -0.68593,0 -1.18133,-0.342969 -0.47635,-0.362022 -0.64783,-0.933636 -0.0381,-0.15243 -0.0381,-0.514453 v -0.342968 l 0.66688,-2.667532 q 0.66689,-2.686586 0.68594,-2.70564 0,-0.03811 -0.97174,-0.03811 z" /><path
     id="path938"
     style="font-style:normal;font-variant:normal;font-weight:normal;font-stretch:normal;font-size:19.0538px;line-height:0%;font-family:KaTeX_Math;-inkscape-font-specification:'KaTeX_Math, Normal';text-align:start;writing-mode:lr-tb;text-anchor:start;fill:#11accd"
     d="m 172.23012,15.414073 h -11.03409 v -1.488578 h 11.03409 z m 0,3.907518 h -11.03409 v -1.488578 h 11.03409 z" /><path
     id="path940"
     style="font-style:normal;font-variant:normal;font-weight:normal;font-stretch:normal;font-size:19.0533px;font-family:KaTeX_Main;-inkscape-font-specification:'KaTeX_Main, Normal';font-variant-ligatures:normal;font-variant-caps:normal;font-variant-numeric:normal;font-feature-settings:normal;text-align:start;writing-mode:lr-tb;text-anchor:start"
     d="m 183.03722,11.543318 q 1.06699,-1.543317 2.91516,-1.543317 1.39089,0 2.43882,0.952665 0.51444,0.495385 0.87645,1.295624 0.70498,1.581424 0.70498,4.344153 0,2.953261 -0.8193,4.515632 -0.53349,1.105091 -1.56237,1.600477 -0.80024,0.40012 -1.61953,0.40012 -2.19113,0 -3.20095,-2.000597 -0.81929,-1.562371 -0.81929,-4.515632 0,-1.771957 0.22864,-2.915155 0.24769,-1.162252 0.85739,-2.13397 z m 4.287,-0.22864 q -0.55255,-0.609705 -1.35279,-0.609705 -0.80024,0 -1.37184,0.609705 -0.41917,0.438226 -0.57159,1.066985 -0.15243,0.628759 -0.19054,2.172076 0,0.11432 -0.019,0.743079 0,0.628759 0,1.047932 0,1.829117 0.0381,2.553142 0.0762,1.333731 0.22864,1.924383 0.15242,0.571599 0.57159,0.990772 0.51444,0.571599 1.31468,0.571599 0.78119,0 1.29563,-0.571599 0.41917,-0.419173 0.5716,-0.990772 0.15242,-0.590652 0.22864,-1.924383 0.0381,-0.724025 0.0381,-2.553142 0,-0.419173 -0.019,-1.047932 0,-0.628759 0,-0.743079 -0.0381,-1.543317 -0.19053,-2.172076 -0.15243,-0.628759 -0.5716,-1.066985 z" /></g>
<g
   class="st23 st24"
   style="font-style:normal;font-variant:normal;font-weight:normal;font-stretch:normal;font-size:19.0538px;line-height:0%;font-family:KaTeX_Math;-inkscape-font-specification:'KaTeX_Math, Normal';text-align:start;writing-mode:lr-tb;text-anchor:start"
   id="text6169"
   aria-label="V"><path
     id="path943"
     style="font-style:normal;font-variant:normal;font-weight:normal;font-stretch:normal;font-size:19.0538px;line-height:125%;font-family:KaTeX_Main;-inkscape-font-specification:'KaTeX_Main, Normal';text-align:start;writing-mode:lr-tb;text-anchor:start"
     d="m 11.810111,95.615583 q -0.209592,-0.209591 -0.381076,-0.247699 -0.171484,-0.05716 -0.876475,-0.07622 H 9.9999998 v -0.876475 h 0.1714842 q 0.266753,0.05716 2.362671,0.05716 2.286456,0 2.70564,-0.05716 h 0.209592 v 0.876475 h -0.40013 q -0.876475,0.01905 -1.086067,0.209592 -0.07622,0.05716 -0.07622,0.114322 0,0.03811 1.714842,4.725347 1.714842,4.68723 1.733896,4.68723 0.743098,-2.00065 1.638627,-4.42048 1.619573,-4.382375 1.619573,-4.553859 0,-0.362022 -0.40013,-0.55256 -0.40013,-0.209592 -0.876475,-0.209592 h -0.09527 v -0.876475 h 0.171484 q 0.323915,0.05716 2.191188,0.05716 1.638626,0 1.848218,-0.05716 h 0.114323 v 0.876475 h -0.133377 q -1.409981,0 -1.829164,0.781206 0,0.01905 -2.15308,5.811405 -2.134026,5.79236 -2.153079,5.81141 -0.05716,0.15243 -0.342969,0.15243 h -0.171484 -0.171484 q -0.266753,0 -0.323915,-0.15243 -0.03811,-0.0381 -2.229294,-6.04005 -2.229295,-5.982895 -2.229295,-6.040057 z" /></g>
<g
   class="st23 st24"
   style="font-style:normal;font-variant:normal;font-weight:normal;font-stretch:normal;font-size:16.25px;line-height:0%;font-family:KaTeX_Math;-inkscape-font-specification:'KaTeX_Math, Normal';text-align:start;writing-mode:lr-tb;text-anchor:start"
   id="text6171"
   aria-label="S"><path
     id="path946"
     style="font-style:normal;font-variant:normal;font-weight:normal;font-stretch:normal;font-size:16.25px;line-height:125%;font-family:KaTeX_Main;-inkscape-font-specification:'KaTeX_Main, Normal';text-align:start;writing-mode:lr-tb;text-anchor:start"
     d="m 22.83423,112.73338 q 0.0975,0.0975 0.0975,0.21125 0,1.44625 0.92625,2.275 0.9425,0.8125 2.48625,0.8125 0.195,0 0.26,-0.0162 0.715,-0.14625 1.15375,-0.73125 0.455,-0.585 0.455,-1.38125 0,-0.69875 -0.37375,-1.2675 -0.3575,-0.585 -0.92625,-0.78 -0.91,-0.2275 -1.2025,-0.30875 -1.21875,-0.2925 -1.25125,-0.30875 -0.9425,-0.325 -1.56,-1.1375 -0.6175,-0.82875 -0.6175,-1.9175 0,-0.975 0.50375,-1.73875 0.50375,-0.76375 1.25125,-1.1375 0.65,-0.325 1.3,-0.325 1.28375,0 2.08,0.5525 0.24375,0.1625 0.5525,0.47125 l 0.34125,-0.50375 q 0.08125,-0.11375 0.1625,-0.24375 0.0975,-0.13 0.1625,-0.21125 l 0.04875,-0.065 q 0.01625,0 0.065,0 0.04875,-0.0162 0.0975,-0.0162 0.11375,0 0.21125,0.0975 v 3.85125 l -0.0975,0.0975 h -0.2925 q -0.17875,0 -0.21125,-0.0487 -0.0325,-0.0487 -0.08125,-0.325 -0.27625,-2.0475 -1.64125,-2.71375 -0.60125,-0.26 -1.21875,-0.26 -0.845,0 -1.3975,0.5525 -0.53625,0.53625 -0.53625,1.3975 0,0.5525 0.27625,1.02375 0.27625,0.455 0.78,0.715 0.1625,0.0812 1.5275,0.40625 1.15375,0.30875 1.235,0.34125 0.92625,0.3575 1.51125,1.21875 0.60125,0.845 0.60125,1.99875 0,1.3325 -0.73125,2.25875 -0.73125,0.91 -1.9175,1.15375 -0.1625,0.0325 -0.585,0.0325 -1.7225,0 -2.795,-0.9425 -0.08125,-0.0812 -0.11375,-0.065 -0.065,0.0812 -0.24375,0.34125 -0.17875,0.24375 -0.325,0.43875 -0.14625,0.21125 -0.14625,0.2275 -0.0325,0.0162 -0.1625,0.0162 -0.11375,0 -0.21125,-0.0975 v -1.90125 q 0,-1.93375 0.01625,-1.96625 0.0325,-0.0812 0.325,-0.0812 z" /></g>
<g
   class="st16 st23 st24"
   style="font-style:normal;font-variant:normal;font-weight:normal;font-stretch:normal;font-size:19.0538px;line-height:0%;font-family:KaTeX_Math;-inkscape-font-specification:'KaTeX_Math, Normal';text-align:start;writing-mode:lr-tb;text-anchor:start;fill:#ff9c39"
   id="text6173"
   aria-label="+"><path
     id="path949"
     style="font-style:normal;font-variant:normal;font-weight:normal;font-stretch:normal;font-size:19.0533px;font-family:KaTeX_Main;-inkscape-font-specification:'KaTeX_Main, Normal';font-variant-ligatures:normal;font-variant-caps:normal;font-variant-numeric:normal;font-feature-settings:normal;text-align:start;writing-mode:lr-tb;text-anchor:start"
     d="m 267.64962,55.047177 q -0.26675,-0.133374 -0.26675,-0.381066 0,-0.247693 0.26675,-0.381067 h 5.69694 v -2.857995 l 0.019,-2.857995 q 0.19053,-0.247693 0.36201,-0.247693 0.24769,0 0.38107,0.2858 v 5.677883 h 5.67788 q 0.2858,0.152427 0.2858,0.381067 0,0.228639 -0.2858,0.381066 h -5.67788 v 5.677883 q -0.13338,0.266746 -0.38107,0.266746 -0.24769,0 -0.38106,-0.266746 v -5.677883 z" /></g>
<g
   transform="translate(26.31525,-6.5714593)"
   id="g6175"><g
     id="g6177"><path
       style="fill:none;stroke:#ff9c39;stroke-width:2;stroke-linecap:round;stroke-miterlimit:10"
       inkscape:connector-curvature="0"
       id="path6179"
       d="m 252,144 c 3.7,-7 6.2,-20.5 6.2,-36 0,-11.4 -1.4,-21.8 -3.6,-29.3"
       class="st19" /><g
       id="g6181"><path
         style="fill:#ff9c39"
         inkscape:connector-curvature="0"
         id="path6183"
         d="m 252,72 c 2.4,2.7 5.9,5.9 9,7.6 l -6.1,0.1 -4.6,3.9 c 1.2,-3.2 1.7,-8 1.7,-11.6 z"
         class="st16" /></g></g></g><g
   transform="translate(87.638083,-6.5714593)"
   id="g6185"><g
     id="g6187"><path
       style="fill:none;stroke:#11accd;stroke-width:2;stroke-linecap:round;stroke-miterlimit:10"
       inkscape:connector-curvature="0"
       id="path6189"
       d="M 101.3,60.7 C 101,57.1 99.8,53 97.8,49.1 94.2,42.3 88.9,37.4 84,36"
       class="st26" /><g
       id="g6191"><path
         style="fill:#11accd"
         inkscape:connector-curvature="0"
         id="path6193"
         d="m 100.6,68 c 1.5,-3.3 4,-7.3 6.5,-9.8 l -5.9,1.6 -5.5,-2.5 c 2.1,2.8 3.9,7.2 4.9,10.7 z"
         class="st3" /></g></g></g><path
   inkscape:connector-curvature="0"
   id="path1853"
   d="m 201.63069,47.075302 46.70171,0.131184 -0.13118,49.58777"
   style="fill:none;fill-rule:evenodd;stroke:#000000;stroke-width:1px;stroke-linecap:butt;stroke-linejoin:miter;stroke-opacity:1" /><g
   style="font-style:normal;font-variant:normal;font-weight:normal;font-stretch:normal;font-size:18.6667px;line-height:125%;font-family:KaTeX_Main;-inkscape-font-specification:'KaTeX_Main, Normal';text-align:start;letter-spacing:0px;word-spacing:0px;writing-mode:lr-tb;text-anchor:start;fill:#000000;fill-opacity:1;stroke:none;stroke-width:1px;stroke-linecap:butt;stroke-linejoin:miter;stroke-opacity:1"
   id="flowRoot1859"
   transform="translate(-1.1863709e-6,-1.4519503)" /><g
   class="st3 st21 st22"
   style="font-style:normal;font-variant:normal;font-weight:normal;font-stretch:normal;font-size:22.5px;line-height:0%;font-family:KaTeX_Math;-inkscape-font-specification:'KaTeX_Math, Normal';text-align:start;writing-mode:lr-tb;text-anchor:start;fill:#11accd;stroke:none;stroke-width:3;stroke-miterlimit:10"
   id="text5965"
   aria-label="i"><path
     id="path953"
     style="font-style:normal;font-variant:normal;font-weight:normal;font-stretch:normal;font-size:22.5px;line-height:0%;font-family:KaTeX_Math;-inkscape-font-specification:'KaTeX_Math, Normal';text-align:start;writing-mode:lr-tb;text-anchor:start;fill:#11accd;stroke:none;stroke-width:3;stroke-miterlimit:10"
     d="m 226.31847,21.741703 q 0,-0.5175 0.4275,-0.945 0.4275,-0.4275 0.99,-0.4275 0.405,0 0.675,0.27 0.2925,0.27 0.2925,0.675 0,0.495 -0.45,0.945 -0.45,0.45 -0.99,0.45 -0.405,0 -0.675,-0.27 -0.27,-0.27 -0.27,-0.6975 z m -0.5175,13.7475 q -0.8775,0 -1.4175,-0.5175 -0.54,-0.5175 -0.54,-1.395 0,-0.3825 0.045,-0.5175 0,-0.045 1.035,-2.7675 1.035,-2.745 1.035,-2.79 0.1125,-0.36 0.1125,-0.81 0,-0.54 -0.3825,-0.54 h -0.045 q -0.54,0 -1.035,0.5175 -0.72,0.7425 -1.0575,2.115 0,0.0225 -0.0225,0.09 -0.0225,0.045 -0.045,0.0675 0,0 -0.0225,0.0225 -0.0225,0.0225 -0.09,0.0225 -0.045,0 -0.09,0 -0.045,0 -0.18,0 h -0.315 q -0.135,-0.135 -0.135,-0.2025 0,-0.0675 0.0675,-0.315 0.585,-1.935 1.71,-2.7 0.6075,-0.4725 1.305,-0.4725 0.9,0 1.485,0.5175 0.585,0.5175 0.585,1.395 0,0.2925 -0.1125,0.675 -0.0225,0.045 -1.035,2.7675 l -1.0125,2.7225 q -0.1125,0.495 -0.1125,0.72 0,0.5625 0.3825,0.5625 0.315,0 0.5625,-0.135 0.99,-0.4725 1.5525,-2.3625 0.0675,-0.27 0.1125,-0.315 0.0675,-0.045 0.3825,-0.045 0.2025,0 0.27,0.0225 0.09,0 0.135,0.045 0.045,0.045 0.045,0.1575 0,0.09 -0.0675,0.2925 -0.4275,1.2825 -1.2375,2.2275 -0.7875,0.945 -1.8675,0.945 z" /></g>
<g
   class="st3 st23 st22"
   style="font-style:normal;font-variant:normal;font-weight:normal;font-stretch:normal;font-size:14.2475px;line-height:0%;font-family:KaTeX_Main;-inkscape-font-specification:'KaTeX_Main, Normal';text-align:start;writing-mode:lr-tb;text-anchor:start;fill:#11accd;stroke:none"
   id="text5967"
   aria-label="R"><path
     id="path956"
     style="font-style:normal;font-variant:normal;font-weight:normal;font-stretch:normal;font-size:14.2475px;line-height:0%;font-family:KaTeX_Main;-inkscape-font-specification:'KaTeX_Main, Normal';text-align:start;writing-mode:lr-tb;text-anchor:start;fill:#11accd;stroke:none"
     d="m 231.55652,32.373864 q -0.14247,-0.142475 -0.28495,-0.17097 -0.12823,-0.02849 -0.71237,-0.04274 h -0.47017 v -0.655385 h 2.49331 q 2.65004,0.01425 2.92074,0.05699 0.0427,0.01425 0.18522,0.04274 0.64113,0.128228 1.1398,0.39893 1.35351,0.68388 1.55297,1.866423 0.0143,0.07124 0.0143,0.22796 0,0.79786 -0.61264,1.396255 -0.5984,0.598395 -1.42475,0.869097 -0.0285,0.01425 -0.0712,0.02849 -0.0285,0 -0.057,0.01425 l -0.0285,0.01425 q 0.0427,0.04274 0.15672,0.08549 1.02582,0.5699 1.26803,1.510235 0.0142,0.05699 0.15672,0.940335 0.14247,0.883345 0.15672,0.940335 0.0997,0.51291 0.24221,0.755118 0.15672,0.242207 0.39893,0.327692 0.057,0.02849 0.24221,0.02849 h 0.0712 q 0.18522,0 0.34194,-0.156722 0.28495,-0.28495 0.3277,-0.85485 0,-0.156723 0.0427,-0.199465 0.057,-0.05699 0.24221,-0.05699 0.17097,0 0.22796,0.04274 0.057,0.02849 0.057,0.17097 0,0.51291 -0.25646,0.940335 -0.24221,0.413178 -0.59839,0.5699 -0.22796,0.08548 -0.5984,0.08548 -2.12288,-0.08548 -2.45057,-1.59572 -0.0285,-0.156722 -0.0427,-1.040067 0,-0.883345 -0.0855,-1.182543 -0.12822,-0.384682 -0.42742,-0.655385 -0.28495,-0.28495 -0.65539,-0.39893 l -0.14247,-0.02849 -0.94034,-0.01425 h -0.94033 v 1.866422 l 0.0143,1.866423 q 0.0997,0.142475 0.2422,0.17097 0.15673,0.0285 0.74087,0.04274 h 0.47017 v 0.655385 h -0.15672 q -0.22796,-0.04274 -2.02315,-0.04274 -1.80943,0 -2.03739,0.04274 h -0.15672 v -0.655385 h 0.47017 q 0.58414,-0.01425 0.71237,-0.04274 0.14248,-0.02849 0.28495,-0.17097 z m 5.1291,1.182543 q -0.14247,-0.85485 -0.76936,-1.125553 -0.61265,-0.270702 -1.88067,-0.270702 -0.21372,0 -0.48442,0.01425 -0.2707,0 -0.28495,0 -0.18522,0.01425 -0.22796,0.11398 -0.0427,0.05699 -0.0427,1.93766 v 1.88067 h 0.82635 q 1.06857,0 1.58148,-0.08549 0.51291,-0.09973 0.89759,-0.484415 0.24221,-0.242207 0.31344,-0.541405 0.0855,-0.299197 0.0855,-0.869097 0,-0.45592 -0.0143,-0.5699 z" /></g>
<g
   class="st3 st21 st22"
   style="font-style:normal;font-variant:normal;font-weight:normal;font-stretch:normal;font-size:22.5px;line-height:0%;font-family:KaTeX_Math;-inkscape-font-specification:'KaTeX_Math, Normal';text-align:start;writing-mode:lr-tb;text-anchor:start;fill:#11accd;stroke:none;stroke-width:3;stroke-miterlimit:10"
   id="text5969"
   aria-label="i"><path
     id="path959"
     style="font-style:normal;font-variant:normal;font-weight:normal;font-stretch:normal;font-size:22.5px;line-height:0%;font-family:KaTeX_Math;-inkscape-font-specification:'KaTeX_Math, Normal';text-align:start;writing-mode:lr-tb;text-anchor:start;fill:#11accd;stroke:none;stroke-width:3;stroke-miterlimit:10"
     d="m 226.31847,57.74173 q 0,-0.5175 0.4275,-0.945 0.4275,-0.4275 0.99,-0.4275 0.405,0 0.675,0.27 0.2925,0.27 0.2925,0.675 0,0.495 -0.45,0.945 -0.45,0.45 -0.99,0.45 -0.405,0 -0.675,-0.27 -0.27,-0.27 -0.27,-0.6975 z m -0.5175,13.7475 q -0.8775,0 -1.4175,-0.5175 -0.54,-0.5175 -0.54,-1.395 0,-0.3825 0.045,-0.5175 0,-0.045 1.035,-2.7675 1.035,-2.745 1.035,-2.79 0.1125,-0.36 0.1125,-0.81 0,-0.54 -0.3825,-0.54 h -0.045 q -0.54,0 -1.035,0.5175 -0.72,0.7425 -1.0575,2.115 0,0.0225 -0.0225,0.09 -0.0225,0.045 -0.045,0.0675 0,0 -0.0225,0.0225 -0.0225,0.0225 -0.09,0.0225 -0.045,0 -0.09,0 -0.045,0 -0.18,0 h -0.315 q -0.135,-0.135 -0.135,-0.2025 0,-0.0675 0.0675,-0.315 0.585,-1.935 1.71,-2.7 0.6075,-0.4725 1.305,-0.4725 0.9,0 1.485,0.5175 0.585,0.5175 0.585,1.395 0,0.2925 -0.1125,0.675 -0.0225,0.045 -1.035,2.7675 l -1.0125,2.7225 q -0.1125,0.495 -0.1125,0.72 0,0.5625 0.3825,0.5625 0.315,0 0.5625,-0.135 0.99,-0.4725 1.5525,-2.3625 0.0675,-0.27 0.1125,-0.315 0.0675,-0.045 0.3825,-0.045 0.2025,0 0.27,0.0225 0.09,0 0.135,0.045 0.045,0.045 0.045,0.1575 0,0.09 -0.0675,0.2925 -0.4275,1.2825 -1.2375,2.2275 -0.7875,0.945 -1.8675,0.945 z" /></g>
<g
   class="st3 st23 st22"
   style="font-style:normal;font-variant:normal;font-weight:normal;font-stretch:normal;font-size:14.2475px;line-height:0%;font-family:KaTeX_Main;-inkscape-font-specification:'KaTeX_Main, Normal';text-align:start;writing-mode:lr-tb;text-anchor:start;fill:#11accd;stroke:none"
   id="text5971"
   aria-label="C"><path
     id="path962"
     style="font-style:normal;font-variant:normal;font-weight:normal;font-stretch:normal;font-size:14.2475px;line-height:0%;font-family:KaTeX_Main;-inkscape-font-specification:'KaTeX_Main, Normal';text-align:start;writing-mode:lr-tb;text-anchor:start;fill:#11accd;stroke:none"
     d="m 239.1077,73.574225 0.0855,0.08549 v 0.213712 q -0.0712,1.282275 -0.8406,2.265353 -0.76937,0.983077 -1.9804,1.296522 -0.41318,0.09973 -0.92609,0.09973 -0.52716,0 -0.89759,-0.08549 -1.59572,-0.313445 -2.69278,-1.510235 -1.08281,-1.19679 -1.33927,-2.96348 -0.0142,-0.128228 -0.0142,-0.612643 0,-0.470167 0.0142,-0.612642 0.24221,-1.738195 1.33927,-2.934986 1.09706,-1.211037 2.69278,-1.53873 0.45592,-0.08549 0.72662,-0.08549 0.0285,0 0.11398,0.01425 0.0855,0 0.12823,0 0.34194,0 0.48441,0.0285 1.04007,0.185217 1.80943,0.940335 l 0.18522,0.17097 0.42743,-0.555653 q 0.38468,-0.527157 0.44167,-0.584147 0.0143,0 0.057,0 0.0427,-0.01425 0.0855,-0.01425 0.0997,0 0.18522,0.08549 v 3.989301 l -0.0855,0.08548 h -0.48442 q -0.0855,-0.08548 -0.0997,-0.242208 -0.12823,-1.168295 -0.68388,-2.023145 -0.55565,-0.85485 -1.35351,-1.125553 -0.27071,-0.09973 -0.71238,-0.09973 -1.48174,0 -2.47906,0.997325 -1.12556,1.125553 -1.12556,3.504885 0,1.723948 0.54141,2.721273 0.44167,0.840602 1.25378,1.325017 0.82635,0.484415 1.83793,0.484415 1.04006,0 1.80943,-0.74087 0.76936,-0.755117 0.94033,-1.76669 0.0712,-0.356187 0.0712,-0.62689 0,-0.09973 0.0855,-0.185217 z" /></g>
<g
   transform="translate(26.178099,-6.7582775)"
   id="g6055"><g
     id="g6057"><line
       style="fill:none;stroke:#11accd;stroke-width:3;stroke-linecap:round;stroke-miterlimit:10"
       id="line6059"
       y2="66"
       x2="222"
       y1="80.900002"
       x1="222"
       class="st2" /><g
       id="g6061"><path
         style="fill:#11accd"
         inkscape:connector-curvature="0"
         id="path6063"
         d="m 222,90 c 1.6,-4.3 4.3,-9.5 7.1,-12.8 l -7.1,2.6 -7.1,-2.6 c 2.8,3.3 5.5,8.5 7.1,12.8 z"
         class="st3" /></g></g></g><g
   transform="translate(26.178099,-6.7582775)"
   id="g6065"><g
     id="g6067"><line
       style="fill:none;stroke:#11accd;stroke-width:3;stroke-linecap:round;stroke-miterlimit:10"
       id="line6069"
       y2="54"
       x2="195.10001"
       y1="54"
       x1="210"
       class="st2" /><g
       id="g6071"><path
         style="fill:#11accd"
         inkscape:connector-curvature="0"
         id="path6073"
         d="m 186,54 c 4.3,-1.6 9.5,-4.3 12.8,-7.1 l -2.6,7.1 2.6,7.1 C 195.5,58.3 190.3,55.6 186,54 Z"
         class="st3" /></g></g></g></svg>
