<?xml version="1.0" standalone="no"?><!DOCTYPE svg PUBLIC "-//W3C//DTD SVG 1.1//EN" "http://www.w3.org/Graphics/SVG/1.1/DTD/svg11.dtd"><svg width="380" height="260" transform="translate(0,0)" version="1.1" xmlns="http://www.w3.org/2000/svg" xmlns:xlink="http://www.w3.org/1999/xlink"><defs xmlns="http://www.w3.org/1999/xhtml"><style type="text/css"><![CDATA[
svg .grid { stroke-width: 0.5px; stroke: rgb(187, 187, 187); opacity: 0.5; }
svg .domain { stroke-width: 3px; stroke: black; }
svg { border: none; }
svg .path { stroke-width: 4px; stroke: rgb(255, 156, 57); fill: none; }
svg text { font-style: normal; font-variant: normal; font-weight: normal; font-stretch: normal; font-size: 16px; line-height: normal; font-family: katex_math; }
svg .tick text { font-style: normal; font-variant: normal; font-weight: normal; font-stretch: normal; font-size: 12px; line-height: normal; font-family: katex_math; }]]></style></defs><g transform="translate(40,40)"><line x1="40" y1="40" x2="240" y2="40" style="stroke-dasharray: 5, 5; stroke-width: 2px; stroke: rgb(138, 242, 129);"/><g class="x-axis" transform="translate(0,160)" fill="none" font-size="10" font-family="sans-serif" text-anchor="middle"><path class="domain" stroke="#000" d="M0.5,0V0.5H240.5V0"/><g class="tick" opacity="1" transform="translate(0.5,0)"><line stroke="#000" y2="6"/><line class="grid" x1="0" y1="-160" x2="0" y2="20"/></g><g class="tick" opacity="1" transform="translate(40.5,0)"><line stroke="#000" y2="6"/><line class="grid" x1="0" y1="-160" x2="0" y2="20"/></g><g class="tick" opacity="1" transform="translate(80.5,0)"><line stroke="#000" y2="6"/><line class="grid" x1="0" y1="-160" x2="0" y2="20"/></g><g class="tick" opacity="1" transform="translate(120.5,0)"><line stroke="#000" y2="6"/><line class="grid" x1="0" y1="-160" x2="0" y2="20"/></g><g class="tick" opacity="1" transform="translate(160.5,0)"><line stroke="#000" y2="6"/><line class="grid" x1="0" y1="-160" x2="0" y2="20"/></g><g class="tick" opacity="1" transform="translate(200.5,0)"><line stroke="#000" y2="6"/><line class="grid" x1="0" y1="-160" x2="0" y2="20"/></g><g class="tick" opacity="1" transform="translate(240.5,0)"><line stroke="#000" y2="6"/><line class="grid" x1="0" y1="-160" x2="0" y2="20"/></g><text x="240" dx=".71em" style="text-anchor: start; font-size: 16px; fill: black;">t (time)</text></g><g class="y-axis" transform="translate(40,0)" fill="none" font-size="10" font-family="sans-serif" text-anchor="end"><path class="domain" stroke="#000" d="M0,180.5H0.5V0.5H0"/><g class="tick" opacity="1" transform="translate(0,180.5)"><line stroke="#000" x2="-6"/><line class="grid" x1="-40" y1="0" x2="200" y2="0"/></g><g class="tick" opacity="1" transform="translate(0,160.5)"><line stroke="#000" x2="-6"/><line class="grid" x1="-40" y1="0" x2="200" y2="0"/></g><g class="tick" opacity="1" transform="translate(0,140.5)"><line stroke="#000" x2="-6"/><line class="grid" x1="-40" y1="0" x2="200" y2="0"/></g><g class="tick" opacity="1" transform="translate(0,120.5)"><line stroke="#000" x2="-6"/><line class="grid" x1="-40" y1="0" x2="200" y2="0"/></g><g class="tick" opacity="1" transform="translate(0,100.5)"><line stroke="#000" x2="-6"/><line class="grid" x1="-40" y1="0" x2="200" y2="0"/></g><g class="tick" opacity="1" transform="translate(0,80.5)"><line stroke="#000" x2="-6"/><line class="grid" x1="-40" y1="0" x2="200" y2="0"/></g><g class="tick" opacity="1" transform="translate(0,60.5)"><line stroke="#000" x2="-6"/><line class="grid" x1="-40" y1="0" x2="200" y2="0"/></g><g class="tick" opacity="1" transform="translate(0,40.5)"><line stroke="#000" x2="-6"/><line class="grid" x1="-40" y1="0" x2="200" y2="0"/></g><g class="tick" opacity="1" transform="translate(0,20.5)"><line stroke="#000" x2="-6"/><line class="grid" x1="-40" y1="0" x2="200" y2="0"/></g><g class="tick" opacity="1" transform="translate(0,0.5)"><line stroke="#000" x2="-6"/><line class="grid" x1="-40" y1="0" x2="200" y2="0"/></g><text dy="-12px" style="text-anchor: middle; font-size: 16px; fill: black;">v (volts)</text></g><path class="path" d="M40,120L40.99999999999999,118.35057450649921L42.00000000000001,116.73515656873106L43,115.15304502507806L44,113.60355317034585L45,112.08600845770324L46,110.59975220676763L47,109.14413931770912L47.99999999999999,107.71853799124912L49.00000000000001,106.32232945443204L50,104.95490769205081L51,103.61567918361006L52,102.30406264571239L53,101.01948877975603L54,99.7614000248346L55,98.52925031573135L55.99999999999999,97.32250484590313L57.00000000000001,96.1406398353512L58,94.98314230327777L59,93.84950984543018L60,92.7392504160355L61,91.65188211423136L62.00000000000001,90.5869329749L63,89.54394076381477L64,88.52245277701067L65,87.5220256442908L65.99999999999999,86.54222513678467L67,85.58262597847383L68.00000000000001,84.64281166160376L69.00000000000001,83.72237426590121L70,82.82091428151922L71,81.93804043563235L72,81.07336952260736L73,80.22652623767527L74,79.39714301403278L75,78.58485986330226L76,77.78932421928118L77,77.01019078491306L78,76.24712138241351L79,75.49978480648639L80,74.76785668056625L80.99999999999999,74.0510193160249L81.99999999999999,73.34896157428066L83.00000000000001,72.66137873175072L84.00000000000001,71.98797234758779L85,71.32845013414392L86.00000000000001,70.68252583010486L87,70.0499190762402L88,69.43035529371538L89,68.82356556491237L90,68.22928651670792L91,67.64726020615797L92,67.07723400853938L93,66.51896050769975L94,65.97219738866798L95,65.43670733247917L96.00000000000001,64.91225791316782L96.99999999999999,64.39862149688474L98.00000000000001,63.89557514309428L98.99999999999999,63.402900507808226L100,62.92038374881521L101,62.44781543286376L102,61.98499044475916L103,61.531707898334716L104,61.08777104925814L105,60.65298720963622L106.00000000000001,60.22716766437972L107,59.81012758929293L108,59.4016859708519L108.99999999999999,59.00166552763663L110,58.60989263338341L110.99999999999999,58.226197241623225L111.99999999999999,57.85041281187439L113.00000000000001,57.48237623735665L114.00000000000001,57.1219277741958L115,56.76891097208782L116,56.42317260639274L117,56.0845626116284L118,55.752934016335516L119,55.42814287928579L120,55.11004822700494L121.00000000000003,54.798511992584324L122,54.493398955753776L122.99999999999999,54.19457668419004L124.00000000000001,53.9019154760356L125.00000000000001,53.61528830360227L126,53.334570758235714L127,53.05964099631669L128,52.790379686375516L129,52.52666995729723L130,52.26839734759426L131,52.01544975572527L132,51.76771739143814L133,51.52509272811628L133.99999999999997,51.287470456107314L135,51.05474743701433L136,50.82682265892902L137,50.60359719258841L138.00000000000003,50.38497414843505L139,50.17085863456285L140,49.96115771552982L141,49.755780372020126L142,49.55463746133756L143,49.357641678713975L144,49.164707519415L145,48.97575124162748L146,48.790690830111714L147,48.60944596060335L148,48.43193796494916L149,48.2580897969616L150,48.08782599897751L151.00000000000003,47.92107266910611L152.00000000000003,47.757757429152406L153,47.59780939320194L154,47.44115913685309L155,47.28773866708406L156,47.137481392740796L157,46.990322095633644L158,46.84619690222962L159,46.70504325592884L160,46.56679988991189L161,46.43140680054768L161.99999999999997,46.29880522134894L163,46.168937597465316L163.99999999999997,46.04174756070191L165,45.91717990505293L166.00000000000003,45.795180562740114L167,45.67569658074484L168.00000000000003,45.55867609782413L169,45.44406832200082L170,45.33182350851746L171,45.22189293824502L172.00000000000003,45.114228896536616L173,45.00878465251728L174,44.90551443880082L175,44.80437343162464L176,44.70531773139439L177.00000000000003,44.608304343629584L177.99999999999997,44.5132911603022L178.99999999999997,44.42023694155978L180,44.32910129782573L181.00000000000003,44.23984467226845L182,44.15242832363191L182.99999999999997,44.06681430942024L184,43.982965469429104L185,43.900845409616494L186,43.82041848630615L187,43.74164979071671L188,43.66450513380971L189,43.58895103145011L190,43.51495468987258L191,43.44248399144789L191.99999999999997,43.37150748074211L193,43.301994350863794L193.99999999999997,43.233914430092426L195,43.16723816878249L196.00000000000003,43.101936626537764L197.00000000000003,43.037981459649814L198.00000000000003,42.975344908795705L199,42.91399978698914L200,42.85391946778017L201,42.79507787369826L202.00000000000003,42.73744946493329L202.99999999999997,42.68100922825039L204,42.62573266613305L205,42.571595786150084L206,42.5185750905419L206.99999999999997,42.466647566021464L208,42.415790673785494L208.99999999999997,42.36598233973169L210,42.31720094487761L211.00000000000003,42.26942531597703L212,42.222634716329935L213.00000000000003,42.17680883678176L214,42.13192778690845L215,42.087972086383076L216,42.04492265652058L217,42.00276081199681L218,41.96146825273817L219,41.9210270559787L220,41.88141966848073L221,41.84262889891616L221.99999999999997,41.804637910404495L223,41.76743021320499L224.00000000000003,41.730989657559434L225,41.695300426682394L226.00000000000003,41.66034702989597L227.00000000000003,41.626114295906376L227.99999999999997,41.59258736621868L229,41.55975168868784L230,41.527593011202185L230.99999999999997,41.496097375497556L232,41.46525111109872L233,41.43504082938591L234,41.40545341778335L235,41.376476034068105L236,41.3480961007958L236.99999999999997,41.32030129984153L238,41.29307956705327L238.99999999999997,41.26641908701549L240,41.240308287920726" style="fill: none;"/><path class="path" d="M0,120L40,120"/><text x="0" y="114" style="text-anchor: start; font-family: katex_main; font-size: 20px; fill: black;">V₀</text><text x="0" y="40" style="text-anchor: start; font-family: katex_main; font-size: 20px; fill: black;">Vs</text></g></svg>