<?xml version="1.0" standalone="no"?><!DOCTYPE svg PUBLIC "-//W3C//DTD SVG 1.1//EN" "http://www.w3.org/Graphics/SVG/1.1/DTD/svg11.dtd"><svg width="380" height="260" transform="translate(0,0)" version="1.1" xmlns="http://www.w3.org/2000/svg" xmlns:xlink="http://www.w3.org/1999/xlink"><defs xmlns="http://www.w3.org/1999/xhtml"><style type="text/css"><![CDATA[
svg .grid { stroke-width: 0.5px; stroke: rgb(187, 187, 187); opacity: 0.5; }
svg .domain { stroke-width: 3px; stroke: black; }
svg { border: none; }
svg .path { stroke-width: 4px; stroke: rgb(255, 156, 57); fill: none; }
svg text { font-style: normal; font-variant: normal; font-weight: normal; font-stretch: normal; font-size: 16px; line-height: normal; font-family: katex_math; }
svg .tick text { font-style: normal; font-variant: normal; font-weight: normal; font-stretch: normal; font-size: 12px; line-height: normal; font-family: katex_math; }]]></style></defs><g transform="translate(40,40)"><g class="x-axis" transform="translate(0,60)" fill="none" font-size="10" font-family="sans-serif" text-anchor="middle"><path class="domain" stroke="#000" d="M0.5,0V0.5H240.5V0"/><g class="tick" opacity="1" transform="translate(0.5,0)"><line stroke="#000" y2="6"/><line class="grid" x1="0" y1="-60" x2="0" y2="120"/></g><g class="tick" opacity="1" transform="translate(40.5,0)"><line stroke="#000" y2="6"/><line class="grid" x1="0" y1="-60" x2="0" y2="120"/></g><g class="tick" opacity="1" transform="translate(80.5,0)"><line stroke="#000" y2="6"/><line class="grid" x1="0" y1="-60" x2="0" y2="120"/></g><g class="tick" opacity="1" transform="translate(120.5,0)"><line stroke="#000" y2="6"/><line class="grid" x1="0" y1="-60" x2="0" y2="120"/></g><g class="tick" opacity="1" transform="translate(160.5,0)"><line stroke="#000" y2="6"/><line class="grid" x1="0" y1="-60" x2="0" y2="120"/></g><g class="tick" opacity="1" transform="translate(200.5,0)"><line stroke="#000" y2="6"/><line class="grid" x1="0" y1="-60" x2="0" y2="120"/></g><g class="tick" opacity="1" transform="translate(240.5,0)"><line stroke="#000" y2="6"/><line class="grid" x1="0" y1="-60" x2="0" y2="120"/></g><text x="240" dx=".71em" style="text-anchor: start; font-size: 16px; fill: black;">t (time)</text></g><g class="y-axis" transform="translate(40,0)" fill="none" font-size="10" font-family="sans-serif" text-anchor="end"><path class="domain" stroke="#000" d="M0,180.5H0.5V0.5H0"/><g class="tick" opacity="1" transform="translate(0,180.5)"><line stroke="#000" x2="-6"/><line class="grid" x1="-40" y1="0" x2="200" y2="0"/></g><g class="tick" opacity="1" transform="translate(0,160.5)"><line stroke="#000" x2="-6"/><line class="grid" x1="-40" y1="0" x2="200" y2="0"/></g><g class="tick" opacity="1" transform="translate(0,140.5)"><line stroke="#000" x2="-6"/><line class="grid" x1="-40" y1="0" x2="200" y2="0"/></g><g class="tick" opacity="1" transform="translate(0,120.5)"><line stroke="#000" x2="-6"/><line class="grid" x1="-40" y1="0" x2="200" y2="0"/></g><g class="tick" opacity="1" transform="translate(0,100.5)"><line stroke="#000" x2="-6"/><line class="grid" x1="-40" y1="0" x2="200" y2="0"/></g><g class="tick" opacity="1" transform="translate(0,80.5)"><line stroke="#000" x2="-6"/><line class="grid" x1="-40" y1="0" x2="200" y2="0"/></g><g class="tick" opacity="1" transform="translate(0,60.5)"><line stroke="#000" x2="-6"/><line class="grid" x1="-40" y1="0" x2="200" y2="0"/></g><g class="tick" opacity="1" transform="translate(0,40.5)"><line stroke="#000" x2="-6"/><line class="grid" x1="-40" y1="0" x2="200" y2="0"/></g><g class="tick" opacity="1" transform="translate(0,20.5)"><line stroke="#000" x2="-6"/><line class="grid" x1="-40" y1="0" x2="200" y2="0"/></g><g class="tick" opacity="1" transform="translate(0,0.5)"><line stroke="#000" x2="-6"/><line class="grid" x1="-40" y1="0" x2="200" y2="0"/></g><text dy="-12px" style="text-anchor: middle; font-size: 16px; fill: black;">v (volts)</text></g><path class="path" d="M40,140L40.99999999999999,138.3505745064992L42.00000000000001,136.73515656873104L43,135.15304502507806L44,133.60355317034583L45,132.08600845770326L46,130.59975220676765L47,129.14413931770912L47.99999999999999,127.71853799124912L49.00000000000001,126.32232945443204L50,124.9549076920508L51,123.61567918361006L52,122.30406264571238L53,121.01948877975603L54,119.76140002483459L55,118.52925031573133L55.99999999999999,117.32250484590314L57.00000000000001,116.1406398353512L58,114.98314230327777L59,113.84950984543018L60,112.7392504160355L61,111.65188211423136L62.00000000000001,110.58693297489998L63,109.54394076381479L64,108.52245277701067L65,107.5220256442908L65.99999999999999,106.54222513678467L67,105.58262597847383L68.00000000000001,104.64281166160376L69.00000000000001,103.72237426590122L70,102.82091428151922L71,101.93804043563236L72,101.07336952260736L73,100.22652623767527L74,99.39714301403278L75,98.58485986330224L76,97.78932421928118L77,97.01019078491306L78,96.24712138241352L79,95.49978480648639L80,94.76785668056625L80.99999999999999,94.0510193160249L81.99999999999999,93.34896157428066L83.00000000000001,92.66137873175073L84.00000000000001,91.98797234758779L85,91.3284501341439L86.00000000000001,90.68252583010485L87,90.0499190762402L88,89.4303552937154L89,88.82356556491239L90,88.2292865167079L91,87.64726020615797L92,87.07723400853936L93,86.51896050769975L94,85.97219738866798L95,85.43670733247919L96.00000000000001,84.9122579131678L96.99999999999999,84.39862149688474L98.00000000000001,83.89557514309426L98.99999999999999,83.40290050780823L100,82.92038374881521L101,82.44781543286375L102,81.98499044475918L103,81.5317078983347L104,81.08777104925814L105,80.65298720963621L106.00000000000001,80.22716766437972L107,79.81012758929292L108,79.40168597085191L108.99999999999999,79.00166552763665L110,78.60989263338341L110.99999999999999,78.22619724162323L111.99999999999999,77.85041281187438L113.00000000000001,77.48237623735666L114.00000000000001,77.12192777419578L115,76.76891097208782L116,76.42317260639274L117,76.08456261162839L118,75.75293401633552L119,75.42814287928579L120,75.11004822700494L121.00000000000003,74.79851199258434L122,74.49339895575378L122.99999999999999,74.19457668419005L124.00000000000001,73.90191547603561L125.00000000000001,73.61528830360228L126,73.33457075823573L127,73.05964099631667L128,72.7903796863755L129,72.52666995729723L130,72.26839734759427L131,72.01544975572529L132,71.76771739143813L133,71.52509272811625L133.99999999999997,71.28747045610731L135,71.05474743701433L136,70.82682265892902L137,70.60359719258841L138.00000000000003,70.38497414843502L139,70.17085863456283L140,69.96115771552984L141,69.75578037202013L142,69.55463746133758L143,69.35764167871397L144,69.164707519415L145,68.97575124162749L146,68.79069083011173L147,68.60944596060335L148,68.43193796494913L149,68.2580897969616L150,68.08782599897751L151.00000000000003,67.92107266910611L152.00000000000003,67.7577574291524L153,67.59780939320191L154,67.44115913685307L155,67.28773866708404L156,67.13748139274081L157,66.99032209563362L158,66.84619690222964L159,66.70504325592883L160,66.5667998899119L161,66.43140680054768L161.99999999999997,66.29880522134896L163,66.16893759746533L163.99999999999997,66.04174756070189L165,65.91717990505293L166.00000000000003,65.79518056274011L167,65.67569658074483L168.00000000000003,65.55867609782412L169,65.44406832200082L170,65.33182350851746L171,65.22189293824502L172.00000000000003,65.1142288965366L173,65.00878465251726L174,64.90551443880081L175,64.80437343162464L176,64.70531773139439L177.00000000000003,64.6083043436296L177.99999999999997,64.5132911603022L178.99999999999997,64.42023694155976L180,64.32910129782572L181.00000000000003,64.23984467226848L182,64.15242832363194L182.99999999999997,64.06681430942027L184,63.982965469429104L185,63.900845409616494L186,63.82041848630617L187,63.74164979071672L188,63.66450513380971L189,63.58895103145011L190,63.514954689872596L191,63.44248399144789L191.99999999999997,63.37150748074211L193,63.301994350863794L193.99999999999997,63.233914430092426L195,63.167238168782504L196.00000000000003,63.10193662653775L197.00000000000003,63.03798145964983L198.00000000000003,62.97534490879569L199,62.91399978698914L200,62.85391946778019L201,62.79507787369825L202.00000000000003,62.73744946493328L202.99999999999997,62.6810092282504L204,62.62573266613306L205,62.571595786150084L206,62.5185750905419L206.99999999999997,62.466647566021464L208,62.41579067378548L208.99999999999997,62.36598233973169L210,62.31720094487761L211.00000000000003,62.269425315977045L212,62.222634716329935L213.00000000000003,62.17680883678176L214,62.131927786908435L215,62.087972086383076L216,62.0449226565206L217,62.002760811996794L218,61.96146825273817L219,61.92102705597868L220,61.88141966848073L221,61.842628898916146L221.99999999999997,61.804637910404495L223,61.76743021320499L224.00000000000003,61.730989657559434L225,61.695300426682394L226.00000000000003,61.66034702989599L227.00000000000003,61.62611429590636L227.99999999999997,61.59258736621868L229,61.55975168868784L230,61.527593011202185L230.99999999999997,61.49609737549754L232,61.46525111109875L233,61.43504082938588L234,61.40545341778336L235,61.37647603406809L236,61.3480961007958L236.99999999999997,61.32030129984153L238,61.29307956705327L238.99999999999997,61.26641908701549L240,61.240308287920755" style="fill: none;"/><path class="path" d="M0,140L40,140"/><text x="0" y="134" style="text-anchor: start; font-family: katex_main; font-size: 20px; fill: black;">V₀</text></g></svg>