<?xml version="1.0" standalone="no"?><!DOCTYPE svg PUBLIC "-//W3C//DTD SVG 1.1//EN" "http://www.w3.org/Graphics/SVG/1.1/DTD/svg11.dtd"><svg width="340" height="340" transform="translate(0,0)" version="1.1" xmlns="http://www.w3.org/2000/svg" xmlns:xlink="http://www.w3.org/1999/xlink"><defs xmlns="http://www.w3.org/1999/xhtml"><style type="text/css"><![CDATA[
svg .grid { stroke-width: 0.5px; stroke: rgb(187, 187, 187); opacity: 0.5; }
svg .domain { stroke-width: 3px; stroke: black; }
svg { border: none; }
svg .path { stroke-width: 3px; stroke: rgb(17, 172, 205); fill: none; }
svg text { font-style: normal; font-variant: normal; font-weight: normal; font-stretch: normal; font-size: 16px; line-height: normal; font-family: katex_math; }
svg .tick text { font-style: normal; font-variant: normal; font-weight: normal; font-stretch: normal; font-size: 12px; line-height: normal; font-family: katex_math; }]]></style></defs><g transform="translate(50,50)"><g class="x-axis" transform="translate(0,120)" fill="none" font-size="10" font-family="sans-serif" text-anchor="middle"><path class="domain" stroke="#000" d="M0.5,0V0.5H240.5V0"/><g class="tick" opacity="1" transform="translate(0.5,0)"><line stroke="#000" y2="6"/><text fill="#000" y="9" dy="0.71em">-4</text><line class="grid" x1="0" y1="-120" x2="0" y2="120"/></g><g class="tick" opacity="1" transform="translate(30.5,0)"><line stroke="#000" y2="6"/><text fill="#000" y="9" dy="0.71em">-3</text><line class="grid" x1="0" y1="-120" x2="0" y2="120"/></g><g class="tick" opacity="1" transform="translate(60.5,0)"><line stroke="#000" y2="6"/><text fill="#000" y="9" dy="0.71em">-2</text><line class="grid" x1="0" y1="-120" x2="0" y2="120"/></g><g class="tick" opacity="1" transform="translate(90.5,0)"><line stroke="#000" y2="6"/><text fill="#000" y="9" dy="0.71em">-1</text><line class="grid" x1="0" y1="-120" x2="0" y2="120"/></g><g class="tick" opacity="1" transform="translate(120.5,0)"><line stroke="#000" y2="6"/><line class="grid" x1="0" y1="-120" x2="0" y2="120"/></g><g class="tick" opacity="1" transform="translate(150.5,0)"><line stroke="#000" y2="6"/><text fill="#000" y="9" dy="0.71em">1</text><line class="grid" x1="0" y1="-120" x2="0" y2="120"/></g><g class="tick" opacity="1" transform="translate(180.5,0)"><line stroke="#000" y2="6"/><text fill="#000" y="9" dy="0.71em">2</text><line class="grid" x1="0" y1="-120" x2="0" y2="120"/></g><g class="tick" opacity="1" transform="translate(210.5,0)"><line stroke="#000" y2="6"/><text fill="#000" y="9" dy="0.71em">3</text><line class="grid" x1="0" y1="-120" x2="0" y2="120"/></g><g class="tick" opacity="1" transform="translate(240.5,0)"><line stroke="#000" y2="6"/><text fill="#000" y="9" dy="0.71em">4</text><line class="grid" x1="0" y1="-120" x2="0" y2="120"/></g><text x="240" dx=".71em" style="text-anchor: start; fill: black;">v</text></g><g class="y-axis" transform="translate(120,0)" fill="none" font-size="10" font-family="sans-serif" text-anchor="end"><path class="domain" stroke="#000" d="M0,240.5H0.5V0.5H0"/><g class="tick" opacity="1" transform="translate(0,240.5)"><line stroke="#000" x2="-6"/><text fill="#000" x="-9" dy="0.32em">-4</text><line class="grid" x1="-120" y1="0" x2="120" y2="0"/></g><g class="tick" opacity="1" transform="translate(0,210.5)"><line stroke="#000" x2="-6"/><text fill="#000" x="-9" dy="0.32em">-3</text><line class="grid" x1="-120" y1="0" x2="120" y2="0"/></g><g class="tick" opacity="1" transform="translate(0,180.5)"><line stroke="#000" x2="-6"/><text fill="#000" x="-9" dy="0.32em">-2</text><line class="grid" x1="-120" y1="0" x2="120" y2="0"/></g><g class="tick" opacity="1" transform="translate(0,150.5)"><line stroke="#000" x2="-6"/><text fill="#000" x="-9" dy="0.32em">-1</text><line class="grid" x1="-120" y1="0" x2="120" y2="0"/></g><g class="tick" opacity="1" transform="translate(0,120.5)"><line stroke="#000" x2="-6"/><line class="grid" x1="-120" y1="0" x2="120" y2="0"/></g><g class="tick" opacity="1" transform="translate(0,90.5)"><line stroke="#000" x2="-6"/><text fill="#000" x="-9" dy="0.32em">1</text><line class="grid" x1="-120" y1="0" x2="120" y2="0"/></g><g class="tick" opacity="1" transform="translate(0,60.5)"><line stroke="#000" x2="-6"/><text fill="#000" x="-9" dy="0.32em">2</text><line class="grid" x1="-120" y1="0" x2="120" y2="0"/></g><g class="tick" opacity="1" transform="translate(0,30.5)"><line stroke="#000" x2="-6"/><text fill="#000" x="-9" dy="0.32em">3</text><line class="grid" x1="-120" y1="0" x2="120" y2="0"/></g><g class="tick" opacity="1" transform="translate(0,0.5)"><line stroke="#000" x2="-6"/><text fill="#000" x="-9" dy="0.32em">4</text><line class="grid" x1="-120" y1="0" x2="120" y2="0"/></g><text dx="6" dy="-6" style="text-anchor: start; fill: black;">i (ma)</text></g><line x1="180" y1="80" x2="180" y2="40.00000000000003" style="stroke: rgb(116, 207, 112); stroke-width: 3px; stroke-linecap: round;"/><line x1="150" y1="80" x2="180" y2="80" style="stroke: rgb(116, 207, 112); stroke-width: 3px; stroke-linecap: round;"/><line x1="210" y1="0" x2="30" y2="240" style="stroke: rgb(17, 172, 205); stroke-width: 3px; stroke-linecap: round;"/><text x="180" dx=".3em" y="66" style="text-anchor: start; font-size: 18px; font-style: normal; font-variant: normal; font-weight: normal; font-stretch: normal; line-height: normal; font-family: katex_main; fill: rgb(17, 172, 205);">slope = 1/R</text></g></svg>