<?xml version="1.0" encoding="UTF-8" standalone="no"?>
<!-- Generator: Adobe Illustrator 19.1.0, SVG Export Plug-In . SVG Version: 6.00 Build 0)  -->

<svg
   xmlns:dc="http://purl.org/dc/elements/1.1/"
   xmlns:cc="http://creativecommons.org/ns#"
   xmlns:rdf="http://www.w3.org/1999/02/22-rdf-syntax-ns#"
   xmlns:svg="http://www.w3.org/2000/svg"
   xmlns="http://www.w3.org/2000/svg"
   xmlns:sodipodi="http://sodipodi.sourceforge.net/DTD/sodipodi-0.dtd"
   xmlns:inkscape="http://www.inkscape.org/namespaces/inkscape"
   version="1.1"
   id="Layer_1"
   x="0px"
   y="0px"
   viewBox="0 0 201.28897 136.4171"
   xml:space="preserve"
   inkscape:version="0.91 r13725"
   sodipodi:docname="rl_natural_response1.svg"
   width="201.28897"
   height="136.41708"><metadata
     id="metadata4283"><rdf:RDF><cc:Work
         rdf:about=""><dc:format>image/svg+xml</dc:format><dc:type
           rdf:resource="http://purl.org/dc/dcmitype/StillImage" /><dc:title></dc:title></cc:Work></rdf:RDF></metadata><defs
     id="defs4281" /><sodipodi:namedview
     pagecolor="#ffffff"
     bordercolor="#666666"
     borderopacity="1"
     objecttolerance="10"
     gridtolerance="10"
     guidetolerance="10"
     inkscape:pageopacity="0"
     inkscape:pageshadow="2"
     inkscape:window-width="1254"
     inkscape:window-height="714"
     id="namedview4279"
     showgrid="false"
     fit-margin-top="10"
     fit-margin-left="10"
     fit-margin-bottom="10"
     fit-margin-right="9"
     inkscape:zoom="3.3583559"
     inkscape:cx="100.64449"
     inkscape:cy="68.208542"
     inkscape:window-x="0"
     inkscape:window-y="0"
     inkscape:window-maximized="0"
     inkscape:current-layer="Layer_1" /><style
     type="text/css"
     id="style4229">
	.st0{fill:none;stroke:#11ACCD;stroke-width:3;stroke-linecap:round;stroke-miterlimit:10;}
	.st1{fill:#11ACCD;}
	.st2{fill:none;stroke:#11ACCD;stroke-width:4;stroke-miterlimit:10;}
	.st3{fill:none;stroke:#BABEC2;stroke-linecap:round;stroke-linejoin:round;}
	.st4{fill:#BABEC2;}
	.st5{fill:none;stroke:#000000;stroke-linecap:round;stroke-linejoin:round;stroke-miterlimit:10;}
	.st6{fill:none;stroke:#000000;stroke-width:2;stroke-linecap:round;stroke-linejoin:round;stroke-miterlimit:10;}
	.st7{fill:none;stroke:#000000;stroke-width:2;stroke-miterlimit:10;}
	.st8{fill:none;stroke:#000000;stroke-linecap:round;stroke-miterlimit:10;}
	.st9{fill:none;stroke:#000000;stroke-width:1.5;stroke-miterlimit:10;}
	.st10{fill:none;stroke:#000000;stroke-width:2;stroke-linecap:round;stroke-miterlimit:10;}
	.st11{fill:none;}
	.st12{stroke:#000000;stroke-linecap:round;stroke-linejoin:round;stroke-miterlimit:10;}
	.st13{fill:none;stroke:#000000;stroke-miterlimit:10;}
	.st14{fill:#FFFFFF;stroke:#000000;stroke-miterlimit:10;}
	.st15{fill:#1FAB54;}
	.st16{fill:none;stroke:#000000;stroke-width:4;stroke-miterlimit:10;}
	.st17{fill:#FF9C39;}
	.st18{fill:none;stroke:#000000;stroke-linecap:round;stroke-linejoin:round;}
	.st19{fill:none;stroke:#1FAB54;stroke-width:2;stroke-linecap:round;stroke-miterlimit:10;}
	.st20{font-family:'KaTeX_Main-Regular';}
	.st21{font-size:21px;}
</style><g
     id="g4231"
     transform="matrix(1.2,0,0,1.2,-7.4748921,-10.991453)"><line
       class="st5"
       x1="132"
       y1="42.599998"
       x2="132"
       y2="18"
       id="line4233"
       style="fill:none;stroke:#000000;stroke-linecap:round;stroke-linejoin:round;stroke-miterlimit:10" /><polyline
       class="st6"
       points="132,89.4 123,85.5 141,77.7 123,69.9 141,62.1 123,54.3 141,46.5 132,42.6  "
       id="polyline4235"
       style="fill:none;stroke:#000000;stroke-width:2;stroke-linecap:round;stroke-linejoin:round;stroke-miterlimit:10" /><line
       class="st5"
       x1="132"
       y1="114"
       x2="132"
       y2="89.400002"
       id="line4237"
       style="fill:none;stroke:#000000;stroke-linecap:round;stroke-linejoin:round;stroke-miterlimit:10" /><rect
       x="120"
       y="18"
       class="st11"
       width="24"
       height="96"
       id="rect4239"
       style="fill:none" /></g><g
     id="g4241"
     transform="matrix(1.2,0,0,1.2,-7.4748921,-10.991453)"><line
       class="st8"
       x1="48"
       y1="96"
       x2="48"
       y2="114"
       id="line4243"
       style="fill:none;stroke:#000000;stroke-linecap:round;stroke-miterlimit:10" /><path
       class="st10"
       d="m 48,82.2 c -5,0 -9,3.1 -9,6.9 0,3.8 4,6.9 9,6.9"
       id="path4245"
       inkscape:connector-curvature="0"
       style="fill:none;stroke:#000000;stroke-width:2;stroke-linecap:round;stroke-miterlimit:10" /><path
       class="st10"
       d="m 48,82.2 c 5,0 9,1 9,2.3 0,1.3 -4,2.3 -9,2.3"
       id="path4247"
       inkscape:connector-curvature="0"
       style="fill:none;stroke:#000000;stroke-width:2;stroke-linecap:round;stroke-miterlimit:10" /><path
       class="st10"
       d="m 48,72.9 c -5,0 -9,3.1 -9,6.9 0,3.8 4,6.9 9,6.9"
       id="path4249"
       inkscape:connector-curvature="0"
       style="fill:none;stroke:#000000;stroke-width:2;stroke-linecap:round;stroke-miterlimit:10" /><path
       class="st10"
       d="m 48,72.9 c 5,0 9,1 9,2.3 0,1.3 -4,2.3 -9,2.3"
       id="path4251"
       inkscape:connector-curvature="0"
       style="fill:none;stroke:#000000;stroke-width:2;stroke-linecap:round;stroke-miterlimit:10" /><path
       class="st10"
       d="m 48,63.7 c -5,0 -9,3.1 -9,6.9 0,3.8 4,6.9 9,6.9"
       id="path4253"
       inkscape:connector-curvature="0"
       style="fill:none;stroke:#000000;stroke-width:2;stroke-linecap:round;stroke-miterlimit:10" /><path
       class="st10"
       d="m 48,63.7 c 5,0 9,1 9,2.3 0,1.3 -4,2.3 -9,2.3"
       id="path4255"
       inkscape:connector-curvature="0"
       style="fill:none;stroke:#000000;stroke-width:2;stroke-linecap:round;stroke-miterlimit:10" /><path
       class="st10"
       d="m 48,54.5 c -5,0 -9,3.1 -9,6.9 0,3.8 4,6.9 9,6.9"
       id="path4257"
       inkscape:connector-curvature="0"
       style="fill:none;stroke:#000000;stroke-width:2;stroke-linecap:round;stroke-miterlimit:10" /><path
       class="st10"
       d="m 48,54.5 c 5,0 9,1 9,2.3 0,1.3 -4,2.3 -9,2.3"
       id="path4259"
       inkscape:connector-curvature="0"
       style="fill:none;stroke:#000000;stroke-width:2;stroke-linecap:round;stroke-miterlimit:10" /><path
       class="st10"
       d="m 48,45.2 c 5,0 9,1 9,2.3 0,1.3 -4,2.3 -9,2.3"
       id="path4261"
       inkscape:connector-curvature="0"
       style="fill:none;stroke:#000000;stroke-width:2;stroke-linecap:round;stroke-miterlimit:10" /><path
       class="st10"
       d="m 48,45.2 c -5,0 -9,3.1 -9,6.9 0,3.8 4,6.9 9,6.9"
       id="path4263"
       inkscape:connector-curvature="0"
       style="fill:none;stroke:#000000;stroke-width:2;stroke-linecap:round;stroke-miterlimit:10" /><path
       class="st10"
       d="m 48,36 c -5,0 -9,3.1 -9,6.9 0,3.8 4,6.9 9,6.9"
       id="path4265"
       inkscape:connector-curvature="0"
       style="fill:none;stroke:#000000;stroke-width:2;stroke-linecap:round;stroke-miterlimit:10" /><line
       class="st8"
       x1="48"
       y1="18"
       x2="48"
       y2="36"
       id="line4267"
       style="fill:none;stroke:#000000;stroke-linecap:round;stroke-miterlimit:10" /><rect
       x="36"
       y="18"
       class="st11"
       width="24"
       height="96"
       id="rect4269"
       style="fill:none" /></g><g
     style="font-style:normal;font-variant:normal;font-weight:normal;font-stretch:normal;font-size:27.00000381px;line-height:125%;font-family:KaTeX_Main;-inkscape-font-specification:'KaTeX_Main, Normal';text-align:start;writing-mode:lr-tb;text-anchor:start"
     id="text4271"><path
       d="m 12.780987,58.614536 q -0.27,-0.27 -0.54,-0.324 -0.243,-0.054 -1.35,-0.081 l -0.8910004,0 0,-1.242 0.2970004,0 q 0.486,0.081 3.942,0.081 3.996001,0 4.482001,-0.081 l 0.324,0 0,1.242 -0.729,0 q -0.999,0 -1.296,0.027 -0.756001,0.027 -0.972001,0.108 -0.216,0.054 -0.432,0.27 l -0.027,7.560002 q 0,7.560001 0.027,7.641001 0.027,0.135 0.108,0.189 0.162,0.135 2.052001,0.135 1.917,0 2.619,-0.162 1.593,-0.459 2.349,-1.512001 0.756,-1.053 1.053001,-3.024 0,-0.135 0.027,-0.459 0.054,-0.351 0.081,-0.621 0.054,-0.27 0.054,-0.297 0,-0.027 0.54,-0.027 l 0.54,0 0,0.135 q -0.054,0.081 -0.378,3.564 -0.324,3.456001 -0.378,3.537001 l 0,0.135 -14.2830024,0 0,-1.242 0.8910004,0 q 1.107,-0.027 1.35,-0.081 0.27,-0.054 0.54,-0.324 l 0,-15.147003 z"
       style="font-style:normal;font-variant:normal;font-weight:normal;font-stretch:normal;font-size:27.00000381px;line-height:125%;font-family:KaTeX_Main;-inkscape-font-specification:'KaTeX_Main, Normal';text-align:start;writing-mode:lr-tb;text-anchor:start"
       id="path4161" /></g><g
     style="font-style:normal;font-variant:normal;font-weight:normal;font-stretch:normal;font-size:27.00000381px;line-height:125%;font-family:KaTeX_Main;-inkscape-font-specification:'KaTeX_Main, Normal';text-align:start;writing-mode:lr-tb;text-anchor:start"
     id="text4273"><path
       d="m 176.03498,58.614536 q -0.27,-0.27 -0.54,-0.324 -0.243,-0.054 -1.35,-0.081 l -0.891,0 0,-1.242 4.725,0 q 5.022,0.027 5.535,0.108 0.081,0.027 0.351,0.081 1.215,0.243 2.16,0.756 2.565,1.296001 2.943,3.537001 0.027,0.135 0.027,0.432 0,1.512 -1.161,2.646 -1.134,1.134 -2.7,1.647001 -0.054,0.027 -0.135,0.054 -0.054,0 -0.108,0.027 l -0.054,0.027 q 0.081,0.081 0.297,0.162 1.944,1.08 2.403,2.862 0.027,0.108 0.297,1.782 0.27,1.674 0.297,1.782 0.189,0.972001 0.459,1.431001 0.297,0.459 0.756,0.621 0.108,0.054 0.459,0.054 l 0.135,0 q 0.351,0 0.648,-0.297 0.54,-0.54 0.621,-1.620001 0,-0.297 0.081,-0.378 0.108,-0.108 0.459,-0.108 0.324,0 0.432,0.081 0.108,0.054 0.108,0.324 0,0.972001 -0.486,1.782001 -0.459,0.783 -1.134,1.08 -0.432,0.162 -1.134,0.162 -4.023,-0.162 -4.644,-3.024001 -0.054,-0.297 -0.081,-1.971 0,-1.674 -0.162,-2.241 -0.243,-0.729 -0.81,-1.242 -0.54,-0.54 -1.242,-0.756 l -0.27,-0.054 -1.782,-0.027 -1.782,0 0,3.537 0.027,3.537001 q 0.189,0.27 0.459,0.324 0.297,0.054 1.404,0.081 l 0.891,0 0,1.242 -0.297,0 q -0.432,-0.081 -3.834,-0.081 -3.429,0 -3.861,0.081 l -0.297,0 0,-1.242 0.891,0 q 1.107,-0.027 1.35,-0.081 0.27,-0.054 0.54,-0.324 l 0,-15.147003 z m 9.72,2.241001 q -0.27,-1.62 -1.458,-2.133001 -1.161,-0.513 -3.564,-0.513 -0.405,0 -0.918,0.027 -0.513,0 -0.54,0 -0.351,0.027 -0.432,0.216 -0.081,0.108 -0.081,3.672001 l 0,3.564 1.566,0 q 2.025,0 2.997,-0.162 0.972,-0.189 1.701,-0.918 0.459,-0.459 0.594,-1.026 0.162,-0.567 0.162,-1.647 0,-0.864 -0.027,-1.08 z"
       style="font-style:normal;font-variant:normal;font-weight:normal;font-stretch:normal;font-size:27.00000381px;line-height:125%;font-family:KaTeX_Main;-inkscape-font-specification:'KaTeX_Main, Normal';text-align:start;writing-mode:lr-tb;text-anchor:start"
       id="path4158" /></g><line
     class="st8"
     x1="50.125107"
     y1="10.608547"
     x2="150.92509"
     y2="10.608547"
     id="line4275"
     style="fill:none;stroke:#000000;stroke-width:1.20000005;stroke-linecap:round;stroke-miterlimit:10" /><line
     class="st8"
     x1="50.125107"
     y1="125.80854"
     x2="150.92509"
     y2="125.80854"
     id="line4277"
     style="fill:none;stroke:#000000;stroke-width:1.20000005;stroke-linecap:round;stroke-miterlimit:10" /></svg>