<?xml version="1.0" encoding="UTF-8" standalone="no"?>
<svg
   xmlns:xhtml="http://www.w3.org/1999/xhtml"
   xmlns:dc="http://purl.org/dc/elements/1.1/"
   xmlns:cc="http://creativecommons.org/ns#"
   xmlns:rdf="http://www.w3.org/1999/02/22-rdf-syntax-ns#"
   xmlns:svg="http://www.w3.org/2000/svg"
   xmlns="http://www.w3.org/2000/svg"
   xmlns:sodipodi="http://sodipodi.sourceforge.net/DTD/sodipodi-0.dtd"
   xmlns:inkscape="http://www.inkscape.org/namespaces/inkscape"
   width="354.57794"
   height="332.9183"
   version="1.1"
   id="svg2"
   inkscape:version="0.91 r13725"
   sodipodi:docname="rl_natural_response_current.svg">
  <metadata
     id="metadata142">
    <rdf:RDF>
      <cc:Work
         rdf:about="">
        <dc:format>image/svg+xml</dc:format>
        <dc:type
           rdf:resource="http://purl.org/dc/dcmitype/StillImage" />
        <dc:title></dc:title>
      </cc:Work>
    </rdf:RDF>
  </metadata>
  <defs
     id="defs140" />
  <sodipodi:namedview
     pagecolor="#ffffff"
     bordercolor="#666666"
     borderopacity="1"
     objecttolerance="10"
     gridtolerance="10"
     guidetolerance="10"
     inkscape:pageopacity="0"
     inkscape:pageshadow="2"
     inkscape:window-width="640"
     inkscape:window-height="480"
     id="namedview138"
     showgrid="false"
     fit-margin-top="10"
     fit-margin-right="10"
     fit-margin-bottom="10"
     fit-margin-left="10"
     inkscape:zoom="1.4111111"
     inkscape:cx="170.8249"
     inkscape:cy="154.0433"
     inkscape:current-layer="svg2" />
  <xhtml:defs>
    <xhtml:style
       type="text/css"><![CDATA[
svg .grid { stroke-width: 0.5px; stroke: rgb(187, 187, 187); opacity: 0.5; }
svg .domain { stroke-width: 3px; stroke: black; }
svg { border: none; }
svg .path { stroke-width: 4px; stroke: rgb(17, 172, 205); fill: none; }
svg text { font-style: normal; font-variant: normal; font-weight: normal; font-stretch: normal; font-size: 16px; line-height: normal; font-family: katex_main; }
svg .tick text { font-style: normal; font-variant: normal; font-weight: normal; font-stretch: normal; font-size: 12px; line-height: normal; font-family: katex_math; }]]></xhtml:style>
  </xhtml:defs>
  <path
     class="domain"
     d="m 21.324902,238.875 0,0.5 239.999998,0 0,-0.5"
     id="path8"
     inkscape:connector-curvature="0"
     style="font-size:medium;font-family:sans-serif;text-anchor:middle;fill:none;stroke:#000000" />
  <line
     style="font-size:medium;font-family:sans-serif;text-anchor:middle;fill:none;stroke:#000000"
     x2="21.324902"
     y1="238.875"
     x1="21.324902"
     id="line12"
     y2="244.875" />
  <g
     style="font-style:normal;font-variant:normal;font-weight:normal;font-stretch:normal;font-size:12.5px;line-height:125%;font-family:KaTeX_Main;-inkscape-font-specification:'KaTeX_Main, Normal';text-align:center;writing-mode:lr-tb;text-anchor:middle;fill:#000000"
     id="text14">
    <path
       d="m 9.9999992,256.26741 0,-0.9125 3.3249998,0 0,0.9125 -3.3249998,0 z"
       style="font-style:normal;font-variant:normal;font-weight:normal;font-stretch:normal;font-size:12.5px;line-height:125%;font-family:KaTeX_Main;-inkscape-font-specification:'KaTeX_Main, Normal';text-align:center;writing-mode:lr-tb;text-anchor:middle;fill:#000000"
       id="path4534" />
    <path
       d="m 19.237304,258.50491 q -0.2125,-0.0375 -1.9875,-0.0375 -1.75,0 -1.9625,0.0375 l -0.15,0 0,-0.575 0.325,0 q 0.725,0 0.9375,-0.0375 0.1,-0.0125 0.3,-0.15 l 0,-6.4625 q -0.025,0 -0.1,0.0375 -0.575,0.225 -1.2875,0.2375 l -0.2375,0 0,-0.575 0.2375,0 q 1.05,-0.0375 1.75,-0.475 0.225,-0.125 0.3875,-0.2875 0.025,-0.0375 0.15,-0.0375 0.125,0 0.2125,0.075 l 0,3.7375 0.0125,3.75 q 0.1875,0.1875 0.8125,0.1875 l 0.4125,0 0.325,0 0,0.575 -0.1375,0 z"
       style="font-style:normal;font-variant:normal;font-weight:normal;font-stretch:normal;font-size:12.5px;line-height:125%;font-family:KaTeX_Main;-inkscape-font-specification:'KaTeX_Main, Normal';text-align:center;writing-mode:lr-tb;text-anchor:middle;fill:#000000"
       id="path4536" />
    <path
       d="m 21.487304,251.19241 q 0.7,-1.0125 1.9125,-1.0125 0.9125,0 1.6,0.625 0.3375,0.325 0.575,0.85 0.4625,1.0375 0.4625,2.85 0,1.9375 -0.5375,2.9625 -0.35,0.725 -1.025,1.05 -0.525,0.2625 -1.0625,0.2625 -1.4375,0 -2.1,-1.3125 -0.5375,-1.025 -0.5375,-2.9625 0,-1.1625 0.15,-1.9125 0.1625,-0.7625 0.5625,-1.4 z m 2.8125,-0.15 q -0.3625,-0.4 -0.8875,-0.4 -0.525,0 -0.9,0.4 -0.275,0.2875 -0.375,0.7 -0.1,0.4125 -0.125,1.425 0,0.075 -0.0125,0.4875 0,0.4125 0,0.6875 0,1.2 0.025,1.675 0.05,0.875 0.15,1.2625 0.1,0.375 0.375,0.65 0.3375,0.375 0.8625,0.375 0.5125,0 0.85,-0.375 0.275,-0.275 0.375,-0.65 0.1,-0.3875 0.15,-1.2625 0.025,-0.475 0.025,-1.675 0,-0.275 -0.0125,-0.6875 0,-0.4125 0,-0.4875 -0.025,-1.0125 -0.125,-1.425 -0.1,-0.4125 -0.375,-0.7 z"
       style="font-style:normal;font-variant:normal;font-weight:normal;font-stretch:normal;font-size:12.5px;line-height:125%;font-family:KaTeX_Main;-inkscape-font-specification:'KaTeX_Main, Normal';text-align:center;writing-mode:lr-tb;text-anchor:middle;fill:#000000"
       id="path4538" />
    <path
       d="m 27.737304,251.19241 q 0.7,-1.0125 1.9125,-1.0125 0.9125,0 1.6,0.625 0.3375,0.325 0.575,0.85 0.4625,1.0375 0.4625,2.85 0,1.9375 -0.5375,2.9625 -0.35,0.725 -1.025,1.05 -0.525,0.2625 -1.0625,0.2625 -1.4375,0 -2.1,-1.3125 -0.5375,-1.025 -0.5375,-2.9625 0,-1.1625 0.15,-1.9125 0.1625,-0.7625 0.5625,-1.4 z m 2.8125,-0.15 q -0.3625,-0.4 -0.8875,-0.4 -0.525,0 -0.9,0.4 -0.275,0.2875 -0.375,0.7 -0.1,0.4125 -0.125,1.425 0,0.075 -0.0125,0.4875 0,0.4125 0,0.6875 0,1.2 0.025,1.675 0.05,0.875 0.15,1.2625 0.1,0.375 0.375,0.65 0.3375,0.375 0.8625,0.375 0.5125,0 0.85,-0.375 0.275,-0.275 0.375,-0.65 0.1,-0.3875 0.15,-1.2625 0.025,-0.475 0.025,-1.675 0,-0.275 -0.0125,-0.6875 0,-0.4125 0,-0.4875 -0.025,-1.0125 -0.125,-1.425 -0.1,-0.4125 -0.375,-0.7 z"
       style="font-style:normal;font-variant:normal;font-weight:normal;font-stretch:normal;font-size:12.5px;line-height:125%;font-family:KaTeX_Main;-inkscape-font-specification:'KaTeX_Main, Normal';text-align:center;writing-mode:lr-tb;text-anchor:middle;fill:#000000"
       id="path4540" />
  </g>
  <line
     style="font-size:medium;font-family:sans-serif;text-anchor:middle;fill:none"
     id="line16"
     y2="318.875"
     x2="21.324902"
     y1="38.875004"
     x1="21.324902"
     class="grid" />
  <line
     style="font-size:medium;font-family:sans-serif;text-anchor:middle;fill:none;stroke:#000000"
     x2="61.324902"
     y1="238.875"
     x1="61.324902"
     id="line20"
     y2="244.875" />
  <line
     style="font-size:medium;font-family:sans-serif;text-anchor:middle;fill:none"
     id="line22"
     y2="318.875"
     x2="61.324902"
     y1="38.875004"
     x1="61.324902"
     class="grid" />
  <line
     style="font-size:medium;font-family:sans-serif;text-anchor:middle;fill:none;stroke:#000000"
     x2="101.32491"
     y1="238.875"
     x1="101.32491"
     id="line26"
     y2="244.875" />
  <g
     style="font-style:normal;font-variant:normal;font-weight:normal;font-stretch:normal;font-size:12.5px;line-height:125%;font-family:KaTeX_Main;-inkscape-font-specification:'KaTeX_Main, Normal';text-align:center;writing-mode:lr-tb;text-anchor:middle;fill:#000000"
     id="text28">
    <path
       d="m 97.149913,258.50491 q -0.2125,-0.0375 -1.9875,-0.0375 -1.75,0 -1.9625,0.0375 l -0.15,0 0,-0.575 0.325,0 q 0.725,0 0.9375,-0.0375 0.1,-0.0125 0.3,-0.15 l 0,-6.4625 q -0.025,0 -0.1,0.0375 -0.575,0.225 -1.2875,0.2375 l -0.2375,0 0,-0.575 0.2375,0 q 1.05,-0.0375 1.75,-0.475 0.225,-0.125 0.3875,-0.2875 0.025,-0.0375 0.15,-0.0375 0.125,0 0.2125,0.075 l 0,3.7375 0.0125,3.75 q 0.1875,0.1875 0.8125,0.1875 l 0.4125,0 0.325,0 0,0.575 -0.1375,0 z"
       style="font-style:normal;font-variant:normal;font-weight:normal;font-stretch:normal;font-size:12.5px;line-height:125%;font-family:KaTeX_Main;-inkscape-font-specification:'KaTeX_Main, Normal';text-align:center;writing-mode:lr-tb;text-anchor:middle;fill:#000000"
       id="path4527" />
    <path
       d="m 99.399913,251.19241 q 0.699997,-1.0125 1.912497,-1.0125 0.9125,0 1.6,0.625 0.3375,0.325 0.575,0.85 0.4625,1.0375 0.4625,2.85 0,1.9375 -0.5375,2.9625 -0.35,0.725 -1.025,1.05 -0.525,0.2625 -1.0625,0.2625 -1.437497,0 -2.099997,-1.3125 -0.5375,-1.025 -0.5375,-2.9625 0,-1.1625 0.15,-1.9125 0.1625,-0.7625 0.5625,-1.4 z m 2.812497,-0.15 q -0.3625,-0.4 -0.8875,-0.4 -0.525,0 -0.9,0.4 -0.275,0.2875 -0.375,0.7 -0.1,0.4125 -0.124997,1.425 0,0.075 -0.0125,0.4875 0,0.4125 0,0.6875 0,1.2 0.025,1.675 0.05,0.875 0.149997,1.2625 0.1,0.375 0.375,0.65 0.3375,0.375 0.8625,0.375 0.5125,0 0.85,-0.375 0.275,-0.275 0.375,-0.65 0.1,-0.3875 0.15,-1.2625 0.025,-0.475 0.025,-1.675 0,-0.275 -0.0125,-0.6875 0,-0.4125 0,-0.4875 -0.025,-1.0125 -0.125,-1.425 -0.1,-0.4125 -0.375,-0.7 z"
       style="font-style:normal;font-variant:normal;font-weight:normal;font-stretch:normal;font-size:12.5px;line-height:125%;font-family:KaTeX_Main;-inkscape-font-specification:'KaTeX_Main, Normal';text-align:center;writing-mode:lr-tb;text-anchor:middle;fill:#000000"
       id="path4529" />
    <path
       d="m 105.64991,251.19241 q 0.7,-1.0125 1.9125,-1.0125 0.9125,0 1.6,0.625 0.3375,0.325 0.575,0.85 0.4625,1.0375 0.4625,2.85 0,1.9375 -0.5375,2.9625 -0.35,0.725 -1.025,1.05 -0.525,0.2625 -1.0625,0.2625 -1.4375,0 -2.1,-1.3125 -0.5375,-1.025 -0.5375,-2.9625 0,-1.1625 0.15,-1.9125 0.1625,-0.7625 0.5625,-1.4 z m 2.8125,-0.15 q -0.3625,-0.4 -0.8875,-0.4 -0.525,0 -0.9,0.4 -0.275,0.2875 -0.375,0.7 -0.1,0.4125 -0.125,1.425 0,0.075 -0.0125,0.4875 0,0.4125 0,0.6875 0,1.2 0.025,1.675 0.05,0.875 0.15,1.2625 0.1,0.375 0.375,0.65 0.3375,0.375 0.8625,0.375 0.5125,0 0.85,-0.375 0.275,-0.275 0.375,-0.65 0.1,-0.3875 0.15,-1.2625 0.025,-0.475 0.025,-1.675 0,-0.275 -0.0125,-0.6875 0,-0.4125 0,-0.4875 -0.025,-1.0125 -0.125,-1.425 -0.1,-0.4125 -0.375,-0.7 z"
       style="font-style:normal;font-variant:normal;font-weight:normal;font-stretch:normal;font-size:12.5px;line-height:125%;font-family:KaTeX_Main;-inkscape-font-specification:'KaTeX_Main, Normal';text-align:center;writing-mode:lr-tb;text-anchor:middle;fill:#000000"
       id="path4531" />
  </g>
  <line
     style="font-size:medium;font-family:sans-serif;text-anchor:middle;fill:none"
     id="line30"
     y2="318.875"
     x2="101.32491"
     y1="38.875004"
     x1="101.32491"
     class="grid" />
  <line
     style="font-size:medium;font-family:sans-serif;text-anchor:middle;fill:none;stroke:#000000"
     x2="141.32491"
     y1="238.875"
     x1="141.32491"
     id="line34"
     y2="244.875" />
  <g
     style="font-style:normal;font-variant:normal;font-weight:normal;font-stretch:normal;font-size:12.5px;line-height:125%;font-family:KaTeX_Main;-inkscape-font-specification:'KaTeX_Main, Normal';text-align:center;writing-mode:lr-tb;text-anchor:middle;fill:#000000"
     id="text36">
    <path
       d="m 133.32491,253.14241 q -0.35,0 -0.55,-0.225 -0.2,-0.225 -0.2,-0.55 0,-0.9 0.675,-1.5375 0.6875,-0.65 1.6375,-0.65 1.075,0 1.775,0.5875 0.7125,0.575 0.875,1.5125 0.025,0.225 0.025,0.4125 0,0.725 -0.4375,1.3625 -0.35,0.525 -1.4125,1.4375 -0.45,0.3875 -1.25,1.15 l -0.7375,0.7 0.95,0.0125 q 1.9625,0 2.0875,-0.0625 0.05,-0.0125 0.125,-0.2625 0.05,-0.1375 0.175,-0.85 l 0,-0.0375 0.5,0 0,0.0375 -0.35,2.2875 0,0.0375 -4.6375,0 0,-0.2375 q 0,-0.25 0.025,-0.2875 0.0125,-0.0125 1.05,-1.1875 1.3625,-1.5125 1.75,-2 0.8375,-1.1375 0.8375,-2.0875 0,-0.825 -0.4375,-1.375 -0.425,-0.5625 -1.2,-0.5625 -0.725,0 -1.175,0.65 -0.025,0.05 -0.075,0.1375 -0.0375,0.0625 -0.0375,0.075 0,0.0125 0.0625,0.0125 0.3125,0 0.5,0.225 0.2,0.225 0.2,0.525 0,0.3125 -0.2125,0.5375 -0.2,0.2125 -0.5375,0.2125 z"
       style="font-style:normal;font-variant:normal;font-weight:normal;font-stretch:normal;font-size:12.5px;line-height:125%;font-family:KaTeX_Main;-inkscape-font-specification:'KaTeX_Main, Normal';text-align:center;writing-mode:lr-tb;text-anchor:middle;fill:#000000"
       id="path4520" />
    <path
       d="m 139.39991,251.19241 q 0.7,-1.0125 1.9125,-1.0125 0.9125,0 1.6,0.625 0.3375,0.325 0.575,0.85 0.4625,1.0375 0.4625,2.85 0,1.9375 -0.5375,2.9625 -0.35,0.725 -1.025,1.05 -0.525,0.2625 -1.0625,0.2625 -1.4375,0 -2.1,-1.3125 -0.5375,-1.025 -0.5375,-2.9625 0,-1.1625 0.15,-1.9125 0.1625,-0.7625 0.5625,-1.4 z m 2.8125,-0.15 q -0.3625,-0.4 -0.8875,-0.4 -0.525,0 -0.9,0.4 -0.275,0.2875 -0.375,0.7 -0.1,0.4125 -0.125,1.425 0,0.075 -0.0125,0.4875 0,0.4125 0,0.6875 0,1.2 0.025,1.675 0.05,0.875 0.15,1.2625 0.1,0.375 0.375,0.65 0.3375,0.375 0.8625,0.375 0.5125,0 0.85,-0.375 0.275,-0.275 0.375,-0.65 0.1,-0.3875 0.15,-1.2625 0.025,-0.475 0.025,-1.675 0,-0.275 -0.0125,-0.6875 0,-0.4125 0,-0.4875 -0.025,-1.0125 -0.125,-1.425 -0.1,-0.4125 -0.375,-0.7 z"
       style="font-style:normal;font-variant:normal;font-weight:normal;font-stretch:normal;font-size:12.5px;line-height:125%;font-family:KaTeX_Main;-inkscape-font-specification:'KaTeX_Main, Normal';text-align:center;writing-mode:lr-tb;text-anchor:middle;fill:#000000"
       id="path4522" />
    <path
       d="m 145.64991,251.19241 q 0.7,-1.0125 1.9125,-1.0125 0.9125,0 1.6,0.625 0.3375,0.325 0.575,0.85 0.4625,1.0375 0.4625,2.85 0,1.9375 -0.5375,2.9625 -0.35,0.725 -1.025,1.05 -0.525,0.2625 -1.0625,0.2625 -1.4375,0 -2.1,-1.3125 -0.5375,-1.025 -0.5375,-2.9625 0,-1.1625 0.15,-1.9125 0.1625,-0.7625 0.5625,-1.4 z m 2.8125,-0.15 q -0.3625,-0.4 -0.8875,-0.4 -0.525,0 -0.9,0.4 -0.275,0.2875 -0.375,0.7 -0.1,0.4125 -0.125,1.425 0,0.075 -0.0125,0.4875 0,0.4125 0,0.6875 0,1.2 0.025,1.675 0.05,0.875 0.15,1.2625 0.1,0.375 0.375,0.65 0.3375,0.375 0.8625,0.375 0.5125,0 0.85,-0.375 0.275,-0.275 0.375,-0.65 0.1,-0.3875 0.15,-1.2625 0.025,-0.475 0.025,-1.675 0,-0.275 -0.0125,-0.6875 0,-0.4125 0,-0.4875 -0.025,-1.0125 -0.125,-1.425 -0.1,-0.4125 -0.375,-0.7 z"
       style="font-style:normal;font-variant:normal;font-weight:normal;font-stretch:normal;font-size:12.5px;line-height:125%;font-family:KaTeX_Main;-inkscape-font-specification:'KaTeX_Main, Normal';text-align:center;writing-mode:lr-tb;text-anchor:middle;fill:#000000"
       id="path4524" />
  </g>
  <line
     style="font-size:medium;font-family:sans-serif;text-anchor:middle;fill:none"
     id="line38"
     y2="318.875"
     x2="141.32491"
     y1="38.875004"
     x1="141.32491"
     class="grid" />
  <line
     style="font-size:medium;font-family:sans-serif;text-anchor:middle;fill:none;stroke:#000000"
     x2="181.32491"
     y1="238.875"
     x1="181.32491"
     id="line42"
     y2="244.875" />
  <g
     style="font-style:normal;font-variant:normal;font-weight:normal;font-stretch:normal;font-size:12.5px;line-height:125%;font-family:KaTeX_Main;-inkscape-font-specification:'KaTeX_Main, Normal';text-align:center;writing-mode:lr-tb;text-anchor:middle;fill:#000000"
     id="text44">
    <path
       d="m 173.53741,252.71741 q -0.3375,0 -0.5375,-0.2125 -0.1875,-0.2125 -0.1875,-0.55 0,-0.7125 0.5625,-1.1875 0.5625,-0.4875 1.3,-0.575 l 0.1875,0 q 0.4375,0 0.55,0.0125 0.4125,0.0625 0.8375,0.2625 0.825,0.4125 1.0375,1.175 0.0375,0.125 0.0375,0.3375 0,0.7375 -0.4625,1.325 -0.45,0.575 -1.1375,0.825 -0.0625,0.025 0,0.0375 0.025,0.0125 0.125,0.0375 0.7625,0.2125 1.2875,0.8 0.525,0.575 0.525,1.3125 0,0.5125 -0.2375,0.9875 -0.3,0.6375 -0.9875,1.0625 -0.675,0.4125 -1.5125,0.4125 -0.825,0 -1.4625,-0.35 -0.6375,-0.35 -0.8625,-0.9375 -0.125,-0.2625 -0.125,-0.6125 0,-0.35 0.225,-0.5625 0.2375,-0.225 0.5625,-0.225 0.35,0 0.575,0.225 0.225,0.225 0.225,0.5625 0,0.2875 -0.1625,0.5 -0.1625,0.2125 -0.4375,0.275 l -0.0875,0.025 q 0.675,0.5625 1.55,0.5625 0.6875,0 1.0375,-0.6625 0.2125,-0.4125 0.2125,-1.2625 l 0,-0.25 q 0,-1.1875 -0.8,-1.5875 -0.1875,-0.075 -0.7625,-0.0875 l -0.525,-0.0125 -0.0375,-0.025 q -0.025,-0.0375 -0.025,-0.2 0,-0.15 0.0375,-0.1875 0.0375,-0.0375 0.0625,-0.0375 0.35,0 0.725,-0.0625 0.55,-0.075 0.8375,-0.6125 0.2875,-0.55 0.2875,-1.3125 0,-0.8125 -0.4375,-1.0875 -0.2625,-0.175 -0.5875,-0.175 -0.625,0 -1.1,0.3375 -0.05,0.025 -0.1125,0.0875 -0.0625,0.05 -0.1,0.1 l -0.0375,0.05 q 0.0375,0.0125 0.0875,0.025 0.25,0.025 0.4125,0.2375 0.175,0.2125 0.175,0.4875 0,0.3 -0.2125,0.5125 -0.2,0.2 -0.525,0.2 z"
       style="font-style:normal;font-variant:normal;font-weight:normal;font-stretch:normal;font-size:12.5px;line-height:125%;font-family:KaTeX_Main;-inkscape-font-specification:'KaTeX_Main, Normal';text-align:center;writing-mode:lr-tb;text-anchor:middle;fill:#000000"
       id="path4513" />
    <path
       d="m 179.39991,251.19241 q 0.7,-1.0125 1.9125,-1.0125 0.9125,0 1.6,0.625 0.3375,0.325 0.575,0.85 0.4625,1.0375 0.4625,2.85 0,1.9375 -0.5375,2.9625 -0.35,0.725 -1.025,1.05 -0.525,0.2625 -1.0625,0.2625 -1.4375,0 -2.1,-1.3125 -0.5375,-1.025 -0.5375,-2.9625 0,-1.1625 0.15,-1.9125 0.1625,-0.7625 0.5625,-1.4 z m 2.8125,-0.15 q -0.3625,-0.4 -0.8875,-0.4 -0.525,0 -0.9,0.4 -0.275,0.2875 -0.375,0.7 -0.1,0.4125 -0.125,1.425 0,0.075 -0.0125,0.4875 0,0.4125 0,0.6875 0,1.2 0.025,1.675 0.05,0.875 0.15,1.2625 0.1,0.375 0.375,0.65 0.3375,0.375 0.8625,0.375 0.5125,0 0.85,-0.375 0.275,-0.275 0.375,-0.65 0.1,-0.3875 0.15,-1.2625 0.025,-0.475 0.025,-1.675 0,-0.275 -0.0125,-0.6875 0,-0.4125 0,-0.4875 -0.025,-1.0125 -0.125,-1.425 -0.1,-0.4125 -0.375,-0.7 z"
       style="font-style:normal;font-variant:normal;font-weight:normal;font-stretch:normal;font-size:12.5px;line-height:125%;font-family:KaTeX_Main;-inkscape-font-specification:'KaTeX_Main, Normal';text-align:center;writing-mode:lr-tb;text-anchor:middle;fill:#000000"
       id="path4515" />
    <path
       d="m 185.64991,251.19241 q 0.7,-1.0125 1.9125,-1.0125 0.9125,0 1.6,0.625 0.3375,0.325 0.575,0.85 0.4625,1.0375 0.4625,2.85 0,1.9375 -0.5375,2.9625 -0.35,0.725 -1.025,1.05 -0.525,0.2625 -1.0625,0.2625 -1.4375,0 -2.1,-1.3125 -0.5375,-1.025 -0.5375,-2.9625 0,-1.1625 0.15,-1.9125 0.1625,-0.7625 0.5625,-1.4 z m 2.8125,-0.15 q -0.3625,-0.4 -0.8875,-0.4 -0.525,0 -0.9,0.4 -0.275,0.2875 -0.375,0.7 -0.1,0.4125 -0.125,1.425 0,0.075 -0.0125,0.4875 0,0.4125 0,0.6875 0,1.2 0.025,1.675 0.05,0.875 0.15,1.2625 0.1,0.375 0.375,0.65 0.3375,0.375 0.8625,0.375 0.5125,0 0.85,-0.375 0.275,-0.275 0.375,-0.65 0.1,-0.3875 0.15,-1.2625 0.025,-0.475 0.025,-1.675 0,-0.275 -0.0125,-0.6875 0,-0.4125 0,-0.4875 -0.025,-1.0125 -0.125,-1.425 -0.1,-0.4125 -0.375,-0.7 z"
       style="font-style:normal;font-variant:normal;font-weight:normal;font-stretch:normal;font-size:12.5px;line-height:125%;font-family:KaTeX_Main;-inkscape-font-specification:'KaTeX_Main, Normal';text-align:center;writing-mode:lr-tb;text-anchor:middle;fill:#000000"
       id="path4517" />
  </g>
  <line
     style="font-size:medium;font-family:sans-serif;text-anchor:middle;fill:none"
     id="line46"
     y2="318.875"
     x2="181.32491"
     y1="38.875004"
     x1="181.32491"
     class="grid" />
  <line
     style="font-size:medium;font-family:sans-serif;text-anchor:middle;fill:none;stroke:#000000"
     x2="221.32491"
     y1="238.875"
     x1="221.32491"
     id="line50"
     y2="244.875" />
  <g
     style="font-style:normal;font-variant:normal;font-weight:normal;font-stretch:normal;font-size:12.5px;line-height:125%;font-family:KaTeX_Main;-inkscape-font-specification:'KaTeX_Main, Normal';text-align:center;writing-mode:lr-tb;text-anchor:middle;fill:#000000"
     id="text52">
    <path
       d="m 217.72491,258.50491 q -0.175,-0.0375 -1.6125,-0.0375 -1.5,0 -1.675,0.0375 l -0.1125,0 0,-0.575 0.3875,0 q 0.5375,-0.0125 0.6625,-0.0625 0.1,-0.025 0.15,-0.125 0.0125,-0.025 0.0125,-0.675 l 0,-0.625 -3.2375,0 0,-0.575 1.8875,-2.8875 q 1.9125,-2.9 1.9375,-2.9125 0.025,-0.025 0.2625,-0.025 l 0.225,0 0.075,0.075 0,5.75 1.15,0 0,0.575 -1.15,0 0,0.6375 q 0,0.5125 0,0.6 0.0125,0.0875 0.075,0.15 0.1,0.0875 0.7125,0.1 l 0.3625,0 0,0.575 -0.1125,0 z m -2.1125,-2.6375 0,-4.175 -2.7375,4.1625 1.3625,0.0125 1.375,0 z"
       style="font-style:normal;font-variant:normal;font-weight:normal;font-stretch:normal;font-size:12.5px;line-height:125%;font-family:KaTeX_Main;-inkscape-font-specification:'KaTeX_Main, Normal';text-align:center;writing-mode:lr-tb;text-anchor:middle;fill:#000000"
       id="path4506" />
    <path
       d="m 219.39991,251.19241 q 0.7,-1.0125 1.9125,-1.0125 0.9125,0 1.6,0.625 0.3375,0.325 0.575,0.85 0.4625,1.0375 0.4625,2.85 0,1.9375 -0.5375,2.9625 -0.35,0.725 -1.025,1.05 -0.525,0.2625 -1.0625,0.2625 -1.4375,0 -2.1,-1.3125 -0.5375,-1.025 -0.5375,-2.9625 0,-1.1625 0.15,-1.9125 0.1625,-0.7625 0.5625,-1.4 z m 2.8125,-0.15 q -0.3625,-0.4 -0.8875,-0.4 -0.525,0 -0.9,0.4 -0.275,0.2875 -0.375,0.7 -0.1,0.4125 -0.125,1.425 0,0.075 -0.0125,0.4875 0,0.4125 0,0.6875 0,1.2 0.025,1.675 0.05,0.875 0.15,1.2625 0.1,0.375 0.375,0.65 0.3375,0.375 0.8625,0.375 0.5125,0 0.85,-0.375 0.275,-0.275 0.375,-0.65 0.1,-0.3875 0.15,-1.2625 0.025,-0.475 0.025,-1.675 0,-0.275 -0.0125,-0.6875 0,-0.4125 0,-0.4875 -0.025,-1.0125 -0.125,-1.425 -0.1,-0.4125 -0.375,-0.7 z"
       style="font-style:normal;font-variant:normal;font-weight:normal;font-stretch:normal;font-size:12.5px;line-height:125%;font-family:KaTeX_Main;-inkscape-font-specification:'KaTeX_Main, Normal';text-align:center;writing-mode:lr-tb;text-anchor:middle;fill:#000000"
       id="path4508" />
    <path
       d="m 225.64991,251.19241 q 0.7,-1.0125 1.9125,-1.0125 0.9125,0 1.6,0.625 0.3375,0.325 0.575,0.85 0.4625,1.0375 0.4625,2.85 0,1.9375 -0.5375,2.9625 -0.35,0.725 -1.025,1.05 -0.525,0.2625 -1.0625,0.2625 -1.4375,0 -2.1,-1.3125 -0.5375,-1.025 -0.5375,-2.9625 0,-1.1625 0.15,-1.9125 0.1625,-0.7625 0.5625,-1.4 z m 2.8125,-0.15 q -0.3625,-0.4 -0.8875,-0.4 -0.525,0 -0.9,0.4 -0.275,0.2875 -0.375,0.7 -0.1,0.4125 -0.125,1.425 0,0.075 -0.0125,0.4875 0,0.4125 0,0.6875 0,1.2 0.025,1.675 0.05,0.875 0.15,1.2625 0.1,0.375 0.375,0.65 0.3375,0.375 0.8625,0.375 0.5125,0 0.85,-0.375 0.275,-0.275 0.375,-0.65 0.1,-0.3875 0.15,-1.2625 0.025,-0.475 0.025,-1.675 0,-0.275 -0.0125,-0.6875 0,-0.4125 0,-0.4875 -0.025,-1.0125 -0.125,-1.425 -0.1,-0.4125 -0.375,-0.7 z"
       style="font-style:normal;font-variant:normal;font-weight:normal;font-stretch:normal;font-size:12.5px;line-height:125%;font-family:KaTeX_Main;-inkscape-font-specification:'KaTeX_Main, Normal';text-align:center;writing-mode:lr-tb;text-anchor:middle;fill:#000000"
       id="path4510" />
  </g>
  <line
     style="font-size:medium;font-family:sans-serif;text-anchor:middle;fill:none"
     id="line54"
     y2="318.875"
     x2="221.32491"
     y1="38.875004"
     x1="221.32491"
     class="grid" />
  <line
     style="font-size:medium;font-family:sans-serif;text-anchor:middle;fill:none;stroke:#000000"
     x2="261.32489"
     y1="238.875"
     x1="261.32489"
     id="line58"
     y2="244.875" />
  <g
     style="font-style:normal;font-variant:normal;font-weight:normal;font-stretch:normal;font-size:12.5px;line-height:125%;font-family:KaTeX_Main;-inkscape-font-specification:'KaTeX_Main, Normal';text-align:center;writing-mode:lr-tb;text-anchor:middle;fill:#000000"
     id="text60">
    <path
       d="m 253.28739,255.82991 q 0.3,0 0.5,0.2125 0.2125,0.2 0.2125,0.5125 0,0.2875 -0.2125,0.4875 -0.2125,0.2 -0.475,0.2 l -0.0875,0 0.0375,0.0625 q 0.1875,0.4 0.575,0.6625 0.3875,0.2625 0.9125,0.2625 0.8875,0 1.275,-0.75 0.2375,-0.4625 0.2375,-1.6 0,-1.2875 -0.3375,-1.7375 -0.325,-0.4125 -0.8,-0.4125 -0.975,0 -1.475,0.85 -0.05,0.0875 -0.1,0.1125 -0.0375,0.0125 -0.175,0.0125 -0.2125,0 -0.2375,-0.075 -0.025,-0.05 -0.025,-2.1875 0,-0.375 -0.0125,-0.8875 0,-0.5125 0,-0.65 0,-0.7 0.075,-0.7 0.025,-0.025 0.05,-0.025 l 0.225,0.075 q 0.8125,0.325 1.6625,0.325 0.8875,0 1.7,-0.35 0.1,-0.05 0.1625,-0.05 0.1,0 0.1,0.225 l 0,0.1625 q -1.0125,1.2125 -2.5625,1.2125 -0.3875,0 -0.7,-0.075 l -0.125,-0.025 0,2.15 q 0.7125,-0.575 1.4625,-0.575 0.2375,0 0.5125,0.0625 0.8375,0.2125 1.3625,0.95 0.5375,0.7375 0.5375,1.725 0,1.1375 -0.8,1.9625 -0.7875,0.825 -1.95,0.825 -0.7875,0 -1.3375,-0.4375 -0.2375,-0.15 -0.4125,-0.4125 -0.375,-0.45 -0.475,-1.1125 0,-0.0375 -0.0125,-0.1125 0,-0.0875 0,-0.125 0,-0.35 0.2,-0.55 0.2,-0.2 0.5125,-0.2 z"
       style="font-style:normal;font-variant:normal;font-weight:normal;font-stretch:normal;font-size:12.5px;line-height:125%;font-family:KaTeX_Main;-inkscape-font-specification:'KaTeX_Main, Normal';text-align:center;writing-mode:lr-tb;text-anchor:middle;fill:#000000"
       id="path4499" />
    <path
       d="m 259.39989,251.19241 q 0.7,-1.0125 1.9125,-1.0125 0.9125,0 1.6,0.625 0.3375,0.325 0.575,0.85 0.4625,1.0375 0.4625,2.85 0,1.9375 -0.5375,2.9625 -0.35,0.725 -1.025,1.05 -0.525,0.2625 -1.0625,0.2625 -1.4375,0 -2.1,-1.3125 -0.5375,-1.025 -0.5375,-2.9625 0,-1.1625 0.15,-1.9125 0.1625,-0.7625 0.5625,-1.4 z m 2.8125,-0.15 q -0.3625,-0.4 -0.8875,-0.4 -0.525,0 -0.9,0.4 -0.275,0.2875 -0.375,0.7 -0.1,0.4125 -0.125,1.425 0,0.075 -0.0125,0.4875 0,0.4125 0,0.6875 0,1.2 0.025,1.675 0.05,0.875 0.15,1.2625 0.1,0.375 0.375,0.65 0.3375,0.375 0.8625,0.375 0.5125,0 0.85,-0.375 0.275,-0.275 0.375,-0.65 0.1,-0.3875 0.15,-1.2625 0.025,-0.475 0.025,-1.675 0,-0.275 -0.0125,-0.6875 0,-0.4125 0,-0.4875 -0.025,-1.0125 -0.125,-1.425 -0.1,-0.4125 -0.375,-0.7 z"
       style="font-style:normal;font-variant:normal;font-weight:normal;font-stretch:normal;font-size:12.5px;line-height:125%;font-family:KaTeX_Main;-inkscape-font-specification:'KaTeX_Main, Normal';text-align:center;writing-mode:lr-tb;text-anchor:middle;fill:#000000"
       id="path4501" />
    <path
       d="m 265.64989,251.19241 q 0.7,-1.0125 1.9125,-1.0125 0.9125,0 1.6,0.625 0.3375,0.325 0.575,0.85 0.4625,1.0375 0.4625,2.85 0,1.9375 -0.5375,2.9625 -0.35,0.725 -1.025,1.05 -0.525,0.2625 -1.0625,0.2625 -1.4375,0 -2.1,-1.3125 -0.5375,-1.025 -0.5375,-2.9625 0,-1.1625 0.15,-1.9125 0.1625,-0.7625 0.5625,-1.4 z m 2.8125,-0.15 q -0.3625,-0.4 -0.8875,-0.4 -0.525,0 -0.9,0.4 -0.275,0.2875 -0.375,0.7 -0.1,0.4125 -0.125,1.425 0,0.075 -0.0125,0.4875 0,0.4125 0,0.6875 0,1.2 0.025,1.675 0.05,0.875 0.15,1.2625 0.1,0.375 0.375,0.65 0.3375,0.375 0.8625,0.375 0.5125,0 0.85,-0.375 0.275,-0.275 0.375,-0.65 0.1,-0.3875 0.15,-1.2625 0.025,-0.475 0.025,-1.675 0,-0.275 -0.0125,-0.6875 0,-0.4125 0,-0.4875 -0.025,-1.0125 -0.125,-1.425 -0.1,-0.4125 -0.375,-0.7 z"
       style="font-style:normal;font-variant:normal;font-weight:normal;font-stretch:normal;font-size:12.5px;line-height:125%;font-family:KaTeX_Main;-inkscape-font-specification:'KaTeX_Main, Normal';text-align:center;writing-mode:lr-tb;text-anchor:middle;fill:#000000"
       id="path4503" />
  </g>
  <line
     style="font-size:medium;font-family:sans-serif;text-anchor:middle;fill:none"
     id="line62"
     y2="318.875"
     x2="261.32489"
     y1="38.875004"
     x1="261.32489"
     class="grid" />
  <g
     style="font-style:normal;font-variant:normal;font-weight:normal;font-stretch:normal;font-size:22.5px;line-height:125%;font-family:KaTeX_Main;-inkscape-font-specification:'KaTeX_Main, Normal';text-align:center;writing-mode:lr-tb;text-anchor:middle;fill:#000000"
     id="text64">
    <path
       d="m 274.73933,234.46445 q -0.1575,-0.1575 -0.1575,-0.225 0,-0.09 0.0675,-0.36 0.09,-0.2925 0.1125,-0.315 0.045,-0.1125 0.2025,-0.1125 0.18,-0.0225 1.1475,-0.0225 l 1.1925,0 0.4275,-1.8 q 0.4725,-1.8225 0.54,-1.9575 0.27,-0.63 1.035,-0.63 0.2925,0.0225 0.495,0.2025 0.225,0.18 0.225,0.4725 0,0.27 -0.4275,1.9125 -0.09,0.3825 -0.225,0.855 -0.1125,0.45 -0.18,0.675 l -0.045,0.225 q 0,0.045 1.125,0.045 l 1.1475,0 q 0.1575,0.1575 0.1575,0.2475 0,0.495 -0.2925,0.7875 l -2.4075,0 -0.81,3.2625 q -0.8325,3.3525 -0.855,3.5325 -0.0225,0.1125 -0.0225,0.3375 0,0.945 0.6075,0.945 0.1575,0 0.27,-0.0225 1.125,-0.2025 2.0475,-1.8 0.225,-0.36 0.405,-0.8325 0.045,-0.135 0.1125,-0.1575 0.0675,-0.045 0.3375,-0.045 0.45,0 0.45,0.18 0,0.045 -0.09,0.27 -0.2475,0.72 -0.81,1.4625 -0.54,0.72 -1.1025,1.1475 -0.8325,0.63 -1.7775,0.63 -0.81,0 -1.395,-0.405 -0.5625,-0.4275 -0.765,-1.1025 -0.045,-0.18 -0.045,-0.6075 l 0,-0.405 0.7875,-3.15 q 0.7875,-3.1725 0.81,-3.195 0,-0.045 -1.1475,-0.045 l -1.1475,0 z"
       style="font-style:normal;font-variant:normal;font-weight:normal;font-stretch:normal;font-size:22.5px;line-height:125%;font-family:KaTeX_Math;-inkscape-font-specification:'KaTeX_Math, Normal';text-align:center;writing-mode:lr-tb;text-anchor:middle"
       id="path4484" />
    <path
       d="m 295.40171,248.54945 q 0,0.2025 -0.405,0.2025 l -0.2925,0 q -0.1575,-0.135 -0.63,-0.54 -4.05,-3.69 -4.05,-10.71 0,-2.745 0.6525,-5.0175 1.035,-3.5325 3.3975,-5.6925 0.1575,-0.135 0.36,-0.2925 0.2025,-0.18 0.27,-0.2475 l 0.2925,0 q 0.27,0 0.3375,0.0675 0.0675,0.0675 0.0675,0.135 0,0.09 -0.2475,0.3375 -3.4875,3.69 -3.4875,10.71 0,7.02 3.4875,10.71 0.2475,0.2475 0.2475,0.3375 z"
       style="font-style:normal;font-variant:normal;font-weight:normal;font-stretch:normal;font-size:22.5px;line-height:125%;font-family:KaTeX_Main;-inkscape-font-specification:'KaTeX_Main, Normal';text-align:center;writing-mode:lr-tb;text-anchor:middle;fill:#000000"
       id="path4486" />
    <path
       d="m 300.88433,241.77695 q 0.18,0.315 1.0575,0.315 l 0.315,0 0.36,0 0,1.035 -0.18,0 q -0.2925,-0.0675 -2.52,-0.0675 -2.2275,0 -2.52,0.0675 l -0.18,0 0,-1.035 0.36,0 0.315,0 q 0.8775,0 1.0575,-0.315 l 0,-0.18 q 0,-0.2025 0,-0.5175 0,-0.315 0,-0.6975 0.0225,-0.405 0.0225,-0.8775 0,-0.495 0,-0.945 0,-0.6975 -0.0225,-1.485 0,-0.81 0,-1.3275 l 0,-0.5175 q -0.0675,-0.4275 -0.3375,-0.5625 -0.2475,-0.1575 -0.99,-0.2025 l -0.405,0 0,-0.5175 q 0,-0.5175 0.045,-0.5175 l 0.225,-0.0225 q 0.225,-0.0225 0.63,-0.045 0.4275,-0.0225 0.8325,-0.045 0.3825,-0.0225 0.81,-0.045 0.4275,-0.045 0.6525,-0.0675 0.225,-0.0225 0.2475,-0.0225 l 0.0675,0 0,0.9 q 0,0.855 0.0225,0.855 l 0.0225,-0.0225 q 1.215,-1.7325 3.4425,-1.7325 2.5875,0.09 2.8575,2.5425 0.0225,0.1575 0.0225,3.1275 0,2.88 0.0225,2.925 0.09,0.18 0.27,0.2475 0.4725,0.0675 1.1025,0.0675 l 0.36,0 0,1.035 -0.18,0 q -0.2925,-0.0675 -2.52,-0.0675 -2.2275,0 -2.52,0.0675 l -0.18,0 0,-1.035 0.36,0 0.18,0 q 1.1925,0 1.1925,-0.36 0.0225,-0.045 0.0225,-3.105 -0.0225,-3.0375 -0.045,-3.2175 -0.1575,-0.72 -0.5175,-1.035 -0.3375,-0.3375 -1.0575,-0.3375 -1.0125,0 -1.7775,0.765 -0.7875,0.7875 -0.9225,1.98 0,0.0225 0,0.4275 0,0.3825 -0.0225,0.99 0,0.6075 0,1.1475 0,0.3375 0,0.72 0,0.36 0,0.6525 0.0225,0.2925 0.0225,0.54 0,0.225 0,0.3825 l 0,0.135 z"
       style="font-style:normal;font-variant:normal;font-weight:normal;font-stretch:normal;font-size:22.5px;line-height:125%;font-family:KaTeX_Main;-inkscape-font-specification:'KaTeX_Main, Normal';text-align:center;writing-mode:lr-tb;text-anchor:middle;fill:#000000"
       id="path4488" />
    <path
       d="m 313.45374,233.81195 q -2.07,0 -2.07,1.4625 0,0.2925 0.045,0.3825 0.2025,0.54 0.6975,0.7875 0.495,0.225 1.53,0.4275 1.2825,0.225 1.755,0.495 1.4175,0.675 1.8225,2.2275 0.0225,0.135 0.0225,0.54 0,0.8775 -0.315,1.5525 -0.8775,1.665 -3.3075,1.665 -1.35,0 -2.34,-0.81 l -0.18,0.1575 -0.2025,0.2025 q -0.135,0.135 -0.27,0.2475 l -0.2475,0.225 -0.18,0 q -0.1575,0 -0.2925,-0.135 l 0,-1.7775 q 0,-1.4625 0,-1.6875 0.0225,-0.225 0.1125,-0.27 0.045,-0.0225 0.36,-0.0225 0.2925,0 0.3375,0.045 0.0675,0.045 0.135,0.315 0.18,0.855 0.585,1.5525 0.7875,1.1475 2.1825,1.1475 2.1825,0 2.1825,-1.755 0,-0.6525 -0.405,-1.0575 -0.36,-0.4275 -0.945,-0.6075 -0.3825,-0.09 -1.08,-0.2475 -1.26,-0.2475 -1.71,-0.4725 -1.485,-0.6975 -1.7325,-2.0925 -0.0225,-0.09 -0.0225,-0.3375 0,-2.5875 3.1725,-2.9025 0.09,-0.045 0.54,0 0.9,0 1.575,0.3375 l 0.3375,0.18 0.2025,-0.1575 q 0.2925,-0.2475 0.495,-0.3825 l 0.18,0 q 0.1575,0 0.2925,0.135 l 0,2.97 -0.135,0.135 -0.63,0 q -0.135,-0.135 -0.135,-0.27 0,-1.035 -0.63,-1.62 -0.63,-0.585 -1.7325,-0.585 z"
       style="font-style:normal;font-variant:normal;font-weight:normal;font-stretch:normal;font-size:22.5px;line-height:125%;font-family:KaTeX_Main;-inkscape-font-specification:'KaTeX_Main, Normal';text-align:center;writing-mode:lr-tb;text-anchor:middle;fill:#000000"
       id="path4490" />
    <path
       d="m 327.34925,237.61445 q 0,0.1575 -0.1575,0.315 l -6.345,0 0,0.3375 q 0,1.665 0.45,2.52 0.81,1.665 2.79,1.665 0.9675,0 1.62,-0.72 0.45,-0.45 0.6975,-1.17 0.0675,-0.2475 0.135,-0.315 0.0675,-0.0675 0.36,-0.0675 0.45,0 0.45,0.225 0,0.09 -0.0675,0.2925 -0.4275,1.17 -1.3725,1.935 -0.9225,0.7425 -2.2725,0.7425 -0.4275,0 -0.99,-0.1125 -1.2825,-0.2475 -2.295,-1.17 -1.0125,-0.9225 -1.44,-2.2275 -0.27,-0.81 -0.27,-1.6425 0,-2.07 1.215,-3.4875 1.215,-1.44 2.9925,-1.665 0.09,-0.0225 0.315,-0.0225 2.0475,0 3.105,1.215 1.08,1.1925 1.08,3.3525 z m -1.845,-0.675 q -0.2025,-2.4525 -1.665,-2.97 -0.1575,-0.0675 -0.4725,-0.09 -1.17,0 -1.9125,1.08 -0.45,0.72 -0.585,2.0025 l 0,0.1575 4.635,0 0,-0.18 z"
       style="font-style:normal;font-variant:normal;font-weight:normal;font-stretch:normal;font-size:22.5px;line-height:125%;font-family:KaTeX_Main;-inkscape-font-specification:'KaTeX_Main, Normal';text-align:center;writing-mode:lr-tb;text-anchor:middle;fill:#000000"
       id="path4492" />
    <path
       d="m 336.71734,235.94945 q -0.3375,0.315 -0.855,0.315 -0.5175,0 -0.855,-0.3375 -0.3375,-0.36 -0.3375,-0.855 0,-0.5175 0.3375,-0.855 0.1125,-0.1125 0.09,-0.135 0,-0.0225 -0.2025,-0.045 -0.585,-0.09 -1.1025,-0.09 -1.1475,0 -1.8,0.72 -1.0575,1.0575 -1.0575,3.5325 0,1.845 0.6975,2.9025 0.9225,1.3725 2.475,1.3725 0.5625,0 0.99,-0.225 0.945,-0.4725 1.305,-1.755 0.045,-0.18 0.1125,-0.225 0.0675,-0.045 0.36,-0.045 l 0.315,0 q 0.135,0.135 0.135,0.2025 0,0.4275 -0.5625,1.3275 -1.125,1.62 -3.1725,1.62 -1.125,0 -2.1375,-0.5175 -2.2275,-1.1475 -2.6775,-3.825 -0.0225,-0.135 -0.0225,-0.72 0,-0.585 0.0225,-0.7425 0.27,-2.115 1.845,-3.4425 1.35,-1.08 2.9925,-1.08 2.9025,0 3.3975,1.53 0.0675,0.2025 0.0675,0.5175 0,0.5175 -0.36,0.855 z"
       style="font-style:normal;font-variant:normal;font-weight:normal;font-stretch:normal;font-size:22.5px;line-height:125%;font-family:KaTeX_Main;-inkscape-font-specification:'KaTeX_Main, Normal';text-align:center;writing-mode:lr-tb;text-anchor:middle;fill:#000000"
       id="path4494" />
    <path
       d="m 339.31292,226.27445 0.09,-0.0225 q 0.1125,0 0.225,0 l 0.27,0 q 0.1575,0.135 0.63,0.54 4.05,3.69 4.05,10.71 0,2.7675 -0.6525,4.995 -1.035,3.555 -3.3975,5.715 -0.1575,0.135 -0.36,0.2925 -0.2025,0.18 -0.27,0.2475 l -0.27,0 q -0.27,0 -0.36,-0.045 -0.0675,-0.045 -0.0675,-0.225 0.0225,-0.0225 0.2475,-0.2925 3.4875,-3.6225 3.4875,-10.6875 0,-7.065 -3.4875,-10.6875 -0.225,-0.27 -0.2475,-0.2925 0,-0.18 0.1125,-0.2475 z"
       style="font-style:normal;font-variant:normal;font-weight:normal;font-stretch:normal;font-size:22.5px;line-height:125%;font-family:KaTeX_Main;-inkscape-font-specification:'KaTeX_Main, Normal';text-align:center;writing-mode:lr-tb;text-anchor:middle;fill:#000000"
       id="path4496" />
  </g>
  <path
     class="domain"
     d="m 60.824902,319.375 0.5,0 0,-279.999996 -0.5,0"
     id="path68"
     inkscape:connector-curvature="0"
     style="font-size:medium;font-family:sans-serif;text-anchor:end;fill:none;stroke:#000000" />
  <line
     style="font-size:medium;font-family:sans-serif;text-anchor:end;fill:none;stroke:#000000"
     y2="319.375"
     y1="319.375"
     x1="60.824902"
     id="line72"
     x2="54.824902" />
  <g
     style="font-style:normal;font-variant:normal;font-weight:normal;font-stretch:normal;font-size:12.5px;line-height:125%;font-family:KaTeX_Main;-inkscape-font-specification:'KaTeX_Main, Normal';text-align:center;writing-mode:lr-tb;text-anchor:middle;fill:#000000"
     id="text74">
    <path
       d="m 40.563483,320.6808 0,-0.9125 3.325,0 0,0.9125 -3.325,0 z"
       style="font-style:normal;font-variant:normal;font-weight:normal;font-stretch:normal;font-size:12.5px;line-height:125%;font-family:KaTeX_Main;-inkscape-font-specification:'KaTeX_Main, Normal';text-align:center;writing-mode:lr-tb;text-anchor:middle;fill:#000000"
       id="path4479" />
    <path
       d="m 50.375788,322.9183 q -0.175,-0.0375 -1.6125,-0.0375 -1.5,0 -1.675,0.0375 l -0.1125,0 0,-0.575 0.3875,0 q 0.5375,-0.0125 0.6625,-0.0625 0.1,-0.025 0.15,-0.125 0.0125,-0.025 0.0125,-0.675 l 0,-0.625 -3.2375,0 0,-0.575 1.8875,-2.8875 q 1.9125,-2.9 1.9375,-2.9125 0.025,-0.025 0.2625,-0.025 l 0.225,0 0.075,0.075 0,5.75 1.15,0 0,0.575 -1.15,0 0,0.6375 q 0,0.5125 0,0.6 0.0125,0.0875 0.075,0.15 0.1,0.0875 0.7125,0.1 l 0.3625,0 0,0.575 -0.1125,0 z m -2.1125,-2.6375 0,-4.175 -2.7375,4.1625 1.3625,0.0125 1.375,0 z"
       style="font-style:normal;font-variant:normal;font-weight:normal;font-stretch:normal;font-size:12.5px;line-height:125%;font-family:KaTeX_Main;-inkscape-font-specification:'KaTeX_Main, Normal';text-align:center;writing-mode:lr-tb;text-anchor:middle;fill:#000000"
       id="path4481" />
  </g>
  <line
     style="font-size:medium;font-family:sans-serif;text-anchor:end;fill:none"
     id="line76"
     y2="319.375"
     x2="260.82489"
     y1="319.375"
     x1="20.824902"
     class="grid" />
  <line
     style="font-size:medium;font-family:sans-serif;text-anchor:end;fill:none;stroke:#000000"
     y2="279.375"
     y1="279.375"
     x1="60.824902"
     id="line80"
     x2="54.824902" />
  <g
     style="font-style:normal;font-variant:normal;font-weight:normal;font-stretch:normal;font-size:12.5px;line-height:125%;font-family:KaTeX_Main;-inkscape-font-specification:'KaTeX_Main, Normal';text-align:center;writing-mode:lr-tb;text-anchor:middle;fill:#000000"
     id="text82">
    <path
       d="m 40.838485,280.6808 0,-0.9125 3.325,0 0,0.9125 -3.325,0 z"
       style="font-style:normal;font-variant:normal;font-weight:normal;font-stretch:normal;font-size:12.5px;line-height:125%;font-family:KaTeX_Main;-inkscape-font-specification:'KaTeX_Main, Normal';text-align:center;writing-mode:lr-tb;text-anchor:middle;fill:#000000"
       id="path4474" />
    <path
       d="m 46.25079,277.5558 q -0.35,0 -0.55,-0.225 -0.2,-0.225 -0.2,-0.55 0,-0.9 0.675,-1.5375 0.6875,-0.65 1.6375,-0.65 1.075,0 1.775,0.5875 0.7125,0.575 0.875,1.5125 0.025,0.225 0.025,0.4125 0,0.725 -0.4375,1.3625 -0.35,0.525 -1.4125,1.4375 -0.45,0.3875 -1.25,1.15 l -0.7375,0.7 0.95,0.0125 q 1.9625,0 2.0875,-0.0625 0.05,-0.0125 0.125,-0.2625 0.05,-0.1375 0.175,-0.85 l 0,-0.0375 0.5,0 0,0.0375 -0.35,2.2875 0,0.0375 -4.6375,0 0,-0.2375 q 0,-0.25 0.025,-0.2875 0.0125,-0.0125 1.05,-1.1875 1.3625,-1.5125 1.75,-2 0.8375,-1.1375 0.8375,-2.0875 0,-0.825 -0.4375,-1.375 -0.425,-0.5625 -1.2,-0.5625 -0.725,0 -1.175,0.65 -0.025,0.05 -0.075,0.1375 -0.0375,0.0625 -0.0375,0.075 0,0.0125 0.0625,0.0125 0.3125,0 0.5,0.225 0.2,0.225 0.2,0.525 0,0.3125 -0.2125,0.5375 -0.2,0.2125 -0.5375,0.2125 z"
       style="font-style:normal;font-variant:normal;font-weight:normal;font-stretch:normal;font-size:12.5px;line-height:125%;font-family:KaTeX_Main;-inkscape-font-specification:'KaTeX_Main, Normal';text-align:center;writing-mode:lr-tb;text-anchor:middle;fill:#000000"
       id="path4476" />
  </g>
  <line
     style="font-size:medium;font-family:sans-serif;text-anchor:end;fill:none"
     id="line84"
     y2="279.375"
     x2="260.82489"
     y1="279.375"
     x1="20.824902"
     class="grid" />
  <line
     style="font-size:medium;font-family:sans-serif;text-anchor:end;fill:none;stroke:#000000"
     y2="239.375"
     y1="239.375"
     x1="60.824902"
     id="line88"
     x2="54.824902" />
  <line
     style="font-size:medium;font-family:sans-serif;text-anchor:end;fill:none"
     id="line90"
     y2="239.375"
     x2="260.82489"
     y1="239.375"
     x1="20.824902"
     class="grid" />
  <line
     style="font-size:medium;font-family:sans-serif;text-anchor:end;fill:none;stroke:#000000"
     y2="199.375"
     y1="199.375"
     x1="60.824902"
     id="line94"
     x2="54.824902" />
  <g
     style="font-style:normal;font-variant:normal;font-weight:normal;font-stretch:normal;font-size:12.5px;line-height:125%;font-family:KaTeX_Main;-inkscape-font-specification:'KaTeX_Main, Normal';text-align:center;writing-mode:lr-tb;text-anchor:middle;fill:#000000"
     id="text96">
    <path
       d="m 46.25079,197.5558 q -0.35,0 -0.55,-0.225 -0.2,-0.225 -0.2,-0.55 0,-0.9 0.675,-1.5375 0.6875,-0.65 1.6375,-0.65 1.075,0 1.775,0.5875 0.7125,0.575 0.875,1.5125 0.025,0.225 0.025,0.4125 0,0.725 -0.4375,1.3625 -0.35,0.525 -1.4125,1.4375 -0.45,0.3875 -1.25,1.15 l -0.7375,0.7 0.95,0.0125 q 1.9625,0 2.0875,-0.0625 0.05,-0.0125 0.125,-0.2625 0.05,-0.1375 0.175,-0.85 l 0,-0.0375 0.5,0 0,0.0375 -0.35,2.2875 0,0.0375 -4.6375,0 0,-0.2375 q 0,-0.25 0.025,-0.2875 0.0125,-0.0125 1.05,-1.1875 1.3625,-1.5125 1.75,-2 0.8375,-1.1375 0.8375,-2.0875 0,-0.825 -0.4375,-1.375 -0.425,-0.5625 -1.2,-0.5625 -0.725,0 -1.175,0.65 -0.025,0.05 -0.075,0.1375 -0.0375,0.0625 -0.0375,0.075 0,0.0125 0.0625,0.0125 0.3125,0 0.5,0.225 0.2,0.225 0.2,0.525 0,0.3125 -0.2125,0.5375 -0.2,0.2125 -0.5375,0.2125 z"
       style="font-style:normal;font-variant:normal;font-weight:normal;font-stretch:normal;font-size:12.5px;line-height:125%;font-family:KaTeX_Main;-inkscape-font-specification:'KaTeX_Main, Normal';text-align:center;writing-mode:lr-tb;text-anchor:middle;fill:#000000"
       id="path4471" />
  </g>
  <line
     style="font-size:medium;font-family:sans-serif;text-anchor:end;fill:none"
     id="line98"
     y2="199.375"
     x2="260.82489"
     y1="199.375"
     x1="20.824902"
     class="grid" />
  <line
     style="font-size:medium;font-family:sans-serif;text-anchor:end;fill:none;stroke:#000000"
     y2="159.375"
     y1="159.375"
     x1="60.824902"
     id="line102"
     x2="54.824902" />
  <g
     style="font-style:normal;font-variant:normal;font-weight:normal;font-stretch:normal;font-size:12.5px;line-height:125%;font-family:KaTeX_Main;-inkscape-font-specification:'KaTeX_Main, Normal';text-align:center;writing-mode:lr-tb;text-anchor:middle;fill:#000000"
     id="text104">
    <path
       d="m 50.375788,162.9183 q -0.175,-0.0375 -1.6125,-0.0375 -1.5,0 -1.675,0.0375 l -0.1125,0 0,-0.575 0.3875,0 q 0.5375,-0.0125 0.6625,-0.0625 0.1,-0.025 0.15,-0.125 0.0125,-0.025 0.0125,-0.675 l 0,-0.625 -3.2375,0 0,-0.575 1.8875,-2.8875 q 1.9125,-2.9 1.9375,-2.9125 0.025,-0.025 0.2625,-0.025 l 0.225,0 0.075,0.075 0,5.75 1.15,0 0,0.575 -1.15,0 0,0.6375 q 0,0.5125 0,0.6 0.0125,0.0875 0.075,0.15 0.1,0.0875 0.7125,0.1 l 0.3625,0 0,0.575 -0.1125,0 z m -2.1125,-2.6375 0,-4.175 -2.7375,4.1625 1.3625,0.0125 1.375,0 z"
       style="font-style:normal;font-variant:normal;font-weight:normal;font-stretch:normal;font-size:12.5px;line-height:125%;font-family:KaTeX_Main;-inkscape-font-specification:'KaTeX_Main, Normal';text-align:center;writing-mode:lr-tb;text-anchor:middle;fill:#000000"
       id="path4468" />
  </g>
  <line
     style="font-size:medium;font-family:sans-serif;text-anchor:end;fill:none"
     id="line106"
     y2="159.375"
     x2="260.82489"
     y1="159.375"
     x1="20.824902"
     class="grid" />
  <line
     style="font-size:medium;font-family:sans-serif;text-anchor:end;fill:none;stroke:#000000"
     y2="119.375"
     y1="119.375"
     x1="60.824902"
     id="line110"
     x2="54.824902" />
  <g
     style="font-style:normal;font-variant:normal;font-weight:normal;font-stretch:normal;font-size:12.5px;line-height:125%;font-family:KaTeX_Main;-inkscape-font-specification:'KaTeX_Main, Normal';text-align:center;writing-mode:lr-tb;text-anchor:middle;fill:#000000"
     id="text112">
    <path
       d="m 49.450788,115.40582 q -0.275,-0.275 -0.775,-0.3125 -0.875,0 -1.4625,0.75 -0.5875,0.8125 -0.5875,2.525 l 0.0125,0.05 0.1,-0.1625 q 0.5125,-0.75 1.3875,-0.75 0.575,0 1.0125,0.2375 0.3,0.175 0.6,0.5125 0.3,0.325 0.4875,0.7 0.2625,0.6125 0.2625,1.3375 l 0,0.225 q 0,0.2875 -0.0625,0.5375 -0.15,0.7375 -0.775,1.3875 -0.5375,0.5625 -1.2,0.7 -0.2,0.05 -0.5,0.05 -0.2375,0 -0.425,-0.0375 -0.925,-0.175 -1.475,-1 -0.7375,-1.1625 -0.7375,-3.15 0,-1.35 0.475,-2.3625 0.475,-1.0125 1.325,-1.575 0.675,-0.475 1.4625,-0.475 0.725,0 1.1625,0.3875 0.45,0.3875 0.45,1.0625 0,0.3125 -0.1875,0.5 -0.175,0.1875 -0.475,0.1875 -0.3,0 -0.4875,-0.175 -0.175,-0.175 -0.175,-0.4875 0,-0.5625 0.5875,-0.6625 z m -0.55,3 q -0.35,-0.45 -0.9,-0.45 -0.4625,0 -0.75,0.2875 -0.6125,0.6125 -0.6125,1.975 0,1.1125 0.15,1.5375 0.125,0.375 0.425,0.6375 0.3,0.2625 0.7125,0.2625 0.6375,0 0.975,-0.475 0.1875,-0.2625 0.2375,-0.625 0.05,-0.3625 0.05,-1.05 l 0,-0.2 0,-0.2 q 0,-0.7125 -0.05,-1.075 -0.05,-0.3625 -0.2375,-0.625 z"
       style="font-style:normal;font-variant:normal;font-weight:normal;font-stretch:normal;font-size:12.5px;line-height:125%;font-family:KaTeX_Main;-inkscape-font-specification:'KaTeX_Main, Normal';text-align:center;writing-mode:lr-tb;text-anchor:middle;fill:#000000"
       id="path4465" />
  </g>
  <line
     style="font-size:medium;font-family:sans-serif;text-anchor:end;fill:none"
     id="line114"
     y2="119.375"
     x2="260.82489"
     y1="119.375"
     x1="20.824902"
     class="grid" />
  <line
     style="font-size:medium;font-family:sans-serif;text-anchor:end;fill:none;stroke:#000000"
     y2="79.375"
     y1="79.375"
     x1="60.824902"
     id="line118"
     x2="54.824902" />
  <g
     style="font-style:normal;font-variant:normal;font-weight:normal;font-stretch:normal;font-size:12.5px;line-height:125%;font-family:KaTeX_Main;-inkscape-font-specification:'KaTeX_Main, Normal';text-align:center;writing-mode:lr-tb;text-anchor:middle;fill:#000000"
     id="text120">
    <path
       d="m 46.925791,78.73082 q -0.6125,-0.4 -0.95,-0.8375 -0.325,-0.4375 -0.325,-1.15 0,-0.5375 0.2,-0.9 0.275,-0.5625 0.8,-0.9 0.5375,-0.35 1.225,-0.35 0.85,0 1.475,0.45 0.625,0.4375 0.775,1.1375 0.0125,0.075 0.0125,0.3 0,0.275 -0.025,0.375 -0.1875,0.825 -1.1375,1.425 l -0.15,0.1 q 0.7,0.475 0.725,0.5 0.9375,0.75 0.9375,1.8625 0,1.0125 -0.75,1.7375 -0.7375,0.7125 -1.85,0.7125 -1.5375,0 -2.2625,-1.125 -0.3125,-0.45 -0.3125,-1.0875 0,-1.3625 1.6125,-2.25 z m 2.4875,-2.225 q 0,-0.5375 -0.35,-0.9125 -0.35,-0.375 -0.85,-0.475 -0.0875,-0.0125 -0.4125,-0.0125 -0.6625,0 -1.1125,0.45 -0.3125,0.2875 -0.3125,0.6875 0,0.5375 0.45,0.85 0.0625,0.0625 0.8,0.525 l 0.725,0.475 q 0.0125,-0.0125 0.1625,-0.1 0.15,-0.1 0.225,-0.175 0.675,-0.5375 0.675,-1.3125 z m -3.3,4.45 q 0,0.7375 0.5375,1.225 0.5375,0.475 1.25,0.475 0.5125,0 0.925,-0.2125 0.425,-0.2125 0.6375,-0.55 0.2125,-0.325 0.2125,-0.6875 0,-0.5375 -0.4375,-0.95 -0.1,-0.1 -1.0375,-0.7125 -0.175,-0.1125 -0.3875,-0.2375 -0.2,-0.1375 -0.3125,-0.2125 l -0.1,-0.0625 -0.15,0.075 q -0.7875,0.5125 -1.0375,1.25 -0.1,0.325 -0.1,0.6 z"
       style="font-style:normal;font-variant:normal;font-weight:normal;font-stretch:normal;font-size:12.5px;line-height:125%;font-family:KaTeX_Main;-inkscape-font-specification:'KaTeX_Main, Normal';text-align:center;writing-mode:lr-tb;text-anchor:middle;fill:#000000"
       id="path4462" />
  </g>
  <line
     style="font-size:medium;font-family:sans-serif;text-anchor:end;fill:none"
     id="line122"
     y2="79.375"
     x2="260.82489"
     y1="79.375"
     x1="20.824902"
     class="grid" />
  <line
     style="font-size:medium;font-family:sans-serif;text-anchor:end;fill:none;stroke:#000000"
     y2="39.375004"
     y1="39.375004"
     x1="60.824902"
     id="line126"
     x2="54.824902" />
  <g
     style="font-style:normal;font-variant:normal;font-weight:normal;font-stretch:normal;font-size:12.5px;line-height:125%;font-family:KaTeX_Main;-inkscape-font-specification:'KaTeX_Main, Normal';text-align:center;writing-mode:lr-tb;text-anchor:middle;fill:#000000"
     id="text128">
    <path
       d="m 43.688289,42.918308 q -0.2125,-0.0375 -1.9875,-0.0375 -1.75,0 -1.9625,0.0375 l -0.15,0 0,-0.575 0.325,0 q 0.725,0 0.9375,-0.0375 0.1,-0.0125 0.3,-0.15 l 0,-6.4625 q -0.025,0 -0.1,0.0375 -0.575,0.225 -1.2875,0.2375 l -0.2375,0 0,-0.575 0.2375,0 q 1.05,-0.0375 1.75,-0.475 0.225,-0.125 0.3875,-0.2875 0.025,-0.0375 0.15,-0.0375 0.125,0 0.2125,0.075 l 0,3.7375 0.0125,3.75 q 0.1875,0.1875 0.8125,0.1875 l 0.4125,0 0.325,0 0,0.575 -0.1375,0 z"
       style="font-style:normal;font-variant:normal;font-weight:normal;font-stretch:normal;font-size:12.5px;line-height:125%;font-family:KaTeX_Main;-inkscape-font-specification:'KaTeX_Main, Normal';text-align:center;writing-mode:lr-tb;text-anchor:middle;fill:#000000"
       id="path4457" />
    <path
       d="m 45.938289,35.605808 q 0.7,-1.0125 1.9125,-1.0125 0.9125,0 1.6,0.625 0.3375,0.325 0.575,0.85 0.4625,1.0375 0.4625,2.85 0,1.9375 -0.5375,2.9625 -0.35,0.725 -1.025,1.05 -0.525,0.2625 -1.0625,0.2625 -1.4375,0 -2.1,-1.3125 -0.5375,-1.025 -0.5375,-2.9625 0,-1.1625 0.15,-1.9125 0.1625,-0.7625 0.5625,-1.4 z m 2.8125,-0.15 q -0.3625,-0.4 -0.8875,-0.4 -0.525,0 -0.9,0.4 -0.275,0.2875 -0.375,0.7 -0.1,0.4125 -0.125,1.425 0,0.075 -0.0125,0.4875 0,0.4125 0,0.6875 0,1.2 0.025,1.675 0.05,0.875 0.15,1.2625 0.1,0.375 0.375,0.65 0.3375,0.375 0.8625,0.375 0.5125,0 0.85,-0.375 0.275,-0.275 0.375,-0.65 0.1,-0.3875 0.15,-1.2625 0.025,-0.475 0.025,-1.675 0,-0.275 -0.0125,-0.6875 0,-0.4125 0,-0.4875 -0.025,-1.0125 -0.125,-1.425 -0.1,-0.4125 -0.375,-0.7 z"
       style="font-style:normal;font-variant:normal;font-weight:normal;font-stretch:normal;font-size:12.5px;line-height:125%;font-family:KaTeX_Main;-inkscape-font-specification:'KaTeX_Main, Normal';text-align:center;writing-mode:lr-tb;text-anchor:middle;fill:#000000"
       id="path4459" />
  </g>
  <line
     style="font-size:medium;font-family:sans-serif;text-anchor:end;fill:none"
     id="line130"
     y2="39.375004"
     x2="260.82489"
     y1="39.375004"
     x1="20.824902"
     class="grid" />
  <g
     style="font-style:normal;font-variant:normal;font-weight:normal;font-stretch:normal;font-size:22.5px;line-height:125%;font-family:KaTeX_Main;-inkscape-font-specification:'KaTeX_Main, Normal';text-align:center;writing-mode:lr-tb;text-anchor:middle;fill:#000000"
     id="text132">
    <path
       d="m 31.6983,13.375 q 0,-0.5175 0.4275,-0.945 0.4275,-0.4275 0.99,-0.4275 0.405,0 0.675,0.27 0.2925,0.27 0.2925,0.675 0,0.495 -0.45,0.945 -0.45,0.45 -0.99,0.45 -0.405,0 -0.675,-0.27 -0.27,-0.27 -0.27,-0.6975 z m -0.5175,13.7475 q -0.8775,0 -1.4175,-0.5175 -0.54,-0.5175 -0.54,-1.395 0,-0.3825 0.045,-0.5175 0,-0.045 1.035,-2.7675 1.035,-2.745 1.035,-2.79 0.1125,-0.36 0.1125,-0.81 0,-0.54 -0.3825,-0.54 l -0.045,0 q -0.54,0 -1.035,0.5175 -0.72,0.7425 -1.0575,2.115 0,0.0225 -0.0225,0.09 -0.0225,0.045 -0.045,0.0675 0,0 -0.0225,0.0225 -0.0225,0.0225 -0.09,0.0225 -0.045,0 -0.09,0 -0.045,0 -0.18,0 l -0.315,0 q -0.135,-0.135 -0.135,-0.2025 0,-0.0675 0.0675,-0.315 0.585,-1.935 1.71,-2.7 0.6075,-0.4725 1.305,-0.4725 0.9,0 1.485,0.5175 0.585,0.5175 0.585,1.395 0,0.2925 -0.1125,0.675 -0.0225,0.045 -1.035,2.7675 l -1.0125,2.7225 q -0.1125,0.495 -0.1125,0.72 0,0.5625 0.3825,0.5625 0.315,0 0.5625,-0.135 0.99,-0.4725 1.5525,-2.3625 0.0675,-0.27 0.1125,-0.315 0.0675,-0.045 0.3825,-0.045 0.2025,0 0.27,0.0225 0.09,0 0.135,0.045 0.045,0.045 0.045,0.1575 0,0.09 -0.0675,0.2925 -0.4275,1.2825 -1.2375,2.2275 -0.7875,0.945 -1.8675,0.945 z"
       style="font-style:normal;font-variant:normal;font-weight:normal;font-stretch:normal;font-size:22.5px;line-height:125%;font-family:KaTeX_Math;-inkscape-font-specification:'KaTeX_Math, Normal';text-align:center;writing-mode:lr-tb;text-anchor:middle"
       id="path4446" />
    <path
       d="m 48.45412,32.2975 q 0,0.2025 -0.405,0.2025 l -0.2925,0 q -0.1575,-0.135 -0.63,-0.54 -4.05,-3.69 -4.05,-10.71 0,-2.745 0.6525,-5.0175 1.035,-3.5325 3.3975,-5.6925 0.1575,-0.135 0.36,-0.2925 0.2025,-0.18 0.27,-0.2475 l 0.2925,0 q 0.27,0 0.3375,0.0675 0.0675,0.0675 0.0675,0.135 0,0.09 -0.2475,0.3375 -3.4875,3.69 -3.4875,10.71 0,7.02 3.4875,10.71 0.2475,0.2475 0.2475,0.3375 z"
       style="font-style:normal;font-variant:normal;font-weight:normal;font-stretch:normal;font-size:22.5px;line-height:125%;font-family:KaTeX_Main;-inkscape-font-specification:'KaTeX_Main, Normal';text-align:center;writing-mode:lr-tb;text-anchor:middle;fill:#000000"
       id="path4448" />
    <path
       d="m 53.936738,25.525 q 0.18,0.315 1.0575,0.315 l 0.315,0 0.36,0 0,1.035 -0.18,0 q -0.2925,-0.0675 -2.52,-0.0675 -2.2275,0 -2.52,0.0675 l -0.18,0 0,-1.035 0.36,0 0.315,0 q 0.8775,0 1.0575,-0.315 l 0,-0.18 q 0,-0.2025 0,-0.5175 0,-0.315 0,-0.6975 0.0225,-0.405 0.0225,-0.8775 0,-0.495 0,-0.945 0,-0.6975 -0.0225,-1.485 0,-0.81 0,-1.3275 l 0,-0.5175 q -0.0675,-0.4275 -0.3375,-0.5625 -0.2475,-0.1575 -0.99,-0.2025 l -0.405,0 0,-0.5175 q 0,-0.5175 0.045,-0.5175 l 0.225,-0.0225 q 0.225,-0.0225 0.63,-0.045 0.4275,-0.0225 0.8325,-0.045 0.3825,-0.0225 0.81,-0.045 0.4275,-0.045 0.6525,-0.0675 0.225,-0.0225 0.2475,-0.0225 l 0.0675,0 0,0.9 q 0,0.855 0.0225,0.855 l 0.0225,-0.0225 q 1.215,-1.7325 3.4425,-1.7325 2.1825,0.0675 2.6775,1.71 l 0.045,0.1125 q 0.54,-0.675 0.6075,-0.7425 1.1475,-1.08 2.6775,-1.08 2.8125,0 3.0825,2.5425 0.0225,0.1575 0.0225,3.1275 0,2.88 0.0225,2.925 0.09,0.18 0.27,0.2475 0.4725,0.0675 1.1025,0.0675 l 0.36,0 0,1.035 -0.18,0 q -0.2925,-0.0675 -2.52,-0.0675 -2.2275,0 -2.52,0.0675 l -0.18,0 0,-1.035 0.36,0 0.18,0 q 1.1925,0 1.1925,-0.36 0.0225,-0.045 0.0225,-3.105 -0.0225,-3.0375 -0.045,-3.2175 -0.1575,-0.72 -0.5175,-1.035 -0.3375,-0.3375 -1.0575,-0.3375 -1.0125,0 -1.7775,0.765 -0.7875,0.7875 -0.9225,1.98 0,0.0225 -0.0225,0.4275 0,0.3825 0,0.99 0,0.6075 0,1.1475 0,0.3375 0,0.72 0,0.36 0,0.6525 0,0.2925 0,0.54 0.0225,0.225 0.0225,0.3825 l 0,0.135 q 0.18,0.315 1.0575,0.315 l 0.315,0 0.36,0 0,1.035 -0.18,0 q -0.2925,-0.0675 -2.52,-0.0675 -2.2275,0 -2.52,0.0675 l -0.18,0 0,-1.035 0.36,0 0.18,0 q 1.1925,0 1.1925,-0.36 0.0225,-0.045 0.0225,-3.105 -0.0225,-3.0375 -0.045,-3.2175 -0.1575,-0.72 -0.5175,-1.035 -0.3375,-0.3375 -1.0575,-0.3375 -1.0125,0 -1.7775,0.765 -0.7875,0.7875 -0.9225,1.98 0,0.0225 0,0.4275 0,0.3825 -0.0225,0.99 0,0.6075 0,1.1475 0,0.3375 0,0.72 0,0.36 0,0.6525 0.0225,0.2925 0.0225,0.54 0,0.225 0,0.3825 l 0,0.135 z"
       style="font-style:normal;font-variant:normal;font-weight:normal;font-stretch:normal;font-size:22.5px;line-height:125%;font-family:KaTeX_Main;-inkscape-font-specification:'KaTeX_Main, Normal';text-align:center;writing-mode:lr-tb;text-anchor:middle;fill:#000000"
       id="path4450" />
    <path
       d="m 74.208886,26.875 q -0.405,-0.0675 -2.5875,-0.0675 -2.0025,0 -2.2725,0.0675 l -0.1575,0 0,-1.035 0.3375,0 q 1.62,-0.0675 2.07,-0.945 0.0225,-0.0675 1.1925,-3.5325 1.17,-3.4875 2.3175,-6.93 1.17,-3.465 1.1925,-3.4875 0.0675,-0.18 0.4275,-0.18 l 0.2025,0 q 0.45,0.0225 0.54,0.1575 0.0225,0.0225 2.1825,6.435 2.1825,6.4125 2.7,8.01 0.0675,0.135 0.1575,0.225 0.2475,0.225 1.4175,0.2475 l 0.675,0 0,1.035 -0.2025,0 q -0.3375,-0.0675 -2.8575,-0.0675 -2.9025,0 -3.24,0.0675 l -0.225,0 0,-1.035 0.2925,0 q 1.575,0 1.575,-0.405 0,-0.045 -0.54,-1.665 l -0.54,-1.5975 -5.2425,0 -0.45,1.3275 q -0.45,1.3275 -0.45,1.4625 0,0.1125 0.0675,0.2025 0.135,0.2925 0.5625,0.495 0.45,0.18 0.945,0.18 l 0.1125,0 0,1.035 -0.2025,0 z m 3.6225,-7.8075 q -0.6525,-1.9575 -1.1475,-3.3975 l -0.45,-1.3275 -1.125,3.375 -1.1475,3.3975 q 0,0.0225 2.2725,0.0225 l 2.295,0 -0.6975,-2.07 z"
       style="font-style:normal;font-variant:normal;font-weight:normal;font-stretch:normal;font-size:22.5px;line-height:125%;font-family:KaTeX_Main;-inkscape-font-specification:'KaTeX_Main, Normal';text-align:center;writing-mode:lr-tb;text-anchor:middle;fill:#000000"
       id="path4452" />
    <path
       d="m 86.696386,10.0225 0.09,-0.0225 q 0.1125,0 0.225,0 l 0.27,0 q 0.1575,0.135 0.63,0.54 4.05,3.69 4.05,10.71 0,2.7675 -0.6525,4.995 -1.035,3.555 -3.3975,5.715 -0.1575,0.135 -0.36,0.2925 -0.2025,0.18 -0.27,0.2475 l -0.27,0 q -0.27,0 -0.36,-0.045 -0.0675,-0.045 -0.0675,-0.225 0.0225,-0.0225 0.2475,-0.2925 3.4875,-3.6225 3.4875,-10.6875 0,-7.065 -3.4875,-10.6875 -0.225,-0.27 -0.2475,-0.2925 0,-0.18 0.1125,-0.2475 z"
       style="font-style:normal;font-variant:normal;font-weight:normal;font-stretch:normal;font-size:22.5px;line-height:125%;font-family:KaTeX_Main;-inkscape-font-specification:'KaTeX_Main, Normal';text-align:center;writing-mode:lr-tb;text-anchor:middle;fill:#000000"
       id="path4454" />
  </g>
  <path
     inkscape:connector-curvature="0"
     id="path134"
     style="fill:none;stroke:#11accd;stroke-width:3px;stroke-linecap:round"
     d="m 60.824902,78.875004 2,9.69391 2,9.106586 2,8.55484 2,8.03654 2,7.54962 2,7.09221 2,6.66253 2,6.25885 2,5.87966 2,5.52342 2,5.18878 2,4.8744 2,4.57908 2,4.30165 2,4.04102 2,3.79619 2,3.56619 2,3.35013 2,3.14715 1.999998,2.95647 2,2.77735 2,2.60908 2,2.45101 2,2.3025 2,2.16301 2,2.03195 2,1.90885 2,1.79319 2,1.68455 2,1.58249 2,1.4866 2,1.39654 2,1.31193 2,1.23245 2,1.15777 2,1.08762 2,1.02173 2,0.95983 2,0.90168 2,0.84704 2,0.79572 2,0.74752 2,0.70222 2,0.65968 2,0.61971 2,0.58217 2,0.54689 2,0.51376 2,0.48263 2,0.45339 2,0.42592 2,0.40012 2,0.37587 2,0.3531 2,0.33171 2,0.31161 2,0.29273 2,0.27499 2,0.25834 2,0.24268 2,0.22798 2,0.21417 2,0.20119 2,0.189 2,0.17755 2,0.16679 2,0.15669 2,0.14719 2,0.13828 2,0.1299 2,0.12203 2,0.11463 2,0.10769 2,0.10117 2,0.095 2,0.0893 2,0.0839 2,0.0788 2,0.074 2,0.0695 2,0.0653 2,0.0614 2,0.0576 2,0.0542 2,0.0509 2,0.0478 2,0.0449 2,0.0422 2,0.0396 2,0.0372 2,0.035 2,0.0328 2,0.0309 2,0.029 2,0.0272 2,0.0256 2,0.024 2,0.0226 2,0.0212 2,0.0199"
     class="path" />
  <path
     inkscape:connector-curvature="0"
     id="path136"
     d="m 20.824902,78.875004 40,0"
     class="path" />
</svg>
