<?xml version="1.0" encoding="UTF-8" standalone="no"?>
<!-- Generator: Adobe Illustrator 19.1.0, SVG Export Plug-In . SVG Version: 6.00 Build 0)  -->

<svg
   xmlns:dc="http://purl.org/dc/elements/1.1/"
   xmlns:cc="http://creativecommons.org/ns#"
   xmlns:rdf="http://www.w3.org/1999/02/22-rdf-syntax-ns#"
   xmlns:svg="http://www.w3.org/2000/svg"
   xmlns="http://www.w3.org/2000/svg"
   xmlns:sodipodi="http://sodipodi.sourceforge.net/DTD/sodipodi-0.dtd"
   xmlns:inkscape="http://www.inkscape.org/namespaces/inkscape"
   version="1.1"
   id="Layer_1"
   x="0px"
   y="0px"
   viewBox="0 0 297.21121 174.94135"
   xml:space="preserve"
   sodipodi:docname="rl_natural_response12.svg"
   width="297.21121"
   height="174.94135"
   inkscape:version="0.92.2 5c3e80d, 2017-08-06"><metadata
     id="metadata1411"><rdf:RDF><cc:Work
         rdf:about=""><dc:format>image/svg+xml</dc:format><dc:type
           rdf:resource="http://purl.org/dc/dcmitype/StillImage" /><dc:title></dc:title></cc:Work></rdf:RDF></metadata><defs
     id="defs1409" /><sodipodi:namedview
     pagecolor="#ffffff"
     bordercolor="#666666"
     borderopacity="1"
     objecttolerance="10"
     gridtolerance="10"
     guidetolerance="10"
     inkscape:pageopacity="0"
     inkscape:pageshadow="2"
     inkscape:window-width="640"
     inkscape:window-height="480"
     id="namedview1407"
     showgrid="false"
     fit-margin-top="10"
     fit-margin-right="10"
     fit-margin-bottom="10"
     fit-margin-left="10"
     inkscape:zoom="1.6856699"
     inkscape:cx="148.60561"
     inkscape:cy="87.470673"
     inkscape:current-layer="Layer_1" /><style
     type="text/css"
     id="style1302">
	.st0{fill:none;stroke:#E8C11C;stroke-miterlimit:10;}
	.st1{fill:none;stroke:#11ACCD;stroke-width:3;stroke-linecap:round;stroke-miterlimit:10;}
	.st2{fill:#11ACCD;}
	.st3{fill:none;stroke:#11ACCD;stroke-width:4;stroke-miterlimit:10;}
	.st4{fill:none;stroke:#BABEC2;stroke-linecap:round;stroke-miterlimit:10;}
	.st5{fill:none;stroke:#11ACCD;stroke-width:6;stroke-miterlimit:10;}
	.st6{fill:none;stroke:#000000;stroke-linecap:round;stroke-linejoin:round;stroke-miterlimit:10;}
	.st7{fill:none;stroke:#000000;stroke-width:2;stroke-linecap:round;stroke-linejoin:round;stroke-miterlimit:10;}
	.st8{fill:none;stroke:#000000;stroke-width:2;stroke-miterlimit:10;}
	.st9{fill:none;stroke:#000000;stroke-linecap:round;stroke-miterlimit:10;}
	.st10{fill:none;stroke:#000000;stroke-width:1.5;stroke-miterlimit:10;}
	.st11{fill:none;stroke:#000000;stroke-width:2;stroke-linecap:round;stroke-miterlimit:10;}
	.st12{fill:none;}
	.st13{stroke:#000000;stroke-linecap:round;stroke-linejoin:round;stroke-miterlimit:10;}
	.st14{fill:none;stroke:#000000;stroke-miterlimit:10;}
	.st15{fill:#FFFFFF;stroke:#000000;stroke-miterlimit:10;}
	.st16{fill:#1FAB54;}
	.st17{fill:none;stroke:#000000;stroke-width:5;stroke-miterlimit:10;}
	.st18{fill:none;stroke:#000000;stroke-width:4;stroke-miterlimit:10;}
	.st19{fill:#FF9C39;}
	.st20{fill:#E8C11C;}
	.st21{fill:none;stroke:#E8C11C;stroke-linecap:round;stroke-miterlimit:10;}
	.st22{fill:#BABEC2;stroke:#BABEC2;stroke-linecap:round;stroke-linejoin:round;stroke-miterlimit:10;}
	.st23{fill:#BABEC2;stroke:#BABEC2;stroke-miterlimit:10;}
	.st24{fill:none;stroke:#BABEC2;stroke-linecap:round;stroke-linejoin:round;stroke-miterlimit:10;}
	.st25{fill:none;stroke:#1FAB54;stroke-width:2;stroke-linecap:round;stroke-miterlimit:10;}
	.st26{font-family:'KaTeX_Main-Italic';}
	.st27{font-size:21px;}
	.st28{font-family:'KaTeX_Main-Regular';}
	.st29{fill:none;stroke:#BABEC2;stroke-width:2;stroke-linecap:round;stroke-miterlimit:10;}
	.st30{fill:#BABEC2;}
	.st31{fill:none;stroke:#BABEC2;stroke-width:2;stroke-miterlimit:10;}
	.st32{fill:none;stroke:#BABEC2;stroke-width:2;stroke-linecap:round;stroke-linejoin:round;stroke-miterlimit:10;}
	.st33{opacity:0.1;fill:none;stroke:#000000;stroke-width:2;enable-background:new    ;}
	.st34{fill:none;stroke:#000000;stroke-width:2;stroke-linecap:round;stroke-linejoin:round;}
	.st35{fill:none;stroke:#000000;stroke-width:2;}
	.st36{fill:none;stroke:#000000;}
	.st37{clip-path:url(#SVGID_2_);fill:none;stroke:#29ABCA;stroke-width:5;}
	.st38{clip-path:url(#SVGID_4_);fill:none;stroke:#29ABCA;stroke-width:5;}
	.st39{clip-path:url(#SVGID_6_);fill:none;stroke:#E1A158;stroke-width:5;}
	.st40{clip-path:url(#SVGID_8_);fill:none;stroke:#E1A158;stroke-width:5;}
	.st41{clip-path:url(#SVGID_10_);fill:none;stroke:#E1A158;stroke-width:5;}
	.st42{fill:#E07D10;}
	.st43{fill:none;stroke:#FF9C39;stroke-width:2;stroke-linecap:round;stroke-miterlimit:10;}
	.st44{fill:none;stroke:#000000;stroke-width:4;stroke-linecap:round;stroke-miterlimit:10;}
	.st45{fill:none;stroke:#11ACCD;stroke-width:4;stroke-linecap:round;stroke-miterlimit:10;}
	.st46{fill:none;stroke:#E8C11C;stroke-width:2;stroke-miterlimit:10;}
</style><g
     id="g1312"
     transform="translate(12.167111,-3.5586548)"><line
       class="st6"
       x1="192"
       y1="72.599998"
       x2="192"
       y2="54"
       id="line1304"
       style="fill:none;stroke:#000000;stroke-linecap:round;stroke-linejoin:round;stroke-miterlimit:10" /><polyline
       class="st7"
       points="192,119.4 183,115.5 201,107.7 183,99.9 201,92.1 183,84.3 201,76.5 192,72.6  "
       id="polyline1306"
       style="fill:none;stroke:#000000;stroke-width:2;stroke-linecap:round;stroke-linejoin:round;stroke-miterlimit:10" /><line
       class="st6"
       x1="192"
       y1="138"
       x2="192"
       y2="119.4"
       id="line1308"
       style="fill:none;stroke:#000000;stroke-linecap:round;stroke-linejoin:round;stroke-miterlimit:10" /><rect
       x="180"
       y="54"
       class="st12"
       width="24"
       height="84"
       id="rect1310"
       style="fill:none" /></g><g
     id="g1342"
     transform="translate(12.167111,-3.5586548)"><line
       class="st9"
       x1="114"
       y1="126"
       x2="114"
       y2="138"
       id="line1314"
       style="fill:none;stroke:#000000;stroke-linecap:round;stroke-miterlimit:10" /><path
       class="st11"
       d="m 114,112.2 c -5,0 -9,3.1 -9,6.9 0,3.8 4,6.9 9,6.9"
       id="path1316"
       inkscape:connector-curvature="0"
       style="fill:none;stroke:#000000;stroke-width:2;stroke-linecap:round;stroke-miterlimit:10" /><path
       class="st11"
       d="m 114,112.2 c 5,0 9,1 9,2.3 0,1.3 -4,2.3 -9,2.3"
       id="path1318"
       inkscape:connector-curvature="0"
       style="fill:none;stroke:#000000;stroke-width:2;stroke-linecap:round;stroke-miterlimit:10" /><path
       class="st11"
       d="m 114,102.9 c -5,0 -9,3.1 -9,6.9 0,3.8 4,6.9 9,6.9"
       id="path1320"
       inkscape:connector-curvature="0"
       style="fill:none;stroke:#000000;stroke-width:2;stroke-linecap:round;stroke-miterlimit:10" /><path
       class="st11"
       d="m 114,102.9 c 5,0 9,1 9,2.3 0,1.3 -4,2.3 -9,2.3"
       id="path1322"
       inkscape:connector-curvature="0"
       style="fill:none;stroke:#000000;stroke-width:2;stroke-linecap:round;stroke-miterlimit:10" /><path
       class="st11"
       d="m 114,93.7 c -5,0 -9,3.1 -9,6.9 0,3.8 4,6.9 9,6.9"
       id="path1324"
       inkscape:connector-curvature="0"
       style="fill:none;stroke:#000000;stroke-width:2;stroke-linecap:round;stroke-miterlimit:10" /><path
       class="st11"
       d="m 114,93.7 c 5,0 9,1 9,2.3 0,1.3 -4,2.3 -9,2.3"
       id="path1326"
       inkscape:connector-curvature="0"
       style="fill:none;stroke:#000000;stroke-width:2;stroke-linecap:round;stroke-miterlimit:10" /><path
       class="st11"
       d="m 114,84.5 c -5,0 -9,3.1 -9,6.9 0,3.8 4,6.9 9,6.9"
       id="path1328"
       inkscape:connector-curvature="0"
       style="fill:none;stroke:#000000;stroke-width:2;stroke-linecap:round;stroke-miterlimit:10" /><path
       class="st11"
       d="m 114,84.5 c 5,0 9,1 9,2.3 0,1.3 -4,2.3 -9,2.3"
       id="path1330"
       inkscape:connector-curvature="0"
       style="fill:none;stroke:#000000;stroke-width:2;stroke-linecap:round;stroke-miterlimit:10" /><path
       class="st11"
       d="m 114,75.2 c 5,0 9,1 9,2.3 0,1.3 -4,2.3 -9,2.3"
       id="path1332"
       inkscape:connector-curvature="0"
       style="fill:none;stroke:#000000;stroke-width:2;stroke-linecap:round;stroke-miterlimit:10" /><path
       class="st11"
       d="m 114,75.2 c -5,0 -9,3.1 -9,6.9 0,3.8 4,6.9 9,6.9"
       id="path1334"
       inkscape:connector-curvature="0"
       style="fill:none;stroke:#000000;stroke-width:2;stroke-linecap:round;stroke-miterlimit:10" /><path
       class="st11"
       d="m 114,66 c -5,0 -9,3.1 -9,6.9 0,3.8 4,6.9 9,6.9"
       id="path1336"
       inkscape:connector-curvature="0"
       style="fill:none;stroke:#000000;stroke-width:2;stroke-linecap:round;stroke-miterlimit:10" /><line
       class="st9"
       x1="114"
       y1="54"
       x2="114"
       y2="66"
       id="line1338"
       style="fill:none;stroke:#000000;stroke-linecap:round;stroke-miterlimit:10" /><rect
       x="102"
       y="54"
       class="st12"
       width="24"
       height="84"
       id="rect1340"
       style="fill:none" /></g><g
     aria-label="i(0) = I0"
     style="font-style:normal;font-variant:normal;font-weight:normal;font-stretch:normal;font-size:24px;font-family:KaTeX_Main;-inkscape-font-specification:'KaTeX_Main, Normal';font-variant-ligatures:normal;font-variant-caps:normal;font-variant-numeric:normal;font-feature-settings:normal;text-align:start;writing-mode:lr-tb;text-anchor:start;fill:#11accd"
     id="text1346"><path
       d="m 13.912,13.6 q 0,-0.552 0.456,-1.008 0.456,-0.456 1.056,-0.456 0.432,0 0.72,0.288 0.312,0.288 0.312,0.72 0,0.528 -0.48,1.008 -0.48,0.48 -1.056,0.48 -0.432,0 -0.72,-0.288 Q 13.912,14.056 13.912,13.6 Z M 13.36,28.264 q -0.936,0 -1.512,-0.552 -0.576,-0.552 -0.576,-1.488 0,-0.408 0.048,-0.552 0,-0.048 1.104,-2.952 1.104,-2.928 1.104,-2.976 0.12,-0.384 0.12,-0.864 0,-0.576 -0.408,-0.576 h -0.048 q -0.576,0 -1.104,0.552 -0.768,0.792 -1.128,2.256 0,0.024 -0.024,0.096 -0.024,0.048 -0.048,0.072 0,0 -0.024,0.024 -0.024,0.024 -0.096,0.024 -0.048,0 -0.096,0 -0.048,0 -0.192,0 H 10.144 Q 10,21.184 10,21.112 q 0,-0.072 0.072,-0.336 0.624,-2.064 1.824,-2.88 0.648,-0.504 1.392,-0.504 0.96,0 1.584,0.552 0.624,0.552 0.624,1.488 0,0.312 -0.12,0.72 -0.024,0.048 -1.104,2.952 l -1.08,2.904 q -0.12,0.528 -0.12,0.768 0,0.6 0.408,0.6 0.336,0 0.6,-0.144 1.056,-0.504 1.656,-2.52 0.072,-0.288 0.12,-0.336 0.072,-0.048 0.408,-0.048 0.216,0 0.288,0.024 0.096,0 0.144,0.048 0.048,0.048 0.048,0.168 0,0.096 -0.072,0.312 -0.456,1.368 -1.32,2.376 -0.84,1.008 -1.992,1.008 z"
       style="font-style:normal;font-variant:normal;font-weight:normal;font-stretch:normal;font-size:24px;font-family:KaTeX_Math;-inkscape-font-specification:'KaTeX_Math, Normal';font-variant-ligatures:normal;font-variant-caps:normal;font-variant-numeric:normal;font-feature-settings:normal;text-align:start;writing-mode:lr-tb;text-anchor:start"
       id="path1456" /><path
       d="m 25.784875,33.784 q 0,0.216 -0.432,0.216 h -0.312 q -0.168,-0.144 -0.672,-0.576 -4.32,-3.936 -4.32,-11.424 0,-2.928 0.696,-5.352 1.104,-3.768 3.624,-6.072 0.168,-0.144 0.384,-0.312 0.216,-0.192 0.288,-0.264 h 0.312 q 0.288,0 0.36,0.072 0.072,0.072 0.072,0.144 0,0.096 -0.264,0.36 -3.72,3.936 -3.72,11.424 0,7.488 3.72,11.424 0.264,0.264 0.264,0.36 z"
       style="font-style:normal;font-variant:normal;font-weight:normal;font-stretch:normal;font-size:24px;font-family:KaTeX_Main;-inkscape-font-specification:'KaTeX_Main, Normal';font-variant-ligatures:normal;font-variant-caps:normal;font-variant-numeric:normal;font-feature-settings:normal;text-align:start;writing-mode:lr-tb;text-anchor:start;fill:#11accd"
       id="path1458" /><path
       d="m 29.425,13.96 q 1.344,-1.944 3.672,-1.944 1.752,0 3.072,1.2 0.648,0.624 1.104,1.632 0.888,1.992 0.888,5.472 0,3.72 -1.032,5.688 -0.672,1.392 -1.968,2.016 -1.008,0.504 -2.04,0.504 -2.76,0 -4.032,-2.52 -1.032,-1.968 -1.032,-5.688 0,-2.232 0.288,-3.672 0.312,-1.464 1.08,-2.688 z m 5.4,-0.288 q -0.696,-0.768 -1.704,-0.768 -1.008,0 -1.728,0.768 -0.528,0.552 -0.72,1.344 -0.192,0.792 -0.24,2.736 0,0.144 -0.024,0.936 0,0.792 0,1.32 0,2.304 0.048,3.216 0.096,1.68 0.288,2.424 0.192,0.72 0.72,1.248 0.648,0.72 1.656,0.72 0.984,0 1.632,-0.72 0.528,-0.528 0.72,-1.248 0.192,-0.744 0.288,-2.424 0.048,-0.912 0.048,-3.216 0,-0.528 -0.024,-1.32 0,-0.792 0,-0.936 -0.048,-1.944 -0.24,-2.736 -0.192,-0.792 -0.72,-1.344 z"
       style="font-style:normal;font-variant:normal;font-weight:normal;font-stretch:normal;font-size:24px;font-family:KaTeX_Main;-inkscape-font-specification:'KaTeX_Main, Normal';font-variant-ligatures:normal;font-variant-caps:normal;font-variant-numeric:normal;font-feature-settings:normal;text-align:start;writing-mode:lr-tb;text-anchor:start;fill:#11accd"
       id="path1460" /><path
       d="M 40.561,10.024 40.657,10 q 0.12,0 0.24,0 h 0.288 q 0.168,0.144 0.672,0.576 4.32,3.936 4.32,11.424 0,2.952 -0.696,5.328 -1.104,3.792 -3.624,6.096 -0.168,0.144 -0.384,0.312 -0.216,0.192 -0.288,0.264 h -0.288 q -0.288,0 -0.384,-0.048 -0.072,-0.048 -0.072,-0.24 0.024,-0.024 0.264,-0.312 3.72,-3.864 3.72,-11.4 0,-7.536 -3.72,-11.4 -0.24,-0.288 -0.264,-0.312 0,-0.192 0.12,-0.264 z"
       style="font-style:normal;font-variant:normal;font-weight:normal;font-stretch:normal;font-size:24px;font-family:KaTeX_Main;-inkscape-font-specification:'KaTeX_Main, Normal';font-variant-ligatures:normal;font-variant-caps:normal;font-variant-numeric:normal;font-feature-settings:normal;text-align:start;writing-mode:lr-tb;text-anchor:start;fill:#11accd"
       id="path1462" /><path
       d="m 55.793125,19.672 q 0,-0.312 0.336,-0.48 h 15.288 q 0.36,0.168 0.36,0.48 0,0.264 -0.336,0.456 l -7.632,0.024 h -7.632 q -0.384,-0.12 -0.384,-0.48 z m 0,4.656 q 0,-0.36 0.384,-0.48 h 15.264 q 0.024,0.024 0.096,0.096 0.096,0.048 0.12,0.096 0.048,0.024 0.072,0.12 0.048,0.072 0.048,0.168 0,0.312 -0.36,0.48 h -15.288 q -0.336,-0.168 -0.336,-0.48 z"
       style="font-style:normal;font-variant:normal;font-weight:normal;font-stretch:normal;font-size:24px;font-family:KaTeX_Main;-inkscape-font-specification:'KaTeX_Main, Normal';font-variant-ligatures:normal;font-variant-caps:normal;font-variant-numeric:normal;font-feature-settings:normal;text-align:start;writing-mode:lr-tb;text-anchor:start;fill:#11accd"
       id="path1464" /><path
       d="m 86.977375,28 q -0.384,-0.072 -3.552,-0.072 -3.168,0 -3.552,0.072 h -0.264 v -1.104 h 0.528 q 0.936,0 1.584,-0.072 0.288,-0.072 0.408,-0.264 0.048,-0.072 0.048,-6.768 0,-6.672 -0.048,-6.744 -0.12,-0.192 -0.408,-0.264 -0.648,-0.072 -1.584,-0.072 h -0.528 v -1.104 h 0.264 q 0.384,0.072 3.552,0.072 3.168,0 3.552,-0.072 h 0.264 v 1.104 h -0.528 q -0.936,0 -1.584,0.072 -0.288,0.072 -0.408,0.264 -0.048,0.072 -0.048,6.744 0,6.696 0.048,6.768 0.12,0.192 0.408,0.264 0.648,0.072 1.584,0.072 h 0.528 V 28 Z"
       style="font-style:normal;font-variant:normal;font-weight:normal;font-stretch:normal;font-size:24px;font-family:KaTeX_Main;-inkscape-font-specification:'KaTeX_Main, Normal';font-variant-ligatures:normal;font-variant-caps:normal;font-variant-numeric:normal;font-feature-settings:normal;text-align:start;writing-mode:lr-tb;text-anchor:start;fill:#11accd"
       id="path1466" /><path
       d="m 89.27485,23.674001 q 0.8736,-1.2636 2.3868,-1.2636 1.1388,0 1.9968,0.78 0.4212,0.4056 0.7176,1.0608 0.5772,1.294799 0.5772,3.556799 0,2.418 -0.6708,3.6972 -0.4368,0.9048 -1.2792,1.3104 -0.6552,0.3276 -1.326,0.3276 -1.794,0 -2.6208,-1.638 -0.6708,-1.2792 -0.6708,-3.6972 0,-1.4508 0.1872,-2.3868 0.2028,-0.9516 0.702,-1.747199 z m 3.51,-0.1872 q -0.4524,-0.4992 -1.1076,-0.4992 -0.6552,0 -1.1232,0.4992 -0.3432,0.3588 -0.468,0.8736 -0.1248,0.514799 -0.156,1.778399 0,0.0936 -0.0156,0.6084 0,0.5148 0,0.858 0,1.4976 0.0312,2.0904 0.0624,1.092 0.1872,1.5756 0.1248,0.468 0.468,0.8112 0.4212,0.468 1.0764,0.468 0.6396,0 1.0608,-0.468 0.3432,-0.3432 0.468,-0.8112 0.1248,-0.4836 0.1872,-1.5756 0.0312,-0.5928 0.0312,-2.0904 0,-0.3432 -0.0156,-0.858 0,-0.5148 0,-0.6084 -0.0312,-1.2636 -0.156,-1.778399 -0.1248,-0.5148 -0.468,-0.8736 z"
       style="font-size:64.99999762%;baseline-shift:sub"
       id="path1468" /></g><g
     aria-label="R"
     style="font-style:normal;font-variant:normal;font-weight:normal;font-stretch:normal;font-size:24px;font-family:KaTeX_Main;-inkscape-font-specification:'KaTeX_Main, Normal';font-variant-ligatures:normal;font-variant-caps:normal;font-variant-numeric:normal;font-feature-settings:normal;text-align:start;writing-mode:lr-tb;text-anchor:start"
     id="text1350"><path
       d="m 225.28731,83.513246 q -0.24,-0.24 -0.48,-0.288 -0.216,-0.048 -1.2,-0.072 h -0.792 v -1.104 h 4.2 q 4.464,0.024 4.92,0.096 0.072,0.024 0.312,0.072 1.08,0.216 1.92,0.672 2.28,1.152 2.616,3.144 0.024,0.12 0.024,0.384 0,1.344 -1.032,2.352 -1.008,1.008 -2.4,1.464 -0.048,0.024 -0.12,0.048 -0.048,0 -0.096,0.024 l -0.048,0.024 q 0.072,0.072 0.264,0.144 1.728,0.96 2.136,2.544 0.024,0.096 0.264,1.584 0.24,1.488 0.264,1.584 0.168,0.864 0.408,1.272 0.264,0.408 0.672,0.552 0.096,0.048 0.408,0.048 h 0.12 q 0.312,0 0.576,-0.264 0.48,-0.48 0.552,-1.44 0,-0.264 0.072,-0.336 0.096,-0.096 0.408,-0.096 0.288,0 0.384,0.072 0.096,0.048 0.096,0.288 0,0.864 -0.432,1.584 -0.408,0.696 -1.008,0.96 -0.384,0.144 -1.008,0.144 -3.576,-0.144 -4.128,-2.688 -0.048,-0.264 -0.072,-1.752 0,-1.488 -0.144,-1.992 -0.216,-0.648 -0.72,-1.104 -0.48,-0.48 -1.104,-0.672 l -0.24,-0.048 -1.584,-0.024 h -1.584 v 3.144 l 0.024,3.144 q 0.168,0.24 0.408,0.288 0.264,0.048 1.248,0.072 h 0.792 v 1.104 h -0.264 q -0.384,-0.072 -3.408,-0.072 -3.048,0 -3.432,0.072 h -0.264 v -1.104 h 0.792 q 0.984,-0.024 1.2,-0.072 0.24,-0.048 0.48,-0.288 z m 8.64,1.992 q -0.24,-1.44 -1.296,-1.896 -1.032,-0.456 -3.168,-0.456 -0.36,0 -0.816,0.024 -0.456,0 -0.48,0 -0.312,0.024 -0.384,0.192 -0.072,0.096 -0.072,3.264 v 3.168 h 1.392 q 1.8,0 2.664,-0.144 0.864,-0.168 1.512,-0.816 0.408,-0.408 0.528,-0.912 0.144,-0.504 0.144,-1.464 0,-0.768 -0.024,-0.96 z"
       style="font-style:normal;font-variant:normal;font-weight:normal;font-stretch:normal;font-size:24px;font-family:KaTeX_Main;-inkscape-font-specification:'KaTeX_Main, Normal';font-variant-ligatures:normal;font-variant-caps:normal;font-variant-numeric:normal;font-feature-settings:normal;text-align:start;writing-mode:lr-tb;text-anchor:start"
       id="path1453" /></g><g
     aria-label="L"
     style="font-style:normal;font-variant:normal;font-weight:normal;font-stretch:normal;font-size:24px;font-family:KaTeX_Main;-inkscape-font-specification:'KaTeX_Main, Normal';font-variant-ligatures:normal;font-variant-caps:normal;font-variant-numeric:normal;font-feature-settings:normal;text-align:start;writing-mode:lr-tb;text-anchor:start"
     id="text1352"><path
       d="m 99.239313,83.513246 q -0.24,-0.24 -0.48,-0.288 -0.216,-0.048 -1.2,-0.072 h -0.792 v -1.104 h 0.264 q 0.432,0.072 3.503997,0.072 3.552,0 3.984,-0.072 h 0.288 v 1.104 h -0.648 q -0.888,0 -1.152,0.024 -0.672,0.024 -0.864,0.096 -0.192,0.048 -0.384,0.24 l -0.024,6.72 q 0,6.72 0.024,6.792 0.024,0.12 0.096,0.168 0.144,0.12 1.824,0.12 1.704,0 2.328,-0.144 1.416,-0.408 2.088,-1.344 0.672,-0.936 0.936,-2.688 0,-0.12 0.024,-0.408 0.048,-0.312 0.072,-0.552 0.048,-0.24 0.048,-0.264 0,-0.024 0.48,-0.024 h 0.48 v 0.12 q -0.048,0.072 -0.336,3.168 -0.288,3.072 -0.336,3.144 v 0.12 H 96.767313 v -1.104 h 0.792 q 0.984,-0.024 1.2,-0.072 0.24,-0.048 0.48,-0.288 z"
       style="font-style:normal;font-variant:normal;font-weight:normal;font-stretch:normal;font-size:24px;font-family:KaTeX_Main;-inkscape-font-specification:'KaTeX_Main, Normal';font-variant-ligatures:normal;font-variant-caps:normal;font-variant-numeric:normal;font-feature-settings:normal;text-align:start;writing-mode:lr-tb;text-anchor:start"
       id="path1450" /></g><g
     aria-label="vR"
     style="font-style:normal;font-variant:normal;font-weight:normal;font-stretch:normal;font-size:24px;font-family:KaTeX_Main;-inkscape-font-specification:'KaTeX_Main, Normal';font-variant-ligatures:normal;font-variant-caps:normal;font-variant-numeric:normal;font-feature-settings:normal;text-align:start;writing-mode:lr-tb;text-anchor:start;fill:#ff9c39"
     id="text1354"><path
       d="m 269.95102,98.705345 q -1.536,0 -2.448,-0.768 -0.888,-0.792 -0.888,-2.304 0,-0.432 0.048,-0.816 0.216,-1.152 1.128,-3.528 l 0.384,-1.152 q 0.144,-0.432 0.144,-0.816 0,-0.6 -0.456,-0.6 -0.168,0 -0.384,0.072 -1.224,0.432 -1.848,2.76 0,0.024 -0.024,0.096 -0.024,0.048 -0.048,0.072 0,0 -0.024,0.024 -0.024,0.024 -0.096,0.024 -0.048,0 -0.096,0 -0.048,0 -0.192,0 h -0.336 q -0.144,-0.144 -0.144,-0.216 0,-0.072 0.072,-0.36 0.576,-1.896 1.776,-2.832 0.648,-0.504 1.488,-0.504 0.936,0 1.536,0.528 0.6,0.528 0.6,1.392 0,0.408 -0.072,0.624 0,0.168 -0.36,1.056 -1.104,3 -1.176,4.272 0,0.648 0.12,1.056 0.312,1.032 1.512,1.032 0.648,0 1.152,-0.384 1.488,-0.984 2.472,-4.536 0.192,-0.672 0.192,-1.104 0,-1.056 -0.936,-1.896 -0.312,-0.288 -0.312,-0.648 0,-0.552 0.432,-0.984 0.456,-0.456 1.008,-0.456 0.576,0 0.888,0.552 0.312,0.528 0.312,1.272 0,0.84 -0.48,2.76 -0.456,1.848 -1.152,3.216 -1.512,3.096 -3.792,3.096 z"
       style="font-style:normal;font-variant:normal;font-weight:normal;font-stretch:normal;font-size:24px;font-family:KaTeX_Math;-inkscape-font-specification:'KaTeX_Math, Normal';font-variant-ligatures:normal;font-variant-caps:normal;font-variant-numeric:normal;font-feature-settings:normal;text-align:start;writing-mode:lr-tb;text-anchor:start"
       id="path1445" /><path
       d="m 277.82002,93.538146 q -0.156,-0.156 -0.312,-0.1872 -0.1404,-0.0312 -0.78,-0.0468 h -0.5148 v -0.7176 h 2.73 q 2.9016,0.0156 3.198,0.0624 0.0468,0.0156 0.2028,0.0468 0.702,0.1404 1.248,0.4368 1.482,0.7488 1.7004,2.0436 0.0156,0.078 0.0156,0.2496 0,0.8736 -0.6708,1.5288 -0.6552,0.6552 -1.56,0.9516 -0.0312,0.0156 -0.078,0.0312 -0.0312,0 -0.0624,0.0156 l -0.0312,0.0156 q 0.0468,0.0468 0.1716,0.0936 1.1232,0.624 1.3884,1.6536 0.0156,0.0624 0.1716,1.029604 0.156,0.9672 0.1716,1.0296 0.1092,0.5616 0.2652,0.8268 0.1716,0.2652 0.4368,0.3588 0.0624,0.0312 0.2652,0.0312 h 0.078 q 0.2028,0 0.3744,-0.1716 0.312,-0.312 0.3588,-0.936 0,-0.1716 0.0468,-0.2184 0.0624,-0.0624 0.2652,-0.0624 0.1872,0 0.2496,0.0468 0.0624,0.0312 0.0624,0.1872 0,0.5616 -0.2808,1.0296 -0.2652,0.4524 -0.6552,0.624 -0.2496,0.0936 -0.6552,0.0936 -2.3244,-0.0936 -2.6832,-1.7472 -0.0312,-0.1716 -0.0468,-1.1388 0,-0.967204 -0.0936,-1.294804 -0.1404,-0.4212 -0.468,-0.7176 -0.312,-0.312 -0.7176,-0.4368 l -0.156,-0.0312 -1.0296,-0.0156 h -1.0296 v 2.043604 l 0.0156,2.0436 q 0.1092,0.156 0.2652,0.1872 0.1716,0.0312 0.8112,0.0468 h 0.5148 v 0.7176 h -0.1716 q -0.2496,-0.0468 -2.2152,-0.0468 -1.9812,0 -2.2308,0.0468 h -0.1716 v -0.7176 h 0.5148 q 0.6396,-0.0156 0.78,-0.0468 0.156,-0.0312 0.312,-0.1872 z m 5.616,1.2948 q -0.156,-0.936 -0.8424,-1.2324 -0.6708,-0.2964 -2.0592,-0.2964 -0.234,0 -0.5304,0.0156 -0.2964,0 -0.312,0 -0.2028,0.0156 -0.2496,0.1248 -0.0468,0.0624 -0.0468,2.1216 v 2.0592 h 0.9048 q 1.17,0 1.7316,-0.0936 0.5616,-0.1092 0.9828,-0.5304 0.2652,-0.2652 0.3432,-0.5928 0.0936,-0.3276 0.0936,-0.9516 0,-0.4992 -0.0156,-0.624 z"
       style="font-size:64.99999762%;baseline-shift:sub"
       id="path1447" /></g><g
     aria-label="vL"
     style="font-style:normal;font-variant:normal;font-weight:normal;font-stretch:normal;font-size:24px;font-family:KaTeX_Main;-inkscape-font-specification:'KaTeX_Main, Normal';font-variant-ligatures:normal;font-variant-caps:normal;font-variant-numeric:normal;font-feature-settings:normal;text-align:start;writing-mode:lr-tb;text-anchor:start;fill:#ff9c39"
     id="text1358"><path
       d="m 50.171486,92.705345 q -1.536,0 -2.448,-0.768 -0.888,-0.792 -0.888,-2.304 0,-0.432 0.048,-0.816 0.216,-1.152 1.128,-3.528 l 0.384,-1.152 q 0.144,-0.432 0.144,-0.816 0,-0.6 -0.456,-0.6 -0.168,0 -0.384,0.072 -1.224,0.432 -1.848,2.76 0,0.024 -0.024,0.096 -0.024,0.048 -0.048,0.072 0,0 -0.024,0.024 -0.024,0.024 -0.096,0.024 -0.048,0 -0.096,0 -0.048,0 -0.192,0 h -0.336 q -0.144,-0.144 -0.144,-0.216 0,-0.072 0.072,-0.36 0.576,-1.896 1.776,-2.832 0.648,-0.504 1.488,-0.504 0.936,0 1.536,0.528 0.6,0.528 0.6,1.392 0,0.408 -0.072,0.624 0,0.168 -0.36,1.056 -1.104,3 -1.176,4.272 0,0.648 0.12,1.056 0.312,1.032 1.512,1.032 0.648,0 1.152,-0.384 1.488,-0.984 2.472,-4.536 0.192,-0.672 0.192,-1.104 0,-1.056 -0.936,-1.896 -0.312,-0.288 -0.312,-0.648 0,-0.552 0.432,-0.984 0.456,-0.456 1.008,-0.456 0.576,0 0.888,0.552 0.312,0.528 0.312,1.272 0,0.84 -0.48,2.76 -0.456,1.848 -1.152,3.216 -1.512,3.096 -3.792,3.096 z"
       style="font-style:normal;font-variant:normal;font-weight:normal;font-stretch:normal;font-size:24px;font-family:KaTeX_Math;-inkscape-font-specification:'KaTeX_Math, Normal';font-variant-ligatures:normal;font-variant-caps:normal;font-variant-numeric:normal;font-feature-settings:normal;text-align:start;writing-mode:lr-tb;text-anchor:start"
       id="path1440" /><path
       d="m 58.009285,87.538146 q -0.156,-0.156 -0.312,-0.1872 -0.1404,-0.0312 -0.78,-0.0468 h -0.5148 v -0.7176 h 0.1716 q 0.2808,0.0468 2.2776,0.0468 2.3088,0 2.5896,-0.0468 h 0.1872 v 0.7176 h -0.4212 q -0.5772,0 -0.7488,0.0156 -0.4368,0.0156 -0.5616,0.0624 -0.1248,0.0312 -0.2496,0.156 l -0.0156,4.368 q 0,4.367999 0.0156,4.414799 0.0156,0.078 0.0624,0.1092 0.0936,0.078 1.1856,0.078 1.1076,0 1.5132,-0.0936 0.9204,-0.2652 1.3572,-0.8736 0.4368,-0.6084 0.6084,-1.747199 0,-0.078 0.0156,-0.2652 0.0312,-0.2028 0.0468,-0.3588 0.0312,-0.156 0.0312,-0.1716 0,-0.0156 0.312,-0.0156 h 0.312 v 0.078 q -0.0312,0.0468 -0.2184,2.059199 -0.1872,1.9968 -0.2184,2.0436 v 0.078 h -8.2524 v -0.7176 h 0.5148 q 0.6396,-0.0156 0.78,-0.0468 0.156,-0.0312 0.312,-0.1872 z"
       style="font-size:64.99999762%;baseline-shift:sub"
       id="path1442" /></g><g
     aria-label="+"
     style="font-style:normal;font-variant:normal;font-weight:normal;font-stretch:normal;font-size:24px;font-family:KaTeX_Main;-inkscape-font-specification:'KaTeX_Main, Normal';font-variant-ligatures:normal;font-variant-caps:normal;font-variant-numeric:normal;font-feature-settings:normal;text-align:start;writing-mode:lr-tb;text-anchor:start;fill:#ff9c39"
     id="text1362"><path
       d="m 85.847007,128.92185 q -0.336,-0.168 -0.336,-0.48 0,-0.312 0.336,-0.48 h 7.176 v -3.6 l 0.024,-3.6 q 0.24,-0.312 0.456,-0.312 0.312,0 0.48,0.36 v 7.152 h 7.152003 q 0.36,0.192 0.36,0.48 0,0.288 -0.36,0.48 h -7.152003 v 7.152 q -0.168,0.336 -0.48,0.336 -0.312,0 -0.48,-0.336 v -7.152 z"
       style="font-style:normal;font-variant:normal;font-weight:normal;font-stretch:normal;font-size:24px;font-family:KaTeX_Main;-inkscape-font-specification:'KaTeX_Main, Normal';font-variant-ligatures:normal;font-variant-caps:normal;font-variant-numeric:normal;font-feature-settings:normal;text-align:start;writing-mode:lr-tb;text-anchor:start;fill:#ff9c39"
       id="path1437" /></g><g
     aria-label="−"
     style="font-style:normal;font-variant:normal;font-weight:normal;font-stretch:normal;font-size:24px;font-family:KaTeX_Main;-inkscape-font-specification:'KaTeX_Main, Normal';font-variant-ligatures:normal;font-variant-caps:normal;font-variant-numeric:normal;font-feature-settings:normal;text-align:start;writing-mode:lr-tb;text-anchor:start;fill:#ff9c39"
     id="text1364"><path
       d="m 86.519313,56.921444 q -0.336,-0.168 -0.336,-0.48 0,-0.312 0.336,-0.48 h 13.943997 q 0.36,0.192 0.36,0.48 0,0.288 -0.36,0.48 z"
       style="font-style:normal;font-variant:normal;font-weight:normal;font-stretch:normal;font-size:24px;font-family:KaTeX_Main;-inkscape-font-specification:'KaTeX_Main, Normal';font-variant-ligatures:normal;font-variant-caps:normal;font-variant-numeric:normal;font-feature-settings:normal;text-align:start;writing-mode:lr-tb;text-anchor:start;fill:#ff9c39"
       id="path1434" /></g><g
     aria-label="+"
     style="font-style:normal;font-variant:normal;font-weight:normal;font-stretch:normal;font-size:24px;font-family:KaTeX_Main;-inkscape-font-specification:'KaTeX_Main, Normal';font-variant-ligatures:normal;font-variant-caps:normal;font-variant-numeric:normal;font-feature-settings:normal;text-align:start;writing-mode:lr-tb;text-anchor:start;fill:#ff9c39"
     id="text1366"><path
       d="m 229.84701,56.921845 q -0.336,-0.168 -0.336,-0.48 0,-0.312 0.336,-0.48 h 7.176 v -3.6 l 0.024,-3.6 q 0.24,-0.312 0.456,-0.312 0.312,0 0.48,0.36 v 7.152 h 7.152 q 0.36,0.192 0.36,0.48 0,0.288 -0.36,0.48 h -7.152 v 7.152 q -0.168,0.336 -0.48,0.336 -0.312,0 -0.48,-0.336 v -7.152 z"
       style="font-style:normal;font-variant:normal;font-weight:normal;font-stretch:normal;font-size:24px;font-family:KaTeX_Main;-inkscape-font-specification:'KaTeX_Main, Normal';font-variant-ligatures:normal;font-variant-caps:normal;font-variant-numeric:normal;font-feature-settings:normal;text-align:start;writing-mode:lr-tb;text-anchor:start;fill:#ff9c39"
       id="path1431" /></g><g
     aria-label="−"
     style="font-style:normal;font-variant:normal;font-weight:normal;font-stretch:normal;font-size:24px;font-family:KaTeX_Main;-inkscape-font-specification:'KaTeX_Main, Normal';font-variant-ligatures:normal;font-variant-caps:normal;font-variant-numeric:normal;font-feature-settings:normal;text-align:start;writing-mode:lr-tb;text-anchor:start;fill:#ff9c39"
     id="text1368"><path
       d="m 230.51931,128.92145 q -0.336,-0.168 -0.336,-0.48 0,-0.312 0.336,-0.48 h 13.944 q 0.36,0.192 0.36,0.48 0,0.288 -0.36,0.48 z"
       style="font-style:normal;font-variant:normal;font-weight:normal;font-stretch:normal;font-size:24px;font-family:KaTeX_Main;-inkscape-font-specification:'KaTeX_Main, Normal';font-variant-ligatures:normal;font-variant-caps:normal;font-variant-numeric:normal;font-feature-settings:normal;text-align:start;writing-mode:lr-tb;text-anchor:start;fill:#ff9c39"
       id="path1428" /></g><g
     aria-label="i"
     style="font-style:normal;font-variant:normal;font-weight:normal;font-stretch:normal;font-size:24px;font-family:KaTeX_Math;-inkscape-font-specification:'KaTeX_Math, Normal';font-variant-ligatures:normal;font-variant-caps:normal;font-variant-numeric:normal;font-feature-settings:normal;text-align:start;writing-mode:lr-tb;text-anchor:start;fill:#11accd"
     id="text1370"><path
       d="m 106.58311,30.041746 q 0,-0.552 0.456,-1.008 0.456,-0.456 1.056,-0.456 0.432,0 0.72,0.288 0.312,0.288 0.312,0.72 0,0.528 -0.48,1.008 -0.48,0.48 -1.056,0.48 -0.432,0 -0.72,-0.288 -0.288,-0.288 -0.288,-0.744 z m -0.552,14.664 q -0.936,0 -1.512,-0.552 -0.576,-0.552 -0.576,-1.488 0,-0.408 0.048,-0.552 0,-0.048 1.104,-2.952 1.104,-2.928 1.104,-2.976 0.12,-0.384 0.12,-0.864 0,-0.576 -0.408,-0.576 h -0.048 q -0.576,0 -1.104,0.552 -0.768,0.792 -1.128,2.256 0,0.024 -0.024,0.096 -0.024,0.048 -0.048,0.072 0,0 -0.024,0.024 -0.024,0.024 -0.096,0.024 -0.048,0 -0.096,0 -0.048,0 -0.192,0 h -0.336 q -0.144,-0.144 -0.144,-0.216 0,-0.072 0.072,-0.336 0.624,-2.064 1.824,-2.88 0.648,-0.504 1.392,-0.504 0.96,0 1.584,0.552 0.624,0.552 0.624,1.488 0,0.312 -0.12,0.72 -0.024,0.048 -1.104,2.952 l -1.08,2.904 q -0.12,0.528 -0.12,0.768 0,0.6 0.408,0.6 0.336,0 0.6,-0.144 1.056,-0.504 1.656,-2.52 0.072,-0.288 0.12,-0.336 0.072,-0.048 0.408,-0.048 0.216,0 0.288,0.024 0.096,0 0.144,0.048 0.048,0.048 0.048,0.168 0,0.096 -0.072,0.312 -0.456,1.368 -1.32,2.376 -0.84,1.008 -1.992,1.008 z"
       style="font-style:normal;font-variant:normal;font-weight:normal;font-stretch:normal;font-size:24px;font-family:KaTeX_Math;-inkscape-font-specification:'KaTeX_Math, Normal';font-variant-ligatures:normal;font-variant-caps:normal;font-variant-numeric:normal;font-feature-settings:normal;text-align:start;writing-mode:lr-tb;text-anchor:start;fill:#11accd"
       id="path1425" /></g><g
     id="g1380"
     transform="translate(12.167111,-3.5586548)"><g
       id="g1378"><path
         class="st43"
         d="m 240,132 c 3.7,-7 6.2,-20.5 6.2,-36 0,-11.4 -1.4,-21.8 -3.6,-29.3"
         id="path1372"
         inkscape:connector-curvature="0"
         style="fill:none;stroke:#ff9c39;stroke-width:2;stroke-linecap:round;stroke-miterlimit:10" /><g
         id="g1376"><path
           class="st19"
           d="m 240,60 c 2.4,2.7 5.9,5.9 9,7.6 l -6.1,0.1 -4.6,3.9 c 1.2,-3.2 1.7,-8 1.7,-11.6 z"
           id="path1374"
           inkscape:connector-curvature="0"
           style="fill:#ff9c39" /></g></g></g><g
     id="g1390"
     transform="translate(12.167111,-3.5586548)"><g
       id="g1388"><path
         class="st43"
         d="M 63.6,125.3 C 61.4,117.8 60,107.4 60,96 60,80.5 62.5,67 66.2,60"
         id="path1382"
         inkscape:connector-curvature="0"
         style="fill:none;stroke:#ff9c39;stroke-width:2;stroke-linecap:round;stroke-miterlimit:10" /><g
         id="g1386"><path
           class="st19"
           d="m 66.2,132 c 0,-3.6 0.5,-8.4 1.7,-11.6 l -4.6,3.9 -6.1,0.1 c 3.1,1.7 6.6,4.9 9,7.6 z"
           id="path1384"
           inkscape:connector-curvature="0"
           style="fill:#ff9c39" /></g></g></g><polyline
     class="st14"
     points="114,54 114,24 192,24 192,54 "
     id="polyline1392"
     style="fill:none;stroke:#000000;stroke-miterlimit:10"
     transform="translate(12.167111,-3.5586548)" /><polyline
     class="st14"
     points="192,138 192,168 114,168 114,138 "
     id="polyline1394"
     style="fill:none;stroke:#000000;stroke-miterlimit:10"
     transform="translate(12.167111,-3.5586548)" /><g
     id="g1404"
     transform="translate(12.167111,-3.5586548)"><g
       id="g1402"><line
         class="st1"
         x1="114"
         y1="54"
         x2="114"
         y2="39.099998"
         id="line1396"
         style="fill:none;stroke:#11accd;stroke-width:3;stroke-linecap:round;stroke-miterlimit:10" /><g
         id="g1400"><path
           class="st2"
           d="m 114,30 c 1.6,4.3 4.3,9.5 7.1,12.8 l -7.1,-2.6 -7.1,2.6 c 2.8,-3.3 5.5,-8.5 7.1,-12.8 z"
           id="path1398"
           inkscape:connector-curvature="0"
           style="fill:#11accd" /></g></g></g></svg>