<?xml version="1.0" encoding="UTF-8" standalone="no"?>
<!-- Generator: Adobe Illustrator 19.1.0, SVG Export Plug-In . SVG Version: 6.00 Build 0)  -->

<svg
   xmlns:dc="http://purl.org/dc/elements/1.1/"
   xmlns:cc="http://creativecommons.org/ns#"
   xmlns:rdf="http://www.w3.org/1999/02/22-rdf-syntax-ns#"
   xmlns:svg="http://www.w3.org/2000/svg"
   xmlns="http://www.w3.org/2000/svg"
   xmlns:sodipodi="http://sodipodi.sourceforge.net/DTD/sodipodi-0.dtd"
   xmlns:inkscape="http://www.inkscape.org/namespaces/inkscape"
   version="1.1"
   id="Layer_1"
   x="0px"
   y="0px"
   viewBox="0 0 228.40259 117.01424"
   xml:space="preserve"
   sodipodi:docname="rl_natural_response15.svg"
   width="228.40259"
   height="117.01424"
   inkscape:version="0.92.2 5c3e80d, 2017-08-06"><metadata
     id="metadata2330"><rdf:RDF><cc:Work
         rdf:about=""><dc:format>image/svg+xml</dc:format><dc:type
           rdf:resource="http://purl.org/dc/dcmitype/StillImage" /><dc:title></dc:title></cc:Work></rdf:RDF></metadata><defs
     id="defs2328" /><sodipodi:namedview
     pagecolor="#ffffff"
     bordercolor="#666666"
     borderopacity="1"
     objecttolerance="10"
     gridtolerance="10"
     guidetolerance="10"
     inkscape:pageopacity="0"
     inkscape:pageshadow="2"
     inkscape:window-width="640"
     inkscape:window-height="480"
     id="namedview2326"
     showgrid="false"
     fit-margin-top="10"
     fit-margin-right="10"
     fit-margin-bottom="10"
     fit-margin-left="10"
     inkscape:zoom="2.1934953"
     inkscape:cx="114.20129"
     inkscape:cy="58.507118"
     inkscape:current-layer="Layer_1" /><style
     type="text/css"
     id="style2257">
	.st0{fill:none;stroke:#11ACCD;stroke-width:3;stroke-linecap:round;stroke-miterlimit:10;}
	.st1{fill:#11ACCD;}
	.st2{fill:none;stroke:#11ACCD;stroke-width:4;stroke-miterlimit:10;}
	.st3{fill:none;stroke:#BABEC2;stroke-linecap:round;stroke-linejoin:round;}
	.st4{fill:#BABEC2;}
	.st5{fill:none;stroke:#000000;stroke-linecap:round;stroke-linejoin:round;stroke-miterlimit:10;}
	.st6{fill:none;stroke:#000000;stroke-width:2;stroke-linecap:round;stroke-linejoin:round;stroke-miterlimit:10;}
	.st7{fill:none;stroke:#000000;stroke-width:2;stroke-miterlimit:10;}
	.st8{fill:none;stroke:#000000;stroke-linecap:round;stroke-miterlimit:10;}
	.st9{fill:none;stroke:#000000;stroke-width:1.5;stroke-miterlimit:10;}
	.st10{fill:none;stroke:#000000;stroke-width:2;stroke-linecap:round;stroke-miterlimit:10;}
	.st11{fill:none;}
	.st12{stroke:#000000;stroke-linecap:round;stroke-linejoin:round;stroke-miterlimit:10;}
	.st13{fill:none;stroke:#000000;stroke-miterlimit:10;}
	.st14{fill:#FFFFFF;stroke:#000000;stroke-miterlimit:10;}
	.st15{font-family:'KaTeX_Main-Italic';}
	.st16{font-size:18px;}
	.st17{fill:#1FAB54;}
	.st18{fill:none;stroke:#000000;stroke-width:4;stroke-miterlimit:10;}
	.st19{fill:#FF9C39;}
	.st20{fill:none;stroke:#000000;stroke-linecap:round;stroke-linejoin:round;}
	.st21{fill:none;stroke:#1FAB54;stroke-width:2;stroke-linecap:round;stroke-miterlimit:10;}
	.st22{font-family:'KaTeX_Main-Regular';}
	.st23{font-size:21px;}
</style><g
     id="g2267"
     transform="translate(14.834583,-10.228239)"><g
       id="g2265"><line
         class="st0"
         x1="42"
         y1="63.099998"
         x2="42"
         y2="78"
         id="line2259"
         style="fill:none;stroke:#11accd;stroke-width:3;stroke-linecap:round;stroke-miterlimit:10" /><g
         id="g2263"><path
           class="st1"
           d="m 42,54 c -1.6,4.3 -4.3,9.5 -7.1,12.8 l 7.1,-2.6 7.1,2.6 C 46.3,63.5 43.6,58.3 42,54 Z"
           id="path2261"
           inkscape:connector-curvature="0"
           style="fill:#11accd" /></g></g></g><g
     aria-label="i(t)"
     style="font-style:normal;font-variant:normal;font-weight:normal;font-stretch:normal;font-size:24px;font-family:KaTeX_Main;-inkscape-font-specification:'KaTeX_Main, Normal';font-variant-ligatures:normal;font-variant-caps:normal;font-variant-numeric:normal;font-feature-settings:normal;text-align:start;writing-mode:lr-tb;text-anchor:start;fill:#11accd"
     id="text2269"><path
       d="m 13.912,50.10692 q 0,-0.552 0.456,-1.008 0.456,-0.456 1.056,-0.456 0.432,0 0.72,0.288 0.312,0.288 0.312,0.72 0,0.528 -0.48,1.008 -0.48,0.48 -1.056,0.48 -0.432,0 -0.72,-0.288 -0.288,-0.288 -0.288,-0.744 z m -0.552,14.664 q -0.936,0 -1.512,-0.552 -0.576,-0.552 -0.576,-1.488 0,-0.408 0.048,-0.552 0,-0.048 1.104,-2.952 1.104,-2.928 1.104,-2.976 0.12,-0.384 0.12,-0.864 0,-0.576 -0.408,-0.576 h -0.048 q -0.576,0 -1.104,0.552 -0.768,0.792 -1.128,2.256 0,0.024 -0.024,0.096 -0.024,0.048 -0.048,0.072 0,0 -0.024,0.024 -0.024,0.024 -0.096,0.024 -0.048,0 -0.096,0 -0.048,0 -0.192,0 H 10.144 Q 10,57.69092 10,57.61892 q 0,-0.072 0.072,-0.336 0.624,-2.064 1.824,-2.88 0.648,-0.504 1.392,-0.504 0.96,0 1.584,0.552 0.624,0.552 0.624,1.488 0,0.312 -0.12,0.72 -0.024,0.048 -1.104,2.952 l -1.08,2.904 q -0.12,0.528 -0.12,0.768 0,0.6 0.408,0.6 0.336,0 0.6,-0.144 1.056,-0.504 1.656,-2.52 0.072,-0.288 0.12,-0.336 0.072,-0.048 0.408,-0.048 0.216,0 0.288,0.024 0.096,0 0.144,0.048 0.048,0.048 0.048,0.168 0,0.096 -0.072,0.312 -0.456,1.368 -1.32,2.376 -0.84,1.008 -1.992,1.008 z"
       style="font-style:normal;font-variant:normal;font-weight:normal;font-stretch:normal;font-size:24px;font-family:KaTeX_Math;-inkscape-font-specification:'KaTeX_Math, Normal';font-variant-ligatures:normal;font-variant-caps:normal;font-variant-numeric:normal;font-feature-settings:normal;text-align:start;writing-mode:lr-tb;text-anchor:start"
       id="path2900" /><path
       d="m 25.784875,70.29092 q 0,0.216 -0.432,0.216 h -0.312 q -0.168,-0.144 -0.672,-0.576 -4.32,-3.936 -4.32,-11.424 0,-2.928 0.696,-5.352 1.104,-3.768 3.624,-6.072 0.168,-0.144 0.384,-0.312 0.216,-0.192 0.288,-0.264 h 0.312 q 0.288,0 0.36,0.072 0.072,0.072 0.072,0.144 0,0.096 -0.264,0.36 -3.72,3.936 -3.72,11.424 0,7.488 3.72,11.424 0.264,0.264 0.264,0.36 z"
       style="font-style:normal;font-variant:normal;font-weight:normal;font-stretch:normal;font-size:24px;font-family:KaTeX_Main;-inkscape-font-specification:'KaTeX_Main, Normal';font-variant-ligatures:normal;font-variant-caps:normal;font-variant-numeric:normal;font-feature-settings:normal;text-align:start;writing-mode:lr-tb;text-anchor:start;fill:#11accd"
       id="path2902" /><path
       d="m 30.505,50.10692 v -0.36 h 0.96 v 4.416 h 3.24 v 1.104 h -3.24 v 3.456 q 0.024,3 0.024,3.408 0.024,0.384 0.168,0.744 0.336,0.936 1.176,0.936 1.056,0 1.296,-1.704 0.024,-0.192 0.024,-1.104 v -0.84 h 0.96 v 0.84 q 0,1.104 -0.12,1.584 -0.264,0.96 -0.912,1.56 -0.624,0.6 -1.656,0.6 -1.296,0 -2.064,-0.696 -0.768,-0.72 -0.888,-1.944 -0.024,-0.168 -0.024,-3.552 v -3.288 h -1.896 v -0.888 h 0.216 q 0.888,-0.072 1.512,-0.768 1.104,-1.152 1.224,-3.504 z"
       style="font-style:normal;font-variant:normal;font-weight:normal;font-stretch:normal;font-size:24px;font-family:KaTeX_Main;-inkscape-font-specification:'KaTeX_Main, Normal';font-variant-ligatures:normal;font-variant-caps:normal;font-variant-numeric:normal;font-feature-settings:normal;text-align:start;writing-mode:lr-tb;text-anchor:start;fill:#11accd"
       id="path2904" /><path
       d="m 37.889125,46.53092 0.096,-0.024 q 0.12,0 0.24,0 h 0.288 q 0.168,0.144 0.672,0.576 4.32,3.936 4.32,11.424 0,2.952 -0.696,5.328 -1.104,3.792 -3.624,6.096 -0.168,0.144 -0.384,0.312 -0.216,0.192 -0.288,0.264 h -0.288 q -0.288,0 -0.384,-0.048 -0.072,-0.048 -0.072,-0.24 0.024,-0.024 0.264,-0.312 3.72,-3.864 3.72,-11.4 0,-7.536 -3.72,-11.4 -0.24,-0.288 -0.264,-0.312 0,-0.192 0.12,-0.264 z"
       style="font-style:normal;font-variant:normal;font-weight:normal;font-stretch:normal;font-size:24px;font-family:KaTeX_Main;-inkscape-font-specification:'KaTeX_Main, Normal';font-variant-ligatures:normal;font-variant-caps:normal;font-variant-numeric:normal;font-feature-settings:normal;text-align:start;writing-mode:lr-tb;text-anchor:start;fill:#11accd"
       id="path2906" /></g><g
     id="g2279"
     transform="translate(14.834583,-7.4928788)"><line
       class="st5"
       x1="168"
       y1="42.599998"
       x2="168"
       y2="18"
       id="line2271"
       style="fill:none;stroke:#000000;stroke-linecap:round;stroke-linejoin:round;stroke-miterlimit:10" /><polyline
       class="st6"
       points="168,89.4 159,85.5 177,77.7 159,69.9 177,62.1 159,54.3 177,46.5 168,42.6  "
       id="polyline2273"
       style="fill:none;stroke:#000000;stroke-width:2;stroke-linecap:round;stroke-linejoin:round;stroke-miterlimit:10" /><line
       class="st5"
       x1="168"
       y1="114"
       x2="168"
       y2="89.400002"
       id="line2275"
       style="fill:none;stroke:#000000;stroke-linecap:round;stroke-linejoin:round;stroke-miterlimit:10" /><rect
       x="156"
       y="18"
       class="st11"
       width="24"
       height="96"
       id="rect2277"
       style="fill:none" /></g><g
     id="g2309"
     transform="translate(14.834583,-7.4928788)"><line
       class="st8"
       x1="84"
       y1="96"
       x2="84"
       y2="114"
       id="line2281"
       style="fill:none;stroke:#000000;stroke-linecap:round;stroke-miterlimit:10" /><path
       class="st10"
       d="m 84,82.2 c -5,0 -9,3.1 -9,6.9 0,3.8 4,6.9 9,6.9"
       id="path2283"
       inkscape:connector-curvature="0"
       style="fill:none;stroke:#000000;stroke-width:2;stroke-linecap:round;stroke-miterlimit:10" /><path
       class="st10"
       d="m 84,82.2 c 5,0 9,1 9,2.3 0,1.3 -4,2.3 -9,2.3"
       id="path2285"
       inkscape:connector-curvature="0"
       style="fill:none;stroke:#000000;stroke-width:2;stroke-linecap:round;stroke-miterlimit:10" /><path
       class="st10"
       d="m 84,72.9 c -5,0 -9,3.1 -9,6.9 0,3.8 4,6.9 9,6.9"
       id="path2287"
       inkscape:connector-curvature="0"
       style="fill:none;stroke:#000000;stroke-width:2;stroke-linecap:round;stroke-miterlimit:10" /><path
       class="st10"
       d="m 84,72.9 c 5,0 9,1 9,2.3 0,1.3 -4,2.3 -9,2.3"
       id="path2289"
       inkscape:connector-curvature="0"
       style="fill:none;stroke:#000000;stroke-width:2;stroke-linecap:round;stroke-miterlimit:10" /><path
       class="st10"
       d="m 84,63.7 c -5,0 -9,3.1 -9,6.9 0,3.8 4,6.9 9,6.9"
       id="path2291"
       inkscape:connector-curvature="0"
       style="fill:none;stroke:#000000;stroke-width:2;stroke-linecap:round;stroke-miterlimit:10" /><path
       class="st10"
       d="m 84,63.7 c 5,0 9,1 9,2.3 0,1.3 -4,2.3 -9,2.3"
       id="path2293"
       inkscape:connector-curvature="0"
       style="fill:none;stroke:#000000;stroke-width:2;stroke-linecap:round;stroke-miterlimit:10" /><path
       class="st10"
       d="m 84,54.5 c -5,0 -9,3.1 -9,6.9 0,3.8 4,6.9 9,6.9"
       id="path2295"
       inkscape:connector-curvature="0"
       style="fill:none;stroke:#000000;stroke-width:2;stroke-linecap:round;stroke-miterlimit:10" /><path
       class="st10"
       d="m 84,54.5 c 5,0 9,1 9,2.3 0,1.3 -4,2.3 -9,2.3"
       id="path2297"
       inkscape:connector-curvature="0"
       style="fill:none;stroke:#000000;stroke-width:2;stroke-linecap:round;stroke-miterlimit:10" /><path
       class="st10"
       d="m 84,45.2 c 5,0 9,1 9,2.3 0,1.3 -4,2.3 -9,2.3"
       id="path2299"
       inkscape:connector-curvature="0"
       style="fill:none;stroke:#000000;stroke-width:2;stroke-linecap:round;stroke-miterlimit:10" /><path
       class="st10"
       d="m 84,45.2 c -5,0 -9,3.1 -9,6.9 0,3.8 4,6.9 9,6.9"
       id="path2301"
       inkscape:connector-curvature="0"
       style="fill:none;stroke:#000000;stroke-width:2;stroke-linecap:round;stroke-miterlimit:10" /><path
       class="st10"
       d="m 84,36 c -5,0 -9,3.1 -9,6.9 0,3.8 4,6.9 9,6.9"
       id="path2303"
       inkscape:connector-curvature="0"
       style="fill:none;stroke:#000000;stroke-width:2;stroke-linecap:round;stroke-miterlimit:10" /><line
       class="st8"
       x1="84"
       y1="18"
       x2="84"
       y2="36"
       id="line2305"
       style="fill:none;stroke:#000000;stroke-linecap:round;stroke-miterlimit:10" /><rect
       x="72"
       y="18"
       class="st11"
       width="24"
       height="96"
       id="rect2307"
       style="fill:none" /></g><g
     aria-label="L"
     style="font-style:normal;font-variant:normal;font-weight:normal;font-stretch:normal;font-size:24px;font-family:KaTeX_Main;-inkscape-font-specification:'KaTeX_Main, Normal';font-variant-ligatures:normal;font-variant-caps:normal;font-variant-numeric:normal;font-feature-settings:normal;text-align:start;writing-mode:lr-tb;text-anchor:start"
     id="text2311"><path
       d="m 71.906579,49.579118 q -0.24,-0.24 -0.48,-0.288 -0.216,-0.048 -1.2,-0.072 h -0.792 v -1.104 h 0.264 q 0.432,0.072 3.504,0.072 3.552,0 3.984,-0.072 h 0.288 v 1.104 h -0.648 q -0.888,0 -1.152,0.024 -0.672,0.024 -0.864,0.096 -0.192,0.048 -0.384,0.24 l -0.024,6.72 q 0,6.72 0.024,6.792 0.024,0.12 0.096,0.168 0.144,0.12 1.824,0.12 1.704,0 2.328,-0.144 1.416,-0.408 2.088,-1.344 0.672,-0.936 0.936,-2.688 0,-0.12 0.024,-0.408 0.048,-0.312 0.072,-0.552 0.048,-0.24 0.048,-0.264 0,-0.024 0.48,-0.024 h 0.48 v 0.12 q -0.048,0.072 -0.336,3.168 -0.288,3.072 -0.336,3.144 v 0.12 h -12.696 v -1.104 h 0.792 q 0.984,-0.024 1.2,-0.072 0.24,-0.048 0.48,-0.288 z"
       style="font-style:normal;font-variant:normal;font-weight:normal;font-stretch:normal;font-size:24px;font-family:KaTeX_Main;-inkscape-font-specification:'KaTeX_Main, Normal';font-variant-ligatures:normal;font-variant-caps:normal;font-variant-numeric:normal;font-feature-settings:normal;text-align:start;writing-mode:lr-tb;text-anchor:start"
       id="path2897" /></g><g
     aria-label="R"
     style="font-style:normal;font-variant:normal;font-weight:normal;font-stretch:normal;font-size:24px;font-family:KaTeX_Main;-inkscape-font-specification:'KaTeX_Main, Normal';font-variant-ligatures:normal;font-variant-caps:normal;font-variant-numeric:normal;font-feature-settings:normal;text-align:start;writing-mode:lr-tb;text-anchor:start"
     id="text2313"><path
       d="m 203.95458,49.579118 q -0.24,-0.24 -0.48,-0.288 -0.216,-0.048 -1.2,-0.072 h -0.792 v -1.104 h 4.2 q 4.464,0.024 4.92,0.096 0.072,0.024 0.312,0.072 1.08,0.216 1.92,0.672 2.28,1.152 2.616,3.144 0.024,0.12 0.024,0.384 0,1.344 -1.032,2.352 -1.008,1.008 -2.4,1.464 -0.048,0.024 -0.12,0.048 -0.048,0 -0.096,0.024 l -0.048,0.024 q 0.072,0.072 0.264,0.144 1.728,0.96 2.136,2.544 0.024,0.096 0.264,1.584 0.24,1.488 0.264,1.584 0.168,0.864 0.408,1.272 0.264,0.408 0.672,0.552 0.096,0.048 0.408,0.048 h 0.12 q 0.312,0 0.576,-0.264 0.48,-0.48 0.552,-1.44 0,-0.264 0.072,-0.336 0.096,-0.096 0.408,-0.096 0.288,0 0.384,0.072 0.096,0.048 0.096,0.288 0,0.864 -0.432,1.584 -0.408,0.696 -1.008,0.96 -0.384,0.144 -1.008,0.144 -3.576,-0.144 -4.128,-2.688 -0.048,-0.264 -0.072,-1.752 0,-1.488 -0.144,-1.992 -0.216,-0.648 -0.72,-1.104 -0.48,-0.48 -1.104,-0.672 l -0.24,-0.048 -1.584,-0.024 h -1.584 v 3.144 l 0.024,3.144 q 0.168,0.24 0.408,0.288 0.264,0.048 1.248,0.072 h 0.792 v 1.104 h -0.264 q -0.384,-0.072 -3.408,-0.072 -3.048,0 -3.432,0.072 h -0.264 v -1.104 h 0.792 q 0.984,-0.024 1.2,-0.072 0.24,-0.048 0.48,-0.288 z m 8.64,1.992 q -0.24,-1.44 -1.296,-1.896 -1.032,-0.456 -3.168,-0.456 -0.36,0 -0.816,0.024 -0.456,0 -0.48,0 -0.312,0.024 -0.384,0.192 -0.072,0.096 -0.072,3.264 v 3.168 h 1.392 q 1.8,0 2.664,-0.144 0.864,-0.168 1.512,-0.816 0.408,-0.408 0.528,-0.912 0.144,-0.504 0.144,-1.464 0,-0.768 -0.024,-0.96 z"
       style="font-style:normal;font-variant:normal;font-weight:normal;font-stretch:normal;font-size:24px;font-family:KaTeX_Main;-inkscape-font-specification:'KaTeX_Main, Normal';font-variant-ligatures:normal;font-variant-caps:normal;font-variant-numeric:normal;font-feature-settings:normal;text-align:start;writing-mode:lr-tb;text-anchor:start"
       id="path2894" /></g><line
     class="st8"
     x1="98.834579"
     y1="10.507121"
     x2="182.83458"
     y2="10.507121"
     id="line2315"
     style="fill:none;stroke:#000000;stroke-linecap:round;stroke-miterlimit:10" /><line
     class="st8"
     x1="98.834579"
     y1="106.50712"
     x2="182.83458"
     y2="106.50712"
     id="line2317"
     style="fill:none;stroke:#000000;stroke-linecap:round;stroke-miterlimit:10" /><g
     aria-label="v(t)"
     style="font-style:normal;font-variant:normal;font-weight:normal;font-stretch:normal;font-size:24px;font-family:KaTeX_Main;-inkscape-font-specification:'KaTeX_Main, Normal';font-variant-ligatures:normal;font-variant-caps:normal;font-variant-numeric:normal;font-feature-settings:normal;text-align:start;writing-mode:lr-tb;text-anchor:start;fill:#ff9c39"
     id="text2319"><path
       d="m 128.61828,64.771118 q -1.536,0 -2.448,-0.768 -0.888,-0.792 -0.888,-2.304 0,-0.432 0.048,-0.816 0.216,-1.152 1.128,-3.528 l 0.384,-1.152 q 0.144,-0.432 0.144,-0.816 0,-0.6 -0.456,-0.6 -0.168,0 -0.384,0.072 -1.224,0.432 -1.848,2.76 0,0.024 -0.024,0.096 -0.024,0.048 -0.048,0.072 0,0 -0.024,0.024 -0.024,0.024 -0.096,0.024 -0.048,0 -0.096,0 -0.048,0 -0.192,0 h -0.336 q -0.144,-0.144 -0.144,-0.216 0,-0.072 0.072,-0.36 0.576,-1.896 1.776,-2.832 0.648,-0.504 1.488,-0.504 0.936,0 1.536,0.528 0.6,0.528 0.6,1.392 0,0.408 -0.072,0.624 0,0.168 -0.36,1.056 -1.104,3 -1.176,4.272 0,0.648 0.12,1.056 0.312,1.032 1.512,1.032 0.648,0 1.152,-0.384 1.488,-0.984 2.472,-4.536 0.192,-0.672 0.192,-1.104 0,-1.056 -0.936,-1.896 -0.312,-0.288 -0.312,-0.648 0,-0.552 0.432,-0.984 0.456,-0.456 1.008,-0.456 0.576,0 0.888,0.552 0.312,0.528 0.312,1.272 0,0.84 -0.48,2.76 -0.456,1.848 -1.152,3.216 -1.512,3.096 -3.792,3.096 z"
       style="font-style:normal;font-variant:normal;font-weight:normal;font-stretch:normal;font-size:24px;font-family:KaTeX_Math;-inkscape-font-specification:'KaTeX_Math, Normal';font-variant-ligatures:normal;font-variant-caps:normal;font-variant-numeric:normal;font-feature-settings:normal;text-align:start;writing-mode:lr-tb;text-anchor:start"
       id="path2885" /><path
       d="m 142.45128,70.291118 q 0,0.216 -0.432,0.216 h -0.312 q -0.168,-0.144 -0.672,-0.576 -4.32,-3.936 -4.32,-11.424 0,-2.928 0.696,-5.352 1.104,-3.768 3.624,-6.072 0.168,-0.144 0.384,-0.312 0.216,-0.192 0.288,-0.264 h 0.312 q 0.288,0 0.36,0.072 0.072,0.072 0.072,0.144 0,0.096 -0.264,0.36 -3.72,3.936 -3.72,11.424 0,7.488 3.72,11.424 0.264,0.264 0.264,0.36 z"
       style="font-style:normal;font-variant:normal;font-weight:normal;font-stretch:normal;font-size:24px;font-family:KaTeX_Main;-inkscape-font-specification:'KaTeX_Main, Normal';font-variant-ligatures:normal;font-variant-caps:normal;font-variant-numeric:normal;font-feature-settings:normal;text-align:start;writing-mode:lr-tb;text-anchor:start;fill:#ff9c39"
       id="path2887" /><path
       d="m 147.17141,50.107118 v -0.36 h 0.96 v 4.416 h 3.24 v 1.104 h -3.24 v 3.456 q 0.024,3 0.024,3.408 0.024,0.384 0.168,0.744 0.336,0.936 1.176,0.936 1.056,0 1.296,-1.704 0.024,-0.192 0.024,-1.104 v -0.84 h 0.96 v 0.84 q 0,1.104 -0.12,1.584 -0.264,0.96 -0.912,1.56 -0.624,0.6 -1.656,0.6 -1.296,0 -2.064,-0.696 -0.768,-0.72 -0.888,-1.944 -0.024,-0.168 -0.024,-3.552 v -3.288 h -1.896 v -0.888 h 0.216 q 0.888,-0.072 1.512,-0.768 1.104,-1.152 1.224,-3.504 z"
       style="font-style:normal;font-variant:normal;font-weight:normal;font-stretch:normal;font-size:24px;font-family:KaTeX_Main;-inkscape-font-specification:'KaTeX_Main, Normal';font-variant-ligatures:normal;font-variant-caps:normal;font-variant-numeric:normal;font-feature-settings:normal;text-align:start;writing-mode:lr-tb;text-anchor:start;fill:#ff9c39"
       id="path2889" /><path
       d="m 154.55553,46.531118 0.096,-0.024 q 0.12,0 0.24,0 h 0.288 q 0.168,0.144 0.672,0.576 4.32,3.936 4.32,11.424 0,2.952 -0.696,5.328 -1.104,3.792 -3.624,6.096 -0.168,0.144 -0.384,0.312 -0.216,0.192 -0.288,0.264 h -0.288 q -0.288,0 -0.384,-0.048 -0.072,-0.048 -0.072,-0.24 0.024,-0.024 0.264,-0.312 3.72,-3.864 3.72,-11.4 0,-7.536 -3.72,-11.4 -0.24,-0.288 -0.264,-0.312 0,-0.192 0.12,-0.264 z"
       style="font-style:normal;font-variant:normal;font-weight:normal;font-stretch:normal;font-size:24px;font-family:KaTeX_Main;-inkscape-font-specification:'KaTeX_Main, Normal';font-variant-ligatures:normal;font-variant-caps:normal;font-variant-numeric:normal;font-feature-settings:normal;text-align:start;writing-mode:lr-tb;text-anchor:start;fill:#ff9c39"
       id="path2891" /></g><g
     aria-label="+"
     style="font-style:normal;font-variant:normal;font-weight:normal;font-stretch:normal;font-size:24px;font-family:KaTeX_Main;-inkscape-font-specification:'KaTeX_Main, Normal';font-variant-ligatures:normal;font-variant-caps:normal;font-variant-numeric:normal;font-feature-settings:normal;text-align:start;writing-mode:lr-tb;text-anchor:start;fill:#ff9c39"
     id="text2321"><path
       d="m 136.51478,22.987521 q -0.336,-0.168 -0.336,-0.48 0,-0.312 0.336,-0.48 h 7.176 v -3.6 l 0.024,-3.6 q 0.24,-0.312 0.456,-0.312 0.312,0 0.48,0.36 v 7.152 h 7.152 q 0.36,0.192 0.36,0.48 0,0.288 -0.36,0.48 h -7.152 v 7.152 q -0.168,0.336 -0.48,0.336 -0.312,0 -0.48,-0.336 v -7.152 z"
       style="font-style:normal;font-variant:normal;font-weight:normal;font-stretch:normal;font-size:24px;font-family:KaTeX_Main;-inkscape-font-specification:'KaTeX_Main, Normal';font-variant-ligatures:normal;font-variant-caps:normal;font-variant-numeric:normal;font-feature-settings:normal;text-align:start;writing-mode:lr-tb;text-anchor:start;fill:#ff9c39"
       id="path2882" /></g><g
     aria-label="−"
     style="font-style:normal;font-variant:normal;font-weight:normal;font-stretch:normal;font-size:24px;font-family:KaTeX_Main;-inkscape-font-specification:'KaTeX_Main, Normal';font-variant-ligatures:normal;font-variant-caps:normal;font-variant-numeric:normal;font-feature-settings:normal;text-align:start;writing-mode:lr-tb;text-anchor:start;fill:#ff9c39"
     id="text2323"><path
       d="m 137.18649,94.987118 q -0.336,-0.168 -0.336,-0.48 0,-0.312 0.336,-0.48 h 13.944 q 0.36,0.192 0.36,0.48 0,0.288 -0.36,0.48 z"
       style="font-style:normal;font-variant:normal;font-weight:normal;font-stretch:normal;font-size:24px;font-family:KaTeX_Main;-inkscape-font-specification:'KaTeX_Main, Normal';font-variant-ligatures:normal;font-variant-caps:normal;font-variant-numeric:normal;font-feature-settings:normal;text-align:start;writing-mode:lr-tb;text-anchor:start;fill:#ff9c39"
       id="path2879" /></g></svg>