<?xml version="1.0" encoding="UTF-8" standalone="no"?>
<!-- Generator: Adobe Illustrator 19.1.0, SVG Export Plug-In . SVG Version: 6.00 Build 0)  -->

<svg
   xmlns:dc="http://purl.org/dc/elements/1.1/"
   xmlns:cc="http://creativecommons.org/ns#"
   xmlns:rdf="http://www.w3.org/1999/02/22-rdf-syntax-ns#"
   xmlns:svg="http://www.w3.org/2000/svg"
   xmlns="http://www.w3.org/2000/svg"
   xmlns:sodipodi="http://sodipodi.sourceforge.net/DTD/sodipodi-0.dtd"
   xmlns:inkscape="http://www.inkscape.org/namespaces/inkscape"
   version="1.1"
   id="Layer_1"
   x="0px"
   y="0px"
   viewBox="0 0 425.99551 116"
   xml:space="preserve"
   sodipodi:docname="rl_natural_response16.svg"
   width="425.99551"
   height="116"
   inkscape:version="0.92.2 5c3e80d, 2017-08-06"><metadata
     id="metadata4142"><rdf:RDF><cc:Work
         rdf:about=""><dc:format>image/svg+xml</dc:format><dc:type
           rdf:resource="http://purl.org/dc/dcmitype/StillImage" /><dc:title></dc:title></cc:Work></rdf:RDF></metadata><defs
     id="defs4140" /><sodipodi:namedview
     pagecolor="#ffffff"
     bordercolor="#666666"
     borderopacity="1"
     objecttolerance="10"
     gridtolerance="10"
     guidetolerance="10"
     inkscape:pageopacity="0"
     inkscape:pageshadow="2"
     inkscape:window-width="640"
     inkscape:window-height="480"
     id="namedview4138"
     showgrid="false"
     fit-margin-top="10"
     fit-margin-right="10"
     fit-margin-bottom="10"
     fit-margin-left="10"
     inkscape:zoom="1.1928571"
     inkscape:cx="210.74733"
     inkscape:cy="64"
     inkscape:current-layer="Layer_1" /><style
     type="text/css"
     id="style3985">
	.st0{fill:none;stroke:#BABEC2;stroke-linecap:round;stroke-miterlimit:10;}
	.st1{fill:none;stroke:#11ACCD;stroke-width:3;stroke-linecap:round;stroke-miterlimit:10;}
	.st2{fill:#11ACCD;}
	.st3{fill:none;stroke:#11ACCD;stroke-width:6;stroke-miterlimit:10;}
	.st4{fill:none;stroke:#000000;stroke-linecap:round;stroke-linejoin:round;stroke-miterlimit:10;}
	.st5{fill:none;stroke:#000000;stroke-width:2;stroke-linecap:round;stroke-linejoin:round;stroke-miterlimit:10;}
	.st6{fill:none;stroke:#000000;stroke-width:2;stroke-miterlimit:10;}
	.st7{fill:none;stroke:#000000;stroke-linecap:round;stroke-miterlimit:10;}
	.st8{fill:none;stroke:#000000;stroke-width:1.5;stroke-miterlimit:10;}
	.st9{fill:none;stroke:#000000;stroke-width:2;stroke-linecap:round;stroke-miterlimit:10;}
	.st10{fill:none;}
	.st11{stroke:#000000;stroke-linecap:round;stroke-linejoin:round;stroke-miterlimit:10;}
	.st12{fill:none;stroke:#000000;stroke-miterlimit:10;}
	.st13{fill:#FFFFFF;stroke:#000000;stroke-miterlimit:10;}
	.st14{font-family:'KaTeX_Main-Italic';}
	.st15{font-size:18px;}
	.st16{fill:none;stroke:#000000;stroke-width:4;stroke-miterlimit:10;}
	.st17{fill:#FF9C39;}
	.st18{fill:#BABEC2;stroke:#BABEC2;stroke-linecap:round;stroke-linejoin:round;stroke-miterlimit:10;}
	.st19{fill:#BABEC2;stroke:#BABEC2;stroke-miterlimit:10;}
	.st20{fill:none;stroke:#BABEC2;stroke-linecap:round;stroke-linejoin:round;stroke-miterlimit:10;}
	.st21{font-family:'KaTeX_Main-Regular';}
	.st22{font-size:21px;}
	.st23{font-family:'KaTeX_Math-Regular';}
	.st24{fill:none;stroke:#1FAB54;stroke-width:2;stroke-linecap:round;stroke-miterlimit:10;}
	.st25{fill:#1FAB54;}
	.st26{fill:none;stroke:#BABEC2;stroke-width:2;stroke-linecap:round;stroke-miterlimit:10;}
	.st27{fill:#BABEC2;}
	.st28{fill:none;stroke:#BABEC2;stroke-width:2;stroke-miterlimit:10;}
	.st29{fill:none;stroke:#BABEC2;stroke-width:2;stroke-linecap:round;stroke-linejoin:round;stroke-miterlimit:10;}
	.st30{opacity:0.1;fill:none;stroke:#000000;stroke-width:2;enable-background:new    ;}
	.st31{fill:none;stroke:#000000;stroke-width:2;stroke-linecap:round;stroke-linejoin:round;}
	.st32{fill:none;stroke:#000000;stroke-width:2;}
	.st33{fill:none;stroke:#000000;}
	.st34{clip-path:url(#SVGID_2_);fill:none;stroke:#29ABCA;stroke-width:5;}
	.st35{clip-path:url(#SVGID_4_);fill:none;stroke:#29ABCA;stroke-width:5;}
	.st36{clip-path:url(#SVGID_6_);fill:none;stroke:#E1A158;stroke-width:5;}
	.st37{clip-path:url(#SVGID_8_);fill:none;stroke:#E1A158;stroke-width:5;}
	.st38{clip-path:url(#SVGID_10_);fill:none;stroke:#E1A158;stroke-width:5;}
	.st39{fill:#E07D10;}
	.st40{fill:none;stroke:#FF9C39;stroke-width:2;stroke-linecap:round;stroke-miterlimit:10;}
</style><g
     id="g3995"
     transform="translate(4.526855,-14)"><g
       id="g3993"><line
         class="st1"
         x1="288"
         y1="69.099998"
         x2="288"
         y2="84"
         id="line3987"
         style="fill:none;stroke:#11accd;stroke-width:3;stroke-linecap:round;stroke-miterlimit:10" /><g
         id="g3991"><path
           class="st2"
           d="m 288,60 c -1.6,4.3 -4.3,9.5 -7.1,12.8 l 7.1,-2.6 7.1,2.6 C 292.3,69.5 289.6,64.3 288,60 Z"
           id="path3989"
           inkscape:connector-curvature="0"
           style="fill:#11accd" /></g></g></g><g
     aria-label="i"
     style="font-style:normal;font-variant:normal;font-weight:normal;font-stretch:normal;font-size:24px;font-family:KaTeX_Main;-inkscape-font-specification:'KaTeX_Main, Normal';font-variant-ligatures:normal;font-variant-caps:normal;font-variant-numeric:normal;font-feature-settings:normal;text-align:start;writing-mode:lr-tb;text-anchor:start;fill:#11accd"
     id="text3997"><path
       d="m 293.16313,25.5995 q 0,-0.552 0.456,-1.008 0.456,-0.456 1.056,-0.456 0.432,0 0.72,0.288 0.312,0.288 0.312,0.72 0,0.528 -0.48,1.008 -0.48,0.48 -1.056,0.48 -0.432,0 -0.72,-0.288 -0.288,-0.288 -0.288,-0.744 z m -0.552,14.664 q -0.936,0 -1.512,-0.552 -0.576,-0.552 -0.576,-1.488 0,-0.408 0.048,-0.552 0,-0.048 1.104,-2.952 1.104,-2.928 1.104,-2.976 0.12,-0.384 0.12,-0.864 0,-0.576 -0.408,-0.576 h -0.048 q -0.576,0 -1.104,0.552 -0.768,0.792 -1.128,2.256 0,0.024 -0.024,0.096 -0.024,0.048 -0.048,0.072 0,0 -0.024,0.024 -0.024,0.024 -0.096,0.024 -0.048,0 -0.096,0 -0.048,0 -0.192,0 h -0.336 q -0.144,-0.144 -0.144,-0.216 0,-0.072 0.072,-0.336 0.624,-2.064 1.824,-2.88 0.648,-0.504 1.392,-0.504 0.96,0 1.584,0.552 0.624,0.552 0.624,1.488 0,0.312 -0.12,0.72 -0.024,0.048 -1.104,2.952 l -1.08,2.904 q -0.12,0.528 -0.12,0.768 0,0.6 0.408,0.6 0.336,0 0.6,-0.144 1.056,-0.504 1.656,-2.52 0.072,-0.288 0.12,-0.336 0.072,-0.048 0.408,-0.048 0.216,0 0.288,0.024 0.096,0 0.144,0.048 0.048,0.048 0.048,0.168 0,0.096 -0.072,0.312 -0.456,1.368 -1.32,2.376 -0.84,1.008 -1.992,1.008 z"
       style="font-style:normal;font-variant:normal;font-weight:normal;font-stretch:normal;font-size:24px;font-family:KaTeX_Math;-inkscape-font-specification:'KaTeX_Math, Normal';font-variant-ligatures:normal;font-variant-caps:normal;font-variant-numeric:normal;font-feature-settings:normal;text-align:start;writing-mode:lr-tb;text-anchor:start"
       id="path4751" /></g><g
     id="g4015"
     transform="translate(0.74732739,-14)"><g
       id="g4007"><g
         id="g4005"><line
           class="st9"
           x1="84"
           y1="58.5"
           x2="84"
           y2="78.400002"
           id="line3999"
           style="fill:none;stroke:#000000;stroke-width:2;stroke-linecap:round;stroke-miterlimit:10" /><g
           id="g4003"><polygon
             points="90,76.6 78,76.6 84,87 "
             id="polygon4001" /></g></g></g><circle
       class="st6"
       cx="84"
       cy="72"
       r="18"
       id="circle4009"
       style="fill:none;stroke:#000000;stroke-width:2;stroke-miterlimit:10" /><polyline
       class="st7"
       points="84,90 84,114 342,114  "
       id="polyline4011"
       style="fill:none;stroke:#000000;stroke-linecap:round;stroke-miterlimit:10" /><polyline
       class="st4"
       points="84,54 84,30 198,30  "
       id="polyline4013"
       style="fill:none;stroke:#000000;stroke-linecap:round;stroke-linejoin:round;stroke-miterlimit:10" /></g><g
     id="g4025"
     transform="translate(0.74732739,-14)"><line
       class="st4"
       x1="174"
       y1="48.599998"
       x2="174"
       y2="30"
       id="line4017"
       style="fill:none;stroke:#000000;stroke-linecap:round;stroke-linejoin:round;stroke-miterlimit:10" /><polyline
       class="st5"
       points="174,95.4 165,91.5 183,83.7 165,75.9 183,68.1 165,60.3 183,52.5 174,48.6  "
       id="polyline4019"
       style="fill:none;stroke:#000000;stroke-width:2;stroke-linecap:round;stroke-linejoin:round;stroke-miterlimit:10" /><line
       class="st4"
       x1="174"
       y1="114"
       x2="174"
       y2="95.400002"
       id="line4021"
       style="fill:none;stroke:#000000;stroke-linecap:round;stroke-linejoin:round;stroke-miterlimit:10" /><rect
       x="162"
       y="30"
       class="st10"
       width="24"
       height="84"
       id="rect4023"
       style="fill:none" /></g><g
     id="g4035"
     transform="translate(0.74732739,-14)"><line
       class="st4"
       x1="342"
       y1="48.599998"
       x2="342"
       y2="30"
       id="line4027"
       style="fill:none;stroke:#000000;stroke-linecap:round;stroke-linejoin:round;stroke-miterlimit:10" /><polyline
       class="st5"
       points="342,95.4 333,91.5 351,83.7 333,75.9 351,68.1 333,60.3 351,52.5 342,48.6  "
       id="polyline4029"
       style="fill:none;stroke:#000000;stroke-width:2;stroke-linecap:round;stroke-linejoin:round;stroke-miterlimit:10" /><line
       class="st4"
       x1="342"
       y1="114"
       x2="342"
       y2="95.400002"
       id="line4031"
       style="fill:none;stroke:#000000;stroke-linecap:round;stroke-linejoin:round;stroke-miterlimit:10" /><rect
       x="330"
       y="30"
       class="st10"
       width="24"
       height="84"
       id="rect4033"
       style="fill:none" /></g><g
     id="g4065"
     transform="translate(0.74732739,-14)"><line
       class="st7"
       x1="270"
       y1="102"
       x2="270"
       y2="114"
       id="line4037"
       style="fill:none;stroke:#000000;stroke-linecap:round;stroke-miterlimit:10" /><path
       class="st9"
       d="m 270,88.2 c -5,0 -9,3.1 -9,6.9 0,3.8 4,6.9 9,6.9"
       id="path4039"
       inkscape:connector-curvature="0"
       style="fill:none;stroke:#000000;stroke-width:2;stroke-linecap:round;stroke-miterlimit:10" /><path
       class="st9"
       d="m 270,88.2 c 5,0 9,1 9,2.3 0,1.3 -4,2.3 -9,2.3"
       id="path4041"
       inkscape:connector-curvature="0"
       style="fill:none;stroke:#000000;stroke-width:2;stroke-linecap:round;stroke-miterlimit:10" /><path
       class="st9"
       d="m 270,78.9 c -5,0 -9,3.1 -9,6.9 0,3.8 4,6.9 9,6.9"
       id="path4043"
       inkscape:connector-curvature="0"
       style="fill:none;stroke:#000000;stroke-width:2;stroke-linecap:round;stroke-miterlimit:10" /><path
       class="st9"
       d="m 270,78.9 c 5,0 9,1 9,2.3 0,1.3 -4,2.3 -9,2.3"
       id="path4045"
       inkscape:connector-curvature="0"
       style="fill:none;stroke:#000000;stroke-width:2;stroke-linecap:round;stroke-miterlimit:10" /><path
       class="st9"
       d="m 270,69.7 c -5,0 -9,3.1 -9,6.9 0,3.8 4,6.9 9,6.9"
       id="path4047"
       inkscape:connector-curvature="0"
       style="fill:none;stroke:#000000;stroke-width:2;stroke-linecap:round;stroke-miterlimit:10" /><path
       class="st9"
       d="m 270,69.7 c 5,0 9,1 9,2.3 0,1.3 -4,2.3 -9,2.3"
       id="path4049"
       inkscape:connector-curvature="0"
       style="fill:none;stroke:#000000;stroke-width:2;stroke-linecap:round;stroke-miterlimit:10" /><path
       class="st9"
       d="m 270,60.5 c -5,0 -9,3.1 -9,6.9 0,3.8 4,6.9 9,6.9"
       id="path4051"
       inkscape:connector-curvature="0"
       style="fill:none;stroke:#000000;stroke-width:2;stroke-linecap:round;stroke-miterlimit:10" /><path
       class="st9"
       d="m 270,60.5 c 5,0 9,1 9,2.3 0,1.3 -4,2.3 -9,2.3"
       id="path4053"
       inkscape:connector-curvature="0"
       style="fill:none;stroke:#000000;stroke-width:2;stroke-linecap:round;stroke-miterlimit:10" /><path
       class="st9"
       d="m 270,51.2 c 5,0 9,1 9,2.3 0,1.3 -4,2.3 -9,2.3"
       id="path4055"
       inkscape:connector-curvature="0"
       style="fill:none;stroke:#000000;stroke-width:2;stroke-linecap:round;stroke-miterlimit:10" /><path
       class="st9"
       d="m 270,51.2 c -5,0 -9,3.1 -9,6.9 0,3.8 4,6.9 9,6.9"
       id="path4057"
       inkscape:connector-curvature="0"
       style="fill:none;stroke:#000000;stroke-width:2;stroke-linecap:round;stroke-miterlimit:10" /><path
       class="st9"
       d="m 270,42 c -5,0 -9,3.1 -9,6.9 0,3.8 4,6.9 9,6.9"
       id="path4059"
       inkscape:connector-curvature="0"
       style="fill:none;stroke:#000000;stroke-width:2;stroke-linecap:round;stroke-miterlimit:10" /><line
       class="st7"
       x1="270"
       y1="30"
       x2="270"
       y2="42"
       id="line4061"
       style="fill:none;stroke:#000000;stroke-linecap:round;stroke-miterlimit:10" /><rect
       x="258"
       y="30"
       class="st10"
       width="24"
       height="84"
       id="rect4063"
       style="fill:none" /></g><g
     id="g4071"
     transform="translate(0.74732739,-14)"><circle
       class="st11"
       cx="174"
       cy="30"
       r="1.5"
       id="circle4067"
       style="stroke:#000000;stroke-linecap:round;stroke-linejoin:round;stroke-miterlimit:10" /><rect
       x="168"
       y="24"
       class="st10"
       width="12"
       height="12"
       id="rect4069"
       style="fill:none" /></g><g
     id="g4077"
     transform="translate(0.74732739,-14)"><circle
       class="st11"
       cx="270"
       cy="30"
       r="1.5"
       id="circle4073"
       style="stroke:#000000;stroke-linecap:round;stroke-linejoin:round;stroke-miterlimit:10" /><rect
       x="264"
       y="24"
       class="st10"
       width="12"
       height="12"
       id="rect4075"
       style="fill:none" /></g><g
     id="g4083"
     transform="translate(0.74732739,-14)"><circle
       class="st11"
       cx="270"
       cy="114"
       r="1.5"
       id="circle4079"
       style="stroke:#000000;stroke-linecap:round;stroke-linejoin:round;stroke-miterlimit:10" /><rect
       x="264"
       y="108"
       class="st10"
       width="12"
       height="12"
       id="rect4081"
       style="fill:none" /></g><g
     id="g4089"
     transform="translate(0.74732739,-14)"><circle
       class="st11"
       cx="174"
       cy="114"
       r="1.5"
       id="circle4085"
       style="stroke:#000000;stroke-linecap:round;stroke-linejoin:round;stroke-miterlimit:10" /><rect
       x="168"
       y="108"
       class="st10"
       width="12"
       height="12"
       id="rect4087"
       style="fill:none" /></g><g
     id="g4105"
     transform="translate(0.74732739,-14)"><g
       id="g4095"><circle
         cx="234"
         cy="30"
         r="3"
         id="circle4091" /><rect
         x="228"
         y="24"
         class="st10"
         width="12"
         height="12"
         id="rect4093"
         style="fill:none" /></g><g
       id="g4101"><circle
         cx="198"
         cy="30"
         r="3"
         id="circle4097" /><rect
         x="192"
         y="24"
         class="st10"
         width="12"
         height="12"
         id="rect4099"
         style="fill:none" /></g><line
       class="st4"
       x1="198.39999"
       y1="30.1"
       x2="235.7"
       y2="26.6"
       id="line4103"
       style="fill:none;stroke:#000000;stroke-linecap:round;stroke-linejoin:round;stroke-miterlimit:10" /></g><line
     class="st7"
     x1="342.74731"
     y1="16"
     x2="234.74733"
     y2="16"
     id="line4107"
     style="fill:none;stroke:#000000;stroke-linecap:round;stroke-miterlimit:10" /><g
     aria-label="I"
     style="font-style:normal;font-variant:normal;font-weight:normal;font-stretch:normal;font-size:24px;font-family:KaTeX_Main;-inkscape-font-specification:'KaTeX_Main, Normal';font-variant-ligatures:normal;font-variant-caps:normal;font-variant-numeric:normal;font-feature-settings:normal;text-align:start;writing-mode:lr-tb;text-anchor:start"
     id="text4109"><path
       d="m 56.619528,52 q -0.384,-0.072 -3.552,-0.072 -3.168,0 -3.552,0.072 h -0.264 v -1.104 h 0.528 q 0.936,0 1.584,-0.072 0.288,-0.072 0.408,-0.264 0.048,-0.072 0.048,-6.768 0,-6.672 -0.048,-6.744 -0.12,-0.192 -0.408,-0.264 -0.648,-0.072 -1.584,-0.072 h -0.528 v -1.104 h 0.264 q 0.384,0.072 3.552,0.072 3.168,0 3.552,-0.072 h 0.264 v 1.104 h -0.528 q -0.936,0 -1.584,0.072 -0.288,0.072 -0.408,0.264 -0.048,0.072 -0.048,6.744 0,6.696 0.048,6.768 0.12,0.192 0.408,0.264 0.648,0.072 1.584,0.072 h 0.528 V 52 Z"
       style="font-style:normal;font-variant:normal;font-weight:normal;font-stretch:normal;font-size:24px;font-family:KaTeX_Main;-inkscape-font-specification:'KaTeX_Main, Normal';font-variant-ligatures:normal;font-variant-caps:normal;font-variant-numeric:normal;font-feature-settings:normal;text-align:start;writing-mode:lr-tb;text-anchor:start"
       id="path4748" /></g><g
     aria-label="8mA"
     style="font-style:normal;font-variant:normal;font-weight:normal;font-stretch:normal;font-size:24px;font-family:KaTeX_Main;-inkscape-font-specification:'KaTeX_Main, Normal';font-variant-ligatures:normal;font-variant-caps:normal;font-variant-numeric:normal;font-feature-settings:normal;text-align:start;writing-mode:lr-tb;text-anchor:start"
     id="text4111"><path
       d="m 13.096,67.96 q -1.176,-0.768 -1.824,-1.608 -0.624,-0.84 -0.624,-2.208 0,-1.032 0.384,-1.728 0.528,-1.08 1.536,-1.728 1.032,-0.672 2.352,-0.672 1.632,0 2.832,0.864 1.2,0.84 1.488,2.184 0.024,0.144 0.024,0.576 0,0.528 -0.048,0.72 -0.36,1.584 -2.184,2.736 l -0.288,0.192 q 1.344,0.912 1.392,0.96 1.8,1.44 1.8,3.576 0,1.944 -1.44,3.336 -1.416,1.368 -3.552,1.368 -2.952,0 -4.344,-2.16 Q 10,73.504 10,72.28 q 0,-2.616 3.096,-4.32 z m 4.776,-4.272 q 0,-1.032 -0.672,-1.752 -0.672,-0.72 -1.632,-0.912 Q 15.4,61 14.776,61 q -1.272,0 -2.136,0.864 -0.6,0.552 -0.6,1.32 0,1.032 0.864,1.632 0.12,0.12 1.536,1.008 l 1.392,0.912 q 0.024,-0.024 0.312,-0.192 0.288,-0.192 0.432,-0.336 1.296,-1.032 1.296,-2.52 z m -6.336,8.544 q 0,1.416 1.032,2.352 1.032,0.912 2.4,0.912 0.984,0 1.776,-0.408 0.816,-0.408 1.224,-1.056 0.408,-0.624 0.408,-1.32 0,-1.032 -0.84,-1.824 Q 17.344,70.696 15.544,69.52 15.208,69.304 14.8,69.064 14.416,68.8 14.2,68.656 l -0.192,-0.12 -0.288,0.144 q -1.512,0.984 -1.992,2.4 -0.192,0.624 -0.192,1.152 z"
       style="font-style:normal;font-variant:normal;font-weight:normal;font-stretch:normal;font-size:24px;font-family:KaTeX_Main;-inkscape-font-specification:'KaTeX_Main, Normal';font-variant-ligatures:normal;font-variant-caps:normal;font-variant-numeric:normal;font-feature-settings:normal;text-align:start;writing-mode:lr-tb;text-anchor:start"
       id="path4741" /><path
       d="m 28.48,74.56 q 0.192,0.336 1.128,0.336 h 0.336 0.384 V 76 h -0.192 q -0.312,-0.072 -2.688,-0.072 -2.376,0 -2.688,0.072 h -0.192 v -1.104 h 0.384 0.336 q 0.936,0 1.128,-0.336 v -0.192 q 0,-0.216 0,-0.552 0,-0.336 0,-0.744 0.024,-0.432 0.024,-0.936 0,-0.528 0,-1.008 0,-0.744 -0.024,-1.584 0,-0.864 0,-1.416 V 67.576 Q 26.344,67.12 26.056,66.976 25.792,66.808 25,66.76 h -0.432 v -0.552 q 0,-0.552 0.048,-0.552 l 0.24,-0.024 q 0.24,-0.024 0.672,-0.048 0.456,-0.024 0.888,-0.048 0.408,-0.024 0.864,-0.048 0.456,-0.048 0.696,-0.072 0.24,-0.024 0.264,-0.024 h 0.072 v 0.96 q 0,0.912 0.024,0.912 L 28.36,67.24 q 1.296,-1.848 3.672,-1.848 2.328,0.072 2.856,1.824 l 0.048,0.12 q 0.576,-0.72 0.648,-0.792 1.224,-1.152 2.856,-1.152 3,0 3.288,2.712 0.024,0.168 0.024,3.336 0,3.072 0.024,3.12 0.096,0.192 0.288,0.264 0.504,0.072 1.176,0.072 h 0.384 V 76 h -0.192 q -0.312,-0.072 -2.688,-0.072 -2.376,0 -2.688,0.072 h -0.192 v -1.104 h 0.384 0.192 q 1.272,0 1.272,-0.384 Q 39.736,74.464 39.736,71.2 39.712,67.96 39.688,67.768 39.52,67 39.136,66.664 q -0.36,-0.36 -1.128,-0.36 -1.08,0 -1.896,0.816 -0.84,0.84 -0.984,2.112 0,0.024 -0.024,0.456 0,0.408 0,1.056 0,0.648 0,1.224 0,0.36 0,0.768 0,0.384 0,0.696 0,0.312 0,0.576 0.024,0.24 0.024,0.408 v 0.144 q 0.192,0.336 1.128,0.336 h 0.336 0.384 V 76 h -0.192 q -0.312,-0.072 -2.688,-0.072 -2.376,0 -2.688,0.072 h -0.192 v -1.104 h 0.384 0.192 q 1.272,0 1.272,-0.384 Q 33.088,74.464 33.088,71.2 33.064,67.96 33.04,67.768 32.872,67 32.488,66.664 q -0.36,-0.36 -1.128,-0.36 -1.08,0 -1.896,0.816 -0.84,0.84 -0.984,2.112 0,0.024 0,0.456 0,0.408 -0.024,1.056 0,0.648 0,1.224 0,0.36 0,0.768 0,0.384 0,0.696 0.024,0.312 0.024,0.576 0,0.24 0,0.408 z"
       style="font-style:normal;font-variant:normal;font-weight:normal;font-stretch:normal;font-size:24px;font-family:KaTeX_Main;-inkscape-font-specification:'KaTeX_Main, Normal';font-variant-ligatures:normal;font-variant-caps:normal;font-variant-numeric:normal;font-feature-settings:normal;text-align:start;writing-mode:lr-tb;text-anchor:start"
       id="path4743" /><path
       d="m 50.103625,76 q -0.432,-0.072 -2.76,-0.072 -2.136,0 -2.424,0.072 h -0.168 v -1.104 h 0.36 q 1.728,-0.072 2.208,-1.008 0.024,-0.072 1.272,-3.768 1.248,-3.72 2.472,-7.392 1.248,-3.696 1.272,-3.72 0.072,-0.192 0.456,-0.192 h 0.216 q 0.48,0.024 0.576,0.168 0.024,0.024 2.328,6.864 2.328,6.84 2.88,8.544 0.072,0.144 0.168,0.24 0.264,0.24 1.512,0.264 h 0.72 V 76 h -0.216 q -0.36,-0.072 -3.048,-0.072 -3.096,0 -3.456,0.072 h -0.24 v -1.104 h 0.312 q 1.68,0 1.68,-0.432 0,-0.048 -0.576,-1.776 l -0.576,-1.704 h -5.592 l -0.48,1.416 q -0.48,1.416 -0.48,1.56 0,0.12 0.072,0.216 0.144,0.312 0.6,0.528 0.48,0.192 1.008,0.192 h 0.12 V 76 Z m 3.864,-8.328 q -0.696,-2.088 -1.224,-3.624 l -0.48,-1.416 -1.2,3.6 -1.224,3.624 q 0,0.024 2.424,0.024 h 2.448 z"
       style="font-style:normal;font-variant:normal;font-weight:normal;font-stretch:normal;font-size:24px;font-family:KaTeX_Main;-inkscape-font-specification:'KaTeX_Main, Normal';font-variant-ligatures:normal;font-variant-caps:normal;font-variant-numeric:normal;font-feature-settings:normal;text-align:start;writing-mode:lr-tb;text-anchor:start"
       id="path4745" /></g><g
     aria-label="R0"
     style="font-style:normal;font-variant:normal;font-weight:normal;font-stretch:normal;font-size:24px;font-family:KaTeX_Main;-inkscape-font-specification:'KaTeX_Main, Normal';font-variant-ligatures:normal;font-variant-caps:normal;font-variant-numeric:normal;font-feature-settings:normal;text-align:start;writing-mode:lr-tb;text-anchor:start"
     id="text4113"><path
       d="m 132.088,37.072 q -0.24,-0.24 -0.48,-0.288 -0.216,-0.048 -1.2,-0.072 h -0.792 v -1.104 h 4.2 q 4.464,0.024 4.92,0.096 0.072,0.024 0.312,0.072 1.08,0.216 1.92,0.672 2.28,1.152 2.616,3.144 0.024,0.12 0.024,0.384 0,1.344 -1.032,2.352 -1.008,1.008 -2.4,1.464 -0.048,0.024 -0.12,0.048 -0.048,0 -0.096,0.024 l -0.048,0.024 q 0.072,0.072 0.264,0.144 1.728,0.96 2.136,2.544 0.024,0.096 0.264,1.584 0.24,1.488 0.264,1.584 0.168,0.864 0.408,1.272 0.264,0.408 0.672,0.552 0.096,0.048 0.408,0.048 h 0.12 q 0.312,0 0.576,-0.264 0.48,-0.48 0.552,-1.44 0,-0.264 0.072,-0.336 0.096,-0.096 0.408,-0.096 0.288,0 0.384,0.072 0.096,0.048 0.096,0.288 0,0.864 -0.432,1.584 -0.408,0.696 -1.008,0.96 -0.384,0.144 -1.008,0.144 -3.576,-0.144 -4.128,-2.688 -0.048,-0.264 -0.072,-1.752 0,-1.488 -0.144,-1.992 -0.216,-0.648 -0.72,-1.104 -0.48,-0.48 -1.104,-0.672 l -0.24,-0.048 -1.584,-0.024 h -1.584 v 3.144 l 0.024,3.144 q 0.168,0.24 0.408,0.288 0.264,0.048 1.248,0.072 h 0.792 V 52 h -0.264 q -0.384,-0.072 -3.408,-0.072 -3.048,0 -3.432,0.072 h -0.264 v -1.104 h 0.792 q 0.984,-0.024 1.2,-0.072 0.24,-0.048 0.48,-0.288 z m 8.64,1.992 q -0.24,-1.44 -1.296,-1.896 -1.032,-0.456 -3.168,-0.456 -0.36,0 -0.816,0.024 -0.456,0 -0.48,0 -0.312,0.024 -0.384,0.192 -0.072,0.096 -0.072,3.264 v 3.168 h 1.392 q 1.8,0 2.664,-0.144 0.864,-0.168 1.512,-0.816 0.408,-0.408 0.528,-0.912 0.144,-0.504 0.144,-1.464 0,-0.768 -0.024,-0.96 z"
       style="font-style:normal;font-variant:normal;font-weight:normal;font-stretch:normal;font-size:24px;font-family:KaTeX_Main;-inkscape-font-specification:'KaTeX_Main, Normal';font-variant-ligatures:normal;font-variant-caps:normal;font-variant-numeric:normal;font-feature-settings:normal;text-align:start;writing-mode:lr-tb;text-anchor:start"
       id="path4736" /><path
       d="m 148.94388,37.96 q 1.344,-1.944 3.672,-1.944 1.752,0 3.072,1.2 0.648,0.624 1.104,1.632 0.888,1.992 0.888,5.472 0,3.72 -1.032,5.688 -0.672,1.392 -1.968,2.016 -1.008,0.504 -2.04,0.504 -2.76,0 -4.032,-2.52 -1.032,-1.968 -1.032,-5.688 0,-2.232 0.288,-3.672 0.312,-1.464 1.08,-2.688 z m 5.4,-0.288 q -0.696,-0.768 -1.704,-0.768 -1.008,0 -1.728,0.768 -0.528,0.552 -0.72,1.344 -0.192,0.792 -0.24,2.736 0,0.144 -0.024,0.936 0,0.792 0,1.32 0,2.304 0.048,3.216 0.096,1.68 0.288,2.424 0.192,0.72 0.72,1.248 0.648,0.72 1.656,0.72 0.984,0 1.632,-0.72 0.528,-0.528 0.72,-1.248 0.192,-0.744 0.288,-2.424 0.048,-0.912 0.048,-3.216 0,-0.528 -0.024,-1.32 0,-0.792 0,-0.936 -0.048,-1.944 -0.24,-2.736 -0.192,-0.792 -0.72,-1.344 z"
       style="font-style:normal;font-variant:normal;font-weight:normal;font-stretch:normal;font-size:24px;font-family:KaTeX_Main;-inkscape-font-specification:'KaTeX_Main, Normal';font-variant-ligatures:normal;font-variant-caps:normal;font-variant-numeric:normal;font-feature-settings:normal;text-align:start;writing-mode:lr-tb;text-anchor:start"
       id="path4738" /></g><g
     aria-label="1kΩ"
     style="font-style:normal;font-variant:normal;font-weight:normal;font-stretch:normal;font-size:24px;font-family:KaTeX_Main;-inkscape-font-specification:'KaTeX_Main, Normal';font-variant-ligatures:normal;font-variant-caps:normal;font-variant-numeric:normal;font-feature-settings:normal;text-align:start;writing-mode:lr-tb;text-anchor:start"
     id="text4115"><path
       d="m 124.73153,76 q -0.408,-0.072 -3.816,-0.072 -3.36,0 -3.768,0.072 h -0.288 v -1.104 h 0.624 q 1.392,0 1.8,-0.072 0.192,-0.024 0.576,-0.288 V 62.128 q -0.048,0 -0.192,0.072 -1.104,0.432 -2.472,0.456 h -0.456 v -1.104 h 0.456 q 2.016,-0.072 3.36,-0.912 0.432,-0.24 0.744,-0.552 0.048,-0.072 0.288,-0.072 0.24,0 0.408,0.144 v 7.176 l 0.024,7.2 q 0.36,0.36 1.56,0.36 h 0.792 0.624 V 76 Z"
       style="font-style:normal;font-variant:normal;font-weight:normal;font-stretch:normal;font-size:24px;font-family:KaTeX_Main;-inkscape-font-specification:'KaTeX_Main, Normal';font-variant-ligatures:normal;font-variant-caps:normal;font-variant-numeric:normal;font-feature-settings:normal;text-align:start;writing-mode:lr-tb;text-anchor:start"
       id="path4729" /><path
       d="m 130.61153,74.896 h 0.336 q 0.936,0 1.128,-0.336 v -0.192 q 0,-0.216 0,-0.552 0,-0.336 0,-0.792 0.024,-0.456 0.024,-1.032 0,-0.6 0,-1.2 0,-0.624 0,-1.32 0,-0.72 0,-1.368 0,-0.888 0,-1.872 0,-1.008 0,-1.8 0,-0.792 -0.024,-1.44 0,-0.672 0,-1.056 0,-0.384 0,-0.408 -0.072,-0.456 -0.36,-0.6 -0.264,-0.168 -1.056,-0.216 h -0.432 V 60.16 q 0,-0.552 0.048,-0.552 l 0.24,-0.024 q 0.24,-0.024 0.696,-0.048 0.456,-0.024 0.888,-0.048 0.408,-0.024 0.888,-0.048 0.48,-0.048 0.72,-0.072 0.24,-0.024 0.264,-0.024 h 0.072 v 5.544 l 0.024,5.52 1.44,-1.296 q 1.44,-1.296 1.536,-1.44 0.144,-0.216 0.144,-0.408 0,-0.432 -0.504,-0.504 h -0.12 v -1.104 h 0.216 q 0.312,0.072 2.856,0.072 0.168,0 0.432,0 0.288,-0.024 0.432,-0.024 0.144,0 0.36,0 0.24,-0.024 0.36,-0.024 0.12,-0.024 0.144,-0.024 h 0.12 v 1.104 h -0.312 q -1.656,0.12 -2.784,1.056 -1.776,1.512 -1.776,1.608 0,0.024 1.512,2.256 1.536,2.208 1.704,2.424 0.336,0.456 0.744,0.624 0.432,0.168 1.176,0.168 h 0.264 V 76 h -0.144 q -0.288,-0.072 -2.088,-0.072 -2.352,0 -2.664,0.072 h -0.192 v -1.104 h 0.168 q 0.576,-0.048 0.576,-0.456 0,-0.168 -0.096,-0.336 -0.072,-0.12 -1.2,-1.776 -1.128,-1.656 -1.152,-1.656 -0.288,0.24 -0.624,0.552 l -0.624,0.552 v 1.344 q 0,1.392 0.024,1.44 0.096,0.192 0.288,0.264 0.504,0.072 1.176,0.072 h 0.384 V 76 h -0.192 q -0.264,-0.072 -2.616,-0.072 -2.352,0 -2.616,0.072 h -0.192 v -1.104 z"
       style="font-style:normal;font-variant:normal;font-weight:normal;font-stretch:normal;font-size:24px;font-family:KaTeX_Main;-inkscape-font-specification:'KaTeX_Main, Normal';font-variant-ligatures:normal;font-variant-caps:normal;font-variant-numeric:normal;font-feature-settings:normal;text-align:start;writing-mode:lr-tb;text-anchor:start"
       id="path4731" /><path
       d="m 148.88378,75.52 q 0,0.312 -0.168,0.48 h -4.464 v -0.048 q -0.024,-0.024 -0.384,-2.088 l -0.408,-2.064 v -0.048 h 0.96 l 0.024,0.12 q 0,0.12 0.096,0.456 0.168,1.08 0.36,1.44 0.096,0.12 0.168,0.168 0.312,0.12 1.608,0.144 h 1.056 v -0.072 q -0.12,-0.384 -0.528,-1.272 -0.384,-0.744 -1.32,-2.208 -1.536,-2.472 -1.92,-3.768 -0.24,-0.888 -0.24,-1.656 0,-0.72 0.192,-1.368 0.528,-1.8 2.232,-3.096 1.704,-1.32 3.984,-1.512 0.144,-0.024 0.36,-0.024 h 0.36 q 3.384,0 5.544,1.848 1.368,1.2 1.8,2.784 0.192,0.648 0.192,1.368 0,0.768 -0.24,1.656 -0.384,1.296 -1.92,3.768 -0.936,1.464 -1.32,2.208 -0.408,0.888 -0.528,1.272 v 0.072 h 1.056 q 1.296,-0.024 1.608,-0.144 0.096,-0.048 0.168,-0.168 0.168,-0.36 0.36,-1.44 0.096,-0.336 0.096,-0.456 l 0.024,-0.12 h 0.96 V 71.8 l -0.408,2.064 q -0.36,2.064 -0.384,2.088 V 76 h -2.208 q -1.776,0 -2.064,0 -0.264,-0.024 -0.312,-0.144 -0.048,-0.096 -0.048,-0.336 0,-0.696 0.216,-1.896 0.192,-0.96 0.936,-3.24 0.768,-2.328 1.008,-3.648 0.168,-1.008 0.168,-1.656 0,-3.384 -2.472,-4.632 -1.008,-0.48 -2.016,-0.48 -2.448,0 -3.744,2.04 -0.744,1.176 -0.744,3.048 0,0.816 0.144,1.68 0.24,1.32 1.008,3.648 0.744,2.28 0.936,3.24 0.216,1.176 0.216,1.896 z"
       style="font-style:normal;font-variant:normal;font-weight:normal;font-stretch:normal;font-size:24px;font-family:KaTeX_Main;-inkscape-font-specification:'KaTeX_Main, Normal';font-variant-ligatures:normal;font-variant-caps:normal;font-variant-numeric:normal;font-feature-settings:normal;text-align:start;writing-mode:lr-tb;text-anchor:start"
       id="path4733" /></g><g
     aria-label="L"
     style="font-style:normal;font-variant:normal;font-weight:normal;font-stretch:normal;font-size:24px;font-family:KaTeX_Main;-inkscape-font-specification:'KaTeX_Main, Normal';font-variant-ligatures:normal;font-variant-caps:normal;font-variant-numeric:normal;font-feature-settings:normal;text-align:start;writing-mode:lr-tb;text-anchor:start"
     id="text4117"><path
       d="m 243.81953,37.072 q -0.24,-0.24 -0.48,-0.288 -0.216,-0.048 -1.2,-0.072 h -0.792 v -1.104 h 0.264 q 0.432,0.072 3.504,0.072 3.552,0 3.984,-0.072 h 0.288 v 1.104 h -0.648 q -0.888,0 -1.152,0.024 -0.672,0.024 -0.864,0.096 -0.192,0.048 -0.384,0.24 l -0.024,6.72 q 0,6.72 0.024,6.792 0.024,0.12 0.096,0.168 0.144,0.12 1.824,0.12 1.704,0 2.328,-0.144 1.416,-0.408 2.088,-1.344 0.672,-0.936 0.936,-2.688 0,-0.12 0.024,-0.408 0.048,-0.312 0.072,-0.552 0.048,-0.24 0.048,-0.264 0,-0.024 0.48,-0.024 h 0.48 v 0.12 q -0.048,0.072 -0.336,3.168 -0.288,3.072 -0.336,3.144 V 52 h -12.696 v -1.104 h 0.792 q 0.984,-0.024 1.2,-0.072 0.24,-0.048 0.48,-0.288 z"
       style="font-style:normal;font-variant:normal;font-weight:normal;font-stretch:normal;font-size:24px;font-family:KaTeX_Main;-inkscape-font-specification:'KaTeX_Main, Normal';font-variant-ligatures:normal;font-variant-caps:normal;font-variant-numeric:normal;font-feature-settings:normal;text-align:start;writing-mode:lr-tb;text-anchor:start"
       id="path4726" /></g><g
     aria-label="R"
     style="font-style:normal;font-variant:normal;font-weight:normal;font-stretch:normal;font-size:24px;font-family:KaTeX_Main;-inkscape-font-specification:'KaTeX_Main, Normal';font-variant-ligatures:normal;font-variant-caps:normal;font-variant-numeric:normal;font-feature-settings:normal;text-align:start;writing-mode:lr-tb;text-anchor:start"
     id="text4119"><path
       d="m 363.86753,37.072 q -0.24,-0.24 -0.48,-0.288 -0.216,-0.048 -1.2,-0.072 h -0.792 v -1.104 h 4.2 q 4.464,0.024 4.92,0.096 0.072,0.024 0.312,0.072 1.08,0.216 1.92,0.672 2.28,1.152 2.616,3.144 0.024,0.12 0.024,0.384 0,1.344 -1.032,2.352 -1.008,1.008 -2.4,1.464 -0.048,0.024 -0.12,0.048 -0.048,0 -0.096,0.024 l -0.048,0.024 q 0.072,0.072 0.264,0.144 1.728,0.96 2.136,2.544 0.024,0.096 0.264,1.584 0.24,1.488 0.264,1.584 0.168,0.864 0.408,1.272 0.264,0.408 0.672,0.552 0.096,0.048 0.408,0.048 h 0.12 q 0.312,0 0.576,-0.264 0.48,-0.48 0.552,-1.44 0,-0.264 0.072,-0.336 0.096,-0.096 0.408,-0.096 0.288,0 0.384,0.072 0.096,0.048 0.096,0.288 0,0.864 -0.432,1.584 -0.408,0.696 -1.008,0.96 -0.384,0.144 -1.008,0.144 -3.576,-0.144 -4.128,-2.688 -0.048,-0.264 -0.072,-1.752 0,-1.488 -0.144,-1.992 -0.216,-0.648 -0.72,-1.104 -0.48,-0.48 -1.104,-0.672 l -0.24,-0.048 -1.584,-0.024 h -1.584 v 3.144 l 0.024,3.144 q 0.168,0.24 0.408,0.288 0.264,0.048 1.248,0.072 h 0.792 V 52 h -0.264 q -0.384,-0.072 -3.408,-0.072 -3.048,0 -3.432,0.072 h -0.264 v -1.104 h 0.792 q 0.984,-0.024 1.2,-0.072 0.24,-0.048 0.48,-0.288 z m 8.64,1.992 q -0.24,-1.44 -1.296,-1.896 -1.032,-0.456 -3.168,-0.456 -0.36,0 -0.816,0.024 -0.456,0 -0.48,0 -0.312,0.024 -0.384,0.192 -0.072,0.096 -0.072,3.264 v 3.168 h 1.392 q 1.8,0 2.664,-0.144 0.864,-0.168 1.512,-0.816 0.408,-0.408 0.528,-0.912 0.144,-0.504 0.144,-1.464 0,-0.768 -0.024,-0.96 z"
       style="font-style:normal;font-variant:normal;font-weight:normal;font-stretch:normal;font-size:24px;font-family:KaTeX_Main;-inkscape-font-specification:'KaTeX_Main, Normal';font-variant-ligatures:normal;font-variant-caps:normal;font-variant-numeric:normal;font-feature-settings:normal;text-align:start;writing-mode:lr-tb;text-anchor:start"
       id="path4723" /></g><g
     aria-label="16μH"
     style="font-style:normal;font-variant:normal;font-weight:normal;font-stretch:normal;font-size:24px;font-family:KaTeX_Main;-inkscape-font-specification:'KaTeX_Main, Normal';font-variant-ligatures:normal;font-variant-caps:normal;font-variant-numeric:normal;font-feature-settings:normal;text-align:start;writing-mode:lr-tb;text-anchor:start"
     id="text4127"><path
       d="m 204.952,76 q -0.408,-0.072 -3.816,-0.072 -3.36,0 -3.768,0.072 h -0.288 v -1.104 h 0.624 q 1.392,0 1.8,-0.072 0.192,-0.024 0.576,-0.288 V 62.128 q -0.048,0 -0.192,0.072 -1.104,0.432 -2.472,0.456 h -0.456 v -1.104 h 0.456 q 2.016,-0.072 3.36,-0.912 0.432,-0.24 0.744,-0.552 0.048,-0.072 0.288,-0.072 0.24,0 0.408,0.144 v 7.176 l 0.024,7.2 q 0.36,0.36 1.56,0.36 h 0.792 0.624 V 76 Z"
       style="font-style:normal;font-variant:normal;font-weight:normal;font-stretch:normal;font-size:24px;font-family:KaTeX_Main;-inkscape-font-specification:'KaTeX_Main, Normal';font-variant-ligatures:normal;font-variant-caps:normal;font-variant-numeric:normal;font-feature-settings:normal;text-align:start;writing-mode:lr-tb;text-anchor:start"
       id="path4714" /><path
       d="m 215.92,61.576 q -0.528,-0.528 -1.488,-0.6 -1.68,0 -2.808,1.44 -1.128,1.56 -1.128,4.848 l 0.024,0.096 0.192,-0.312 q 0.984,-1.44 2.664,-1.44 1.104,0 1.944,0.456 0.576,0.336 1.152,0.984 0.576,0.624 0.936,1.344 0.504,1.176 0.504,2.568 v 0.432 q 0,0.552 -0.12,1.032 -0.288,1.416 -1.488,2.664 -1.032,1.08 -2.304,1.344 -0.384,0.096 -0.96,0.096 -0.456,0 -0.816,-0.072 -1.776,-0.336 -2.832,-1.92 -1.416,-2.232 -1.416,-6.048 0,-2.592 0.912,-4.536 0.912,-1.944 2.544,-3.024 1.296,-0.912 2.808,-0.912 1.392,0 2.232,0.744 0.864,0.744 0.864,2.04 0,0.6 -0.36,0.96 -0.336,0.36 -0.912,0.36 -0.576,0 -0.936,-0.336 -0.336,-0.336 -0.336,-0.936 0,-1.08 1.128,-1.272 z m -1.056,5.76 q -0.672,-0.864 -1.728,-0.864 -0.888,0 -1.44,0.552 -1.176,1.176 -1.176,3.792 0,2.136 0.288,2.952 0.24,0.72 0.816,1.224 0.576,0.504 1.368,0.504 1.224,0 1.872,-0.912 0.36,-0.504 0.456,-1.2 0.096,-0.696 0.096,-2.016 V 70.984 70.6 q 0,-1.368 -0.096,-2.064 -0.096,-0.696 -0.456,-1.2 z"
       style="font-style:normal;font-variant:normal;font-weight:normal;font-stretch:normal;font-size:24px;font-family:KaTeX_Main;-inkscape-font-specification:'KaTeX_Main, Normal';font-variant-ligatures:normal;font-variant-caps:normal;font-variant-numeric:normal;font-feature-settings:normal;text-align:start;writing-mode:lr-tb;text-anchor:start"
       id="path4716" /><path
       d="m 235.1516,76 h -2.17969 v -1.382813 q -0.86719,0.914063 -1.66406,1.277344 -0.78516,0.351563 -1.69922,0.351563 -0.87891,0 -1.58203,-0.316407 -0.70313,-0.316406 -1.6875,-1.253906 v 6.152344 h -2.20313 V 62.910156 h 2.20313 v 9.820313 q 0.375,0.457031 1.30078,0.9375 0.92578,0.480468 1.99218,0.480468 1.08985,0 1.88672,-0.386718 0.79688,-0.398438 1.42969,-1.101563 v -9.75 h 2.20313 z"
       style="font-style:normal;font-variant:normal;font-weight:normal;font-stretch:normal;font-size:24px;font-family:KaTeX_Main;-inkscape-font-specification:'KaTeX_Main, Normal';font-variant-ligatures:normal;font-variant-caps:normal;font-variant-numeric:normal;font-feature-settings:normal;text-align:start;writing-mode:lr-tb;text-anchor:start"
       id="path4718" /><path
       d="m 240.415,61.072 q -0.24,-0.24 -0.48,-0.288 -0.216,-0.048 -1.2,-0.072 h -0.792 v -1.104 h 0.264 q 0.408,0.072 3.456,0.072 3.048,0 3.456,-0.072 h 0.264 v 1.104 h -0.792 q -0.984,0.024 -1.248,0.072 -0.24,0.048 -0.408,0.288 L 242.911,64 v 2.928 h 6.84 v -5.856 q -0.24,-0.24 -0.48,-0.288 -0.216,-0.048 -1.2,-0.072 h -0.792 v -1.104 h 0.264 q 0.408,0.072 3.456,0.072 3.048,0 3.456,-0.072 h 0.264 v 1.104 h -0.792 q -0.984,0.024 -1.248,0.072 -0.24,0.048 -0.408,0.288 v 13.464 q 0.168,0.24 0.408,0.288 0.264,0.048 1.248,0.072 h 0.792 V 76 h -0.264 q -0.408,-0.072 -3.456,-0.072 -3.048,0 -3.456,0.072 h -0.264 v -1.104 h 0.792 q 0.984,-0.024 1.2,-0.072 0.24,-0.048 0.48,-0.288 v -6.504 h -6.84 v 3.24 l 0.024,3.264 q 0.168,0.24 0.408,0.288 0.264,0.048 1.248,0.072 h 0.792 V 76 h -0.264 q -0.408,-0.072 -3.456,-0.072 -3.048,0 -3.456,0.072 h -0.264 v -1.104 h 0.792 q 0.984,-0.024 1.2,-0.072 0.24,-0.048 0.48,-0.288 z"
       style="font-style:normal;font-variant:normal;font-weight:normal;font-stretch:normal;font-size:24px;font-family:KaTeX_Main;-inkscape-font-specification:'KaTeX_Main, Normal';font-variant-ligatures:normal;font-variant-caps:normal;font-variant-numeric:normal;font-feature-settings:normal;text-align:start;writing-mode:lr-tb;text-anchor:start"
       id="path4720" /></g><g
     aria-label="200Ω"
     style="font-style:normal;font-variant:normal;font-weight:normal;font-stretch:normal;font-size:24px;font-family:KaTeX_Main;-inkscape-font-specification:'KaTeX_Main, Normal';font-variant-ligatures:normal;font-variant-caps:normal;font-variant-numeric:normal;font-feature-settings:normal;text-align:start;writing-mode:lr-tb;text-anchor:start"
     id="text4129"><path
       d="m 363.38753,65.704 q -0.672,0 -1.056,-0.432 -0.384,-0.432 -0.384,-1.056 0,-1.728 1.296,-2.952 1.32,-1.248 3.144,-1.248 2.064,0 3.408,1.128 1.368,1.104 1.68,2.904 0.048,0.432 0.048,0.792 0,1.392 -0.84,2.616 -0.672,1.008 -2.712,2.76 -0.864,0.744 -2.4,2.208 l -1.416,1.344 1.824,0.024 q 3.768,0 4.008,-0.12 0.096,-0.024 0.24,-0.504 0.096,-0.264 0.336,-1.632 v -0.072 h 0.96 v 0.072 l -0.672,4.392 V 76 h -8.904 v -0.456 q 0,-0.48 0.048,-0.552 0.024,-0.024 2.016,-2.28 2.616,-2.904 3.36,-3.84 1.608,-2.184 1.608,-4.008 0,-1.584 -0.84,-2.64 -0.816,-1.08 -2.304,-1.08 -1.392,0 -2.256,1.248 -0.048,0.096 -0.144,0.264 -0.072,0.12 -0.072,0.144 0,0.024 0.12,0.024 0.6,0 0.96,0.432 0.384,0.432 0.384,1.008 0,0.6 -0.408,1.032 -0.384,0.408 -1.032,0.408 z"
       style="font-style:normal;font-variant:normal;font-weight:normal;font-stretch:normal;font-size:24px;font-family:KaTeX_Main;-inkscape-font-specification:'KaTeX_Main, Normal';font-variant-ligatures:normal;font-variant-caps:normal;font-variant-numeric:normal;font-feature-settings:normal;text-align:start;writing-mode:lr-tb;text-anchor:start"
       id="path4705" /><path
       d="m 375.05153,61.96 q 1.344,-1.944 3.672,-1.944 1.752,0 3.072,1.2 0.648,0.624 1.104,1.632 0.888,1.992 0.888,5.472 0,3.72 -1.032,5.688 -0.672,1.392 -1.968,2.016 -1.008,0.504 -2.04,0.504 -2.76,0 -4.032,-2.52 -1.032,-1.968 -1.032,-5.688 0,-2.232 0.288,-3.672 0.312,-1.464 1.08,-2.688 z m 5.4,-0.288 q -0.696,-0.768 -1.704,-0.768 -1.008,0 -1.728,0.768 -0.528,0.552 -0.72,1.344 -0.192,0.792 -0.24,2.736 0,0.144 -0.024,0.936 0,0.792 0,1.32 0,2.304 0.048,3.216 0.096,1.68 0.288,2.424 0.192,0.72 0.72,1.248 0.648,0.72 1.656,0.72 0.984,0 1.632,-0.72 0.528,-0.528 0.72,-1.248 0.192,-0.744 0.288,-2.424 0.048,-0.912 0.048,-3.216 0,-0.528 -0.024,-1.32 0,-0.792 0,-0.936 -0.048,-1.944 -0.24,-2.736 -0.192,-0.792 -0.72,-1.344 z"
       style="font-style:normal;font-variant:normal;font-weight:normal;font-stretch:normal;font-size:24px;font-family:KaTeX_Main;-inkscape-font-specification:'KaTeX_Main, Normal';font-variant-ligatures:normal;font-variant-caps:normal;font-variant-numeric:normal;font-feature-settings:normal;text-align:start;writing-mode:lr-tb;text-anchor:start"
       id="path4707" /><path
       d="m 387.05153,61.96 q 1.344,-1.944 3.672,-1.944 1.752,0 3.072,1.2 0.648,0.624 1.104,1.632 0.888,1.992 0.888,5.472 0,3.72 -1.032,5.688 -0.672,1.392 -1.968,2.016 -1.008,0.504 -2.04,0.504 -2.76,0 -4.032,-2.52 -1.032,-1.968 -1.032,-5.688 0,-2.232 0.288,-3.672 0.312,-1.464 1.08,-2.688 z m 5.4,-0.288 q -0.696,-0.768 -1.704,-0.768 -1.008,0 -1.728,0.768 -0.528,0.552 -0.72,1.344 -0.192,0.792 -0.24,2.736 0,0.144 -0.024,0.936 0,0.792 0,1.32 0,2.304 0.048,3.216 0.096,1.68 0.288,2.424 0.192,0.72 0.72,1.248 0.648,0.72 1.656,0.72 0.984,0 1.632,-0.72 0.528,-0.528 0.72,-1.248 0.192,-0.744 0.288,-2.424 0.048,-0.912 0.048,-3.216 0,-0.528 -0.024,-1.32 0,-0.792 0,-0.936 -0.048,-1.944 -0.24,-2.736 -0.192,-0.792 -0.72,-1.344 z"
       style="font-style:normal;font-variant:normal;font-weight:normal;font-stretch:normal;font-size:24px;font-family:KaTeX_Main;-inkscape-font-specification:'KaTeX_Main, Normal';font-variant-ligatures:normal;font-variant-caps:normal;font-variant-numeric:normal;font-feature-settings:normal;text-align:start;writing-mode:lr-tb;text-anchor:start"
       id="path4709" /><path
       d="m 406.22753,75.52 q 0,0.312 -0.168,0.48 h -4.464 v -0.048 q -0.024,-0.024 -0.384,-2.088 l -0.408,-2.064 v -0.048 h 0.96 l 0.024,0.12 q 0,0.12 0.096,0.456 0.168,1.08 0.36,1.44 0.096,0.12 0.168,0.168 0.312,0.12 1.608,0.144 h 1.056 v -0.072 q -0.12,-0.384 -0.528,-1.272 -0.384,-0.744 -1.32,-2.208 -1.536,-2.472 -1.92,-3.768 -0.24,-0.888 -0.24,-1.656 0,-0.72 0.192,-1.368 0.528,-1.8 2.232,-3.096 1.704,-1.32 3.984,-1.512 0.144,-0.024 0.36,-0.024 h 0.36 q 3.384,0 5.544,1.848 1.368,1.2 1.8,2.784 0.192,0.648 0.192,1.368 0,0.768 -0.24,1.656 -0.384,1.296 -1.92,3.768 -0.936,1.464 -1.32,2.208 -0.408,0.888 -0.528,1.272 v 0.072 h 1.056 q 1.296,-0.024 1.608,-0.144 0.096,-0.048 0.168,-0.168 0.168,-0.36 0.36,-1.44 0.096,-0.336 0.096,-0.456 l 0.024,-0.12 h 0.96 V 71.8 l -0.408,2.064 q -0.36,2.064 -0.384,2.088 V 76 h -2.208 q -1.776,0 -2.064,0 -0.264,-0.024 -0.312,-0.144 -0.048,-0.096 -0.048,-0.336 0,-0.696 0.216,-1.896 0.192,-0.96 0.936,-3.24 0.768,-2.328 1.008,-3.648 0.168,-1.008 0.168,-1.656 0,-3.384 -2.472,-4.632 -1.008,-0.48 -2.016,-0.48 -2.448,0 -3.744,2.04 -0.744,1.176 -0.744,3.048 0,0.816 0.144,1.68 0.24,1.32 1.008,3.648 0.744,2.28 0.936,3.24 0.216,1.176 0.216,1.896 z"
       style="font-style:normal;font-variant:normal;font-weight:normal;font-stretch:normal;font-size:24px;font-family:KaTeX_Main;-inkscape-font-specification:'KaTeX_Main, Normal';font-variant-ligatures:normal;font-variant-caps:normal;font-variant-numeric:normal;font-feature-settings:normal;text-align:start;writing-mode:lr-tb;text-anchor:start"
       id="path4711" /></g><g
     aria-label="v"
     style="font-style:normal;font-variant:normal;font-weight:normal;font-stretch:normal;font-size:24px;font-family:KaTeX_Main;-inkscape-font-specification:'KaTeX_Main, Normal';font-variant-ligatures:normal;font-variant-caps:normal;font-variant-numeric:normal;font-feature-settings:normal;text-align:start;writing-mode:lr-tb;text-anchor:start;fill:#ff9c39"
     id="text4131"><path
       d="m 319.79035,64.264 q -1.536,0 -2.448,-0.768 -0.888,-0.792 -0.888,-2.304 0,-0.432 0.048,-0.816 0.216,-1.152 1.128,-3.528 l 0.384,-1.152 q 0.144,-0.432 0.144,-0.816 0,-0.6 -0.456,-0.6 -0.168,0 -0.384,0.072 -1.224,0.432 -1.848,2.76 0,0.024 -0.024,0.096 -0.024,0.048 -0.048,0.072 0,0 -0.024,0.024 -0.024,0.024 -0.096,0.024 -0.048,0 -0.096,0 -0.048,0 -0.192,0 h -0.336 q -0.144,-0.144 -0.144,-0.216 0,-0.072 0.072,-0.36 0.576,-1.896 1.776,-2.832 0.648,-0.504 1.488,-0.504 0.936,0 1.536,0.528 0.6,0.528 0.6,1.392 0,0.408 -0.072,0.624 0,0.168 -0.36,1.056 -1.104,3 -1.176,4.272 0,0.648 0.12,1.056 0.312,1.032 1.512,1.032 0.648,0 1.152,-0.384 1.488,-0.984 2.472,-4.536 0.192,-0.672 0.192,-1.104 0,-1.056 -0.936,-1.896 -0.312,-0.288 -0.312,-0.648 0,-0.552 0.432,-0.984 0.456,-0.456 1.008,-0.456 0.576,0 0.888,0.552 0.312,0.528 0.312,1.272 0,0.84 -0.48,2.76 -0.456,1.848 -1.152,3.216 -1.512,3.096 -3.792,3.096 z"
       style="font-style:normal;font-variant:normal;font-weight:normal;font-stretch:normal;font-size:24px;font-family:KaTeX_Math;-inkscape-font-specification:'KaTeX_Math, Normal';font-variant-ligatures:normal;font-variant-caps:normal;font-variant-numeric:normal;font-feature-settings:normal;text-align:start;writing-mode:lr-tb;text-anchor:start"
       id="path4702" /></g><g
     aria-label="+"
     style="font-style:normal;font-variant:normal;font-weight:normal;font-stretch:normal;font-size:24px;font-family:KaTeX_Main;-inkscape-font-specification:'KaTeX_Main, Normal';font-variant-ligatures:normal;font-variant-caps:normal;font-variant-numeric:normal;font-feature-settings:normal;text-align:start;writing-mode:lr-tb;text-anchor:start;fill:#ff9c39"
     id="text4133"><path
       d="m 312.20634,28.480401 q -0.336,-0.168 -0.336,-0.48 0,-0.312 0.336,-0.48 h 7.176 v -3.6 l 0.024,-3.6 q 0.24,-0.312 0.456,-0.312 0.312,0 0.48,0.36 v 7.152 h 7.152 q 0.36,0.192 0.36,0.48 0,0.288 -0.36,0.48 h -7.152 v 7.152 q -0.168,0.336 -0.48,0.336 -0.312,0 -0.48,-0.336 v -7.152 z"
       style="font-style:normal;font-variant:normal;font-weight:normal;font-stretch:normal;font-size:24px;font-family:KaTeX_Main;-inkscape-font-specification:'KaTeX_Main, Normal';font-variant-ligatures:normal;font-variant-caps:normal;font-variant-numeric:normal;font-feature-settings:normal;text-align:start;writing-mode:lr-tb;text-anchor:start;fill:#ff9c39"
       id="path4699" /></g><g
     aria-label="−"
     style="font-style:normal;font-variant:normal;font-weight:normal;font-stretch:normal;font-size:24px;font-family:KaTeX_Main;-inkscape-font-specification:'KaTeX_Main, Normal';font-variant-ligatures:normal;font-variant-caps:normal;font-variant-numeric:normal;font-feature-settings:normal;text-align:start;writing-mode:lr-tb;text-anchor:start;fill:#ff9c39"
     id="text4135"><path
       d="m 312.87834,88.48 q -0.336,-0.168 -0.336,-0.48 0,-0.312 0.336,-0.48 h 13.944 q 0.36,0.192 0.36,0.48 0,0.288 -0.36,0.48 z"
       style="font-style:normal;font-variant:normal;font-weight:normal;font-stretch:normal;font-size:24px;font-family:KaTeX_Main;-inkscape-font-specification:'KaTeX_Main, Normal';font-variant-ligatures:normal;font-variant-caps:normal;font-variant-numeric:normal;font-feature-settings:normal;text-align:start;writing-mode:lr-tb;text-anchor:start;fill:#ff9c39"
       id="path4696" /></g><g
     style="font-style:normal;font-variant:normal;font-weight:normal;font-stretch:normal;font-size:40px;line-height:125%;font-family:KaTeX_Main;-inkscape-font-specification:'KaTeX_Main, Normal';text-align:start;letter-spacing:0px;word-spacing:0px;writing-mode:lr-tb;text-anchor:start;fill:#000000;fill-opacity:1;stroke:none;stroke-width:1px;stroke-linecap:butt;stroke-linejoin:miter;stroke-opacity:1"
     id="text4693" /></svg>