<?xml version="1.0" encoding="UTF-8" standalone="no"?>
<svg
   xmlns:xhtml="http://www.w3.org/1999/xhtml"
   xmlns:dc="http://purl.org/dc/elements/1.1/"
   xmlns:cc="http://creativecommons.org/ns#"
   xmlns:rdf="http://www.w3.org/1999/02/22-rdf-syntax-ns#"
   xmlns:svg="http://www.w3.org/2000/svg"
   xmlns="http://www.w3.org/2000/svg"
   xmlns:sodipodi="http://sodipodi.sourceforge.net/DTD/sodipodi-0.dtd"
   xmlns:inkscape="http://www.inkscape.org/namespaces/inkscape"
   width="453.42999"
   height="254.19238"
   version="1.1"
   id="svg180"
   sodipodi:docname="rlc_3variations_current.svg"
   inkscape:version="0.92.2 5c3e80d, 2017-08-06">
  <metadata
     id="metadata186">
    <rdf:RDF>
      <cc:Work
         rdf:about="">
        <dc:format>image/svg+xml</dc:format>
        <dc:type
           rdf:resource="http://purl.org/dc/dcmitype/StillImage" />
        <dc:title></dc:title>
      </cc:Work>
    </rdf:RDF>
  </metadata>
  <defs
     id="defs184" />
  <sodipodi:namedview
     pagecolor="#ffffff"
     bordercolor="#666666"
     borderopacity="1"
     objecttolerance="10"
     gridtolerance="10"
     guidetolerance="10"
     inkscape:pageopacity="0"
     inkscape:pageshadow="2"
     inkscape:window-width="640"
     inkscape:window-height="480"
     id="namedview182"
     showgrid="false"
     fit-margin-top="10"
     fit-margin-right="10"
     fit-margin-bottom="10"
     fit-margin-left="10"
     inkscape:zoom="1.1049115"
     inkscape:cx="226.715"
     inkscape:cy="116.15593"
     inkscape:current-layer="svg180" />
  <xhtml:defs>
    <xhtml:style
       type="text/css"><![CDATA[
svg .grid { stroke-width: 0.5px; stroke: rgb(187, 187, 187); opacity: 0.5; }
svg .domain { stroke-width: 3px; stroke: black; }
svg { border: 0px solid red; }
svg .path { stroke-width: 3px; stroke: rgb(17, 172, 205); fill: none; stroke-linecap: round; }
svg text { font: 16px katex_math; }
svg .tick text { font: 12px katex_math; }]]></xhtml:style>
  </xhtml:defs>
  <path
     class="domain"
     d="m 15.413229,159.55906 v 0.5 H 335.41323 v -0.5"
     id="path2"
     inkscape:connector-curvature="0"
     style="font-size:medium;font-family:sans-serif;text-anchor:middle;fill:none;stroke:#000000" />
  <line
     style="font-size:medium;font-family:sans-serif;text-anchor:middle;fill:none;stroke:#000000"
     x2="15.413229"
     y1="159.55905"
     x1="15.413229"
     id="line4"
     y2="165.55905" />
  <g
     aria-label="-2"
     style="font-style:normal;font-variant:normal;font-weight:normal;font-stretch:normal;font-size:13.33333302px;font-family:KaTeX_Main;-inkscape-font-specification:'KaTeX_Main, Normal';font-variant-ligatures:normal;font-variant-caps:normal;font-variant-numeric:normal;font-feature-settings:normal;text-align:center;writing-mode:lr-tb;text-anchor:middle;fill:#000000"
     id="text6">
    <path
       d="m 10,178.47191 v -0.97333 h 3.546667 v 0.97333 z"
       style="font-style:normal;font-variant:normal;font-weight:normal;font-stretch:normal;font-size:13.33333302px;font-family:KaTeX_Main;-inkscape-font-specification:'KaTeX_Main, Normal';font-variant-ligatures:normal;font-variant-caps:normal;font-variant-numeric:normal;font-feature-settings:normal;text-align:center;writing-mode:lr-tb;text-anchor:middle;fill:#000000"
       id="path3888" />
    <path
       d="m 15.773125,175.13858 q -0.373333,0 -0.586667,-0.24 -0.213333,-0.24 -0.213333,-0.58667 0,-0.96 0.72,-1.64 0.733333,-0.69333 1.746667,-0.69333 1.146666,0 1.893333,0.62666 0.76,0.61334 0.933333,1.61334 0.02667,0.24 0.02667,0.44 0,0.77333 -0.466667,1.45333 -0.373333,0.56 -1.506666,1.53333 -0.48,0.41334 -1.333334,1.22667 l -0.786666,0.74667 1.013333,0.0133 q 2.093333,0 2.226666,-0.0667 0.05333,-0.0133 0.133334,-0.28 0.05333,-0.14666 0.186666,-0.90666 v -0.04 h 0.533334 v 0.04 l -0.373334,2.44 v 0.04 h -4.946666 v -0.25334 q 0,-0.26666 0.02667,-0.30666 0.01333,-0.0133 1.12,-1.26667 1.453333,-1.61333 1.866666,-2.13333 0.893334,-1.21334 0.893334,-2.22667 0,-0.88 -0.466667,-1.46667 -0.453333,-0.6 -1.28,-0.6 -0.773333,0 -1.253333,0.69334 -0.02667,0.0533 -0.08,0.14666 -0.04,0.0667 -0.04,0.08 0,0.0133 0.06667,0.0133 0.333334,0 0.533334,0.24 0.213333,0.24 0.213333,0.56 0,0.33333 -0.226667,0.57333 -0.213333,0.22667 -0.573333,0.22667 z"
       style="font-style:normal;font-variant:normal;font-weight:normal;font-stretch:normal;font-size:13.33333302px;font-family:KaTeX_Main;-inkscape-font-specification:'KaTeX_Main, Normal';font-variant-ligatures:normal;font-variant-caps:normal;font-variant-numeric:normal;font-feature-settings:normal;text-align:center;writing-mode:lr-tb;text-anchor:middle;fill:#000000"
       id="path3890" />
  </g>
  <line
     style="font-size:medium;font-family:sans-serif;text-anchor:middle;fill:none"
     id="line8"
     y2="239.55905"
     x2="15.413229"
     y1="39.559055"
     x1="15.413229"
     class="grid" />
  <line
     style="font-size:medium;font-family:sans-serif;text-anchor:middle;fill:none;stroke:#000000"
     x2="55.413231"
     y1="159.55905"
     x1="55.413231"
     id="line12"
     y2="165.55905" />
  <g
     aria-label="-1"
     style="font-style:normal;font-variant:normal;font-weight:normal;font-stretch:normal;font-size:13.33333302px;font-family:KaTeX_Main;-inkscape-font-specification:'KaTeX_Main, Normal';font-variant-ligatures:normal;font-variant-caps:normal;font-variant-numeric:normal;font-feature-settings:normal;text-align:center;writing-mode:lr-tb;text-anchor:middle;fill:#000000"
     id="text14">
    <path
       d="m 50.000002,178.47191 v -0.97333 h 3.546666 v 0.97333 z"
       style="font-style:normal;font-variant:normal;font-weight:normal;font-stretch:normal;font-size:13.33333302px;font-family:KaTeX_Main;-inkscape-font-specification:'KaTeX_Main, Normal';font-variant-ligatures:normal;font-variant-caps:normal;font-variant-numeric:normal;font-feature-settings:normal;text-align:center;writing-mode:lr-tb;text-anchor:middle;fill:#000000"
       id="path3883" />
    <path
       d="m 59.853127,180.85858 q -0.226667,-0.04 -2.12,-0.04 -1.866667,0 -2.093334,0.04 h -0.159999 v -0.61334 h 0.346666 q 0.773333,0 1,-0.04 0.106667,-0.0133 0.32,-0.16 v -6.89333 q -0.02667,0 -0.106667,0.04 -0.613333,0.24 -1.373333,0.25333 h -0.253333 v -0.61333 h 0.253333 q 1.12,-0.04 1.866667,-0.50667 0.24,-0.13333 0.413333,-0.30666 0.02667,-0.04 0.16,-0.04 0.133333,0 0.226667,0.08 v 3.98666 l 0.01333,4 q 0.2,0.2 0.866667,0.2 h 0.44 0.346666 v 0.61334 z"
       style="font-style:normal;font-variant:normal;font-weight:normal;font-stretch:normal;font-size:13.33333302px;font-family:KaTeX_Main;-inkscape-font-specification:'KaTeX_Main, Normal';font-variant-ligatures:normal;font-variant-caps:normal;font-variant-numeric:normal;font-feature-settings:normal;text-align:center;writing-mode:lr-tb;text-anchor:middle;fill:#000000"
       id="path3885" />
  </g>
  <line
     style="font-size:medium;font-family:sans-serif;text-anchor:middle;fill:none"
     id="line16"
     y2="239.55905"
     x2="55.413231"
     y1="39.559055"
     x1="55.413231"
     class="grid" />
  <line
     style="font-size:medium;font-family:sans-serif;text-anchor:middle;fill:none;stroke:#000000"
     x2="95.413231"
     y1="159.55905"
     x1="95.413231"
     id="line20"
     y2="165.55905" />
  <line
     style="font-size:medium;font-family:sans-serif;text-anchor:middle;fill:none"
     id="line22"
     y2="239.55905"
     x2="95.413231"
     y1="39.559055"
     x1="95.413231"
     class="grid" />
  <line
     style="font-size:medium;font-family:sans-serif;text-anchor:middle;fill:none;stroke:#000000"
     x2="135.41322"
     y1="159.55905"
     x1="135.41322"
     id="line26"
     y2="165.55905" />
  <g
     aria-label="1"
     style="font-style:normal;font-variant:normal;font-weight:normal;font-stretch:normal;font-size:13.33333302px;font-family:KaTeX_Main;-inkscape-font-specification:'KaTeX_Main, Normal';font-variant-ligatures:normal;font-variant-caps:normal;font-variant-numeric:normal;font-feature-settings:normal;text-align:center;writing-mode:lr-tb;text-anchor:middle;fill:#000000"
     id="text28">
    <path
       d="m 137.62656,180.85858 q -0.22667,-0.04 -2.12,-0.04 -1.86667,0 -2.09334,0.04 h -0.16 v -0.61334 h 0.34667 q 0.77333,0 1,-0.04 0.10667,-0.0133 0.32,-0.16 v -6.89333 q -0.0267,0 -0.10667,0.04 -0.61333,0.24 -1.37333,0.25333 h -0.25333 v -0.61333 h 0.25333 q 1.12,-0.04 1.86667,-0.50667 0.24,-0.13333 0.41333,-0.30666 0.0267,-0.04 0.16,-0.04 0.13333,0 0.22667,0.08 v 3.98666 l 0.0133,4 q 0.2,0.2 0.86667,0.2 h 0.44 0.34666 v 0.61334 z"
       style="font-style:normal;font-variant:normal;font-weight:normal;font-stretch:normal;font-size:13.33333302px;font-family:KaTeX_Main;-inkscape-font-specification:'KaTeX_Main, Normal';font-variant-ligatures:normal;font-variant-caps:normal;font-variant-numeric:normal;font-feature-settings:normal;text-align:center;writing-mode:lr-tb;text-anchor:middle;fill:#000000"
       id="path3880" />
  </g>
  <line
     style="font-size:medium;font-family:sans-serif;text-anchor:middle;fill:none"
     id="line30"
     y2="239.55905"
     x2="135.41322"
     y1="39.559055"
     x1="135.41322"
     class="grid" />
  <line
     style="font-size:medium;font-family:sans-serif;text-anchor:middle;fill:none;stroke:#000000"
     x2="175.41322"
     y1="159.55905"
     x1="175.41322"
     id="line34"
     y2="165.55905" />
  <g
     aria-label="2"
     style="font-style:normal;font-variant:normal;font-weight:normal;font-stretch:normal;font-size:13.33333302px;font-family:KaTeX_Main;-inkscape-font-specification:'KaTeX_Main, Normal';font-variant-ligatures:normal;font-variant-caps:normal;font-variant-numeric:normal;font-feature-settings:normal;text-align:center;writing-mode:lr-tb;text-anchor:middle;fill:#000000"
     id="text36">
    <path
       d="m 173.54656,175.13858 q -0.37334,0 -0.58667,-0.24 -0.21333,-0.24 -0.21333,-0.58667 0,-0.96 0.72,-1.64 0.73333,-0.69333 1.74666,-0.69333 1.14667,0 1.89334,0.62666 0.76,0.61334 0.93333,1.61334 0.0267,0.24 0.0267,0.44 0,0.77333 -0.46667,1.45333 -0.37333,0.56 -1.50667,1.53333 -0.48,0.41334 -1.33333,1.22667 l -0.78667,0.74667 1.01334,0.0133 q 2.09333,0 2.22666,-0.0667 0.0533,-0.0133 0.13334,-0.28 0.0533,-0.14666 0.18666,-0.90666 v -0.04 h 0.53334 v 0.04 l -0.37334,2.44 v 0.04 h -4.94666 v -0.25334 q 0,-0.26666 0.0267,-0.30666 0.0133,-0.0133 1.12,-1.26667 1.45334,-1.61333 1.86667,-2.13333 0.89333,-1.21334 0.89333,-2.22667 0,-0.88 -0.46666,-1.46667 -0.45334,-0.6 -1.28,-0.6 -0.77334,0 -1.25334,0.69334 -0.0267,0.0533 -0.08,0.14666 -0.04,0.0667 -0.04,0.08 0,0.0133 0.0667,0.0133 0.33333,0 0.53333,0.24 0.21334,0.24 0.21334,0.56 0,0.33333 -0.22667,0.57333 -0.21333,0.22667 -0.57333,0.22667 z"
       style="font-style:normal;font-variant:normal;font-weight:normal;font-stretch:normal;font-size:13.33333302px;font-family:KaTeX_Main;-inkscape-font-specification:'KaTeX_Main, Normal';font-variant-ligatures:normal;font-variant-caps:normal;font-variant-numeric:normal;font-feature-settings:normal;text-align:center;writing-mode:lr-tb;text-anchor:middle;fill:#000000"
       id="path3877" />
  </g>
  <line
     style="font-size:medium;font-family:sans-serif;text-anchor:middle;fill:none"
     id="line38"
     y2="239.55905"
     x2="175.41322"
     y1="39.559055"
     x1="175.41322"
     class="grid" />
  <line
     style="font-size:medium;font-family:sans-serif;text-anchor:middle;fill:none;stroke:#000000"
     x2="215.41322"
     y1="159.55905"
     x1="215.41322"
     id="line42"
     y2="165.55905" />
  <g
     aria-label="3"
     style="font-style:normal;font-variant:normal;font-weight:normal;font-stretch:normal;font-size:13.33333302px;font-family:KaTeX_Main;-inkscape-font-specification:'KaTeX_Main, Normal';font-variant-ligatures:normal;font-variant-caps:normal;font-variant-numeric:normal;font-feature-settings:normal;text-align:center;writing-mode:lr-tb;text-anchor:middle;fill:#000000"
     id="text44">
    <path
       d="m 213.77322,174.68524 q -0.36,0 -0.57333,-0.22666 -0.2,-0.22667 -0.2,-0.58667 0,-0.76 0.6,-1.26667 0.6,-0.52 1.38667,-0.61333 h 0.2 q 0.46666,0 0.58666,0.0133 0.44,0.0667 0.89334,0.28 0.88,0.44 1.10666,1.25334 0.04,0.13333 0.04,0.36 0,0.78666 -0.49333,1.41333 -0.48,0.61333 -1.21333,0.88 -0.0667,0.0267 0,0.04 0.0267,0.0133 0.13333,0.04 0.81333,0.22667 1.37333,0.85333 0.56,0.61334 0.56,1.4 0,0.54667 -0.25333,1.05334 -0.32,0.68 -1.05333,1.13333 -0.72,0.44 -1.61334,0.44 -0.88,0 -1.56,-0.37333 -0.68,-0.37334 -0.92,-1 -0.13333,-0.28 -0.13333,-0.65334 0,-0.37333 0.24,-0.6 0.25333,-0.24 0.6,-0.24 0.37333,0 0.61333,0.24 0.24,0.24 0.24,0.6 0,0.30667 -0.17333,0.53334 -0.17333,0.22666 -0.46667,0.29333 l -0.0933,0.0267 q 0.72,0.6 1.65333,0.6 0.73334,0 1.10667,-0.70667 0.22667,-0.44 0.22667,-1.34667 v -0.26666 q 0,-1.26667 -0.85334,-1.69334 -0.2,-0.08 -0.81333,-0.0933 l -0.56,-0.0133 -0.04,-0.0267 q -0.0267,-0.04 -0.0267,-0.21333 0,-0.16 0.04,-0.2 0.04,-0.04 0.0667,-0.04 0.37333,0 0.77333,-0.0667 0.58667,-0.08 0.89334,-0.65333 0.30666,-0.58667 0.30666,-1.4 0,-0.86667 -0.46666,-1.16 -0.28,-0.18667 -0.62667,-0.18667 -0.66667,0 -1.17333,0.36 -0.0533,0.0267 -0.12,0.0933 -0.0667,0.0533 -0.10667,0.10667 l -0.04,0.0533 q 0.04,0.0133 0.0933,0.0267 0.26667,0.0267 0.44,0.25333 0.18667,0.22667 0.18667,0.52 0,0.32 -0.22667,0.54667 -0.21333,0.21333 -0.56,0.21333 z"
       style="font-style:normal;font-variant:normal;font-weight:normal;font-stretch:normal;font-size:13.33333302px;font-family:KaTeX_Main;-inkscape-font-specification:'KaTeX_Main, Normal';font-variant-ligatures:normal;font-variant-caps:normal;font-variant-numeric:normal;font-feature-settings:normal;text-align:center;writing-mode:lr-tb;text-anchor:middle;fill:#000000"
       id="path3874" />
  </g>
  <line
     style="font-size:medium;font-family:sans-serif;text-anchor:middle;fill:none"
     id="line46"
     y2="239.55905"
     x2="215.41322"
     y1="39.559055"
     x1="215.41322"
     class="grid" />
  <line
     style="font-size:medium;font-family:sans-serif;text-anchor:middle;fill:none;stroke:#000000"
     x2="255.41322"
     y1="159.55905"
     x1="255.41322"
     id="line50"
     y2="165.55905" />
  <g
     aria-label="4"
     style="font-style:normal;font-variant:normal;font-weight:normal;font-stretch:normal;font-size:13.33333302px;font-family:KaTeX_Main;-inkscape-font-specification:'KaTeX_Main, Normal';font-variant-ligatures:normal;font-variant-caps:normal;font-variant-numeric:normal;font-feature-settings:normal;text-align:center;writing-mode:lr-tb;text-anchor:middle;fill:#000000"
     id="text52">
    <path
       d="m 258.23989,180.85858 q -0.18667,-0.04 -1.72,-0.04 -1.6,0 -1.78667,0.04 h -0.12 v -0.61334 h 0.41334 q 0.57333,-0.0133 0.70666,-0.0667 0.10667,-0.0267 0.16,-0.13334 0.0133,-0.0267 0.0133,-0.72 v -0.66666 h -3.45334 v -0.61334 l 2.01334,-3.08 q 2.04,-3.09333 2.06666,-3.10666 0.0267,-0.0267 0.28,-0.0267 h 0.24 l 0.08,0.08 v 6.13333 h 1.22667 v 0.61334 h -1.22667 v 0.68 q 0,0.54666 0,0.64 0.0133,0.0933 0.08,0.16 0.10667,0.0933 0.76,0.10666 h 0.38667 v 0.61334 z m -2.25333,-2.81334 v -4.45333 l -2.92,4.44 1.45333,0.0133 z"
       style="font-style:normal;font-variant:normal;font-weight:normal;font-stretch:normal;font-size:13.33333302px;font-family:KaTeX_Main;-inkscape-font-specification:'KaTeX_Main, Normal';font-variant-ligatures:normal;font-variant-caps:normal;font-variant-numeric:normal;font-feature-settings:normal;text-align:center;writing-mode:lr-tb;text-anchor:middle;fill:#000000"
       id="path3871" />
  </g>
  <line
     style="font-size:medium;font-family:sans-serif;text-anchor:middle;fill:none"
     id="line54"
     y2="239.55905"
     x2="255.41322"
     y1="39.559055"
     x1="255.41322"
     class="grid" />
  <line
     style="font-size:medium;font-family:sans-serif;text-anchor:middle;fill:none;stroke:#000000"
     x2="295.41321"
     y1="159.55905"
     x1="295.41321"
     id="line58"
     y2="165.55905" />
  <g
     aria-label="5"
     style="font-style:normal;font-variant:normal;font-weight:normal;font-stretch:normal;font-size:13.33333302px;font-family:KaTeX_Main;-inkscape-font-specification:'KaTeX_Main, Normal';font-variant-ligatures:normal;font-variant-caps:normal;font-variant-numeric:normal;font-feature-settings:normal;text-align:center;writing-mode:lr-tb;text-anchor:middle;fill:#000000"
     id="text60">
    <path
       d="m 293.50654,178.00524 q 0.32,0 0.53333,0.22667 0.22667,0.21333 0.22667,0.54667 0,0.30666 -0.22667,0.52 -0.22666,0.21333 -0.50666,0.21333 h -0.0933 l 0.04,0.0667 q 0.2,0.42666 0.61334,0.70666 0.41333,0.28 0.97333,0.28 0.94667,0 1.36,-0.8 0.25333,-0.49333 0.25333,-1.70666 0,-1.37334 -0.36,-1.85334 -0.34666,-0.44 -0.85333,-0.44 -1.04,0 -1.57333,0.90667 -0.0533,0.0933 -0.10667,0.12 -0.04,0.0133 -0.18667,0.0133 -0.22666,0 -0.25333,-0.08 -0.0267,-0.0533 -0.0267,-2.33333 0,-0.4 -0.0133,-0.94667 0,-0.54666 0,-0.69333 0,-0.74667 0.08,-0.74667 0.0267,-0.0267 0.0533,-0.0267 l 0.24,0.08 q 0.86667,0.34666 1.77334,0.34666 0.94666,0 1.81333,-0.37333 0.10667,-0.0533 0.17333,-0.0533 0.10667,0 0.10667,0.24 v 0.17333 q -1.08,1.29333 -2.73333,1.29333 -0.41334,0 -0.74667,-0.08 l -0.13333,-0.0267 v 2.29333 q 0.76,-0.61333 1.56,-0.61333 0.25333,0 0.54666,0.0667 0.89334,0.22667 1.45334,1.01334 0.57333,0.78666 0.57333,1.84 0,1.21333 -0.85333,2.09333 -0.84,0.88 -2.08,0.88 -0.84,0 -1.42667,-0.46667 -0.25333,-0.16 -0.44,-0.44 -0.4,-0.48 -0.50667,-1.18666 0,-0.04 -0.0133,-0.12 0,-0.0933 0,-0.13334 0,-0.37333 0.21333,-0.58666 0.21334,-0.21334 0.54667,-0.21334 z"
       style="font-style:normal;font-variant:normal;font-weight:normal;font-stretch:normal;font-size:13.33333302px;font-family:KaTeX_Main;-inkscape-font-specification:'KaTeX_Main, Normal';font-variant-ligatures:normal;font-variant-caps:normal;font-variant-numeric:normal;font-feature-settings:normal;text-align:center;writing-mode:lr-tb;text-anchor:middle;fill:#000000"
       id="path3868" />
  </g>
  <line
     style="font-size:medium;font-family:sans-serif;text-anchor:middle;fill:none"
     id="line62"
     y2="239.55905"
     x2="295.41321"
     y1="39.559055"
     x1="295.41321"
     class="grid" />
  <line
     style="font-size:medium;font-family:sans-serif;text-anchor:middle;fill:none;stroke:#000000"
     x2="335.41321"
     y1="159.55905"
     x1="335.41321"
     id="line66"
     y2="165.55905" />
  <g
     aria-label="6"
     style="font-style:normal;font-variant:normal;font-weight:normal;font-stretch:normal;font-size:13.33333302px;font-family:KaTeX_Main;-inkscape-font-specification:'KaTeX_Main, Normal';font-variant-ligatures:normal;font-variant-caps:normal;font-variant-numeric:normal;font-feature-settings:normal;text-align:center;writing-mode:lr-tb;text-anchor:middle;fill:#000000"
     id="text68">
    <path
       d="m 337.05321,172.84524 q -0.29334,-0.29333 -0.82667,-0.33333 -0.93333,0 -1.56,0.8 -0.62667,0.86667 -0.62667,2.69333 l 0.0133,0.0533 0.10666,-0.17334 q 0.54667,-0.8 1.48,-0.8 0.61334,0 1.08,0.25334 0.32,0.18666 0.64,0.54666 0.32,0.34667 0.52,0.74667 0.28,0.65333 0.28,1.42667 v 0.24 q 0,0.30666 -0.0667,0.57333 -0.16,0.78667 -0.82667,1.48 -0.57333,0.6 -1.28,0.74667 -0.21333,0.0533 -0.53333,0.0533 -0.25334,0 -0.45334,-0.04 -0.98666,-0.18667 -1.57333,-1.06667 -0.78667,-1.24 -0.78667,-3.36 0,-1.44 0.50667,-2.52 0.50667,-1.08 1.41333,-1.68 0.72,-0.50666 1.56,-0.50666 0.77334,0 1.24,0.41333 0.48,0.41333 0.48,1.13333 0,0.33334 -0.2,0.53334 -0.18666,0.2 -0.50666,0.2 -0.32,0 -0.52,-0.18667 -0.18667,-0.18667 -0.18667,-0.52 0,-0.6 0.62667,-0.70667 z m -0.58667,3.2 q -0.37333,-0.48 -0.96,-0.48 -0.49333,0 -0.8,0.30667 -0.65333,0.65333 -0.65333,2.10667 0,1.18666 0.16,1.64 0.13333,0.4 0.45333,0.68 0.32,0.28 0.76,0.28 0.68,0 1.04,-0.50667 0.2,-0.28 0.25333,-0.66667 0.0533,-0.38666 0.0533,-1.12 v -0.21333 -0.21333 q 0,-0.76 -0.0533,-1.14667 -0.0533,-0.38667 -0.25333,-0.66667 z"
       style="font-style:normal;font-variant:normal;font-weight:normal;font-stretch:normal;font-size:13.33333302px;font-family:KaTeX_Main;-inkscape-font-specification:'KaTeX_Main, Normal';font-variant-ligatures:normal;font-variant-caps:normal;font-variant-numeric:normal;font-feature-settings:normal;text-align:center;writing-mode:lr-tb;text-anchor:middle;fill:#000000"
       id="path3865" />
  </g>
  <line
     style="font-size:medium;font-family:sans-serif;text-anchor:middle;fill:none"
     id="line70"
     y2="239.55905"
     x2="335.41321"
     y1="39.559055"
     x1="335.41321"
     class="grid" />
  <g
     aria-label="t (seconds)"
     style="font-style:normal;font-variant:normal;font-weight:normal;font-stretch:normal;font-size:21.33333397px;font-family:KaTeX_Main;-inkscape-font-specification:'KaTeX_Main, Normal';font-variant-ligatures:normal;font-variant-caps:normal;font-variant-numeric:normal;font-feature-settings:normal;text-align:center;writing-mode:lr-tb;text-anchor:middle;fill:#000000"
     id="text74">
    <path
       d="m 348.28832,155.12524 q -0.14933,-0.14933 -0.14933,-0.21333 0,-0.0853 0.064,-0.34133 0.0853,-0.27734 0.10666,-0.29867 0.0427,-0.10667 0.17067,-0.10667 0.14933,-0.0213 0.98133,-0.0213 h 1.00267 l 0.40533,-1.70667 q 0.34134,-1.408 0.42667,-1.68533 0.10667,-0.29867 0.27734,-0.46933 0.29866,-0.29867 0.704,-0.29867 0.68266,0 0.72533,0.61867 0,0.17066 -0.40533,1.792 -0.42667,1.68533 -0.448,1.70666 0,0.0427 0.96,0.0427 h 0.98133 q 0.14933,0.14933 0.14933,0.23467 0,0.46933 -0.27733,0.74666 h -2.06933 l -0.76801,3.09334 q -0.128,0.46933 -0.256,0.98133 -0.10666,0.512 -0.21333,0.896 -0.0853,0.384 -0.17067,0.704 -0.064,0.32 -0.128,0.512 -0.0427,0.17067 -0.0427,0.192 -0.0213,0.128 -0.0213,0.53333 0,0.68267 0.27734,0.72534 0.256,0.0853 0.59733,-0.064 0.512,-0.14934 1.00267,-0.768 0.49067,-0.61867 0.85333,-1.536 0.10667,-0.23467 0.17067,-0.27734 0.064,-0.0427 0.384,-0.0427 0.36267,0 0.40533,0.0427 0.128,0.10667 -0.0213,0.448 -0.23467,0.53334 -0.53333,1.06667 -0.66134,1.04533 -1.536,1.57867 -0.66134,0.36266 -1.30134,0.36266 -0.85333,0 -1.408,-0.55466 -0.53333,-0.55467 -0.53333,-1.408 0,-0.27734 0.78933,-3.41334 0.74667,-3.008 0.768,-3.02933 0,-0.0427 -0.96,-0.0427 z"
       style="font-style:italic;font-variant:normal;font-weight:normal;font-stretch:normal;font-size:21.33333397px;font-family:KaTeX_Main;-inkscape-font-specification:'KaTeX_Main, Italic';font-variant-ligatures:normal;font-variant-caps:normal;font-variant-numeric:normal;font-feature-settings:normal;text-align:center;writing-mode:lr-tb;text-anchor:middle"
       id="path3844" />
    <path
       d="m 365.80366,168.47991 q 0,0.192 -0.384,0.192 h -0.27734 q -0.14933,-0.128 -0.59733,-0.512 -3.84,-3.49867 -3.84,-10.15467 0,-2.60266 0.61867,-4.75733 0.98133,-3.34933 3.22133,-5.39733 0.14933,-0.128 0.34133,-0.27734 0.192,-0.17066 0.256,-0.23466 h 0.27734 q 0.256,0 0.32,0.064 0.064,0.064 0.064,0.128 0,0.0853 -0.23467,0.32 -3.30667,3.49866 -3.30667,10.15466 0,6.656 3.30667,10.15467 0.23467,0.23467 0.23467,0.32 z"
       style="font-style:normal;font-variant:normal;font-weight:normal;font-stretch:normal;font-size:21.33333397px;font-family:KaTeX_Main;-inkscape-font-specification:'KaTeX_Main, Normal';font-variant-ligatures:normal;font-variant-caps:normal;font-variant-numeric:normal;font-feature-settings:normal;text-align:center;writing-mode:lr-tb;text-anchor:middle;fill:#000000"
       id="path3846" />
    <path
       d="m 371.04465,154.50658 q -1.96266,0 -1.96266,1.38666 0,0.27734 0.0427,0.36267 0.192,0.512 0.66134,0.74667 0.46933,0.21333 1.45066,0.40533 1.216,0.21333 1.664,0.46933 1.344,0.64 1.728,2.112 0.0213,0.128 0.0213,0.512 0,0.832 -0.29867,1.472 -0.832,1.57867 -3.136,1.57867 -1.28,0 -2.21867,-0.768 l -0.17066,0.14933 -0.192,0.192 q -0.128,0.128 -0.256,0.23467 l -0.23467,0.21333 h -0.17067 q -0.14933,0 -0.27733,-0.128 v -1.68533 q 0,-1.38667 0,-1.6 0.0213,-0.21333 0.10667,-0.256 0.0427,-0.0213 0.34133,-0.0213 0.27733,0 0.32,0.0427 0.064,0.0427 0.128,0.29867 0.17067,0.81067 0.55467,1.472 0.74666,1.088 2.06933,1.088 2.06933,0 2.06933,-1.664 0,-0.61867 -0.384,-1.00267 -0.34133,-0.40533 -0.896,-0.576 -0.36266,-0.0853 -1.024,-0.23466 -1.19466,-0.23467 -1.62133,-0.448 -1.408,-0.66134 -1.64267,-1.984 -0.0213,-0.0853 -0.0213,-0.32 0,-2.45334 3.008,-2.752 0.0853,-0.0427 0.512,0 0.85333,0 1.49333,0.32 l 0.32,0.17066 0.192,-0.14933 q 0.27734,-0.23467 0.46934,-0.36267 h 0.17066 q 0.14934,0 0.27734,0.128 v 2.816 l -0.128,0.128 h -0.59734 q -0.128,-0.128 -0.128,-0.256 0,-0.98133 -0.59733,-1.536 -0.59733,-0.55466 -1.64267,-0.55466 z"
       style="font-style:normal;font-variant:normal;font-weight:normal;font-stretch:normal;font-size:21.33333397px;font-family:KaTeX_Main;-inkscape-font-specification:'KaTeX_Main, Normal';font-variant-ligatures:normal;font-variant-caps:normal;font-variant-numeric:normal;font-feature-settings:normal;text-align:center;writing-mode:lr-tb;text-anchor:middle;fill:#000000"
       id="path3848" />
    <path
       d="m 384.26132,158.11191 q 0,0.14933 -0.14933,0.29867 h -6.016 v 0.32 q 0,1.57866 0.42667,2.38933 0.768,1.57867 2.64533,1.57867 0.91733,0 1.536,-0.68267 0.42667,-0.42667 0.66133,-1.10933 0.064,-0.23467 0.128,-0.29867 0.064,-0.064 0.34134,-0.064 0.42666,0 0.42666,0.21333 0,0.0853 -0.064,0.27734 -0.40533,1.10933 -1.30133,1.83466 -0.87467,0.704 -2.15467,0.704 -0.40533,0 -0.93866,-0.10666 -1.216,-0.23467 -2.176,-1.10934 -0.96,-0.87466 -1.36534,-2.112 -0.256,-0.768 -0.256,-1.55733 0,-1.96267 1.152,-3.30667 1.152,-1.36533 2.83734,-1.57866 0.0853,-0.0213 0.29866,-0.0213 1.94134,0 2.944,1.152 1.024,1.13067 1.024,3.17867 z m -1.74933,-0.64 q -0.192,-2.32533 -1.57867,-2.816 -0.14933,-0.064 -0.448,-0.0853 -1.10933,0 -1.81333,1.024 -0.42667,0.68266 -0.55467,1.89866 v 0.14934 h 4.39467 z"
       style="font-style:normal;font-variant:normal;font-weight:normal;font-stretch:normal;font-size:21.33333397px;font-family:KaTeX_Main;-inkscape-font-specification:'KaTeX_Main, Normal';font-variant-ligatures:normal;font-variant-caps:normal;font-variant-numeric:normal;font-feature-settings:normal;text-align:center;writing-mode:lr-tb;text-anchor:middle;fill:#000000"
       id="path3850" />
    <path
       d="m 393.14365,156.53324 q -0.32,0.29867 -0.81066,0.29867 -0.49067,0 -0.81067,-0.32 -0.32,-0.34133 -0.32,-0.81067 0,-0.49066 0.32,-0.81066 0.10667,-0.10667 0.0853,-0.128 0,-0.0213 -0.192,-0.0427 -0.55466,-0.0853 -1.04533,-0.0853 -1.088,0 -1.70667,0.68266 -1.00266,1.00267 -1.00266,3.34934 0,1.74933 0.66133,2.752 0.87467,1.30133 2.34667,1.30133 0.53333,0 0.93866,-0.21333 0.896,-0.448 1.23734,-1.664 0.0427,-0.17067 0.10666,-0.21334 0.064,-0.0427 0.34134,-0.0427 h 0.29866 q 0.128,0.128 0.128,0.192 0,0.40533 -0.53333,1.25866 -1.06667,1.536 -3.008,1.536 -1.06667,0 -2.02667,-0.49066 -2.112,-1.088 -2.53866,-3.62667 -0.0213,-0.128 -0.0213,-0.68267 0,-0.55466 0.0213,-0.704 0.256,-2.00533 1.74933,-3.264 1.28,-1.024 2.83733,-1.024 2.752,0 3.22134,1.45067 0.064,0.192 0.064,0.49067 0,0.49066 -0.34134,0.81066 z"
       style="font-style:normal;font-variant:normal;font-weight:normal;font-stretch:normal;font-size:21.33333397px;font-family:KaTeX_Main;-inkscape-font-specification:'KaTeX_Main, Normal';font-variant-ligatures:normal;font-variant-caps:normal;font-variant-numeric:normal;font-feature-settings:normal;text-align:center;writing-mode:lr-tb;text-anchor:middle;fill:#000000"
       id="path3852" />
    <path
       d="m 394.92199,158.77324 q 0,-1.94133 1.23733,-3.328 1.23734,-1.408 2.96534,-1.62133 0.34133,-0.0427 0.53333,-0.0427 1.856,0 3.22133,1.36534 1.49334,1.49333 1.49334,3.60533 0,0.42667 -0.10667,1.00267 -0.256,1.344 -1.216,2.34666 -0.93867,0.98134 -2.28267,1.32267 -0.49066,0.128 -1.10933,0.128 -0.64,0 -1.13067,-0.128 -1.6,-0.40533 -2.60266,-1.68533 -1.00267,-1.30134 -1.00267,-2.96534 z m 5.12,-4.18133 q -0.10667,-0.0213 -0.34133,-0.0213 -0.64,0 -1.216,0.256 -1.19467,0.59733 -1.42934,2.32533 -0.0427,0.384 -0.0427,1.36533 0,2.02667 0.40533,2.88 0.68267,1.30134 2.24,1.30134 2.60267,0 2.60267,-3.47734 v -0.68266 q 0,-1.38667 -0.10667,-1.87734 -0.36267,-1.68533 -2.112,-2.06933 z"
       style="font-style:normal;font-variant:normal;font-weight:normal;font-stretch:normal;font-size:21.33333397px;font-family:KaTeX_Main;-inkscape-font-specification:'KaTeX_Main, Normal';font-variant-ligatures:normal;font-variant-caps:normal;font-variant-numeric:normal;font-feature-settings:normal;text-align:center;writing-mode:lr-tb;text-anchor:middle;fill:#000000"
       id="path3854" />
    <path
       d="m 409.00199,162.05858 q 0.17066,0.29866 1.00266,0.29866 h 0.29867 0.34133 v 0.98134 h -0.17066 q -0.27734,-0.064 -2.38934,-0.064 -2.112,0 -2.38933,0.064 h -0.17067 v -0.98134 h 0.34134 0.29866 q 0.832,0 1.00267,-0.29866 v -0.17067 q 0,-0.192 0,-0.49067 0,-0.29866 0,-0.66133 0.0213,-0.384 0.0213,-0.832 0,-0.46933 0,-0.896 0,-0.66133 -0.0213,-1.408 0,-0.768 0,-1.25867 v -0.49066 q -0.064,-0.40534 -0.32,-0.53334 -0.23467,-0.14933 -0.93867,-0.192 h -0.384 v -0.49066 q 0,-0.49067 0.0427,-0.49067 l 0.21333,-0.0213 q 0.21334,-0.0213 0.59734,-0.0427 0.40533,-0.0213 0.78933,-0.0427 0.36267,-0.0213 0.768,-0.0427 0.40533,-0.0427 0.61867,-0.064 0.21333,-0.0213 0.23466,-0.0213 h 0.064 v 0.85334 q 0,0.81066 0.0213,0.81066 l 0.0213,-0.0213 q 1.152,-1.64267 3.264,-1.64267 2.45333,0.0853 2.70933,2.41067 0.0213,0.14933 0.0213,2.96533 0,2.73067 0.0213,2.77334 0.0853,0.17066 0.256,0.23466 0.448,0.064 1.04533,0.064 h 0.34134 v 0.98134 h -0.17067 q -0.27733,-0.064 -2.38933,-0.064 -2.112,0 -2.38934,0.064 h -0.17066 v -0.98134 h 0.34133 0.17067 q 1.13066,0 1.13066,-0.34133 0.0213,-0.0427 0.0213,-2.944 -0.0213,-2.88 -0.0427,-3.05067 -0.14933,-0.68266 -0.49067,-0.98133 -0.32,-0.32 -1.00266,-0.32 -0.96,0 -1.68534,0.72533 -0.74666,0.74667 -0.87466,1.87734 0,0.0213 0,0.40533 0,0.36267 -0.0213,0.93867 0,0.576 0,1.088 0,0.32 0,0.68266 0,0.34134 0,0.61867 0.0213,0.27733 0.0213,0.512 0,0.21333 0,0.36267 z"
       style="font-style:normal;font-variant:normal;font-weight:normal;font-stretch:normal;font-size:21.33333397px;font-family:KaTeX_Main;-inkscape-font-specification:'KaTeX_Main, Normal';font-variant-ligatures:normal;font-variant-caps:normal;font-variant-numeric:normal;font-feature-settings:normal;text-align:center;writing-mode:lr-tb;text-anchor:middle;fill:#000000"
       id="path3856" />
    <path
       d="m 422.07165,153.90924 q 1.57867,0 2.816,1.04534 v -2.176 q 0,-2.21867 -0.0213,-2.304 -0.064,-0.40534 -0.32,-0.53334 -0.23467,-0.14933 -0.93867,-0.192 h -0.384 v -0.49066 q 0,-0.49067 0.0427,-0.49067 l 0.21333,-0.0213 q 0.21334,-0.0213 0.61867,-0.0427 0.40533,-0.0213 0.78933,-0.0427 0.36267,-0.0213 0.78934,-0.0427 0.42666,-0.0427 0.64,-0.064 0.21333,-0.0213 0.23466,-0.0213 h 0.064 v 6.48534 q 0,6.528 0.0213,6.592 0.064,0.42666 0.29866,0.576 0.256,0.128 0.96,0.17066 h 0.384 v 0.98134 q -0.0427,0 -1.64266,0.10666 -1.57867,0.10667 -1.664,0.128 h -0.14934 v -1.17333 l -0.17066,0.14933 q -1.216,1.024 -2.77334,1.024 -1.49333,0 -2.64533,-1.00266 -1.32267,-1.17334 -1.62133,-3.072 -0.0213,-0.17067 -0.0213,-0.74667 0,-2.06933 1.32267,-3.456 1.32267,-1.38667 3.15733,-1.38667 z m 2.752,2.13334 q -0.96,-1.344 -2.41066,-1.344 -1.04534,0 -1.856,0.768 -0.53334,0.55466 -0.72534,1.30133 -0.17066,0.74667 -0.17066,2.06933 0,2.368 0.896,3.24267 0.66133,0.704 1.664,0.704 0.74666,0 1.42933,-0.40533 0.68267,-0.40534 1.088,-1.10934 l 0.0853,-0.128 z"
       style="font-style:normal;font-variant:normal;font-weight:normal;font-stretch:normal;font-size:21.33333397px;font-family:KaTeX_Main;-inkscape-font-specification:'KaTeX_Main, Normal';font-variant-ligatures:normal;font-variant-caps:normal;font-variant-numeric:normal;font-feature-settings:normal;text-align:center;writing-mode:lr-tb;text-anchor:middle;fill:#000000"
       id="path3858" />
    <path
       d="m 432.79465,154.50658 q -1.96266,0 -1.96266,1.38666 0,0.27734 0.0427,0.36267 0.192,0.512 0.66134,0.74667 0.46933,0.21333 1.45066,0.40533 1.216,0.21333 1.664,0.46933 1.344,0.64 1.728,2.112 0.0213,0.128 0.0213,0.512 0,0.832 -0.29867,1.472 -0.832,1.57867 -3.136,1.57867 -1.28,0 -2.21867,-0.768 l -0.17066,0.14933 -0.192,0.192 q -0.128,0.128 -0.256,0.23467 l -0.23467,0.21333 h -0.17067 q -0.14933,0 -0.27733,-0.128 v -1.68533 q 0,-1.38667 0,-1.6 0.0213,-0.21333 0.10667,-0.256 0.0427,-0.0213 0.34133,-0.0213 0.27733,0 0.32,0.0427 0.064,0.0427 0.128,0.29867 0.17067,0.81067 0.55467,1.472 0.74666,1.088 2.06933,1.088 2.06933,0 2.06933,-1.664 0,-0.61867 -0.384,-1.00267 -0.34133,-0.40533 -0.896,-0.576 -0.36266,-0.0853 -1.024,-0.23466 -1.19466,-0.23467 -1.62133,-0.448 -1.408,-0.66134 -1.64267,-1.984 -0.0213,-0.0853 -0.0213,-0.32 0,-2.45334 3.008,-2.752 0.0853,-0.0427 0.512,0 0.85333,0 1.49333,0.32 l 0.32,0.17066 0.192,-0.14933 q 0.27734,-0.23467 0.46934,-0.36267 h 0.17066 q 0.14934,0 0.27734,0.128 v 2.816 l -0.128,0.128 h -0.59734 q -0.128,-0.128 -0.128,-0.256 0,-0.98133 -0.59733,-1.536 -0.59733,-0.55466 -1.64267,-0.55466 z"
       style="font-style:normal;font-variant:normal;font-weight:normal;font-stretch:normal;font-size:21.33333397px;font-family:KaTeX_Main;-inkscape-font-specification:'KaTeX_Main, Normal';font-variant-ligatures:normal;font-variant-caps:normal;font-variant-numeric:normal;font-feature-settings:normal;text-align:center;writing-mode:lr-tb;text-anchor:middle;fill:#000000"
       id="path3860" />
    <path
       d="m 438.43799,147.35991 0.0853,-0.0213 q 0.10666,0 0.21333,0 h 0.256 q 0.14933,0.128 0.59733,0.512 3.84,3.49866 3.84,10.15466 0,2.624 -0.61866,4.736 -0.98134,3.37067 -3.22134,5.41867 -0.14933,0.128 -0.34133,0.27733 -0.192,0.17067 -0.256,0.23467 h -0.256 q -0.256,0 -0.34133,-0.0427 -0.064,-0.0427 -0.064,-0.21333 0.0213,-0.0213 0.23466,-0.27733 3.30667,-3.43467 3.30667,-10.13334 0,-6.69866 -3.30667,-10.13333 -0.21333,-0.256 -0.23466,-0.27733 0,-0.17067 0.10666,-0.23467 z"
       style="font-style:normal;font-variant:normal;font-weight:normal;font-stretch:normal;font-size:21.33333397px;font-family:KaTeX_Main;-inkscape-font-specification:'KaTeX_Main, Normal';font-variant-ligatures:normal;font-variant-caps:normal;font-variant-numeric:normal;font-feature-settings:normal;text-align:center;writing-mode:lr-tb;text-anchor:middle;fill:#000000"
       id="path3862" />
  </g>
  <path
     class="domain"
     d="m 94.913229,240.05906 h 0.5 V 40.059056 h -0.5"
     id="path78"
     inkscape:connector-curvature="0"
     style="font-size:medium;font-family:sans-serif;text-anchor:end;fill:none;stroke:#000000" />
  <line
     style="font-size:medium;font-family:sans-serif;text-anchor:end;fill:none;stroke:#000000"
     y2="240.05905"
     y1="240.05905"
     x1="94.913231"
     id="line80"
     x2="88.913231" />
  <g
     aria-label="-2.0"
     style="font-style:normal;font-variant:normal;font-weight:normal;font-stretch:normal;font-size:13.33333302px;font-family:KaTeX_Main;-inkscape-font-specification:'KaTeX_Main, Normal';font-variant-ligatures:normal;font-variant-caps:normal;font-variant-numeric:normal;font-feature-settings:normal;text-align:center;writing-mode:lr-tb;text-anchor:middle;fill:#000000"
     id="text82">
    <path
       d="m 63.979125,241.51238 v -0.97333 h 3.546667 v 0.97333 z"
       style="font-style:normal;font-variant:normal;font-weight:normal;font-stretch:normal;font-size:13.33333302px;font-family:KaTeX_Main;-inkscape-font-specification:'KaTeX_Main, Normal';font-variant-ligatures:normal;font-variant-caps:normal;font-variant-numeric:normal;font-feature-settings:normal;text-align:center;writing-mode:lr-tb;text-anchor:middle;fill:#000000"
       id="path3835" />
    <path
       d="m 69.75225,238.17905 q -0.373333,0 -0.586666,-0.24 -0.213334,-0.24 -0.213334,-0.58667 0,-0.96 0.72,-1.64 0.733334,-0.69333 1.746667,-0.69333 1.146667,0 1.893333,0.62667 0.76,0.61333 0.933334,1.61333 0.02667,0.24 0.02667,0.44 0,0.77333 -0.466666,1.45333 -0.373334,0.56 -1.506667,1.53334 -0.48,0.41333 -1.333333,1.22666 l -0.786667,0.74667 1.013333,0.0133 q 2.093334,0 2.226667,-0.0667 0.05333,-0.0133 0.133333,-0.28 0.05333,-0.14667 0.186667,-0.90667 v -0.04 h 0.533333 v 0.04 l -0.373333,2.44 v 0.04 H 68.95225 v -0.25333 q 0,-0.26667 0.02667,-0.30667 0.01333,-0.0133 1.12,-1.26667 1.453333,-1.61333 1.866667,-2.13333 0.893333,-1.21333 0.893333,-2.22667 0,-0.88 -0.466667,-1.46666 -0.453333,-0.6 -1.28,-0.6 -0.773333,0 -1.253333,0.69333 -0.02667,0.0533 -0.08,0.14667 -0.04,0.0667 -0.04,0.08 0,0.0133 0.06667,0.0133 0.333333,0 0.533333,0.24 0.213333,0.24 0.213333,0.56 0,0.33333 -0.226666,0.57333 -0.213334,0.22667 -0.573334,0.22667 z"
       style="font-style:normal;font-variant:normal;font-weight:normal;font-stretch:normal;font-size:13.33333302px;font-family:KaTeX_Main;-inkscape-font-specification:'KaTeX_Main, Normal';font-variant-ligatures:normal;font-variant-caps:normal;font-variant-numeric:normal;font-feature-settings:normal;text-align:center;writing-mode:lr-tb;text-anchor:middle;fill:#000000"
       id="path3837" />
    <path
       d="m 75.99225,243.09905 q 0,-0.34667 0.226666,-0.57333 0.226667,-0.22667 0.573334,-0.22667 0.346666,0 0.573333,0.24 0.24,0.22667 0.24,0.54667 0,0.34666 -0.24,0.58666 -0.24,0.22667 -0.56,0.22667 -0.346667,0 -0.586667,-0.24 -0.226666,-0.24 -0.226666,-0.56 z"
       style="font-style:normal;font-variant:normal;font-weight:normal;font-stretch:normal;font-size:13.33333302px;font-family:KaTeX_Main;-inkscape-font-specification:'KaTeX_Main, Normal';font-variant-ligatures:normal;font-variant-caps:normal;font-variant-numeric:normal;font-feature-settings:normal;text-align:center;writing-mode:lr-tb;text-anchor:middle;fill:#000000"
       id="path3839" />
    <path
       d="m 79.930167,236.09905 q 0.746666,-1.08 2.04,-1.08 0.973333,0 1.706666,0.66667 0.36,0.34666 0.613334,0.90666 0.493333,1.10667 0.493333,3.04 0,2.06667 -0.573333,3.16 -0.373334,0.77334 -1.093334,1.12 -0.56,0.28 -1.133333,0.28 -1.533333,0 -2.24,-1.4 -0.573333,-1.09333 -0.573333,-3.16 0,-1.24 0.16,-2.04 0.173333,-0.81333 0.6,-1.49333 z m 3,-0.16 q -0.386667,-0.42667 -0.946667,-0.42667 -0.56,0 -0.96,0.42667 -0.293333,0.30667 -0.4,0.74667 -0.106667,0.44 -0.133333,1.52 0,0.08 -0.01333,0.52 0,0.44 0,0.73333 0,1.28 0.02667,1.78667 0.05333,0.93333 0.16,1.34666 0.106667,0.4 0.4,0.69334 0.36,0.4 0.92,0.4 0.546667,0 0.906667,-0.4 0.293333,-0.29334 0.4,-0.69334 0.106666,-0.41333 0.16,-1.34666 0.02667,-0.50667 0.02667,-1.78667 0,-0.29333 -0.01333,-0.73333 0,-0.44 0,-0.52 -0.02667,-1.08 -0.133333,-1.52 -0.106667,-0.44 -0.4,-0.74667 z"
       style="font-style:normal;font-variant:normal;font-weight:normal;font-stretch:normal;font-size:13.33333302px;font-family:KaTeX_Main;-inkscape-font-specification:'KaTeX_Main, Normal';font-variant-ligatures:normal;font-variant-caps:normal;font-variant-numeric:normal;font-feature-settings:normal;text-align:center;writing-mode:lr-tb;text-anchor:middle;fill:#000000"
       id="path3841" />
  </g>
  <line
     style="font-size:medium;font-family:sans-serif;text-anchor:end;fill:none"
     id="line84"
     y2="240.05905"
     x2="334.91321"
     y1="240.05905"
     x1="14.913229"
     class="grid" />
  <line
     style="font-size:medium;font-family:sans-serif;text-anchor:end;fill:none;stroke:#000000"
     y2="220.05905"
     y1="220.05905"
     x1="94.913231"
     id="line88"
     x2="88.913231" />
  <g
     aria-label="-1.5"
     style="font-style:normal;font-variant:normal;font-weight:normal;font-stretch:normal;font-size:13.33333302px;font-family:KaTeX_Main;-inkscape-font-specification:'KaTeX_Main, Normal';font-variant-ligatures:normal;font-variant-caps:normal;font-variant-numeric:normal;font-feature-settings:normal;text-align:center;writing-mode:lr-tb;text-anchor:middle;fill:#000000"
     id="text90">
    <path
       d="m 63.979125,221.51238 v -0.97333 h 3.546667 v 0.97333 z"
       style="font-style:normal;font-variant:normal;font-weight:normal;font-stretch:normal;font-size:13.33333302px;font-family:KaTeX_Main;-inkscape-font-specification:'KaTeX_Main, Normal';font-variant-ligatures:normal;font-variant-caps:normal;font-variant-numeric:normal;font-feature-settings:normal;text-align:center;writing-mode:lr-tb;text-anchor:middle;fill:#000000"
       id="path3826" />
    <path
       d="m 73.83225,223.89905 q -0.226666,-0.04 -2.12,-0.04 -1.866666,0 -2.093333,0.04 h -0.16 v -0.61333 h 0.346667 q 0.773333,0 1,-0.04 0.106666,-0.0133 0.32,-0.16 v -6.89334 q -0.02667,0 -0.106667,0.04 -0.613333,0.24 -1.373333,0.25334 H 69.39225 v -0.61334 h 0.253334 q 1.12,-0.04 1.866666,-0.50666 0.24,-0.13334 0.413334,-0.30667 0.02667,-0.04 0.16,-0.04 0.133333,0 0.226666,0.08 v 3.98667 l 0.01333,4 q 0.2,0.2 0.866666,0.2 h 0.44 0.346667 v 0.61333 z"
       style="font-style:normal;font-variant:normal;font-weight:normal;font-stretch:normal;font-size:13.33333302px;font-family:KaTeX_Main;-inkscape-font-specification:'KaTeX_Main, Normal';font-variant-ligatures:normal;font-variant-caps:normal;font-variant-numeric:normal;font-feature-settings:normal;text-align:center;writing-mode:lr-tb;text-anchor:middle;fill:#000000"
       id="path3828" />
    <path
       d="m 75.99225,223.09905 q 0,-0.34667 0.226666,-0.57333 0.226667,-0.22667 0.573334,-0.22667 0.346666,0 0.573333,0.24 0.24,0.22667 0.24,0.54667 0,0.34666 -0.24,0.58666 -0.24,0.22667 -0.56,0.22667 -0.346667,0 -0.586667,-0.24 -0.226666,-0.24 -0.226666,-0.56 z"
       style="font-style:normal;font-variant:normal;font-weight:normal;font-stretch:normal;font-size:13.33333302px;font-family:KaTeX_Main;-inkscape-font-specification:'KaTeX_Main, Normal';font-variant-ligatures:normal;font-variant-caps:normal;font-variant-numeric:normal;font-feature-settings:normal;text-align:center;writing-mode:lr-tb;text-anchor:middle;fill:#000000"
       id="path3830" />
    <path
       d="m 80.076833,221.04572 q 0.32,0 0.533334,0.22666 0.226666,0.21334 0.226666,0.54667 0,0.30667 -0.226666,0.52 -0.226667,0.21333 -0.506667,0.21333 h -0.09333 l 0.04,0.0667 q 0.2,0.42667 0.613333,0.70667 0.413333,0.28 0.973333,0.28 0.946667,0 1.36,-0.8 0.253334,-0.49334 0.253334,-1.70667 0,-1.37333 -0.36,-1.85333 -0.346667,-0.44 -0.853334,-0.44 -1.04,0 -1.573333,0.90666 -0.05333,0.0933 -0.106667,0.12 -0.04,0.0133 -0.186666,0.0133 -0.226667,0 -0.253334,-0.08 -0.02667,-0.0533 -0.02667,-2.33334 0,-0.4 -0.01333,-0.94666 0,-0.54667 0,-0.69334 0,-0.74666 0.08,-0.74666 0.02667,-0.0267 0.05333,-0.0267 l 0.24,0.08 q 0.866666,0.34667 1.773333,0.34667 0.946667,0 1.813333,-0.37334 0.106667,-0.0533 0.173334,-0.0533 0.106666,0 0.106666,0.24 v 0.17333 q -1.08,1.29334 -2.733333,1.29334 -0.413333,0 -0.746667,-0.08 l -0.133333,-0.0267 v 2.29333 q 0.76,-0.61333 1.56,-0.61333 0.253333,0 0.546667,0.0667 0.893333,0.22666 1.453333,1.01333 0.573333,0.78667 0.573333,1.84 0,1.21333 -0.853333,2.09333 -0.84,0.88 -2.08,0.88 -0.84,0 -1.426667,-0.46666 -0.253333,-0.16 -0.44,-0.44 -0.4,-0.48 -0.506666,-1.18667 0,-0.04 -0.01333,-0.12 0,-0.0933 0,-0.13333 0,-0.37334 0.213334,-0.58667 0.213333,-0.21333 0.546666,-0.21333 z"
       style="font-style:normal;font-variant:normal;font-weight:normal;font-stretch:normal;font-size:13.33333302px;font-family:KaTeX_Main;-inkscape-font-specification:'KaTeX_Main, Normal';font-variant-ligatures:normal;font-variant-caps:normal;font-variant-numeric:normal;font-feature-settings:normal;text-align:center;writing-mode:lr-tb;text-anchor:middle;fill:#000000"
       id="path3832" />
  </g>
  <line
     style="font-size:medium;font-family:sans-serif;text-anchor:end;fill:none"
     id="line92"
     y2="220.05905"
     x2="334.91321"
     y1="220.05905"
     x1="14.913229"
     class="grid" />
  <line
     style="font-size:medium;font-family:sans-serif;text-anchor:end;fill:none;stroke:#000000"
     y2="200.05905"
     y1="200.05905"
     x1="94.913231"
     id="line96"
     x2="88.913231" />
  <g
     aria-label="-1.0"
     style="font-style:normal;font-variant:normal;font-weight:normal;font-stretch:normal;font-size:13.33333302px;font-family:KaTeX_Main;-inkscape-font-specification:'KaTeX_Main, Normal';font-variant-ligatures:normal;font-variant-caps:normal;font-variant-numeric:normal;font-feature-settings:normal;text-align:center;writing-mode:lr-tb;text-anchor:middle;fill:#000000"
     id="text98">
    <path
       d="m 63.979125,201.51238 v -0.97333 h 3.546667 v 0.97333 z"
       style="font-style:normal;font-variant:normal;font-weight:normal;font-stretch:normal;font-size:13.33333302px;font-family:KaTeX_Main;-inkscape-font-specification:'KaTeX_Main, Normal';font-variant-ligatures:normal;font-variant-caps:normal;font-variant-numeric:normal;font-feature-settings:normal;text-align:center;writing-mode:lr-tb;text-anchor:middle;fill:#000000"
       id="path3817" />
    <path
       d="m 73.83225,203.89905 q -0.226666,-0.04 -2.12,-0.04 -1.866666,0 -2.093333,0.04 h -0.16 v -0.61333 h 0.346667 q 0.773333,0 1,-0.04 0.106666,-0.0133 0.32,-0.16 v -6.89334 q -0.02667,0 -0.106667,0.04 -0.613333,0.24 -1.373333,0.25334 H 69.39225 v -0.61334 h 0.253334 q 1.12,-0.04 1.866666,-0.50666 0.24,-0.13334 0.413334,-0.30667 0.02667,-0.04 0.16,-0.04 0.133333,0 0.226666,0.08 v 3.98667 l 0.01333,4 q 0.2,0.2 0.866666,0.2 h 0.44 0.346667 v 0.61333 z"
       style="font-style:normal;font-variant:normal;font-weight:normal;font-stretch:normal;font-size:13.33333302px;font-family:KaTeX_Main;-inkscape-font-specification:'KaTeX_Main, Normal';font-variant-ligatures:normal;font-variant-caps:normal;font-variant-numeric:normal;font-feature-settings:normal;text-align:center;writing-mode:lr-tb;text-anchor:middle;fill:#000000"
       id="path3819" />
    <path
       d="m 75.99225,203.09905 q 0,-0.34667 0.226666,-0.57333 0.226667,-0.22667 0.573334,-0.22667 0.346666,0 0.573333,0.24 0.24,0.22667 0.24,0.54667 0,0.34666 -0.24,0.58666 -0.24,0.22667 -0.56,0.22667 -0.346667,0 -0.586667,-0.24 -0.226666,-0.24 -0.226666,-0.56 z"
       style="font-style:normal;font-variant:normal;font-weight:normal;font-stretch:normal;font-size:13.33333302px;font-family:KaTeX_Main;-inkscape-font-specification:'KaTeX_Main, Normal';font-variant-ligatures:normal;font-variant-caps:normal;font-variant-numeric:normal;font-feature-settings:normal;text-align:center;writing-mode:lr-tb;text-anchor:middle;fill:#000000"
       id="path3821" />
    <path
       d="m 79.930167,196.09905 q 0.746666,-1.08 2.04,-1.08 0.973333,0 1.706666,0.66667 0.36,0.34666 0.613334,0.90666 0.493333,1.10667 0.493333,3.04 0,2.06667 -0.573333,3.16 -0.373334,0.77334 -1.093334,1.12 -0.56,0.28 -1.133333,0.28 -1.533333,0 -2.24,-1.4 -0.573333,-1.09333 -0.573333,-3.16 0,-1.24 0.16,-2.04 0.173333,-0.81333 0.6,-1.49333 z m 3,-0.16 q -0.386667,-0.42667 -0.946667,-0.42667 -0.56,0 -0.96,0.42667 -0.293333,0.30667 -0.4,0.74667 -0.106667,0.44 -0.133333,1.52 0,0.08 -0.01333,0.52 0,0.44 0,0.73333 0,1.28 0.02667,1.78667 0.05333,0.93333 0.16,1.34666 0.106667,0.4 0.4,0.69334 0.36,0.4 0.92,0.4 0.546667,0 0.906667,-0.4 0.293333,-0.29334 0.4,-0.69334 0.106666,-0.41333 0.16,-1.34666 0.02667,-0.50667 0.02667,-1.78667 0,-0.29333 -0.01333,-0.73333 0,-0.44 0,-0.52 -0.02667,-1.08 -0.133333,-1.52 -0.106667,-0.44 -0.4,-0.74667 z"
       style="font-style:normal;font-variant:normal;font-weight:normal;font-stretch:normal;font-size:13.33333302px;font-family:KaTeX_Main;-inkscape-font-specification:'KaTeX_Main, Normal';font-variant-ligatures:normal;font-variant-caps:normal;font-variant-numeric:normal;font-feature-settings:normal;text-align:center;writing-mode:lr-tb;text-anchor:middle;fill:#000000"
       id="path3823" />
  </g>
  <line
     style="font-size:medium;font-family:sans-serif;text-anchor:end;fill:none"
     id="line100"
     y2="200.05905"
     x2="334.91321"
     y1="200.05905"
     x1="14.913229"
     class="grid" />
  <line
     style="font-size:medium;font-family:sans-serif;text-anchor:end;fill:none;stroke:#000000"
     y2="180.05905"
     y1="180.05905"
     x1="94.913231"
     id="line104"
     x2="88.913231" />
  <g
     aria-label="-0.5"
     style="font-style:normal;font-variant:normal;font-weight:normal;font-stretch:normal;font-size:13.33333302px;font-family:KaTeX_Main;-inkscape-font-specification:'KaTeX_Main, Normal';font-variant-ligatures:normal;font-variant-caps:normal;font-variant-numeric:normal;font-feature-settings:normal;text-align:center;writing-mode:lr-tb;text-anchor:middle;fill:#000000"
     id="text106">
    <path
       d="m 63.979125,181.51238 v -0.97333 h 3.546667 v 0.97333 z"
       style="font-style:normal;font-variant:normal;font-weight:normal;font-stretch:normal;font-size:13.33333302px;font-family:KaTeX_Main;-inkscape-font-specification:'KaTeX_Main, Normal';font-variant-ligatures:normal;font-variant-caps:normal;font-variant-numeric:normal;font-feature-settings:normal;text-align:center;writing-mode:lr-tb;text-anchor:middle;fill:#000000"
       id="path3808" />
    <path
       d="m 69.565584,176.09905 q 0.746666,-1.08 2.04,-1.08 0.973333,0 1.706666,0.66667 0.36,0.34666 0.613334,0.90666 0.493333,1.10667 0.493333,3.04 0,2.06667 -0.573333,3.16 -0.373334,0.77334 -1.093334,1.12 -0.56,0.28 -1.133333,0.28 -1.533333,0 -2.24,-1.4 -0.573333,-1.09333 -0.573333,-3.16 0,-1.24 0.16,-2.04 0.173333,-0.81333 0.6,-1.49333 z m 3,-0.16 q -0.386667,-0.42667 -0.946667,-0.42667 -0.56,0 -0.96,0.42667 -0.293333,0.30667 -0.4,0.74667 -0.106667,0.44 -0.133333,1.52 0,0.08 -0.01333,0.52 0,0.44 0,0.73333 0,1.28 0.02667,1.78667 0.05333,0.93333 0.16,1.34666 0.106667,0.4 0.4,0.69334 0.36,0.4 0.92,0.4 0.546667,0 0.906667,-0.4 0.293333,-0.29334 0.4,-0.69334 0.106666,-0.41333 0.16,-1.34666 0.02667,-0.50667 0.02667,-1.78667 0,-0.29333 -0.01333,-0.73333 0,-0.44 0,-0.52 -0.02667,-1.08 -0.133333,-1.52 -0.106667,-0.44 -0.4,-0.74667 z"
       style="font-style:normal;font-variant:normal;font-weight:normal;font-stretch:normal;font-size:13.33333302px;font-family:KaTeX_Main;-inkscape-font-specification:'KaTeX_Main, Normal';font-variant-ligatures:normal;font-variant-caps:normal;font-variant-numeric:normal;font-feature-settings:normal;text-align:center;writing-mode:lr-tb;text-anchor:middle;fill:#000000"
       id="path3810" />
    <path
       d="m 75.99225,183.09905 q 0,-0.34667 0.226666,-0.57333 0.226667,-0.22667 0.573334,-0.22667 0.346666,0 0.573333,0.24 0.24,0.22667 0.24,0.54667 0,0.34666 -0.24,0.58666 -0.24,0.22667 -0.56,0.22667 -0.346667,0 -0.586667,-0.24 -0.226666,-0.24 -0.226666,-0.56 z"
       style="font-style:normal;font-variant:normal;font-weight:normal;font-stretch:normal;font-size:13.33333302px;font-family:KaTeX_Main;-inkscape-font-specification:'KaTeX_Main, Normal';font-variant-ligatures:normal;font-variant-caps:normal;font-variant-numeric:normal;font-feature-settings:normal;text-align:center;writing-mode:lr-tb;text-anchor:middle;fill:#000000"
       id="path3812" />
    <path
       d="m 80.076833,181.04572 q 0.32,0 0.533334,0.22666 0.226666,0.21334 0.226666,0.54667 0,0.30667 -0.226666,0.52 -0.226667,0.21333 -0.506667,0.21333 h -0.09333 l 0.04,0.0667 q 0.2,0.42667 0.613333,0.70667 0.413333,0.28 0.973333,0.28 0.946667,0 1.36,-0.8 0.253334,-0.49334 0.253334,-1.70667 0,-1.37333 -0.36,-1.85333 -0.346667,-0.44 -0.853334,-0.44 -1.04,0 -1.573333,0.90666 -0.05333,0.0933 -0.106667,0.12 -0.04,0.0133 -0.186666,0.0133 -0.226667,0 -0.253334,-0.08 -0.02667,-0.0533 -0.02667,-2.33334 0,-0.4 -0.01333,-0.94666 0,-0.54667 0,-0.69334 0,-0.74666 0.08,-0.74666 0.02667,-0.0267 0.05333,-0.0267 l 0.24,0.08 q 0.866666,0.34667 1.773333,0.34667 0.946667,0 1.813333,-0.37334 0.106667,-0.0533 0.173334,-0.0533 0.106666,0 0.106666,0.24 v 0.17333 q -1.08,1.29334 -2.733333,1.29334 -0.413333,0 -0.746667,-0.08 l -0.133333,-0.0267 v 2.29333 q 0.76,-0.61333 1.56,-0.61333 0.253333,0 0.546667,0.0667 0.893333,0.22666 1.453333,1.01333 0.573333,0.78667 0.573333,1.84 0,1.21333 -0.853333,2.09333 -0.84,0.88 -2.08,0.88 -0.84,0 -1.426667,-0.46666 -0.253333,-0.16 -0.44,-0.44 -0.4,-0.48 -0.506666,-1.18667 0,-0.04 -0.01333,-0.12 0,-0.0933 0,-0.13333 0,-0.37334 0.213334,-0.58667 0.213333,-0.21333 0.546666,-0.21333 z"
       style="font-style:normal;font-variant:normal;font-weight:normal;font-stretch:normal;font-size:13.33333302px;font-family:KaTeX_Main;-inkscape-font-specification:'KaTeX_Main, Normal';font-variant-ligatures:normal;font-variant-caps:normal;font-variant-numeric:normal;font-feature-settings:normal;text-align:center;writing-mode:lr-tb;text-anchor:middle;fill:#000000"
       id="path3814" />
  </g>
  <line
     style="font-size:medium;font-family:sans-serif;text-anchor:end;fill:none"
     id="line108"
     y2="180.05905"
     x2="334.91321"
     y1="180.05905"
     x1="14.913229"
     class="grid" />
  <line
     style="font-size:medium;font-family:sans-serif;text-anchor:end;fill:none;stroke:#000000"
     y2="160.05905"
     y1="160.05905"
     x1="94.913231"
     id="line112"
     x2="88.913231" />
  <line
     style="font-size:medium;font-family:sans-serif;text-anchor:end;fill:none"
     id="line114"
     y2="160.05905"
     x2="334.91321"
     y1="160.05905"
     x1="14.913229"
     class="grid" />
  <line
     style="font-size:medium;font-family:sans-serif;text-anchor:end;fill:none;stroke:#000000"
     y2="140.05905"
     y1="140.05905"
     x1="94.913231"
     id="line118"
     x2="88.913231" />
  <g
     aria-label="0.5"
     style="font-style:normal;font-variant:normal;font-weight:normal;font-stretch:normal;font-size:13.33333302px;font-family:KaTeX_Main;-inkscape-font-specification:'KaTeX_Main, Normal';font-variant-ligatures:normal;font-variant-caps:normal;font-variant-numeric:normal;font-feature-settings:normal;text-align:center;writing-mode:lr-tb;text-anchor:middle;fill:#000000"
     id="text120">
    <path
       d="m 67.339021,136.09905 q 0.746667,-1.08 2.04,-1.08 0.973333,0 1.706667,0.66667 0.36,0.34666 0.613333,0.90666 0.493333,1.10667 0.493333,3.04 0,2.06667 -0.573333,3.16 -0.373333,0.77334 -1.093333,1.12 -0.56,0.28 -1.133334,0.28 -1.533333,0 -2.239999,-1.4 -0.573334,-1.09333 -0.573334,-3.16 0,-1.24 0.16,-2.04 0.173334,-0.81333 0.6,-1.49333 z m 3,-0.16 q -0.386667,-0.42667 -0.946667,-0.42667 -0.56,0 -0.96,0.42667 -0.293333,0.30667 -0.4,0.74667 -0.106666,0.44 -0.133333,1.52 0,0.08 -0.01333,0.52 0,0.44 0,0.73333 0,1.28 0.02667,1.78667 0.05333,0.93333 0.16,1.34666 0.106667,0.4 0.4,0.69334 0.36,0.4 0.92,0.4 0.546667,0 0.906667,-0.4 0.293333,-0.29334 0.4,-0.69334 0.106667,-0.41333 0.16,-1.34666 0.02667,-0.50667 0.02667,-1.78667 0,-0.29333 -0.01333,-0.73333 0,-0.44 0,-0.52 -0.02667,-1.08 -0.133333,-1.52 -0.106667,-0.44 -0.4,-0.74667 z"
       style="font-style:normal;font-variant:normal;font-weight:normal;font-stretch:normal;font-size:13.33333302px;font-family:KaTeX_Main;-inkscape-font-specification:'KaTeX_Main, Normal';font-variant-ligatures:normal;font-variant-caps:normal;font-variant-numeric:normal;font-feature-settings:normal;text-align:center;writing-mode:lr-tb;text-anchor:middle;fill:#000000"
       id="path3801" />
    <path
       d="m 73.765688,143.09905 q 0,-0.34667 0.226666,-0.57333 0.226667,-0.22667 0.573334,-0.22667 0.346666,0 0.573333,0.24 0.24,0.22667 0.24,0.54667 0,0.34666 -0.24,0.58666 -0.24,0.22667 -0.56,0.22667 -0.346667,0 -0.586667,-0.24 -0.226666,-0.24 -0.226666,-0.56 z"
       style="font-style:normal;font-variant:normal;font-weight:normal;font-stretch:normal;font-size:13.33333302px;font-family:KaTeX_Main;-inkscape-font-specification:'KaTeX_Main, Normal';font-variant-ligatures:normal;font-variant-caps:normal;font-variant-numeric:normal;font-feature-settings:normal;text-align:center;writing-mode:lr-tb;text-anchor:middle;fill:#000000"
       id="path3803" />
    <path
       d="m 77.850271,141.04572 q 0.32,0 0.533333,0.22666 0.226667,0.21334 0.226667,0.54667 0,0.30667 -0.226667,0.52 -0.226666,0.21333 -0.506666,0.21333 h -0.09333 l 0.04,0.0667 q 0.2,0.42667 0.613333,0.70667 0.413334,0.28 0.973334,0.28 0.946666,0 1.36,-0.8 0.253333,-0.49334 0.253333,-1.70667 0,-1.37333 -0.36,-1.85333 -0.346667,-0.44 -0.853333,-0.44 -1.04,0 -1.573333,0.90666 -0.05333,0.0933 -0.106667,0.12 -0.04,0.0133 -0.186667,0.0133 -0.226666,0 -0.253333,-0.08 -0.02667,-0.0533 -0.02667,-2.33334 0,-0.4 -0.01333,-0.94666 0,-0.54667 0,-0.69334 0,-0.74666 0.08,-0.74666 0.02667,-0.0267 0.05333,-0.0267 l 0.24,0.08 q 0.866667,0.34667 1.773333,0.34667 0.946667,0 1.813334,-0.37334 0.106666,-0.0533 0.173333,-0.0533 0.106667,0 0.106667,0.24 v 0.17333 q -1.08,1.29334 -2.733334,1.29334 -0.413333,0 -0.746666,-0.08 l -0.133333,-0.0267 v 2.29333 q 0.759999,-0.61333 1.559999,-0.61333 0.253334,0 0.546667,0.0667 0.893333,0.22666 1.453333,1.01333 0.573334,0.78667 0.573334,1.84 0,1.21333 -0.853334,2.09333 -0.84,0.88 -2.08,0.88 -0.84,0 -1.426666,-0.46666 -0.253333,-0.16 -0.44,-0.44 -0.4,-0.48 -0.506667,-1.18667 0,-0.04 -0.01333,-0.12 0,-0.0933 0,-0.13333 0,-0.37334 0.213333,-0.58667 0.213334,-0.21333 0.546667,-0.21333 z"
       style="font-style:normal;font-variant:normal;font-weight:normal;font-stretch:normal;font-size:13.33333302px;font-family:KaTeX_Main;-inkscape-font-specification:'KaTeX_Main, Normal';font-variant-ligatures:normal;font-variant-caps:normal;font-variant-numeric:normal;font-feature-settings:normal;text-align:center;writing-mode:lr-tb;text-anchor:middle;fill:#000000"
       id="path3805" />
  </g>
  <line
     style="font-size:medium;font-family:sans-serif;text-anchor:end;fill:none"
     id="line122"
     y2="140.05905"
     x2="334.91321"
     y1="140.05905"
     x1="14.913229"
     class="grid" />
  <line
     style="font-size:medium;font-family:sans-serif;text-anchor:end;fill:none;stroke:#000000"
     y2="120.05907"
     y1="120.05907"
     x1="94.913231"
     id="line126"
     x2="88.913231" />
  <g
     aria-label="1.0"
     style="font-style:normal;font-variant:normal;font-weight:normal;font-stretch:normal;font-size:13.33333302px;font-family:KaTeX_Main;-inkscape-font-specification:'KaTeX_Main, Normal';font-variant-ligatures:normal;font-variant-caps:normal;font-variant-numeric:normal;font-feature-settings:normal;text-align:center;writing-mode:lr-tb;text-anchor:middle;fill:#000000"
     id="text128">
    <path
       d="m 71.605688,123.89908 q -0.226667,-0.04 -2.12,-0.04 -1.866667,0 -2.093333,0.04 h -0.16 v -0.61333 h 0.346666 q 0.773333,0 1,-0.04 0.106667,-0.0133 0.32,-0.16 v -6.89333 q -0.02667,0 -0.106667,0.04 -0.613333,0.24 -1.373333,0.25333 h -0.253333 v -0.61333 h 0.253333 q 1.12,-0.04 1.866667,-0.50667 0.24,-0.13333 0.413333,-0.30667 0.02667,-0.04 0.16,-0.04 0.133333,0 0.226667,0.08 v 3.98667 l 0.01333,4 q 0.2,0.2 0.866667,0.2 h 0.44 0.346666 v 0.61333 z"
       style="font-style:normal;font-variant:normal;font-weight:normal;font-stretch:normal;font-size:13.33333302px;font-family:KaTeX_Main;-inkscape-font-specification:'KaTeX_Main, Normal';font-variant-ligatures:normal;font-variant-caps:normal;font-variant-numeric:normal;font-feature-settings:normal;text-align:center;writing-mode:lr-tb;text-anchor:middle;fill:#000000"
       id="path3794" />
    <path
       d="m 73.765688,123.09908 q 0,-0.34666 0.226666,-0.57333 0.226667,-0.22667 0.573334,-0.22667 0.346666,0 0.573333,0.24 0.24,0.22667 0.24,0.54667 0,0.34667 -0.24,0.58667 -0.24,0.22666 -0.56,0.22666 -0.346667,0 -0.586667,-0.24 -0.226666,-0.24 -0.226666,-0.56 z"
       style="font-style:normal;font-variant:normal;font-weight:normal;font-stretch:normal;font-size:13.33333302px;font-family:KaTeX_Main;-inkscape-font-specification:'KaTeX_Main, Normal';font-variant-ligatures:normal;font-variant-caps:normal;font-variant-numeric:normal;font-feature-settings:normal;text-align:center;writing-mode:lr-tb;text-anchor:middle;fill:#000000"
       id="path3796" />
    <path
       d="m 77.703604,116.09908 q 0.746667,-1.08 2.04,-1.08 0.973333,0 1.706667,0.66667 0.36,0.34667 0.613333,0.90667 0.493333,1.10666 0.493333,3.04 0,2.06666 -0.573333,3.16 -0.373333,0.77333 -1.093333,1.12 -0.56,0.28 -1.133334,0.28 -1.533333,0 -2.239999,-1.4 -0.573334,-1.09334 -0.573334,-3.16 0,-1.24 0.16,-2.04 0.173334,-0.81334 0.6,-1.49334 z m 3,-0.16 q -0.386667,-0.42666 -0.946667,-0.42666 -0.56,0 -0.96,0.42666 -0.293333,0.30667 -0.399999,0.74667 -0.106667,0.44 -0.133334,1.52 0,0.08 -0.01333,0.52 0,0.44 0,0.73333 0,1.28 0.02667,1.78667 0.05333,0.93333 0.159999,1.34667 0.106667,0.4 0.4,0.69333 0.36,0.4 0.92,0.4 0.546667,0 0.906667,-0.4 0.293333,-0.29333 0.4,-0.69333 0.106667,-0.41334 0.16,-1.34667 0.02667,-0.50667 0.02667,-1.78667 0,-0.29333 -0.01333,-0.73333 0,-0.44 0,-0.52 -0.02667,-1.08 -0.133333,-1.52 -0.106667,-0.44 -0.4,-0.74667 z"
       style="font-style:normal;font-variant:normal;font-weight:normal;font-stretch:normal;font-size:13.33333302px;font-family:KaTeX_Main;-inkscape-font-specification:'KaTeX_Main, Normal';font-variant-ligatures:normal;font-variant-caps:normal;font-variant-numeric:normal;font-feature-settings:normal;text-align:center;writing-mode:lr-tb;text-anchor:middle;fill:#000000"
       id="path3798" />
  </g>
  <line
     style="font-size:medium;font-family:sans-serif;text-anchor:end;fill:none"
     id="line130"
     y2="120.05907"
     x2="334.91321"
     y1="120.05907"
     x1="14.913229"
     class="grid" />
  <line
     style="font-size:medium;font-family:sans-serif;text-anchor:end;fill:none;stroke:#000000"
     y2="100.05906"
     y1="100.05906"
     x1="94.913231"
     id="line134"
     x2="88.913231" />
  <g
     aria-label="1.5"
     style="font-style:normal;font-variant:normal;font-weight:normal;font-stretch:normal;font-size:13.33333302px;font-family:KaTeX_Main;-inkscape-font-specification:'KaTeX_Main, Normal';font-variant-ligatures:normal;font-variant-caps:normal;font-variant-numeric:normal;font-feature-settings:normal;text-align:center;writing-mode:lr-tb;text-anchor:middle;fill:#000000"
     id="text136">
    <path
       d="m 71.605688,103.89907 q -0.226667,-0.04 -2.12,-0.04 -1.866667,0 -2.093333,0.04 h -0.16 v -0.61334 h 0.346666 q 0.773333,0 1,-0.04 0.106667,-0.0133 0.32,-0.16 V 96.1924 q -0.02667,0 -0.106667,0.04 -0.613333,0.24 -1.373333,0.253334 H 67.165688 V 95.8724 h 0.253333 q 1.12,-0.04 1.866667,-0.506666 0.24,-0.133334 0.413333,-0.306667 0.02667,-0.04 0.16,-0.04 0.133333,0 0.226667,0.08 v 3.986666 l 0.01333,3.999997 q 0.2,0.2 0.866667,0.2 h 0.44 0.346666 v 0.61334 z"
       style="font-style:normal;font-variant:normal;font-weight:normal;font-stretch:normal;font-size:13.33333302px;font-family:KaTeX_Main;-inkscape-font-specification:'KaTeX_Main, Normal';font-variant-ligatures:normal;font-variant-caps:normal;font-variant-numeric:normal;font-feature-settings:normal;text-align:center;writing-mode:lr-tb;text-anchor:middle;fill:#000000"
       id="path3787" />
    <path
       d="m 73.765688,103.09907 q 0,-0.34667 0.226666,-0.57334 0.226667,-0.22666 0.573334,-0.22666 0.346666,0 0.573333,0.24 0.24,0.22666 0.24,0.54666 0,0.34667 -0.24,0.58667 -0.24,0.22667 -0.56,0.22667 -0.346667,0 -0.586667,-0.24 -0.226666,-0.24 -0.226666,-0.56 z"
       style="font-style:normal;font-variant:normal;font-weight:normal;font-stretch:normal;font-size:13.33333302px;font-family:KaTeX_Main;-inkscape-font-specification:'KaTeX_Main, Normal';font-variant-ligatures:normal;font-variant-caps:normal;font-variant-numeric:normal;font-feature-settings:normal;text-align:center;writing-mode:lr-tb;text-anchor:middle;fill:#000000"
       id="path3789" />
    <path
       d="m 77.850271,101.04573 q 0.32,0 0.533333,0.22667 0.226667,0.21333 0.226667,0.54667 0,0.30666 -0.226667,0.52 -0.226666,0.21333 -0.506666,0.21333 h -0.09333 l 0.04,0.0667 q 0.2,0.42666 0.613333,0.70666 0.413334,0.28 0.973334,0.28 0.946666,0 1.36,-0.8 0.253333,-0.49333 0.253333,-1.70666 0,-1.373337 -0.36,-1.853337 -0.346667,-0.44 -0.853333,-0.44 -1.04,0 -1.573333,0.906667 -0.05333,0.09333 -0.106667,0.12 -0.04,0.01333 -0.186667,0.01333 -0.226666,0 -0.253333,-0.08 -0.02667,-0.05333 -0.02667,-2.333333 0,-0.4 -0.01333,-0.946666 0,-0.546667 0,-0.693334 0,-0.746666 0.08,-0.746666 0.02667,-0.02667 0.05333,-0.02667 l 0.24,0.08 q 0.866667,0.346667 1.773333,0.346667 0.946667,0 1.813334,-0.373334 0.106666,-0.05333 0.173333,-0.05333 0.106667,0 0.106667,0.24 V 95.4324 q -1.08,1.293334 -2.733334,1.293334 -0.413333,0 -0.746666,-0.08 l -0.133333,-0.02667 V 98.9124 q 0.759999,-0.613333 1.559999,-0.613333 0.253334,0 0.546667,0.06667 0.893333,0.226667 1.453333,1.013334 0.573334,0.786663 0.573334,1.840003 0,1.21333 -0.853334,2.09333 -0.84,0.88 -2.08,0.88 -0.84,0 -1.426666,-0.46667 -0.253333,-0.16 -0.44,-0.44 -0.4,-0.48 -0.506667,-1.18666 0,-0.04 -0.01333,-0.12 0,-0.0933 0,-0.13334 0,-0.37333 0.213333,-0.58666 0.213334,-0.21334 0.546667,-0.21334 z"
       style="font-style:normal;font-variant:normal;font-weight:normal;font-stretch:normal;font-size:13.33333302px;font-family:KaTeX_Main;-inkscape-font-specification:'KaTeX_Main, Normal';font-variant-ligatures:normal;font-variant-caps:normal;font-variant-numeric:normal;font-feature-settings:normal;text-align:center;writing-mode:lr-tb;text-anchor:middle;fill:#000000"
       id="path3791" />
  </g>
  <line
     style="font-size:medium;font-family:sans-serif;text-anchor:end;fill:none"
     id="line138"
     y2="100.05906"
     x2="334.91321"
     y1="100.05906"
     x1="14.913229"
     class="grid" />
  <line
     style="font-size:medium;font-family:sans-serif;text-anchor:end;fill:none;stroke:#000000"
     y2="80.059059"
     y1="80.059059"
     x1="94.913231"
     id="line142"
     x2="88.913231" />
  <g
     aria-label="2.0"
     style="font-style:normal;font-variant:normal;font-weight:normal;font-stretch:normal;font-size:13.33333302px;font-family:KaTeX_Main;-inkscape-font-specification:'KaTeX_Main, Normal';font-variant-ligatures:normal;font-variant-caps:normal;font-variant-numeric:normal;font-feature-settings:normal;text-align:center;writing-mode:lr-tb;text-anchor:middle;fill:#000000"
     id="text144">
    <path
       d="m 67.525688,78.179059 q -0.373333,0 -0.586667,-0.24 -0.213333,-0.24 -0.213333,-0.586666 0,-0.96 0.72,-1.64 0.733333,-0.693334 1.746666,-0.693334 1.146667,0 1.893334,0.626667 0.76,0.613333 0.933333,1.613333 0.02667,0.24 0.02667,0.44 0,0.773334 -0.466667,1.453334 -0.373333,0.559999 -1.506667,1.533333 -0.48,0.413333 -1.333333,1.226666 l -0.786667,0.746667 1.013334,0.01333 q 2.093333,0 2.226666,-0.06667 0.05333,-0.01333 0.133334,-0.28 0.05333,-0.146667 0.186666,-0.906667 v -0.04 h 0.533334 v 0.04 l -0.373334,2.44 v 0.04 h -4.946666 v -0.253333 q 0,-0.266667 0.02667,-0.306667 0.01333,-0.01333 1.119999,-1.266667 1.453334,-1.613333 1.866667,-2.133333 0.893333,-1.213333 0.893333,-2.226666 0,-0.88 -0.466666,-1.466667 -0.453334,-0.6 -1.28,-0.6 -0.773334,0 -1.253334,0.693333 -0.02667,0.05333 -0.08,0.146667 -0.04,0.06667 -0.04,0.08 0,0.01333 0.06667,0.01333 0.333333,0 0.533333,0.24 0.213334,0.24 0.213334,0.56 0,0.333334 -0.226667,0.573334 -0.213333,0.226666 -0.573333,0.226666 z"
       style="font-style:normal;font-variant:normal;font-weight:normal;font-stretch:normal;font-size:13.33333302px;font-family:KaTeX_Main;-inkscape-font-specification:'KaTeX_Main, Normal';font-variant-ligatures:normal;font-variant-caps:normal;font-variant-numeric:normal;font-feature-settings:normal;text-align:center;writing-mode:lr-tb;text-anchor:middle;fill:#000000"
       id="path3780" />
    <path
       d="m 73.765688,83.099059 q 0,-0.346667 0.226666,-0.573333 0.226667,-0.226667 0.573334,-0.226667 0.346666,0 0.573333,0.24 0.24,0.226667 0.24,0.546667 0,0.346666 -0.24,0.586666 -0.24,0.226667 -0.56,0.226667 -0.346667,0 -0.586667,-0.24 -0.226666,-0.24 -0.226666,-0.56 z"
       style="font-style:normal;font-variant:normal;font-weight:normal;font-stretch:normal;font-size:13.33333302px;font-family:KaTeX_Main;-inkscape-font-specification:'KaTeX_Main, Normal';font-variant-ligatures:normal;font-variant-caps:normal;font-variant-numeric:normal;font-feature-settings:normal;text-align:center;writing-mode:lr-tb;text-anchor:middle;fill:#000000"
       id="path3782" />
    <path
       d="m 77.703604,76.099059 q 0.746667,-1.08 2.04,-1.08 0.973333,0 1.706667,0.666667 0.36,0.346667 0.613333,0.906667 0.493333,1.106666 0.493333,3.039999 0,2.066667 -0.573333,3.16 -0.373333,0.773334 -1.093333,1.12 -0.56,0.28 -1.133334,0.28 -1.533333,0 -2.239999,-1.4 -0.573334,-1.093333 -0.573334,-3.16 0,-1.239999 0.16,-2.039999 0.173334,-0.813334 0.6,-1.493334 z m 3,-0.16 q -0.386667,-0.426666 -0.946667,-0.426666 -0.56,0 -0.96,0.426666 -0.293333,0.306667 -0.399999,0.746667 -0.106667,0.44 -0.133334,1.52 0,0.08 -0.01333,0.52 0,0.44 0,0.733333 0,1.28 0.02667,1.786667 0.05333,0.933333 0.159999,1.346666 0.106667,0.4 0.4,0.693334 0.36,0.4 0.92,0.4 0.546667,0 0.906667,-0.4 0.293333,-0.293334 0.4,-0.693334 0.106667,-0.413333 0.16,-1.346666 0.02667,-0.506667 0.02667,-1.786667 0,-0.293333 -0.01333,-0.733333 0,-0.44 0,-0.52 -0.02667,-1.08 -0.133333,-1.52 -0.106667,-0.44 -0.4,-0.746667 z"
       style="font-style:normal;font-variant:normal;font-weight:normal;font-stretch:normal;font-size:13.33333302px;font-family:KaTeX_Main;-inkscape-font-specification:'KaTeX_Main, Normal';font-variant-ligatures:normal;font-variant-caps:normal;font-variant-numeric:normal;font-feature-settings:normal;text-align:center;writing-mode:lr-tb;text-anchor:middle;fill:#000000"
       id="path3784" />
  </g>
  <line
     style="font-size:medium;font-family:sans-serif;text-anchor:end;fill:none"
     id="line146"
     y2="80.059059"
     x2="334.91321"
     y1="80.059059"
     x1="14.913229"
     class="grid" />
  <line
     style="font-size:medium;font-family:sans-serif;text-anchor:end;fill:none;stroke:#000000"
     y2="60.059055"
     y1="60.059055"
     x1="94.913231"
     id="line150"
     x2="88.913231" />
  <g
     aria-label="2.5"
     style="font-style:normal;font-variant:normal;font-weight:normal;font-stretch:normal;font-size:13.33333302px;font-family:KaTeX_Main;-inkscape-font-specification:'KaTeX_Main, Normal';font-variant-ligatures:normal;font-variant-caps:normal;font-variant-numeric:normal;font-feature-settings:normal;text-align:center;writing-mode:lr-tb;text-anchor:middle;fill:#000000"
     id="text152">
    <path
       d="m 67.525688,58.179055 q -0.373333,0 -0.586667,-0.24 -0.213333,-0.24 -0.213333,-0.586666 0,-0.96 0.72,-1.64 0.733333,-0.693334 1.746666,-0.693334 1.146667,0 1.893334,0.626667 0.76,0.613333 0.933333,1.613333 0.02667,0.24 0.02667,0.44 0,0.773334 -0.466667,1.453334 -0.373333,0.56 -1.506667,1.533333 -0.48,0.413333 -1.333333,1.226667 l -0.786667,0.746666 1.013334,0.01333 q 2.093333,0 2.226666,-0.06667 0.05333,-0.01333 0.133334,-0.28 0.05333,-0.146667 0.186666,-0.906667 v -0.04 h 0.533334 v 0.04 l -0.373334,2.44 v 0.04 h -4.946666 v -0.253333 q 0,-0.266667 0.02667,-0.306667 0.01333,-0.01333 1.119999,-1.266666 1.453334,-1.613334 1.866667,-2.133334 0.893333,-1.213333 0.893333,-2.226666 0,-0.88 -0.466666,-1.466667 -0.453334,-0.6 -1.28,-0.6 -0.773334,0 -1.253334,0.693333 -0.02667,0.05333 -0.08,0.146667 -0.04,0.06667 -0.04,0.08 0,0.01333 0.06667,0.01333 0.333333,0 0.533333,0.24 0.213334,0.24 0.213334,0.56 0,0.333334 -0.226667,0.573334 -0.213333,0.226666 -0.573333,0.226666 z"
       style="font-style:normal;font-variant:normal;font-weight:normal;font-stretch:normal;font-size:13.33333302px;font-family:KaTeX_Main;-inkscape-font-specification:'KaTeX_Main, Normal';font-variant-ligatures:normal;font-variant-caps:normal;font-variant-numeric:normal;font-feature-settings:normal;text-align:center;writing-mode:lr-tb;text-anchor:middle;fill:#000000"
       id="path3773" />
    <path
       d="m 73.765688,63.099055 q 0,-0.346666 0.226666,-0.573333 0.226667,-0.226667 0.573334,-0.226667 0.346666,0 0.573333,0.24 0.24,0.226667 0.24,0.546667 0,0.346667 -0.24,0.586667 -0.24,0.226666 -0.56,0.226666 -0.346667,0 -0.586667,-0.24 -0.226666,-0.24 -0.226666,-0.56 z"
       style="font-style:normal;font-variant:normal;font-weight:normal;font-stretch:normal;font-size:13.33333302px;font-family:KaTeX_Main;-inkscape-font-specification:'KaTeX_Main, Normal';font-variant-ligatures:normal;font-variant-caps:normal;font-variant-numeric:normal;font-feature-settings:normal;text-align:center;writing-mode:lr-tb;text-anchor:middle;fill:#000000"
       id="path3775" />
    <path
       d="m 77.850271,61.045722 q 0.32,0 0.533333,0.226667 0.226667,0.213333 0.226667,0.546666 0,0.306667 -0.226667,0.52 -0.226666,0.213334 -0.506666,0.213334 h -0.09333 l 0.04,0.06667 q 0.2,0.426667 0.613333,0.706667 0.413334,0.28 0.973334,0.28 0.946666,0 1.36,-0.8 0.253333,-0.493333 0.253333,-1.706667 0,-1.373333 -0.36,-1.853333 -0.346667,-0.44 -0.853333,-0.44 -1.04,0 -1.573333,0.906667 -0.05333,0.09333 -0.106667,0.12 -0.04,0.01333 -0.186667,0.01333 -0.226666,0 -0.253333,-0.08 -0.02667,-0.05333 -0.02667,-2.333333 0,-0.4 -0.01333,-0.946667 0,-0.546667 0,-0.693333 0,-0.746667 0.08,-0.746667 0.02667,-0.02667 0.05333,-0.02667 l 0.24,0.08 q 0.866667,0.346667 1.773333,0.346667 0.946667,0 1.813334,-0.373333 0.106666,-0.05333 0.173333,-0.05333 0.106667,0 0.106667,0.24 v 0.173334 q -1.08,1.293333 -2.733334,1.293333 -0.413333,0 -0.746666,-0.08 l -0.133333,-0.02667 v 2.293334 q 0.759999,-0.613334 1.559999,-0.613334 0.253334,0 0.546667,0.06667 0.893333,0.226667 1.453333,1.013333 0.573334,0.786667 0.573334,1.84 0,1.213334 -0.853334,2.093334 -0.84,0.88 -2.08,0.88 -0.84,0 -1.426666,-0.466667 -0.253333,-0.16 -0.44,-0.44 -0.4,-0.48 -0.506667,-1.186667 0,-0.04 -0.01333,-0.12 0,-0.09333 0,-0.133333 0,-0.373333 0.213333,-0.586667 0.213334,-0.213333 0.546667,-0.213333 z"
       style="font-style:normal;font-variant:normal;font-weight:normal;font-stretch:normal;font-size:13.33333302px;font-family:KaTeX_Main;-inkscape-font-specification:'KaTeX_Main, Normal';font-variant-ligatures:normal;font-variant-caps:normal;font-variant-numeric:normal;font-feature-settings:normal;text-align:center;writing-mode:lr-tb;text-anchor:middle;fill:#000000"
       id="path3777" />
  </g>
  <line
     style="font-size:medium;font-family:sans-serif;text-anchor:end;fill:none"
     id="line154"
     y2="60.059055"
     x2="334.91321"
     y1="60.059055"
     x1="14.913229"
     class="grid" />
  <line
     style="font-size:medium;font-family:sans-serif;text-anchor:end;fill:none;stroke:#000000"
     y2="40.059055"
     y1="40.059055"
     x1="94.913231"
     id="line158"
     x2="88.913231" />
  <g
     aria-label="3.0"
     style="font-style:normal;font-variant:normal;font-weight:normal;font-stretch:normal;font-size:13.33333302px;font-family:KaTeX_Main;-inkscape-font-specification:'KaTeX_Main, Normal';font-variant-ligatures:normal;font-variant-caps:normal;font-variant-numeric:normal;font-feature-settings:normal;text-align:center;writing-mode:lr-tb;text-anchor:middle;fill:#000000"
     id="text160">
    <path
       d="m 67.752354,37.725722 q -0.359999,0 -0.573333,-0.226667 -0.2,-0.226666 -0.2,-0.586666 0,-0.76 0.6,-1.266667 0.6,-0.52 1.386667,-0.613333 h 0.2 q 0.466666,0 0.586666,0.01333 0.44,0.06667 0.893334,0.28 0.88,0.44 1.106666,1.253333 0.04,0.133334 0.04,0.36 0,0.786667 -0.493333,1.413334 -0.48,0.613333 -1.213333,0.88 -0.06667,0.02667 0,0.04 0.02667,0.01333 0.133333,0.04 0.813333,0.226666 1.373333,0.853333 0.56,0.613333 0.56,1.4 0,0.546667 -0.253333,1.053333 -0.32,0.68 -1.053333,1.133334 -0.72,0.44 -1.613334,0.44 -0.88,0 -1.56,-0.373334 -0.679999,-0.373333 -0.919999,-1 -0.133334,-0.28 -0.133334,-0.653333 0,-0.373333 0.24,-0.6 0.253334,-0.24 0.6,-0.24 0.373333,0 0.613333,0.24 0.24,0.24 0.24,0.6 0,0.306667 -0.173333,0.533333 -0.173333,0.226667 -0.466667,0.293334 l -0.09333,0.02667 q 0.72,0.6 1.653333,0.6 0.733334,0 1.106667,-0.706666 0.226667,-0.44 0.226667,-1.346667 v -0.266667 q 0,-1.266666 -0.853334,-1.693333 -0.2,-0.08 -0.813333,-0.09333 l -0.56,-0.01333 -0.04,-0.02667 q -0.02667,-0.04 -0.02667,-0.213334 0,-0.16 0.04,-0.2 0.04,-0.04 0.06667,-0.04 0.373333,0 0.773333,-0.06667 0.586667,-0.08 0.893334,-0.653334 0.306666,-0.586666 0.306666,-1.4 0,-0.866666 -0.466666,-1.16 -0.28,-0.186666 -0.626667,-0.186666 -0.666667,0 -1.173333,0.36 -0.05333,0.02667 -0.12,0.09333 -0.06667,0.05333 -0.106667,0.106667 l -0.04,0.05333 q 0.04,0.01333 0.09333,0.02667 0.266667,0.02667 0.44,0.253333 0.186667,0.226667 0.186667,0.52 0,0.32 -0.226667,0.546667 -0.213333,0.213333 -0.56,0.213333 z"
       style="font-style:normal;font-variant:normal;font-weight:normal;font-stretch:normal;font-size:13.33333302px;font-family:KaTeX_Main;-inkscape-font-specification:'KaTeX_Main, Normal';font-variant-ligatures:normal;font-variant-caps:normal;font-variant-numeric:normal;font-feature-settings:normal;text-align:center;writing-mode:lr-tb;text-anchor:middle;fill:#000000"
       id="path3766" />
    <path
       d="m 73.765688,43.099055 q 0,-0.346666 0.226666,-0.573333 0.226667,-0.226667 0.573334,-0.226667 0.346666,0 0.573333,0.24 0.24,0.226667 0.24,0.546667 0,0.346667 -0.24,0.586667 -0.24,0.226666 -0.56,0.226666 -0.346667,0 -0.586667,-0.24 -0.226666,-0.24 -0.226666,-0.56 z"
       style="font-style:normal;font-variant:normal;font-weight:normal;font-stretch:normal;font-size:13.33333302px;font-family:KaTeX_Main;-inkscape-font-specification:'KaTeX_Main, Normal';font-variant-ligatures:normal;font-variant-caps:normal;font-variant-numeric:normal;font-feature-settings:normal;text-align:center;writing-mode:lr-tb;text-anchor:middle;fill:#000000"
       id="path3768" />
    <path
       d="m 77.703604,36.099055 q 0.746667,-1.08 2.04,-1.08 0.973333,0 1.706667,0.666667 0.36,0.346667 0.613333,0.906667 0.493333,1.106666 0.493333,3.04 0,2.066666 -0.573333,3.16 -0.373333,0.773333 -1.093333,1.12 -0.56,0.28 -1.133334,0.28 -1.533333,0 -2.239999,-1.4 -0.573334,-1.093334 -0.573334,-3.16 0,-1.24 0.16,-2.04 0.173334,-0.813334 0.6,-1.493334 z m 3,-0.16 q -0.386667,-0.426666 -0.946667,-0.426666 -0.56,0 -0.96,0.426666 -0.293333,0.306667 -0.399999,0.746667 -0.106667,0.44 -0.133334,1.52 0,0.08 -0.01333,0.52 0,0.44 0,0.733333 0,1.28 0.02667,1.786667 0.05333,0.933333 0.159999,1.346667 0.106667,0.4 0.4,0.693333 0.36,0.4 0.92,0.4 0.546667,0 0.906667,-0.4 0.293333,-0.293333 0.4,-0.693333 0.106667,-0.413334 0.16,-1.346667 0.02667,-0.506667 0.02667,-1.786667 0,-0.293333 -0.01333,-0.733333 0,-0.44 0,-0.52 -0.02667,-1.08 -0.133333,-1.52 -0.106667,-0.44 -0.4,-0.746667 z"
       style="font-style:normal;font-variant:normal;font-weight:normal;font-stretch:normal;font-size:13.33333302px;font-family:KaTeX_Main;-inkscape-font-specification:'KaTeX_Main, Normal';font-variant-ligatures:normal;font-variant-caps:normal;font-variant-numeric:normal;font-feature-settings:normal;text-align:center;writing-mode:lr-tb;text-anchor:middle;fill:#000000"
       id="path3770" />
  </g>
  <line
     style="font-size:medium;font-family:sans-serif;text-anchor:end;fill:none"
     id="line162"
     y2="40.059055"
     x2="334.91321"
     y1="40.059055"
     x1="14.913229"
     class="grid" />
  <g
     aria-label="i (amperes)"
     style="font-style:normal;font-variant:normal;font-weight:normal;font-stretch:normal;font-size:21.33333397px;font-family:KaTeX_Main;-inkscape-font-specification:'KaTeX_Main, Normal';font-variant-ligatures:normal;font-variant-caps:normal;font-variant-numeric:normal;font-feature-settings:normal;text-align:center;writing-mode:lr-tb;text-anchor:middle;fill:#000000"
     id="text166">
    <path
       d="m 43.096178,13.221333 q 0,-0.448 0.362667,-0.832 0.384,-0.384 0.874666,-0.384 0.362667,0 0.597334,0.234667 0.256,0.234666 0.256,0.597333 0,0.490667 -0.405334,0.853333 -0.384,0.362667 -0.853333,0.362667 -0.362667,0 -0.597333,-0.234667 Q 43.096178,13.584 43.096178,13.221333 Z M 42.669511,16.592 q 0.768,0 1.216,0.490666 0.469334,0.490667 0.469334,1.301334 -0.04267,0.405333 -0.064,0.512 -0.02133,0.064 -0.981334,2.688 -0.938666,2.602667 -0.96,2.666667 -0.128,0.426666 -0.128,0.768 0,0.426666 0.341334,0.426666 0.405333,0 0.810666,-0.362666 0.554667,-0.597334 0.96,-1.984 0.064,-0.256 0.106667,-0.298667 0.064,-0.064 0.298667,-0.064 h 0.128 q 0.362666,0 0.405333,0.04267 0.08533,0.08533 0.08533,0.170666 0,0.08533 -0.064,0.277334 -0.725333,2.432 -2.325333,2.944 -0.170667,0.04267 -0.512,0.04267 -0.810667,0 -1.28,-0.490666 -0.469333,-0.490667 -0.469333,-1.237334 0,-0.277333 0.064,-0.576 0.02133,-0.064 0.96,-2.666666 0.96,-2.624001 0.96,-2.645334 0.128,-0.448 0.128,-0.789333 0,-0.256 -0.08533,-0.341334 Q 42.669511,17.36 42.434845,17.36 q -0.405334,0.02133 -0.789334,0.405333 -0.533333,0.597333 -0.896,1.877333 -0.08533,0.341334 -0.170666,0.405334 -0.02133,0.02133 -0.405334,0.02133 h -0.341333 q -0.128,-0.128 -0.128,-0.192 0,-0.08533 0.08533,-0.32 0.512,-1.813333 1.621334,-2.602667 0.448,-0.298666 0.874666,-0.362666 z"
       style="font-style:italic;font-variant:normal;font-weight:normal;font-stretch:normal;font-size:21.33333397px;font-family:KaTeX_Main;-inkscape-font-specification:'KaTeX_Main, Italic';font-variant-ligatures:normal;font-variant-caps:normal;font-variant-numeric:normal;font-feature-settings:normal;text-align:center;writing-mode:lr-tb;text-anchor:middle"
       id="path3745" />
    <path
       d="m 57.083178,31.141333 q 0,0.192 -0.384,0.192 h -0.277333 q -0.149334,-0.128 -0.597334,-0.512 -3.84,-3.498666 -3.84,-10.154666 0,-2.602667 0.618667,-4.757334 Q 53.584511,12.56 55.824511,10.512 q 0.149334,-0.128 0.341334,-0.277334 0.192,-0.170666 0.256,-0.2346665 h 0.277333 q 0.256,0 0.32,0.064001 0.064,0.064 0.064,0.128 0,0.08533 -0.234667,0.32 -3.306666,3.498666 -3.306666,10.154667 0,6.656 3.306666,10.154666 0.234667,0.234667 0.234667,0.32 z"
       style="font-style:normal;font-variant:normal;font-weight:normal;font-stretch:normal;font-size:21.33333397px;font-family:KaTeX_Main;-inkscape-font-specification:'KaTeX_Main, Normal';font-variant-ligatures:normal;font-variant-caps:normal;font-variant-numeric:normal;font-feature-settings:normal;text-align:center;writing-mode:lr-tb;text-anchor:middle;fill:#000000"
       id="path3747" />
    <path
       d="m 61.556179,19.152 q -0.32,0.341333 -0.810666,0.341333 -0.490667,0 -0.810667,-0.341333 -0.32,-0.341334 -0.32,-0.810667 0,-0.298667 0.170666,-0.682667 0.277334,-0.576 1.109334,-0.896 0.832,-0.32 2.026667,-0.32 1.408,0 2.432,0.64 1.045333,0.64 1.365333,1.664 0.106667,0.298667 0.106667,0.682667 0.02133,0.362667 0.02133,2.432 0,2.090667 0,2.453334 0.02133,0.341333 0.128,0.533333 0.128,0.298667 0.426667,0.298667 0.277333,0 0.405333,-0.298667 0.128,-0.256 0.128,-1.173333 v -0.768 h 0.853333 v 0.832 q -0.02133,0.853333 -0.064,1.002666 -0.192,0.597334 -0.704,1.002667 -0.512,0.384 -1.216,0.384 -0.533333,0 -0.96,-0.362667 -0.405333,-0.384 -0.554666,-0.917333 v -0.08533 q -0.064,0.064 -0.256,0.298666 -0.192,0.213334 -0.277334,0.298667 -1.045333,0.874667 -2.432,0.874667 -1.109333,0 -1.984,-0.469334 Q 59.465512,25.296 59.166846,24.528 q -0.170667,-0.405333 -0.170667,-0.810667 0,-1.002666 0.832,-1.834666 0.490667,-0.490667 1.216,-0.810667 1.450667,-0.661333 3.712,-0.789334 h 0.298667 v -0.469333 q 0,-0.725333 -0.128,-1.066667 -0.213333,-0.704 -0.746667,-1.109333 Q 63.646846,17.232 62.857513,17.232 q -1.429334,0 -1.429334,0.170666 0.469334,0.32 0.469334,0.938667 0,0.469333 -0.341334,0.810667 z m 3.498667,3.114667 q 0,-1.237334 -0.02133,-1.237334 -0.064,0 -0.106667,0.02133 -2.922667,0.192 -3.733333,1.728 -0.234667,0.426666 -0.234667,0.96 0,0.725333 0.512,1.216 0.512,0.490666 1.258667,0.490666 0.853333,0 1.450666,-0.512 0.618667,-0.512 0.810667,-1.258666 0.04267,-0.149334 0.064,-1.408 z"
       style="font-style:normal;font-variant:normal;font-weight:normal;font-stretch:normal;font-size:21.33333397px;font-family:KaTeX_Main;-inkscape-font-specification:'KaTeX_Main, Normal';font-variant-ligatures:normal;font-variant-caps:normal;font-variant-numeric:normal;font-feature-settings:normal;text-align:center;writing-mode:lr-tb;text-anchor:middle;fill:#000000"
       id="path3749" />
    <path
       d="m 72.94818,24.72 q 0.170667,0.298667 1.002667,0.298667 h 0.298667 0.341333 V 26 h -0.170666 q -0.277334,-0.064 -2.389334,-0.064 -2.112,0 -2.389333,0.064 h -0.170667 v -0.981333 h 0.341333 0.298667 q 0.832,0 1.002667,-0.298667 v -0.170667 q 0,-0.192 0,-0.490666 0,-0.298667 0,-0.661334 0.02133,-0.384 0.02133,-0.832 0,-0.469333 0,-0.896 0,-0.661333 -0.02133,-1.408 0,-0.768 0,-1.258667 V 18.512 q -0.064,-0.405334 -0.32,-0.533334 -0.234667,-0.149333 -0.938667,-0.192 h -0.384 V 17.296 q 0,-0.490667 0.04267,-0.490667 L 69.726847,16.784 q 0.213333,-0.02133 0.597333,-0.04267 0.405334,-0.02133 0.789334,-0.04267 0.362666,-0.02133 0.768,-0.04267 0.405333,-0.04267 0.618666,-0.064 0.213334,-0.02133 0.234667,-0.02133 h 0.064 V 17.424 q 0,0.810666 0.02133,0.810666 l 0.02133,-0.02133 q 1.152,-1.642667 3.264,-1.642667 2.069333,0.064 2.538667,1.621334 l 0.04267,0.106666 q 0.512,-0.64 0.576,-0.704 1.088,-1.024 2.538667,-1.024 2.666667,0 2.922667,2.410667 0.02133,0.149333 0.02133,2.965334 0,2.730666 0.02133,2.773333 0.08533,0.170667 0.256,0.234667 0.448,0.064 1.045333,0.064 h 0.341333 V 26 h -0.170666 q -0.277334,-0.064 -2.389334,-0.064 -2.112,0 -2.389333,0.064 h -0.170667 v -0.981333 h 0.341333 0.170667 q 1.130667,0 1.130667,-0.341334 0.02133,-0.04267 0.02133,-2.944 -0.02133,-2.88 -0.04267,-3.050667 Q 82.761514,18 82.420181,17.701333 q -0.32,-0.32 -1.002667,-0.32 -0.96,0 -1.685333,0.725333 -0.746667,0.746667 -0.874667,1.877334 0,0.02133 -0.02133,0.405333 0,0.362667 0,0.938667 0,0.576 0,1.088 0,0.32 0,0.682667 0,0.341333 0,0.618666 0,0.277334 0,0.512 0.02133,0.213334 0.02133,0.362667 v 0.128 q 0.170667,0.298667 1.002667,0.298667 h 0.298666 0.341334 V 26 h -0.170667 q -0.277333,-0.064 -2.389333,-0.064 -2.112,0 -2.389334,0.064 h -0.170666 v -0.981333 h 0.341333 0.170667 q 1.130666,0 1.130666,-0.341334 0.02133,-0.04267 0.02133,-2.944 -0.02133,-2.88 -0.04267,-3.050667 Q 76.852181,18 76.510847,17.701333 q -0.32,-0.32 -1.002666,-0.32 -0.96,0 -1.685334,0.725333 -0.746667,0.746667 -0.874667,1.877334 0,0.02133 0,0.405333 0,0.362667 -0.02133,0.938667 0,0.576 0,1.088 0,0.32 0,0.682667 0,0.341333 0,0.618666 0.02133,0.277334 0.02133,0.512 0,0.213334 0,0.362667 z"
       style="font-style:normal;font-variant:normal;font-weight:normal;font-stretch:normal;font-size:21.33333397px;font-family:KaTeX_Main;-inkscape-font-specification:'KaTeX_Main, Normal';font-variant-ligatures:normal;font-variant-caps:normal;font-variant-numeric:normal;font-feature-settings:normal;text-align:center;writing-mode:lr-tb;text-anchor:middle;fill:#000000"
       id="path3751" />
    <path
       d="m 87.497182,29.157333 h 0.298666 q 0.832,0 1.002667,-0.298666 V 28.688 q 0,-0.149333 0,-0.426667 0,-0.256 0,-0.618666 0.02133,-0.362667 0.02133,-0.832 0,-0.469334 0,-0.938667 0,-0.490667 0,-1.045333 0,-0.576 0,-1.088 0,-0.725334 0,-1.514667 0,-0.789333 0,-1.408 0,-0.618667 -0.02133,-1.130667 0,-0.533333 0,-0.832 0,-0.32 0,-0.341333 -0.064,-0.405334 -0.32,-0.533334 -0.234667,-0.149333 -0.938667,-0.192 h -0.384 V 17.296 q 0,-0.490667 0.04267,-0.490667 L 87.411848,16.784 q 0.213334,-0.02133 0.618667,-0.04267 0.405333,-0.02133 0.789333,-0.04267 0.362667,-0.02133 0.789334,-0.04267 0.426666,-0.04267 0.64,-0.064 0.213333,-0.02133 0.234666,-0.02133 h 0.064 v 0.554667 L 90.569182,17.68 90.739848,17.530666 Q 92.041182,16.592 93.683849,16.592 q 0.469333,0 0.682666,0.04267 1.493334,0.298667 2.496,1.6 1.002667,1.301334 1.002667,3.157334 0,0.405333 -0.04267,0.746667 -0.213333,1.386666 -1.045333,2.389333 -0.810667,1.002667 -2.112,1.493333 -0.64,0.213334 -1.322667,0.213334 -1.450667,0 -2.56,-0.938667 L 90.611848,25.146667 V 26.96 q 0,1.856 0.02133,1.898667 0.08533,0.170666 0.256,0.234666 0.448,0.064 1.045333,0.064 h 0.341333 v 0.981334 h -0.170666 q -0.277334,-0.064 -2.389334,-0.064 -2.112,0 -2.389333,0.064 h -0.170667 v -0.981334 z m 8.277333,-7.808 q 0,-1.472 -0.661333,-2.602667 -0.64,-1.130666 -1.578667,-1.301333 -0.04267,0 -0.149333,0 -0.08533,-0.02133 -0.149333,-0.02133 -1.514667,0 -2.624001,1.386666 v 5.098667 q 0.874667,1.536 2.389334,1.536 0.896,0 1.621333,-0.789333 1.152,-1.194667 1.152,-3.306667 z"
       style="font-style:normal;font-variant:normal;font-weight:normal;font-stretch:normal;font-size:21.33333397px;font-family:KaTeX_Main;-inkscape-font-specification:'KaTeX_Main, Normal';font-variant-ligatures:normal;font-variant-caps:normal;font-variant-numeric:normal;font-feature-settings:normal;text-align:center;writing-mode:lr-tb;text-anchor:middle;fill:#000000"
       id="path3753" />
    <path
       d="m 107.45751,20.773333 q 0,0.149334 -0.14933,0.298667 h -6.016 v 0.32 q 0,1.578667 0.42666,2.389333 0.768,1.578667 2.64534,1.578667 0.91733,0 1.536,-0.682667 0.42666,-0.426666 0.66133,-1.109333 0.064,-0.234667 0.128,-0.298667 0.064,-0.064 0.34133,-0.064 0.42667,0 0.42667,0.213334 0,0.08533 -0.064,0.277333 -0.40533,1.109333 -1.30133,1.834667 -0.87467,0.704 -2.15467,0.704 -0.40533,0 -0.93867,-0.106667 -1.216,-0.234667 -2.176,-1.109333 -0.959995,-0.874667 -1.365329,-2.112 -0.256,-0.768 -0.256,-1.557334 0,-1.962667 1.151999,-3.306667 1.152,-1.365333 2.83733,-1.578666 0.0853,-0.02133 0.29867,-0.02133 1.94133,0 2.944,1.152 1.024,1.130667 1.024,3.178667 z m -1.74933,-0.64 q -0.192,-2.325333 -1.57867,-2.816 -0.14933,-0.064 -0.448,-0.08533 -1.10933,0 -1.81333,1.024 -0.42667,0.682666 -0.55467,1.898666 V 20.304 h 4.39467 z"
       style="font-style:normal;font-variant:normal;font-weight:normal;font-stretch:normal;font-size:21.33333397px;font-family:KaTeX_Main;-inkscape-font-specification:'KaTeX_Main, Normal';font-variant-ligatures:normal;font-variant-caps:normal;font-variant-numeric:normal;font-feature-settings:normal;text-align:center;writing-mode:lr-tb;text-anchor:middle;fill:#000000"
       id="path3755" />
    <path
       d="m 108.83051,25.018667 h 0.29867 q 0.832,0 1.00267,-0.298667 v -0.170667 q 0,-0.192 0,-0.490666 0.0213,-0.298667 0.0213,-0.661334 0,-0.384 0,-0.832 0,-0.469333 0,-0.896 0,-0.661333 0,-1.408 0,-0.768 0,-1.258667 L 110.13185,18.512 q -0.064,-0.405334 -0.32,-0.533334 -0.23467,-0.149333 -0.93867,-0.192 h -0.384 V 17.296 q 0,-0.490667 0.0427,-0.490667 l 0.21333,-0.02133 q 0.21333,-0.02133 0.59733,-0.04267 0.384,-0.02133 0.768,-0.04267 0.34134,-0.02133 0.74667,-0.04267 0.40533,-0.04267 0.61867,-0.064 0.21333,-0.02133 0.23466,-0.02133 h 0.064 v 1.472 q 0.40534,-0.682666 0.896,-1.066666 0.49067,-0.384 1.30134,-0.384 0.59733,0 1.024,0.234666 0.832,0.426667 0.832,1.216 0,0.469334 -0.32,0.789334 -0.32,0.298666 -0.768,0.298666 -0.448,0 -0.768,-0.298666 -0.29867,-0.298667 -0.29867,-0.768 0,-0.362667 0.17067,-0.597334 0.0427,-0.08533 0.0427,-0.106666 -0.0427,-0.04267 -0.49066,0.08533 -0.34134,0.170667 -0.512,0.32 -0.85334,0.810667 -0.98134,2.688 v 0.832 q -0.0213,0.832 -0.0213,1.429334 0,0.277333 0,0.597333 0,0.298667 0,0.533333 0.0213,0.234667 0.0213,0.426667 0,0.192 0,0.32 v 0.106667 q 0.0853,0.170666 0.256,0.213333 0.21334,0.08533 1.13067,0.106667 h 0.66133 V 26 h -0.192 q -0.384,-0.064 -2.70933,-0.064 -2.09067,0 -2.38933,0.064 h -0.17067 v -0.981333 z"
       style="font-style:normal;font-variant:normal;font-weight:normal;font-stretch:normal;font-size:21.33333397px;font-family:KaTeX_Main;-inkscape-font-specification:'KaTeX_Main, Normal';font-variant-ligatures:normal;font-variant-caps:normal;font-variant-numeric:normal;font-feature-settings:normal;text-align:center;writing-mode:lr-tb;text-anchor:middle;fill:#000000"
       id="path3757" />
    <path
       d="m 125.29085,20.773333 q 0,0.149334 -0.14934,0.298667 h -6.016 v 0.32 q 0,1.578667 0.42667,2.389333 0.768,1.578667 2.64533,1.578667 0.91734,0 1.536,-0.682667 0.42667,-0.426666 0.66134,-1.109333 0.064,-0.234667 0.128,-0.298667 0.064,-0.064 0.34133,-0.064 0.42667,0 0.42667,0.213334 0,0.08533 -0.064,0.277333 -0.40534,1.109333 -1.30134,1.834667 -0.87466,0.704 -2.15466,0.704 -0.40534,0 -0.93867,-0.106667 -1.216,-0.234667 -2.176,-1.109333 -0.96,-0.874667 -1.36533,-2.112 -0.256,-0.768 -0.256,-1.557334 0,-1.962667 1.152,-3.306667 1.152,-1.365333 2.83733,-1.578666 0.0853,-0.02133 0.29867,-0.02133 1.94133,0 2.944,1.152 1.024,1.130667 1.024,3.178667 z m -1.74934,-0.64 q -0.192,-2.325333 -1.57866,-2.816 -0.14934,-0.064 -0.448,-0.08533 -1.10934,0 -1.81334,1.024 -0.42666,0.682666 -0.55466,1.898666 V 20.304 h 4.39466 z"
       style="font-style:normal;font-variant:normal;font-weight:normal;font-stretch:normal;font-size:21.33333397px;font-family:KaTeX_Main;-inkscape-font-specification:'KaTeX_Main, Normal';font-variant-ligatures:normal;font-variant-caps:normal;font-variant-numeric:normal;font-feature-settings:normal;text-align:center;writing-mode:lr-tb;text-anchor:middle;fill:#000000"
       id="path3759" />
    <path
       d="m 129.94918,17.168 q -1.96266,0 -1.96266,1.386666 0,0.277334 0.0427,0.362667 0.192,0.512 0.66134,0.746667 0.46933,0.213333 1.45066,0.405333 1.216,0.213333 1.664,0.469334 1.344,0.64 1.728,2.112 0.0213,0.128 0.0213,0.512 0,0.832 -0.29867,1.472 -0.832,1.578666 -3.136,1.578666 -1.28,0 -2.21867,-0.768 l -0.17066,0.149334 -0.192,0.192 q -0.128,0.128 -0.256,0.234666 l -0.23467,0.213334 h -0.17067 q -0.14933,0 -0.27733,-0.128 v -1.685334 q 0,-1.386666 0,-1.6 0.0213,-0.213333 0.10667,-0.256 0.0427,-0.02133 0.34133,-0.02133 0.27733,0 0.32,0.04267 0.064,0.04267 0.128,0.298666 0.17067,0.810667 0.55467,1.472 0.74666,1.088 2.06933,1.088 2.06933,0 2.06933,-1.664 0,-0.618666 -0.384,-1.002666 -0.34133,-0.405334 -0.896,-0.576 -0.36266,-0.08533 -1.024,-0.234667 -1.19466,-0.234667 -1.62133,-0.448 -1.408,-0.661333 -1.64267,-1.984 -0.0213,-0.08533 -0.0213,-0.32 0,-2.453334 3.008,-2.752 0.0853,-0.04267 0.512,0 0.85333,0 1.49333,0.32 l 0.32,0.170666 0.192,-0.149333 q 0.27734,-0.234667 0.46934,-0.362667 h 0.17066 q 0.14934,0 0.27734,0.128 v 2.816 l -0.128,0.128 h -0.59734 q -0.128,-0.128 -0.128,-0.256 0,-0.981333 -0.59733,-1.536 Q 130.99452,17.168 129.94918,17.168 Z"
       style="font-style:normal;font-variant:normal;font-weight:normal;font-stretch:normal;font-size:21.33333397px;font-family:KaTeX_Main;-inkscape-font-specification:'KaTeX_Main, Normal';font-variant-ligatures:normal;font-variant-caps:normal;font-variant-numeric:normal;font-feature-settings:normal;text-align:center;writing-mode:lr-tb;text-anchor:middle;fill:#000000"
       id="path3761" />
    <path
       d="m 135.59251,10.021333 0.0853,-0.021334 q 0.10666,0 0.21333,0 h 0.256 q 0.14933,0.1280005 0.59733,0.5120005 3.84,3.498666 3.84,10.154667 0,2.624 -0.61866,4.736 -0.98134,3.370666 -3.22134,5.418666 -0.14933,0.128 -0.34133,0.277334 -0.192,0.170666 -0.256,0.234666 h -0.256 q -0.256,0 -0.34133,-0.04267 -0.064,-0.04267 -0.064,-0.213334 0.0213,-0.02133 0.23466,-0.277333 3.30667,-3.434667 3.30667,-10.133333 0,-6.698667 -3.30667,-10.133334 -0.21333,-0.256 -0.23466,-0.277333 0,-0.170667 0.10666,-0.234667 z"
       style="font-style:normal;font-variant:normal;font-weight:normal;font-stretch:normal;font-size:21.33333397px;font-family:KaTeX_Main;-inkscape-font-specification:'KaTeX_Main, Normal';font-variant-ligatures:normal;font-variant-caps:normal;font-variant-numeric:normal;font-feature-settings:normal;text-align:center;writing-mode:lr-tb;text-anchor:middle;fill:#000000"
       id="path3763" />
  </g>
  <path
     inkscape:connector-curvature="0"
     id="path170"
     style="fill:none;stroke:#63d9ea;stroke-width:3px"
     d="m 94.913229,159.55906 2.4,-22.54814 2.4,-19.61652 2.400001,-16.68417 2.4,-13.800847 2.4,-11.009813 2.4,-8.347929 2.4,-5.845664 2.4,-3.527348 2.4,-1.411447 2.4,0.489095 2.4,2.166441 2.4,3.61742 2.4,4.843059 2.4,5.848077 2.4,6.640402 2.4,7.230667 2.4,7.631721 2.4,7.858176 2.4,7.92592 2.4,7.85178 2.4,7.65303 2.4,7.34715 2.4,6.95142 2.4,6.4827 2.4,5.95719 2.4,5.39022 2.4,4.79606 2.4,4.18787 2.4,3.57751 2.4,2.9756 2.4,2.39134 2.4,1.83265 2.4,1.3061 2.4,0.81697 2.4,0.36932 2.4,-0.034 2.4,-0.39108 2.4,-0.70119 2.4,-0.96435 2.4,-1.18142 2.4,-1.35393 2.4,-1.48402 2.4,-1.57424 2.4,-1.62762 2.4,-1.64738 2.4,-1.63702 2.4,-1.60009 2.4,-1.54024 2.4,-1.46108 2.4,-1.36612 2.4,-1.25877 2.4,-1.14222 2.4,-1.01952 2.4,-0.89342 2.4,-0.76646 2.4,-0.64086 2.4,-0.51861 2.4,-0.40142 2.4,-0.29066 2.4,-0.18751 2.4,-0.0928 2.4,-0.007 2.4,0.0687 2.4,0.13489 2.4,0.19133 2.4,0.23817 2.4,0.27567 2.4,0.30426 2.4,0.32446 2.4,0.33689 2.4,0.3422 2.4,0.34112 2.4,0.33438 2.4,0.32274 2.4,0.30696 2.4,0.28775 2.4,0.26584 2.4,0.24192 2.4,0.21659 2.4,0.19047 2.4,0.16407 2.4,0.13788 2.4,0.11232 2.4,0.0877 2.4,0.0645 2.4,0.0427 2.4,0.0227 2.4,0.005 2.4,-0.0116 2.4,-0.0257 2.4,-0.0378 2.4,-0.0479 2.4,-0.056 2.4,-0.0623 2.4,-0.0668 2.4,-0.0697 2.4,-0.071 2.4,-0.071 2.4,-0.0698 2.4,-0.0676"
     class="path" />
  <line
     id="line172"
     style="stroke:#0c7f99;stroke-width:3px"
     y2="159.55905"
     x2="94.913231"
     y1="159.55905"
     x1="12.913229" />
  <path
     inkscape:connector-curvature="0"
     id="path174"
     style="fill:none;stroke:#11accd;stroke-width:3px"
     d="m 94.913229,159.55906 2.4,-21.28609 2.4,-16.47205 2.400001,-12.47456 2.4,-9.17051 2.4,-6.45419 2.4,-4.234929 2.4,-2.435043 2.4,-0.988066 2.4,0.1628 2.4,1.066023 2.4,1.762891 2.4,2.288525 2.4,2.672741 2.4,2.940798 2.4,3.11406 2.4,3.21053 2.4,3.24536 2.4,3.23126 2.4,3.17885 2.4,3.09698 2.4,2.99298 2.4,2.87289 2.4,2.74169 2.4,2.60344 2.4,2.46138 2.4,2.31817 2.4,2.17587 2.4,2.03611 2.4,1.90013 2.4,1.76888 2.4,1.64301 2.4,1.52298 2.4,1.4091 2.4,1.3015 2.4,1.20021 2.4,1.10518 2.4,1.01631 2.4,0.93339 2.4,0.85624 2.4,0.7846 2.4,0.71822 2.4,0.6568 2.4,0.60011 2.4,0.54782 2.4,0.4997 2.4,0.45545 2.4,0.41482 2.4,0.37756 2.4,0.34341 2.4,0.31217 2.4,0.28359 2.4,0.25749 2.4,0.23367 2.4,0.21193 2.4,0.19213 2.4,0.1741 2.4,0.15769 2.4,0.14276 2.4,0.12919 2.4,0.11687 2.4,0.10567 2.4,0.0955 2.4,0.0863 2.4,0.078 2.4,0.0704 2.4,0.0636 2.4,0.0574 2.4,0.0517 2.4,0.0467 2.4,0.0421 2.4,0.0379 2.4,0.0342 2.4,0.0308 2.4,0.0277 2.4,0.025 2.4,0.0225 2.4,0.0203 2.4,0.0182 2.4,0.0164 2.4,0.0148 2.4,0.0133 2.4,0.0119 2.4,0.0107 2.4,0.01 2.4,0.009 2.4,0.008 2.4,0.007 2.4,0.006 2.4,0.006 2.4,0.005 2.4,0.005 2.4,0.004 2.4,0.004 2.4,0.003 2.4,0.003 2.4,0.003 2.4,0.002 2.4,0.002 2.4,0.002 2.4,0.002"
     class="path" />
  <path
     inkscape:connector-curvature="0"
     id="path176"
     style="fill:none;stroke:#0c7f99;stroke-width:3px"
     d="m 94.913229,159.55906 2.4,-17.95081 2.4,-9.41544 2.400001,-4.50233 2.4,-1.69656 2.4,-0.1155 2.4,0.75502 2.4,1.21441 2.4,1.43703 2.4,1.52429 2.4,1.53514 2.4,1.50378 2.4,1.45005 2.4,1.38531 2.4,1.31613 2.4,1.24617 2.4,1.17751 2.4,1.11121 2.4,1.04782 2.4,0.98757 2.4,0.93051 2.4,0.87658 2.4,0.82569 2.4,0.77769 2.4,0.73246 2.4,0.68983 2.4,0.64968 2.4,0.61185 2.4,0.57622 2.4,0.54268 2.4,0.51107 2.4,0.48131 2.4,0.45328 2.4,0.42689 2.4,0.40202 2.4,0.37862 2.4,0.35656 2.4,0.3358 2.4,0.31625 2.4,0.29783 2.4,0.28048 2.4,0.26415 2.4,0.24877 2.4,0.23428 2.4,0.22064 2.4,0.20778 2.4,0.19569 2.4,0.18429 2.4,0.17356 2.4,0.16345 2.4,0.15394 2.4,0.14497 2.4,0.13652 2.4,0.12858 2.4,0.12109 2.4,0.11403 2.4,0.1074 2.4,0.10114 2.4,0.0953 2.4,0.0897 2.4,0.0845 2.4,0.0796 2.4,0.0749 2.4,0.0706 2.4,0.0665 2.4,0.0626 2.4,0.0589 2.4,0.0555 2.4,0.0523 2.4,0.0492 2.4,0.0464 2.4,0.0437 2.4,0.0411 2.4,0.0387 2.4,0.0365 2.4,0.0344 2.4,0.0323 2.4,0.0305 2.4,0.0287 2.4,0.027 2.4,0.0254 2.4,0.024 2.4,0.0226 2.4,0.0213 2.4,0.02 2.4,0.0189 2.4,0.0178 2.4,0.0167 2.4,0.0157 2.4,0.0148 2.4,0.014 2.4,0.0131 2.4,0.0124 2.4,0.0117 2.4,0.011 2.4,0.0103 2.4,0.01 2.4,0.009 2.4,0.009 2.4,0.008 2.4,0.008"
     class="path" />
</svg>
