<?xml version="1.0" standalone="no"?><!DOCTYPE svg PUBLIC "-//W3C//DTD SVG 1.1//EN" "http://www.w3.org/Graphics/SVG/1.1/DTD/svg11.dtd"><svg width="475.89378290154264" height="320" transform="translate(0,0)" version="1.1" xmlns="http://www.w3.org/2000/svg" xmlns:xlink="http://www.w3.org/1999/xlink"><defs xmlns="http://www.w3.org/1999/xhtml"><style type="text/css"><![CDATA[
svg .grid { stroke-width: 0.5px; stroke: rgb(187, 187, 187); opacity: 0.5; }
svg .domain { stroke-width: 3px; stroke: black; }
svg { border: none; }
svg .path { stroke-width: 4px; stroke: rgb(255, 156, 57); fill: none; }
svg text { font-style: normal; font-variant: normal; font-weight: normal; font-stretch: normal; font-size: 16px; line-height: normal; font-family: katex_main; }
svg .tick text { font-style: normal; font-variant: normal; font-weight: normal; font-stretch: normal; font-size: 12px; line-height: normal; font-family: katex_math; }]]></style></defs><g transform="translate(40,40)"><g class="x-axis" transform="translate(0,120)" fill="none" font-size="10" font-family="sans-serif" text-anchor="middle"><path class="domain" stroke="#000" d="M0.5,0V0.5H336.39378290154264V0"/><g class="tick" opacity="1" transform="translate(24.5,0)"><line stroke="#000" y2="6"/><line class="grid" x1="0" y1="-120" x2="0" y2="120"/></g><g class="tick" opacity="1" transform="translate(72.5,0)"><line stroke="#000" y2="6"/><line class="grid" x1="0" y1="-120" x2="0" y2="120"/></g><g class="tick" opacity="1" transform="translate(120.5,0)"><line stroke="#000" y2="6"/><line class="grid" x1="0" y1="-120" x2="0" y2="120"/></g><g class="tick" opacity="1" transform="translate(168.50000000000003,0)"><line stroke="#000" y2="6"/><line class="grid" x1="0" y1="-120" x2="0" y2="120"/></g><g class="tick" opacity="1" transform="translate(216.50000000000003,0)"><line stroke="#000" y2="6"/><line class="grid" x1="0" y1="-120" x2="0" y2="120"/></g><g class="tick" opacity="1" transform="translate(264.5,0)"><line stroke="#000" y2="6"/><line class="grid" x1="0" y1="-120" x2="0" y2="120"/></g><g class="tick" opacity="1" transform="translate(312.5,0)"><line stroke="#000" y2="6"/><line class="grid" x1="0" y1="-120" x2="0" y2="120"/></g><text x="335.89378290154264" dx=".71em" style="text-anchor: start; font-size: 20px; font-style: italic; fill: black;">t</text></g><g class="y-axis" transform="translate(72,0)" fill="none" font-size="10" font-family="sans-serif" text-anchor="end"><path class="domain" stroke="#000" d="M0,240.5H0.5V0.5H0"/><g class="tick" opacity="1" transform="translate(0,240.5)"><line stroke="#000" x2="-6"/><line class="grid" x1="-72" y1="0" x2="263.89378290154264" y2="0"/></g><g class="tick" opacity="1" transform="translate(0,220.5)"><line stroke="#000" x2="-6"/><line class="grid" x1="-72" y1="0" x2="263.89378290154264" y2="0"/></g><g class="tick" opacity="1" transform="translate(0,200.5)"><line stroke="#000" x2="-6"/><line class="grid" x1="-72" y1="0" x2="263.89378290154264" y2="0"/></g><g class="tick" opacity="1" transform="translate(0,180.5)"><line stroke="#000" x2="-6"/><line class="grid" x1="-72" y1="0" x2="263.89378290154264" y2="0"/></g><g class="tick" opacity="1" transform="translate(0,160.5)"><line stroke="#000" x2="-6"/><line class="grid" x1="-72" y1="0" x2="263.89378290154264" y2="0"/></g><g class="tick" opacity="1" transform="translate(0,140.5)"><line stroke="#000" x2="-6"/><line class="grid" x1="-72" y1="0" x2="263.89378290154264" y2="0"/></g><g class="tick" opacity="1" transform="translate(0,120.5)"><line stroke="#000" x2="-6"/><line class="grid" x1="-72" y1="0" x2="263.89378290154264" y2="0"/></g><g class="tick" opacity="1" transform="translate(0,100.5)"><line stroke="#000" x2="-6"/><line class="grid" x1="-72" y1="0" x2="263.89378290154264" y2="0"/></g><g class="tick" opacity="1" transform="translate(0,80.5)"><line stroke="#000" x2="-6"/><line class="grid" x1="-72" y1="0" x2="263.89378290154264" y2="0"/></g><g class="tick" opacity="1" transform="translate(0,60.5)"><line stroke="#000" x2="-6"/><line class="grid" x1="-72" y1="0" x2="263.89378290154264" y2="0"/></g><g class="tick" opacity="1" transform="translate(0,40.5)"><line stroke="#000" x2="-6"/><line class="grid" x1="-72" y1="0" x2="263.89378290154264" y2="0"/></g><g class="tick" opacity="1" transform="translate(0,20.5)"><line stroke="#000" x2="-6"/><line class="grid" x1="-72" y1="0" x2="263.89378290154264" y2="0"/></g><g class="tick" opacity="1" transform="translate(0,0.5)"><line stroke="#000" x2="-6"/><line class="grid" x1="-72" y1="0" x2="263.89378290154264" y2="0"/></g><text dy="-12px" style="text-anchor: middle; font-size: 20px; font-style: italic; fill: black;">i,v</text></g><path class="path" d="M72,120L72.15216597692633,119.23946796544807L72.30433195385262,118.47956528073915L72.45649793077895,117.72034235948703L72.60866390770526,116.96184953143876L72.76082988463158,116.2041370391676L72.9129958615579,115.44725503477473L73.06516183848422,114.69125357659902L73.21732781541054,113.93618262593603L73.36949379233684,113.1820920437656L73.52165976926317,112.42903158748912L73.67382574618948,111.6770509076756L73.82599172311579,110.92619954481805L73.97815770004212,110.17652692609923L74.13032367696843,109.42808236216743L74.28248965389474,108.68091504392297L74.43465563082106,107.93507403931469L74.58682160774738,107.19060829014722L74.7389875846737,106.44756660889931L74.8911535616,105.705997675553L75.04331953852633,104.96595003443431L75.19548551545265,104.22747209106518L75.34765149237896,103.4906121090273L75.49981746930528,102.75541820683776L75.6519834462316,102.02193835483666L75.80414942315791,101.29022037208733L75.95631540008422,100.56031192328857L76.10848137701055,99.83226051570011L76.26064735393686,99.10611349608058L76.41281333086317,98.3819180476386L76.5649793077895,97.65972118699736L76.7171452847158,96.93956976117235L76.86931126164212,96.22151044456305L77.02147723856844,95.50558973595824L77.17364321549476,94.79185395555547L77.32580919242108,94.08034924199475L77.47797516934739,93.37112154940655L77.6301411462737,92.66421664447469L77.78230712320001,91.95968010351345L77.93447310012634,91.25755730956035L78.08663907705265,90.55789344948369L78.23880505397896,89.86073351110522L78.39097103090529,89.16612228033901L78.5431370078316,88.47410433834523L78.69530298475792,87.78472405870045L78.84746896168423,87.09802560458351L78.99963493861055,86.41405292597807L79.15180091553687,85.73284975689108L79.30396689246318,85.05445961258829L79.4561328693895,84.37892578684617L79.60829884631582,83.70629134922095L79.76046482324213,83.03659914233467L79.91263080016846,82.36989177917854L80.06479677709477,81.70621164043374L80.21696275402108,81.04560087180957L80.3691287309474,80.38810138139985L80.52129470787372,79.73375483705681L80.67346068480002,79.08260266378323L80.82562666172635,78.43468604114287L80.97779263865267,77.79004590068911L81.12995861557897,77.14872292341258L81.28212459250528,76.51075753720698L81.43429056943161,75.87618991435411L81.58645654635791,75.24505996902789L81.73862252328423,74.6174073548174L81.89078850021055,73.99327146226966L82.04295447713687,73.37269141645126L82.19512045406319,72.75570607453025L82.3472864309895,72.14235402337744L82.49945240791581,71.53267357718764L82.65161838484214,70.9267027751213L82.80378436176845,70.32447937896592L82.95595033869476,69.72604087081811L83.10811631562107,69.13142445078589L83.2602822925474,68.54066703471213L83.41244826947371,67.95380525191797L83.56461424640003,67.37087544296807L83.71678022332635,66.79191365745595L83.86894620025267,66.21695565181136L84.02111217717899,65.64603688712822L84.17327815410529,65.07919252701461L84.32544413103162,64.51645743546396L84.47761010795793,63.95786617474789L84.62977608488424,63.403453003331066L84.78194206181057,62.85325187380798L84.93410803873688,62.307296430861584L85.0862740156632,61.76562000924412L85.23843999258952,61.22825563178063L85.39060596951583,60.6952360073943L85.54277194644214,60.16659352915477L85.69493792336847,59.642360272348895L85.84710390029478,59.12256799257429L85.99926987722111,58.60724812385553L86.15143585414742,58.0964317767839L86.30360183107372,57.59014973667951L86.45576780800003,57.088432461777074L86.60793378492636,56.59131008143481L86.76009976185267,56.09881239436669L86.912265738779,55.61096886689822L87.06443171570531,55.12780863124584L87.21659769263162,54.64936048382009L87.36876366955795,54.1756528835522L87.52092964648425,53.706713950245046L87.67309562341057,53.24257146294778L87.8252616003369,52.7832528583543L87.97742757726321,52.32878522922661L88.12959355418953,51.879195322841554L88.28175953111582,51.43450953946228L88.43392550804214,50.99475393083438L88.58609148496846,50.55995419870581L88.73825746189478,50.130135693372154L88.8904234388211,49.70532341224575L89.04258941574743,49.285541998450384L89.19475539267373,48.87081573944002L89.34692136960004,48.46116856564274L89.49908734652637,48.05662404912988L89.65125332345268,47.65720540230953L89.803419300379,47.26293547664585L89.95558527730532,46.8738367614028L90.10775125423162,46.489931382413744L90.25991723115796,46.11124110087604L90.41208320808425,45.737787312170695L90.56424918501057,45.36959104470799L90.7164151619369,45.006672958798106L90.8685811388632,44.64905334554743L91.02074711578952,44.29675212578047L91.17291309271585,43.949788848987254L91.32507906964216,43.60818269229651L91.47724504656847,43.271952459474534L91.6294110234948,42.94111657994992L91.78157700042111,42.615693107863734L91.93374297734744,42.295699721146036L92.08590895427375,41.98115372061815L92.23807493120006,41.672072029120386L92.39024090812636,41.368471190666725L92.5424068850527,41.07036736962442L92.694572861979,40.77777634992063L92.84673883890532,40.49071353427422L92.99890481583164,40.20919394345458L93.15107079275795,39.93323221556571L93.30323676968426,39.6628426053573L93.45540274661059,39.39803898356132L93.6075687235369,39.1388348362554L93.75973470046323,38.885243264251784L93.91190067738954,38.63727698251353L94.06406665431585,38.394948319595784L94.21623263124218,38.15826921711448L94.36839860816849,37.92725122924054L94.52056458509479,37.701905522221125L94.67273056202113,37.48224287392625L94.82489653894743,37.26827367342301L94.97706251587374,37.06000792057492L95.12922849280007,36.857455225668645L95.28139446972638,36.660624809066405L95.43356044665269,36.46952550088514L95.58572642357902,36.284165740701866L95.73789240050533,36.1045535772856L95.89005837743166,35.93069666835535L96.04222435435797,35.76260228036486L96.19439033128428,35.60027728831338L96.3465563082106,35.4437281755832L96.49872228513692,35.29296103380284L96.65088826206323,35.14798156273747L96.80305423898956,35.00879507020514L96.95522021591584,34.87540647201905L97.10738619284217,34.747820291956856L97.25955216976848,34.62604066175564L97.41171814669481,34.510071321133466L97.56388412362112,34.39991561783714L97.71605010054745,34.29557650771591L97.86821607747376,34.197056554821614L98.02038205440007,34.10435793153502L98.17254803132639,34.017482418718345L98.32471400825271,33.936431405893416L98.47687998517902,33.861205891446474L98.62904596210535,33.79180648285873L98.78121193903166,33.72823339696296L98.93337791595799,33.67048646022616L99.08554389288427,33.61856510905801L99.2377098698106,33.57246839014516L99.38987584673691,33.532194960811665L99.54204182366324,33.49774308940499L99.69420780058955,33.46911065570771L99.84637377751588,33.44629515137507L99.99853975444219,33.429293680398274L100.1507057313685,33.418102959593114L100.30287170829482,33.41271931911433L100.45503768522114,33.41313870299564L100.60720366214746,33.4193566697148L100.75936963907378,33.431368392784435L100.91153561600007,33.44916866136799L101.06370159292638,33.47275188092112L101.2158675698527,33.502112073858115L101.36803354677902,33.53724288024347L101.52019952370534,33.57813755850876L101.67236550063167,33.62478898619443L101.82453147755798,33.677189660716294L101.97669745448428,33.735331700157275L102.12886343141061,33.79920684408347L102.28102940833692,33.86880645438572L102.43319538526325,33.94412151614503" style="fill: none; stroke: rgb(17, 172, 205);"/><path class="path" d="M0,120L72,120" style="stroke: rgb(17, 172, 205);"/><path class="path" d="M72,20L72.15216597692633,20.003349028386452L72.30433195385262,20.013392492941477L72.45649793077895,20.030124629643353L72.60866390770526,20.053539230899986L72.76082988463158,20.0836296463018L72.9129958615579,20.120388783403968L73.06516183848422,20.16380910853769L73.21732781541054,20.21388264765031L73.36949379233684,20.270600987174078L73.52165976926317,20.33395527492405L73.67382574618948,20.403936221024566L73.82599172311579,20.48053409886421L73.97815770004212,20.563738746079338L74.13032367696843,20.653539565566206L74.28248965389474,20.74992552652128L74.43465563082106,20.85288516550972L74.58682160774738,20.962406587562214L74.7389875846737,21.078477467300047L74.8911535616,21.201085050087357L75.04331953852633,21.330216153212405L75.19548551545265,21.465857167095578L75.34765149237896,21.607994056525683L75.49981746930528,21.75661236192377L75.6519834462316,21.911697200633853L75.80414942315791,22.073233268241808L75.95631540008422,22.241204839920954L76.10848137701055,22.415595771804874L76.26064735393686,22.59638950238738L76.41281333086317,22.78356905394915L76.5649793077895,22.97711703401157L76.7171452847158,23.177015636816805L76.86931126164212,23.383246644834514L77.02147723856844,23.595791430295378L77.17364321549476,23.814630956750335L77.32580919242108,24.039745780656574L77.47797516934739,24.271116052989044L77.6301411462737,24.508721520878424L77.78230712320001,24.752541529274566L77.93447310012634,25.00255502263545L78.08663907705265,25.25874054664243L78.23880505397896,25.52107624993971L78.39097103090529,25.789539885900297L78.5431370078316,26.064108814416187L78.69530298475792,26.344760003713986L78.84746896168423,26.631470032195324L78.99963493861055,26.924215090301743L79.15180091553687,27.22297098240466L79.30396689246318,27.527713128719057L79.4561328693895,27.838416567242064L79.60829884631582,28.155055955715227L79.76046482324213,28.477605573611072L79.91263080016846,28.806039324143313L80.06479677709477,29.140330736300797L80.21696275402108,29.48045296690472L80.3691287309474,29.82637880268976L80.52129470787372,30.178080662407808L80.67346068480002,30.535530598955233L80.82562666172635,30.898700301522524L80.97779263865267,31.267561097767157L81.12995861557897,31.642083956008605L81.28212459250528,32.02223948744637L81.43429056943161,32.40799794839921L81.58645654635791,32.79932924256755L81.73862252328423,33.19620292331683L81.89078850021055,33.598588195983524L82.04295447713687,34.00645392020181L82.19512045406319,34.419768612252085L82.3472864309895,34.838500447430874L82.49945240791581,35.262617262441296L82.65161838484214,35.69208655780466L82.80378436176845,36.12687550029264L82.95595033869476,36.566950925380354L83.10811631562107,37.01227933971896L83.2602822925474,37.462826923629194L83.41244826947371,37.91855953361423L83.56461424640003,38.37944270489302L83.71678022332635,38.84544165395246L83.86894620025267,39.31652128111955L84.02111217717899,39.792646173152406L84.17327815410529,40.273780605850504L84.32544413103162,40.75988854668361L84.47761010795793,41.250933657439674L84.62977608488424,41.746879296890796L84.78194206181057,42.24768852347742L84.93410803873688,42.75332409801126L85.0862740156632,43.26374848639534L85.23843999258952,43.77892386236212L85.39060596951583,44.298812110228795L85.54277194644214,44.82337482767042L85.69493792336847,45.35257332850975L85.84710390029478,45.88636864552362L85.99926987722111,46.42472153326693L86.15143585414742,46.96759247091231L86.30360183107372,47.514941665106335L86.45576780800003,48.06672905284202L86.60793378492636,48.62291430434672L86.76009976185267,49.183456825986326L86.912265738779,49.74831576318434L87.06443171570531,50.31745000335647L87.21659769263162,50.890818178860314L87.36876366955795,51.46837866995995L87.52092964648425,52.050089607804665L87.67309562341057,52.63590887742271L87.8252616003369,53.22579412072915L87.97742757726321,53.81970273954721L88.12959355418953,54.41759189864399L88.28175953111582,55.01941852877951L88.43392550804214,55.6251393297691L88.58609148496846,56.234710773558874L88.73825746189478,56.84808910731428L88.8904234388211,57.46523035652123L89.04258941574743,58.08609032809983L89.19475539267373,58.71062461353023L89.34692136960004,59.338788591990635L89.49908734652637,59.97053743350713L89.65125332345268,60.60582610211506L89.803419300379,61.24460935903184L89.95558527730532,61.886841765841154L90.10775125423162,62.53247768768759L90.25991723115796,63.18147129648236L90.41208320808425,63.833776574119696L90.56424918501057,64.48934731570296L90.7164151619369,65.14813713278153L90.8685811388632,65.81009945659665L91.02074711578952,66.47518754133785L91.17291309271585,67.14335446740796L91.32507906964216,67.81455314469767L91.47724504656847,68.48873631586892L91.6294110234948,69.16585655964698L91.78157700042111,69.84586629412127L91.93374297734744,70.52871778005382L92.08590895427375,71.2143631241963L92.23807493120006,71.90275428261464L92.39024090812636,72.5938430640214L92.5424068850527,73.287581133115L92.694572861979,73.98392001392659L92.84673883890532,74.68281109317343L92.99890481583164,75.38420562361921L93.15107079275795,76.08805472744052L93.30323676968426,76.79430939959968L93.45540274661059,77.50292051122332L93.6075687235369,78.213838812987L93.75973470046323,78.9270149385051L93.91190067738954,79.64239940772595L94.06406665431585,80.35994263033203L94.21623263124218,81.07959490914527L94.36839860816849,81.80130644353628L94.52056458509479,82.5250273328385L94.67273056202113,83.25070757976619L94.82489653894743,83.97829709383629L94.97706251587374,84.70774569479406L95.12922849280007,85.4390031160419L95.28139446972638,86.1720190080716L95.43356044665269,86.90674294189938L95.58572642357902,87.64312441250351L95.73789240050533,88.3811128422648L95.89005837743166,89.12065758440909L96.04222435435797,89.86170792645143L96.19439033128428,90.60421309364281L96.3465563082106,91.3481222524178L96.49872228513692,92.09338451384366L96.65088826206323,92.83994893707069L96.80305423898956,93.58776453278324L96.95522021591584,94.33678026665157L97.10738619284217,95.08694506278388L97.25955216976848,95.83820780717849L97.41171814669481,96.59051735117609L97.56388412362112,97.34382251491178L97.71605010054745,98.09807209076621L97.86821607747376,98.85321484681629L98.02038205440007,99.60919953028474L98.17254803132639,100.36597487098851L98.32471400825271,101.1234895847856L98.47687998517902,101.88169237702033L98.62904596210535,102.64053194596667L98.78121193903166,103.39995698626933L98.93337791595799,104.15991619238264L99.08554389288427,104.92035826200666L99.2377098698106,105.68123189952058L99.38987584673691,106.44248581941295L99.54204182366324,107.20406874970874L99.69420780058955,107.96592943539284L99.84637377751588,108.72801664182981L99.99853975444219,109.4902791581797L100.1507057313685,110.25266580080944L100.30287170829482,111.01512541670041L100.45503768522114,111.7776068868506L100.60720366214746,112.54005912967254L100.75936963907378,113.30243110438585L100.91153561600007,114.0646718144042L101.06370159292638,114.82673031071761L101.2158675698527,115.58855569526791L101.36803354677902,116.35009712431903L101.52019952370534,117.1113038118207L101.67236550063167,117.8721250327658L101.82453147755798,118.63251012654113L101.97669745448428,119.39240850027144L102.12886343141061,120.15176963215576L102.28102940833692,120.91054307479749L102.43319538526325,121.66867845852589" style="fill: none;"/><path class="path" d="M0,20L72,20"/><text x="-3" y="20" dy="-6" style="text-anchor: start; font-size: 20px; font-style: italic; fill: black;">v</text><text x="-3" y="120" dy="-6" style="text-anchor: start; font-size: 18px; font-style: italic; fill: black;">i</text></g></svg>