<?xml version="1.0" encoding="UTF-8" standalone="no"?>
<svg
   xmlns:xhtml="http://www.w3.org/1999/xhtml"
   xmlns:dc="http://purl.org/dc/elements/1.1/"
   xmlns:cc="http://creativecommons.org/ns#"
   xmlns:rdf="http://www.w3.org/1999/02/22-rdf-syntax-ns#"
   xmlns:svg="http://www.w3.org/2000/svg"
   xmlns="http://www.w3.org/2000/svg"
   xmlns:sodipodi="http://sodipodi.sourceforge.net/DTD/sodipodi-0.dtd"
   xmlns:inkscape="http://www.inkscape.org/namespaces/inkscape"
   width="423.23953"
   height="383.04187"
   version="1.1"
   id="svg2"
   inkscape:version="0.91 r13725"
   sodipodi:docname="rlc_underdamped_current.svg">
  <metadata
     id="metadata170">
    <rdf:RDF>
      <cc:Work
         rdf:about="">
        <dc:format>image/svg+xml</dc:format>
        <dc:type
           rdf:resource="http://purl.org/dc/dcmitype/StillImage" />
        <dc:title></dc:title>
      </cc:Work>
    </rdf:RDF>
  </metadata>
  <defs
     id="defs168" />
  <sodipodi:namedview
     pagecolor="#ffffff"
     bordercolor="#666666"
     borderopacity="1"
     objecttolerance="10"
     gridtolerance="10"
     guidetolerance="10"
     inkscape:pageopacity="0"
     inkscape:pageshadow="2"
     inkscape:window-width="640"
     inkscape:window-height="480"
     id="namedview166"
     showgrid="false"
     fit-margin-top="10"
     fit-margin-right="10"
     fit-margin-bottom="10"
     fit-margin-left="10"
     inkscape:zoom="1.3262258"
     inkscape:cx="211.61977"
     inkscape:cy="191.52094"
     inkscape:current-layer="svg2" />
  <xhtml:defs>
    <xhtml:style
       type="text/css"><![CDATA[
svg .grid { stroke-width: 0.5px; stroke: rgb(187, 187, 187); opacity: 0.5; }
svg .domain { stroke-width: 3px; stroke: black; }
svg { border: 0px solid red; }
svg .path { stroke-width: 3px; stroke: rgb(17, 172, 205); fill: none; }
svg text { font-style: normal; font-variant: normal; font-weight: normal; font-stretch: normal; font-size: 16px; line-height: normal; font-family: katex_math; }
svg .tick text { font-style: normal; font-variant: normal; font-weight: normal; font-stretch: normal; font-size: 12px; line-height: normal; font-family: katex_math; }]]></xhtml:style>
  </xhtml:defs>
  <path
     class="domain"
     d="m 15.074902,191.52093 0,0.5 287.999998,0 0,-0.5"
     id="path8"
     inkscape:connector-curvature="0"
     style="font-size:medium;font-family:sans-serif;text-anchor:middle;fill:none;stroke:#000000" />
  <line
     style="font-size:medium;font-family:sans-serif;text-anchor:middle;fill:none;stroke:#000000"
     x2="15.074903"
     y1="191.52092"
     x1="15.074903"
     id="line12"
     y2="197.52092" />
  <g
     style="font-style:normal;font-variant:normal;font-weight:normal;font-stretch:normal;font-size:12.5px;line-height:125%;font-family:KaTeX_Main;-inkscape-font-specification:'KaTeX_Main, Normal';text-align:center;writing-mode:lr-tb;text-anchor:middle;fill:#000000"
     id="text14">
    <path
       d="m 10,208.91333 0,-0.9125 3.325,0 0,0.9125 -3.325,0 z"
       style="font-style:normal;font-variant:normal;font-weight:normal;font-stretch:normal;font-size:12.5px;line-height:125%;font-family:KaTeX_Main;-inkscape-font-specification:'KaTeX_Main, Normal';text-align:center;writing-mode:lr-tb;text-anchor:middle;fill:#000000"
       id="path4608" />
    <path
       d="m 15.412305,205.78833 q -0.35,0 -0.55,-0.225 -0.2,-0.225 -0.2,-0.55 0,-0.9 0.675,-1.5375 0.6875,-0.65 1.6375,-0.65 1.075,0 1.775,0.5875 0.7125,0.575 0.875,1.5125 0.025,0.225 0.025,0.4125 0,0.725 -0.4375,1.3625 -0.35,0.525 -1.4125,1.4375 -0.45,0.3875 -1.25,1.15 l -0.7375,0.7 0.95,0.0125 q 1.9625,0 2.0875,-0.0625 0.05,-0.0125 0.125,-0.2625 0.05,-0.1375 0.175,-0.85 l 0,-0.0375 0.5,0 0,0.0375 -0.35,2.2875 0,0.0375 -4.6375,0 0,-0.2375 q 0,-0.25 0.025,-0.2875 0.0125,-0.0125 1.05,-1.1875 1.3625,-1.5125 1.75,-2 0.8375,-1.1375 0.8375,-2.0875 0,-0.825 -0.4375,-1.375 -0.425,-0.5625 -1.2,-0.5625 -0.725,0 -1.175,0.65 -0.025,0.05 -0.075,0.1375 -0.0375,0.0625 -0.0375,0.075 0,0.0125 0.0625,0.0125 0.3125,0 0.5,0.225 0.2,0.225 0.2,0.525 0,0.3125 -0.2125,0.5375 -0.2,0.2125 -0.5375,0.2125 z"
       style="font-style:normal;font-variant:normal;font-weight:normal;font-stretch:normal;font-size:12.5px;line-height:125%;font-family:KaTeX_Main;-inkscape-font-specification:'KaTeX_Main, Normal';text-align:center;writing-mode:lr-tb;text-anchor:middle;fill:#000000"
       id="path4610" />
  </g>
  <line
     style="font-size:medium;font-family:sans-serif;text-anchor:middle;fill:none"
     id="line16"
     y2="335.52094"
     x2="15.074903"
     y1="47.520927"
     x1="15.074903"
     class="grid" />
  <line
     style="font-size:medium;font-family:sans-serif;text-anchor:middle;fill:none;stroke:#000000"
     x2="51.074902"
     y1="191.52092"
     x1="51.074902"
     id="line20"
     y2="197.52092" />
  <g
     style="font-style:normal;font-variant:normal;font-weight:normal;font-stretch:normal;font-size:12.5px;line-height:125%;font-family:KaTeX_Main;-inkscape-font-specification:'KaTeX_Main, Normal';text-align:center;writing-mode:lr-tb;text-anchor:middle;fill:#000000"
     id="text22">
    <path
       d="m 45.999999,208.91333 0,-0.9125 3.325,0 0,0.9125 -3.325,0 z"
       style="font-style:normal;font-variant:normal;font-weight:normal;font-stretch:normal;font-size:12.5px;line-height:125%;font-family:KaTeX_Main;-inkscape-font-specification:'KaTeX_Main, Normal';text-align:center;writing-mode:lr-tb;text-anchor:middle;fill:#000000"
       id="path4603" />
    <path
       d="m 55.237304,211.15083 q -0.2125,-0.0375 -1.9875,-0.0375 -1.75,0 -1.9625,0.0375 l -0.15,0 0,-0.575 0.325,0 q 0.725,0 0.9375,-0.0375 0.1,-0.0125 0.3,-0.15 l 0,-6.4625 q -0.025,0 -0.1,0.0375 -0.575,0.225 -1.2875,0.2375 l -0.2375,0 0,-0.575 0.2375,0 q 1.05,-0.0375 1.75,-0.475 0.225,-0.125 0.3875,-0.2875 0.025,-0.0375 0.15,-0.0375 0.125,0 0.2125,0.075 l 0,3.7375 0.0125,3.75 q 0.1875,0.1875 0.8125,0.1875 l 0.4125,0 0.325,0 0,0.575 -0.1375,0 z"
       style="font-style:normal;font-variant:normal;font-weight:normal;font-stretch:normal;font-size:12.5px;line-height:125%;font-family:KaTeX_Main;-inkscape-font-specification:'KaTeX_Main, Normal';text-align:center;writing-mode:lr-tb;text-anchor:middle;fill:#000000"
       id="path4605" />
  </g>
  <line
     style="font-size:medium;font-family:sans-serif;text-anchor:middle;fill:none"
     id="line24"
     y2="335.52094"
     x2="51.074902"
     y1="47.520927"
     x1="51.074902"
     class="grid" />
  <line
     style="font-size:medium;font-family:sans-serif;text-anchor:middle;fill:none;stroke:#000000"
     x2="87.074905"
     y1="191.52092"
     x1="87.074905"
     id="line28"
     y2="197.52092" />
  <line
     style="font-size:medium;font-family:sans-serif;text-anchor:middle;fill:none"
     id="line30"
     y2="335.52094"
     x2="87.074905"
     y1="47.520927"
     x1="87.074905"
     class="grid" />
  <line
     style="font-size:medium;font-family:sans-serif;text-anchor:middle;fill:none;stroke:#000000"
     x2="123.07491"
     y1="191.52092"
     x1="123.07491"
     id="line34"
     y2="197.52092" />
  <g
     style="font-style:normal;font-variant:normal;font-weight:normal;font-stretch:normal;font-size:12.5px;line-height:125%;font-family:KaTeX_Main;-inkscape-font-specification:'KaTeX_Main, Normal';text-align:center;writing-mode:lr-tb;text-anchor:middle;fill:#000000"
     id="text36">
    <path
       d="m 125.14991,211.15083 q -0.2125,-0.0375 -1.9875,-0.0375 -1.75,0 -1.9625,0.0375 l -0.15,0 0,-0.575 0.325,0 q 0.725,0 0.9375,-0.0375 0.1,-0.0125 0.3,-0.15 l 0,-6.4625 q -0.025,0 -0.1,0.0375 -0.575,0.225 -1.2875,0.2375 l -0.2375,0 0,-0.575 0.2375,0 q 1.05,-0.0375 1.75,-0.475 0.225,-0.125 0.3875,-0.2875 0.025,-0.0375 0.15,-0.0375 0.125,0 0.2125,0.075 l 0,3.7375 0.0125,3.75 q 0.1875,0.1875 0.8125,0.1875 l 0.4125,0 0.325,0 0,0.575 -0.1375,0 z"
       style="font-style:normal;font-variant:normal;font-weight:normal;font-stretch:normal;font-size:12.5px;line-height:125%;font-family:KaTeX_Main;-inkscape-font-specification:'KaTeX_Main, Normal';text-align:center;writing-mode:lr-tb;text-anchor:middle;fill:#000000"
       id="path4600" />
  </g>
  <line
     style="font-size:medium;font-family:sans-serif;text-anchor:middle;fill:none"
     id="line38"
     y2="335.52094"
     x2="123.07491"
     y1="47.520927"
     x1="123.07491"
     class="grid" />
  <line
     style="font-size:medium;font-family:sans-serif;text-anchor:middle;fill:none;stroke:#000000"
     x2="159.07491"
     y1="191.52092"
     x1="159.07491"
     id="line42"
     y2="197.52092" />
  <g
     style="font-style:normal;font-variant:normal;font-weight:normal;font-stretch:normal;font-size:12.5px;line-height:125%;font-family:KaTeX_Main;-inkscape-font-specification:'KaTeX_Main, Normal';text-align:center;writing-mode:lr-tb;text-anchor:middle;fill:#000000"
     id="text44">
    <path
       d="m 157.32491,205.78833 q -0.35,0 -0.55,-0.225 -0.2,-0.225 -0.2,-0.55 0,-0.9 0.675,-1.5375 0.6875,-0.65 1.6375,-0.65 1.075,0 1.775,0.5875 0.7125,0.575 0.875,1.5125 0.025,0.225 0.025,0.4125 0,0.725 -0.4375,1.3625 -0.35,0.525 -1.4125,1.4375 -0.45,0.3875 -1.25,1.15 l -0.7375,0.7 0.95,0.0125 q 1.9625,0 2.0875,-0.0625 0.05,-0.0125 0.125,-0.2625 0.05,-0.1375 0.175,-0.85 l 0,-0.0375 0.5,0 0,0.0375 -0.35,2.2875 0,0.0375 -4.6375,0 0,-0.2375 q 0,-0.25 0.025,-0.2875 0.0125,-0.0125 1.05,-1.1875 1.3625,-1.5125 1.75,-2 0.8375,-1.1375 0.8375,-2.0875 0,-0.825 -0.4375,-1.375 -0.425,-0.5625 -1.2,-0.5625 -0.725,0 -1.175,0.65 -0.025,0.05 -0.075,0.1375 -0.0375,0.0625 -0.0375,0.075 0,0.0125 0.0625,0.0125 0.3125,0 0.5,0.225 0.2,0.225 0.2,0.525 0,0.3125 -0.2125,0.5375 -0.2,0.2125 -0.5375,0.2125 z"
       style="font-style:normal;font-variant:normal;font-weight:normal;font-stretch:normal;font-size:12.5px;line-height:125%;font-family:KaTeX_Main;-inkscape-font-specification:'KaTeX_Main, Normal';text-align:center;writing-mode:lr-tb;text-anchor:middle;fill:#000000"
       id="path4597" />
  </g>
  <line
     style="font-size:medium;font-family:sans-serif;text-anchor:middle;fill:none"
     id="line46"
     y2="335.52094"
     x2="159.07491"
     y1="47.520927"
     x1="159.07491"
     class="grid" />
  <line
     style="font-size:medium;font-family:sans-serif;text-anchor:middle;fill:none;stroke:#000000"
     x2="195.07491"
     y1="191.52092"
     x1="195.07491"
     id="line50"
     y2="197.52092" />
  <g
     style="font-style:normal;font-variant:normal;font-weight:normal;font-stretch:normal;font-size:12.5px;line-height:125%;font-family:KaTeX_Main;-inkscape-font-specification:'KaTeX_Main, Normal';text-align:center;writing-mode:lr-tb;text-anchor:middle;fill:#000000"
     id="text52">
    <path
       d="m 193.53741,205.36333 q -0.3375,0 -0.5375,-0.2125 -0.1875,-0.2125 -0.1875,-0.55 0,-0.7125 0.5625,-1.1875 0.5625,-0.4875 1.3,-0.575 l 0.1875,0 q 0.4375,0 0.55,0.0125 0.4125,0.0625 0.8375,0.2625 0.825,0.4125 1.0375,1.175 0.0375,0.125 0.0375,0.3375 0,0.7375 -0.4625,1.325 -0.45,0.575 -1.1375,0.825 -0.0625,0.025 0,0.0375 0.025,0.0125 0.125,0.0375 0.7625,0.2125 1.2875,0.8 0.525,0.575 0.525,1.3125 0,0.5125 -0.2375,0.9875 -0.3,0.6375 -0.9875,1.0625 -0.675,0.4125 -1.5125,0.4125 -0.825,0 -1.4625,-0.35 -0.6375,-0.35 -0.8625,-0.9375 -0.125,-0.2625 -0.125,-0.6125 0,-0.35 0.225,-0.5625 0.2375,-0.225 0.5625,-0.225 0.35,0 0.575,0.225 0.225,0.225 0.225,0.5625 0,0.2875 -0.1625,0.5 -0.1625,0.2125 -0.4375,0.275 l -0.0875,0.025 q 0.675,0.5625 1.55,0.5625 0.6875,0 1.0375,-0.6625 0.2125,-0.4125 0.2125,-1.2625 l 0,-0.25 q 0,-1.1875 -0.8,-1.5875 -0.1875,-0.075 -0.7625,-0.0875 l -0.525,-0.0125 -0.0375,-0.025 q -0.025,-0.0375 -0.025,-0.2 0,-0.15 0.0375,-0.1875 0.0375,-0.0375 0.0625,-0.0375 0.35,0 0.725,-0.0625 0.55,-0.075 0.8375,-0.6125 0.2875,-0.55 0.2875,-1.3125 0,-0.8125 -0.4375,-1.0875 -0.2625,-0.175 -0.5875,-0.175 -0.625,0 -1.1,0.3375 -0.05,0.025 -0.1125,0.0875 -0.0625,0.05 -0.1,0.1 l -0.0375,0.05 q 0.0375,0.0125 0.0875,0.025 0.25,0.025 0.4125,0.2375 0.175,0.2125 0.175,0.4875 0,0.3 -0.2125,0.5125 -0.2,0.2 -0.525,0.2 z"
       style="font-style:normal;font-variant:normal;font-weight:normal;font-stretch:normal;font-size:12.5px;line-height:125%;font-family:KaTeX_Main;-inkscape-font-specification:'KaTeX_Main, Normal';text-align:center;writing-mode:lr-tb;text-anchor:middle;fill:#000000"
       id="path4594" />
  </g>
  <line
     style="font-size:medium;font-family:sans-serif;text-anchor:middle;fill:none"
     id="line54"
     y2="335.52094"
     x2="195.07491"
     y1="47.520927"
     x1="195.07491"
     class="grid" />
  <line
     style="font-size:medium;font-family:sans-serif;text-anchor:middle;fill:none;stroke:#000000"
     x2="231.07491"
     y1="191.52092"
     x1="231.07491"
     id="line58"
     y2="197.52092" />
  <g
     style="font-style:normal;font-variant:normal;font-weight:normal;font-stretch:normal;font-size:12.5px;line-height:125%;font-family:KaTeX_Main;-inkscape-font-specification:'KaTeX_Main, Normal';text-align:center;writing-mode:lr-tb;text-anchor:middle;fill:#000000"
     id="text60">
    <path
       d="m 233.72491,211.15083 q -0.175,-0.0375 -1.6125,-0.0375 -1.5,0 -1.675,0.0375 l -0.1125,0 0,-0.575 0.3875,0 q 0.5375,-0.0125 0.6625,-0.0625 0.1,-0.025 0.15,-0.125 0.0125,-0.025 0.0125,-0.675 l 0,-0.625 -3.2375,0 0,-0.575 1.8875,-2.8875 q 1.9125,-2.9 1.9375,-2.9125 0.025,-0.025 0.2625,-0.025 l 0.225,0 0.075,0.075 0,5.75 1.15,0 0,0.575 -1.15,0 0,0.6375 q 0,0.5125 0,0.6 0.0125,0.0875 0.075,0.15 0.1,0.0875 0.7125,0.1 l 0.3625,0 0,0.575 -0.1125,0 z m -2.1125,-2.6375 0,-4.175 -2.7375,4.1625 1.3625,0.0125 1.375,0 z"
       style="font-style:normal;font-variant:normal;font-weight:normal;font-stretch:normal;font-size:12.5px;line-height:125%;font-family:KaTeX_Main;-inkscape-font-specification:'KaTeX_Main, Normal';text-align:center;writing-mode:lr-tb;text-anchor:middle;fill:#000000"
       id="path4591" />
  </g>
  <line
     style="font-size:medium;font-family:sans-serif;text-anchor:middle;fill:none"
     id="line62"
     y2="335.52094"
     x2="231.07491"
     y1="47.520927"
     x1="231.07491"
     class="grid" />
  <line
     style="font-size:medium;font-family:sans-serif;text-anchor:middle;fill:none;stroke:#000000"
     x2="267.07489"
     y1="191.52092"
     x1="267.07489"
     id="line66"
     y2="197.52092" />
  <g
     style="font-style:normal;font-variant:normal;font-weight:normal;font-stretch:normal;font-size:12.5px;line-height:125%;font-family:KaTeX_Main;-inkscape-font-specification:'KaTeX_Main, Normal';text-align:center;writing-mode:lr-tb;text-anchor:middle;fill:#000000"
     id="text68">
    <path
       d="m 265.28739,208.47583 q 0.3,0 0.5,0.2125 0.2125,0.2 0.2125,0.5125 0,0.2875 -0.2125,0.4875 -0.2125,0.2 -0.475,0.2 l -0.0875,0 0.0375,0.0625 q 0.1875,0.4 0.575,0.6625 0.3875,0.2625 0.9125,0.2625 0.8875,0 1.275,-0.75 0.2375,-0.4625 0.2375,-1.6 0,-1.2875 -0.3375,-1.7375 -0.325,-0.4125 -0.8,-0.4125 -0.975,0 -1.475,0.85 -0.05,0.0875 -0.1,0.1125 -0.0375,0.0125 -0.175,0.0125 -0.2125,0 -0.2375,-0.075 -0.025,-0.05 -0.025,-2.1875 0,-0.375 -0.0125,-0.8875 0,-0.5125 0,-0.65 0,-0.7 0.075,-0.7 0.025,-0.025 0.05,-0.025 l 0.225,0.075 q 0.8125,0.325 1.6625,0.325 0.8875,0 1.7,-0.35 0.1,-0.05 0.1625,-0.05 0.1,0 0.1,0.225 l 0,0.1625 q -1.0125,1.2125 -2.5625,1.2125 -0.3875,0 -0.7,-0.075 l -0.125,-0.025 0,2.15 q 0.7125,-0.575 1.4625,-0.575 0.2375,0 0.5125,0.0625 0.8375,0.2125 1.3625,0.95 0.5375,0.7375 0.5375,1.725 0,1.1375 -0.8,1.9625 -0.7875,0.825 -1.95,0.825 -0.7875,0 -1.3375,-0.4375 -0.2375,-0.15 -0.4125,-0.4125 -0.375,-0.45 -0.475,-1.1125 0,-0.0375 -0.0125,-0.1125 0,-0.0875 0,-0.125 0,-0.35 0.2,-0.55 0.2,-0.2 0.5125,-0.2 z"
       style="font-style:normal;font-variant:normal;font-weight:normal;font-stretch:normal;font-size:12.5px;line-height:125%;font-family:KaTeX_Main;-inkscape-font-specification:'KaTeX_Main, Normal';text-align:center;writing-mode:lr-tb;text-anchor:middle;fill:#000000"
       id="path4588" />
  </g>
  <line
     style="font-size:medium;font-family:sans-serif;text-anchor:middle;fill:none"
     id="line70"
     y2="335.52094"
     x2="267.07489"
     y1="47.520927"
     x1="267.07489"
     class="grid" />
  <line
     style="font-size:medium;font-family:sans-serif;text-anchor:middle;fill:none;stroke:#000000"
     x2="303.07489"
     y1="191.52092"
     x1="303.07489"
     id="line74"
     y2="197.52092" />
  <g
     style="font-style:normal;font-variant:normal;font-weight:normal;font-stretch:normal;font-size:12.5px;line-height:125%;font-family:KaTeX_Main;-inkscape-font-specification:'KaTeX_Main, Normal';text-align:center;writing-mode:lr-tb;text-anchor:middle;fill:#000000"
     id="text76">
    <path
       d="m 304.61239,203.63833 q -0.275,-0.275 -0.775,-0.3125 -0.875,0 -1.4625,0.75 -0.5875,0.8125 -0.5875,2.525 l 0.0125,0.05 0.1,-0.1625 q 0.5125,-0.75 1.3875,-0.75 0.575,0 1.0125,0.2375 0.3,0.175 0.6,0.5125 0.3,0.325 0.4875,0.7 0.2625,0.6125 0.2625,1.3375 l 0,0.225 q 0,0.2875 -0.0625,0.5375 -0.15,0.7375 -0.775,1.3875 -0.5375,0.5625 -1.2,0.7 -0.2,0.05 -0.5,0.05 -0.2375,0 -0.425,-0.0375 -0.925,-0.175 -1.475,-1 -0.7375,-1.1625 -0.7375,-3.15 0,-1.35 0.475,-2.3625 0.475,-1.0125 1.325,-1.575 0.675,-0.475 1.4625,-0.475 0.725,0 1.1625,0.3875 0.45,0.3875 0.45,1.0625 0,0.3125 -0.1875,0.5 -0.175,0.1875 -0.475,0.1875 -0.3,0 -0.4875,-0.175 -0.175,-0.175 -0.175,-0.4875 0,-0.5625 0.5875,-0.6625 z m -0.55,3 q -0.35,-0.45 -0.9,-0.45 -0.4625,0 -0.75,0.2875 -0.6125,0.6125 -0.6125,1.975 0,1.1125 0.15,1.5375 0.125,0.375 0.425,0.6375 0.3,0.2625 0.7125,0.2625 0.6375,0 0.975,-0.475 0.1875,-0.2625 0.2375,-0.625 0.05,-0.3625 0.05,-1.05 l 0,-0.2 0,-0.2 q 0,-0.7125 -0.05,-1.075 -0.05,-0.3625 -0.2375,-0.625 z"
       style="font-style:normal;font-variant:normal;font-weight:normal;font-stretch:normal;font-size:12.5px;line-height:125%;font-family:KaTeX_Main;-inkscape-font-specification:'KaTeX_Main, Normal';text-align:center;writing-mode:lr-tb;text-anchor:middle;fill:#000000"
       id="path4585" />
  </g>
  <line
     style="font-size:medium;font-family:sans-serif;text-anchor:middle;fill:none"
     id="line78"
     y2="335.52094"
     x2="303.07489"
     y1="47.520927"
     x1="303.07489"
     class="grid" />
  <g
     style="font-style:normal;font-variant:normal;font-weight:normal;font-stretch:normal;font-size:22.5px;line-height:125%;font-family:KaTeX_Main;-inkscape-font-specification:'KaTeX_Main, Normal';text-align:center;writing-mode:lr-tb;text-anchor:middle;fill:#000000"
     id="text80">
    <path
       d="m 310.83747,186.40172 q -0.1575,-0.1575 -0.1575,-0.225 0,-0.09 0.0675,-0.36 0.09,-0.2925 0.1125,-0.315 0.045,-0.1125 0.2025,-0.1125 0.18,-0.0225 1.1475,-0.0225 l 1.1925,0 0.4275,-1.8 q 0.4725,-1.8225 0.54,-1.9575 0.27,-0.63 1.035,-0.63 0.2925,0.0225 0.495,0.2025 0.225,0.18 0.225,0.4725 0,0.27 -0.4275,1.9125 -0.09,0.3825 -0.225,0.855 -0.1125,0.45 -0.18,0.675 l -0.045,0.225 q 0,0.045 1.125,0.045 l 1.1475,0 q 0.1575,0.1575 0.1575,0.2475 0,0.495 -0.2925,0.7875 l -2.4075,0 -0.81,3.2625 q -0.8325,3.3525 -0.855,3.5325 -0.0225,0.1125 -0.0225,0.3375 0,0.945 0.6075,0.945 0.1575,0 0.27,-0.0225 1.125,-0.2025 2.0475,-1.8 0.225,-0.36 0.405,-0.8325 0.045,-0.135 0.1125,-0.1575 0.0675,-0.045 0.3375,-0.045 0.45,0 0.45,0.18 0,0.045 -0.09,0.27 -0.2475,0.72 -0.81,1.4625 -0.54,0.72 -1.1025,1.1475 -0.8325,0.63 -1.7775,0.63 -0.81,0 -1.395,-0.405 -0.5625,-0.4275 -0.765,-1.1025 -0.045,-0.18 -0.045,-0.6075 l 0,-0.405 0.7875,-3.15 q 0.7875,-3.1725 0.81,-3.195 0,-0.045 -1.1475,-0.045 l -1.1475,0 z"
       style="font-style:normal;font-variant:normal;font-weight:normal;font-stretch:normal;font-size:22.5px;line-height:125%;font-family:KaTeX_Math;-inkscape-font-specification:'KaTeX_Math, Normal';text-align:center;writing-mode:lr-tb;text-anchor:middle"
       id="path4564" />
    <path
       d="m 331.49985,200.48672 q 0,0.2025 -0.405,0.2025 l -0.2925,0 q -0.1575,-0.135 -0.63,-0.54 -4.05,-3.69 -4.05,-10.71 0,-2.745 0.6525,-5.0175 1.035,-3.5325 3.3975,-5.6925 0.1575,-0.135 0.36,-0.2925 0.2025,-0.18 0.27,-0.2475 l 0.2925,0 q 0.27,0 0.3375,0.0675 0.0675,0.0675 0.0675,0.135 0,0.09 -0.2475,0.3375 -3.4875,3.69 -3.4875,10.71 0,7.02 3.4875,10.71 0.2475,0.2475 0.2475,0.3375 z"
       style="font-style:normal;font-variant:normal;font-weight:normal;font-stretch:normal;font-size:22.5px;line-height:125%;font-family:KaTeX_Main;-inkscape-font-specification:'KaTeX_Main, Normal';text-align:center;writing-mode:lr-tb;text-anchor:middle;fill:#000000"
       id="path4566" />
    <path
       d="m 337.02747,185.74922 q -2.07,0 -2.07,1.4625 0,0.2925 0.045,0.3825 0.2025,0.54 0.6975,0.7875 0.495,0.225 1.53,0.4275 1.2825,0.225 1.755,0.495 1.4175,0.675 1.8225,2.2275 0.0225,0.135 0.0225,0.54 0,0.8775 -0.315,1.5525 -0.8775,1.665 -3.3075,1.665 -1.35,0 -2.34,-0.81 l -0.18,0.1575 -0.2025,0.2025 q -0.135,0.135 -0.27,0.2475 l -0.2475,0.225 -0.18,0 q -0.1575,0 -0.2925,-0.135 l 0,-1.7775 q 0,-1.4625 0,-1.6875 0.0225,-0.225 0.1125,-0.27 0.045,-0.0225 0.36,-0.0225 0.2925,0 0.3375,0.045 0.0675,0.045 0.135,0.315 0.18,0.855 0.585,1.5525 0.7875,1.1475 2.1825,1.1475 2.1825,0 2.1825,-1.755 0,-0.6525 -0.405,-1.0575 -0.36,-0.4275 -0.945,-0.6075 -0.3825,-0.09 -1.08,-0.2475 -1.26,-0.2475 -1.71,-0.4725 -1.485,-0.6975 -1.7325,-2.0925 -0.0225,-0.09 -0.0225,-0.3375 0,-2.5875 3.1725,-2.9025 0.09,-0.045 0.54,0 0.9,0 1.575,0.3375 l 0.3375,0.18 0.2025,-0.1575 q 0.2925,-0.2475 0.495,-0.3825 l 0.18,0 q 0.1575,0 0.2925,0.135 l 0,2.97 -0.135,0.135 -0.63,0 q -0.135,-0.135 -0.135,-0.27 0,-1.035 -0.63,-1.62 -0.63,-0.585 -1.7325,-0.585 z"
       style="font-style:normal;font-variant:normal;font-weight:normal;font-stretch:normal;font-size:22.5px;line-height:125%;font-family:KaTeX_Main;-inkscape-font-specification:'KaTeX_Main, Normal';text-align:center;writing-mode:lr-tb;text-anchor:middle;fill:#000000"
       id="path4568" />
    <path
       d="m 350.92298,189.55172 q 0,0.1575 -0.1575,0.315 l -6.345,0 0,0.3375 q 0,1.665 0.45,2.52 0.81,1.665 2.79,1.665 0.9675,0 1.62,-0.72 0.45,-0.45 0.6975,-1.17 0.0675,-0.2475 0.135,-0.315 0.0675,-0.0675 0.36,-0.0675 0.45,0 0.45,0.225 0,0.09 -0.0675,0.2925 -0.4275,1.17 -1.3725,1.935 -0.9225,0.7425 -2.2725,0.7425 -0.4275,0 -0.99,-0.1125 -1.2825,-0.2475 -2.295,-1.17 -1.0125,-0.9225 -1.44,-2.2275 -0.27,-0.81 -0.27,-1.6425 0,-2.07 1.215,-3.4875 1.215,-1.44 2.9925,-1.665 0.09,-0.0225 0.315,-0.0225 2.0475,0 3.105,1.215 1.08,1.1925 1.08,3.3525 z m -1.845,-0.675 q -0.2025,-2.4525 -1.665,-2.97 -0.1575,-0.0675 -0.4725,-0.09 -1.17,0 -1.9125,1.08 -0.45,0.72 -0.585,2.0025 l 0,0.1575 4.635,0 0,-0.18 z"
       style="font-style:normal;font-variant:normal;font-weight:normal;font-stretch:normal;font-size:22.5px;line-height:125%;font-family:KaTeX_Main;-inkscape-font-specification:'KaTeX_Main, Normal';text-align:center;writing-mode:lr-tb;text-anchor:middle;fill:#000000"
       id="path4570" />
    <path
       d="m 360.29107,187.88672 q -0.3375,0.315 -0.855,0.315 -0.5175,0 -0.855,-0.3375 -0.3375,-0.36 -0.3375,-0.855 0,-0.5175 0.3375,-0.855 0.1125,-0.1125 0.09,-0.135 0,-0.0225 -0.2025,-0.045 -0.585,-0.09 -1.1025,-0.09 -1.1475,0 -1.8,0.72 -1.0575,1.0575 -1.0575,3.5325 0,1.845 0.6975,2.9025 0.9225,1.3725 2.475,1.3725 0.5625,0 0.99,-0.225 0.945,-0.4725 1.305,-1.755 0.045,-0.18 0.1125,-0.225 0.0675,-0.045 0.36,-0.045 l 0.315,0 q 0.135,0.135 0.135,0.2025 0,0.4275 -0.5625,1.3275 -1.125,1.62 -3.1725,1.62 -1.125,0 -2.1375,-0.5175 -2.2275,-1.1475 -2.6775,-3.825 -0.0225,-0.135 -0.0225,-0.72 0,-0.585 0.0225,-0.7425 0.27,-2.115 1.845,-3.4425 1.35,-1.08 2.9925,-1.08 2.9025,0 3.3975,1.53 0.0675,0.2025 0.0675,0.5175 0,0.5175 -0.36,0.855 z"
       style="font-style:normal;font-variant:normal;font-weight:normal;font-stretch:normal;font-size:22.5px;line-height:125%;font-family:KaTeX_Main;-inkscape-font-specification:'KaTeX_Main, Normal';text-align:center;writing-mode:lr-tb;text-anchor:middle;fill:#000000"
       id="path4572" />
    <path
       d="m 362.16665,190.24922 q 0,-2.0475 1.305,-3.51 1.305,-1.485 3.1275,-1.71 0.36,-0.045 0.5625,-0.045 1.9575,0 3.3975,1.44 1.575,1.575 1.575,3.8025 0,0.45 -0.1125,1.0575 -0.27,1.4175 -1.2825,2.475 -0.99,1.035 -2.4075,1.395 -0.5175,0.135 -1.17,0.135 -0.675,0 -1.1925,-0.135 -1.6875,-0.4275 -2.745,-1.7775 -1.0575,-1.3725 -1.0575,-3.1275 z m 5.4,-4.41 q -0.1125,-0.0225 -0.36,-0.0225 -0.675,0 -1.2825,0.27 -1.26,0.63 -1.5075,2.4525 -0.045,0.405 -0.045,1.44 0,2.1375 0.4275,3.0375 0.72,1.3725 2.3625,1.3725 2.745,0 2.745,-3.6675 l 0,-0.72 q 0,-1.4625 -0.1125,-1.98 -0.3825,-1.7775 -2.2275,-2.1825 z"
       style="font-style:normal;font-variant:normal;font-weight:normal;font-stretch:normal;font-size:22.5px;line-height:125%;font-family:KaTeX_Main;-inkscape-font-specification:'KaTeX_Main, Normal';text-align:center;writing-mode:lr-tb;text-anchor:middle;fill:#000000"
       id="path4574" />
    <path
       d="m 376.97271,193.71422 q 0.18,0.315 1.0575,0.315 l 0.315,0 0.36,0 0,1.035 -0.18,0 q -0.2925,-0.0675 -2.52,-0.0675 -2.2275,0 -2.52,0.0675 l -0.18,0 0,-1.035 0.36,0 0.315,0 q 0.8775,0 1.0575,-0.315 l 0,-0.18 q 0,-0.2025 0,-0.5175 0,-0.315 0,-0.6975 0.0225,-0.405 0.0225,-0.8775 0,-0.495 0,-0.945 0,-0.6975 -0.0225,-1.485 0,-0.81 0,-1.3275 l 0,-0.5175 q -0.0675,-0.4275 -0.3375,-0.5625 -0.2475,-0.1575 -0.99,-0.2025 l -0.405,0 0,-0.5175 q 0,-0.5175 0.045,-0.5175 l 0.225,-0.0225 q 0.225,-0.0225 0.63,-0.045 0.4275,-0.0225 0.8325,-0.045 0.3825,-0.0225 0.81,-0.045 0.4275,-0.045 0.6525,-0.0675 0.225,-0.0225 0.2475,-0.0225 l 0.0675,0 0,0.9 q 0,0.855 0.0225,0.855 l 0.0225,-0.0225 q 1.215,-1.7325 3.4425,-1.7325 2.5875,0.09 2.8575,2.5425 0.0225,0.1575 0.0225,3.1275 0,2.88 0.0225,2.925 0.09,0.18 0.27,0.2475 0.4725,0.0675 1.1025,0.0675 l 0.36,0 0,1.035 -0.18,0 q -0.2925,-0.0675 -2.52,-0.0675 -2.2275,0 -2.52,0.0675 l -0.18,0 0,-1.035 0.36,0 0.18,0 q 1.1925,0 1.1925,-0.36 0.0225,-0.045 0.0225,-3.105 -0.0225,-3.0375 -0.045,-3.2175 -0.1575,-0.72 -0.5175,-1.035 -0.3375,-0.3375 -1.0575,-0.3375 -1.0125,0 -1.7775,0.765 -0.7875,0.7875 -0.9225,1.98 0,0.0225 0,0.4275 0,0.3825 -0.0225,0.99 0,0.6075 0,1.1475 0,0.3375 0,0.72 0,0.36 0,0.6525 0.0225,0.2925 0.0225,0.54 0,0.225 0,0.3825 l 0,0.135 z"
       style="font-style:normal;font-variant:normal;font-weight:normal;font-stretch:normal;font-size:22.5px;line-height:125%;font-family:KaTeX_Main;-inkscape-font-specification:'KaTeX_Main, Normal';text-align:center;writing-mode:lr-tb;text-anchor:middle;fill:#000000"
       id="path4576" />
    <path
       d="m 390.75712,185.11922 q 1.665,0 2.97,1.1025 l 0,-2.295 q 0,-2.34 -0.0225,-2.43 -0.0675,-0.4275 -0.3375,-0.5625 -0.2475,-0.1575 -0.99,-0.2025 l -0.405,0 0,-0.5175 q 0,-0.5175 0.045,-0.5175 l 0.225,-0.0225 q 0.225,-0.0225 0.6525,-0.045 0.4275,-0.0225 0.8325,-0.045 0.3825,-0.0225 0.8325,-0.045 0.45,-0.045 0.675,-0.0675 0.225,-0.0225 0.2475,-0.0225 l 0.0675,0 0,6.84 q 0,6.885 0.0225,6.9525 0.0675,0.45 0.315,0.6075 0.27,0.135 1.0125,0.18 l 0.405,0 0,1.035 q -0.045,0 -1.7325,0.1125 -1.665,0.1125 -1.755,0.135 l -0.1575,0 0,-1.2375 -0.18,0.1575 q -1.2825,1.08 -2.925,1.08 -1.575,0 -2.79,-1.0575 -1.395,-1.2375 -1.71,-3.24 -0.0225,-0.18 -0.0225,-0.7875 0,-2.1825 1.395,-3.645 1.395,-1.4625 3.33,-1.4625 z m 2.9025,2.25 q -1.0125,-1.4175 -2.5425,-1.4175 -1.1025,0 -1.9575,0.81 -0.5625,0.585 -0.765,1.3725 -0.18,0.7875 -0.18,2.1825 0,2.4975 0.945,3.42 0.6975,0.7425 1.755,0.7425 0.7875,0 1.5075,-0.4275 0.72,-0.4275 1.1475,-1.17 l 0.09,-0.135 0,-5.3775 z"
       style="font-style:normal;font-variant:normal;font-weight:normal;font-stretch:normal;font-size:22.5px;line-height:125%;font-family:KaTeX_Main;-inkscape-font-specification:'KaTeX_Main, Normal';text-align:center;writing-mode:lr-tb;text-anchor:middle;fill:#000000"
       id="path4578" />
    <path
       d="m 402.06653,185.74922 q -2.07,0 -2.07,1.4625 0,0.2925 0.045,0.3825 0.2025,0.54 0.6975,0.7875 0.495,0.225 1.53,0.4275 1.2825,0.225 1.755,0.495 1.4175,0.675 1.8225,2.2275 0.0225,0.135 0.0225,0.54 0,0.8775 -0.315,1.5525 -0.8775,1.665 -3.3075,1.665 -1.35,0 -2.34,-0.81 l -0.18,0.1575 -0.2025,0.2025 q -0.135,0.135 -0.27,0.2475 l -0.2475,0.225 -0.18,0 q -0.1575,0 -0.2925,-0.135 l 0,-1.7775 q 0,-1.4625 0,-1.6875 0.0225,-0.225 0.1125,-0.27 0.045,-0.0225 0.36,-0.0225 0.2925,0 0.3375,0.045 0.0675,0.045 0.135,0.315 0.18,0.855 0.585,1.5525 0.7875,1.1475 2.1825,1.1475 2.1825,0 2.1825,-1.755 0,-0.6525 -0.405,-1.0575 -0.36,-0.4275 -0.945,-0.6075 -0.3825,-0.09 -1.08,-0.2475 -1.26,-0.2475 -1.71,-0.4725 -1.485,-0.6975 -1.7325,-2.0925 -0.0225,-0.09 -0.0225,-0.3375 0,-2.5875 3.1725,-2.9025 0.09,-0.045 0.54,0 0.9,0 1.575,0.3375 l 0.3375,0.18 0.2025,-0.1575 q 0.2925,-0.2475 0.495,-0.3825 l 0.18,0 q 0.1575,0 0.2925,0.135 l 0,2.97 -0.135,0.135 -0.63,0 q -0.135,-0.135 -0.135,-0.27 0,-1.035 -0.63,-1.62 -0.63,-0.585 -1.7325,-0.585 z"
       style="font-style:normal;font-variant:normal;font-weight:normal;font-stretch:normal;font-size:22.5px;line-height:125%;font-family:KaTeX_Main;-inkscape-font-specification:'KaTeX_Main, Normal';text-align:center;writing-mode:lr-tb;text-anchor:middle;fill:#000000"
       id="path4580" />
    <path
       d="m 407.97454,178.21172 0.09,-0.0225 q 0.1125,0 0.225,0 l 0.27,0 q 0.1575,0.135 0.63,0.54 4.05,3.69 4.05,10.71 0,2.7675 -0.6525,4.995 -1.035,3.555 -3.3975,5.715 -0.1575,0.135 -0.36,0.2925 -0.2025,0.18 -0.27,0.2475 l -0.27,0 q -0.27,0 -0.36,-0.045 -0.0675,-0.045 -0.0675,-0.225 0.0225,-0.0225 0.2475,-0.2925 3.4875,-3.6225 3.4875,-10.6875 0,-7.065 -3.4875,-10.6875 -0.225,-0.27 -0.2475,-0.2925 0,-0.18 0.1125,-0.2475 z"
       style="font-style:normal;font-variant:normal;font-weight:normal;font-stretch:normal;font-size:22.5px;line-height:125%;font-family:KaTeX_Main;-inkscape-font-specification:'KaTeX_Main, Normal';text-align:center;writing-mode:lr-tb;text-anchor:middle;fill:#000000"
       id="path4582" />
  </g>
  <path
     class="domain"
     d="m 86.574902,336.02093 0.5,0 0,-288.000003 -0.5,0"
     id="path84"
     inkscape:connector-curvature="0"
     style="font-size:medium;font-family:sans-serif;text-anchor:end;fill:none;stroke:#000000" />
  <line
     style="font-size:medium;font-family:sans-serif;text-anchor:end;fill:none;stroke:#000000"
     y2="336.02094"
     y1="336.02094"
     x1="86.574905"
     id="line88"
     x2="80.574905" />
  <g
     style="font-style:normal;font-variant:normal;font-weight:normal;font-stretch:normal;font-size:12.5px;line-height:125%;font-family:KaTeX_Main;-inkscape-font-specification:'KaTeX_Main, Normal';text-align:center;writing-mode:lr-tb;text-anchor:middle;fill:#000000"
     id="text90">
    <path
       d="m 66.869289,337.32674 0,-0.9125 3.325,0 0,0.9125 -3.325,0 z"
       style="font-style:normal;font-variant:normal;font-weight:normal;font-stretch:normal;font-size:12.5px;line-height:125%;font-family:KaTeX_Main;-inkscape-font-specification:'KaTeX_Main, Normal';text-align:center;writing-mode:lr-tb;text-anchor:middle;fill:#000000"
       id="path4559" />
    <path
       d="m 76.681593,339.56424 q -0.175,-0.0375 -1.6125,-0.0375 -1.5,0 -1.675,0.0375 l -0.1125,0 0,-0.575 0.3875,0 q 0.5375,-0.0125 0.6625,-0.0625 0.1,-0.025 0.15,-0.125 0.0125,-0.025 0.0125,-0.675 l 0,-0.625 -3.2375,0 0,-0.575 1.8875,-2.8875 q 1.9125,-2.9 1.9375,-2.9125 0.025,-0.025 0.2625,-0.025 l 0.225,0 0.075,0.075 0,5.75 1.15,0 0,0.575 -1.15,0 0,0.6375 q 0,0.5125 0,0.6 0.0125,0.0875 0.075,0.15 0.1,0.0875 0.7125,0.1 l 0.3625,0 0,0.575 -0.1125,0 z m -2.1125,-2.6375 0,-4.175 -2.7375,4.1625 1.3625,0.0125 1.375,0 z"
       style="font-style:normal;font-variant:normal;font-weight:normal;font-stretch:normal;font-size:12.5px;line-height:125%;font-family:KaTeX_Main;-inkscape-font-specification:'KaTeX_Main, Normal';text-align:center;writing-mode:lr-tb;text-anchor:middle;fill:#000000"
       id="path4561" />
  </g>
  <line
     style="font-size:medium;font-family:sans-serif;text-anchor:end;fill:none"
     id="line92"
     y2="336.02094"
     x2="302.57489"
     y1="336.02094"
     x1="14.574903"
     class="grid" />
  <line
     style="font-size:medium;font-family:sans-serif;text-anchor:end;fill:none;stroke:#000000"
     y2="300.02094"
     y1="300.02094"
     x1="86.574905"
     id="line96"
     x2="80.574905" />
  <g
     style="font-style:normal;font-variant:normal;font-weight:normal;font-stretch:normal;font-size:12.5px;line-height:125%;font-family:KaTeX_Main;-inkscape-font-specification:'KaTeX_Main, Normal';text-align:center;writing-mode:lr-tb;text-anchor:middle;fill:#000000"
     id="text98">
    <path
       d="m 67.044292,301.32674 0,-0.9125 3.325,0 0,0.9125 -3.325,0 z"
       style="font-style:normal;font-variant:normal;font-weight:normal;font-stretch:normal;font-size:12.5px;line-height:125%;font-family:KaTeX_Main;-inkscape-font-specification:'KaTeX_Main, Normal';text-align:center;writing-mode:lr-tb;text-anchor:middle;fill:#000000"
       id="path4554" />
    <path
       d="m 72.669096,297.77674 q -0.3375,0 -0.5375,-0.2125 -0.1875,-0.2125 -0.1875,-0.55 0,-0.7125 0.5625,-1.1875 0.5625,-0.4875 1.3,-0.575 l 0.1875,0 q 0.4375,0 0.55,0.0125 0.4125,0.0625 0.8375,0.2625 0.825,0.4125 1.0375,1.175 0.0375,0.125 0.0375,0.3375 0,0.7375 -0.4625,1.325 -0.45,0.575 -1.1375,0.825 -0.0625,0.025 0,0.0375 0.025,0.0125 0.125,0.0375 0.7625,0.2125 1.2875,0.8 0.525,0.575 0.525,1.3125 0,0.5125 -0.2375,0.9875 -0.3,0.6375 -0.9875,1.0625 -0.675,0.4125 -1.5125,0.4125 -0.825,0 -1.4625,-0.35 -0.6375,-0.35 -0.8625,-0.9375 -0.125,-0.2625 -0.125,-0.6125 0,-0.35 0.225,-0.5625 0.2375,-0.225 0.5625,-0.225 0.35,0 0.575,0.225 0.225,0.225 0.225,0.5625 0,0.2875 -0.1625,0.5 -0.1625,0.2125 -0.4375,0.275 l -0.0875,0.025 q 0.675,0.5625 1.55,0.5625 0.6875,0 1.0375,-0.6625 0.2125,-0.4125 0.2125,-1.2625 l 0,-0.25 q 0,-1.1875 -0.8,-1.5875 -0.1875,-0.075 -0.7625,-0.0875 l -0.525,-0.0125 -0.0375,-0.025 q -0.025,-0.0375 -0.025,-0.2 0,-0.15 0.0375,-0.1875 0.0375,-0.0375 0.0625,-0.0375 0.35,0 0.725,-0.0625 0.55,-0.075 0.8375,-0.6125 0.2875,-0.55 0.2875,-1.3125 0,-0.8125 -0.4375,-1.0875 -0.2625,-0.175 -0.5875,-0.175 -0.625,0 -1.1,0.3375 -0.05,0.025 -0.1125,0.0875 -0.0625,0.05 -0.1,0.1 l -0.0375,0.05 q 0.0375,0.0125 0.0875,0.025 0.25,0.025 0.4125,0.2375 0.175,0.2125 0.175,0.4875 0,0.3 -0.2125,0.5125 -0.2,0.2 -0.525,0.2 z"
       style="font-style:normal;font-variant:normal;font-weight:normal;font-stretch:normal;font-size:12.5px;line-height:125%;font-family:KaTeX_Main;-inkscape-font-specification:'KaTeX_Main, Normal';text-align:center;writing-mode:lr-tb;text-anchor:middle;fill:#000000"
       id="path4556" />
  </g>
  <line
     style="font-size:medium;font-family:sans-serif;text-anchor:end;fill:none"
     id="line100"
     y2="300.02094"
     x2="302.57489"
     y1="300.02094"
     x1="14.574903"
     class="grid" />
  <line
     style="font-size:medium;font-family:sans-serif;text-anchor:end;fill:none;stroke:#000000"
     y2="264.02094"
     y1="264.02094"
     x1="86.574905"
     id="line104"
     x2="80.574905" />
  <g
     style="font-style:normal;font-variant:normal;font-weight:normal;font-stretch:normal;font-size:12.5px;line-height:125%;font-family:KaTeX_Main;-inkscape-font-specification:'KaTeX_Main, Normal';text-align:center;writing-mode:lr-tb;text-anchor:middle;fill:#000000"
     id="text106">
    <path
       d="m 67.14429,265.32674 0,-0.9125 3.325,0 0,0.9125 -3.325,0 z"
       style="font-style:normal;font-variant:normal;font-weight:normal;font-stretch:normal;font-size:12.5px;line-height:125%;font-family:KaTeX_Main;-inkscape-font-specification:'KaTeX_Main, Normal';text-align:center;writing-mode:lr-tb;text-anchor:middle;fill:#000000"
       id="path4549" />
    <path
       d="m 72.556595,262.20174 q -0.35,0 -0.55,-0.225 -0.2,-0.225 -0.2,-0.55 0,-0.9 0.675,-1.5375 0.6875,-0.65 1.6375,-0.65 1.075,0 1.775,0.5875 0.7125,0.575 0.875,1.5125 0.025,0.225 0.025,0.4125 0,0.725 -0.4375,1.3625 -0.35,0.525 -1.4125,1.4375 -0.45,0.3875 -1.25,1.15 l -0.7375,0.7 0.95,0.0125 q 1.9625,0 2.0875,-0.0625 0.05,-0.0125 0.125,-0.2625 0.05,-0.1375 0.175,-0.85 l 0,-0.0375 0.5,0 0,0.0375 -0.35,2.2875 0,0.0375 -4.6375,0 0,-0.2375 q 0,-0.25 0.025,-0.2875 0.0125,-0.0125 1.05,-1.1875 1.3625,-1.5125 1.75,-2 0.8375,-1.1375 0.8375,-2.0875 0,-0.825 -0.4375,-1.375 -0.425,-0.5625 -1.2,-0.5625 -0.725,0 -1.175,0.65 -0.025,0.05 -0.075,0.1375 -0.0375,0.0625 -0.0375,0.075 0,0.0125 0.0625,0.0125 0.3125,0 0.5,0.225 0.2,0.225 0.2,0.525 0,0.3125 -0.2125,0.5375 -0.2,0.2125 -0.5375,0.2125 z"
       style="font-style:normal;font-variant:normal;font-weight:normal;font-stretch:normal;font-size:12.5px;line-height:125%;font-family:KaTeX_Main;-inkscape-font-specification:'KaTeX_Main, Normal';text-align:center;writing-mode:lr-tb;text-anchor:middle;fill:#000000"
       id="path4551" />
  </g>
  <line
     style="font-size:medium;font-family:sans-serif;text-anchor:end;fill:none"
     id="line108"
     y2="264.02094"
     x2="302.57489"
     y1="264.02094"
     x1="14.574903"
     class="grid" />
  <line
     style="font-size:medium;font-family:sans-serif;text-anchor:end;fill:none;stroke:#000000"
     y2="228.02092"
     y1="228.02092"
     x1="86.574905"
     id="line112"
     x2="80.574905" />
  <g
     style="font-style:normal;font-variant:normal;font-weight:normal;font-stretch:normal;font-size:12.5px;line-height:125%;font-family:KaTeX_Main;-inkscape-font-specification:'KaTeX_Main, Normal';text-align:center;writing-mode:lr-tb;text-anchor:middle;fill:#000000"
     id="text114">
    <path
       d="m 67.419292,229.32672 0,-0.9125 3.325,0 0,0.9125 -3.325,0 z"
       style="font-style:normal;font-variant:normal;font-weight:normal;font-stretch:normal;font-size:12.5px;line-height:125%;font-family:KaTeX_Main;-inkscape-font-specification:'KaTeX_Main, Normal';text-align:center;writing-mode:lr-tb;text-anchor:middle;fill:#000000"
       id="path4544" />
    <path
       d="m 76.656596,231.56422 q -0.2125,-0.0375 -1.9875,-0.0375 -1.75,0 -1.9625,0.0375 l -0.15,0 0,-0.575 0.325,0 q 0.725,0 0.9375,-0.0375 0.1,-0.0125 0.3,-0.15 l 0,-6.4625 q -0.025,0 -0.1,0.0375 -0.575,0.225 -1.2875,0.2375 l -0.2375,0 0,-0.575 0.2375,0 q 1.05,-0.0375 1.75,-0.475 0.225,-0.125 0.3875,-0.2875 0.025,-0.0375 0.15,-0.0375 0.125,0 0.2125,0.075 l 0,3.7375 0.0125,3.75 q 0.1875,0.1875 0.8125,0.1875 l 0.4125,0 0.325,0 0,0.575 -0.1375,0 z"
       style="font-style:normal;font-variant:normal;font-weight:normal;font-stretch:normal;font-size:12.5px;line-height:125%;font-family:KaTeX_Main;-inkscape-font-specification:'KaTeX_Main, Normal';text-align:center;writing-mode:lr-tb;text-anchor:middle;fill:#000000"
       id="path4546" />
  </g>
  <line
     style="font-size:medium;font-family:sans-serif;text-anchor:end;fill:none"
     id="line116"
     y2="228.02092"
     x2="302.57489"
     y1="228.02092"
     x1="14.574903"
     class="grid" />
  <line
     style="font-size:medium;font-family:sans-serif;text-anchor:end;fill:none;stroke:#000000"
     y2="192.02092"
     y1="192.02092"
     x1="86.574905"
     id="line120"
     x2="80.574905" />
  <line
     style="font-size:medium;font-family:sans-serif;text-anchor:end;fill:none"
     id="line122"
     y2="192.02092"
     x2="302.57489"
     y1="192.02092"
     x1="14.574903"
     class="grid" />
  <line
     style="font-size:medium;font-family:sans-serif;text-anchor:end;fill:none;stroke:#000000"
     y2="156.02092"
     y1="156.02092"
     x1="86.574905"
     id="line126"
     x2="80.574905" />
  <g
     style="font-style:normal;font-variant:normal;font-weight:normal;font-stretch:normal;font-size:12.5px;line-height:125%;font-family:KaTeX_Main;-inkscape-font-specification:'KaTeX_Main, Normal';text-align:center;writing-mode:lr-tb;text-anchor:middle;fill:#000000"
     id="text128">
    <path
       d="m 76.656604,159.56422 q -0.2125,-0.0375 -1.9875,-0.0375 -1.75,0 -1.9625,0.0375 l -0.15,0 0,-0.575 0.325,0 q 0.725,0 0.9375,-0.0375 0.1,-0.0125 0.3,-0.15 l 0,-6.4625 q -0.025,0 -0.1,0.0375 -0.575,0.225 -1.2875,0.2375 l -0.2375,0 0,-0.575 0.2375,0 q 1.05,-0.0375 1.75,-0.475 0.225,-0.125 0.3875,-0.2875 0.025,-0.0375 0.15,-0.0375 0.125,0 0.2125,0.075 l 0,3.7375 0.0125,3.75 q 0.1875,0.1875 0.8125,0.1875 l 0.4125,0 0.325,0 0,0.575 -0.1375,0 z"
       style="font-style:normal;font-variant:normal;font-weight:normal;font-stretch:normal;font-size:12.5px;line-height:125%;font-family:KaTeX_Main;-inkscape-font-specification:'KaTeX_Main, Normal';text-align:center;writing-mode:lr-tb;text-anchor:middle;fill:#000000"
       id="path4541" />
  </g>
  <line
     style="font-size:medium;font-family:sans-serif;text-anchor:end;fill:none"
     id="line130"
     y2="156.02092"
     x2="302.57489"
     y1="156.02092"
     x1="14.574903"
     class="grid" />
  <line
     style="font-size:medium;font-family:sans-serif;text-anchor:end;fill:none;stroke:#000000"
     y2="120.02093"
     y1="120.02093"
     x1="86.574905"
     id="line134"
     x2="80.574905" />
  <g
     style="font-style:normal;font-variant:normal;font-weight:normal;font-stretch:normal;font-size:12.5px;line-height:125%;font-family:KaTeX_Main;-inkscape-font-specification:'KaTeX_Main, Normal';text-align:center;writing-mode:lr-tb;text-anchor:middle;fill:#000000"
     id="text136">
    <path
       d="m 72.556602,118.20172 q -0.35,0 -0.55,-0.225 -0.2,-0.225 -0.2,-0.55 0,-0.9 0.675,-1.5375 0.6875,-0.65 1.6375,-0.65 1.075,0 1.775,0.5875 0.7125,0.575 0.875,1.5125 0.025,0.225 0.025,0.4125 0,0.725 -0.4375,1.3625 -0.35,0.525 -1.4125,1.4375 -0.45,0.3875 -1.25,1.15 l -0.7375,0.7 0.95,0.0125 q 1.9625,0 2.0875,-0.0625 0.05,-0.0125 0.125,-0.2625 0.05,-0.1375 0.175,-0.85 l 0,-0.0375 0.5,0 0,0.0375 -0.35,2.2875 0,0.0375 -4.6375,0 0,-0.2375 q 0,-0.25 0.025,-0.2875 0.0125,-0.0125 1.05,-1.1875 1.3625,-1.5125 1.75,-2 0.8375,-1.1375 0.8375,-2.0875 0,-0.825 -0.4375,-1.375 -0.425,-0.5625 -1.2,-0.5625 -0.725,0 -1.175,0.65 -0.025,0.05 -0.075,0.1375 -0.0375,0.0625 -0.0375,0.075 0,0.0125 0.0625,0.0125 0.3125,0 0.5,0.225 0.2,0.225 0.2,0.525 0,0.3125 -0.2125,0.5375 -0.2,0.2125 -0.5375,0.2125 z"
       style="font-style:normal;font-variant:normal;font-weight:normal;font-stretch:normal;font-size:12.5px;line-height:125%;font-family:KaTeX_Main;-inkscape-font-specification:'KaTeX_Main, Normal';text-align:center;writing-mode:lr-tb;text-anchor:middle;fill:#000000"
       id="path4538" />
  </g>
  <line
     style="font-size:medium;font-family:sans-serif;text-anchor:end;fill:none"
     id="line138"
     y2="120.02093"
     x2="302.57489"
     y1="120.02093"
     x1="14.574903"
     class="grid" />
  <line
     style="font-size:medium;font-family:sans-serif;text-anchor:end;fill:none;stroke:#000000"
     y2="84.020927"
     y1="84.020927"
     x1="86.574905"
     id="line142"
     x2="80.574905" />
  <g
     style="font-style:normal;font-variant:normal;font-weight:normal;font-stretch:normal;font-size:12.5px;line-height:125%;font-family:KaTeX_Main;-inkscape-font-specification:'KaTeX_Main, Normal';text-align:center;writing-mode:lr-tb;text-anchor:middle;fill:#000000"
     id="text144">
    <path
       d="m 72.669104,81.776732 q -0.3375,0 -0.5375,-0.2125 -0.1875,-0.2125 -0.1875,-0.55 0,-0.7125 0.5625,-1.1875 0.5625,-0.4875 1.3,-0.575 l 0.1875,0 q 0.4375,0 0.55,0.0125 0.4125,0.0625 0.8375,0.2625 0.825,0.4125 1.0375,1.175 0.0375,0.125 0.0375,0.3375 0,0.7375 -0.4625,1.325 -0.45,0.575 -1.1375,0.825 -0.0625,0.025 0,0.0375 0.025,0.0125 0.125,0.0375 0.7625,0.2125 1.2875,0.8 0.525,0.575 0.525,1.3125 0,0.5125 -0.2375,0.9875 -0.3,0.6375 -0.9875,1.0625 -0.675,0.4125 -1.5125,0.4125 -0.825,0 -1.4625,-0.35 -0.6375,-0.35 -0.8625,-0.9375 -0.125,-0.2625 -0.125,-0.6125 0,-0.35 0.225,-0.5625 0.2375,-0.225 0.5625,-0.225 0.35,0 0.575,0.225 0.225,0.225 0.225,0.5625 0,0.2875 -0.1625,0.5 -0.1625,0.2125 -0.4375,0.275 l -0.0875,0.025 q 0.675,0.5625 1.55,0.5625 0.6875,0 1.0375,-0.6625 0.2125,-0.4125 0.2125,-1.2625 l 0,-0.25 q 0,-1.1875 -0.8,-1.5875 -0.1875,-0.075 -0.7625,-0.0875 l -0.525,-0.0125 -0.0375,-0.025 q -0.025,-0.0375 -0.025,-0.2 0,-0.15 0.0375,-0.1875 0.0375,-0.0375 0.0625,-0.0375 0.35,0 0.725,-0.0625 0.55,-0.075 0.8375,-0.6125 0.2875,-0.55 0.2875,-1.3125 0,-0.8125 -0.4375,-1.0875 -0.2625,-0.175 -0.5875,-0.175 -0.625,0 -1.1,0.3375 -0.05,0.025 -0.1125,0.0875 -0.0625,0.05 -0.1,0.1 l -0.0375,0.05 q 0.0375,0.0125 0.0875,0.025 0.25,0.025 0.4125,0.2375 0.175,0.2125 0.175,0.4875 0,0.3 -0.2125,0.5125 -0.2,0.2 -0.525,0.2 z"
       style="font-style:normal;font-variant:normal;font-weight:normal;font-stretch:normal;font-size:12.5px;line-height:125%;font-family:KaTeX_Main;-inkscape-font-specification:'KaTeX_Main, Normal';text-align:center;writing-mode:lr-tb;text-anchor:middle;fill:#000000"
       id="path4535" />
  </g>
  <line
     style="font-size:medium;font-family:sans-serif;text-anchor:end;fill:none"
     id="line146"
     y2="84.020927"
     x2="302.57489"
     y1="84.020927"
     x1="14.574903"
     class="grid" />
  <line
     style="font-size:medium;font-family:sans-serif;text-anchor:end;fill:none;stroke:#000000"
     y2="48.020927"
     y1="48.020927"
     x1="86.574905"
     id="line150"
     x2="80.574905" />
  <g
     style="font-style:normal;font-variant:normal;font-weight:normal;font-stretch:normal;font-size:12.5px;line-height:125%;font-family:KaTeX_Main;-inkscape-font-specification:'KaTeX_Main, Normal';text-align:center;writing-mode:lr-tb;text-anchor:middle;fill:#000000"
     id="text152">
    <path
       d="m 76.681601,51.564236 q -0.175,-0.0375 -1.6125,-0.0375 -1.5,0 -1.675,0.0375 l -0.1125,0 0,-0.575 0.3875,0 q 0.5375,-0.0125 0.6625,-0.0625 0.1,-0.025 0.15,-0.125 0.0125,-0.025 0.0125,-0.675 l 0,-0.625 -3.2375,0 0,-0.575 1.8875,-2.8875 q 1.9125,-2.9 1.9375,-2.9125 0.025,-0.025 0.2625,-0.025 l 0.225,0 0.075,0.075 0,5.75 1.15,0 0,0.575 -1.15,0 0,0.6375 q 0,0.5125 0,0.6 0.0125,0.0875 0.075,0.15 0.1,0.0875 0.7125,0.1 l 0.3625,0 0,0.575 -0.1125,0 z m -2.1125,-2.6375 0,-4.175 -2.7375,4.1625 1.3625,0.0125 1.375,0 z"
       style="font-style:normal;font-variant:normal;font-weight:normal;font-stretch:normal;font-size:12.5px;line-height:125%;font-family:KaTeX_Main;-inkscape-font-specification:'KaTeX_Main, Normal';text-align:center;writing-mode:lr-tb;text-anchor:middle;fill:#000000"
       id="path4532" />
  </g>
  <line
     style="font-size:medium;font-family:sans-serif;text-anchor:end;fill:none"
     id="line154"
     y2="48.020927"
     x2="302.57489"
     y1="48.020927"
     x1="14.574903"
     class="grid" />
  <path
     inkscape:connector-curvature="0"
     id="path158"
     style="fill:none;stroke:#d6d8da;stroke-width:3px;stroke-linecap:round"
     d="m 86.574902,11.520927 2.16,10.482384 2.16,9.871937 2.16,9.297041 2.16,8.755623 2.16,8.245735 2.16,7.765541 2.159998,7.313311 2.16,6.887417 2.16,6.486326 2.16,6.108591 2.16,5.752854 2.16,5.417833 2.16,5.10233 2.16,4.80519 2.16,4.52535 2.16,4.26182 2.16,4.01363 2.16,3.7799 2.16,3.55977 2.16,3.35246 2.16,3.15723 2.16,2.97338 2.16,2.80021 2.16,2.63714 2.16,2.48357 2.16,2.33894 2.16,2.20272 2.16,2.07445 2.16,1.95365 2.16,1.83987 2.16,1.73273 2.16,1.63182 2.16,1.53679 2.16,1.44729 2.16,1.36301 2.16,1.28364 2.16,1.20888 2.16,1.13848 2.16,1.07219 2.16,1.00974 2.16,0.95094 2.16,0.89556 2.16,0.84341 2.16,0.79429 2.16,0.74804 2.16,0.70447 2.16,0.66345 2.16,0.62481 2.16,0.58843 2.16,0.55416 2.16,0.52188 2.16,0.4915 2.16,0.46287 2.16,0.43592 2.16,0.41053 2.16,0.38662 2.16,0.36411 2.16,0.34291 2.16,0.32293 2.16,0.30413 2.16,0.28642 2.16,0.26974 2.16,0.25403 2.16,0.23923 2.16,0.22531 2.16,0.21218 2.16,0.19983 2.16,0.18819 2.16,0.17723 2.16,0.16691 2.16,0.15719 2.16,0.14803 2.16,0.13942 2.16,0.13129 2.16,0.12365 2.16,0.11645 2.16,0.10967 2.16,0.10328 2.16,0.0973 2.16,0.0916 2.16,0.0863 2.16,0.0813 2.16,0.0765 2.16,0.0721 2.16,0.0679 2.16,0.0639 2.16,0.0602 2.16,0.0567 2.16,0.0534 2.16,0.0503 2.16,0.0473 2.16,0.0446 2.16,0.042 2.16,0.0395 2.16,0.0373 2.16,0.0351 2.16,0.033 2.16,0.0311 2.16,0.0293 2.16,0.0276"
     class="path" />
  <path
     inkscape:connector-curvature="0"
     id="path160"
     style="fill:none;stroke:#d6d8da;stroke-width:3px;stroke-linecap:round"
     d="m 86.574902,371.52093 2.16,-10.48238 2.16,-9.87194 2.16,-9.29704 2.16,-8.75563 2.16,-8.24573 2.16,-7.76554 2.159998,-7.31331 2.16,-6.88742 2.16,-6.48632 2.16,-6.1086 2.16,-5.75285 2.16,-5.41783 2.16,-5.10233 2.16,-4.80519 2.16,-4.52535 2.16,-4.26182 2.16,-4.01363 2.16,-3.7799 2.16,-3.55977 2.16,-3.35246 2.16,-3.15724 2.16,-2.97337 2.16,-2.80021 2.16,-2.63714 2.16,-2.48357 2.16,-2.33894 2.16,-2.20272 2.16,-2.07445 2.16,-1.95365 2.16,-1.83987 2.16,-1.73273 2.16,-1.63182 2.16,-1.53679 2.16,-1.44729 2.16,-1.36301 2.16,-1.28364 2.16,-1.20888 2.16,-1.13848 2.16,-1.07219 2.16,-1.00974 2.16,-0.95094 2.16,-0.89556 2.16,-0.84341 2.16,-0.79429 2.16,-0.74804 2.16,-0.70447 2.16,-0.66345 2.16,-0.62481 2.16,-0.58843 2.16,-0.55416 2.16,-0.52188 2.16,-0.4915 2.16,-0.46287 2.16,-0.43592 2.16,-0.41053 2.16,-0.38662 2.16,-0.36411 2.16,-0.34291 2.16,-0.32293 2.16,-0.30413 2.16,-0.28642 2.16,-0.26974 2.16,-0.25403 2.16,-0.23923 2.16,-0.22531 2.16,-0.21218 2.16,-0.19983 2.16,-0.18819 2.16,-0.17723 2.16,-0.16691 2.16,-0.15719 2.16,-0.14803 2.16,-0.13942 2.16,-0.13129 2.16,-0.12365 2.16,-0.11645 2.16,-0.10967 2.16,-0.10328 2.16,-0.0973 2.16,-0.0916 2.16,-0.0863 2.16,-0.0813 2.16,-0.0765 2.16,-0.0721 2.16,-0.0679 2.16,-0.0639 2.16,-0.0602 2.16,-0.0567 2.16,-0.0534 2.16,-0.0503 2.16,-0.0473 2.16,-0.0446 2.16,-0.042 2.16,-0.0395 2.16,-0.0373 2.16,-0.0351 2.16,-0.033 2.16,-0.0311 2.16,-0.0293 2.16,-0.0276"
     class="path" />
  <path
     inkscape:connector-curvature="0"
     id="path162"
     style="fill:none;stroke:#11accd;stroke-width:3px;stroke-linecap:round"
     d="m 86.574902,191.52093 2.16,-20.29333 2.16,-17.65487 2.16,-15.01575 2.16,-12.42076 2.16,-9.90883 2.16,-7.51313 2.159998,-5.2611 2.16,-3.17462 2.16,-1.2703 2.16,0.440186 2.16,1.949794 2.16,3.25568 2.16,4.35876 2.16,5.26327 2.16,5.97636 2.16,6.5076 2.16,6.86855 2.16,7.07235 2.16,7.13333 2.16,7.0666 2.16,6.88773 2.16,6.61243 2.16,6.25628 2.16,5.83443 2.16,5.36148 2.16,4.85119 2.16,4.31646 2.16,3.76908 2.16,3.21976 2.16,2.67803 2.16,2.15221 2.16,1.64939 2.16,1.17549 2.16,0.73527 2.16,0.33239 2.16,-0.0306 2.16,-0.35198 2.16,-0.63107 2.16,-0.86791 2.16,-1.06328 2.16,-1.21854 2.16,-1.33561 2.16,-1.41683 2.16,-1.46485 2.16,-1.48264 2.16,-1.47332 2.16,-1.44008 2.16,-1.38622 2.16,-1.31497 2.16,-1.22951 2.16,-1.13289 2.16,-1.028 2.16,-0.91756 2.16,-0.80409 2.16,-0.6898 2.16,-0.57678 2.16,-0.46675 2.16,-0.36127 2.16,-0.2616 2.16,-0.16876 2.16,-0.0836 2.16,-0.007 2.16,0.0618 2.16,0.1214 2.16,0.1722 2.16,0.21435 2.16,0.24811 2.16,0.27383 2.16,0.29201 2.16,0.3032 2.16,0.30798 2.16,0.30701 2.16,0.30094 2.16,0.29047 2.16,0.27626 2.16,0.25898 2.16,0.23926 2.16,0.21772 2.16,0.19494 2.16,0.17142 2.16,0.14766 2.16,0.1241 2.16,0.10108 2.16,0.079 2.16,0.058 2.16,0.0384 2.16,0.0204 2.16,0.004 2.16,-0.0104 2.16,-0.0231 2.16,-0.034 2.16,-0.0431 2.16,-0.0504 2.16,-0.0561 2.16,-0.0601 2.16,-0.0627 2.16,-0.0639 2.16,-0.0639 2.16,-0.0629 2.16,-0.0608"
     class="path" />
  <line
     id="line164"
     style="stroke:#11accd;stroke-width:3px"
     y2="191.52092"
     x2="86.574905"
     y1="191.52092"
     x1="12.574903" />
  <g
     style="font-style:normal;font-variant:normal;font-weight:normal;font-stretch:normal;font-size:12.5px;line-height:125%;font-family:KaTeX_Main;-inkscape-font-specification:'KaTeX_Main, Normal';text-align:center;writing-mode:lr-tb;text-anchor:middle;fill:#000000"
     id="text156">
    <path
       d="m 34.690652,24.477619 q 0,-0.5175 0.4275,-0.945 0.4275,-0.4275 0.99,-0.4275 0.405,0 0.675,0.27 0.2925,0.27 0.2925,0.675 0,0.495 -0.45,0.945 -0.45,0.45 -0.99,0.45 -0.405,0 -0.675,-0.27 -0.27,-0.27 -0.27,-0.6975 z m -0.5175,13.7475 q -0.8775,0 -1.4175,-0.5175 -0.54,-0.5175 -0.54,-1.395 0,-0.3825 0.045,-0.5175 0,-0.045 1.035,-2.7675 1.035,-2.745 1.035,-2.79 0.1125,-0.36 0.1125,-0.81 0,-0.54 -0.3825,-0.54 l -0.045,0 q -0.54,0 -1.035,0.5175 -0.72,0.7425 -1.0575,2.115 0,0.0225 -0.0225,0.09 -0.0225,0.045 -0.045,0.0675 0,0 -0.0225,0.0225 -0.0225,0.0225 -0.09,0.0225 -0.045,0 -0.09,0 -0.045,0 -0.18,0 l -0.315,0 q -0.135,-0.135 -0.135,-0.2025 0,-0.0675 0.0675,-0.315 0.585,-1.935 1.71,-2.7 0.6075,-0.4725 1.305,-0.4725 0.9,0 1.485,0.5175 0.585,0.5175 0.585,1.395 0,0.2925 -0.1125,0.675 -0.0225,0.045 -1.035,2.7675 l -1.0125,2.7225 q -0.1125,0.495 -0.1125,0.72 0,0.5625 0.3825,0.5625 0.315,0 0.5625,-0.135 0.99,-0.4725 1.5525,-2.3625 0.0675,-0.27 0.1125,-0.315 0.0675,-0.045 0.3825,-0.045 0.2025,0 0.27,0.0225 0.09,0 0.135,0.045 0.045,0.045 0.045,0.1575 0,0.09 -0.0675,0.2925 -0.4275,1.2825 -1.2375,2.2275 -0.7875,0.945 -1.8675,0.945 z"
       style="font-style:normal;font-variant:normal;font-weight:normal;font-stretch:normal;font-size:22.5px;line-height:125%;font-family:KaTeX_Math;-inkscape-font-specification:'KaTeX_Math, Normal';text-align:center;writing-mode:lr-tb;text-anchor:middle"
       id="path4511" />
    <path
       d="m 51.446472,43.400119 q 0,0.2025 -0.405,0.2025 l -0.2925,0 q -0.1575,-0.135 -0.63,-0.54 -4.05,-3.69 -4.05,-10.71 0,-2.745 0.6525,-5.0175 1.035,-3.5325 3.3975,-5.6925 0.1575,-0.135 0.36,-0.2925 0.2025,-0.18 0.27,-0.2475 l 0.2925,0 q 0.27,0 0.3375,0.0675 0.0675,0.0675 0.0675,0.135 0,0.09 -0.2475,0.3375 -3.4875,3.69 -3.4875,10.71 0,7.02 3.4875,10.71 0.2475,0.2475 0.2475,0.3375 z"
       style="font-style:normal;font-variant:normal;font-weight:normal;font-stretch:normal;font-size:22.5px;line-height:125%;font-family:KaTeX_Main;-inkscape-font-specification:'KaTeX_Main, Normal';text-align:center;writing-mode:lr-tb;text-anchor:middle"
       id="path4513" />
    <path
       d="m 56.164089,30.755119 q -0.3375,0.36 -0.855,0.36 -0.5175,0 -0.855,-0.36 -0.3375,-0.36 -0.3375,-0.855 0,-0.315 0.18,-0.72 0.2925,-0.6075 1.17,-0.945 0.8775,-0.3375 2.1375,-0.3375 1.485,0 2.565,0.675 1.1025,0.675 1.44,1.755 0.1125,0.315 0.1125,0.72 0.0225,0.3825 0.0225,2.565 0,2.205 0,2.5875 0.0225,0.36 0.135,0.5625 0.135,0.315 0.45,0.315 0.2925,0 0.4275,-0.315 0.135,-0.27 0.135,-1.2375 l 0,-0.81 0.9,0 0,0.8775 q -0.0225,0.9 -0.0675,1.0575 -0.2025,0.63 -0.7425,1.0575 -0.54,0.405 -1.2825,0.405 -0.5625,0 -1.0125,-0.3825 -0.4275,-0.405 -0.585,-0.9675 l 0,-0.09 q -0.0675,0.0675 -0.27,0.315 -0.2025,0.225 -0.2925,0.315 -1.1025,0.9225 -2.565,0.9225 -1.17,0 -2.0925,-0.495 -0.9225,-0.495 -1.2375,-1.305 -0.18,-0.4275 -0.18,-0.855 0,-1.0575 0.8775,-1.935 0.5175,-0.5175 1.2825,-0.855 1.53,-0.6975 3.915,-0.8325 l 0.315,0 0,-0.495 q 0,-0.765 -0.135,-1.125 -0.225,-0.7425 -0.7875,-1.17 -0.5625,-0.4275 -1.395,-0.4275 -1.5075,0 -1.5075,0.18 0.495,0.3375 0.495,0.99 0,0.495 -0.36,0.855 z m 3.69,3.285 q 0,-1.305 -0.0225,-1.305 -0.0675,0 -0.1125,0.0225 -3.0825,0.2025 -3.9375,1.8225 -0.2475,0.45 -0.2475,1.0125 0,0.765 0.54,1.2825 0.54,0.5175 1.3275,0.5175 0.9,0 1.53,-0.54 0.6525,-0.54 0.855,-1.3275 0.045,-0.1575 0.0675,-1.485 z"
       style="font-style:normal;font-variant:normal;font-weight:normal;font-stretch:normal;font-size:22.5px;line-height:125%;font-family:KaTeX_Main;-inkscape-font-specification:'KaTeX_Main, Normal';text-align:center;writing-mode:lr-tb;text-anchor:middle"
       id="path4515" />
    <path
       d="m 68.179089,36.627619 q 0.18,0.315 1.0575,0.315 l 0.315,0 0.36,0 0,1.035 -0.18,0 q -0.2925,-0.0675 -2.52,-0.0675 -2.2275,0 -2.52,0.0675 l -0.18,0 0,-1.035 0.36,0 0.315,0 q 0.8775,0 1.0575,-0.315 l 0,-0.18 q 0,-0.2025 0,-0.5175 0,-0.315 0,-0.6975 0.0225,-0.405 0.0225,-0.8775 0,-0.495 0,-0.945 0,-0.6975 -0.0225,-1.485 0,-0.81 0,-1.3275 l 0,-0.5175 q -0.0675,-0.4275 -0.3375,-0.5625 -0.2475,-0.1575 -0.99,-0.2025 l -0.405,0 0,-0.5175 q 0,-0.5175 0.045,-0.5175 l 0.225,-0.0225 q 0.225,-0.0225 0.63,-0.045 0.4275,-0.0225 0.8325,-0.045 0.3825,-0.0225 0.81,-0.045 0.4275,-0.045 0.6525,-0.0675 0.225,-0.0225 0.2475,-0.0225 l 0.0675,0 0,0.9 q 0,0.855 0.0225,0.855 l 0.0225,-0.0225 q 1.215,-1.7325 3.4425,-1.7325 2.1825,0.0675 2.6775,1.71 l 0.045,0.1125 q 0.54,-0.675 0.6075,-0.7425 1.1475,-1.08 2.6775,-1.08 2.8125,0 3.0825,2.5425 0.0225,0.1575 0.0225,3.1275 0,2.88 0.0225,2.925 0.09,0.18 0.27,0.2475 0.4725,0.0675 1.1025,0.0675 l 0.36,0 0,1.035 -0.18,0 q -0.2925,-0.0675 -2.52,-0.0675 -2.2275,0 -2.52,0.0675 l -0.18,0 0,-1.035 0.36,0 0.18,0 q 1.1925,0 1.1925,-0.36 0.0225,-0.045 0.0225,-3.105 -0.0225,-3.0375 -0.045,-3.2175 -0.1575,-0.72 -0.5175,-1.035 -0.3375,-0.3375 -1.0575,-0.3375 -1.0125,0 -1.7775,0.765 -0.7875,0.7875 -0.9225,1.98 0,0.0225 -0.0225,0.4275 0,0.3825 0,0.99 0,0.6075 0,1.1475 0,0.3375 0,0.72 0,0.36 0,0.6525 0,0.2925 0,0.54 0.0225,0.225 0.0225,0.3825 l 0,0.135 q 0.18,0.315 1.0575,0.315 l 0.315,0 0.36,0 0,1.035 -0.18,0 q -0.2925,-0.0675 -2.52,-0.0675 -2.2275,0 -2.52,0.0675 l -0.18,0 0,-1.035 0.36,0 0.18,0 q 1.1925,0 1.1925,-0.36 0.0225,-0.045 0.0225,-3.105 -0.0225,-3.0375 -0.045,-3.2175 -0.1575,-0.72 -0.5175,-1.035 -0.3375,-0.3375 -1.0575,-0.3375 -1.0125,0 -1.7775,0.765 -0.7875,0.7875 -0.9225,1.98 0,0.0225 0,0.4275 0,0.3825 -0.0225,0.99 0,0.6075 0,1.1475 0,0.3375 0,0.72 0,0.36 0,0.6525 0.0225,0.2925 0.0225,0.54 0,0.225 0,0.3825 l 0,0.135 z"
       style="font-style:normal;font-variant:normal;font-weight:normal;font-stretch:normal;font-size:22.5px;line-height:125%;font-family:KaTeX_Main;-inkscape-font-specification:'KaTeX_Main, Normal';text-align:center;writing-mode:lr-tb;text-anchor:middle"
       id="path4517" />
    <path
       d="m 83.523737,41.307619 0.315,0 q 0.8775,0 1.0575,-0.315 l 0,-0.18 q 0,-0.1575 0,-0.45 0,-0.27 0,-0.6525 0.0225,-0.3825 0.0225,-0.8775 0,-0.495 0,-0.99 0,-0.5175 0,-1.1025 0,-0.6075 0,-1.1475 0,-0.765 0,-1.5975 0,-0.8325 0,-1.485 0,-0.6525 -0.0225,-1.1925 0,-0.5625 0,-0.8775 0,-0.3375 0,-0.36 -0.0675,-0.4275 -0.3375,-0.5625 -0.2475,-0.1575 -0.99,-0.2025 l -0.405,0 0,-0.5175 q 0,-0.5175 0.045,-0.5175 l 0.225,-0.0225 q 0.225,-0.0225 0.6525,-0.045 0.4275,-0.0225 0.8325,-0.045 0.3825,-0.0225 0.8325,-0.045 0.45,-0.045 0.675,-0.0675 0.225,-0.0225 0.2475,-0.0225 l 0.0675,0 0,0.585 0.0225,0.585 0.18,-0.1575 q 1.3725,-0.99 3.105,-0.99 0.495,0 0.72,0.045 1.575,0.315 2.6325,1.6875 1.0575,1.3725 1.0575,3.33 0,0.4275 -0.045,0.7875 -0.225,1.4625 -1.1025,2.52 -0.855,1.0575 -2.2275,1.575 -0.675,0.225 -1.395,0.225 -1.53,0 -2.7,-0.99 l -0.18,-0.1575 0,1.9125 q 0,1.9575 0.0225,2.0025 0.09,0.18 0.27,0.2475 0.4725,0.0675 1.1025,0.0675 l 0.36,0 0,1.035 -0.18,0 q -0.2925,-0.0675 -2.52,-0.0675 -2.2275,0 -2.52,0.0675 l -0.18,0 0,-1.035 0.36,0 z m 8.73,-8.235 q 0,-1.5525 -0.6975,-2.745 -0.675,-1.1925 -1.665,-1.3725 -0.045,0 -0.1575,0 -0.09,-0.0225 -0.1575,-0.0225 -1.5975,0 -2.7675,1.4625 l 0,5.3775 q 0.9225,1.62 2.52,1.62 0.945,0 1.71,-0.8325 1.215,-1.26 1.215,-3.4875 z"
       style="font-style:normal;font-variant:normal;font-weight:normal;font-stretch:normal;font-size:22.5px;line-height:125%;font-family:KaTeX_Main;-inkscape-font-specification:'KaTeX_Main, Normal';text-align:center;writing-mode:lr-tb;text-anchor:middle"
       id="path4519" />
    <path
       d="m 104.53171,32.465119 q 0,0.1575 -0.1575,0.315 l -6.345004,0 0,0.3375 q 0,1.665 0.45,2.52 0.81,1.665 2.790004,1.665 0.9675,0 1.62,-0.72 0.45,-0.45 0.6975,-1.17 0.0675,-0.2475 0.135,-0.315 0.0675,-0.0675 0.36,-0.0675 0.45,0 0.45,0.225 0,0.09 -0.0675,0.2925 -0.4275,1.17 -1.3725,1.935 -0.9225,0.7425 -2.2725,0.7425 -0.4275,0 -0.990004,-0.1125 -1.2825,-0.2475 -2.295,-1.17 -1.0125,-0.9225 -1.44,-2.2275 -0.27,-0.81 -0.27,-1.6425 0,-2.07 1.215,-3.4875 1.215,-1.44 2.992504,-1.665 0.09,-0.0225 0.315,-0.0225 2.0475,0 3.105,1.215 1.08,1.1925 1.08,3.3525 z m -1.845,-0.675 q -0.2025,-2.4525 -1.665,-2.97 -0.1575,-0.0675 -0.4725,-0.09 -1.170004,0 -1.912504,1.08 -0.45,0.72 -0.585,2.0025 l 0,0.1575 4.635004,0 0,-0.18 z"
       style="font-style:normal;font-variant:normal;font-weight:normal;font-stretch:normal;font-size:22.5px;line-height:125%;font-family:KaTeX_Main;-inkscape-font-specification:'KaTeX_Main, Normal';text-align:center;writing-mode:lr-tb;text-anchor:middle"
       id="path4521" />
    <path
       d="m 105.97979,36.942619 0.315,0 q 0.8775,0 1.0575,-0.315 l 0,-0.18 q 0,-0.2025 0,-0.5175 0.0225,-0.315 0.0225,-0.6975 0,-0.405 0,-0.8775 0,-0.495 0,-0.945 0,-0.6975 0,-1.485 0,-0.81 0,-1.3275 l -0.0225,-0.5175 q -0.0675,-0.4275 -0.3375,-0.5625 -0.2475,-0.1575 -0.99,-0.2025 l -0.405,0 0,-0.5175 q 0,-0.5175 0.045,-0.5175 l 0.225,-0.0225 q 0.225,-0.0225 0.63,-0.045 0.405,-0.0225 0.81,-0.045 0.36,-0.0225 0.7875,-0.045 0.4275,-0.045 0.6525,-0.0675 0.225,-0.0225 0.2475,-0.0225 l 0.0675,0 0,1.5525 q 0.4275,-0.72 0.945,-1.125 0.5175,-0.405 1.3725,-0.405 0.63,0 1.08,0.2475 0.8775,0.45 0.8775,1.2825 0,0.495 -0.3375,0.8325 -0.3375,0.315 -0.81,0.315 -0.4725,0 -0.81,-0.315 -0.315,-0.315 -0.315,-0.81 0,-0.3825 0.18,-0.63 0.045,-0.09 0.045,-0.1125 -0.045,-0.045 -0.5175,0.09 -0.36,0.18 -0.54,0.3375 -0.9,0.855 -1.035,2.835 l 0,0.8775 q -0.0225,0.8775 -0.0225,1.5075 0,0.2925 0,0.63 0,0.315 0,0.5625 0.0225,0.2475 0.0225,0.45 0,0.2025 0,0.3375 l 0,0.1125 q 0.09,0.18 0.27,0.225 0.225,0.09 1.1925,0.1125 l 0.6975,0 0,1.035 -0.2025,0 q -0.405,-0.0675 -2.8575,-0.0675 -2.205,0 -2.52,0.0675 l -0.18,0 0,-1.035 0.36,0 z"
       style="font-style:normal;font-variant:normal;font-weight:normal;font-stretch:normal;font-size:22.5px;line-height:125%;font-family:KaTeX_Main;-inkscape-font-specification:'KaTeX_Main, Normal';text-align:center;writing-mode:lr-tb;text-anchor:middle"
       id="path4523" />
    <path
       d="m 123.29635,32.465119 q 0,0.1575 -0.1575,0.315 l -6.345,0 0,0.3375 q 0,1.665 0.45,2.52 0.81,1.665 2.79,1.665 0.9675,0 1.62,-0.72 0.45,-0.45 0.6975,-1.17 0.0675,-0.2475 0.135,-0.315 0.0675,-0.0675 0.36,-0.0675 0.45,0 0.45,0.225 0,0.09 -0.0675,0.2925 -0.4275,1.17 -1.3725,1.935 -0.9225,0.7425 -2.2725,0.7425 -0.4275,0 -0.99,-0.1125 -1.2825,-0.2475 -2.295,-1.17 -1.0125,-0.9225 -1.44,-2.2275 -0.27,-0.81 -0.27,-1.6425 0,-2.07 1.215,-3.4875 1.215,-1.44 2.9925,-1.665 0.09,-0.0225 0.315,-0.0225 2.0475,0 3.105,1.215 1.08,1.1925 1.08,3.3525 z m -1.845,-0.675 q -0.2025,-2.4525 -1.665,-2.97 -0.1575,-0.0675 -0.4725,-0.09 -1.17,0 -1.9125,1.08 -0.45,0.72 -0.585,2.0025 l 0,0.1575 4.635,0 0,-0.18 z"
       style="font-style:normal;font-variant:normal;font-weight:normal;font-stretch:normal;font-size:22.5px;line-height:125%;font-family:KaTeX_Main;-inkscape-font-specification:'KaTeX_Main, Normal';text-align:center;writing-mode:lr-tb;text-anchor:middle"
       id="path4525" />
    <path
       d="m 128.20944,28.662619 q -2.07,0 -2.07,1.4625 0,0.2925 0.045,0.3825 0.2025,0.54 0.6975,0.7875 0.495,0.225 1.53,0.4275 1.2825,0.225 1.755,0.495 1.4175,0.675 1.8225,2.2275 0.0225,0.135 0.0225,0.54 0,0.8775 -0.315,1.5525 -0.8775,1.665 -3.3075,1.665 -1.35,0 -2.34,-0.81 l -0.18,0.1575 -0.2025,0.2025 q -0.135,0.135 -0.27,0.2475 l -0.2475,0.225 -0.18,0 q -0.1575,0 -0.2925,-0.135 l 0,-1.7775 q 0,-1.4625 0,-1.6875 0.0225,-0.225 0.1125,-0.27 0.045,-0.0225 0.36,-0.0225 0.2925,0 0.3375,0.045 0.0675,0.045 0.135,0.315 0.18,0.855 0.585,1.5525 0.7875,1.1475 2.1825,1.1475 2.1825,0 2.1825,-1.755 0,-0.6525 -0.405,-1.0575 -0.36,-0.4275 -0.945,-0.6075 -0.3825,-0.09 -1.08,-0.2475 -1.26,-0.2475 -1.71,-0.4725 -1.485,-0.6975 -1.7325,-2.0925 -0.0225,-0.09 -0.0225,-0.3375 0,-2.5875 3.1725,-2.9025 0.09,-0.045 0.54,0 0.9,0 1.575,0.3375 l 0.3375,0.18 0.2025,-0.1575 q 0.2925,-0.2475 0.495,-0.3825 l 0.18,0 q 0.1575,0 0.2925,0.135 l 0,2.97 -0.135,0.135 -0.63,0 q -0.135,-0.135 -0.135,-0.27 0,-1.035 -0.63,-1.62 -0.63,-0.585 -1.7325,-0.585 z"
       style="font-style:normal;font-variant:normal;font-weight:normal;font-stretch:normal;font-size:22.5px;line-height:125%;font-family:KaTeX_Main;-inkscape-font-specification:'KaTeX_Main, Normal';text-align:center;writing-mode:lr-tb;text-anchor:middle"
       id="path4527" />
    <path
       d="m 134.11745,21.125119 0.09,-0.0225 q 0.1125,0 0.225,0 l 0.27,0 q 0.1575,0.135 0.63,0.54 4.05,3.69 4.05,10.71 0,2.7675 -0.6525,4.995 -1.035,3.555 -3.3975,5.715 -0.1575,0.135 -0.36,0.2925 -0.2025,0.18 -0.27,0.2475 l -0.27,0 q -0.27,0 -0.36,-0.045 -0.0675,-0.045 -0.0675,-0.225 0.0225,-0.0225 0.2475,-0.2925 3.4875,-3.6225 3.4875,-10.6875 0,-7.065 -3.4875,-10.6875 -0.225,-0.27 -0.2475,-0.2925 0,-0.18 0.1125,-0.2475 z"
       style="font-style:normal;font-variant:normal;font-weight:normal;font-stretch:normal;font-size:22.5px;line-height:125%;font-family:KaTeX_Main;-inkscape-font-specification:'KaTeX_Main, Normal';text-align:center;writing-mode:lr-tb;text-anchor:middle"
       id="path4529" />
  </g>
</svg>
