<?xml version="1.0" standalone="no"?><!DOCTYPE svg PUBLIC "-//W3C//DTD SVG 1.1//EN" "http://www.w3.org/Graphics/SVG/1.1/DTD/svg11.dtd"><svg width="475.89378290154264" height="320" transform="translate(0,0)" version="1.1" xmlns="http://www.w3.org/2000/svg" xmlns:xlink="http://www.w3.org/1999/xlink"><defs xmlns="http://www.w3.org/1999/xhtml"><style type="text/css"><![CDATA[
svg .grid { stroke-width: 0.5px; stroke: rgb(187, 187, 187); opacity: 0.5; }
svg .domain { stroke-width: 3px; stroke: black; }
svg { border: none; }
svg .path { stroke-width: 4px; stroke: rgb(255, 156, 57); fill: none; }
svg text { font-style: normal; font-variant: normal; font-weight: normal; font-stretch: normal; font-size: 16px; line-height: normal; font-family: katex_main; }
svg .tick text { font-style: normal; font-variant: normal; font-weight: normal; font-stretch: normal; font-size: 12px; line-height: normal; font-family: katex_math; }]]></style></defs><g transform="translate(40,40)"><g class="x-axis" transform="translate(0,120)" fill="none" font-size="10" font-family="sans-serif" text-anchor="middle"><path class="domain" stroke="#000" d="M0.5,0V0.5H336.39378290154264V0"/><g class="tick" opacity="1" transform="translate(24.5,0)"><line stroke="#000" y2="6"/><line class="grid" x1="0" y1="-120" x2="0" y2="120"/></g><g class="tick" opacity="1" transform="translate(72.5,0)"><line stroke="#000" y2="6"/><line class="grid" x1="0" y1="-120" x2="0" y2="120"/></g><g class="tick" opacity="1" transform="translate(120.5,0)"><line stroke="#000" y2="6"/><line class="grid" x1="0" y1="-120" x2="0" y2="120"/></g><g class="tick" opacity="1" transform="translate(168.50000000000003,0)"><line stroke="#000" y2="6"/><line class="grid" x1="0" y1="-120" x2="0" y2="120"/></g><g class="tick" opacity="1" transform="translate(216.50000000000003,0)"><line stroke="#000" y2="6"/><line class="grid" x1="0" y1="-120" x2="0" y2="120"/></g><g class="tick" opacity="1" transform="translate(264.5,0)"><line stroke="#000" y2="6"/><line class="grid" x1="0" y1="-120" x2="0" y2="120"/></g><g class="tick" opacity="1" transform="translate(312.5,0)"><line stroke="#000" y2="6"/><line class="grid" x1="0" y1="-120" x2="0" y2="120"/></g><text x="335.89378290154264" dx=".71em" style="text-anchor: start; font-size: 20px; font-style: italic; fill: black;">t</text></g><g class="y-axis" transform="translate(72,0)" fill="none" font-size="10" font-family="sans-serif" text-anchor="end"><path class="domain" stroke="#000" d="M0,240.5H0.5V0.5H0"/><g class="tick" opacity="1" transform="translate(0,240.5)"><line stroke="#000" x2="-6"/><line class="grid" x1="-72" y1="0" x2="263.89378290154264" y2="0"/></g><g class="tick" opacity="1" transform="translate(0,220.5)"><line stroke="#000" x2="-6"/><line class="grid" x1="-72" y1="0" x2="263.89378290154264" y2="0"/></g><g class="tick" opacity="1" transform="translate(0,200.5)"><line stroke="#000" x2="-6"/><line class="grid" x1="-72" y1="0" x2="263.89378290154264" y2="0"/></g><g class="tick" opacity="1" transform="translate(0,180.5)"><line stroke="#000" x2="-6"/><line class="grid" x1="-72" y1="0" x2="263.89378290154264" y2="0"/></g><g class="tick" opacity="1" transform="translate(0,160.5)"><line stroke="#000" x2="-6"/><line class="grid" x1="-72" y1="0" x2="263.89378290154264" y2="0"/></g><g class="tick" opacity="1" transform="translate(0,140.5)"><line stroke="#000" x2="-6"/><line class="grid" x1="-72" y1="0" x2="263.89378290154264" y2="0"/></g><g class="tick" opacity="1" transform="translate(0,120.5)"><line stroke="#000" x2="-6"/><line class="grid" x1="-72" y1="0" x2="263.89378290154264" y2="0"/></g><g class="tick" opacity="1" transform="translate(0,100.5)"><line stroke="#000" x2="-6"/><line class="grid" x1="-72" y1="0" x2="263.89378290154264" y2="0"/></g><g class="tick" opacity="1" transform="translate(0,80.5)"><line stroke="#000" x2="-6"/><line class="grid" x1="-72" y1="0" x2="263.89378290154264" y2="0"/></g><g class="tick" opacity="1" transform="translate(0,60.5)"><line stroke="#000" x2="-6"/><line class="grid" x1="-72" y1="0" x2="263.89378290154264" y2="0"/></g><g class="tick" opacity="1" transform="translate(0,40.5)"><line stroke="#000" x2="-6"/><line class="grid" x1="-72" y1="0" x2="263.89378290154264" y2="0"/></g><g class="tick" opacity="1" transform="translate(0,20.5)"><line stroke="#000" x2="-6"/><line class="grid" x1="-72" y1="0" x2="263.89378290154264" y2="0"/></g><g class="tick" opacity="1" transform="translate(0,0.5)"><line stroke="#000" x2="-6"/><line class="grid" x1="-72" y1="0" x2="263.89378290154264" y2="0"/></g><text dy="-12px" style="text-anchor: middle; font-size: 20px; font-style: italic; fill: black;">i,v</text></g><path class="path" d="M72,120L72.06,119.70004551625527L72.12,119.40018412941362L72.18,119.10041893463503L72.24,118.8007530251493L72.30000000000001,118.5011894922243L72.36000000000001,118.20173142513443L72.42,117.90238191112897L72.48,117.60314403540059L72.54,117.30402088105382L72.60000000000001,117.00501552907356L72.66,116.70613105829364L72.72,116.40737054536534L72.78000000000002,116.10873706472616L72.84,115.81023368856822L72.9,115.51186348680719L72.96,115.21362952705076L73.02000000000001,114.91553487456761L73.08,114.61758259225606L73.14,114.3197757406128L73.2,114.02211737770196L73.26,113.72461055912382L73.32000000000001,113.42725833798372L73.38,113.13006376486115L73.44,112.83302988777854L73.50000000000001,112.5361597521705L73.56,112.23945640085265L73.62,111.94292287399094L73.67999999999999,111.64656220907054L73.74,111.35037744086523L73.8,111.05437160140653L73.86,110.75854771995287L73.92,110.46290882295895L73.98,110.16745793404499L74.04,109.87219807396627L74.1,109.57713226058226L74.16,109.28226350882622L74.22,108.98759483067471L74.28,108.69312923511703L74.34,108.39886972812474L74.4,108.10481931262132L74.46000000000001,107.81098098845192L74.52,107.51735775235272L74.58,107.22395259792103L74.64,106.93076851558476L74.7,106.63780849257242L74.76,106.34507551288283L74.82000000000001,106.05257255725508L74.88000000000001,105.76030260313843L74.94,105.46826862466236L75,105.17647359260653L75.06,104.8849204743708L75.12,104.59361223394541L75.18,104.30255183188112L75.24,104.01174222525938L75.30000000000001,103.72118636766263L75.36,103.43088720914452L75.42,103.14084769620027L75.48,102.85107077173706L75.54,102.5615593750444L75.60000000000001,102.27231644176473L75.66,101.98334490386378L75.72,101.69464768960128L75.78,101.40622772350147L75.84,101.11808792632382L75.9,100.83023121503368L75.96000000000001,100.54266050277309L76.02000000000001,100.25537869883158L76.08,99.96838870861706L76.14,99.68169343362655L76.19999999999999,99.39529577141744L76.26,99.10919861557815L76.32000000000001,98.8234048556995L76.38000000000001,98.53791737734551L76.44000000000001,98.25273906202486L76.5,97.96787278716184L76.56,97.6833214260678L76.61999999999999,97.39908784791228L76.68,97.1151749176945L76.74000000000001,96.8315854962147L76.80000000000001,96.5483224400457L76.86000000000001,96.2653886015043L76.92,95.98278682862289L76.98,95.70051996512115L77.03999999999999,95.4185908503776L77.1,95.13700231940138L77.16000000000001,94.85575720280406L77.22,94.57485832677145L77.28000000000002,94.29430851303562L77.34,94.01411057884653L77.4,93.73426733694436L77.46,93.45478159553139L77.52,93.17565615824424L77.58,92.89689382412587L77.64,92.61849738759793L77.7,92.34046963843306L77.76,92.06281336172708L77.82000000000001,91.78553133787159L77.88000000000001,91.50862634252627L77.94,91.23210114659142L78,90.9559585161806L78.06,90.68020121259315L78.12,90.40483199228697L78.17999999999999,90.12985360685116L78.24,89.85526880297897L78.30000000000001,89.58108032244056L78.36,89.30729090205588L78.42,89.0339032736677L78.48,88.76092016411476L78.54,88.48834429520471L78.6,88.21617838368729L78.66,87.94442514122764L78.72000000000001,87.67308727437953L78.78,87.4021674845587L78.84,87.13166846801633L78.9,86.86159291581225L78.96000000000001,86.591943513789L79.02,86.3227229425448L79.08,86.0539338774077L79.14,85.78557898840893L79.2,85.51766094025692L79.26,85.25018239231116L79.32000000000001,84.98314599855581L79.38000000000001,84.71655440757408L79.44,84.45041026252196L79.5,84.18471620110239L79.56,83.91947485553956L79.62,83.65468885255294L79.68,83.39036081333165L79.74,83.12649335350895L79.80000000000001,82.86308908313649L79.86000000000001,82.60015060665876L79.92,82.33768052288787L79.98,82.07568142497809L80.04,81.81415590040032L80.10000000000001,81.5531065309172L80.16,81.29253589255768L80.22000000000001,81.03244655559195L80.27999999999999,80.77284108450647L80.34,80.513722037979L80.4,80.2550919688536L80.46000000000001,79.99695342411587L80.52000000000001,79.73930894486813L80.58,79.48216106630483L80.64,79.22551231768765L80.69999999999999,78.96936522232133L80.76,78.71372229752885L80.82000000000001,78.45858605462715L80.88000000000001,78.20395899890272L80.94000000000001,77.94984362958738L81,77.69624243983401L81.06,77.4431579166924L81.12,77.1905925410853L81.17999999999999,76.93854878778421L81.24,76.68702912538564L81.30000000000001,76.43603601628712L81.36000000000001,76.18557191666355L81.42,75.93563927644334L81.48,75.6862405392848L81.54,75.43737814255266L81.6,75.18905451729455L81.66,74.94127208821743L81.72,74.69403327366445L81.78,74.4473404855915L81.84000000000002,74.20119612954406L81.9,73.95560260463418L81.96000000000001,73.71056230351726L82.02,73.4660776123691L82.08,73.22215091086306L82.14,72.9787845721473L82.2,72.73598096282166L82.26000000000002,72.49374244291545L82.32000000000001,72.25207136586451L82.38000000000001,72.01097007848878L82.44,71.77044092097L82.5,71.53048622682894L82.56,71.29110832290345L82.62,71.05230952932607L82.67999999999999,70.81409215950202L82.74,70.5764585200869L82.80000000000001,70.3394109109648L82.86,70.10295162522652L82.92,69.86708294914749L82.98,69.6318071621661L83.04,69.397126536862L83.10000000000001,69.16304333893464L83.16,68.92955982718144L83.22000000000001,68.69667825347648L83.28,68.4644008627493L83.34,68.23272989296342L83.4,68.00166757509487L83.46000000000001,67.7712161331117L83.52000000000001,67.54137778395227L83.58,67.31215473750459L83.64,67.0835491965855L83.7,66.85556335691956L83.76,66.62819940711856L83.82000000000001,66.40145952866064L83.88000000000001,66.17534589587004L83.94000000000001,65.9498606758961L84.00000000000001,65.72500602869349" style="fill: none; stroke: rgb(17, 172, 205);"/><path class="path" d="M0,120L72,120" style="stroke: rgb(17, 172, 205);"/><path class="path" d="M72,20L72.06,20.000520780801878L72.12,20.002082909497062L72.18,20.00468605745857L72.24,20.00832988531522L72.30000000000001,20.01301404295907L72.36000000000001,20.018738169552165L72.42,20.02550189353323L72.48,20.033304832624935L72.54,20.042146593841238L72.60000000000001,20.052026773494447L72.66,20.06294495720269L72.72,20.074900719897556L72.78000000000002,20.087893625831697L72.84,20.101923228586372L72.9,20.1169890710795L72.96,20.133090685573677L73.02000000000001,20.150227593684065L73.08,20.16839930638662L73.14,20.18760532402635L73.2,20.20784513632583L73.26,20.22911822239365L73.32000000000001,20.251424050732965L73.38,20.274762079250138L73.44,20.299131755263886L73.50000000000001,20.324532515513766L73.56,20.350963786169643L73.62,20.378424982840585L73.67999999999999,20.406915510584014L73.74,20.436434763915514L73.8,20.466982126817754L73.86,20.498556972750492L73.92,20.53115866466007L73.98,20.56478655498904L74.04,20.599439985686416L74.1,20.63511828821754L74.16,20.671820783573907L74.22,20.709546782283894L74.28,20.748295584422607L74.34,20.788066479622614L74.4,20.82885874708424L74.46000000000001,20.870671655586506L74.52,20.91350446349759L74.58,20.957356418785707L74.64,21.002226759030265L74.7,21.04811471143279L74.76,21.095019492827902L74.82000000000001,21.14294030969495L74.88000000000001,21.19187635816914L74.94,21.241826824053135L75,21.292790882828285L75.06,21.344767699667017L75.12,21.39775642944386L75.18,21.451756216747896L75.24,21.506766195894272L75.30000000000001,21.562785490936847L75.36,21.619813215679926L75.42,21.677848473690858L75.48,21.73689035831211L75.54,21.796937952674256L75.60000000000001,21.857990329708144L75.66,21.92004655215797L75.72,21.983105672593666L75.78,22.04716673342432L75.84,22.112228766910732L75.9,22.17829079517898L75.96000000000001,22.245351830233204L76.02000000000001,22.31341087396936L76.08,22.38246691818827L76.14,22.452518944609352L76.19999999999999,22.523565924884252L76.26,22.5956068206105L76.32000000000001,22.66864058334542L76.38000000000001,22.74266615461991L76.44000000000001,22.81768246595277L76.5,22.893688438864444L76.56,22.970682984891596L76.61999999999999,23.04866500560115L76.68,23.12763339260505L76.74000000000001,23.207587027574448L76.80000000000001,23.288524782254626L76.86000000000001,23.3704455184795L76.92,23.453348088186544L76.98,23.53723133343175L77.03999999999999,23.622094086404616L77.1,23.70793516944309L77.16000000000001,23.794753395049298L77.22,23.882547565904275L77.28000000000002,23.971316474883736L77.34,24.061058905073367L77.4,24.15177362978477L77.46,24.24345941257073L77.52,24.336115007241403L77.58,24.429739157879965L77.64,24.524330598858853L77.7,24.61988805485555L77.76,24.71641024086904L77.82000000000001,24.81389586223594L77.88000000000001,24.912343614646915L77.94,25.0117521841633L78,25.112120247233463L78.06,25.213446470709556L78.12,25.315729511864248L78.17999999999999,25.418968018407725L78.24,25.523160628504485L78.30000000000001,25.62830597079042L78.36,25.734402664389933L78.42,25.841449318933343L78.48,25.949444534573985L78.54,26.05838690200568L78.6,26.16827500248047L78.66,26.279107407825904L78.72000000000001,26.390882680462937L78.78,26.503599373423697L78.84,26.61725603036939L78.9,26.73185118560815L78.96000000000001,26.84738336411334L79.02,26.963851081541378L79.08,27.081252844250457L79.14,27.19958714931832L79.2,27.318852484561233L79.26,27.439047328552192L79.32000000000001,27.560170150639635L79.38000000000001,27.682219410966184L79.44,27.805193560487425L79.5,27.929091040990556L79.56,28.053910285113943L79.62,28.17964971636556L79.68,28.306307749142547L79.74,28.43388278875034L79.80000000000001,28.562373231421873L79.86000000000001,28.691777464337292L79.92,28.82209386564307L79.98,28.95332080447224L80.04,29.085456640963258L80.10000000000001,29.21849972628047L80.16,29.35244840263357L80.22000000000001,29.487301003297915L80.27999999999999,29.623055852634025L80.34,29.759711266108326L80.4,29.89726555031291L80.46000000000001,30.03571700298602L80.52000000000001,30.175063913032375L80.58,30.31530456054375L80.64,30.45643721681941L80.69999999999999,30.59846014438682L80.76,30.741371597022322L80.82000000000001,30.88516981977193L80.88000000000001,31.0298530489724L80.94000000000001,31.175419512271873L81,31.321867428651444L81.06,31.469195008445723L81.12,31.617400453364496L81.17999999999999,31.766481956513985L81.24,31.916437702417966L81.30000000000001,32.06726586703965L81.36000000000001,32.2189646178029L81.42,32.37153211361422L81.48,32.52496650488405L81.54,32.679265933549004L81.6,32.83442853309353L81.66,32.990452428571984L81.72,33.14733573663048L81.78,33.30507656552945L81.84000000000002,33.46367301516548L81.9,33.62312317709356L81.96000000000001,33.7834251345499L82.02,33.94457696247403L82.08,34.10657672753132L82.14,34.26942248813589L82.2,34.43311229447289L82.26000000000002,34.5976441885218L82.32000000000001,34.76301620407875L82.38000000000001,34.92922636677977L82.44,35.096272694123854L82.5,35.26415319549574L82.56,35.43286587218938L82.62,35.602408717430905L82.67999999999999,35.77277971640234L82.74,35.94397684626469L82.80000000000001,36.115998076181256L82.86,36.28884136734172L82.92,36.462504672985375L82.98,36.63698593842483L83.04,36.812283101069994L83.10000000000001,36.98839409045172L83.16,37.165316828245864L83.22000000000001,37.34304922829736L83.28,37.52158919664396L83.34,37.70093463154083L83.4,37.88108342348431L83.46000000000001,38.06203345523676L83.52000000000001,38.24378260185034L83.58,38.42632873069198L83.64,38.60966970146754L83.7,38.793803366246436L83.76,38.978727569486495L83.82000000000001,39.16444014805853L83.88000000000001,39.350938931271344L83.94000000000001,39.538221740896205L84.00000000000001,39.72628639119219" style="fill: none;"/><path class="path" d="M0,20L72,20"/><text x="-3" y="20" dy="-6" style="text-anchor: start; font-size: 20px; font-style: italic; fill: black;">v</text><text x="-3" y="120" dy="-6" style="text-anchor: start; font-size: 18px; font-style: italic; fill: black;">i</text></g></svg>