<?xml version="1.0" encoding="UTF-8" standalone="no"?>
<!-- Generator: Adobe Illustrator 19.1.0, SVG Export Plug-In . SVG Version: 6.00 Build 0)  -->

<svg
   xmlns:dc="http://purl.org/dc/elements/1.1/"
   xmlns:cc="http://creativecommons.org/ns#"
   xmlns:rdf="http://www.w3.org/1999/02/22-rdf-syntax-ns#"
   xmlns:svg="http://www.w3.org/2000/svg"
   xmlns="http://www.w3.org/2000/svg"
   xmlns:sodipodi="http://sodipodi.sourceforge.net/DTD/sodipodi-0.dtd"
   xmlns:inkscape="http://www.inkscape.org/namespaces/inkscape"
   version="1.1"
   id="Layer_1"
   x="0px"
   y="0px"
   width="451.40317"
   height="202.6152"
   viewBox="0 0 451.40317 202.61521"
   xml:space="preserve"
   inkscape:version="0.92.2 5c3e80d, 2017-08-06"
   sodipodi:docname="rlc_critically_damped_circuit2.svg"><metadata
     id="metadata4583"><rdf:RDF><cc:Work
         rdf:about=""><dc:format>image/svg+xml</dc:format><dc:type
           rdf:resource="http://purl.org/dc/dcmitype/StillImage" /><dc:title></dc:title></cc:Work></rdf:RDF></metadata><defs
     id="defs4581" /><sodipodi:namedview
     pagecolor="#ffffff"
     bordercolor="#666666"
     borderopacity="1"
     objecttolerance="10"
     gridtolerance="10"
     guidetolerance="10"
     inkscape:pageopacity="0"
     inkscape:pageshadow="2"
     inkscape:window-width="1272"
     inkscape:window-height="714"
     id="namedview4579"
     showgrid="false"
     fit-margin-top="10"
     fit-margin-right="10"
     fit-margin-bottom="10"
     fit-margin-left="10"
     inkscape:zoom="1.1098726"
     inkscape:cx="225.70158"
     inkscape:cy="101.3076"
     inkscape:window-x="0"
     inkscape:window-y="0"
     inkscape:window-maximized="0"
     inkscape:current-layer="Layer_1" /><style
     type="text/css"
     id="style4379">
	.st0{fill:#BABEC2;}
	.st1{fill:none;}
	.st2{fill:none;stroke:#BABEC2;stroke-linecap:round;stroke-linejoin:round;stroke-miterlimit:10;}
	.st3{fill:none;stroke:#BABEC2;stroke-miterlimit:10;}
	.st4{fill:none;stroke:#BABEC2;stroke-miterlimit:10;stroke-dasharray:1,1;}
	.st5{fill:none;stroke:#11ACCD;stroke-width:3;stroke-linecap:round;stroke-miterlimit:10;}
	.st6{fill:#11ACCD;}
	.st7{fill:none;stroke:#BABEC2;stroke-width:2;stroke-linecap:round;stroke-miterlimit:10;}
	.st8{fill:none;stroke:#FF9C39;stroke-width:3;stroke-linecap:round;stroke-miterlimit:10;}
	.st9{fill:#FF9C39;}
	.st10{fill:none;stroke:#000000;stroke-linecap:round;stroke-linejoin:round;stroke-miterlimit:10;}
	.st11{fill:none;stroke:#000000;stroke-width:2;stroke-linecap:round;stroke-linejoin:round;stroke-miterlimit:10;}
	.st12{fill:none;stroke:#000000;stroke-width:2;stroke-miterlimit:10;}
	.st13{fill:none;stroke:#000000;stroke-linecap:round;stroke-miterlimit:10;}
	.st14{fill:none;stroke:#000000;stroke-width:1.5;stroke-miterlimit:10;}
	.st15{fill:none;stroke:#000000;stroke-width:2;stroke-linecap:round;stroke-miterlimit:10;}
	.st16{stroke:#000000;stroke-linecap:round;stroke-linejoin:round;stroke-miterlimit:10;}
	.st17{fill:none;stroke:#BABEC2;stroke-width:3;stroke-miterlimit:10;}
	.st18{fill:none;stroke:#BABEC2;stroke-width:5;stroke-miterlimit:10;}
	.st19{stroke:#BABEC2;stroke-miterlimit:10;}
	.st20{fill:none;stroke:#000000;stroke-miterlimit:10;}
	.st21{fill:#FFFFFF;stroke:#000000;stroke-miterlimit:10;}
	.st22{fill:none;stroke:#FF9C39;stroke-width:2;stroke-linecap:round;stroke-miterlimit:10;}
	.st23{fill:none;stroke:#1FAB54;stroke-width:2;stroke-linecap:round;stroke-miterlimit:10;}
	.st24{fill:#1FAB54;}
	.st25{fill:#11ACCD;stroke:#085566;stroke-width:3;stroke-miterlimit:10;}
	.st26{fill:none;stroke:#085566;stroke-width:5;stroke-miterlimit:10;}
	.st27{fill:#0C7F99;stroke:#085566;stroke-miterlimit:10;}
	.st28{stroke:#085566;stroke-miterlimit:10;}
	.st29{font-family:'KaTeX_Main-Regular';}
	.st30{font-size:21px;}
	.st31{font-family:'KaTeX_Main-Italic';}
</style><g
     aria-label="+"
     style="font-style:normal;font-variant:normal;font-weight:normal;font-stretch:normal;font-size:22.5px;line-height:0%;font-family:KaTeX_Main;-inkscape-font-specification:'KaTeX_Main, Normal';text-align:start;writing-mode:lr-tb;text-anchor:start;fill:#ff9c39"
     id="text4381"><path
       d="m 285.14791,80.440593 q -0.315,-0.1575 -0.315,-0.45 0,-0.2925 0.315,-0.45 h 6.7275 v -3.375 l 0.0225,-3.375 q 0.225,-0.2925 0.4275,-0.2925 0.2925,0 0.45,0.3375 v 6.705 h 6.705 q 0.3375,0.18 0.3375,0.45 0,0.27 -0.3375,0.45 h -6.705 v 6.705 q -0.1575,0.315 -0.45,0.315 -0.2925,0 -0.45,-0.315 v -6.705 z"
       style="font-style:normal;font-variant:normal;font-weight:normal;font-stretch:normal;font-size:22.5px;line-height:0%;font-family:KaTeX_Main;-inkscape-font-specification:'KaTeX_Main, Normal';text-align:start;writing-mode:lr-tb;text-anchor:start;fill:#ff9c39"
       id="path38858" /></g><g
     aria-label="−"
     style="font-style:normal;font-variant:normal;font-weight:normal;font-stretch:normal;font-size:22.5px;line-height:0%;font-family:KaTeX_Main;-inkscape-font-specification:'KaTeX_Main, Normal';text-align:start;writing-mode:lr-tb;text-anchor:start;fill:#ff9c39"
     id="text4383"><path
       d="m 285.7773,140.4402 q -0.315,-0.1575 -0.315,-0.45 0,-0.2925 0.315,-0.45 h 13.0725 q 0.3375,0.18 0.3375,0.45 0,0.27 -0.3375,0.45 z"
       style="font-style:normal;font-variant:normal;font-weight:normal;font-stretch:normal;font-size:22.5px;line-height:0%;font-family:KaTeX_Main;-inkscape-font-specification:'KaTeX_Main, Normal';text-align:start;writing-mode:lr-tb;text-anchor:start;fill:#ff9c39"
       id="path38855" /></g><g
     aria-label="vC"
     style="font-style:normal;font-variant:normal;font-weight:normal;font-stretch:normal;font-size:22.5px;line-height:0%;font-family:KaTeX_Main;-inkscape-font-specification:KaTeX_Main;text-align:start;writing-mode:lr-tb;text-anchor:start;fill:#ff9c39"
     id="text4385"><path
       d="m 270.99489,109.8623 q -1.44,0 -2.295,-0.72 -0.8325,-0.7425 -0.8325,-2.16 0,-0.405 0.045,-0.765 0.2025,-1.08 1.0575,-3.3075 l 0.36,-1.08 q 0.135,-0.405 0.135,-0.765 0,-0.5625 -0.4275,-0.5625 -0.1575,0 -0.36,0.0675 -1.1475,0.405 -1.7325,2.5875 0,0.0225 -0.0225,0.09 -0.0225,0.045 -0.045,0.0675 0,0 -0.0225,0.0225 -0.0225,0.0225 -0.09,0.0225 -0.045,0 -0.09,0 -0.045,0 -0.18,0 h -0.315 q -0.135,-0.135 -0.135,-0.2025 0,-0.0675 0.0675,-0.3375 0.54,-1.7775 1.665,-2.655 0.6075,-0.472501 1.395,-0.472501 0.8775,0 1.44,0.495001 0.5625,0.495 0.5625,1.305 0,0.3825 -0.0675,0.585 0,0.1575 -0.3375,0.99 -1.035,2.8125 -1.1025,4.005 0,0.6075 0.1125,0.99 0.2925,0.9675 1.4175,0.9675 0.6075,0 1.08,-0.36 1.395,-0.9225 2.3175,-4.2525 0.18,-0.63 0.18,-1.035 0,-0.99 -0.8775,-1.7775 -0.2925,-0.27 -0.2925,-0.6075 0,-0.5175 0.405,-0.9225 0.4275,-0.427501 0.945,-0.427501 0.54,0 0.8325,0.517501 0.2925,0.495 0.2925,1.1925 0,0.7875 -0.45,2.5875 -0.4275,1.7325 -1.08,3.015 -1.4175,2.9025 -3.555,2.9025 z"
       style="font-style:normal;font-variant:normal;font-weight:normal;font-stretch:normal;font-family:KaTeX_Math;-inkscape-font-specification:KaTeX_Math"
       id="path38850" /><path
       d="m 287.19583,111.43855 0.0975,0.0975 v 0.24375 q -0.0813,1.4625 -0.95875,2.58375 -0.8775,1.12125 -2.25875,1.47875 -0.47125,0.11375 -1.05625,0.11375 -0.60125,0 -1.02375,-0.0975 -1.82,-0.3575 -3.07125,-1.7225 -1.235,-1.365 -1.5275,-3.38 -0.0163,-0.14625 -0.0163,-0.69875 0,-0.53625 0.0163,-0.69875 0.27625,-1.9825 1.5275,-3.3475 1.25125,-1.38125 3.07125,-1.755 0.52,-0.0975 0.82875,-0.0975 0.0325,0 0.13,0.0162 0.0975,0 0.14625,0 0.39,0 0.5525,0.0325 1.18625,0.21125 2.06375,1.0725 l 0.21125,0.195 0.4875,-0.63375 q 0.43875,-0.60125 0.50375,-0.66625 0.0163,0 0.065,0 0.0487,-0.0162 0.0975,-0.0162 0.11375,0 0.21125,0.0975 v 4.55 l -0.0975,0.0975 h -0.5525 q -0.0975,-0.0975 -0.11375,-0.27625 -0.14625,-1.3325 -0.78,-2.3075 -0.63375,-0.975 -1.54375,-1.28375 -0.30875,-0.11375 -0.8125,-0.11375 -1.69,0 -2.8275,1.1375 -1.28375,1.28375 -1.28375,3.9975 0,1.96625 0.6175,3.10375 0.50375,0.95875 1.43,1.51125 0.9425,0.5525 2.09625,0.5525 1.18625,0 2.06375,-0.845 0.8775,-0.86125 1.0725,-2.015 0.0813,-0.40625 0.0813,-0.715 0,-0.11375 0.0975,-0.21125 z"
       style="font-size:16.25px"
       id="path38852" /></g><g
     style="font-style:normal;font-variant:normal;font-weight:normal;font-stretch:normal;font-size:19.71875px;line-height:0%;font-family:KaTeX_Main;-inkscape-font-specification:KaTeX_Main;text-align:start;writing-mode:lr-tb;text-anchor:start;fill:#ff9c39"
     id="text4387" /><g
     id="g4389"
     transform="translate(7.5724992,-4.3847975)"><line
       class="st10"
       x1="257.39999"
       y1="48"
       x2="276"
       y2="48"
       id="line4391"
       style="fill:none;stroke:#000000;stroke-linecap:round;stroke-linejoin:round;stroke-miterlimit:10" /><polyline
       class="st11"
       points="210.6,48 214.5,39 222.3,57 230.1,39 237.9,57 245.7,39 253.5,57 257.4,48  "
       id="polyline4393"
       style="fill:none;stroke:#000000;stroke-width:2;stroke-linecap:round;stroke-linejoin:round;stroke-miterlimit:10" /><line
       class="st10"
       x1="192"
       y1="48"
       x2="210.60001"
       y2="48"
       id="line4395"
       style="fill:none;stroke:#000000;stroke-linecap:round;stroke-linejoin:round;stroke-miterlimit:10" /><rect
       x="192"
       y="36"
       class="st1"
       width="84"
       height="24"
       id="rect4397"
       style="fill:none" /></g><g
     id="g4399"
     transform="translate(7.5724992,-4.3847975)"><polyline
       class="st10"
       points="216,180 162,179.6 162,155.6  "
       id="polyline4401"
       style="fill:none;stroke:#000000;stroke-linecap:round;stroke-linejoin:round;stroke-miterlimit:10" /><line
       class="st11"
       x1="318"
       y1="118.1"
       x2="294"
       y2="118.1"
       id="line4403"
       style="fill:none;stroke:#000000;stroke-width:2;stroke-linecap:round;stroke-linejoin:round;stroke-miterlimit:10" /><line
       class="st11"
       x1="324"
       y1="118.1"
       x2="288"
       y2="118.1"
       id="line4405"
       style="fill:none;stroke:#000000;stroke-width:2;stroke-linecap:round;stroke-linejoin:round;stroke-miterlimit:10" /><polyline
       class="st11"
       points="288,109.1 306,109.1 324,109.1  "
       id="polyline4407"
       style="fill:none;stroke:#000000;stroke-width:2;stroke-linecap:round;stroke-linejoin:round;stroke-miterlimit:10" /><polyline
       class="st10"
       points="276,48 306,48 306,71.6 306,109.1  "
       id="polyline4409"
       style="fill:none;stroke:#000000;stroke-linecap:round;stroke-linejoin:round;stroke-miterlimit:10" /><polyline
       class="st10"
       points="162,71.6 162,47.6 192,48  "
       id="polyline4411"
       style="fill:none;stroke:#000000;stroke-linecap:round;stroke-linejoin:round;stroke-miterlimit:10" /></g><g
     id="g4413"
     transform="translate(7.5724992,-4.3847975)"><line
       class="st13"
       x1="162"
       y1="143.60001"
       x2="162"
       y2="155.60001"
       id="line4415"
       style="fill:none;stroke:#000000;stroke-linecap:round;stroke-miterlimit:10" /><path
       class="st15"
       d="m 162,129.8 c -5,0 -9,3.1 -9,6.9 0,3.8 4,6.9 9,6.9"
       id="path4417"
       style="fill:none;stroke:#000000;stroke-width:2;stroke-linecap:round;stroke-miterlimit:10"
       inkscape:connector-curvature="0" /><path
       class="st15"
       d="m 162,129.8 c 5,0 9,1 9,2.3 0,1.3 -4,2.3 -9,2.3"
       id="path4419"
       style="fill:none;stroke:#000000;stroke-width:2;stroke-linecap:round;stroke-miterlimit:10"
       inkscape:connector-curvature="0" /><path
       class="st15"
       d="m 162,120.6 c -5,0 -9,3.1 -9,6.9 0,3.8 4,6.9 9,6.9"
       id="path4421"
       style="fill:none;stroke:#000000;stroke-width:2;stroke-linecap:round;stroke-miterlimit:10"
       inkscape:connector-curvature="0" /><path
       class="st15"
       d="m 162,120.6 c 5,0 9,1 9,2.3 0,1.3 -4,2.3 -9,2.3"
       id="path4423"
       style="fill:none;stroke:#000000;stroke-width:2;stroke-linecap:round;stroke-miterlimit:10"
       inkscape:connector-curvature="0" /><path
       class="st15"
       d="m 162,111.3 c -5,0 -9,3.1 -9,6.9 0,3.8 4,6.9 9,6.9"
       id="path4425"
       style="fill:none;stroke:#000000;stroke-width:2;stroke-linecap:round;stroke-miterlimit:10"
       inkscape:connector-curvature="0" /><path
       class="st15"
       d="m 162,111.3 c 5,0 9,1 9,2.3 0,1.3 -4,2.3 -9,2.3"
       id="path4427"
       style="fill:none;stroke:#000000;stroke-width:2;stroke-linecap:round;stroke-miterlimit:10"
       inkscape:connector-curvature="0" /><path
       class="st15"
       d="m 162,102.1 c -5,0 -9,3.1 -9,6.9 0,3.8 4,6.9 9,6.9"
       id="path4429"
       style="fill:none;stroke:#000000;stroke-width:2;stroke-linecap:round;stroke-miterlimit:10"
       inkscape:connector-curvature="0" /><path
       class="st15"
       d="m 162,102.1 c 5,0 9,1 9,2.3 0,1.3 -4,2.3 -9,2.3"
       id="path4431"
       style="fill:none;stroke:#000000;stroke-width:2;stroke-linecap:round;stroke-miterlimit:10"
       inkscape:connector-curvature="0" /><path
       class="st15"
       d="m 162,92.9 c 5,0 9,1 9,2.3 0,1.3 -4,2.3 -9,2.3"
       id="path4433"
       style="fill:none;stroke:#000000;stroke-width:2;stroke-linecap:round;stroke-miterlimit:10"
       inkscape:connector-curvature="0" /><path
       class="st15"
       d="m 162,92.9 c -5,0 -9,3.1 -9,6.9 0,3.8 4,6.9 9,6.9"
       id="path4435"
       style="fill:none;stroke:#000000;stroke-width:2;stroke-linecap:round;stroke-miterlimit:10"
       inkscape:connector-curvature="0" /><path
       class="st15"
       d="m 162,83.6 c -5,0 -9,3.1 -9,6.9 0,3.8 4,6.9 9,6.9"
       id="path4437"
       style="fill:none;stroke:#000000;stroke-width:2;stroke-linecap:round;stroke-miterlimit:10"
       inkscape:connector-curvature="0" /><line
       class="st13"
       x1="162"
       y1="71.599998"
       x2="162"
       y2="83.599998"
       id="line4439"
       style="fill:none;stroke:#000000;stroke-linecap:round;stroke-miterlimit:10" /><rect
       x="150"
       y="71.599998"
       class="st1"
       width="24"
       height="84"
       id="rect4441"
       style="fill:none" /></g><g
     id="g4443"
     transform="translate(7.5724992,-4.3847975)"><g
       id="g4445"><line
         class="st5"
         x1="162"
         y1="68.900002"
         x2="162"
         y2="54"
         id="line4447"
         style="fill:none;stroke:#11accd;stroke-width:3;stroke-linecap:round;stroke-miterlimit:10" /><g
         id="g4449"><path
           class="st6"
           d="m 162,78 c 1.6,-4.3 4.3,-9.5 7.1,-12.8 l -7.1,2.6 -7.1,-2.6 c 2.8,3.3 5.5,8.5 7.1,12.8 z"
           id="path4451"
           style="fill:#11accd"
           inkscape:connector-curvature="0" /></g></g></g><g
     aria-label="L"
     style="font-style:normal;font-variant:normal;font-weight:normal;font-stretch:normal;font-size:22.5px;line-height:0%;font-family:KaTeX_Main;-inkscape-font-specification:'KaTeX_Main, Normal';text-align:start;writing-mode:lr-tb;text-anchor:start"
     id="text4453"><path
       d="m 138.45249,89.620303 q -0.225,-0.225 -0.45,-0.27 -0.2025,-0.045 -1.125,-0.0675 h -0.7425 v -1.035 h 0.2475 q 0.405,0.0675 3.285,0.0675 3.33,0 3.735,-0.0675 h 0.27 v 1.035 h -0.6075 q -0.8325,0 -1.08,0.0225 -0.63,0.0225 -0.81,0.09 -0.18,0.045 -0.36,0.225 l -0.0225,6.3 q 0,6.299997 0.0225,6.367497 0.0225,0.1125 0.09,0.1575 0.135,0.1125 1.71,0.1125 1.5975,0 2.1825,-0.135 1.3275,-0.3825 1.9575,-1.26 0.63,-0.8775 0.8775,-2.519997 0,-0.1125 0.0225,-0.3825 0.045,-0.2925 0.0675,-0.5175 0.045,-0.225 0.045,-0.2475 0,-0.0225 0.45,-0.0225 h 0.45 v 0.1125 q -0.045,0.0675 -0.315,2.969997 -0.27,2.88 -0.315,2.9475 v 0.1125 h -11.9025 v -1.035 h 0.7425 q 0.9225,-0.0225 1.125,-0.0675 0.225,-0.045 0.45,-0.27 z"
       style="font-style:normal;font-variant:normal;font-weight:normal;font-stretch:normal;font-size:22.5px;line-height:125%;font-family:KaTeX_Main;-inkscape-font-specification:'KaTeX_Main, Normal';text-align:start;writing-mode:lr-tb;text-anchor:start"
       id="path38846" /></g><g
     aria-label="R"
     style="font-style:normal;font-variant:normal;font-weight:normal;font-stretch:normal;font-size:22.5px;line-height:0%;font-family:KaTeX_Main;-inkscape-font-specification:'KaTeX_Main, Normal';text-align:start;writing-mode:lr-tb;text-anchor:start"
     id="text4455"><path
       d="m 218.4976,11.620198 q -0.225,-0.225 -0.45,-0.27 -0.2025,-0.045 -1.125,-0.0675 h -0.7425 v -1.035 h 3.9375 q 4.185,0.0225 4.6125,0.09 0.0675,0.0225 0.2925,0.0675 1.0125,0.2025 1.8,0.63 2.1375,1.08 2.4525,2.9475 0.0225,0.1125 0.0225,0.36 0,1.26 -0.9675,2.205 -0.945,0.945 -2.25,1.3725 -0.045,0.0225 -0.1125,0.045 -0.045,0 -0.09,0.0225 l -0.045,0.0225 q 0.0675,0.0675 0.2475,0.135 1.62,0.9 2.0025,2.385 0.0225,0.09 0.2475,1.485 0.225,1.395 0.2475,1.485 0.1575,0.81 0.3825,1.1925 0.2475,0.3825 0.63,0.5175 0.09,0.045 0.3825,0.045 h 0.1125 q 0.2925,0 0.54,-0.2475 0.45,-0.45 0.5175,-1.35 0,-0.2475 0.0675,-0.315 0.09,-0.09 0.3825,-0.09 0.27,0 0.36,0.0675 0.09,0.045 0.09,0.27 0,0.81 -0.405,1.485 -0.3825,0.6525 -0.945,0.9 -0.36,0.135 -0.945,0.135 -3.3525,-0.135 -3.87,-2.52 -0.045,-0.2475 -0.0675,-1.6425 0,-1.395 -0.135,-1.8675 -0.2025,-0.6075 -0.675,-1.035 -0.45,-0.45 -1.035,-0.63 l -0.225,-0.045 -1.485,-0.0225 h -1.485 v 2.9475 l 0.0225,2.9475 q 0.1575,0.225 0.3825,0.27 0.2475,0.045 1.17,0.0675 h 0.7425 v 1.035 h -0.2475 q -0.36,-0.0675 -3.195,-0.0675 -2.8575,0 -3.2175,0.0675 h -0.2475 v -1.035 h 0.7425 q 0.9225,-0.0225 1.125,-0.0675 0.225,-0.045 0.45,-0.27 z m 8.1,1.8675 q -0.225,-1.35 -1.215,-1.7775 -0.9675,-0.4275 -2.97,-0.4275 -0.3375,0 -0.765,0.0225 -0.4275,0 -0.45,0 -0.2925,0.0225 -0.36,0.18 -0.0675,0.09 -0.0675,3.06 v 2.97 h 1.305 q 1.6875,0 2.4975,-0.135 0.81,-0.1575 1.4175,-0.765 0.3825,-0.3825 0.495,-0.855 0.135,-0.4725 0.135,-1.3725 0,-0.72 -0.0225,-0.9 z"
       style="font-style:normal;font-variant:normal;font-weight:normal;font-stretch:normal;font-size:22.5px;line-height:125%;font-family:KaTeX_Main;-inkscape-font-specification:'KaTeX_Main, Normal';text-align:start;writing-mode:lr-tb;text-anchor:start"
       id="path38843" /></g><g
     aria-label="C"
     style="font-style:normal;font-variant:normal;font-weight:normal;font-stretch:normal;font-size:22.5px;line-height:0%;font-family:KaTeX_Main;-inkscape-font-specification:'KaTeX_Main, Normal';text-align:start;writing-mode:lr-tb;text-anchor:start"
     id="text4457"><path
       d="m 352.42251,95.832803 0.135,0.135 v 0.3375 q -0.1125,2.025 -1.3275,3.5775 -1.215,1.552497 -3.1275,2.047497 -0.6525,0.1575 -1.4625,0.1575 -0.8325,0 -1.4175,-0.135 -2.52,-0.495 -4.2525,-2.384997 -1.71,-1.89 -2.115,-4.68 -0.0225,-0.2025 -0.0225,-0.9675 0,-0.7425 0.0225,-0.9675 0.3825,-2.745 2.115,-4.635 1.7325,-1.9125 4.2525,-2.43 0.72,-0.135 1.1475,-0.135 0.045,0 0.18,0.0225 0.135,0 0.2025,0 0.54,0 0.765,0.045 1.6425,0.2925 2.8575,1.485 l 0.2925,0.27 0.675,-0.8775 q 0.6075,-0.8325 0.6975,-0.9225 0.0225,0 0.09,0 0.0675,-0.0225 0.135,-0.0225 0.1575,0 0.2925,0.135 v 6.3 l -0.135,0.135 h -0.765 q -0.135,-0.135 -0.1575,-0.3825 -0.2025,-1.845 -1.08,-3.195 -0.8775,-1.35 -2.1375,-1.7775 -0.4275,-0.1575 -1.125,-0.1575 -2.34,0 -3.915,1.575 -1.7775,1.7775 -1.7775,5.535 0,2.7225 0.855,4.2975 0.6975,1.3275 1.98,2.092497 1.305,0.765 2.9025,0.765 1.6425,0 2.8575,-1.169997 1.215,-1.1925 1.485,-2.79 0.1125,-0.5625 0.1125,-0.99 0,-0.1575 0.135,-0.2925 z"
       style="font-style:normal;font-variant:normal;font-weight:normal;font-stretch:normal;font-size:22.5px;line-height:125%;font-family:KaTeX_Main;-inkscape-font-specification:'KaTeX_Main, Normal';text-align:start;writing-mode:lr-tb;text-anchor:start"
       id="path38840" /></g><g
     aria-label="i"
     style="font-style:normal;font-variant:normal;font-weight:normal;font-stretch:normal;font-size:22.5px;line-height:0%;font-family:KaTeX_Main;-inkscape-font-specification:'KaTeX_Main, Normal';text-align:start;writing-mode:lr-tb;text-anchor:start;fill:#11accd"
     id="text4459"><path
       d="m 152.5201,52.562696 q 0.5625,0.045 0.9225,0.405 0.36,0.3375 0.36,0.945 0,0.81 -0.6075,1.1475 -0.2925,0.2025 -0.72,0.2025 -0.45,0 -0.7425,-0.2025 -0.6075,-0.3375 -0.6075,-1.1475 0,-0.63 0.3825,-0.99 0.405,-0.36 1.0125,-0.36 z m 2.61,15.0525 q -0.2475,-0.0675 -2.34,-0.0675 -2.0475,0 -2.4525,0.0675 h -0.18 v -1.035 h 0.36 q 0.63,0 1.1025,-0.0675 0.18,-0.0675 0.27,-0.2475 0.0225,-0.045 0.0225,-3.2625 0,-3.375 -0.09,-3.6 -0.18,-0.45 -1.3275,-0.45 h -0.2475 v -0.5175 q 0,-0.5175 0.045,-0.5175 l 0.225,-0.0225 q 0.225,-0.0225 0.63,-0.045 0.405,-0.0225 0.81,-0.045 0.3825,-0.0225 0.81,-0.045 0.4275,-0.045 0.6525,-0.0675 0.225,-0.0225 0.2475,-0.0225 h 0.0675 v 8.55 q 0.1125,0.225 0.27,0.2925 0.1575,0.045 0.7875,0.0675 h 0.5175 v 1.035 z"
       style="font-style:normal;font-variant:normal;font-weight:normal;font-stretch:normal;font-size:22.5px;line-height:125%;font-family:KaTeX_Main;-inkscape-font-specification:'KaTeX_Main, Normal';text-align:start;writing-mode:lr-tb;text-anchor:start"
       id="path38837" /></g><g
     aria-label="t=0"
     style="font-style:normal;font-variant:normal;font-weight:normal;font-stretch:normal;font-size:22.5px;line-height:0%;font-family:KaTeX_Main;-inkscape-font-specification:'KaTeX_Main, Normal';text-align:start;writing-mode:lr-tb;text-anchor:start;fill:#1fab54"
     id="text4461"><path
       d="m 194.1576,154.9528 q -0.1575,-0.1575 -0.1575,-0.225 0,-0.09 0.0675,-0.36 0.09,-0.2925 0.1125,-0.315 0.045,-0.1125 0.2025,-0.1125 0.18,-0.0225 1.1475,-0.0225 h 1.1925 l 0.4275,-1.8 q 0.4725,-1.8225 0.54,-1.9575 0.27,-0.63 1.035,-0.63 0.2925,0.0225 0.495,0.2025 0.225,0.18 0.225,0.4725 0,0.27 -0.4275,1.9125 -0.09,0.3825 -0.225,0.855 -0.1125,0.45 -0.18,0.675 l -0.045,0.225 q 0,0.045 1.125,0.045 h 1.1475 q 0.1575,0.1575 0.1575,0.2475 0,0.495 -0.2925,0.7875 h -2.4075 l -0.81,3.2625 q -0.8325,3.3525 -0.855,3.5325 -0.0225,0.1125 -0.0225,0.3375 0,0.945 0.6075,0.945 0.1575,0 0.27,-0.0225 1.125,-0.2025 2.0475,-1.8 0.225,-0.36 0.405,-0.8325 0.045,-0.135 0.1125,-0.1575 0.0675,-0.045 0.3375,-0.045 0.45,0 0.45,0.18 0,0.045 -0.09,0.27 -0.2475,0.72 -0.81,1.4625 -0.54,0.72 -1.1025,1.1475 -0.8325,0.63 -1.7775,0.63 -0.81,0 -1.395,-0.405 -0.5625,-0.4275 -0.765,-1.1025 -0.045,-0.18 -0.045,-0.6075 v -0.405 l 0.7875,-3.15 q 0.7875,-3.1725 0.81,-3.195 0,-0.045 -1.1475,-0.045 z"
       style="font-style:normal;font-variant:normal;font-weight:normal;font-stretch:normal;font-size:22.5px;line-height:125%;font-family:KaTeX_Math;-inkscape-font-specification:'KaTeX_Math, Normal';text-align:start;writing-mode:lr-tb;text-anchor:start"
       id="path38830" /><path
       d="m 202.96248,155.8078 q 0,-0.2925 0.315,-0.45 h 14.3325 q 0.3375,0.1575 0.3375,0.45 0,0.2475 -0.315,0.4275 l -7.155,0.0225 h -7.155 q -0.36,-0.1125 -0.36,-0.45 z m 0,4.365 q 0,-0.3375 0.36,-0.45 h 14.31 q 0.0225,0.0225 0.09,0.09 0.09,0.045 0.1125,0.09 0.045,0.0225 0.0675,0.1125 0.045,0.0675 0.045,0.1575 0,0.2925 -0.3375,0.45 h -14.3325 q -0.315,-0.1575 -0.315,-0.45 z"
       style="font-style:normal;font-variant:normal;font-weight:normal;font-stretch:normal;font-size:22.5px;line-height:125%;font-family:KaTeX_Main;-inkscape-font-specification:'KaTeX_Main, Normal';text-align:start;writing-mode:lr-tb;text-anchor:start"
       id="path38832" /><path
       d="m 221.35272,150.4528 q 1.26,-1.8225 3.4425,-1.8225 1.6425,0 2.88,1.125 0.6075,0.585 1.035,1.53 0.8325,1.8675 0.8325,5.13 0,3.4875 -0.9675,5.3325 -0.63,1.305 -1.845,1.89 -0.945,0.4725 -1.9125,0.4725 -2.5875,0 -3.78,-2.3625 -0.9675,-1.845 -0.9675,-5.3325 0,-2.0925 0.27,-3.4425 0.2925,-1.3725 1.0125,-2.52 z m 5.0625,-0.27 q -0.6525,-0.72 -1.5975,-0.72 -0.945,0 -1.62,0.72 -0.495,0.5175 -0.675,1.26 -0.18,0.7425 -0.225,2.565 0,0.135 -0.0225,0.8775 0,0.7425 0,1.2375 0,2.16 0.045,3.015 0.09,1.575 0.27,2.2725 0.18,0.675 0.675,1.17 0.6075,0.675 1.5525,0.675 0.9225,0 1.53,-0.675 0.495,-0.495 0.675,-1.17 0.18,-0.6975 0.27,-2.2725 0.045,-0.855 0.045,-3.015 0,-0.495 -0.0225,-1.2375 0,-0.7425 0,-0.8775 -0.045,-1.8225 -0.225,-2.565 -0.18,-0.7425 -0.675,-1.26 z"
       style="font-style:normal;font-variant:normal;font-weight:normal;font-stretch:normal;font-size:22.5px;line-height:125%;font-family:KaTeX_Main;-inkscape-font-specification:'KaTeX_Main, Normal';text-align:start;writing-mode:lr-tb;text-anchor:start"
       id="path38834" /></g><polyline
     class="st10"
     points="252,180 306,179.6 306,118.1 "
     id="polyline4463"
     style="fill:none;stroke:#000000;stroke-linecap:round;stroke-linejoin:round;stroke-miterlimit:10"
     transform="translate(7.5724992,-4.3847975)" /><g
     id="g4465"
     transform="translate(7.5724992,-4.3847975)"><g
       id="g4467"><path
         class="st23"
         d="m 240.3,190.2 c 0.6,-3.6 0.4,-7.8 -0.6,-12.1 -1.8,-7.5 -5.8,-13.5 -10.2,-16.1"
         id="path4469"
         style="fill:none;stroke:#1fab54;stroke-width:2;stroke-linecap:round;stroke-miterlimit:10"
         inkscape:connector-curvature="0" /><g
         id="g4471"><path
           class="st24"
           d="m 237.9,197 c 2.3,-2.8 5.7,-6.1 8.7,-7.9 l -6.1,0.1 -4.8,-3.8 c 1.4,3.3 2.1,8 2.2,11.6 z"
           id="path4473"
           style="fill:#1fab54"
           inkscape:connector-curvature="0" /></g></g></g><g
     id="g4475"
     transform="translate(7.5724992,-4.3847975)"><g
       id="g4477"><circle
         class="st0"
         cx="252"
         cy="180"
         r="3"
         id="circle4479"
         style="fill:#babec2" /><rect
         x="246"
         y="174"
         class="st1"
         width="12"
         height="12"
         id="rect4481"
         style="fill:none" /></g><g
       id="g4483"><circle
         class="st0"
         cx="216"
         cy="180"
         r="3"
         id="circle4485"
         style="fill:#babec2" /><rect
         x="210"
         y="174"
         class="st1"
         width="12"
         height="12"
         id="rect4487"
         style="fill:none" /></g><line
       class="st2"
       x1="216"
       y1="180"
       x2="252"
       y2="168.39999"
       id="line4489"
       style="fill:none;stroke:#babec2;stroke-linecap:round;stroke-linejoin:round;stroke-miterlimit:10" /></g><g
     id="g4491"
     transform="translate(7.5724992,-4.3847975)"><line
       class="st10"
       x1="216"
       y1="180"
       x2="253.7"
       y2="176.60001"
       id="line4493"
       style="fill:none;stroke:#000000;stroke-linecap:round;stroke-linejoin:round;stroke-miterlimit:10" /><g
       id="g4495"><circle
         cx="252"
         cy="180"
         r="3"
         id="circle4497" /><rect
         x="246"
         y="174"
         class="st1"
         width="12"
         height="12"
         id="rect4499"
         style="fill:none" /></g><g
       id="g4501"><circle
         cx="216"
         cy="180"
         r="3"
         id="circle4503" /><rect
         x="210"
         y="174"
         class="st1"
         width="12"
         height="12"
         id="rect4505"
         style="fill:none" /></g></g><g
     aria-label="+"
     style="font-style:normal;font-variant:normal;font-weight:normal;font-stretch:normal;font-size:22.5px;line-height:0%;font-family:KaTeX_Main;-inkscape-font-specification:'KaTeX_Main, Normal';text-align:start;writing-mode:lr-tb;text-anchor:start;fill:#ff9c39"
     id="text4507"><path
       d="m 203.6043,62.440593 q -0.315,-0.1575 -0.315,-0.45 0,-0.2925 0.315,-0.45 h 6.7275 v -3.375 l 0.0225,-3.375 q 0.225,-0.2925 0.4275,-0.2925 0.2925,0 0.45,0.3375 v 6.705 h 6.705 q 0.3375,0.18 0.3375,0.45 0,0.27 -0.3375,0.45 h -6.705 v 6.705 q -0.1575,0.315 -0.45,0.315 -0.2925,0 -0.45,-0.315 v -6.705 z"
       style="font-style:normal;font-variant:normal;font-weight:normal;font-stretch:normal;font-size:22.5px;line-height:0%;font-family:KaTeX_Main;-inkscape-font-specification:'KaTeX_Main, Normal';text-align:start;writing-mode:lr-tb;text-anchor:start;fill:#ff9c39"
       id="path38827" /></g><g
     aria-label="vR"
     style="font-style:normal;font-variant:normal;font-weight:normal;font-stretch:normal;font-size:22.5px;line-height:0%;font-family:KaTeX_Main;-inkscape-font-specification:KaTeX_Main;text-align:start;writing-mode:lr-tb;text-anchor:start;fill:#ff9c39"
     id="text4509"><path
       d="m 237.4521,73.862299 q -1.44,0 -2.295,-0.72 -0.8325,-0.7425 -0.8325,-2.16 0,-0.405 0.045,-0.765 0.2025,-1.08 1.0575,-3.3075 l 0.36,-1.08 q 0.135,-0.405 0.135,-0.765 0,-0.5625 -0.4275,-0.5625 -0.1575,0 -0.36,0.0675 -1.1475,0.405 -1.7325,2.5875 0,0.0225 -0.0225,0.09 -0.0225,0.045 -0.045,0.0675 0,0 -0.0225,0.0225 -0.0225,0.0225 -0.09,0.0225 -0.045,0 -0.09,0 -0.045,0 -0.18,0 h -0.315 q -0.135,-0.135 -0.135,-0.2025 0,-0.0675 0.0675,-0.3375 0.54,-1.7775 1.665,-2.655 0.6075,-0.4725 1.395,-0.4725 0.8775,0 1.44,0.495 0.5625,0.495 0.5625,1.305 0,0.3825 -0.0675,0.585 0,0.1575 -0.3375,0.99 -1.035,2.8125 -1.1025,4.005 0,0.6075 0.1125,0.99 0.2925,0.9675 1.4175,0.9675 0.6075,0 1.08,-0.36 1.395,-0.9225 2.3175,-4.2525 0.18,-0.63 0.18,-1.035 0,-0.99 -0.8775,-1.7775 -0.2925,-0.27 -0.2925,-0.6075 0,-0.5175 0.405,-0.9225 0.4275,-0.4275 0.945,-0.4275 0.54,0 0.8325,0.5175 0.2925,0.495 0.2925,1.1925 0,0.7875 -0.45,2.5875 -0.4275,1.7325 -1.08,3.015 -1.4175,2.9025 -3.555,2.9025 z"
       style="font-style:normal;font-variant:normal;font-weight:normal;font-stretch:normal;font-family:KaTeX_Math;-inkscape-font-specification:KaTeX_Math"
       id="path38822" /><path
       d="m 245.04054,69.507299 q -0.1625,-0.1625 -0.325,-0.195 -0.14625,-0.0325 -0.8125,-0.04875 h -0.53625 v -0.7475 h 2.84375 q 3.0225,0.01625 3.33125,0.065 0.0488,0.01625 0.21125,0.04875 0.73125,0.14625 1.3,0.455 1.54375,0.78 1.77125,2.12875 0.0163,0.08125 0.0163,0.26 0,0.91 -0.69875,1.5925 -0.6825,0.6825 -1.625,0.99125 -0.0325,0.01625 -0.0812,0.0325 -0.0325,0 -0.065,0.01625 l -0.0325,0.01625 q 0.0487,0.04875 0.17875,0.0975 1.17,0.65 1.44625,1.7225 0.0162,0.065 0.17875,1.0725 0.1625,1.0075 0.17875,1.0725 0.11375,0.585 0.27625,0.86125 0.17875,0.27625 0.455,0.37375 0.065,0.0325 0.27625,0.0325 h 0.0813 q 0.21125,0 0.39,-0.17875 0.325,-0.325 0.37375,-0.975 0,-0.17875 0.0488,-0.2275 0.065,-0.065 0.27625,-0.065 0.195,0 0.26,0.04875 0.065,0.0325 0.065,0.195 0,0.585 -0.2925,1.0725 -0.27625,0.47125 -0.6825,0.65 -0.26,0.0975 -0.6825,0.0975 -2.42125,-0.0975 -2.795,-1.82 -0.0325,-0.17875 -0.0488,-1.18625 0,-1.0075 -0.0975,-1.34875 -0.14625,-0.43875 -0.4875,-0.7475 -0.325,-0.325 -0.7475,-0.455 l -0.1625,-0.0325 -1.0725,-0.01625 h -1.0725 v 2.12875 l 0.0162,2.12875 q 0.11375,0.1625 0.27625,0.195 0.17875,0.0325 0.845,0.04875 h 0.53625 v 0.7475 h -0.17875 q -0.26,-0.04875 -2.3075,-0.04875 -2.06375,0 -2.32375,0.04875 h -0.17875 v -0.7475 h 0.53625 q 0.66625,-0.01625 0.8125,-0.04875 0.1625,-0.0325 0.325,-0.195 z m 5.85,1.34875 q -0.1625,-0.975 -0.8775,-1.28375 -0.69875,-0.30875 -2.145,-0.30875 -0.24375,0 -0.5525,0.01625 -0.30875,0 -0.325,0 -0.21125,0.01625 -0.26,0.13 -0.0487,0.065 -0.0487,2.21 v 2.145 h 0.9425 q 1.21875,0 1.80375,-0.0975 0.585,-0.11375 1.02375,-0.5525 0.27625,-0.27625 0.3575,-0.6175 0.0975,-0.34125 0.0975,-0.99125 0,-0.52 -0.0163,-0.65 z"
       style="font-style:normal;font-variant:normal;font-weight:normal;font-stretch:normal;font-size:16.25px;line-height:125%;font-family:KaTeX_Main;-inkscape-font-specification:'KaTeX_Main, Normal';text-align:start;writing-mode:lr-tb;text-anchor:start"
       id="path38824" /></g><g
     aria-label="+"
     style="font-style:normal;font-variant:normal;font-weight:normal;font-stretch:normal;font-size:22.5px;line-height:0%;font-family:KaTeX_Main;-inkscape-font-specification:'KaTeX_Main, Normal';text-align:start;writing-mode:lr-tb;text-anchor:start;fill:#ff9c39"
     id="text4513"><path
       d="m 189.14791,80.439708 q -0.315,-0.1575 -0.315,-0.45 0,-0.2925 0.315,-0.45 h 6.7275 v -3.375 l 0.0225,-3.375 q 0.225,-0.2925 0.4275,-0.2925 0.2925,0 0.45,0.3375 v 6.705 h 6.705 q 0.3375,0.18 0.3375,0.45 0,0.27 -0.3375,0.45 h -6.705 v 6.705 q -0.1575,0.315 -0.45,0.315 -0.2925,0 -0.45,-0.315 v -6.705 z"
       style="font-style:normal;font-variant:normal;font-weight:normal;font-stretch:normal;font-size:22.5px;line-height:0%;font-family:KaTeX_Main;-inkscape-font-specification:'KaTeX_Main, Normal';text-align:start;writing-mode:lr-tb;text-anchor:start;fill:#ff9c39"
       id="path38819" /></g><g
     aria-label="−"
     style="font-style:normal;font-variant:normal;font-weight:normal;font-stretch:normal;font-size:22.5px;line-height:0%;font-family:KaTeX_Main;-inkscape-font-specification:'KaTeX_Main, Normal';text-align:start;writing-mode:lr-tb;text-anchor:start;fill:#ff9c39"
     id="text4515"><path
       d="m 189.7773,140.4403 q -0.315,-0.1575 -0.315,-0.45 0,-0.2925 0.315,-0.45 h 13.0725 q 0.3375,0.18 0.3375,0.45 0,0.27 -0.3375,0.45 z"
       style="font-style:normal;font-variant:normal;font-weight:normal;font-stretch:normal;font-size:22.5px;line-height:0%;font-family:KaTeX_Main;-inkscape-font-specification:'KaTeX_Main, Normal';text-align:start;writing-mode:lr-tb;text-anchor:start;fill:#ff9c39"
       id="path38816" /></g><g
     aria-label="−"
     style="font-style:normal;font-variant:normal;font-weight:normal;font-stretch:normal;font-size:22.5px;line-height:0%;font-family:KaTeX_Main;-inkscape-font-specification:'KaTeX_Main, Normal';text-align:start;writing-mode:lr-tb;text-anchor:start;fill:#ff9c39"
     id="text4517"><path
       d="m 267.7773,62.440303 q -0.315,-0.1575 -0.315,-0.45 0,-0.2925 0.315,-0.45 h 13.0725 q 0.3375,0.18 0.3375,0.45 0,0.27 -0.3375,0.45 z"
       style="font-style:normal;font-variant:normal;font-weight:normal;font-stretch:normal;font-size:22.5px;line-height:0%;font-family:KaTeX_Main;-inkscape-font-specification:'KaTeX_Main, Normal';text-align:start;writing-mode:lr-tb;text-anchor:start;fill:#ff9c39"
       id="path38813" /></g><g
     aria-label="vL"
     style="font-style:normal;font-variant:normal;font-weight:normal;font-stretch:normal;font-size:22.5px;line-height:0%;font-family:KaTeX_Main;-inkscape-font-specification:KaTeX_Main;text-align:start;writing-mode:lr-tb;text-anchor:start;fill:#ff9c39"
     id="text4519"><path
       d="m 192.9949,110.23141 q -1.44,0 -2.295,-0.72 -0.8325,-0.7425 -0.8325,-2.16 0,-0.405 0.045,-0.765 0.2025,-1.08 1.0575,-3.3075 l 0.36,-1.08 q 0.135,-0.405 0.135,-0.765 0,-0.5625 -0.4275,-0.5625 -0.1575,0 -0.36,0.0675 -1.1475,0.405 -1.7325,2.5875 0,0.0225 -0.0225,0.09 -0.0225,0.045 -0.045,0.0675 0,0 -0.0225,0.0225 -0.0225,0.0225 -0.09,0.0225 -0.045,0 -0.09,0 -0.045,0 -0.18,0 h -0.315 q -0.135,-0.135 -0.135,-0.2025 0,-0.0675 0.0675,-0.3375 0.54,-1.7775 1.665,-2.655 0.6075,-0.4725 1.395,-0.4725 0.8775,0 1.44,0.495 0.5625,0.495 0.5625,1.305 0,0.3825 -0.0675,0.585 0,0.1575 -0.3375,0.99 -1.035,2.8125 -1.1025,4.005 0,0.6075 0.1125,0.99 0.2925,0.9675 1.4175,0.9675 0.6075,0 1.08,-0.36 1.395,-0.9225 2.3175,-4.2525 0.18,-0.63 0.18,-1.035 0,-0.99 -0.8775,-1.7775 -0.2925,-0.27 -0.2925,-0.6075 0,-0.5175 0.405,-0.9225 0.4275,-0.4275 0.945,-0.4275 0.54,0 0.8325,0.5175 0.2925,0.495 0.2925,1.1925 0,0.7875 -0.45,2.5875 -0.4275,1.7325 -1.08,3.015 -1.4175,2.9025 -3.555,2.9025 z"
       style="font-style:normal;font-variant:normal;font-weight:normal;font-stretch:normal;font-family:KaTeX_Math;-inkscape-font-specification:KaTeX_Math"
       id="path38808" /><path
       d="m 200.55084,105.87641 q -0.1625,-0.1625 -0.325,-0.195 -0.14625,-0.0325 -0.8125,-0.0487 h -0.53625 v -0.7475 h 0.17875 q 0.2925,0.0487 2.3725,0.0487 2.405,0 2.6975,-0.0487 h 0.195 v 0.7475 h -0.43875 q -0.60125,0 -0.78,0.0162 -0.455,0.0162 -0.585,0.065 -0.13,0.0325 -0.26,0.1625 l -0.0163,4.55 q 0,4.55 0.0163,4.59875 0.0162,0.0812 0.065,0.11375 0.0975,0.0813 1.235,0.0813 1.15375,0 1.57625,-0.0975 0.95875,-0.27625 1.41375,-0.91 0.455,-0.63375 0.63375,-1.82 0,-0.0813 0.0163,-0.27625 0.0325,-0.21125 0.0487,-0.37375 0.0325,-0.1625 0.0325,-0.17875 0,-0.0163 0.325,-0.0163 h 0.325 v 0.0813 q -0.0325,0.0487 -0.2275,2.145 -0.195,2.08 -0.2275,2.12875 v 0.0812 h -8.59625 v -0.7475 h 0.53625 q 0.66625,-0.0162 0.8125,-0.0488 0.1625,-0.0325 0.325,-0.195 z"
       style="font-size:16.25px"
       id="path38810" /></g><g
     aria-label="1H"
     style="font-style:normal;font-variant:normal;font-weight:normal;font-stretch:normal;font-size:22.5px;line-height:0%;font-family:KaTeX_Main;-inkscape-font-specification:KaTeX_Main;text-align:start;writing-mode:lr-tb;text-anchor:start"
     id="text4523"><path
       d="m 128.50737,137.39455 q -0.3825,-0.0675 -3.5775,-0.0675 -3.15,0 -3.5325,0.0675 h -0.27 v -1.035 h 0.585 q 1.305,0 1.6875,-0.0675 0.18,-0.0225 0.54,-0.27 v -11.6325 q -0.045,0 -0.18,0.0675 -1.035,0.405 -2.3175,0.4275 h -0.4275 v -1.035 h 0.4275 q 1.89,-0.0675 3.15,-0.855 0.405,-0.225 0.6975,-0.5175 0.045,-0.0675 0.27,-0.0675 0.225,0 0.3825,0.135 v 6.7275 l 0.0225,6.75 q 0.3375,0.3375 1.4625,0.3375 h 0.7425 0.585 v 1.035 z"
       style="font-style:normal;font-variant:normal;font-weight:normal;font-stretch:normal;font-size:22.5px;line-height:0%;font-family:KaTeX_Main;-inkscape-font-specification:KaTeX_Main;text-align:start;writing-mode:lr-tb;text-anchor:start"
       id="path38803" /><path
       d="m 136.27737,123.39955 q -0.225,-0.225 -0.45,-0.27 -0.2025,-0.045 -1.125,-0.0675 h -0.7425 v -1.035 h 0.2475 q 0.3825,0.0675 3.24,0.0675 2.8575,0 3.24,-0.0675 h 0.2475 v 1.035 h -0.7425 q -0.9225,0.0225 -1.17,0.0675 -0.225,0.045 -0.3825,0.27 l -0.0225,2.745 v 2.745 h 6.4125 v -5.49 q -0.225,-0.225 -0.45,-0.27 -0.2025,-0.045 -1.125,-0.0675 h -0.7425 v -1.035 h 0.2475 q 0.3825,0.0675 3.24,0.0675 2.8575,0 3.24,-0.0675 h 0.2475 v 1.035 h -0.7425 q -0.9225,0.0225 -1.17,0.0675 -0.225,0.045 -0.3825,0.27 v 12.6225 q 0.1575,0.225 0.3825,0.27 0.2475,0.045 1.17,0.0675 h 0.7425 v 1.035 h -0.2475 q -0.3825,-0.0675 -3.24,-0.0675 -2.8575,0 -3.24,0.0675 h -0.2475 v -1.035 h 0.7425 q 0.9225,-0.0225 1.125,-0.0675 0.225,-0.045 0.45,-0.27 v -6.0975 h -6.4125 v 3.0375 l 0.0225,3.06 q 0.1575,0.225 0.3825,0.27 0.2475,0.045 1.17,0.0675 h 0.7425 v 1.035 h -0.2475 q -0.3825,-0.0675 -3.24,-0.0675 -2.8575,0 -3.24,0.0675 h -0.2475 v -1.035 h 0.7425 q 0.9225,-0.0225 1.125,-0.0675 0.225,-0.045 0.45,-0.27 z"
       style="font-style:normal;font-variant:normal;font-weight:normal;font-stretch:normal;font-size:22.5px;line-height:0%;font-family:KaTeX_Main;-inkscape-font-specification:KaTeX_Main;text-align:start;writing-mode:lr-tb;text-anchor:start"
       id="path38805" /></g><g
     aria-label="F"
     style="font-style:normal;font-variant:normal;font-weight:normal;font-stretch:normal;font-size:22.5px;line-height:0%;font-family:KaTeX_Math;-inkscape-font-specification:'KaTeX_Math, Normal';text-align:start;writing-mode:lr-tb;text-anchor:start"
     id="text4527"><path
       d="m 357.67306,123.46705 q -0.225,-0.225 -0.45,-0.27 -0.2025,-0.045 -1.125,-0.0675 h -0.7425 v -1.035 h 12.5325 v 0.09 l 0.315,2.61 q 0.315,2.5875 0.315,2.61 v 0.09 h -0.9 v -0.09 q -0.1575,-1.1025 -0.2025,-1.2825 -0.2025,-1.2825 -0.7425,-1.9575 -0.5175,-0.675 -1.6425,-0.9 -0.585,-0.1125 -2.7225,-0.1125 h -1.08 q -0.9675,0 -1.1025,0.1125 -0.0675,0.045 -0.09,0.1575 -0.0225,0.045 -0.0225,2.9475 v 2.8575 h 1.17 q 0.945,-0.0225 1.3725,-0.0675 0.4275,-0.045 0.7875,-0.27 0.3825,-0.225 0.495,-0.63 0.135,-0.4275 0.18,-1.1925 v -0.4725 h 0.9 v 6.3 h -0.9 v -0.4725 q -0.045,-0.765 -0.18,-1.17 -0.1125,-0.4275 -0.495,-0.6525 -0.36,-0.225 -0.7875,-0.27 -0.4275,-0.045 -1.3725,-0.0675 h -1.17 v 2.88 l 0.0225,2.88 q 0.18,0.18 0.36,0.2475 0.18,0.045 0.81,0.0675 0.2475,0.0225 1.08,0.0225 h 0.6075 v 1.035 h -0.27 q -0.585,-0.0675 -3.735,-0.0675 -2.8575,0 -3.285,0.0675 h -0.2475 v -1.035 h 0.7425 q 0.9225,-0.0225 1.125,-0.0675 0.225,-0.045 0.45,-0.27 z"
       style="font-style:normal;font-variant:normal;font-weight:normal;font-stretch:normal;font-size:22.5px;line-height:125%;font-family:KaTeX_Main;-inkscape-font-specification:KaTeX_Main;text-align:start;writing-mode:lr-tb;text-anchor:start"
       id="path38800" /></g><g
     id="g4529"
     transform="translate(7.5724992,-4.3847975)"><g
       aria-label="1"
       style="font-size:21px;line-height:0%;font-family:KaTeX_Main-Regular"
       id="text4531"><path
         d="m 341.99501,131.9998 q -0.3825,-0.0675 -3.5775,-0.0675 -3.15,0 -3.5325,0.0675 h -0.27 v -1.035 h 0.585 q 1.305,0 1.6875,-0.0675 0.18,-0.0225 0.54,-0.27 v -11.6325 q -0.045,0 -0.18,0.0675 -1.035,0.405 -2.3175,0.4275 h -0.4275 v -1.035 h 0.4275 q 1.89,-0.0675 3.15,-0.855 0.405,-0.225 0.6975,-0.5175 0.045,-0.0675 0.27,-0.0675 0.225,0 0.3825,0.135 v 6.7275 l 0.0225,6.75 q 0.3375,0.3375 1.4625,0.3375 h 0.7425 0.585 v 1.035 z"
         style="font-style:normal;font-variant:normal;font-weight:normal;font-stretch:normal;font-size:22.5px;line-height:125%;font-family:KaTeX_Main;-inkscape-font-specification:'KaTeX_Main, Normal';text-align:start;writing-mode:lr-tb;text-anchor:start"
         id="path38797" /></g><g
       aria-label="4"
       style="font-size:21px;line-height:0%;font-family:KaTeX_Main-Regular"
       id="text4533"><path
         d="m 341.29148,151.9998 q -0.315,-0.0675 -2.9025,-0.0675 -2.7,0 -3.015,0.0675 h -0.2025 v -1.035 h 0.6975 q 0.9675,-0.0225 1.1925,-0.1125 0.18,-0.045 0.27,-0.225 0.0225,-0.045 0.0225,-1.215 v -1.125 h -5.8275 v -1.035 l 3.3975,-5.1975 q 3.4425,-5.22 3.4875,-5.2425 0.045,-0.045 0.4725,-0.045 h 0.405 l 0.135,0.135 v 10.35 h 2.07 v 1.035 h -2.07 v 1.1475 q 0,0.9225 0,1.08 0.0225,0.1575 0.135,0.27 0.18,0.1575 1.2825,0.18 h 0.6525 v 1.035 z m -3.8025,-4.7475 v -7.515 l -4.9275,7.4925 2.4525,0.0225 z"
         style="font-style:normal;font-variant:normal;font-weight:normal;font-stretch:normal;font-size:22.5px;line-height:125%;font-family:KaTeX_Main;-inkscape-font-specification:'KaTeX_Main, Normal';text-align:start;writing-mode:lr-tb;text-anchor:start"
         id="path38794" /></g><line
       class="st20"
       x1="330"
       y1="134.3"
       x2="345"
       y2="134.3"
       id="line4535"
       style="fill:none;stroke:#000000;stroke-miterlimit:10" /></g><g
     style="font-style:normal;font-variant:normal;font-weight:normal;font-stretch:normal;font-size:19.71875px;line-height:125%;font-family:KaTeX_Main;-inkscape-font-specification:KaTeX_Main;text-align:start;writing-mode:lr-tb;text-anchor:start;fill:#ff9c39"
     id="text4541" /><g
     aria-label="vC = 0"
     style="font-style:normal;font-variant:normal;font-weight:normal;font-stretch:normal;font-size:22.5px;line-height:0%;font-family:KaTeX_Main;-inkscape-font-specification:'KaTeX_Main, Normal';text-align:start;writing-mode:lr-tb;text-anchor:start;fill:#ff9c39"
     id="text4549"><path
       d="m 372.99501,62.437499 q -1.44,0 -2.295,-0.72 -0.8325,-0.7425 -0.8325,-2.16 0,-0.405 0.045,-0.765 0.2025,-1.08 1.0575,-3.3075 l 0.36,-1.08 q 0.135,-0.405 0.135,-0.765 0,-0.5625 -0.4275,-0.5625 -0.1575,0 -0.36,0.0675 -1.1475,0.405 -1.7325,2.5875 0,0.0225 -0.0225,0.09 -0.0225,0.045 -0.045,0.0675 0,0 -0.0225,0.0225 -0.0225,0.0225 -0.09,0.0225 -0.045,0 -0.09,0 -0.045,0 -0.18,0 h -0.315 q -0.135,-0.135 -0.135,-0.2025 0,-0.0675 0.0675,-0.3375 0.54,-1.7775 1.665,-2.655 0.6075,-0.4725 1.395,-0.4725 0.8775,0 1.44,0.495 0.5625,0.495 0.5625,1.305 0,0.3825 -0.0675,0.585 0,0.1575 -0.3375,0.99 -1.035,2.8125 -1.1025,4.005 0,0.6075 0.1125,0.99 0.2925,0.9675 1.4175,0.9675 0.6075,0 1.08,-0.36 1.395,-0.9225 2.3175,-4.2525 0.18,-0.63 0.18,-1.035 0,-0.99 -0.8775,-1.7775 -0.2925,-0.27 -0.2925,-0.6075 0,-0.5175 0.405,-0.9225 0.4275,-0.4275 0.945,-0.4275 0.54,0 0.8325,0.5175 0.2925,0.495 0.2925,1.1925 0,0.7875 -0.45,2.5875 -0.4275,1.7325 -1.08,3.015 -1.4175,2.9025 -3.555,2.9025 z"
       style="font-style:normal;font-variant:normal;font-weight:normal;font-stretch:normal;font-size:22.5px;line-height:125%;font-family:KaTeX_Math;-inkscape-font-specification:'KaTeX_Math, Normal';text-align:start;writing-mode:lr-tb;text-anchor:start"
       id="path38784" /><path
       d="m 388.12345,62.931374 0.0878,0.08775 v 0.219375 q -0.0731,1.31625 -0.86288,2.325375 -0.78975,1.009125 -2.03287,1.330875 -0.42413,0.102375 -0.95063,0.102375 -0.54112,0 -0.92137,-0.08775 -1.638,-0.32175 -2.76413,-1.55025 -1.1115,-1.2285 -1.37475,-3.042 -0.0146,-0.131625 -0.0146,-0.628875 0,-0.482625 0.0146,-0.628875 0.24863,-1.78425 1.37475,-3.01275 1.12613,-1.243125 2.76413,-1.5795 0.468,-0.08775 0.74587,-0.08775 0.0292,0 0.117,0.01463 0.0877,0 0.13163,0 0.351,0 0.49725,0.02925 1.06762,0.190125 1.85737,0.96525 l 0.19013,0.1755 0.43875,-0.570375 q 0.39487,-0.541125 0.45337,-0.599625 0.0146,0 0.0585,0 0.0439,-0.01463 0.0878,-0.01463 0.10238,0 0.19013,0.08775 v 4.095 l -0.0878,0.08775 h -0.49725 q -0.0877,-0.08775 -0.10238,-0.248625 -0.13162,-1.19925 -0.702,-2.07675 -0.57037,-0.8775 -1.38937,-1.155375 -0.27788,-0.102375 -0.73125,-0.102375 -1.521,0 -2.54475,1.02375 -1.15538,1.155375 -1.15538,3.59775 0,1.769625 0.55575,2.793375 0.45338,0.862875 1.287,1.360125 0.84825,0.49725 1.88663,0.49725 1.06762,0 1.85737,-0.7605 0.78975,-0.775125 0.96525,-1.8135 0.0731,-0.365625 0.0731,-0.6435 0,-0.102375 0.0878,-0.190125 z"
       style="font-style:normal;font-variant:normal;font-weight:normal;font-stretch:normal;font-size:64.99999762%;line-height:125%;font-family:KaTeX_Main;-inkscape-font-specification:'KaTeX_Main, Normal';text-align:start;writing-mode:lr-tb;baseline-shift:sub;text-anchor:start"
       id="path38786" /><path
       d="m 395.92479,54.382499 q 0,-0.2925 0.315,-0.45 h 14.3325 q 0.3375,0.1575 0.3375,0.45 0,0.2475 -0.315,0.4275 l -7.155,0.0225 h -7.155 q -0.36,-0.1125 -0.36,-0.45 z m 0,4.365 q 0,-0.3375 0.36,-0.45 h 14.31 q 0.0225,0.0225 0.09,0.09 0.09,0.045 0.1125,0.09 0.045,0.0225 0.0675,0.1125 0.045,0.0675 0.045,0.1575 0,0.2925 -0.3375,0.45 h -14.3325 q -0.315,-0.1575 -0.315,-0.45 z"
       style="font-style:normal;font-variant:normal;font-weight:normal;font-stretch:normal;font-size:22.5px;line-height:125%;font-family:KaTeX_Main;-inkscape-font-specification:'KaTeX_Main, Normal';text-align:start;writing-mode:lr-tb;text-anchor:start"
       id="path38788" /><path
       d="m 419.94003,49.027499 q 1.26,-1.8225 3.4425,-1.8225 1.6425,0 2.88,1.125 0.6075,0.585 1.035,1.53 0.8325,1.8675 0.8325,5.13 0,3.4875 -0.9675,5.3325 -0.63,1.305 -1.845,1.89 -0.945,0.4725 -1.9125,0.4725 -2.5875,0 -3.78,-2.3625 -0.9675,-1.845 -0.9675,-5.3325 0,-2.0925 0.27,-3.4425 0.2925,-1.3725 1.0125,-2.52 z m 5.0625,-0.27 q -0.6525,-0.72 -1.5975,-0.72 -0.945,0 -1.62,0.72 -0.495,0.5175 -0.675,1.26 -0.18,0.7425 -0.225,2.565 0,0.135 -0.0225,0.8775 0,0.7425 0,1.2375 0,2.16 0.045,3.015 0.09,1.575 0.27,2.2725 0.18,0.675 0.675,1.17 0.6075,0.675 1.5525,0.675 0.9225,0 1.53,-0.675 0.495,-0.495 0.675,-1.17 0.18,-0.6975 0.27,-2.2725 0.045,-0.855 0.045,-3.015 0,-0.495 -0.0225,-1.2375 0,-0.7425 0,-0.8775 -0.045,-1.8225 -0.225,-2.565 -0.18,-0.7425 -0.675,-1.26 z"
       style="font-style:normal;font-variant:normal;font-weight:normal;font-stretch:normal;font-size:22.5px;line-height:125%;font-family:KaTeX_Main;-inkscape-font-specification:'KaTeX_Main, Normal';text-align:start;writing-mode:lr-tb;text-anchor:start"
       id="path38790" /></g><g
     style="font-style:normal;font-variant:normal;font-weight:normal;font-stretch:normal;font-size:19.71875px;line-height:125%;font-family:KaTeX_Main;-inkscape-font-specification:KaTeX_Main;text-align:start;writing-mode:lr-tb;text-anchor:start;fill:#ff9c39"
     id="text4555" /><g
     aria-label="t = 0+,"
     style="font-style:normal;font-variant:normal;font-weight:normal;font-stretch:normal;font-size:22.5px;line-height:0%;font-family:KaTeX_Main;-inkscape-font-specification:'KaTeX_Main, Normal';text-align:start;writing-mode:lr-tb;text-anchor:start;fill:#11accd"
     id="text4559"><path
       d="M 10.1575,28.327311 Q 10,28.169811 10,28.102311 q 0,-0.09 0.0675,-0.36 0.09,-0.2925 0.1125,-0.315 0.045,-0.1125 0.2025,-0.1125 0.18,-0.0225 1.1475,-0.0225 h 1.1925 l 0.4275,-1.8 q 0.4725,-1.8225 0.54,-1.9575 0.27,-0.63 1.035,-0.63 0.2925,0.0225 0.495,0.2025 0.225,0.18 0.225,0.4725 0,0.27 -0.4275,1.9125 -0.09,0.3825 -0.225,0.855 -0.1125,0.45 -0.18,0.675 l -0.045,0.225 q 0,0.045 1.125,0.045 H 16.84 q 0.1575,0.1575 0.1575,0.2475 0,0.495 -0.2925,0.7875 h -2.4075 l -0.81,3.2625 q -0.8325,3.3525 -0.855,3.5325 -0.0225,0.1125 -0.0225,0.3375 0,0.945 0.6075,0.945 0.1575,0 0.27,-0.0225 1.125,-0.2025 2.0475,-1.8 0.225,-0.36 0.405,-0.8325 0.045,-0.135 0.1125,-0.1575 0.0675,-0.045 0.3375,-0.045 0.45,0 0.45,0.18 0,0.045 -0.09,0.27 -0.2475,0.72 -0.81,1.4625 -0.54,0.72 -1.1025,1.1475 -0.8325,0.63 -1.7775,0.63 -0.81,0 -1.395,-0.405 -0.5625,-0.4275 -0.765,-1.1025 -0.045,-0.18 -0.045,-0.6075 v -0.405 l 0.7875,-3.15 q 0.7875,-3.1725 0.81,-3.195 0,-0.045 -1.1475,-0.045 z"
       style="font-style:normal;font-variant:normal;font-weight:normal;font-stretch:normal;font-size:22.5px;line-height:125%;font-family:KaTeX_Math;-inkscape-font-specification:'KaTeX_Math, Normal';text-align:start;writing-mode:lr-tb;text-anchor:start"
       id="path38772" /><path
       d="m 24.587383,29.182311 q 0,-0.2925 0.315,-0.45 h 14.3325 q 0.3375,0.1575 0.3375,0.45 0,0.2475 -0.315,0.4275 l -7.155,0.0225 h -7.155 q -0.36,-0.1125 -0.36,-0.45 z m 0,4.365 q 0,-0.3375 0.36,-0.45 h 14.31 q 0.0225,0.0225 0.09,0.09 0.09,0.045 0.1125,0.09 0.045,0.0225 0.0675,0.1125 0.045,0.0675 0.045,0.1575 0,0.2925 -0.3375,0.45 h -14.3325 q -0.315,-0.1575 -0.315,-0.45 z"
       style="font-style:normal;font-variant:normal;font-weight:normal;font-stretch:normal;font-size:22.5px;line-height:125%;font-family:KaTeX_Main;-inkscape-font-specification:'KaTeX_Main, Normal';text-align:start;writing-mode:lr-tb;text-anchor:start"
       id="path38774" /><path
       d="m 48.602617,23.827311 q 1.26,-1.8225 3.4425,-1.8225 1.6425,0 2.88,1.125 0.6075,0.585 1.035,1.53 0.8325,1.8675 0.8325,5.13 0,3.4875 -0.9675,5.3325 -0.63,1.305 -1.845,1.89 -0.945,0.4725 -1.9125,0.4725 -2.5875,0 -3.78,-2.3625 -0.9675,-1.845 -0.9675,-5.3325 0,-2.0925 0.27,-3.4425 0.2925,-1.3725 1.0125,-2.52 z m 5.0625,-0.27 q -0.6525,-0.72 -1.5975,-0.72 -0.945,0 -1.62,0.72 -0.495,0.5175 -0.675,1.26 -0.18,0.7425 -0.225,2.565 0,0.135 -0.0225,0.8775 0,0.7425 0,1.2375 0,2.16 0.045,3.015 0.09,1.575 0.27,2.2725 0.18,0.675 0.675,1.17 0.6075,0.675 1.5525,0.675 0.9225,0 1.53,-0.675 0.495,-0.495 0.675,-1.17 0.18,-0.6975 0.27,-2.2725 0.045,-0.855 0.045,-3.015 0,-0.495 -0.0225,-1.2375 0,-0.7425 0,-0.8775 -0.045,-1.8225 -0.225,-2.565 -0.18,-0.7425 -0.675,-1.26 z"
       style="font-style:normal;font-variant:normal;font-weight:normal;font-stretch:normal;font-size:22.5px;line-height:125%;font-family:KaTeX_Main;-inkscape-font-specification:'KaTeX_Main, Normal';text-align:start;writing-mode:lr-tb;text-anchor:start"
       id="path38776" /><path
       d="m 59.267617,25.814811 q -0.315,-0.1575 -0.315,-0.45 0,-0.2925 0.315,-0.45 h 6.7275 v -3.375 l 0.0225,-3.375 q 0.225,-0.2925 0.4275,-0.2925 0.2925,0 0.45,0.3375 v 6.705 h 6.705 q 0.3375,0.18 0.3375,0.45 0,0.27 -0.3375,0.45 h -6.705 v 6.705 q -0.1575,0.315 -0.45,0.315 -0.2925,0 -0.45,-0.315 v -6.705 z"
       style="font-style:normal;font-variant:normal;font-weight:normal;font-stretch:normal;font-size:22.5px;line-height:125%;font-family:KaTeX_Main;-inkscape-font-specification:'KaTeX_Main, Normal';text-align:start;writing-mode:lr-tb;text-anchor:start"
       id="path38778" /><path
       d="m 77.342852,36.607311 q -0.405,-0.405 -0.405,-0.9675 0,-0.5625 0.36,-0.9675 0.3825,-0.405 0.9675,-0.405 0.855,0 1.2375,0.72 0.405,0.72 0.405,1.8225 0,0.4275 -0.045,0.7875 -0.315,2.0025 -1.6425,3.4425 -0.315,0.315 -0.405,0.315 -0.09,0 -0.2925,-0.2025 -0.2025,-0.2025 -0.2025,-0.2925 0,-0.1125 0.225,-0.3375 1.395,-1.4175 1.53,-3.465 v -0.27 q -0.0225,0 -0.135,0.0675 -0.2925,0.135 -0.6075,0.135 -0.585,0 -0.99,-0.3825 z"
       style="font-style:normal;font-variant:normal;font-weight:normal;font-stretch:normal;font-size:22.5px;line-height:125%;font-family:KaTeX_Main;-inkscape-font-specification:'KaTeX_Main, Normal';text-align:start;writing-mode:lr-tb;text-anchor:start"
       id="path38780" /></g><g
     style="font-style:normal;font-variant:normal;font-weight:normal;font-stretch:normal;font-size:19.71875px;line-height:125%;font-family:KaTeX_Main;-inkscape-font-specification:KaTeX_Main;text-align:start;writing-mode:lr-tb;text-anchor:start;fill:#11accd"
     id="text4561" /><g
     style="font-style:normal;font-variant:normal;font-weight:normal;font-stretch:normal;font-size:19.71875px;line-height:125%;font-family:KaTeX_Main;-inkscape-font-specification:KaTeX_Main;text-align:start;writing-mode:lr-tb;text-anchor:start;fill:#11accd"
     id="text4563" /><g
     style="font-style:normal;font-variant:normal;font-weight:normal;font-stretch:normal;font-size:19.71875px;line-height:125%;font-family:KaTeX_Main;-inkscape-font-specification:KaTeX_Main;text-align:start;writing-mode:lr-tb;text-anchor:start;fill:#11accd"
     id="text4565" /><g
     style="font-style:normal;font-variant:normal;font-weight:normal;font-stretch:normal;font-size:19.71875px;line-height:125%;font-family:KaTeX_Main;-inkscape-font-specification:KaTeX_Main;text-align:start;writing-mode:lr-tb;text-anchor:start;fill:#11accd"
     id="text4567" /><g
     aria-label="i = 1.75A"
     style="font-style:normal;font-variant:normal;font-weight:normal;font-stretch:normal;font-size:22.5px;line-height:0%;font-family:KaTeX_Main;-inkscape-font-specification:'KaTeX_Main, Normal';text-align:start;writing-mode:lr-tb;text-anchor:start;fill:#11accd"
     id="text4571"><path
       d="m 13.7125,54.689995 q 0,-0.5175 0.4275,-0.945 0.4275,-0.4275 0.99,-0.4275 0.405,0 0.675,0.27 0.2925,0.27 0.2925,0.675 0,0.495 -0.45,0.945 -0.45,0.45 -0.99,0.45 -0.405,0 -0.675,-0.27 -0.27,-0.27 -0.27,-0.6975 z m -0.5175,13.7475 q -0.8775,0 -1.4175,-0.5175 -0.54,-0.5175 -0.54,-1.395 0,-0.3825 0.045,-0.5175 0,-0.045 1.035,-2.7675 1.035,-2.745 1.035,-2.79 0.1125,-0.36 0.1125,-0.81 0,-0.54 -0.3825,-0.54 h -0.045 q -0.54,0 -1.035,0.5175 -0.72,0.7425 -1.0575,2.115 0,0.0225 -0.0225,0.09 -0.0225,0.045 -0.045,0.0675 0,0 -0.0225,0.0225 -0.0225,0.0225 -0.09,0.0225 -0.045,0 -0.09,0 -0.045,0 -0.18,0 H 10.18 q -0.135,-0.135 -0.135,-0.2025 0,-0.0675 0.0675,-0.315 0.585,-1.935 1.71,-2.7 0.6075,-0.4725 1.305,-0.4725 0.9,0 1.485,0.5175 0.585,0.5175 0.585,1.395 0,0.2925 -0.1125,0.675 -0.0225,0.045 -1.035,2.7675 l -1.0125,2.7225 q -0.1125,0.495 -0.1125,0.72 0,0.5625 0.3825,0.5625 0.315,0 0.5625,-0.135 0.99,-0.4725 1.5525,-2.3625 0.0675,-0.27 0.1125,-0.315 0.0675,-0.045 0.3825,-0.045 0.2025,0 0.27,0.0225 0.09,0 0.135,0.045 0.045,0.045 0.045,0.1575 0,0.09 -0.0675,0.2925 -0.4275,1.2825 -1.2375,2.2275 -0.7875,0.945 -1.8675,0.945 z"
       style="font-style:normal;font-variant:normal;font-weight:normal;font-stretch:normal;font-size:22.5px;line-height:125%;font-family:KaTeX_Math;-inkscape-font-specification:'KaTeX_Math, Normal';text-align:start;writing-mode:lr-tb;text-anchor:start"
       id="path38753" /><path
       d="m 24.235821,60.382495 q 0,-0.2925 0.315,-0.45 h 14.3325 q 0.3375,0.1575 0.3375,0.45 0,0.2475 -0.315,0.4275 l -7.155,0.0225 h -7.155 q -0.36,-0.1125 -0.36,-0.45 z m 0,4.365 q 0,-0.3375 0.36,-0.45 h 14.31 q 0.0225,0.0225 0.09,0.09 0.09,0.045 0.1125,0.09 0.045,0.0225 0.0675,0.1125 0.045,0.0675 0.045,0.1575 0,0.2925 -0.3375,0.45 h -14.3325 q -0.315,-0.1575 -0.315,-0.45 z"
       style="font-style:normal;font-variant:normal;font-weight:normal;font-stretch:normal;font-size:22.5px;line-height:125%;font-family:KaTeX_Main;-inkscape-font-specification:'KaTeX_Main, Normal';text-align:start;writing-mode:lr-tb;text-anchor:start"
       id="path38755" /><path
       d="m 55.451055,68.189995 q -0.3825,-0.0675 -3.5775,-0.0675 -3.15,0 -3.5325,0.0675 h -0.27 v -1.035 h 0.585 q 1.305,0 1.6875,-0.0675 0.18,-0.0225 0.54,-0.27 v -11.6325 q -0.045,0 -0.18,0.0675 -1.035,0.405 -2.3175,0.4275 h -0.4275 v -1.035 h 0.4275 q 1.89,-0.0675 3.15,-0.855 0.405,-0.225 0.6975,-0.5175 0.045,-0.0675 0.27,-0.0675 0.225,0 0.3825,0.135 v 6.7275 l 0.0225,6.75 q 0.3375,0.3375 1.4625,0.3375 h 0.7425 0.585 v 1.035 z"
       style="font-style:normal;font-variant:normal;font-weight:normal;font-stretch:normal;font-size:22.5px;line-height:125%;font-family:KaTeX_Main;-inkscape-font-specification:'KaTeX_Main, Normal';text-align:start;writing-mode:lr-tb;text-anchor:start"
       id="path38757" /><path
       d="m 59.096055,66.839995 q 0,-0.585 0.3825,-0.9675 0.3825,-0.3825 0.9675,-0.3825 0.585,0 0.9675,0.405 0.405,0.3825 0.405,0.9225 0,0.585 -0.405,0.99 -0.405,0.3825 -0.945,0.3825 -0.585,0 -0.99,-0.405 -0.3825,-0.405 -0.3825,-0.945 z"
       style="font-style:normal;font-variant:normal;font-weight:normal;font-stretch:normal;font-size:22.5px;line-height:125%;font-family:KaTeX_Main;-inkscape-font-specification:'KaTeX_Main, Normal';text-align:start;writing-mode:lr-tb;text-anchor:start"
       id="path38759" /><path
       d="m 64.818789,57.884995 q 0.0225,-0.045 0.3825,-2.4525 l 0.36,-2.4075 q 0,-0.045 0.45,-0.045 h 0.45 v 0.09 q 0,0.225 0.3375,0.3825 0.3375,0.1575 1.17,0.2025 0.855,0.045 3.8025,0.045 h 2.7225 v 0.8775 l -1.53,2.0925 q -0.3375,0.4725 -0.765,1.0575 -0.4275,0.5625 -0.6525,0.8775 -0.225,0.315 -0.27,0.3825 -1.17,1.8225 -1.395,4.8825 -0.09,0.9225 -0.1125,2.52 0,0.315 -0.0225,0.6525 0,0.315 0,0.5175 v 0.2025 q -0.09,0.3825 -0.45,0.6525 -0.3375,0.27 -0.7425,0.27 -0.54,0 -0.8775,-0.3825 -0.315,-0.36 -0.315,-1.0125 0,-0.3375 0.09,-1.2825 0.3375,-3.0375 2.0925,-6.0975 0.45,-0.72 1.89,-2.7225 l 1.035,-1.4175 h -2.0925 q -3.915,0 -4.1175,0.135 -0.09,0.045 -0.2475,0.495 -0.135,0.45 -0.225,1.0575 -0.045,0.3825 -0.0675,0.4275 v 0.0675 h -0.9 z"
       style="font-style:normal;font-variant:normal;font-weight:normal;font-stretch:normal;font-size:22.5px;line-height:125%;font-family:KaTeX_Main;-inkscape-font-specification:'KaTeX_Main, Normal';text-align:start;writing-mode:lr-tb;text-anchor:start"
       id="path38761" /><path
       d="m 77.238789,63.374995 q 0.54,0 0.9,0.3825 0.3825,0.36 0.3825,0.9225 0,0.5175 -0.3825,0.8775 -0.3825,0.36 -0.855,0.36 h -0.1575 l 0.0675,0.1125 q 0.3375,0.72 1.035,1.1925 0.6975,0.4725 1.6425,0.4725 1.5975,0 2.295,-1.35 0.4275,-0.8325 0.4275,-2.88 0,-2.3175 -0.6075,-3.1275 -0.585,-0.7425 -1.44,-0.7425 -1.755,0 -2.655,1.53 -0.09,0.1575 -0.18,0.2025 -0.0675,0.0225 -0.315,0.0225 -0.3825,0 -0.4275,-0.135 -0.045,-0.09 -0.045,-3.9375 0,-0.675 -0.0225,-1.5975 0,-0.9225 0,-1.17 0,-1.26 0.135,-1.26 0.045,-0.045 0.09,-0.045 l 0.405,0.135 q 1.4625,0.585 2.9925,0.585 1.5975,0 3.06,-0.63 0.18,-0.09 0.2925,-0.09 0.18,0 0.18,0.405 v 0.2925 q -1.8225,2.1825 -4.6125,2.1825 -0.6975,0 -1.26,-0.135 l -0.225,-0.045 v 3.87 q 1.2825,-1.035 2.6325,-1.035 0.4275,0 0.9225,0.1125 1.5075,0.3825 2.4525,1.71 0.9675,1.3275 0.9675,3.105 0,2.0475 -1.44,3.5325 -1.4175,1.485 -3.51,1.485 -1.4175,0 -2.4075,-0.7875 -0.4275,-0.27 -0.7425,-0.7425 -0.675,-0.81 -0.855,-2.0025 0,-0.0675 -0.0225,-0.2025 0,-0.1575 0,-0.225 0,-0.63 0.36,-0.99 0.36,-0.36 0.9225,-0.36 z"
       style="font-style:normal;font-variant:normal;font-weight:normal;font-stretch:normal;font-size:22.5px;line-height:125%;font-family:KaTeX_Main;-inkscape-font-specification:'KaTeX_Main, Normal';text-align:start;writing-mode:lr-tb;text-anchor:start"
       id="path38763" /><path
       d="m 91.818789,68.189995 q -0.405,-0.0675 -2.5875,-0.0675 -2.0025,0 -2.2725,0.0675 h -0.1575 v -1.035 h 0.3375 q 1.62,-0.0675 2.07,-0.945 0.0225,-0.0675 1.1925,-3.5325 1.17,-3.4875 2.3175,-6.93 1.17,-3.465 1.1925,-3.4875 0.0675,-0.18 0.4275,-0.18 h 0.2025 q 0.45,0.0225 0.54,0.1575 0.0225,0.0225 2.1825,6.435 2.1825,6.4125 2.7,8.01 0.0675,0.135 0.157501,0.225 0.2475,0.225 1.4175,0.2475 h 0.675 v 1.035 h -0.2025 q -0.3375,-0.0675 -2.857501,-0.0675 -2.9025,0 -3.24,0.0675 h -0.225 v -1.035 h 0.2925 q 1.575,0 1.575,-0.405 0,-0.045 -0.54,-1.665 l -0.54,-1.5975 h -5.2425 l -0.45,1.3275 q -0.45,1.3275 -0.45,1.4625 0,0.1125 0.0675,0.2025 0.135,0.2925 0.5625,0.495 0.45,0.18 0.945,0.18 h 0.1125 v 1.035 z m 3.6225,-7.8075 q -0.6525,-1.9575 -1.1475,-3.3975 l -0.45,-1.3275 -1.125,3.375 -1.1475,3.3975 q 0,0.0225 2.2725,0.0225 h 2.295 z"
       style="font-style:normal;font-variant:normal;font-weight:normal;font-stretch:normal;font-size:22.5px;line-height:125%;font-family:KaTeX_Main;-inkscape-font-specification:'KaTeX_Main, Normal';text-align:start;writing-mode:lr-tb;text-anchor:start"
       id="path38765" /></g><g
     style="font-style:normal;font-variant:normal;font-weight:normal;font-stretch:normal;font-size:19.71875px;line-height:125%;font-family:KaTeX_Main;-inkscape-font-specification:KaTeX_Main;text-align:start;writing-mode:lr-tb;text-anchor:start;fill:#11accd"
     id="text4575" /><g
     aria-label="t = 0+,"
     style="font-style:normal;font-variant:normal;font-weight:normal;font-stretch:normal;font-size:22.5px;line-height:0%;font-family:KaTeX_Main;-inkscape-font-specification:'KaTeX_Main, Normal';text-align:start;writing-mode:lr-tb;text-anchor:start;fill:#ff9c39;fill-opacity:1"
     id="text4559-4"><path
       d="m 371.56492,28.197298 q -0.1575,-0.1575 -0.1575,-0.225 0,-0.09 0.0675,-0.36 0.09,-0.2925 0.1125,-0.315 0.045,-0.1125 0.2025,-0.1125 0.18,-0.0225 1.1475,-0.0225 h 1.1925 l 0.4275,-1.8 q 0.4725,-1.8225 0.54,-1.9575 0.27,-0.63 1.035,-0.63 0.2925,0.0225 0.495,0.2025 0.225,0.18 0.225,0.4725 0,0.27 -0.4275,1.9125 -0.09,0.3825 -0.225,0.855 -0.1125,0.45 -0.18,0.675 l -0.045,0.225 q 0,0.045 1.125,0.045 h 1.1475 q 0.1575,0.1575 0.1575,0.2475 0,0.495 -0.2925,0.7875 h -2.4075 l -0.81,3.2625 q -0.8325,3.3525 -0.855,3.5325 -0.0225,0.1125 -0.0225,0.3375 0,0.945 0.6075,0.945 0.1575,0 0.27,-0.0225 1.125,-0.2025 2.0475,-1.8 0.225,-0.36 0.405,-0.8325 0.045,-0.135 0.1125,-0.1575 0.0675,-0.045 0.3375,-0.045 0.45,0 0.45,0.18 0,0.045 -0.09,0.27 -0.2475,0.72 -0.81,1.4625 -0.54,0.72 -1.1025,1.1475 -0.8325,0.63 -1.7775,0.63 -0.81,0 -1.395,-0.405 -0.5625,-0.4275 -0.765,-1.1025 -0.045,-0.18 -0.045,-0.6075 v -0.405 l 0.7875,-3.15 q 0.7875,-3.1725 0.81,-3.195 0,-0.045 -1.1475,-0.045 z"
       style="font-style:normal;font-variant:normal;font-weight:normal;font-stretch:normal;font-size:22.5px;line-height:125%;font-family:KaTeX_Math;-inkscape-font-specification:'KaTeX_Math, Normal';text-align:start;writing-mode:lr-tb;text-anchor:start"
       id="path38741" /><path
       d="m 385.9948,29.052298 q 0,-0.2925 0.315,-0.45 h 14.3325 q 0.3375,0.1575 0.3375,0.45 0,0.2475 -0.315,0.4275 l -7.155,0.0225 h -7.155 q -0.36,-0.1125 -0.36,-0.45 z m 0,4.365 q 0,-0.3375 0.36,-0.45 h 14.31 q 0.0225,0.0225 0.09,0.09 0.09,0.045 0.1125,0.09 0.045,0.0225 0.0675,0.1125 0.045,0.0675 0.045,0.1575 0,0.2925 -0.3375,0.45 h -14.3325 q -0.315,-0.1575 -0.315,-0.45 z"
       style="font-style:normal;font-variant:normal;font-weight:normal;font-stretch:normal;font-size:22.5px;line-height:125%;font-family:KaTeX_Main;-inkscape-font-specification:'KaTeX_Main, Normal';text-align:start;writing-mode:lr-tb;text-anchor:start;fill:#ff9c39;fill-opacity:1"
       id="path38743" /><path
       d="m 410.01004,23.697298 q 1.26,-1.8225 3.4425,-1.8225 1.6425,0 2.88,1.125 0.6075,0.585 1.035,1.53 0.8325,1.8675 0.8325,5.13 0,3.4875 -0.9675,5.3325 -0.63,1.305 -1.845,1.89 -0.945,0.4725 -1.9125,0.4725 -2.5875,0 -3.78,-2.3625 -0.9675,-1.845 -0.9675,-5.3325 0,-2.0925 0.27,-3.4425 0.2925,-1.3725 1.0125,-2.52 z m 5.0625,-0.27 q -0.6525,-0.72 -1.5975,-0.72 -0.945,0 -1.62,0.72 -0.495,0.5175 -0.675,1.26 -0.18,0.7425 -0.225,2.565 0,0.135 -0.0225,0.8775 0,0.7425 0,1.2375 0,2.16 0.045,3.015 0.09,1.575 0.27,2.2725 0.18,0.675 0.675,1.17 0.6075,0.675 1.5525,0.675 0.9225,0 1.53,-0.675 0.495,-0.495 0.675,-1.17 0.18,-0.6975 0.27,-2.2725 0.045,-0.855 0.045,-3.015 0,-0.495 -0.0225,-1.2375 0,-0.7425 0,-0.8775 -0.045,-1.8225 -0.225,-2.565 -0.18,-0.7425 -0.675,-1.26 z"
       style="font-style:normal;font-variant:normal;font-weight:normal;font-stretch:normal;font-size:22.5px;line-height:125%;font-family:KaTeX_Main;-inkscape-font-specification:'KaTeX_Main, Normal';text-align:start;writing-mode:lr-tb;text-anchor:start;fill:#ff9c39;fill-opacity:1"
       id="path38745" /><path
       d="m 420.67504,25.684798 q -0.315,-0.1575 -0.315,-0.45 0,-0.2925 0.315,-0.45 h 6.7275 v -3.375 l 0.0225,-3.375 q 0.225,-0.2925 0.4275,-0.2925 0.2925,0 0.45,0.3375 v 6.705 h 6.705 q 0.3375,0.18 0.3375,0.45 0,0.27 -0.3375,0.45 h -6.705 v 6.705 q -0.1575,0.315 -0.45,0.315 -0.2925,0 -0.45,-0.315 v -6.705 z"
       style="font-style:normal;font-variant:normal;font-weight:normal;font-stretch:normal;font-size:22.5px;line-height:125%;font-family:KaTeX_Main;-inkscape-font-specification:'KaTeX_Main, Normal';text-align:start;writing-mode:lr-tb;text-anchor:start;fill:#ff9c39;fill-opacity:1"
       id="path38747" /><path
       d="m 438.75027,36.477298 q -0.405,-0.405 -0.405,-0.9675 0,-0.5625 0.36,-0.9675 0.3825,-0.405 0.9675,-0.405 0.855,0 1.2375,0.72 0.405,0.72 0.405,1.8225 0,0.4275 -0.045,0.7875 -0.315,2.0025 -1.6425,3.4425 -0.315,0.315 -0.405,0.315 -0.09,0 -0.2925,-0.2025 -0.2025,-0.2025 -0.2025,-0.2925 0,-0.1125 0.225,-0.3375 1.395,-1.4175 1.53,-3.465 v -0.27 q -0.0225,0 -0.135,0.0675 -0.2925,0.135 -0.6075,0.135 -0.585,0 -0.99,-0.3825 z"
       style="font-style:normal;font-variant:normal;font-weight:normal;font-stretch:normal;font-size:22.5px;line-height:125%;font-family:KaTeX_Main;-inkscape-font-specification:'KaTeX_Main, Normal';text-align:start;writing-mode:lr-tb;text-anchor:start;fill:#ff9c39;fill-opacity:1"
       id="path38749" /></g><g
     transform="translate(0.07620126,0.16868376)"
     aria-label="4Ω"
     style="font-style:normal;font-variant:normal;font-weight:normal;font-stretch:normal;font-size:24px;line-height:0%;font-family:KaTeX_Main;-inkscape-font-specification:'KaTeX_Main, Normal';font-variant-ligatures:normal;font-variant-caps:normal;font-variant-numeric:normal;font-feature-settings:normal;text-align:start;word-spacing:0px;writing-mode:lr-tb;text-anchor:start"
     id="text4443-9"><path
       inkscape:connector-curvature="0"
       d="m 262.1001,25.615198 q -0.336,-0.072 -3.096,-0.072 -2.88,0 -3.216,0.072 h -0.216 v -1.104 h 0.744 q 1.032,-0.024 1.272,-0.12 0.192,-0.048 0.288,-0.24 0.024,-0.048 0.024,-1.296 v -1.2 h -6.216 v -1.104 l 3.624,-5.544 q 3.672,-5.5679999 3.72,-5.5919999 0.048,-0.048 0.504,-0.048 h 0.432 l 0.144,0.144 V 20.551198 h 2.208 v 1.104 h -2.208 v 1.224 q 0,0.984 0,1.152 0.024,0.168 0.144,0.288 0.192,0.168 1.368,0.192 h 0.696 v 1.104 z m -4.056,-5.064 v -8.016 l -5.256,7.992 2.616,0.024 z"
       style="font-style:normal;font-variant:normal;font-weight:normal;font-stretch:normal;font-size:24px;line-height:1.25;font-family:KaTeX_Main;-inkscape-font-specification:'KaTeX_Main, Normal';font-variant-ligatures:normal;font-variant-caps:normal;font-variant-numeric:normal;font-feature-settings:normal;text-align:start;word-spacing:0px;writing-mode:lr-tb;text-anchor:start"
       id="path35959" /><path
       inkscape:connector-curvature="0"
       d="m 272.4921,25.135198 q 0,0.312 -0.168,0.48 h -4.464 v -0.048 q -0.024,-0.024 -0.384,-2.088 l -0.408,-2.064 v -0.048 h 0.96 l 0.024,0.12 q 0,0.12 0.096,0.456 0.168,1.08 0.36,1.44 0.096,0.12 0.168,0.168 0.312,0.12 1.608,0.144 h 1.056 v -0.072 q -0.12,-0.384 -0.528,-1.272 -0.384,-0.744 -1.32,-2.208 -1.536,-2.472 -1.92,-3.768 -0.24,-0.888 -0.24,-1.656 0,-0.72 0.192,-1.368 0.528,-1.8 2.232,-3.096 1.704,-1.3199999 3.984,-1.5119999 0.144,-0.024 0.36,-0.024 h 0.36 q 3.384,0 5.544,1.8479999 1.368,1.2 1.8,2.784 0.192,0.648 0.192,1.368 0,0.768 -0.24,1.656 -0.384,1.296 -1.92,3.768 -0.936,1.464 -1.32,2.208 -0.408,0.888 -0.528,1.272 v 0.072 h 1.056 q 1.296,-0.024 1.608,-0.144 0.096,-0.048 0.168,-0.168 0.168,-0.36 0.36,-1.44 0.096,-0.336 0.096,-0.456 l 0.024,-0.12 h 0.96 v 0.048 l -0.408,2.064 q -0.36,2.064 -0.384,2.088 v 0.048 h -2.208 q -1.776,0 -2.064,0 -0.264,-0.024 -0.312,-0.144 -0.048,-0.096 -0.048,-0.336 0,-0.696 0.216,-1.896 0.192,-0.96 0.936,-3.24 0.768,-2.328 1.008,-3.648 0.168,-1.008 0.168,-1.656 0,-3.384 -2.472,-4.632 -1.008,-0.4799999 -2.016,-0.4799999 -2.448,0 -3.744,2.0399999 -0.744,1.176 -0.744,3.048 0,0.816 0.144,1.68 0.24,1.32 1.008,3.648 0.744,2.28 0.936,3.24 0.216,1.176 0.216,1.896 z"
       style="font-style:normal;font-variant:normal;font-weight:normal;font-stretch:normal;font-size:24px;line-height:1.25;font-family:KaTeX_Main;-inkscape-font-specification:'KaTeX_Main, Normal';font-variant-ligatures:normal;font-variant-caps:normal;font-variant-numeric:normal;font-feature-settings:normal;text-align:start;word-spacing:0px;writing-mode:lr-tb;text-anchor:start"
       id="path35961" /></g></svg>