<?xml version="1.0" standalone="no"?><!DOCTYPE svg PUBLIC "-//W3C//DTD SVG 1.1//EN" "http://www.w3.org/Graphics/SVG/1.1/DTD/svg11.dtd"><svg width="428" height="368" version="1.1" xmlns="http://www.w3.org/2000/svg" xmlns:xlink="http://www.w3.org/1999/xlink"><defs xmlns="http://www.w3.org/1999/xhtml"><style type="text/css"><![CDATA[
svg .grid { stroke-width: 0.5px; stroke: rgb(187, 187, 187); opacity: 0.5; }
svg .domain { stroke-width: 3px; stroke: black; }
svg { border: 0px solid red; }
svg .path { stroke-width: 3px; stroke: rgb(17, 172, 205); fill: none; }
svg text { font-style: normal; font-variant: normal; font-weight: normal; font-stretch: normal; font-size: 16px; line-height: normal; font-family: katex_math; }
svg .tick text { font-style: normal; font-variant: normal; font-weight: normal; font-stretch: normal; font-size: 12px; line-height: normal; font-family: katex_math; }]]></style></defs><g transform="translate(40,40)"><g class="x-axis" transform="translate(0,144)" fill="none" font-size="10" font-family="sans-serif" text-anchor="middle"><path class="domain" stroke="#000" d="M0.5,0V0.5H288.5V0"/><g class="tick" opacity="1" transform="translate(0.5,0)"><line stroke="#000" y2="6"/><text fill="#000" y="9" dy="0.71em">-2</text><line class="grid" x1="0" y1="-144" x2="0" y2="144"/></g><g class="tick" opacity="1" transform="translate(36.5,0)"><line stroke="#000" y2="6"/><text fill="#000" y="9" dy="0.71em">-1</text><line class="grid" x1="0" y1="-144" x2="0" y2="144"/></g><g class="tick" opacity="1" transform="translate(72.5,0)"><line stroke="#000" y2="6"/><line class="grid" x1="0" y1="-144" x2="0" y2="144"/></g><g class="tick" opacity="1" transform="translate(108.5,0)"><line stroke="#000" y2="6"/><text fill="#000" y="9" dy="0.71em">1</text><line class="grid" x1="0" y1="-144" x2="0" y2="144"/></g><g class="tick" opacity="1" transform="translate(144.5,0)"><line stroke="#000" y2="6"/><text fill="#000" y="9" dy="0.71em">2</text><line class="grid" x1="0" y1="-144" x2="0" y2="144"/></g><g class="tick" opacity="1" transform="translate(180.5,0)"><line stroke="#000" y2="6"/><text fill="#000" y="9" dy="0.71em">3</text><line class="grid" x1="0" y1="-144" x2="0" y2="144"/></g><g class="tick" opacity="1" transform="translate(216.5,0)"><line stroke="#000" y2="6"/><text fill="#000" y="9" dy="0.71em">4</text><line class="grid" x1="0" y1="-144" x2="0" y2="144"/></g><g class="tick" opacity="1" transform="translate(252.5,0)"><line stroke="#000" y2="6"/><text fill="#000" y="9" dy="0.71em">5</text><line class="grid" x1="0" y1="-144" x2="0" y2="144"/></g><g class="tick" opacity="1" transform="translate(288.5,0)"><line stroke="#000" y2="6"/><text fill="#000" y="9" dy="0.71em">6</text><line class="grid" x1="0" y1="-144" x2="0" y2="144"/></g><text x="288" dx=".71em" style="text-anchor: start; font-size: 16px; fill: black;">t (seconds)</text></g><g class="y-axis" transform="translate(72,0)" fill="none" font-size="10" font-family="sans-serif" text-anchor="end"><path class="domain" stroke="#000" d="M0,288.5H0.5V0.5H0"/><g class="tick" opacity="1" transform="translate(0,288.5)"><line stroke="#000" x2="-6"/><text fill="#000" x="-9" dy="0.32em">-4</text><line class="grid" x1="-72" y1="0" x2="216" y2="0"/></g><g class="tick" opacity="1" transform="translate(0,252.5)"><line stroke="#000" x2="-6"/><text fill="#000" x="-9" dy="0.32em">-3</text><line class="grid" x1="-72" y1="0" x2="216" y2="0"/></g><g class="tick" opacity="1" transform="translate(0,216.5)"><line stroke="#000" x2="-6"/><text fill="#000" x="-9" dy="0.32em">-2</text><line class="grid" x1="-72" y1="0" x2="216" y2="0"/></g><g class="tick" opacity="1" transform="translate(0,180.5)"><line stroke="#000" x2="-6"/><text fill="#000" x="-9" dy="0.32em">-1</text><line class="grid" x1="-72" y1="0" x2="216" y2="0"/></g><g class="tick" opacity="1" transform="translate(0,144.5)"><line stroke="#000" x2="-6"/><line class="grid" x1="-72" y1="0" x2="216" y2="0"/></g><g class="tick" opacity="1" transform="translate(0,108.5)"><line stroke="#000" x2="-6"/><text fill="#000" x="-9" dy="0.32em">1</text><line class="grid" x1="-72" y1="0" x2="216" y2="0"/></g><g class="tick" opacity="1" transform="translate(0,72.5)"><line stroke="#000" x2="-6"/><text fill="#000" x="-9" dy="0.32em">2</text><line class="grid" x1="-72" y1="0" x2="216" y2="0"/></g><g class="tick" opacity="1" transform="translate(0,36.5)"><line stroke="#000" x2="-6"/><text fill="#000" x="-9" dy="0.32em">3</text><line class="grid" x1="-72" y1="0" x2="216" y2="0"/></g><g class="tick" opacity="1" transform="translate(0,0.5)"><line stroke="#000" x2="-6"/><text fill="#000" x="-9" dy="0.32em">4</text><line class="grid" x1="-72" y1="0" x2="216" y2="0"/></g><text dx="6" dy="-6" style="text-anchor: start; font-size: 16px; fill: black;">i (amperes)</text></g><path class="path" d="M72,-36L74.16,-25.517616045164743L76.32000000000001,-15.64567860908835L78.48,-6.3486380540289815L80.64000000000001,2.406985008020399L82.8,10.652720277290825L84.96,18.418261307214436L87.12,25.731572433289784L89.28,32.61898947489465L91.44,39.10531457268189L93.60000000000001,45.21390550307524L95.76,50.966759791494155L97.91999999999999,56.38459392720509L100.08000000000001,61.486917965059774L102.24,66.29210578276567L104.39999999999999,70.81746124669215L106.56,75.07928052447986L108.72,79.09291076884591L110.88,82.87280538391099L113.04,86.43257607306532L115.2,89.78504185580363L117.35999999999999,92.9422752300413L119.52000000000001,95.91564564614691L121.67999999999999,98.71586044924382L123.84,101.35300343721809L126,103.83657117328266L128.16,106.17550718386235L130.32,108.37823416494936L132.48000000000002,110.45268431290623L134.64,112.40632788894055L136.79999999999998,114.24620012011442L138.96,115.9789265337605L141.12,117.61074681653696L143.28,119.14753728403929L145.44,120.59483204188334L147.6,121.95784291446324L149.76,123.24147821314872L151.92,124.45036041150757L154.08,125.58884279120326L156.24,126.66102511851128L158.4,127.67076840790577L160.56,128.62170882588217L162.71999999999997,129.51727078508415L164.88,130.3606792758878L167.04000000000002,131.15497147985053L169.20000000000002,131.90300770684505L171.35999999999999,132.60748169526468L173.52,133.27093031239093L175.68,133.89574268985592L177.83999999999997,134.4841688270969L180,135.03832769378448L182.16000000000003,135.56021486040208L184.32,136.0517096844553L186.48,136.51458207818882L188.64000000000001,136.95049888218233L190.8,137.3610298677768L192.96,137.74765338994706L195.12,138.11176171097642L197.27999999999997,138.45466601410482L199.44,138.77760112520454L201.6,139.08172995948735L203.76,139.36814770925523L205.92,139.6378857877756L208.08,139.89191554348326L210.24,140.13115175788383L212.4,140.35645593975522L214.56,140.5686394275099L216.72000000000003,140.7684663108895L218.88,140.95665618251303L221.04,141.1338867291879L223.2,141.30079617231402L225.35999999999999,141.4579855661705L227.52,141.6060209623601L229.68,141.7454354482066L231.83999999999997,141.87673106644473L234,142.0003806231164L236.16000000000003,142.1168293901832L238.32,142.22649670898628L240.48,142.32977750032836L242.64000000000001,142.4270436866148L244.8,142.5186455311764L246.96,142.6049128995954L249.12,142.68615644757804L251.27999999999997,142.76266873965068L253.44,142.8347253027079L255.6,142.90258561820718L257.76,142.96649405658223L259.92,143.02668075724063L262.08,143.08336245731414L264.24,143.13674327214665L266.40000000000003,143.18701543032972L268.56,143.2343599659333L270.72,143.2789473704237L272.88,143.3209382066174L275.03999999999996,143.36048368688014L277.2,143.39772621765516L279.36,143.43279991228L281.52,143.46583107393943L283.68,143.49693865049335L285.84,143.52623466281761L288,143.55382460820005" style="fill: none; stroke: rgb(214, 216, 218); stroke-width: 3px;"/><path class="path" d="M72,324L74.16,313.51761604516474L76.32000000000001,303.64567860908835L78.48,294.348638054029L80.64000000000001,285.5930149919796L82.8,277.3472797227092L84.96,269.58173869278556L87.12,262.2684275667102L89.28,255.38101052510535L91.44,248.89468542731814L93.60000000000001,242.78609449692476L95.76,237.03324020850584L97.91999999999999,231.6154060727949L100.08000000000001,226.51308203494023L102.24,221.70789421723433L104.39999999999999,217.18253875330782L106.56,212.92071947552017L108.72,208.9070892311541L110.88,205.12719461608904L113.04,201.56742392693468L115.2,198.21495814419637L117.35999999999999,195.05772476995867L119.52000000000001,192.08435435385306L121.67999999999999,189.28413955075618L123.84,186.6469965627819L126,184.16342882671736L128.16,181.82449281613765L130.32,179.62176583505064L132.48000000000002,177.54731568709377L134.64,175.59367211105945L136.79999999999998,173.75379987988558L138.96,172.0210734662395L141.12,170.38925318346304L143.28,168.8524627159607L145.44,167.40516795811666L147.6,166.04215708553676L149.76,164.75852178685125L151.92,163.54963958849243L154.08,162.41115720879674L156.24,161.33897488148875L158.4,160.32923159209423L160.56,159.3782911741178L162.71999999999997,158.48272921491582L164.88,157.6393207241122L167.04000000000002,156.84502852014947L169.20000000000002,156.09699229315495L171.35999999999999,155.39251830473532L173.52,154.72906968760907L175.68,154.10425731014408L177.83999999999997,153.51583117290306L180,152.96167230621552L182.16000000000003,152.43978513959792L184.32,151.9482903155447L186.48,151.48541792181118L188.64000000000001,151.04950111781767L190.8,150.6389701322232L192.96,150.25234661005294L195.12,149.88823828902358L197.27999999999997,149.5453339858952L199.44,149.22239887479546L201.6,148.91827004051265L203.76,148.6318522907448L205.92,148.3621142122244L208.08,148.10808445651674L210.24,147.86884824211617L212.4,147.64354406024478L214.56,147.4313605724901L216.72000000000003,147.2315336891105L218.88,147.04334381748694L221.04,146.86611327081212L223.2,146.699203827686L225.35999999999999,146.5420144338295L227.52,146.3939790376399L229.68,146.25456455179338L231.83999999999997,146.12326893355527L234,145.9996193768836L236.16000000000003,145.88317060981683L238.32,145.7735032910137L240.48,145.67022249967164L242.64000000000001,145.5729563133852L244.8,145.4813544688236L246.96,145.39508710040462L249.12,145.31384355242196L251.27999999999997,145.23733126034932L253.44,145.1652746972921L255.6,145.09741438179282L257.76,145.03350594341777L259.92,144.97331924275937L262.08,144.91663754268586L264.24,144.86325672785335L266.40000000000003,144.81298456967028L268.56,144.76564003406673L270.72,144.72105262957626L272.88,144.6790617933826L275.03999999999996,144.63951631311983L277.2,144.6022737823448L279.36,144.56720008772L281.52,144.53416892606057L283.68,144.50306134950662L285.84,144.47376533718239L288,144.44617539179995" style="fill: none; stroke: rgb(214, 216, 218); stroke-width: 3px;"/><path class="path" d="M72,144L74.16,123.7066720088778L76.32000000000001,106.05180289687746L78.48,91.03604880556293L80.64000000000001,78.61529427457086L82.8,68.70646215686983L84.96,61.19332642645031L87.12,55.9322291026773L89.28,52.75761530898893L91.44,51.48731328663604L93.60000000000001,51.9274987788142L95.76,53.87729539709065L97.91999999999999,57.132974218922925L100.08000000000001,61.49172680850552L102.24,66.75499599623103L104.39999999999999,72.73135801343943L106.56,79.23895790169146L108.72,86.1075074647461L110.88,93.17986139238383L113.04,100.31319256217645L115.2,107.37979193847363L117.35999999999999,114.26752197148815L119.52000000000001,120.87995499953959L121.67999999999999,127.13622993010824L123.84,132.97066148393372L126,138.33213660026175L128.16,143.1833322937549L130.32,147.49978840001128L132.48000000000002,151.26886732328185L134.64,154.4886311823742L136.79999999999998,157.16666471255328L138.96,159.3188699932639L141.12,160.96825660070886L143.28,162.14374819323407L145.44,162.87902388358867L147.6,163.21141008748833L149.76,163.18083590886573L151.92,162.82886256923769L154.08,162.19779494639494L156.24,161.32988098496511L158.4,160.2666026015284L160.56,159.04805974771747L162.71999999999997,157.71244752885985L164.88,156.2956247112703L167.04000000000002,154.83077059198612L169.20000000000002,153.34812605038863L171.35999999999999,151.87481364814337L173.52,150.4347308855887L175.68,149.04851014993812L177.83999999999997,147.73353849215337L180,146.50403013213673L182.16000000000003,145.371144501762L184.32,144.34314267710835L186.48,143.42557520944578L188.64000000000001,142.62149462321335L190.8,141.9316861926826L192.96,141.3549110218084L195.12,140.88815591910338L197.27999999999997,140.52688506714833L199.44,140.26528902139796L201.6,140.09652712311305L203.76,140.01295996551625L205.92,140.0063691007835L208.08,140.06816170960045L210.24,140.18955846732288L212.4,140.3617633250634L214.56,140.57611437525748L216.72000000000003,140.82421538553086L218.88,141.09804795916344L221.04,141.39006461327838L223.2,141.69326335615185L225.35999999999999,142.0012445926352L227.52,142.3082513922394L229.68,142.60919431922383L231.83999999999997,142.8996621498759L234,143.17591989133868L236.16000000000003,143.4348955714759L238.32,143.67415729327442L240.48,143.8918820432839L242.64000000000001,144.08681771482063L244.8,144.2582397564003L246.96,144.40590378740248L249.12,144.52999543951438L251.27999999999997,144.63107858717333L253.44,144.71004302597535L255.6,144.7680525476179L257.76,144.80649424596749L259.92,144.82692977361452L262.08,144.83104915389978L264.24,144.82062764170388L266.40000000000003,144.7974860188746L268.56,144.76345460836197L270.72,144.7203411960264L272.88,144.66990296153406L275.03999999999996,144.6138224403873L277.2,144.55368746836956L279.36,144.49097499774706L281.52,144.4270386215072L283.68,144.3630995976269L285.84,144.3002411296062L288,144.2394056319181" style="fill: none; stroke: rgb(17, 172, 205); stroke-width: 3px;"/><line x1="-2" y1="144" x2="72" y2="144" style="stroke: rgb(17, 172, 205); stroke-width: 3px;"/></g></svg>