<?xml version="1.0" standalone="no"?><!DOCTYPE svg PUBLIC "-//W3C//DTD SVG 1.1//EN" "http://www.w3.org/Graphics/SVG/1.1/DTD/svg11.dtd"><svg width="428" height="404" version="1.1" xmlns="http://www.w3.org/2000/svg" xmlns:xlink="http://www.w3.org/1999/xlink"><defs xmlns="http://www.w3.org/1999/xhtml"><style type="text/css"><![CDATA[
svg .grid { stroke-width: 0.5px; stroke: rgb(187, 187, 187); opacity: 0.5; }
svg .domain { stroke-width: 3px; stroke: black; }
svg { border: 0px solid red; }
svg .path { stroke-width: 3px; stroke: rgb(17, 172, 205); fill: none; }
svg text { font-style: normal; font-variant: normal; font-weight: normal; font-stretch: normal; font-size: 16px; line-height: normal; font-family: katex_math; }
svg .tick text { font-style: normal; font-variant: normal; font-weight: normal; font-stretch: normal; font-size: 12px; line-height: normal; font-family: katex_math; }]]></style></defs><g transform="translate(40,40)"><g class="x-axis" transform="translate(0,216)" fill="none" font-size="10" font-family="sans-serif" text-anchor="middle"><path class="domain" stroke="#000" d="M0.5,0V0.5H288.5V0"/><g class="tick" opacity="1" transform="translate(0.5,0)"><line stroke="#000" y2="6"/><text fill="#000" y="9" dy="0.71em">-2</text><line class="grid" x1="0" y1="-216" x2="0" y2="108"/></g><g class="tick" opacity="1" transform="translate(36.5,0)"><line stroke="#000" y2="6"/><text fill="#000" y="9" dy="0.71em">-1</text><line class="grid" x1="0" y1="-216" x2="0" y2="108"/></g><g class="tick" opacity="1" transform="translate(72.5,0)"><line stroke="#000" y2="6"/><line class="grid" x1="0" y1="-216" x2="0" y2="108"/></g><g class="tick" opacity="1" transform="translate(108.5,0)"><line stroke="#000" y2="6"/><text fill="#000" y="9" dy="0.71em">1</text><line class="grid" x1="0" y1="-216" x2="0" y2="108"/></g><g class="tick" opacity="1" transform="translate(144.5,0)"><line stroke="#000" y2="6"/><text fill="#000" y="9" dy="0.71em">2</text><line class="grid" x1="0" y1="-216" x2="0" y2="108"/></g><g class="tick" opacity="1" transform="translate(180.5,0)"><line stroke="#000" y2="6"/><text fill="#000" y="9" dy="0.71em">3</text><line class="grid" x1="0" y1="-216" x2="0" y2="108"/></g><g class="tick" opacity="1" transform="translate(216.5,0)"><line stroke="#000" y2="6"/><text fill="#000" y="9" dy="0.71em">4</text><line class="grid" x1="0" y1="-216" x2="0" y2="108"/></g><g class="tick" opacity="1" transform="translate(252.5,0)"><line stroke="#000" y2="6"/><text fill="#000" y="9" dy="0.71em">5</text><line class="grid" x1="0" y1="-216" x2="0" y2="108"/></g><g class="tick" opacity="1" transform="translate(288.5,0)"><line stroke="#000" y2="6"/><text fill="#000" y="9" dy="0.71em">6</text><line class="grid" x1="0" y1="-216" x2="0" y2="108"/></g><text x="288" dx=".71em" style="text-anchor: start; font-size: 16px; fill: black;">t (seconds)</text></g><g class="y-axis" transform="translate(72,0)" fill="none" font-size="10" font-family="sans-serif" text-anchor="end"><path class="domain" stroke="#000" d="M0,324.5H0.5V0.5H0"/><g class="tick" opacity="1" transform="translate(0,324.5)"><line stroke="#000" x2="-6"/><text fill="#000" x="-9" dy="0.32em">-6</text><line class="grid" x1="-72" y1="0" x2="216" y2="0"/></g><g class="tick" opacity="1" transform="translate(0,288.5)"><line stroke="#000" x2="-6"/><text fill="#000" x="-9" dy="0.32em">-4</text><line class="grid" x1="-72" y1="0" x2="216" y2="0"/></g><g class="tick" opacity="1" transform="translate(0,252.5)"><line stroke="#000" x2="-6"/><text fill="#000" x="-9" dy="0.32em">-2</text><line class="grid" x1="-72" y1="0" x2="216" y2="0"/></g><g class="tick" opacity="1" transform="translate(0,216.5)"><line stroke="#000" x2="-6"/><line class="grid" x1="-72" y1="0" x2="216" y2="0"/></g><g class="tick" opacity="1" transform="translate(0,180.5)"><line stroke="#000" x2="-6"/><text fill="#000" x="-9" dy="0.32em">2</text><line class="grid" x1="-72" y1="0" x2="216" y2="0"/></g><g class="tick" opacity="1" transform="translate(0,144.5)"><line stroke="#000" x2="-6"/><text fill="#000" x="-9" dy="0.32em">4</text><line class="grid" x1="-72" y1="0" x2="216" y2="0"/></g><g class="tick" opacity="1" transform="translate(0,108.5)"><line stroke="#000" x2="-6"/><text fill="#000" x="-9" dy="0.32em">6</text><line class="grid" x1="-72" y1="0" x2="216" y2="0"/></g><g class="tick" opacity="1" transform="translate(0,72.5)"><line stroke="#000" x2="-6"/><text fill="#000" x="-9" dy="0.32em">8</text><line class="grid" x1="-72" y1="0" x2="216" y2="0"/></g><g class="tick" opacity="1" transform="translate(0,36.5)"><line stroke="#000" x2="-6"/><text fill="#000" x="-9" dy="0.32em">10</text><line class="grid" x1="-72" y1="0" x2="216" y2="0"/></g><g class="tick" opacity="1" transform="translate(0,0.5)"><line stroke="#000" x2="-6"/><text fill="#000" x="-9" dy="0.32em">12</text><line class="grid" x1="-72" y1="0" x2="216" y2="0"/></g><text dx="6" dy="-6" style="text-anchor: start; font-size: 16px; fill: black;">v (volts)</text></g><path class="path" d="M72,36L74.16,37.55478286543939L76.32000000000001,41.955991294408875L78.48,48.80721160371229L80.64000000000001,57.71536173838848L82.8,68.29697197195986L84.96,80.18359258851419L87.12,93.02633567985418L89.28,106.49957204939989L91.44,120.30381615034113L93.60000000000001,134.16784201398096L95.76,147.85008129111569L97.91999999999999,161.13936090684894L100.08000000000001,173.85504251176513L102.24,185.84662901225136L104.39999999999999,196.99290510642928L106.56,207.20067907646387L108.72,216.40319223665404L110.88,224.55826055704762L113.04,231.6462102224712L115.2,237.6676653930989L117.35999999999999,242.64124234716752L119.52000000000001,246.60119964528633L121.67999999999999,249.59508908742202L123.84,251.68144715752172L126,252.9275614763271L128.16,253.4073416089874L130.32,253.19931848817043L132.48000000000002,252.38479179168365L134.64,251.04613992093684L136.79999999999998,249.26530281648598L138.96,247.12244376213073L141.12,244.69479260199017L143.28,242.05566944832603L145.44,239.27368500528246L147.6,236.41211108062015L149.76,233.52841270199633L151.92,230.67393148793772L154.08,227.89370853228377L156.24,225.2264340256977L158.4,222.70451013610864L160.56,220.35421327584L162.71999999999997,218.1959417685801L164.88,216.2445350646048L167.04000000000002,214.50965100721373L169.20000000000002,212.9961881963959L171.35999999999999,211.70474119678278L173.52,210.63207716623526L175.68,209.77162341040258L177.83999999999997,209.11395637027482L180,208.64728359894275L182.16000000000003,208.35791135733677L184.32,208.23069153570304L186.48,208.24944266936257L188.64000000000001,208.39734084762074L190.8,208.65727729966358L192.96,209.01218036933432L195.12,209.44530045254942L197.27999999999997,209.94045725967754L199.44,210.48224947539467L201.6,211.05622751718602L203.76,211.6490306393572L205.92,212.24849009228421L208.08,212.8437004282045L210.24,213.4250613478508L212.4,213.98429271042266L214.56,214.51442548735514L216.72000000000003,215.00977153336254L218.88,215.46587508206267L221.04,215.87944885425387L223.2,216.24829760094158L225.35999999999999,216.5712317969025L227.52,216.84797406028906L229.68,217.07906070573625L231.83999999999997,217.26574064861865L234,217.40987367219896L236.16000000000003,217.51382985271042L238.32,217.5803917148238L240.48,217.61266046589316L242.64000000000001,217.61396743581855L244.8,217.5877916337771L246.96,217.53768412643097L249.12,217.46719974701165L251.27999999999997,217.37983646291906L253.44,217.27898256271487L255.6,217.16787167276425L257.76,217.0495454800149L259.92,216.92682392085217L262.08,216.80228249666663L264.24,216.67823629444382L266.40000000000003,216.55673022481096L268.56,216.43953493980592L270.72,216.32814785724787L272.88,216.22379869690684L275.03999999999996,216.12745892451767L277.2,216.0398545017913L279.36,215.96148135264272L281.52,215.89262297654278L283.68,215.83336966788895L285.84,215.78363883427852L288,215.74319594529965" style="fill: none; stroke: rgb(17, 172, 205); stroke-width: 3px;"/><text x="108" y="144" style="text-anchor: start; font-size: 16px; fill: rgb(17, 172, 205);">vC</text><path class="path" d="M72,36L74.16,57.84811085656162L76.32000000000001,79.90418839753144L78.48,101.77116279814936L80.64000000000001,123.10006746381765L82.8,143.59050981509003L84.96,162.99026616206382L87.12,181.0941065771769L89.28,197.74195674041093L91.44,212.81650286370507L93.60000000000001,226.2403432351668L95.76,237.97278589402504L97.91999999999999,248.00638668792598L100.08000000000001,256.3633157032596L102.24,263.09163301602035L104.39999999999999,268.2615470929898L106.56,271.96172117477244L108.72,274.29568477190793L110.88,275.37839916466385L113.04,275.3330176602948L115.2,274.28787345462524L117.35999999999999,272.37372037567934L119.52000000000001,269.7212446457467L121.67999999999999,266.4588591573138L123.84,262.710785673588L126,258.59542487606535L128.16,254.2240093152325L130.32,249.69953008815915L132.48000000000002,245.11592446840177L134.64,240.5575087385626L136.79999999999998,236.09863810393267L138.96,231.8035737688668L141.12,227.72653600128137L143.28,223.91192125509195L145.44,220.39466112169376L147.6,217.20070099313182L149.76,214.34757679313057L151.92,211.84506891870006L154.08,209.69591358588883L156.24,207.89655304073258L158.4,206.43790753458023L160.56,205.30615352812254L162.71999999999997,204.48349423972024L164.88,203.9489103533345L167.04000000000002,203.6788804152276L169.20000000000002,203.6480621460073L171.35999999999999,203.82992754863938L173.52,204.19734628064657L175.68,204.72311326046446L177.83999999999997,205.38041787812145L180,206.14325346680604L182.16000000000003,206.98676685557479L184.32,207.8875488585947L186.48,208.82386745991676L188.64000000000001,209.77584622440736L190.8,210.725591106981L192.96,211.65726934752593L195.12,212.55714453344603L197.27999999999997,213.41357219252922L199.44,214.2169604539967L201.6,214.95970039407302L203.76,215.63607067384092L205.92,216.24212099150077L208.08,216.77553871860408L210.24,217.23550288052792L212.4,217.62252938535926L214.56,217.93831111209767L216.72000000000003,218.18555614783168L218.88,218.36782712289926L221.04,218.48938424097548L223.2,218.55503424478974L225.35999999999999,218.5699872042673L227.52,218.53972266804968L229.68,218.4698663865124L231.83999999999997,218.36607849874275L234,218.2339537808603L236.16000000000003,218.07893428123452L238.32,217.9062344215494L240.48,217.72077842260921L242.64000000000001,217.52714972099793L244.8,217.32955187737682L246.96,217.13178033902847L249.12,216.93720430749727L251.27999999999997,216.74875787574572L253.44,216.5689395367395L255.6,216.3998191251463L257.76,216.2430512340474L259.92,216.09989414723765L262.08,215.97123334276682L264.24,215.85760865273994L266.40000000000003,215.75924420593634L268.56,215.67608033144396L270.72,215.60780666122145L272.88,215.5538957353728L275.03999999999996,215.51363648413036L277.2,215.48616703342174L279.36,215.4705063548957L281.52,215.4655843550356L283.68,215.47027007026205L285.84,215.48339770467226L288,215.50379031338156" style="fill: none; stroke: rgb(202, 51, 124); stroke-width: 3px;"/><text x="126" y="279" style="text-anchor: start; font-size: 16px; fill: rgb(202, 51, 124);">vL</text><path class="path" d="M72,216L74.16,236.29332799112223L76.32000000000001,253.94819710312254L78.48,268.9639511944371L80.64000000000001,281.38470572542917L82.8,291.2935378431302L84.96,298.8066735735497L87.12,304.0677708973227L89.28,307.24238469101107L91.44,308.51268671336396L93.60000000000001,308.0725012211858L95.76,306.1227046029094L97.91999999999999,302.8670257810771L100.08000000000001,298.5082731914945L102.24,293.24500400376894L104.39999999999999,287.26864198656057L106.56,280.76104209830856L108.72,273.8924925352539L110.88,266.8201386076162L113.04,259.6868074378235L115.2,252.6202080615264L117.35999999999999,245.73247802851182L119.52000000000001,239.1200450004604L121.67999999999999,232.86377006989176L123.84,227.02933851606628L126,221.66786339973825L128.16,216.8166677062451L130.32,212.5002115999887L132.48000000000002,208.73113267671815L134.64,205.5113688176258L136.79999999999998,202.8333352874467L138.96,200.6811300067361L141.12,199.03174339929114L143.28,197.8562518067659L145.44,197.12097611641133L147.6,196.78858991251167L149.76,196.81916409113427L151.92,197.17113743076231L154.08,197.80220505360506L156.24,198.6701190150349L158.4,199.7333973984716L160.56,200.95194025228253L162.71999999999997,202.28755247114015L164.88,203.7043752887297L167.04000000000002,205.16922940801388L169.20000000000002,206.65187394961137L171.35999999999999,208.12518635185666L173.52,209.5652691144113L175.68,210.95148985006188L177.83999999999997,212.26646150784663L180,213.49596986786327L182.16000000000003,214.628855498238L184.32,215.65685732289165L186.48,216.5744247905542L188.64000000000001,217.37850537678662L190.8,218.0683138073174L192.96,218.6450889781916L195.12,219.11184408089662L197.27999999999997,219.47311493285167L199.44,219.73471097860204L201.6,219.90347287688695L203.76,219.98704003448375L205.92,219.9936308992165L208.08,219.93183829039958L210.24,219.81044153267715L212.4,219.6382366749366L214.56,219.42388562474252L216.72000000000003,219.17578461446914L218.88,218.90195204083656L221.04,218.60993538672165L223.2,218.30673664384818L225.35999999999999,217.9987554073648L227.52,217.6917486077606L229.68,217.39080568077617L231.83999999999997,217.1003378501241L234,216.82408010866135L236.16000000000003,216.5651044285241L238.32,216.32584270672558L240.48,216.10811795671606L242.64000000000001,215.91318228517937L244.8,215.74176024359969L246.96,215.59409621259752L249.12,215.47000456048562L251.27999999999997,215.36892141282664L253.44,215.28995697402465L255.6,215.2319474523821L257.76,215.19350575403251L259.92,215.17307022638548L262.08,215.1689508461002L264.24,215.17937235829612L266.40000000000003,215.20251398112538L268.56,215.236545391638L270.72,215.2796588039736L272.88,215.33009703846594L275.03999999999996,215.3861775596127L277.2,215.44631253163044L279.36,215.50902500225294L281.52,215.5729613784928L283.68,215.6369004023731L285.84,215.6997588703938L288,215.7605943680819" style="fill: none; stroke: rgb(31, 171, 84); stroke-width: 3px;"/><text x="104.39999999999999" y="315" style="text-anchor: start; font-size: 16px; fill: rgb(31, 171, 84);">vR</text><line x1="-2" y1="36" x2="72" y2="36" style="stroke: rgb(17, 172, 205); stroke-width: 3px;"/><line x1="-2" y1="216" x2="72" y2="216" style="stroke: rgb(202, 51, 124); stroke-width: 3px;"/><line x1="72" y1="216" x2="72" y2="36" style="stroke: rgb(202, 51, 124); stroke-width: 3px;"/></g></svg>