<?xml version="1.0" standalone="no"?><!DOCTYPE svg PUBLIC "-//W3C//DTD SVG 1.1//EN" "http://www.w3.org/Graphics/SVG/1.1/DTD/svg11.dtd"><svg width="500" height="400" version="1.1" xmlns="http://www.w3.org/2000/svg" xmlns:xlink="http://www.w3.org/1999/xlink"><defs xmlns="http://www.w3.org/1999/xhtml"><style type="text/css"><![CDATA[
svg .grid { stroke-width: 0.5px; stroke: rgb(187, 187, 187); opacity: 0.5; }
svg .domain { stroke-width: 3px; stroke: black; }
svg { border: 0px solid red; }
svg .path { stroke-width: 3px; stroke: rgb(17, 172, 205); fill: none; }
svg text { font-style: normal; font-variant: normal; font-weight: normal; font-stretch: normal; font-size: 16px; line-height: normal; font-family: katex_math; }
svg .tick text { font-style: normal; font-variant: normal; font-weight: normal; font-stretch: normal; font-size: 12px; line-height: normal; font-family: katex_math; }]]></style></defs><g transform="translate(40,40)"><g class="x-axis" transform="translate(0,160)" fill="none" font-size="10" font-family="sans-serif" text-anchor="middle"><path class="domain" stroke="#000" d="M0.5,0V0.5H360.5V0"/><g class="tick" opacity="1" transform="translate(0.5,0)"><line stroke="#000" y2="6"/><text fill="#000" y="9" dy="0.71em">-1.0</text><line class="grid" x1="0" y1="-160" x2="0" y2="160"/></g><g class="tick" opacity="1" transform="translate(30.5,0)"><line stroke="#000" y2="6"/><text fill="#000" y="9" dy="0.71em">-0.5</text><line class="grid" x1="0" y1="-160" x2="0" y2="160"/></g><g class="tick" opacity="1" transform="translate(60.5,0)"><line stroke="#000" y2="6"/><line class="grid" x1="0" y1="-160" x2="0" y2="160"/></g><g class="tick" opacity="1" transform="translate(90.5,0)"><line stroke="#000" y2="6"/><text fill="#000" y="9" dy="0.71em">0.5</text><line class="grid" x1="0" y1="-160" x2="0" y2="160"/></g><g class="tick" opacity="1" transform="translate(120.5,0)"><line stroke="#000" y2="6"/><text fill="#000" y="9" dy="0.71em">1.0</text><line class="grid" x1="0" y1="-160" x2="0" y2="160"/></g><g class="tick" opacity="1" transform="translate(150.5,0)"><line stroke="#000" y2="6"/><text fill="#000" y="9" dy="0.71em">1.5</text><line class="grid" x1="0" y1="-160" x2="0" y2="160"/></g><g class="tick" opacity="1" transform="translate(180.5,0)"><line stroke="#000" y2="6"/><text fill="#000" y="9" dy="0.71em">2.0</text><line class="grid" x1="0" y1="-160" x2="0" y2="160"/></g><g class="tick" opacity="1" transform="translate(210.5,0)"><line stroke="#000" y2="6"/><text fill="#000" y="9" dy="0.71em">2.5</text><line class="grid" x1="0" y1="-160" x2="0" y2="160"/></g><g class="tick" opacity="1" transform="translate(240.5,0)"><line stroke="#000" y2="6"/><text fill="#000" y="9" dy="0.71em">3.0</text><line class="grid" x1="0" y1="-160" x2="0" y2="160"/></g><g class="tick" opacity="1" transform="translate(270.5,0)"><line stroke="#000" y2="6"/><text fill="#000" y="9" dy="0.71em">3.5</text><line class="grid" x1="0" y1="-160" x2="0" y2="160"/></g><g class="tick" opacity="1" transform="translate(300.5,0)"><line stroke="#000" y2="6"/><text fill="#000" y="9" dy="0.71em">4.0</text><line class="grid" x1="0" y1="-160" x2="0" y2="160"/></g><g class="tick" opacity="1" transform="translate(330.5,0)"><line stroke="#000" y2="6"/><text fill="#000" y="9" dy="0.71em">4.5</text><line class="grid" x1="0" y1="-160" x2="0" y2="160"/></g><g class="tick" opacity="1" transform="translate(360.5,0)"><line stroke="#000" y2="6"/><text fill="#000" y="9" dy="0.71em">5.0</text><line class="grid" x1="0" y1="-160" x2="0" y2="160"/></g><text x="360" dx=".71em" style="text-anchor: start; font-size: 16px; fill: black;">t (seconds)</text></g><g class="y-axis" transform="translate(60,0)" fill="none" font-size="10" font-family="sans-serif" text-anchor="end"><path class="domain" stroke="#000" d="M0,320.5H0.5V0.5H0"/><g class="tick" opacity="1" transform="translate(0,320.5)"><line stroke="#000" x2="-6"/><text fill="#000" x="-9" dy="0.32em">-2.0</text><line class="grid" x1="-60" y1="0" x2="300" y2="0"/></g><g class="tick" opacity="1" transform="translate(0,280.5)"><line stroke="#000" x2="-6"/><text fill="#000" x="-9" dy="0.32em">-1.5</text><line class="grid" x1="-60" y1="0" x2="300" y2="0"/></g><g class="tick" opacity="1" transform="translate(0,240.5)"><line stroke="#000" x2="-6"/><text fill="#000" x="-9" dy="0.32em">-1.0</text><line class="grid" x1="-60" y1="0" x2="300" y2="0"/></g><g class="tick" opacity="1" transform="translate(0,200.5)"><line stroke="#000" x2="-6"/><text fill="#000" x="-9" dy="0.32em">-0.5</text><line class="grid" x1="-60" y1="0" x2="300" y2="0"/></g><g class="tick" opacity="1" transform="translate(0,160.5)"><line stroke="#000" x2="-6"/><line class="grid" x1="-60" y1="0" x2="300" y2="0"/></g><g class="tick" opacity="1" transform="translate(0,120.5)"><line stroke="#000" x2="-6"/><text fill="#000" x="-9" dy="0.32em">0.5</text><line class="grid" x1="-60" y1="0" x2="300" y2="0"/></g><g class="tick" opacity="1" transform="translate(0,80.5)"><line stroke="#000" x2="-6"/><text fill="#000" x="-9" dy="0.32em">1.0</text><line class="grid" x1="-60" y1="0" x2="300" y2="0"/></g><g class="tick" opacity="1" transform="translate(0,40.5)"><line stroke="#000" x2="-6"/><text fill="#000" x="-9" dy="0.32em">1.5</text><line class="grid" x1="-60" y1="0" x2="300" y2="0"/></g><g class="tick" opacity="1" transform="translate(0,0.5)"><line stroke="#000" x2="-6"/><text fill="#000" x="-9" dy="0.32em">2.0</text><line class="grid" x1="-60" y1="0" x2="300" y2="0"/></g><text dx="6" dy="-6" style="text-anchor: start; font-size: 16px; fill: black;">i (amperes)</text></g><path class="path" d="M60,20L63.00000000000001,33.32276147496566L66,45.377694569082564L69,56.28544910455952L72,66.1551935550105L75,75.08570764023133L78,83.16637094683628L81,90.47805746920267L83.99999999999999,97.09394502358896L87,103.0802476363161L90,108.49687823599808L93.00000000000001,113.39804828226889L96,117.83281033229173L98.99999999999999,121.84554897523824L102.00000000000001,125.47642504817509L105,128.76177757921982L108,131.73448748074827L111,134.42430663261715L114,136.85815564897786L117,139.06039330883112L120,141.05306034687425L122.99999999999999,142.85610004458252L126.00000000000001,144.48755782927324L129.00000000000003,145.96376187880747L132,147.29948653948225L135,148.50810019265418L138,149.60169904999327L141,150.591228216435L144.00000000000003,151.48659123246946L147.00000000000003,152.296749192103L150,153.02981042849905L153,153.69311166490192L156,154.29329144302872L159.00000000000003,154.83635656382637L162,155.32774220555436L165,155.7723663208754L167.99999999999997,156.17467885737906L171,156.5387062941525L174,156.8680919401368L177,157.1661323975874L180,157.43581055557723L183,157.67982544375343L186.00000000000003,157.90061924513313L189,158.10040173829185L192,158.2811724135704L195,158.44474048464608L198.00000000000003,158.5927429957513L200.99999999999997,158.72666120576258L204,158.8478354131372L207.00000000000003,158.9574783700706L210,159.05668742012804L213,159.1464554808278L216,159.22768098109347L219.00000000000003,159.3011768530326L222,159.36767866803422L225,159.42785199861504L228.00000000000003,159.48229907969238L230.99999999999997,159.53156483595404L234,159.57614233564738L237,159.61647772537245L240,159.65297469526672L242.99999999999997,159.68599851927198L245.99999999999997,159.7158797109186L249.00000000000003,159.74291733121595L252.00000000000003,159.76738198175565L255,159.78951851298316L258.00000000000006,159.80954847474328L261,159.82767233362574L264,159.84407147930173L266.99999999999994,159.8589100399332L270,159.87233652482234L273,159.88448531074278L276,159.89547798682725L279,159.90542457147285L282,159.91442461344184L285,159.92256818817933L288,159.9299367993183L290.99999999999994,159.93660419439584L294.00000000000006,159.94263710294285L297,159.94809590433573L300,159.95303523209367L303.00000000000006,159.95750452066898L306,159.9615485002039L309,159.9652076442049L312,159.96851857461496L315,159.9715144283385L318,159.97422518888655L321,159.97667798646174L324,159.97889736948665L327,159.9809055502925L330,159.98272262742788L333,159.9843667868114L336.00000000000006,159.98585448374283L339.00000000000006,159.98720060759302L341.99999999999994,159.98841863082208L345,159.98952074381575L348,159.99051797689128L351,159.99142031069255L354,159.9922367760795L357,159.99297554451215L360,159.99364400983325" style="fill: none; stroke: rgb(214, 216, 218); stroke-width: 3px;"/><path class="path" d="M60,160L63.00000000000001,172.66772385250343L66,182.9244610861835L69,191.11436526863216L72,197.5379225779958L75,202.45714617988432L78,206.1001774318982L81,208.66535977155814L83.99999999999999,210.32484398112882L87,211.22777712731548L90,211.50312176400192L93.00000000000001,211.26214688950427L96,210.60062760124993L98.99999999999999,209.6007863321903L102.00000000000001,208.33300493255484L105,206.85733363117026L108,205.22482003080282L111,203.47867872455083L114,201.65531983183982L117,199.78525271322093L120,197.89387930625156L122.99999999999999,196.00218990637669L126.00000000000001,194.12737277559884L129.00000000000003,192.2833476787428L132,190.4812323052426L135,188.72974951836457L138,187.03558247001754L141,185.4036838156254L144.00000000000003,183.83754454908544L147.00000000000003,182.33942734290133L150,180.91056871450286L153,179.5513538388041L156,178.26146738230807L159.00000000000003,177.04002333937288L162,175.8856765011152L165,174.79671787693607L167.99999999999997,173.77115611343544L171,172.8067867116358L174,171.9012506274801L177,171.05208364940918L180,170.25675777769115L183,169.51271568061094L186.00000000000003,168.8173991704409L189,168.16827252534497L192,167.56284138029017L195,166.99866781909265L198.00000000000003,166.47338221954402L200.99999999999997,165.98469233291584L204,165.53039001694145L207.00000000000003,165.1083559866541L210,164.71656289935981L213,164.35307704777816L216,164.01605889831384L219.00000000000003,163.70376267892738L222,163.41453519261518L225,163.14681400761734L228.00000000000003,162.89912515372262L230.99999999999997,162.67008043506206L234,162.45837445324517L237,162.26278142030267L240,162.08215182839973L242.99999999999997,161.91540903244086L245.99999999999997,161.7615457923047L249.00000000000003,161.6196208133395L252.00000000000003,161.48875531676384L255,161.3681296656096L258.00000000000006,161.25698006669427L261,161.15459536470775L264,161.06031394074824L266.99999999999994,160.97352072446085L270,160.89364432624342L273,160.8201542937263L276,160.7525584948437L279,160.6904006282481L282,160.63325786053025L285,160.58073858865524L288,160.5324803251808L290.99999999999994,160.48814770315198L294.00000000000006,160.44743059704592L297,160.41004235574775L300,160.37571814325082L303.00000000000006,160.34421338258144L306,160.31530229832802L309,160.28877655309944L312,160.26444397323434L315,160.24212735912266L318,160.22166337557576L321,160.20290151778295L324,160.18570314851763L327,160.1699406023966L330,160.15549635314923L333,160.1422622400164L336.00000000000006,160.13013874956619L339.00000000000006,160.11903434938458L341.99999999999994,160.10886487027253L345,160.09955293375066L348,160.0910274218437L351,160.08322298628227L354,160.07607959442095L357,160.06954210932986L360,160.06355990166747" style="fill: none; stroke: rgb(214, 216, 218); stroke-width: 3px;"/><path class="path" d="M60,20L63.00000000000001,45.990485327469116L66,68.302155655266L69,87.39981437319165L72,103.6931161330063L75,117.54285382011568L78,129.2665483787345L81,139.1434172407608L83.99999999999999,147.41878900471778L87,154.30802476363164L90,160L93.00000000000001,164.66019517177313L96,168.43343793354165L98.99999999999999,171.44633530742854L102.00000000000001,173.80942998072996L105,175.6191112103901L108,176.95930751155106L111,177.902985357168L114,178.5134754808177L117,178.84564602205202L120,178.94693965312578L122.99999999999999,178.85828995095923L126.00000000000001,178.6149306048721L129.00000000000003,178.2471095575503L132,177.78071884472484L135,177.23784971101875L138,176.6372815200108L141,175.99491203206045L144.00000000000003,175.32413578155493L147.00000000000003,174.63617653500432L150,173.9403791430019L153,173.24446550370598L156,172.5547588253368L159.00000000000003,171.87637990319928L162,171.21341870666956L165,170.5690841978115L167.99999999999997,169.9458349708145L171,169.34549300578828L174,168.76934256761692L177,168.2182160469966L180,167.69256833326835L183,167.19254112436437L186.00000000000003,166.71801841557402L189,166.26867426363683L192,165.8440137938606L195,165.44340830373872L198.00000000000003,165.06612521529533L200.99999999999997,164.71135353867845L204,164.37822543007866L207.00000000000003,164.06583435672468L210,163.77325031948786L213,163.49953252860598L216,163.24373987940734L219.00000000000003,163.00493953195993L222,162.7822138606494L225,162.57466600623235L228.00000000000003,162.381424233415L230.99999999999997,162.2016452710161L234,162.03451678889255L237,161.8792591456751L240,161.73512652366645L242.99999999999997,161.60140755171287L245.99999999999997,161.4774255032233L249.00000000000003,161.36253814455546L252.00000000000003,161.2561372985195L255,161.15764817859272L258.00000000000006,161.06652854143755L261,160.98226769833343L264,160.90438542004998L266.99999999999994,160.83243076439408L270,160.7659808510658L273,160.7046396044691L276,160.64803648167097L279,160.59582519972096L282,160.5476824739721L285,160.50330677683453L288,160.46241712449913L290.99999999999994,160.42475189754782L294.00000000000006,160.39006769998875L297,160.35813826008348L300,160.32875337534446L303.00000000000006,160.3017179032504L306,160.27685079853194L309,160.25398419730433L312,160.2329625478493L315,160.2136417874612L318,160.1958885644623L321,160.17957950424466L324,160.16460051800425L327,160.1508461526891L330,160.13821898057708L333,160.1266290268278L336.00000000000006,160.11599323330898L339.00000000000006,160.10623495697763L341.99999999999994,160.0972835010946L345,160.08907367756638L348,160.081545398735L351,160.0746432969748L354,160.06831637050044L357,160.062517653842L360,160.05720391150072" style="fill: none; stroke: rgb(17, 172, 205); stroke-width: 3px;"/><line x1="-1" y1="20" x2="60" y2="20" style="stroke: rgb(17, 172, 205); stroke-width: 3px;"/></g></svg>