<?xml version="1.0" encoding="UTF-8" standalone="no"?>
<!-- Generator: Adobe Illustrator 19.1.0, SVG Export Plug-In . SVG Version: 6.00 Build 0)  -->

<svg
   xmlns:dc="http://purl.org/dc/elements/1.1/"
   xmlns:cc="http://creativecommons.org/ns#"
   xmlns:rdf="http://www.w3.org/1999/02/22-rdf-syntax-ns#"
   xmlns:svg="http://www.w3.org/2000/svg"
   xmlns="http://www.w3.org/2000/svg"
   xmlns:sodipodi="http://sodipodi.sourceforge.net/DTD/sodipodi-0.dtd"
   xmlns:inkscape="http://www.inkscape.org/namespaces/inkscape"
   version="1.1"
   id="Layer_1"
   x="0px"
   y="0px"
   width="577.44409"
   height="167.3725"
   viewBox="0 0 577.44409 167.3725"
   xml:space="preserve"
   inkscape:version="0.91 r13725"
   sodipodi:docname="series_resistors5.svg"><metadata
     id="metadata159"><rdf:RDF><cc:Work
         rdf:about=""><dc:format>image/svg+xml</dc:format><dc:type
           rdf:resource="http://purl.org/dc/dcmitype/StillImage" /><dc:title></dc:title></cc:Work></rdf:RDF></metadata><defs
     id="defs157" /><sodipodi:namedview
     pagecolor="#ffffff"
     bordercolor="#666666"
     borderopacity="1"
     objecttolerance="10"
     gridtolerance="10"
     guidetolerance="10"
     inkscape:pageopacity="0"
     inkscape:pageshadow="2"
     inkscape:window-width="1252"
     inkscape:window-height="684"
     id="namedview155"
     showgrid="false"
     fit-margin-top="10"
     fit-margin-right="10"
     fit-margin-bottom="10"
     fit-margin-left="10"
     inkscape:zoom="1.1589223"
     inkscape:cx="292.26536"
     inkscape:cy="83.686251"
     inkscape:window-x="0"
     inkscape:window-y="0"
     inkscape:window-maximized="0"
     inkscape:current-layer="Layer_1" /><style
     type="text/css"
     id="style3">
	.st0{fill:none;stroke:#000000;stroke-linecap:round;stroke-miterlimit:10;}
	.st1{fill:#E07D10;}
	.st2{fill:none;stroke:#E07D10;stroke-width:2;stroke-linecap:round;stroke-miterlimit:10;}
	.st3{fill:none;stroke:#000000;stroke-linecap:round;stroke-linejoin:round;stroke-miterlimit:10;}
	.st4{fill:#FF9C39;stroke:#E07D10;stroke-linecap:round;stroke-linejoin:round;stroke-miterlimit:10;}
	.st5{fill:none;stroke:#000000;stroke-width:1.5;stroke-linecap:round;stroke-linejoin:round;stroke-miterlimit:10;}
	.st6{fill:none;stroke:#000000;stroke-width:2;stroke-linecap:round;stroke-linejoin:round;stroke-miterlimit:10;}
	.st7{fill:none;stroke:#000000;stroke-width:1.5;stroke-linecap:round;stroke-miterlimit:10;}
	.st8{fill:none;stroke:#000000;stroke-width:1.5;stroke-miterlimit:10;}
	.st9{fill:none;stroke:#000000;stroke-miterlimit:10;}
	.st10{fill:none;stroke:#000000;stroke-width:2;stroke-miterlimit:10;}
	.st11{fill:none;stroke:#000000;stroke-width:2;stroke-linecap:round;stroke-miterlimit:10;}
	.st12{fill:none;stroke:#000000;stroke-linecap:round;stroke-linejoin:round;}
	.st13{fill:none;}
	.st14{stroke:#000000;stroke-linecap:round;stroke-linejoin:round;stroke-miterlimit:10;}
	.st15{fill:none;stroke:#000000;stroke-width:1.5;stroke-linejoin:round;stroke-miterlimit:10;}
	.st16{fill:none;stroke:#000000;stroke-linejoin:round;stroke-miterlimit:10;}
	.st17{clip-path:url(#SVGID_2_);fill:none;stroke:#000000;stroke-linejoin:round;stroke-miterlimit:10;}
	.st18{clip-path:url(#SVGID_2_);fill:none;stroke:#ADADEB;stroke-linejoin:round;stroke-miterlimit:10;}
	.st19{clip-path:url(#SVGID_2_);}
	.st20{stroke:#000000;stroke-linejoin:round;stroke-miterlimit:10;}
	.st21{stroke:#000000;stroke-width:3;stroke-linejoin:round;stroke-miterlimit:10;}
	.st22{stroke:#000000;stroke-miterlimit:10;}
	.st23{fill:none;stroke:#000000;stroke-linejoin:round;}
	.st24{fill:none;stroke:#11ACCD;stroke-width:4;stroke-linecap:round;stroke-linejoin:round;}
	.st25{fill:#11ACCD;}
	.st26{font-family:'KaTeX_Main-Regular';}
	.st27{font-size:21px;}
	.st28{letter-spacing:1;}
	.st29{font-family:'KaTeX_Main-Italic';}
	.st30{fill:none;stroke:#E07D10;stroke-width:3;stroke-linecap:round;stroke-linejoin:round;}
	.st31{fill:none;stroke:#11ACCD;stroke-width:2;stroke-linecap:round;stroke-linejoin:round;}
	.st32{fill:none;stroke:#11ACCD;stroke-width:3;stroke-linecap:round;stroke-linejoin:round;}
	.st33{fill:#888D93;}
	.st34{stroke:#000000;stroke-linecap:round;stroke-miterlimit:10;}
	.st35{font-size:24px;}
	.st36{fill:#01A995;}
	.st37{fill:#66AFE9;}
	.st38{fill:none;stroke:#66AFE9;stroke-miterlimit:10;}
</style><g
     id="g5"
     transform="translate(3.4441142,6.8725005)"><circle
       class="st10"
       cx="66"
       cy="90"
       r="18"
       id="circle7"
       style="fill:none;stroke:#000000;stroke-width:2;stroke-miterlimit:10" /><polyline
       class="st0"
       points="84,24 78,24 66,24 66,72  "
       id="polyline9"
       style="fill:none;stroke:#000000;stroke-linecap:round;stroke-miterlimit:10" /><polyline
       class="st3"
       points="66,108 66,132 66,150 102,150 258,150 258,132  "
       id="polyline11"
       style="fill:none;stroke:#000000;stroke-linecap:round;stroke-linejoin:round;stroke-miterlimit:10" /><line
       class="st8"
       x1="66"
       y1="76.5"
       x2="66"
       y2="88.5"
       id="line13"
       style="fill:none;stroke:#000000;stroke-width:1.5;stroke-miterlimit:10" /><line
       class="st8"
       x1="60"
       y1="82.5"
       x2="72"
       y2="82.5"
       id="line15"
       style="fill:none;stroke:#000000;stroke-width:1.5;stroke-miterlimit:10" /><line
       class="st8"
       x1="60"
       y1="100.5"
       x2="72"
       y2="100.5"
       id="line17"
       style="fill:none;stroke:#000000;stroke-width:1.5;stroke-miterlimit:10" /></g><g
     id="g19"
     transform="translate(3.4441142,6.8725005)"><line
       class="st3"
       x1="161.39999"
       y1="24"
       x2="162"
       y2="24"
       id="line21"
       style="fill:none;stroke:#000000;stroke-linecap:round;stroke-linejoin:round;stroke-miterlimit:10" /><polyline
       class="st6"
       points="114.6,24 118.5,15 126.3,33 134.1,15 141.9,33 149.7,15 157.5,33 161.4,24  "
       id="polyline23"
       style="fill:none;stroke:#000000;stroke-width:2;stroke-linecap:round;stroke-linejoin:round;stroke-miterlimit:10" /><line
       class="st3"
       x1="84"
       y1="24"
       x2="114.6"
       y2="24"
       id="line25"
       style="fill:none;stroke:#000000;stroke-linecap:round;stroke-linejoin:round;stroke-miterlimit:10" /><rect
       x="102"
       y="12"
       class="st13"
       width="78"
       height="24"
       id="rect27"
       style="fill:none" /></g><g
     id="g29"
     transform="translate(3.4441142,6.8725005)"><line
       class="st3"
       x1="233.39999"
       y1="24"
       x2="252"
       y2="24"
       id="line31"
       style="fill:none;stroke:#000000;stroke-linecap:round;stroke-linejoin:round;stroke-miterlimit:10" /><polyline
       class="st6"
       points="186.6,24 190.5,15 198.3,33 206.1,15 213.9,33 221.7,15 229.5,33 233.4,24  "
       id="polyline33"
       style="fill:none;stroke:#000000;stroke-width:2;stroke-linecap:round;stroke-linejoin:round;stroke-miterlimit:10" /><line
       class="st3"
       x1="168"
       y1="24"
       x2="186.60001"
       y2="24"
       id="line35"
       style="fill:none;stroke:#000000;stroke-linecap:round;stroke-linejoin:round;stroke-miterlimit:10" /><rect
       x="168"
       y="12"
       class="st13"
       width="84"
       height="24"
       id="rect37"
       style="fill:none" /></g><g
     id="g39"
     transform="translate(3.4441142,6.8725005)"><line
       class="st3"
       x1="258"
       y1="66.599998"
       x2="258"
       y2="54"
       id="line41"
       style="fill:none;stroke:#000000;stroke-linecap:round;stroke-linejoin:round;stroke-miterlimit:10" /><polyline
       class="st6"
       points="258,113.4 249,109.5 267,101.7 249,93.9 267,86.1 249,78.3 267,70.5 258,66.6  "
       id="polyline43"
       style="fill:none;stroke:#000000;stroke-width:2;stroke-linecap:round;stroke-linejoin:round;stroke-miterlimit:10" /><line
       class="st3"
       x1="258"
       y1="132"
       x2="258"
       y2="113.4"
       id="line45"
       style="fill:none;stroke:#000000;stroke-linecap:round;stroke-linejoin:round;stroke-miterlimit:10" /><rect
       x="246"
       y="54"
       class="st13"
       width="24"
       height="78"
       id="rect47"
       style="fill:none" /></g><line
     class="st0"
     x1="165.44411"
     y1="30.872499"
     x2="171.44411"
     y2="30.872499"
     id="line49"
     style="fill:none;stroke:#000000;stroke-linecap:round;stroke-miterlimit:10" /><polyline
     class="st0"
     points="252,24 258,24 258,54 "
     id="polyline51"
     style="fill:none;stroke:#000000;stroke-linecap:round;stroke-miterlimit:10"
     transform="translate(3.4441142,6.8725005)" /><g
     style="font-style:normal;font-variant:normal;font-weight:normal;font-stretch:normal;font-size:22.5px;line-height:125%;font-family:KaTeX_Main;-inkscape-font-specification:'KaTeX_Main, Normal';text-align:start;letter-spacing:1;writing-mode:lr-tb;text-anchor:start"
     id="text53"><path
       d="m 132.36921,46.877501 q -0.225,-0.225 -0.45,-0.27 -0.2025,-0.045 -1.125,-0.0675 l -0.7425,0 0,-1.035 3.9375,0 q 4.185,0.0225 4.6125,0.09 0.0675,0.0225 0.2925,0.0675 1.0125,0.2025 1.8,0.63 2.1375,1.08 2.4525,2.9475 0.0225,0.1125 0.0225,0.36 0,1.26 -0.9675,2.205 -0.945,0.945 -2.25,1.3725 -0.045,0.0225 -0.1125,0.045 -0.045,0 -0.09,0.0225 l -0.045,0.0225 q 0.0675,0.0675 0.2475,0.135 1.62,0.9 2.0025,2.385 0.0225,0.09 0.2475,1.485 0.225,1.395 0.2475,1.485 0.1575,0.81 0.3825,1.1925 0.2475,0.3825 0.63,0.5175 0.09,0.045 0.3825,0.045 l 0.1125,0 q 0.2925,0 0.54,-0.2475 0.45,-0.45 0.5175,-1.35 0,-0.2475 0.0675,-0.315 0.09,-0.09 0.3825,-0.09 0.27,0 0.36,0.0675 0.09,0.045 0.09,0.27 0,0.81 -0.405,1.485 -0.3825,0.6525 -0.945,0.9 -0.36,0.135 -0.945,0.135 -3.3525,-0.135 -3.87,-2.52 -0.045,-0.2475 -0.0675,-1.6425 0,-1.395 -0.135,-1.8675 -0.2025,-0.6075 -0.675,-1.035 -0.45,-0.45 -1.035,-0.63 l -0.225,-0.045 -1.485,-0.0225 -1.485,0 0,2.9475 0.0225,2.9475 q 0.1575,0.225 0.3825,0.27 0.2475,0.045 1.17,0.0675 l 0.7425,0 0,1.035 -0.2475,0 q -0.36,-0.0675 -3.195,-0.0675 -2.8575,0 -3.2175,0.0675 l -0.2475,0 0,-1.035 0.7425,0 q 0.9225,-0.0225 1.125,-0.0675 0.225,-0.045 0.45,-0.27 l 0,-12.6225 z m 8.1,1.8675 q -0.225,-1.35 -1.215,-1.7775 -0.9675,-0.4275 -2.97,-0.4275 -0.3375,0 -0.765,0.0225 -0.4275,0 -0.45,0 -0.2925,0.0225 -0.36,0.18 -0.0675,0.09 -0.0675,3.06 l 0,2.97 1.305,0 q 1.6875,0 2.4975,-0.135 0.81,-0.1575 1.4175,-0.765 0.3825,-0.3825 0.495,-0.855 0.135,-0.4725 0.135,-1.3725 0,-0.72 -0.0225,-0.9 z"
       style="font-style:normal;font-variant:normal;font-weight:normal;font-stretch:normal;font-size:22.5px;line-height:125%;font-family:KaTeX_Main;-inkscape-font-specification:'KaTeX_Main, Normal';text-align:start;letter-spacing:1;writing-mode:lr-tb;text-anchor:start"
       id="path4281" /><path
       d="m 156.3716,60.872501 q -0.3825,-0.0675 -3.5775,-0.0675 -3.15,0 -3.5325,0.0675 l -0.27,0 0,-1.035 0.585,0 q 1.305,0 1.6875,-0.0675 0.18,-0.0225 0.54,-0.27 l 0,-11.6325 q -0.045,0 -0.18,0.0675 -1.035,0.405 -2.3175,0.4275 l -0.4275,0 0,-1.035 0.4275,0 q 1.89,-0.0675 3.15,-0.855 0.405,-0.225 0.6975,-0.5175 0.045,-0.0675 0.27,-0.0675 0.225,0 0.3825,0.135 l 0,6.7275 0.0225,6.75 q 0.3375,0.3375 1.4625,0.3375 l 0.7425,0 0.585,0 0,1.035 -0.2475,0 z"
       style="font-style:normal;font-variant:normal;font-weight:normal;font-stretch:normal;font-size:22.5px;line-height:125%;font-family:KaTeX_Main;-inkscape-font-specification:'KaTeX_Main, Normal';text-align:start;letter-spacing:1;writing-mode:lr-tb;text-anchor:start"
       id="path4283" /></g><g
     style="font-style:normal;font-variant:normal;font-weight:normal;font-stretch:normal;font-size:22.5px;line-height:125%;font-family:KaTeX_Main;-inkscape-font-specification:'KaTeX_Main, Normal';text-align:start;letter-spacing:1;writing-mode:lr-tb;text-anchor:start"
     id="text55"><path
       d="m 204.36921,46.877501 q -0.225,-0.225 -0.45,-0.27 -0.2025,-0.045 -1.125,-0.0675 l -0.7425,0 0,-1.035 3.9375,0 q 4.185,0.0225 4.6125,0.09 0.0675,0.0225 0.2925,0.0675 1.0125,0.2025 1.8,0.63 2.1375,1.08 2.4525,2.9475 0.0225,0.1125 0.0225,0.36 0,1.26 -0.9675,2.205 -0.945,0.945 -2.25,1.3725 -0.045,0.0225 -0.1125,0.045 -0.045,0 -0.09,0.0225 l -0.045,0.0225 q 0.0675,0.0675 0.2475,0.135 1.62,0.9 2.0025,2.385 0.0225,0.09 0.2475,1.485 0.225,1.395 0.2475,1.485 0.1575,0.81 0.3825,1.1925 0.2475,0.3825 0.63,0.5175 0.09,0.045 0.3825,0.045 l 0.1125,0 q 0.2925,0 0.54,-0.2475 0.45,-0.45 0.5175,-1.35 0,-0.2475 0.0675,-0.315 0.09,-0.09 0.3825,-0.09 0.27,0 0.36,0.0675 0.09,0.045 0.09,0.27 0,0.81 -0.405,1.485 -0.3825,0.6525 -0.945,0.9 -0.36,0.135 -0.945,0.135 -3.3525,-0.135 -3.87,-2.52 -0.045,-0.2475 -0.0675,-1.6425 0,-1.395 -0.135,-1.8675 -0.2025,-0.6075 -0.675,-1.035 -0.45,-0.45 -1.035,-0.63 l -0.225,-0.045 -1.485,-0.0225 -1.485,0 0,2.9475 0.0225,2.9475 q 0.1575,0.225 0.3825,0.27 0.2475,0.045 1.17,0.0675 l 0.7425,0 0,1.035 -0.2475,0 q -0.36,-0.0675 -3.195,-0.0675 -2.8575,0 -3.2175,0.0675 l -0.2475,0 0,-1.035 0.7425,0 q 0.9225,-0.0225 1.125,-0.0675 0.225,-0.045 0.45,-0.27 l 0,-12.6225 z m 8.1,1.8675 q -0.225,-1.35 -1.215,-1.7775 -0.9675,-0.4275 -2.97,-0.4275 -0.3375,0 -0.765,0.0225 -0.4275,0 -0.45,0 -0.2925,0.0225 -0.36,0.18 -0.0675,0.09 -0.0675,3.06 l 0,2.97 1.305,0 q 1.6875,0 2.4975,-0.135 0.81,-0.1575 1.4175,-0.765 0.3825,-0.3825 0.495,-0.855 0.135,-0.4725 0.135,-1.3725 0,-0.72 -0.0225,-0.9 z"
       style="font-style:normal;font-variant:normal;font-weight:normal;font-stretch:normal;font-size:22.5px;line-height:125%;font-family:KaTeX_Main;-inkscape-font-specification:'KaTeX_Main, Normal';text-align:start;letter-spacing:1;writing-mode:lr-tb;text-anchor:start"
       id="path4276" /><path
       d="m 221.4866,51.220001 q -0.63,0 -0.99,-0.405 -0.36,-0.405 -0.36,-0.99 0,-1.62 1.215,-2.7675 1.2375,-1.17 2.9475,-1.17 1.935,0 3.195,1.0575 1.2825,1.035 1.575,2.7225 0.045,0.405 0.045,0.7425 0,1.305 -0.7875,2.4525 -0.63,0.945 -2.5425,2.5875 -0.81,0.6975 -2.25,2.07 l -1.3275,1.26 1.71,0.0225 q 3.5325,0 3.7575,-0.1125 0.09,-0.0225 0.225,-0.4725 0.09,-0.2475 0.315,-1.53 l 0,-0.0675 0.9,0 0,0.0675 -0.63,4.1175 0,0.0675 -8.3475,0 0,-0.4275 q 0,-0.45 0.045,-0.5175 0.0225,-0.0225 1.89,-2.1375 2.4525,-2.7225 3.15,-3.6 1.5075,-2.0475 1.5075,-3.7575 0,-1.485 -0.7875,-2.475 -0.765,-1.0125 -2.16,-1.0125 -1.305,0 -2.115,1.17 -0.045,0.09 -0.135,0.2475 -0.0675,0.1125 -0.0675,0.135 0,0.0225 0.1125,0.0225 0.5625,0 0.9,0.405 0.36,0.405 0.36,0.945 0,0.5625 -0.3825,0.9675 -0.36,0.3825 -0.9675,0.3825 z"
       style="font-style:normal;font-variant:normal;font-weight:normal;font-stretch:normal;font-size:22.5px;line-height:125%;font-family:KaTeX_Main;-inkscape-font-specification:'KaTeX_Main, Normal';text-align:start;letter-spacing:1;writing-mode:lr-tb;text-anchor:start"
       id="path4278" /></g><g
     style="font-style:normal;font-variant:normal;font-weight:normal;font-stretch:normal;font-size:22.5px;line-height:125%;font-family:KaTeX_Main;-inkscape-font-specification:'KaTeX_Main, Normal';text-align:start;letter-spacing:1;writing-mode:lr-tb;text-anchor:start"
     id="text57"><path
       d="m 222.36921,88.877398 q -0.225,-0.225 -0.45,-0.27 -0.2025,-0.045 -1.125,-0.0675 l -0.7425,0 0,-1.035 3.9375,0 q 4.185,0.0225 4.6125,0.09 0.0675,0.0225 0.2925,0.0675 1.0125,0.2025 1.8,0.63 2.1375,1.08 2.4525,2.9475 0.0225,0.1125 0.0225,0.36 0,1.26 -0.9675,2.205 -0.945,0.945 -2.25,1.3725 -0.045,0.0225 -0.1125,0.045 -0.045,0 -0.09,0.0225 l -0.045,0.0225 q 0.0675,0.0675 0.2475,0.135 1.62,0.9 2.0025,2.385 0.0225,0.09 0.2475,1.485 0.225,1.395002 0.2475,1.485002 0.1575,0.81 0.3825,1.1925 0.2475,0.3825 0.63,0.5175 0.09,0.045 0.3825,0.045 l 0.1125,0 q 0.2925,0 0.54,-0.2475 0.45,-0.45 0.5175,-1.35 0,-0.2475 0.0675,-0.315 0.09,-0.09 0.3825,-0.09 0.27,0 0.36,0.0675 0.09,0.045 0.09,0.27 0,0.81 -0.405,1.485 -0.3825,0.6525 -0.945,0.9 -0.36,0.135 -0.945,0.135 -3.3525,-0.135 -3.87,-2.52 -0.045,-0.2475 -0.0675,-1.642502 0,-1.395 -0.135,-1.8675 -0.2025,-0.6075 -0.675,-1.035 -0.45,-0.45 -1.035,-0.63 l -0.225,-0.045 -1.485,-0.0225 -1.485,0 0,2.9475 0.0225,2.947502 q 0.1575,0.225 0.3825,0.27 0.2475,0.045 1.17,0.0675 l 0.7425,0 0,1.035 -0.2475,0 q -0.36,-0.0675 -3.195,-0.0675 -2.8575,0 -3.2175,0.0675 l -0.2475,0 0,-1.035 0.7425,0 q 0.9225,-0.0225 1.125,-0.0675 0.225,-0.045 0.45,-0.27 l 0,-12.622502 z m 8.1,1.8675 q -0.225,-1.35 -1.215,-1.7775 -0.9675,-0.4275 -2.97,-0.4275 -0.3375,0 -0.765,0.0225 -0.4275,0 -0.45,0 -0.2925,0.0225 -0.36,0.18 -0.0675,0.09 -0.0675,3.06 l 0,2.97 1.305,0 q 1.6875,0 2.4975,-0.135 0.81,-0.1575 1.4175,-0.765 0.3825,-0.3825 0.495,-0.855 0.135,-0.4725 0.135,-1.3725 0,-0.72 -0.0225,-0.9 z"
       style="font-style:normal;font-variant:normal;font-weight:normal;font-stretch:normal;font-size:22.5px;line-height:125%;font-family:KaTeX_Main;-inkscape-font-specification:'KaTeX_Main, Normal';text-align:start;letter-spacing:1;writing-mode:lr-tb;text-anchor:start"
       id="path4271" /><path
       d="m 239.8691,92.454898 q -0.6075,0 -0.9675,-0.3825 -0.3375,-0.3825 -0.3375,-0.99 0,-1.2825 1.0125,-2.1375 1.0125,-0.8775 2.34,-1.035 l 0.3375,0 q 0.7875,0 0.99,0.0225 0.7425,0.1125 1.5075,0.4725 1.485,0.7425 1.8675,2.115 0.0675,0.225 0.0675,0.6075 0,1.3275 -0.8325,2.385 -0.81,1.035 -2.0475,1.485 -0.1125,0.045 0,0.0675 0.045,0.0225 0.225,0.0675 1.3725,0.3825 2.3175,1.44 0.945,1.035 0.945,2.3625 0,0.9225 -0.4275,1.777502 -0.54,1.1475 -1.7775,1.9125 -1.215,0.7425 -2.7225,0.7425 -1.485,0 -2.6325,-0.63 -1.1475,-0.63 -1.5525,-1.6875 -0.225,-0.4725 -0.225,-1.102502 0,-0.63 0.405,-1.0125 0.4275,-0.405 1.0125,-0.405 0.63,0 1.035,0.405 0.405,0.405 0.405,1.0125 0,0.517502 -0.2925,0.900002 -0.2925,0.3825 -0.7875,0.495 l -0.1575,0.045 q 1.215,1.0125 2.79,1.0125 1.2375,0 1.8675,-1.1925 0.3825,-0.7425 0.3825,-2.272502 l 0,-0.45 q 0,-2.1375 -1.44,-2.8575 -0.3375,-0.135 -1.3725,-0.1575 l -0.945,-0.0225 -0.0675,-0.045 q -0.045,-0.0675 -0.045,-0.36 0,-0.27 0.0675,-0.3375 0.0675,-0.0675 0.1125,-0.0675 0.63,0 1.305,-0.1125 0.99,-0.135 1.5075,-1.1025 0.5175,-0.99 0.5175,-2.3625 0,-1.4625 -0.7875,-1.9575 -0.4725,-0.315 -1.0575,-0.315 -1.125,0 -1.98,0.6075 -0.09,0.045 -0.2025,0.1575 -0.1125,0.09 -0.18,0.18 l -0.0675,0.09 q 0.0675,0.0225 0.1575,0.045 0.45,0.045 0.7425,0.4275 0.315,0.3825 0.315,0.8775 0,0.54 -0.3825,0.9225 -0.36,0.36 -0.945,0.36 z"
       style="font-style:normal;font-variant:normal;font-weight:normal;font-stretch:normal;font-size:22.5px;line-height:125%;font-family:KaTeX_Main;-inkscape-font-specification:'KaTeX_Main, Normal';text-align:start;letter-spacing:1;writing-mode:lr-tb;text-anchor:start"
       id="path4273" /></g><g
     style="font-style:normal;font-variant:normal;font-weight:normal;font-stretch:normal;font-size:22.5px;line-height:125%;font-family:KaTeX_Main;-inkscape-font-specification:'KaTeX_Main, Normal';text-align:start;letter-spacing:1;writing-mode:lr-tb;text-anchor:start"
     id="text59"><path
       d="m 96.009214,88.922398 q -0.2475,-0.2475 -0.45,-0.2925 -0.2025,-0.0675 -1.035,-0.09 l -0.6525,0 0,-1.035 0.2025,0 q 0.315,0.0675 2.79,0.0675 2.7,0 3.194996,-0.0675 l 0.2475,0 0,1.035 -0.472496,0 q -1.035,0.0225 -1.2825,0.2475 -0.09,0.0675 -0.09,0.135 0,0.045 2.024996,5.58 2.025,5.535002 2.0475,5.535002 0.8775,-2.362502 1.935,-5.220002 1.9125,-5.175 1.9125,-5.3775 0,-0.4275 -0.4725,-0.6525 -0.4725,-0.2475 -1.035,-0.2475 l -0.1125,0 0,-1.035 0.2025,0 q 0.3825,0.0675 2.5875,0.0675 1.935,0 2.1825,-0.0675 l 0.135,0 0,1.035 -0.1575,0 q -1.665,0 -2.16,0.9225 0,0.0225 -2.5425,6.8625 -2.52,6.840002 -2.5425,6.862502 -0.0675,0.18 -0.405,0.18 l -0.2025,0 -0.2025,0 q -0.315,0 -0.3825,-0.18 -0.045,-0.045 -2.632496,-7.132502 -2.6325,-7.065 -2.6325,-7.1325 z"
       style="font-style:normal;font-variant:normal;font-weight:normal;font-stretch:normal;font-size:22.5px;line-height:125%;font-family:KaTeX_Main;-inkscape-font-specification:'KaTeX_Main, Normal';text-align:start;letter-spacing:1;writing-mode:lr-tb;text-anchor:start"
       id="path4268" /></g><g
     style="font-style:normal;font-variant:normal;font-weight:normal;font-stretch:normal;font-size:16.25px;line-height:125%;font-family:KaTeX_Main;-inkscape-font-specification:'KaTeX_Main, Normal';text-align:start;writing-mode:lr-tb;text-anchor:start"
     id="text61"><path
       d="m 112.21567,106.17675 q 0.0975,0.0975 0.0975,0.21125 0,1.44625 0.92625,2.275 0.9425,0.8125 2.48625,0.8125 0.195,0 0.26,-0.0162 0.715,-0.14625 1.15375,-0.73125 0.455,-0.585 0.455,-1.38125 0,-0.69875 -0.37375,-1.2675 -0.3575,-0.585 -0.92625,-0.78 -0.91,-0.2275 -1.2025,-0.30875 -1.21875,-0.2925 -1.25125,-0.30875 -0.9425,-0.325 -1.56,-1.1375 -0.6175,-0.82875 -0.6175,-1.9175 0,-0.975 0.50375,-1.738749 0.50375,-0.76375 1.25125,-1.1375 0.65,-0.325 1.3,-0.325 1.28375,0 2.08,0.5525 0.24375,0.1625 0.5525,0.47125 l 0.34125,-0.50375 q 0.0812,-0.11375 0.1625,-0.24375 0.0975,-0.13 0.1625,-0.21125 l 0.0487,-0.065 q 0.0162,0 0.065,0 0.0487,-0.01625 0.0975,-0.01625 0.11375,0 0.21125,0.0975 l 0,3.851249 -0.0975,0.0975 -0.2925,0 q -0.17875,0 -0.21125,-0.0487 -0.0325,-0.0487 -0.0813,-0.325 -0.27625,-2.0475 -1.64125,-2.713749 -0.60125,-0.26 -1.21875,-0.26 -0.845,0 -1.3975,0.5525 -0.53625,0.536249 -0.53625,1.397499 0,0.5525 0.27625,1.02375 0.27625,0.455 0.78,0.715 0.1625,0.0812 1.5275,0.40625 1.15375,0.30875 1.235,0.34125 0.92625,0.3575 1.51125,1.21875 0.60125,0.845 0.60125,1.99875 0,1.3325 -0.73125,2.25875 -0.73125,0.91 -1.9175,1.15375 -0.1625,0.0325 -0.585,0.0325 -1.7225,0 -2.795,-0.9425 -0.0812,-0.0812 -0.11375,-0.065 -0.065,0.0812 -0.24375,0.34125 -0.17875,0.24375 -0.325,0.43875 -0.14625,0.21125 -0.14625,0.2275 -0.0325,0.0162 -0.1625,0.0162 -0.11375,0 -0.21125,-0.0975 l 0,-1.90125 q 0,-1.93375 0.0162,-1.96625 0.0325,-0.0812 0.325,-0.0812 l 0.21125,0 z"
       style="font-style:normal;font-variant:normal;font-weight:normal;font-stretch:normal;font-size:16.25px;line-height:125%;font-family:KaTeX_Main;-inkscape-font-specification:'KaTeX_Main, Normal';text-align:start;writing-mode:lr-tb;text-anchor:start"
       id="path4265" /></g><g
     id="g63"
     transform="translate(3.4441142,6.8725005)"><circle
       class="st10"
       cx="384"
       cy="90"
       r="18"
       id="circle65"
       style="fill:none;stroke:#000000;stroke-width:2;stroke-miterlimit:10" /><polyline
       class="st0"
       points="384,72 384,48 384,24 552,24 552,48  "
       id="polyline67"
       style="fill:none;stroke:#000000;stroke-linecap:round;stroke-miterlimit:10" /><polyline
       class="st0"
       points="384,108 384,132 384,150 552,150 552,132  "
       id="polyline69"
       style="fill:none;stroke:#000000;stroke-linecap:round;stroke-miterlimit:10" /><line
       class="st8"
       x1="384"
       y1="76.5"
       x2="384"
       y2="88.5"
       id="line71"
       style="fill:none;stroke:#000000;stroke-width:1.5;stroke-miterlimit:10" /><line
       class="st8"
       x1="378"
       y1="82.5"
       x2="390"
       y2="82.5"
       id="line73"
       style="fill:none;stroke:#000000;stroke-width:1.5;stroke-miterlimit:10" /><line
       class="st8"
       x1="378"
       y1="100.5"
       x2="390"
       y2="100.5"
       id="line75"
       style="fill:none;stroke:#000000;stroke-width:1.5;stroke-miterlimit:10" /></g><g
     id="g77"
     transform="translate(3.4441142,6.8725005)"><line
       class="st3"
       x1="552"
       y1="66.599998"
       x2="552"
       y2="48"
       id="line79"
       style="fill:none;stroke:#000000;stroke-linecap:round;stroke-linejoin:round;stroke-miterlimit:10" /><polyline
       class="st6"
       points="552,113.4 543,109.5 561,101.7 543,93.9 561,86.1 543,78.3 561,70.5 552,66.6  "
       id="polyline81"
       style="fill:none;stroke:#000000;stroke-width:2;stroke-linecap:round;stroke-linejoin:round;stroke-miterlimit:10" /><line
       class="st3"
       x1="552"
       y1="132"
       x2="552"
       y2="113.4"
       id="line83"
       style="fill:none;stroke:#000000;stroke-linecap:round;stroke-linejoin:round;stroke-miterlimit:10" /><rect
       x="540"
       y="48"
       class="st13"
       width="24"
       height="84"
       id="rect85"
       style="fill:none" /></g><g
     style="font-style:normal;font-variant:normal;font-weight:normal;font-stretch:normal;font-size:22.5px;line-height:125%;font-family:KaTeX_Main;-inkscape-font-specification:'KaTeX_Main, Normal';text-align:start;letter-spacing:1;writing-mode:lr-tb;text-anchor:start"
     id="text87"><path
       d="m 491.2826,88.877398 q -0.225,-0.225 -0.45,-0.27 -0.2025,-0.045 -1.125,-0.0675 l -0.7425,0 0,-1.035 3.9375,0 q 4.185,0.0225 4.6125,0.09 0.0675,0.0225 0.2925,0.0675 1.0125,0.2025 1.8,0.63 2.1375,1.08 2.4525,2.9475 0.0225,0.1125 0.0225,0.36 0,1.26 -0.9675,2.205 -0.945,0.945 -2.25,1.3725 -0.045,0.0225 -0.1125,0.045 -0.045,0 -0.09,0.0225 l -0.045,0.0225 q 0.0675,0.0675 0.2475,0.135 1.62,0.9 2.0025,2.385 0.0225,0.09 0.2475,1.485 0.225,1.395002 0.2475,1.485002 0.1575,0.81 0.3825,1.1925 0.2475,0.3825 0.63,0.5175 0.09,0.045 0.3825,0.045 l 0.1125,0 q 0.2925,0 0.54,-0.2475 0.45,-0.45 0.5175,-1.35 0,-0.2475 0.0675,-0.315 0.09,-0.09 0.3825,-0.09 0.27,0 0.36,0.0675 0.09,0.045 0.09,0.27 0,0.81 -0.405,1.485 -0.3825,0.6525 -0.945,0.9 -0.36,0.135 -0.945,0.135 -3.3525,-0.135 -3.87,-2.52 -0.045,-0.2475 -0.0675,-1.642502 0,-1.395 -0.135,-1.8675 -0.2025,-0.6075 -0.675,-1.035 -0.45,-0.45 -1.035,-0.63 l -0.225,-0.045 -1.485,-0.0225 -1.485,0 0,2.9475 0.0225,2.947502 q 0.1575,0.225 0.3825,0.27 0.2475,0.045 1.17,0.0675 l 0.7425,0 0,1.035 -0.2475,0 q -0.36,-0.0675 -3.195,-0.0675 -2.8575,0 -3.2175,0.0675 l -0.2475,0 0,-1.035 0.7425,0 q 0.9225,-0.0225 1.125,-0.0675 0.225,-0.045 0.45,-0.27 l 0,-12.622502 z m 8.1,1.8675 q -0.225,-1.35 -1.215,-1.7775 -0.9675,-0.4275 -2.97,-0.4275 -0.3375,0 -0.765,0.0225 -0.4275,0 -0.45,0 -0.2925,0.0225 -0.36,0.18 -0.0675,0.09 -0.0675,3.06 l 0,2.97 1.305,0 q 1.6875,0 2.4975,-0.135 0.81,-0.1575 1.4175,-0.765 0.3825,-0.3825 0.495,-0.855 0.135,-0.4725 0.135,-1.3725 0,-0.72 -0.0225,-0.9 z"
       style="font-style:normal;font-variant:normal;font-weight:normal;font-stretch:normal;font-size:22.5px;line-height:125%;font-family:KaTeX_Main;-inkscape-font-specification:'KaTeX_Main, Normal';text-align:start;letter-spacing:1;writing-mode:lr-tb;text-anchor:start"
       id="path4262" /></g><g
     style="font-style:normal;font-variant:normal;font-weight:normal;font-stretch:normal;font-size:16.25px;line-height:125%;font-family:KaTeX_Main;-inkscape-font-specification:'KaTeX_Main, Normal';text-align:start;writing-mode:lr-tb;text-anchor:start"
     id="text89"><path
       d="m 508.4759,103.138 q -1.495,0 -1.495,1.05625 0,0.21125 0.0325,0.27625 0.14625,0.39 0.50375,0.56875 0.3575,0.1625 1.105,0.30875 0.92625,0.1625 1.2675,0.3575 1.02375,0.4875 1.31625,1.60875 0.0163,0.0975 0.0163,0.39 0,0.63375 -0.2275,1.12125 -0.63375,1.2025 -2.38875,1.2025 -0.975,0 -1.69,-0.585 l -0.13,0.11375 -0.14625,0.14625 q -0.0975,0.0975 -0.195,0.17875 l -0.17875,0.1625 -0.13,0 q -0.11375,0 -0.21125,-0.0975 l 0,-1.28375 q 0,-1.05625 0,-1.21875 0.0163,-0.1625 0.0813,-0.195 0.0325,-0.0162 0.26,-0.0162 0.21125,0 0.24375,0.0325 0.0487,0.0325 0.0975,0.2275 0.13,0.6175 0.4225,1.12125 0.56875,0.82875 1.57625,0.82875 1.57625,0 1.57625,-1.2675 0,-0.47125 -0.2925,-0.76375 -0.26,-0.30875 -0.6825,-0.43875 -0.27625,-0.065 -0.78,-0.17875 -0.91,-0.17875 -1.235,-0.34125 -1.0725,-0.50375 -1.25125,-1.51125 -0.0163,-0.065 -0.0163,-0.24375 0,-1.86875 2.29125,-2.09625 0.065,-0.0325 0.39,0 0.65,0 1.1375,0.24375 l 0.24375,0.13 0.14625,-0.11375 q 0.21125,-0.17875 0.3575,-0.27625 l 0.13,0 q 0.11375,0 0.21125,0.0975 l 0,2.145 -0.0975,0.0975 -0.455,0 q -0.0975,-0.0975 -0.0975,-0.195 0,-0.7475 -0.455,-1.17 -0.455,-0.4225 -1.25125,-0.4225 z"
       style="font-style:normal;font-variant:normal;font-weight:normal;font-stretch:normal;font-size:16.25px;line-height:125%;font-family:KaTeX_Main;-inkscape-font-specification:'KaTeX_Main, Normal';text-align:start;writing-mode:lr-tb;text-anchor:start"
       id="path4249" /><path
       d="m 518.51154,105.88425 q 0,0.11375 -0.11375,0.2275 l -4.5825,0 0,0.24375 q 0,1.2025 0.325,1.82 0.585,1.2025 2.015,1.2025 0.69875,0 1.17,-0.52 0.325,-0.325 0.50375,-0.845 0.0488,-0.17875 0.0975,-0.2275 0.0487,-0.0487 0.26,-0.0487 0.325,0 0.325,0.1625 0,0.065 -0.0487,0.21125 -0.30875,0.845 -0.99125,1.3975 -0.66625,0.53625 -1.64125,0.53625 -0.30875,0 -0.715,-0.0813 -0.92625,-0.17875 -1.6575,-0.845 -0.73125,-0.66625 -1.04,-1.60875 -0.195,-0.585 -0.195,-1.18625 0,-1.495 0.8775,-2.51875 0.8775,-1.04 2.16125,-1.2025 0.065,-0.0162 0.2275,-0.0162 1.47875,0 2.2425,0.8775 0.78,0.86125 0.78,2.42125 z m -1.3325,-0.4875 q -0.14625,-1.77125 -1.2025,-2.145 -0.11375,-0.0487 -0.34125,-0.065 -0.845,0 -1.38125,0.78 -0.325,0.52 -0.4225,1.44625 l 0,0.11375 3.3475,0 0,-0.13 z"
       style="font-style:normal;font-variant:normal;font-weight:normal;font-stretch:normal;font-size:16.25px;line-height:125%;font-family:KaTeX_Main;-inkscape-font-specification:'KaTeX_Main, Normal';text-align:start;writing-mode:lr-tb;text-anchor:start"
       id="path4251" /><path
       d="m 519.55738,109.118 0.2275,0 q 0.63375,0 0.76375,-0.2275 l 0,-0.13 q 0,-0.14625 0,-0.37375 0.0163,-0.2275 0.0163,-0.50375 0,-0.2925 0,-0.63375 0,-0.3575 0,-0.6825 0,-0.50375 0,-1.0725 0,-0.585 0,-0.95875 l -0.0163,-0.37375 q -0.0488,-0.30875 -0.24375,-0.40625 -0.17875,-0.11375 -0.715,-0.14625 l -0.2925,0 0,-0.37375 q 0,-0.37375 0.0325,-0.37375 l 0.1625,-0.0162 q 0.1625,-0.0162 0.455,-0.0325 0.2925,-0.0162 0.585,-0.0325 0.26,-0.0162 0.56875,-0.0325 0.30875,-0.0325 0.47125,-0.0487 0.1625,-0.0162 0.17875,-0.0162 l 0.0488,0 0,1.12125 q 0.30875,-0.52 0.6825,-0.8125 0.37375,-0.2925 0.99125,-0.2925 0.455,0 0.78,0.17875 0.63375,0.325 0.63375,0.92625 0,0.3575 -0.24375,0.60125 -0.24375,0.2275 -0.585,0.2275 -0.34125,0 -0.585,-0.2275 -0.2275,-0.2275 -0.2275,-0.585 0,-0.27625 0.13,-0.455 0.0325,-0.065 0.0325,-0.0812 -0.0325,-0.0325 -0.37375,0.065 -0.26,0.13 -0.39,0.24375 -0.65,0.6175 -0.7475,2.0475 l 0,0.63375 q -0.0163,0.63375 -0.0163,1.08875 0,0.21125 0,0.455 0,0.2275 0,0.40625 0.0163,0.17875 0.0163,0.325 0,0.14625 0,0.24375 l 0,0.0812 q 0.065,0.13 0.195,0.1625 0.1625,0.065 0.86125,0.0812 l 0.50375,0 0,0.7475 -0.14625,0 q -0.2925,-0.0487 -2.06375,-0.0487 -1.5925,0 -1.82,0.0487 l -0.13,0 0,-0.7475 0.26,0 z"
       style="font-style:normal;font-variant:normal;font-weight:normal;font-stretch:normal;font-size:16.25px;line-height:125%;font-family:KaTeX_Main;-inkscape-font-specification:'KaTeX_Main, Normal';text-align:start;writing-mode:lr-tb;text-anchor:start"
       id="path4253" /><path
       d="m 527.44879,98.994251 q 0.40625,0.0325 0.66625,0.2925 0.26,0.24375 0.26,0.6825 0,0.584999 -0.43875,0.828749 -0.21125,0.14625 -0.52,0.14625 -0.325,0 -0.53625,-0.14625 -0.43875,-0.24375 -0.43875,-0.828749 0,-0.455 0.27625,-0.715 0.2925,-0.26 0.73125,-0.26 z m 1.885,10.871249 q -0.17875,-0.0487 -1.69,-0.0487 -1.47875,0 -1.77125,0.0487 l -0.13,0 0,-0.7475 0.26,0 q 0.455,0 0.79625,-0.0487 0.13,-0.0487 0.195,-0.17875 0.0163,-0.0325 0.0163,-2.35625 0,-2.4375 -0.065,-2.6 -0.13,-0.325 -0.95875,-0.325 l -0.17875,0 0,-0.37375 q 0,-0.37375 0.0325,-0.37375 l 0.1625,-0.0162 q 0.1625,-0.0162 0.455,-0.0325 0.2925,-0.0162 0.585,-0.0325 0.27625,-0.0162 0.585,-0.0325 0.30875,-0.0325 0.47125,-0.0487 0.1625,-0.0162 0.17875,-0.0162 l 0.0487,0 0,6.175 q 0.0813,0.1625 0.195,0.21125 0.11375,0.0325 0.56875,0.0487 l 0.37375,0 0,0.7475 -0.13,0 z"
       style="font-style:normal;font-variant:normal;font-weight:normal;font-stretch:normal;font-size:16.25px;line-height:125%;font-family:KaTeX_Main;-inkscape-font-specification:'KaTeX_Main, Normal';text-align:start;writing-mode:lr-tb;text-anchor:start"
       id="path4255" /><path
       d="m 536.57062,105.88425 q 0,0.11375 -0.11375,0.2275 l -4.5825,0 0,0.24375 q 0,1.2025 0.325,1.82 0.585,1.2025 2.015,1.2025 0.69875,0 1.17,-0.52 0.325,-0.325 0.50375,-0.845 0.0488,-0.17875 0.0975,-0.2275 0.0487,-0.0487 0.26,-0.0487 0.325,0 0.325,0.1625 0,0.065 -0.0487,0.21125 -0.30875,0.845 -0.99125,1.3975 -0.66625,0.53625 -1.64125,0.53625 -0.30875,0 -0.715,-0.0813 -0.92625,-0.17875 -1.6575,-0.845 -0.73125,-0.66625 -1.04,-1.60875 -0.195,-0.585 -0.195,-1.18625 0,-1.495 0.8775,-2.51875 0.8775,-1.04 2.16125,-1.2025 0.065,-0.0162 0.2275,-0.0162 1.47875,0 2.2425,0.8775 0.78,0.86125 0.78,2.42125 z m -1.3325,-0.4875 q -0.14625,-1.77125 -1.2025,-2.145 -0.11375,-0.0487 -0.34125,-0.065 -0.845,0 -1.38125,0.78 -0.325,0.52 -0.4225,1.44625 l 0,0.11375 3.3475,0 0,-0.13 z"
       style="font-style:normal;font-variant:normal;font-weight:normal;font-stretch:normal;font-size:16.25px;line-height:125%;font-family:KaTeX_Main;-inkscape-font-specification:'KaTeX_Main, Normal';text-align:start;writing-mode:lr-tb;text-anchor:start"
       id="path4257" /><path
       d="m 540.11896,103.138 q -1.495,0 -1.495,1.05625 0,0.21125 0.0325,0.27625 0.14625,0.39 0.50375,0.56875 0.3575,0.1625 1.105,0.30875 0.92625,0.1625 1.2675,0.3575 1.02375,0.4875 1.31625,1.60875 0.0163,0.0975 0.0163,0.39 0,0.63375 -0.2275,1.12125 -0.63375,1.2025 -2.38875,1.2025 -0.975,0 -1.69,-0.585 l -0.13,0.11375 -0.14625,0.14625 q -0.0975,0.0975 -0.195,0.17875 l -0.17875,0.1625 -0.13,0 q -0.11375,0 -0.21125,-0.0975 l 0,-1.28375 q 0,-1.05625 0,-1.21875 0.0163,-0.1625 0.0812,-0.195 0.0325,-0.0162 0.26,-0.0162 0.21125,0 0.24375,0.0325 0.0488,0.0325 0.0975,0.2275 0.13,0.6175 0.4225,1.12125 0.56875,0.82875 1.57625,0.82875 1.57625,0 1.57625,-1.2675 0,-0.47125 -0.2925,-0.76375 -0.26,-0.30875 -0.6825,-0.43875 -0.27625,-0.065 -0.78,-0.17875 -0.91,-0.17875 -1.235,-0.34125 -1.0725,-0.50375 -1.25125,-1.51125 -0.0163,-0.065 -0.0163,-0.24375 0,-1.86875 2.29125,-2.09625 0.065,-0.0325 0.39,0 0.65,0 1.1375,0.24375 l 0.24375,0.13 0.14625,-0.11375 q 0.21125,-0.17875 0.3575,-0.27625 l 0.13,0 q 0.11375,0 0.21125,0.0975 l 0,2.145 -0.0975,0.0975 -0.455,0 q -0.0975,-0.0975 -0.0975,-0.195 0,-0.7475 -0.455,-1.17 -0.455,-0.4225 -1.25125,-0.4225 z"
       style="font-style:normal;font-variant:normal;font-weight:normal;font-stretch:normal;font-size:16.25px;line-height:125%;font-family:KaTeX_Main;-inkscape-font-specification:'KaTeX_Main, Normal';text-align:start;writing-mode:lr-tb;text-anchor:start"
       id="path4259" /></g><g
     style="font-style:normal;font-variant:normal;font-weight:normal;font-stretch:normal;font-size:22.5px;line-height:125%;font-family:KaTeX_Main;-inkscape-font-specification:'KaTeX_Main, Normal';text-align:start;letter-spacing:1;writing-mode:lr-tb;text-anchor:start"
     id="text91"><path
       d="m 414.00921,88.922398 q -0.2475,-0.2475 -0.45,-0.2925 -0.2025,-0.0675 -1.035,-0.09 l -0.6525,0 0,-1.035 0.2025,0 q 0.315,0.0675 2.79,0.0675 2.7,0 3.195,-0.0675 l 0.2475,0 0,1.035 -0.4725,0 q -1.035,0.0225 -1.2825,0.2475 -0.09,0.0675 -0.09,0.135 0,0.045 2.025,5.58 2.025,5.535002 2.0475,5.535002 0.8775,-2.362502 1.935,-5.220002 1.9125,-5.175 1.9125,-5.3775 0,-0.4275 -0.4725,-0.6525 -0.4725,-0.2475 -1.035,-0.2475 l -0.1125,0 0,-1.035 0.2025,0 q 0.3825,0.0675 2.5875,0.0675 1.935,0 2.1825,-0.0675 l 0.135,0 0,1.035 -0.1575,0 q -1.665,0 -2.16,0.9225 0,0.0225 -2.5425,6.8625 -2.52,6.840002 -2.5425,6.862502 -0.0675,0.18 -0.405,0.18 l -0.2025,0 -0.2025,0 q -0.315,0 -0.3825,-0.18 -0.045,-0.045 -2.6325,-7.132502 -2.6325,-7.065 -2.6325,-7.1325 z"
       style="font-style:normal;font-variant:normal;font-weight:normal;font-stretch:normal;font-size:22.5px;line-height:125%;font-family:KaTeX_Main;-inkscape-font-specification:'KaTeX_Main, Normal';text-align:start;letter-spacing:1;writing-mode:lr-tb;text-anchor:start"
       id="path4246" /></g><g
     style="font-style:normal;font-variant:normal;font-weight:normal;font-stretch:normal;font-size:16.25px;line-height:125%;font-family:KaTeX_Main;-inkscape-font-specification:'KaTeX_Main, Normal';text-align:start;writing-mode:lr-tb;text-anchor:start"
     id="text93"><path
       d="m 430.21566,106.17675 q 0.0975,0.0975 0.0975,0.21125 0,1.44625 0.92625,2.275 0.9425,0.8125 2.48625,0.8125 0.195,0 0.26,-0.0162 0.715,-0.14625 1.15375,-0.73125 0.455,-0.585 0.455,-1.38125 0,-0.69875 -0.37375,-1.2675 -0.3575,-0.585 -0.92625,-0.78 -0.91,-0.2275 -1.2025,-0.30875 -1.21875,-0.2925 -1.25125,-0.30875 -0.9425,-0.325 -1.56,-1.1375 -0.6175,-0.82875 -0.6175,-1.9175 0,-0.975 0.50375,-1.738749 0.50375,-0.76375 1.25125,-1.1375 0.65,-0.325 1.3,-0.325 1.28375,0 2.08,0.5525 0.24375,0.1625 0.5525,0.47125 l 0.34125,-0.50375 q 0.0813,-0.11375 0.1625,-0.24375 0.0975,-0.13 0.1625,-0.21125 l 0.0487,-0.065 q 0.0163,0 0.065,0 0.0488,-0.01625 0.0975,-0.01625 0.11375,0 0.21125,0.0975 l 0,3.851249 -0.0975,0.0975 -0.2925,0 q -0.17875,0 -0.21125,-0.0487 -0.0325,-0.0487 -0.0813,-0.325 -0.27625,-2.0475 -1.64125,-2.713749 -0.60125,-0.26 -1.21875,-0.26 -0.845,0 -1.3975,0.5525 -0.53625,0.536249 -0.53625,1.397499 0,0.5525 0.27625,1.02375 0.27625,0.455 0.78,0.715 0.1625,0.0812 1.5275,0.40625 1.15375,0.30875 1.235,0.34125 0.92625,0.3575 1.51125,1.21875 0.60125,0.845 0.60125,1.99875 0,1.3325 -0.73125,2.25875 -0.73125,0.91 -1.9175,1.15375 -0.1625,0.0325 -0.585,0.0325 -1.7225,0 -2.795,-0.9425 -0.0813,-0.0812 -0.11375,-0.065 -0.065,0.0812 -0.24375,0.34125 -0.17875,0.24375 -0.325,0.43875 -0.14625,0.21125 -0.14625,0.2275 -0.0325,0.0162 -0.1625,0.0162 -0.11375,0 -0.21125,-0.0975 l 0,-1.90125 q 0,-1.93375 0.0163,-1.96625 0.0325,-0.0812 0.325,-0.0812 l 0.21125,0 z"
       style="font-style:normal;font-variant:normal;font-weight:normal;font-stretch:normal;font-size:16.25px;line-height:125%;font-family:KaTeX_Main;-inkscape-font-specification:'KaTeX_Main, Normal';text-align:start;writing-mode:lr-tb;text-anchor:start"
       id="path4243" /></g><g
     style="font-style:normal;font-variant:normal;font-weight:normal;font-stretch:normal;font-size:22.5px;line-height:125%;font-family:KaTeX_Math;-inkscape-font-specification:'KaTeX_Math, Normal';text-align:start;letter-spacing:1;writing-mode:lr-tb;text-anchor:start;fill:#11accd"
     id="text95"><path
       d="m 403.58412,11.372499 q 0,-0.5175 0.4275,-0.945 0.4275,-0.4274995 0.99,-0.4274995 0.405,0 0.675,0.2699995 0.2925,0.27 0.2925,0.675 0,0.495 -0.45,0.945 -0.45,0.45 -0.99,0.45 -0.405,0 -0.675,-0.27 -0.27,-0.27 -0.27,-0.6975 z m -0.5175,13.7475 q -0.8775,0 -1.4175,-0.5175 -0.54,-0.5175 -0.54,-1.395 0,-0.3825 0.045,-0.5175 0,-0.045 1.035,-2.7675 1.035,-2.745 1.035,-2.79 0.1125,-0.36 0.1125,-0.81 0,-0.54 -0.3825,-0.54 l -0.045,0 q -0.54,0 -1.035,0.5175 -0.72,0.7425 -1.0575,2.115 0,0.0225 -0.0225,0.09 -0.0225,0.045 -0.045,0.0675 0,0 -0.0225,0.0225 -0.0225,0.0225 -0.09,0.0225 -0.045,0 -0.09,0 -0.045,0 -0.18,0 l -0.315,0 q -0.135,-0.135 -0.135,-0.2025 0,-0.0675 0.0675,-0.315 0.585,-1.935 1.71,-2.7 0.6075,-0.4725 1.305,-0.4725 0.9,0 1.485,0.5175 0.585,0.5175 0.585,1.395 0,0.2925 -0.1125,0.675 -0.0225,0.045 -1.035,2.7675 l -1.0125,2.7225 q -0.1125,0.495 -0.1125,0.72 0,0.5625 0.3825,0.5625 0.315,0 0.5625,-0.135 0.99,-0.4725 1.5525,-2.3625 0.0675,-0.27 0.1125,-0.315 0.0675,-0.045 0.3825,-0.045 0.2025,0 0.27,0.0225 0.09,0 0.135,0.045 0.045,0.045 0.045,0.1575 0,0.09 -0.0675,0.2925 -0.4275,1.2825 -1.2375,2.2275 -0.7875,0.945 -1.8675,0.945 z"
       style="font-style:normal;font-variant:normal;font-weight:normal;font-stretch:normal;font-size:22.5px;line-height:125%;font-family:KaTeX_Math;-inkscape-font-specification:'KaTeX_Math, Normal';text-align:start;letter-spacing:1;writing-mode:lr-tb;text-anchor:start;fill:#11accd"
       id="path4240" /></g><g
     style="font-style:normal;font-variant:normal;font-weight:normal;font-stretch:normal;font-size:22.5px;line-height:125%;font-family:KaTeX_Math;-inkscape-font-specification:'KaTeX_Math, Normal';text-align:start;letter-spacing:1;writing-mode:lr-tb;text-anchor:start;fill:#11accd"
     id="text97"><path
       d="m 85.584115,11.372499 q 0,-0.5175 0.4275,-0.945 0.4275,-0.4274995 0.99,-0.4274995 0.405,0 0.675,0.2699995 0.2925,0.27 0.2925,0.675 0,0.495 -0.45,0.945 -0.45,0.45 -0.99,0.45 -0.405,0 -0.675,-0.27 -0.27,-0.27 -0.27,-0.6975 z m -0.5175,13.7475 q -0.8775,0 -1.4175,-0.5175 -0.54,-0.5175 -0.54,-1.395 0,-0.3825 0.045,-0.5175 0,-0.045 1.035,-2.7675 1.035,-2.745 1.035,-2.79 0.1125,-0.36 0.1125,-0.81 0,-0.54 -0.3825,-0.54 l -0.045,0 q -0.54,0 -1.035,0.5175 -0.72,0.7425 -1.0575,2.115 0,0.0225 -0.0225,0.09 -0.0225,0.045 -0.045,0.0675 0,0 -0.0225,0.0225 -0.0225,0.0225 -0.09,0.0225 -0.045,0 -0.09,0 -0.045,0 -0.18,0 l -0.315,0 q -0.135,-0.135 -0.135,-0.2025 0,-0.0675 0.0675,-0.315 0.585,-1.935 1.71,-2.7 0.6075,-0.4725 1.305,-0.4725 0.9,0 1.485,0.5175 0.585,0.5175 0.585,1.395 0,0.2925 -0.1125,0.675 -0.0225,0.045 -1.035,2.7675 l -1.0125,2.7225 q -0.1125,0.495 -0.1125,0.72 0,0.5625 0.3825,0.5625 0.315,0 0.5625,-0.135 0.99,-0.4725 1.5525,-2.3625 0.0675,-0.27 0.1125,-0.315 0.0675,-0.045 0.3825,-0.045 0.2025,0 0.27,0.0225 0.09,0 0.135,0.045 0.045,0.045 0.045,0.1575 0,0.09 -0.0675,0.2925 -0.4275,1.2825 -1.2375,2.2275 -0.7875,0.945 -1.8675,0.945 z"
       style="font-style:normal;font-variant:normal;font-weight:normal;font-stretch:normal;font-size:22.5px;line-height:125%;font-family:KaTeX_Math;-inkscape-font-specification:'KaTeX_Math, Normal';text-align:start;letter-spacing:1;writing-mode:lr-tb;text-anchor:start;fill:#11accd"
       id="path4237" /></g><g
     id="g99"
     transform="translate(3.4441142,6.8725005)"><g
       id="g101"><line
         class="st32"
         x1="396"
         y1="24"
         x2="410.89999"
         y2="24"
         id="line103"
         style="fill:none;stroke:#11accd;stroke-width:3;stroke-linecap:round;stroke-linejoin:round" /><g
         id="g105"><path
           class="st25"
           d="m 420,24 c -4.3,1.6 -9.5,4.3 -12.8,7.1 l 2.6,-7.1 -2.6,-7.1 c 3.3,2.8 8.5,5.5 12.8,7.1 z"
           id="path107"
           inkscape:connector-curvature="0"
           style="fill:#11accd" /></g></g></g><g
     id="g109"
     transform="translate(3.4441142,6.8725005)"><g
       id="g111"><line
         class="st32"
         x1="78"
         y1="24"
         x2="92.900002"
         y2="24"
         id="line113"
         style="fill:none;stroke:#11accd;stroke-width:3;stroke-linecap:round;stroke-linejoin:round" /><g
         id="g115"><path
           class="st25"
           d="m 102,24 c -4.3,1.6 -9.5,4.3 -12.8,7.1 L 91.8,24 89.2,16.9 c 3.3,2.8 8.5,5.5 12.8,7.1 z"
           id="path117"
           inkscape:connector-curvature="0"
           style="fill:#11accd" /></g></g></g><g
     id="g119"
     transform="translate(3.4441142,6.8725005)"><g
       id="g121"><path
         class="st2"
         d="m 42,138 c -3.7,-8.8 -6.2,-25.6 -6.2,-45 0,-15.1 1.5,-28.7 3.9,-38.1"
         id="path123"
         inkscape:connector-curvature="0"
         style="fill:none;stroke:#e07d10;stroke-width:2;stroke-linecap:round;stroke-miterlimit:10" /><g
         id="g125"><path
           class="st1"
           d="m 42,48 c 0.2,3.6 1,8.3 2.3,11.5 l -4.8,-3.7 -6,0.2 c 2.9,-1.8 6.3,-5.1 8.5,-8 z"
           id="path127"
           inkscape:connector-curvature="0"
           style="fill:#e07d10" /></g></g></g><g
     style="font-style:normal;font-variant:normal;font-weight:normal;font-stretch:normal;font-size:22.5px;line-height:125%;font-family:KaTeX_Main;-inkscape-font-specification:'KaTeX_Main, Normal';text-align:start;writing-mode:lr-tb;text-anchor:start;fill:#e07d10"
     id="text129"><path
       d="m 19.683213,55.695602 q -0.315,-0.1575 -0.315,-0.45 0,-0.2925 0.315,-0.45 l 6.7275,0 0,-3.375 0.0225,-3.375 q 0.225,-0.2925 0.4275,-0.2925 0.2925,0 0.45,0.3375 l 0,6.705 6.705,0 q 0.3375,0.18 0.3375,0.45 0,0.27 -0.3375,0.45 l -6.705,0 0,6.705 q -0.1575,0.315 -0.45,0.315 -0.2925,0 -0.45,-0.315 l 0,-6.705 -6.7275,0 z"
       style="font-style:normal;font-variant:normal;font-weight:normal;font-stretch:normal;font-size:22.5px;line-height:125%;font-family:KaTeX_Main;-inkscape-font-specification:'KaTeX_Main, Normal';text-align:start;writing-mode:lr-tb;text-anchor:start;fill:#e07d10"
       id="path4234" /></g><g
     style="font-style:normal;font-variant:normal;font-weight:normal;font-stretch:normal;font-size:22.5px;line-height:125%;font-family:KaTeX_Main;-inkscape-font-specification:'KaTeX_Main, Normal';text-align:start;writing-mode:lr-tb;text-anchor:start;fill:#e07d10"
     id="text131" /><g
     style="font-style:normal;font-variant:normal;font-weight:normal;font-stretch:normal;font-size:22.5px;line-height:125%;font-family:KaTeX_Main;-inkscape-font-specification:'KaTeX_Main, Normal';text-align:start;writing-mode:lr-tb;text-anchor:start;fill:#e07d10"
     id="text133"><path
       d="m 20.313213,142.096 q -0.315,-0.1575 -0.315,-0.45 0,-0.2925 0.315,-0.45 l 13.0725,0 q 0.3375,0.18 0.3375,0.45 0,0.27 -0.3375,0.45 l -13.0725,0 z"
       style="font-style:normal;font-variant:normal;font-weight:normal;font-stretch:normal;font-size:22.5px;line-height:125%;font-family:KaTeX_Main;-inkscape-font-specification:'KaTeX_Main, Normal';text-align:start;writing-mode:lr-tb;text-anchor:start;fill:#e07d10"
       id="path4230" /></g><g
     style="font-style:normal;font-variant:normal;font-weight:normal;font-stretch:normal;font-size:22.5px;line-height:125%;font-family:KaTeX_Math;-inkscape-font-specification:'KaTeX_Math, Normal';text-align:start;writing-mode:lr-tb;text-anchor:start;fill:#e07d10"
     id="text135"><path
       d="m 14.95,103.1181 q -1.44,0 -2.295,-0.72 -0.8325,-0.7425 -0.8325,-2.16 0,-0.405002 0.045,-0.765002 0.2025,-1.08 1.0575,-3.3075 l 0.36,-1.08 q 0.135,-0.405 0.135,-0.765 0,-0.5625 -0.4275,-0.5625 -0.1575,0 -0.36,0.0675 -1.1475,0.405 -1.7325,2.5875 0,0.0225 -0.0225,0.09 -0.0225,0.045 -0.045,0.0675 0,0 -0.0225,0.0225 -0.0225,0.0225 -0.09,0.0225 -0.045,0 -0.09,0 -0.045,0 -0.18,0 l -0.315,0 Q 10,96.480598 10,96.413098 q 0,-0.0675 0.0675,-0.3375 0.54,-1.7775 1.665,-2.655 0.6075,-0.4725 1.395,-0.4725 0.8775,0 1.44,0.495 0.5625,0.495 0.5625,1.305 0,0.3825 -0.0675,0.585 0,0.1575 -0.3375,0.99 -1.035,2.8125 -1.1025,4.005002 0,0.6075 0.1125,0.99 0.2925,0.9675 1.4175,0.9675 0.6075,0 1.08,-0.36 1.395,-0.9225 2.3175,-4.252502 0.18,-0.63 0.18,-1.035 0,-0.99 -0.8775,-1.7775 -0.2925,-0.27 -0.2925,-0.6075 0,-0.5175 0.405,-0.9225 0.4275,-0.4275 0.945,-0.4275 0.54,0 0.8325,0.5175 0.2925,0.495 0.2925,1.1925 0,0.7875 -0.45,2.5875 -0.4275,1.7325 -1.08,3.015002 -1.4175,2.9025 -3.555,2.9025 z"
       style="font-style:normal;font-variant:normal;font-weight:normal;font-stretch:normal;font-size:22.5px;line-height:125%;font-family:KaTeX_Math;-inkscape-font-specification:'KaTeX_Math, Normal';text-align:start;writing-mode:lr-tb;text-anchor:start;fill:#e07d10"
       id="path4225" /><path
       d="m 21.727563,104.05072 q 0.08775,0.0877 0.08775,0.19013 0,1.30162 0.833625,2.0475 0.848249,0.73125 2.237624,0.73125 0.1755,0 0.234,-0.0146 0.6435,-0.13162 1.038375,-0.65812 0.4095,-0.5265 0.4095,-1.24313 0,-0.62887 -0.336375,-1.14075 -0.32175,-0.5265 -0.833625,-0.702 -0.819,-0.20475 -1.08225,-0.27787 -1.096875,-0.26325 -1.126125,-0.27788 -0.848249,-0.2925 -1.403999,-1.02375 -0.55575,-0.74587 -0.55575,-1.725747 0,-0.8775 0.453375,-1.564875 0.453375,-0.687375 1.126124,-1.02375 0.585,-0.292499 1.17,-0.292499 1.155375,0 1.872,0.497249 0.219375,0.14625 0.49725,0.424125 l 0.307125,-0.453375 q 0.07313,-0.102375 0.14625,-0.219375 0.08775,-0.116999 0.14625,-0.190124 l 0.04387,-0.0585 q 0.01462,0 0.0585,0 0.04387,-0.01463 0.08775,-0.01463 0.102375,0 0.190125,0.08775 l 0,3.466126 -0.08775,0.0877 -0.26325,0 q -0.160875,0 -0.190125,-0.0439 -0.02925,-0.0439 -0.07312,-0.2925 -0.248625,-1.842747 -1.477125,-2.442372 -0.541125,-0.234 -1.096875,-0.234 -0.7605,0 -1.25775,0.49725 -0.482624,0.482625 -0.482624,1.25775 0,0.49725 0.248625,0.921372 0.248624,0.4095 0.701999,0.6435 0.14625,0.0731 1.37475,0.36563 1.038375,0.27787 1.1115,0.30712 0.833625,0.32175 1.360125,1.09688 0.541125,0.7605 0.541125,1.79887 0,1.19925 -0.658125,2.03288 -0.658125,0.819 -1.72575,1.03837 -0.14625,0.0292 -0.5265,0.0292 -1.55025,0 -2.515499,-0.84825 -0.07313,-0.0731 -0.102375,-0.0585 -0.0585,0.0731 -0.219375,0.30713 -0.160875,0.21937 -0.2925,0.39487 -0.131625,0.19013 -0.131625,0.20475 -0.02925,0.0146 -0.14625,0.0146 -0.102375,0 -0.190125,-0.0877 l 0,-1.71113 q 0,-1.74037 0.01463,-1.76962 0.02925,-0.0731 0.2925,-0.0731 l 0.190125,0 z"
       style="font-style:normal;font-variant:normal;font-weight:normal;font-stretch:normal;font-size:64.99999762%;line-height:125%;font-family:KaTeX_Main;-inkscape-font-specification:'KaTeX_Main, Normal';text-align:start;writing-mode:lr-tb;baseline-shift:sub;text-anchor:start"
       id="path4227" /></g><g
     id="g137"
     transform="translate(3.4441142,6.8725005)"><g
       id="g139"><path
         class="st2"
         d="m 360,138 c -3.7,-8.8 -6.2,-25.6 -6.2,-45 0,-15.1 1.5,-28.7 3.9,-38.1"
         id="path141"
         inkscape:connector-curvature="0"
         style="fill:none;stroke:#e07d10;stroke-width:2;stroke-linecap:round;stroke-miterlimit:10" /><g
         id="g143"><path
           class="st1"
           d="m 360,48 c 0.2,3.6 1,8.3 2.3,11.5 l -4.8,-3.7 -6.1,0.2 c 3,-1.8 6.4,-5.1 8.6,-8 z"
           id="path145"
           inkscape:connector-curvature="0"
           style="fill:#e07d10" /></g></g></g><g
     style="font-style:normal;font-variant:normal;font-weight:normal;font-stretch:normal;font-size:22.5px;line-height:125%;font-family:KaTeX_Main;-inkscape-font-specification:'KaTeX_Main, Normal';text-align:start;writing-mode:lr-tb;text-anchor:start;fill:#e07d10"
     id="text147"><path
       d="m 337.68322,55.695602 q -0.315,-0.1575 -0.315,-0.45 0,-0.2925 0.315,-0.45 l 6.7275,0 0,-3.375 0.0225,-3.375 q 0.225,-0.2925 0.4275,-0.2925 0.2925,0 0.45,0.3375 l 0,6.705 6.705,0 q 0.3375,0.18 0.3375,0.45 0,0.27 -0.3375,0.45 l -6.705,0 0,6.705 q -0.1575,0.315 -0.45,0.315 -0.2925,0 -0.45,-0.315 l 0,-6.705 -6.7275,0 z"
       style="font-style:normal;font-variant:normal;font-weight:normal;font-stretch:normal;font-size:22.5px;line-height:125%;font-family:KaTeX_Main;-inkscape-font-specification:'KaTeX_Main, Normal';text-align:start;writing-mode:lr-tb;text-anchor:start;fill:#e07d10"
       id="path4222" /></g><g
     style="font-style:normal;font-variant:normal;font-weight:normal;font-stretch:normal;font-size:22.5px;line-height:125%;font-family:KaTeX_Main;-inkscape-font-specification:'KaTeX_Main, Normal';text-align:start;writing-mode:lr-tb;text-anchor:start;fill:#e07d10"
     id="text149" /><g
     style="font-style:normal;font-variant:normal;font-weight:normal;font-stretch:normal;font-size:22.5px;line-height:125%;font-family:KaTeX_Main;-inkscape-font-specification:'KaTeX_Main, Normal';text-align:start;writing-mode:lr-tb;text-anchor:start;fill:#e07d10"
     id="text151"><path
       d="m 338.31322,142.096 q -0.315,-0.1575 -0.315,-0.45 0,-0.2925 0.315,-0.45 l 13.0725,0 q 0.3375,0.18 0.3375,0.45 0,0.27 -0.3375,0.45 l -13.0725,0 z"
       style="font-style:normal;font-variant:normal;font-weight:normal;font-stretch:normal;font-size:22.5px;line-height:125%;font-family:KaTeX_Main;-inkscape-font-specification:'KaTeX_Main, Normal';text-align:start;writing-mode:lr-tb;text-anchor:start;fill:#e07d10"
       id="path4218" /></g><g
     style="font-style:normal;font-variant:normal;font-weight:normal;font-stretch:normal;font-size:22.5px;line-height:125%;font-family:KaTeX_Math;-inkscape-font-specification:'KaTeX_Math, Normal';text-align:start;writing-mode:lr-tb;text-anchor:start;fill:#e07d10"
     id="text153"><path
       d="m 332.95,103.1181 q -1.44,0 -2.295,-0.72 -0.8325,-0.7425 -0.8325,-2.16 0,-0.405002 0.045,-0.765002 0.2025,-1.08 1.0575,-3.3075 l 0.36,-1.08 q 0.135,-0.405 0.135,-0.765 0,-0.5625 -0.4275,-0.5625 -0.1575,0 -0.36,0.0675 -1.1475,0.405 -1.7325,2.5875 0,0.0225 -0.0225,0.09 -0.0225,0.045 -0.045,0.0675 0,0 -0.0225,0.0225 -0.0225,0.0225 -0.09,0.0225 -0.045,0 -0.09,0 -0.045,0 -0.18,0 l -0.315,0 q -0.135,-0.135 -0.135,-0.2025 0,-0.0675 0.0675,-0.3375 0.54,-1.7775 1.665,-2.655 0.6075,-0.4725 1.395,-0.4725 0.8775,0 1.44,0.495 0.5625,0.495 0.5625,1.305 0,0.3825 -0.0675,0.585 0,0.1575 -0.3375,0.99 -1.035,2.8125 -1.1025,4.005002 0,0.6075 0.1125,0.99 0.2925,0.9675 1.4175,0.9675 0.6075,0 1.08,-0.36 1.395,-0.9225 2.3175,-4.252502 0.18,-0.63 0.18,-1.035 0,-0.99 -0.8775,-1.7775 -0.2925,-0.27 -0.2925,-0.6075 0,-0.5175 0.405,-0.9225 0.4275,-0.4275 0.945,-0.4275 0.54,0 0.8325,0.5175 0.2925,0.495 0.2925,1.1925 0,0.7875 -0.45,2.5875 -0.4275,1.7325 -1.08,3.015002 -1.4175,2.9025 -3.555,2.9025 z"
       style="font-style:normal;font-variant:normal;font-weight:normal;font-stretch:normal;font-size:22.5px;line-height:125%;font-family:KaTeX_Math;-inkscape-font-specification:'KaTeX_Math, Normal';text-align:start;writing-mode:lr-tb;text-anchor:start;fill:#e07d10"
       id="path4213" /><path
       d="m 339.72756,104.05072 q 0.0878,0.0877 0.0878,0.19013 0,1.30162 0.83362,2.0475 0.84825,0.73125 2.23763,0.73125 0.1755,0 0.234,-0.0146 0.6435,-0.13162 1.03837,-0.65812 0.4095,-0.5265 0.4095,-1.24313 0,-0.62887 -0.33637,-1.14075 -0.32175,-0.5265 -0.83363,-0.702 -0.819,-0.20475 -1.08225,-0.27787 -1.09687,-0.26325 -1.12612,-0.27788 -0.84825,-0.2925 -1.404,-1.02375 -0.55575,-0.74587 -0.55575,-1.725747 0,-0.8775 0.45337,-1.564875 0.45338,-0.687375 1.12613,-1.02375 0.585,-0.292499 1.17,-0.292499 1.15537,0 1.872,0.497249 0.21937,0.14625 0.49725,0.424125 l 0.30712,-0.453375 q 0.0731,-0.102375 0.14625,-0.219375 0.0877,-0.116999 0.14625,-0.190124 l 0.0439,-0.0585 q 0.0146,0 0.0585,0 0.0439,-0.01463 0.0877,-0.01463 0.10237,0 0.19012,0.08775 l 0,3.466126 -0.0878,0.0877 -0.26325,0 q -0.16087,0 -0.19012,-0.0439 -0.0292,-0.0439 -0.0731,-0.2925 -0.24862,-1.842747 -1.47712,-2.442372 -0.54113,-0.234 -1.09688,-0.234 -0.7605,0 -1.25775,0.49725 -0.48262,0.482625 -0.48262,1.25775 0,0.49725 0.24862,0.921372 0.24863,0.4095 0.702,0.6435 0.14625,0.0731 1.37475,0.36563 1.03838,0.27787 1.1115,0.30712 0.83363,0.32175 1.36013,1.09688 0.54112,0.7605 0.54112,1.79887 0,1.19925 -0.65812,2.03288 -0.65813,0.819 -1.72575,1.03837 -0.14625,0.0292 -0.5265,0.0292 -1.55025,0 -2.5155,-0.84825 -0.0731,-0.0731 -0.10238,-0.0585 -0.0585,0.0731 -0.21937,0.30713 -0.16088,0.21937 -0.2925,0.39487 -0.13163,0.19013 -0.13163,0.20475 -0.0293,0.0146 -0.14625,0.0146 -0.10237,0 -0.19012,-0.0877 l 0,-1.71113 q 0,-1.74037 0.0146,-1.76962 0.0292,-0.0731 0.2925,-0.0731 l 0.19013,0 z"
       style="font-style:normal;font-variant:normal;font-weight:normal;font-stretch:normal;font-size:64.99999762%;line-height:125%;font-family:KaTeX_Main;-inkscape-font-specification:'KaTeX_Main, Normal';text-align:start;writing-mode:lr-tb;baseline-shift:sub;text-anchor:start"
       id="path4215" /></g></svg>