<?xml version="1.0" encoding="UTF-8" standalone="no"?>
<!-- Generator: Adobe Illustrator 19.1.0, SVG Export Plug-In . SVG Version: 6.00 Build 0)  -->

<svg
   xmlns:dc="http://purl.org/dc/elements/1.1/"
   xmlns:cc="http://creativecommons.org/ns#"
   xmlns:rdf="http://www.w3.org/1999/02/22-rdf-syntax-ns#"
   xmlns:svg="http://www.w3.org/2000/svg"
   xmlns="http://www.w3.org/2000/svg"
   xmlns:sodipodi="http://sodipodi.sourceforge.net/DTD/sodipodi-0.dtd"
   xmlns:inkscape="http://www.inkscape.org/namespaces/inkscape"
   version="1.1"
   id="Layer_1"
   x="0px"
   y="0px"
   width="558px"
   height="186px"
   viewBox="0 0 558 186"
   style="enable-background:new 0 0 558 186;"
   xml:space="preserve"
   sodipodi:docname="simplifying8.svg"
   inkscape:version="0.92.2 5c3e80d, 2017-08-06"><metadata
     id="metadata153"><rdf:RDF><cc:Work
         rdf:about=""><dc:format>image/svg+xml</dc:format><dc:type
           rdf:resource="http://purl.org/dc/dcmitype/StillImage" /><dc:title></dc:title></cc:Work></rdf:RDF></metadata><defs
     id="defs151" /><sodipodi:namedview
     pagecolor="#ffffff"
     bordercolor="#666666"
     borderopacity="1"
     objecttolerance="10"
     gridtolerance="10"
     guidetolerance="10"
     inkscape:pageopacity="0"
     inkscape:pageshadow="2"
     inkscape:window-width="640"
     inkscape:window-height="480"
     id="namedview149"
     showgrid="false"
     inkscape:zoom="0.95878136"
     inkscape:cx="279"
     inkscape:cy="93"
     inkscape:current-layer="Layer_1" /><style
     type="text/css"
     id="style2">
	.st0{fill:none;stroke:#000000;stroke-linecap:round;stroke-linejoin:round;stroke-miterlimit:10;}
	.st1{fill:none;stroke:#BABEC2;stroke-linecap:round;stroke-linejoin:round;stroke-miterlimit:10;}
	.st2{fill:none;stroke:#BABEC2;stroke-width:2;stroke-linecap:round;stroke-linejoin:round;stroke-miterlimit:10;}
	.st3{fill:none;}
	.st4{fill:none;stroke:#000000;stroke-width:1.5;stroke-linecap:round;stroke-linejoin:round;stroke-miterlimit:10;}
	.st5{fill:none;stroke:#000000;stroke-linecap:round;stroke-miterlimit:10;}
	.st6{fill:none;stroke:#000000;stroke-width:1.5;stroke-linecap:round;stroke-miterlimit:10;}
	.st7{fill:none;stroke:#000000;stroke-width:2;stroke-linecap:round;stroke-linejoin:round;stroke-miterlimit:10;}
	.st8{fill:none;stroke:#000000;stroke-width:1.5;stroke-miterlimit:10;}
	.st9{fill:none;stroke:#000000;stroke-miterlimit:10;}
	.st10{fill:none;stroke:#000000;stroke-width:2;stroke-miterlimit:10;}
	.st11{fill:none;stroke:#000000;stroke-width:2;stroke-linecap:round;stroke-miterlimit:10;}
	.st12{fill:none;stroke:#000000;stroke-linecap:round;stroke-linejoin:round;}
	.st13{stroke:#000000;stroke-linecap:round;stroke-linejoin:round;stroke-miterlimit:10;}
	.st14{fill:none;stroke:#000000;stroke-width:1.5;stroke-linejoin:round;stroke-miterlimit:10;}
	.st15{fill:none;stroke:#000000;stroke-linejoin:round;stroke-miterlimit:10;}
	.st16{clip-path:url(#SVGID_2_);fill:none;stroke:#000000;stroke-linejoin:round;stroke-miterlimit:10;}
	.st17{clip-path:url(#SVGID_2_);fill:none;stroke:#ADADEB;stroke-linejoin:round;stroke-miterlimit:10;}
	.st18{clip-path:url(#SVGID_2_);}
	.st19{stroke:#000000;stroke-linejoin:round;stroke-miterlimit:10;}
	.st20{stroke:#000000;stroke-width:3;stroke-linejoin:round;stroke-miterlimit:10;}
	.st21{fill:none;stroke:#000000;stroke-linejoin:round;}
	.st22{opacity:0.5;fill:#CCFAFF;}
	.st23{fill:none;stroke:#0C7F99;stroke-miterlimit:10;}
	.st24{fill:#0C7F99;}
	.st25{fill:none;stroke:#11ACCD;stroke-width:3;stroke-linecap:round;stroke-miterlimit:10;}
	.st26{fill:#11ACCD;}
	.st27{fill:none;stroke:#01D1C1;stroke-width:2;stroke-miterlimit:10;}
	.st28{fill:none;stroke:#01D1C1;stroke-linecap:round;stroke-miterlimit:10;}
	.st29{fill:none;stroke:#01D1C1;stroke-linecap:round;stroke-linejoin:round;stroke-miterlimit:10;}
	.st30{fill:none;stroke:#01D1C1;stroke-width:1.5;stroke-miterlimit:10;}
	.st31{fill:none;stroke:#01D1C1;stroke-width:2;stroke-linecap:round;stroke-linejoin:round;stroke-miterlimit:10;}
	.st32{fill:#01D1C1;stroke:#01D1C1;stroke-linecap:round;stroke-linejoin:round;stroke-miterlimit:10;}
	.st33{fill:none;stroke:#01D1C1;stroke-miterlimit:10;}
	.st34{fill:#01D1C1;}
	.st35{fill:none;stroke:#FCA9A9;stroke-width:3;stroke-linecap:round;stroke-miterlimit:10;}
	.st36{fill:#FCA9A9;}
	.st37{font-family:'KaTeX_Main-Regular';}
	.st38{font-size:18px;}
	.st39{letter-spacing:1;}
	.st40{font-size:21px;}
	.st41{fill:#FFFFFF;stroke:#000000;stroke-miterlimit:10;}
	.st42{fill:#11ACCD;stroke:#000000;stroke-miterlimit:10;}
	.st43{fill:#BABEC2;stroke:#BABEC2;stroke-miterlimit:10;}
	.st44{stroke:#000000;stroke-miterlimit:10;}
</style><rect
     x="316.43011"
     y="18"
     class="st22"
     width="77.4729"
     height="168"
     id="rect4"
     style="opacity:0.5;fill:#ccfaff;stroke-width:1.08343518" /><g
     id="g18"><circle
       class="st10"
       cx="48"
       cy="102"
       r="18"
       id="circle6" /><polyline
       class="st5"
       points="48,84 48,60 48,42 78,42  "
       id="polyline8" /><polyline
       class="st0"
       points="78,162 48,162 48,120  "
       id="polyline10" /><line
       class="st8"
       x1="48"
       y1="88.5"
       x2="48"
       y2="100.5"
       id="line12" /><line
       class="st8"
       x1="42"
       y1="94.5"
       x2="54"
       y2="94.5"
       id="line14" /><line
       class="st8"
       x1="42"
       y1="112.5"
       x2="54"
       y2="112.5"
       id="line16" /></g><g
     id="g28"><line
       class="st0"
       x1="149.4"
       y1="42"
       x2="174"
       y2="42"
       id="line20" /><polyline
       class="st7"
       points="102.6,42 106.5,33 114.3,51 122.1,33 129.9,51 137.7,33 145.5,51 149.4,42  "
       id="polyline22" /><line
       class="st0"
       x1="84"
       y1="42"
       x2="102.6"
       y2="42"
       id="line24" /><rect
       x="84"
       y="30"
       class="st3"
       width="90"
       height="24"
       id="rect26" /></g><g
     id="g38"><line
       class="st0"
       x1="222"
       y1="78.6"
       x2="222"
       y2="60"
       id="line30" /><polyline
       class="st7"
       points="222,125.4 213,121.5 231,113.7 213,105.9 231,98.1 213,90.3 231,82.5 222,78.6  "
       id="polyline32" /><line
       class="st0"
       x1="222"
       y1="162"
       x2="222"
       y2="125.4"
       id="line34" /><rect
       x="210"
       y="60"
       class="st3"
       width="24"
       height="102"
       id="rect36" /></g><g
     id="g48"
     transform="translate(3.7795276)"><line
       class="st0"
       x1="276"
       y1="78.599998"
       x2="276"
       y2="60"
       id="line40"
       style="fill:none;stroke:#000000;stroke-linecap:round;stroke-linejoin:round;stroke-miterlimit:10" /><polyline
       class="st7"
       points="276,125.4 267,121.5 285,113.7 267,105.9 285,98.1 267,90.3 285,82.5 276,78.6  "
       id="polyline42"
       style="fill:none;stroke:#000000;stroke-width:2;stroke-linecap:round;stroke-linejoin:round;stroke-miterlimit:10" /><line
       class="st0"
       x1="276"
       y1="162"
       x2="276"
       y2="125.4"
       id="line44"
       style="fill:none;stroke:#000000;stroke-linecap:round;stroke-linejoin:round;stroke-miterlimit:10" /><rect
       x="264"
       y="60"
       class="st3"
       width="24"
       height="102"
       id="rect46"
       style="fill:none" /></g><g
     id="g58"
     transform="translate(7.5590552)"><line
       class="st0"
       x1="330"
       y1="78.599998"
       x2="330"
       y2="60"
       id="line50"
       style="fill:none;stroke:#000000;stroke-linecap:round;stroke-linejoin:round;stroke-miterlimit:10" /><polyline
       class="st7"
       points="330,125.4 321,121.5 339,113.7 321,105.9 339,98.1 321,90.3 339,82.5 330,78.6  "
       id="polyline52"
       style="fill:none;stroke:#000000;stroke-width:2;stroke-linecap:round;stroke-linejoin:round;stroke-miterlimit:10" /><line
       class="st0"
       x1="330"
       y1="162"
       x2="330"
       y2="125.4"
       id="line54"
       style="fill:none;stroke:#000000;stroke-linecap:round;stroke-linejoin:round;stroke-miterlimit:10" /><rect
       x="318"
       y="60"
       class="st3"
       width="24"
       height="102"
       id="rect56"
       style="fill:none" /></g><g
     id="g64"
     transform="translate(3.7795276)"><circle
       class="st13"
       cx="276"
       cy="162"
       r="1.5"
       id="circle60"
       style="stroke:#000000;stroke-linecap:round;stroke-linejoin:round;stroke-miterlimit:10" /><rect
       x="270"
       y="156"
       class="st3"
       width="12"
       height="12"
       id="rect62"
       style="fill:none" /></g><g
     id="g70"><circle
       class="st13"
       cx="222"
       cy="162"
       r="1.5"
       id="circle66" /><rect
       x="216"
       y="156"
       class="st3"
       width="12"
       height="12"
       id="rect68" /></g><g
     id="g76"><circle
       class="st13"
       cx="222"
       cy="42"
       r="1.5"
       id="circle72" /><rect
       x="216"
       y="36"
       class="st3"
       width="12"
       height="12"
       id="rect74" /></g><g
     id="g82"
     transform="translate(3.7795276)"><circle
       class="st13"
       cx="276"
       cy="42"
       r="1.5"
       id="circle78"
       style="stroke:#000000;stroke-linecap:round;stroke-linejoin:round;stroke-miterlimit:10" /><rect
       x="270"
       y="36"
       class="st3"
       width="12"
       height="12"
       id="rect80"
       style="fill:none" /></g><g
     id="g88"><circle
       class="st9"
       cx="81"
       cy="42"
       r="3"
       id="circle84" /><rect
       x="78"
       y="36"
       class="st3"
       width="6"
       height="12"
       id="rect86" /></g><g
     id="g94"><circle
       class="st9"
       cx="81"
       cy="162"
       r="3"
       id="circle90" /><rect
       x="78"
       y="156"
       class="st3"
       width="6"
       height="12"
       id="rect92" /></g><g
     aria-label="1立"
     style="font-style:normal;font-variant:normal;font-weight:normal;font-stretch:normal;font-size:24px;font-family:KaTeX_Main;-inkscape-font-specification:'KaTeX_Main, Normal';font-variant-ligatures:normal;font-variant-caps:normal;font-variant-numeric:normal;font-feature-settings:normal;text-align:start;writing-mode:lr-tb;text-anchor:start"
     id="text100"><path
       d="m 120.20447,26.000099 q -0.408,-0.072 -3.816,-0.072 -3.36,0 -3.768,0.072 h -0.288 v -1.104 h 0.624 q 1.392,0 1.8,-0.072 0.192,-0.024 0.576,-0.288 v -12.408 q -0.048,0 -0.192,0.072 -1.104,0.432 -2.472,0.456 h -0.456 v -1.104 h 0.456 q 2.016,-0.072 3.36,-0.912 0.432,-0.24 0.744,-0.552 0.048,-0.072 0.288,-0.072 0.24,0 0.408,0.144 v 7.176 l 0.024,7.2 q 0.36,0.36 1.56,0.36 h 0.792 0.624 v 1.104 z"
       style="font-style:normal;font-variant:normal;font-weight:normal;font-stretch:normal;font-size:24px;font-family:KaTeX_Main;-inkscape-font-specification:'KaTeX_Main, Normal';font-variant-ligatures:normal;font-variant-caps:normal;font-variant-numeric:normal;font-feature-settings:normal;text-align:start;letter-spacing:1;writing-mode:lr-tb;text-anchor:start"
       id="path904" /><path
       d="m 130.50047,25.520099 q 0,0.312 -0.168,0.48 h -4.464 v -0.048 q -0.024,-0.024 -0.384,-2.088 l -0.408,-2.064 v -0.048 h 0.96 l 0.024,0.12 q 0,0.12 0.096,0.456 0.168,1.08 0.36,1.44 0.096,0.12 0.168,0.168 0.312,0.12 1.608,0.144 h 1.056 v -0.072 q -0.12,-0.384 -0.528,-1.272 -0.384,-0.744 -1.32,-2.208 -1.536,-2.472 -1.92,-3.768 -0.24,-0.888 -0.24,-1.656 0,-0.72 0.192,-1.368 0.528,-1.8 2.232,-3.096 1.704,-1.3199998 3.984,-1.5119998 0.144,-0.024 0.36,-0.024 h 0.36 q 3.384,0 5.544,1.8479998 1.368,1.2 1.8,2.784 0.192,0.648 0.192,1.368 0,0.768 -0.24,1.656 -0.384,1.296 -1.92,3.768 -0.936,1.464 -1.32,2.208 -0.408,0.888 -0.528,1.272 v 0.072 h 1.056 q 1.296,-0.024 1.608,-0.144 0.096,-0.048 0.168,-0.168 0.168,-0.36 0.36,-1.44 0.096,-0.336 0.096,-0.456 l 0.024,-0.12 h 0.96 v 0.048 l -0.408,2.064 q -0.36,2.064 -0.384,2.088 v 0.048 h -2.208 q -1.776,0 -2.064,0 -0.264,-0.024 -0.312,-0.144 -0.048,-0.096 -0.048,-0.336 0,-0.696 0.216,-1.896 0.192,-0.96 0.936,-3.24 0.768,-2.328 1.008,-3.648 0.168,-1.008 0.168,-1.656 0,-3.384 -2.472,-4.632 -1.008,-0.4799998 -2.016,-0.4799998 -2.448,0 -3.744,2.0399998 -0.744,1.176 -0.744,3.048 0,0.816 0.144,1.68 0.24,1.32 1.008,3.648 0.744,2.28 0.936,3.24 0.216,1.176 0.216,1.896 z"
       style="font-style:normal;font-variant:normal;font-weight:normal;font-stretch:normal;font-size:24px;font-family:KaTeX_Main;-inkscape-font-specification:'KaTeX_Main, Normal';font-variant-ligatures:normal;font-variant-caps:normal;font-variant-numeric:normal;font-feature-settings:normal;text-align:start;writing-mode:lr-tb;text-anchor:start"
       id="path906" /></g><g
     aria-label="12立"
     style="font-style:normal;font-variant:normal;font-weight:normal;font-stretch:normal;font-size:24px;font-family:KaTeX_Main;-inkscape-font-specification:'KaTeX_Main, Normal';font-variant-ligatures:normal;font-variant-caps:normal;font-variant-numeric:normal;font-feature-settings:normal;text-align:start;writing-mode:lr-tb;text-anchor:start"
     id="text108"><path
       d="m 176.42495,108 q -0.408,-0.072 -3.816,-0.072 -3.36,0 -3.768,0.072 h -0.288 v -1.104 h 0.624 q 1.392,0 1.8,-0.072 0.192,-0.024 0.576,-0.288 V 94.128 q -0.048,0 -0.192,0.072 -1.104,0.432 -2.472,0.456 h -0.456 v -1.104 h 0.456 q 2.016,-0.072 3.36,-0.912 0.432,-0.24 0.744,-0.552 0.048,-0.072 0.288,-0.072 0.24,0 0.408,0.144 v 7.176 l 0.024,7.2 q 0.36,0.36 1.56,0.36 h 0.792 0.624 V 108 Z"
       style="font-style:normal;font-variant:normal;font-weight:normal;font-stretch:normal;font-size:24px;font-family:KaTeX_Main;-inkscape-font-specification:'KaTeX_Main, Normal';font-variant-ligatures:normal;font-variant-caps:normal;font-variant-numeric:normal;font-feature-settings:normal;text-align:start;writing-mode:lr-tb;text-anchor:start"
       id="path897" /><path
       d="m 178.08095,97.704 q -0.672,0 -1.056,-0.432 -0.384,-0.432 -0.384,-1.056 0,-1.728 1.296,-2.952 1.32,-1.248 3.144,-1.248 2.064,0 3.408,1.128 1.368,1.104 1.68,2.904 0.048,0.432 0.048,0.792 0,1.392 -0.84,2.616 -0.672,1.008 -2.712,2.76 -0.864,0.744 -2.4,2.208 l -1.416,1.344 1.824,0.024 q 3.768,0 4.008,-0.12 0.096,-0.024 0.24,-0.504 0.096,-0.264 0.336,-1.632 v -0.072 h 0.96 v 0.072 l -0.672,4.392 V 108 h -8.904 v -0.456 q 0,-0.48 0.048,-0.552 0.024,-0.024 2.016,-2.28 2.616,-2.904 3.36,-3.84 1.608,-2.184 1.608,-4.008 0,-1.584 -0.84,-2.64 -0.816,-1.08 -2.304,-1.08 -1.392,0 -2.256,1.248 -0.048,0.096 -0.144,0.264 -0.072,0.12 -0.072,0.144 0,0.024 0.12,0.024 0.6,0 0.96,0.432 0.384,0.432 0.384,1.008 0,0.6 -0.408,1.032 -0.384,0.408 -1.032,0.408 z"
       style="font-style:normal;font-variant:normal;font-weight:normal;font-stretch:normal;font-size:24px;font-family:KaTeX_Main;-inkscape-font-specification:'KaTeX_Main, Normal';font-variant-ligatures:normal;font-variant-caps:normal;font-variant-numeric:normal;font-feature-settings:normal;text-align:start;letter-spacing:1;writing-mode:lr-tb;text-anchor:start"
       id="path899" /><path
       d="m 195.72095,107.52 q 0,0.312 -0.168,0.48 h -4.464 v -0.048 q -0.024,-0.024 -0.384,-2.088 l -0.408,-2.064 v -0.048 h 0.96 l 0.024,0.12 q 0,0.12 0.096,0.456 0.168,1.08 0.36,1.44 0.096,0.12 0.168,0.168 0.312,0.12 1.608,0.144 h 1.056 v -0.072 q -0.12,-0.384 -0.528,-1.272 -0.384,-0.744 -1.32,-2.208 -1.536,-2.472 -1.92,-3.768 -0.24,-0.888 -0.24,-1.656 0,-0.72 0.192,-1.368 0.528,-1.8 2.232,-3.096 1.704,-1.32 3.984,-1.512 0.144,-0.024 0.36,-0.024 h 0.36 q 3.384,0 5.544,1.848 1.368,1.2 1.8,2.784 0.192,0.648 0.192,1.368 0,0.768 -0.24,1.656 -0.384,1.296 -1.92,3.768 -0.936,1.464 -1.32,2.208 -0.408,0.888 -0.528,1.272 v 0.072 h 1.056 q 1.296,-0.024 1.608,-0.144 0.096,-0.048 0.168,-0.168 0.168,-0.36 0.36,-1.44 0.096,-0.336 0.096,-0.456 l 0.024,-0.12 h 0.96 v 0.048 l -0.408,2.064 q -0.36,2.064 -0.384,2.088 V 108 h -2.208 q -1.776,0 -2.064,0 -0.264,-0.024 -0.312,-0.144 -0.048,-0.096 -0.048,-0.336 0,-0.696 0.216,-1.896 0.192,-0.96 0.936,-3.24 0.768,-2.328 1.008,-3.648 0.168,-1.008 0.168,-1.656 0,-3.384 -2.472,-4.632 -1.008,-0.48 -2.016,-0.48 -2.448,0 -3.744,2.04 -0.744,1.176 -0.744,3.048 0,0.816 0.144,1.68 0.24,1.32 1.008,3.648 0.744,2.28 0.936,3.24 0.216,1.176 0.216,1.896 z"
       style="font-style:normal;font-variant:normal;font-weight:normal;font-stretch:normal;font-size:24px;font-family:KaTeX_Main;-inkscape-font-specification:'KaTeX_Main, Normal';font-variant-ligatures:normal;font-variant-caps:normal;font-variant-numeric:normal;font-feature-settings:normal;text-align:start;writing-mode:lr-tb;text-anchor:start"
       id="path901" /></g><g
     aria-label="4立"
     style="font-style:normal;font-variant:normal;font-weight:normal;font-stretch:normal;font-size:24px;font-family:KaTeX_Main;-inkscape-font-specification:'KaTeX_Main, Normal';font-variant-ligatures:normal;font-variant-caps:normal;font-variant-numeric:normal;font-feature-settings:normal;text-align:start;writing-mode:lr-tb;text-anchor:start"
     id="text114"><path
       d="m 247.30849,108 q -0.336,-0.072 -3.096,-0.072 -2.88,0 -3.216,0.072 h -0.216 v -1.104 h 0.744 q 1.032,-0.024 1.272,-0.12 0.192,-0.048 0.288,-0.24 0.024,-0.048 0.024,-1.296 v -1.2 h -6.216 v -1.104 l 3.624,-5.544 q 3.672,-5.568 3.72,-5.592 0.048,-0.048 0.504,-0.048 h 0.432 l 0.144,0.144 v 11.04 h 2.208 v 1.104 h -2.208 v 1.224 q 0,0.984 0,1.152 0.024,0.168 0.144,0.288 0.192,0.168 1.368,0.192 h 0.696 V 108 Z m -4.056,-5.064 V 94.92 l -5.256,7.992 2.616,0.024 z"
       style="font-style:normal;font-variant:normal;font-weight:normal;font-stretch:normal;font-size:24px;font-family:KaTeX_Main;-inkscape-font-specification:'KaTeX_Main, Normal';font-variant-ligatures:normal;font-variant-caps:normal;font-variant-numeric:normal;font-feature-settings:normal;text-align:start;letter-spacing:1;writing-mode:lr-tb;text-anchor:start"
       id="path892" /><path
       d="m 256.50049,107.52 q 0,0.312 -0.168,0.48 h -4.464 v -0.048 q -0.024,-0.024 -0.384,-2.088 l -0.408,-2.064 v -0.048 h 0.96 l 0.024,0.12 q 0,0.12 0.096,0.456 0.168,1.08 0.36,1.44 0.096,0.12 0.168,0.168 0.312,0.12 1.608,0.144 h 1.056 v -0.072 q -0.12,-0.384 -0.528,-1.272 -0.384,-0.744 -1.32,-2.208 -1.536,-2.472 -1.92,-3.768 -0.24,-0.888 -0.24,-1.656 0,-0.72 0.192,-1.368 0.528,-1.8 2.232,-3.096 1.704,-1.32 3.984,-1.512 0.144,-0.024 0.36,-0.024 h 0.36 q 3.384,0 5.544,1.848 1.368,1.2 1.8,2.784 0.192,0.648 0.192,1.368 0,0.768 -0.24,1.656 -0.384,1.296 -1.92,3.768 -0.936,1.464 -1.32,2.208 -0.408,0.888 -0.528,1.272 v 0.072 h 1.056 q 1.296,-0.024 1.608,-0.144 0.096,-0.048 0.168,-0.168 0.168,-0.36 0.36,-1.44 0.096,-0.336 0.096,-0.456 l 0.024,-0.12 h 0.96 v 0.048 l -0.408,2.064 q -0.36,2.064 -0.384,2.088 V 108 h -2.208 q -1.776,0 -2.064,0 -0.264,-0.024 -0.312,-0.144 -0.048,-0.096 -0.048,-0.336 0,-0.696 0.216,-1.896 0.192,-0.96 0.936,-3.24 0.768,-2.328 1.008,-3.648 0.168,-1.008 0.168,-1.656 0,-3.384 -2.472,-4.632 -1.008,-0.48 -2.016,-0.48 -2.448,0 -3.744,2.04 -0.744,1.176 -0.744,3.048 0,0.816 0.144,1.68 0.24,1.32 1.008,3.648 0.744,2.28 0.936,3.24 0.216,1.176 0.216,1.896 z"
       style="font-style:normal;font-variant:normal;font-weight:normal;font-stretch:normal;font-size:24px;font-family:KaTeX_Main;-inkscape-font-specification:'KaTeX_Main, Normal';font-variant-ligatures:normal;font-variant-caps:normal;font-variant-numeric:normal;font-feature-settings:normal;text-align:start;writing-mode:lr-tb;text-anchor:start"
       id="path894" /></g><g
     aria-label="6立"
     style="font-style:normal;font-variant:normal;font-weight:normal;font-stretch:normal;font-size:24px;font-family:KaTeX_Main;-inkscape-font-specification:'KaTeX_Main, Normal';font-variant-ligatures:normal;font-variant-caps:normal;font-variant-numeric:normal;font-feature-settings:normal;text-align:start;writing-mode:lr-tb;text-anchor:start"
     id="text120"><path
       d="m 364.51087,93.576 q -0.528,-0.528 -1.488,-0.6 -1.68,0 -2.808,1.44 -1.128,1.56 -1.128,4.848 l 0.024,0.096 0.192,-0.312 q 0.984,-1.44 2.664,-1.44 1.104,0 1.944,0.456 0.576,0.336 1.152,0.984 0.576,0.624 0.936,1.344 0.504,1.176 0.504,2.568 v 0.432 q 0,0.552 -0.12,1.032 -0.288,1.416 -1.488,2.664 -1.032,1.08 -2.304,1.344 -0.384,0.096 -0.96,0.096 -0.456,0 -0.816,-0.072 -1.776,-0.336 -2.832,-1.92 -1.416,-2.232 -1.416,-6.048 0,-2.592 0.912,-4.536 0.912,-1.944 2.544,-3.024 1.296,-0.912 2.808,-0.912 1.392,0 2.232,0.744 0.864,0.744 0.864,2.04 0,0.6 -0.36,0.96 -0.336,0.36 -0.912,0.36 -0.576,0 -0.936,-0.336 -0.336,-0.336 -0.336,-0.936 0,-1.08 1.128,-1.272 z m -1.056,5.76 q -0.672,-0.864 -1.728,-0.864 -0.888,0 -1.44,0.552 -1.176,1.176 -1.176,3.792 0,2.136 0.288,2.952 0.24,0.72 0.816,1.224 0.576,0.504 1.368,0.504 1.224,0 1.872,-0.912 0.36,-0.504 0.456,-1.2 0.096,-0.696 0.096,-2.016 v -0.384 -0.384 q 0,-1.368 -0.096,-2.064 -0.096,-0.696 -0.456,-1.2 z"
       style="font-style:normal;font-variant:normal;font-weight:normal;font-stretch:normal;font-size:24px;font-family:KaTeX_Main;-inkscape-font-specification:'KaTeX_Main, Normal';font-variant-ligatures:normal;font-variant-caps:normal;font-variant-numeric:normal;font-feature-settings:normal;text-align:start;letter-spacing:1;writing-mode:lr-tb;text-anchor:start"
       id="path887" /><path
       d="m 375.83886,107.52 q 0,0.312 -0.168,0.48 h -4.464 v -0.048 q -0.024,-0.024 -0.384,-2.088 l -0.408,-2.064 v -0.048 h 0.96 l 0.024,0.12 q 0,0.12 0.096,0.456 0.168,1.08 0.36,1.44 0.096,0.12 0.168,0.168 0.312,0.12 1.608,0.144 h 1.056 v -0.072 q -0.12,-0.384 -0.528,-1.272 -0.384,-0.744 -1.32,-2.208 -1.536,-2.472 -1.92,-3.768 -0.24,-0.888 -0.24,-1.656 0,-0.72 0.192,-1.368 0.528,-1.8 2.232,-3.096 1.704,-1.32 3.984,-1.512 0.144,-0.024 0.36,-0.024 h 0.36 q 3.384,0 5.544,1.848 1.368,1.2 1.8,2.784 0.192,0.648 0.192,1.368 0,0.768 -0.24,1.656 -0.384,1.296 -1.92,3.768 -0.936,1.464 -1.32,2.208 -0.408,0.888 -0.528,1.272 v 0.072 h 1.056 q 1.296,-0.024 1.608,-0.144 0.096,-0.048 0.168,-0.168 0.168,-0.36 0.36,-1.44 0.096,-0.336 0.096,-0.456 l 0.024,-0.12 h 0.96 v 0.048 l -0.408,2.064 q -0.36,2.064 -0.384,2.088 V 108 h -2.208 q -1.776,0 -2.064,0 -0.264,-0.024 -0.312,-0.144 -0.048,-0.096 -0.048,-0.336 0,-0.696 0.216,-1.896 0.192,-0.96 0.936,-3.24 0.768,-2.328 1.008,-3.648 0.168,-1.008 0.168,-1.656 0,-3.384 -2.472,-4.632 -1.008,-0.48 -2.016,-0.48 -2.448,0 -3.744,2.04 -0.744,1.176 -0.744,3.048 0,0.816 0.144,1.68 0.24,1.32 1.008,3.648 0.744,2.28 0.936,3.24 0.216,1.176 0.216,1.896 z"
       style="font-style:normal;font-variant:normal;font-weight:normal;font-stretch:normal;font-size:24px;font-family:KaTeX_Main;-inkscape-font-specification:'KaTeX_Main, Normal';font-variant-ligatures:normal;font-variant-caps:normal;font-variant-numeric:normal;font-feature-settings:normal;text-align:start;writing-mode:lr-tb;text-anchor:start"
       id="path889" /></g><path
     class="st9"
     d="M 337.55906,42 V 60 Z"
     id="path122"
     inkscape:connector-curvature="0"
     style="fill:none;stroke:#000000;stroke-linecap:round;stroke-miterlimit:10" /><line
     class="st9"
     x1="156"
     y1="42"
     x2="337.55905"
     y2="42"
     id="line124"
     style="fill:none;stroke:#000000;stroke-width:1;stroke-linecap:round;stroke-miterlimit:10;stroke-dasharray:none" /><line
     class="st9"
     x1="222"
     y1="60"
     x2="222"
     y2="42"
     id="line126" /><line
     class="st9"
     x1="279.77954"
     y1="60"
     x2="279.77954"
     y2="42"
     id="line128"
     style="fill:none;stroke:#000000;stroke-miterlimit:10" /><polyline
     class="st9"
     points="330,162 265.2,162 186,162 137.3,162 114.6,162 66,162 "
     id="polyline130"
     style="fill:none;stroke:#000000;stroke-width:0.98598388;stroke-linecap:round;stroke-miterlimit:10;stroke-dasharray:none"
     transform="matrix(1.0286328,0,0,1,-1.8897632,0)" /><g
     id="g144"
     transform="translate(7.5590552)"><g
       id="g142"><polyline
         class="st23"
         points="312,30 300,30 300,174 312,174   "
         id="polyline132"
         style="fill:none;stroke:#0c7f99;stroke-miterlimit:10" /><g
         id="g136"><path
           class="st24"
           d="m 318,30 c -2.8,-1.1 -6.4,-2.9 -8.5,-4.8 l 1.7,4.8 -1.7,4.8 c 2.1,-1.9 5.7,-3.7 8.5,-4.8 z"
           id="path134"
           inkscape:connector-curvature="0"
           style="fill:#0c7f99" /></g><g
         id="g140"><path
           class="st24"
           d="m 318,174 c -2.8,1.1 -6.4,2.9 -8.5,4.8 l 1.7,-4.8 -1.7,-4.8 c 2.1,1.9 5.7,3.7 8.5,4.8 z"
           id="path138"
           inkscape:connector-curvature="0"
           style="fill:#0c7f99" /></g></g></g><g
     aria-label="V"
     transform="matrix(1 0 0 1 6 108.0001)"
     style="font-style:normal;font-variant:normal;font-weight:normal;font-stretch:normal;font-size:24px;font-family:KaTeX_Main;-inkscape-font-specification:'KaTeX_Main, Normal';font-variant-ligatures:normal;font-variant-caps:normal;font-variant-numeric:normal;font-feature-settings:normal;text-align:start;writing-mode:lr-tb;text-anchor:start"
     id="text146"><path
       d="M 2.736,-14.88 Q 2.472,-15.144 2.256,-15.192 2.04,-15.264 1.152,-15.288 H 0.456 v -1.104 h 0.216 q 0.336,0.072 2.976,0.072 2.88,0 3.408,-0.072 H 7.32 v 1.104 H 6.816 q -1.104,0.024 -1.368,0.264 -0.096,0.072 -0.096,0.144 0,0.048 2.16,5.952 2.16,5.904 2.184,5.904 0.936,-2.52 2.064,-5.568 2.04,-5.52 2.04,-5.736 0,-0.456 -0.504,-0.696 -0.504,-0.264 -1.104,-0.264 h -0.12 v -1.104 h 0.216 q 0.408,0.072 2.76,0.072 2.064,0 2.328,-0.072 h 0.144 v 1.104 h -0.168 q -1.776,0 -2.304,0.984 0,0.024 -2.712,7.32 Q 9.648,0.312 9.624,0.336 9.552,0.528 9.192,0.528 H 8.976 8.76 Q 8.424,0.528 8.352,0.336 8.304,0.288 5.544,-7.272 2.736,-14.808 2.736,-14.88 Z"
       style="font-style:normal;font-variant:normal;font-weight:normal;font-stretch:normal;font-size:24px;font-family:KaTeX_Main;-inkscape-font-specification:'KaTeX_Main, Normal';font-variant-ligatures:normal;font-variant-caps:normal;font-variant-numeric:normal;font-feature-settings:normal;text-align:start;writing-mode:lr-tb;text-anchor:start"
       id="path884" /></g></svg>