<?xml version="1.0" encoding="UTF-8" standalone="no"?>
<!-- Generator: Adobe Illustrator 19.1.0, SVG Export Plug-In . SVG Version: 6.00 Build 0)  -->

<svg
   xmlns:dc="http://purl.org/dc/elements/1.1/"
   xmlns:cc="http://creativecommons.org/ns#"
   xmlns:rdf="http://www.w3.org/1999/02/22-rdf-syntax-ns#"
   xmlns:svg="http://www.w3.org/2000/svg"
   xmlns="http://www.w3.org/2000/svg"
   xmlns:sodipodi="http://sodipodi.sourceforge.net/DTD/sodipodi-0.dtd"
   xmlns:inkscape="http://www.inkscape.org/namespaces/inkscape"
   version="1.1"
   id="Layer_1"
   x="0px"
   y="0px"
   width="558px"
   height="180px"
   viewBox="0 0 558 180"
   style="enable-background:new 0 0 558 180;"
   xml:space="preserve"
   sodipodi:docname="simplifying1.svg"
   inkscape:version="0.92.2 5c3e80d, 2017-08-06"><metadata
     id="metadata215"><rdf:RDF><cc:Work
         rdf:about=""><dc:format>image/svg+xml</dc:format><dc:type
           rdf:resource="http://purl.org/dc/dcmitype/StillImage" /><dc:title></dc:title></cc:Work></rdf:RDF></metadata><defs
     id="defs213" /><sodipodi:namedview
     pagecolor="#ffffff"
     bordercolor="#666666"
     borderopacity="1"
     objecttolerance="10"
     gridtolerance="10"
     guidetolerance="10"
     inkscape:pageopacity="0"
     inkscape:pageshadow="2"
     inkscape:window-width="640"
     inkscape:window-height="480"
     id="namedview211"
     showgrid="false"
     inkscape:zoom="2.7118432"
     inkscape:cx="45.738074"
     inkscape:cy="134.25035"
     inkscape:current-layer="Layer_1"
     inkscape:snap-page="false" /><style
     type="text/css"
     id="style2">
	.st0{fill:none;stroke:#000000;stroke-linecap:round;stroke-linejoin:round;stroke-miterlimit:10;}
	.st1{fill:none;stroke:#BABEC2;stroke-linecap:round;stroke-linejoin:round;stroke-miterlimit:10;}
	.st2{fill:none;stroke:#BABEC2;stroke-width:2;stroke-linecap:round;stroke-linejoin:round;stroke-miterlimit:10;}
	.st3{fill:none;}
	.st4{fill:none;stroke:#000000;stroke-width:1.5;stroke-linecap:round;stroke-linejoin:round;stroke-miterlimit:10;}
	.st5{fill:none;stroke:#000000;stroke-linecap:round;stroke-miterlimit:10;}
	.st6{fill:none;stroke:#000000;stroke-width:1.5;stroke-linecap:round;stroke-miterlimit:10;}
	.st7{fill:none;stroke:#000000;stroke-width:2;stroke-linecap:round;stroke-linejoin:round;stroke-miterlimit:10;}
	.st8{fill:none;stroke:#000000;stroke-width:1.5;stroke-miterlimit:10;}
	.st9{fill:none;stroke:#000000;stroke-miterlimit:10;}
	.st10{fill:none;stroke:#000000;stroke-width:2;stroke-miterlimit:10;}
	.st11{fill:none;stroke:#000000;stroke-width:2;stroke-linecap:round;stroke-miterlimit:10;}
	.st12{fill:none;stroke:#000000;stroke-linecap:round;stroke-linejoin:round;}
	.st13{stroke:#000000;stroke-linecap:round;stroke-linejoin:round;stroke-miterlimit:10;}
	.st14{fill:none;stroke:#000000;stroke-width:1.5;stroke-linejoin:round;stroke-miterlimit:10;}
	.st15{fill:none;stroke:#000000;stroke-linejoin:round;stroke-miterlimit:10;}
	.st16{clip-path:url(#SVGID_2_);fill:none;stroke:#000000;stroke-linejoin:round;stroke-miterlimit:10;}
	.st17{clip-path:url(#SVGID_2_);fill:none;stroke:#ADADEB;stroke-linejoin:round;stroke-miterlimit:10;}
	.st18{clip-path:url(#SVGID_2_);}
	.st19{stroke:#000000;stroke-linejoin:round;stroke-miterlimit:10;}
	.st20{stroke:#000000;stroke-width:3;stroke-linejoin:round;stroke-miterlimit:10;}
	.st21{fill:none;stroke:#000000;stroke-linejoin:round;}
	.st22{font-family:'KaTeX_Main-Regular';}
	.st23{font-size:18px;}
	.st24{letter-spacing:1;}
	.st25{opacity:0.5;fill:#CCFAFF;}
	.st26{fill:none;stroke:#0C7F99;stroke-miterlimit:10;}
	.st27{fill:#0C7F99;}
	.st28{fill:none;stroke:#11ACCD;stroke-width:3;stroke-linecap:round;stroke-miterlimit:10;}
	.st29{fill:#11ACCD;}
	.st30{font-family:'KaTeX_Main-Italic';}
	.st31{font-size:21px;}
	.st32{fill:none;stroke:#01D1C1;stroke-width:2;stroke-miterlimit:10;}
	.st33{fill:none;stroke:#01D1C1;stroke-linecap:round;stroke-miterlimit:10;}
	.st34{fill:none;stroke:#01D1C1;stroke-linecap:round;stroke-linejoin:round;stroke-miterlimit:10;}
	.st35{fill:none;stroke:#01D1C1;stroke-width:1.5;stroke-miterlimit:10;}
	.st36{fill:none;stroke:#01D1C1;stroke-width:2;stroke-linecap:round;stroke-linejoin:round;stroke-miterlimit:10;}
	.st37{fill:#01D1C1;stroke:#01D1C1;stroke-linecap:round;stroke-linejoin:round;stroke-miterlimit:10;}
	.st38{fill:none;stroke:#01D1C1;stroke-miterlimit:10;}
	.st39{fill:#01D1C1;}
	.st40{fill:none;stroke:#FCA9A9;stroke-width:3;stroke-linecap:round;stroke-miterlimit:10;}
	.st41{fill:#FCA9A9;}
	.st42{fill:#FFFFFF;stroke:#000000;stroke-miterlimit:10;}
	.st43{fill:#11ACCD;stroke:#000000;stroke-miterlimit:10;}
	.st44{fill:#BABEC2;stroke:#BABEC2;stroke-miterlimit:10;}
	.st45{stroke:#000000;stroke-miterlimit:10;}
</style><g
     id="g16"><circle
       class="st10"
       cx="48"
       cy="102"
       r="18"
       id="circle4" /><polyline
       class="st5"
       points="48,84 48,60 48,42 78,42  "
       id="polyline6" /><polyline
       class="st0"
       points="78,162 48,162 48,120  "
       id="polyline8" /><line
       class="st8"
       x1="48"
       y1="88.5"
       x2="48"
       y2="100.5"
       id="line10" /><line
       class="st8"
       x1="42"
       y1="94.5"
       x2="54"
       y2="94.5"
       id="line12" /><line
       class="st8"
       x1="42"
       y1="112.5"
       x2="54"
       y2="112.5"
       id="line14" /></g><g
     id="g26"><line
       class="st0"
       x1="149.4"
       y1="42"
       x2="174"
       y2="42"
       id="line18" /><polyline
       class="st7"
       points="102.6,42 106.5,33 114.3,51 122.1,33 129.9,51 137.7,33 145.5,51 149.4,42  "
       id="polyline20" /><line
       class="st0"
       x1="84"
       y1="42"
       x2="102.6"
       y2="42"
       id="line22" /><rect
       x="84"
       y="30"
       class="st3"
       width="90"
       height="24"
       id="rect24" /></g><g
     id="g36"><line
       class="st0"
       x1="365.4"
       y1="42"
       x2="390"
       y2="42"
       id="line28" /><polyline
       class="st7"
       points="318.6,42 322.5,33 330.3,51 338.1,33 345.9,51 353.7,33 361.5,51 365.4,42  "
       id="polyline30" /><line
       class="st0"
       x1="294"
       y1="42"
       x2="318.6"
       y2="42"
       id="line32" /><rect
       x="294"
       y="30"
       class="st3"
       width="96"
       height="24"
       id="rect34" /></g><g
     id="g46"><line
       class="st0"
       x1="521.4"
       y1="42"
       x2="540"
       y2="42"
       id="line38" /><polyline
       class="st7"
       points="474.6,42 478.5,33 486.3,51 494.1,33 501.9,51 509.7,33 517.5,51 521.4,42  "
       id="polyline40" /><line
       class="st0"
       x1="450"
       y1="42"
       x2="474.6"
       y2="42"
       id="line42" /><rect
       x="450"
       y="30"
       class="st3"
       width="90"
       height="24"
       id="rect44" /></g><g
     id="g56"><line
       class="st0"
       x1="222"
       y1="78.6"
       x2="222"
       y2="60"
       id="line48" /><polyline
       class="st7"
       points="222,125.4 213,121.5 231,113.7 213,105.9 231,98.1 213,90.3 231,82.5 222,78.6  "
       id="polyline50" /><line
       class="st0"
       x1="222"
       y1="162"
       x2="222"
       y2="125.4"
       id="line52" /><rect
       x="210"
       y="60"
       class="st3"
       width="24"
       height="102"
       id="rect54" /></g><g
     id="g66"><line
       class="st0"
       x1="276"
       y1="78.6"
       x2="276"
       y2="60"
       id="line58" /><polyline
       class="st7"
       points="276,125.4 267,121.5 285,113.7 267,105.9 285,98.1 267,90.3 285,82.5 276,78.6  "
       id="polyline60" /><line
       class="st0"
       x1="276"
       y1="162"
       x2="276"
       y2="125.4"
       id="line62" /><rect
       x="264"
       y="60"
       class="st3"
       width="24"
       height="102"
       id="rect64" /></g><g
     id="g76"><line
       class="st0"
       x1="402"
       y1="78.6"
       x2="402"
       y2="60"
       id="line68" /><polyline
       class="st7"
       points="402,125.4 393,121.5 411,113.7 393,105.9 411,98.1 393,90.3 411,82.5 402,78.6  "
       id="polyline70" /><line
       class="st0"
       x1="402"
       y1="162"
       x2="402"
       y2="125.4"
       id="line72" /><rect
       x="390"
       y="60"
       class="st3"
       width="24"
       height="102"
       id="rect74" /></g><g
     id="g86"><line
       class="st0"
       x1="540"
       y1="78.6"
       x2="540"
       y2="60"
       id="line78" /><polyline
       class="st7"
       points="540,125.4 531,121.5 549,113.7 531,105.9 549,98.1 531,90.3 549,82.5 540,78.6  "
       id="polyline80" /><line
       class="st0"
       x1="540"
       y1="162"
       x2="540"
       y2="125.4"
       id="line82" /><rect
       x="528"
       y="60"
       class="st3"
       width="24"
       height="102"
       id="rect84" /></g><g
     id="g92"><circle
       class="st13"
       cx="402"
       cy="162"
       r="1.5"
       id="circle88" /><rect
       x="396"
       y="156"
       class="st3"
       width="12"
       height="12"
       id="rect90" /></g><g
     id="g98"><circle
       class="st13"
       cx="276"
       cy="162"
       r="1.5"
       id="circle94" /><rect
       x="270"
       y="156"
       class="st3"
       width="12"
       height="12"
       id="rect96" /></g><g
     id="g104"><circle
       class="st13"
       cx="222"
       cy="162"
       r="1.5"
       id="circle100" /><rect
       x="216"
       y="156"
       class="st3"
       width="12"
       height="12"
       id="rect102" /></g><g
     id="g110"><circle
       class="st13"
       cx="222"
       cy="42"
       r="1.5"
       id="circle106" /><rect
       x="216"
       y="36"
       class="st3"
       width="12"
       height="12"
       id="rect108" /></g><g
     id="g116"><circle
       class="st13"
       cx="276"
       cy="42"
       r="1.5"
       id="circle112" /><rect
       x="270"
       y="36"
       class="st3"
       width="12"
       height="12"
       id="rect114" /></g><g
     id="g122"><circle
       class="st13"
       cx="402"
       cy="42"
       r="1.5"
       id="circle118" /><rect
       x="396"
       y="36"
       class="st3"
       width="12"
       height="12"
       id="rect120" /></g><g
     id="g128"><circle
       class="st9"
       cx="81"
       cy="42"
       r="3"
       id="circle124" /><rect
       x="78"
       y="36"
       class="st3"
       width="6"
       height="12"
       id="rect126" /></g><g
     id="g134"><circle
       class="st9"
       cx="81"
       cy="162"
       r="3"
       id="circle130" /><rect
       x="78"
       y="156"
       class="st3"
       width="6"
       height="12"
       id="rect132" /></g><g
     aria-label="1Ω"
     style="font-style:normal;font-variant:normal;font-weight:normal;font-stretch:normal;font-size:24px;font-family:KaTeX_Main;-inkscape-font-specification:'KaTeX_Main, Normal';font-variant-ligatures:normal;font-variant-caps:normal;font-variant-numeric:normal;font-feature-settings:normal;text-align:start;writing-mode:lr-tb;text-anchor:start"
     id="text140"><path
       d="m 120.20447,24 q -0.408,-0.072 -3.816,-0.072 -3.36,0 -3.768,0.072 h -0.288 v -1.104 h 0.624 q 1.392,0 1.8,-0.072 0.192,-0.024 0.576,-0.288 V 10.128 q -0.048,0 -0.192,0.072 -1.104,0.432 -2.472,0.456 h -0.456 V 9.552 h 0.456 q 2.016,-0.072 3.36,-0.912 0.432,-0.24 0.744,-0.552 0.048,-0.072 0.288,-0.072 0.24,0 0.408,0.144 v 7.176 l 0.024,7.2 q 0.36,0.36 1.56,0.36 h 0.792 0.624 V 24 Z"
       style="font-style:normal;font-variant:normal;font-weight:normal;font-stretch:normal;font-size:24px;font-family:KaTeX_Main;-inkscape-font-specification:'KaTeX_Main, Normal';font-variant-ligatures:normal;font-variant-caps:normal;font-variant-numeric:normal;font-feature-settings:normal;text-align:start;letter-spacing:1;writing-mode:lr-tb;text-anchor:start"
       id="path5301" /><path
       d="m 130.50047,23.52 q 0,0.312 -0.168,0.48 h -4.464 v -0.048 q -0.024,-0.024 -0.384,-2.088 l -0.408,-2.064 v -0.048 h 0.96 l 0.024,0.12 q 0,0.12 0.096,0.456 0.168,1.08 0.36,1.44 0.096,0.12 0.168,0.168 0.312,0.12 1.608,0.144 h 1.056 v -0.072 q -0.12,-0.384 -0.528,-1.272 -0.384,-0.744 -1.32,-2.208 -1.536,-2.472 -1.92,-3.768 -0.24,-0.888 -0.24,-1.656 0,-0.72 0.192,-1.368 0.528,-1.8 2.232,-3.096 1.704,-1.32 3.984,-1.512 0.144,-0.024 0.36,-0.024 h 0.36 q 3.384,0 5.544,1.848 1.368,1.2 1.8,2.784 0.192,0.648 0.192,1.368 0,0.768 -0.24,1.656 -0.384,1.296 -1.92,3.768 -0.936,1.464 -1.32,2.208 -0.408,0.888 -0.528,1.272 v 0.072 h 1.056 q 1.296,-0.024 1.608,-0.144 0.096,-0.048 0.168,-0.168 0.168,-0.36 0.36,-1.44 0.096,-0.336 0.096,-0.456 l 0.024,-0.12 h 0.96 V 19.8 l -0.408,2.064 q -0.36,2.064 -0.384,2.088 V 24 h -2.208 q -1.776,0 -2.064,0 -0.264,-0.024 -0.312,-0.144 -0.048,-0.096 -0.048,-0.336 0,-0.696 0.216,-1.896 0.192,-0.96 0.936,-3.24 0.768,-2.328 1.008,-3.648 0.168,-1.008 0.168,-1.656 0,-3.384 -2.472,-4.632 -1.008,-0.48 -2.016,-0.48 -2.448,0 -3.744,2.04 -0.744,1.176 -0.744,3.048 0,0.816 0.144,1.68 0.24,1.32 1.008,3.648 0.744,2.28 0.936,3.24 0.216,1.176 0.216,1.896 z"
       style="font-style:normal;font-variant:normal;font-weight:normal;font-stretch:normal;font-size:24px;font-family:KaTeX_Main;-inkscape-font-specification:'KaTeX_Main, Normal';font-variant-ligatures:normal;font-variant-caps:normal;font-variant-numeric:normal;font-feature-settings:normal;text-align:start;writing-mode:lr-tb;text-anchor:start"
       id="path5303" /></g><g
     aria-label="12Ω"
     style="font-style:normal;font-variant:normal;font-weight:normal;font-stretch:normal;font-size:24px;font-family:KaTeX_Main;-inkscape-font-specification:'KaTeX_Main, Normal';font-variant-ligatures:normal;font-variant-caps:normal;font-variant-numeric:normal;font-feature-settings:normal;text-align:start;writing-mode:lr-tb;text-anchor:start"
     id="text148"><path
       d="m 180.20447,108 q -0.408,-0.072 -3.816,-0.072 -3.36,0 -3.768,0.072 h -0.288 v -1.104 h 0.624 q 1.392,0 1.8,-0.072 0.192,-0.024 0.576,-0.288 V 94.128 q -0.048,0 -0.192,0.072 -1.104,0.432 -2.472,0.456 h -0.456 v -1.104 h 0.456 q 2.016,-0.072 3.36,-0.912 0.432,-0.24 0.744,-0.552 0.048,-0.072 0.288,-0.072 0.24,0 0.408,0.144 v 7.176 l 0.024,7.2 q 0.36,0.36 1.56,0.36 h 0.792 0.624 V 108 Z"
       style="font-style:normal;font-variant:normal;font-weight:normal;font-stretch:normal;font-size:24px;font-family:KaTeX_Main;-inkscape-font-specification:'KaTeX_Main, Normal';font-variant-ligatures:normal;font-variant-caps:normal;font-variant-numeric:normal;font-feature-settings:normal;text-align:start;writing-mode:lr-tb;text-anchor:start"
       id="path5294" /><path
       d="m 181.86047,97.704 q -0.672,0 -1.056,-0.432 -0.384,-0.432 -0.384,-1.056 0,-1.728 1.296,-2.952 1.32,-1.248 3.144,-1.248 2.064,0 3.408,1.128 1.368,1.104 1.68,2.904 0.048,0.432 0.048,0.792 0,1.392 -0.84,2.616 -0.672,1.008 -2.712,2.76 -0.864,0.744 -2.4,2.208 l -1.416,1.344 1.824,0.024 q 3.768,0 4.008,-0.12 0.096,-0.024 0.24,-0.504 0.096,-0.264 0.336,-1.632 v -0.072 h 0.96 v 0.072 l -0.672,4.392 V 108 h -8.904 v -0.456 q 0,-0.48 0.048,-0.552 0.024,-0.024 2.016,-2.28 2.616,-2.904 3.36,-3.84 1.608,-2.184 1.608,-4.008 0,-1.584 -0.84,-2.64 -0.816,-1.08 -2.304,-1.08 -1.392,0 -2.256,1.248 -0.048,0.096 -0.144,0.264 -0.072,0.12 -0.072,0.144 0,0.024 0.12,0.024 0.6,0 0.96,0.432 0.384,0.432 0.384,1.008 0,0.6 -0.408,1.032 -0.384,0.408 -1.032,0.408 z"
       style="font-style:normal;font-variant:normal;font-weight:normal;font-stretch:normal;font-size:24px;font-family:KaTeX_Main;-inkscape-font-specification:'KaTeX_Main, Normal';font-variant-ligatures:normal;font-variant-caps:normal;font-variant-numeric:normal;font-feature-settings:normal;text-align:start;letter-spacing:1;writing-mode:lr-tb;text-anchor:start"
       id="path5296" /><path
       d="m 199.50048,107.52 q 0,0.312 -0.168,0.48 h -4.464 v -0.048 q -0.024,-0.024 -0.384,-2.088 l -0.408,-2.064 v -0.048 h 0.96 l 0.024,0.12 q 0,0.12 0.096,0.456 0.168,1.08 0.36,1.44 0.096,0.12 0.168,0.168 0.312,0.12 1.608,0.144 h 1.056 v -0.072 q -0.12,-0.384 -0.528,-1.272 -0.384,-0.744 -1.32,-2.208 -1.536,-2.472 -1.92,-3.768 -0.24,-0.888 -0.24,-1.656 0,-0.72 0.192,-1.368 0.528,-1.8 2.232,-3.096 1.704,-1.32 3.984,-1.512 0.144,-0.024 0.36,-0.024 h 0.36 q 3.384,0 5.544,1.848 1.368,1.2 1.8,2.784 0.192,0.648 0.192,1.368 0,0.768 -0.24,1.656 -0.384,1.296 -1.92,3.768 -0.936,1.464 -1.32,2.208 -0.408,0.888 -0.528,1.272 v 0.072 h 1.056 q 1.296,-0.024 1.608,-0.144 0.096,-0.048 0.168,-0.168 0.168,-0.36 0.36,-1.44 0.096,-0.336 0.096,-0.456 l 0.024,-0.12 h 0.96 v 0.048 l -0.408,2.064 q -0.36,2.064 -0.384,2.088 V 108 h -2.208 q -1.776,0 -2.064,0 -0.264,-0.024 -0.312,-0.144 -0.048,-0.096 -0.048,-0.336 0,-0.696 0.216,-1.896 0.192,-0.96 0.936,-3.24 0.768,-2.328 1.008,-3.648 0.168,-1.008 0.168,-1.656 0,-3.384 -2.472,-4.632 -1.008,-0.48 -2.016,-0.48 -2.448,0 -3.744,2.04 -0.744,1.176 -0.744,3.048 0,0.816 0.144,1.68 0.24,1.32 1.008,3.648 0.744,2.28 0.936,3.24 0.216,1.176 0.216,1.896 z"
       style="font-style:normal;font-variant:normal;font-weight:normal;font-stretch:normal;font-size:24px;font-family:KaTeX_Main;-inkscape-font-specification:'KaTeX_Main, Normal';font-variant-ligatures:normal;font-variant-caps:normal;font-variant-numeric:normal;font-feature-settings:normal;text-align:start;writing-mode:lr-tb;text-anchor:start"
       id="path5298" /></g><g
     aria-label="4Ω"
     style="font-style:normal;font-variant:normal;font-weight:normal;font-stretch:normal;font-size:24px;font-family:KaTeX_Main;-inkscape-font-specification:'KaTeX_Main, Normal';font-variant-ligatures:normal;font-variant-caps:normal;font-variant-numeric:normal;font-feature-settings:normal;text-align:start;writing-mode:lr-tb;text-anchor:start"
     id="text154"><path
       d="m 300.22197,108 q -0.336,-0.072 -3.096,-0.072 -2.88,0 -3.216,0.072 h -0.216 v -1.104 h 0.744 q 1.032,-0.024 1.272,-0.12 0.192,-0.048 0.288,-0.24 0.024,-0.048 0.024,-1.296 v -1.2 h -6.216 v -1.104 l 3.624,-5.544 q 3.672,-5.568 3.72,-5.592 0.048,-0.048 0.504,-0.048 h 0.432 l 0.144,0.144 v 11.04 h 2.208 v 1.104 h -2.208 v 1.224 q 0,0.984 0,1.152 0.024,0.168 0.144,0.288 0.192,0.168 1.368,0.192 h 0.696 V 108 Z m -4.056,-5.064 V 94.92 l -5.256,7.992 2.616,0.024 z"
       style="font-style:normal;font-variant:normal;font-weight:normal;font-stretch:normal;font-size:24px;font-family:KaTeX_Main;-inkscape-font-specification:'KaTeX_Main, Normal';font-variant-ligatures:normal;font-variant-caps:normal;font-variant-numeric:normal;font-feature-settings:normal;text-align:start;letter-spacing:1;writing-mode:lr-tb;text-anchor:start"
       id="path5289" /><path
       d="m 309.41402,107.52 q 0,0.312 -0.168,0.48 h -4.464 v -0.048 q -0.024,-0.024 -0.384,-2.088 l -0.408,-2.064 v -0.048 h 0.96 l 0.024,0.12 q 0,0.12 0.096,0.456 0.168,1.08 0.36,1.44 0.096,0.12 0.168,0.168 0.312,0.12 1.608,0.144 h 1.056 v -0.072 q -0.12,-0.384 -0.528,-1.272 -0.384,-0.744 -1.32,-2.208 -1.536,-2.472 -1.92,-3.768 -0.24,-0.888 -0.24,-1.656 0,-0.72 0.192,-1.368 0.528,-1.8 2.232,-3.096 1.704,-1.32 3.984,-1.512 0.144,-0.024 0.36,-0.024 h 0.36 q 3.384,0 5.544,1.848 1.368,1.2 1.8,2.784 0.192,0.648 0.192,1.368 0,0.768 -0.24,1.656 -0.384,1.296 -1.92,3.768 -0.936,1.464 -1.32,2.208 -0.408,0.888 -0.528,1.272 v 0.072 h 1.056 q 1.296,-0.024 1.608,-0.144 0.096,-0.048 0.168,-0.168 0.168,-0.36 0.36,-1.44 0.096,-0.336 0.096,-0.456 l 0.024,-0.12 h 0.96 v 0.048 l -0.408,2.064 q -0.36,2.064 -0.384,2.088 V 108 h -2.208 q -1.776,0 -2.064,0 -0.264,-0.024 -0.312,-0.144 -0.048,-0.096 -0.048,-0.336 0,-0.696 0.216,-1.896 0.192,-0.96 0.936,-3.24 0.768,-2.328 1.008,-3.648 0.168,-1.008 0.168,-1.656 0,-3.384 -2.472,-4.632 -1.008,-0.48 -2.016,-0.48 -2.448,0 -3.744,2.04 -0.744,1.176 -0.744,3.048 0,0.816 0.144,1.68 0.24,1.32 1.008,3.648 0.744,2.28 0.936,3.24 0.216,1.176 0.216,1.896 z"
       style="font-style:normal;font-variant:normal;font-weight:normal;font-stretch:normal;font-size:24px;font-family:KaTeX_Main;-inkscape-font-specification:'KaTeX_Main, Normal';font-variant-ligatures:normal;font-variant-caps:normal;font-variant-numeric:normal;font-feature-settings:normal;text-align:start;writing-mode:lr-tb;text-anchor:start"
       id="path5291" /></g><g
     aria-label="10Ω"
     transform="translate(414,108)"
     style="font-style:normal;font-variant:normal;font-weight:normal;font-stretch:normal;font-size:24px;font-family:KaTeX_Main;-inkscape-font-specification:'KaTeX_Main, Normal';font-variant-ligatures:normal;font-variant-caps:normal;font-variant-numeric:normal;font-feature-settings:normal;text-align:start;writing-mode:lr-tb;text-anchor:start"
     id="text162"><path
       d="M 9.984,0 Q 9.576,-0.072 6.168,-0.072 2.808,-0.072 2.4,0 H 2.112 v -1.104 h 0.624 q 1.392,0 1.8,-0.072 0.192,-0.024 0.576,-0.288 v -12.408 q -0.048,0 -0.192,0.072 -1.104,0.432 -2.472,0.456 H 1.992 v -1.104 h 0.456 q 2.016,-0.072 3.36,-0.912 0.432,-0.24 0.744,-0.552 0.048,-0.072 0.288,-0.072 0.24,0 0.408,0.144 v 7.176 l 0.024,7.2 q 0.36,0.36 1.56,0.36 h 0.792 0.624 V 0 Z"
       style="font-style:normal;font-variant:normal;font-weight:normal;font-stretch:normal;font-size:24px;font-family:KaTeX_Main;-inkscape-font-specification:'KaTeX_Main, Normal';font-variant-ligatures:normal;font-variant-caps:normal;font-variant-numeric:normal;font-feature-settings:normal;text-align:start;writing-mode:lr-tb;text-anchor:start"
       id="path5282" /><path
       d="m 11.304,-14.04 q 1.344,-1.944 3.672,-1.944 1.752,0 3.072,1.2 0.648,0.624 1.104,1.632 0.888,1.992 0.888,5.472 0,3.72 -1.032,5.688 Q 18.336,-0.6 17.04,0.024 16.032,0.528 15,0.528 q -2.76,0 -4.032,-2.52 -1.032,-1.968 -1.032,-5.688 0,-2.232 0.288,-3.672 0.312,-1.464 1.08,-2.688 z m 5.4,-0.288 q -0.696,-0.768 -1.704,-0.768 -1.008,0 -1.728,0.768 -0.528,0.552 -0.72,1.344 -0.192,0.792 -0.24,2.736 0,0.144 -0.024,0.936 0,0.792 0,1.32 0,2.304 0.048,3.216 0.096,1.68 0.288,2.424 0.192,0.72 0.72,1.248 0.648,0.72 1.656,0.72 0.984,0 1.632,-0.72 0.528,-0.528 0.72,-1.248 0.192,-0.744 0.288,-2.424 0.048,-0.912 0.048,-3.216 0,-0.528 -0.024,-1.32 0,-0.792 0,-0.936 -0.048,-1.944 -0.24,-2.736 -0.192,-0.792 -0.72,-1.344 z"
       style="font-style:normal;font-variant:normal;font-weight:normal;font-stretch:normal;font-size:24px;font-family:KaTeX_Main;-inkscape-font-specification:'KaTeX_Main, Normal';font-variant-ligatures:normal;font-variant-caps:normal;font-variant-numeric:normal;font-feature-settings:normal;text-align:start;letter-spacing:1;writing-mode:lr-tb;text-anchor:start"
       id="path5284" /><path
       d="m 29.279999,-0.48 q 0,0.312 -0.168,0.48 h -4.464 v -0.048 q -0.024,-0.024 -0.384,-2.088 l -0.408,-2.064 v -0.048 h 0.96 l 0.024,0.12 q 0,0.12 0.096,0.456 0.168,1.08 0.36,1.44 0.096,0.12 0.168,0.168 0.312,0.12 1.608,0.144 h 1.056 v -0.072 q -0.12,-0.384 -0.528,-1.272 -0.384,-0.744 -1.32,-2.208 -1.536,-2.472 -1.92,-3.768 -0.24,-0.888 -0.24,-1.656 0,-0.72 0.192,-1.368 0.528,-1.8 2.232,-3.096 1.704,-1.32 3.984,-1.512 0.144,-0.024 0.36,-0.024 h 0.36 q 3.384,0 5.544,1.848 1.368,1.2 1.8,2.784 0.192,0.648 0.192,1.368 0,0.768 -0.24,1.656 -0.384,1.296 -1.92,3.768 -0.936,1.464 -1.32,2.208 -0.408,0.888 -0.528,1.272 v 0.072 h 1.056 q 1.296,-0.024 1.608,-0.144 0.096,-0.048 0.168,-0.168 0.168,-0.36 0.36,-1.44 0.096,-0.336 0.096,-0.456 l 0.024,-0.12 h 0.96 V -4.2 l -0.408,2.064 q -0.36,2.064 -0.384,2.088 V 0 h -2.208 q -1.776,0 -2.064,0 -0.264,-0.024 -0.312,-0.144 -0.048,-0.096 -0.048,-0.336 0,-0.696 0.216,-1.896 0.192,-0.96 0.936,-3.24 0.768,-2.328 1.008,-3.648 0.168,-1.008 0.168,-1.656 0,-3.384 -2.472,-4.632 -1.008,-0.48 -2.016,-0.48 -2.448,0 -3.744,2.04 -0.744,1.176 -0.744,3.048 0,0.816 0.144,1.68 0.24,1.32 1.008,3.648 0.744,2.28 0.936,3.24 0.216,1.176 0.216,1.896 z"
       style="font-style:normal;font-variant:normal;font-weight:normal;font-stretch:normal;font-size:24px;font-family:KaTeX_Main;-inkscape-font-specification:'KaTeX_Main, Normal';font-variant-ligatures:normal;font-variant-caps:normal;font-variant-numeric:normal;font-feature-settings:normal;text-align:start;writing-mode:lr-tb;text-anchor:start"
       id="path5286" /></g><g
     aria-label="8Ω"
     style="font-style:normal;font-variant:normal;font-weight:normal;font-stretch:normal;font-size:24px;font-family:KaTeX_Main;-inkscape-font-specification:'KaTeX_Main, Normal';font-variant-ligatures:normal;font-variant-caps:normal;font-variant-numeric:normal;font-feature-settings:normal;text-align:start;writing-mode:lr-tb;text-anchor:start"
     id="text168"><path
       d="m 498.34846,99.96 q -1.176,-0.768 -1.824,-1.608 -0.624,-0.84 -0.624,-2.208 0,-1.032 0.384,-1.728 0.528,-1.08 1.536,-1.728 1.032,-0.672 2.352,-0.672 1.632,0 2.832,0.864 1.2,0.84 1.488,2.184 0.024,0.144 0.024,0.576 0,0.528 -0.048,0.72 -0.36,1.584 -2.184,2.736 l -0.288,0.192 q 1.344,0.912 1.392,0.96 1.8,1.44 1.8,3.576 0,1.944 -1.44,3.336 -1.416,1.368 -3.552,1.368 -2.952,0 -4.344,-2.16 -0.6,-0.864 -0.6,-2.088 0,-2.616 3.096,-4.32 z m 4.776,-4.272 q 0,-1.032 -0.672,-1.752 -0.672,-0.72 -1.632,-0.912 -0.168,-0.024 -0.792,-0.024 -1.272,0 -2.136,0.864 -0.6,0.552 -0.6,1.32 0,1.032 0.864,1.632 0.12,0.12 1.536,1.008 l 1.392,0.912 q 0.024,-0.024 0.312,-0.192 0.288,-0.192 0.432,-0.336 1.296,-1.032 1.296,-2.52 z m -6.336,8.544 q 0,1.416 1.032,2.352 1.032,0.912 2.4,0.912 0.984,0 1.776,-0.408 0.816,-0.408 1.224,-1.056 0.408,-0.624 0.408,-1.32 0,-1.032 -0.84,-1.824 -0.192,-0.192 -1.992,-1.368 -0.336,-0.216 -0.744,-0.456 -0.384,-0.264 -0.6,-0.408 l -0.192,-0.12 -0.288,0.144 q -1.512,0.984 -1.992,2.4 -0.192,0.624 -0.192,1.152 z"
       style="font-style:normal;font-variant:normal;font-weight:normal;font-stretch:normal;font-size:24px;font-family:KaTeX_Main;-inkscape-font-specification:'KaTeX_Main, Normal';font-variant-ligatures:normal;font-variant-caps:normal;font-variant-numeric:normal;font-feature-settings:normal;text-align:start;letter-spacing:1;writing-mode:lr-tb;text-anchor:start"
       id="path5277" /><path
       d="m 514.50048,107.52 q 0,0.312 -0.168,0.48 h -4.464 v -0.048 q -0.024,-0.024 -0.384,-2.088 l -0.408,-2.064 v -0.048 h 0.96 l 0.024,0.12 q 0,0.12 0.096,0.456 0.168,1.08 0.36,1.44 0.096,0.12 0.168,0.168 0.312,0.12 1.608,0.144 h 1.056 v -0.072 q -0.12,-0.384 -0.528,-1.272 -0.384,-0.744 -1.32,-2.208 -1.536,-2.472 -1.92,-3.768 -0.24,-0.888 -0.24,-1.656 0,-0.72 0.192,-1.368 0.528,-1.8 2.232,-3.096 1.704,-1.32 3.984,-1.512 0.144,-0.024 0.36,-0.024 h 0.36 q 3.384,0 5.544,1.848 1.368,1.2 1.8,2.784 0.192,0.648 0.192,1.368 0,0.768 -0.24,1.656 -0.384,1.296 -1.92,3.768 -0.936,1.464 -1.32,2.208 -0.408,0.888 -0.528,1.272 v 0.072 h 1.056 q 1.296,-0.024 1.608,-0.144 0.096,-0.048 0.168,-0.168 0.168,-0.36 0.36,-1.44 0.096,-0.336 0.096,-0.456 l 0.024,-0.12 h 0.96 v 0.048 l -0.408,2.064 q -0.36,2.064 -0.384,2.088 V 108 h -2.208 q -1.776,0 -2.064,0 -0.264,-0.024 -0.312,-0.144 -0.048,-0.096 -0.048,-0.336 0,-0.696 0.216,-1.896 0.192,-0.96 0.936,-3.24 0.768,-2.328 1.008,-3.648 0.168,-1.008 0.168,-1.656 0,-3.384 -2.472,-4.632 -1.008,-0.48 -2.016,-0.48 -2.448,0 -3.744,2.04 -0.744,1.176 -0.744,3.048 0,0.816 0.144,1.68 0.24,1.32 1.008,3.648 0.744,2.28 0.936,3.24 0.216,1.176 0.216,1.896 z"
       style="font-style:normal;font-variant:normal;font-weight:normal;font-stretch:normal;font-size:24px;font-family:KaTeX_Main;-inkscape-font-specification:'KaTeX_Main, Normal';font-variant-ligatures:normal;font-variant-caps:normal;font-variant-numeric:normal;font-feature-settings:normal;text-align:start;writing-mode:lr-tb;text-anchor:start"
       id="path5279" /></g><g
     aria-label="1Ω"
     style="font-style:normal;font-variant:normal;font-weight:normal;font-stretch:normal;font-size:24px;font-family:KaTeX_Main;-inkscape-font-specification:'KaTeX_Main, Normal';font-variant-ligatures:normal;font-variant-caps:normal;font-variant-numeric:normal;font-feature-settings:normal;text-align:start;writing-mode:lr-tb;text-anchor:start"
     id="text174"><path
       d="m 336.20446,24 q -0.408,-0.072 -3.816,-0.072 -3.36,0 -3.768,0.072 h -0.288 v -1.104 h 0.624 q 1.392,0 1.8,-0.072 0.192,-0.024 0.576,-0.288 V 10.128 q -0.048,0 -0.192,0.072 -1.104,0.432 -2.472,0.456 h -0.456 V 9.552 h 0.456 q 2.016,-0.072 3.36,-0.912 0.432,-0.24 0.744,-0.552 0.048,-0.072 0.288,-0.072 0.24,0 0.408,0.144 v 7.176 l 0.024,7.2 q 0.36,0.36 1.56,0.36 h 0.792 0.624 V 24 Z"
       style="font-style:normal;font-variant:normal;font-weight:normal;font-stretch:normal;font-size:24px;font-family:KaTeX_Main;-inkscape-font-specification:'KaTeX_Main, Normal';font-variant-ligatures:normal;font-variant-caps:normal;font-variant-numeric:normal;font-feature-settings:normal;text-align:start;letter-spacing:1;writing-mode:lr-tb;text-anchor:start"
       id="path5272" /><path
       d="m 346.50048,23.52 q 0,0.312 -0.168,0.48 h -4.464 v -0.048 q -0.024,-0.024 -0.384,-2.088 l -0.408,-2.064 v -0.048 h 0.96 l 0.024,0.12 q 0,0.12 0.096,0.456 0.168,1.08 0.36,1.44 0.096,0.12 0.168,0.168 0.312,0.12 1.608,0.144 h 1.056 v -0.072 q -0.12,-0.384 -0.528,-1.272 -0.384,-0.744 -1.32,-2.208 -1.536,-2.472 -1.92,-3.768 -0.24,-0.888 -0.24,-1.656 0,-0.72 0.192,-1.368 0.528,-1.8 2.232,-3.096 1.704,-1.32 3.984,-1.512 0.144,-0.024 0.36,-0.024 h 0.36 q 3.384,0 5.544,1.848 1.368,1.2 1.8,2.784 0.192,0.648 0.192,1.368 0,0.768 -0.24,1.656 -0.384,1.296 -1.92,3.768 -0.936,1.464 -1.32,2.208 -0.408,0.888 -0.528,1.272 v 0.072 h 1.056 q 1.296,-0.024 1.608,-0.144 0.096,-0.048 0.168,-0.168 0.168,-0.36 0.36,-1.44 0.096,-0.336 0.096,-0.456 l 0.024,-0.12 h 0.96 V 19.8 l -0.408,2.064 q -0.36,2.064 -0.384,2.088 V 24 h -2.208 q -1.776,0 -2.064,0 -0.264,-0.024 -0.312,-0.144 -0.048,-0.096 -0.048,-0.336 0,-0.696 0.216,-1.896 0.192,-0.96 0.936,-3.24 0.768,-2.328 1.008,-3.648 0.168,-1.008 0.168,-1.656 0,-3.384 -2.472,-4.632 -1.008,-0.48 -2.016,-0.48 -2.448,0 -3.744,2.04 -0.744,1.176 -0.744,3.048 0,0.816 0.144,1.68 0.24,1.32 1.008,3.648 0.744,2.28 0.936,3.24 0.216,1.176 0.216,1.896 z"
       style="font-style:normal;font-variant:normal;font-weight:normal;font-stretch:normal;font-size:24px;font-family:KaTeX_Main;-inkscape-font-specification:'KaTeX_Main, Normal';font-variant-ligatures:normal;font-variant-caps:normal;font-variant-numeric:normal;font-feature-settings:normal;text-align:start;writing-mode:lr-tb;text-anchor:start"
       id="path5274" /></g><g
     aria-label="2Ω"
     style="font-style:normal;font-variant:normal;font-weight:normal;font-stretch:normal;font-size:24px;font-family:KaTeX_Main;-inkscape-font-specification:'KaTeX_Main, Normal';font-variant-ligatures:normal;font-variant-caps:normal;font-variant-numeric:normal;font-feature-settings:normal;text-align:start;writing-mode:lr-tb;text-anchor:start"
     id="text180"><path
       d="m 484.86046,13.704 q -0.672,0 -1.056,-0.432 -0.384,-0.432 -0.384,-1.056 0,-1.728 1.296,-2.952 1.32,-1.248 3.144,-1.248 2.064,0 3.408,1.128 1.368,1.104 1.68,2.904 0.048,0.432 0.048,0.792 0,1.392 -0.84,2.616 -0.672,1.008 -2.712,2.76 -0.864,0.744 -2.4,2.208 l -1.416,1.344 1.824,0.024 q 3.768,0 4.008,-0.12 0.096,-0.024 0.24,-0.504 0.096,-0.264 0.336,-1.632 v -0.072 h 0.96 v 0.072 l -0.672,4.392 V 24 h -8.904 v -0.456 q 0,-0.48 0.048,-0.552 0.024,-0.024 2.016,-2.28 2.616,-2.904 3.36,-3.84 1.608,-2.184 1.608,-4.008 0,-1.584 -0.84,-2.64 -0.816,-1.08 -2.304,-1.08 -1.392,0 -2.256,1.248 -0.048,0.096 -0.144,0.264 -0.072,0.12 -0.072,0.144 0,0.024 0.12,0.024 0.6,0 0.96,0.432 0.384,0.432 0.384,1.008 0,0.6 -0.408,1.032 -0.384,0.408 -1.032,0.408 z"
       style="font-style:normal;font-variant:normal;font-weight:normal;font-stretch:normal;font-size:24px;font-family:KaTeX_Main;-inkscape-font-specification:'KaTeX_Main, Normal';font-variant-ligatures:normal;font-variant-caps:normal;font-variant-numeric:normal;font-feature-settings:normal;text-align:start;letter-spacing:1;writing-mode:lr-tb;text-anchor:start"
       id="path5267" /><path
       d="m 502.50048,23.52 q 0,0.312 -0.168,0.48 h -4.464 v -0.048 q -0.024,-0.024 -0.384,-2.088 l -0.408,-2.064 v -0.048 h 0.96 l 0.024,0.12 q 0,0.12 0.096,0.456 0.168,1.08 0.36,1.44 0.096,0.12 0.168,0.168 0.312,0.12 1.608,0.144 h 1.056 v -0.072 q -0.12,-0.384 -0.528,-1.272 -0.384,-0.744 -1.32,-2.208 -1.536,-2.472 -1.92,-3.768 -0.24,-0.888 -0.24,-1.656 0,-0.72 0.192,-1.368 0.528,-1.8 2.232,-3.096 1.704,-1.32 3.984,-1.512 0.144,-0.024 0.36,-0.024 h 0.36 q 3.384,0 5.544,1.848 1.368,1.2 1.8,2.784 0.192,0.648 0.192,1.368 0,0.768 -0.24,1.656 -0.384,1.296 -1.92,3.768 -0.936,1.464 -1.32,2.208 -0.408,0.888 -0.528,1.272 v 0.072 h 1.056 q 1.296,-0.024 1.608,-0.144 0.096,-0.048 0.168,-0.168 0.168,-0.36 0.36,-1.44 0.096,-0.336 0.096,-0.456 l 0.024,-0.12 h 0.96 V 19.8 l -0.408,2.064 q -0.36,2.064 -0.384,2.088 V 24 h -2.208 q -1.776,0 -2.064,0 -0.264,-0.024 -0.312,-0.144 -0.048,-0.096 -0.048,-0.336 0,-0.696 0.216,-1.896 0.192,-0.96 0.936,-3.24 0.768,-2.328 1.008,-3.648 0.168,-1.008 0.168,-1.656 0,-3.384 -2.472,-4.632 -1.008,-0.48 -2.016,-0.48 -2.448,0 -3.744,2.04 -0.744,1.176 -0.744,3.048 0,0.816 0.144,1.68 0.24,1.32 1.008,3.648 0.744,2.28 0.936,3.24 0.216,1.176 0.216,1.896 z"
       style="font-style:normal;font-variant:normal;font-weight:normal;font-stretch:normal;font-size:24px;font-family:KaTeX_Main;-inkscape-font-specification:'KaTeX_Main, Normal';font-variant-ligatures:normal;font-variant-caps:normal;font-variant-numeric:normal;font-feature-settings:normal;text-align:start;writing-mode:lr-tb;text-anchor:start"
       id="path5269" /></g><path
     class="st9"
     d="M402,42v18V42z"
     id="path182" /><line
     class="st9"
     x1="174"
     y1="42"
     x2="312"
     y2="42"
     id="line184" /><line
     class="st9"
     x1="222"
     y1="60"
     x2="222"
     y2="42"
     id="line186" /><line
     class="st9"
     x1="276"
     y1="60"
     x2="276"
     y2="42"
     id="line188" /><line
     class="st9"
     x1="390"
     y1="42"
     x2="450"
     y2="42"
     id="line190" /><line
     class="st9"
     x1="540"
     y1="42"
     x2="540"
     y2="60"
     id="line192" /><polyline
     class="st9"
     points="540,162 420,162 324,162 234,162 174,162 84,162 "
     id="polyline194" /><g
     id="g204"
     transform="matrix(1.1134438,0,0,1,-7.4304515,0)"
     style="stroke-width:0.947689"><g
       id="g202"
       style="stroke-width:0.947689"><line
         class="st28"
         x1="54"
         y1="42"
         x2="62.900002"
         y2="42"
         id="line196"
         style="fill:none;stroke:#11accd;stroke-width:2.84306717;stroke-linecap:round;stroke-miterlimit:10" /><g
         id="g200"
         style="stroke-width:0.947689"><path
           class="st29"
           d="m 72,42 c -4.3,1.6 -9.5,4.3 -12.8,7.1 L 61.8,42 59.2,34.9 c 3.3,2.8 8.5,5.5 12.8,7.1 z"
           id="path198"
           inkscape:connector-curvature="0"
           style="fill:#11accd;stroke-width:0.947689" /></g></g></g><g
     aria-label="i"
     transform="matrix(1 0 0 1 54 30)"
     style="font-style:normal;font-variant:normal;font-weight:normal;font-stretch:normal;font-size:24px;font-family:KaTeX_Math;-inkscape-font-specification:'KaTeX_Math, Normal';font-variant-ligatures:normal;font-variant-caps:normal;font-variant-numeric:normal;font-feature-settings:normal;text-align:start;writing-mode:lr-tb;text-anchor:start;fill:#11accd"
     id="text206"><path
       d="m 4.416,-14.4 q 0,-0.552 0.456,-1.008 0.456,-0.456 1.056,-0.456 0.432,0 0.72,0.288 0.312,0.288 0.312,0.72 0,0.528 -0.48,1.008 -0.48,0.48 -1.056,0.48 -0.432,0 -0.72,-0.288 Q 4.416,-13.944 4.416,-14.4 Z M 3.864,0.264 q -0.936,0 -1.512,-0.552 -0.576,-0.552 -0.576,-1.488 0,-0.408 0.048,-0.552 0,-0.048 1.104,-2.952 1.104,-2.928 1.104,-2.976 0.12,-0.384 0.12,-0.864 0,-0.576 -0.408,-0.576 H 3.696 q -0.576,0 -1.104,0.552 -0.768,0.792 -1.128,2.256 0,0.024 -0.024,0.096 -0.024,0.048 -0.048,0.072 0,0 -0.024,0.024 -0.024,0.024 -0.096,0.024 -0.048,0 -0.096,0 -0.048,0 -0.192,0 H 0.648 q -0.144,-0.144 -0.144,-0.216 0,-0.072 0.072,-0.336 0.624,-2.064 1.824,-2.88 0.648,-0.504 1.392,-0.504 0.96,0 1.584,0.552 Q 6,-9.504 6,-8.568 6,-8.256 5.88,-7.848 5.856,-7.8 4.776,-4.896 l -1.08,2.904 q -0.12,0.528 -0.12,0.768 0,0.6 0.408,0.6 0.336,0 0.6,-0.144 1.056,-0.504 1.656,-2.52 0.072,-0.288 0.12,-0.336 0.072,-0.048 0.408,-0.048 0.216,0 0.288,0.024 0.096,0 0.144,0.048 0.048,0.048 0.048,0.168 0,0.096 -0.072,0.312 -0.456,1.368 -1.32,2.376 -0.84,1.008 -1.992,1.008 z"
       style="font-style:normal;font-variant:normal;font-weight:normal;font-stretch:normal;font-size:24px;font-family:KaTeX_Math;-inkscape-font-specification:'KaTeX_Math, Normal';font-variant-ligatures:normal;font-variant-caps:normal;font-variant-numeric:normal;font-feature-settings:normal;text-align:start;writing-mode:lr-tb;text-anchor:start;fill:#11accd"
       id="path5264" /></g><g
     aria-label="V"
     transform="matrix(1 0 0 1 6 108)"
     style="font-style:normal;font-variant:normal;font-weight:normal;font-stretch:normal;font-size:24px;font-family:KaTeX_Main;-inkscape-font-specification:'KaTeX_Main, Normal';font-variant-ligatures:normal;font-variant-caps:normal;font-variant-numeric:normal;font-feature-settings:normal;text-align:start;writing-mode:lr-tb;text-anchor:start"
     id="text208"><path
       d="M 2.736,-14.88 Q 2.472,-15.144 2.256,-15.192 2.04,-15.264 1.152,-15.288 H 0.456 v -1.104 h 0.216 q 0.336,0.072 2.976,0.072 2.88,0 3.408,-0.072 H 7.32 v 1.104 H 6.816 q -1.104,0.024 -1.368,0.264 -0.096,0.072 -0.096,0.144 0,0.048 2.16,5.952 2.16,5.904 2.184,5.904 0.936,-2.52 2.064,-5.568 2.04,-5.52 2.04,-5.736 0,-0.456 -0.504,-0.696 -0.504,-0.264 -1.104,-0.264 h -0.12 v -1.104 h 0.216 q 0.408,0.072 2.76,0.072 2.064,0 2.328,-0.072 h 0.144 v 1.104 h -0.168 q -1.776,0 -2.304,0.984 0,0.024 -2.712,7.32 Q 9.648,0.312 9.624,0.336 9.552,0.528 9.192,0.528 H 8.976 8.76 Q 8.424,0.528 8.352,0.336 8.304,0.288 5.544,-7.272 2.736,-14.808 2.736,-14.88 Z"
       style="font-style:normal;font-variant:normal;font-weight:normal;font-stretch:normal;font-size:24px;font-family:KaTeX_Main;-inkscape-font-specification:'KaTeX_Main, Normal';font-variant-ligatures:normal;font-variant-caps:normal;font-variant-numeric:normal;font-feature-settings:normal;text-align:start;writing-mode:lr-tb;text-anchor:start"
       id="path5261" /></g></svg>