<?xml version="1.0" standalone="no"?><!DOCTYPE svg PUBLIC "-//W3C//DTD SVG 1.1//EN" "http://www.w3.org/Graphics/SVG/1.1/DTD/svg11.dtd"><svg width="320" height="320" transform="translate(0,0)" version="1.1" xmlns="http://www.w3.org/2000/svg" xmlns:xlink="http://www.w3.org/1999/xlink"><defs xmlns="http://www.w3.org/1999/xhtml"><style type="text/css"><![CDATA[
svg .grid { stroke-width: 0.5px; stroke: rgb(187, 187, 187); opacity: 0.5; }
svg .domain { stroke-width: 3px; stroke: black; }
svg { border: none; }
svg .path { stroke-width: 3px; stroke: rgb(17, 172, 205); fill: none; }
svg text { font-style: normal; font-variant: normal; font-weight: normal; font-stretch: normal; font-size: 14px; line-height: normal; font-family: katex_math; }]]></style></defs><g transform="translate(40,40)"><g class="x-axis" transform="translate(0,120)" fill="none" font-size="10" font-family="sans-serif" text-anchor="middle"><path class="domain" stroke="#000" d="M0.5,0V0.5H240.5V0"/><g class="tick" opacity="1" transform="translate(0,0)"><line stroke="#000" y2="6" x1="0.5" x2="0.5"/><text fill="#000" y="9" x="0.5" dy="0.71em">-4</text><line class="grid" x1="0" y1="-120" x2="0" y2="120"/></g><g class="tick" opacity="1" transform="translate(30,0)"><line stroke="#000" y2="6" x1="0.5" x2="0.5"/><text fill="#000" y="9" x="0.5" dy="0.71em">-3</text><line class="grid" x1="0" y1="-120" x2="0" y2="120"/></g><g class="tick" opacity="1" transform="translate(60,0)"><line stroke="#000" y2="6" x1="0.5" x2="0.5"/><text fill="#000" y="9" x="0.5" dy="0.71em">-2</text><line class="grid" x1="0" y1="-120" x2="0" y2="120"/></g><g class="tick" opacity="1" transform="translate(90,0)"><line stroke="#000" y2="6" x1="0.5" x2="0.5"/><text fill="#000" y="9" x="0.5" dy="0.71em">-1</text><line class="grid" x1="0" y1="-120" x2="0" y2="120"/></g><g class="tick" opacity="1" transform="translate(120,0)"><line stroke="#000" y2="6" x1="0.5" x2="0.5"/><line class="grid" x1="0" y1="-120" x2="0" y2="120"/></g><g class="tick" opacity="1" transform="translate(150,0)"><line stroke="#000" y2="6" x1="0.5" x2="0.5"/><text fill="#000" y="9" x="0.5" dy="0.71em">1</text><line class="grid" x1="0" y1="-120" x2="0" y2="120"/></g><g class="tick" opacity="1" transform="translate(180,0)"><line stroke="#000" y2="6" x1="0.5" x2="0.5"/><text fill="#000" y="9" x="0.5" dy="0.71em">2</text><line class="grid" x1="0" y1="-120" x2="0" y2="120"/></g><g class="tick" opacity="1" transform="translate(210,0)"><line stroke="#000" y2="6" x1="0.5" x2="0.5"/><text fill="#000" y="9" x="0.5" dy="0.71em">3</text><line class="grid" x1="0" y1="-120" x2="0" y2="120"/></g><g class="tick" opacity="1" transform="translate(240,0)"><line stroke="#000" y2="6" x1="0.5" x2="0.5"/><text fill="#000" y="9" x="0.5" dy="0.71em">4</text><line class="grid" x1="0" y1="-120" x2="0" y2="120"/></g><text x="240" dx=".71em" style="text-anchor: start; font-size: 16px; fill: black;">v</text></g><g class="y-axis" transform="translate(120,0)" fill="none" font-size="10" font-family="sans-serif" text-anchor="end"><path class="domain" stroke="#000" d="M0,240.5H0.5V0.5H0"/><g class="tick" opacity="1" transform="translate(0,240)"><line stroke="#000" x2="-6" y1="0.5" y2="0.5"/><text fill="#000" x="-9" y="0.5" dy="0.32em">-4</text><line class="grid" x1="-120" y1="0" x2="120" y2="0"/></g><g class="tick" opacity="1" transform="translate(0,210)"><line stroke="#000" x2="-6" y1="0.5" y2="0.5"/><text fill="#000" x="-9" y="0.5" dy="0.32em">-3</text><line class="grid" x1="-120" y1="0" x2="120" y2="0"/></g><g class="tick" opacity="1" transform="translate(0,180)"><line stroke="#000" x2="-6" y1="0.5" y2="0.5"/><text fill="#000" x="-9" y="0.5" dy="0.32em">-2</text><line class="grid" x1="-120" y1="0" x2="120" y2="0"/></g><g class="tick" opacity="1" transform="translate(0,150)"><line stroke="#000" x2="-6" y1="0.5" y2="0.5"/><text fill="#000" x="-9" y="0.5" dy="0.32em">-1</text><line class="grid" x1="-120" y1="0" x2="120" y2="0"/></g><g class="tick" opacity="1" transform="translate(0,120)"><line stroke="#000" x2="-6" y1="0.5" y2="0.5"/><line class="grid" x1="-120" y1="0" x2="120" y2="0"/></g><g class="tick" opacity="1" transform="translate(0,90)"><line stroke="#000" x2="-6" y1="0.5" y2="0.5"/><text fill="#000" x="-9" y="0.5" dy="0.32em">1</text><line class="grid" x1="-120" y1="0" x2="120" y2="0"/></g><g class="tick" opacity="1" transform="translate(0,60)"><line stroke="#000" x2="-6" y1="0.5" y2="0.5"/><text fill="#000" x="-9" y="0.5" dy="0.32em">2</text><line class="grid" x1="-120" y1="0" x2="120" y2="0"/></g><g class="tick" opacity="1" transform="translate(0,30)"><line stroke="#000" x2="-6" y1="0.5" y2="0.5"/><text fill="#000" x="-9" y="0.5" dy="0.32em">3</text><line class="grid" x1="-120" y1="0" x2="120" y2="0"/></g><g class="tick" opacity="1" transform="translate(0,0)"><line stroke="#000" x2="-6" y1="0.5" y2="0.5"/><text fill="#000" x="-9" y="0.5" dy="0.32em">4</text><line class="grid" x1="-120" y1="0" x2="120" y2="0"/></g><text dx="6" dy="-6" style="text-anchor: start; font-size: 16px; fill: black;">i(ma)</text></g><line x1="-10" y1="60" x2="250" y2="60" style="stroke: rgb(17, 172, 205); stroke-width: 3px;"/><text x="150" y="54" style="text-anchor: start; font-size: 18px; fill: rgb(17, 172, 205);">i = 2</text><text x="186" y="54" style="text-anchor: start; font-size: 18px; font-style: normal; font-variant: normal; font-weight: normal; font-stretch: normal; line-height: normal; font-family: katex_main; fill: rgb(17, 172, 205);">ma</text></g></svg>