<?xml version="1.0" encoding="UTF-8" standalone="no"?>
<!-- Generator: Adobe Illustrator 19.1.0, SVG Export Plug-In . SVG Version: 6.00 Build 0)  -->

<svg
   xmlns:dc="http://purl.org/dc/elements/1.1/"
   xmlns:cc="http://creativecommons.org/ns#"
   xmlns:rdf="http://www.w3.org/1999/02/22-rdf-syntax-ns#"
   xmlns:svg="http://www.w3.org/2000/svg"
   xmlns="http://www.w3.org/2000/svg"
   xmlns:sodipodi="http://sodipodi.sourceforge.net/DTD/sodipodi-0.dtd"
   xmlns:inkscape="http://www.inkscape.org/namespaces/inkscape"
   version="1.1"
   id="Layer_1"
   x="0px"
   y="0px"
   width="357.97525"
   height="165.58527"
   viewBox="0 0 357.97524 165.58526"
   xml:space="preserve"
   inkscape:version="0.91 r13725"
   sodipodi:docname="superposition9.svg"><metadata
     id="metadata127"><rdf:RDF><cc:Work
         rdf:about=""><dc:format>image/svg+xml</dc:format><dc:type
           rdf:resource="http://purl.org/dc/dcmitype/StillImage" /><dc:title></dc:title></cc:Work></rdf:RDF></metadata><defs
     id="defs125" /><sodipodi:namedview
     pagecolor="#ffffff"
     bordercolor="#666666"
     borderopacity="1"
     objecttolerance="10"
     gridtolerance="10"
     guidetolerance="10"
     inkscape:pageopacity="0"
     inkscape:pageshadow="2"
     inkscape:window-width="640"
     inkscape:window-height="480"
     id="namedview123"
     showgrid="false"
     fit-margin-top="10"
     fit-margin-right="10"
     fit-margin-bottom="10"
     fit-margin-left="10"
     inkscape:zoom="1.8939857"
     inkscape:cx="178.98763"
     inkscape:cy="82.792633"
     inkscape:current-layer="Layer_1" /><style
     type="text/css"
     id="style3">
	.st0{fill:none;stroke:#000000;stroke-linecap:round;stroke-linejoin:round;stroke-miterlimit:10;}
	.st1{fill:none;stroke:#000000;stroke-width:2;stroke-linecap:round;stroke-linejoin:round;stroke-miterlimit:10;}
	.st2{fill:none;stroke:#000000;stroke-width:2;stroke-miterlimit:10;}
	.st3{fill:none;stroke:#000000;stroke-linecap:round;stroke-miterlimit:10;}
	.st4{fill:none;stroke:#000000;stroke-width:1.5;stroke-miterlimit:10;}
	.st5{fill:none;stroke:#000000;stroke-width:2;stroke-linecap:round;stroke-miterlimit:10;}
	.st6{fill:none;}
	.st7{stroke:#000000;stroke-linecap:round;stroke-linejoin:round;stroke-miterlimit:10;}
	.st8{fill:none;stroke:#000000;stroke-miterlimit:10;}
	.st9{fill:#FFFFFF;stroke:#000000;stroke-miterlimit:10;}
	.st10{fill:none;stroke:#000000;stroke-linejoin:round;stroke-miterlimit:10;}
	.st11{fill:none;stroke:#000000;stroke-linejoin:round;}
	.st12{fill:none;stroke:#11ACCD;stroke-width:3;stroke-linecap:round;stroke-miterlimit:10;}
	.st13{fill:#11ACCD;}
	.st14{fill:#E07D10;}
	.st15{fill:#FF9C39;}
	.st16{font-family:'KaTeX_Main-Regular';}
	.st17{font-size:18px;}
	.st18{font-family:'KaTeX_Main-Italic';}
	.st19{fill:none;stroke:#E07D10;stroke-width:2;stroke-linecap:round;stroke-miterlimit:10;}
	.st20{fill:none;stroke:#000000;stroke-width:4;stroke-linecap:round;stroke-miterlimit:10;}
</style><g
     id="g5"
     transform="translate(0.33801294,-0.0147419)"><g
       id="g7"><g
         id="g9"><line
           class="st5"
           x1="48.700001"
           y1="121.1"
           x2="48.700001"
           y2="101.3"
           id="line11"
           style="fill:none;stroke:#000000;stroke-width:2;stroke-linecap:round;stroke-miterlimit:10" /><g
           id="g13"><polygon
             points="54.7,103 48.7,92.6 42.7,103 "
             id="polygon15" /></g></g></g><circle
       class="st2"
       cx="48.700001"
       cy="107.6"
       r="18"
       id="circle17"
       style="fill:none;stroke:#000000;stroke-width:2;stroke-miterlimit:10" /><polyline
       class="st3"
       points="48.7,89.6 48.7,65.6 48.7,53.6 60.7,53.6  "
       id="polyline19"
       style="fill:none;stroke:#000000;stroke-linecap:round;stroke-miterlimit:10" /><polyline
       class="st0"
       points="48.7,125.6 48.7,149.6 162.7,149.6 264.7,149.6 264.7,53.6  "
       id="polyline21"
       style="fill:none;stroke:#000000;stroke-linecap:round;stroke-linejoin:round;stroke-miterlimit:10" /></g><g
     id="g23"
     transform="translate(0.33801294,-0.0147419)"><polyline
       class="st3"
       points="162.7,95.6 162.7,65.6 162.7,53.6  "
       id="polyline25"
       style="fill:none;stroke:#000000;stroke-linecap:round;stroke-miterlimit:10" /><line
       class="st3"
       x1="162.7"
       y1="113.6"
       x2="162.7"
       y2="149.60001"
       id="line27"
       style="fill:none;stroke:#000000;stroke-linecap:round;stroke-miterlimit:10" /><line
       class="st5"
       x1="144.7"
       y1="95.599998"
       x2="180.7"
       y2="95.599998"
       id="line29"
       style="fill:none;stroke:#000000;stroke-width:2;stroke-linecap:round;stroke-miterlimit:10" /><line
       class="st5"
       x1="158.2"
       y1="101.6"
       x2="167.2"
       y2="101.6"
       id="line31"
       style="fill:none;stroke:#000000;stroke-width:2;stroke-linecap:round;stroke-miterlimit:10" /><line
       class="st5"
       x1="144.7"
       y1="107.9"
       x2="180.7"
       y2="107.9"
       id="line33"
       style="fill:none;stroke:#000000;stroke-width:2;stroke-linecap:round;stroke-miterlimit:10" /><line
       class="st5"
       x1="158.2"
       y1="113.6"
       x2="167.2"
       y2="113.6"
       id="line35"
       style="fill:none;stroke:#000000;stroke-width:2;stroke-linecap:round;stroke-miterlimit:10" /></g><g
     id="g37"
     transform="translate(0.33801294,-0.0147419)"><line
       class="st0"
       x1="246.10001"
       y1="53.599998"
       x2="264.70001"
       y2="53.599998"
       id="line39"
       style="fill:none;stroke:#000000;stroke-linecap:round;stroke-linejoin:round;stroke-miterlimit:10" /><polyline
       class="st1"
       points="199.3,53.6 203.2,44.6 211,62.6 218.8,44.6 226.6,62.6 234.4,44.6 242.2,62.6 246.1,53.6  "
       id="polyline41"
       style="fill:none;stroke:#000000;stroke-width:2;stroke-linecap:round;stroke-linejoin:round;stroke-miterlimit:10" /><line
       class="st0"
       x1="180.7"
       y1="53.599998"
       x2="199.3"
       y2="53.599998"
       id="line43"
       style="fill:none;stroke:#000000;stroke-linecap:round;stroke-linejoin:round;stroke-miterlimit:10" /><rect
       x="180.7"
       y="41.599998"
       class="st6"
       width="84"
       height="24"
       id="rect45"
       style="fill:none" /></g><g
     id="g47"
     transform="translate(0.33801294,-0.0147419)"><line
       class="st0"
       x1="126.1"
       y1="53.599998"
       x2="144.7"
       y2="53.599998"
       id="line49"
       style="fill:none;stroke:#000000;stroke-linecap:round;stroke-linejoin:round;stroke-miterlimit:10" /><polyline
       class="st1"
       points="79.3,53.6 83.2,44.6 91,62.6 98.8,44.6 106.6,62.6 114.4,44.6 122.2,62.6 126.1,53.6  "
       id="polyline51"
       style="fill:none;stroke:#000000;stroke-width:2;stroke-linecap:round;stroke-linejoin:round;stroke-miterlimit:10" /><line
       class="st0"
       x1="60.700001"
       y1="53.599998"
       x2="79.300003"
       y2="53.599998"
       id="line53"
       style="fill:none;stroke:#000000;stroke-linecap:round;stroke-linejoin:round;stroke-miterlimit:10" /><rect
       x="60.700001"
       y="41.599998"
       class="st6"
       width="84"
       height="24"
       id="rect55"
       style="fill:none" /></g><g
     id="g57"
     transform="translate(0.33801294,-0.0147419)"><circle
       class="st7"
       cx="162.7"
       cy="53.599998"
       r="1.5"
       id="circle59"
       style="stroke:#000000;stroke-linecap:round;stroke-linejoin:round;stroke-miterlimit:10" /><rect
       x="156.7"
       y="47.599998"
       class="st6"
       width="12"
       height="12"
       id="rect61"
       style="fill:none" /></g><g
     id="g63"
     transform="translate(0.33801294,-0.0147419)"><circle
       class="st7"
       cx="162.7"
       cy="149.60001"
       r="1.5"
       id="circle65"
       style="stroke:#000000;stroke-linecap:round;stroke-linejoin:round;stroke-miterlimit:10" /><rect
       x="156.7"
       y="143.60001"
       class="st6"
       width="12"
       height="12"
       id="rect67"
       style="fill:none" /></g><g
     style="font-style:normal;font-variant:normal;font-weight:normal;font-stretch:normal;font-size:22.5px;line-height:125%;font-family:KaTeX_Main;-inkscape-font-specification:'KaTeX_Main, Normal';text-align:start;writing-mode:lr-tb;text-anchor:start"
     id="text69"><path
       d="m 116.5492,99.675061 q -0.2475,-0.2475 -0.45,-0.2925 -0.2025,-0.0675 -1.035,-0.09 l -0.6525,0 0,-1.035 0.2025,0 q 0.315,0.0675 2.79,0.0675 2.7,0 3.195,-0.0675 l 0.2475,0 0,1.035 -0.4725,0 q -1.035,0.0225 -1.2825,0.2475 -0.09,0.0675 -0.09,0.135 0,0.045 2.025,5.579999 2.025,5.535 2.0475,5.535 0.8775,-2.3625 1.935,-5.22 1.9125,-5.175 1.9125,-5.3775 0,-0.427499 -0.4725,-0.652499 -0.4725,-0.2475 -1.035,-0.2475 l -0.1125,0 0,-1.035 0.2025,0 q 0.3825,0.0675 2.5875,0.0675 1.935,0 2.1825,-0.0675 l 0.135,0 0,1.035 -0.1575,0 q -1.665,0 -2.16,0.922499 0,0.0225 -2.5425,6.8625 -2.52,6.84 -2.5425,6.8625 -0.0675,0.18 -0.405,0.18 l -0.2025,0 -0.2025,0 q -0.315,0 -0.3825,-0.18 -0.045,-0.045 -2.6325,-7.1325 -2.6325,-7.064999 -2.6325,-7.132499 z"
       style="font-style:normal;font-variant:normal;font-weight:normal;font-stretch:normal;font-size:22.5px;line-height:125%;font-family:KaTeX_Main;-inkscape-font-specification:'KaTeX_Main, Normal';text-align:start;writing-mode:lr-tb;text-anchor:start"
       id="path4330" /><path
       d="m 135.1342,104.31006 q -2.07,0 -2.07,1.4625 0,0.2925 0.045,0.3825 0.2025,0.54 0.6975,0.7875 0.495,0.225 1.53,0.4275 1.2825,0.225 1.755,0.495 1.4175,0.675 1.8225,2.2275 0.0225,0.135 0.0225,0.54 0,0.8775 -0.315,1.5525 -0.8775,1.665 -3.3075,1.665 -1.35,0 -2.34,-0.81 l -0.18,0.1575 -0.2025,0.2025 q -0.135,0.135 -0.27,0.2475 l -0.2475,0.225 -0.18,0 q -0.1575,0 -0.2925,-0.135 l 0,-1.7775 q 0,-1.4625 0,-1.6875 0.0225,-0.225 0.1125,-0.27 0.045,-0.0225 0.36,-0.0225 0.2925,0 0.3375,0.045 0.0675,0.045 0.135,0.315 0.18,0.855 0.585,1.5525 0.7875,1.1475 2.1825,1.1475 2.1825,0 2.1825,-1.755 0,-0.6525 -0.405,-1.0575 -0.36,-0.4275 -0.945,-0.6075 -0.3825,-0.09 -1.08,-0.2475 -1.26,-0.2475 -1.71,-0.4725 -1.485,-0.6975 -1.7325,-2.0925 -0.0225,-0.09 -0.0225,-0.3375 0,-2.5875 3.1725,-2.9025 0.09,-0.045 0.54,0 0.9,0 1.575,0.3375 l 0.3375,0.18 0.2025,-0.1575 q 0.2925,-0.2475 0.495,-0.3825 l 0.18,0 q 0.1575,0 0.2925,0.135 l 0,2.97 -0.135,0.135 -0.63,0 q -0.135,-0.135 -0.135,-0.27 0,-1.035 -0.63,-1.62 -0.63,-0.585 -1.7325,-0.585 z"
       style="font-style:normal;font-variant:normal;font-weight:normal;font-stretch:normal;font-size:22.5px;line-height:125%;font-family:KaTeX_Main;-inkscape-font-specification:'KaTeX_Main, Normal';text-align:start;writing-mode:lr-tb;text-anchor:start"
       id="path4332" /></g><g
     style="font-style:normal;font-variant:normal;font-weight:normal;font-stretch:normal;font-size:22.5px;line-height:125%;font-family:KaTeX_Main;-inkscape-font-specification:'KaTeX_Main, Normal';text-align:start;writing-mode:lr-tb;text-anchor:start"
     id="text71"><path
       d="m 93.428868,24.086749 q -0.225,-0.225 -0.45,-0.27 -0.2025,-0.045 -1.125,-0.0675 l -0.7425,0 0,-1.035 3.9375,0 q 4.185,0.0225 4.6125,0.09 0.0675,0.0225 0.2925,0.0675 1.012502,0.2025 1.800002,0.63 2.1375,1.08 2.4525,2.9475 0.0225,0.1125 0.0225,0.36 0,1.26 -0.9675,2.205 -0.945,0.945 -2.25,1.3725 -0.045,0.0225 -0.1125,0.045 -0.045,0 -0.09,0.0225 l -0.045,0.0225 q 0.0675,0.0675 0.2475,0.135 1.62,0.9 2.0025,2.385 0.0225,0.09 0.2475,1.485 0.225,1.395 0.2475,1.485 0.1575,0.81 0.3825,1.1925 0.2475,0.3825 0.63,0.5175 0.09,0.045 0.3825,0.045 l 0.1125,0 q 0.2925,0 0.54,-0.2475 0.45,-0.45 0.5175,-1.35 0,-0.2475 0.0675,-0.315 0.09,-0.09 0.3825,-0.09 0.27,0 0.36,0.0675 0.09,0.045 0.09,0.27 0,0.81 -0.405,1.485 -0.3825,0.6525 -0.945,0.9 -0.36,0.135 -0.945,0.135 -3.3525,-0.135 -3.87,-2.52 -0.045,-0.2475 -0.0675,-1.6425 0,-1.395 -0.135,-1.8675 -0.2025,-0.6075 -0.675002,-1.035 -0.45,-0.45 -1.035,-0.63 l -0.225,-0.045 -1.485,-0.0225 -1.485,0 0,2.9475 0.0225,2.9475 q 0.1575,0.225 0.3825,0.27 0.2475,0.045 1.17,0.0675 l 0.7425,0 0,1.035 -0.2475,0 q -0.36,-0.0675 -3.195,-0.0675 -2.8575,0 -3.2175,0.0675 l -0.2475,0 0,-1.035 0.7425,0 q 0.9225,-0.0225 1.125,-0.0675 0.225,-0.045 0.45,-0.27 l 0,-12.6225 z m 8.100002,1.8675 q -0.225,-1.35 -1.215,-1.7775 -0.967502,-0.4275 -2.970002,-0.4275 -0.3375,0 -0.765,0.0225 -0.4275,0 -0.45,0 -0.2925,0.0225 -0.36,0.18 -0.0675,0.09 -0.0675,3.06 l 0,2.97 1.305,0 q 1.6875,0 2.4975,-0.135 0.810002,-0.1575 1.417502,-0.765 0.3825,-0.3825 0.495,-0.855 0.135,-0.4725 0.135,-1.3725 0,-0.72 -0.0225,-0.9 z"
       style="font-style:normal;font-variant:normal;font-weight:normal;font-stretch:normal;font-size:22.5px;line-height:125%;font-family:KaTeX_Main;-inkscape-font-specification:'KaTeX_Main, Normal';text-align:start;writing-mode:lr-tb;text-anchor:start"
       id="path4325" /><path
       d="m 116.43125,38.081749 q -0.3825,-0.0675 -3.5775,-0.0675 -3.15,0 -3.5325,0.0675 l -0.27,0 0,-1.035 0.585,0 q 1.305,0 1.6875,-0.0675 0.18,-0.0225 0.54,-0.27 l 0,-11.6325 q -0.045,0 -0.18,0.0675 -1.035,0.405 -2.3175,0.4275 l -0.4275,0 0,-1.035 0.4275,0 q 1.89,-0.0675 3.15,-0.855 0.405,-0.225 0.6975,-0.5175 0.045,-0.0675 0.27,-0.0675 0.225,0 0.3825,0.135 l 0,6.7275 0.0225,6.75 q 0.3375,0.3375 1.4625,0.3375 l 0.7425,0 0.585,0 0,1.035 -0.2475,0 z"
       style="font-style:normal;font-variant:normal;font-weight:normal;font-stretch:normal;font-size:22.5px;line-height:125%;font-family:KaTeX_Main;-inkscape-font-specification:'KaTeX_Main, Normal';text-align:start;writing-mode:lr-tb;text-anchor:start"
       id="path4327" /></g><g
     style="font-style:normal;font-variant:normal;font-weight:normal;font-stretch:normal;font-size:22.5px;line-height:125%;font-family:KaTeX_Main;-inkscape-font-specification:'KaTeX_Main, Normal';text-align:start;writing-mode:lr-tb;text-anchor:start"
     id="text73"><path
       d="m 209.88545,24.086749 q -0.225,-0.225 -0.45,-0.27 -0.2025,-0.045 -1.125,-0.0675 l -0.7425,0 0,-1.035 3.9375,0 q 4.185,0.0225 4.6125,0.09 0.0675,0.0225 0.2925,0.0675 1.0125,0.2025 1.8,0.63 2.1375,1.08 2.4525,2.9475 0.0225,0.1125 0.0225,0.36 0,1.26 -0.9675,2.205 -0.945,0.945 -2.25,1.3725 -0.045,0.0225 -0.1125,0.045 -0.045,0 -0.09,0.0225 l -0.045,0.0225 q 0.0675,0.0675 0.2475,0.135 1.62,0.9 2.0025,2.385 0.0225,0.09 0.2475,1.485 0.225,1.395 0.2475,1.485 0.1575,0.81 0.3825,1.1925 0.2475,0.3825 0.63,0.5175 0.09,0.045 0.3825,0.045 l 0.1125,0 q 0.2925,0 0.54,-0.2475 0.45,-0.45 0.5175,-1.35 0,-0.2475 0.0675,-0.315 0.09,-0.09 0.3825,-0.09 0.27,0 0.36,0.0675 0.09,0.045 0.09,0.27 0,0.81 -0.405,1.485 -0.3825,0.6525 -0.945,0.9 -0.36,0.135 -0.945,0.135 -3.3525,-0.135 -3.87,-2.52 -0.045,-0.2475 -0.0675,-1.6425 0,-1.395 -0.135,-1.8675 -0.2025,-0.6075 -0.675,-1.035 -0.45,-0.45 -1.035,-0.63 l -0.225,-0.045 -1.485,-0.0225 -1.485,0 0,2.9475 0.0225,2.9475 q 0.1575,0.225 0.3825,0.27 0.2475,0.045 1.17,0.0675 l 0.7425,0 0,1.035 -0.2475,0 q -0.36,-0.0675 -3.195,-0.0675 -2.8575,0 -3.2175,0.0675 l -0.2475,0 0,-1.035 0.7425,0 q 0.9225,-0.0225 1.125,-0.0675 0.225,-0.045 0.45,-0.27 l 0,-12.6225 z m 8.1,1.8675 q -0.225,-1.35 -1.215,-1.7775 -0.9675,-0.4275 -2.97,-0.4275 -0.3375,0 -0.765,0.0225 -0.4275,0 -0.45,0 -0.2925,0.0225 -0.36,0.18 -0.0675,0.09 -0.0675,3.06 l 0,2.97 1.305,0 q 1.6875,0 2.4975,-0.135 0.81,-0.1575 1.4175,-0.765 0.3825,-0.3825 0.495,-0.855 0.135,-0.4725 0.135,-1.3725 0,-0.72 -0.0225,-0.9 z"
       style="font-style:normal;font-variant:normal;font-weight:normal;font-stretch:normal;font-size:22.5px;line-height:125%;font-family:KaTeX_Main;-inkscape-font-specification:'KaTeX_Main, Normal';text-align:start;writing-mode:lr-tb;text-anchor:start"
       id="path4320" /><path
       d="m 226.00283,28.429249 q -0.63,0 -0.99,-0.405 -0.36,-0.405 -0.36,-0.99 0,-1.62 1.215,-2.7675 1.2375,-1.17 2.9475,-1.17 1.935,0 3.195,1.0575 1.2825,1.035 1.575,2.7225 0.045,0.405 0.045,0.7425 0,1.305 -0.7875,2.4525 -0.63,0.945 -2.5425,2.5875 -0.81,0.6975 -2.25,2.07 l -1.3275,1.26 1.71,0.0225 q 3.5325,0 3.7575,-0.1125 0.09,-0.0225 0.225,-0.4725 0.09,-0.2475 0.315,-1.53 l 0,-0.0675 0.9,0 0,0.0675 -0.63,4.1175 0,0.0675 -8.3475,0 0,-0.4275 q 0,-0.45 0.045,-0.5175 0.0225,-0.0225 1.89,-2.1375 2.4525,-2.7225 3.15,-3.6 1.5075,-2.0475 1.5075,-3.7575 0,-1.485 -0.7875,-2.475 -0.765,-1.0125 -2.16,-1.0125 -1.305,0 -2.115,1.17 -0.045,0.09 -0.135,0.2475 -0.0675,0.1125 -0.0675,0.135 0,0.0225 0.1125,0.0225 0.5625,0 0.9,0.405 0.36,0.405 0.36,0.945 0,0.5625 -0.3825,0.9675 -0.36,0.3825 -0.9675,0.3825 z"
       style="font-style:normal;font-variant:normal;font-weight:normal;font-stretch:normal;font-size:22.5px;line-height:125%;font-family:KaTeX_Main;-inkscape-font-specification:'KaTeX_Main, Normal';text-align:start;writing-mode:lr-tb;text-anchor:start"
       id="path4322" /></g><g
     id="g75"
     transform="translate(-3.2052971,-0.0147419)"><g
       id="g77"><line
         class="st12"
         x1="96.699997"
         y1="71.599998"
         x2="111.7"
         y2="71.599998"
         id="line79"
         style="fill:none;stroke:#11accd;stroke-width:3;stroke-linecap:round;stroke-miterlimit:10" /><g
         id="g81"><path
           class="st13"
           d="m 120.7,71.6 c -4.3,1.6 -9.5,4.3 -12.8,7.1 l 2.6,-7.1 -2.6,-7.1 c 3.3,2.9 8.6,5.6 12.8,7.1 z"
           id="path83"
           inkscape:connector-curvature="0"
           style="fill:#11accd" /></g></g></g><g
     style="font-style:normal;font-variant:normal;font-weight:normal;font-stretch:normal;font-size:22.5px;line-height:125%;font-family:KaTeX_Main;-inkscape-font-specification:'KaTeX_Main, Normal';text-align:start;writing-mode:lr-tb;text-anchor:start;fill:#11accd"
     id="text85"><path
       d="m 96.943103,78.487859 q 0,-0.426938 0.352688,-0.779625 0.352687,-0.352688 0.81675,-0.352688 0.334125,0 0.556875,0.22275 0.241312,0.22275 0.241312,0.556875 0,0.408375 -0.37125,0.779625 -0.37125,0.37125 -0.81675,0.37125 -0.334125,0 -0.556875,-0.22275 -0.22275,-0.22275 -0.22275,-0.575437 z m -0.426937,11.341687 q -0.723938,0 -1.169438,-0.426937 -0.4455,-0.426938 -0.4455,-1.150875 0,-0.315563 0.03713,-0.426938 0,-0.03713 0.853875,-2.283187 0.853875,-2.264625 0.853875,-2.30175 0.09281,-0.297 0.09281,-0.66825 0,-0.4455 -0.315563,-0.4455 l -0.03713,0 q -0.4455,0 -0.853875,0.426937 -0.594,0.612563 -0.872437,1.744875 0,0.01856 -0.01856,0.07425 -0.01856,0.03713 -0.03712,0.05569 0,0 -0.01856,0.01856 -0.01856,0.01856 -0.07425,0.01856 -0.03713,0 -0.07425,0 -0.03713,0 -0.1485,0 l -0.259875,0 q -0.111375,-0.111375 -0.111375,-0.167063 0,-0.05569 0.05569,-0.259875 0.482625,-1.596375 1.41075,-2.2275 0.501188,-0.389812 1.076625,-0.389812 0.7425,0 1.225125,0.426937 0.482625,0.426938 0.482625,1.150875 0,0.241313 -0.09281,0.556875 -0.01856,0.03713 -0.853875,2.283188 l -0.835313,2.246062 q -0.09281,0.408375 -0.09281,0.594 0,0.464063 0.315562,0.464063 0.259875,0 0.464063,-0.111375 0.81675,-0.389813 1.280812,-1.949063 0.05569,-0.22275 0.09281,-0.259875 0.05569,-0.03713 0.315562,-0.03713 0.167063,0 0.22275,0.01856 0.07425,0 0.111375,0.03713 0.03713,0.03712 0.03713,0.129937 0,0.07425 -0.05569,0.241313 -0.352688,1.058062 -1.020938,1.837687 -0.649687,0.779625 -1.540687,0.779625 z"
       style="font-style:normal;font-variant:normal;font-weight:normal;font-stretch:normal;font-size:18.5625px;line-height:125%;font-family:KaTeX_Math;-inkscape-font-specification:'KaTeX_Math, Normal';text-align:start;writing-mode:lr-tb;text-anchor:start"
       id="path4315" /><path
       d="m 106.02872,94.125359 q -0.24863,-0.04387 -2.32538,-0.04387 -2.0475,0 -2.29612,0.04387 l -0.1755,0 0,-0.67275 0.38025,0 q 0.84825,0 1.09687,-0.04387 0.117,-0.01462 0.351,-0.1755 l 0,-7.561125 q -0.0292,0 -0.117,0.04387 -0.67275,0.26325 -1.50637,0.277875 l -0.27788,0 0,-0.67275 0.27788,0 q 1.2285,-0.04387 2.0475,-0.55575 0.26325,-0.14625 0.45337,-0.336375 0.0292,-0.04387 0.1755,-0.04387 0.14625,0 0.24863,0.08775 l 0,4.372875 0.0146,4.3875 q 0.21938,0.219375 0.95063,0.219375 l 0.48262,0 0.38025,0 0,0.67275 -0.16087,0 z"
       style="font-style:normal;font-variant:normal;font-weight:normal;font-stretch:normal;font-size:14.625px;line-height:125%;font-family:KaTeX_Main;-inkscape-font-specification:'KaTeX_Main, Normal';text-align:start;writing-mode:lr-tb;baseline-shift:sub;text-anchor:start"
       id="path4317" /></g><g
     style="font-style:normal;font-variant:normal;font-weight:normal;font-stretch:normal;font-size:22.5px;line-height:125%;font-family:KaTeX_Main;-inkscape-font-specification:'KaTeX_Main, Normal';text-align:start;writing-mode:lr-tb;text-anchor:start;fill:#11accd"
     id="text91"><path
       d="m 130.28214,13.374998 q 0,-0.5175 0.4275,-0.945 0.4275,-0.4275 0.99,-0.4275 0.405,0 0.675,0.27 0.2925,0.27 0.2925,0.675 0,0.495 -0.45,0.945 -0.45,0.45 -0.99,0.45 -0.405,0 -0.675,-0.27 -0.27,-0.27 -0.27,-0.6975 z m -0.5175,13.7475 q -0.8775,0 -1.4175,-0.5175 -0.54,-0.5175 -0.54,-1.395 0,-0.3825 0.045,-0.5175 0,-0.045 1.035,-2.7675 1.035,-2.745 1.035,-2.79 0.1125,-0.36 0.1125,-0.81 0,-0.54 -0.3825,-0.54 l -0.045,0 q -0.54,0 -1.035,0.5175 -0.72,0.7425 -1.0575,2.115 0,0.0225 -0.0225,0.09 -0.0225,0.045 -0.045,0.0675 0,0 -0.0225,0.0225 -0.0225,0.0225 -0.09,0.0225 -0.045,0 -0.09,0 -0.045,0 -0.18,0 l -0.315,0 q -0.135,-0.135 -0.135,-0.2025 0,-0.0675 0.0675,-0.315 0.585,-1.935 1.71,-2.7 0.6075,-0.4725 1.305,-0.4725 0.9,0 1.485,0.5175 0.585,0.5175 0.585,1.395 0,0.2925 -0.1125,0.675 -0.0225,0.045 -1.035,2.7675 l -1.0125,2.7225 q -0.1125,0.495 -0.1125,0.72 0,0.5625 0.3825,0.5625 0.315,0 0.5625,-0.135 0.99,-0.4725 1.5525,-2.3625 0.0675,-0.27 0.1125,-0.315 0.0675,-0.045 0.3825,-0.045 0.2025,0 0.27,0.0225 0.09,0 0.135,0.045 0.045,0.045 0.045,0.1575 0,0.09 -0.0675,0.2925 -0.4275,1.2825 -1.2375,2.2275 -0.7875,0.945 -1.8675,0.945 z"
       style="font-style:normal;font-variant:normal;font-weight:normal;font-stretch:normal;font-size:22.5px;line-height:125%;font-family:KaTeX_Math;-inkscape-font-specification:'KaTeX_Math, Normal';text-align:start;writing-mode:lr-tb;text-anchor:start"
       id="path4304" /><path
       d="m 140.00446,31.374998 q -0.24862,-0.04387 -2.32537,-0.04387 -2.0475,0 -2.29613,0.04387 l -0.1755,0 0,-0.67275 0.38025,0 q 0.84825,0 1.09688,-0.04387 0.117,-0.01463 0.351,-0.1755 l 0,-7.561124 q -0.0293,0 -0.117,0.04387 -0.67275,0.26325 -1.50638,0.277875 l -0.27787,0 0,-0.67275 0.27787,0 q 1.2285,-0.04387 2.0475,-0.55575 0.26325,-0.14625 0.45338,-0.336375 0.0292,-0.04387 0.1755,-0.04387 0.14625,0 0.24862,0.08775 l 0,4.372874 0.0146,4.3875 q 0.21937,0.219375 0.95062,0.219375 l 0.48263,0 0.38025,0 0,0.67275 -0.16088,0 z"
       style="font-size:64.99999762%;baseline-shift:sub"
       id="path4306" /><path
       d="m 142.49296,19.067498 q 0,-0.2925 0.315,-0.45 l 14.3325,0 q 0.3375,0.1575 0.3375,0.45 0,0.2475 -0.315,0.4275 l -7.155,0.0225 -7.155,0 q -0.36,-0.1125 -0.36,-0.45 z m 0,4.365 q 0,-0.3375 0.36,-0.45 l 14.31,0 q 0.0225,0.0225 0.09,0.09 0.09,0.045 0.1125,0.09 0.045,0.0225 0.0675,0.1125 0.045,0.0675 0.045,0.1575 0,0.2925 -0.3375,0.45 l -14.3325,0 q -0.315,-0.1575 -0.315,-0.45 z"
       style="font-style:normal;font-variant:normal;font-weight:normal;font-stretch:normal;font-size:22.5px;line-height:125%;font-family:KaTeX_Main;-inkscape-font-specification:'KaTeX_Main, Normal';text-align:start;writing-mode:lr-tb;text-anchor:start;fill:#11accd"
       id="path4308" /><path
       d="m 166.14714,26.874998 q -0.36,-0.0675 -3.33,-0.0675 -2.97,0 -3.33,0.0675 l -0.2475,0 0,-1.035 0.495,0 q 0.8775,0 1.485,-0.0675 0.27,-0.0675 0.3825,-0.2475 0.045,-0.0675 0.045,-6.345 0,-6.255 -0.045,-6.3225 -0.1125,-0.18 -0.3825,-0.2475 -0.6075,-0.0675 -1.485,-0.0675 l -0.495,0 0,-1.035 0.2475,0 q 0.36,0.0675 3.33,0.0675 2.97,0 3.33,-0.0675 l 0.2475,0 0,1.035 -0.495,0 q -0.8775,0 -1.485,0.0675 -0.27,0.0675 -0.3825,0.2475 -0.045,0.0675 -0.045,6.3225 0,6.2775 0.045,6.345 0.1125,0.18 0.3825,0.2475 0.6075,0.0675 1.485,0.0675 l 0.495,0 0,1.035 -0.2475,0 z"
       style="font-style:normal;font-variant:normal;font-weight:normal;font-stretch:normal;font-size:22.5px;line-height:125%;font-family:KaTeX_Main;-inkscape-font-specification:'KaTeX_Main, Normal';text-align:start;writing-mode:lr-tb;text-anchor:start;fill:#11accd"
       id="path4310" /><path
       d="m 171.17203,17.559998 q -2.07,0 -2.07,1.4625 0,0.2925 0.045,0.3825 0.2025,0.54 0.6975,0.7875 0.495,0.225 1.53,0.4275 1.2825,0.225 1.755,0.495 1.4175,0.675 1.8225,2.2275 0.0225,0.135 0.0225,0.54 0,0.8775 -0.315,1.5525 -0.8775,1.665 -3.3075,1.665 -1.35,0 -2.34,-0.81 l -0.18,0.1575 -0.2025,0.2025 q -0.135,0.135 -0.27,0.2475 l -0.2475,0.225 -0.18,0 q -0.1575,0 -0.2925,-0.135 l 0,-1.7775 q 0,-1.4625 0,-1.6875 0.0225,-0.225 0.1125,-0.27 0.045,-0.0225 0.36,-0.0225 0.2925,0 0.3375,0.045 0.0675,0.045 0.135,0.315 0.18,0.855 0.585,1.5525 0.7875,1.1475 2.1825,1.1475 2.1825,0 2.1825,-1.755 0,-0.6525 -0.405,-1.0575 -0.36,-0.4275 -0.945,-0.6075 -0.3825,-0.09 -1.08,-0.2475 -1.26,-0.2475 -1.71,-0.4725 -1.485,-0.6975 -1.7325,-2.0925 -0.0225,-0.09 -0.0225,-0.3375 0,-2.5875 3.1725,-2.9025 0.09,-0.045 0.54,0 0.9,0 1.575,0.3375 l 0.3375,0.18 0.2025,-0.1575 q 0.2925,-0.2475 0.495,-0.3825 l 0.18,0 q 0.1575,0 0.2925,0.135 l 0,2.97 -0.135,0.135 -0.63,0 q -0.135,-0.135 -0.135,-0.27 0,-1.035 -0.63,-1.62 -0.63,-0.585 -1.7325,-0.585 z"
       style="font-style:normal;font-variant:normal;font-weight:normal;font-stretch:normal;font-size:22.5px;line-height:125%;font-family:KaTeX_Main;-inkscape-font-specification:'KaTeX_Main, Normal';text-align:start;writing-mode:lr-tb;text-anchor:start;fill:#11accd"
       id="path4312" /></g><g
     style="font-style:normal;font-variant:normal;font-weight:normal;font-stretch:normal;font-size:22.5px;line-height:125%;font-family:KaTeX_Main;-inkscape-font-specification:'KaTeX_Main, Normal';text-align:start;writing-mode:lr-tb;text-anchor:start;fill:#11accd"
     id="text95" /><g
     id="g99"
     transform="translate(0.33801294,-0.0147419)"><g
       id="g101"><line
         class="st12"
         x1="210.7"
         y1="71.599998"
         x2="225.7"
         y2="71.599998"
         id="line103"
         style="fill:none;stroke:#11accd;stroke-width:3;stroke-linecap:round;stroke-miterlimit:10" /><g
         id="g105"><path
           class="st13"
           d="m 234.7,71.6 c -4.3,1.6 -9.5,4.3 -12.8,7.1 l 2.6,-7.1 -2.6,-7.1 c 3.3,2.9 8.6,5.6 12.8,7.1 z"
           id="path107"
           inkscape:connector-curvature="0"
           style="fill:#11accd" /></g></g></g><g
     style="font-style:normal;font-variant:normal;font-weight:normal;font-stretch:normal;font-size:22.5px;line-height:125%;font-family:KaTeX_Main;-inkscape-font-specification:'KaTeX_Main, Normal';text-align:start;writing-mode:lr-tb;text-anchor:start;fill:#11accd"
     id="text109"><path
       d="m 255.86235,13.374998 q 0,-0.5175 0.4275,-0.945 0.4275,-0.4275 0.99,-0.4275 0.405,0 0.675,0.27 0.2925,0.27 0.2925,0.675 0,0.495 -0.45,0.945 -0.45,0.45 -0.99,0.45 -0.405,0 -0.675,-0.27 -0.27,-0.27 -0.27,-0.6975 z m -0.5175,13.7475 q -0.8775,0 -1.4175,-0.5175 -0.54,-0.5175 -0.54,-1.395 0,-0.3825 0.045,-0.5175 0,-0.045 1.035,-2.7675 1.035,-2.745 1.035,-2.79 0.1125,-0.36 0.1125,-0.81 0,-0.54 -0.3825,-0.54 l -0.045,0 q -0.54,0 -1.035,0.5175 -0.72,0.7425 -1.0575,2.115 0,0.0225 -0.0225,0.09 -0.0225,0.045 -0.045,0.0675 0,0 -0.0225,0.0225 -0.0225,0.0225 -0.09,0.0225 -0.045,0 -0.09,0 -0.045,0 -0.18,0 l -0.315,0 q -0.135,-0.135 -0.135,-0.2025 0,-0.0675 0.0675,-0.315 0.585,-1.935 1.71,-2.7 0.6075,-0.4725 1.305,-0.4725 0.9,0 1.485,0.5175 0.585,0.5175 0.585,1.395 0,0.2925 -0.1125,0.675 -0.0225,0.045 -1.035,2.7675 l -1.0125,2.7225 q -0.1125,0.495 -0.1125,0.72 0,0.5625 0.3825,0.5625 0.315,0 0.5625,-0.135 0.99,-0.4725 1.5525,-2.3625 0.0675,-0.27 0.1125,-0.315 0.0675,-0.045 0.3825,-0.045 0.2025,0 0.27,0.0225 0.09,0 0.135,0.045 0.045,0.045 0.045,0.1575 0,0.09 -0.0675,0.2925 -0.4275,1.2825 -1.2375,2.2275 -0.7875,0.945 -1.8675,0.945 z"
       style="font-style:normal;font-variant:normal;font-weight:normal;font-stretch:normal;font-size:22.5px;line-height:125%;font-family:KaTeX_Math;-inkscape-font-specification:'KaTeX_Math, Normal';text-align:start;writing-mode:lr-tb;text-anchor:start"
       id="path4286" /><path
       d="m 261.10942,25.100874 q -0.4095,0 -0.6435,-0.26325 -0.234,-0.26325 -0.234,-0.6435 0,-1.053 0.78975,-1.798875 0.80438,-0.7605 1.91588,-0.7605 1.25775,0 2.07675,0.687375 0.83362,0.67275 1.02375,1.769625 0.0292,0.26325 0.0292,0.482625 0,0.848249 -0.51188,1.594124 -0.4095,0.61425 -1.65262,1.681875 -0.5265,0.453375 -1.4625,1.3455 l -0.86288,0.819 1.1115,0.01462 q 2.29613,0 2.44238,-0.07313 0.0585,-0.01462 0.14625,-0.307125 0.0585,-0.160875 0.20475,-0.9945 l 0,-0.04387 0.585,0 0,0.04387 -0.4095,2.676375 0,0.04387 -5.42588,0 0,-0.277875 q 0,-0.2925 0.0292,-0.336375 0.0146,-0.01462 1.2285,-1.389375 1.59413,-1.769625 2.0475,-2.34 0.97988,-1.330875 0.97988,-2.442374 0,-0.96525 -0.51188,-1.60875 -0.49725,-0.658125 -1.404,-0.658125 -0.84825,0 -1.37475,0.7605 -0.0292,0.0585 -0.0878,0.160875 -0.0439,0.07313 -0.0439,0.08775 0,0.01462 0.0731,0.01462 0.36563,0 0.585,0.26325 0.234,0.26325 0.234,0.61425 0,0.365625 -0.24862,0.628875 -0.234,0.248625 -0.62888,0.248625 z"
       style="font-size:64.99999762%;baseline-shift:sub"
       id="path4288" /><path
       d="m 268.07317,19.067498 q 0,-0.2925 0.315,-0.45 l 14.3325,0 q 0.3375,0.1575 0.3375,0.45 0,0.2475 -0.315,0.4275 l -7.155,0.0225 -7.155,0 q -0.36,-0.1125 -0.36,-0.45 z m 0,4.365 q 0,-0.3375 0.36,-0.45 l 14.31,0 q 0.0225,0.0225 0.09,0.09 0.09,0.045 0.1125,0.09 0.045,0.0225 0.0675,0.1125 0.045,0.0675 0.045,0.1575 0,0.2925 -0.3375,0.45 l -14.3325,0 q -0.315,-0.1575 -0.315,-0.45 z"
       style="font-style:normal;font-variant:normal;font-weight:normal;font-stretch:normal;font-size:22.5px;line-height:125%;font-family:KaTeX_Main;-inkscape-font-specification:'KaTeX_Main, Normal';text-align:start;writing-mode:lr-tb;text-anchor:start;fill:#11accd"
       id="path4290" /><path
       d="m 286.91235,12.924998 q -0.2475,-0.2475 -0.45,-0.2925 -0.2025,-0.0675 -1.035,-0.09 l -0.6525,0 0,-1.035 0.2025,0 q 0.315,0.0675 2.79,0.0675 2.7,0 3.195,-0.0675 l 0.2475,0 0,1.035 -0.4725,0 q -1.035,0.0225 -1.2825,0.2475 -0.09,0.0675 -0.09,0.135 0,0.045 2.025,5.58 2.025,5.535 2.0475,5.535 0.8775,-2.3625 1.935,-5.22 1.9125,-5.175 1.9125,-5.3775 0,-0.4275 -0.4725,-0.6525 -0.4725,-0.2475 -1.035,-0.2475 l -0.1125,0 0,-1.035 0.2025,0 q 0.3825,0.0675 2.5875,0.0675 1.935,0 2.1825,-0.0675 l 0.135,0 0,1.035 -0.1575,0 q -1.665,0 -2.16,0.9225 0,0.0225 -2.5425,6.8625 -2.52,6.84 -2.5425,6.8625 -0.0675,0.18 -0.405,0.18 l -0.2025,0 -0.2025,0 q -0.315,0 -0.3825,-0.18 -0.045,-0.045 -2.6325,-7.1325 -2.6325,-7.065 -2.6325,-7.1325 z"
       style="font-style:normal;font-variant:normal;font-weight:normal;font-stretch:normal;font-size:22.5px;line-height:125%;font-family:KaTeX_Main;-inkscape-font-specification:'KaTeX_Main, Normal';text-align:start;writing-mode:lr-tb;text-anchor:start;fill:#11accd"
       id="path4292" /><path
       d="m 305.49735,17.559998 q -2.07,0 -2.07,1.4625 0,0.2925 0.045,0.3825 0.2025,0.54 0.6975,0.7875 0.495,0.225 1.53,0.4275 1.2825,0.225 1.755,0.495 1.4175,0.675 1.8225,2.2275 0.0225,0.135 0.0225,0.54 0,0.8775 -0.315,1.5525 -0.8775,1.665 -3.3075,1.665 -1.35,0 -2.34,-0.81 l -0.18,0.1575 -0.2025,0.2025 q -0.135,0.135 -0.27,0.2475 l -0.2475,0.225 -0.18,0 q -0.1575,0 -0.2925,-0.135 l 0,-1.7775 q 0,-1.4625 0,-1.6875 0.0225,-0.225 0.1125,-0.27 0.045,-0.0225 0.36,-0.0225 0.2925,0 0.3375,0.045 0.0675,0.045 0.135,0.315 0.18,0.855 0.585,1.5525 0.7875,1.1475 2.1825,1.1475 2.1825,0 2.1825,-1.755 0,-0.6525 -0.405,-1.0575 -0.36,-0.4275 -0.945,-0.6075 -0.3825,-0.09 -1.08,-0.2475 -1.26,-0.2475 -1.71,-0.4725 -1.485,-0.6975 -1.7325,-2.0925 -0.0225,-0.09 -0.0225,-0.3375 0,-2.5875 3.1725,-2.9025 0.09,-0.045 0.54,0 0.9,0 1.575,0.3375 l 0.3375,0.18 0.2025,-0.1575 q 0.2925,-0.2475 0.495,-0.3825 l 0.18,0 q 0.1575,0 0.2925,0.135 l 0,2.97 -0.135,0.135 -0.63,0 q -0.135,-0.135 -0.135,-0.27 0,-1.035 -0.63,-1.62 -0.63,-0.585 -1.7325,-0.585 z"
       style="font-style:normal;font-variant:normal;font-weight:normal;font-stretch:normal;font-size:22.5px;line-height:125%;font-family:KaTeX_Main;-inkscape-font-specification:'KaTeX_Main, Normal';text-align:start;writing-mode:lr-tb;text-anchor:start;fill:#11accd"
       id="path4294" /><path
       d="m 311.74286,32.499998 q -0.1575,0 -0.2925,-0.135 -0.135,-0.135 -0.135,-0.2925 0,-0.225 3.915,-10.98 3.915,-10.7775 3.9825,-10.8675 0.1125,-0.2249999 0.405,-0.2249999 0.18,0.0225 0.315,0.1574999 0.135,0.135 0.1125,0.2925 0,0.1125 -3.915,10.8675 -3.8925,10.7325 -4.005,10.9575 -0.1575,0.225 -0.3825,0.225 z"
       style="font-style:normal;font-variant:normal;font-weight:normal;font-stretch:normal;font-size:22.5px;line-height:125%;font-family:KaTeX_Main;-inkscape-font-specification:'KaTeX_Main, Normal';text-align:start;writing-mode:lr-tb;text-anchor:start;fill:#11accd"
       id="path4296" /><path
       d="m 324.23036,12.879998 q -0.225,-0.225 -0.45,-0.27 -0.2025,-0.045 -1.125,-0.0675 l -0.7425,0 0,-1.035 3.9375,0 q 4.185,0.0225 4.6125,0.09 0.0675,0.0225 0.2925,0.0675 1.0125,0.2025 1.8,0.63 2.1375,1.08 2.4525,2.9475 0.0225,0.1125 0.0225,0.36 0,1.26 -0.9675,2.205 -0.945,0.945 -2.25,1.3725 -0.045,0.0225 -0.1125,0.045 -0.045,0 -0.09,0.0225 l -0.045,0.0225 q 0.0675,0.0675 0.2475,0.135 1.62,0.9 2.0025,2.385 0.0225,0.09 0.2475,1.485 0.225,1.395 0.2475,1.485 0.1575,0.81 0.3825,1.1925 0.2475,0.3825 0.63,0.5175 0.09,0.045 0.3825,0.045 l 0.1125,0 q 0.2925,0 0.54,-0.2475 0.45,-0.45 0.5175,-1.35 0,-0.2475 0.0675,-0.315 0.09,-0.09 0.3825,-0.09 0.27,0 0.36,0.0675 0.09,0.045 0.09,0.27 0,0.81 -0.405,1.485 -0.3825,0.6525 -0.945,0.9 -0.36,0.135 -0.945,0.135 -3.3525,-0.135 -3.87,-2.52 -0.045,-0.2475 -0.0675,-1.6425 0,-1.395 -0.135,-1.8675 -0.2025,-0.6075 -0.675,-1.035 -0.45,-0.45 -1.035,-0.63 l -0.225,-0.045 -1.485,-0.0225 -1.485,0 0,2.9475 0.0225,2.9475 q 0.1575,0.225 0.3825,0.27 0.2475,0.045 1.17,0.0675 l 0.7425,0 0,1.035 -0.2475,0 q -0.36,-0.0675 -3.195,-0.0675 -2.8575,0 -3.2175,0.0675 l -0.2475,0 0,-1.035 0.7425,0 q 0.9225,-0.0225 1.125,-0.0675 0.225,-0.045 0.45,-0.27 l 0,-12.6225 z m 8.1,1.8675 q -0.225,-1.35 -1.215,-1.7775 -0.9675,-0.4275 -2.97,-0.4275 -0.3375,0 -0.765,0.0225 -0.4275,0 -0.45,0 -0.2925,0.0225 -0.36,0.18 -0.0675,0.09 -0.0675,3.06 l 0,2.97 1.305,0 q 1.6875,0 2.4975,-0.135 0.81,-0.1575 1.4175,-0.765 0.3825,-0.3825 0.495,-0.855 0.135,-0.4725 0.135,-1.3725 0,-0.72 -0.0225,-0.9 z"
       style="font-style:normal;font-variant:normal;font-weight:normal;font-stretch:normal;font-size:22.5px;line-height:125%;font-family:KaTeX_Main;-inkscape-font-specification:'KaTeX_Main, Normal';text-align:start;writing-mode:lr-tb;text-anchor:start;fill:#11accd"
       id="path4298" /><path
       d="m 340.34774,17.222498 q -0.63,0 -0.99,-0.405 -0.36,-0.405 -0.36,-0.99 0,-1.62 1.215,-2.7675 1.2375,-1.17 2.9475,-1.17 1.935,0 3.195,1.0575 1.2825,1.035 1.575,2.7225 0.045,0.405 0.045,0.7425 0,1.305 -0.7875,2.4525 -0.63,0.945 -2.5425,2.5875 -0.81,0.6975 -2.25,2.07 l -1.3275,1.26 1.71,0.0225 q 3.5325,0 3.7575,-0.1125 0.09,-0.0225 0.225,-0.4725 0.09,-0.2475 0.315,-1.53 l 0,-0.0675 0.9,0 0,0.0675 -0.63,4.1175 0,0.0675 -8.3475,0 0,-0.4275 q 0,-0.45 0.045,-0.5175 0.0225,-0.0225 1.89,-2.1375 2.4525,-2.7225 3.15,-3.6 1.5075,-2.0475 1.5075,-3.7575 0,-1.485 -0.7875,-2.475 -0.765,-1.0125 -2.16,-1.0125 -1.305,0 -2.115,1.17 -0.045,0.09 -0.135,0.2475 -0.0675,0.1125 -0.0675,0.135 0,0.0225 0.1125,0.0225 0.5625,0 0.9,0.405 0.36,0.405 0.36,0.945 0,0.5625 -0.3825,0.9675 -0.36,0.3825 -0.9675,0.3825 z"
       style="font-style:normal;font-variant:normal;font-weight:normal;font-stretch:normal;font-size:22.5px;line-height:125%;font-family:KaTeX_Main;-inkscape-font-specification:'KaTeX_Main, Normal';text-align:start;writing-mode:lr-tb;text-anchor:start;fill:#11accd"
       id="path4300" /></g><g
     style="font-style:normal;font-variant:normal;font-weight:normal;font-stretch:normal;font-size:22.5px;line-height:125%;font-family:KaTeX_Main;-inkscape-font-specification:'KaTeX_Main, Normal';text-align:start;writing-mode:lr-tb;text-anchor:start"
     id="text115"><path
       d="m 16.9075,113.62496 q -0.36,-0.0675 -3.33,-0.0675 -2.97,0 -3.33,0.0675 l -0.2475,0 0,-1.035 0.495,0 q 0.8775,0 1.485,-0.0675 0.27,-0.0675 0.3825,-0.2475 0.045,-0.0675 0.045,-6.345 0,-6.254998 -0.045,-6.322498 -0.1125,-0.18 -0.3825,-0.2475 -0.6075,-0.0675 -1.485,-0.0675 l -0.495,0 0,-1.035 0.2475,0 q 0.36,0.0675 3.33,0.0675 2.97,0 3.33,-0.0675 l 0.2475,0 0,1.035 -0.495,0 q -0.8775,0 -1.485,0.0675 -0.27,0.0675 -0.3825,0.2475 -0.045,0.0675 -0.045,6.322498 0,6.2775 0.045,6.345 0.1125,0.18 0.3825,0.2475 0.6075,0.0675 1.485,0.0675 l 0.495,0 0,1.035 -0.2475,0 z"
       style="font-style:normal;font-variant:normal;font-weight:normal;font-stretch:normal;font-size:22.5px;line-height:125%;font-family:KaTeX_Main;-inkscape-font-specification:'KaTeX_Main, Normal';text-align:start;writing-mode:lr-tb;text-anchor:start"
       id="path4281" /><path
       d="m 21.932383,104.30996 q -2.07,0 -2.07,1.4625 0,0.2925 0.045,0.3825 0.2025,0.54 0.6975,0.7875 0.495,0.225 1.53,0.4275 1.2825,0.225 1.755,0.495 1.4175,0.675 1.8225,2.2275 0.0225,0.135 0.0225,0.54 0,0.8775 -0.315,1.5525 -0.8775,1.665 -3.3075,1.665 -1.35,0 -2.34,-0.81 l -0.18,0.1575 -0.2025,0.2025 q -0.135,0.135 -0.27,0.2475 l -0.2475,0.225 -0.18,0 q -0.1575,0 -0.2925,-0.135 l 0,-1.7775 q 0,-1.4625 0,-1.6875 0.0225,-0.225 0.1125,-0.27 0.045,-0.0225 0.36,-0.0225 0.2925,0 0.3375,0.045 0.0675,0.045 0.135,0.315 0.18,0.855 0.585,1.5525 0.7875,1.1475 2.1825,1.1475 2.1825,0 2.1825,-1.755 0,-0.6525 -0.405,-1.0575 -0.36,-0.4275 -0.945,-0.6075 -0.3825,-0.09 -1.08,-0.2475 -1.26,-0.2475 -1.71,-0.4725 -1.485,-0.6975 -1.7325,-2.0925 -0.0225,-0.09 -0.0225,-0.3375 0,-2.5875 3.1725,-2.9025 0.09,-0.045 0.54,0 0.9,0 1.575,0.3375 l 0.3375,0.18 0.2025,-0.1575 q 0.2925,-0.2475 0.495,-0.3825 l 0.18,0 q 0.1575,0 0.2925,0.135 l 0,2.97 -0.135,0.135 -0.63,0 q -0.135,-0.135 -0.135,-0.27 0,-1.035 -0.63,-1.62 -0.63,-0.585 -1.7325,-0.585 z"
       style="font-style:normal;font-variant:normal;font-weight:normal;font-stretch:normal;font-size:22.5px;line-height:125%;font-family:KaTeX_Main;-inkscape-font-specification:'KaTeX_Main, Normal';text-align:start;writing-mode:lr-tb;text-anchor:start"
       id="path4283" /></g><line
     class="st3"
     x1="145.03801"
     y1="53.585258"
     x2="181.03801"
     y2="53.585258"
     id="line117"
     style="fill:none;stroke:#000000;stroke-linecap:round;stroke-miterlimit:10" /><g
     style="font-style:normal;font-variant:normal;font-weight:normal;font-stretch:normal;font-size:22.5px;line-height:125%;font-family:KaTeX_Main;-inkscape-font-specification:'KaTeX_Main, Normal';text-align:start;writing-mode:lr-tb;text-anchor:start;fill:#11accd"
     id="text119"><path
       d="m 215.21091,76.48526 q 0,-0.5175 0.4275,-0.945 0.4275,-0.4275 0.99,-0.4275 0.405,0 0.675,0.27 0.2925,0.27 0.2925,0.675 0,0.495 -0.45,0.945 -0.45,0.45 -0.99,0.45 -0.405,0 -0.675,-0.27 -0.27,-0.27 -0.27,-0.6975 z m -0.5175,13.7475 q -0.8775,0 -1.4175,-0.5175 -0.54,-0.5175 -0.54,-1.395 0,-0.3825 0.045,-0.5175 0,-0.045 1.035,-2.7675 1.035,-2.745 1.035,-2.79 0.1125,-0.36 0.1125,-0.81 0,-0.54 -0.3825,-0.54 l -0.045,0 q -0.54,0 -1.035,0.5175 -0.72,0.7425 -1.0575,2.115 0,0.0225 -0.0225,0.09 -0.0225,0.045 -0.045,0.0675 0,0 -0.0225,0.0225 -0.0225,0.0225 -0.09,0.0225 -0.045,0 -0.09,0 -0.045,0 -0.18,0 l -0.315,0 q -0.135,-0.135 -0.135,-0.2025 0,-0.0675 0.0675,-0.315 0.585,-1.935 1.71,-2.7 0.6075,-0.4725 1.305,-0.4725 0.9,0 1.485,0.5175 0.585,0.5175 0.585,1.395 0,0.2925 -0.1125,0.675 -0.0225,0.045 -1.035,2.7675 l -1.0125,2.7225 q -0.1125,0.495 -0.1125,0.72 0,0.5625 0.3825,0.5625 0.315,0 0.5625,-0.135 0.99,-0.4725 1.5525,-2.3625 0.0675,-0.27 0.1125,-0.315 0.0675,-0.045 0.3825,-0.045 0.2025,0 0.27,0.0225 0.09,0 0.135,0.045 0.045,0.045 0.045,0.1575 0,0.09 -0.0675,0.2925 -0.4275,1.2825 -1.2375,2.2275 -0.7875,0.945 -1.8675,0.945 z"
       style="font-style:normal;font-variant:normal;font-weight:normal;font-stretch:normal;font-size:22.5px;line-height:125%;font-family:KaTeX_Math;-inkscape-font-specification:'KaTeX_Math, Normal';text-align:start;writing-mode:lr-tb;text-anchor:start"
       id="path4276" /><path
       d="m 220.45798,88.211135 q -0.4095,0 -0.6435,-0.26325 -0.234,-0.26325 -0.234,-0.6435 0,-1.052999 0.78975,-1.798874 0.80437,-0.7605 1.91587,-0.7605 1.25775,0 2.07675,0.687375 0.83363,0.67275 1.02375,1.769624 0.0293,0.26325 0.0293,0.482625 0,0.84825 -0.51187,1.594125 -0.4095,0.61425 -1.65263,1.681875 -0.5265,0.453375 -1.4625,1.3455 l -0.86287,0.819 1.1115,0.01462 q 2.29612,0 2.44237,-0.07312 0.0585,-0.01463 0.14625,-0.307125 0.0585,-0.160875 0.20475,-0.9945 l 0,-0.04387 0.585,0 0,0.04387 -0.4095,2.676375 0,0.04387 -5.42587,0 0,-0.277875 q 0,-0.2925 0.0293,-0.336375 0.0146,-0.01462 1.2285,-1.389375 1.59412,-1.769625 2.0475,-2.34 0.97987,-1.330875 0.97987,-2.442375 0,-0.965249 -0.51187,-1.608749 -0.49725,-0.658125 -1.404,-0.658125 -0.84825,0 -1.37475,0.7605 -0.0293,0.0585 -0.0877,0.160875 -0.0439,0.07312 -0.0439,0.08775 0,0.01462 0.0731,0.01462 0.36562,0 0.585,0.26325 0.234,0.263249 0.234,0.614249 0,0.365625 -0.24863,0.628875 -0.234,0.248625 -0.62887,0.248625 z"
       style="font-size:64.99999762%;baseline-shift:sub"
       id="path4278" /></g></svg>