<?xml version="1.0" encoding="UTF-8" standalone="no"?>
<!-- Generator: Adobe Illustrator 19.1.0, SVG Export Plug-In . SVG Version: 6.00 Build 0)  -->

<svg
   xmlns:dc="http://purl.org/dc/elements/1.1/"
   xmlns:cc="http://creativecommons.org/ns#"
   xmlns:rdf="http://www.w3.org/1999/02/22-rdf-syntax-ns#"
   xmlns:svg="http://www.w3.org/2000/svg"
   xmlns="http://www.w3.org/2000/svg"
   xmlns:sodipodi="http://sodipodi.sourceforge.net/DTD/sodipodi-0.dtd"
   xmlns:inkscape="http://www.inkscape.org/namespaces/inkscape"
   version="1.1"
   id="Layer_1"
   x="0px"
   y="0px"
   width="237.50005"
   height="157.8241"
   viewBox="0 0 237.50005 157.8241"
   xml:space="preserve"
   inkscape:version="0.91 r13725"
   sodipodi:docname="superposition13.svg"><metadata
     id="metadata77"><rdf:RDF><cc:Work
         rdf:about=""><dc:format>image/svg+xml</dc:format><dc:type
           rdf:resource="http://purl.org/dc/dcmitype/StillImage" /><dc:title></dc:title></cc:Work></rdf:RDF></metadata><defs
     id="defs75" /><sodipodi:namedview
     pagecolor="#ffffff"
     bordercolor="#666666"
     borderopacity="1"
     objecttolerance="10"
     gridtolerance="10"
     guidetolerance="10"
     inkscape:pageopacity="0"
     inkscape:pageshadow="2"
     inkscape:window-width="640"
     inkscape:window-height="480"
     id="namedview73"
     showgrid="false"
     fit-margin-top="10"
     fit-margin-right="10"
     fit-margin-bottom="10"
     fit-margin-left="10"
     inkscape:zoom="2.4042553"
     inkscape:cx="97.50005"
     inkscape:cy="78.75"
     inkscape:current-layer="Layer_1" /><style
     type="text/css"
     id="style3">
	.st0{fill:none;stroke:#000000;stroke-linecap:round;stroke-linejoin:round;stroke-miterlimit:10;}
	.st1{fill:none;stroke:#000000;stroke-width:2;stroke-linecap:round;stroke-linejoin:round;stroke-miterlimit:10;}
	.st2{fill:none;stroke:#000000;stroke-width:2;stroke-miterlimit:10;}
	.st3{fill:none;stroke:#000000;stroke-linecap:round;stroke-miterlimit:10;}
	.st4{fill:none;stroke:#000000;stroke-width:1.5;stroke-miterlimit:10;}
	.st5{fill:none;stroke:#000000;stroke-width:2;stroke-linecap:round;stroke-miterlimit:10;}
	.st6{fill:none;}
	.st7{stroke:#000000;stroke-linecap:round;stroke-linejoin:round;stroke-miterlimit:10;}
	.st8{fill:none;stroke:#000000;stroke-miterlimit:10;}
	.st9{fill:#FFFFFF;stroke:#000000;stroke-miterlimit:10;}
	.st10{fill:none;stroke:#000000;stroke-linejoin:round;stroke-miterlimit:10;}
	.st11{fill:none;stroke:#000000;stroke-linejoin:round;}
	.st12{fill:none;stroke:#11ACCD;stroke-width:3;stroke-linecap:round;stroke-miterlimit:10;}
	.st13{fill:#11ACCD;}
	.st14{fill:#E07D10;}
	.st15{fill:#FF9C39;}
	.st16{font-family:'KaTeX_Main-Regular';}
	.st17{font-size:18px;}
	.st18{font-family:'KaTeX_Main-Italic';}
	.st19{font-size:21px;}
	.st20{font-size:24px;}
	.st21{fill:none;stroke:#E07D10;stroke-width:2;stroke-linecap:round;stroke-miterlimit:10;}
	.st22{fill:none;stroke:#000000;stroke-width:4;stroke-linecap:round;stroke-miterlimit:10;}
</style><g
     id="g5"
     transform="translate(-43.49995,3.8240926)"><line
       class="st0"
       x1="168"
       y1="60.599998"
       x2="168"
       y2="42"
       id="line7"
       style="fill:none;stroke:#000000;stroke-linecap:round;stroke-linejoin:round;stroke-miterlimit:10" /><polyline
       class="st1"
       points="168,107.4 159,103.5 177,95.7 159,87.9 177,80.1 159,72.3 177,64.5 168,60.6  "
       id="polyline9"
       style="fill:none;stroke:#000000;stroke-width:2;stroke-linecap:round;stroke-linejoin:round;stroke-miterlimit:10" /><line
       class="st0"
       x1="168"
       y1="132"
       x2="168"
       y2="107.4"
       id="line11"
       style="fill:none;stroke:#000000;stroke-linecap:round;stroke-linejoin:round;stroke-miterlimit:10" /><rect
       x="156"
       y="42"
       class="st6"
       width="24"
       height="90"
       id="rect13"
       style="fill:none" /></g><g
     id="g15"
     transform="translate(-43.49995,3.8240926)"><g
       id="g17"><g
         id="g19"><line
           class="st5"
           x1="252"
           y1="103.5"
           x2="252"
           y2="83.599998"
           id="line21"
           style="fill:none;stroke:#000000;stroke-width:2;stroke-linecap:round;stroke-miterlimit:10" /><g
           id="g23"><polygon
             points="258,85.4 252,75 246,85.4 "
             id="polygon25" /></g></g></g><circle
       class="st2"
       cx="252"
       cy="90"
       r="18"
       id="circle27"
       style="fill:none;stroke:#000000;stroke-width:2;stroke-miterlimit:10" /><polyline
       class="st0"
       points="252,108 252,138 54,138 252,138  "
       id="polyline29"
       style="fill:none;stroke:#000000;stroke-linecap:round;stroke-linejoin:round;stroke-miterlimit:10" /></g><g
     id="g31"
     transform="translate(-43.49995,3.8240926)" /><g
     id="g33"
     transform="translate(-43.49995,3.8240926)"><line
       class="st0"
       x1="131.39999"
       y1="36"
       x2="150"
       y2="36"
       id="line35"
       style="fill:none;stroke:#000000;stroke-linecap:round;stroke-linejoin:round;stroke-miterlimit:10" /><polyline
       class="st1"
       points="84.6,36 88.5,27 96.3,45 104.1,27 111.9,45 119.7,27 127.5,45 131.4,36  "
       id="polyline37"
       style="fill:none;stroke:#000000;stroke-width:2;stroke-linecap:round;stroke-linejoin:round;stroke-miterlimit:10" /><line
       class="st0"
       x1="66"
       y1="36"
       x2="84.599998"
       y2="36"
       id="line39"
       style="fill:none;stroke:#000000;stroke-linecap:round;stroke-linejoin:round;stroke-miterlimit:10" /><rect
       x="66"
       y="24"
       class="st6"
       width="84"
       height="24"
       id="rect41"
       style="fill:none" /></g><g
     id="g43"
     transform="translate(-43.49995,3.8240926)"><circle
       class="st7"
       cx="168"
       cy="36"
       r="1.5"
       id="circle45"
       style="stroke:#000000;stroke-linecap:round;stroke-linejoin:round;stroke-miterlimit:10" /><rect
       x="162"
       y="30"
       class="st6"
       width="12"
       height="12"
       id="rect47"
       style="fill:none" /></g><g
     id="g49"
     transform="translate(-43.49995,3.8240926)"><circle
       class="st7"
       cx="168"
       cy="138"
       r="1.5"
       id="circle51"
       style="stroke:#000000;stroke-linecap:round;stroke-linejoin:round;stroke-miterlimit:10" /><rect
       x="162"
       y="132"
       class="st6"
       width="12"
       height="12"
       id="rect53"
       style="fill:none" /></g><g
     style="font-style:normal;font-variant:normal;font-weight:normal;font-stretch:normal;font-size:22.5px;line-height:125%;font-family:KaTeX_Main;-inkscape-font-specification:'KaTeX_Main, Normal';text-align:start;writing-mode:lr-tb;text-anchor:start"
     id="text55"><path
       d="m 51.881646,11.3725 q -0.225,-0.225 -0.45,-0.27 -0.2025,-0.045 -1.125,-0.0675 l -0.7425,0 0,-1.035 3.9375,0 q 4.185,0.0225 4.6125,0.09 0.0675,0.0225 0.2925,0.0675 1.0125,0.2025 1.8,0.63 2.1375,1.08 2.4525,2.9475 0.0225,0.1125 0.0225,0.36 0,1.26 -0.9675,2.205 -0.945,0.945 -2.25,1.3725 -0.045,0.0225 -0.1125,0.045 -0.045,0 -0.09,0.0225 l -0.045,0.0225 q 0.0675,0.0675 0.2475,0.135 1.62,0.9 2.0025,2.385 0.0225,0.09 0.2475,1.485 0.225,1.395 0.2475,1.485 0.1575,0.81 0.3825,1.1925 0.2475,0.3825 0.63,0.5175 0.09,0.045 0.3825,0.045 l 0.1125,0 q 0.2925,0 0.54,-0.2475 0.45,-0.45 0.5175,-1.35 0,-0.2475 0.0675,-0.315 0.09,-0.09 0.3825,-0.09 0.27,0 0.36,0.0675 0.09,0.045 0.09,0.27 0,0.81 -0.405,1.485 -0.3825,0.6525 -0.945,0.9 -0.36,0.135 -0.945,0.135 -3.3525,-0.135 -3.87,-2.52 -0.045,-0.2475 -0.0675,-1.6425 0,-1.395 -0.135,-1.8675 -0.2025,-0.6075 -0.675,-1.035 -0.45,-0.45 -1.035,-0.63 l -0.225,-0.045 -1.485,-0.0225 -1.485,0 0,2.9475 0.0225,2.9475 q 0.1575,0.225 0.3825,0.27 0.2475,0.045 1.17,0.0675 l 0.7425,0 0,1.035 -0.2475,0 q -0.36,-0.0675 -3.195,-0.0675 -2.8575,0 -3.2175,0.0675 l -0.2475,0 0,-1.035 0.7425,0 q 0.9225,-0.0225 1.125,-0.0675 0.225,-0.045 0.45,-0.27 l 0,-12.6225 z m 8.1,1.8675 q -0.225,-1.35 -1.215,-1.7775 -0.9675,-0.4275 -2.97,-0.4275 -0.3375,0 -0.765,0.0225 -0.4275,0 -0.45,0 -0.2925,0.0225 -0.36,0.18 -0.0675,0.09 -0.0675,3.06 l 0,2.97 1.305,0 q 1.6875,0 2.4975,-0.135 0.81,-0.1575 1.4175,-0.765 0.3825,-0.3825 0.495,-0.855 0.135,-0.4725 0.135,-1.3725 0,-0.72 -0.0225,-0.9 z"
       style="font-style:normal;font-variant:normal;font-weight:normal;font-stretch:normal;font-size:22.5px;line-height:125%;font-family:KaTeX_Main;-inkscape-font-specification:'KaTeX_Main, Normal';text-align:start;writing-mode:lr-tb;text-anchor:start"
       id="path4227" /><path
       d="m 74.884029,25.3675 q -0.3825,-0.0675 -3.5775,-0.0675 -3.15,0 -3.5325,0.0675 l -0.27,0 0,-1.035 0.585,0 q 1.305,0 1.6875,-0.0675 0.18,-0.0225 0.54,-0.27 l 0,-11.6325 q -0.045,0 -0.18,0.0675 -1.035,0.405 -2.3175,0.4275 l -0.4275,0 0,-1.035 0.4275,0 q 1.89,-0.0675 3.15,-0.855 0.405,-0.225 0.6975,-0.5175 0.045,-0.0675 0.27,-0.0675 0.225,0 0.3825,0.135 l 0,6.7275 0.0225,6.75 q 0.3375,0.3375 1.4625,0.3375 l 0.7425,0 0.585,0 0,1.035 -0.2475,0 z"
       style="font-style:normal;font-variant:normal;font-weight:normal;font-stretch:normal;font-size:22.5px;line-height:125%;font-family:KaTeX_Main;-inkscape-font-specification:'KaTeX_Main, Normal';text-align:start;writing-mode:lr-tb;text-anchor:start"
       id="path4229" /></g><g
     style="font-style:normal;font-variant:normal;font-weight:normal;font-stretch:normal;font-size:22.5px;line-height:125%;font-family:KaTeX_Main;-inkscape-font-specification:'KaTeX_Main, Normal';text-align:start;writing-mode:lr-tb;text-anchor:start"
     id="text57"><path
       d="m 84.338246,85.829188 q -0.225,-0.225 -0.45,-0.27 -0.2025,-0.045 -1.125,-0.0675 l -0.7425,0 0,-1.035 3.9375,0 q 4.185,0.0225 4.6125,0.09 0.0675,0.0225 0.2925,0.0675 1.0125,0.2025 1.8,0.63 2.1375,1.08 2.4525,2.9475 0.0225,0.1125 0.0225,0.36 0,1.26 -0.9675,2.205 -0.945,0.945 -2.25,1.3725 -0.045,0.0225 -0.1125,0.045 -0.045,0 -0.09,0.0225 l -0.045,0.0225 q 0.0675,0.0675 0.2475,0.135 1.62,0.9 2.0025,2.385 0.0225,0.09 0.2475,1.485 0.225,1.395 0.2475,1.485 0.1575,0.81 0.3825,1.1925 0.2475,0.3825 0.63,0.5175 0.09,0.045 0.3825,0.045 l 0.1125,0 q 0.2925,0 0.54,-0.2475 0.45,-0.45 0.5175,-1.35 0,-0.2475 0.0675,-0.315 0.09,-0.09 0.3825,-0.09 0.27,0 0.36,0.0675 0.09,0.045 0.09,0.27 0,0.81 -0.405,1.485 -0.3825,0.6525 -0.945,0.900002 -0.36,0.135 -0.945,0.135 -3.3525,-0.135 -3.87,-2.520002 -0.045,-0.2475 -0.0675,-1.6425 0,-1.395 -0.135,-1.8675 -0.2025,-0.6075 -0.675,-1.035 -0.45,-0.45 -1.035,-0.63 l -0.225,-0.045 -1.485,-0.0225 -1.485,0 0,2.9475 0.0225,2.9475 q 0.1575,0.225 0.3825,0.27 0.2475,0.045 1.17,0.0675 l 0.7425,0 0,1.035 -0.2475,0 q -0.36,-0.0675 -3.195,-0.0675 -2.8575,0 -3.2175,0.0675 l -0.2475,0 0,-1.035 0.7425,0 q 0.9225,-0.0225 1.125,-0.0675 0.225,-0.045 0.45,-0.27 l 0,-12.6225 z m 8.1,1.8675 q -0.225,-1.35 -1.215,-1.7775 -0.9675,-0.4275 -2.97,-0.4275 -0.3375,0 -0.765,0.0225 -0.4275,0 -0.45,0 -0.2925,0.0225 -0.36,0.18 -0.0675,0.09 -0.0675,3.06 l 0,2.97 1.305,0 q 1.6875,0 2.4975,-0.135 0.81,-0.1575 1.4175,-0.765 0.3825,-0.3825 0.495,-0.855 0.135,-0.4725 0.135,-1.3725 0,-0.72 -0.0225,-0.9 z"
       style="font-style:normal;font-variant:normal;font-weight:normal;font-stretch:normal;font-size:22.5px;line-height:125%;font-family:KaTeX_Main;-inkscape-font-specification:'KaTeX_Main, Normal';text-align:start;writing-mode:lr-tb;text-anchor:start"
       id="path4222" /><path
       d="m 100.45563,90.171688 q -0.630001,0 -0.990001,-0.405 -0.36,-0.405 -0.36,-0.99 0,-1.62 1.215001,-2.7675 1.2375,-1.17 2.9475,-1.17 1.935,0 3.195,1.0575 1.2825,1.035 1.575,2.7225 0.045,0.405 0.045,0.7425 0,1.305 -0.7875,2.4525 -0.63,0.945 -2.5425,2.5875 -0.81,0.6975 -2.25,2.07 l -1.3275,1.26 1.71,0.0225 q 3.5325,0 3.7575,-0.1125 0.09,-0.0225 0.225,-0.4725 0.09,-0.2475 0.315,-1.53 l 0,-0.0675 0.9,0 0,0.0675 -0.63,4.1175 0,0.0675 -8.347501,0 0,-0.4275 q 0,-0.45 0.045,-0.5175 0.0225,-0.0225 1.890001,-2.1375 2.4525,-2.7225 3.15,-3.6 1.5075,-2.0475 1.5075,-3.7575 0,-1.485 -0.7875,-2.475 -0.765,-1.0125 -2.16,-1.0125 -1.305,0 -2.115,1.17 -0.045,0.09 -0.135,0.2475 -0.0675,0.1125 -0.0675,0.135 0,0.0225 0.1125,0.0225 0.5625,0 0.9,0.405 0.36,0.405 0.36,0.945 0,0.5625 -0.3825,0.9675 -0.36,0.3825 -0.9675,0.3825 z"
       style="font-style:normal;font-variant:normal;font-weight:normal;font-stretch:normal;font-size:22.5px;line-height:125%;font-family:KaTeX_Main;-inkscape-font-specification:'KaTeX_Main, Normal';text-align:start;writing-mode:lr-tb;text-anchor:start"
       id="path4224" /></g><g
     style="font-style:normal;font-variant:normal;font-weight:normal;font-stretch:normal;font-size:22.5px;line-height:125%;font-family:KaTeX_Main;-inkscape-font-specification:'KaTeX_Main, Normal';text-align:start;writing-mode:lr-tb;text-anchor:start;fill:#ff9c39"
     id="text59"><path
       d="m 123.92235,28.571192 q -1.44,0 -2.295,-0.72 -0.8325,-0.7425 -0.8325,-2.16 0,-0.405 0.045,-0.765 0.2025,-1.08 1.0575,-3.3075 l 0.36,-1.08 q 0.135,-0.405 0.135,-0.765 0,-0.5625 -0.4275,-0.5625 -0.1575,0 -0.36,0.0675 -1.1475,0.405 -1.7325,2.5875 0,0.0225 -0.0225,0.09 -0.0225,0.045 -0.045,0.0675 0,0 -0.0225,0.0225 -0.0225,0.0225 -0.09,0.0225 -0.045,0 -0.09,0 -0.045,0 -0.18,0 l -0.315,0 q -0.135,-0.135 -0.135,-0.2025 0,-0.0675 0.0675,-0.3375 0.54,-1.7775 1.665,-2.655 0.6075,-0.4725 1.395,-0.4725 0.8775,0 1.44,0.495 0.5625,0.495 0.5625,1.305 0,0.3825 -0.0675,0.585 0,0.1575 -0.3375,0.99 -1.035,2.8125 -1.1025,4.005 0,0.6075 0.1125,0.99 0.2925,0.9675 1.4175,0.9675 0.6075,0 1.08,-0.36 1.395,-0.9225 2.3175,-4.2525 0.18,-0.63 0.18,-1.035 0,-0.99 -0.8775,-1.7775 -0.2925,-0.27 -0.2925,-0.6075 0,-0.5175 0.405,-0.9225 0.4275,-0.4275 0.945,-0.4275 0.54,0 0.8325,0.5175 0.2925,0.495 0.2925,1.1925 0,0.7875 -0.45,2.5875 -0.4275,1.7325 -1.08,3.015 -1.4175,2.9025 -3.555,2.9025 z"
       style="font-style:normal;font-variant:normal;font-weight:normal;font-stretch:normal;font-size:22.5px;line-height:125%;font-family:KaTeX_Math;-inkscape-font-specification:'KaTeX_Math, Normal';text-align:start;writing-mode:lr-tb;text-anchor:start"
       id="path4215" /><path
       d="m 134.19528,32.823692 q -0.234,-0.04387 -2.1645,-0.04387 -1.9305,0 -2.1645,0.04387 l -0.16087,0 0,-0.67275 0.32175,0 q 0.57037,0 0.96525,-0.04387 0.1755,-0.04387 0.24862,-0.160875 0.0293,-0.04387 0.0293,-4.124249 0,-4.06575 -0.0293,-4.109625 -0.0731,-0.117 -0.24862,-0.160875 -0.39488,-0.04387 -0.96525,-0.04387 l -0.32175,0 0,-0.67275 0.16087,0 q 0.234,0.04387 2.1645,0.04387 1.9305,0 2.1645,-0.04387 l 0.16088,0 0,0.67275 -0.32175,0 q -0.57038,0 -0.96525,0.04387 -0.1755,0.04387 -0.24863,0.160875 -0.0292,0.04387 -0.0292,4.109625 0,4.080374 0.0292,4.124249 0.0731,0.117 0.24863,0.160875 0.39487,0.04387 0.96525,0.04387 l 0.32175,0 0,0.67275 -0.16088,0 z"
       style="font-size:64.99999762%;baseline-shift:sub"
       id="path4217" /><path
       d="m 137.46146,26.768943 q -1.3455,0 -1.3455,0.950625 0,0.190125 0.0292,0.248625 0.13162,0.351 0.45337,0.511875 0.32175,0.14625 0.9945,0.277875 0.83363,0.14625 1.14075,0.32175 0.92138,0.43875 1.18463,1.447874 0.0146,0.08775 0.0146,0.351 0,0.570375 -0.20475,1.009125 -0.57037,1.08225 -2.14987,1.08225 -0.8775,0 -1.521,-0.5265 l -0.117,0.102375 -0.13163,0.131625 q -0.0877,0.08775 -0.1755,0.160875 l -0.16087,0.14625 -0.117,0 q -0.10238,0 -0.19013,-0.08775 l 0,-1.155375 q 0,-0.950625 0,-1.096875 0.0146,-0.14625 0.0731,-0.1755 0.0292,-0.01462 0.234,-0.01462 0.19012,0 0.21937,0.02925 0.0439,0.02925 0.0877,0.20475 0.117,0.55575 0.38025,1.009125 0.51188,0.745875 1.41863,0.745875 1.41862,0 1.41862,-1.14075 0,-0.424125 -0.26325,-0.687375 -0.234,-0.277875 -0.61425,-0.394875 -0.24862,-0.0585 -0.702,-0.160874 -0.819,-0.160875 -1.1115,-0.307125 -0.96525,-0.453375 -1.12612,-1.360125 -0.0146,-0.0585 -0.0146,-0.219375 0,-1.681875 2.06213,-1.886625 0.0585,-0.02925 0.351,0 0.585,0 1.02375,0.219375 l 0.21937,0.117 0.13163,-0.102375 q 0.19012,-0.160875 0.32175,-0.248625 l 0.117,0 q 0.10237,0 0.19012,0.08775 l 0,1.9305 -0.0877,0.08775 -0.4095,0 q -0.0877,-0.08775 -0.0877,-0.1755 0,-0.67275 -0.4095,-1.053 -0.4095,-0.38025 -1.12612,-0.38025 z"
       style="font-size:64.99999762%;baseline-shift:sub"
       id="path4219" /></g><g
     style="font-style:normal;font-variant:normal;font-weight:normal;font-stretch:normal;font-size:22.5px;line-height:125%;font-family:KaTeX_Main;-inkscape-font-specification:'KaTeX_Main, Normal';text-align:start;writing-mode:lr-tb;text-anchor:start"
     id="text63"><path
       d="m 176.33663,99.824089 q -0.36,-0.0675 -3.33,-0.0675 -2.97,0 -3.33,0.0675 l -0.2475,0 0,-1.035 0.495,0 q 0.8775,0 1.485,-0.0675 0.27,-0.0675 0.3825,-0.2475 0.045,-0.0675 0.045,-6.345 0,-6.255 -0.045,-6.3225 -0.1125,-0.18 -0.3825,-0.2475 -0.6075,-0.0675 -1.485,-0.0675 l -0.495,0 0,-1.035 0.2475,0 q 0.36,0.0675 3.33,0.0675 2.97,0 3.33,-0.0675 l 0.2475,0 0,1.035 -0.495,0 q -0.8775,0 -1.485,0.0675 -0.27,0.0675 -0.3825,0.2475 -0.045,0.0675 -0.045,6.3225 0,6.2775 0.045,6.345 0.1125,0.18 0.3825,0.2475 0.6075,0.0675 1.485,0.0675 l 0.495,0 0,1.035 -0.2475,0 z"
       style="font-style:normal;font-variant:normal;font-weight:normal;font-stretch:normal;font-size:22.5px;line-height:125%;font-family:KaTeX_Main;-inkscape-font-specification:'KaTeX_Main, Normal';text-align:start;writing-mode:lr-tb;text-anchor:start"
       id="path4210" /><path
       d="m 181.36152,90.509089 q -2.07,0 -2.07,1.4625 0,0.2925 0.045,0.3825 0.2025,0.54 0.6975,0.7875 0.495,0.225 1.53,0.4275 1.2825,0.225 1.755,0.495 1.4175,0.675 1.8225,2.2275 0.0225,0.135 0.0225,0.54 0,0.8775 -0.315,1.5525 -0.8775,1.665001 -3.3075,1.665001 -1.35,0 -2.34,-0.810001 l -0.18,0.1575 -0.2025,0.2025 q -0.135,0.135 -0.27,0.2475 l -0.2475,0.225001 -0.18,0 q -0.1575,0 -0.2925,-0.135001 l 0,-1.7775 q 0,-1.4625 0,-1.6875 0.0225,-0.225 0.1125,-0.27 0.045,-0.0225 0.36,-0.0225 0.2925,0 0.3375,0.045 0.0675,0.045 0.135,0.315 0.18,0.855 0.585,1.5525 0.7875,1.1475 2.1825,1.1475 2.1825,0 2.1825,-1.755 0,-0.6525 -0.405,-1.0575 -0.36,-0.4275 -0.945,-0.6075 -0.3825,-0.09 -1.08,-0.2475 -1.26,-0.2475 -1.71,-0.4725 -1.485,-0.6975 -1.7325,-2.0925 -0.0225,-0.09 -0.0225,-0.3375 0,-2.5875 3.1725,-2.9025 0.09,-0.045 0.54,0 0.9,0 1.575,0.3375 l 0.3375,0.18 0.2025,-0.1575 q 0.2925,-0.2475 0.495,-0.3825 l 0.18,0 q 0.1575,0 0.2925,0.135 l 0,2.97 -0.135,0.135 -0.63,0 q -0.135,-0.135 -0.135,-0.27 0,-1.035 -0.63,-1.62 -0.63,-0.585 -1.7325,-0.585 z"
       style="font-style:normal;font-variant:normal;font-weight:normal;font-stretch:normal;font-size:22.5px;line-height:125%;font-family:KaTeX_Main;-inkscape-font-specification:'KaTeX_Main, Normal';text-align:start;writing-mode:lr-tb;text-anchor:start"
       id="path4212" /></g><polyline
     class="st3"
     points="150,36 252,36 252,72.5 "
     id="polyline65"
     style="fill:none;stroke:#000000;stroke-linecap:round;stroke-miterlimit:10"
     transform="translate(-43.49995,3.8240926)" /><polyline
     class="st3"
     points="66,36 54,36 54,138 "
     id="polyline67"
     style="fill:none;stroke:#000000;stroke-linecap:round;stroke-miterlimit:10"
     transform="translate(-43.49995,3.8240926)" /><line
     class="st3"
     x1="124.50005"
     y1="45.824093"
     x2="124.50005"
     y2="39.824093"
     id="line69"
     style="fill:none;stroke:#000000;stroke-linecap:round;stroke-miterlimit:10" /><line
     class="st3"
     x1="124.50005"
     y1="135.8241"
     x2="124.50005"
     y2="141.8241"
     id="line71"
     style="fill:none;stroke:#000000;stroke-linecap:round;stroke-miterlimit:10" /></svg>