<?xml version="1.0" encoding="UTF-8" standalone="no"?>
<!-- Generator: Adobe Illustrator 19.1.0, SVG Export Plug-In . SVG Version: 6.00 Build 0)  -->

<svg
   xmlns:dc="http://purl.org/dc/elements/1.1/"
   xmlns:cc="http://creativecommons.org/ns#"
   xmlns:rdf="http://www.w3.org/1999/02/22-rdf-syntax-ns#"
   xmlns:svg="http://www.w3.org/2000/svg"
   xmlns="http://www.w3.org/2000/svg"
   xmlns:sodipodi="http://sodipodi.sourceforge.net/DTD/sodipodi-0.dtd"
   xmlns:inkscape="http://www.inkscape.org/namespaces/inkscape"
   version="1.1"
   id="Layer_1"
   x="0px"
   y="0px"
   width="427.12912"
   height="201.09999"
   viewBox="0 0 427.12912 201.09999"
   xml:space="preserve"
   inkscape:version="0.91 r13725"
   sodipodi:docname="superposition5.svg"><metadata
     id="metadata149"><rdf:RDF><cc:Work
         rdf:about=""><dc:format>image/svg+xml</dc:format><dc:type
           rdf:resource="http://purl.org/dc/dcmitype/StillImage" /><dc:title></dc:title></cc:Work></rdf:RDF></metadata><defs
     id="defs147" /><sodipodi:namedview
     pagecolor="#ffffff"
     bordercolor="#666666"
     borderopacity="1"
     objecttolerance="10"
     gridtolerance="10"
     guidetolerance="10"
     inkscape:pageopacity="0"
     inkscape:pageshadow="2"
     inkscape:window-width="640"
     inkscape:window-height="480"
     id="namedview145"
     showgrid="false"
     fit-margin-top="10"
     fit-margin-right="10"
     fit-margin-bottom="10"
     fit-margin-left="10"
     inkscape:zoom="1.587342"
     inkscape:cx="213.56456"
     inkscape:cy="100.55"
     inkscape:current-layer="Layer_1" /><style
     type="text/css"
     id="style3">
	.st0{fill:none;stroke:#000000;stroke-linecap:round;stroke-linejoin:round;stroke-miterlimit:10;}
	.st1{fill:none;stroke:#000000;stroke-width:2;stroke-linecap:round;stroke-linejoin:round;stroke-miterlimit:10;}
	.st2{fill:none;stroke:#000000;stroke-width:2;stroke-miterlimit:10;}
	.st3{fill:none;stroke:#000000;stroke-linecap:round;stroke-miterlimit:10;}
	.st4{fill:none;stroke:#000000;stroke-width:1.5;stroke-miterlimit:10;}
	.st5{fill:none;stroke:#000000;stroke-width:2;stroke-linecap:round;stroke-miterlimit:10;}
	.st6{fill:none;}
	.st7{stroke:#000000;stroke-linecap:round;stroke-linejoin:round;stroke-miterlimit:10;}
	.st8{fill:none;stroke:#000000;stroke-miterlimit:10;}
	.st9{fill:#FFFFFF;stroke:#000000;stroke-miterlimit:10;}
	.st10{fill:none;stroke:#000000;stroke-linejoin:round;stroke-miterlimit:10;}
	.st11{fill:none;stroke:#000000;stroke-linejoin:round;}
	.st12{fill:none;stroke:#11ACCD;stroke-width:3;stroke-linecap:round;stroke-miterlimit:10;}
	.st13{fill:#11ACCD;}
	.st14{fill:#E07D10;}
	.st15{font-family:'KaTeX_Main-Regular';}
	.st16{font-size:18px;}
	.st17{font-family:'KaTeX_Main-Italic';}
	.st18{fill:#FF9C39;}
	.st19{fill:none;stroke:#E07D10;stroke-width:2;stroke-linecap:round;stroke-miterlimit:10;}
	.st20{fill:none;stroke:#000000;stroke-width:4;stroke-linecap:round;stroke-miterlimit:10;}
</style><g
     id="g5"
     transform="translate(4.6587141,5.4)"><circle
       class="st7"
       cx="66"
       cy="23.700001"
       r="1.5"
       id="circle7"
       style="stroke:#000000;stroke-linecap:round;stroke-linejoin:round;stroke-miterlimit:10" /><rect
       x="60"
       y="17.700001"
       class="st6"
       width="12"
       height="12"
       id="rect9"
       style="fill:none" /></g><g
     id="g11"
     transform="translate(4.6587141,5.4)"><circle
       class="st7"
       cx="66"
       cy="77.699997"
       r="1.5"
       id="circle13"
       style="stroke:#000000;stroke-linecap:round;stroke-linejoin:round;stroke-miterlimit:10" /><rect
       x="60"
       y="71.699997"
       class="st6"
       width="12"
       height="12"
       id="rect15"
       style="fill:none" /></g><g
     id="g17"
     transform="translate(4.6587141,5.4)"><circle
       class="st7"
       cx="276"
       cy="113.7"
       r="1.5"
       id="circle19"
       style="stroke:#000000;stroke-linecap:round;stroke-linejoin:round;stroke-miterlimit:10" /><rect
       x="270"
       y="107.7"
       class="st6"
       width="12"
       height="12"
       id="rect21"
       style="fill:none" /></g><g
     id="g23"
     transform="translate(4.6587141,5.4)"><circle
       class="st7"
       cx="276"
       cy="167.7"
       r="1.5"
       id="circle25"
       style="stroke:#000000;stroke-linecap:round;stroke-linejoin:round;stroke-miterlimit:10" /><rect
       x="270"
       y="161.7"
       class="st6"
       width="12"
       height="12"
       id="rect27"
       style="fill:none" /></g><g
     id="g29"
     transform="translate(4.6587141,5.4)"><circle
       class="st8"
       cx="93"
       cy="11.7"
       r="3"
       id="circle31"
       style="fill:none;stroke:#000000;stroke-miterlimit:10" /><rect
       x="90"
       y="5.6999998"
       class="st6"
       width="6"
       height="12"
       id="rect33"
       style="fill:none" /></g><g
     id="g35"
     transform="translate(4.6587141,5.4)"><circle
       class="st8"
       cx="93"
       cy="179.7"
       r="3"
       id="circle37"
       style="fill:none;stroke:#000000;stroke-miterlimit:10" /><rect
       x="90"
       y="173.7"
       class="st6"
       width="6"
       height="12"
       id="rect39"
       style="fill:none" /></g><g
     id="g41"
     transform="translate(4.6587141,5.4)"><circle
       class="st8"
       cx="303"
       cy="11.7"
       r="3"
       id="circle43"
       style="fill:none;stroke:#000000;stroke-miterlimit:10" /><rect
       x="300"
       y="5.6999998"
       class="st6"
       width="6"
       height="12"
       id="rect45"
       style="fill:none" /></g><g
     id="g47"
     transform="translate(4.6587141,5.4)"><circle
       class="st8"
       cx="303"
       cy="179.7"
       r="3"
       id="circle49"
       style="fill:none;stroke:#000000;stroke-miterlimit:10" /><rect
       x="300"
       y="173.7"
       class="st6"
       width="6"
       height="12"
       id="rect51"
       style="fill:none" /></g><g
     id="g53"
     transform="translate(4.6587141,5.4)"><polyline
       class="st3"
       points="96,11.7 168,11.7 168,53.7  "
       id="polyline55"
       style="fill:none;stroke:#000000;stroke-linecap:round;stroke-miterlimit:10" /><polyline
       class="st3"
       points="66,125.7 66,95.7 66,11.7 90,11.7  "
       id="polyline57"
       style="fill:none;stroke:#000000;stroke-linecap:round;stroke-miterlimit:10" /><polyline
       class="st3"
       points="96,179.7 168,179.7 168,137.7  "
       id="polyline59"
       style="fill:none;stroke:#000000;stroke-linecap:round;stroke-miterlimit:10" /><line
       class="st5"
       x1="48"
       y1="125.7"
       x2="84"
       y2="125.7"
       id="line61"
       style="fill:none;stroke:#000000;stroke-width:2;stroke-linecap:round;stroke-miterlimit:10" /><line
       class="st5"
       x1="61.5"
       y1="131.7"
       x2="70.5"
       y2="131.7"
       id="line63"
       style="fill:none;stroke:#000000;stroke-width:2;stroke-linecap:round;stroke-miterlimit:10" /><line
       class="st5"
       x1="48"
       y1="138"
       x2="84"
       y2="138"
       id="line65"
       style="fill:none;stroke:#000000;stroke-width:2;stroke-linecap:round;stroke-miterlimit:10" /><line
       class="st5"
       x1="61.5"
       y1="143.7"
       x2="70.5"
       y2="143.7"
       id="line67"
       style="fill:none;stroke:#000000;stroke-width:2;stroke-linecap:round;stroke-miterlimit:10" /></g><g
     id="g69"
     transform="translate(4.6587141,5.4)"><line
       class="st0"
       x1="168"
       y1="72.300003"
       x2="168"
       y2="53.700001"
       id="line71"
       style="fill:none;stroke:#000000;stroke-linecap:round;stroke-linejoin:round;stroke-miterlimit:10" /><polyline
       class="st1"
       points="168,119.1 159,115.2 177,107.4 159,99.6 177,91.8 159,84 177,76.2 168,72.3  "
       id="polyline73"
       style="fill:none;stroke:#000000;stroke-width:2;stroke-linecap:round;stroke-linejoin:round;stroke-miterlimit:10" /><line
       class="st0"
       x1="168"
       y1="137.7"
       x2="168"
       y2="119.1"
       id="line75"
       style="fill:none;stroke:#000000;stroke-linecap:round;stroke-linejoin:round;stroke-miterlimit:10" /><rect
       x="156"
       y="53.700001"
       class="st6"
       width="24"
       height="84"
       id="rect77"
       style="fill:none" /></g><g
     style="font-style:normal;font-variant:normal;font-weight:normal;font-stretch:normal;font-size:22.5px;line-height:125%;font-family:KaTeX_Main;-inkscape-font-specification:'KaTeX_Main, Normal';text-align:start;writing-mode:lr-tb;text-anchor:start"
     id="text79"><path
       d="m 12.1375,132.7128 q -0.2475,-0.2475 -0.45,-0.2925 -0.2025,-0.0675 -1.035,-0.09 l -0.6525,0 0,-1.035 0.2025,0 q 0.315,0.0675 2.79,0.0675 2.7,0 3.195,-0.0675 l 0.2475,0 0,1.035 -0.4725,0 q -1.035,0.0225 -1.2825,0.2475 -0.09,0.0675 -0.09,0.135 0,0.045 2.025,5.58 2.025,5.535 2.0475,5.535 0.8775,-2.3625 1.935,-5.22 1.9125,-5.175 1.9125,-5.3775 0,-0.4275 -0.4725,-0.6525 -0.4725,-0.2475 -1.035,-0.2475 l -0.1125,0 0,-1.035 0.2025,0 q 0.3825,0.0675 2.5875,0.0675 1.935,0 2.1825,-0.0675 l 0.135,0 0,1.035 -0.1575,0 q -1.665,0 -2.16,0.9225 0,0.0225 -2.5425,6.8625 -2.52,6.84 -2.5425,6.8625 -0.0675,0.18 -0.405,0.18 l -0.2025,0 -0.2025,0 q -0.315,0 -0.3825,-0.18 -0.045,-0.045 -2.6325,-7.1325 -2.6325,-7.065 -2.6325,-7.1325 z"
       style="font-style:normal;font-variant:normal;font-weight:normal;font-stretch:normal;font-size:22.5px;line-height:125%;font-family:KaTeX_Main;-inkscape-font-specification:'KaTeX_Main, Normal';text-align:start;writing-mode:lr-tb;text-anchor:start"
       id="path4305" /><path
       d="m 30.7225,137.3478 q -2.07,0 -2.07,1.4625 0,0.2925 0.045,0.3825 0.2025,0.54 0.6975,0.7875 0.495,0.225 1.53,0.4275 1.2825,0.225 1.755,0.495 1.4175,0.675 1.8225,2.2275 0.0225,0.135 0.0225,0.54 0,0.8775 -0.315,1.5525 -0.8775,1.665 -3.3075,1.665 -1.35,0 -2.34,-0.81 l -0.18,0.1575 -0.2025,0.2025 q -0.135,0.135 -0.27,0.2475 l -0.2475,0.225 -0.18,0 q -0.1575,0 -0.2925,-0.135 l 0,-1.7775 q 0,-1.4625 0,-1.6875 0.0225,-0.225 0.1125,-0.27 0.045,-0.0225 0.36,-0.0225 0.2925,0 0.3375,0.045 0.0675,0.045 0.135,0.315 0.18,0.855 0.585,1.5525 0.7875,1.1475 2.1825,1.1475 2.1825,0 2.1825,-1.755 0,-0.6525 -0.405,-1.0575 -0.36,-0.4275 -0.945,-0.6075 -0.3825,-0.09 -1.08,-0.2475 -1.26,-0.2475 -1.71,-0.4725 -1.485,-0.6975 -1.7325,-2.0925 -0.0225,-0.09 -0.0225,-0.3375 0,-2.5875 3.1725,-2.9025 0.09,-0.045 0.54,0 0.9,0 1.575,0.3375 l 0.3375,0.18 0.2025,-0.1575 q 0.2925,-0.2475 0.495,-0.3825 l 0.18,0 q 0.1575,0 0.2925,0.135 l 0,2.97 -0.135,0.135 -0.63,0 q -0.135,-0.135 -0.135,-0.27 0,-1.035 -0.63,-1.62 -0.63,-0.585 -1.7325,-0.585 z"
       style="font-style:normal;font-variant:normal;font-weight:normal;font-stretch:normal;font-size:22.5px;line-height:125%;font-family:KaTeX_Main;-inkscape-font-specification:'KaTeX_Main, Normal';text-align:start;writing-mode:lr-tb;text-anchor:start"
       id="path4307" /><path
       d="m 44.640508,146.6628 q -0.3825,-0.0675 -3.5775,-0.0675 -3.15,0 -3.5325,0.0675 l -0.27,0 0,-1.035 0.585,0 q 1.305,0 1.6875,-0.0675 0.18,-0.0225 0.54,-0.27 l 0,-11.6325 q -0.045,0 -0.18,0.0675 -1.035,0.405 -2.3175,0.4275 l -0.4275,0 0,-1.035 0.4275,0 q 1.89,-0.0675 3.15,-0.855 0.405,-0.225 0.6975,-0.5175 0.045,-0.0675 0.27,-0.0675 0.225,0 0.3825,0.135 l 0,6.7275 0.0225,6.75 q 0.3375,0.3375 1.4625,0.3375 l 0.7425,0 0.585,0 0,1.035 -0.2475,0 z"
       style="font-style:normal;font-variant:normal;font-weight:normal;font-stretch:normal;font-size:22.5px;line-height:125%;font-family:KaTeX_Main;-inkscape-font-specification:'KaTeX_Main, Normal';text-align:start;writing-mode:lr-tb;text-anchor:start"
       id="path4309" /></g><g
     style="font-style:normal;font-variant:normal;font-weight:normal;font-stretch:normal;font-size:22.5px;line-height:125%;font-family:KaTeX_Main;-inkscape-font-specification:'KaTeX_Main, Normal';text-align:start;writing-mode:lr-tb;text-anchor:start"
     id="text81"><path
       d="m 193.58412,93.124499 q -0.225,-0.225 -0.45,-0.27 -0.2025,-0.045 -1.125,-0.0675 l -0.7425,0 0,-1.035 3.9375,0 q 4.185,0.0225 4.6125,0.09 0.0675,0.0225 0.2925,0.0675 1.0125,0.2025 1.8,0.63 2.1375,1.08 2.4525,2.9475 0.0225,0.1125 0.0225,0.36 0,1.26 -0.9675,2.205 -0.945,0.945 -2.25,1.3725 -0.045,0.0225 -0.1125,0.045 -0.045,0 -0.09,0.0225 l -0.045,0.0225 q 0.0675,0.0675 0.2475,0.135 1.62,0.900001 2.0025,2.385001 0.0225,0.09 0.2475,1.485 0.225,1.395 0.2475,1.485 0.1575,0.81 0.3825,1.1925 0.2475,0.3825 0.63,0.5175 0.09,0.045 0.3825,0.045 l 0.1125,0 q 0.2925,0 0.54,-0.2475 0.45,-0.45 0.5175,-1.35 0,-0.2475 0.0675,-0.315 0.09,-0.09 0.3825,-0.09 0.27,0 0.36,0.0675 0.09,0.045 0.09,0.27 0,0.81 -0.405,1.485 -0.3825,0.6525 -0.945,0.9 -0.36,0.135 -0.945,0.135 -3.3525,-0.135 -3.87,-2.52 -0.045,-0.2475 -0.0675,-1.6425 0,-1.395 -0.135,-1.8675 -0.2025,-0.6075 -0.675,-1.035 -0.45,-0.45 -1.035,-0.630001 l -0.225,-0.045 -1.485,-0.0225 -1.485,0 0,2.947501 0.0225,2.9475 q 0.1575,0.225 0.3825,0.27 0.2475,0.045 1.17,0.0675 l 0.7425,0 0,1.035 -0.2475,0 q -0.36,-0.0675 -3.195,-0.0675 -2.8575,0 -3.2175,0.0675 l -0.2475,0 0,-1.035 0.7425,0 q 0.9225,-0.0225 1.125,-0.0675 0.225,-0.045 0.45,-0.27 l 0,-12.622501 z m 8.1,1.8675 q -0.225,-1.35 -1.215,-1.7775 -0.9675,-0.4275 -2.97,-0.4275 -0.3375,0 -0.765,0.0225 -0.4275,0 -0.45,0 -0.2925,0.0225 -0.36,0.18 -0.0675,0.09 -0.0675,3.06 l 0,2.97 1.305,0 q 1.6875,0 2.4975,-0.135 0.81,-0.1575 1.4175,-0.765 0.3825,-0.3825 0.495,-0.855 0.135,-0.4725 0.135,-1.3725 0,-0.72 -0.0225,-0.9 z"
       style="font-style:normal;font-variant:normal;font-weight:normal;font-stretch:normal;font-size:22.5px;line-height:125%;font-family:KaTeX_Main;-inkscape-font-specification:'KaTeX_Main, Normal';text-align:start;writing-mode:lr-tb;text-anchor:start"
       id="path4302" /></g><g
     id="g83"
     transform="translate(4.6587141,5.4)"><g
       id="g85"><line
         class="st12"
         x1="108"
         y1="11.7"
         x2="122.9"
         y2="11.7"
         id="line87"
         style="fill:none;stroke:#11accd;stroke-width:3;stroke-linecap:round;stroke-miterlimit:10" /><g
         id="g89"><path
           class="st13"
           d="m 132,11.7 c -4.3,1.6 -9.5,4.3 -12.8,7.1 l 2.6,-7.1 -2.6,-7.1 c 3.3,2.8 8.5,5.5 12.8,7.1 z"
           id="path91"
           inkscape:connector-curvature="0"
           style="fill:#11accd" /></g></g></g><g
     style="font-style:normal;font-variant:normal;font-weight:normal;font-stretch:normal;font-size:22.5px;line-height:125%;font-family:KaTeX_Math;-inkscape-font-specification:'KaTeX_Math, Normal';text-align:start;writing-mode:lr-tb;text-anchor:start;fill:#11accd"
     id="text93"><path
       d="m 118.1697,25.162807 q 0,-0.5175 0.4275,-0.945 0.4275,-0.4275 0.99,-0.4275 0.405,0 0.675,0.27 0.2925,0.27 0.2925,0.675 0,0.495 -0.45,0.945 -0.45,0.45 -0.99,0.45 -0.405,0 -0.675,-0.27 -0.27,-0.27 -0.27,-0.6975 z m -0.5175,13.7475 q -0.8775,0 -1.4175,-0.5175 -0.54,-0.5175 -0.54,-1.395 0,-0.3825 0.045,-0.5175 0,-0.045 1.035,-2.7675 1.035,-2.745 1.035,-2.79 0.1125,-0.36 0.1125,-0.81 0,-0.54 -0.3825,-0.54 l -0.045,0 q -0.54,0 -1.035,0.5175 -0.72,0.7425 -1.0575,2.115 0,0.0225 -0.0225,0.09 -0.0225,0.045 -0.045,0.0675 0,0 -0.0225,0.0225 -0.0225,0.0225 -0.09,0.0225 -0.045,0 -0.09,0 -0.045,0 -0.18,0 l -0.315,0 q -0.135,-0.135 -0.135,-0.2025 0,-0.0675 0.0675,-0.315 0.585,-1.935 1.71,-2.7 0.6075,-0.4725 1.305,-0.4725 0.9,0 1.485,0.5175 0.585,0.5175 0.585,1.395 0,0.2925 -0.1125,0.675 -0.0225,0.045 -1.035,2.7675 l -1.0125,2.7225 q -0.1125,0.495 -0.1125,0.72 0,0.5625 0.3825,0.5625 0.315,0 0.5625,-0.135 0.99,-0.4725 1.5525,-2.3625 0.0675,-0.27 0.1125,-0.315 0.0675,-0.045 0.3825,-0.045 0.2025,0 0.27,0.0225 0.09,0 0.135,0.045 0.045,0.045 0.045,0.1575 0,0.09 -0.0675,0.2925 -0.4275,1.2825 -1.2375,2.2275 -0.7875,0.945 -1.8675,0.945 z"
       style="font-style:normal;font-variant:normal;font-weight:normal;font-stretch:normal;font-size:22.5px;line-height:125%;font-family:KaTeX_Math;-inkscape-font-specification:'KaTeX_Math, Normal';text-align:start;writing-mode:lr-tb;text-anchor:start;fill:#11accd"
       id="path4297" /><path
       d="m 127.89202,43.162807 q -0.24862,-0.04387 -2.32537,-0.04387 -2.0475,0 -2.29613,0.04387 l -0.1755,0 0,-0.672749 0.38025,0 q 0.84825,0 1.09688,-0.04387 0.117,-0.01462 0.351,-0.1755 l 0,-7.561125 q -0.0293,0 -0.117,0.04387 -0.67275,0.26325 -1.50638,0.277875 l -0.27787,0 0,-0.67275 0.27787,0 q 1.2285,-0.04387 2.0475,-0.55575 0.26325,-0.14625 0.45338,-0.336375 0.0292,-0.04387 0.1755,-0.04387 0.14625,0 0.24862,0.08775 l 0,4.372875 0.0146,4.3875 q 0.21937,0.219375 0.95062,0.219375 l 0.48263,0 0.38025,0 0,0.672749 -0.16088,0 z"
       style="font-style:normal;font-variant:normal;font-weight:normal;font-stretch:normal;font-size:64.99999762%;line-height:125%;font-family:KaTeX_Main;-inkscape-font-specification:'KaTeX_Main, Normal';text-align:start;writing-mode:lr-tb;baseline-shift:sub;text-anchor:start"
       id="path4299" /></g><g
     id="g97"
     transform="translate(4.6587141,5.4)"><polyline
       class="st3"
       points="306,11.7 378,11.7 378,53.7  "
       id="polyline99"
       style="fill:none;stroke:#000000;stroke-linecap:round;stroke-miterlimit:10" /><polyline
       class="st3"
       points="306,179.7 378,179.7 378,137.7  "
       id="polyline101"
       style="fill:none;stroke:#000000;stroke-linecap:round;stroke-miterlimit:10" /><polyline
       class="st3"
       points="276,59.7 276,95.7 276,179.7 300,179.7  "
       id="polyline103"
       style="fill:none;stroke:#000000;stroke-linecap:round;stroke-miterlimit:10" /><line
       class="st5"
       x1="258"
       y1="41.700001"
       x2="294"
       y2="41.700001"
       id="line105"
       style="fill:none;stroke:#000000;stroke-width:2;stroke-linecap:round;stroke-miterlimit:10" /><line
       class="st5"
       x1="271.5"
       y1="47.700001"
       x2="280.5"
       y2="47.700001"
       id="line107"
       style="fill:none;stroke:#000000;stroke-width:2;stroke-linecap:round;stroke-miterlimit:10" /><line
       class="st5"
       x1="258"
       y1="54"
       x2="294"
       y2="54"
       id="line109"
       style="fill:none;stroke:#000000;stroke-width:2;stroke-linecap:round;stroke-miterlimit:10" /><line
       class="st5"
       x1="271.5"
       y1="59.700001"
       x2="280.5"
       y2="59.700001"
       id="line111"
       style="fill:none;stroke:#000000;stroke-width:2;stroke-linecap:round;stroke-miterlimit:10" /></g><g
     id="g113"
     transform="translate(4.6587141,5.4)"><line
       class="st0"
       x1="378"
       y1="72.300003"
       x2="378"
       y2="53.700001"
       id="line115"
       style="fill:none;stroke:#000000;stroke-linecap:round;stroke-linejoin:round;stroke-miterlimit:10" /><polyline
       class="st1"
       points="378,119.1 369,115.2 387,107.4 369,99.6 387,91.8 369,84 387,76.2 378,72.3  "
       id="polyline117"
       style="fill:none;stroke:#000000;stroke-width:2;stroke-linecap:round;stroke-linejoin:round;stroke-miterlimit:10" /><line
       class="st0"
       x1="378"
       y1="137.7"
       x2="378"
       y2="119.1"
       id="line119"
       style="fill:none;stroke:#000000;stroke-linecap:round;stroke-linejoin:round;stroke-miterlimit:10" /><rect
       x="366"
       y="53.700001"
       class="st6"
       width="24"
       height="84"
       id="rect121"
       style="fill:none" /></g><g
     style="font-style:normal;font-variant:normal;font-weight:normal;font-stretch:normal;font-size:22.5px;line-height:125%;font-family:KaTeX_Main;-inkscape-font-specification:'KaTeX_Main, Normal';text-align:start;writing-mode:lr-tb;text-anchor:start"
     id="text123"><path
       d="m 222.13749,48.712811 q -0.2475,-0.2475 -0.45,-0.2925 -0.2025,-0.0675 -1.035,-0.09 l -0.6525,0 0,-1.035 0.2025,0 q 0.315,0.0675 2.79,0.0675 2.7,0 3.195,-0.0675 l 0.2475,0 0,1.035 -0.4725,0 q -1.035,0.0225 -1.2825,0.2475 -0.09,0.0675 -0.09,0.135 0,0.045 2.025,5.58 2.025,5.535 2.0475,5.535 0.8775,-2.3625 1.935,-5.22 1.9125,-5.175 1.9125,-5.3775 0,-0.4275 -0.4725,-0.6525 -0.4725,-0.2475 -1.035,-0.2475 l -0.1125,0 0,-1.035 0.2025,0 q 0.3825,0.0675 2.5875,0.0675 1.935,0 2.1825,-0.0675 l 0.135,0 0,1.035 -0.1575,0 q -1.665,0 -2.16,0.9225 0,0.0225 -2.5425,6.8625 -2.52,6.84 -2.5425,6.8625 -0.0675,0.18 -0.405,0.18 l -0.2025,0 -0.2025,0 q -0.315,0 -0.3825,-0.18 -0.045,-0.045 -2.6325,-7.1325 -2.6325,-7.065 -2.6325,-7.1325 z"
       style="font-style:normal;font-variant:normal;font-weight:normal;font-stretch:normal;font-size:22.5px;line-height:125%;font-family:KaTeX_Main;-inkscape-font-specification:'KaTeX_Main, Normal';text-align:start;writing-mode:lr-tb;text-anchor:start"
       id="path4290" /><path
       d="m 240.72249,53.347811 q -2.07,0 -2.07,1.4625 0,0.2925 0.045,0.3825 0.2025,0.54 0.6975,0.7875 0.495,0.225 1.53,0.4275 1.2825,0.225 1.755,0.495 1.4175,0.675 1.8225,2.2275 0.0225,0.135 0.0225,0.54 0,0.8775 -0.315,1.5525 -0.8775,1.665 -3.3075,1.665 -1.35,0 -2.34,-0.81 l -0.18,0.1575 -0.2025,0.2025 q -0.135,0.135 -0.27,0.2475 l -0.2475,0.225 -0.18,0 q -0.1575,0 -0.2925,-0.135 l 0,-1.7775 q 0,-1.4625 0,-1.6875 0.0225,-0.225 0.1125,-0.27 0.045,-0.0225 0.36,-0.0225 0.2925,0 0.3375,0.045 0.0675,0.045 0.135,0.315 0.18,0.855 0.585,1.5525 0.7875,1.1475 2.1825,1.1475 2.1825,0 2.1825,-1.755 0,-0.6525 -0.405,-1.0575 -0.36,-0.4275 -0.945,-0.6075 -0.3825,-0.09 -1.08,-0.2475 -1.26,-0.2475 -1.71,-0.4725 -1.485,-0.6975 -1.7325,-2.0925 -0.0225,-0.09 -0.0225,-0.3375 0,-2.5875 3.1725,-2.9025 0.09,-0.045 0.54,0 0.9,0 1.575,0.3375 l 0.3375,0.18 0.2025,-0.1575 q 0.2925,-0.2475 0.495,-0.3825 l 0.18,0 q 0.1575,0 0.2925,0.135 l 0,2.97 -0.135,0.135 -0.63,0 q -0.135,-0.135 -0.135,-0.27 0,-1.035 -0.63,-1.62 -0.63,-0.585 -1.7325,-0.585 z"
       style="font-style:normal;font-variant:normal;font-weight:normal;font-stretch:normal;font-size:22.5px;line-height:125%;font-family:KaTeX_Main;-inkscape-font-specification:'KaTeX_Main, Normal';text-align:start;writing-mode:lr-tb;text-anchor:start"
       id="path4292" /><path
       d="m 247.7555,53.010311 q -0.63,0 -0.99,-0.405 -0.36,-0.405 -0.36,-0.99 0,-1.62 1.215,-2.7675 1.2375,-1.17 2.9475,-1.17 1.935,0 3.195,1.0575 1.2825,1.035 1.575,2.7225 0.045,0.405 0.045,0.7425 0,1.305 -0.7875,2.4525 -0.63,0.945 -2.5425,2.5875 -0.81,0.6975 -2.25,2.07 l -1.3275,1.26 1.71,0.0225 q 3.5325,0 3.7575,-0.1125 0.09,-0.0225 0.225,-0.4725 0.09,-0.2475 0.315,-1.53 l 0,-0.0675 0.9,0 0,0.0675 -0.63,4.1175 0,0.0675 -8.3475,0 0,-0.4275 q 0,-0.45 0.045,-0.5175 0.0225,-0.0225 1.89,-2.1375 2.4525,-2.7225 3.15,-3.6 1.5075,-2.0475 1.5075,-3.7575 0,-1.485 -0.7875,-2.475 -0.765,-1.0125 -2.16,-1.0125 -1.305,0 -2.115,1.17 -0.045,0.09 -0.135,0.2475 -0.0675,0.1125 -0.0675,0.135 0,0.0225 0.1125,0.0225 0.5625,0 0.9,0.405 0.36,0.405 0.36,0.945 0,0.5625 -0.3825,0.9675 -0.36,0.3825 -0.9675,0.3825 z"
       style="font-style:normal;font-variant:normal;font-weight:normal;font-stretch:normal;font-size:22.5px;line-height:125%;font-family:KaTeX_Main;-inkscape-font-specification:'KaTeX_Main, Normal';text-align:start;writing-mode:lr-tb;text-anchor:start"
       id="path4294" /></g><g
     style="font-style:normal;font-variant:normal;font-weight:normal;font-stretch:normal;font-size:22.5px;line-height:125%;font-family:KaTeX_Main;-inkscape-font-specification:'KaTeX_Main, Normal';text-align:start;writing-mode:lr-tb;text-anchor:start"
     id="text125"><path
       d="m 403.58412,93.124499 q -0.225,-0.225 -0.45,-0.27 -0.2025,-0.045 -1.125,-0.0675 l -0.7425,0 0,-1.035 3.9375,0 q 4.185,0.0225 4.6125,0.09 0.0675,0.0225 0.2925,0.0675 1.0125,0.2025 1.8,0.63 2.1375,1.08 2.4525,2.9475 0.0225,0.1125 0.0225,0.36 0,1.26 -0.9675,2.205 -0.945,0.945 -2.25,1.3725 -0.045,0.0225 -0.1125,0.045 -0.045,0 -0.09,0.0225 l -0.045,0.0225 q 0.0675,0.0675 0.2475,0.135 1.62,0.900001 2.0025,2.385001 0.0225,0.09 0.2475,1.485 0.225,1.395 0.2475,1.485 0.1575,0.81 0.3825,1.1925 0.2475,0.3825 0.63,0.5175 0.09,0.045 0.3825,0.045 l 0.1125,0 q 0.2925,0 0.54,-0.2475 0.45,-0.45 0.5175,-1.35 0,-0.2475 0.0675,-0.315 0.09,-0.09 0.3825,-0.09 0.27,0 0.36,0.0675 0.09,0.045 0.09,0.27 0,0.81 -0.405,1.485 -0.3825,0.6525 -0.945,0.9 -0.36,0.135 -0.945,0.135 -3.3525,-0.135 -3.87,-2.52 -0.045,-0.2475 -0.0675,-1.6425 0,-1.395 -0.135,-1.8675 -0.2025,-0.6075 -0.675,-1.035 -0.45,-0.45 -1.035,-0.630001 l -0.225,-0.045 -1.485,-0.0225 -1.485,0 0,2.947501 0.0225,2.9475 q 0.1575,0.225 0.3825,0.27 0.2475,0.045 1.17,0.0675 l 0.7425,0 0,1.035 -0.2475,0 q -0.36,-0.0675 -3.195,-0.0675 -2.8575,0 -3.2175,0.0675 l -0.2475,0 0,-1.035 0.7425,0 q 0.9225,-0.0225 1.125,-0.0675 0.225,-0.045 0.45,-0.27 l 0,-12.622501 z m 8.1,1.8675 q -0.225,-1.35 -1.215,-1.7775 -0.9675,-0.4275 -2.97,-0.4275 -0.3375,0 -0.765,0.0225 -0.4275,0 -0.45,0 -0.2925,0.0225 -0.36,0.18 -0.0675,0.09 -0.0675,3.06 l 0,2.97 1.305,0 q 1.6875,0 2.4975,-0.135 0.81,-0.1575 1.4175,-0.765 0.3825,-0.3825 0.495,-0.855 0.135,-0.4725 0.135,-1.3725 0,-0.72 -0.0225,-0.9 z"
       style="font-style:normal;font-variant:normal;font-weight:normal;font-stretch:normal;font-size:22.5px;line-height:125%;font-family:KaTeX_Main;-inkscape-font-specification:'KaTeX_Main, Normal';text-align:start;writing-mode:lr-tb;text-anchor:start"
       id="path4287" /></g><g
     id="g127"
     transform="translate(4.6587141,5.4)"><g
       id="g129"><line
         class="st12"
         x1="318"
         y1="11.7"
         x2="332.89999"
         y2="11.7"
         id="line131"
         style="fill:none;stroke:#11accd;stroke-width:3;stroke-linecap:round;stroke-miterlimit:10" /><g
         id="g133"><path
           class="st13"
           d="m 342,11.7 c -4.3,1.6 -9.5,4.3 -12.8,7.1 l 2.6,-7.1 -2.6,-7.1 c 3.3,2.8 8.5,5.5 12.8,7.1 z"
           id="path135"
           inkscape:connector-curvature="0"
           style="fill:#11accd" /></g></g></g><g
     style="font-style:normal;font-variant:normal;font-weight:normal;font-stretch:normal;font-size:22.5px;line-height:125%;font-family:KaTeX_Math;-inkscape-font-specification:'KaTeX_Math, Normal';text-align:start;writing-mode:lr-tb;text-anchor:start;fill:#11accd"
     id="text137"><path
       d="m 328.16969,25.162807 q 0,-0.5175 0.4275,-0.945 0.4275,-0.4275 0.99,-0.4275 0.405,0 0.675,0.27 0.2925,0.27 0.2925,0.675 0,0.495 -0.45,0.945 -0.45,0.45 -0.99,0.45 -0.405,0 -0.675,-0.27 -0.27,-0.27 -0.27,-0.6975 z m -0.5175,13.7475 q -0.8775,0 -1.4175,-0.5175 -0.54,-0.5175 -0.54,-1.395 0,-0.3825 0.045,-0.5175 0,-0.045 1.035,-2.7675 1.035,-2.745 1.035,-2.79 0.1125,-0.36 0.1125,-0.81 0,-0.54 -0.3825,-0.54 l -0.045,0 q -0.54,0 -1.035,0.5175 -0.72,0.7425 -1.0575,2.115 0,0.0225 -0.0225,0.09 -0.0225,0.045 -0.045,0.0675 0,0 -0.0225,0.0225 -0.0225,0.0225 -0.09,0.0225 -0.045,0 -0.09,0 -0.045,0 -0.18,0 l -0.315,0 q -0.135,-0.135 -0.135,-0.2025 0,-0.0675 0.0675,-0.315 0.585,-1.935 1.71,-2.7 0.6075,-0.4725 1.305,-0.4725 0.9,0 1.485,0.5175 0.585,0.5175 0.585,1.395 0,0.2925 -0.1125,0.675 -0.0225,0.045 -1.035,2.7675 l -1.0125,2.7225 q -0.1125,0.495 -0.1125,0.72 0,0.5625 0.3825,0.5625 0.315,0 0.5625,-0.135 0.99,-0.4725 1.5525,-2.3625 0.0675,-0.27 0.1125,-0.315 0.0675,-0.045 0.3825,-0.045 0.2025,0 0.27,0.0225 0.09,0 0.135,0.045 0.045,0.045 0.045,0.1575 0,0.09 -0.0675,0.2925 -0.4275,1.2825 -1.2375,2.2275 -0.7875,0.945 -1.8675,0.945 z"
       style="font-style:normal;font-variant:normal;font-weight:normal;font-stretch:normal;font-size:22.5px;line-height:125%;font-family:KaTeX_Math;-inkscape-font-specification:'KaTeX_Math, Normal';text-align:start;writing-mode:lr-tb;text-anchor:start;fill:#11accd"
       id="path4282" /><path
       d="m 333.41676,36.888683 q -0.4095,0 -0.6435,-0.26325 -0.234,-0.26325 -0.234,-0.6435 0,-1.053 0.78975,-1.798875 0.80438,-0.7605 1.91588,-0.7605 1.25775,0 2.07675,0.687375 0.83362,0.67275 1.02375,1.769625 0.0292,0.26325 0.0292,0.482625 0,0.84825 -0.51188,1.594125 -0.4095,0.61425 -1.65262,1.681875 -0.5265,0.453375 -1.4625,1.3455 l -0.86288,0.819 1.1115,0.01462 q 2.29613,0 2.44238,-0.07312 0.0585,-0.01463 0.14625,-0.307125 0.0585,-0.160875 0.20475,-0.9945 l 0,-0.04387 0.585,0 0,0.04387 -0.4095,2.676374 0,0.04387 -5.42588,0 0,-0.277875 q 0,-0.292499 0.0292,-0.336374 0.0146,-0.01463 1.2285,-1.389375 1.59413,-1.769625 2.0475,-2.34 0.97988,-1.330875 0.97988,-2.442375 0,-0.96525 -0.51188,-1.60875 -0.49725,-0.658125 -1.404,-0.658125 -0.84825,0 -1.37475,0.7605 -0.0292,0.0585 -0.0877,0.160875 -0.0439,0.07312 -0.0439,0.08775 0,0.01462 0.0731,0.01462 0.36563,0 0.585,0.26325 0.234,0.26325 0.234,0.61425 0,0.365625 -0.24862,0.628875 -0.234,0.248625 -0.62888,0.248625 z"
       style="font-style:normal;font-variant:normal;font-weight:normal;font-stretch:normal;font-size:64.99999762%;line-height:125%;font-family:KaTeX_Main;-inkscape-font-specification:'KaTeX_Main, Normal';text-align:start;writing-mode:lr-tb;baseline-shift:sub;text-anchor:start"
       id="path4284" /></g><polyline
     class="st3"
     points="66,143.7 66,179.7 90,179.7 "
     id="polyline141"
     style="fill:none;stroke:#000000;stroke-linecap:round;stroke-miterlimit:10"
     transform="translate(4.6587141,5.4)" /><polyline
     class="st3"
     points="276,41.7 276,11.7 300,11.7 "
     id="polyline143"
     style="fill:none;stroke:#000000;stroke-linecap:round;stroke-miterlimit:10"
     transform="translate(4.6587141,5.4)" /></svg>