<?xml version="1.0" encoding="UTF-8" standalone="no"?>
<!-- Generator: Adobe Illustrator 19.1.0, SVG Export Plug-In . SVG Version: 6.00 Build 0)  -->

<svg
   xmlns:dc="http://purl.org/dc/elements/1.1/"
   xmlns:cc="http://creativecommons.org/ns#"
   xmlns:rdf="http://www.w3.org/1999/02/22-rdf-syntax-ns#"
   xmlns:svg="http://www.w3.org/2000/svg"
   xmlns="http://www.w3.org/2000/svg"
   xmlns:sodipodi="http://sodipodi.sourceforge.net/DTD/sodipodi-0.dtd"
   xmlns:inkscape="http://www.inkscape.org/namespaces/inkscape"
   version="1.1"
   id="Layer_1"
   x="0px"
   y="0px"
   width="242.50713"
   height="152.91071"
   viewBox="0 0 242.50713 152.91071"
   xml:space="preserve"
   inkscape:version="0.91 r13725"
   sodipodi:docname="superposition7.svg"><metadata
     id="metadata107"><rdf:RDF><cc:Work
         rdf:about=""><dc:format>image/svg+xml</dc:format><dc:type
           rdf:resource="http://purl.org/dc/dcmitype/StillImage" /><dc:title></dc:title></cc:Work></rdf:RDF></metadata><defs
     id="defs105" /><sodipodi:namedview
     pagecolor="#ffffff"
     bordercolor="#666666"
     borderopacity="1"
     objecttolerance="10"
     gridtolerance="10"
     guidetolerance="10"
     inkscape:pageopacity="0"
     inkscape:pageshadow="2"
     inkscape:window-width="640"
     inkscape:window-height="480"
     id="namedview103"
     showgrid="false"
     fit-margin-top="10"
     fit-margin-right="10"
     fit-margin-bottom="10"
     fit-margin-left="10"
     inkscape:zoom="2.4042553"
     inkscape:cx="109"
     inkscape:cy="76"
     inkscape:current-layer="Layer_1" /><style
     type="text/css"
     id="style3">
	.st0{fill:none;stroke:#000000;stroke-linecap:round;stroke-linejoin:round;stroke-miterlimit:10;}
	.st1{fill:none;stroke:#000000;stroke-width:2;stroke-linecap:round;stroke-linejoin:round;stroke-miterlimit:10;}
	.st2{fill:none;stroke:#000000;stroke-width:2;stroke-miterlimit:10;}
	.st3{fill:none;stroke:#000000;stroke-linecap:round;stroke-miterlimit:10;}
	.st4{fill:none;stroke:#000000;stroke-width:1.5;stroke-miterlimit:10;}
	.st5{fill:none;stroke:#000000;stroke-width:2;stroke-linecap:round;stroke-miterlimit:10;}
	.st6{fill:none;}
	.st7{stroke:#000000;stroke-linecap:round;stroke-linejoin:round;stroke-miterlimit:10;}
	.st8{fill:none;stroke:#000000;stroke-miterlimit:10;}
	.st9{fill:#FFFFFF;stroke:#000000;stroke-miterlimit:10;}
	.st10{fill:none;stroke:#000000;stroke-linejoin:round;stroke-miterlimit:10;}
	.st11{fill:none;stroke:#000000;stroke-linejoin:round;}
	.st12{fill:none;stroke:#11ACCD;stroke-width:3;stroke-linecap:round;stroke-miterlimit:10;}
	.st13{fill:#11ACCD;}
	.st14{fill:#E07D10;}
	.st15{fill:#FF9C39;}
	.st16{font-family:'KaTeX_Main-Regular';}
	.st17{font-size:18px;}
	.st18{font-family:'KaTeX_Main-Italic';}
	.st19{fill:none;stroke:#E07D10;stroke-width:2;stroke-linecap:round;stroke-miterlimit:10;}
	.st20{fill:none;stroke:#000000;stroke-width:4;stroke-linecap:round;stroke-miterlimit:10;}
</style><g
     id="g5"
     transform="translate(-32,4.9107072)"><circle
       class="st7"
       cx="48"
       cy="72"
       r="1.5"
       id="circle7"
       style="stroke:#000000;stroke-linecap:round;stroke-linejoin:round;stroke-miterlimit:10" /><rect
       x="42"
       y="66"
       class="st6"
       width="12"
       height="12"
       id="rect9"
       style="fill:none" /></g><g
     id="g11"
     transform="translate(-32,4.9107072)"><circle
       class="st7"
       cx="48"
       cy="108"
       r="1.5"
       id="circle13"
       style="stroke:#000000;stroke-linecap:round;stroke-linejoin:round;stroke-miterlimit:10" /><rect
       x="42"
       y="102"
       class="st6"
       width="12"
       height="12"
       id="rect15"
       style="fill:none" /></g><g
     id="g17"
     transform="translate(-32,4.9107072)"><polyline
       class="st3"
       points="162,78 162,48 162,36  "
       id="polyline19"
       style="fill:none;stroke:#000000;stroke-linecap:round;stroke-miterlimit:10" /><line
       class="st3"
       x1="162"
       y1="96"
       x2="162"
       y2="132"
       id="line21"
       style="fill:none;stroke:#000000;stroke-linecap:round;stroke-miterlimit:10" /><line
       class="st5"
       x1="144"
       y1="78"
       x2="180"
       y2="78"
       id="line23"
       style="fill:none;stroke:#000000;stroke-width:2;stroke-linecap:round;stroke-miterlimit:10" /><line
       class="st5"
       x1="157.5"
       y1="84"
       x2="166.5"
       y2="84"
       id="line25"
       style="fill:none;stroke:#000000;stroke-width:2;stroke-linecap:round;stroke-miterlimit:10" /><line
       class="st5"
       x1="144"
       y1="90.199997"
       x2="180"
       y2="90.199997"
       id="line27"
       style="fill:none;stroke:#000000;stroke-width:2;stroke-linecap:round;stroke-miterlimit:10" /><line
       class="st5"
       x1="157.5"
       y1="96"
       x2="166.5"
       y2="96"
       id="line29"
       style="fill:none;stroke:#000000;stroke-width:2;stroke-linecap:round;stroke-miterlimit:10" /></g><g
     id="g31"
     transform="translate(-32,4.9107072)"><line
       class="st0"
       x1="245.39999"
       y1="36"
       x2="264"
       y2="36"
       id="line33"
       style="fill:none;stroke:#000000;stroke-linecap:round;stroke-linejoin:round;stroke-miterlimit:10" /><polyline
       class="st1"
       points="198.6,36 202.5,27 210.3,45 218.1,27 225.9,45 233.7,27 241.5,45 245.4,36  "
       id="polyline35"
       style="fill:none;stroke:#000000;stroke-width:2;stroke-linecap:round;stroke-linejoin:round;stroke-miterlimit:10" /><line
       class="st0"
       x1="180"
       y1="36"
       x2="198.60001"
       y2="36"
       id="line37"
       style="fill:none;stroke:#000000;stroke-linecap:round;stroke-linejoin:round;stroke-miterlimit:10" /><rect
       x="180"
       y="24"
       class="st6"
       width="84"
       height="24"
       id="rect39"
       style="fill:none" /></g><g
     id="g41"
     transform="translate(-32,4.9107072)"><line
       class="st0"
       x1="125.4"
       y1="36"
       x2="144"
       y2="36"
       id="line43"
       style="fill:none;stroke:#000000;stroke-linecap:round;stroke-linejoin:round;stroke-miterlimit:10" /><polyline
       class="st1"
       points="78.6,36 82.5,27 90.3,45 98.1,27 105.9,45 113.7,27 121.5,45 125.4,36  "
       id="polyline45"
       style="fill:none;stroke:#000000;stroke-width:2;stroke-linecap:round;stroke-linejoin:round;stroke-miterlimit:10" /><line
       class="st0"
       x1="60"
       y1="36"
       x2="78.599998"
       y2="36"
       id="line47"
       style="fill:none;stroke:#000000;stroke-linecap:round;stroke-linejoin:round;stroke-miterlimit:10" /><rect
       x="60"
       y="24"
       class="st6"
       width="84"
       height="24"
       id="rect49"
       style="fill:none" /></g><g
     id="g51"
     transform="translate(-32,4.9107072)"><circle
       class="st7"
       cx="162"
       cy="36"
       r="1.5"
       id="circle53"
       style="stroke:#000000;stroke-linecap:round;stroke-linejoin:round;stroke-miterlimit:10" /><rect
       x="156"
       y="30"
       class="st6"
       width="12"
       height="12"
       id="rect55"
       style="fill:none" /></g><g
     id="g57"
     transform="translate(-32,4.9107072)"><circle
       class="st7"
       cx="162"
       cy="132"
       r="1.5"
       id="circle59"
       style="stroke:#000000;stroke-linecap:round;stroke-linejoin:round;stroke-miterlimit:10" /><rect
       x="156"
       y="126"
       class="st6"
       width="12"
       height="12"
       id="rect61"
       style="fill:none" /></g><g
     style="font-style:normal;font-variant:normal;font-weight:normal;font-stretch:normal;font-size:22.5px;line-height:125%;font-family:KaTeX_Main;-inkscape-font-specification:'KaTeX_Main, Normal';text-align:start;writing-mode:lr-tb;text-anchor:start"
     id="text63"><path
       d="m 83.478292,86.960797 q -0.2475,-0.2475 -0.45,-0.2925 -0.2025,-0.0675 -1.035,-0.09 l -0.6525,0 0,-1.035 0.2025,0 q 0.315,0.0675 2.79,0.0675 2.7,0 3.195,-0.0675 l 0.2475,0 0,1.035 -0.4725,0 q -1.035,0.0225 -1.2825,0.2475 -0.09,0.0675 -0.09,0.135 0,0.045 2.025,5.58 2.025,5.535 2.0475,5.535 0.8775,-2.3625 1.935,-5.22 1.9125,-5.175 1.9125,-5.3775 0,-0.4275 -0.4725,-0.6525 -0.4725,-0.2475 -1.035,-0.2475 l -0.1125,0 0,-1.035 0.2025,0 q 0.3825,0.0675 2.5875,0.0675 1.935,0 2.1825,-0.0675 l 0.135,0 0,1.035 -0.1575,0 q -1.665,0 -2.16,0.9225 0,0.0225 -2.5425,6.8625 -2.52,6.840003 -2.5425,6.862503 -0.0675,0.18 -0.405,0.18 l -0.2025,0 -0.2025,0 q -0.315,0 -0.3825,-0.18 -0.045,-0.045 -2.6325,-7.132503 -2.6325,-7.065 -2.6325,-7.1325 z"
       style="font-style:normal;font-variant:normal;font-weight:normal;font-stretch:normal;font-size:22.5px;line-height:125%;font-family:KaTeX_Main;-inkscape-font-specification:'KaTeX_Main, Normal';text-align:start;writing-mode:lr-tb;text-anchor:start"
       id="path4268" /><path
       d="m 102.06329,91.595797 q -2.069998,0 -2.069998,1.4625 0,0.2925 0.045,0.3825 0.2025,0.54 0.6975,0.7875 0.495,0.225 1.53,0.4275 1.2825,0.225 1.755,0.495 1.4175,0.675 1.8225,2.2275 0.0225,0.135 0.0225,0.54 0,0.8775 -0.315,1.5525 -0.8775,1.665003 -3.3075,1.665003 -1.35,0 -2.339998,-0.81 l -0.18,0.1575 -0.2025,0.2025 q -0.135,0.135 -0.27,0.2475 l -0.2475,0.225 -0.18,0 q -0.1575,0 -0.2925,-0.135 l 0,-1.777503 q 0,-1.4625 0,-1.6875 0.0225,-0.225 0.1125,-0.27 0.045,-0.0225 0.36,-0.0225 0.2925,0 0.3375,0.045 0.0675,0.045 0.135,0.315 0.18,0.855 0.584998,1.5525 0.7875,1.147503 2.1825,1.147503 2.1825,0 2.1825,-1.755003 0,-0.6525 -0.405,-1.0575 -0.36,-0.4275 -0.945,-0.6075 -0.3825,-0.09 -1.08,-0.2475 -1.26,-0.2475 -1.71,-0.4725 -1.484998,-0.6975 -1.732498,-2.0925 -0.0225,-0.09 -0.0225,-0.3375 0,-2.5875 3.172498,-2.9025 0.09,-0.045 0.54,0 0.9,0 1.575,0.3375 l 0.3375,0.18 0.2025,-0.1575 q 0.2925,-0.2475 0.495,-0.3825 l 0.18,0 q 0.1575,0 0.2925,0.135 l 0,2.97 -0.135,0.135 -0.63,0 q -0.135,-0.135 -0.135,-0.27 0,-1.035 -0.63,-1.62 -0.63,-0.585 -1.7325,-0.585 z"
       style="font-style:normal;font-variant:normal;font-weight:normal;font-stretch:normal;font-size:22.5px;line-height:125%;font-family:KaTeX_Main;-inkscape-font-specification:'KaTeX_Main, Normal';text-align:start;writing-mode:lr-tb;text-anchor:start"
       id="path4270" /></g><g
     style="font-style:normal;font-variant:normal;font-weight:normal;font-stretch:normal;font-size:22.5px;line-height:125%;font-family:KaTeX_Main;-inkscape-font-specification:'KaTeX_Main, Normal';text-align:start;writing-mode:lr-tb;text-anchor:start"
     id="text65"><path
       d="m 56.814648,11.3725 q -0.225,-0.225 -0.45,-0.27 -0.2025,-0.045 -1.125,-0.0675 l -0.7425,0 0,-1.035 3.9375,0 q 4.185,0.0225 4.6125,0.09 0.0675,0.0225 0.2925,0.0675 1.0125,0.2025 1.8,0.63 2.1375,1.08 2.4525,2.9475 0.0225,0.1125 0.0225,0.36 0,1.26 -0.9675,2.205 -0.945,0.945 -2.25,1.3725 -0.045,0.0225 -0.1125,0.045 -0.045,0 -0.09,0.0225 l -0.045,0.0225 q 0.0675,0.0675 0.2475,0.135 1.62,0.9 2.0025,2.385 0.0225,0.09 0.2475,1.485 0.225,1.395 0.2475,1.485 0.1575,0.81 0.3825,1.1925 0.2475,0.3825 0.63,0.5175 0.09,0.045 0.3825,0.045 l 0.1125,0 q 0.2925,0 0.54,-0.2475 0.45,-0.45 0.5175,-1.35 0,-0.2475 0.0675,-0.315 0.09,-0.09 0.3825,-0.09 0.27,0 0.36,0.0675 0.09,0.045 0.09,0.27 0,0.81 -0.405,1.485 -0.3825,0.6525 -0.945,0.9 -0.36,0.135 -0.945,0.135 -3.3525,-0.135 -3.87,-2.52 -0.045,-0.2475 -0.0675,-1.6425 0,-1.395 -0.135,-1.8675 -0.2025,-0.6075 -0.675,-1.035 -0.45,-0.45 -1.035,-0.63 l -0.225,-0.045 -1.485,-0.0225 -1.485,0 0,2.9475 0.0225,2.9475 q 0.1575,0.225 0.3825,0.27 0.2475,0.045 1.17,0.0675 l 0.7425,0 0,1.035 -0.2475,0 q -0.36,-0.0675 -3.195,-0.0675 -2.8575,0 -3.2175,0.0675 l -0.2475,0 0,-1.035 0.7425,0 q 0.9225,-0.0225 1.125,-0.0675 0.225,-0.045 0.45,-0.27 l 0,-12.6225 z m 8.1,1.8675 q -0.225,-1.35 -1.215,-1.7775 -0.9675,-0.4275 -2.97,-0.4275 -0.3375,0 -0.765,0.0225 -0.4275,0 -0.45,0 -0.2925,0.0225 -0.36,0.18 -0.0675,0.09 -0.0675,3.06 l 0,2.97 1.305,0 q 1.6875,0 2.4975,-0.135 0.81,-0.1575 1.4175,-0.765 0.3825,-0.3825 0.495,-0.855 0.135,-0.4725 0.135,-1.3725 0,-0.72 -0.0225,-0.9 z"
       style="font-style:normal;font-variant:normal;font-weight:normal;font-stretch:normal;font-size:22.5px;line-height:125%;font-family:KaTeX_Main;-inkscape-font-specification:'KaTeX_Main, Normal';text-align:start;writing-mode:lr-tb;text-anchor:start"
       id="path4263" /><path
       d="m 79.817031,25.3675 q -0.3825,-0.0675 -3.5775,-0.0675 -3.15,0 -3.5325,0.0675 l -0.27,0 0,-1.035 0.585,0 q 1.305,0 1.6875,-0.0675 0.18,-0.0225 0.54,-0.27 l 0,-11.6325 q -0.045,0 -0.18,0.0675 -1.035,0.405 -2.3175,0.4275 l -0.4275,0 0,-1.035 0.4275,0 q 1.89,-0.0675 3.15,-0.855 0.405,-0.225 0.6975,-0.5175 0.045,-0.0675 0.27,-0.0675 0.225,0 0.3825,0.135 l 0,6.7275 0.0225,6.75 q 0.3375,0.3375 1.4625,0.3375 l 0.7425,0 0.585,0 0,1.035 -0.2475,0 z"
       style="font-style:normal;font-variant:normal;font-weight:normal;font-stretch:normal;font-size:22.5px;line-height:125%;font-family:KaTeX_Main;-inkscape-font-specification:'KaTeX_Main, Normal';text-align:start;writing-mode:lr-tb;text-anchor:start"
       id="path4265" /></g><g
     style="font-style:normal;font-variant:normal;font-weight:normal;font-stretch:normal;font-size:22.5px;line-height:125%;font-family:KaTeX_Main;-inkscape-font-specification:'KaTeX_Main, Normal';text-align:start;writing-mode:lr-tb;text-anchor:start"
     id="text67"><path
       d="m 176.81465,11.3725 q -0.225,-0.225 -0.45,-0.27 -0.2025,-0.045 -1.125,-0.0675 l -0.7425,0 0,-1.035 3.9375,0 q 4.185,0.0225 4.6125,0.09 0.0675,0.0225 0.2925,0.0675 1.0125,0.2025 1.8,0.63 2.1375,1.08 2.4525,2.9475 0.0225,0.1125 0.0225,0.36 0,1.26 -0.9675,2.205 -0.945,0.945 -2.25,1.3725 -0.045,0.0225 -0.1125,0.045 -0.045,0 -0.09,0.0225 l -0.045,0.0225 q 0.0675,0.0675 0.2475,0.135 1.62,0.9 2.0025,2.385 0.0225,0.09 0.2475,1.485 0.225,1.395 0.2475,1.485 0.1575,0.81 0.3825,1.1925 0.2475,0.3825 0.63,0.5175 0.09,0.045 0.3825,0.045 l 0.1125,0 q 0.2925,0 0.54,-0.2475 0.45,-0.45 0.5175,-1.35 0,-0.2475 0.0675,-0.315 0.09,-0.09 0.3825,-0.09 0.27,0 0.36,0.0675 0.09,0.045 0.09,0.27 0,0.81 -0.405,1.485 -0.3825,0.6525 -0.945,0.9 -0.36,0.135 -0.945,0.135 -3.3525,-0.135 -3.87,-2.52 -0.045,-0.2475 -0.0675,-1.6425 0,-1.395 -0.135,-1.8675 -0.2025,-0.6075 -0.675,-1.035 -0.45,-0.45 -1.035,-0.63 l -0.225,-0.045 -1.485,-0.0225 -1.485,0 0,2.9475 0.0225,2.9475 q 0.1575,0.225 0.3825,0.27 0.2475,0.045 1.17,0.0675 l 0.7425,0 0,1.035 -0.2475,0 q -0.36,-0.0675 -3.195,-0.0675 -2.8575,0 -3.2175,0.0675 l -0.2475,0 0,-1.035 0.7425,0 q 0.9225,-0.0225 1.125,-0.0675 0.225,-0.045 0.45,-0.27 l 0,-12.6225 z m 8.1,1.8675 q -0.225,-1.35 -1.215,-1.7775 -0.9675,-0.4275 -2.97,-0.4275 -0.3375,0 -0.765,0.0225 -0.4275,0 -0.45,0 -0.2925,0.0225 -0.36,0.18 -0.0675,0.09 -0.0675,3.06 l 0,2.97 1.305,0 q 1.6875,0 2.4975,-0.135 0.81,-0.1575 1.4175,-0.765 0.3825,-0.3825 0.495,-0.855 0.135,-0.4725 0.135,-1.3725 0,-0.72 -0.0225,-0.9 z"
       style="font-style:normal;font-variant:normal;font-weight:normal;font-stretch:normal;font-size:22.5px;line-height:125%;font-family:KaTeX_Main;-inkscape-font-specification:'KaTeX_Main, Normal';text-align:start;writing-mode:lr-tb;text-anchor:start"
       id="path4258" /><path
       d="m 192.93203,15.715 q -0.63,0 -0.99,-0.405 -0.36,-0.405 -0.36,-0.99 0,-1.62 1.215,-2.7675 1.2375,-1.17 2.9475,-1.17 1.935,0 3.195,1.0575 1.2825,1.035 1.575,2.7225 0.045,0.405 0.045,0.7425 0,1.305 -0.7875,2.4525 -0.63,0.945 -2.5425,2.5875 -0.81,0.6975 -2.25,2.07 l -1.3275,1.26 1.71,0.0225 q 3.5325,0 3.7575,-0.1125 0.09,-0.0225 0.225,-0.4725 0.09,-0.2475 0.315,-1.53 l 0,-0.0675 0.9,0 0,0.0675 -0.63,4.1175 0,0.0675 -8.3475,0 0,-0.4275 q 0,-0.45 0.045,-0.5175 0.0225,-0.0225 1.89,-2.1375 2.4525,-2.7225 3.15,-3.6 1.5075,-2.0475 1.5075,-3.7575 0,-1.485 -0.7875,-2.475 -0.765,-1.0125 -2.16,-1.0125 -1.305,0 -2.115,1.17 -0.045,0.09 -0.135,0.2475 -0.0675,0.1125 -0.0675,0.135 0,0.0225 0.1125,0.0225 0.5625,0 0.9,0.405 0.36,0.405 0.36,0.945 0,0.5625 -0.3825,0.9675 -0.36,0.3825 -0.9675,0.3825 z"
       style="font-style:normal;font-variant:normal;font-weight:normal;font-stretch:normal;font-size:22.5px;line-height:125%;font-family:KaTeX_Main;-inkscape-font-specification:'KaTeX_Main, Normal';text-align:start;writing-mode:lr-tb;text-anchor:start"
       id="path4260" /></g><g
     id="g69"
     transform="translate(-39.086614,4.9107072)"><g
       id="g71"><line
         class="st12"
         x1="96"
         y1="54"
         x2="110.9"
         y2="54"
         id="line73"
         style="fill:none;stroke:#11accd;stroke-width:3;stroke-linecap:round;stroke-miterlimit:10" /><g
         id="g75"><path
           class="st13"
           d="m 120,54 c -4.3,1.6 -9.5,4.3 -12.8,7.1 l 2.6,-7.1 -2.6,-7.1 c 3.3,2.8 8.5,5.5 12.8,7.1 z"
           id="path77"
           inkscape:connector-curvature="0"
           style="fill:#11accd" /></g></g></g><g
     style="font-style:normal;font-variant:normal;font-weight:normal;font-stretch:normal;font-size:22.5px;line-height:125%;font-family:KaTeX_Main;-inkscape-font-specification:'KaTeX_Main, Normal';text-align:start;writing-mode:lr-tb;text-anchor:start;fill:#11accd"
     id="text79"><path
       d="m 61.053391,63.411102 q 0,-0.5175 0.4275,-0.945 0.4275,-0.4275 0.99,-0.4275 0.405,0 0.675,0.27 0.2925,0.27 0.2925,0.675 0,0.495 -0.45,0.945 -0.45,0.45 -0.99,0.45 -0.405,0 -0.675,-0.27 -0.27,-0.27 -0.27,-0.6975 z m -0.5175,13.7475 q -0.8775,0 -1.4175,-0.5175 -0.54,-0.5175 -0.54,-1.395 0,-0.3825 0.045,-0.5175 0,-0.045 1.035,-2.7675 1.035,-2.745 1.035,-2.79 0.1125,-0.36 0.1125,-0.81 0,-0.54 -0.3825,-0.54 l -0.045,0 q -0.54,0 -1.035,0.5175 -0.72,0.7425 -1.0575,2.115 0,0.0225 -0.0225,0.09 -0.0225,0.045 -0.045,0.0675 0,0 -0.0225,0.0225 -0.0225,0.0225 -0.09,0.0225 -0.045,0 -0.09,0 -0.045,0 -0.18,0 l -0.315,0 q -0.135,-0.135 -0.135,-0.2025 0,-0.0675 0.0675,-0.315 0.585,-1.935 1.71,-2.7 0.6075,-0.4725 1.305,-0.4725 0.9,0 1.485,0.5175 0.585,0.5175 0.585,1.395 0,0.2925 -0.1125,0.675 -0.0225,0.045 -1.035,2.7675 l -1.0125,2.7225 q -0.1125,0.495 -0.1125,0.72 0,0.5625 0.3825,0.5625 0.315,0 0.5625,-0.135 0.99,-0.4725 1.5525,-2.3625 0.0675,-0.27 0.1125,-0.315 0.0675,-0.045 0.3825,-0.045 0.2025,0 0.27,0.0225 0.09,0 0.135,0.045 0.045,0.045 0.045,0.1575 0,0.09 -0.0675,0.2925 -0.4275,1.2825 -1.2375,2.2275 -0.7875,0.945 -1.8675,0.945 z"
       style="font-style:normal;font-variant:normal;font-weight:normal;font-stretch:normal;font-size:22.5px;line-height:125%;font-family:KaTeX_Math;-inkscape-font-specification:'KaTeX_Math, Normal';text-align:start;writing-mode:lr-tb;text-anchor:start"
       id="path4251" /><path
       d="m 70.775711,81.411102 q -0.248625,-0.04387 -2.325375,-0.04387 -2.0475,0 -2.296125,0.04387 l -0.1755,0 0,-0.67275 0.38025,0 q 0.84825,0 1.096875,-0.04387 0.117,-0.01463 0.351,-0.1755 l 0,-7.561124 q -0.02925,0 -0.117,0.04387 -0.67275,0.26325 -1.506375,0.277875 l -0.277875,0 0,-0.67275 0.277875,0 q 1.2285,-0.04387 2.0475,-0.55575 0.26325,-0.14625 0.453375,-0.336375 0.02925,-0.04387 0.1755,-0.04387 0.14625,0 0.248625,0.08775 l 0,4.372875 0.01462,4.387499 q 0.219375,0.219375 0.950625,0.219375 l 0.482625,0 0.38025,0 0,0.67275 -0.160875,0 z"
       style="font-size:64.99999762%;baseline-shift:sub"
       id="path4253" /><path
       d="m 73.671461,72.343603 q -0.160875,-0.160875 -0.2925,-0.190125 -0.131625,-0.04387 -0.67275,-0.0585 l -0.424125,0 0,-0.67275 0.131625,0 q 0.20475,0.04387 1.8135,0.04387 1.755,0 2.07675,-0.04387 l 0.160875,0 0,0.67275 -0.307125,0 q -0.67275,0.01463 -0.833625,0.160875 -0.0585,0.04387 -0.0585,0.08775 0,0.02925 1.31625,3.627 1.31625,3.597749 1.330875,3.597749 0.570375,-1.535624 1.25775,-3.392999 1.243125,-3.36375 1.243125,-3.495375 0,-0.277875 -0.307125,-0.424125 -0.307125,-0.160875 -0.67275,-0.160875 l -0.07313,0 0,-0.67275 0.131625,0 q 0.248625,0.04387 1.681875,0.04387 1.25775,0 1.418625,-0.04387 l 0.08775,0 0,0.67275 -0.102375,0 q -1.08225,0 -1.404,0.599625 0,0.01462 -1.652625,4.460625 -1.638,4.445999 -1.652625,4.460624 -0.04387,0.117 -0.26325,0.117 l -0.131625,0 -0.131625,0 q -0.20475,0 -0.248625,-0.117 -0.02925,-0.02925 -1.711125,-4.636124 -1.711125,-4.59225 -1.711125,-4.636125 z"
       style="font-size:64.99999762%;baseline-shift:sub"
       id="path4255" /></g><g
     id="g83"
     transform="translate(-32,4.9107072)"><g
       id="g85"><line
         class="st12"
         x1="210"
         y1="54"
         x2="224.89999"
         y2="54"
         id="line87"
         style="fill:none;stroke:#11accd;stroke-width:3;stroke-linecap:round;stroke-miterlimit:10" /><g
         id="g89"><path
           class="st13"
           d="m 234,54 c -4.3,1.6 -9.5,4.3 -12.8,7.1 l 2.6,-7.1 -2.6,-7.1 c 3.3,2.8 8.5,5.5 12.8,7.1 z"
           id="path91"
           inkscape:connector-curvature="0"
           style="fill:#11accd" /></g></g></g><g
     style="font-style:normal;font-variant:normal;font-weight:normal;font-stretch:normal;font-size:22.5px;line-height:125%;font-family:KaTeX_Main;-inkscape-font-specification:'KaTeX_Main, Normal';text-align:start;writing-mode:lr-tb;text-anchor:start;fill:#11accd"
     id="text93"><path
       d="m 182.1398,63.41111 q 0,-0.5175 0.4275,-0.945 0.4275,-0.4275 0.99,-0.4275 0.405,0 0.675,0.27 0.2925,0.27 0.2925,0.675 0,0.495 -0.45,0.945 -0.45,0.45 -0.99,0.45 -0.405,0 -0.675,-0.27 -0.27,-0.27 -0.27,-0.6975 z m -0.5175,13.7475 q -0.8775,0 -1.4175,-0.5175 -0.54,-0.5175 -0.54,-1.395 0,-0.3825 0.045,-0.5175 0,-0.045 1.035,-2.7675 1.035,-2.745 1.035,-2.79 0.1125,-0.36 0.1125,-0.81 0,-0.54 -0.3825,-0.54 l -0.045,0 q -0.54,0 -1.035,0.5175 -0.72,0.7425 -1.0575,2.115 0,0.0225 -0.0225,0.09 -0.0225,0.045 -0.045,0.0675 0,0 -0.0225,0.0225 -0.0225,0.0225 -0.09,0.0225 -0.045,0 -0.09,0 -0.045,0 -0.18,0 l -0.315,0 q -0.135,-0.135 -0.135,-0.2025 0,-0.0675 0.0675,-0.315 0.585,-1.935 1.71,-2.7 0.6075,-0.4725 1.305,-0.4725 0.9,0 1.485,0.5175 0.585,0.5175 0.585,1.395 0,0.2925 -0.1125,0.675 -0.0225,0.045 -1.035,2.7675 l -1.0125,2.7225 q -0.1125,0.495 -0.1125,0.72 0,0.5625 0.3825,0.5625 0.315,0 0.5625,-0.135 0.99,-0.4725 1.5525,-2.3625 0.0675,-0.27 0.1125,-0.315 0.0675,-0.045 0.3825,-0.045 0.2025,0 0.27,0.0225 0.09,0 0.135,0.045 0.045,0.045 0.045,0.1575 0,0.09 -0.0675,0.2925 -0.4275,1.2825 -1.2375,2.2275 -0.7875,0.945 -1.8675,0.945 z"
       style="font-style:normal;font-variant:normal;font-weight:normal;font-stretch:normal;font-size:22.5px;line-height:125%;font-family:KaTeX_Math;-inkscape-font-specification:'KaTeX_Math, Normal';text-align:start;writing-mode:lr-tb;text-anchor:start"
       id="path4244" /><path
       d="m 187.38687,75.136985 q -0.4095,0 -0.6435,-0.26325 -0.234,-0.26325 -0.234,-0.6435 0,-1.053 0.78975,-1.798874 0.80438,-0.7605 1.91588,-0.7605 1.25775,0 2.07675,0.687375 0.83362,0.672749 1.02375,1.769624 0.0293,0.26325 0.0293,0.482625 0,0.84825 -0.51188,1.594125 -0.4095,0.61425 -1.65262,1.681875 -0.5265,0.453375 -1.4625,1.3455 l -0.86288,0.819 1.1115,0.01463 q 2.29613,0 2.44238,-0.07313 0.0585,-0.01462 0.14625,-0.307125 0.0585,-0.160875 0.20475,-0.9945 l 0,-0.04387 0.585,0 0,0.04387 -0.4095,2.676375 0,0.04387 -5.42588,0 0,-0.277875 q 0,-0.2925 0.0293,-0.336375 0.0146,-0.01462 1.2285,-1.389375 1.59413,-1.769625 2.0475,-2.34 0.97988,-1.330875 0.97988,-2.442375 0,-0.96525 -0.51188,-1.60875 -0.49725,-0.658124 -1.404,-0.658124 -0.84825,0 -1.37475,0.760499 -0.0293,0.0585 -0.0877,0.160875 -0.0439,0.07312 -0.0439,0.08775 0,0.01462 0.0731,0.01462 0.36563,0 0.585,0.26325 0.234,0.26325 0.234,0.61425 0,0.365625 -0.24862,0.628875 -0.234,0.248625 -0.62888,0.248625 z"
       style="font-size:64.99999762%;baseline-shift:sub"
       id="path4246" /><path
       d="m 194.75787,72.343611 q -0.16087,-0.160875 -0.2925,-0.190125 -0.13162,-0.04387 -0.67275,-0.0585 l -0.42412,0 0,-0.67275 0.13162,0 q 0.20475,0.04387 1.8135,0.04387 1.755,0 2.07675,-0.04387 l 0.16088,0 0,0.67275 -0.30713,0 q -0.67275,0.01462 -0.83362,0.160875 -0.0585,0.04387 -0.0585,0.08775 0,0.02925 1.31625,3.626999 1.31625,3.59775 1.33087,3.59775 0.57038,-1.535625 1.25775,-3.393 1.24313,-3.36375 1.24313,-3.495375 0,-0.277874 -0.30713,-0.424124 -0.30712,-0.160875 -0.67275,-0.160875 l -0.0731,0 0,-0.67275 0.13162,0 q 0.24863,0.04387 1.68188,0.04387 1.25775,0 1.41862,-0.04387 l 0.0877,0 0,0.67275 -0.10237,0 q -1.08225,0 -1.404,0.599624 0,0.01463 -1.65263,4.460625 -1.638,4.446 -1.65262,4.460625 -0.0439,0.117 -0.26325,0.117 l -0.13163,0 -0.13162,0 q -0.20475,0 -0.24863,-0.117 -0.0292,-0.02925 -1.71112,-4.636125 -1.71113,-4.592249 -1.71113,-4.636124 z"
       style="font-size:64.99999762%;baseline-shift:sub"
       id="path4248" /></g><line
     class="st3"
     x1="112"
     y1="40.910706"
     x2="148"
     y2="40.910706"
     id="line97"
     style="fill:none;stroke:#000000;stroke-linecap:round;stroke-miterlimit:10" /><polyline
     class="st8"
     points="60,36 48,36 48,72 "
     id="polyline99"
     style="fill:none;stroke:#000000;stroke-miterlimit:10"
     transform="translate(-32,4.9107072)" /><polyline
     class="st8"
     points="264,36 264,132 48,132 48,108 "
     id="polyline101"
     style="fill:none;stroke:#000000;stroke-miterlimit:10"
     transform="translate(-32,4.9107072)" /></svg>