<?xml version="1.0" encoding="UTF-8" standalone="no"?>
<!-- Generator: Adobe Illustrator 19.1.0, SVG Export Plug-In . SVG Version: 6.00 Build 0)  -->

<svg
   xmlns:dc="http://purl.org/dc/elements/1.1/"
   xmlns:cc="http://creativecommons.org/ns#"
   xmlns:rdf="http://www.w3.org/1999/02/22-rdf-syntax-ns#"
   xmlns:svg="http://www.w3.org/2000/svg"
   xmlns="http://www.w3.org/2000/svg"
   xmlns:sodipodi="http://sodipodi.sourceforge.net/DTD/sodipodi-0.dtd"
   xmlns:inkscape="http://www.inkscape.org/namespaces/inkscape"
   version="1.1"
   id="Layer_1"
   x="0px"
   y="0px"
   viewBox="0 0 210.96352 130.62653"
   xml:space="preserve"
   inkscape:version="0.92.2 5c3e80d, 2017-08-06"
   sodipodi:docname="thevenin2.svg"
   width="210.96352"
   height="130.62653"><metadata
     id="metadata4923"><rdf:RDF><cc:Work
         rdf:about=""><dc:format>image/svg+xml</dc:format><dc:type
           rdf:resource="http://purl.org/dc/dcmitype/StillImage" /><dc:title></dc:title></cc:Work></rdf:RDF></metadata><defs
     id="defs4921" /><sodipodi:namedview
     pagecolor="#ffffff"
     bordercolor="#666666"
     borderopacity="1"
     objecttolerance="10"
     gridtolerance="10"
     guidetolerance="10"
     inkscape:pageopacity="0"
     inkscape:pageshadow="2"
     inkscape:window-width="1252"
     inkscape:window-height="737"
     id="namedview4919"
     showgrid="false"
     fit-margin-top="10"
     fit-margin-left="10"
     fit-margin-right="10"
     fit-margin-bottom="10"
     inkscape:zoom="2.3795584"
     inkscape:cx="105.48176"
     inkscape:cy="65.313263"
     inkscape:window-x="0"
     inkscape:window-y="0"
     inkscape:window-maximized="0"
     inkscape:current-layer="Layer_1" /><style
     type="text/css"
     id="style4823">
	.st0{fill:none;stroke:#000000;stroke-width:0.5;stroke-linecap:round;stroke-miterlimit:10;}
	.st1{fill:none;stroke:#000000;stroke-width:0.5;stroke-miterlimit:10;}
	.st2{fill:none;stroke:#11ACCD;stroke-width:3;stroke-linecap:round;stroke-miterlimit:10;}
	.st3{fill:#11ACCD;}
	.st4{fill:none;stroke:#11ACCD;stroke-width:4;stroke-miterlimit:10;}
	.st5{fill:none;stroke:#000000;stroke-linecap:round;stroke-linejoin:round;stroke-miterlimit:10;}
	.st6{fill:none;stroke:#000000;stroke-width:2;stroke-linecap:round;stroke-linejoin:round;stroke-miterlimit:10;}
	.st7{fill:none;stroke:#000000;stroke-width:2;stroke-miterlimit:10;}
	.st8{fill:none;stroke:#000000;stroke-linecap:round;stroke-miterlimit:10;}
	.st9{fill:none;stroke:#000000;stroke-width:1.5;stroke-miterlimit:10;}
	.st10{fill:none;stroke:#000000;stroke-width:1.5;stroke-linecap:round;stroke-miterlimit:10;}
	.st11{fill:none;stroke:#000000;stroke-width:2;stroke-linecap:round;stroke-miterlimit:10;}
	.st12{fill:none;}
	.st13{stroke:#000000;stroke-linecap:round;stroke-linejoin:round;stroke-miterlimit:10;}
	.st14{fill:none;stroke:#000000;stroke-miterlimit:10;}
	.st15{fill:#FFFFFF;stroke:#000000;stroke-miterlimit:10;}
	.st16{fill:#FF9C39;}
	.st17{fill:none;stroke:#E07D10;stroke-width:2;stroke-linecap:round;stroke-miterlimit:10;}
	.st18{fill:#E07D10;}
	.st19{fill:none;stroke:#FF9C39;stroke-width:2;stroke-linecap:round;stroke-miterlimit:10;}
	.st20{fill:none;stroke:#FF9C39;stroke-width:3;stroke-linecap:round;stroke-miterlimit:10;}
	.st21{fill:none;stroke:#1FAB54;stroke-width:3;stroke-miterlimit:10;}
	.st22{fill:#1FAB54;}
	.st23{font-family:'KaTeX_Main-Regular';}
	.st24{font-size:21px;}
	.st25{font-family:'KaTeX_Main-Italic';}
	.st26{fill:none;stroke:#11ACCD;stroke-width:2;stroke-linecap:round;stroke-miterlimit:10;}
</style><circle
     style="fill:none;stroke:#000000;stroke-width:2;stroke-miterlimit:10"
     id="circle4843"
     r="18"
     cy="66"
     cx="63.592911"
     class="st7" /><line
     style="fill:none;stroke:#000000;stroke-width:1.18366194;stroke-linecap:round;stroke-linejoin:round;stroke-miterlimit:10"
     id="line4847"
     y2="117.82764"
     x2="63.592911"
     y1="84.202316"
     x1="63.592911"
     class="st5" /><line
     style="fill:none;stroke:#000000;stroke-width:1.5;stroke-miterlimit:10"
     id="line4849"
     y2="64.5"
     x2="63.592911"
     y1="52.500004"
     x1="63.592911"
     class="st9" /><line
     style="fill:none;stroke:#000000;stroke-width:1.5;stroke-miterlimit:10"
     id="line4851"
     y2="58.5"
     x2="69.592911"
     y1="58.5"
     x1="57.592911"
     class="st9" /><line
     style="fill:none;stroke:#000000;stroke-width:1.5;stroke-miterlimit:10"
     id="line4853"
     y2="76.5"
     x2="69.592911"
     y1="76.5"
     x1="57.592911"
     class="st9" /><g
     id="g4867"
     transform="translate(-8.4070669,-32)"><line
       class="st5"
       x1="179.39999"
       y1="54"
       x2="198"
       y2="54"
       id="line4869"
       style="fill:none;stroke:#000000;stroke-linecap:round;stroke-linejoin:round;stroke-miterlimit:10" /><polyline
       class="st6"
       points="132.6,54 136.5,45 144.3,63 152.1,45 159.9,63 167.7,45 175.5,63 179.4,54  "
       id="polyline4871"
       style="fill:none;stroke:#000000;stroke-width:2;stroke-linecap:round;stroke-linejoin:round;stroke-miterlimit:10" /><line
       class="st5"
       x1="114"
       y1="54"
       x2="132.60001"
       y2="54"
       id="line4873"
       style="fill:none;stroke:#000000;stroke-linecap:round;stroke-linejoin:round;stroke-miterlimit:10" /><rect
       x="114"
       y="42"
       class="st12"
       width="84"
       height="24"
       id="rect4875"
       style="fill:none" /></g><path
     style="fill:none;fill-rule:evenodd;stroke:#000000;stroke-width:1.00140977;stroke-linecap:round;stroke-linejoin:miter;stroke-miterlimit:4;stroke-dasharray:none;stroke-opacity:1"
     d="m 64.006797,21.966026 59.825533,0.04186"
     id="path4962"
     inkscape:connector-curvature="0" /><path
     style="fill:none;fill-rule:evenodd;stroke:#000000;stroke-width:1.02485025px;stroke-linecap:round;stroke-linejoin:miter;stroke-opacity:1"
     d="m 63.77923,117.97424 133.19802,0"
     id="path4191"
     inkscape:connector-curvature="0"
     sodipodi:nodetypes="cc" /><circle
     style="fill:none;fill-opacity:1;stroke:#000000;stroke-width:1;stroke-linecap:round;stroke-linejoin:round;stroke-miterlimit:4;stroke-dasharray:none;stroke-opacity:1"
     id="path4193-7-4"
     cx="198.1792"
     cy="117.84222"
     r="2.2843127" /><path
     style="fill:none;fill-rule:evenodd;stroke:#000000;stroke-width:0.99488044px;stroke-linecap:round;stroke-linejoin:miter;stroke-opacity:1"
     d="m 63.869951,47.995861 0,-25.811584"
     id="path4225"
     inkscape:connector-curvature="0" /><path
     style="fill:none;fill-rule:evenodd;stroke:#000000;stroke-width:1px;stroke-linecap:butt;stroke-linejoin:miter;stroke-opacity:1"
     d="m 189.1801,22.001825 8.65023,0"
     id="path4227"
     inkscape:connector-curvature="0" /><circle
     style="fill:none;fill-opacity:1;stroke:#000000;stroke-width:1;stroke-linecap:round;stroke-linejoin:round;stroke-miterlimit:4;stroke-dasharray:none;stroke-opacity:1"
     id="path4193-7"
     cx="198.1792"
     cy="22.13195"
     r="2.2843127" /><g
     aria-label="RT"
     style="font-style:normal;font-variant:normal;font-weight:normal;font-stretch:normal;font-size:21px;line-height:0%;font-family:KaTeX_Main;-inkscape-font-specification:'KaTeX_Main, Normal';text-align:start;writing-mode:lr-tb;text-anchor:start"
     id="text4877"><path
       d="m 140.49749,39.319011 q -0.225,-0.225 -0.45,-0.27 -0.2025,-0.045 -1.125,-0.0675 h -0.7425 v -1.035 h 3.9375 q 4.185,0.0225 4.6125,0.09 0.0675,0.0225 0.2925,0.0675 1.0125,0.2025 1.8,0.63 2.1375,1.08 2.4525,2.9475 0.0225,0.1125 0.0225,0.36 0,1.26 -0.9675,2.205 -0.945,0.945 -2.25,1.3725 -0.045,0.0225 -0.1125,0.045 -0.045,0 -0.09,0.0225 l -0.045,0.0225 q 0.0675,0.0675 0.2475,0.135 1.62,0.9 2.0025,2.385 0.0225,0.09 0.2475,1.485 0.225,1.395 0.2475,1.485 0.1575,0.81 0.3825,1.1925 0.2475,0.3825 0.63,0.5175 0.09,0.045 0.3825,0.045 h 0.1125 q 0.2925,0 0.54,-0.2475 0.45,-0.45 0.5175,-1.35 0,-0.2475 0.0675,-0.315 0.09,-0.09 0.3825,-0.09 0.27,0 0.36,0.0675 0.09,0.045 0.09,0.27 0,0.81 -0.405,1.485 -0.3825,0.6525 -0.945,0.9 -0.36,0.135 -0.945,0.135 -3.3525,-0.135 -3.87,-2.52 -0.045,-0.2475 -0.0675,-1.6425 0,-1.395 -0.135,-1.8675 -0.2025,-0.6075 -0.675,-1.035 -0.45,-0.45 -1.035,-0.63 l -0.225,-0.045 -1.485,-0.0225 h -1.485 v 2.9475 l 0.0225,2.9475 q 0.1575,0.225 0.3825,0.27 0.2475,0.045 1.17,0.0675 h 0.7425 v 1.035 h -0.2475 q -0.36,-0.0675 -3.195,-0.0675 -2.8575,0 -3.2175,0.0675 h -0.2475 v -1.035 h 0.7425 q 0.9225,-0.0225 1.125,-0.0675 0.225,-0.045 0.45,-0.27 z m 8.1,1.8675 q -0.225,-1.35 -1.215,-1.7775 -0.9675,-0.4275 -2.97,-0.4275 -0.3375,0 -0.765,0.0225 -0.4275,0 -0.45,0 -0.2925,0.0225 -0.36,0.18 -0.0675,0.09 -0.0675,3.06 v 2.97 h 1.305 q 1.6875,0 2.4975,-0.135 0.81,-0.1575 1.4175,-0.765 0.3825,-0.3825 0.495,-0.855 0.135,-0.4725 0.135,-1.3725 0,-0.72 -0.0225,-0.9 z"
       style="font-size:22.5px"
       id="path15242" /><path
       d="m 154.72488,52.115261 q 0.0162,-0.0325 0.1625,-1.8525 0.14625,-1.82 0.14625,-1.8525 v -0.0975 h 9.92875 v 0.0975 q 0.0163,0.0325 0.1625,1.8525 0.14625,1.82 0.14625,1.8525 v 0.0975 h -0.65 v -0.0975 q -0.0162,-0.065 -0.0487,-0.39 -0.11375,-1.57625 -0.52,-2.0475 -0.27625,-0.34125 -0.89375,-0.52 -0.34125,-0.08125 -1.25125,-0.08125 h -0.43875 q -0.37375,0 -0.47125,0.0325 -0.0812,0.01625 -0.13,0.1625 -0.0162,0.0325 -0.0162,4.53375 v 4.485 q 0.13,0.17875 0.40625,0.2275 0.585,0.04875 1.4625,0.04875 h 0.4875 v 0.7475 h -0.21125 q -0.34125,-0.04875 -2.99,-0.04875 -2.64875,0 -2.99,0.04875 h -0.21125 v -0.7475 h 0.4875 q 0.8775,0 1.4625,-0.04875 0.27625,-0.04875 0.40625,-0.2275 v -4.485 q 0,-4.50125 -0.0163,-4.53375 -0.0488,-0.14625 -0.14625,-0.1625 -0.0812,-0.0325 -0.455,-0.0325 h -0.43875 q -0.76375,0 -0.92625,0.01625 -0.69875,0.11375 -1.105,0.455 -0.52,0.43875 -0.65,2.1775 -0.0325,0.325 -0.0488,0.39 v 0.0975 h -0.65 z"
       style="font-size:16.25px"
       id="path15244" /></g><g
     aria-label="VT"
     style="font-style:normal;font-variant:normal;font-weight:normal;font-stretch:normal;font-size:20px;line-height:0%;font-family:KaTeX_Main;-inkscape-font-specification:'KaTeX_Main, Normal';text-align:start;writing-mode:lr-tb;text-anchor:start;fill:#000000;fill-opacity:1;stroke:none;stroke-opacity:1"
     id="text4893"><path
       d="m 12.137499,57.363805 q -0.2475,-0.2475 -0.45,-0.2925 -0.2025,-0.0675 -1.035,-0.09 H 9.9999993 v -1.035 h 0.2024997 q 0.315,0.0675 2.79,0.0675 2.7,0 3.195,-0.0675 h 0.2475 v 1.035 h -0.4725 q -1.035,0.0225 -1.2825,0.2475 -0.09,0.0675 -0.09,0.135 0,0.045 2.025,5.58 2.025,5.535 2.0475,5.535 0.8775,-2.3625 1.935,-5.22 1.9125,-5.175 1.9125,-5.3775 0,-0.4275 -0.4725,-0.6525 -0.4725,-0.2475 -1.035,-0.2475 h -0.1125 v -1.035 h 0.2025 q 0.3825,0.0675 2.5875,0.0675 1.935,0 2.1825,-0.0675 h 0.135 v 1.035 h -0.1575 q -1.665,0 -2.16,0.9225 0,0.0225 -2.5425,6.8625 -2.52,6.84 -2.5425,6.8625 -0.0675,0.18 -0.405,0.18 h -0.2025 -0.2025 q -0.315,0 -0.3825,-0.18 -0.045,-0.045 -2.6325,-7.1325 -2.6325,-7.065 -2.6325,-7.1325 z"
       style="font-size:22.5px"
       id="path15237" /><path
       d="m 27.032499,70.115055 q 0.01625,-0.0325 0.1625,-1.8525 0.14625,-1.82 0.14625,-1.8525 v -0.0975 h 9.92875 v 0.0975 q 0.01625,0.0325 0.1625,1.8525 0.14625,1.82 0.14625,1.8525 v 0.0975 h -0.65 v -0.0975 q -0.01625,-0.065 -0.04875,-0.39 -0.11375,-1.57625 -0.52,-2.0475 -0.27625,-0.34125 -0.89375,-0.52 -0.34125,-0.08125 -1.25125,-0.08125 h -0.43875 q -0.37375,0 -0.47125,0.0325 -0.08125,0.01625 -0.13,0.1625 -0.01625,0.0325 -0.01625,4.53375 v 4.485 q 0.13,0.17875 0.40625,0.2275 0.585,0.04875 1.4625,0.04875 h 0.4875 v 0.7475 h -0.21125 q -0.34125,-0.04875 -2.99,-0.04875 -2.64875,0 -2.99,0.04875 h -0.21125 v -0.7475 h 0.4875 q 0.8775,0 1.4625,-0.04875 0.27625,-0.04875 0.40625,-0.2275 v -4.485 q 0,-4.50125 -0.01625,-4.53375 -0.04875,-0.14625 -0.14625,-0.1625 -0.08125,-0.0325 -0.455,-0.0325 h -0.43875 q -0.76375,0 -0.92625,0.01625 -0.69875,0.11375 -1.105,0.455 -0.52,0.43875 -0.65,2.1775 -0.0325,0.325 -0.04875,0.39 v 0.0975 h -0.65 z"
       style="font-size:16.25px"
       id="path15239" /></g></svg>