<?xml version="1.0" encoding="UTF-8" standalone="no"?>
<!-- Generator: Adobe Illustrator 19.1.0, SVG Export Plug-In . SVG Version: 6.00 Build 0)  -->

<svg
   xmlns:dc="http://purl.org/dc/elements/1.1/"
   xmlns:cc="http://creativecommons.org/ns#"
   xmlns:rdf="http://www.w3.org/1999/02/22-rdf-syntax-ns#"
   xmlns:svg="http://www.w3.org/2000/svg"
   xmlns="http://www.w3.org/2000/svg"
   xmlns:sodipodi="http://sodipodi.sourceforge.net/DTD/sodipodi-0.dtd"
   xmlns:inkscape="http://www.inkscape.org/namespaces/inkscape"
   version="1.1"
   id="Layer_1"
   x="0px"
   y="0px"
   viewBox="0 0 293.60267 149.31152"
   xml:space="preserve"
   inkscape:version="0.92.2 5c3e80d, 2017-08-06"
   sodipodi:docname="thevenin8c.svg"
   width="293.60266"
   height="149.31151"><metadata
     id="metadata4923"><rdf:RDF><cc:Work
         rdf:about=""><dc:format>image/svg+xml</dc:format><dc:type
           rdf:resource="http://purl.org/dc/dcmitype/StillImage" /><dc:title></dc:title></cc:Work></rdf:RDF></metadata><defs
     id="defs4921"><marker
       inkscape:stockid="Arrow2Lstart"
       orient="auto"
       refY="0"
       refX="0"
       id="Arrow2Lstart"
       style="overflow:visible"
       inkscape:isstock="true"><path
         id="path8145"
         style="fill:#000000;fill-opacity:1;fill-rule:evenodd;stroke:#000000;stroke-width:0.625;stroke-linejoin:round;stroke-opacity:1"
         d="M 8.7185878,4.0337352 -2.2072895,0.01601326 8.7185884,-4.0017078 c -1.7454984,2.3720609 -1.7354408,5.6174519 -6e-7,8.035443 z"
         transform="matrix(1.1,0,0,1.1,1.1,0)"
         inkscape:connector-curvature="0" /></marker></defs><sodipodi:namedview
     pagecolor="#ffffff"
     bordercolor="#666666"
     borderopacity="1"
     objecttolerance="10"
     gridtolerance="10"
     guidetolerance="10"
     inkscape:pageopacity="0"
     inkscape:pageshadow="2"
     inkscape:window-width="1252"
     inkscape:window-height="737"
     id="namedview4919"
     showgrid="false"
     fit-margin-top="10"
     fit-margin-left="10"
     fit-margin-right="10"
     fit-margin-bottom="10"
     inkscape:zoom="1.7097938"
     inkscape:cx="146.80133"
     inkscape:cy="74.655754"
     inkscape:window-x="0"
     inkscape:window-y="0"
     inkscape:window-maximized="0"
     inkscape:current-layer="Layer_1" /><style
     type="text/css"
     id="style4823">
	.st0{fill:none;stroke:#000000;stroke-width:0.5;stroke-linecap:round;stroke-miterlimit:10;}
	.st1{fill:none;stroke:#000000;stroke-width:0.5;stroke-miterlimit:10;}
	.st2{fill:none;stroke:#11ACCD;stroke-width:3;stroke-linecap:round;stroke-miterlimit:10;}
	.st3{fill:#11ACCD;}
	.st4{fill:none;stroke:#11ACCD;stroke-width:4;stroke-miterlimit:10;}
	.st5{fill:none;stroke:#000000;stroke-linecap:round;stroke-linejoin:round;stroke-miterlimit:10;}
	.st6{fill:none;stroke:#000000;stroke-width:2;stroke-linecap:round;stroke-linejoin:round;stroke-miterlimit:10;}
	.st7{fill:none;stroke:#000000;stroke-width:2;stroke-miterlimit:10;}
	.st8{fill:none;stroke:#000000;stroke-linecap:round;stroke-miterlimit:10;}
	.st9{fill:none;stroke:#000000;stroke-width:1.5;stroke-miterlimit:10;}
	.st10{fill:none;stroke:#000000;stroke-width:1.5;stroke-linecap:round;stroke-miterlimit:10;}
	.st11{fill:none;stroke:#000000;stroke-width:2;stroke-linecap:round;stroke-miterlimit:10;}
	.st12{fill:none;}
	.st13{stroke:#000000;stroke-linecap:round;stroke-linejoin:round;stroke-miterlimit:10;}
	.st14{fill:none;stroke:#000000;stroke-miterlimit:10;}
	.st15{fill:#FFFFFF;stroke:#000000;stroke-miterlimit:10;}
	.st16{fill:#FF9C39;}
	.st17{fill:none;stroke:#E07D10;stroke-width:2;stroke-linecap:round;stroke-miterlimit:10;}
	.st18{fill:#E07D10;}
	.st19{fill:none;stroke:#FF9C39;stroke-width:2;stroke-linecap:round;stroke-miterlimit:10;}
	.st20{fill:none;stroke:#FF9C39;stroke-width:3;stroke-linecap:round;stroke-miterlimit:10;}
	.st21{fill:none;stroke:#1FAB54;stroke-width:3;stroke-miterlimit:10;}
	.st22{fill:#1FAB54;}
	.st23{font-family:'KaTeX_Main-Regular';}
	.st24{font-size:21px;}
	.st25{font-family:'KaTeX_Main-Italic';}
	.st26{fill:none;stroke:#11ACCD;stroke-width:2;stroke-linecap:round;stroke-miterlimit:10;}
</style><g
     transform="translate(85.216261,-71.37062)"
     id="g5760"><path
       style="font-family:KaTeX_Main-Regular;fill:none;stroke:#11accd;stroke-width:3.62247801;stroke-linecap:round;stroke-linejoin:round;stroke-miterlimit:4;stroke-dasharray:none"
       d="m 114.5199,112 h 15.74684"
       id="line4509" /><g
       transform="translate(0.16356719,4)"
       style="stroke-width:2;stroke-miterlimit:4;stroke-dasharray:none"
       id="g4511"><path
         style="fill:#11accd;stroke-width:2;stroke-miterlimit:4;stroke-dasharray:none"
         inkscape:connector-curvature="0"
         id="path4513"
         d="m 138,108 c -3.4,1.3 -7.6,3.4 -10.3,5.7 l 2.1,-5.7 -2.1,-5.7 c 2.7,2.3 6.9,4.4 10.3,5.7 z"
         class="st22" /></g></g><path
     style="fill:none;stroke:#000000;stroke-width:2;stroke-miterlimit:10"
     d="m 73.527592,84.684967 a 18,18 0 0 1 -18,18.000003 18,18 0 0 1 -18,-18.000003 18,18 0 0 1 18,-18 18,18 0 0 1 18,18 z"
     id="circle4843" /><path
     style="fill:none;stroke:#000000;stroke-width:1.18366194;stroke-linecap:round;stroke-linejoin:round;stroke-miterlimit:10"
     d="M 55.527592,102.88728 V 136.5126"
     id="line4847" /><path
     style="fill:none;stroke:#000000;stroke-width:1;stroke-miterlimit:10;stroke-dasharray:none;marker-start:url(#Arrow2Lstart)"
     d="M 55.527592,72.158241 V 99.243828"
     id="line4849" /><g
     id="g4867"
     transform="matrix(0,1,-1,0,193.52761,-73.315032)"><path
       style="fill:none;stroke:#000000;stroke-linecap:round;stroke-linejoin:round;stroke-miterlimit:10"
       d="M 179.39999,54 H 198"
       id="line4869" /><path
       style="fill:none;stroke:#000000;stroke-width:2;stroke-linecap:round;stroke-linejoin:round;stroke-miterlimit:10"
       d="m 132.6,54 3.9,-9 7.8,18 7.8,-18 7.8,18 7.8,-18 7.8,18 3.9,-9"
       id="polyline4871" /><path
       style="fill:none;stroke:#000000;stroke-linecap:round;stroke-linejoin:round;stroke-miterlimit:10"
       d="m 114,54 h 18.60001"
       id="line4873" /><path
       style="fill:none"
       d="m 114,42 h 84 v 24 h -84 z"
       id="rect4875" /></g><g
     aria-label="RN"
     style="font-style:normal;font-variant:normal;font-weight:normal;font-stretch:normal;font-size:21px;line-height:0%;font-family:KaTeX_Main;-inkscape-font-specification:'KaTeX_Main, Normal';text-align:start;writing-mode:lr-tb;text-anchor:start"
     id="text4877"><path
       d="m 158.4525,76.690562 q -0.225,-0.225 -0.45,-0.27 -0.2025,-0.045 -1.125,-0.0675 h -0.7425 v -1.035 h 3.9375 q 4.185,0.0225 4.6125,0.09 0.0675,0.0225 0.2925,0.0675 1.0125,0.2025 1.8,0.63 2.1375,1.08 2.4525,2.9475 0.0225,0.1125 0.0225,0.36 0,1.26 -0.9675,2.205 -0.945,0.945 -2.25,1.3725 -0.045,0.0225 -0.1125,0.045 -0.045,0 -0.09,0.0225 l -0.045,0.0225 q 0.0675,0.0675 0.2475,0.135 1.62,0.9 2.0025,2.385 0.0225,0.09 0.2475,1.485 0.225,1.395 0.2475,1.485 0.1575,0.81 0.3825,1.1925 0.2475,0.3825 0.63,0.5175 0.09,0.045 0.3825,0.045 h 0.1125 q 0.2925,0 0.54,-0.2475 0.45,-0.45 0.5175,-1.35 0,-0.2475 0.0675,-0.315 0.09,-0.09 0.3825,-0.09 0.27,0 0.36,0.0675 0.09,0.045 0.09,0.27 0,0.81 -0.405,1.485 -0.3825,0.6525 -0.945,0.9 -0.36,0.135 -0.945,0.135 -3.3525,-0.135 -3.87,-2.52 -0.045,-0.2475 -0.0675,-1.6425 0,-1.395 -0.135,-1.8675 -0.2025,-0.6075 -0.675,-1.035 -0.45,-0.45 -1.035,-0.63 l -0.225,-0.045 -1.485,-0.0225 h -1.485 v 2.9475 l 0.0225,2.9475 q 0.1575,0.225 0.3825,0.27 0.2475,0.045 1.17,0.0675 h 0.7425 v 1.035 h -0.2475 q -0.36,-0.0675 -3.195,-0.0675 -2.8575,0 -3.2175,0.0675 h -0.2475 v -1.035 h 0.7425 q 0.9225,-0.0225 1.125,-0.0675 0.225,-0.045 0.45,-0.27 z m 8.1,1.8675 q -0.225,-1.35 -1.215,-1.7775 -0.9675,-0.4275 -2.97,-0.4275 -0.3375,0 -0.765,0.0225 -0.4275,0 -0.45,0 -0.2925,0.0225 -0.36,0.18 -0.0675,0.09 -0.0675,3.06 v 2.97 h 1.305 q 1.6875,0 2.4975,-0.135 0.81,-0.1575 1.4175,-0.765 0.3825,-0.3825 0.495,-0.855 0.135,-0.4725 0.135,-1.3725 0,-0.72 -0.0225,-0.9 z"
       style="font-size:22.5px"
       id="path19037" /><path
       d="m 176.40113,96.685562 q -0.21125,-0.04875 -1.86875,-0.04875 -1.69,0 -1.90125,0.04875 h -0.13 v -0.7475 h 0.27625 q 1.105,-0.065 1.34875,-0.5525 l 0.0488,-0.0975 v -8.905 h -0.065 q -0.1625,-0.04875 -1.17,-0.04875 h -0.43875 v -0.7475 h 3.36375 l 0.0488,0.04875 q 0.0325,0.01625 1.41375,2.06375 1.3975,2.03125 2.77875,4.0625 l 1.38125,2.03125 v -6.825 q -0.30875,-0.585 -1.3975,-0.63375 h -0.27625 v -0.7475 h 0.13 q 0.2925,0.04875 1.90125,0.04875 1.6575,0 1.86875,-0.04875 h 0.14625 v 0.7475 h -0.27625 q -1.18625,0.065 -1.38125,0.63375 l -0.0163,4.81 v 4.81 q -0.0487,0.0325 -0.11375,0.0975 h -0.2275 q -0.24375,0 -0.2925,-0.04875 -0.0975,-0.0975 -3.3475,-4.875 -3.25,-4.7775 -3.33125,-4.9075 v 4.225 l 0.0163,4.20875 q 0.195,0.585 1.38125,0.65 h 0.27625 v 0.7475 z"
       style="font-size:16.25px"
       id="path19039" /></g><g
     aria-label="IN"
     style="font-style:normal;font-variant:normal;font-weight:normal;font-stretch:normal;font-size:20px;line-height:0%;font-family:KaTeX_Main;-inkscape-font-specification:'KaTeX_Main, Normal';text-align:start;writing-mode:lr-tb;text-anchor:start;fill:#000000;fill-opacity:1;stroke:none;stroke-opacity:1"
     id="text4893"><path
       d="m 16.9075,90.685364 q -0.36,-0.0675 -3.33,-0.0675 -2.97,0 -3.33,0.0675 H 10 v -1.035 h 0.495 q 0.8775,0 1.485,-0.0675 0.27,-0.0675 0.3825,-0.2475 0.045,-0.0675 0.045,-6.345 0,-6.255 -0.045,-6.3225 -0.1125,-0.18 -0.3825,-0.2475 -0.6075,-0.0675 -1.485,-0.0675 H 10 v -1.035 h 0.2475 q 0.36,0.0675 3.33,0.0675 2.97,0 3.33,-0.0675 h 0.2475 v 1.035 H 16.66 q -0.8775,0 -1.485,0.0675 -0.27,0.0675 -0.3825,0.2475 -0.045,0.0675 -0.045,6.3225 0,6.2775 0.045,6.345 0.1125,0.18 0.3825,0.2475 0.6075,0.0675 1.485,0.0675 h 0.495 v 1.035 z"
       style="font-size:22.5px"
       id="path19042" /><path
       d="m 21.963633,96.685364 q -0.21125,-0.04875 -1.86875,-0.04875 -1.69,0 -1.90125,0.04875 h -0.13 v -0.7475 h 0.27625 q 1.105,-0.065 1.34875,-0.5525 l 0.04875,-0.0975 v -8.905 h -0.065 q -0.1625,-0.04875 -1.17,-0.04875 h -0.43875 v -0.7475 h 3.36375 l 0.04875,0.04875 q 0.0325,0.01625 1.41375,2.06375 1.3975,2.03125 2.77875,4.0625 l 1.38125,2.03125 v -6.825 q -0.30875,-0.585 -1.3975,-0.63375 h -0.27625 v -0.7475 h 0.13 q 0.2925,0.04875 1.90125,0.04875 1.6575,0 1.86875,-0.04875 h 0.14625 v 0.7475 h -0.27625 q -1.18625,0.065 -1.38125,0.63375 l -0.01625,4.81 v 4.81 q -0.04875,0.0325 -0.11375,0.0975 h -0.2275 q -0.24375,0 -0.2925,-0.04875 -0.0975,-0.0975 -3.3475,-4.875 -3.25,-4.7775 -3.33125,-4.9075 v 4.225 l 0.01625,4.20875 q 0.195,0.585 1.38125,0.65 h 0.27625 v 0.7475 z"
       style="font-size:16.25px"
       id="path19044" /></g><path
     style="fill:none;fill-rule:evenodd;stroke:#000000;stroke-width:1.00140977;stroke-linecap:round;stroke-linejoin:miter;stroke-miterlimit:4;stroke-dasharray:none;stroke-opacity:1"
     d="M 55.941468,40.650994 115.767,40.692854"
     id="path4962"
     inkscape:connector-curvature="0" /><path
     style="fill:none;fill-rule:evenodd;stroke:#000000;stroke-width:1.02485025px;stroke-linecap:round;stroke-linejoin:miter;stroke-opacity:1"
     d="M 55.708704,136.67169 H 187.57305"
     id="path4191"
     inkscape:connector-curvature="0"
     sodipodi:nodetypes="cc" /><path
     style="fill:none;fill-opacity:1;stroke:#000000;stroke-width:1;stroke-linecap:round;stroke-linejoin:round;stroke-miterlimit:4;stroke-dasharray:none;stroke-opacity:1"
     d="m 192.39819,136.63058 a 2.2843127,2.2843127 0 0 1 -2.28431,2.28432 2.2843127,2.2843127 0 0 1 -2.28432,-2.28432 2.2843127,2.2843127 0 0 1 2.28432,-2.28431 2.2843127,2.2843127 0 0 1 2.28431,2.28431 z"
     id="path4193-7-4" /><path
     style="fill:none;fill-rule:evenodd;stroke:#000000;stroke-width:0.99488044px;stroke-linecap:round;stroke-linejoin:miter;stroke-opacity:1"
     d="m 55.804628,66.680829 0,-25.811584"
     id="path4225"
     inkscape:connector-curvature="0" /><path
     style="fill:none;fill-rule:evenodd;stroke:#000000;stroke-width:1;stroke-linecap:butt;stroke-linejoin:miter;stroke-miterlimit:4;stroke-dasharray:none;stroke-opacity:1"
     d="m 115.39056,40.686793 h 72.82358"
     id="path4227"
     inkscape:connector-curvature="0" /><path
     style="fill:none;fill-opacity:1;stroke:#000000;stroke-width:1;stroke-linecap:round;stroke-linejoin:round;stroke-miterlimit:4;stroke-dasharray:none;stroke-opacity:1"
     d="m 192.39819,40.610138 a 2.2843127,2.2843127 0 0 1 -2.28431,2.284313 2.2843127,2.2843127 0 0 1 -2.28432,-2.284313 2.2843127,2.2843127 0 0 1 2.28432,-2.284313 2.2843127,2.2843127 0 0 1 2.28431,2.284313 z"
     id="path4193-7" /><g
     aria-label="−"
     style="font-style:normal;font-variant:normal;font-weight:normal;font-stretch:normal;font-size:22.50000191px;line-height:0%;font-family:KaTeX_Main;-inkscape-font-specification:'KaTeX_Main, Normal';text-align:start;writing-mode:lr-tb;text-anchor:start;fill:#ff9c39"
     id="text4881"><path
       d="m 236.06718,137.18692 q -0.315,-0.1575 -0.315,-0.45 0,-0.2925 0.315,-0.45 h 13.0725 q 0.3375,0.18 0.3375,0.45 0,0.27 -0.3375,0.45 z"
       style="font-style:normal;font-variant:normal;font-weight:normal;font-stretch:normal;font-size:22.50000191px;line-height:0%;font-family:KaTeX_Main;-inkscape-font-specification:'KaTeX_Main, Normal';text-align:start;writing-mode:lr-tb;text-anchor:start;fill:#ff9c39"
       id="path19049" /></g><g
     aria-label="voc"
     style="font-style:normal;font-variant:normal;font-weight:normal;font-stretch:normal;font-size:21px;line-height:0%;font-family:KaTeX_Math;-inkscape-font-specification:'KaTeX_Math, Normal';text-align:start;writing-mode:lr-tb;text-anchor:start;fill:#ff9c39"
     id="text4883"><path
       d="m 263.28438,94.609309 q -1.44,0 -2.295,-0.72 -0.8325,-0.7425 -0.8325,-2.16 0,-0.405 0.045,-0.765 0.2025,-1.08 1.0575,-3.3075 l 0.36,-1.08 q 0.135,-0.405 0.135,-0.765 0,-0.5625 -0.4275,-0.5625 -0.1575,0 -0.36,0.0675 -1.1475,0.405 -1.7325,2.5875 0,0.0225 -0.0225,0.09 -0.0225,0.045 -0.045,0.0675 0,0 -0.0225,0.0225 -0.0225,0.0225 -0.09,0.0225 -0.045,0 -0.09,0 -0.045,0 -0.18,0 h -0.315 q -0.135,-0.135 -0.135,-0.2025 0,-0.0675 0.0675,-0.3375 0.54,-1.7775 1.665,-2.655 0.6075,-0.4725 1.395,-0.4725 0.8775,0 1.44,0.495 0.5625,0.495 0.5625,1.305 0,0.3825 -0.0675,0.585 0,0.1575 -0.3375,0.99 -1.035,2.8125 -1.1025,4.005 0,0.6075 0.1125,0.99 0.2925,0.9675 1.4175,0.9675 0.6075,0 1.08,-0.36 1.395,-0.9225 2.3175,-4.2525 0.18,-0.63 0.18,-1.035 0,-0.99 -0.8775,-1.7775 -0.2925,-0.27 -0.2925,-0.6075 0,-0.5175 0.405,-0.9225 0.4275,-0.4275 0.945,-0.4275 0.54,0 0.8325,0.5175 0.2925,0.495 0.2925,1.1925 0,0.7875 -0.45,2.5875 -0.4275,1.7325 -1.08,3.015 -1.4175,2.9025 -3.555,2.9025 z"
       style="font-size:22.5px"
       id="path19052" /><path
       d="m 273.42406,93.195559 h 0.2275 q 0.52,0 0.65,0.01625 1.02375,0.17875 1.60875,0.91 0.585,0.73125 0.585,1.885 0,0.95875 -0.50375,1.9175 -0.60125,1.17 -1.7225,1.90125 -1.105,0.715001 -2.2425,0.715001 -1.1375,0 -1.83625,-0.650001 -0.69875,-0.65 -0.86125,-1.70625 -0.0163,-0.0975 -0.0163,-0.3575 0,-0.4225 0.0487,-0.6825 0.14625,-0.82875 0.63375,-1.60875 0.4875,-0.79625 1.1375,-1.34875 1.105,-0.86125 2.29125,-0.99125 z m -2.6975,5.21625 q 0,0.69875 0.37375,1.12125 0.39,0.40625 1.0075,0.40625 0.2925,0 0.585,-0.0975 1.18625,-0.39 1.77125,-1.7875 0.3575,-0.8775 0.585,-2.19375 0.0163,-0.0975 0.0163,-0.50375 0,-1.57625 -1.3325,-1.57625 -1.02375,0 -1.80375,0.9425 -0.53625,0.65 -0.8775,1.885 -0.325,1.18625 -0.325,1.80375 z"
       style="font-size:16.25px"
       id="path19054" /><path
       d="m 283.22891,98.395559 q 0.065,0 0.21125,0.1625 0.1625,0.14625 0.1625,0.21125 0,0.14625 -0.50375,0.60125 -1.0075,0.910001 -2.55125,1.137501 -0.3575,0.0325 -0.63375,0.0325 -1.73875,0 -2.42125,-1.430001 -0.30875,-0.60125 -0.30875,-1.3325 0,-0.7475 0.30875,-1.5275 0.47125,-1.21875 1.5275,-2.06375 1.0725,-0.86125 2.275,-0.99125 0.0975,-0.01625 0.30875,-0.01625 0.56875,0 1.05625,0.17875 0.91,0.39 0.91,1.235 0,0.50375 -0.30875,0.82875 -0.30875,0.30875 -0.78,0.30875 -0.30875,0 -0.4875,-0.1625 -0.17875,-0.17875 -0.17875,-0.4875 0,-0.27625 0.1625,-0.53625 0.1625,-0.26 0.4225,-0.37375 0.13,-0.08125 0.17875,-0.08125 0.065,0 -0.11375,-0.11375 -0.30875,-0.17875 -0.86125,-0.17875 -0.4875,0 -0.92625,0.2275 -0.34125,0.14625 -0.69875,0.50375 -0.4225,0.4225 -0.6825,1.0075 -0.26,0.585 -0.52,1.67375 -0.17875,0.76375 -0.17875,1.21875 0,0.7475 0.4225,1.12125 0.37375,0.39 1.0075,0.39 0.24375,0 0.50375,-0.0325 1.5275,-0.2275 2.5025,-1.34875 0.14625,-0.1625 0.195,-0.1625 z"
       style="font-size:16.25px"
       id="path19056" /></g><g
     aria-label="+"
     style="font-style:normal;font-variant:normal;font-weight:normal;font-stretch:normal;font-size:22.50000191px;line-height:0%;font-family:KaTeX_Main;-inkscape-font-specification:'KaTeX_Main, Normal';text-align:start;writing-mode:lr-tb;text-anchor:start;fill:#ff9c39"
     id="text4897"><path
       d="m 235.43718,41.187312 q -0.315,-0.1575 -0.315,-0.45 0,-0.2925 0.315,-0.45 h 6.7275 v -3.375 l 0.0225,-3.375001 q 0.225,-0.2925 0.4275,-0.2925 0.2925,0 0.45,0.3375 v 6.705001 h 6.705 q 0.3375,0.18 0.3375,0.45 0,0.27 -0.3375,0.45 h -6.705 v 6.705 q -0.1575,0.315 -0.45,0.315 -0.2925,0 -0.45,-0.315 v -6.705 z"
       style="font-style:normal;font-variant:normal;font-weight:normal;font-stretch:normal;font-size:22.50000191px;line-height:0%;font-family:KaTeX_Main;-inkscape-font-specification:'KaTeX_Main, Normal';text-align:start;writing-mode:lr-tb;text-anchor:start;fill:#ff9c39"
       id="path19059" /></g><g
     id="g4899"
     transform="translate(-6.1384112,-19.638588)"><g
       id="g4901"><path
         class="st19"
         d="m 252,144 c 3.7,-7 6.2,-20.5 6.2,-36 0,-11.4 -1.4,-21.8 -3.6,-29.3"
         id="path4903"
         inkscape:connector-curvature="0"
         style="fill:none;stroke:#ff9c39;stroke-width:2;stroke-linecap:round;stroke-miterlimit:10" /><g
         id="g4905"><path
           class="st16"
           d="m 252,72 c 2.4,2.7 5.9,5.9 9,7.6 l -6.1,0.1 -4.6,3.9 c 1.2,-3.2 1.7,-8 1.7,-11.6 z"
           id="path4907"
           inkscape:connector-curvature="0"
           style="fill:#ff9c39" /></g></g></g><path
     style="fill:none;fill-rule:evenodd;stroke:#000000;stroke-width:1px;stroke-linecap:round;stroke-linejoin:miter;stroke-opacity:1"
     d="m 139.50499,124.62226 0,12.04353"
     id="path8121"
     inkscape:connector-curvature="0" /><g
     aria-label="i = 0"
     style="font-style:normal;font-variant:normal;font-weight:normal;font-stretch:normal;font-size:22.5px;line-height:0%;font-family:KaTeX_Math;-inkscape-font-specification:'KaTeX_Math, Normal';text-align:start;letter-spacing:1;writing-mode:lr-tb;text-anchor:start;fill:#11accd;stroke:none;stroke-width:2;stroke-linecap:round;stroke-miterlimit:10"
     id="text4351-5"><path
       d="m 188.25591,14.199219 q 0,-0.5175 0.4275,-0.945 0.4275,-0.4275 0.99,-0.4275 0.405,0 0.675,0.27 0.2925,0.27 0.2925,0.675 0,0.495 -0.45,0.945 -0.45,0.45 -0.99,0.45 -0.405,0 -0.675,-0.27 -0.27,-0.27 -0.27,-0.6975 z m -0.5175,13.7475 q -0.8775,0 -1.4175,-0.5175 -0.54,-0.5175 -0.54,-1.395 0,-0.3825 0.045,-0.5175 0,-0.045 1.035,-2.7675 1.035,-2.745 1.035,-2.79 0.1125,-0.36 0.1125,-0.81 0,-0.54 -0.3825,-0.54 h -0.045 q -0.54,0 -1.035,0.5175 -0.72,0.7425 -1.0575,2.115 0,0.0225 -0.0225,0.09 -0.0225,0.045 -0.045,0.0675 0,0 -0.0225,0.0225 -0.0225,0.0225 -0.09,0.0225 -0.045,0 -0.09,0 -0.045,0 -0.18,0 h -0.315 q -0.135,-0.135 -0.135,-0.2025 0,-0.0675 0.0675,-0.315 0.585,-1.935 1.71,-2.7 0.6075,-0.4725 1.305,-0.4725 0.9,0 1.485,0.5175 0.585,0.5175 0.585,1.395 0,0.2925 -0.1125,0.675 -0.0225,0.045 -1.035,2.7675 l -1.0125,2.7225 q -0.1125,0.495 -0.1125,0.72 0,0.5625 0.3825,0.5625 0.315,0 0.5625,-0.135 0.99,-0.4725 1.5525,-2.3625 0.0675,-0.27 0.1125,-0.315 0.0675,-0.045 0.3825,-0.045 0.2025,0 0.27,0.0225 0.09,0 0.135,0.045 0.045,0.045 0.045,0.1575 0,0.09 -0.0675,0.2925 -0.4275,1.2825 -1.2375,2.2275 -0.7875,0.945 -1.8675,0.945 z"
       style="font-style:normal;font-variant:normal;font-weight:normal;font-stretch:normal;font-size:22.5px;line-height:125%;font-family:KaTeX_Math;-inkscape-font-specification:'KaTeX_Math, Normal';text-align:start;writing-mode:lr-tb;text-anchor:start;stroke:none"
       id="path19062" /><path
       d="m 200.77923,19.891718 q 0,-0.2925 0.315,-0.45 h 14.3325 q 0.3375,0.1575 0.3375,0.45 0,0.2475 -0.315,0.4275 l -7.155,0.0225 h -7.155 q -0.36,-0.1125 -0.36,-0.45 z m 0,4.365 q 0,-0.3375 0.36,-0.45 h 14.31 q 0.0225,0.0225 0.09,0.09 0.09,0.045 0.1125,0.09 0.045,0.0225 0.0675,0.1125 0.045,0.0675 0.045,0.1575 0,0.2925 -0.3375,0.45 h -14.3325 q -0.315,-0.1575 -0.315,-0.45 z"
       style="font-style:normal;font-variant:normal;font-weight:normal;font-stretch:normal;font-size:22.50000191px;line-height:125%;font-family:KaTeX_Main;-inkscape-font-specification:'KaTeX_Main, Normal';text-align:start;writing-mode:lr-tb;text-anchor:start;stroke:none"
       id="path19064" /><path
       d="m 226.79446,14.536718 q 1.26,-1.822501 3.4425,-1.822501 1.6425,0 2.88,1.125001 0.60751,0.585 1.03501,1.53 0.8325,1.8675 0.8325,5.13 0,3.4875 -0.9675,5.332501 -0.63,1.305 -1.84501,1.89 -0.945,0.4725 -1.9125,0.4725 -2.5875,0 -3.78,-2.3625 -0.9675,-1.845001 -0.9675,-5.332501 0,-2.0925 0.27,-3.4425 0.2925,-1.3725 1.0125,-2.52 z m 5.0625,-0.27 q -0.6525,-0.72 -1.5975,-0.72 -0.945,0 -1.62,0.72 -0.495,0.5175 -0.675,1.26 -0.18,0.7425 -0.225,2.565 0,0.135 -0.0225,0.8775 0,0.7425 0,1.2375 0,2.16 0.045,3.015 0.09,1.575001 0.27,2.272501 0.18,0.675 0.675,1.17 0.6075,0.675 1.5525,0.675 0.9225,0 1.53,-0.675 0.495,-0.495 0.675,-1.17 0.18,-0.6975 0.27,-2.272501 0.045,-0.855 0.045,-3.015 0,-0.495 -0.0225,-1.2375 0,-0.7425 0,-0.8775 -0.045,-1.8225 -0.225,-2.565 -0.18,-0.7425 -0.675,-1.26 z"
       style="font-style:normal;font-variant:normal;font-weight:normal;font-stretch:normal;font-size:22.50000191px;line-height:125%;font-family:KaTeX_Main;-inkscape-font-specification:'KaTeX_Main, Normal';text-align:start;writing-mode:lr-tb;text-anchor:start;stroke:none"
       id="path19066" /></g></svg>