<?xml version="1.0" encoding="UTF-8" standalone="no"?>
<svg
   xmlns:xhtml="http://www.w3.org/1999/xhtml"
   xmlns:dc="http://purl.org/dc/elements/1.1/"
   xmlns:cc="http://creativecommons.org/ns#"
   xmlns:rdf="http://www.w3.org/1999/02/22-rdf-syntax-ns#"
   xmlns:svg="http://www.w3.org/2000/svg"
   xmlns="http://www.w3.org/2000/svg"
   xmlns:sodipodi="http://sodipodi.sourceforge.net/DTD/sodipodi-0.dtd"
   xmlns:inkscape="http://www.inkscape.org/namespaces/inkscape"
   width="432.88599"
   height="369.84775"
   version="1.1"
   id="svg2"
   inkscape:version="0.92.2 5c3e80d, 2017-08-06"
   sodipodi:docname="thevenin3a.svg">
  <metadata
     id="metadata164">
    <rdf:RDF>
      <cc:Work
         rdf:about="">
        <dc:format>image/svg+xml</dc:format>
        <dc:type
           rdf:resource="http://purl.org/dc/dcmitype/StillImage" />
        <dc:title></dc:title>
      </cc:Work>
    </rdf:RDF>
  </metadata>
  <defs
     id="defs162" />
  <sodipodi:namedview
     pagecolor="#ffffff"
     bordercolor="#666666"
     borderopacity="1"
     objecttolerance="10"
     gridtolerance="10"
     guidetolerance="10"
     inkscape:pageopacity="0"
     inkscape:pageshadow="2"
     inkscape:window-width="640"
     inkscape:window-height="480"
     id="namedview160"
     showgrid="false"
     fit-margin-top="10"
     fit-margin-right="10"
     fit-margin-bottom="10"
     fit-margin-left="10"
     inkscape:zoom="1.1573486"
     inkscape:cx="216.44299"
     inkscape:cy="184.92387"
     inkscape:current-layer="svg2" />
  <xhtml:defs>
    <xhtml:style
       type="text/css"><![CDATA[
svg .grid { stroke-width: 0.5px; stroke: rgb(187, 187, 187); opacity: 0.5; }
svg .domain { stroke-width: 3px; stroke: black; }
svg { border: none; }
svg .path { stroke-width: 4px; stroke: rgb(255, 156, 57); stroke-linecap: round; fill: none; }
svg text { font-style: normal; font-variant: normal; font-weight: normal; font-stretch: normal; font-size: 12px; line-height: normal; font-family: katex_math; }]]></xhtml:style>
  </xhtml:defs>
  <path
     class="domain"
     d="m 15.074902,195.52945 0,0.5 319.999998,0 0,-0.5"
     id="path8"
     inkscape:connector-curvature="0"
     style="font-size:medium;font-family:sans-serif;text-anchor:middle;fill:none;stroke:#000000" />
  <line
     style="font-size:medium;font-family:sans-serif;text-anchor:middle;fill:none;stroke:#000000"
     x2="15.074903"
     y1="195.52945"
     x1="15.074903"
     id="line12"
     y2="201.52945" />
  <g
     aria-label="-8"
     style="font-style:normal;font-variant:normal;font-weight:normal;font-stretch:normal;font-size:12.5px;line-height:0%;font-family:KaTeX_Main;-inkscape-font-specification:'KaTeX_Main, Normal';text-align:center;writing-mode:lr-tb;text-anchor:middle;fill:#000000"
     id="text14">
    <path
       d="m 10,209.37856 v -0.9125 h 3.325 v 0.9125 z"
       style="font-style:normal;font-variant:normal;font-weight:normal;font-stretch:normal;font-size:12.5px;line-height:0%;font-family:KaTeX_Main;-inkscape-font-specification:'KaTeX_Main, Normal';text-align:center;writing-mode:lr-tb;text-anchor:middle;fill:#000000"
       id="path977" />
    <path
       d="m 16.187305,207.42856 q -0.6125,-0.4 -0.95,-0.8375 -0.325,-0.4375 -0.325,-1.15 0,-0.5375 0.2,-0.9 0.275,-0.5625 0.8,-0.9 0.5375,-0.35 1.225,-0.35 0.85,0 1.475,0.45 0.625,0.4375 0.775,1.1375 0.0125,0.075 0.0125,0.3 0,0.275 -0.025,0.375 -0.1875,0.825 -1.1375,1.425 l -0.15,0.1 q 0.7,0.475 0.725,0.5 0.9375,0.75 0.9375,1.8625 0,1.0125 -0.75,1.7375 -0.7375,0.7125 -1.85,0.7125 -1.5375,0 -2.2625,-1.125 -0.3125,-0.45 -0.3125,-1.0875 0,-1.3625 1.6125,-2.25 z m 2.4875,-2.225 q 0,-0.5375 -0.35,-0.9125 -0.35,-0.375 -0.85,-0.475 -0.0875,-0.0125 -0.4125,-0.0125 -0.6625,0 -1.1125,0.45 -0.3125,0.2875 -0.3125,0.6875 0,0.5375 0.45,0.85 0.0625,0.0625 0.8,0.525 l 0.725,0.475 q 0.0125,-0.0125 0.1625,-0.1 0.15,-0.1 0.225,-0.175 0.675,-0.5375 0.675,-1.3125 z m -3.3,4.45 q 0,0.7375 0.5375,1.225 0.5375,0.475 1.25,0.475 0.5125,0 0.925,-0.2125 0.425,-0.2125 0.6375,-0.55 0.2125,-0.325 0.2125,-0.6875 0,-0.5375 -0.4375,-0.95 -0.1,-0.1 -1.0375,-0.7125 -0.175,-0.1125 -0.3875,-0.2375 -0.2,-0.1375 -0.3125,-0.2125 l -0.1,-0.0625 -0.15,0.075 q -0.7875,0.5125 -1.0375,1.25 -0.1,0.325 -0.1,0.6 z"
       style="font-style:normal;font-variant:normal;font-weight:normal;font-stretch:normal;font-size:12.5px;line-height:0%;font-family:KaTeX_Main;-inkscape-font-specification:'KaTeX_Main, Normal';text-align:center;writing-mode:lr-tb;text-anchor:middle;fill:#000000"
       id="path979" />
  </g>
  <line
     style="font-size:medium;font-family:sans-serif;text-anchor:middle;fill:none"
     id="line16"
     y2="355.52945"
     x2="15.074903"
     y1="35.529449"
     x1="15.074903"
     class="grid" />
  <line
     style="font-size:medium;font-family:sans-serif;text-anchor:middle;fill:none;stroke:#000000"
     x2="55.074902"
     y1="195.52945"
     x1="55.074902"
     id="line20"
     y2="201.52945" />
  <g
     aria-label="-6"
     style="font-style:normal;font-variant:normal;font-weight:normal;font-stretch:normal;font-size:12.5px;line-height:0%;font-family:KaTeX_Main;-inkscape-font-specification:'KaTeX_Main, Normal';text-align:center;writing-mode:lr-tb;text-anchor:middle;fill:#000000"
     id="text22">
    <path
       d="m 49.999999,209.37856 v -0.9125 h 3.325 v 0.9125 z"
       style="font-style:normal;font-variant:normal;font-weight:normal;font-stretch:normal;font-size:12.5px;line-height:0%;font-family:KaTeX_Main;-inkscape-font-specification:'KaTeX_Main, Normal';text-align:center;writing-mode:lr-tb;text-anchor:middle;fill:#000000"
       id="path972" />
    <path
       d="m 58.699804,204.10356 q -0.275,-0.275 -0.775,-0.3125 -0.875,0 -1.4625,0.75 -0.5875,0.8125 -0.5875,2.525 l 0.0125,0.05 0.1,-0.1625 q 0.5125,-0.75 1.3875,-0.75 0.575,0 1.0125,0.2375 0.3,0.175 0.6,0.5125 0.3,0.325 0.4875,0.7 0.2625,0.6125 0.2625,1.3375 v 0.225 q 0,0.2875 -0.0625,0.5375 -0.15,0.7375 -0.775,1.3875 -0.5375,0.5625 -1.2,0.7 -0.2,0.05 -0.5,0.05 -0.2375,0 -0.425,-0.0375 -0.925,-0.175 -1.475,-1 -0.7375,-1.1625 -0.7375,-3.15 0,-1.35 0.475,-2.3625 0.475,-1.0125 1.325,-1.575 0.675,-0.475 1.4625,-0.475 0.725,0 1.1625,0.3875 0.45,0.3875 0.45,1.0625 0,0.3125 -0.1875,0.5 -0.175,0.1875 -0.475,0.1875 -0.3,0 -0.4875,-0.175 -0.175,-0.175 -0.175,-0.4875 0,-0.5625 0.5875,-0.6625 z m -0.55,3 q -0.35,-0.45 -0.9,-0.45 -0.4625,0 -0.75,0.2875 -0.6125,0.6125 -0.6125,1.975 0,1.1125 0.15,1.5375 0.125,0.375 0.425,0.6375 0.3,0.2625 0.7125,0.2625 0.6375,0 0.975,-0.475 0.1875,-0.2625 0.2375,-0.625 0.05,-0.3625 0.05,-1.05 v -0.2 -0.2 q 0,-0.7125 -0.05,-1.075 -0.05,-0.3625 -0.2375,-0.625 z"
       style="font-style:normal;font-variant:normal;font-weight:normal;font-stretch:normal;font-size:12.5px;line-height:0%;font-family:KaTeX_Main;-inkscape-font-specification:'KaTeX_Main, Normal';text-align:center;writing-mode:lr-tb;text-anchor:middle;fill:#000000"
       id="path974" />
  </g>
  <line
     style="font-size:medium;font-family:sans-serif;text-anchor:middle;fill:none"
     id="line24"
     y2="355.52945"
     x2="55.074902"
     y1="35.529449"
     x1="55.074902"
     class="grid" />
  <line
     style="font-size:medium;font-family:sans-serif;text-anchor:middle;fill:none;stroke:#000000"
     x2="95.074905"
     y1="195.52945"
     x1="95.074905"
     id="line28"
     y2="201.52945" />
  <g
     aria-label="-4"
     style="font-style:normal;font-variant:normal;font-weight:normal;font-stretch:normal;font-size:12.5px;line-height:0%;font-family:KaTeX_Main;-inkscape-font-specification:'KaTeX_Main, Normal';text-align:center;writing-mode:lr-tb;text-anchor:middle;fill:#000000"
     id="text30">
    <path
       d="m 90.000011,209.37856 v -0.9125 h 3.325 v 0.9125 z"
       style="font-style:normal;font-variant:normal;font-weight:normal;font-stretch:normal;font-size:12.5px;line-height:0%;font-family:KaTeX_Main;-inkscape-font-specification:'KaTeX_Main, Normal';text-align:center;writing-mode:lr-tb;text-anchor:middle;fill:#000000"
       id="path967" />
    <path
       d="m 99.812315,211.61606 q -0.175,-0.0375 -1.6125,-0.0375 -1.5,0 -1.675,0.0375 h -0.1125 v -0.575 h 0.3875 q 0.5375,-0.0125 0.6625,-0.0625 0.1,-0.025 0.15,-0.125 0.0125,-0.025 0.0125,-0.675 v -0.625 h -3.2375 v -0.575 l 1.8875,-2.8875 q 1.9125,-2.9 1.9375,-2.9125 0.025,-0.025 0.2625,-0.025 h 0.225 l 0.075,0.075 v 5.75 h 1.15 v 0.575 h -1.15 v 0.6375 q 0,0.5125 0,0.6 0.0125,0.0875 0.075,0.15 0.1,0.0875 0.7125,0.1 h 0.3625 v 0.575 z m -2.1125,-2.6375 v -4.175 l -2.7375,4.1625 1.3625,0.0125 z"
       style="font-style:normal;font-variant:normal;font-weight:normal;font-stretch:normal;font-size:12.5px;line-height:0%;font-family:KaTeX_Main;-inkscape-font-specification:'KaTeX_Main, Normal';text-align:center;writing-mode:lr-tb;text-anchor:middle;fill:#000000"
       id="path969" />
  </g>
  <line
     style="font-size:medium;font-family:sans-serif;text-anchor:middle;fill:none"
     id="line32"
     y2="355.52945"
     x2="95.074905"
     y1="35.529449"
     x1="95.074905"
     class="grid" />
  <line
     style="font-size:medium;font-family:sans-serif;text-anchor:middle;fill:none;stroke:#000000"
     x2="135.07491"
     y1="195.52945"
     x1="135.07491"
     id="line36"
     y2="201.52945" />
  <g
     aria-label="-2"
     style="font-style:normal;font-variant:normal;font-weight:normal;font-stretch:normal;font-size:12.5px;line-height:0%;font-family:KaTeX_Main;-inkscape-font-specification:'KaTeX_Main, Normal';text-align:center;writing-mode:lr-tb;text-anchor:middle;fill:#000000"
     id="text38">
    <path
       d="m 130,209.37856 v -0.9125 h 3.325 v 0.9125 z"
       style="font-style:normal;font-variant:normal;font-weight:normal;font-stretch:normal;font-size:12.5px;line-height:0%;font-family:KaTeX_Main;-inkscape-font-specification:'KaTeX_Main, Normal';text-align:center;writing-mode:lr-tb;text-anchor:middle;fill:#000000"
       id="path962" />
    <path
       d="m 135.41231,206.25356 q -0.35,0 -0.55,-0.225 -0.2,-0.225 -0.2,-0.55 0,-0.9 0.675,-1.5375 0.6875,-0.65 1.6375,-0.65 1.075,0 1.775,0.5875 0.7125,0.575 0.875,1.5125 0.025,0.225 0.025,0.4125 0,0.725 -0.4375,1.3625 -0.35,0.525 -1.4125,1.4375 -0.45,0.3875 -1.25,1.15 l -0.7375,0.7 0.95,0.0125 q 1.9625,0 2.0875,-0.0625 0.05,-0.0125 0.125,-0.2625 0.05,-0.1375 0.175,-0.85 v -0.0375 h 0.5 v 0.0375 l -0.35,2.2875 v 0.0375 h -4.6375 v -0.2375 q 0,-0.25 0.025,-0.2875 0.0125,-0.0125 1.05,-1.1875 1.3625,-1.5125 1.75,-2 0.8375,-1.1375 0.8375,-2.0875 0,-0.825 -0.4375,-1.375 -0.425,-0.5625 -1.2,-0.5625 -0.725,0 -1.175,0.65 -0.025,0.05 -0.075,0.1375 -0.0375,0.0625 -0.0375,0.075 0,0.0125 0.0625,0.0125 0.3125,0 0.5,0.225 0.2,0.225 0.2,0.525 0,0.3125 -0.2125,0.5375 -0.2,0.2125 -0.5375,0.2125 z"
       style="font-style:normal;font-variant:normal;font-weight:normal;font-stretch:normal;font-size:12.5px;line-height:0%;font-family:KaTeX_Main;-inkscape-font-specification:'KaTeX_Main, Normal';text-align:center;writing-mode:lr-tb;text-anchor:middle;fill:#000000"
       id="path964" />
  </g>
  <line
     style="font-size:medium;font-family:sans-serif;text-anchor:middle;fill:none"
     id="line40"
     y2="355.52945"
     x2="135.07491"
     y1="35.529449"
     x1="135.07491"
     class="grid" />
  <line
     style="font-size:medium;font-family:sans-serif;text-anchor:middle;fill:none;stroke:#000000"
     x2="175.07491"
     y1="195.52945"
     x1="175.07491"
     id="line44"
     y2="201.52945" />
  <line
     style="font-size:medium;font-family:sans-serif;text-anchor:middle;fill:none"
     id="line46"
     y2="355.52945"
     x2="175.07491"
     y1="35.529449"
     x1="175.07491"
     class="grid" />
  <line
     style="font-size:medium;font-family:sans-serif;text-anchor:middle;fill:none;stroke:#000000"
     x2="215.07491"
     y1="195.52945"
     x1="215.07491"
     id="line50"
     y2="201.52945" />
  <g
     aria-label="2"
     style="font-style:normal;font-variant:normal;font-weight:normal;font-stretch:normal;font-size:12.5px;line-height:0%;font-family:KaTeX_Main;-inkscape-font-specification:'KaTeX_Main, Normal';text-align:center;writing-mode:lr-tb;text-anchor:middle;fill:#000000"
     id="text52">
    <path
       d="m 213.32491,206.25356 q -0.35,0 -0.55,-0.225 -0.2,-0.225 -0.2,-0.55 0,-0.9 0.675,-1.5375 0.6875,-0.65 1.6375,-0.65 1.075,0 1.775,0.5875 0.7125,0.575 0.875,1.5125 0.025,0.225 0.025,0.4125 0,0.725 -0.4375,1.3625 -0.35,0.525 -1.4125,1.4375 -0.45,0.3875 -1.25,1.15 l -0.7375,0.7 0.95,0.0125 q 1.9625,0 2.0875,-0.0625 0.05,-0.0125 0.125,-0.2625 0.05,-0.1375 0.175,-0.85 v -0.0375 h 0.5 v 0.0375 l -0.35,2.2875 v 0.0375 h -4.6375 v -0.2375 q 0,-0.25 0.025,-0.2875 0.0125,-0.0125 1.05,-1.1875 1.3625,-1.5125 1.75,-2 0.8375,-1.1375 0.8375,-2.0875 0,-0.825 -0.4375,-1.375 -0.425,-0.5625 -1.2,-0.5625 -0.725,0 -1.175,0.65 -0.025,0.05 -0.075,0.1375 -0.0375,0.0625 -0.0375,0.075 0,0.0125 0.0625,0.0125 0.3125,0 0.5,0.225 0.2,0.225 0.2,0.525 0,0.3125 -0.2125,0.5375 -0.2,0.2125 -0.5375,0.2125 z"
       style="font-style:normal;font-variant:normal;font-weight:normal;font-stretch:normal;font-size:12.5px;line-height:0%;font-family:KaTeX_Main;-inkscape-font-specification:'KaTeX_Main, Normal';text-align:center;writing-mode:lr-tb;text-anchor:middle;fill:#000000"
       id="path959" />
  </g>
  <line
     style="font-size:medium;font-family:sans-serif;text-anchor:middle;fill:none"
     id="line54"
     y2="355.52945"
     x2="215.07491"
     y1="35.529449"
     x1="215.07491"
     class="grid" />
  <line
     style="font-size:medium;font-family:sans-serif;text-anchor:middle;fill:none;stroke:#000000"
     x2="255.07491"
     y1="195.52945"
     x1="255.07491"
     id="line58"
     y2="201.52945" />
  <g
     aria-label="4"
     style="font-style:normal;font-variant:normal;font-weight:normal;font-stretch:normal;font-size:12.5px;line-height:0%;font-family:KaTeX_Main;-inkscape-font-specification:'KaTeX_Main, Normal';text-align:center;writing-mode:lr-tb;text-anchor:middle;fill:#000000"
     id="text60">
    <path
       d="m 257.72491,211.61606 q -0.175,-0.0375 -1.6125,-0.0375 -1.5,0 -1.675,0.0375 h -0.1125 v -0.575 h 0.3875 q 0.5375,-0.0125 0.6625,-0.0625 0.1,-0.025 0.15,-0.125 0.0125,-0.025 0.0125,-0.675 v -0.625 h -3.2375 v -0.575 l 1.8875,-2.8875 q 1.9125,-2.9 1.9375,-2.9125 0.025,-0.025 0.2625,-0.025 h 0.225 l 0.075,0.075 v 5.75 h 1.15 v 0.575 h -1.15 v 0.6375 q 0,0.5125 0,0.6 0.0125,0.0875 0.075,0.15 0.1,0.0875 0.7125,0.1 h 0.3625 v 0.575 z m -2.1125,-2.6375 v -4.175 l -2.7375,4.1625 1.3625,0.0125 z"
       style="font-style:normal;font-variant:normal;font-weight:normal;font-stretch:normal;font-size:12.5px;line-height:0%;font-family:KaTeX_Main;-inkscape-font-specification:'KaTeX_Main, Normal';text-align:center;writing-mode:lr-tb;text-anchor:middle;fill:#000000"
       id="path956" />
  </g>
  <line
     style="font-size:medium;font-family:sans-serif;text-anchor:middle;fill:none"
     id="line62"
     y2="355.52945"
     x2="255.07491"
     y1="35.529449"
     x1="255.07491"
     class="grid" />
  <line
     style="font-size:medium;font-family:sans-serif;text-anchor:middle;fill:none;stroke:#000000"
     x2="295.07489"
     y1="195.52945"
     x1="295.07489"
     id="line66"
     y2="201.52945" />
  <g
     aria-label="6"
     style="font-style:normal;font-variant:normal;font-weight:normal;font-stretch:normal;font-size:12.5px;line-height:0%;font-family:KaTeX_Main;-inkscape-font-specification:'KaTeX_Main, Normal';text-align:center;writing-mode:lr-tb;text-anchor:middle;fill:#000000"
     id="text68">
    <path
       d="m 296.61239,204.10356 q -0.275,-0.275 -0.775,-0.3125 -0.875,0 -1.4625,0.75 -0.5875,0.8125 -0.5875,2.525 l 0.0125,0.05 0.1,-0.1625 q 0.5125,-0.75 1.3875,-0.75 0.575,0 1.0125,0.2375 0.3,0.175 0.6,0.5125 0.3,0.325 0.4875,0.7 0.2625,0.6125 0.2625,1.3375 v 0.225 q 0,0.2875 -0.0625,0.5375 -0.15,0.7375 -0.775,1.3875 -0.5375,0.5625 -1.2,0.7 -0.2,0.05 -0.5,0.05 -0.2375,0 -0.425,-0.0375 -0.925,-0.175 -1.475,-1 -0.7375,-1.1625 -0.7375,-3.15 0,-1.35 0.475,-2.3625 0.475,-1.0125 1.325,-1.575 0.675,-0.475 1.4625,-0.475 0.725,0 1.1625,0.3875 0.45,0.3875 0.45,1.0625 0,0.3125 -0.1875,0.5 -0.175,0.1875 -0.475,0.1875 -0.3,0 -0.4875,-0.175 -0.175,-0.175 -0.175,-0.4875 0,-0.5625 0.5875,-0.6625 z m -0.55,3 q -0.35,-0.45 -0.9,-0.45 -0.4625,0 -0.75,0.2875 -0.6125,0.6125 -0.6125,1.975 0,1.1125 0.15,1.5375 0.125,0.375 0.425,0.6375 0.3,0.2625 0.7125,0.2625 0.6375,0 0.975,-0.475 0.1875,-0.2625 0.2375,-0.625 0.05,-0.3625 0.05,-1.05 v -0.2 -0.2 q 0,-0.7125 -0.05,-1.075 -0.05,-0.3625 -0.2375,-0.625 z"
       style="font-style:normal;font-variant:normal;font-weight:normal;font-stretch:normal;font-size:12.5px;line-height:0%;font-family:KaTeX_Main;-inkscape-font-specification:'KaTeX_Main, Normal';text-align:center;writing-mode:lr-tb;text-anchor:middle;fill:#000000"
       id="path953" />
  </g>
  <line
     style="font-size:medium;font-family:sans-serif;text-anchor:middle;fill:none"
     id="line70"
     y2="355.52945"
     x2="295.07489"
     y1="35.529449"
     x1="295.07489"
     class="grid" />
  <line
     style="font-size:medium;font-family:sans-serif;text-anchor:middle;fill:none;stroke:#000000"
     x2="335.07489"
     y1="195.52945"
     x1="335.07489"
     id="line74"
     y2="201.52945" />
  <g
     aria-label="8"
     style="font-style:normal;font-variant:normal;font-weight:normal;font-stretch:normal;font-size:12.5px;line-height:0%;font-family:KaTeX_Main;-inkscape-font-specification:'KaTeX_Main, Normal';text-align:center;writing-mode:lr-tb;text-anchor:middle;fill:#000000"
     id="text76">
    <path
       d="m 334.09989,207.42856 q -0.6125,-0.4 -0.95,-0.8375 -0.325,-0.4375 -0.325,-1.15 0,-0.5375 0.2,-0.9 0.275,-0.5625 0.8,-0.9 0.5375,-0.35 1.225,-0.35 0.85,0 1.475,0.45 0.625,0.4375 0.775,1.1375 0.0125,0.075 0.0125,0.3 0,0.275 -0.025,0.375 -0.1875,0.825 -1.1375,1.425 l -0.15,0.1 q 0.7,0.475 0.725,0.5 0.9375,0.75 0.9375,1.8625 0,1.0125 -0.75,1.7375 -0.7375,0.7125 -1.85,0.7125 -1.5375,0 -2.2625,-1.125 -0.3125,-0.45 -0.3125,-1.0875 0,-1.3625 1.6125,-2.25 z m 2.4875,-2.225 q 0,-0.5375 -0.35,-0.9125 -0.35,-0.375 -0.85,-0.475 -0.0875,-0.0125 -0.4125,-0.0125 -0.6625,0 -1.1125,0.45 -0.3125,0.2875 -0.3125,0.6875 0,0.5375 0.45,0.85 0.0625,0.0625 0.8,0.525 l 0.725,0.475 q 0.0125,-0.0125 0.1625,-0.1 0.15,-0.1 0.225,-0.175 0.675,-0.5375 0.675,-1.3125 z m -3.3,4.45 q 0,0.7375 0.5375,1.225 0.5375,0.475 1.25,0.475 0.5125,0 0.925,-0.2125 0.425,-0.2125 0.6375,-0.55 0.2125,-0.325 0.2125,-0.6875 0,-0.5375 -0.4375,-0.95 -0.1,-0.1 -1.0375,-0.7125 -0.175,-0.1125 -0.3875,-0.2375 -0.2,-0.1375 -0.3125,-0.2125 l -0.1,-0.0625 -0.15,0.075 q -0.7875,0.5125 -1.0375,1.25 -0.1,0.325 -0.1,0.6 z"
       style="font-style:normal;font-variant:normal;font-weight:normal;font-stretch:normal;font-size:12.5px;line-height:0%;font-family:KaTeX_Main;-inkscape-font-specification:'KaTeX_Main, Normal';text-align:center;writing-mode:lr-tb;text-anchor:middle;fill:#000000"
       id="path950" />
  </g>
  <line
     style="font-size:medium;font-family:sans-serif;text-anchor:middle;fill:none"
     id="line78"
     y2="355.52945"
     x2="335.07489"
     y1="35.529449"
     x1="335.07489"
     class="grid" />
  <g
     aria-label="v (volts)"
     style="font-style:normal;font-variant:normal;font-weight:normal;font-stretch:normal;font-size:22.5px;line-height:0%;font-family:KaTeX_Math;-inkscape-font-specification:'KaTeX_Math, Normal';text-align:center;writing-mode:lr-tb;text-anchor:middle;fill:#000000"
     id="text80">
    <path
       d="m 348.95424,199.32025 q -1.44,0 -2.295,-0.72 -0.8325,-0.7425 -0.8325,-2.16 0,-0.405 0.045,-0.765 0.2025,-1.08 1.0575,-3.3075 l 0.36,-1.08 q 0.135,-0.405 0.135,-0.765 0,-0.5625 -0.4275,-0.5625 -0.1575,0 -0.36,0.0675 -1.1475,0.405 -1.7325,2.5875 0,0.0225 -0.0225,0.09 -0.0225,0.045 -0.045,0.0675 0,0 -0.0225,0.0225 -0.0225,0.0225 -0.09,0.0225 -0.045,0 -0.09,0 -0.045,0 -0.18,0 h -0.315 q -0.135,-0.135 -0.135,-0.2025 0,-0.0675 0.0675,-0.3375 0.54,-1.7775 1.665,-2.655 0.6075,-0.4725 1.395,-0.4725 0.8775,0 1.44,0.495 0.5625,0.495 0.5625,1.305 0,0.3825 -0.0675,0.585 0,0.1575 -0.3375,0.99 -1.035,2.8125 -1.1025,4.005 0,0.6075 0.1125,0.99 0.2925,0.9675 1.4175,0.9675 0.6075,0 1.08,-0.36 1.395,-0.9225 2.3175,-4.2525 0.18,-0.63 0.18,-1.035 0,-0.99 -0.8775,-1.7775 -0.2925,-0.27 -0.2925,-0.6075 0,-0.5175 0.405,-0.9225 0.4275,-0.4275 0.945,-0.4275 0.54,0 0.8325,0.5175 0.2925,0.495 0.2925,1.1925 0,0.7875 -0.45,2.5875 -0.4275,1.7325 -1.08,3.015 -1.4175,2.9025 -3.555,2.9025 z"
       style="font-style:normal;font-variant:normal;font-weight:normal;font-stretch:normal;font-size:22.5px;line-height:0%;font-family:KaTeX_Math;-inkscape-font-specification:'KaTeX_Math, Normal';text-align:center;writing-mode:lr-tb;text-anchor:middle;fill:#000000"
       id="path933" />
    <path
       d="m 367.03149,182 q -1.47216,2.52686 -2.18628,4.99878 -0.71411,2.47192 -0.71411,5.00976 0,2.53785 0.71411,5.03174 0.7251,2.48291 2.18628,4.99878 h -1.75781 q -1.64795,-2.58178 -2.47192,-5.07568 -0.81299,-2.4939 -0.81299,-4.95484 0,-2.44995 0.81299,-4.93286 0.81299,-2.48291 2.47192,-5.07568 z"
       style="font-style:normal;font-variant:normal;font-weight:normal;font-stretch:normal;font-size:22.5px;line-height:0%;font-family:KaTeX_Math;-inkscape-font-specification:'KaTeX_Math, Normal';text-align:center;writing-mode:lr-tb;text-anchor:middle;fill:#000000"
       id="path935" />
    <path
       d="m 374.26674,199.32025 q -1.44,0 -2.295,-0.72 -0.8325,-0.7425 -0.8325,-2.16 0,-0.405 0.045,-0.765 0.2025,-1.08 1.0575,-3.3075 l 0.36,-1.08 q 0.135,-0.405 0.135,-0.765 0,-0.5625 -0.4275,-0.5625 -0.1575,0 -0.36,0.0675 -1.1475,0.405 -1.7325,2.5875 0,0.0225 -0.0225,0.09 -0.0225,0.045 -0.045,0.0675 0,0 -0.0225,0.0225 -0.0225,0.0225 -0.09,0.0225 -0.045,0 -0.09,0 -0.045,0 -0.18,0 h -0.315 q -0.135,-0.135 -0.135,-0.2025 0,-0.0675 0.0675,-0.3375 0.54,-1.7775 1.665,-2.655 0.6075,-0.4725 1.395,-0.4725 0.8775,0 1.44,0.495 0.5625,0.495 0.5625,1.305 0,0.3825 -0.0675,0.585 0,0.1575 -0.3375,0.99 -1.035,2.8125 -1.1025,4.005 0,0.6075 0.1125,0.99 0.2925,0.9675 1.4175,0.9675 0.6075,0 1.08,-0.36 1.395,-0.9225 2.3175,-4.2525 0.18,-0.63 0.18,-1.035 0,-0.99 -0.8775,-1.7775 -0.2925,-0.27 -0.2925,-0.6075 0,-0.5175 0.405,-0.9225 0.4275,-0.4275 0.945,-0.4275 0.54,0 0.8325,0.5175 0.2925,0.495 0.2925,1.1925 0,0.7875 -0.45,2.5875 -0.4275,1.7325 -1.08,3.015 -1.4175,2.9025 -3.555,2.9025 z"
       style="font-style:normal;font-variant:normal;font-weight:normal;font-stretch:normal;font-size:22.5px;line-height:0%;font-family:KaTeX_Math;-inkscape-font-specification:'KaTeX_Math, Normal';text-align:center;writing-mode:lr-tb;text-anchor:middle;fill:#000000"
       id="path937" />
    <path
       d="m 386.20018,189.15025 h 0.315 q 0.72,0 0.9,0.0225 1.4175,0.2475 2.2275,1.26 0.81,1.0125 0.81,2.61 0,1.3275 -0.6975,2.655 -0.8325,1.62 -2.385,2.6325 -1.53,0.99 -3.105,0.99 -1.575,0 -2.5425,-0.9 -0.9675,-0.9 -1.1925,-2.3625 -0.0225,-0.135 -0.0225,-0.495 0,-0.585 0.0675,-0.945 0.2025,-1.1475 0.8775,-2.2275 0.675,-1.1025 1.575,-1.8675 1.53,-1.1925 3.1725,-1.3725 z m -3.735,7.2225 q 0,0.9675 0.5175,1.5525 0.54,0.5625 1.395,0.5625 0.405,0 0.81,-0.135 1.6425,-0.54 2.4525,-2.475 0.495,-1.215 0.81,-3.0375 0.0225,-0.135 0.0225,-0.6975 0,-2.1825 -1.845,-2.1825 -1.4175,0 -2.4975,1.305 -0.7425,0.9 -1.215,2.61 -0.45,1.6425 -0.45,2.4975 z"
       style="font-style:normal;font-variant:normal;font-weight:normal;font-stretch:normal;font-size:22.5px;line-height:0%;font-family:KaTeX_Math;-inkscape-font-specification:'KaTeX_Math, Normal';text-align:center;writing-mode:lr-tb;text-anchor:middle;fill:#000000"
       id="path939" />
    <path
       d="m 393.72361,199.32025 q -1.0125,0 -1.62,-0.5625 -0.6075,-0.585 -0.6075,-1.5975 0,-0.27 0.0225,-0.3825 l 2.88,-11.565 q 0.0225,-0.0675 0,-0.135 -0.0225,-0.0675 -0.0225,-0.1125 0,-0.045 -0.045,-0.0675 -0.045,-0.045 -0.09,-0.0675 -0.0225,-0.0225 -0.09,-0.0225 -0.0675,-0.0225 -0.1125,-0.0225 -0.045,-0.0225 -0.1575,-0.0225 -0.09,-0.0225 -0.1575,-0.0225 -0.045,0 -0.1575,0 -0.1125,0 -0.18,0 -0.54,0 -0.63,-0.1575 -0.0225,-0.0675 0.045,-0.3825 0.1125,-0.4275 0.2025,-0.4725 0.0675,-0.0225 1.665,-0.135 1.62,-0.135 1.6875,-0.135 0.27,0 0.27,0.18 0,0.2475 -1.6425,6.75 -1.6425,6.5025 -1.6875,6.8175 0,0.045 -0.0225,0.2025 0,0.135 0,0.2025 0,0.6525 0.315,0.8325 0.09,0.045 0.27,0.045 0.18,-0.0225 0.27,-0.0675 0.63,-0.36 1.125,-2.295 0.135,-0.45 0.225,-0.4725 0.045,-0.0225 0.225,-0.0225 h 0.09 q 0.405,0.1125 0.4275,0.2025 0,0.1575 -0.18,0.7875 -0.18,0.6075 -0.3375,0.9675 -0.63,1.4625 -1.62,1.6875 -0.225,0.045 -0.36,0.045 z"
       style="font-style:normal;font-variant:normal;font-weight:normal;font-stretch:normal;font-size:22.5px;line-height:0%;font-family:KaTeX_Math;-inkscape-font-specification:'KaTeX_Math, Normal';text-align:center;writing-mode:lr-tb;text-anchor:middle;fill:#000000"
       id="path941" />
    <path
       d="m 397.94975,190.41025 q -0.1575,-0.1575 -0.1575,-0.225 0,-0.09 0.0675,-0.36 0.09,-0.2925 0.1125,-0.315 0.045,-0.1125 0.2025,-0.1125 0.18,-0.0225 1.1475,-0.0225 h 1.1925 l 0.4275,-1.8 q 0.4725,-1.8225 0.54,-1.9575 0.27,-0.63 1.035,-0.63 0.2925,0.0225 0.495,0.2025 0.225,0.18 0.225,0.4725 0,0.27 -0.4275,1.9125 -0.09,0.3825 -0.225,0.855 -0.1125,0.45 -0.18,0.675 l -0.045,0.225 q 0,0.045 1.125,0.045 h 1.1475 q 0.1575,0.1575 0.1575,0.2475 0,0.495 -0.2925,0.7875 h -2.4075 l -0.81,3.2625 q -0.8325,3.3525 -0.855,3.5325 -0.0225,0.1125 -0.0225,0.3375 0,0.945 0.6075,0.945 0.1575,0 0.27,-0.0225 1.125,-0.2025 2.0475,-1.8 0.225,-0.36 0.405,-0.8325 0.045,-0.135 0.1125,-0.1575 0.0675,-0.045 0.3375,-0.045 0.45,0 0.45,0.18 0,0.045 -0.09,0.27 -0.2475,0.72 -0.81,1.4625 -0.54,0.72 -1.1025,1.1475 -0.8325,0.63 -1.7775,0.63 -0.81,0 -1.395,-0.405 -0.5625,-0.4275 -0.765,-1.1025 -0.045,-0.18 -0.045,-0.6075 v -0.405 l 0.7875,-3.15 q 0.7875,-3.1725 0.81,-3.195 0,-0.045 -1.1475,-0.045 z"
       style="font-style:normal;font-variant:normal;font-weight:normal;font-stretch:normal;font-size:22.5px;line-height:0%;font-family:KaTeX_Math;-inkscape-font-specification:'KaTeX_Math, Normal';text-align:center;writing-mode:lr-tb;text-anchor:middle;fill:#000000"
       id="path943" />
    <path
       d="m 408.14963,195.47275 q 0.4275,0 0.675,0.2475 0.27,0.2475 0.27,0.6525 0,0.3825 -0.225,0.7425 -0.2025,0.36 -0.5625,0.54 -0.2925,0.1125 -0.315,0.1125 -0.045,0.0225 -0.09,0.045 -0.0225,0 0,0.0225 0.0675,0.1125 0.405,0.2925 0.6525,0.3375 1.71,0.3375 1.71,0 2.4075,-1.1025 0.3375,-0.5625 0.3375,-1.035 0,-0.72 -0.7425,-1.08 -0.2025,-0.135 -1.125,-0.315 -0.1125,-0.0225 -0.36,-0.0675 -0.225,-0.0675 -0.315,-0.0675 -0.0675,-0.0225 -0.225,-0.0675 -0.135,-0.045 -0.225,-0.0675 -0.0675,-0.045 -0.18,-0.09 -0.09,-0.0675 -0.225,-0.1575 -0.9225,-0.6525 -0.9225,-1.845 0,-1.26 0.9225,-2.2725 1.035,-1.17 2.88,-1.17 2.1825,0 2.6325,1.53 0.045,0.1125 0.045,0.4275 0,0.63 -0.3375,1.035 -0.3375,0.3825 -0.9,0.3825 -0.36,0 -0.585,-0.2025 -0.225,-0.2025 -0.225,-0.5625 0,-0.7425 0.675,-1.08 0.18,-0.09 0.2025,-0.09 0.0675,0 -0.0225,-0.1125 -0.54,-0.495 -1.5525,-0.495 -0.8775,0 -1.485,0.495 -0.6075,0.495 -0.6075,1.2825 0,0.405 0.3375,0.72 0.225,0.2025 1.1475,0.405 1.035,0.225 1.35,0.3825 1.0575,0.4725 1.4175,1.575 0.045,0.135 0.0675,0.585 0,0.765 -0.3825,1.5975 -1.1025,2.295 -4.14,2.295 -2.4075,0 -3.0375,-1.395 -0.1575,-0.3375 -0.1575,-0.7875 0,-0.6975 0.405,-1.17 0.4275,-0.4725 1.0575,-0.4725 z"
       style="font-style:normal;font-variant:normal;font-weight:normal;font-stretch:normal;font-size:22.5px;line-height:0%;font-family:KaTeX_Math;-inkscape-font-specification:'KaTeX_Math, Normal';text-align:center;writing-mode:lr-tb;text-anchor:middle;fill:#000000"
       id="path945" />
    <path
       d="m 417.84326,182 h 1.75781 q 1.64795,2.59277 2.46094,5.07568 0.82398,2.48291 0.82398,4.93286 0,2.46094 -0.82398,4.95484 -0.81299,2.4939 -2.46094,5.07568 h -1.75781 q 1.46118,-2.51587 2.17529,-4.99878 0.7251,-2.49389 0.7251,-5.03174 0,-2.53784 -0.7251,-5.00976 -0.71411,-2.47192 -2.17529,-4.99878 z"
       style="font-style:normal;font-variant:normal;font-weight:normal;font-stretch:normal;font-size:22.5px;line-height:0%;font-family:KaTeX_Math;-inkscape-font-specification:'KaTeX_Math, Normal';text-align:center;writing-mode:lr-tb;text-anchor:middle;fill:#000000"
       id="path947" />
  </g>
  <path
     class="domain"
     d="m 174.5749,356.02945 0.5,0 0,-320.000001 -0.5,0"
     id="path84"
     inkscape:connector-curvature="0"
     style="font-size:medium;font-family:sans-serif;text-anchor:end;fill:none;stroke:#000000" />
  <line
     style="font-size:medium;font-family:sans-serif;text-anchor:end;fill:none;stroke:#000000"
     y2="356.02945"
     y1="356.02945"
     x1="174.57491"
     id="line88"
     x2="168.57491" />
  <g
     aria-label="-8"
     style="font-style:normal;font-variant:normal;font-weight:normal;font-stretch:normal;font-size:12.5px;line-height:0%;font-family:KaTeX_Main;-inkscape-font-specification:'KaTeX_Main, Normal';text-align:center;writing-mode:lr-tb;text-anchor:middle;fill:#000000"
     id="text90">
    <path
       d="m 154.8693,357.33525 v -0.9125 h 3.325 v 0.9125 z"
       style="font-style:normal;font-variant:normal;font-weight:normal;font-stretch:normal;font-size:12.5px;line-height:0%;font-family:KaTeX_Main;-inkscape-font-specification:'KaTeX_Main, Normal';text-align:center;writing-mode:lr-tb;text-anchor:middle;fill:#000000"
       id="path928" />
    <path
       d="m 161.0566,355.38525 q -0.6125,-0.4 -0.95,-0.8375 -0.325,-0.4375 -0.325,-1.15 0,-0.5375 0.2,-0.9 0.275,-0.5625 0.8,-0.9 0.5375,-0.35 1.225,-0.35 0.85,0 1.475,0.45 0.625,0.4375 0.775,1.1375 0.0125,0.075 0.0125,0.3 0,0.275 -0.025,0.375 -0.1875,0.825 -1.1375,1.425 l -0.15,0.1 q 0.7,0.475 0.725,0.5 0.9375,0.75 0.9375,1.8625 0,1.0125 -0.75,1.7375 -0.7375,0.7125 -1.85,0.7125 -1.5375,0 -2.2625,-1.125 -0.3125,-0.45 -0.3125,-1.0875 0,-1.3625 1.6125,-2.25 z m 2.4875,-2.225 q 0,-0.5375 -0.35,-0.9125 -0.35,-0.375 -0.85,-0.475 -0.0875,-0.0125 -0.4125,-0.0125 -0.6625,0 -1.1125,0.45 -0.3125,0.2875 -0.3125,0.6875 0,0.5375 0.45,0.85 0.0625,0.0625 0.8,0.525 l 0.725,0.475 q 0.0125,-0.0125 0.1625,-0.1 0.15,-0.1 0.225,-0.175 0.675,-0.5375 0.675,-1.3125 z m -3.3,4.45 q 0,0.7375 0.5375,1.225 0.5375,0.475 1.25,0.475 0.5125,0 0.925,-0.2125 0.425,-0.2125 0.6375,-0.55 0.2125,-0.325 0.2125,-0.6875 0,-0.5375 -0.4375,-0.95 -0.1,-0.1 -1.0375,-0.7125 -0.175,-0.1125 -0.3875,-0.2375 -0.2,-0.1375 -0.3125,-0.2125 l -0.1,-0.0625 -0.15,0.075 q -0.7875,0.5125 -1.0375,1.25 -0.1,0.325 -0.1,0.6 z"
       style="font-style:normal;font-variant:normal;font-weight:normal;font-stretch:normal;font-size:12.5px;line-height:0%;font-family:KaTeX_Main;-inkscape-font-specification:'KaTeX_Main, Normal';text-align:center;writing-mode:lr-tb;text-anchor:middle;fill:#000000"
       id="path930" />
  </g>
  <line
     style="font-size:medium;font-family:sans-serif;text-anchor:end;fill:none"
     id="line92"
     y2="356.02945"
     x2="334.57489"
     y1="356.02945"
     x1="14.574903"
     class="grid" />
  <line
     style="font-size:medium;font-family:sans-serif;text-anchor:end;fill:none;stroke:#000000"
     y2="316.02945"
     y1="316.02945"
     x1="174.57491"
     id="line96"
     x2="168.57491" />
  <g
     aria-label="-6"
     style="font-style:normal;font-variant:normal;font-weight:normal;font-stretch:normal;font-size:12.5px;line-height:0%;font-family:KaTeX_Main;-inkscape-font-specification:'KaTeX_Main, Normal';text-align:center;writing-mode:lr-tb;text-anchor:middle;fill:#000000"
     id="text98">
    <path
       d="m 154.88179,317.33525 v -0.9125 h 3.325 v 0.9125 z"
       style="font-style:normal;font-variant:normal;font-weight:normal;font-stretch:normal;font-size:12.5px;line-height:0%;font-family:KaTeX_Main;-inkscape-font-specification:'KaTeX_Main, Normal';text-align:center;writing-mode:lr-tb;text-anchor:middle;fill:#000000"
       id="path923" />
    <path
       d="m 163.5816,312.06025 q -0.275,-0.275 -0.775,-0.3125 -0.875,0 -1.4625,0.75 -0.5875,0.8125 -0.5875,2.525 l 0.0125,0.05 0.1,-0.1625 q 0.5125,-0.75 1.3875,-0.75 0.575,0 1.0125,0.2375 0.3,0.175 0.6,0.5125 0.3,0.325 0.4875,0.7 0.2625,0.6125 0.2625,1.3375 v 0.225 q 0,0.2875 -0.0625,0.5375 -0.15,0.7375 -0.775,1.3875 -0.5375,0.5625 -1.2,0.7 -0.2,0.05 -0.5,0.05 -0.2375,0 -0.425,-0.0375 -0.925,-0.175 -1.475,-1 -0.7375,-1.1625 -0.7375,-3.15 0,-1.35 0.475,-2.3625 0.475,-1.0125 1.325,-1.575 0.675,-0.475 1.4625,-0.475 0.725,0 1.1625,0.3875 0.45,0.3875 0.45,1.0625 0,0.3125 -0.1875,0.5 -0.175,0.1875 -0.475,0.1875 -0.3,0 -0.4875,-0.175 -0.175,-0.175 -0.175,-0.4875 0,-0.5625 0.5875,-0.6625 z m -0.55,3 q -0.35,-0.45 -0.9,-0.45 -0.4625,0 -0.75,0.2875 -0.6125,0.6125 -0.6125,1.975 0,1.1125 0.15,1.5375 0.125,0.375 0.425,0.6375 0.3,0.2625 0.7125,0.2625 0.6375,0 0.975,-0.475 0.1875,-0.2625 0.2375,-0.625 0.05,-0.3625 0.05,-1.05 v -0.2 -0.2 q 0,-0.7125 -0.05,-1.075 -0.05,-0.3625 -0.2375,-0.625 z"
       style="font-style:normal;font-variant:normal;font-weight:normal;font-stretch:normal;font-size:12.5px;line-height:0%;font-family:KaTeX_Main;-inkscape-font-specification:'KaTeX_Main, Normal';text-align:center;writing-mode:lr-tb;text-anchor:middle;fill:#000000"
       id="path925" />
  </g>
  <line
     style="font-size:medium;font-family:sans-serif;text-anchor:end;fill:none"
     id="line100"
     y2="316.02945"
     x2="334.57489"
     y1="316.02945"
     x1="14.574903"
     class="grid" />
  <line
     style="font-size:medium;font-family:sans-serif;text-anchor:end;fill:none;stroke:#000000"
     y2="276.02945"
     y1="276.02945"
     x1="174.57491"
     id="line104"
     x2="168.57491" />
  <g
     aria-label="-4"
     style="font-style:normal;font-variant:normal;font-weight:normal;font-stretch:normal;font-size:12.5px;line-height:0%;font-family:KaTeX_Main;-inkscape-font-specification:'KaTeX_Main, Normal';text-align:center;writing-mode:lr-tb;text-anchor:middle;fill:#000000"
     id="text106">
    <path
       d="m 154.69429,277.33525 v -0.9125 h 3.325 v 0.9125 z"
       style="font-style:normal;font-variant:normal;font-weight:normal;font-stretch:normal;font-size:12.5px;line-height:0%;font-family:KaTeX_Main;-inkscape-font-specification:'KaTeX_Main, Normal';text-align:center;writing-mode:lr-tb;text-anchor:middle;fill:#000000"
       id="path918" />
    <path
       d="m 164.5066,279.57275 q -0.175,-0.0375 -1.6125,-0.0375 -1.5,0 -1.675,0.0375 h -0.1125 v -0.575 h 0.3875 q 0.5375,-0.0125 0.6625,-0.0625 0.1,-0.025 0.15,-0.125 0.0125,-0.025 0.0125,-0.675 v -0.625 h -3.2375 v -0.575 l 1.8875,-2.8875 q 1.9125,-2.9 1.9375,-2.9125 0.025,-0.025 0.2625,-0.025 h 0.225 l 0.075,0.075 v 5.75 h 1.15 v 0.575 h -1.15 v 0.6375 q 0,0.5125 0,0.6 0.0125,0.0875 0.075,0.15 0.1,0.0875 0.7125,0.1 h 0.3625 v 0.575 z m -2.1125,-2.6375 v -4.175 l -2.7375,4.1625 1.3625,0.0125 z"
       style="font-style:normal;font-variant:normal;font-weight:normal;font-stretch:normal;font-size:12.5px;line-height:0%;font-family:KaTeX_Main;-inkscape-font-specification:'KaTeX_Main, Normal';text-align:center;writing-mode:lr-tb;text-anchor:middle;fill:#000000"
       id="path920" />
  </g>
  <line
     style="font-size:medium;font-family:sans-serif;text-anchor:end;fill:none"
     id="line108"
     y2="276.02945"
     x2="334.57489"
     y1="276.02945"
     x1="14.574903"
     class="grid" />
  <line
     style="font-size:medium;font-family:sans-serif;text-anchor:end;fill:none;stroke:#000000"
     y2="236.02945"
     y1="236.02945"
     x1="174.57491"
     id="line112"
     x2="168.57491" />
  <g
     aria-label="-2"
     style="font-style:normal;font-variant:normal;font-weight:normal;font-stretch:normal;font-size:12.5px;line-height:0%;font-family:KaTeX_Main;-inkscape-font-specification:'KaTeX_Main, Normal';text-align:center;writing-mode:lr-tb;text-anchor:middle;fill:#000000"
     id="text114">
    <path
       d="m 154.9693,237.33525 v -0.9125 h 3.325 v 0.9125 z"
       style="font-style:normal;font-variant:normal;font-weight:normal;font-stretch:normal;font-size:12.5px;line-height:0%;font-family:KaTeX_Main;-inkscape-font-specification:'KaTeX_Main, Normal';text-align:center;writing-mode:lr-tb;text-anchor:middle;fill:#000000"
       id="path913" />
    <path
       d="m 160.38161,234.21025 q -0.35,0 -0.55,-0.225 -0.2,-0.225 -0.2,-0.55 0,-0.9 0.675,-1.5375 0.6875,-0.65 1.6375,-0.65 1.075,0 1.775,0.5875 0.7125,0.575 0.875,1.5125 0.025,0.225 0.025,0.4125 0,0.725 -0.4375,1.3625 -0.35,0.525 -1.4125,1.4375 -0.45,0.3875 -1.25,1.15 l -0.7375,0.7 0.95,0.0125 q 1.9625,0 2.0875,-0.0625 0.05,-0.0125 0.125,-0.2625 0.05,-0.1375 0.175,-0.85 v -0.0375 h 0.5 v 0.0375 l -0.35,2.2875 v 0.0375 h -4.6375 v -0.2375 q 0,-0.25 0.025,-0.2875 0.0125,-0.0125 1.05,-1.1875 1.3625,-1.5125 1.75,-2 0.8375,-1.1375 0.8375,-2.0875 0,-0.825 -0.4375,-1.375 -0.425,-0.5625 -1.2,-0.5625 -0.725,0 -1.175,0.65 -0.025,0.05 -0.075,0.1375 -0.0375,0.0625 -0.0375,0.075 0,0.0125 0.0625,0.0125 0.3125,0 0.5,0.225 0.2,0.225 0.2,0.525 0,0.3125 -0.2125,0.5375 -0.2,0.2125 -0.5375,0.2125 z"
       style="font-style:normal;font-variant:normal;font-weight:normal;font-stretch:normal;font-size:12.5px;line-height:0%;font-family:KaTeX_Main;-inkscape-font-specification:'KaTeX_Main, Normal';text-align:center;writing-mode:lr-tb;text-anchor:middle;fill:#000000"
       id="path915" />
  </g>
  <line
     style="font-size:medium;font-family:sans-serif;text-anchor:end;fill:none"
     id="line116"
     y2="236.02945"
     x2="334.57489"
     y1="236.02945"
     x1="14.574903"
     class="grid" />
  <line
     style="font-size:medium;font-family:sans-serif;text-anchor:end;fill:none;stroke:#000000"
     y2="196.02945"
     y1="196.02945"
     x1="174.57491"
     id="line120"
     x2="168.57491" />
  <line
     style="font-size:medium;font-family:sans-serif;text-anchor:end;fill:none"
     id="line122"
     y2="196.02945"
     x2="334.57489"
     y1="196.02945"
     x1="14.574903"
     class="grid" />
  <line
     style="font-size:medium;font-family:sans-serif;text-anchor:end;fill:none;stroke:#000000"
     y2="156.02945"
     y1="156.02945"
     x1="174.57491"
     id="line126"
     x2="168.57491" />
  <g
     aria-label="2"
     style="font-style:normal;font-variant:normal;font-weight:normal;font-stretch:normal;font-size:12.5px;line-height:0%;font-family:KaTeX_Main;-inkscape-font-specification:'KaTeX_Main, Normal';text-align:center;writing-mode:lr-tb;text-anchor:middle;fill:#000000"
     id="text128">
    <path
       d="m 160.38161,154.21025 q -0.35,0 -0.55,-0.225 -0.2,-0.225 -0.2,-0.55 0,-0.9 0.675,-1.5375 0.6875,-0.65 1.6375,-0.65 1.075,0 1.775,0.5875 0.7125,0.575 0.875,1.5125 0.025,0.225 0.025,0.4125 0,0.725 -0.4375,1.3625 -0.35,0.525 -1.4125,1.4375 -0.45,0.3875 -1.25,1.15 l -0.7375,0.7 0.95,0.0125 q 1.9625,0 2.0875,-0.0625 0.05,-0.0125 0.125,-0.2625 0.05,-0.1375 0.175,-0.85 v -0.0375 h 0.5 v 0.0375 l -0.35,2.2875 v 0.0375 h -4.6375 v -0.2375 q 0,-0.25 0.025,-0.2875 0.0125,-0.0125 1.05,-1.1875 1.3625,-1.5125 1.75,-2 0.8375,-1.1375 0.8375,-2.0875 0,-0.825 -0.4375,-1.375 -0.425,-0.5625 -1.2,-0.5625 -0.725,0 -1.175,0.65 -0.025,0.05 -0.075,0.1375 -0.0375,0.0625 -0.0375,0.075 0,0.0125 0.0625,0.0125 0.3125,0 0.5,0.225 0.2,0.225 0.2,0.525 0,0.3125 -0.2125,0.5375 -0.2,0.2125 -0.5375,0.2125 z"
       style="font-style:normal;font-variant:normal;font-weight:normal;font-stretch:normal;font-size:12.5px;line-height:0%;font-family:KaTeX_Main;-inkscape-font-specification:'KaTeX_Main, Normal';text-align:center;writing-mode:lr-tb;text-anchor:middle;fill:#000000"
       id="path910" />
  </g>
  <line
     style="font-size:medium;font-family:sans-serif;text-anchor:end;fill:none"
     id="line130"
     y2="156.02945"
     x2="334.57489"
     y1="156.02945"
     x1="14.574903"
     class="grid" />
  <line
     style="font-size:medium;font-family:sans-serif;text-anchor:end;fill:none;stroke:#000000"
     y2="116.02945"
     y1="116.02945"
     x1="174.57491"
     id="line134"
     x2="168.57491" />
  <g
     aria-label="4"
     style="font-style:normal;font-variant:normal;font-weight:normal;font-stretch:normal;font-size:12.5px;line-height:0%;font-family:KaTeX_Main;-inkscape-font-specification:'KaTeX_Main, Normal';text-align:center;writing-mode:lr-tb;text-anchor:middle;fill:#000000"
     id="text136">
    <path
       d="m 164.5066,119.57276 q -0.175,-0.0375 -1.6125,-0.0375 -1.5,0 -1.675,0.0375 h -0.1125 v -0.575 h 0.3875 q 0.5375,-0.0125 0.6625,-0.0625 0.1,-0.025 0.15,-0.125 0.0125,-0.025 0.0125,-0.675 v -0.625 h -3.2375 v -0.575 l 1.8875,-2.8875 q 1.9125,-2.9 1.9375,-2.9125 0.025,-0.025 0.2625,-0.025 h 0.225 l 0.075,0.075 v 5.75 h 1.15 v 0.575 h -1.15 v 0.6375 q 0,0.5125 0,0.6 0.0125,0.0875 0.075,0.15 0.1,0.0875 0.7125,0.1 h 0.3625 v 0.575 z m -2.1125,-2.6375 v -4.175 l -2.7375,4.1625 1.3625,0.0125 z"
       style="font-style:normal;font-variant:normal;font-weight:normal;font-stretch:normal;font-size:12.5px;line-height:0%;font-family:KaTeX_Main;-inkscape-font-specification:'KaTeX_Main, Normal';text-align:center;writing-mode:lr-tb;text-anchor:middle;fill:#000000"
       id="path907" />
  </g>
  <line
     style="font-size:medium;font-family:sans-serif;text-anchor:end;fill:none"
     id="line138"
     y2="116.02945"
     x2="334.57489"
     y1="116.02945"
     x1="14.574903"
     class="grid" />
  <line
     style="font-size:medium;font-family:sans-serif;text-anchor:end;fill:none;stroke:#000000"
     y2="76.029449"
     y1="76.029449"
     x1="174.57491"
     id="line142"
     x2="168.57491" />
  <g
     aria-label="6"
     style="font-style:normal;font-variant:normal;font-weight:normal;font-stretch:normal;font-size:12.5px;line-height:0%;font-family:KaTeX_Main;-inkscape-font-specification:'KaTeX_Main, Normal';text-align:center;writing-mode:lr-tb;text-anchor:middle;fill:#000000"
     id="text144">
    <path
       d="m 163.5816,72.060262 q -0.275,-0.275 -0.775,-0.3125 -0.875,0 -1.4625,0.75 -0.5875,0.8125 -0.5875,2.525 l 0.0125,0.05 0.1,-0.1625 q 0.5125,-0.75 1.3875,-0.75 0.575,0 1.0125,0.2375 0.3,0.175 0.6,0.5125 0.3,0.325 0.4875,0.7 0.2625,0.6125 0.2625,1.3375 v 0.225 q 0,0.2875 -0.0625,0.5375 -0.15,0.7375 -0.775,1.3875 -0.5375,0.5625 -1.2,0.7 -0.2,0.05 -0.5,0.05 -0.2375,0 -0.425,-0.0375 -0.925,-0.175 -1.475,-1 -0.7375,-1.1625 -0.7375,-3.15 0,-1.35 0.475,-2.3625 0.475,-1.0125 1.325,-1.575 0.675,-0.475 1.4625,-0.475 0.725,0 1.1625,0.3875 0.45,0.3875 0.45,1.0625 0,0.3125 -0.1875,0.5 -0.175,0.1875 -0.475,0.1875 -0.3,0 -0.4875,-0.175 -0.175,-0.175 -0.175,-0.4875 0,-0.5625 0.5875,-0.6625 z m -0.55,3 q -0.35,-0.45 -0.9,-0.45 -0.4625,0 -0.75,0.2875 -0.6125,0.6125 -0.6125,1.975 0,1.1125 0.15,1.5375 0.125,0.375 0.425,0.6375 0.3,0.2625 0.7125,0.2625 0.6375,0 0.975,-0.475 0.1875,-0.2625 0.2375,-0.625 0.05,-0.3625 0.05,-1.05 v -0.2 -0.2 q 0,-0.7125 -0.05,-1.075 -0.05,-0.3625 -0.2375,-0.625 z"
       style="font-style:normal;font-variant:normal;font-weight:normal;font-stretch:normal;font-size:12.5px;line-height:0%;font-family:KaTeX_Main;-inkscape-font-specification:'KaTeX_Main, Normal';text-align:center;writing-mode:lr-tb;text-anchor:middle;fill:#000000"
       id="path904" />
  </g>
  <line
     style="font-size:medium;font-family:sans-serif;text-anchor:end;fill:none"
     id="line146"
     y2="76.029449"
     x2="334.57489"
     y1="76.029449"
     x1="14.574903"
     class="grid" />
  <line
     style="font-size:medium;font-family:sans-serif;text-anchor:end;fill:none;stroke:#000000"
     y2="36.029449"
     y1="36.029449"
     x1="174.57491"
     id="line150"
     x2="168.57491" />
  <g
     aria-label="8"
     style="font-style:normal;font-variant:normal;font-weight:normal;font-stretch:normal;font-size:12.5px;line-height:0%;font-family:KaTeX_Main;-inkscape-font-specification:'KaTeX_Main, Normal';text-align:center;writing-mode:lr-tb;text-anchor:middle;fill:#000000"
     id="text152">
    <path
       d="m 161.0566,35.385254 q -0.6125,-0.4 -0.95,-0.8375 -0.325,-0.4375 -0.325,-1.15 0,-0.5375 0.2,-0.9 0.275,-0.5625 0.8,-0.9 0.5375,-0.35 1.225,-0.35 0.85,0 1.475,0.45 0.625,0.4375 0.775,1.1375 0.0125,0.075 0.0125,0.3 0,0.275 -0.025,0.375 -0.1875,0.825 -1.1375,1.425 l -0.15,0.1 q 0.7,0.475 0.725,0.5 0.9375,0.75 0.9375,1.8625 0,1.0125 -0.75,1.7375 -0.7375,0.7125 -1.85,0.7125 -1.5375,0 -2.2625,-1.125 -0.3125,-0.45 -0.3125,-1.0875 0,-1.3625 1.6125,-2.25 z m 2.4875,-2.225 q 0,-0.5375 -0.35,-0.9125 -0.35,-0.375 -0.85,-0.475 -0.0875,-0.0125 -0.4125,-0.0125 -0.6625,0 -1.1125,0.45 -0.3125,0.2875 -0.3125,0.6875 0,0.5375 0.45,0.85 0.0625,0.0625 0.8,0.525 l 0.725,0.475 q 0.0125,-0.0125 0.1625,-0.1 0.15,-0.1 0.225,-0.175 0.675,-0.5375 0.675,-1.3125 z m -3.3,4.45 q 0,0.7375 0.5375,1.225 0.5375,0.475 1.25,0.475 0.5125,0 0.925,-0.2125 0.425,-0.2125 0.6375,-0.55 0.2125,-0.325 0.2125,-0.6875 0,-0.5375 -0.4375,-0.95 -0.1,-0.1 -1.0375,-0.7125 -0.175,-0.1125 -0.3875,-0.2375 -0.2,-0.1375 -0.3125,-0.2125 l -0.1,-0.0625 -0.15,0.075 q -0.7875,0.5125 -1.0375,1.25 -0.1,0.325 -0.1,0.6 z"
       style="font-style:normal;font-variant:normal;font-weight:normal;font-stretch:normal;font-size:12.5px;line-height:0%;font-family:KaTeX_Main;-inkscape-font-specification:'KaTeX_Main, Normal';text-align:center;writing-mode:lr-tb;text-anchor:middle;fill:#000000"
       id="path901" />
  </g>
  <line
     style="font-size:medium;font-family:sans-serif;text-anchor:end;fill:none"
     id="line154"
     y2="36.029449"
     x2="334.57489"
     y1="36.029449"
     x1="14.574903"
     class="grid" />
  <g
     aria-label="i (mA)"
     style="font-style:normal;font-variant:normal;font-weight:normal;font-stretch:normal;font-size:22.5px;line-height:0%;font-family:KaTeX_Math;-inkscape-font-specification:'KaTeX_Math, Normal';text-align:center;writing-mode:lr-tb;text-anchor:middle;fill:#000000"
     id="text156">
    <path
       d="m 159.07221,13.572754 q 0,-0.5175 0.4275,-0.945 0.4275,-0.4275 0.99,-0.4275 0.405,0 0.675,0.27 0.2925,0.27 0.2925,0.675 0,0.495 -0.45,0.945 -0.45,0.45 -0.99,0.45 -0.405,0 -0.675,-0.27 -0.27,-0.27 -0.27,-0.6975 z m -0.5175,13.7475 q -0.8775,0 -1.4175,-0.5175 -0.54,-0.5175 -0.54,-1.395 0,-0.3825 0.045,-0.5175 0,-0.045 1.035,-2.7675 1.035,-2.745 1.035,-2.79 0.1125,-0.36 0.1125,-0.81 0,-0.54 -0.3825,-0.54 h -0.045 q -0.54,0 -1.035,0.5175 -0.72,0.7425 -1.0575,2.115 0,0.0225 -0.0225,0.09 -0.0225,0.045 -0.045,0.0675 0,0 -0.0225,0.0225 -0.0225,0.0225 -0.09,0.0225 -0.045,0 -0.09,0 -0.045,0 -0.18,0 h -0.315 q -0.135,-0.135 -0.135,-0.2025 0,-0.0675 0.0675,-0.315 0.585,-1.935 1.71,-2.7 0.6075,-0.4725 1.305,-0.4725 0.9,0 1.485,0.5175 0.585,0.5175 0.585,1.395 0,0.2925 -0.1125,0.675 -0.0225,0.045 -1.035,2.7675 l -1.0125,2.7225 q -0.1125,0.495 -0.1125,0.72 0,0.5625 0.3825,0.5625 0.315,0 0.5625,-0.135 0.99,-0.4725 1.5525,-2.3625 0.0675,-0.27 0.1125,-0.315 0.0675,-0.045 0.3825,-0.045 0.2025,0 0.27,0.0225 0.09,0 0.135,0.045 0.045,0.045 0.045,0.1575 0,0.09 -0.0675,0.2925 -0.4275,1.2825 -1.2375,2.2275 -0.7875,0.945 -1.8675,0.945 z"
       style="font-style:normal;font-variant:normal;font-weight:normal;font-stretch:normal;font-size:22.5px;line-height:0%;font-family:KaTeX_Math;-inkscape-font-specification:'KaTeX_Math, Normal';text-align:center;writing-mode:lr-tb;text-anchor:middle;fill:#000000"
       id="path890" />
    <path
       d="m 175.31184,10 q -1.47216,2.526855 -2.18628,4.998779 -0.71411,2.471924 -0.71411,5.009766 0,2.537842 0.71411,5.031738 0.7251,2.48291 2.18628,4.998779 h -1.75781 q -1.64795,-2.581787 -2.47192,-5.075683 -0.81299,-2.493897 -0.81299,-4.954834 0,-2.449951 0.81299,-4.932861 Q 171.8951,12.592773 173.55403,10 Z"
       style="font-style:normal;font-variant:normal;font-weight:normal;font-stretch:normal;font-size:22.5px;line-height:0%;font-family:KaTeX_Math;-inkscape-font-specification:'KaTeX_Math, Normal';text-align:center;writing-mode:lr-tb;text-anchor:middle;fill:#000000"
       id="path892" />
    <path
       d="m 179.55459,27.320254 q -0.315,0 -0.54,-0.18 -0.225,-0.1575 -0.225,-0.45 0,-0.2925 0.855,-3.69 0.8775,-3.465 0.8775,-3.6225 0.0675,-0.3375 0.0675,-0.6075 0,-0.81 -0.5625,-0.81 -0.2025,0 -0.45,0.1575 -0.54,0.4275 -1.08,2.4975 0,0.0225 -0.0225,0.09 -0.0225,0.045 -0.045,0.0675 0,0 -0.0225,0.0225 -0.0225,0.0225 -0.09,0.0225 -0.045,0 -0.09,0 -0.045,0 -0.18,0 h -0.315 q -0.135,-0.135 -0.135,-0.2025 0,-0.2925 0.315,-1.125 0.45,-1.305 0.99,-1.8225 0.54,-0.54 1.1925,-0.54 1.4175,0 1.98,1.0125 0.2475,0.4275 0.2475,0.63 0,0.045 0.0225,0.045 l 0.2475,-0.2475 q 1.3725,-1.44 3.1725,-1.44 2.1825,0 2.6325,1.845 l 0.0225,0.0675 0.18,-0.225 q 0.8325,-0.99 1.935,-1.44 0.6975,-0.2475 1.4175,-0.2475 1.2375,0 1.98,0.6075 0.7425,0.6075 0.7425,1.7775 0,0.5175 -0.0675,0.855 -0.2025,1.1475 -1.2375,3.9825 -0.405,1.08 -0.405,1.5975 0.0225,0.315 0.1125,0.4275 0.09,0.1125 0.3375,0.1125 0.63,0 1.17,-0.675 0.5625,-0.6975 0.8775,-1.845 0.0675,-0.2475 0.135,-0.2925 0.0675,-0.045 0.36,-0.045 0.4275,0.0675 0.45,0.18 0,0.0225 -0.09,0.3375 -0.585,2.0925 -2.115,2.9475 -0.405,0.2025 -0.9675,0.2025 -0.855,0 -1.4625,-0.54 -0.54,-0.63 -0.54,-1.3275 0,-0.4275 0.315,-1.26 0.99,-2.6325 1.26,-4.005 0.0675,-0.3375 0.0675,-0.855 0,-1.3275 -1.1025,-1.3275 -0.405,0 -0.585,0.045 -1.575,0.3375 -2.6775,2.2275 l -0.1575,0.27 -0.7425,3.015 q -0.7425,2.9475 -0.855,3.1725 -0.2925,0.6075 -0.9675,0.6075 -0.54,0 -0.72,-0.45 l -0.0225,-0.0675 q -0.045,-0.09 -0.045,-0.135 0,-0.2475 0.765,-3.2175 0.18,-0.72 0.36,-1.485 0.2025,-0.7875 0.315,-1.26 0.135,-0.495 0.135,-0.54 0.0675,-0.3375 0.0675,-0.855 0,-1.3275 -1.1025,-1.3275 -0.405,0 -0.585,0.045 -1.575,0.3375 -2.6775,2.2275 l -0.1575,0.27 -0.7425,3.015 q -0.7425,2.9475 -0.855,3.1725 -0.2925,0.6075 -0.9675,0.6075 z"
       style="font-style:normal;font-variant:normal;font-weight:normal;font-stretch:normal;font-size:22.5px;line-height:0%;font-family:KaTeX_Math;-inkscape-font-specification:'KaTeX_Math, Normal';text-align:center;writing-mode:lr-tb;text-anchor:middle;fill:#000000"
       id="path894" />
    <path
       d="m 197.84498,27.072754 q -0.1575,-0.1575 -0.1575,-0.2475 0,-0.09 0.0675,-0.3825 0.09,-0.2925 0.135,-0.3375 l 0.09,-0.0675 h 0.315 q 1.575,-0.0675 2.295,-1.125 0.135,-0.135 4.0725,-6.8625 3.96,-6.75 4.005,-6.8175 0.1125,-0.2025 0.2025,-0.225 0.1125,-0.045 0.5175,-0.045 h 0.3825 q 0.135,0.2025 0.135,0.225 l 0.63,7.2675 q 0.63,7.2675 0.675,7.335 0.1125,0.2475 1.4625,0.2475 0.2475,0 0.3375,0.0225 0.1125,0 0.1575,0.045 0.0675,0.045 0.0675,0.1575 0,0.045 -0.0675,0.315 -0.0675,0.3375 -0.135,0.4275 -0.045,0.0675 -0.2925,0.0675 -0.405,0 -1.35,-0.0225 -0.9225,-0.0225 -1.485,-0.0225 -2.115,0 -2.7675,0.045 h -0.27 q -0.135,-0.135 -0.1575,-0.18 0,-0.0675 0.0675,-0.4275 0.09,-0.2925 0.135,-0.36 l 0.09,-0.0675 h 0.45 q 1.215,-0.045 1.44,-0.3825 l -0.27,-3.375 h -5.355 l -0.765,1.305 q -0.81,1.35 -0.8325,1.4625 -0.09,0.18 -0.09,0.3375 0,0.5625 1.035,0.6525 0.4275,0 0.4275,0.225 0,0.1125 -0.0675,0.315 -0.0675,0.315 -0.135,0.405 -0.0675,0.09 -0.2925,0.09 -0.3825,0 -1.215,-0.0225 -0.8325,-0.0225 -1.26,-0.0225 -1.5975,0 -2.0475,0.045 z m 10.665,-5.85 q 0,-0.2475 -0.2925,-3.51 -0.27,-3.2625 -0.2925,-3.285 l -0.6075,0.9675 q -0.36,0.6075 -1.4175,2.4075 l -2.025,3.42 2.3175,0.0225 q 2.3175,0 2.3175,-0.0225 z"
       style="font-style:normal;font-variant:normal;font-weight:normal;font-stretch:normal;font-size:22.5px;line-height:0%;font-family:KaTeX_Math;-inkscape-font-specification:'KaTeX_Math, Normal';text-align:center;writing-mode:lr-tb;text-anchor:middle;fill:#000000"
       id="path896" />
    <path
       d="m 215.57674,10 h 1.75781 q 1.64795,2.592773 2.46094,5.075684 0.82397,2.48291 0.82397,4.932861 0,2.460937 -0.82397,4.954834 -0.81299,2.493896 -2.46094,5.075683 h -1.75781 q 1.46118,-2.515869 2.17529,-4.998779 0.7251,-2.493896 0.7251,-5.031738 0,-2.537842 -0.7251,-5.009766 Q 217.03792,12.526855 215.57674,10 Z"
       style="font-style:normal;font-variant:normal;font-weight:normal;font-stretch:normal;font-size:22.5px;line-height:0%;font-family:KaTeX_Math;-inkscape-font-specification:'KaTeX_Math, Normal';text-align:center;writing-mode:lr-tb;text-anchor:middle;fill:#000000"
       id="path898" />
  </g>
  <path
     inkscape:connector-curvature="0"
     id="path158"
     style="stroke:#74cf70;stroke-width:3;stroke-miterlimit:4;stroke-dasharray:none"
     d="M 334.5749,227.26167 14.574902,67.261688"
     class="path" />
</svg>
