<?xml version="1.0" encoding="UTF-8" standalone="no"?>
<!-- Created with Inkscape (http://www.inkscape.org/) -->

<svg
   xmlns:dc="http://purl.org/dc/elements/1.1/"
   xmlns:cc="http://creativecommons.org/ns#"
   xmlns:rdf="http://www.w3.org/1999/02/22-rdf-syntax-ns#"
   xmlns:svg="http://www.w3.org/2000/svg"
   xmlns="http://www.w3.org/2000/svg"
   xmlns:sodipodi="http://sodipodi.sourceforge.net/DTD/sodipodi-0.dtd"
   xmlns:inkscape="http://www.inkscape.org/namespaces/inkscape"
   id="svg4155"
   version="1.1"
   inkscape:version="0.92.2 5c3e80d, 2017-08-06"
   xml:space="preserve"
   width="265"
   height="180"
   viewBox="0 0 265 180"
   sodipodi:docname="copper_atom.svg"><metadata
     id="metadata4161"><rdf:RDF><cc:Work
         rdf:about=""><dc:format>image/svg+xml</dc:format><dc:type
           rdf:resource="http://purl.org/dc/dcmitype/StillImage" /><dc:title></dc:title></cc:Work></rdf:RDF></metadata><defs
     id="defs4159"><clipPath
       clipPathUnits="userSpaceOnUse"
       id="clipPath4171"><path
         d="M 0,0 H 196 V 128 H 0 Z"
         id="path4173"
         inkscape:connector-curvature="0" /></clipPath></defs><sodipodi:namedview
     pagecolor="#ffffff"
     bordercolor="#666666"
     borderopacity="1"
     objecttolerance="10"
     gridtolerance="10"
     guidetolerance="10"
     inkscape:pageopacity="0"
     inkscape:pageshadow="2"
     inkscape:window-width="1280"
     inkscape:window-height="756"
     id="namedview4157"
     showgrid="false"
     inkscape:zoom="1.8867925"
     inkscape:cx="132.5"
     inkscape:cy="79.26999"
     inkscape:window-x="0"
     inkscape:window-y="0"
     inkscape:window-maximized="0"
     inkscape:current-layer="g4163"
     fit-margin-top="10"
     fit-margin-right="10"
     fit-margin-bottom="10"
     fit-margin-left="10"
     showguides="false" /><g
     id="g4163"
     inkscape:groupmode="layer"
     inkscape:label="copper atom"
     transform="matrix(1.25,0,0,-1.25,10,170)"><g
       id="g4165" /><path
       d="M 0,128 H 196 V 0 H 0 Z"
       style="fill:#ffffff;fill-opacity:0;fill-rule:nonzero;stroke:none"
       id="path4175"
       inkscape:connector-curvature="0" /><path
       d="m 45.5,55.5 c 0,3.86599 3.13401,7 7,7 3.86599,0 7,-3.13401 7,-7 0,-3.86599 -3.13401,-7 -7,-7 -3.86599,0 -7,3.13401 -7,7 z"
       style="fill:#767171;fill-opacity:1;fill-rule:nonzero;stroke:none"
       id="path4177"
       inkscape:connector-curvature="0" /><g
       id="g4179"
       transform="matrix(7.874016e-5,0,0,-7.874016e-5,45.5,62.5)"><path
         d="M 0,88900 C 0,39801.88 39801.88,0 88900,0 c 49098.1,0 88900,39801.88 88900,88900 0,49098.1 -39801.9,88900 -88900,88900 C 39801.88,177800 0,137998.1 0,88900 Z"
         style="fill:none;stroke:#41719c;stroke-width:12700;stroke-linecap:butt;stroke-linejoin:miter;stroke-miterlimit:8;stroke-dasharray:none;stroke-opacity:1"
         id="path4181"
         inkscape:connector-curvature="0" /></g><path
       d="m 50.5,71 c 0,4.14214 3.13401,7.5 7,7.5 3.86599,0 7,-3.35786 7,-7.5 0,-4.14214 -3.13401,-7.5 -7,-7.5 -3.86599,0 -7,3.35786 -7,7.5 z"
       style="fill:#5b9bd5;fill-opacity:1;fill-rule:nonzero;stroke:none"
       id="path4183"
       inkscape:connector-curvature="0" /><g
       id="g4185"
       transform="matrix(7.874016e-5,0,0,-7.874016e-5,50.5,78.5)"><path
         d="M 0,95250 C 0,42644.88 39801.88,0 88900,0 c 49098.1,0 88900,42644.88 88900,95250 0,52605.1 -39801.9,95250 -88900,95250 C 39801.88,190500 0,147855.1 0,95250 Z"
         style="fill:none;stroke:#41719c;stroke-width:12700;stroke-linecap:butt;stroke-linejoin:miter;stroke-miterlimit:8;stroke-dasharray:none;stroke-opacity:1"
         id="path4187"
         inkscape:connector-curvature="0" /></g><path
       d="m 62.5,59 c 0,4.14214 3.13401,7.5 7,7.5 3.86599,0 7,-3.35786 7,-7.5 0,-4.14214 -3.13401,-7.5 -7,-7.5 -3.86599,0 -7,3.35786 -7,7.5 z"
       style="fill:#5b9bd5;fill-opacity:1;fill-rule:nonzero;stroke:none"
       id="path4189"
       inkscape:connector-curvature="0" /><g
       id="g4191"
       transform="matrix(7.874016e-5,0,0,-7.874016e-5,62.5,66.5)"><path
         d="M 0,95250 C 0,42644.88 39801.93,0 88900,0 c 49098.1,0 88900,42644.88 88900,95250 0,52605.1 -39801.9,95250 -88900,95250 C 39801.93,190500 0,147855.1 0,95250 Z"
         style="fill:none;stroke:#41719c;stroke-width:12700;stroke-linecap:butt;stroke-linejoin:miter;stroke-miterlimit:8;stroke-dasharray:none;stroke-opacity:1"
         id="path4193"
         inkscape:connector-curvature="0" /></g><path
       d="m 60.5,73.5 c 0,3.86599 3.35786,7 7.5,7 4.14214,0 7.5,-3.13401 7.5,-7 0,-3.86599 -3.35786,-7 -7.5,-7 -4.14214,0 -7.5,3.13401 -7.5,7 z"
       style="fill:#5b9bd5;fill-opacity:1;fill-rule:nonzero;stroke:none"
       id="path4195"
       inkscape:connector-curvature="0" /><g
       id="g4197"
       transform="matrix(7.874016e-5,0,0,-7.874016e-5,60.5,80.5)"><path
         d="M 0,88900 C 0,39801.93 42644.88,0 95250,0 c 52605.1,0 95250,39801.93 95250,88900 0,49098.1 -42644.9,88900 -95250,88900 C 42644.88,177800 0,137998.1 0,88900 Z"
         style="fill:none;stroke:#41719c;stroke-width:12700;stroke-linecap:butt;stroke-linejoin:miter;stroke-miterlimit:8;stroke-dasharray:none;stroke-opacity:1"
         id="path4199"
         inkscape:connector-curvature="0" /></g><path
       d="m 57.5,52.5 c 0,3.86599 3.13401,7 7,7 3.86599,0 7,-3.13401 7,-7 0,-3.86599 -3.13401,-7 -7,-7 -3.86599,0 -7,3.13401 -7,7 z"
       style="fill:#5b9bd5;fill-opacity:1;fill-rule:nonzero;stroke:none"
       id="path4201"
       inkscape:connector-curvature="0" /><g
       id="g4203"
       transform="matrix(7.874016e-5,0,0,-7.874016e-5,57.5,59.5)"><path
         d="M 0,88900 C 0,39801.88 39801.88,0 88900,0 c 49098.1,0 88900,39801.88 88900,88900 0,49098.1 -39801.9,88900 -88900,88900 C 39801.88,177800 0,137998.1 0,88900 Z"
         style="fill:none;stroke:#41719c;stroke-width:12700;stroke-linecap:butt;stroke-linejoin:miter;stroke-miterlimit:8;stroke-dasharray:none;stroke-opacity:1"
         id="path4205"
         inkscape:connector-curvature="0" /></g><path
       d="m 60.5,45.5 c 0,3.86599 3.35786,7 7.5,7 4.14214,0 7.5,-3.13401 7.5,-7 0,-3.86599 -3.35786,-7 -7.5,-7 -4.14214,0 -7.5,3.13401 -7.5,7 z"
       style="fill:#5b9bd5;fill-opacity:1;fill-rule:nonzero;stroke:none"
       id="path4207"
       inkscape:connector-curvature="0" /><g
       id="g4209"
       transform="matrix(7.874016e-5,0,0,-7.874016e-5,60.5,52.5)"><path
         d="M 0,88900 C 0,39801.88 42644.88,0 95250,0 c 52605.1,0 95250,39801.88 95250,88900 0,49098.1 -42644.9,88900 -95250,88900 C 42644.88,177800 0,137998.1 0,88900 Z"
         style="fill:none;stroke:#41719c;stroke-width:12700;stroke-linecap:butt;stroke-linejoin:miter;stroke-miterlimit:8;stroke-dasharray:none;stroke-opacity:1"
         id="path4211"
         inkscape:connector-curvature="0" /></g><path
       d="m 41.5,65 c 0,4.14214 3.13401,7.5 7,7.5 3.86599,0 7,-3.35786 7,-7.5 0,-4.14214 -3.13401,-7.5 -7,-7.5 -3.86599,0 -7,3.35786 -7,7.5 z"
       style="fill:#5b9bd5;fill-opacity:1;fill-rule:nonzero;stroke:none"
       id="path4213"
       inkscape:connector-curvature="0" /><g
       id="g4215"
       transform="matrix(7.874016e-5,0,0,-7.874016e-5,41.5,72.5)"><path
         d="M 0,95250 C 0,42644.88 39801.88,0 88900,0 c 49098.1,0 88900,42644.88 88900,95250 0,52605.1 -39801.9,95250 -88900,95250 C 39801.88,190500 0,147855.1 0,95250 Z"
         style="fill:none;stroke:#41719c;stroke-width:12700;stroke-linecap:butt;stroke-linejoin:miter;stroke-miterlimit:8;stroke-dasharray:none;stroke-opacity:1"
         id="path4217"
         inkscape:connector-curvature="0" /></g><path
       d="m 41.5,52.5 c 0,3.86599 3.13401,7 7,7 3.86599,0 7,-3.13401 7,-7 0,-3.86599 -3.13401,-7 -7,-7 -3.86599,0 -7,3.13401 -7,7 z"
       style="fill:#5b9bd5;fill-opacity:1;fill-rule:nonzero;stroke:none"
       id="path4219"
       inkscape:connector-curvature="0" /><g
       id="g4221"
       transform="matrix(7.874016e-5,0,0,-7.874016e-5,41.5,59.5)"><path
         d="M 0,88900 C 0,39801.88 39801.88,0 88900,0 c 49098.1,0 88900,39801.88 88900,88900 0,49098.1 -39801.9,88900 -88900,88900 C 39801.88,177800 0,137998.1 0,88900 Z"
         style="fill:none;stroke:#41719c;stroke-width:12700;stroke-linecap:butt;stroke-linejoin:miter;stroke-miterlimit:8;stroke-dasharray:none;stroke-opacity:1"
         id="path4223"
         inkscape:connector-curvature="0" /></g><path
       d="m 72.5,59 c 0,4.14214 3.35786,7.5 7.5,7.5 4.14214,0 7.5,-3.35786 7.5,-7.5 0,-4.14214 -3.35786,-7.5 -7.5,-7.5 -4.14214,0 -7.5,3.35786 -7.5,7.5 z"
       style="fill:#5b9bd5;fill-opacity:1;fill-rule:nonzero;stroke:none"
       id="path4225"
       inkscape:connector-curvature="0" /><g
       id="g4227"
       transform="matrix(7.874016e-5,0,0,-7.874016e-5,72.5,66.5)"><path
         d="M 0,95250 C 0,42644.88 42644.88,0 95250,0 c 52605.1,0 95250,42644.88 95250,95250 0,52605.1 -42644.9,95250 -95250,95250 C 42644.88,190500 0,147855.1 0,95250 Z"
         style="fill:none;stroke:#41719c;stroke-width:12700;stroke-linecap:butt;stroke-linejoin:miter;stroke-miterlimit:8;stroke-dasharray:none;stroke-opacity:1"
         id="path4229"
         inkscape:connector-curvature="0" /></g><path
       d="m 54.5,65.5 c 0,3.86599 3.13401,7 7,7 3.86599,0 7,-3.13401 7,-7 0,-3.86599 -3.13401,-7 -7,-7 -3.86599,0 -7,3.13401 -7,7 z"
       style="fill:#767171;fill-opacity:1;fill-rule:nonzero;stroke:none"
       id="path4231"
       inkscape:connector-curvature="0" /><g
       id="g4233"
       transform="matrix(7.874016e-5,0,0,-7.874016e-5,54.5,72.5)"><path
         d="M 0,88900 C 0,39801.93 39801.88,0 88900,0 c 49098.1,0 88900,39801.93 88900,88900 0,49098.1 -39801.9,88900 -88900,88900 C 39801.88,177800 0,137998.1 0,88900 Z"
         style="fill:none;stroke:#41719c;stroke-width:12700;stroke-linecap:butt;stroke-linejoin:miter;stroke-miterlimit:8;stroke-dasharray:none;stroke-opacity:1"
         id="path4235"
         inkscape:connector-curvature="0" /></g><path
       d="m 69.5,68.5 c 0,3.86599 3.13401,7 7,7 3.86599,0 7,-3.13401 7,-7 0,-3.86599 -3.13401,-7 -7,-7 -3.86599,0 -7,3.13401 -7,7 z"
       style="fill:#767171;fill-opacity:1;fill-rule:nonzero;stroke:none"
       id="path4237"
       inkscape:connector-curvature="0" /><g
       id="g4239"
       transform="matrix(7.874016e-5,0,0,-7.874016e-5,69.5,75.5)"><path
         d="M 0,88900 C 0,39801.93 39801.93,0 88900,0 c 49098.1,0 88900,39801.93 88900,88900 0,49098.1 -39801.9,88900 -88900,88900 C 39801.93,177800 0,137998.1 0,88900 Z"
         style="fill:none;stroke:#41719c;stroke-width:12700;stroke-linecap:butt;stroke-linejoin:miter;stroke-miterlimit:8;stroke-dasharray:none;stroke-opacity:1"
         id="path4241"
         inkscape:connector-curvature="0" /></g><path
       d="m 68.5,49.5 c 0,3.86599 3.13401,7 7,7 3.86599,0 7,-3.13401 7,-7 0,-3.86599 -3.13401,-7 -7,-7 -3.86599,0 -7,3.13401 -7,7 z"
       style="fill:#767171;fill-opacity:1;fill-rule:nonzero;stroke:none"
       id="path4243"
       inkscape:connector-curvature="0" /><g
       id="g4245"
       transform="matrix(7.874016e-5,0,0,-7.874016e-5,68.5,56.5)"><path
         d="M 0,88900 C 0,39801.88 39801.93,0 88900,0 c 49098.1,0 88900,39801.88 88900,88900 0,49098.1 -39801.9,88900 -88900,88900 C 39801.93,177800 0,137998.1 0,88900 Z"
         style="fill:none;stroke:#41719c;stroke-width:12700;stroke-linecap:butt;stroke-linejoin:miter;stroke-miterlimit:8;stroke-dasharray:none;stroke-opacity:1"
         id="path4247"
         inkscape:connector-curvature="0" /></g><path
       d="m 49.5,44.5 c 0,3.86599 3.13401,7 7,7 3.86599,0 7,-3.13401 7,-7 0,-3.86599 -3.13401,-7 -7,-7 -3.86599,0 -7,3.13401 -7,7 z"
       style="fill:#767171;fill-opacity:1;fill-rule:nonzero;stroke:none"
       id="path4249"
       inkscape:connector-curvature="0" /><g
       id="g4251"
       transform="matrix(7.874016e-5,0,0,-7.874016e-5,49.5,51.5)"><path
         d="M 0,88900 C 0,39801.88 39801.88,0 88900,0 c 49098.1,0 88900,39801.88 88900,88900 0,49098.1 -39801.9,88900 -88900,88900 C 39801.88,177800 0,137998.1 0,88900 Z"
         style="fill:none;stroke:#41719c;stroke-width:12700;stroke-linecap:butt;stroke-linejoin:miter;stroke-miterlimit:8;stroke-dasharray:none;stroke-opacity:1"
         id="path4253"
         inkscape:connector-curvature="0" /></g><g
       id="g4255"
       transform="matrix(7.874016e-5,0,0,-7.874016e-5,31.5,91.5)"><path
         d="M 0,412750 C 0,184794.4 181951.5,0 406400,0 630848.5,0 812800,184794.4 812800,412750 812800,640705.5 630848.5,825500 406400,825500 181951.5,825500 0,640705.5 0,412750 Z"
         style="fill:none;stroke:#41719c;stroke-width:12700;stroke-linecap:butt;stroke-linejoin:miter;stroke-miterlimit:8;stroke-dasharray:none;stroke-opacity:1"
         id="path4257"
         inkscape:connector-curvature="0" /></g><g
       id="g4259"
       transform="matrix(7.874016e-5,0,0,-7.874016e-5,21.5,103.5)"><path
         d="M 0,539750 C 0,241654.3 238811.3,0 533400,0 c 294588.6,0 533400,241654.3 533400,539750 0,298095.7 -238811.4,539750 -533400,539750 C 238811.3,1079500 0,837845.7 0,539750 Z"
         style="fill:none;stroke:#41719c;stroke-width:12700;stroke-linecap:butt;stroke-linejoin:miter;stroke-miterlimit:8;stroke-dasharray:none;stroke-opacity:1"
         id="path4261"
         inkscape:connector-curvature="0" /></g><g
       id="g4263"
       transform="matrix(7.874016e-5,0,0,-7.874016e-5,10.5,115.5)"><path
         d="M 0,685800 C 0,307043.2 307043.1,0 685800,0 c 378757,0 685800,307043.2 685800,685800 0,378757 -307043,685800 -685800,685800 C 307043.1,1371600 0,1064557 0,685800 Z"
         style="fill:none;stroke:#41719c;stroke-width:12700;stroke-linecap:butt;stroke-linejoin:miter;stroke-miterlimit:8;stroke-dasharray:none;stroke-opacity:1"
         id="path4265"
         inkscape:connector-curvature="0" /></g><g
       id="g4267"
       transform="matrix(7.874016e-5,0,0,-7.874016e-5,0.5,127.5)"><path
         d="M 0,806450 C 0,361059.9 363902.9,0 812800,0 c 448897,0 812800,361059.9 812800,806450 0,445390 -363903,806450 -812800,806450 C 363902.9,1612900 0,1251840 0,806450 Z"
         style="fill:none;stroke:#41719c;stroke-width:12700;stroke-linecap:butt;stroke-linejoin:miter;stroke-miterlimit:8;stroke-dasharray:none;stroke-opacity:1"
         id="path4269"
         inkscape:connector-curvature="0" /></g><path
       d="m 91.5,62.5 c 0,2.20914 1.79086,4 4,4 2.20914,0 4,-1.79086 4,-4 0,-2.20914 -1.79086,-4 -4,-4 -2.20914,0 -4,1.79086 -4,4 z"
       style="fill:#1a1a1a;fill-opacity:1;fill-rule:nonzero;stroke:none"
       id="path4271"
       inkscape:connector-curvature="0" /><g
       id="g4273"
       transform="matrix(7.874016e-5,0,0,-7.874016e-5,91.5,66.5)"><path
         d="M 0,50800 C 0,22743.96 22743.96,0 50800,0 c 28056.04,0 50800,22743.96 50800,50800 0,28056.09 -22743.96,50800 -50800,50800 C 22743.96,101600 0,78856.09 0,50800 Z"
         style="fill:none;stroke:#41719c;stroke-width:12700;stroke-linecap:butt;stroke-linejoin:miter;stroke-miterlimit:8;stroke-dasharray:none;stroke-opacity:1"
         id="path4275"
         inkscape:connector-curvature="0" /></g><path
       d="m 27.5,58.5 c 0,2.20914 1.79086,4 4,4 2.20914,0 4,-1.79086 4,-4 0,-2.20914 -1.79086,-4 -4,-4 -2.20914,0 -4,1.79086 -4,4 z"
       style="fill:#1a1a1a;fill-opacity:1;fill-rule:nonzero;stroke:none"
       id="path4277"
       inkscape:connector-curvature="0" /><g
       id="g4279"
       transform="matrix(7.874016e-5,0,0,-7.874016e-5,27.5,62.5)"><path
         d="M 0,50800 C 0,22743.91 22743.94,0 50800,0 c 28056.09,0 50800,22743.91 50800,50800 0,28056.09 -22743.91,50800 -50800,50800 C 22743.94,101600 0,78856.09 0,50800 Z"
         style="fill:none;stroke:#41719c;stroke-width:12700;stroke-linecap:butt;stroke-linejoin:miter;stroke-miterlimit:8;stroke-dasharray:none;stroke-opacity:1"
         id="path4281"
         inkscape:connector-curvature="0" /></g><path
       d="m 95.5,38.5 c 0,2.20914 2.01472,4 4.5,4 2.4853,0 4.5,-1.79086 4.5,-4 0,-2.20914 -2.0147,-4 -4.5,-4 -2.48528,0 -4.5,1.79086 -4.5,4 z"
       style="fill:#1a1a1a;fill-opacity:1;fill-rule:nonzero;stroke:none"
       id="path4283"
       inkscape:connector-curvature="0" /><g
       id="g4285"
       transform="matrix(7.874016e-5,0,0,-7.874016e-5,95.5,42.5)"><path
         d="M 0,50800 C 0,22743.91 25586.91,0 57150,0 c 31563.09,0 57150,22743.91 57150,50800 0,28056.09 -25586.91,50800 -57150,50800 C 25586.91,101600 0,78856.09 0,50800 Z"
         style="fill:none;stroke:#41719c;stroke-width:12700;stroke-linecap:butt;stroke-linejoin:miter;stroke-miterlimit:8;stroke-dasharray:none;stroke-opacity:1"
         id="path4287"
         inkscape:connector-curvature="0" /></g><path
       d="m 71.5,20.5 c 0,2.20914 1.79086,4 4,4 2.20914,0 4,-1.79086 4,-4 0,-2.20914 -1.79086,-4 -4,-4 -2.20914,0 -4,1.79086 -4,4 z"
       style="fill:#1a1a1a;fill-opacity:1;fill-rule:nonzero;stroke:none"
       id="path4289"
       inkscape:connector-curvature="0" /><g
       id="g4291"
       transform="matrix(7.874016e-5,0,0,-7.874016e-5,71.5,24.5)"><path
         d="M 0,50800 C 0,22743.94 22743.96,0 50800,0 c 28056.04,0 50800,22743.94 50800,50800 0,28056.06 -22743.96,50800 -50800,50800 C 22743.96,101600 0,78856.06 0,50800 Z"
         style="fill:none;stroke:#41719c;stroke-width:12700;stroke-linecap:butt;stroke-linejoin:miter;stroke-miterlimit:8;stroke-dasharray:none;stroke-opacity:1"
         id="path4293"
         inkscape:connector-curvature="0" /></g><path
       d="m 35.5,26 c 0,2.48528 2.01472,4.5 4.5,4.5 2.48528,0 4.5,-2.01472 4.5,-4.5 0,-2.48528 -2.01472,-4.5 -4.5,-4.5 -2.48528,0 -4.5,2.01472 -4.5,4.5 z"
       style="fill:#1a1a1a;fill-opacity:1;fill-rule:nonzero;stroke:none"
       id="path4295"
       inkscape:connector-curvature="0" /><g
       id="g4297"
       transform="matrix(7.874016e-5,0,0,-7.874016e-5,35.5,30.5)"><path
         d="M 0,57150 C 0,25586.93 25586.91,0 57150,0 c 31563.09,0 57150,25586.93 57150,57150 0,31563.07 -25586.91,57150 -57150,57150 C 25586.91,114300 0,88713.07 0,57150 Z"
         style="fill:none;stroke:#41719c;stroke-width:12700;stroke-linecap:butt;stroke-linejoin:miter;stroke-miterlimit:8;stroke-dasharray:none;stroke-opacity:1"
         id="path4299"
         inkscape:connector-curvature="0" /></g><path
       d="m 18.5,70.5 c 0,2.20914 1.79086,4 4,4 2.20914,0 4,-1.79086 4,-4 0,-2.20914 -1.79086,-4 -4,-4 -2.20914,0 -4,1.79086 -4,4 z"
       style="fill:#1a1a1a;fill-opacity:1;fill-rule:nonzero;stroke:none"
       id="path4301"
       inkscape:connector-curvature="0" /><g
       id="g4303"
       transform="matrix(7.874016e-5,0,0,-7.874016e-5,18.5,74.5)"><path
         d="M 0,50800 C 0,22743.96 22743.94,0 50800,0 c 28056.06,0 50800,22743.96 50800,50800 0,28056.04 -22743.94,50800 -50800,50800 C 22743.94,101600 0,78856.04 0,50800 Z"
         style="fill:none;stroke:#41719c;stroke-width:12700;stroke-linecap:butt;stroke-linejoin:miter;stroke-miterlimit:8;stroke-dasharray:none;stroke-opacity:1"
         id="path4305"
         inkscape:connector-curvature="0" /></g><path
       d="m 35.5,95.5 c 0,2.20914 1.79086,4 4,4 2.20914,0 4,-1.79086 4,-4 0,-2.20914 -1.79086,-4 -4,-4 -2.20914,0 -4,1.79086 -4,4 z"
       style="fill:#1a1a1a;fill-opacity:1;fill-rule:nonzero;stroke:none"
       id="path4307"
       inkscape:connector-curvature="0" /><g
       id="g4309"
       transform="matrix(7.874016e-5,0,0,-7.874016e-5,35.5,99.5)"><path
         d="M 0,50800 C 0,22743.96 22743.91,0 50800,0 c 28056.09,0 50800,22743.96 50800,50800 0,28056.04 -22743.91,50800 -50800,50800 C 22743.91,101600 0,78856.04 0,50800 Z"
         style="fill:none;stroke:#41719c;stroke-width:12700;stroke-linecap:butt;stroke-linejoin:miter;stroke-miterlimit:8;stroke-dasharray:none;stroke-opacity:1"
         id="path4311"
         inkscape:connector-curvature="0" /></g><path
       d="m 59.5,103.5 c 0,2.2091 2.01472,4 4.5,4 2.48528,0 4.5,-1.7909 4.5,-4 0,-2.2091 -2.01472,-4 -4.5,-4 -2.48528,0 -4.5,1.7909 -4.5,4 z"
       style="fill:#1a1a1a;fill-opacity:1;fill-rule:nonzero;stroke:none"
       id="path4313"
       inkscape:connector-curvature="0" /><g
       id="g4315"
       transform="matrix(7.874016e-5,0,0,-7.874016e-5,59.5,107.5)"><path
         d="M 0,50800 C 0,22743.96 25586.91,0 57150,0 c 31563.09,0 57150,22743.96 57150,50800 0,28056.04 -25586.91,50800 -57150,50800 C 25586.91,101600 0,78856.04 0,50800 Z"
         style="fill:none;stroke:#41719c;stroke-width:12700;stroke-linecap:butt;stroke-linejoin:miter;stroke-miterlimit:8;stroke-dasharray:none;stroke-opacity:1"
         id="path4317"
         inkscape:connector-curvature="0" /></g><path
       d="m 83.5,96.5 c 0,2.20914 2.01472,4 4.5,4 2.48528,0 4.5,-1.79086 4.5,-4 0,-2.20914 -2.01472,-4 -4.5,-4 -2.48528,0 -4.5,1.79086 -4.5,4 z"
       style="fill:#1a1a1a;fill-opacity:1;fill-rule:nonzero;stroke:none"
       id="path4319"
       inkscape:connector-curvature="0" /><g
       id="g4321"
       transform="matrix(7.874016e-5,0,0,-7.874016e-5,83.5,100.5)"><path
         d="M 0,50800 C 0,22743.96 25586.91,0 57150,0 c 31563.09,0 57150,22743.96 57150,50800 0,28056.04 -25586.91,50800 -57150,50800 C 25586.91,101600 0,78856.04 0,50800 Z"
         style="fill:none;stroke:#41719c;stroke-width:12700;stroke-linecap:butt;stroke-linejoin:miter;stroke-miterlimit:8;stroke-dasharray:none;stroke-opacity:1"
         id="path4323"
         inkscape:connector-curvature="0" /></g><path
       d="m 98.5,75.5 c 0,2.20914 2.0147,4 4.5,4 2.4853,0 4.5,-1.79086 4.5,-4 0,-2.20914 -2.0147,-4 -4.5,-4 -2.4853,0 -4.5,1.79086 -4.5,4 z"
       style="fill:#1a1a1a;fill-opacity:1;fill-rule:nonzero;stroke:none"
       id="path4325"
       inkscape:connector-curvature="0" /><g
       id="g4327"
       transform="matrix(7.874016e-5,0,0,-7.874016e-5,98.5,79.5)"><path
         d="M 0,50800 C 0,22743.96 25586.91,0 57150,0 c 31563.09,0 57150,22743.96 57150,50800 0,28056.04 -25586.91,50800 -57150,50800 C 25586.91,101600 0,78856.04 0,50800 Z"
         style="fill:none;stroke:#41719c;stroke-width:12700;stroke-linecap:butt;stroke-linejoin:miter;stroke-miterlimit:8;stroke-dasharray:none;stroke-opacity:1"
         id="path4329"
         inkscape:connector-curvature="0" /></g><path
       d="m 103.5,93.5 c 0,2.20914 1.7909,4 4,4 2.2091,0 4,-1.79086 4,-4 0,-2.20914 -1.7909,-4 -4,-4 -2.2091,0 -4,1.79086 -4,4 z"
       style="fill:#1a1a1a;fill-opacity:1;fill-rule:nonzero;stroke:none"
       id="path4331"
       inkscape:connector-curvature="0" /><g
       id="g4333"
       transform="matrix(7.874016e-5,0,0,-7.874016e-5,103.5,97.5)"><path
         d="M 0,50800 C 0,22743.96 22743.96,0 50800,0 c 28056.04,0 50800,22743.96 50800,50800 0,28056.04 -22743.96,50800 -50800,50800 C 22743.96,101600 0,78856.04 0,50800 Z"
         style="fill:none;stroke:#41719c;stroke-width:12700;stroke-linecap:butt;stroke-linejoin:miter;stroke-miterlimit:8;stroke-dasharray:none;stroke-opacity:1"
         id="path4335"
         inkscape:connector-curvature="0" /></g><path
       d="m 87.5,108.5 c 0,2.2091 1.79086,4 4,4 2.20914,0 4,-1.7909 4,-4 0,-2.2091 -1.79086,-4 -4,-4 -2.20914,0 -4,1.7909 -4,4 z"
       style="fill:#1a1a1a;fill-opacity:1;fill-rule:nonzero;stroke:none"
       id="path4337"
       inkscape:connector-curvature="0" /><g
       id="g4339"
       transform="matrix(7.874016e-5,0,0,-7.874016e-5,87.5,112.5)"><path
         d="M 0,50800 C 0,22743.96 22743.96,0 50800,0 c 28056.04,0 50800,22743.96 50800,50800 0,28056.04 -22743.96,50800 -50800,50800 C 22743.96,101600 0,78856.04 0,50800 Z"
         style="fill:none;stroke:#41719c;stroke-width:12700;stroke-linecap:butt;stroke-linejoin:miter;stroke-miterlimit:8;stroke-dasharray:none;stroke-opacity:1"
         id="path4341"
         inkscape:connector-curvature="0" /></g><path
       d="m 66.5,115.5 c 0,2.2091 1.79086,4 4,4 2.20914,0 4,-1.7909 4,-4 0,-2.2091 -1.79086,-4 -4,-4 -2.20914,0 -4,1.7909 -4,4 z"
       style="fill:#1a1a1a;fill-opacity:1;fill-rule:nonzero;stroke:none"
       id="path4343"
       inkscape:connector-curvature="0" /><g
       id="g4345"
       transform="matrix(7.874016e-5,0,0,-7.874016e-5,66.5,119.5)"><path
         d="M 0,50800 C 0,22743.96 22743.96,0 50800,0 c 28056.04,0 50800,22743.96 50800,50800 0,28056.04 -22743.96,50800 -50800,50800 C 22743.96,101600 0,78856.04 0,50800 Z"
         style="fill:none;stroke:#41719c;stroke-width:12700;stroke-linecap:butt;stroke-linejoin:miter;stroke-miterlimit:8;stroke-dasharray:none;stroke-opacity:1"
         id="path4347"
         inkscape:connector-curvature="0" /></g><path
       d="m 44.5,113.5 c 0,2.2091 1.79086,4 4,4 2.20914,0 4,-1.7909 4,-4 0,-2.2091 -1.79086,-4 -4,-4 -2.20914,0 -4,1.7909 -4,4 z"
       style="fill:#1a1a1a;fill-opacity:1;fill-rule:nonzero;stroke:none"
       id="path4349"
       inkscape:connector-curvature="0" /><g
       id="g4351"
       transform="matrix(7.874016e-5,0,0,-7.874016e-5,44.5,117.5)"><path
         d="M 0,50800 C 0,22743.96 22743.91,0 50800,0 c 28056.09,0 50800,22743.96 50800,50800 0,28056.04 -22743.91,50800 -50800,50800 C 22743.91,101600 0,78856.04 0,50800 Z"
         style="fill:none;stroke:#41719c;stroke-width:12700;stroke-linecap:butt;stroke-linejoin:miter;stroke-miterlimit:8;stroke-dasharray:none;stroke-opacity:1"
         id="path4353"
         inkscape:connector-curvature="0" /></g><path
       d="m 25.5,104 c 0,2.4853 1.79086,4.5 4,4.5 2.20914,0 4,-2.0147 4,-4.5 0,-2.4853 -1.79086,-4.5 -4,-4.5 -2.20914,0 -4,2.0147 -4,4.5 z"
       style="fill:#1a1a1a;fill-opacity:1;fill-rule:nonzero;stroke:none"
       id="path4355"
       inkscape:connector-curvature="0" /><g
       id="g4357"
       transform="matrix(7.874016e-5,0,0,-7.874016e-5,25.5,108.5)"><path
         d="M 0,57150 C 0,25586.91 22743.94,0 50800,0 c 28056.06,0 50800,25586.91 50800,57150 0,31563.09 -22743.94,57150 -50800,57150 C 22743.94,114300 0,88713.09 0,57150 Z"
         style="fill:none;stroke:#41719c;stroke-width:12700;stroke-linecap:butt;stroke-linejoin:miter;stroke-miterlimit:8;stroke-dasharray:none;stroke-opacity:1"
         id="path4359"
         inkscape:connector-curvature="0" /></g><path
       d="m 15.5,91.5 c 0,2.20914 2.01472,4 4.5,4 2.48528,0 4.5,-1.79086 4.5,-4 0,-2.20914 -2.01472,-4 -4.5,-4 -2.48528,0 -4.5,1.79086 -4.5,4 z"
       style="fill:#1a1a1a;fill-opacity:1;fill-rule:nonzero;stroke:none"
       id="path4361"
       inkscape:connector-curvature="0" /><g
       id="g4363"
       transform="matrix(7.874016e-5,0,0,-7.874016e-5,15.5,95.5)"><path
         d="M 0,50800 C 0,22743.96 25586.93,0 57150,0 c 31563.07,0 57150,22743.96 57150,50800 0,28056.04 -25586.93,50800 -57150,50800 C 25586.93,101600 0,78856.04 0,50800 Z"
         style="fill:none;stroke:#41719c;stroke-width:12700;stroke-linecap:butt;stroke-linejoin:miter;stroke-miterlimit:8;stroke-dasharray:none;stroke-opacity:1"
         id="path4365"
         inkscape:connector-curvature="0" /></g><path
       d="m 7.5,76.5 c 0,2.20914 2.014719,4 4.5,4 2.48528,0 4.5,-1.79086 4.5,-4 0,-2.20914 -2.01472,-4 -4.5,-4 -2.485281,0 -4.5,1.79086 -4.5,4 z"
       style="fill:#1a1a1a;fill-opacity:1;fill-rule:nonzero;stroke:none"
       id="path4367"
       inkscape:connector-curvature="0" /><g
       id="g4369"
       transform="matrix(7.874016e-5,0,0,-7.874016e-5,7.5,80.5)"><path
         d="M 0,50800 C 0,22743.96 25586.93,0 57150,0 c 31563.07,0 57150,22743.96 57150,50800 0,28056.04 -25586.93,50800 -57150,50800 C 25586.93,101600 0,78856.04 0,50800 Z"
         style="fill:none;stroke:#41719c;stroke-width:12700;stroke-linecap:butt;stroke-linejoin:miter;stroke-miterlimit:8;stroke-dasharray:none;stroke-opacity:1"
         id="path4371"
         inkscape:connector-curvature="0" /></g><path
       d="m 5.5,60.5 c 0,2.20914 2.014719,4 4.5,4 2.48528,0 4.5,-1.79086 4.5,-4 0,-2.20914 -2.01472,-4 -4.5,-4 -2.485281,0 -4.5,1.79086 -4.5,4 z"
       style="fill:#1a1a1a;fill-opacity:1;fill-rule:nonzero;stroke:none"
       id="path4373"
       inkscape:connector-curvature="0" /><g
       id="g4375"
       transform="matrix(7.874016e-5,0,0,-7.874016e-5,5.5,64.5)"><path
         d="M 0,50800 C 0,22743.91 25586.93,0 57150,0 c 31563.07,0 57150,22743.91 57150,50800 0,28056.09 -25586.93,50800 -57150,50800 C 25586.93,101600 0,78856.09 0,50800 Z"
         style="fill:none;stroke:#41719c;stroke-width:12700;stroke-linecap:butt;stroke-linejoin:miter;stroke-miterlimit:8;stroke-dasharray:none;stroke-opacity:1"
         id="path4377"
         inkscape:connector-curvature="0" /></g><path
       d="m 8.5,45 c 0,2.48528 1.79086,4.5 4,4.5 2.20914,0 4,-2.01472 4,-4.5 0,-2.48528 -1.79086,-4.5 -4,-4.5 -2.20914,0 -4,2.01472 -4,4.5 z"
       style="fill:#1a1a1a;fill-opacity:1;fill-rule:nonzero;stroke:none"
       id="path4379"
       inkscape:connector-curvature="0" /><g
       id="g4381"
       transform="matrix(7.874016e-5,0,0,-7.874016e-5,8.5,49.5)"><path
         d="M 0,57150 C 0,25586.91 22743.94,0 50800,0 c 28056.06,0 50800,25586.91 50800,57150 0,31563.09 -22743.94,57150 -50800,57150 C 22743.94,114300 0,88713.09 0,57150 Z"
         style="fill:none;stroke:#41719c;stroke-width:12700;stroke-linecap:butt;stroke-linejoin:miter;stroke-miterlimit:8;stroke-dasharray:none;stroke-opacity:1"
         id="path4383"
         inkscape:connector-curvature="0" /></g><path
       d="m 16.5,29.5 c 0,2.20914 1.79086,4 4,4 2.20914,0 4,-1.79086 4,-4 0,-2.20914 -1.79086,-4 -4,-4 -2.20914,0 -4,1.79086 -4,4 z"
       style="fill:#1a1a1a;fill-opacity:1;fill-rule:nonzero;stroke:none"
       id="path4385"
       inkscape:connector-curvature="0" /><g
       id="g4387"
       transform="matrix(7.874016e-5,0,0,-7.874016e-5,16.5,33.5)"><path
         d="M 0,50800 C 0,22743.94 22743.94,0 50800,0 c 28056.06,0 50800,22743.94 50800,50800 0,28056.06 -22743.94,50800 -50800,50800 C 22743.94,101600 0,78856.06 0,50800 Z"
         style="fill:none;stroke:#41719c;stroke-width:12700;stroke-linecap:butt;stroke-linejoin:miter;stroke-miterlimit:8;stroke-dasharray:none;stroke-opacity:1"
         id="path4389"
         inkscape:connector-curvature="0" /></g><path
       d="m 29.5,18 c 0,2.48528 1.79086,4.5 4,4.5 2.20914,0 4,-2.01472 4,-4.5 0,-2.48528 -1.79086,-4.5 -4,-4.5 -2.20914,0 -4,2.01472 -4,4.5 z"
       style="fill:#1a1a1a;fill-opacity:1;fill-rule:nonzero;stroke:none"
       id="path4391"
       inkscape:connector-curvature="0" /><g
       id="g4393"
       transform="matrix(7.874016e-5,0,0,-7.874016e-5,29.5,22.5)"><path
         d="M 0,57150 C 0,25586.93 22743.94,0 50800,0 c 28056.09,0 50800,25586.93 50800,57150 0,31563.07 -22743.91,57150 -50800,57150 C 22743.94,114300 0,88713.07 0,57150 Z"
         style="fill:none;stroke:#41719c;stroke-width:12700;stroke-linecap:butt;stroke-linejoin:miter;stroke-miterlimit:8;stroke-dasharray:none;stroke-opacity:1"
         id="path4395"
         inkscape:connector-curvature="0" /></g><path
       d="m 45.5,10.5 c 0,2.20914 1.79086,4 4,4 2.20914,0 4,-1.79086 4,-4 0,-2.209139 -1.79086,-4 -4,-4 -2.20914,0 -4,1.790861 -4,4 z"
       style="fill:#1a1a1a;fill-opacity:1;fill-rule:nonzero;stroke:none"
       id="path4397"
       inkscape:connector-curvature="0" /><g
       id="g4399"
       transform="matrix(7.874016e-5,0,0,-7.874016e-5,45.5,14.5)"><path
         d="M 0,50800 C 0,22743.94 22743.91,0 50800,0 c 28056.09,0 50800,22743.94 50800,50800 0,28056.06 -22743.91,50800 -50800,50800 C 22743.91,101600 0,78856.06 0,50800 Z"
         style="fill:none;stroke:#41719c;stroke-width:12700;stroke-linecap:butt;stroke-linejoin:miter;stroke-miterlimit:8;stroke-dasharray:none;stroke-opacity:1"
         id="path4401"
         inkscape:connector-curvature="0" /></g><path
       d="m 64.5,8.5 c 0,2.20914 1.79086,4 4,4 2.20914,0 4,-1.79086 4,-4 0,-2.209139 -1.79086,-4 -4,-4 -2.20914,0 -4,1.790861 -4,4 z"
       style="fill:#1a1a1a;fill-opacity:1;fill-rule:nonzero;stroke:none"
       id="path4403"
       inkscape:connector-curvature="0" /><g
       id="g4405"
       transform="matrix(7.874016e-5,0,0,-7.874016e-5,64.5,12.5)"><path
         d="M 0,50800 C 0,22743.94 22743.96,0 50800,0 c 28056.04,0 50800,22743.94 50800,50800 0,28056.06 -22743.96,50800 -50800,50800 C 22743.96,101600 0,78856.06 0,50800 Z"
         style="fill:none;stroke:#41719c;stroke-width:12700;stroke-linecap:butt;stroke-linejoin:miter;stroke-miterlimit:8;stroke-dasharray:none;stroke-opacity:1"
         id="path4407"
         inkscape:connector-curvature="0" /></g><path
       d="m 82.5,12.5 c 0,2.20914 2.01472,4 4.5,4 2.48528,0 4.5,-1.79086 4.5,-4 0,-2.20914 -2.01472,-4 -4.5,-4 -2.48528,0 -4.5,1.79086 -4.5,4 z"
       style="fill:#1a1a1a;fill-opacity:1;fill-rule:nonzero;stroke:none"
       id="path4409"
       inkscape:connector-curvature="0" /><g
       id="g4411"
       transform="matrix(7.874016e-5,0,0,-7.874016e-5,82.5,16.5)"><path
         d="M 0,50800 C 0,22743.94 25586.91,0 57150,0 c 31563.09,0 57150,22743.94 57150,50800 0,28056.06 -25586.91,50800 -57150,50800 C 25586.91,101600 0,78856.06 0,50800 Z"
         style="fill:none;stroke:#41719c;stroke-width:12700;stroke-linecap:butt;stroke-linejoin:miter;stroke-miterlimit:8;stroke-dasharray:none;stroke-opacity:1"
         id="path4413"
         inkscape:connector-curvature="0" /></g><path
       d="m 96.5,22.5 c 0,2.20914 1.79086,4 4,4 2.2091,0 4,-1.79086 4,-4 0,-2.20914 -1.7909,-4 -4,-4 -2.20914,0 -4,1.79086 -4,4 z"
       style="fill:#1a1a1a;fill-opacity:1;fill-rule:nonzero;stroke:none"
       id="path4415"
       inkscape:connector-curvature="0" /><g
       id="g4417"
       transform="matrix(7.874016e-5,0,0,-7.874016e-5,96.5,26.5)"><path
         d="M 0,50800 C 0,22743.94 22743.96,0 50800,0 c 28056.04,0 50800,22743.94 50800,50800 0,28056.06 -22743.96,50800 -50800,50800 C 22743.96,101600 0,78856.06 0,50800 Z"
         style="fill:none;stroke:#41719c;stroke-width:12700;stroke-linecap:butt;stroke-linejoin:miter;stroke-miterlimit:8;stroke-dasharray:none;stroke-opacity:1"
         id="path4419"
         inkscape:connector-curvature="0" /></g><path
       d="m 106.5,34.5 c 0,2.20914 1.7909,4 4,4 2.2091,0 4,-1.79086 4,-4 0,-2.20914 -1.7909,-4 -4,-4 -2.2091,0 -4,1.79086 -4,4 z"
       style="fill:#1a1a1a;fill-opacity:1;fill-rule:nonzero;stroke:none"
       id="path4421"
       inkscape:connector-curvature="0" /><g
       id="g4423"
       transform="matrix(7.874016e-5,0,0,-7.874016e-5,106.5,38.5)"><path
         d="M 0,50800 C 0,22743.91 22743.96,0 50800,0 c 28056.04,0 50800,22743.91 50800,50800 0,28056.09 -22743.96,50800 -50800,50800 C 22743.96,101600 0,78856.09 0,50800 Z"
         style="fill:none;stroke:#41719c;stroke-width:12700;stroke-linecap:butt;stroke-linejoin:miter;stroke-miterlimit:8;stroke-dasharray:none;stroke-opacity:1"
         id="path4425"
         inkscape:connector-curvature="0" /></g><path
       d="m 111.5,49.5 c 0,2.20914 2.0147,4 4.5,4 2.4853,0 4.5,-1.79086 4.5,-4 0,-2.20914 -2.0147,-4 -4.5,-4 -2.4853,0 -4.5,1.79086 -4.5,4 z"
       style="fill:#1a1a1a;fill-opacity:1;fill-rule:nonzero;stroke:none"
       id="path4427"
       inkscape:connector-curvature="0" /><g
       id="g4429"
       transform="matrix(7.874016e-5,0,0,-7.874016e-5,111.5,53.5)"><path
         d="M 0,50800 C 0,22743.91 25586.91,0 57150,0 c 31563.09,0 57150,22743.91 57150,50800 0,28056.09 -25586.91,50800 -57150,50800 C 25586.91,101600 0,78856.09 0,50800 Z"
         style="fill:none;stroke:#41719c;stroke-width:12700;stroke-linecap:butt;stroke-linejoin:miter;stroke-miterlimit:8;stroke-dasharray:none;stroke-opacity:1"
         id="path4431"
         inkscape:connector-curvature="0" /></g><path
       d="m 113.5,72 c 0,2.48528 2.0147,4.5 4.5,4.5 2.4853,0 4.5,-2.01472 4.5,-4.5 0,-2.48528 -2.0147,-4.5 -4.5,-4.5 -2.4853,0 -4.5,2.01472 -4.5,4.5 z"
       style="fill:#1a1a1a;fill-opacity:1;fill-rule:nonzero;stroke:none"
       id="path4433"
       inkscape:connector-curvature="0" /><g
       id="g4435"
       transform="matrix(7.874016e-5,0,0,-7.874016e-5,113.5,76.5)"><path
         d="M 0,57150 C 0,25586.91 25586.91,0 57150,0 c 31563.09,0 57150,25586.91 57150,57150 0,31563.09 -25586.91,57150 -57150,57150 C 25586.91,114300 0,88713.09 0,57150 Z"
         style="fill:none;stroke:#41719c;stroke-width:12700;stroke-linecap:butt;stroke-linejoin:miter;stroke-miterlimit:8;stroke-dasharray:none;stroke-opacity:1"
         id="path4437"
         inkscape:connector-curvature="0" /></g><path
       d="m 104.5,110.5 c 0,2.2091 1.7909,4 4,4 2.2091,0 4,-1.7909 4,-4 0,-2.2091 -1.7909,-4 -4,-4 -2.2091,0 -4,1.7909 -4,4 z"
       style="fill:#843c0c;fill-opacity:1;fill-rule:nonzero;stroke:none"
       id="path4439"
       inkscape:connector-curvature="0" /><g
       id="g4441"
       transform="matrix(7.874016e-5,0,0,-7.874016e-5,104.5,114.5)"><path
         d="M 0,50800 C 0,22743.96 22743.96,0 50800,0 c 28056.04,0 50800,22743.96 50800,50800 0,28056.04 -22743.96,50800 -50800,50800 C 22743.96,101600 0,78856.04 0,50800 Z"
         style="fill:none;stroke:#c55a11;stroke-width:12700;stroke-linecap:butt;stroke-linejoin:miter;stroke-miterlimit:8;stroke-dasharray:none;stroke-opacity:1"
         id="path4443"
         inkscape:connector-curvature="0" /></g><text
       xml:space="preserve"
       style="font-style:normal;font-variant:normal;font-weight:normal;font-stretch:normal;font-size:32px;line-height:75%;font-family:KaTeX_Main;-inkscape-font-specification:'KaTeX_Main, Normal';text-align:start;letter-spacing:0px;word-spacing:0px;writing-mode:lr-tb;text-anchor:start;fill:#000000;fill-opacity:1;stroke:none;stroke-width:0.80000001px;stroke-linecap:butt;stroke-linejoin:miter;stroke-opacity:1"
       x="148.02391"
       y="-96.657242"
       id="text1235"
       transform="scale(1,-1)"><tspan
         sodipodi:role="line"
         x="148.02391"
         y="-96.657242"
         style="font-style:normal;font-variant:normal;font-weight:normal;font-stretch:normal;font-size:19.20000076px;line-height:75%;font-family:sans-serif;-inkscape-font-specification:'sans-serif, Normal';font-variant-ligatures:normal;font-variant-caps:normal;font-variant-numeric:normal;font-feature-settings:normal;text-align:start;writing-mode:lr-tb;text-anchor:start;stroke-width:0.80000001px"
         id="tspan1261">Cu</tspan><tspan
         sodipodi:role="line"
         x="148.02391"
         y="-72.657242"
         style="font-style:normal;font-variant:normal;font-weight:normal;font-stretch:normal;font-size:19.20000076px;line-height:75%;font-family:KaTeX_Main;-inkscape-font-specification:'KaTeX_Main, Normal';font-variant-ligatures:normal;font-variant-caps:normal;font-variant-numeric:normal;font-feature-settings:normal;text-align:start;writing-mode:lr-tb;text-anchor:start;stroke-width:0.80000001px"
         id="tspan1265">29<tspan
   style="-inkscape-font-specification:'KaTeX_Math, Normal';font-family:KaTeX_Math;font-weight:normal;font-style:normal;font-stretch:normal;font-variant:normal;font-size:19.2px;text-anchor:start;text-align:start;writing-mode:lr;font-variant-ligatures:normal;font-variant-caps:normal;font-variant-numeric:normal;font-feature-settings:normal"
   id="tspan4650">e</tspan><tspan
   style="font-size:65%;baseline-shift:super"
   id="tspan4648">−</tspan></tspan><tspan
         sodipodi:role="line"
         x="148.02391"
         y="-48.657242"
         style="font-style:normal;font-variant:normal;font-weight:normal;font-stretch:normal;font-size:19.20000076px;line-height:75%;font-family:KaTeX_Main;-inkscape-font-specification:'KaTeX_Main, Normal';font-variant-ligatures:normal;font-variant-caps:normal;font-variant-numeric:normal;font-feature-settings:normal;text-align:start;writing-mode:lr-tb;text-anchor:start;stroke-width:0.80000001px"
         id="tspan1239">29<tspan
   style="font-style:normal;font-variant:normal;font-weight:normal;font-stretch:normal;font-size:19.20000076px;font-family:KaTeX_Math;-inkscape-font-specification:'KaTeX_Math, Normal';font-variant-ligatures:normal;font-variant-caps:normal;font-variant-numeric:normal;font-feature-settings:normal;text-align:start;writing-mode:lr-tb;text-anchor:start"
   id="tspan3981">e</tspan><tspan
   style="font-style:normal;font-variant:normal;font-weight:normal;font-stretch:normal;font-size:19.20000076px;line-height:75%;font-family:KaTeX_Main;-inkscape-font-specification:'KaTeX_Main, Normal';font-variant-ligatures:normal;font-variant-caps:normal;font-variant-numeric:normal;font-feature-settings:normal;text-align:start;writing-mode:lr-tb;baseline-shift:super;text-anchor:start;stroke-width:0.80000001px"
   id="tspan1271">+</tspan></tspan><tspan
         sodipodi:role="line"
         x="148.02391"
         y="-24.657242"
         style="font-style:normal;font-variant:normal;font-weight:normal;font-stretch:normal;font-size:19.20000076px;line-height:75%;font-family:KaTeX_Main;-inkscape-font-specification:'KaTeX_Main, Normal';font-variant-ligatures:normal;font-variant-caps:normal;font-variant-numeric:normal;font-feature-settings:normal;text-align:start;writing-mode:lr-tb;text-anchor:start;stroke-width:0.80000001px"
         id="tspan1243">35<tspan
   style="font-style:normal;font-variant:normal;font-weight:normal;font-stretch:normal;font-size:19.20000076px;font-family:KaTeX_Math;-inkscape-font-specification:'KaTeX_Math, Normal';font-variant-ligatures:normal;font-variant-caps:normal;font-variant-numeric:normal;font-feature-settings:normal;text-align:start;writing-mode:lr-tb;text-anchor:start"
   id="tspan3983">n</tspan></tspan><tspan
         sodipodi:role="line"
         x="148.02391"
         y="-0.65724182"
         style="line-height:75%;stroke-width:0.80000001px"
         id="tspan1241" /></text>
<path
       d="m 128.11841,121.8312 -0.24165,-2.52301 -1.03865,0.063 -2.67337,-0.28154 -2.30734,-0.72174 -2.21682,-1.04861 -4.23446,-2.60128 0.52346,-0.852 4.18797,2.57264 2.10469,0.99559 2.14615,0.67134 2.49195,0.26238 0.92102,-0.0559 -0.23503,-2.4536 6.25871,2.41431 z"
       style="fill:#41719c;fill-opacity:1;fill-rule:nonzero;stroke:none;stroke-width:1"
       id="path4481"
       inkscape:connector-curvature="0" /><text
       xml:space="preserve"
       style="font-style:normal;font-variant:normal;font-weight:normal;font-stretch:normal;font-size:32px;line-height:125%;font-family:KaTeX_Main;-inkscape-font-specification:'KaTeX_Main, Normal';text-align:start;letter-spacing:0px;word-spacing:0px;writing-mode:lr-tb;text-anchor:start;fill:#000000;fill-opacity:1;stroke:none;stroke-width:0.80000001px;stroke-linecap:butt;stroke-linejoin:miter;stroke-opacity:1"
       x="108.6"
       y="21.568005"
       id="text3975"
       transform="scale(1,-1)"><tspan
         sodipodi:role="line"
         id="tspan3973"
         x="108.6"
         y="51.168003"
         style="stroke-width:0.80000001px"></tspan></text>
</g></svg>