<?xml version="1.0" encoding="utf-8"?>
<!-- Generator: Adobe Illustrator 19.1.0, SVG Export Plug-In . SVG Version: 6.00 Build 0)  -->
<svg version="1.1" id="Layer_1" xmlns="http://www.w3.org/2000/svg" xmlns:xlink="http://www.w3.org/1999/xlink" x="0px" y="0px"
	 viewBox="0 0 480 192" style="enable-background:new 0 0 480 192;" xml:space="preserve">
<style type="text/css">
	.st0{fill:none;stroke:#1FAB54;stroke-width:6;stroke-linecap:round;stroke-miterlimit:10;}
	.st1{fill:none;stroke:#FF9C39;stroke-width:6;stroke-linecap:round;stroke-miterlimit:10;}
	.st2{fill:none;stroke:#FF9C39;stroke-width:6;stroke-linecap:round;stroke-linejoin:round;stroke-miterlimit:10;}
	.st3{fill:none;stroke:#11ACCD;stroke-width:5;stroke-linecap:round;stroke-linejoin:round;stroke-miterlimit:10;}
	.st4{fill:none;stroke:#1FAB54;stroke-width:6;stroke-linecap:round;stroke-linejoin:round;stroke-miterlimit:10;}
	.st5{fill:none;stroke:#BABEC2;stroke-width:2;stroke-linecap:round;stroke-miterlimit:10;}
	.st6{fill:none;stroke:#ED5FA6;stroke-width:4;stroke-linecap:round;stroke-miterlimit:10;}
	.st7{fill:#ED5FA6;}
	.st8{fill:none;stroke:#1FAB54;stroke-width:4;stroke-linecap:round;stroke-miterlimit:10;}
	.st9{fill:#1FAB54;}
	.st10{fill:none;stroke:#11ACCD;stroke-width:4;stroke-linecap:round;stroke-miterlimit:10;}
	.st11{fill:#11ACCD;}
	.st12{fill:none;stroke:#FF9C39;stroke-width:4;stroke-linecap:round;stroke-miterlimit:10;}
	.st13{fill:#FF9C39;}
	.st14{fill:none;stroke:#000000;stroke-linecap:round;stroke-linejoin:round;stroke-miterlimit:10;}
	.st15{fill:none;stroke:#000000;stroke-width:1.5;stroke-linecap:round;stroke-linejoin:round;stroke-miterlimit:10;}
	.st16{fill:none;stroke:#000000;stroke-linecap:round;stroke-miterlimit:10;}
	.st17{fill:none;stroke:#000000;stroke-width:1.5;stroke-linecap:round;stroke-miterlimit:10;}
	.st18{fill:none;stroke:#000000;stroke-width:2;stroke-linecap:round;stroke-linejoin:round;stroke-miterlimit:10;}
	.st19{fill:none;stroke:#000000;stroke-width:1.5;stroke-miterlimit:10;}
	.st20{fill:none;stroke:#000000;stroke-miterlimit:10;}
	.st21{fill:none;stroke:#000000;stroke-width:2;stroke-miterlimit:10;}
	.st22{fill:none;stroke:#000000;stroke-width:2;stroke-linecap:round;stroke-miterlimit:10;}
	.st23{fill:none;stroke:#000000;stroke-linecap:round;stroke-linejoin:round;}
	.st24{fill:none;}
	.st25{stroke:#000000;stroke-linecap:round;stroke-linejoin:round;stroke-miterlimit:10;}
	.st26{fill:none;stroke:#000000;stroke-width:1.5;stroke-linejoin:round;stroke-miterlimit:10;}
	.st27{fill:none;stroke:#000000;stroke-linejoin:round;stroke-miterlimit:10;}
	.st28{clip-path:url(#SVGID_2_);fill:none;stroke:#000000;stroke-linejoin:round;stroke-miterlimit:10;}
	.st29{clip-path:url(#SVGID_2_);fill:none;stroke:#ADADEB;stroke-linejoin:round;stroke-miterlimit:10;}
	.st30{clip-path:url(#SVGID_2_);}
	.st31{stroke:#000000;stroke-linejoin:round;stroke-miterlimit:10;}
	.st32{stroke:#000000;stroke-width:3;stroke-linejoin:round;stroke-miterlimit:10;}
	.st33{fill:none;stroke:#000000;stroke-linejoin:round;}
	.st34{fill:#FFFFFF;stroke:#000000;stroke-miterlimit:10;}
	.st35{fill:#E07D10;}
	.st36{fill:none;stroke:#11ACCD;stroke-width:3;stroke-linecap:round;stroke-miterlimit:10;}
	.st37{fill:none;stroke:#E07D10;stroke-width:2;stroke-linecap:round;stroke-miterlimit:10;}
	.st38{fill:none;stroke:#FF9C39;stroke-width:3;stroke-linecap:round;stroke-miterlimit:10;}
	.st39{fill:none;stroke:#FFBB71;stroke-width:2;stroke-linecap:round;stroke-miterlimit:10;}
	.st40{fill:#FFBB71;}
	.st41{fill:none;stroke:#000000;stroke-width:2;stroke-linecap:round;stroke-miterlimit:10;stroke-dasharray:6.1241,6.1241;}
	.st42{fill:#66AFE9;}
	.st43{fill:none;stroke:#66AFE9;stroke-miterlimit:10;}
	.st44{fill:none;stroke:#11ACCD;stroke-width:1.5;stroke-miterlimit:10;}
	.st45{fill:none;stroke:#11ACCD;stroke-width:4;stroke-linecap:round;stroke-linejoin:round;stroke-miterlimit:10;}
	.st46{fill:#CA337C;}
	.st47{font-family:'KaTeX_Main-Regular';}
	.st48{font-size:18px;}
</style>
<line class="st0" x1="89.8" y1="174" x2="89.8" y2="162"/>
<line class="st1" x1="324.2" y1="66" x2="324.2" y2="42"/>
<line class="st1" x1="234" y1="66" x2="234" y2="42"/>
<polyline class="st2" points="198,42 414,42 414.2,66 "/>
<polyline class="st3" points="90,66 90,42 126,42 "/>
<polyline class="st4" points="324.2,138 324,162 89.8,162 90,138 "/>
<line class="st4" x1="234" y1="138" x2="234" y2="162"/>
<polyline class="st4" points="324,162 414.2,162 414.2,138 "/>
<g>
	<circle class="st21" cx="90" cy="102" r="18"/>
	<polyline class="st16" points="90,84 90,60 90,42 108,42 	"/>
	<polyline class="st14" points="90,120 89.8,162 414.2,162 	"/>
	<line class="st19" x1="90" y1="88.5" x2="90" y2="100.5"/>
	<line class="st19" x1="84" y1="94.5" x2="96" y2="94.5"/>
	<line class="st19" x1="84" y1="112.5" x2="96" y2="112.5"/>
</g>
<g>
	<g>
		<g>
			<line class="st22" x1="414" y1="115.5" x2="414" y2="95.6"/>
			<g>
				<polygon points="420,97.4 414,87 408,97.4 				"/>
			</g>
		</g>
	</g>
	<circle class="st21" cx="414" cy="102" r="18"/>
	<polyline class="st16" points="209.6,42 414,42 414,60 414,84 	"/>
	<line class="st14" x1="414" y1="162" x2="414" y2="120"/>
</g>
<g>
	<line class="st14" x1="185.2" y1="42" x2="209.6" y2="42"/>
	<polyline class="st18" points="138.4,42 142.3,33 150.1,51 157.9,33 165.7,51 173.5,33 181.3,51 185.2,42 	"/>
	<line class="st14" x1="108" y1="42" x2="138.4" y2="42"/>
	<polygon class="st24" points="209.6,54 209.8,30 108,30 108,54 	"/>
</g>
<g>
	<line class="st14" x1="234" y1="78.6" x2="234" y2="60"/>
	<polyline class="st18" points="234,125.4 225,121.5 243,113.7 225,105.9 243,98.1 225,90.3 243,82.5 234,78.6 	"/>
	<line class="st14" x1="234" y1="162" x2="234" y2="125.4"/>
	<rect x="222" y="60" class="st24" width="24" height="102"/>
</g>
<g>
	<line class="st14" x1="324" y1="78.6" x2="324" y2="60"/>
	<polyline class="st18" points="324,125.4 315,121.5 333,113.7 315,105.9 333,98.1 315,90.3 333,82.5 324,78.6 	"/>
	<line class="st14" x1="324" y1="162" x2="324" y2="125.4"/>
	<rect x="312" y="60" class="st24" width="24" height="102"/>
</g>
<g>
	<polyline class="st14" points="89.8,174 97.3,174 97.3,174 97.3,174 89.8,186 82.3,174 89.8,174 89.8,162 	"/>
	<rect x="77.8" y="162" class="st24" width="24" height="24"/>
</g>
<g>
	<circle class="st25" cx="233.8" cy="42" r="1.5"/>
	<rect x="227.8" y="36" class="st24" width="12" height="12"/>
</g>
<g>
	<circle class="st25" cx="324" cy="42" r="1.5"/>
	<rect x="318" y="36" class="st24" width="12" height="12"/>
</g>
<g>
	<circle class="st25" cx="324" cy="162" r="1.5"/>
	<rect x="318" y="156" class="st24" width="12" height="12"/>
</g>
<g>
	<circle class="st25" cx="234" cy="162" r="1.5"/>
	<rect x="228" y="156" class="st24" width="12" height="12"/>
</g>
<g>
	<circle class="st25" cx="89.8" cy="162" r="1.5"/>
	<rect x="83.8" y="156" class="st24" width="12" height="12"/>
</g>
<line class="st16" x1="324" y1="60" x2="324" y2="42"/>
<line class="st16" x1="234" y1="60" x2="234" y2="42"/>
<text transform="matrix(1 0 0 1 96 36)" class="st11 st47 st48">1</text>
<text transform="matrix(1 0 0 1 318 36)" class="st13 st47 st48">2</text>
<text transform="matrix(1 0 0 1 264 180)" class="st9 st47 st48">3</text>
</svg>
