<?xml version="1.0" encoding="UTF-8" standalone="no"?>
<!-- Generator: Adobe Illustrator 12.0.0, SVG Export Plug-In . SVG Version: 6.00 Build 51448)  -->
<svg
   xmlns:dc="http://purl.org/dc/elements/1.1/"
   xmlns:cc="http://web.resource.org/cc/"
   xmlns:rdf="http://www.w3.org/1999/02/22-rdf-syntax-ns#"
   xmlns:svg="http://www.w3.org/2000/svg"
   xmlns="http://www.w3.org/2000/svg"
   xmlns:sodipodi="http://inkscape.sourceforge.net/DTD/sodipodi-0.dtd"
   xmlns:inkscape="http://www.inkscape.org/namespaces/inkscape"
   version="1.0"
   id="Layer_1"
   width="284.46"
   height="284.46"
   viewBox="0 0 284.46 284.46"
   overflow="visible"
   enable-background="new 0 0 284.46 284.46"
   xml:space="preserve"
   sodipodi:version="0.32"
   inkscape:version="0.43"
   sodipodi:docname="Encoder Disc (3-Bit).svg"
   sodipodi:docbase="C:\Documents and Settings\Julian\My Documents\Temporary Files"><metadata
   id="metadata2068"><rdf:RDF><cc:Work
       rdf:about=""><dc:format>image/svg+xml</dc:format><dc:type
         rdf:resource="http://purl.org/dc/dcmitype/StillImage" /></cc:Work></rdf:RDF></metadata><defs
   id="defs2066" /><sodipodi:namedview
   inkscape:window-height="540"
   inkscape:window-width="756"
   inkscape:pageshadow="2"
   inkscape:pageopacity="0.0"
   borderopacity="1.0"
   bordercolor="#666666"
   pagecolor="#ffffff"
   id="base"
   inkscape:zoom="1.3112565"
   inkscape:cx="142.23"
   inkscape:cy="142.23"
   inkscape:window-x="22"
   inkscape:window-y="29"
   inkscape:current-layer="Layer_1" />
<g
   id="g2008">
	<g
   id="g2010">
		<g
   id="XMLID_1_">
			<g
   id="g2013">
				<path
   d="M242.47,41.99l-0.029,0.03L217.4,67.06c-19.23-19.23-45.811-31.13-75.17-31.13V0.5C181.4,0.5,216.83,16.35,242.47,41.99      z"
   id="path2015" />
				<path
   d="M142.23,0.5v35.43c-29.37,0-55.93,11.89-75.17,31.13L42.02,42.02l-0.03-0.03C67.63,16.35,103.06,0.5,142.23,0.5z"
   id="path2017" />
				<path
   d="M142.23,35.93v35.43c-19.59,0-37.3,7.92-50.12,20.75L67.06,67.06C86.3,47.82,112.86,35.93,142.23,35.93z"
   id="path2019" />
				<path
   d="M67.06,67.06l25.05,25.05c-12.83,12.82-20.75,30.53-20.75,50.12H35.93C35.93,112.87,47.82,86.29,67.06,67.06z"
   id="path2021" />
				<path
   d="M92.11,192.35l-25.05,25.05c-19.24-19.229-31.13-45.81-31.13-75.17h35.43C71.36,161.819,79.28,179.53,92.11,192.35z"
   id="path2023" />
				<path
   d="M142.23,213.09v35.44c-29.37,0-55.93-11.891-75.17-31.131l25.05-25.05C104.93,205.17,122.64,213.09,142.23,213.09z"
   id="path2025" />
				<path
   d="M142.23,248.53v35.43c-39.17,0-74.6-15.851-100.24-41.49l0.03-0.03l25.04-25.04      C86.3,236.64,112.86,248.53,142.23,248.53z"
   id="path2027" />
				<path
   d="M142.23,283.96v-35.43c29.36,0,55.94-11.9,75.17-31.131l25.04,25.04l0.029,0.03      C216.83,268.109,181.4,283.96,142.23,283.96z"
   id="path2029" />
				<path
   d="M177.66,142.229h35.43c0,19.59-7.92,37.301-20.74,50.12L167.3,167.3C173.7,160.899,177.66,152.05,177.66,142.229z"
   id="path2031" />
				<path
   d="M167.3,167.3l25.05,25.05c-12.819,12.82-30.529,20.74-50.12,20.74v-35.43C152.03,177.66,160.89,173.71,167.3,167.3z"
   id="path2033" />
				<path
   d="M142.23,177.66v35.43c-19.59,0-37.3-7.92-50.12-20.74l25.05-25.04C123.58,173.72,132.44,177.66,142.23,177.66z"
   id="path2035" />
				<path
   d="M117.16,167.3v0.01l-25.05,25.04c-12.83-12.819-20.75-30.53-20.75-50.12h35.43      C106.79,152.05,110.75,160.899,117.16,167.3z"
   id="path2037" />
			</g>
			<g
   id="g2039">
				<path
   fill="none"
   stroke="#000000"
   d="M142.23,283.96c-39.17,0-74.6-15.851-100.24-41.49C16.35,216.83,0.5,181.399,0.5,142.229      s15.85-74.6,41.49-100.24C67.63,16.35,103.06,0.5,142.23,0.5c39.17,0,74.6,15.85,100.24,41.49      c25.641,25.64,41.49,61.07,41.49,100.24s-15.85,74.601-41.49,100.24C216.83,268.109,181.4,283.96,142.23,283.96z"
   id="path2041" />
				<path
   fill="none"
   stroke="#000000"
   d="M248.53,142.229c0-29.35-11.891-55.93-31.13-75.17c-19.23-19.23-45.811-31.13-75.17-31.13      c-29.37,0-55.93,11.89-75.17,31.13c-19.24,19.23-31.13,45.81-31.13,75.17c0,29.36,11.89,55.94,31.13,75.17      c19.24,19.24,45.8,31.131,75.17,31.131c29.36,0,55.94-11.9,75.17-31.131C236.64,198.16,248.53,171.58,248.53,142.229z"
   id="path2043" />
				<path
   fill="none"
   stroke="#000000"
   d="M142.23,213.09c-19.59,0-37.3-7.92-50.12-20.74c-12.83-12.819-20.75-30.53-20.75-50.12      s7.92-37.3,20.75-50.12c12.82-12.83,30.53-20.75,50.12-20.75c19.59,0,37.3,7.92,50.12,20.75      c12.82,12.82,20.74,30.53,20.74,50.12s-7.92,37.301-20.74,50.12C179.53,205.17,161.82,213.09,142.23,213.09z"
   id="path2045" />
				<path
   fill="none"
   stroke="#000000"
   d="M117.16,167.31c6.42,6.41,15.28,10.351,25.07,10.351c9.8,0,18.66-3.95,25.07-10.36      c6.4-6.4,10.36-15.25,10.36-25.07c0-9.819-3.95-18.67-10.36-25.07c-6.399-6.41-15.27-10.36-25.07-10.36      c-9.8,0-18.66,3.95-25.08,10.35c-6.4,6.4-10.36,15.26-10.36,25.08c0,9.82,3.96,18.67,10.37,25.07"
   id="path2047" />
				<polyline
   fill="none"
   stroke="#000000"
   points="142.23,142.229 142.23,177.66 142.23,213.09 142.23,248.53 142.23,283.96           "
   id="polyline2049" />
				<polyline
   fill="none"
   stroke="#000000"
   points="142.23,142.229 167.3,167.3 192.35,192.35 217.4,217.399 242.44,242.439     "
   id="polyline2051" />
				<polyline
   fill="none"
   stroke="#000000"
   points="142.23,142.229 177.66,142.229 213.09,142.229 248.53,142.229 283.96,142.229           "
   id="polyline2053" />
				<polyline
   fill="none"
   stroke="#000000"
   points="142.23,142.229 167.3,117.16 192.35,92.11 217.4,67.06 242.44,42.02     "
   id="polyline2055" />
				<polyline
   fill="none"
   stroke="#000000"
   points="142.23,142.229 142.23,106.8 142.23,71.36 142.23,35.93 142.23,0.5     "
   id="polyline2057" />
				<polyline
   fill="none"
   stroke="#000000"
   points="142.23,142.229 117.15,117.15 92.11,92.11 67.06,67.06 42.02,42.02     "
   id="polyline2059" />
				<polyline
   fill="none"
   stroke="#000000"
   points="142.23,142.229 106.79,142.229 71.36,142.229 35.93,142.229 0.5,142.229     "
   id="polyline2061" />
				<polyline
   fill="none"
   stroke="#000000"
   points="142.23,142.229 117.16,167.3 117.16,167.31 92.11,192.35 67.06,217.399       42.02,242.439     "
   id="polyline2063" />
			</g>
		</g>
	</g>
</g>
</svg>