<?xml version="1.0" encoding="UTF-8" standalone="no"?>
<svg
   xmlns:xhtml="http://www.w3.org/1999/xhtml"
   xmlns:dc="http://purl.org/dc/elements/1.1/"
   xmlns:cc="http://creativecommons.org/ns#"
   xmlns:rdf="http://www.w3.org/1999/02/22-rdf-syntax-ns#"
   xmlns:svg="http://www.w3.org/2000/svg"
   xmlns="http://www.w3.org/2000/svg"
   xmlns:sodipodi="http://sodipodi.sourceforge.net/DTD/sodipodi-0.dtd"
   xmlns:inkscape="http://www.inkscape.org/namespaces/inkscape"
   width="316.91196"
   height="287.76001"
   version="1.1"
   id="svg2"
   inkscape:version="0.91 r13725"
   sodipodi:docname="lc_natural_response_intuition4.svg">
  <metadata
     id="metadata154">
    <rdf:RDF>
      <cc:Work
         rdf:about="">
        <dc:format>image/svg+xml</dc:format>
        <dc:type
           rdf:resource="http://purl.org/dc/dcmitype/StillImage" />
        <dc:title></dc:title>
      </cc:Work>
    </rdf:RDF>
  </metadata>
  <defs
     id="defs152" />
  <sodipodi:namedview
     pagecolor="#ffffff"
     bordercolor="#666666"
     borderopacity="1"
     objecttolerance="10"
     gridtolerance="10"
     guidetolerance="10"
     inkscape:pageopacity="0"
     inkscape:pageshadow="2"
     inkscape:window-width="640"
     inkscape:window-height="480"
     id="namedview150"
     showgrid="false"
     fit-margin-top="10"
     fit-margin-right="10"
     fit-margin-bottom="10"
     fit-margin-left="10"
     inkscape:zoom="1.76536"
     inkscape:cx="158.45598"
     inkscape:cy="143.88"
     inkscape:current-layer="svg2" />
  <xhtml:defs>
    <xhtml:style
       type="text/css"><![CDATA[
svg .grid { stroke-width: 0.5px; stroke: rgb(187, 187, 187); opacity: 0.5; }
svg .domain { stroke-width: 3px; stroke: black; }
svg { border: none; }
svg .path { stroke-width: 4px; stroke: rgb(255, 156, 57); fill: none; }
svg text { font-style: normal; font-variant: normal; font-weight: normal; font-stretch: normal; font-size: 16px; line-height: normal; font-family: katex_main; }
svg .tick text { font-style: normal; font-variant: normal; font-weight: normal; font-stretch: normal; font-size: 12px; line-height: normal; font-family: katex_math; }]]></xhtml:style>
  </xhtml:defs>
  <path
     class="domain"
     d="m 12.021364,156.76 0,0.5 279.911486,0 0,-0.5"
     id="path8"
     inkscape:connector-curvature="0"
     style="font-size:medium;font-family:sans-serif;text-anchor:middle;fill:none;stroke:#000000" />
  <line
     style="font-size:medium;font-family:sans-serif;text-anchor:middle;fill:none;stroke:#000000"
     x2="32.021362"
     y1="156.75999"
     x1="32.021362"
     id="line12"
     y2="162.75999" />
  <line
     style="font-size:medium;font-family:sans-serif;text-anchor:middle;fill:none"
     id="line14"
     y2="276.76001"
     x2="32.021362"
     y1="36.759998"
     x1="32.021362"
     class="grid" />
  <line
     style="font-size:medium;font-family:sans-serif;text-anchor:middle;fill:none"
     id="line20"
     y2="276.76001"
     x2="72.021362"
     y1="36.759998"
     x1="72.021362"
     class="grid" />
  <line
     style="font-size:medium;font-family:sans-serif;text-anchor:middle;fill:none;stroke:#000000"
     x2="112.02136"
     y1="156.75999"
     x1="112.02136"
     id="line24"
     y2="162.75999" />
  <line
     style="font-size:medium;font-family:sans-serif;text-anchor:middle;fill:none"
     id="line26"
     y2="276.76001"
     x2="112.02136"
     y1="36.759998"
     x1="112.02136"
     class="grid" />
  <line
     style="font-size:medium;font-family:sans-serif;text-anchor:middle;fill:none;stroke:#000000"
     x2="152.02136"
     y1="156.75999"
     x1="152.02136"
     id="line30"
     y2="162.75999" />
  <line
     style="font-size:medium;font-family:sans-serif;text-anchor:middle;fill:none"
     id="line32"
     y2="276.76001"
     x2="152.02136"
     y1="36.759998"
     x1="152.02136"
     class="grid" />
  <line
     style="font-size:medium;font-family:sans-serif;text-anchor:middle;fill:none;stroke:#000000"
     x2="192.02136"
     y1="156.75999"
     x1="192.02136"
     id="line36"
     y2="162.75999" />
  <line
     style="font-size:medium;font-family:sans-serif;text-anchor:middle;fill:none"
     id="line38"
     y2="276.76001"
     x2="192.02136"
     y1="36.759998"
     x1="192.02136"
     class="grid" />
  <line
     style="font-size:medium;font-family:sans-serif;text-anchor:middle;fill:none;stroke:#000000"
     x2="232.02136"
     y1="156.75999"
     x1="232.02136"
     id="line42"
     y2="162.75999" />
  <line
     style="font-size:medium;font-family:sans-serif;text-anchor:middle;fill:none"
     id="line44"
     y2="276.76001"
     x2="232.02136"
     y1="36.759998"
     x1="232.02136"
     class="grid" />
  <line
     style="font-size:medium;font-family:sans-serif;text-anchor:middle;fill:none;stroke:#000000"
     x2="272.02136"
     y1="156.75999"
     x1="272.02136"
     id="line48"
     y2="162.75999" />
  <line
     style="font-size:medium;font-family:sans-serif;text-anchor:middle;fill:none"
     id="line50"
     y2="276.76001"
     x2="272.02136"
     y1="36.759998"
     x1="272.02136"
     class="grid" />
  <text
     x="298.51947"
     dx="0"
     style="font-style:italic;font-variant:normal;font-weight:normal;font-stretch:normal;font-size:22.5px;line-height:125%;font-family:KaTeX_Main;-inkscape-font-specification:'KaTeX_Main, Italic';text-align:start;writing-mode:lr-tb;text-anchor:start;fill:#000000"
     id="text52"
     y="163.8466"
     sodipodi:linespacing="125%">t</text>
  <path
     class="domain"
     d="m 71.521364,277.26 0.5,0 0,-240 -0.5,0"
     id="path56"
     inkscape:connector-curvature="0"
     style="font-size:medium;font-family:sans-serif;text-anchor:end;fill:none;stroke:#000000" />
  <line
     style="font-size:medium;font-family:sans-serif;text-anchor:end;fill:none;stroke:#000000"
     y2="277.26001"
     y1="277.26001"
     x1="71.521362"
     id="line60"
     x2="65.521362" />
  <line
     style="font-size:medium;font-family:sans-serif;text-anchor:end;fill:none"
     id="line62"
     y2="277.26001"
     x2="291.43286"
     y1="277.26001"
     x1="11.521363"
     class="grid" />
  <line
     style="font-size:medium;font-family:sans-serif;text-anchor:end;fill:none;stroke:#000000"
     y2="257.26001"
     y1="257.26001"
     x1="71.521362"
     id="line66"
     x2="65.521362" />
  <line
     style="font-size:medium;font-family:sans-serif;text-anchor:end;fill:none"
     id="line68"
     y2="257.26001"
     x2="291.43286"
     y1="257.26001"
     x1="11.521363"
     class="grid" />
  <line
     style="font-size:medium;font-family:sans-serif;text-anchor:end;fill:none;stroke:#000000"
     y2="237.25999"
     y1="237.25999"
     x1="71.521362"
     id="line72"
     x2="65.521362" />
  <line
     style="font-size:medium;font-family:sans-serif;text-anchor:end;fill:none"
     id="line74"
     y2="237.25999"
     x2="291.43286"
     y1="237.25999"
     x1="11.521363"
     class="grid" />
  <line
     style="font-size:medium;font-family:sans-serif;text-anchor:end;fill:none;stroke:#000000"
     y2="217.25999"
     y1="217.25999"
     x1="71.521362"
     id="line78"
     x2="65.521362" />
  <line
     style="font-size:medium;font-family:sans-serif;text-anchor:end;fill:none"
     id="line80"
     y2="217.25999"
     x2="291.43286"
     y1="217.25999"
     x1="11.521363"
     class="grid" />
  <line
     style="font-size:medium;font-family:sans-serif;text-anchor:end;fill:none;stroke:#000000"
     y2="197.25999"
     y1="197.25999"
     x1="71.521362"
     id="line84"
     x2="65.521362" />
  <line
     style="font-size:medium;font-family:sans-serif;text-anchor:end;fill:none"
     id="line86"
     y2="197.25999"
     x2="291.43286"
     y1="197.25999"
     x1="11.521363"
     class="grid" />
  <line
     style="font-size:medium;font-family:sans-serif;text-anchor:end;fill:none;stroke:#000000"
     y2="177.25999"
     y1="177.25999"
     x1="71.521362"
     id="line90"
     x2="65.521362" />
  <line
     style="font-size:medium;font-family:sans-serif;text-anchor:end;fill:none"
     id="line92"
     y2="177.25999"
     x2="291.43286"
     y1="177.25999"
     x1="11.521363"
     class="grid" />
  <line
     style="font-size:medium;font-family:sans-serif;text-anchor:end;fill:none;stroke:#000000"
     y2="157.25999"
     y1="157.25999"
     x1="71.521362"
     id="line96"
     x2="65.521362" />
  <line
     style="font-size:medium;font-family:sans-serif;text-anchor:end;fill:none"
     id="line98"
     y2="157.25999"
     x2="291.43286"
     y1="157.25999"
     x1="11.521363"
     class="grid" />
  <line
     style="font-size:medium;font-family:sans-serif;text-anchor:end;fill:none;stroke:#000000"
     y2="137.25999"
     y1="137.25999"
     x1="71.521362"
     id="line102"
     x2="65.521362" />
  <line
     style="font-size:medium;font-family:sans-serif;text-anchor:end;fill:none"
     id="line104"
     y2="137.25999"
     x2="291.43286"
     y1="137.25999"
     x1="11.521363"
     class="grid" />
  <line
     style="font-size:medium;font-family:sans-serif;text-anchor:end;fill:none;stroke:#000000"
     y2="117.26"
     y1="117.26"
     x1="71.521362"
     id="line108"
     x2="65.521362" />
  <line
     style="font-size:medium;font-family:sans-serif;text-anchor:end;fill:none"
     id="line110"
     y2="117.26"
     x2="291.43286"
     y1="117.26"
     x1="11.521363"
     class="grid" />
  <line
     style="font-size:medium;font-family:sans-serif;text-anchor:end;fill:none;stroke:#000000"
     y2="97.260002"
     y1="97.260002"
     x1="71.521362"
     id="line114"
     x2="65.521362" />
  <line
     style="font-size:medium;font-family:sans-serif;text-anchor:end;fill:none"
     id="line116"
     y2="97.260002"
     x2="291.43286"
     y1="97.260002"
     x1="11.521363"
     class="grid" />
  <line
     style="font-size:medium;font-family:sans-serif;text-anchor:end;fill:none;stroke:#000000"
     y2="77.260002"
     y1="77.260002"
     x1="71.521362"
     id="line120"
     x2="65.521362" />
  <line
     style="font-size:medium;font-family:sans-serif;text-anchor:end;fill:none"
     id="line122"
     y2="77.260002"
     x2="291.43286"
     y1="77.260002"
     x1="11.521363"
     class="grid" />
  <line
     style="font-size:medium;font-family:sans-serif;text-anchor:end;fill:none;stroke:#000000"
     y2="57.259998"
     y1="57.259998"
     x1="71.521362"
     id="line126"
     x2="65.521362" />
  <line
     style="font-size:medium;font-family:sans-serif;text-anchor:end;fill:none"
     id="line128"
     y2="57.259998"
     x2="291.43286"
     y1="57.259998"
     x1="11.521363"
     class="grid" />
  <line
     style="font-size:medium;font-family:sans-serif;text-anchor:end;fill:none;stroke:#000000"
     y2="37.259998"
     y1="37.259998"
     x1="71.521362"
     id="line132"
     x2="65.521362" />
  <line
     style="font-size:medium;font-family:sans-serif;text-anchor:end;fill:none"
     id="line134"
     y2="37.259998"
     x2="291.43286"
     y1="37.259998"
     x1="11.521363"
     class="grid" />
  <text
     dy="-12"
     style="font-style:italic;font-variant:normal;font-weight:normal;font-stretch:normal;font-size:22.5px;line-height:125%;font-family:KaTeX_Main;-inkscape-font-specification:'KaTeX_Main, Italic';text-align:start;writing-mode:lr-tb;text-anchor:start;fill:#000000"
     id="text136"
     x="71.521362"
     y="36.759998"
     sodipodi:linespacing="125%">i,v</text>
  <path
     inkscape:connector-curvature="0"
     id="path138"
     style="fill:none;stroke:#11accd;stroke-width:3;stroke-linecap:round;stroke-miterlimit:4;stroke-dasharray:none"
     d="m 71.521364,156.76 0.31416,-1.57073 0.31416,-1.57035 0.31416,-1.56957 0.31416,-1.5684 0.31416,-1.56686 0.31416,-1.56492 0.31415,-1.5626 0.31416,-1.55989 0.31416,-1.5568 0.31416,-1.55333 0.31416,-1.54946 0.31416,-1.54522 0.31416,-1.5406 0.31416,-1.53559 0.31416,-1.53022 0.31416,-1.52445 0.31416,-1.51832 0.31416,-1.5118 0.31416,-1.50492 0.31415,-1.49767 0.31416,-1.49004 0.31416,-1.48205 0.31416,-1.47369 0.31416,-1.46497 0.31416,-1.45589 0.31416,-1.44645 0.31416,-1.43665 0.31416,-1.42649 0.31416,-1.41599 0.31416,-1.40513 0.31416,-1.39393 0.31416,-1.38239 0.31416,-1.3705 0.31416,-1.35827 0.31415,-1.34572 0.31416,-1.33282 0.31416,-1.3196 0.31416,-1.30606 0.31416,-1.29218 0.31416,-1.27801 0.31416,-1.263493 0.31416,-1.248682 0.31416,-1.233561 0.31416,-1.218133 0.31416,-1.202406 0.31416,-1.186382 0.31416,-1.170064 0.31416,-1.15346 0.31415,-1.136569 0.31416,-1.119398 0.31416,-1.101952 0.31416,-1.084233 0.31416,-1.066246 0.31416,-1.047998 0.31416,-1.02949 0.31416,-1.010727 0.31416,-0.991717 0.31416,-0.97246 0.31416,-0.952965 0.31416,-0.933233 0.31416,-0.913273 0.31415,-0.893085 0.31416,-0.872679 0.31416,-0.852057 0.31416,-0.831223 0.31416,-0.810187 0.31416,-0.788948 0.31416,-0.767517 0.31416,-0.745895 0.31416,-0.724089 0.31416,-0.702106 0.31416,-0.679947 0.31416,-0.657623 0.31416,-0.635135 0.31416,-0.61249 0.31415,-0.589696 0.31416,-0.566754 0.31416,-0.543674 0.31416,-0.520459 0.31416,-0.497116 0.31416,-0.473649 0.31416,-0.450068 0.31416,-0.426373 0.31416,-0.402574 0.31416,-0.378676 0.31416,-0.354684 0.31416,-0.330605 0.31416,-0.306444 0.31416,-0.282208 0.31415,-0.257901 0.314156,-0.233532 0.31416,-0.209104 0.31416,-0.184626 0.31416,-0.1601 0.31416,-0.135537 0.31416,-0.11094 0.31416,-0.08631 0.31416,-0.06167 0.31416,-0.03701 0.31416,-0.01234 0.31416,0.01234 0.31416,0.03701 0.31415,0.06167 0.31416,0.08631 0.31416,0.11094 0.31416,0.135537 0.31416,0.1601 0.31416,0.184626 0.31416,0.209104 0.31416,0.233532 0.31416,0.257901 0.31416,0.282208 0.31416,0.306444 0.31416,0.330605 0.31416,0.354684 0.31416,0.378676 0.31415,0.402574 0.31416,0.426373 0.31416,0.450068 0.31416,0.473649 0.31416,0.497116 0.31416,0.520459 0.31416,0.543674 0.31416,0.566754 0.31416,0.589696 0.31416,0.61249 0.31416,0.635135 0.31416,0.657623 0.31416,0.679947 0.31415,0.702106 0.31416,0.724089 0.31416,0.745895 0.31416,0.767517 0.31416,0.788948 0.31416,0.810187 0.31416,0.831223 0.31416,0.852057 0.31416,0.872679 0.31416,0.893085 0.31416,0.913273 0.31416,0.933233 0.31416,0.952965 0.31415,0.97246 0.31416,0.991717 0.31416,1.010727 0.31416,1.02949 0.31416,1.047998 0.31416,1.066246 0.31416,1.084233 0.31416,1.101952 0.31416,1.119398 0.31416,1.136569 0.31416,1.15346 0.31416,1.170064 0.31416,1.186382 0.31416,1.202406 0.31415,1.218133 0.31416,1.233561 0.31416,1.248682 0.31416,1.263493 0.31416,1.278 0.31416,1.29219 0.31416,1.30606 0.31416,1.3196 0.31416,1.33282 0.31416,1.34572 0.31416,1.35827 0.31416,1.3705 0.31416,1.38239 0.31416,1.39393 0.31415,1.40513 0.31416,1.41599 0.31416,1.42649 0.31416,1.43665 0.31416,1.44645 0.31416,1.45589 0.31416,1.46497 0.31416,1.47369 0.31416,1.48205 0.31416,1.49004 0.31416,1.49767 0.31416,1.50492 0.31416,1.5118 0.31415,1.51832 0.31416,1.52445 0.31416,1.53022 0.31416,1.53559 0.31416,1.5406 0.31416,1.54522 0.31416,1.54946 0.31416,1.55333 0.31416,1.5568 0.31416,1.55989 0.31416,1.5626 0.31416,1.56492 0.31416,1.56686 0.31416,1.5684 0.31415,1.56957 0.31416,1.57035 0.31416,1.57073"
     class="path" />
  <path
     inkscape:connector-curvature="0"
     id="path140"
     style="stroke:#11accd;stroke-width:3;stroke-linecap:round;stroke-miterlimit:4;stroke-dasharray:none"
     d="m 11.521364,156.76 60,0"
     class="path" />
  <path
     inkscape:connector-curvature="0"
     id="path142"
     style="fill:none;stroke:#ff9955;stroke-width:3;stroke-linecap:round;stroke-miterlimit:4;stroke-dasharray:none"
     d="m 71.521364,56.76 0.31416,0.01234 0.31416,0.03701 0.31416,0.06167 0.31416,0.08631 0.31416,0.11094 0.31416,0.135537 0.31415,0.1601 0.31416,0.184626 0.31416,0.209104 0.31416,0.233532 0.31416,0.257901 0.31416,0.282208 0.31416,0.306444 0.31416,0.330605 0.31416,0.354684 0.31416,0.378676 0.31416,0.402574 0.31416,0.426373 0.31416,0.450068 0.31415,0.473649 0.31416,0.497116 0.31416,0.520459 0.31416,0.543674 0.31416,0.566754 0.31416,0.589696 0.31416,0.61249 0.31416,0.635135 0.31416,0.657623 0.31416,0.679947 0.31416,0.702106 0.31416,0.724089 0.31416,0.745895 0.31416,0.767517 0.31416,0.788948 0.31415,0.810187 0.31416,0.831223 0.31416,0.852057 0.31416,0.872679 0.31416,0.893085 0.31416,0.913273 0.31416,0.933233 0.31416,0.952965 0.31416,0.97246 0.31416,0.991717 0.31416,1.010727 0.31416,1.02949 0.31416,1.047998 0.31416,1.066246 0.31415,1.084233 0.31416,1.101952 0.31416,1.119398 0.31416,1.136569 0.31416,1.15346 0.31416,1.170064 0.31416,1.186382 0.31416,1.202406 0.31416,1.218133 0.31416,1.233561 0.31416,1.248682 0.31416,1.2635 0.31416,1.278 0.31415,1.29218 0.31416,1.30606 0.31416,1.3196 0.31416,1.33283 0.31416,1.34571 0.31416,1.35828 0.31416,1.3705 0.31416,1.38238 0.31416,1.39393 0.31416,1.40514 0.31416,1.41598 0.31416,1.4265 0.31416,1.43664 0.31416,1.44645 0.31415,1.45589 0.31416,1.46497 0.31416,1.47369 0.31416,1.48205 0.31416,1.49004 0.31416,1.49767 0.31416,1.50492 0.31416,1.51181 0.31416,1.51831 0.31416,1.52446 0.31416,1.53021 0.31416,1.53559 0.31416,1.5406 0.31416,1.54522 0.31415,1.54946 0.314156,1.55333 0.31416,1.5568 0.31416,1.55989 0.31416,1.5626 0.31416,1.56492 0.31416,1.56686 0.31416,1.5684 0.31416,1.56957 0.31416,1.57035 0.31416,1.57073 0.31416,1.57073 0.31416,1.57035 0.31415,1.56957 0.31416,1.5684 0.31416,1.56686 0.31416,1.56492 0.31416,1.5626 0.31416,1.55989 0.31416,1.5568 0.31416,1.55333 0.31416,1.54946 0.31416,1.54522 0.31416,1.5406 0.31416,1.53559 0.31416,1.53022 0.31416,1.52445 0.31415,1.51831 0.31416,1.51181 0.31416,1.50492 0.31416,1.49767 0.31416,1.49004 0.31416,1.48205 0.31416,1.47369 0.31416,1.46498 0.31416,1.45588 0.31416,1.44645 0.31416,1.43665 0.31416,1.42649 0.31416,1.41599 0.31415,1.40513 0.31416,1.39393 0.31416,1.38239 0.31416,1.3705 0.31416,1.35827 0.31416,1.34572 0.31416,1.33282 0.31416,1.3196 0.31416,1.30606 0.31416,1.29219 0.31416,1.278 0.31416,1.26349 0.31416,1.24869 0.31415,1.23356 0.31416,1.21813 0.31416,1.2024 0.31416,1.18639 0.31416,1.17006 0.31416,1.15346 0.31416,1.13657 0.31416,1.1194 0.31416,1.10195 0.31416,1.08423 0.31416,1.06625 0.31416,1.048 0.31416,1.02949 0.31416,1.01072 0.31415,0.99172 0.31416,0.97246 0.31416,0.95297 0.31416,0.93323 0.31416,0.91327 0.31416,0.89309 0.31416,0.87268 0.31416,0.85205 0.31416,0.83123 0.31416,0.81018 0.31416,0.78895 0.31416,0.76752 0.31416,0.74589 0.31416,0.72409 0.31415,0.70211 0.31416,0.67995 0.31416,0.65762 0.31416,0.63513 0.31416,0.61249 0.31416,0.5897 0.31416,0.56675 0.31416,0.54368 0.31416,0.52046 0.31416,0.49711 0.31416,0.47365 0.31416,0.45007 0.31416,0.42637 0.31415,0.40258 0.31416,0.37867 0.31416,0.35469 0.31416,0.3306 0.31416,0.30645 0.31416,0.2822 0.31416,0.2579 0.31416,0.23354 0.31416,0.2091 0.31416,0.18463 0.31416,0.1601 0.31416,0.13553 0.31416,0.11094 0.31416,0.0863 0.31415,0.0617 0.31416,0.037 0.31416,0.0123"
     class="path" />
  <path
     inkscape:connector-curvature="0"
     id="path144"
     d="m 11.521364,56.76 60,0"
     class="path"
     style="stroke:#ff9955;stroke-width:3;stroke-linecap:round;stroke-miterlimit:4;stroke-dasharray:none" />
  <text
     id="text146"
     style="font-style:italic;font-variant:normal;font-weight:normal;font-stretch:normal;font-size:22.5px;line-height:125%;font-family:KaTeX_Main;-inkscape-font-specification:'KaTeX_Main, Italic';text-align:start;writing-mode:lr-tb;text-anchor:start;fill:#000000"
     dy="-6"
     y="53.21669"
     x="8.5213633"
     sodipodi:linespacing="125%">v(t)</text>
  <text
     id="text148"
     style="font-style:italic;font-variant:normal;font-weight:normal;font-stretch:normal;font-size:22.5px;line-height:125%;font-family:KaTeX_Main;-inkscape-font-specification:'KaTeX_Main, Italic';text-align:start;writing-mode:lr-tb;text-anchor:start;fill:#000000"
     dy="-6"
     y="153.21669"
     x="8.5213633"
     sodipodi:linespacing="125%">i(t)</text>
</svg>
