<?xml version="1.0" encoding="UTF-8" standalone="no"?>
<svg
   xmlns:xhtml="http://www.w3.org/1999/xhtml"
   xmlns:dc="http://purl.org/dc/elements/1.1/"
   xmlns:cc="http://creativecommons.org/ns#"
   xmlns:rdf="http://www.w3.org/1999/02/22-rdf-syntax-ns#"
   xmlns:svg="http://www.w3.org/2000/svg"
   xmlns="http://www.w3.org/2000/svg"
   xmlns:sodipodi="http://sodipodi.sourceforge.net/DTD/sodipodi-0.dtd"
   xmlns:inkscape="http://www.inkscape.org/namespaces/inkscape"
   width="313.15979"
   height="287.76001"
   version="1.1"
   id="svg2"
   inkscape:version="0.91 r13725"
   sodipodi:docname="lc_natural_response_intuition2.svg">
  <metadata
     id="metadata154">
    <rdf:RDF>
      <cc:Work
         rdf:about="">
        <dc:format>image/svg+xml</dc:format>
        <dc:type
           rdf:resource="http://purl.org/dc/dcmitype/StillImage" />
        <dc:title></dc:title>
      </cc:Work>
    </rdf:RDF>
  </metadata>
  <defs
     id="defs152" />
  <sodipodi:namedview
     pagecolor="#ffffff"
     bordercolor="#666666"
     borderopacity="1"
     objecttolerance="10"
     gridtolerance="10"
     guidetolerance="10"
     inkscape:pageopacity="0"
     inkscape:pageshadow="2"
     inkscape:window-width="640"
     inkscape:window-height="480"
     id="namedview150"
     showgrid="false"
     fit-margin-top="10"
     fit-margin-right="10"
     fit-margin-bottom="10"
     fit-margin-left="10"
     inkscape:zoom="1.76536"
     inkscape:cx="156.5799"
     inkscape:cy="143.88"
     inkscape:current-layer="svg2" />
  <xhtml:defs>
    <xhtml:style
       type="text/css"><![CDATA[
svg .grid { stroke-width: 0.5px; stroke: rgb(187, 187, 187); opacity: 0.5; }
svg .domain { stroke-width: 3px; stroke: black; }
svg { border: none; }
svg .path { stroke-width: 4px; stroke: rgb(255, 156, 57); fill: none; }
svg text { font-style: normal; font-variant: normal; font-weight: normal; font-stretch: normal; font-size: 16px; line-height: normal; font-family: katex_main; }
svg .tick text { font-style: normal; font-variant: normal; font-weight: normal; font-stretch: normal; font-size: 12px; line-height: normal; font-family: katex_math; }]]></xhtml:style>
  </xhtml:defs>
  <path
     class="domain"
     d="m 11.812499,156.76 0,0.5 279.911491,0 0,-0.5"
     id="path8"
     inkscape:connector-curvature="0"
     style="font-size:medium;font-family:sans-serif;text-anchor:middle;fill:none;stroke:#000000" />
  <line
     style="font-size:medium;font-family:sans-serif;text-anchor:middle;fill:none;stroke:#000000"
     x2="31.8125"
     y1="156.76001"
     x1="31.8125"
     id="line12"
     y2="162.76001" />
  <line
     style="font-size:medium;font-family:sans-serif;text-anchor:middle;fill:none"
     id="line14"
     y2="276.76001"
     x2="31.8125"
     y1="36.759998"
     x1="31.8125"
     class="grid" />
  <line
     style="font-size:medium;font-family:sans-serif;text-anchor:middle;fill:none;stroke:#000000"
     x2="71.8125"
     y1="156.76001"
     x1="71.8125"
     id="line18"
     y2="162.76001" />
  <line
     style="font-size:medium;font-family:sans-serif;text-anchor:middle;fill:none"
     id="line20"
     y2="276.76001"
     x2="71.8125"
     y1="36.759998"
     x1="71.8125"
     class="grid" />
  <line
     style="font-size:medium;font-family:sans-serif;text-anchor:middle;fill:none;stroke:#000000"
     x2="111.8125"
     y1="156.76001"
     x1="111.8125"
     id="line24"
     y2="162.76001" />
  <line
     style="font-size:medium;font-family:sans-serif;text-anchor:middle;fill:none"
     id="line26"
     y2="276.76001"
     x2="111.8125"
     y1="36.759998"
     x1="111.8125"
     class="grid" />
  <line
     style="font-size:medium;font-family:sans-serif;text-anchor:middle;fill:none;stroke:#000000"
     x2="151.8125"
     y1="156.76001"
     x1="151.8125"
     id="line30"
     y2="162.76001" />
  <line
     style="font-size:medium;font-family:sans-serif;text-anchor:middle;fill:none"
     id="line32"
     y2="276.76001"
     x2="151.8125"
     y1="36.759998"
     x1="151.8125"
     class="grid" />
  <line
     style="font-size:medium;font-family:sans-serif;text-anchor:middle;fill:none;stroke:#000000"
     x2="191.8125"
     y1="156.76001"
     x1="191.8125"
     id="line36"
     y2="162.76001" />
  <line
     style="font-size:medium;font-family:sans-serif;text-anchor:middle;fill:none"
     id="line38"
     y2="276.76001"
     x2="191.8125"
     y1="36.759998"
     x1="191.8125"
     class="grid" />
  <line
     style="font-size:medium;font-family:sans-serif;text-anchor:middle;fill:none;stroke:#000000"
     x2="231.8125"
     y1="156.76001"
     x1="231.8125"
     id="line42"
     y2="162.76001" />
  <line
     style="font-size:medium;font-family:sans-serif;text-anchor:middle;fill:none"
     id="line44"
     y2="276.76001"
     x2="231.8125"
     y1="36.759998"
     x1="231.8125"
     class="grid" />
  <line
     style="font-size:medium;font-family:sans-serif;text-anchor:middle;fill:none;stroke:#000000"
     x2="271.8125"
     y1="156.76001"
     x1="271.8125"
     id="line48"
     y2="162.76001" />
  <line
     style="font-size:medium;font-family:sans-serif;text-anchor:middle;fill:none"
     id="line50"
     y2="276.76001"
     x2="271.8125"
     y1="36.759998"
     x1="271.8125"
     class="grid" />
  <text
     x="294.7673"
     dx="0"
     style="font-style:italic;font-variant:normal;font-weight:normal;font-stretch:normal;font-size:22.5px;line-height:125%;font-family:KaTeX_Main;-inkscape-font-specification:'KaTeX_Main, Italic';text-align:start;writing-mode:lr-tb;text-anchor:start;fill:#000000"
     id="text52"
     y="156.76001"
     sodipodi:linespacing="125%">t</text>
  <path
     class="domain"
     d="m 71.312499,277.26 0.5,0 0,-240 -0.5,0"
     id="path56"
     inkscape:connector-curvature="0"
     style="font-size:medium;font-family:sans-serif;text-anchor:end;fill:none;stroke:#000000" />
  <line
     style="font-size:medium;font-family:sans-serif;text-anchor:end;fill:none;stroke:#000000"
     y2="277.26001"
     y1="277.26001"
     x1="71.3125"
     id="line60"
     x2="65.3125" />
  <line
     style="font-size:medium;font-family:sans-serif;text-anchor:end;fill:none"
     id="line62"
     y2="277.26001"
     x2="291.224"
     y1="277.26001"
     x1="11.3125"
     class="grid" />
  <line
     style="font-size:medium;font-family:sans-serif;text-anchor:end;fill:none;stroke:#000000"
     y2="257.26001"
     y1="257.26001"
     x1="71.3125"
     id="line66"
     x2="65.3125" />
  <line
     style="font-size:medium;font-family:sans-serif;text-anchor:end;fill:none"
     id="line68"
     y2="257.26001"
     x2="291.224"
     y1="257.26001"
     x1="11.3125"
     class="grid" />
  <line
     style="font-size:medium;font-family:sans-serif;text-anchor:end;fill:none;stroke:#000000"
     y2="237.26001"
     y1="237.26001"
     x1="71.3125"
     id="line72"
     x2="65.3125" />
  <line
     style="font-size:medium;font-family:sans-serif;text-anchor:end;fill:none"
     id="line74"
     y2="237.26001"
     x2="291.224"
     y1="237.26001"
     x1="11.3125"
     class="grid" />
  <line
     style="font-size:medium;font-family:sans-serif;text-anchor:end;fill:none;stroke:#000000"
     y2="217.26001"
     y1="217.26001"
     x1="71.3125"
     id="line78"
     x2="65.3125" />
  <line
     style="font-size:medium;font-family:sans-serif;text-anchor:end;fill:none"
     id="line80"
     y2="217.26001"
     x2="291.224"
     y1="217.26001"
     x1="11.3125"
     class="grid" />
  <line
     style="font-size:medium;font-family:sans-serif;text-anchor:end;fill:none;stroke:#000000"
     y2="197.26001"
     y1="197.26001"
     x1="71.3125"
     id="line84"
     x2="65.3125" />
  <line
     style="font-size:medium;font-family:sans-serif;text-anchor:end;fill:none"
     id="line86"
     y2="197.26001"
     x2="291.224"
     y1="197.26001"
     x1="11.3125"
     class="grid" />
  <line
     style="font-size:medium;font-family:sans-serif;text-anchor:end;fill:none;stroke:#000000"
     y2="177.26001"
     y1="177.26001"
     x1="71.3125"
     id="line90"
     x2="65.3125" />
  <line
     style="font-size:medium;font-family:sans-serif;text-anchor:end;fill:none"
     id="line92"
     y2="177.26001"
     x2="291.224"
     y1="177.26001"
     x1="11.3125"
     class="grid" />
  <line
     style="font-size:medium;font-family:sans-serif;text-anchor:end;fill:none;stroke:#000000"
     y2="157.26001"
     y1="157.26001"
     x1="71.3125"
     id="line96"
     x2="65.3125" />
  <line
     style="font-size:medium;font-family:sans-serif;text-anchor:end;fill:none"
     id="line98"
     y2="157.26001"
     x2="291.224"
     y1="157.26001"
     x1="11.3125"
     class="grid" />
  <line
     style="font-size:medium;font-family:sans-serif;text-anchor:end;fill:none;stroke:#000000"
     y2="137.26001"
     y1="137.26001"
     x1="71.3125"
     id="line102"
     x2="65.3125" />
  <line
     style="font-size:medium;font-family:sans-serif;text-anchor:end;fill:none"
     id="line104"
     y2="137.26001"
     x2="291.224"
     y1="137.26001"
     x1="11.3125"
     class="grid" />
  <line
     style="font-size:medium;font-family:sans-serif;text-anchor:end;fill:none;stroke:#000000"
     y2="117.26"
     y1="117.26"
     x1="71.3125"
     id="line108"
     x2="65.3125" />
  <line
     style="font-size:medium;font-family:sans-serif;text-anchor:end;fill:none"
     id="line110"
     y2="117.26"
     x2="291.224"
     y1="117.26"
     x1="11.3125"
     class="grid" />
  <line
     style="font-size:medium;font-family:sans-serif;text-anchor:end;fill:none;stroke:#000000"
     y2="97.260002"
     y1="97.260002"
     x1="71.3125"
     id="line114"
     x2="65.3125" />
  <line
     style="font-size:medium;font-family:sans-serif;text-anchor:end;fill:none"
     id="line116"
     y2="97.260002"
     x2="291.224"
     y1="97.260002"
     x1="11.3125"
     class="grid" />
  <line
     style="font-size:medium;font-family:sans-serif;text-anchor:end;fill:none;stroke:#000000"
     y2="77.260002"
     y1="77.260002"
     x1="71.3125"
     id="line120"
     x2="65.3125" />
  <line
     style="font-size:medium;font-family:sans-serif;text-anchor:end;fill:none"
     id="line122"
     y2="77.260002"
     x2="291.224"
     y1="77.260002"
     x1="11.3125"
     class="grid" />
  <line
     style="font-size:medium;font-family:sans-serif;text-anchor:end;fill:none;stroke:#000000"
     y2="57.259998"
     y1="57.259998"
     x1="71.3125"
     id="line126"
     x2="65.3125" />
  <line
     style="font-size:medium;font-family:sans-serif;text-anchor:end;fill:none"
     id="line128"
     y2="57.259998"
     x2="291.224"
     y1="57.259998"
     x1="11.3125"
     class="grid" />
  <line
     style="font-size:medium;font-family:sans-serif;text-anchor:end;fill:none;stroke:#000000"
     y2="37.259998"
     y1="37.259998"
     x1="71.3125"
     id="line132"
     x2="65.3125" />
  <line
     style="font-size:medium;font-family:sans-serif;text-anchor:end;fill:none"
     id="line134"
     y2="37.259998"
     x2="291.224"
     y1="37.259998"
     x1="11.3125"
     class="grid" />
  <text
     dy="-12"
     style="font-style:italic;font-variant:normal;font-weight:normal;font-stretch:normal;font-size:22.5px;line-height:125%;font-family:KaTeX_Main;-inkscape-font-specification:'KaTeX_Main, Italic';text-align:start;writing-mode:lr-tb;text-anchor:start;fill:#000000"
     id="text136"
     x="71.3125"
     y="36.759998"
     sodipodi:linespacing="125%">i,v</text>
  <path
     inkscape:connector-curvature="0"
     id="path138"
     style="opacity:1;fill:none;stroke:#11accd;stroke-width:3;stroke-miterlimit:4;stroke-dasharray:none;stroke-opacity:1;stroke-linecap:round"
     d="m 71.312499,156.76 0.15708,-0.78539 0.15708,-0.78534 0.15708,-0.78525 0.15708,-0.7851 0.15708,-0.7849 0.15708,-0.78467 0.15708,-0.78437 0.15708,-0.78403 0.15708,-0.78365 0.15708,-0.78321 0.15708,-0.78273 0.15708,-0.78219 0.15708,-0.78162 0.15708,-0.78098 0.15707,-0.78031 0.15708,-0.77958 0.15708,-0.77881 0.15708,-0.77799 0.15708,-0.77712 0.15708,-0.77621 0.15708,-0.77523 0.15708,-0.77423 0.15708,-0.77316 0.15708,-0.77206 0.15708,-0.7709 0.15708,-0.7697 0.15708,-0.76845 0.15708,-0.76714 0.15708,-0.76581 0.15708,-0.76441 0.15708,-0.76297 0.15708,-0.76148 0.15708,-0.75995 0.15708,-0.75837 0.15708,-0.75674 0.15708,-0.75506 0.15708,-0.75334 0.15708,-0.75158 0.15708,-0.74977 0.15707,-0.7479 0.15708,-0.746 0.15708,-0.74404 0.15708,-0.74205 0.15708,-0.74 0.15708,-0.73792 0.15708,-0.73577 0.15708,-0.7336 0.15708,-0.73137 0.15708,-0.72911 0.15708,-0.72678 0.15708,-0.72443 0.15708,-0.72202 0.15708,-0.71957 0.15708,-0.71708 0.15708,-0.71453 0.15708,-0.71196 0.15708,-0.70933 0.15708,-0.70666 0.15708,-0.70394 0.15708,-0.70119 0.15708,-0.69839 0.15708,-0.69554 0.15708,-0.69266 0.15708,-0.68973 0.15708,-0.68675 0.15708,-0.68375 0.15707,-0.68068 0.15708,-0.67759 0.15708,-0.67445 0.15708,-0.67127 0.15708,-0.66804 0.15708,-0.66478 0.15708,-0.66147 0.15708,-0.65813 0.15708,-0.65474 0.15708,-0.65132 0.15708,-0.647839 0.15708,-0.64434 0.15708,-0.6408 0.15708,-0.6372 0.15708,-0.63359 0.15708,-0.629913 0.15708,-0.626212 0.15708,-0.62247 0.15708,-0.61869 0.15708,-0.614871 0.15708,-0.611014 0.15708,-0.607119 0.15708,-0.603187 0.15708,-0.599219 0.15708,-0.595212 0.15708,-0.59117 0.15708,-0.58709 0.15707,-0.582974 0.15708,-0.578824 0.15708,-0.574636 0.15708,-0.570413 0.15708,-0.566156 0.15708,-0.561863 0.15708,-0.557535 0.15708,-0.553174 0.15708,-0.548778 0.15708,-0.544348 0.15708,-0.539885 0.15708,-0.535388 0.15708,-0.530858 0.15708,-0.526297 0.15708,-0.521701 0.15708,-0.517074 0.15708,-0.512416 0.15708,-0.507724 0.15708,-0.503003 0.15708,-0.49825 0.15708,-0.493467 0.15708,-0.488652 0.15708,-0.483808 0.15708,-0.478934 0.15708,-0.474031 0.15708,-0.469098 0.15708,-0.464135 0.15708,-0.459146 0.15707,-0.454127 0.15708,-0.44908 0.15708,-0.444005 0.15708,-0.438904 0.15708,-0.433775 0.15708,-0.428619 0.15708,-0.423438 0.15708,-0.418228 0.15708,-0.412995 0.15708,-0.407736 0.15708,-0.402451 0.15708,-0.397141 0.15708,-0.391807 0.15708,-0.38645 0.15708,-0.381067 0.15708,-0.375662 0.15708,-0.370233 0.15708,-0.364782 0.15708,-0.359307 0.15708,-0.353812 0.15708,-0.348294 0.15708,-0.342754 0.15708,-0.337193 0.15708,-0.331612 0.15708,-0.326011 0.15708,-0.320388 0.15708,-0.314747 0.15707,-0.309085 0.15708,-0.303405 0.15708,-0.297707 0.15708,-0.291989 0.15708,-0.286253 0.15708,-0.280501 0.15708,-0.274731 0.15708,-0.268943 0.15708,-0.263139 0.15708,-0.25732 0.15708,-0.251483 0.15708,-0.245633 0.15708,-0.239765 0.15708,-0.233884 0.15708,-0.227989 0.15708,-0.222079 0.15708,-0.216155 0.15708,-0.210218 0.15708,-0.204268 0.15708,-0.198306 0.15708,-0.192331 0.15708,-0.186345 0.15708,-0.180347 0.15708,-0.174337 0.15708,-0.168318 0.15708,-0.162287 0.15708,-0.156247 0.15707,-0.150197 0.15708,-0.144138 0.15708,-0.13807 0.15708,-0.131993 0.15708,-0.125908 0.15708,-0.119816 0.15708,-0.113716 0.157081,-0.107609 0.15708,-0.101495 0.15708,-0.09538 0.15708,-0.08925 0.15708,-0.08312 0.15708,-0.07698 0.15708,-0.07084 0.15708,-0.0647 0.15708,-0.05855 0.15708,-0.05239 0.15708,-0.04624 0.15708,-0.04008 0.15708,-0.03392 0.15708,-0.02775 0.15708,-0.02159 0.15708,-0.01542 0.15708,-0.0093 0.15708,-0.003"
     class="path" />
  <path
     inkscape:connector-curvature="0"
     id="path140"
     style="stroke:#11accd;stroke-width:3;stroke-miterlimit:4;stroke-dasharray:none"
     d="m 11.312499,156.76 60,0"
     class="path" />
  <path
     inkscape:connector-curvature="0"
     id="path142"
     style="fill:none;stroke:#ff9955;stroke-width:3;stroke-miterlimit:4;stroke-dasharray:none;stroke-linecap:round"
     d="m 71.312499,56.760001 0.15708,0.0031 0.15708,0.0093 0.15708,0.01542 0.15708,0.02159 0.15708,0.02775 0.15708,0.03392 0.15708,0.04008 0.15708,0.04624 0.15708,0.05239 0.15708,0.05855 0.15708,0.0647 0.15708,0.07084 0.15708,0.07698 0.15708,0.08312 0.15707,0.08925 0.15708,0.09538 0.15708,0.101495 0.15708,0.107609 0.15708,0.113716 0.15708,0.119816 0.15708,0.125908 0.15708,0.131993 0.15708,0.13807 0.15708,0.144138 0.15708,0.150197 0.15708,0.156247 0.15708,0.162287 0.15708,0.168318 0.15708,0.174337 0.15708,0.180347 0.15708,0.186345 0.15708,0.192331 0.15708,0.198306 0.15708,0.204268 0.15708,0.210218 0.15708,0.216155 0.15708,0.222079 0.15708,0.227989 0.15708,0.233884 0.15707,0.239765 0.15708,0.245633 0.15708,0.251483 0.15708,0.25732 0.15708,0.263139 0.15708,0.268943 0.15708,0.274731 0.15708,0.280501 0.15708,0.286253 0.15708,0.291989 0.15708,0.297707 0.15708,0.303405 0.15708,0.309085 0.15708,0.314747 0.15708,0.320388 0.15708,0.326011 0.15708,0.331612 0.15708,0.337193 0.15708,0.342754 0.15708,0.348294 0.15708,0.353812 0.15708,0.359307 0.15708,0.364782 0.15708,0.370233 0.15708,0.375662 0.15708,0.381067 0.15708,0.38645 0.15707,0.391807 0.15708,0.397141 0.15708,0.402451 0.15708,0.407736 0.15708,0.412995 0.15708,0.418228 0.15708,0.423438 0.15708,0.428619 0.15708,0.433775 0.15708,0.438904 0.15708,0.444005 0.15708,0.44908 0.15708,0.454127 0.15708,0.459146 0.15708,0.464135 0.15708,0.469098 0.15708,0.474031 0.15708,0.478934 0.15708,0.483808 0.15708,0.488652 0.15708,0.493467 0.15708,0.49825 0.15708,0.503003 0.15708,0.507724 0.15708,0.512416 0.15708,0.517074 0.15708,0.521701 0.15707,0.526297 0.15708,0.530858 0.15708,0.535388 0.15708,0.539885 0.15708,0.544348 0.15708,0.548778 0.15708,0.553174 0.15708,0.557535 0.15708,0.561863 0.15708,0.566156 0.15708,0.570413 0.15708,0.574636 0.15708,0.578824 0.15708,0.582974 0.15708,0.58709 0.15708,0.59117 0.15708,0.595212 0.15708,0.599219 0.15708,0.603187 0.15708,0.607119 0.15708,0.611014 0.15708,0.614871 0.15708,0.61869 0.15708,0.62247 0.15708,0.626212 0.15708,0.629913 0.15708,0.63358 0.15708,0.63721 0.15707,0.64079 0.15708,0.64434 0.15708,0.647849 0.15708,0.65132 0.15708,0.65474 0.15708,0.65813 0.15708,0.66147 0.15708,0.66478 0.15708,0.66804 0.15708,0.67127 0.15708,0.67445 0.15708,0.67759 0.15708,0.68068 0.15708,0.68375 0.15708,0.68675 0.15708,0.68973 0.15708,0.69266 0.15708,0.69554 0.15708,0.69839 0.15708,0.70119 0.15708,0.70394 0.15708,0.70666 0.15708,0.70933 0.15708,0.71196 0.15708,0.71453 0.15708,0.71708 0.15708,0.71957 0.15707,0.72202 0.15708,0.72443 0.15708,0.72678 0.15708,0.7291 0.15708,0.73138 0.15708,0.7336 0.15708,0.73577 0.15708,0.73792 0.15708,0.74 0.15708,0.74205 0.15708,0.74404 0.15708,0.746 0.15708,0.7479 0.15708,0.74977 0.15708,0.75157 0.15708,0.75335 0.15708,0.75506 0.15708,0.75674 0.15708,0.75837 0.15708,0.75995 0.15708,0.76148 0.15708,0.76297 0.15708,0.76441 0.15708,0.76581 0.15708,0.76714 0.15708,0.76845 0.15708,0.7697 0.15707,0.7709 0.15708,0.77206 0.15708,0.77316 0.15708,0.77423 0.15708,0.77523 0.15708,0.77621 0.15708,0.77712 0.157081,0.77799 0.15708,0.77881 0.15708,0.77958 0.15708,0.78031 0.15708,0.78098 0.15708,0.78162 0.15708,0.78219 0.15708,0.78273 0.15708,0.78321 0.15708,0.78365 0.15708,0.78403 0.15708,0.78437 0.15708,0.78467 0.15708,0.7849 0.15708,0.7851 0.15708,0.78525 0.15708,0.78534 0.15708,0.78539"
     class="path" />
  <path
     inkscape:connector-curvature="0"
     id="path144"
     d="m 11.312499,56.760001 60,0"
     class="path"
     style="fill:none;stroke:#ff9955;stroke-width:3;stroke-miterlimit:4;stroke-dasharray:none" />
  <text
     id="text146"
     style="font-style:italic;font-variant:normal;font-weight:normal;font-stretch:normal;font-size:22.5px;line-height:125%;font-family:KaTeX_Main;-inkscape-font-specification:'KaTeX_Main, Italic';text-align:start;writing-mode:lr-tb;text-anchor:start;fill:#000000"
     dy="-6"
     y="56.759998"
     x="8.3125"
     sodipodi:linespacing="125%">v(t)</text>
  <text
     id="text148"
     style="font-style:italic;font-variant:normal;font-weight:normal;font-stretch:normal;font-size:22.5px;line-height:125%;font-family:KaTeX_Main;-inkscape-font-specification:'KaTeX_Main, Italic';text-align:start;writing-mode:lr-tb;text-anchor:start;fill:#000000"
     dy="-6"
     y="156.76001"
     x="8.3125"
     sodipodi:linespacing="125%">i(t)</text>
</svg>
