<?xml version="1.0" encoding="UTF-8" standalone="no"?>
<!-- Generator: Adobe Illustrator 19.1.0, SVG Export Plug-In . SVG Version: 6.00 Build 0)  -->

<svg
   xmlns:dc="http://purl.org/dc/elements/1.1/"
   xmlns:cc="http://creativecommons.org/ns#"
   xmlns:rdf="http://www.w3.org/1999/02/22-rdf-syntax-ns#"
   xmlns:svg="http://www.w3.org/2000/svg"
   xmlns="http://www.w3.org/2000/svg"
   xmlns:sodipodi="http://sodipodi.sourceforge.net/DTD/sodipodi-0.dtd"
   xmlns:inkscape="http://www.inkscape.org/namespaces/inkscape"
   version="1.1"
   id="Layer_1"
   x="0px"
   y="0px"
   width="300px"
   height="174px"
   viewBox="0 0 300 174"
   style="enable-background:new 0 0 300 174;"
   xml:space="preserve"
   sodipodi:docname="loop3.svg"
   inkscape:version="0.92.2 5c3e80d, 2017-08-06"><metadata
     id="metadata19841"><rdf:RDF><cc:Work
         rdf:about=""><dc:format>image/svg+xml</dc:format><dc:type
           rdf:resource="http://purl.org/dc/dcmitype/StillImage" /><dc:title></dc:title></cc:Work></rdf:RDF></metadata><defs
     id="defs19839" /><sodipodi:namedview
     pagecolor="#ffffff"
     bordercolor="#666666"
     borderopacity="1"
     objecttolerance="10"
     gridtolerance="10"
     guidetolerance="10"
     inkscape:pageopacity="0"
     inkscape:pageshadow="2"
     inkscape:window-width="640"
     inkscape:window-height="480"
     id="namedview19837"
     showgrid="false"
     inkscape:zoom="1.67"
     inkscape:cx="150"
     inkscape:cy="87"
     inkscape:current-layer="Layer_1" /><style
     type="text/css"
     id="style19716">
	.st0{fill:none;stroke:#1FAB54;stroke-width:6;stroke-linecap:round;stroke-miterlimit:10;}
	.st1{fill:none;stroke:#FF9C39;stroke-width:6;stroke-linecap:round;stroke-miterlimit:10;}
	.st2{fill:none;stroke:#FF9C39;stroke-width:6;stroke-linecap:round;stroke-linejoin:round;stroke-miterlimit:10;}
	.st3{fill:none;stroke:#11ACCD;stroke-width:5;stroke-linecap:round;stroke-linejoin:round;stroke-miterlimit:10;}
	.st4{fill:none;stroke:#1FAB54;stroke-width:6;stroke-linecap:round;stroke-linejoin:round;stroke-miterlimit:10;}
	.st5{fill:none;stroke:#BABEC2;stroke-width:2;stroke-linecap:round;stroke-miterlimit:10;}
	.st6{fill:none;stroke:#ED5FA6;stroke-width:4;stroke-linecap:round;stroke-miterlimit:10;}
	.st7{fill:#ED5FA6;}
	.st8{fill:none;stroke:#1FAB54;stroke-width:4;stroke-linecap:round;stroke-miterlimit:10;}
	.st9{fill:#1FAB54;}
	.st10{fill:none;stroke:#11ACCD;stroke-width:4;stroke-linecap:round;stroke-miterlimit:10;}
	.st11{fill:#11ACCD;}
	.st12{fill:none;stroke:#FF9C39;stroke-width:4;stroke-linecap:round;stroke-miterlimit:10;}
	.st13{fill:#FF9C39;}
	.st14{fill:none;stroke:#000000;stroke-linecap:round;stroke-linejoin:round;stroke-miterlimit:10;}
	.st15{fill:none;stroke:#000000;stroke-width:1.5;stroke-linecap:round;stroke-linejoin:round;stroke-miterlimit:10;}
	.st16{fill:none;stroke:#000000;stroke-linecap:round;stroke-miterlimit:10;}
	.st17{fill:none;stroke:#000000;stroke-width:1.5;stroke-linecap:round;stroke-miterlimit:10;}
	.st18{fill:none;stroke:#000000;stroke-width:2;stroke-linecap:round;stroke-linejoin:round;stroke-miterlimit:10;}
	.st19{fill:none;stroke:#000000;stroke-width:1.5;stroke-miterlimit:10;}
	.st20{fill:none;stroke:#000000;stroke-miterlimit:10;}
	.st21{fill:none;stroke:#000000;stroke-width:2;stroke-miterlimit:10;}
	.st22{fill:none;stroke:#000000;stroke-width:2;stroke-linecap:round;stroke-miterlimit:10;}
	.st23{fill:none;stroke:#000000;stroke-linecap:round;stroke-linejoin:round;}
	.st24{fill:none;}
	.st25{stroke:#000000;stroke-linecap:round;stroke-linejoin:round;stroke-miterlimit:10;}
	.st26{fill:none;stroke:#000000;stroke-width:1.5;stroke-linejoin:round;stroke-miterlimit:10;}
	.st27{fill:none;stroke:#000000;stroke-linejoin:round;stroke-miterlimit:10;}
	.st28{clip-path:url(#SVGID_2_);fill:none;stroke:#000000;stroke-linejoin:round;stroke-miterlimit:10;}
	.st29{clip-path:url(#SVGID_2_);fill:none;stroke:#ADADEB;stroke-linejoin:round;stroke-miterlimit:10;}
	.st30{clip-path:url(#SVGID_2_);}
	.st31{stroke:#000000;stroke-linejoin:round;stroke-miterlimit:10;}
	.st32{stroke:#000000;stroke-width:3;stroke-linejoin:round;stroke-miterlimit:10;}
	.st33{fill:none;stroke:#000000;stroke-linejoin:round;}
	.st34{fill:#FFFFFF;stroke:#000000;stroke-miterlimit:10;}
	.st35{fill:#E07D10;}
	.st36{fill:none;stroke:#11ACCD;stroke-width:3;stroke-linecap:round;stroke-miterlimit:10;}
	.st37{fill:none;stroke:#E07D10;stroke-width:2;stroke-linecap:round;stroke-miterlimit:10;}
	.st38{fill:none;stroke:#FF9C39;stroke-width:3;stroke-linecap:round;stroke-miterlimit:10;}
	.st39{fill:none;stroke:#FFBB71;stroke-width:2;stroke-linecap:round;stroke-miterlimit:10;}
	.st40{fill:#FFBB71;}
	.st41{fill:none;stroke:#000000;stroke-width:2;stroke-linecap:round;stroke-miterlimit:10;stroke-dasharray:6.1241,6.1241;}
	.st42{fill:#66AFE9;}
	.st43{fill:none;stroke:#66AFE9;stroke-miterlimit:10;}
	.st44{fill:none;stroke:#11ACCD;stroke-width:1.5;stroke-miterlimit:10;}
	.st45{fill:none;stroke:#11ACCD;stroke-width:4;stroke-linecap:round;stroke-linejoin:round;stroke-miterlimit:10;}
	.st46{fill:#CA337C;}
	.st47{font-family:'KaTeX_Main-Regular';}
	.st48{font-size:12px;}
	.st49{font-size:18px;}
</style><g
     id="g19726"><g
       id="g19724"><path
         class="st8"
         d="M63.7,132h187.7c7,0,12.7-4.5,12.7-10V52c0-5.5-5.7-10-12.7-10H66.7c-7,0-12.7,4.5-12.7,10v70"
         id="path19718" /><g
         id="g19722"><path
           class="st9"
           d="M54,132c4.5,1.7,10.2,4.6,13.7,7.6l-2.8-7.6l2.8-7.6C64.2,127.4,58.5,130.3,54,132z"
           id="path19720" /></g></g></g><text
     class="st9 st47 st48"
     id="text19728"
     style="font-style:normal;font-variant:normal;font-weight:normal;font-stretch:normal;font-size:24px;font-family:KaTeX_Main;-inkscape-font-specification:'KaTeX_Main, Normal';font-variant-ligatures:normal;font-variant-caps:normal;font-variant-numeric:normal;font-feature-settings:normal;text-align:start;writing-mode:lr-tb;text-anchor:start;fill:#1fab54"
     x="232.44095"
     y="67.559052">III</text>
<g
     id="g19746"><g
       id="g19738"><g
         id="g19736"><line
           class="st22"
           x1="162"
           y1="70.8"
           x2="162"
           y2="90.7"
           id="line19730" /><g
           id="g19734"><polygon
             points="156,89 162,99.3 168,89     "
             id="polygon19732" /></g></g></g><circle
       class="st21"
       cx="162"
       cy="84.3"
       r="18"
       id="circle19740" /><polyline
       class="st16"
       points="162,102.3 162,126.3 162.2,144  "
       id="polyline19742" /><polyline
       class="st14"
       points="162,66.3 162,42.3 161.8,24.7  "
       id="polyline19744" /></g><g
     id="g19756"><line
       class="st14"
       x1="239.6"
       y1="24.3"
       x2="264"
       y2="24.3"
       id="line19748" /><polyline
       class="st18"
       points="192.8,24.3 196.7,15.3 204.5,33.3 212.3,15.3 220.1,33.3 227.9,15.3 235.7,33.3 239.6,24.3  "
       id="polyline19750" /><line
       class="st14"
       x1="162.4"
       y1="24.3"
       x2="192.8"
       y2="24.3"
       id="line19752" /><polygon
       class="st24"
       points="264,36.3 264.2,12.3 162.4,12.3 162.4,36.3  "
       id="polygon19754" /></g><text
     class="st47 st49"
     id="text19758"
     style="font-style:normal;font-variant:normal;font-weight:normal;font-stretch:normal;font-size:24px;font-family:KaTeX_Main;-inkscape-font-specification:'KaTeX_Main, Normal';font-variant-ligatures:normal;font-variant-caps:normal;font-variant-numeric:normal;font-feature-settings:normal;text-align:start;writing-mode:lr-tb;text-anchor:start"
     x="140.22037"
     y="120.3334">I<tspan
   style="font-size:64.99999762%;baseline-shift:sub"
   id="tspan20386">s</tspan></text>
<g
     id="g19768"><g
       id="g19766"><path
         class="st12"
         d="M79.5,120h44.7c4.3,0,7.8-3.5,7.8-7.8V61.8c0-7.4-4.4-7.4-8.7-7.4L73.8,54c-4.3,0-7.8,3.5-7.8,7.8v50.5"
         id="path19760" /><g
         id="g19764"><path
           class="st13"
           d="M69.9,120c4.5,1.7,10.2,4.6,13.7,7.6l-2.8-7.6l2.8-7.6C80.1,115.4,74.4,118.3,69.9,120z"
           id="path19762" /></g></g></g><g
     id="g19782"><circle
       class="st21"
       cx="30"
       cy="84"
       r="18"
       id="circle19770" /><polyline
       class="st16"
       points="30,66 30,42 30,24 48,24  "
       id="polyline19772" /><polyline
       class="st14"
       points="30,102 29.8,144 264,144.3  "
       id="polyline19774" /><line
       class="st19"
       x1="30"
       y1="70.5"
       x2="30"
       y2="82.5"
       id="line19776" /><line
       class="st19"
       x1="24"
       y1="76.5"
       x2="36"
       y2="76.5"
       id="line19778" /><line
       class="st19"
       x1="24"
       y1="94.5"
       x2="36"
       y2="94.5"
       id="line19780" /></g><g
     id="g19792"><line
       class="st14"
       x1="125.2"
       y1="24"
       x2="149.6"
       y2="24"
       id="line19784" /><polyline
       class="st18"
       points="78.4,24 82.3,15 90.1,33 97.9,15 105.7,33 113.5,15 121.3,33 125.2,24  "
       id="polyline19786" /><line
       class="st14"
       x1="48"
       y1="24"
       x2="78.4"
       y2="24"
       id="line19788" /><polygon
       class="st24"
       points="149.6,36 149.8,12 48,12 48,36  "
       id="polygon19790" /></g><g
     id="g19802"><line
       class="st14"
       x1="282"
       y1="60.6"
       x2="282"
       y2="42"
       id="line19794" /><polyline
       class="st18"
       points="282,107.4 273,103.5 291,95.7 273,87.9 291,80.1 273,72.3 291,64.5 282,60.6  "
       id="polyline19796" /><line
       class="st14"
       x1="282"
       y1="144"
       x2="282"
       y2="107.4"
       id="line19798" /><rect
       x="270"
       y="42"
       class="st24"
       width="24"
       height="102"
       id="rect19800" /></g><g
     id="g19808"><polyline
       class="st14"
       points="29.8,156 37.3,156 37.3,156 37.3,156 29.8,168 22.3,156 29.8,156 29.8,144  "
       id="polyline19804" /><rect
       x="17.8"
       y="144"
       class="st24"
       width="24"
       height="24"
       id="rect19806" /></g><g
     id="g19814"><circle
       class="st25"
       cx="162"
       cy="24"
       r="1.5"
       id="circle19810" /><rect
       x="156"
       y="18"
       class="st24"
       width="12"
       height="12"
       id="rect19812" /></g><g
     id="g19820"><circle
       class="st25"
       cx="162.2"
       cy="144"
       r="1.5"
       id="circle19816" /><rect
       x="156.2"
       y="138"
       class="st24"
       width="12"
       height="12"
       id="rect19818" /></g><g
     id="g19826"><circle
       class="st25"
       cx="29.8"
       cy="144"
       r="1.5"
       id="circle19822" /><rect
       x="23.8"
       y="138"
       class="st24"
       width="12"
       height="12"
       id="rect19824" /></g><text
     class="st13 st47 st48"
     id="text19828"
     style="font-style:normal;font-variant:normal;font-weight:normal;font-stretch:normal;font-size:24px;font-family:KaTeX_Main;-inkscape-font-specification:'KaTeX_Main, Normal';font-variant-ligatures:normal;font-variant-caps:normal;font-variant-numeric:normal;font-feature-settings:normal;text-align:start;writing-mode:lr-tb;text-anchor:start;fill:#ff9c39"
     x="94.679901"
     y="94.112823">I</text>
<line
     class="st16"
     x1="149.6"
     y1="24"
     x2="162"
     y2="24"
     id="line19830" /><polyline
     class="st16"
     points="264,24.3 282,24 282,42 "
     id="polyline19832" /><line
     class="st16"
     x1="264"
     y1="144.3"
     x2="282"
     y2="144"
     id="line19834" /></svg>