<?xml version="1.0" encoding="UTF-8" standalone="no"?>
<!-- Generator: Adobe Illustrator 19.1.0, SVG Export Plug-In . SVG Version: 6.00 Build 0)  -->

<svg
   xmlns:dc="http://purl.org/dc/elements/1.1/"
   xmlns:cc="http://creativecommons.org/ns#"
   xmlns:rdf="http://www.w3.org/1999/02/22-rdf-syntax-ns#"
   xmlns:svg="http://www.w3.org/2000/svg"
   xmlns="http://www.w3.org/2000/svg"
   xmlns:sodipodi="http://sodipodi.sourceforge.net/DTD/sodipodi-0.dtd"
   xmlns:inkscape="http://www.inkscape.org/namespaces/inkscape"
   version="1.1"
   id="Layer_1"
   x="0px"
   y="0px"
   width="376.64252"
   height="179.84081"
   viewBox="0 0 376.64252 179.84081"
   xml:space="preserve"
   inkscape:version="0.91 r13725"
   sodipodi:docname="mesh_current3.svg"><metadata
     id="metadata6347"><rdf:RDF><cc:Work
         rdf:about=""><dc:format>image/svg+xml</dc:format><dc:type
           rdf:resource="http://purl.org/dc/dcmitype/StillImage" /><dc:title></dc:title></cc:Work></rdf:RDF></metadata><defs
     id="defs6345" /><sodipodi:namedview
     pagecolor="#ffffff"
     bordercolor="#666666"
     borderopacity="1"
     objecttolerance="10"
     gridtolerance="10"
     guidetolerance="10"
     inkscape:pageopacity="0"
     inkscape:pageshadow="2"
     inkscape:window-width="1277"
     inkscape:window-height="745"
     id="namedview6343"
     showgrid="false"
     inkscape:zoom="1.8001154"
     inkscape:cx="188.32126"
     inkscape:cy="89.920403"
     inkscape:window-x="0"
     inkscape:window-y="0"
     inkscape:window-maximized="0"
     inkscape:current-layer="Layer_1"
     fit-margin-top="10"
     fit-margin-right="10"
     fit-margin-bottom="10"
     fit-margin-left="10" /><style
     type="text/css"
     id="style5993">
	.st0{fill:none;stroke:#11ACCD;stroke-width:3;stroke-miterlimit:10;}
	.st1{opacity:0.5;fill:#CCFAFF;}
	.st2{fill:none;stroke:#000000;stroke-linecap:round;stroke-linejoin:round;stroke-miterlimit:10;}
	.st3{fill:none;stroke:#000000;stroke-width:1.5;stroke-linecap:round;stroke-linejoin:round;stroke-miterlimit:10;}
	.st4{fill:none;stroke:#000000;stroke-linecap:round;stroke-miterlimit:10;}
	.st5{fill:none;stroke:#000000;stroke-width:1.5;stroke-linecap:round;stroke-miterlimit:10;}
	.st6{fill:none;stroke:#000000;stroke-width:2;stroke-linecap:round;stroke-linejoin:round;stroke-miterlimit:10;}
	.st7{fill:none;stroke:#000000;stroke-width:1.5;stroke-miterlimit:10;}
	.st8{fill:none;stroke:#000000;stroke-miterlimit:10;}
	.st9{fill:none;stroke:#000000;stroke-width:2;stroke-miterlimit:10;}
	.st10{fill:none;stroke:#000000;stroke-width:2;stroke-linecap:round;stroke-miterlimit:10;}
	.st11{fill:none;stroke:#000000;stroke-linecap:round;stroke-linejoin:round;}
	.st12{fill:none;}
	.st13{stroke:#000000;stroke-linecap:round;stroke-linejoin:round;stroke-miterlimit:10;}
	.st14{fill:none;stroke:#000000;stroke-width:1.5;stroke-linejoin:round;stroke-miterlimit:10;}
	.st15{fill:none;stroke:#000000;stroke-linejoin:round;stroke-miterlimit:10;}
	.st16{clip-path:url(#SVGID_2_);fill:none;stroke:#000000;stroke-linejoin:round;stroke-miterlimit:10;}
	.st17{clip-path:url(#SVGID_2_);fill:none;stroke:#ADADEB;stroke-linejoin:round;stroke-miterlimit:10;}
	.st18{clip-path:url(#SVGID_2_);}
	.st19{stroke:#000000;stroke-linejoin:round;stroke-miterlimit:10;}
	.st20{stroke:#000000;stroke-width:3;stroke-linejoin:round;stroke-miterlimit:10;}
	.st21{fill:none;stroke:#000000;stroke-linejoin:round;}
	.st22{fill:#FFFFFF;stroke:#000000;stroke-miterlimit:10;}
	.st23{fill:none;stroke:#11ACCD;stroke-width:3;stroke-linecap:round;stroke-miterlimit:10;}
	.st24{fill:#11ACCD;}
	.st25{fill:#0C7F99;}
	.st26{fill:#FF9C39;}
	.st27{fill:none;stroke:#000000;stroke-width:2;stroke-linecap:round;stroke-miterlimit:10;stroke-dasharray:6.1241,6.1241;}
	.st28{fill:none;stroke:#11ACCD;stroke-width:4;stroke-linecap:round;stroke-miterlimit:10;}
	.st29{fill:#1FAB54;}
	.st30{fill:none;stroke:#1FAB54;stroke-width:3;stroke-linecap:round;stroke-miterlimit:10;}
	.st31{fill:none;stroke:#1FAB54;stroke-width:4;stroke-linecap:round;stroke-miterlimit:10;}
	.st32{fill:none;stroke:#11ACCD;stroke-width:3;stroke-linecap:round;stroke-linejoin:round;}
	.st33{fill:none;stroke:#11ACCD;stroke-width:2;stroke-linecap:round;stroke-linejoin:round;}
	.st34{fill:none;stroke:#11ACCD;stroke-width:2;stroke-linecap:round;stroke-linejoin:round;stroke-dasharray:5.9723,5.9723;}
	.st35{fill:#E07D10;}
	.st36{fill:#BABEC2;}
	.st37{font-family:'KaTeX_Main-Regular';}
	.st38{font-size:18px;}
	.st39{letter-spacing:1;}
	.st40{fill:#9ECCD6;}
	.st41{fill:none;stroke:#BABEC2;stroke-width:2;stroke-linecap:round;stroke-linejoin:round;stroke-miterlimit:10;}
	.st42{fill:none;stroke:#BABEC2;stroke-linecap:round;stroke-linejoin:round;stroke-miterlimit:10;}
	.st43{fill:none;stroke:#BABEC2;stroke-width:1.5;stroke-linecap:round;stroke-linejoin:round;stroke-miterlimit:10;}
	.st44{fill:none;stroke:#BABEC2;stroke-width:0;stroke-miterlimit:10;}
	.st45{fill:none;stroke:#A0DEEB;stroke-width:3;stroke-linecap:round;stroke-linejoin:round;}
	.st46{fill:#A0DEEB;}
	.st47{font-family:'KaTeX_Main-Italic';}
	.st48{font-size:21px;}
	.st49{fill:#F3CB9F;}
	.st50{fill:#A5DDBB;}
	.st51{fill:none;stroke:#CCFAFF;stroke-width:3;stroke-linecap:round;stroke-linejoin:round;}
	.st52{fill:#CCFAFF;}
	.st53{fill:#FFBB71;}
	.st54{stroke:#000000;stroke-miterlimit:10;}
</style><text
     id="text5995"
     x="8.875"
     y="109.8404"
     style="font-style:normal;font-variant:normal;font-weight:normal;font-stretch:normal;font-size:22.5px;line-height:125%;font-family:KaTeX_Main;-inkscape-font-specification:'KaTeX_Main, Normal';text-align:start;writing-mode:lr-tb;text-anchor:start"
     sodipodi:linespacing="125%"><tspan
       x="8.875"
       y="109.8404"
       class="st36 st37 st38 st39"
       id="tspan5997"
       style="font-style:normal;font-variant:normal;font-weight:normal;font-stretch:normal;font-size:22.5px;line-height:125%;font-family:KaTeX_Main;-inkscape-font-specification:'KaTeX_Main, Normal';text-align:start;letter-spacing:1;writing-mode:lr-tb;text-anchor:start;fill:#babec2">5</tspan><tspan
       x="19.674999"
       y="109.8404"
       class="st36 st37 st38"
       id="tspan5999"
       style="font-style:normal;font-variant:normal;font-weight:normal;font-stretch:normal;font-size:22.5px;line-height:125%;font-family:KaTeX_Main;-inkscape-font-specification:'KaTeX_Main, Normal';text-align:start;writing-mode:lr-tb;text-anchor:start;fill:#babec2"
       dx="3">V</tspan></text>
<text
     id="text6001"
     style="font-style:normal;font-variant:normal;font-weight:normal;font-stretch:normal;font-size:22.5px;line-height:125%;font-family:KaTeX_Main;-inkscape-font-specification:'KaTeX_Main, Normal';text-align:start;writing-mode:lr-tb;text-anchor:start"
     sodipodi:linespacing="125%"
     x="111.4744"
     y="25.84"><tspan
       x="111.4744"
       y="25.84"
       class="st36 st37 st38 st39"
       id="tspan6003"
       style="font-style:normal;font-variant:normal;font-weight:normal;font-stretch:normal;font-size:22.5px;line-height:125%;font-family:KaTeX_Main;-inkscape-font-specification:'KaTeX_Main, Normal';text-align:start;letter-spacing:1;writing-mode:lr-tb;text-anchor:start;fill:#babec2">2</tspan><tspan
       x="122.2744"
       y="25.84"
       class="st36 st37 st38"
       id="tspan6005"
       style="font-style:normal;font-variant:normal;font-weight:normal;font-stretch:normal;font-size:22.5px;line-height:125%;font-family:KaTeX_Main;-inkscape-font-specification:'KaTeX_Main, Normal';text-align:start;writing-mode:lr-tb;text-anchor:start;fill:#babec2"
       dx="3">kΩ</tspan></text>
<text
     id="text6007"
     x="140.18781"
     y="156.84041"
     style="font-style:normal;font-variant:normal;font-weight:normal;font-stretch:normal;font-size:22.5px;line-height:125%;font-family:KaTeX_Main;-inkscape-font-specification:'KaTeX_Main, Normal';text-align:start;writing-mode:lr-tb;text-anchor:start"
     sodipodi:linespacing="125%"><tspan
       x="140.18781"
       y="156.84041"
       class="st37 st38 st39"
       id="tspan6009"
       style="font-style:normal;font-variant:normal;font-weight:normal;font-stretch:normal;font-size:22.5px;line-height:125%;font-family:KaTeX_Main;-inkscape-font-specification:'KaTeX_Main, Normal';text-align:start;letter-spacing:1;writing-mode:lr-tb;text-anchor:start">1</tspan><tspan
       x="150.98779"
       y="156.84041"
       class="st37 st38"
       id="tspan6011"
       style="font-style:normal;font-variant:normal;font-weight:normal;font-stretch:normal;font-size:22.5px;line-height:125%;font-family:KaTeX_Main;-inkscape-font-specification:'KaTeX_Main, Normal';text-align:start;writing-mode:lr-tb;text-anchor:start">kΩ</tspan></text>
<text
     id="text6013"
     x="224.8743"
     y="25.840399"
     style="font-style:normal;font-variant:normal;font-weight:normal;font-stretch:normal;font-size:22.5px;line-height:125%;font-family:KaTeX_Main;-inkscape-font-specification:'KaTeX_Main, Normal';text-align:start;writing-mode:lr-tb;text-anchor:start"
     sodipodi:linespacing="125%"><tspan
       x="224.8743"
       y="25.840399"
       class="st37 st38 st39"
       id="tspan6015"
       style="font-style:normal;font-variant:normal;font-weight:normal;font-stretch:normal;font-size:22.5px;line-height:125%;font-family:KaTeX_Main;-inkscape-font-specification:'KaTeX_Main, Normal';text-align:start;letter-spacing:1;writing-mode:lr-tb;text-anchor:start">2</tspan><tspan
       x="235.6743"
       y="25.840399"
       class="st37 st38"
       id="tspan6017"
       style="font-style:normal;font-variant:normal;font-weight:normal;font-stretch:normal;font-size:22.5px;line-height:125%;font-family:KaTeX_Main;-inkscape-font-specification:'KaTeX_Main, Normal';text-align:start;writing-mode:lr-tb;text-anchor:start"
       dx="3">kΩ</tspan></text>
<text
     id="text6019"
     style="font-style:normal;font-variant:normal;font-weight:normal;font-stretch:normal;font-size:22.5px;line-height:125%;font-family:KaTeX_Main;-inkscape-font-specification:'KaTeX_Main, Normal';text-align:start;writing-mode:lr-tb;text-anchor:start"
     sodipodi:linespacing="125%"
     x="336.41751"
     y="109.8404"><tspan
       x="336.41751"
       y="109.8404"
       class="st37 st38 st39"
       id="tspan6021"
       style="font-style:normal;font-variant:normal;font-weight:normal;font-stretch:normal;font-size:22.5px;line-height:125%;font-family:KaTeX_Main;-inkscape-font-specification:'KaTeX_Main, Normal';text-align:start;letter-spacing:1;writing-mode:lr-tb;text-anchor:start">2</tspan><tspan
       x="347.2175"
       y="109.8404"
       class="st37 st38"
       id="tspan6023"
       style="font-style:normal;font-variant:normal;font-weight:normal;font-stretch:normal;font-size:22.5px;line-height:125%;font-family:KaTeX_Main;-inkscape-font-specification:'KaTeX_Main, Normal';text-align:start;writing-mode:lr-tb;text-anchor:start"
       dx="3">V</tspan></text>
<g
     id="g6025"
     transform="translate(6.418107,1.8407992)"><circle
       class="st6"
       cx="306"
       cy="102"
       r="18"
       id="circle6027"
       style="fill:none;stroke:#000000;stroke-width:2;stroke-linecap:round;stroke-linejoin:round;stroke-miterlimit:10" /><polyline
       class="st2"
       points="288,42 306,42 306,60 306,84  "
       id="polyline6029"
       style="fill:none;stroke:#000000;stroke-linecap:round;stroke-linejoin:round;stroke-miterlimit:10" /><polyline
       class="st2"
       points="306,120 306,144 306,162 180,162  "
       id="polyline6031"
       style="fill:none;stroke:#000000;stroke-linecap:round;stroke-linejoin:round;stroke-miterlimit:10" /><line
       class="st3"
       x1="306"
       y1="88.5"
       x2="306"
       y2="100.5"
       id="line6033"
       style="fill:none;stroke:#000000;stroke-width:1.5;stroke-linecap:round;stroke-linejoin:round;stroke-miterlimit:10" /><line
       class="st3"
       x1="300"
       y1="94.5"
       x2="312"
       y2="94.5"
       id="line6035"
       style="fill:none;stroke:#000000;stroke-width:1.5;stroke-linecap:round;stroke-linejoin:round;stroke-miterlimit:10" /><line
       class="st3"
       x1="300"
       y1="112.5"
       x2="312"
       y2="112.5"
       id="line6037"
       style="fill:none;stroke:#000000;stroke-width:1.5;stroke-linecap:round;stroke-linejoin:round;stroke-miterlimit:10" /></g><circle
     class="st1"
     cx="126.41811"
     cy="103.8408"
     r="24"
     id="circle6039"
     style="opacity:0.5;fill:#ccfaff" /><text
     class="st40 st37 st38"
     id="text6041"
     style="font-style:normal;font-variant:normal;font-weight:normal;font-stretch:normal;font-size:22.5px;line-height:125%;font-family:KaTeX_Main;-inkscape-font-specification:'KaTeX_Main, Normal';text-align:start;writing-mode:lr-tb;text-anchor:start;fill:#0c7f99;fill-opacity:1"
     sodipodi:linespacing="125%"
     x="122.3681"
     y="111.52454">I</text>
<circle
     class="st1"
     cx="245.71811"
     cy="103.8408"
     r="24"
     id="circle6043"
     style="opacity:0.5;fill:#ccfaff" /><text
     class="st25 st37 st38"
     id="text6045"
     style="font-style:normal;font-variant:normal;font-weight:normal;font-stretch:normal;font-size:22.5px;line-height:125%;font-family:KaTeX_Main;-inkscape-font-specification:'KaTeX_Main, Normal';text-align:start;writing-mode:lr-tb;text-anchor:start;fill:#0c7f99"
     sodipodi:linespacing="125%"
     x="237.60316"
     y="111.52454">II</text>
<g
     id="g6047"
     transform="translate(6.418107,1.8407992)"><circle
       class="st41"
       cx="54"
       cy="102"
       r="18"
       id="circle6049"
       style="fill:none;stroke:#babec2;stroke-width:2;stroke-linecap:round;stroke-linejoin:round;stroke-miterlimit:10" /><polyline
       class="st42"
       points="54,84 54,60 54,42 72,42  "
       id="polyline6051"
       style="fill:none;stroke:#babec2;stroke-linecap:round;stroke-linejoin:round;stroke-miterlimit:10" /><polyline
       class="st42"
       points="54,120 53.8,162 180,162  "
       id="polyline6053"
       style="fill:none;stroke:#babec2;stroke-linecap:round;stroke-linejoin:round;stroke-miterlimit:10" /><line
       class="st43"
       x1="54"
       y1="88.5"
       x2="54"
       y2="100.5"
       id="line6055"
       style="fill:none;stroke:#babec2;stroke-width:1.5;stroke-linecap:round;stroke-linejoin:round;stroke-miterlimit:10" /><line
       class="st43"
       x1="48"
       y1="94.5"
       x2="60"
       y2="94.5"
       id="line6057"
       style="fill:none;stroke:#babec2;stroke-width:1.5;stroke-linecap:round;stroke-linejoin:round;stroke-miterlimit:10" /><line
       class="st43"
       x1="48"
       y1="112.5"
       x2="60"
       y2="112.5"
       id="line6059"
       style="fill:none;stroke:#babec2;stroke-width:1.5;stroke-linecap:round;stroke-linejoin:round;stroke-miterlimit:10" /></g><g
     id="g6061"
     transform="translate(6.418107,1.8407992)"><line
       class="st42"
       x1="149.2"
       y1="42"
       x2="179"
       y2="42"
       id="line6063"
       style="fill:none;stroke:#babec2;stroke-linecap:round;stroke-linejoin:round;stroke-miterlimit:10" /><polyline
       class="st41"
       points="102.4,42 106.3,33 114.1,51 121.9,33 129.7,51 137.5,33 145.3,51 149.2,42  "
       id="polyline6065"
       style="fill:none;stroke:#babec2;stroke-width:2;stroke-linecap:round;stroke-linejoin:round;stroke-miterlimit:10" /><line
       class="st42"
       x1="72"
       y1="42"
       x2="102.4"
       y2="42"
       id="line6067"
       style="fill:none;stroke:#babec2;stroke-linecap:round;stroke-linejoin:round;stroke-miterlimit:10" /><polygon
       class="st44"
       points="72,54 179,54 179.2,30 72,30 "
       id="polygon6069"
       style="fill:none;stroke:#babec2;stroke-width:0;stroke-miterlimit:10" /></g><g
     id="g6071"
     transform="translate(6.418107,1.8407992)"><line
       class="st2"
       x1="258"
       y1="42"
       x2="287.79999"
       y2="42"
       id="line6073"
       style="fill:none;stroke:#000000;stroke-linecap:round;stroke-linejoin:round;stroke-miterlimit:10" /><polyline
       class="st6"
       points="211.2,42 215.1,33 222.9,51 230.7,33 238.5,51 246.3,33 254.1,51 258,42  "
       id="polyline6075"
       style="fill:none;stroke:#000000;stroke-width:2;stroke-linecap:round;stroke-linejoin:round;stroke-miterlimit:10" /><line
       class="st2"
       x1="180.8"
       y1="42"
       x2="211.2"
       y2="42"
       id="line6077"
       style="fill:none;stroke:#000000;stroke-linecap:round;stroke-linejoin:round;stroke-miterlimit:10" /><polygon
       class="st12"
       points="180.8,54 287.8,54 288,30 180.8,30 "
       id="polygon6079"
       style="fill:none" /></g><g
     id="g6081"
     transform="translate(6.418107,1.8407992)"><line
       class="st2"
       x1="179.8"
       y1="78.599998"
       x2="179.8"
       y2="60"
       id="line6083"
       style="fill:none;stroke:#000000;stroke-linecap:round;stroke-linejoin:round;stroke-miterlimit:10" /><polyline
       class="st6"
       points="179.8,125.4 170.8,121.5 188.8,113.7 170.8,105.9 188.8,98.1 170.8,90.3 188.8,82.5 179.8,78.6  "
       id="polyline6085"
       style="fill:none;stroke:#000000;stroke-width:2;stroke-linecap:round;stroke-linejoin:round;stroke-miterlimit:10" /><line
       class="st2"
       x1="179.8"
       y1="162"
       x2="179.8"
       y2="125.4"
       id="line6087"
       style="fill:none;stroke:#000000;stroke-linecap:round;stroke-linejoin:round;stroke-miterlimit:10" /><rect
       x="167.8"
       y="60"
       class="st12"
       width="24"
       height="102"
       id="rect6089"
       style="fill:none" /></g><g
     id="g6091"
     transform="translate(6.418107,1.8407992)"><circle
       class="st13"
       cx="179.8"
       cy="42"
       r="1.5"
       id="circle6093"
       style="stroke:#000000;stroke-linecap:round;stroke-linejoin:round;stroke-miterlimit:10" /><rect
       x="173.8"
       y="36"
       class="st12"
       width="12"
       height="12"
       id="rect6095"
       style="fill:none" /></g><g
     id="g6097"
     transform="translate(6.418107,1.8407992)"><circle
       class="st13"
       cx="179.8"
       cy="162"
       r="1.5"
       id="circle6099"
       style="stroke:#000000;stroke-linecap:round;stroke-linejoin:round;stroke-miterlimit:10" /><rect
       x="173.8"
       y="156"
       class="st12"
       width="12"
       height="12"
       id="rect6101"
       style="fill:none" /></g><line
     class="st2"
     x1="186.01811"
     y1="61.840797"
     x2="186.01811"
     y2="43.840797"
     id="line6103"
     style="fill:none;stroke:#000000;stroke-linecap:round;stroke-linejoin:round;stroke-miterlimit:10" /><g
     id="g6105"
     style="stroke:#11accd;stroke-opacity:1"
     transform="translate(6.418107,1.8407992)"><g
       id="g6107"
       style="stroke:#11accd;stroke-opacity:1"><path
         class="st45"
         d="m 96.2,135.6 c 6.8,4.7 15,7.4 23.8,7.4 23.2,0 42,-18.8 42,-42 0,-23.2 -18.8,-42 -42,-42 -23.2,0 -42,18.8 -42,42 0,11.8 4.8,22.4 12.6,30"
         id="path6109"
         style="fill:none;stroke:#11accd;stroke-width:3;stroke-linecap:round;stroke-linejoin:round;stroke-opacity:1"
         inkscape:connector-curvature="0" /><g
         id="g6111"
         style="stroke:#11accd;stroke-opacity:1"><path
           class="st46"
           d="M 91.015117,131.50594 C 92.915117,134.60594 94.4,138.5 95,141.9 l 2,-5.7 5.2,-3.1 c -3.5,0.1 -7.784883,-0.39406 -11.184883,-1.59406 z"
           id="path6113"
           inkscape:connector-curvature="0"
           style="fill:#11accd;fill-opacity:1;stroke:#11accd;stroke-opacity:1"
           sodipodi:nodetypes="ccccc" /></g></g></g><g
     id="g6115"
     transform="translate(6.418107,1.8407992)"><g
       id="g6117"><path
         class="st32"
         d="m 215.5,135.6 c 6.8,4.7 15,7.4 23.8,7.4 23.2,0 42,-18.8 42,-42 0,-23.2 -18.8,-42 -42,-42 -23.2,0 -42,18.8 -42,42 0,11.8 4.8,22.4 12.6,30"
         id="path6119"
         inkscape:connector-curvature="0"
         style="fill:none;stroke:#11accd;stroke-width:3;stroke-linecap:round;stroke-linejoin:round" /><g
         id="g6121"><path
           class="st24"
           d="m 209.9,131 c 1.9,3.1 3.8,7.5 4.4,10.9 l 2,-5.7 5.2,-3.1 c -3.5,0.1 -8.1,-0.9 -11.6,-2.1 z"
           id="path6123"
           inkscape:connector-curvature="0"
           style="fill:#11accd" /></g></g></g><text
     class="st40 st47 st48"
     id="text6125"
     style="font-style:normal;font-variant:normal;font-weight:normal;font-stretch:normal;font-size:22.5px;line-height:125%;font-family:KaTeX_Math;-inkscape-font-specification:'KaTeX_Math, Normal';text-align:start;writing-mode:lr-tb;text-anchor:start;fill:#9eccd6"
     sodipodi:linespacing="125%"
     x="84.418007"
     y="145.8409">i</text>
<text
     class="st40 st37 st48"
     id="text6127"
     style="font-style:normal;font-variant:normal;font-weight:normal;font-stretch:normal;font-size:16.25px;line-height:125%;font-family:KaTeX_Main;-inkscape-font-specification:'KaTeX_Main, Normal';text-align:start;writing-mode:lr-tb;text-anchor:start;fill:#9eccd6"
     sodipodi:linespacing="125%"
     x="90.865311"
     y="152.834">I</text>
<text
     class="st25 st47 st48"
     id="text6129"
     style="font-style:normal;font-variant:normal;font-weight:normal;font-stretch:normal;font-size:22.5px;line-height:125%;font-family:KaTeX_Math;-inkscape-font-specification:'KaTeX_Math, Normal';text-align:start;writing-mode:lr-tb;text-anchor:start;fill:#0c7f99"
     sodipodi:linespacing="125%"
     x="197.3311"
     y="145.84091">i</text>
<text
     class="st25 st37 st48"
     id="text6131"
     style="font-style:normal;font-variant:normal;font-weight:normal;font-stretch:normal;font-size:16.25px;line-height:125%;font-family:KaTeX_Main;-inkscape-font-specification:'KaTeX_Main, Normal';text-align:start;writing-mode:lr-tb;text-anchor:start;fill:#0c7f99"
     sodipodi:linespacing="125%"
     x="203.7784"
     y="152.834">II</text>
<g
     id="g6133"
     transform="translate(6.418107,1.8407992)"><g
       id="g6135"><path
         class="st49"
         d="m 85.7,22.8 c -0.1,3.8 0.1,7.5 0.4,11.3 0.2,1.9 3.2,1.9 3,0 -0.3,-3.7 -0.4,-7.5 -0.4,-11.3 0,-2 -3,-2 -3,0 l 0,0 z"
         id="path6137"
         inkscape:connector-curvature="0"
         style="fill:#f3cb9f" /></g></g><g
     id="g6139"
     transform="translate(6.418107,1.8407992)"><g
       id="g6141"><path
         class="st49"
         d="m 80.9,31.2 c 4,-1.2 8,-1.7 12.1,-1.4 1.9,0.1 1.9,-2.9 0,-3 -4.4,-0.3 -8.7,0.2 -12.9,1.5 -1.8,0.6 -1,3.5 0.8,2.9 l 0,0 z"
         id="path6143"
         inkscape:connector-curvature="0"
         style="fill:#f3cb9f" /></g></g><g
     id="g6145"
     transform="translate(6.418107,1.8407992)"><g
       id="g6147"><path
         class="st49"
         d="m 153.2,30.4 c 2.2,-1.2 4.7,-1.7 7.2,-1.4 1.9,0.3 2.7,-2.6 0.8,-2.9 -3.3,-0.5 -6.5,0 -9.5,1.7 -1.8,0.9 -0.2,3.5 1.5,2.6 l 0,0 z"
         id="path6149"
         inkscape:connector-curvature="0"
         style="fill:#f3cb9f" /></g></g><g
     id="g6151"
     transform="translate(6.418107,1.8407992)"><g
       id="g6153"><path
         class="st35"
         d="m 168.9,65.7 c 0.1,2.9 0.1,5.8 0.2,8.8 0,1.9 3,1.9 3,0 -0.1,-2.9 -0.1,-5.8 -0.2,-8.8 0,-1.9 -3,-1.9 -3,0 l 0,0 z"
         id="path6155"
         inkscape:connector-curvature="0"
         style="fill:#e07d10" /></g></g><g
     id="g6157"
     transform="translate(6.418107,1.8407992)"><g
       id="g6159"><path
         class="st35"
         d="m 165.1,70.7 c 3.1,-0.6 6.2,-0.8 9.4,-0.4 1.9,0.2 1.9,-2.8 0,-3 -3.4,-0.4 -6.8,-0.2 -10.2,0.5 -1.9,0.4 -1.1,3.3 0.8,2.9 l 0,0 z"
         id="path6161"
         inkscape:connector-curvature="0"
         style="fill:#e07d10" /></g></g><g
     id="g6163"
     transform="translate(6.418107,1.8407992)"><g
       id="g6165"><path
         class="st35"
         d="m 166,135.8 c 3.2,-0.1 6.3,-0.2 9.5,-0.3 1.9,-0.1 1.9,-3.1 0,-3 -3.2,0.1 -6.3,0.2 -9.5,0.3 -1.9,0.1 -1.9,3.1 0,3 l 0,0 z"
         id="path6167"
         inkscape:connector-curvature="0"
         style="fill:#e07d10" /></g></g><g
     id="g6169"
     transform="translate(6.418107,1.8407992)"><g
       id="g6171"><path
         class="st35"
         d="m 199.2,26.6 c 0.4,2.9 0.9,5.9 1.3,8.8 0.3,1.9 3.2,1.1 2.9,-0.8 -0.4,-2.9 -0.9,-5.9 -1.3,-8.8 -0.3,-1.9 -3.2,-1.1 -2.9,0.8 l 0,0 z"
         id="path6173"
         inkscape:connector-curvature="0"
         style="fill:#e07d10" /></g></g><g
     id="g6175"
     transform="translate(6.418107,1.8407992)"><g
       id="g6177"><path
         class="st35"
         d="m 197.4,33.5 c 3.2,-0.6 6.3,-1.2 9.5,-1.6 1.9,-0.3 1.1,-3.2 -0.8,-2.9 -3.2,0.5 -6.4,1 -9.5,1.6 -1.9,0.4 -1.1,3.3 0.8,2.9 l 0,0 z"
         id="path6179"
         inkscape:connector-curvature="0"
         style="fill:#e07d10" /></g></g><g
     id="g6181"
     transform="translate(6.418107,1.8407992)"><g
       id="g6183"><path
         class="st35"
         d="m 262.1,33 c 3.4,0.1 6.8,0.1 10.2,-0.1 1.9,-0.1 1.9,-3.1 0,-3 -3.4,0.2 -6.8,0.2 -10.2,0.1 -2,-0.1 -2,2.9 0,3 l 0,0 z"
         id="path6185"
         inkscape:connector-curvature="0"
         style="fill:#e07d10" /></g></g><g
     id="g6187"
     transform="translate(6.418107,1.8407992)"><g
       id="g6189"><path
         class="st50"
         d="m 74.5,38.9 c 2.7,0.1 5.2,2.6 7.2,4.2 -0.1,-0.8 -0.2,-1.6 -0.3,-2.4 -2.2,1.8 -4.5,3.5 -6.9,5 -1.6,1 -0.1,3.6 1.5,2.6 2.6,-1.7 5.1,-3.5 7.5,-5.5 0.8,-0.7 0.4,-1.8 -0.3,-2.4 -2.7,-2 -5.2,-4.5 -8.8,-4.6 -1.9,0 -1.8,3 0.1,3.1 l 0,0 z"
         id="path6191"
         inkscape:connector-curvature="0"
         style="fill:#a5ddbb" /></g></g><g
     id="g6193"
     transform="translate(6.418107,1.8407992)"><g
       id="g6195"><path
         class="st50"
         d="m 78.4,40.6 c -3,0.7 -6,1.4 -9,2.3 -1.5,0.5 -2.3,0.5 -4,0.4 -1.9,-0.2 -1.9,2.8 0,3 4.6,0.5 9.3,-1.6 13.7,-2.7 2,-0.6 1.2,-3.5 -0.7,-3 l 0,0 z"
         id="path6197"
         inkscape:connector-curvature="0"
         style="fill:#a5ddbb" /></g></g><g
     id="g6199"
     transform="translate(6.418107,1.8407992)"><g
       id="g6201"><path
         class="st29"
         d="m 180.3,65.5 c -1.1,-2.6 -2.6,-4.9 -4.5,-7.1 -1.2,-1.5 -3.4,0.7 -2.1,2.1 1.6,2 3,4.1 4,6.5 0.8,1.8 3.4,0.2 2.6,-1.5 l 0,0 z"
         id="path6203"
         inkscape:connector-curvature="0"
         style="fill:#1fab54" /></g></g><g
     id="g6205"
     transform="translate(6.418107,1.8407992)"><g
       id="g6207"><path
         class="st29"
         d="m 178,65.7 c 0.1,0.2 0.2,0.3 0.3,0.5 0.5,0.7 1.7,1.1 2.4,0.3 1.9,-2.2 3.9,-4.3 6.2,-6.1 1.5,-1.2 -0.6,-3.3 -2.1,-2.1 -2.2,1.9 -4.3,3.9 -6.2,6.1 0.8,0.1 1.6,0.2 2.4,0.3 -0.1,-0.2 -0.2,-0.3 -0.3,-0.5 -1.2,-1.6 -3.8,-0.1 -2.7,1.5 l 0,0 z"
         id="path6209"
         inkscape:connector-curvature="0"
         style="fill:#1fab54" /></g></g><g
     id="g6211"
     transform="translate(6.418107,1.8407992)"><g
       id="g6213"><path
         class="st29"
         d="m 180,64 c -0.2,-5 0.3,-9.8 1.4,-14.6 0.5,-1.9 -2.4,-2.7 -2.9,-0.8 -1.2,5.1 -1.8,10.2 -1.5,15.4 0.1,1.9 3.1,1.9 3,0 l 0,0 z"
         id="path6215"
         inkscape:connector-curvature="0"
         style="fill:#1fab54" /></g></g><g
     id="g6217"
     transform="translate(6.418107,1.8407992)"><g
       id="g6219"><path
         class="st29"
         d="m 196.4,42.7 c 1.2,-1.8 -0.6,-3.3 -1.8,-4.5 -1.9,-1.8 -3.7,-3.7 -5.5,-5.6 -1.3,-1.4 -3.4,0.7 -2.1,2.1 1.1,1.2 2.3,2.4 3.5,3.6 0.6,0.6 1.2,1.2 1.8,1.8 0.3,0.3 1.3,1.6 1.6,1.1 -1.2,1.6 1.4,3.1 2.5,1.5 l 0,0 z"
         id="path6221"
         inkscape:connector-curvature="0"
         style="fill:#1fab54" /></g></g><g
     id="g6223"
     transform="translate(6.418107,1.8407992)"><g
       id="g6225"><path
         class="st29"
         d="m 192.9,41.8 c -1.6,2.6 -3.2,5.3 -4.8,7.9 -1,1.7 1.6,3.2 2.6,1.5 1.6,-2.6 3.2,-5.3 4.8,-7.9 1,-1.7 -1.6,-3.2 -2.6,-1.5 l 0,0 z"
         id="path6227"
         inkscape:connector-curvature="0"
         style="fill:#1fab54" /></g></g><g
     id="g6229"
     transform="translate(6.418107,1.8407992)"><g
       id="g6231"><path
         class="st29"
         d="m 193,40.2 c -2.8,0 -5.7,0 -8.5,0 -1.9,0 -1.9,3 0,3 2.8,0 5.7,0 8.5,0 1.9,0 1.9,-3 0,-3 l 0,0 z"
         id="path6233"
         inkscape:connector-curvature="0"
         style="fill:#1fab54" /></g></g><g
     id="g6235"
     style="fill:#11accd;fill-opacity:1"
     transform="translate(6.418107,1.8407992)"><g
       id="g6237"
       style="fill:#11accd;fill-opacity:1"><path
         class="st46"
         d="m 163.1,100.9 c -2.2,-2.7 -4.5,-5.1 -7.2,-7.3 -1.5,-1.2 -3.6,0.9 -2.1,2.1 2.6,2.2 5,4.7 7.2,7.3 1.2,1.6 3.3,-0.6 2.1,-2.1 l 0,0 z"
         id="path6239"
         style="fill:#11accd;fill-opacity:1"
         inkscape:connector-curvature="0" /></g></g><g
     id="g6241"
     style="fill:#11accd;fill-opacity:1"
     transform="translate(6.418107,1.8407992)"><g
       id="g6243"
       style="fill:#11accd;fill-opacity:1"><path
         class="st46"
         d="m 163.5,102.4 c 1,-2.7 2.4,-5.2 4.1,-7.5 1.1,-1.6 -1.5,-3.1 -2.6,-1.5 -1.9,2.5 -3.3,5.3 -4.5,8.2 -0.6,1.8 2.3,2.6 3,0.8 l 0,0 z"
         id="path6245"
         style="fill:#11accd;fill-opacity:1"
         inkscape:connector-curvature="0" /></g></g><g
     id="g6247"
     transform="translate(6.418107,1.8407992)"><g
       id="g6249"><path
         class="st24"
         d="m 196,93.8 c -2.5,2.4 -4.8,5.1 -6.9,7.9 -1.1,1.6 1.5,3.1 2.6,1.5 1.9,-2.6 4.1,-5.1 6.4,-7.3 1.4,-1.4 -0.7,-3.5 -2.1,-2.1 l 0,0 z"
         id="path6251"
         inkscape:connector-curvature="0"
         style="fill:#11accd" /></g></g><g
     id="g6253"
     transform="translate(6.418107,1.8407992)"><g
       id="g6255"><path
         class="st24"
         d="m 196.2,95.5 c 2.7,2.3 5,4.9 7.1,7.8 1.1,1.6 3.7,0.1 2.6,-1.5 -2.2,-3.1 -4.7,-5.9 -7.6,-8.4 -1.4,-1.3 -3.5,0.8 -2.1,2.1 l 0,0 z"
         id="path6257"
         inkscape:connector-curvature="0"
         style="fill:#11accd" /></g></g><g
     id="g6259"
     style="fill:#11accd;fill-opacity:1"
     transform="translate(6.418107,1.8407992)"><g
       id="g6261"
       style="fill:#11accd;fill-opacity:1"><path
         class="st46"
         d="m 123.2,59 c 0.2,-1.7 -1.3,-2.8 -2.4,-3.9 -1.3,-1.3 -2.7,-2.7 -4,-4 -1.4,-1.4 -3.5,0.8 -2.1,2.1 1,1 1.9,1.9 2.9,2.9 0.4,0.4 0.9,0.9 1.3,1.3 0.3,0.3 1.4,1.1 1.3,1.6 -0.2,1.9 2.8,1.9 3,0 l 0,0 z"
         id="path6263"
         style="fill:#11accd;fill-opacity:1"
         inkscape:connector-curvature="0" /></g></g><g
     id="g6265"
     style="fill:#11accd;fill-opacity:1"
     transform="translate(6.418107,1.8407992)"><g
       id="g6267"
       style="fill:#11accd;fill-opacity:1"><path
         class="st46"
         d="m 120.7,58.6 c -1.8,2.3 -3.7,4.6 -5.5,6.9 -1.2,1.5 0.9,3.6 2.1,2.1 1.8,-2.3 3.7,-4.6 5.5,-6.9 1.2,-1.5 -0.9,-3.6 -2.1,-2.1 l 0,0 z"
         id="path6269"
         style="fill:#11accd;fill-opacity:1"
         inkscape:connector-curvature="0" /></g></g><g
     id="g6271"
     transform="translate(6.418107,1.8407992)"><g
       id="g6273"><path
         class="st24"
         d="m 239.2,57.1 c -2,-1.3 -4,-2.6 -6,-3.9 -1.6,-1.1 -3.1,1.5 -1.5,2.6 2,1.3 4,2.6 6,3.9 1.6,1 3.1,-1.6 1.5,-2.6 l 0,0 z"
         id="path6275"
         inkscape:connector-curvature="0"
         style="fill:#11accd" /></g></g><g
     id="g6277"
     transform="translate(6.418107,1.8407992)"><g
       id="g6279"><path
         class="st24"
         d="m 236.4,58.6 c -1.8,2.1 -3.5,4.4 -5,6.8 -1,1.6 1.6,3.1 2.6,1.5 1.4,-2.2 2.9,-4.2 4.6,-6.2 1.2,-1.4 -1,-3.5 -2.2,-2.1 l 0,0 z"
         id="path6281"
         inkscape:connector-curvature="0"
         style="fill:#11accd" /></g></g><g
     id="g6283"
     transform="translate(6.418107,1.8407992)"><g
       id="g6285"><path
         class="st24"
         d="m 281.4,100.4 c -2.2,-1.3 -4.2,-2.9 -6.1,-4.7 -1.4,-1.4 -3.5,0.7 -2.1,2.1 2,2 4.2,3.8 6.7,5.2 1.7,1 3.2,-1.6 1.5,-2.6 l 0,0 z"
         id="path6287"
         inkscape:connector-curvature="0"
         style="fill:#11accd" /></g></g><g
     id="g6289"
     transform="translate(6.418107,1.8407992)"><g
       id="g6291"><path
         class="st24"
         d="m 282.4,103.3 c 1.8,-3.6 4,-7 6.7,-10 1.3,-1.4 -0.8,-3.6 -2.1,-2.1 -2.9,3.2 -5.3,6.7 -7.1,10.6 -0.9,1.7 1.7,3.2 2.5,1.5 l 0,0 z"
         id="path6293"
         inkscape:connector-curvature="0"
         style="fill:#11accd" /></g></g><g
     id="g6295"
     style="fill:#11accd;fill-opacity:1"
     transform="translate(6.418107,1.8407992)"><g
       id="g6297"
       style="fill:#11accd;fill-opacity:1"><path
         class="st46"
         d="m 75.6,97.6 c -3.4,3.1 -6.2,6.8 -8.4,10.9 -0.9,1.7 1.7,3.2 2.6,1.5 2,-3.9 4.7,-7.3 7.9,-10.3 1.5,-1.3 -0.6,-3.4 -2.1,-2.1 l 0,0 z"
         id="path6299"
         style="fill:#11accd;fill-opacity:1"
         inkscape:connector-curvature="0" /></g></g><g
     id="g6301"
     style="fill:#11accd;fill-opacity:1"
     transform="translate(6.418107,1.8407992)"><g
       id="g6303"
       style="fill:#11accd;fill-opacity:1"><path
         class="st46"
         d="m 78.3,100.8 c -1,0 -1.1,0.2 -0.4,0.6 0.3,0.3 0.6,0.6 0.9,0.8 0.6,0.6 1.2,1.1 1.7,1.7 1.2,1.1 2.3,2.3 3.5,3.4 1.4,1.4 3.5,-0.8 2.1,-2.1 -1.9,-1.8 -3.7,-3.7 -5.6,-5.5 -1.1,-1.1 -2.8,-2.6 -4.3,-1.1 -1.4,1.5 0.7,3.6 2.1,2.2 l 0,0 z"
         id="path6305"
         style="fill:#11accd;fill-opacity:1"
         inkscape:connector-curvature="0" /></g></g><g
     id="g6307"
     transform="translate(6.418107,1.8407992)"><g
       id="g6309"><path
         class="st35"
         d="m 326.6,73.7 c -0.3,3.9 0,7.7 0.7,11.5 0.4,1.9 3.2,1.1 2.9,-0.8 -0.7,-3.5 -0.8,-7.1 -0.6,-10.7 0.1,-2 -2.9,-2 -3,0 l 0,0 z"
         id="path6311"
         inkscape:connector-curvature="0"
         style="fill:#e07d10" /></g></g><g
     id="g6313"
     transform="translate(6.418107,1.8407992)"><g
       id="g6315"><path
         class="st35"
         d="m 324.6,80.7 c 2.7,-1.4 5.6,-2 8.7,-1.9 1.9,0.1 1.9,-2.9 0,-3 -3.6,-0.1 -7,0.7 -10.2,2.4 -1.7,0.8 -0.2,3.4 1.5,2.5 l 0,0 z"
         id="path6317"
         inkscape:connector-curvature="0"
         style="fill:#e07d10" /></g></g><g
     id="g6319"
     transform="translate(6.418107,1.8407992)"><g
       id="g6321"><path
         class="st35"
         d="m 326.6,126.4 c 2.8,-0.7 5.7,-1 8.6,-0.9 1.9,0.1 1.9,-2.9 0,-3 -3.2,-0.1 -6.3,0.2 -9.4,1 -1.8,0.5 -1,3.4 0.8,2.9 l 0,0 z"
         id="path6323"
         inkscape:connector-curvature="0"
         style="fill:#e07d10" /></g></g><g
     id="g6325"
     transform="translate(6.418107,1.8407992)"><g
       id="g6327"><path
         class="st49"
         d="m 28.2,80.9 c 0.5,3 1,6 1.6,9 0.3,1.9 3.2,1.1 2.9,-0.8 -0.5,-3 -1,-6 -1.6,-9 -0.4,-1.9 -3.3,-1.1 -2.9,0.8 l 0,0 z"
         id="path6329"
         inkscape:connector-curvature="0"
         style="fill:#f3cb9f" /></g></g><g
     id="g6331"
     transform="translate(6.418107,1.8407992)"><g
       id="g6333"><path
         class="st49"
         d="m 26.2,87.7 c 3.3,-1.1 6.6,-1.5 10,-1.4 1.9,0.1 1.9,-2.9 0,-3 -3.7,-0.2 -7.3,0.3 -10.8,1.5 -1.8,0.6 -1,3.5 0.8,2.9 l 0,0 z"
         id="path6335"
         inkscape:connector-curvature="0"
         style="fill:#f3cb9f" /></g></g><g
     id="g6337"
     transform="translate(6.418107,1.8407992)"><g
       id="g6339"><path
         class="st49"
         d="m 28.5,128.5 c 2.9,-0.1 5.8,-0.1 8.8,0.1 1.9,0.1 1.9,-2.9 0,-3 -2.9,-0.2 -5.8,-0.2 -8.8,-0.1 -1.9,0.1 -1.9,3.1 0,3 l 0,0 z"
         id="path6341"
         inkscape:connector-curvature="0"
         style="fill:#f3cb9f" /></g></g></svg>