<?xml version="1.0" encoding="UTF-8" standalone="no"?>
<svg
   xmlns:xhtml="http://www.w3.org/1999/xhtml"
   xmlns:dc="http://purl.org/dc/elements/1.1/"
   xmlns:cc="http://creativecommons.org/ns#"
   xmlns:rdf="http://www.w3.org/1999/02/22-rdf-syntax-ns#"
   xmlns:svg="http://www.w3.org/2000/svg"
   xmlns="http://www.w3.org/2000/svg"
   xmlns:sodipodi="http://sodipodi.sourceforge.net/DTD/sodipodi-0.dtd"
   xmlns:inkscape="http://www.inkscape.org/namespaces/inkscape"
   width="500"
   height="360"
   transform="translate(0,0)"
   version="1.1"
   id="svg2"
   inkscape:version="0.91 r13725"
   sodipodi:docname="rc_natural_response_ex2.svg">
  <metadata
     id="metadata174">
    <rdf:RDF>
      <cc:Work
         rdf:about="">
        <dc:format>image/svg+xml</dc:format>
        <dc:type
           rdf:resource="http://purl.org/dc/dcmitype/StillImage" />
        <dc:title></dc:title>
      </cc:Work>
    </rdf:RDF>
  </metadata>
  <defs
     id="defs172" />
  <sodipodi:namedview
     pagecolor="#ffffff"
     bordercolor="#666666"
     borderopacity="1"
     objecttolerance="10"
     gridtolerance="10"
     guidetolerance="10"
     inkscape:pageopacity="0"
     inkscape:pageshadow="2"
     inkscape:window-width="640"
     inkscape:window-height="480"
     id="namedview170"
     showgrid="false"
     inkscape:zoom="1.356"
     inkscape:cx="250"
     inkscape:cy="180"
     inkscape:current-layer="svg2" />
  <xhtml:defs>
    <xhtml:style
       type="text/css"><![CDATA[
svg .grid { stroke-width: 0.5px; stroke: rgb(187, 187, 187); opacity: 0.5; }
svg .domain { stroke-width: 3px; stroke: black; }
svg { border: none; }
svg .path { stroke-width: 4px; stroke: rgb(255, 156, 57); fill: none; }
svg text { font-style: normal; font-variant: normal; font-weight: normal; font-stretch: normal; font-size: 16px; line-height: normal; font-family: katex_main; }
svg .tick text { font-style: normal; font-variant: normal; font-weight: normal; font-stretch: normal; font-size: 12px; line-height: normal; font-family: katex_math; }]]></xhtml:style>
  </xhtml:defs>
  <path
     class="domain"
     d="m 40.5,280 0,0.5 360,0 0,-0.5"
     id="path8"
     inkscape:connector-curvature="0"
     style="font-size:medium;font-family:sans-serif;text-anchor:middle;fill:none;stroke:#000000" />
  <line
     style="font-size:medium;font-family:sans-serif;text-anchor:middle;fill:none;stroke:#000000"
     x2="40.5"
     y1="280"
     x1="40.5"
     id="line12"
     y2="286" />
  <text
     style="font-style:normal;font-variant:normal;font-weight:normal;font-stretch:normal;font-size:12.5px;line-height:125%;font-family:KaTeX_Main;-inkscape-font-specification:'KaTeX_Main, Normal';text-align:center;writing-mode:lr-tb;text-anchor:middle;fill:#000000"
     id="text14"
     dy="0"
     y="299.62991"
     x="40.5"
     sodipodi:linespacing="125%">-1</text>
  <line
     style="font-size:medium;font-family:sans-serif;text-anchor:middle;fill:none"
     id="line16"
     y2="320"
     x2="40.5"
     y1="40"
     x1="40.5"
     class="grid" />
  <line
     style="font-size:medium;font-family:sans-serif;text-anchor:middle;fill:none;stroke:#000000"
     x2="80.5"
     y1="280"
     x1="80.5"
     id="line20"
     y2="286" />
  <line
     style="font-size:medium;font-family:sans-serif;text-anchor:middle;fill:none"
     id="line22"
     y2="320"
     x2="80.5"
     y1="40"
     x1="80.5"
     class="grid" />
  <line
     style="font-size:medium;font-family:sans-serif;text-anchor:middle;fill:none;stroke:#000000"
     x2="120.5"
     y1="280"
     x1="120.5"
     id="line26"
     y2="286" />
  <text
     style="font-style:normal;font-variant:normal;font-weight:normal;font-stretch:normal;font-size:12.5px;line-height:125%;font-family:KaTeX_Main;-inkscape-font-specification:'KaTeX_Main, Normal';text-align:center;writing-mode:lr-tb;text-anchor:middle;fill:#000000"
     id="text28"
     dy="0"
     y="299.62991"
     x="120.50001"
     sodipodi:linespacing="125%">1</text>
  <line
     style="font-size:medium;font-family:sans-serif;text-anchor:middle;fill:none"
     id="line30"
     y2="320"
     x2="120.5"
     y1="40"
     x1="120.5"
     class="grid" />
  <line
     style="font-size:medium;font-family:sans-serif;text-anchor:middle;fill:none;stroke:#000000"
     x2="160.5"
     y1="280"
     x1="160.5"
     id="line34"
     y2="286" />
  <text
     style="font-style:normal;font-variant:normal;font-weight:normal;font-stretch:normal;font-size:12.5px;line-height:125%;font-family:KaTeX_Main;-inkscape-font-specification:'KaTeX_Main, Normal';text-align:center;writing-mode:lr-tb;text-anchor:middle;fill:#000000"
     id="text36"
     dy="0"
     y="299.62991"
     x="160.5"
     sodipodi:linespacing="125%">2</text>
  <line
     style="font-size:medium;font-family:sans-serif;text-anchor:middle;fill:none"
     id="line38"
     y2="320"
     x2="160.5"
     y1="40"
     x1="160.5"
     class="grid" />
  <line
     style="font-size:medium;font-family:sans-serif;text-anchor:middle;fill:none;stroke:#000000"
     x2="200.5"
     y1="280"
     x1="200.5"
     id="line42"
     y2="286" />
  <text
     style="font-style:normal;font-variant:normal;font-weight:normal;font-stretch:normal;font-size:12.5px;line-height:125%;font-family:KaTeX_Main;-inkscape-font-specification:'KaTeX_Main, Normal';text-align:center;writing-mode:lr-tb;text-anchor:middle;fill:#000000"
     id="text44"
     dy="0"
     y="299.62991"
     x="200.5"
     sodipodi:linespacing="125%">3</text>
  <line
     style="font-size:medium;font-family:sans-serif;text-anchor:middle;fill:none"
     id="line46"
     y2="320"
     x2="200.5"
     y1="40"
     x1="200.5"
     class="grid" />
  <line
     style="font-size:medium;font-family:sans-serif;text-anchor:middle;fill:none;stroke:#000000"
     x2="240.5"
     y1="280"
     x1="240.5"
     id="line50"
     y2="286" />
  <text
     style="font-style:normal;font-variant:normal;font-weight:normal;font-stretch:normal;font-size:12.5px;line-height:125%;font-family:KaTeX_Main;-inkscape-font-specification:'KaTeX_Main, Normal';text-align:center;writing-mode:lr-tb;text-anchor:middle;fill:#000000"
     id="text52"
     dy="0"
     y="299.62991"
     x="240.5"
     sodipodi:linespacing="125%">4</text>
  <line
     style="font-size:medium;font-family:sans-serif;text-anchor:middle;fill:none"
     id="line54"
     y2="320"
     x2="240.5"
     y1="40"
     x1="240.5"
     class="grid" />
  <line
     style="font-size:medium;font-family:sans-serif;text-anchor:middle;fill:none;stroke:#000000"
     x2="280.5"
     y1="280"
     x1="280.5"
     id="line58"
     y2="286" />
  <text
     style="font-style:normal;font-variant:normal;font-weight:normal;font-stretch:normal;font-size:12.5px;line-height:125%;font-family:KaTeX_Main;-inkscape-font-specification:'KaTeX_Main, Normal';text-align:center;writing-mode:lr-tb;text-anchor:middle;fill:#000000"
     id="text60"
     dy="0"
     y="299.62991"
     x="280.5"
     sodipodi:linespacing="125%">5</text>
  <line
     style="font-size:medium;font-family:sans-serif;text-anchor:middle;fill:none"
     id="line62"
     y2="320"
     x2="280.5"
     y1="40"
     x1="280.5"
     class="grid" />
  <line
     style="font-size:medium;font-family:sans-serif;text-anchor:middle;fill:none;stroke:#000000"
     x2="320.5"
     y1="280"
     x1="320.5"
     id="line66"
     y2="286" />
  <text
     style="font-style:normal;font-variant:normal;font-weight:normal;font-stretch:normal;font-size:12.5px;line-height:125%;font-family:KaTeX_Main;-inkscape-font-specification:'KaTeX_Main, Normal';text-align:center;writing-mode:lr-tb;text-anchor:middle;fill:#000000"
     id="text68"
     dy="0"
     y="299.62991"
     x="320.5"
     sodipodi:linespacing="125%">6</text>
  <line
     style="font-size:medium;font-family:sans-serif;text-anchor:middle;fill:none"
     id="line70"
     y2="320"
     x2="320.5"
     y1="40"
     x1="320.5"
     class="grid" />
  <line
     style="font-size:medium;font-family:sans-serif;text-anchor:middle;fill:none;stroke:#000000"
     x2="360.5"
     y1="280"
     x1="360.5"
     id="line74"
     y2="286" />
  <text
     style="font-style:normal;font-variant:normal;font-weight:normal;font-stretch:normal;font-size:12.5px;line-height:125%;font-family:KaTeX_Main;-inkscape-font-specification:'KaTeX_Main, Normal';text-align:center;writing-mode:lr-tb;text-anchor:middle;fill:#000000"
     id="text76"
     dy="0"
     y="299.62991"
     x="360.5"
     sodipodi:linespacing="125%">7</text>
  <line
     style="font-size:medium;font-family:sans-serif;text-anchor:middle;fill:none"
     id="line78"
     y2="320"
     x2="360.5"
     y1="40"
     x1="360.5"
     class="grid" />
  <line
     style="font-size:medium;font-family:sans-serif;text-anchor:middle;fill:none;stroke:#000000"
     x2="400.5"
     y1="280"
     x1="400.5"
     id="line82"
     y2="286" />
  <text
     style="font-style:normal;font-variant:normal;font-weight:normal;font-stretch:normal;font-size:12.5px;line-height:125%;font-family:KaTeX_Main;-inkscape-font-specification:'KaTeX_Main, Normal';text-align:center;writing-mode:lr-tb;text-anchor:middle;fill:#000000"
     id="text84"
     dy="0"
     y="299.62991"
     x="400.5"
     sodipodi:linespacing="125%">8</text>
  <line
     style="font-size:medium;font-family:sans-serif;text-anchor:middle;fill:none"
     id="line86"
     y2="320"
     x2="400.5"
     y1="40"
     x1="400.5"
     class="grid" />
  <text
     x="449.60626"
     dx="0"
     style="font-style:normal;font-variant:normal;font-weight:normal;font-stretch:normal;font-size:22.5px;line-height:125%;font-family:KaTeX_Main;-inkscape-font-specification:'KaTeX_Main, Normal';text-align:center;writing-mode:lr-tb;text-anchor:middle;fill:#000000"
     id="text88"
     y="283.5433"
     sodipodi:linespacing="125%"><tspan
   style="-inkscape-font-specification:'KaTeX_Math, Normal';font-family:KaTeX_Math;font-weight:normal;font-style:normal;font-stretch:normal;font-variant:normal;font-size:22.5px;text-anchor:middle;text-align:center;writing-mode:lr;line-height:125%"
   id="tspan4510">t</tspan>
 (nsec)</text>
  <path
     class="domain"
     d="m 80,320.5 0.5,0 0,-280 -0.5,0"
     id="path92"
     inkscape:connector-curvature="0"
     style="font-size:medium;font-family:sans-serif;text-anchor:end;fill:none;stroke:#000000" />
  <line
     style="font-size:medium;font-family:sans-serif;text-anchor:end;fill:none;stroke:#000000"
     y2="320.5"
     y1="320.5"
     x1="80"
     id="line96"
     x2="74" />
  <text
     style="font-style:normal;font-variant:normal;font-weight:normal;font-stretch:normal;font-size:12.5px;line-height:125%;font-family:KaTeX_Main;-inkscape-font-specification:'KaTeX_Main, Normal';text-align:center;writing-mode:lr-tb;text-anchor:middle;fill:#000000"
     id="text98"
     dy="0"
     x="61.825985"
     y="324.0433"
     sodipodi:linespacing="125%">-0.2</text>
  <line
     style="font-size:medium;font-family:sans-serif;text-anchor:end;fill:none"
     id="line100"
     y2="320.5"
     x2="400"
     y1="320.5"
     x1="40"
     class="grid" />
  <line
     style="font-size:medium;font-family:sans-serif;text-anchor:end;fill:none;stroke:#000000"
     y2="280.5"
     y1="280.5"
     x1="80"
     id="line104"
     x2="74" />
  <line
     style="font-size:medium;font-family:sans-serif;text-anchor:end;fill:none"
     id="line106"
     y2="280.5"
     x2="400"
     y1="280.5"
     x1="40"
     class="grid" />
  <line
     style="font-size:medium;font-family:sans-serif;text-anchor:end;fill:none;stroke:#000000"
     y2="240.5"
     y1="240.5"
     x1="80"
     id="line110"
     x2="74" />
  <text
     style="font-style:normal;font-variant:normal;font-weight:normal;font-stretch:normal;font-size:12.5px;line-height:125%;font-family:KaTeX_Main;-inkscape-font-specification:'KaTeX_Main, Normal';text-align:center;writing-mode:lr-tb;text-anchor:middle;fill:#000000"
     id="text112"
     dy="0"
     x="63.913387"
     y="244.0433"
     sodipodi:linespacing="125%">0.2</text>
  <line
     style="font-size:medium;font-family:sans-serif;text-anchor:end;fill:none"
     id="line114"
     y2="240.5"
     x2="400"
     y1="240.5"
     x1="40"
     class="grid" />
  <line
     style="font-size:medium;font-family:sans-serif;text-anchor:end;fill:none;stroke:#000000"
     y2="200.5"
     y1="200.5"
     x1="80"
     id="line118"
     x2="74" />
  <text
     style="font-style:normal;font-variant:normal;font-weight:normal;font-stretch:normal;font-size:12.5px;line-height:125%;font-family:KaTeX_Main;-inkscape-font-specification:'KaTeX_Main, Normal';text-align:center;writing-mode:lr-tb;text-anchor:middle;fill:#000000"
     id="text120"
     dy="0"
     x="63.638386"
     y="204.0433"
     sodipodi:linespacing="125%">0.4</text>
  <line
     style="font-size:medium;font-family:sans-serif;text-anchor:end;fill:none"
     id="line122"
     y2="200.5"
     x2="400"
     y1="200.5"
     x1="40"
     class="grid" />
  <line
     style="font-size:medium;font-family:sans-serif;text-anchor:end;fill:none;stroke:#000000"
     y2="160.5"
     y1="160.5"
     x1="80"
     id="line126"
     x2="74" />
  <text
     style="font-style:normal;font-variant:normal;font-weight:normal;font-stretch:normal;font-size:12.5px;line-height:125%;font-family:KaTeX_Main;-inkscape-font-specification:'KaTeX_Main, Normal';text-align:center;writing-mode:lr-tb;text-anchor:middle;fill:#000000"
     id="text128"
     dy="0"
     x="63.825886"
     y="164.0433"
     sodipodi:linespacing="125%">0.6</text>
  <line
     style="font-size:medium;font-family:sans-serif;text-anchor:end;fill:none"
     id="line130"
     y2="160.5"
     x2="400"
     y1="160.5"
     x1="40"
     class="grid" />
  <line
     style="font-size:medium;font-family:sans-serif;text-anchor:end;fill:none;stroke:#000000"
     y2="120.5"
     y1="120.5"
     x1="80"
     id="line134"
     x2="74" />
  <text
     style="font-style:normal;font-variant:normal;font-weight:normal;font-stretch:normal;font-size:12.5px;line-height:125%;font-family:KaTeX_Main;-inkscape-font-specification:'KaTeX_Main, Normal';text-align:center;writing-mode:lr-tb;text-anchor:middle;fill:#000000"
     id="text136"
     dy="0"
     x="63.813389"
     y="124.0433"
     sodipodi:linespacing="125%">0.8</text>
  <line
     style="font-size:medium;font-family:sans-serif;text-anchor:end;fill:none"
     id="line138"
     y2="120.5"
     x2="400"
     y1="120.5"
     x1="40"
     class="grid" />
  <line
     style="font-size:medium;font-family:sans-serif;text-anchor:end;fill:none;stroke:#000000"
     y2="80.5"
     y1="80.5"
     x1="80"
     id="line142"
     x2="74" />
  <text
     style="font-style:normal;font-variant:normal;font-weight:normal;font-stretch:normal;font-size:12.5px;line-height:125%;font-family:KaTeX_Main;-inkscape-font-specification:'KaTeX_Main, Normal';text-align:center;writing-mode:lr-tb;text-anchor:middle;fill:#000000"
     id="text144"
     dy="0"
     x="63.775887"
     y="84.043304"
     sodipodi:linespacing="125%">1.0</text>
  <line
     style="font-size:medium;font-family:sans-serif;text-anchor:end;fill:none"
     id="line146"
     y2="80.5"
     x2="400"
     y1="80.5"
     x1="40"
     class="grid" />
  <line
     style="font-size:medium;font-family:sans-serif;text-anchor:end;fill:none;stroke:#000000"
     y2="40.5"
     y1="40.5"
     x1="80"
     id="line150"
     x2="74" />
  <text
     style="font-style:normal;font-variant:normal;font-weight:normal;font-stretch:normal;font-size:12.5px;line-height:125%;font-family:KaTeX_Main;-inkscape-font-specification:'KaTeX_Main, Normal';text-align:center;writing-mode:lr-tb;text-anchor:middle;fill:#000000"
     id="text152"
     dy="0"
     x="63.913387"
     y="44.043308"
     sodipodi:linespacing="125%">1.2</text>
  <line
     style="font-size:medium;font-family:sans-serif;text-anchor:end;fill:none"
     id="line154"
     y2="40.5"
     x2="400"
     y1="40.5"
     x1="40"
     class="grid" />
  <text
     dy="-12"
     style="font-style:normal;font-variant:normal;font-weight:normal;font-stretch:normal;font-size:22.5px;line-height:125%;font-family:KaTeX_Main;-inkscape-font-specification:'KaTeX_Main, Normal';text-align:center;writing-mode:lr;text-anchor:middle;fill:#000000;"
     id="text156"
     x="72.913391"
     y="40"
     sodipodi:linespacing="125%"><tspan
   style="-inkscape-font-specification:'KaTeX_Math, Normal';font-family:KaTeX_Math;font-weight:normal;font-style:normal;font-stretch:normal;font-variant:normal;font-size:22.5px;text-anchor:middle;text-align:center;writing-mode:lr;line-height:125%"
   id="tspan4514">v</tspan>
 (volts)</text>
  <path
     inkscape:connector-curvature="0"
     id="path158"
     style="fill:none;stroke-width:3px;stroke:#ff7f2a;stroke-linecap:round"
     d="m 80,80 1.6,7.842112 1.6,7.534619 1.6,7.239179 1.6,6.95533 1.6,6.68261 1.6,6.42058 1.6,6.16882 1.6,5.92694 1.6,5.69454 1.6,5.47126 1.6,5.25673 1.6,5.0506 1.6,4.85257 1.6,4.6623 1.6,4.47948 1.6,4.30385 1.6,4.13508 1.6,3.97295 1.6,3.81716 1.6,3.6675 1.6,3.52369 1.6,3.38552 1.6,3.25277 1.6,3.12523 1.6,3.00269 1.6,2.88495 1.6,2.77183 1.6,2.66315 1.6,2.55872 1.6,2.4584 1.6,2.362 1.6,2.26938 1.6,2.1804 1.6,2.0949 1.6,2.01277 1.6,1.93384 1.6,1.85801 1.6,1.78516 1.6,1.71517 1.6,1.64791 1.6,1.58329 1.6,1.52121 1.6,1.46157 1.6,1.40426 1.6,1.34919 1.6,1.29629 1.6,1.24547 1.6,1.19663 1.6,1.14971 1.6,1.10462 1.6,1.06132 1.6,1.0197 1.6,0.97971 1.6,0.94131 1.6,0.90439 1.6,0.86893 1.6,0.83486 1.6,0.80212 1.6,0.77068 1.6,0.74045 1.6,0.71142 1.6,0.68352 1.6,0.65673 1.6,0.63097 1.6,0.60623 1.6,0.58247 1.6,0.55962 1.6,0.53768 1.6,0.5166 1.6,0.49634 1.6,0.47688 1.6,0.45818 1.6,0.44021 1.6,0.42296 1.6,0.40637 1.6,0.39043 1.6,0.37513 1.6,0.36042 1.6,0.34628 1.6,0.33271 1.6,0.31966 1.6,0.30713 1.6,0.29508 1.6,0.28352 1.6,0.2724 1.6,0.26171 1.6,0.25146 1.6,0.24159 1.6,0.23213 1.6,0.22302 1.6,0.21427 1.6,0.20588 1.6,0.1978 1.6,0.19004 1.6,0.1826 1.6,0.17543 1.6,0.16855 1.6,0.16195 1.6,0.1556 1.6,0.14949 1.6,0.14364 1.6,0.138 1.6,0.13259 1.6,0.12739 1.6,0.12239 1.6,0.1176 1.6,0.11299 1.6,0.10855 1.6,0.1043 1.6,0.10021 1.6,0.0963 1.6,0.0925 1.6,0.0889 1.6,0.0854 1.6,0.082 1.6,0.0788 1.6,0.0757 1.6,0.0728 1.6,0.0699 1.6,0.0672 1.6,0.0645 1.6,0.062 1.6,0.0596 1.6,0.0572 1.6,0.055 1.6,0.0528 1.6,0.0508 1.6,0.0488 1.6,0.0469 1.6,0.045 1.6,0.0433 1.6,0.0416 1.6,0.0399 1.6,0.0384 1.6,0.0369 1.6,0.0354 1.6,0.034 1.6,0.0327 1.6,0.0314 1.6,0.0302 1.6,0.029 1.6,0.0279 1.6,0.0268 1.6,0.0257 1.6,0.0247 1.6,0.0237 1.6,0.0228 1.6,0.0219 1.6,0.0211 1.6,0.0202 1.6,0.0194 1.6,0.0187 1.6,0.0179 1.6,0.0172 1.6,0.0166 1.6,0.0159 1.6,0.0153 1.6,0.0147 1.6,0.0141 1.6,0.0136 1.6,0.013 1.6,0.0125 1.6,0.012 1.6,0.0115 1.6,0.0111 1.6,0.0107 1.6,0.0103 1.6,0.01 1.6,0.009 1.6,0.009 1.6,0.009 1.6,0.008 1.6,0.008 1.6,0.008 1.6,0.007 1.6,0.007 1.6,0.007 1.6,0.007 1.6,0.006 1.6,0.006 1.6,0.006 1.6,0.006 1.6,0.005 1.6,0.005 1.6,0.005 1.6,0.005 1.6,0.005 1.6,0.004 1.6,0.004 1.6,0.004 1.6,0.004 1.6,0.004 1.6,0.004 1.6,0.003 1.6,0.003 1.6,0.003 1.6,0.003 1.6,0.003 1.6,0.003 1.6,0.003"
     class="path" />
  <path
     inkscape:connector-curvature="0"
     id="path160"
     d="m 40,80 40,0"
     class="path"
     style="stroke:#ff7f2a;stroke-width:3;stroke-miterlimit:4;stroke-dasharray:none;stroke-linecap:round" />
  <circle
     id="circle162"
     style="fill:#f9685d;stroke:#ff7f2a"
     r="5"
     cy="270"
     cx="200" />
  <text
     id="text164"
     style="font-style:normal;font-variant:normal;font-weight:normal;font-stretch:normal;font-size:22.5px;line-height:125%;font-family:KaTeX_Main;-inkscape-font-specification:'KaTeX_Main, Normal';text-align:center;writing-mode:lr-tb;text-anchor:middle;fill:#000000"
     y="90.629913"
     x="269.37009"
     sodipodi:linespacing="125%"
     dx="0 0 0 0 0 3">R = 1kΩ</text>
  <text
     id="text166"
     style="font-style:normal;font-variant:normal;font-weight:normal;font-stretch:normal;font-size:22.5px;line-height:125%;font-family:KaTeX_Main;-inkscape-font-specification:'KaTeX_Main, Normal';text-align:center;writing-mode:lr-tb;text-anchor:middle;fill:#000000"
     y="130.62991"
     x="269.37009"
     sodipodi:linespacing="125%"
     dx="0 0 0 0 0 3">C = 1pF</text>
  <text
     id="text168"
     style="font-style:normal;font-variant:normal;font-weight:normal;font-stretch:normal;font-size:22.5px;line-height:125%;font-family:KaTeX_Main;-inkscape-font-specification:'KaTeX_Main, Normal';text-align:center;writing-mode:lr-tb;text-anchor:middle;fill:#000000"
     y="170.62991"
     x="269.37009"
     sodipodi:linespacing="125%"
     dx="0 0 0 0 0 0 0 0 3">V<tspan
   style="font-size:64.99999762%;baseline-shift:sub"
   id="tspan4512">0</tspan>
 = 1.0V</text>
</svg>
