<?xml version="1.0" encoding="UTF-8" standalone="no"?>
<svg
   xmlns:xhtml="http://www.w3.org/1999/xhtml"
   xmlns:dc="http://purl.org/dc/elements/1.1/"
   xmlns:cc="http://creativecommons.org/ns#"
   xmlns:rdf="http://www.w3.org/1999/02/22-rdf-syntax-ns#"
   xmlns:svg="http://www.w3.org/2000/svg"
   xmlns="http://www.w3.org/2000/svg"
   xmlns:sodipodi="http://sodipodi.sourceforge.net/DTD/sodipodi-0.dtd"
   xmlns:inkscape="http://www.inkscape.org/namespaces/inkscape"
   width="428"
   height="320"
   transform="translate(0,0)"
   version="1.1"
   id="svg2"
   inkscape:version="0.91 r13725"
   sodipodi:docname="rc_natural_response_voltage.svg">
  <metadata
     id="metadata174">
    <rdf:RDF>
      <cc:Work
         rdf:about="">
        <dc:format>image/svg+xml</dc:format>
        <dc:type
           rdf:resource="http://purl.org/dc/dcmitype/StillImage" />
        <dc:title></dc:title>
      </cc:Work>
    </rdf:RDF>
  </metadata>
  <defs
     id="defs172" />
  <sodipodi:namedview
     pagecolor="#ffffff"
     bordercolor="#666666"
     borderopacity="1"
     objecttolerance="10"
     gridtolerance="10"
     guidetolerance="10"
     inkscape:pageopacity="0"
     inkscape:pageshadow="2"
     inkscape:window-width="640"
     inkscape:window-height="480"
     id="namedview170"
     showgrid="false"
     inkscape:zoom="1.5841121"
     inkscape:cx="214"
     inkscape:cy="160"
     inkscape:current-layer="svg2" />
  <xhtml:defs>
    <xhtml:style
       type="text/css"><![CDATA[
svg .grid { stroke-width: 0.5px; stroke: rgb(187, 187, 187); opacity: 0.5; }
svg .domain { stroke-width: 3px; stroke: black; }
svg { border: none; }
svg .path { stroke-width: 4px; stroke: rgb(255, 156, 57); fill: none; }
svg text { font-style: normal; font-variant: normal; font-weight: normal; font-stretch: normal; font-size: 16px; line-height: normal; font-family: katex_main; }
svg .tick text { font-style: normal; font-variant: normal; font-weight: normal; font-stretch: normal; font-size: 12px; line-height: normal; font-family: katex_math; }]]></xhtml:style>
  </xhtml:defs>
  <path
     class="domain"
     d="m 40.5,232 0,0.5 288,0 0,-0.5"
     id="path8"
     inkscape:connector-curvature="0"
     style="font-size:medium;font-family:sans-serif;text-anchor:middle;fill:none;stroke:#000000" />
  <line
     style="font-size:medium;font-family:sans-serif;text-anchor:middle;fill:none;stroke:#000000"
     x2="40.5"
     y1="232"
     x1="40.5"
     id="line12"
     y2="238" />
  <line
     style="font-size:medium;font-family:sans-serif;text-anchor:middle;fill:none"
     id="line14"
     y2="280"
     x2="40.5"
     y1="40"
     x1="40.5"
     class="grid" />
  <line
     style="font-size:medium;font-family:sans-serif;text-anchor:middle;fill:none;stroke:#000000"
     x2="64.5"
     y1="232"
     x1="64.5"
     id="line18"
     y2="238" />
  <line
     style="font-size:medium;font-family:sans-serif;text-anchor:middle;fill:none"
     id="line20"
     y2="280"
     x2="64.5"
     y1="40"
     x1="64.5"
     class="grid" />
  <line
     style="font-size:medium;font-family:sans-serif;text-anchor:middle;fill:none;stroke:#000000"
     x2="88.5"
     y1="232"
     x1="88.5"
     id="line24"
     y2="238" />
  <line
     style="font-size:medium;font-family:sans-serif;text-anchor:middle;fill:none"
     id="line26"
     y2="280"
     x2="88.5"
     y1="40"
     x1="88.5"
     class="grid" />
  <line
     style="font-size:medium;font-family:sans-serif;text-anchor:middle;fill:none;stroke:#000000"
     x2="112.5"
     y1="232"
     x1="112.5"
     id="line30"
     y2="238" />
  <line
     style="font-size:medium;font-family:sans-serif;text-anchor:middle;fill:none"
     id="line32"
     y2="280"
     x2="112.5"
     y1="40"
     x1="112.5"
     class="grid" />
  <line
     style="font-size:medium;font-family:sans-serif;text-anchor:middle;fill:none;stroke:#000000"
     x2="136.5"
     y1="232"
     x1="136.5"
     id="line36"
     y2="238" />
  <line
     style="font-size:medium;font-family:sans-serif;text-anchor:middle;fill:none"
     id="line38"
     y2="280"
     x2="136.5"
     y1="40"
     x1="136.5"
     class="grid" />
  <line
     style="font-size:medium;font-family:sans-serif;text-anchor:middle;fill:none;stroke:#000000"
     x2="160.5"
     y1="232"
     x1="160.5"
     id="line42"
     y2="238" />
  <line
     style="font-size:medium;font-family:sans-serif;text-anchor:middle;fill:none"
     id="line44"
     y2="280"
     x2="160.5"
     y1="40"
     x1="160.5"
     class="grid" />
  <line
     style="font-size:medium;font-family:sans-serif;text-anchor:middle;fill:none;stroke:#000000"
     x2="184.5"
     y1="232"
     x1="184.5"
     id="line48"
     y2="238" />
  <line
     style="font-size:medium;font-family:sans-serif;text-anchor:middle;fill:none"
     id="line50"
     y2="280"
     x2="184.5"
     y1="40"
     x1="184.5"
     class="grid" />
  <line
     style="font-size:medium;font-family:sans-serif;text-anchor:middle;fill:none;stroke:#000000"
     x2="208.5"
     y1="232"
     x1="208.5"
     id="line54"
     y2="238" />
  <line
     style="font-size:medium;font-family:sans-serif;text-anchor:middle;fill:none"
     id="line56"
     y2="280"
     x2="208.5"
     y1="40"
     x1="208.5"
     class="grid" />
  <line
     style="font-size:medium;font-family:sans-serif;text-anchor:middle;fill:none;stroke:#000000"
     x2="232.5"
     y1="232"
     x1="232.5"
     id="line60"
     y2="238" />
  <line
     style="font-size:medium;font-family:sans-serif;text-anchor:middle;fill:none"
     id="line62"
     y2="280"
     x2="232.5"
     y1="40"
     x1="232.5"
     class="grid" />
  <line
     style="font-size:medium;font-family:sans-serif;text-anchor:middle;fill:none;stroke:#000000"
     x2="256.5"
     y1="232"
     x1="256.5"
     id="line66"
     y2="238" />
  <line
     style="font-size:medium;font-family:sans-serif;text-anchor:middle;fill:none"
     id="line68"
     y2="280"
     x2="256.5"
     y1="40"
     x1="256.5"
     class="grid" />
  <line
     style="font-size:medium;font-family:sans-serif;text-anchor:middle;fill:none;stroke:#000000"
     x2="280.5"
     y1="232"
     x1="280.5"
     id="line72"
     y2="238" />
  <line
     style="font-size:medium;font-family:sans-serif;text-anchor:middle;fill:none"
     id="line74"
     y2="280"
     x2="280.5"
     y1="40"
     x1="280.5"
     class="grid" />
  <line
     style="font-size:medium;font-family:sans-serif;text-anchor:middle;fill:none;stroke:#000000"
     x2="304.5"
     y1="232"
     x1="304.5"
     id="line78"
     y2="238" />
  <line
     style="font-size:medium;font-family:sans-serif;text-anchor:middle;fill:none"
     id="line80"
     y2="280"
     x2="304.5"
     y1="40"
     x1="304.5"
     class="grid" />
  <line
     style="font-size:medium;font-family:sans-serif;text-anchor:middle;fill:none;stroke:#000000"
     x2="328.5"
     y1="232"
     x1="328.5"
     id="line84"
     y2="238" />
  <line
     style="font-size:medium;font-family:sans-serif;text-anchor:middle;fill:none"
     id="line86"
     y2="280"
     x2="328.5"
     y1="40"
     x1="328.5"
     class="grid" />
  <text
     x="338.62991"
     dx="0"
     style="font-style:italic;font-variant:normal;font-weight:normal;font-stretch:normal;font-size:22.5px;line-height:125%;font-family:KaTeX_Math;-inkscape-font-specification:'KaTeX_Math, Italic';text-align:start;writing-mode:lr-tb;text-anchor:start;fill:#000000"
     id="text88"
     y="235.5433"
     sodipodi:linespacing="125%">t</text>
  <path
     class="domain"
     d="m 88,280.5 0.5,0 0,-240 -0.5,0"
     id="path92"
     inkscape:connector-curvature="0"
     style="font-size:medium;font-family:sans-serif;text-anchor:end;fill:none;stroke:#000000" />
  <line
     style="font-size:medium;font-family:sans-serif;text-anchor:end;fill:none;stroke:#000000"
     y2="280.5"
     y1="280.5"
     x1="88"
     id="line96"
     x2="82" />
  <line
     style="font-size:medium;font-family:sans-serif;text-anchor:end;fill:none"
     id="line98"
     y2="280.5"
     x2="328"
     y1="280.5"
     x1="40"
     class="grid" />
  <line
     style="font-size:medium;font-family:sans-serif;text-anchor:end;fill:none;stroke:#000000"
     y2="256.5"
     y1="256.5"
     x1="88"
     id="line102"
     x2="82" />
  <line
     style="font-size:medium;font-family:sans-serif;text-anchor:end;fill:none"
     id="line104"
     y2="256.5"
     x2="328"
     y1="256.5"
     x1="40"
     class="grid" />
  <line
     style="font-size:medium;font-family:sans-serif;text-anchor:end;fill:none;stroke:#000000"
     y2="232.5"
     y1="232.5"
     x1="88"
     id="line108"
     x2="82" />
  <line
     style="font-size:medium;font-family:sans-serif;text-anchor:end;fill:none"
     id="line110"
     y2="232.5"
     x2="328"
     y1="232.5"
     x1="40"
     class="grid" />
  <line
     style="font-size:medium;font-family:sans-serif;text-anchor:end;fill:none;stroke:#000000"
     y2="208.5"
     y1="208.5"
     x1="88"
     id="line114"
     x2="82" />
  <line
     style="font-size:medium;font-family:sans-serif;text-anchor:end;fill:none"
     id="line116"
     y2="208.5"
     x2="328"
     y1="208.5"
     x1="40"
     class="grid" />
  <line
     style="font-size:medium;font-family:sans-serif;text-anchor:end;fill:none;stroke:#000000"
     y2="184.5"
     y1="184.5"
     x1="88"
     id="line120"
     x2="82" />
  <line
     style="font-size:medium;font-family:sans-serif;text-anchor:end;fill:none"
     id="line122"
     y2="184.5"
     x2="328"
     y1="184.5"
     x1="40"
     class="grid" />
  <line
     style="font-size:medium;font-family:sans-serif;text-anchor:end;fill:none;stroke:#000000"
     y2="160.5"
     y1="160.5"
     x1="88"
     id="line126"
     x2="82" />
  <line
     style="font-size:medium;font-family:sans-serif;text-anchor:end;fill:none"
     id="line128"
     y2="160.5"
     x2="328"
     y1="160.5"
     x1="40"
     class="grid" />
  <line
     style="font-size:medium;font-family:sans-serif;text-anchor:end;fill:none;stroke:#000000"
     y2="136.5"
     y1="136.5"
     x1="88"
     id="line132"
     x2="82" />
  <line
     style="font-size:medium;font-family:sans-serif;text-anchor:end;fill:none"
     id="line134"
     y2="136.5"
     x2="328"
     y1="136.5"
     x1="40"
     class="grid" />
  <line
     style="font-size:medium;font-family:sans-serif;text-anchor:end;fill:none;stroke:#000000"
     y2="112.5"
     y1="112.5"
     x1="88"
     id="line138"
     x2="82" />
  <line
     style="font-size:medium;font-family:sans-serif;text-anchor:end;fill:none"
     id="line140"
     y2="112.5"
     x2="328"
     y1="112.5"
     x1="40"
     class="grid" />
  <line
     style="font-size:medium;font-family:sans-serif;text-anchor:end;fill:none;stroke:#000000"
     y2="88.5"
     y1="88.5"
     x1="88"
     id="line144"
     x2="82" />
  <line
     style="font-size:medium;font-family:sans-serif;text-anchor:end;fill:none"
     id="line146"
     y2="88.5"
     x2="328"
     y1="88.5"
     x1="40"
     class="grid" />
  <line
     style="font-size:medium;font-family:sans-serif;text-anchor:end;fill:none;stroke:#000000"
     y2="64.5"
     y1="64.5"
     x1="88"
     id="line150"
     x2="82" />
  <line
     style="font-size:medium;font-family:sans-serif;text-anchor:end;fill:none"
     id="line152"
     y2="64.5"
     x2="328"
     y1="64.5"
     x1="40"
     class="grid" />
  <line
     style="font-size:medium;font-family:sans-serif;text-anchor:end;fill:none;stroke:#000000"
     y2="40.5"
     y1="40.5"
     x1="88"
     id="line156"
     x2="82" />
  <line
     style="font-size:medium;font-family:sans-serif;text-anchor:end;fill:none"
     id="line158"
     y2="40.5"
     x2="328"
     y1="40.5"
     x1="40"
     class="grid" />
  <text
     dy="-12"
     style="font-style:italic;font-size:22.5px;font-family:KaTeX_Math;text-anchor:start;fill:#000000;-inkscape-font-specification:'KaTeX_Math, Italic';font-weight:normal;font-stretch:normal;font-variant:normal;text-align:start;writing-mode:lr;line-height:125%;"
     id="text160"
     x="88"
     y="40"
     sodipodi:linespacing="125%">v</text>
  <path
     inkscape:connector-curvature="0"
     id="path162"
     style="fill:none;stroke:#ff7f2a;stroke-width:3;stroke-miterlimit:4;stroke-dasharray:none;stroke-linecap:round"
     d="m 88,64 1.2,5.507695 1.2,5.327132 1.2,5.152487 1.2,4.983568 1.2,4.820188 1.2,4.662163 1.2,4.50932 1.2,4.361487 1.2,4.2185 1.2,4.0802 1.2,3.94644 1.2,3.81705 1.2,3.69192 1.2,3.57088 1.2,3.45382 1.2,3.34059 1.2,3.23106 1.2,3.12514 1.2,3.02269 1.2,2.92359 1.2,2.82775 1.2,2.73504 1.2,2.64537 1.2,2.55865 1.2,2.47477 1.2,2.39364 1.2,2.31516 1.2,2.23926 1.2,2.16585 1.2,2.09484 1.2,2.02617 1.2,1.95974 1.2,1.8955 1.2,1.83335 1.2,1.77325 1.2,1.71511 1.2,1.65889 1.2,1.6045 1.2,1.5519 1.2,1.50102 1.2,1.45181 1.2,1.40422 1.2,1.35818 1.2,1.31366 1.2,1.27058 1.2,1.22894 1.2,1.18864 1.2,1.14967 1.2,1.11199 1.2,1.07553 1.2,1.04027 1.2,1.00616 1.2,0.97318 1.2,0.94128 1.2,0.91041 1.2,0.88057 1.2,0.8517 1.2,0.82378 1.2,0.79677 1.2,0.77065 1.2,0.74539 1.2,0.72095 1.2,0.69731 1.2,0.67445 1.2,0.65234 1.2,0.63096 1.2,0.61027 1.2,0.59026 1.2,0.57091 1.2,0.5522 1.2,0.53409 1.2,0.51658 1.2,0.49965 1.2,0.48327 1.2,0.46742 1.2,0.4521 1.2,0.43728 1.2,0.42294 1.2,0.40908 1.2,0.39566 1.2,0.38269 1.2,0.37015 1.2,0.35801 1.2,0.34628 1.2,0.33492 1.2,0.32395 1.2,0.31332 1.2,0.30305 1.2,0.29312 1.2,0.2835 1.2,0.27421 1.2,0.26523 1.2,0.25652 1.2,0.24812 1.2,0.23998 1.2,0.23212 1.2,0.22451 1.2,0.21714 1.2,0.21003 1.2,0.20314 1.2,0.19648 1.2,0.19004 1.2,0.18381 1.2,0.17778 1.2,0.17196 1.2,0.16632 1.2,0.16086 1.2,0.15559 1.2,0.1505 1.2,0.14555 1.2,0.14079 1.2,0.13617 1.2,0.1317 1.2,0.12739 1.2,0.12321 1.2,0.11917 1.2,0.11527 1.2,0.11149 1.2,0.10783 1.2,0.10429 1.2,0.10088 1.2,0.0976 1.2,0.0944 1.2,0.0913 1.2,0.0883 1.2,0.0854 1.2,0.0826 1.2,0.0799 1.2,0.0773 1.2,0.0747 1.2,0.0723 1.2,0.0699 1.2,0.0676 1.2,0.0654 1.2,0.0633 1.2,0.0612 1.2,0.0592 1.2,0.0572 1.2,0.0554 1.2,0.0536 1.2,0.0518 1.2,0.0501 1.2,0.0485 1.2,0.0469 1.2,0.0453 1.2,0.0438 1.2,0.0424 1.2,0.041 1.2,0.0397 1.2,0.0384 1.2,0.0371 1.2,0.0359 1.2,0.0347 1.2,0.0336 1.2,0.0325 1.2,0.0314 1.2,0.0304 1.2,0.0294 1.2,0.0284 1.2,0.0275 1.2,0.0266 1.2,0.0257 1.2,0.0249 1.2,0.0241 1.2,0.0233 1.2,0.0225 1.2,0.0218 1.2,0.0211 1.2,0.0204 1.2,0.0197 1.2,0.0191 1.2,0.0184 1.2,0.0178 1.2,0.0172 1.2,0.0167 1.2,0.0161 1.2,0.0156 1.2,0.0151 1.2,0.0146 1.2,0.0141 1.2,0.0136 1.2,0.0132 1.2,0.0128 1.2,0.0123 1.2,0.012 1.2,0.0116 1.2,0.0112 1.2,0.0108 1.2,0.0105 1.2,0.0101 1.2,0.01 1.2,0.009 1.2,0.009 1.2,0.009 1.2,0.009 1.2,0.008 1.2,0.008 1.2,0.008 1.2,0.007 1.2,0.007"
     class="path" />
  <path
     inkscape:connector-curvature="0"
     id="path164"
     d="m 40,64 48,0"
     class="path"
     style="stroke:#ff7f2a;stroke-width:3;stroke-miterlimit:4;stroke-dasharray:none;stroke-linecap:round" />
  <text
     id="text166"
     style="font-style:normal;font-variant:normal;font-weight:normal;font-stretch:normal;font-size:22.5px;line-height:125%;font-family:KaTeX_Main;-inkscape-font-specification:'KaTeX_Main, Normal';text-align:start;writing-mode:lr-tb;text-anchor:start;fill:#000000"
     y="55.543308"
     x="49.713383"
     sodipodi:linespacing="125%">V<tspan
   style="font-size:64.99999762%;baseline-shift:sub"
   id="tspan4508">0</tspan>
</text>
</svg>
