<?xml version="1.0" encoding="UTF-8" standalone="no"?>
<svg
   xmlns:xhtml="http://www.w3.org/1999/xhtml"
   xmlns:dc="http://purl.org/dc/elements/1.1/"
   xmlns:cc="http://creativecommons.org/ns#"
   xmlns:rdf="http://www.w3.org/1999/02/22-rdf-syntax-ns#"
   xmlns:svg="http://www.w3.org/2000/svg"
   xmlns="http://www.w3.org/2000/svg"
   xmlns:sodipodi="http://sodipodi.sourceforge.net/DTD/sodipodi-0.dtd"
   xmlns:inkscape="http://www.inkscape.org/namespaces/inkscape"
   width="344.99185"
   height="229.875"
   version="1.1"
   id="svg2"
   inkscape:version="0.91 r13725"
   sodipodi:docname="rc_step_natural_response_Kn.svg">
  <metadata
     id="metadata130">
    <rdf:RDF>
      <cc:Work
         rdf:about="">
        <dc:format>image/svg+xml</dc:format>
        <dc:type
           rdf:resource="http://purl.org/dc/dcmitype/StillImage" />
        <dc:title></dc:title>
      </cc:Work>
    </rdf:RDF>
  </metadata>
  <defs
     id="defs128" />
  <sodipodi:namedview
     pagecolor="#ffffff"
     bordercolor="#666666"
     borderopacity="1"
     objecttolerance="10"
     gridtolerance="10"
     guidetolerance="10"
     inkscape:pageopacity="0"
     inkscape:pageshadow="2"
     inkscape:window-width="640"
     inkscape:window-height="480"
     id="namedview126"
     showgrid="false"
     inkscape:zoom="1.7789474"
     inkscape:cx="161.52136"
     inkscape:cy="101"
     inkscape:current-layer="svg2"
     fit-margin-top="10"
     fit-margin-right="10"
     fit-margin-bottom="10"
     fit-margin-left="10" />
  <xhtml:defs>
    <xhtml:style
       type="text/css"><![CDATA[
svg .grid { stroke-width: 0.5px; stroke: rgb(187, 187, 187); opacity: 0.5; }
svg .domain { stroke-width: 3px; stroke: black; }
svg { border: none; }
svg .path { stroke-width: 4px; stroke: rgb(255, 156, 57); fill: none; }
svg text { font-style: normal; font-variant: normal; font-weight: normal; font-stretch: normal; font-size: 16px; line-height: normal; font-family: katex_math; }
svg .tick text { font-style: normal; font-variant: normal; font-weight: normal; font-stretch: normal; font-size: 12px; line-height: normal; font-family: katex_math; }]]></xhtml:style>
  </xhtml:defs>
  <path
     class="domain"
     d="m 12.021364,198.875 0,0.5 239.999996,0 0,-0.5"
     id="path8"
     inkscape:connector-curvature="0"
     style="font-size:medium;font-family:sans-serif;text-anchor:middle;fill:none;stroke:#000000" />
  <line
     style="font-size:medium;font-family:sans-serif;text-anchor:middle;fill:none;stroke:#000000"
     x2="12.021363"
     y1="198.875"
     x1="12.021363"
     id="line12"
     y2="204.875" />
  <line
     style="font-size:medium;font-family:sans-serif;text-anchor:middle;fill:none"
     id="line14"
     y2="218.875"
     x2="12.021363"
     y1="38.875"
     x1="12.021363"
     class="grid" />
  <line
     style="font-size:medium;font-family:sans-serif;text-anchor:middle;fill:none;stroke:#000000"
     x2="52.021362"
     y1="198.875"
     x1="52.021362"
     id="line18"
     y2="204.875" />
  <line
     style="font-size:medium;font-family:sans-serif;text-anchor:middle;fill:none"
     id="line20"
     y2="218.875"
     x2="52.021362"
     y1="38.875"
     x1="52.021362"
     class="grid" />
  <line
     style="font-size:medium;font-family:sans-serif;text-anchor:middle;fill:none;stroke:#000000"
     x2="92.021362"
     y1="198.875"
     x1="92.021362"
     id="line24"
     y2="204.875" />
  <line
     style="font-size:medium;font-family:sans-serif;text-anchor:middle;fill:none"
     id="line26"
     y2="218.875"
     x2="92.021362"
     y1="38.875"
     x1="92.021362"
     class="grid" />
  <line
     style="font-size:medium;font-family:sans-serif;text-anchor:middle;fill:none;stroke:#000000"
     x2="132.02136"
     y1="198.875"
     x1="132.02136"
     id="line30"
     y2="204.875" />
  <line
     style="font-size:medium;font-family:sans-serif;text-anchor:middle;fill:none"
     id="line32"
     y2="218.875"
     x2="132.02136"
     y1="38.875"
     x1="132.02136"
     class="grid" />
  <line
     style="font-size:medium;font-family:sans-serif;text-anchor:middle;fill:none;stroke:#000000"
     x2="172.02136"
     y1="198.875"
     x1="172.02136"
     id="line36"
     y2="204.875" />
  <line
     style="font-size:medium;font-family:sans-serif;text-anchor:middle;fill:none"
     id="line38"
     y2="218.875"
     x2="172.02136"
     y1="38.875"
     x1="172.02136"
     class="grid" />
  <line
     style="font-size:medium;font-family:sans-serif;text-anchor:middle;fill:none;stroke:#000000"
     x2="212.02136"
     y1="198.875"
     x1="212.02136"
     id="line42"
     y2="204.875" />
  <line
     style="font-size:medium;font-family:sans-serif;text-anchor:middle;fill:none"
     id="line44"
     y2="218.875"
     x2="212.02136"
     y1="38.875"
     x1="212.02136"
     class="grid" />
  <line
     style="font-size:medium;font-family:sans-serif;text-anchor:middle;fill:none;stroke:#000000"
     x2="252.02136"
     y1="198.875"
     x1="252.02136"
     id="line48"
     y2="204.875" />
  <line
     style="font-size:medium;font-family:sans-serif;text-anchor:middle;fill:none"
     id="line50"
     y2="218.875"
     x2="252.02136"
     y1="38.875"
     x1="252.02136"
     class="grid" />
  <text
     x="262.15128"
     dx="0"
     style="font-style:normal;font-variant:normal;font-weight:normal;font-stretch:normal;font-size:22.5px;line-height:125%;font-family:KaTeX_Main;-inkscape-font-specification:'KaTeX_Main, Normal';text-align:start;writing-mode:lr-tb;text-anchor:start;fill:#000000"
     id="text52"
     y="202.4183"
     sodipodi:linespacing="125%"><tspan
   style="font-style:normal;font-variant:normal;font-weight:normal;font-stretch:normal;font-size:22.5px;line-height:125%;font-family:KaTeX_Math;-inkscape-font-specification:'KaTeX_Math, Normal';text-align:start;writing-mode:lr-tb;text-anchor:start"
   id="tspan4409">t</tspan>
 (time)</text>
  <path
     class="domain"
     d="m 51.521364,219.375 0.5,0 0,-180 -0.5,0"
     id="path56"
     inkscape:connector-curvature="0"
     style="font-size:medium;font-family:sans-serif;text-anchor:end;fill:none;stroke:#000000" />
  <line
     style="font-size:medium;font-family:sans-serif;text-anchor:end;fill:none;stroke:#000000"
     y2="219.375"
     y1="219.375"
     x1="51.521362"
     id="line60"
     x2="45.521362" />
  <line
     style="font-size:medium;font-family:sans-serif;text-anchor:end;fill:none"
     id="line62"
     y2="219.375"
     x2="251.52136"
     y1="219.375"
     x1="11.521363"
     class="grid" />
  <line
     style="font-size:medium;font-family:sans-serif;text-anchor:end;fill:none;stroke:#000000"
     y2="199.375"
     y1="199.375"
     x1="51.521362"
     id="line66"
     x2="45.521362" />
  <line
     style="font-size:medium;font-family:sans-serif;text-anchor:end;fill:none"
     id="line68"
     y2="199.375"
     x2="251.52136"
     y1="199.375"
     x1="11.521363"
     class="grid" />
  <line
     style="font-size:medium;font-family:sans-serif;text-anchor:end;fill:none;stroke:#000000"
     y2="179.375"
     y1="179.375"
     x1="51.521362"
     id="line72"
     x2="45.521362" />
  <line
     style="font-size:medium;font-family:sans-serif;text-anchor:end;fill:none"
     id="line74"
     y2="179.375"
     x2="251.52136"
     y1="179.375"
     x1="11.521363"
     class="grid" />
  <line
     style="font-size:medium;font-family:sans-serif;text-anchor:end;fill:none;stroke:#000000"
     y2="159.375"
     y1="159.375"
     x1="51.521362"
     id="line78"
     x2="45.521362" />
  <line
     style="font-size:medium;font-family:sans-serif;text-anchor:end;fill:none"
     id="line80"
     y2="159.375"
     x2="251.52136"
     y1="159.375"
     x1="11.521363"
     class="grid" />
  <line
     style="font-size:medium;font-family:sans-serif;text-anchor:end;fill:none;stroke:#000000"
     y2="139.375"
     y1="139.375"
     x1="51.521362"
     id="line84"
     x2="45.521362" />
  <line
     style="font-size:medium;font-family:sans-serif;text-anchor:end;fill:none"
     id="line86"
     y2="139.375"
     x2="251.52136"
     y1="139.375"
     x1="11.521363"
     class="grid" />
  <line
     style="font-size:medium;font-family:sans-serif;text-anchor:end;fill:none;stroke:#000000"
     y2="119.375"
     y1="119.375"
     x1="51.521362"
     id="line90"
     x2="45.521362" />
  <line
     style="font-size:medium;font-family:sans-serif;text-anchor:end;fill:none"
     id="line92"
     y2="119.375"
     x2="251.52136"
     y1="119.375"
     x1="11.521363"
     class="grid" />
  <line
     style="font-size:medium;font-family:sans-serif;text-anchor:end;fill:none;stroke:#000000"
     y2="99.375"
     y1="99.375"
     x1="51.521362"
     id="line96"
     x2="45.521362" />
  <line
     style="font-size:medium;font-family:sans-serif;text-anchor:end;fill:none"
     id="line98"
     y2="99.375"
     x2="251.52136"
     y1="99.375"
     x1="11.521363"
     class="grid" />
  <line
     style="font-size:medium;font-family:sans-serif;text-anchor:end;fill:none;stroke:#000000"
     y2="79.375"
     y1="79.375"
     x1="51.521362"
     id="line102"
     x2="45.521362" />
  <line
     style="font-size:medium;font-family:sans-serif;text-anchor:end;fill:none"
     id="line104"
     y2="79.375"
     x2="251.52136"
     y1="79.375"
     x1="11.521363"
     class="grid" />
  <line
     style="font-size:medium;font-family:sans-serif;text-anchor:end;fill:none;stroke:#000000"
     y2="59.375"
     y1="59.375"
     x1="51.521362"
     id="line108"
     x2="45.521362" />
  <line
     style="font-size:medium;font-family:sans-serif;text-anchor:end;fill:none"
     id="line110"
     y2="59.375"
     x2="251.52136"
     y1="59.375"
     x1="11.521363"
     class="grid" />
  <line
     style="font-size:medium;font-family:sans-serif;text-anchor:end;fill:none;stroke:#000000"
     y2="39.375"
     y1="39.375"
     x1="51.521362"
     id="line114"
     x2="45.521362" />
  <line
     style="font-size:medium;font-family:sans-serif;text-anchor:end;fill:none"
     id="line116"
     y2="39.375"
     x2="251.52136"
     y1="39.375"
     x1="11.521363"
     class="grid" />
  <text
     dy="-12"
     style="font-style:normal;font-variant:normal;font-weight:normal;font-stretch:normal;font-size:22.5px;line-height:125%;font-family:KaTeX_Main;-inkscape-font-specification:'KaTeX_Main, Normal';text-align:start;writing-mode:lr-tb;text-anchor:start;fill:#000000"
     id="text118"
     x="12.544988"
     y="38.875"
     sodipodi:linespacing="125%"><tspan
   style="font-style:normal;font-variant:normal;font-weight:normal;font-stretch:normal;font-size:22.5px;line-height:125%;font-family:KaTeX_Math;-inkscape-font-specification:'KaTeX_Math, Normal';text-align:start;writing-mode:lr-tb;text-anchor:start"
   id="tspan4407">v</tspan>
 (volts)</text>
  <path
     inkscape:connector-curvature="0"
     id="path120"
     style="fill:none;stroke:#ff9955;stroke-width:3;stroke-linecap:round;stroke-miterlimit:4;stroke-dasharray:none"
     d="m 51.521364,118.875 1,1.64942 1,1.61542 1,1.58211 1,1.5495 1,1.51754 1,1.48626 1,1.45561 1,1.4256 1,1.39621 1,1.36742 1,1.33923 1,1.31162 1,1.28457 1,1.25809 1,1.23215 1,1.20675 1,1.18186 1,1.1575 1,1.13363 1,1.11026 1,1.08737 1,1.06495 1,1.04299 1,1.02149 1,1.00042 1,0.9798 1,0.9596 1,0.93982 1,0.92044 1,0.90146 1,0.88287 1,0.86467 1,0.84684 1,0.82939 1,0.81228 1,0.79554 1,0.77913 1,0.76307 1,0.74734 1,0.73192 1,0.71684 1,0.70206 1,0.68758 1,0.67341 1,0.65952 1,0.64592 1,0.63261 1,0.61956 0.999996,0.60679 1,0.59428 1,0.58203 1,0.57003 1,0.55827 1,0.54676 1,0.53549 1,0.52445 1,0.51364 1,0.50304 1,0.49268 1,0.48252 1,0.47256 1,0.46283 1,0.45328 1,0.44394 1,0.43478 1,0.42582 1,0.41704 1,0.40844 1,0.40002 1,0.39178 1,0.38369 1,0.37579 1,0.36803 1,0.36045 1,0.35302 1,0.34574 1,0.33861 1,0.33163 1,0.32479 1,0.31809 1,0.31154 1,0.30511 1,0.29882 1,0.29266 1,0.28663 1,0.28072 1,0.27493 1,0.26926 1,0.26371 1,0.25827 1,0.25295 1,0.24773 1,0.24263 1,0.23762 1,0.23272 1,0.22793 1,0.22322 1,0.21863 1,0.21411 1,0.2097 1,0.20538 1,0.20114 1,0.197 1,0.19293 1,0.18896 1,0.18506 1,0.18124 1,0.17751 1,0.17385 1,0.17026 1,0.16676 1,0.16331 1,0.15995 1,0.15665 1,0.15342 1,0.15026 1,0.14716 1,0.14412 1,0.14116 1,0.13824 1,0.13539 1,0.1326 1,0.12987 1,0.12719 1,0.12457 1,0.122 1,0.11948 1,0.11702 1,0.11461 1,0.11225 1,0.10993 1,0.10766 1,0.10545 1,0.10327 1,0.10114 1,0.0991 1,0.097 1,0.095 1,0.0931 1,0.0911 1,0.0893 1,0.0874 1,0.0856 1,0.0838 1,0.0821 1,0.0804 1,0.0788 1,0.0771 1,0.0756 1,0.074 1,0.0725 1,0.071 1,0.0695 1,0.0681 1,0.0667 1,0.0653 1,0.064 1,0.0626 1,0.0613 1,0.0601 1,0.0588 1,0.0576 1,0.0564 1,0.0553 1,0.0541 1,0.053 1,0.0519 1,0.0509 1,0.0498 1,0.0488 1,0.0478 1,0.0468 1,0.0458 1,0.0449 1,0.044 1,0.0431 1,0.0422 1,0.0413 1,0.0404 1,0.0396 1,0.0388 1,0.038 1,0.0372 1,0.0364 1,0.0357 1,0.035 1,0.0342 1,0.0335 1,0.0328 1,0.0322 1,0.0315 1,0.0309 1,0.0302 1,0.0296 1,0.029 1,0.0284 1,0.0278 1,0.0272 1,0.0267 1,0.0261"
     class="path" />
  <path
     inkscape:connector-curvature="0"
     id="path122"
     d="m 11.521364,118.875 40,0"
     class="path"
     style="stroke:#ff7f2a;stroke-width:3;stroke-linecap:round;stroke-miterlimit:4;stroke-dasharray:none" />
  <text
     id="text124"
     style="font-style:normal;font-variant:normal;font-weight:normal;font-stretch:normal;font-size:22.5px;line-height:125%;font-family:KaTeX_Main;-inkscape-font-specification:'KaTeX_Main, Normal';text-align:start;writing-mode:lr-tb;text-anchor:start;fill:#000000"
     y="114.875"
     x="11.521363"
     sodipodi:linespacing="125%">
    <tspan
       style="font-style:normal;font-variant:normal;font-weight:normal;font-stretch:normal;font-size:22.5px;line-height:125%;font-family:KaTeX_Math;-inkscape-font-specification:'KaTeX_Math, Normal';text-align:start;writing-mode:lr-tb;text-anchor:start"
       id="tspan4411">Kn</tspan>
  </text>
</svg>
