<?xml version="1.0" encoding="UTF-8" standalone="no"?>
<!-- Generator: Adobe Illustrator 19.1.0, SVG Export Plug-In . SVG Version: 6.00 Build 0)  -->

<svg
   xmlns:dc="http://purl.org/dc/elements/1.1/"
   xmlns:cc="http://creativecommons.org/ns#"
   xmlns:rdf="http://www.w3.org/1999/02/22-rdf-syntax-ns#"
   xmlns:svg="http://www.w3.org/2000/svg"
   xmlns="http://www.w3.org/2000/svg"
   xmlns:xlink="http://www.w3.org/1999/xlink"
   xmlns:sodipodi="http://sodipodi.sourceforge.net/DTD/sodipodi-0.dtd"
   xmlns:inkscape="http://www.inkscape.org/namespaces/inkscape"
   version="1.1"
   id="Layer_1"
   x="0px"
   y="0px"
   width="286.42468"
   height="286.96729"
   viewBox="0 0 286.42468 286.96729"
   xml:space="preserve"
   inkscape:version="0.92.2 5c3e80d, 2017-08-06"
   sodipodi:docname="rl_natural_response11.svg"><metadata
     id="metadata7481"><rdf:RDF><cc:Work
         rdf:about=""><dc:format>image/svg+xml</dc:format><dc:type
           rdf:resource="http://purl.org/dc/dcmitype/StillImage" /><dc:title></dc:title></cc:Work></rdf:RDF></metadata><defs
     id="defs7479" /><sodipodi:namedview
     pagecolor="#ffffff"
     bordercolor="#666666"
     borderopacity="1"
     objecttolerance="10"
     gridtolerance="10"
     guidetolerance="10"
     inkscape:pageopacity="0"
     inkscape:pageshadow="2"
     inkscape:window-width="1246"
     inkscape:window-height="715"
     id="namedview7477"
     showgrid="false"
     fit-margin-top="10"
     fit-margin-left="10"
     fit-margin-bottom="10"
     fit-margin-right="10"
     inkscape:zoom="1.7476529"
     inkscape:cx="138.306"
     inkscape:cy="99.56212"
     inkscape:window-x="0"
     inkscape:window-y="0"
     inkscape:window-maximized="0"
     inkscape:current-layer="Layer_1" /><style
     type="text/css"
     id="style7159">
	.st0{fill:none;stroke:#E8C11C;stroke-miterlimit:10;}
	.st1{fill:none;stroke:#11ACCD;stroke-width:3;stroke-linecap:round;stroke-miterlimit:10;}
	.st2{fill:#11ACCD;}
	.st3{fill:none;stroke:#11ACCD;stroke-width:4;stroke-miterlimit:10;}
	.st4{fill:none;stroke:#BABEC2;stroke-linecap:round;stroke-miterlimit:10;}
	.st5{fill:none;stroke:#11ACCD;stroke-width:6;stroke-miterlimit:10;}
	.st6{fill:none;stroke:#000000;stroke-linecap:round;stroke-linejoin:round;stroke-miterlimit:10;}
	.st7{fill:none;stroke:#000000;stroke-width:2;stroke-linecap:round;stroke-linejoin:round;stroke-miterlimit:10;}
	.st8{fill:none;stroke:#000000;stroke-width:2;stroke-miterlimit:10;}
	.st9{fill:none;stroke:#000000;stroke-linecap:round;stroke-miterlimit:10;}
	.st10{fill:none;stroke:#000000;stroke-width:1.5;stroke-miterlimit:10;}
	.st11{fill:none;stroke:#000000;stroke-width:2;stroke-linecap:round;stroke-miterlimit:10;}
	.st12{fill:none;}
	.st13{stroke:#000000;stroke-linecap:round;stroke-linejoin:round;stroke-miterlimit:10;}
	.st14{fill:none;stroke:#000000;stroke-miterlimit:10;}
	.st15{fill:#FFFFFF;stroke:#000000;stroke-miterlimit:10;}
	.st16{fill:#1FAB54;}
	.st17{fill:none;stroke:#000000;stroke-width:5;stroke-miterlimit:10;}
	.st18{fill:none;stroke:#000000;stroke-width:4;stroke-miterlimit:10;}
	.st19{fill:#FF9C39;}
	.st20{fill:#E8C11C;}
	.st21{fill:none;stroke:#E8C11C;stroke-linecap:round;stroke-miterlimit:10;}
	.st22{fill:#BABEC2;stroke:#BABEC2;stroke-linecap:round;stroke-linejoin:round;stroke-miterlimit:10;}
	.st23{fill:#BABEC2;stroke:#BABEC2;stroke-miterlimit:10;}
	.st24{fill:none;stroke:#BABEC2;stroke-linecap:round;stroke-linejoin:round;stroke-miterlimit:10;}
	.st25{fill:none;stroke:#1FAB54;stroke-width:2;stroke-linecap:round;stroke-miterlimit:10;}
	.st26{fill:none;stroke:#BABEC2;stroke-width:2;stroke-linecap:round;stroke-miterlimit:10;}
	.st27{fill:#BABEC2;}
	.st28{fill:none;stroke:#BABEC2;stroke-width:2;stroke-miterlimit:10;}
	.st29{fill:none;stroke:#BABEC2;stroke-width:2;stroke-linecap:round;stroke-linejoin:round;stroke-miterlimit:10;}
	.st30{opacity:0.1;fill:none;stroke:#000000;stroke-width:2;enable-background:new    ;}
	.st31{fill:none;stroke:#000000;stroke-width:2;stroke-linecap:round;stroke-linejoin:round;}
	.st32{fill:none;stroke:#000000;stroke-width:2;}
	.st33{fill:none;stroke:#000000;}
	.st34{clip-path:url(#SVGID_2_);fill:none;stroke:#29ABCA;stroke-width:5;}
	.st35{clip-path:url(#SVGID_4_);fill:none;stroke:#29ABCA;stroke-width:5;}
	.st36{font-family:'KaTeX_Main-Italic';}
	.st37{font-size:18px;}
	.st38{font-family:'KaTeX_Main-Regular';}
	.st39{clip-path:url(#SVGID_6_);fill:none;stroke:#E1A158;stroke-width:5;}
	.st40{clip-path:url(#SVGID_8_);fill:none;stroke:#E1A158;stroke-width:5;}
	.st41{clip-path:url(#SVGID_10_);fill:none;stroke:#E1A158;stroke-width:5;}
	.st42{fill:#E07D10;}
	.st43{fill:none;stroke:#FF9C39;stroke-width:2;stroke-linecap:round;stroke-miterlimit:10;}
	.st44{fill:none;stroke:#000000;stroke-width:4;stroke-linecap:round;stroke-miterlimit:10;}
	.st45{fill:none;stroke:#11ACCD;stroke-width:4;stroke-linecap:round;stroke-miterlimit:10;}
	.st46{fill:none;stroke:#E8C11C;stroke-width:2;stroke-miterlimit:10;}
</style><text
     class="st38 st37"
     id="text7163"
     style="font-style:normal;font-variant:normal;font-weight:normal;font-stretch:normal;font-size:22.5px;line-height:0%;font-family:KaTeX_Math;-inkscape-font-specification:'KaTeX_Math, Normal';text-align:start;writing-mode:lr-tb;text-anchor:start"
     x="92.196503"
     y="56.472641"><tspan
       style="font-style:normal;font-variant:normal;font-weight:normal;font-stretch:normal;font-size:22.5px;line-height:125%;font-family:KaTeX_Main;-inkscape-font-specification:'KaTeX_Main, Normal';text-align:start;writing-mode:lr-tb;text-anchor:start"
       id="tspan4290"
       dx="0 0 3">I<tspan
   style="font-size:64.99999762%;baseline-shift:sub"
   id="tspan4294">0</tspan>R</tspan></text>
<text
     id="text7169"
     x="130.99969"
     y="19.967501"
     style="font-style:normal;font-variant:normal;font-weight:normal;font-stretch:normal;font-size:22.5px;line-height:0%;font-family:KaTeX_Math;-inkscape-font-specification:'KaTeX_Math, Normal';text-align:start;writing-mode:lr-tb;text-anchor:start"><tspan
       x="130.99969"
       y="19.967501"
       class="st36 st37"
       id="tspan7171"
       style="font-style:normal;font-variant:normal;font-weight:normal;font-stretch:normal;font-size:22.5px;line-height:125%;font-family:KaTeX_Math;-inkscape-font-specification:'KaTeX_Math, Normal';text-align:start;writing-mode:lr-tb;text-anchor:start">v</tspan></text>
<text
     id="text7175"
     x="268.99969"
     y="157.9675"
     style="font-style:normal;font-variant:normal;font-weight:normal;font-stretch:normal;font-size:22.5px;line-height:0%;font-family:KaTeX_Math;-inkscape-font-specification:'KaTeX_Math, Normal';text-align:start;writing-mode:lr-tb;text-anchor:start"><tspan
       x="268.99969"
       y="157.9675"
       class="st36 st37"
       id="tspan7177"
       style="font-style:normal;font-variant:normal;font-weight:normal;font-stretch:normal;font-size:22.5px;line-height:125%;font-family:KaTeX_Math;-inkscape-font-specification:'KaTeX_Math, Normal';text-align:start;writing-mode:lr-tb;text-anchor:start">t</tspan></text>
<path
     style="opacity:0.1;fill:none;stroke:#000000;stroke-width:2;enable-background:new"
     inkscape:connector-curvature="0"
     id="path7183"
     d="m 11,275.9673 0,-250"
     class="st30" /><path
     style="opacity:0.1;fill:none;stroke:#000000;stroke-width:2;enable-background:new"
     inkscape:connector-curvature="0"
     id="path7185"
     d="m 23.5,275.9673 0,-250"
     class="st30" /><path
     style="opacity:0.1;fill:none;stroke:#000000;stroke-width:2;enable-background:new"
     inkscape:connector-curvature="0"
     id="path7187"
     d="m 36,275.9673 0,-250"
     class="st30" /><path
     style="opacity:0.1;fill:none;stroke:#000000;stroke-width:2;enable-background:new"
     inkscape:connector-curvature="0"
     id="path7189"
     d="m 48.5,275.9673 0,-250"
     class="st30" /><path
     style="opacity:0.1;fill:none;stroke:#000000;stroke-width:2;enable-background:new"
     inkscape:connector-curvature="0"
     id="path7191"
     d="m 61,275.9673 0,-250"
     class="st30" /><path
     style="opacity:0.1;fill:none;stroke:#000000;stroke-width:2;enable-background:new"
     inkscape:connector-curvature="0"
     id="path7193"
     d="m 73.5,275.9673 0,-250"
     class="st30" /><path
     style="opacity:0.1;fill:none;stroke:#000000;stroke-width:2;enable-background:new"
     inkscape:connector-curvature="0"
     id="path7195"
     d="m 86,275.9673 0,-250"
     class="st30" /><path
     style="opacity:0.1;fill:none;stroke:#000000;stroke-width:2;enable-background:new"
     inkscape:connector-curvature="0"
     id="path7197"
     d="m 98.5,275.9673 0,-250"
     class="st30" /><path
     style="opacity:0.1;fill:none;stroke:#000000;stroke-width:2;enable-background:new"
     inkscape:connector-curvature="0"
     id="path7199"
     d="m 111,275.9673 0,-250"
     class="st30" /><path
     style="opacity:0.1;fill:none;stroke:#000000;stroke-width:2;enable-background:new"
     inkscape:connector-curvature="0"
     id="path7201"
     d="m 123.5,275.9673 0,-250"
     class="st30" /><path
     style="opacity:0.1;fill:none;stroke:#000000;stroke-width:2;enable-background:new"
     inkscape:connector-curvature="0"
     id="path7203"
     d="m 136,275.9673 0,-250"
     class="st30" /><path
     style="opacity:0.1;fill:none;stroke:#000000;stroke-width:2;enable-background:new"
     inkscape:connector-curvature="0"
     id="path7205"
     d="m 148.5,275.9673 0,-250"
     class="st30" /><path
     style="opacity:0.1;fill:none;stroke:#000000;stroke-width:2;enable-background:new"
     inkscape:connector-curvature="0"
     id="path7207"
     d="m 161,275.9673 0,-250"
     class="st30" /><path
     style="opacity:0.1;fill:none;stroke:#000000;stroke-width:2;enable-background:new"
     inkscape:connector-curvature="0"
     id="path7209"
     d="m 173.5,275.9673 0,-250"
     class="st30" /><path
     style="opacity:0.1;fill:none;stroke:#000000;stroke-width:2;enable-background:new"
     inkscape:connector-curvature="0"
     id="path7211"
     d="m 186,275.9673 0,-250"
     class="st30" /><path
     style="opacity:0.1;fill:none;stroke:#000000;stroke-width:2;enable-background:new"
     inkscape:connector-curvature="0"
     id="path7213"
     d="m 198.5,275.9673 0,-250"
     class="st30" /><path
     style="opacity:0.1;fill:none;stroke:#000000;stroke-width:2;enable-background:new"
     inkscape:connector-curvature="0"
     id="path7215"
     d="m 211,275.9673 0,-250"
     class="st30" /><path
     style="opacity:0.1;fill:none;stroke:#000000;stroke-width:2;enable-background:new"
     inkscape:connector-curvature="0"
     id="path7217"
     d="m 223.5,275.9673 0,-250"
     class="st30" /><path
     style="opacity:0.1;fill:none;stroke:#000000;stroke-width:2;enable-background:new"
     inkscape:connector-curvature="0"
     id="path7219"
     d="m 236,275.9673 0,-250"
     class="st30" /><path
     style="opacity:0.1;fill:none;stroke:#000000;stroke-width:2;enable-background:new"
     inkscape:connector-curvature="0"
     id="path7221"
     d="m 248.5,275.9673 0,-250"
     class="st30" /><path
     style="opacity:0.1;fill:none;stroke:#000000;stroke-width:2;enable-background:new"
     inkscape:connector-curvature="0"
     id="path7223"
     d="m 261,275.9673 0,-250"
     class="st30" /><path
     style="opacity:0.1;fill:none;stroke:#000000;stroke-width:2;enable-background:new"
     inkscape:connector-curvature="0"
     id="path7225"
     d="m 11,275.9673 250,0"
     class="st30" /><path
     style="opacity:0.1;fill:none;stroke:#000000;stroke-width:2;enable-background:new"
     inkscape:connector-curvature="0"
     id="path7227"
     d="m 11,263.4673 250,0"
     class="st30" /><path
     style="opacity:0.1;fill:none;stroke:#000000;stroke-width:2;enable-background:new"
     inkscape:connector-curvature="0"
     id="path7229"
     d="m 11,250.9673 250,0"
     class="st30" /><path
     style="opacity:0.1;fill:none;stroke:#000000;stroke-width:2;enable-background:new"
     inkscape:connector-curvature="0"
     id="path7231"
     d="m 11,238.4673 250,0"
     class="st30" /><path
     style="opacity:0.1;fill:none;stroke:#000000;stroke-width:2;enable-background:new"
     inkscape:connector-curvature="0"
     id="path7233"
     d="m 11,225.9673 250,0"
     class="st30" /><path
     style="opacity:0.1;fill:none;stroke:#000000;stroke-width:2;enable-background:new"
     inkscape:connector-curvature="0"
     id="path7235"
     d="m 11,213.4673 250,0"
     class="st30" /><path
     style="opacity:0.1;fill:none;stroke:#000000;stroke-width:2;enable-background:new"
     inkscape:connector-curvature="0"
     id="path7237"
     d="m 11,200.9673 250,0"
     class="st30" /><path
     style="opacity:0.1;fill:none;stroke:#000000;stroke-width:2;enable-background:new"
     inkscape:connector-curvature="0"
     id="path7239"
     d="m 11,188.4673 250,0"
     class="st30" /><path
     style="opacity:0.1;fill:none;stroke:#000000;stroke-width:2;enable-background:new"
     inkscape:connector-curvature="0"
     id="path7241"
     d="m 11,175.9673 250,0"
     class="st30" /><path
     style="opacity:0.1;fill:none;stroke:#000000;stroke-width:2;enable-background:new"
     inkscape:connector-curvature="0"
     id="path7243"
     d="m 11,163.4673 250,0"
     class="st30" /><path
     style="opacity:0.1;fill:none;stroke:#000000;stroke-width:2;enable-background:new"
     inkscape:connector-curvature="0"
     id="path7245"
     d="m 11,150.9673 250,0"
     class="st30" /><path
     style="opacity:0.1;fill:none;stroke:#000000;stroke-width:2;enable-background:new"
     inkscape:connector-curvature="0"
     id="path7247"
     d="m 11,138.4673 250,0"
     class="st30" /><path
     style="opacity:0.1;fill:none;stroke:#000000;stroke-width:2;enable-background:new"
     inkscape:connector-curvature="0"
     id="path7249"
     d="m 11,125.9673 250,0"
     class="st30" /><path
     style="opacity:0.1;fill:none;stroke:#000000;stroke-width:2;enable-background:new"
     inkscape:connector-curvature="0"
     id="path7251"
     d="m 11,113.4673 250,0"
     class="st30" /><path
     style="opacity:0.1;fill:none;stroke:#000000;stroke-width:2;enable-background:new"
     inkscape:connector-curvature="0"
     id="path7253"
     d="m 11,100.9673 250,0"
     class="st30" /><path
     style="opacity:0.1;fill:none;stroke:#000000;stroke-width:2;enable-background:new"
     inkscape:connector-curvature="0"
     id="path7255"
     d="m 11,88.4673 250,0"
     class="st30" /><path
     style="opacity:0.1;fill:none;stroke:#000000;stroke-width:2;enable-background:new"
     inkscape:connector-curvature="0"
     id="path7257"
     d="m 11,75.9673 250,0"
     class="st30" /><path
     style="opacity:0.1;fill:none;stroke:#000000;stroke-width:2;enable-background:new"
     inkscape:connector-curvature="0"
     id="path7259"
     d="m 11,63.4673 250,0"
     class="st30" /><path
     style="opacity:0.1;fill:none;stroke:#000000;stroke-width:2;enable-background:new"
     inkscape:connector-curvature="0"
     id="path7261"
     d="m 11,50.9673 250,0"
     class="st30" /><path
     style="opacity:0.1;fill:none;stroke:#000000;stroke-width:2;enable-background:new"
     inkscape:connector-curvature="0"
     id="path7263"
     d="m 11,38.4673 250,0"
     class="st30" /><path
     style="opacity:0.1;fill:none;stroke:#000000;stroke-width:2;enable-background:new"
     inkscape:connector-curvature="0"
     id="path7265"
     d="m 11,25.9673 250,0"
     class="st30" /><path
     style="fill:none;stroke:#000000;stroke-width:2;stroke-linecap:round;stroke-linejoin:round"
     inkscape:connector-curvature="0"
     id="path7267"
     d="m 18,145.3673 c -0.3,2.1 -4.2,5.2 -5.2,5.6 1.1,0.4 4.9,3.5 5.2,5.6"
     class="st31" /><path
     style="fill:none;stroke:#000000;stroke-width:2"
     inkscape:connector-curvature="0"
     id="path7269"
     d="m 136,150.9673 c 0,0 0,0 -123.9,0"
     class="st32" /><path
     style="fill:none;stroke:#000000;stroke-width:2;stroke-linecap:round;stroke-linejoin:round"
     inkscape:connector-curvature="0"
     id="path7271"
     d="m 255.5,156.5673 c 0.3,-2.1 4.2,-5.2 5.2,-5.6 -1.1,-0.4 -4.9,-3.5 -5.2,-5.6"
     class="st31" /><path
     style="fill:none;stroke:#000000;stroke-width:2"
     inkscape:connector-curvature="0"
     id="path7273"
     d="m 136,150.9673 c 0,0 0,0 124,0"
     class="st32" /><path
     style="fill:none;stroke:#000000;stroke-width:2;stroke-linecap:round;stroke-linejoin:round"
     inkscape:connector-curvature="0"
     id="path7275"
     d="m 131.2,269.6673 c 2.1,0.4 5.2,4.2 5.6,5.2 0.4,-1 3.5,-4.9 5.6,-5.2"
     class="st31" /><path
     style="fill:none;stroke:#000000;stroke-width:2"
     inkscape:connector-curvature="0"
     id="path7277"
     d="m 136,150.9673 c 0,0 0,0 0,124"
     class="st32" /><path
     style="fill:none;stroke:#000000;stroke-width:2;stroke-linecap:round;stroke-linejoin:round"
     inkscape:connector-curvature="0"
     id="path7279"
     d="m 142.3,32.2673 c -2.1,-0.3 -5.2,-4.2 -5.6,-5.2 -0.4,1.1 -3.5,4.9 -5.6,5.2"
     class="st31" /><path
     style="fill:none;stroke:#000000;stroke-width:2"
     inkscape:connector-curvature="0"
     id="path7281"
     d="m 136,150.9673 c 0,0 0,0 0,-123.9"
     class="st32" /><path
     style="fill:none;stroke:#000000"
     inkscape:connector-curvature="0"
     id="path7283"
     d="m 161,155.9673 0,-10"
     class="st33" /><path
     style="fill:none;stroke:#000000"
     inkscape:connector-curvature="0"
     id="path7285"
     d="m 186,155.9673 0,-10"
     class="st33" /><path
     style="fill:none;stroke:#000000"
     inkscape:connector-curvature="0"
     id="path7287"
     d="m 211,155.9673 0,-10"
     class="st33" /><path
     style="fill:none;stroke:#000000"
     inkscape:connector-curvature="0"
     id="path7289"
     d="m 236,155.9673 0,-10"
     class="st33" /><path
     style="fill:none;stroke:#000000"
     inkscape:connector-curvature="0"
     id="path7291"
     d="m 111,155.9673 0,-10"
     class="st33" /><path
     style="fill:none;stroke:#000000"
     inkscape:connector-curvature="0"
     id="path7293"
     d="m 86,155.9673 0,-10"
     class="st33" /><path
     style="fill:none;stroke:#000000"
     inkscape:connector-curvature="0"
     id="path7295"
     d="m 61,155.9673 0,-10"
     class="st33" /><path
     style="fill:none;stroke:#000000"
     inkscape:connector-curvature="0"
     id="path7297"
     d="m 36,155.9673 0,-10"
     class="st33" /><path
     style="fill:none;stroke:#000000"
     inkscape:connector-curvature="0"
     id="path7299"
     d="m 131,125.9673 10,0"
     class="st33" /><path
     style="fill:none;stroke:#000000"
     inkscape:connector-curvature="0"
     id="path7301"
     d="m 131,100.9673 10,0"
     class="st33" /><path
     style="fill:none;stroke:#000000"
     inkscape:connector-curvature="0"
     id="path7303"
     d="m 131,75.9673 10,0"
     class="st33" /><path
     style="fill:none;stroke:#000000"
     inkscape:connector-curvature="0"
     id="path7305"
     d="m 131,50.9673 10,0"
     class="st33" /><path
     style="fill:none;stroke:#000000"
     inkscape:connector-curvature="0"
     id="path7307"
     d="m 131,175.9673 10,0"
     class="st33" /><path
     style="fill:none;stroke:#000000"
     inkscape:connector-curvature="0"
     id="path7309"
     d="m 131,200.9673 10,0"
     class="st33" /><path
     style="fill:none;stroke:#000000"
     inkscape:connector-curvature="0"
     id="path7311"
     d="m 131,225.9673 10,0"
     class="st33" /><path
     style="fill:none;stroke:#000000"
     inkscape:connector-curvature="0"
     id="path7313"
     d="m 131,250.9673 10,0"
     class="st33" /><g
     id="g7315"
     transform="translate(-1,1.9672999)"
     style="stroke:#e07d10;stroke-opacity:1"><defs
       id="defs7317"><rect
         height="250"
         width="250"
         y="24"
         x="12"
         id="SVGID_5_" /></defs><clipPath
       id="SVGID_2_"><use
         height="100%"
         width="100%"
         y="0"
         x="0"
         id="use7321"
         style="overflow:visible"
         xlink:href="#SVGID_5_" /></clipPath><path
       inkscape:connector-curvature="0"
       clip-path="url(#SVGID_2_)"
       id="path7323"
       d="m 12,149 125,0"
       style="fill:none;stroke:#e07d10;stroke-width:5;stroke-opacity:1" /></g><g
     id="g7325"
     transform="translate(-1,1.9672999)"
     style="stroke:#e07d10;stroke-opacity:1"><defs
       id="defs7327"><rect
         height="250"
         width="250"
         y="24"
         x="12"
         id="SVGID_7_" /></defs><clipPath
       id="SVGID_4_"><use
         height="100%"
         width="100%"
         y="0"
         x="0"
         id="use7331"
         style="overflow:visible"
         xlink:href="#SVGID_7_" /></clipPath><path
       inkscape:connector-curvature="0"
       clip-path="url(#SVGID_4_)"
       id="path7333"
       d="M 137,149 137,49"
       style="fill:none;stroke:#e07d10;stroke-width:5;stroke-opacity:1" /></g><g
     id="g7335"
     transform="translate(-1,1.9672999)"
     style="stroke:#e07d10;stroke-opacity:1"><defs
       id="defs7337"><rect
         height="250"
         width="250"
         y="24"
         x="12"
         id="SVGID_9_" /></defs><clipPath
       id="SVGID_6_"><use
         height="100%"
         width="100%"
         y="0"
         x="0"
         id="use7341"
         style="overflow:visible"
         xlink:href="#SVGID_9_" /></clipPath><path
       style="fill:none;stroke:#e07d10;stroke-width:5;stroke-opacity:1"
       inkscape:connector-curvature="0"
       clip-path="url(#SVGID_6_)"
       id="path7343"
       d="m 224.5,149 37.5,0"
       class="st39" /></g><g
     id="g7345"
     transform="translate(-1,1.9672999)"><g
       id="g7347"><path
         class="st42"
         d="m 136.9,50 c 2.6,6.4 4.9,12.8 6.9,19.4 0.4,1.2 2.2,0.7 1.9,-0.5 -0.1,-0.4 -0.2,-0.7 -0.2,-1.1 -0.3,-1.3 -2.2,-0.7 -1.9,0.5 0.1,0.4 0.2,0.7 0.2,1.1 0.6,-0.2 1.3,-0.4 1.9,-0.5 -2,-6.6 -4.3,-13 -6.9,-19.4 -0.4,-1.3 -2.4,-0.7 -1.9,0.5 l 0,0 z"
         id="path7349"
         inkscape:connector-curvature="0"
         style="fill:#e07d10" /></g></g><g
     id="g7351"
     transform="translate(-1,1.9672999)"><g
       id="g7353"><path
         class="st42"
         d="m 138.4,58 c 4.9,10.9 10.7,21.4 17.2,31.4 0.7,1.1 2.4,0.1 1.7,-1 -6.5,-10 -12.3,-20.5 -17.2,-31.4 -0.5,-1.2 -2.2,-0.2 -1.7,1 l 0,0 z"
         id="path7355"
         inkscape:connector-curvature="0"
         style="fill:#e07d10" /></g></g><g
     id="g7357"
     transform="translate(-1,1.9672999)"><g
       id="g7359"><path
         class="st42"
         d="m 149.5,78.6 c 6.1,10.1 12.7,19.8 19.9,29.2 0.8,1 2.5,0 1.7,-1 -7.2,-9.4 -13.8,-19.1 -19.9,-29.2 -0.6,-1.1 -2.3,-0.1 -1.7,1 l 0,0 z"
         id="path7361"
         inkscape:connector-curvature="0"
         style="fill:#e07d10" /></g></g><g
     id="g7363"
     transform="translate(-1,1.9672999)"><g
       id="g7365"><path
         class="st42"
         d="m 164.8,104.5 c 6.1,5.9 12.1,11.7 18.2,17.6 0.9,0.9 2.3,-0.5 1.4,-1.4 -6.1,-5.9 -12.1,-11.7 -18.2,-17.6 -0.9,-0.9 -2.3,0.5 -1.4,1.4 l 0,0 z"
         id="path7367"
         inkscape:connector-curvature="0"
         style="fill:#e07d10" /></g></g><g
     id="g7369"
     transform="translate(-1,1.9672999)"><g
       id="g7371"><path
         class="st42"
         d="m 176.4,115.9 c 5.9,6.1 11.9,12.1 17.8,18.2 0.9,0.9 2.3,-0.5 1.4,-1.4 -5.9,-6.1 -11.9,-12.1 -17.8,-18.2 -0.9,-0.9 -2.3,0.5 -1.4,1.4 l 0,0 z"
         id="path7373"
         inkscape:connector-curvature="0"
         style="fill:#e07d10" /></g></g><g
     id="g7375"
     transform="translate(-1,1.9672999)"><g
       id="g7377"><path
         class="st42"
         d="m 205.3,143 c 7.2,2.5 14.4,5 21.6,7.6 0,-0.6 0,-1.3 0,-1.9 -0.5,0 -0.9,0.1 -1.4,0.1 -1.3,0 -1.3,2 0,2 0.9,0 1.1,0 1.9,-0.2 1,-0.2 0.9,-1.6 0,-1.9 -7.2,-2.5 -14.4,-5 -21.6,-7.6 -1.2,-0.5 -1.7,1.5 -0.5,1.9 l 0,0 z"
         id="path7379"
         inkscape:connector-curvature="0"
         style="fill:#e07d10" /></g></g><g
     id="g7381"
     transform="translate(-1,1.9672999)"><g
       id="g7383"><path
         class="st42"
         d="m 215.8,146.1 c 0.5,0.3 1,0.7 1.5,1 1.1,0.7 2.1,-1 1,-1.7 -0.5,-0.3 -1,-0.7 -1.5,-1 -1.1,-0.7 -2.1,1 -1,1.7 l 0,0 z"
         id="path7385"
         inkscape:connector-curvature="0"
         style="fill:#e07d10" /></g></g><g
     id="g7387"
     transform="translate(-1,1.9672999)"><g
       id="g7389"><path
         class="st42"
         d="m 205.9,139.6 c -4.8,-4.1 -9.6,-8.1 -14.4,-12.2 -1,-0.8 -2.4,0.6 -1.4,1.4 4.8,4.1 9.6,8.1 14.4,12.2 0.9,0.9 2.4,-0.5 1.4,-1.4 l 0,0 z"
         id="path7391"
         inkscape:connector-curvature="0"
         style="fill:#e07d10" /></g></g><g
     id="g7393"
     transform="translate(-1,1.9672999)"><g
       id="g7395"><path
         class="st42"
         d="m 199.6,135.1 c -8,-7.3 -16,-14.5 -23.9,-21.8 -0.9,-0.9 -2.4,0.5 -1.4,1.4 8,7.3 16,14.5 23.9,21.8 0.9,0.9 2.3,-0.5 1.4,-1.4 l 0,0 z"
         id="path7397"
         inkscape:connector-curvature="0"
         style="fill:#e07d10" /></g></g><g
     id="g7399"
     transform="translate(-1,1.9672999)"><g
       id="g7401"><path
         class="st42"
         d="m 167.1,105.2 c -3.9,-4.6 -7.4,-9.5 -10.4,-14.7 -0.6,-1.1 -2.4,-0.1 -1.7,1 3.1,5.4 6.7,10.4 10.7,15.1 0.8,1 2.2,-0.4 1.4,-1.4 l 0,0 z"
         id="path7403"
         inkscape:connector-curvature="0"
         style="fill:#e07d10" /></g></g><g
     id="g7405"
     transform="translate(-1,1.9672999)"><g
       id="g7407"><path
         class="st42"
         d="m 158.6,93.2 c -3.3,-5.7 -6.8,-11.3 -10.5,-16.7 -0.7,-1.1 -2.5,-0.1 -1.7,1 3.7,5.5 7.2,11 10.5,16.7 0.7,1.2 2.4,0.1 1.7,-1 l 0,0 z"
         id="path7409"
         inkscape:connector-curvature="0"
         style="fill:#e07d10" /></g></g><g
     id="g7411"
     transform="translate(-1,1.9672999)"><g
       id="g7413"><path
         class="st42"
         d="m 146.9,76.5 c -0.2,-4.1 -2.6,-7.2 -4.3,-10.8 -2.5,-5.3 -4.3,-11 -6.4,-16.5 -0.4,-1.2 -2.4,-0.7 -1.9,0.5 1.6,4.5 3.2,9 5,13.4 1.8,4.3 5.4,8.8 5.6,13.4 0,1.3 2,1.3 2,0 l 0,0 z"
         id="path7415"
         inkscape:connector-curvature="0"
         style="fill:#e07d10" /></g></g><g
     id="g7417"
     transform="translate(-1,1.9672999)"><g
       id="g7419"><path
         class="st42"
         d="m 155.8,91.1 c 3.5,4.8 6.9,9.5 10.4,14.3 0.7,1 2.5,0 1.7,-1 -3.5,-4.8 -6.9,-9.5 -10.4,-14.3 -0.7,-1 -2.5,0 -1.7,1 l 0,0 z"
         id="path7421"
         inkscape:connector-curvature="0"
         style="fill:#e07d10" /></g></g><g
     id="g7423"
     transform="translate(-1,1.9672999)"><g
       id="g7425"><path
         class="st42"
         d="m 168.5,106.5 c -0.1,-0.2 -0.2,-0.5 -0.3,-0.7 -0.6,0.3 -1.1,0.6 -1.7,1 3.3,3.2 6.4,6.6 9.3,10.2 0.8,1 2.2,-0.4 1.4,-1.4 -2.9,-3.6 -6,-7 -9.3,-10.2 -0.7,-0.7 -2,0 -1.7,1 0.1,0.2 0.2,0.5 0.3,0.7 0.5,1.1 2.4,0.6 2,-0.6 l 0,0 z"
         id="path7427"
         inkscape:connector-curvature="0"
         style="fill:#e07d10" /></g></g><g
     id="g7429"
     transform="translate(-1,1.9672999)"><g
       id="g7431"><path
         class="st42"
         d="m 168.3,108.3 c 1.8,1.1 3.3,2.6 4.3,4.5 0.6,1.1 2.4,0.1 1.7,-1 -1.2,-2.1 -2.9,-3.9 -5,-5.2 -1.1,-0.7 -2.1,1 -1,1.7 l 0,0 z"
         id="path7433"
         inkscape:connector-curvature="0"
         style="fill:#e07d10" /></g></g><g
     id="g7435"
     transform="translate(-1,1.9672999)"><g
       id="g7437"><path
         class="st42"
         d="m 198.8,137.3 c 0.9,0.6 1.5,1.3 2.2,2.1 0.3,-0.6 0.6,-1.1 1,-1.7 -0.8,-0.2 -1.5,-0.5 -2.1,-1 -0.4,0.5 -0.8,1 -1.2,1.6 3.4,1.9 6.8,3.8 10.2,5.7 1.1,0.6 2.1,-1.1 1,-1.7 -3.4,-1.9 -6.8,-3.8 -10.2,-5.7 -1,-0.5 -2.1,0.8 -1.2,1.6 0.9,0.8 1.8,1.3 3,1.5 1,0.2 1.6,-0.9 1,-1.7 -0.8,-1 -1.6,-1.7 -2.6,-2.4 -1.2,-0.7 -2.2,1 -1.1,1.7 l 0,0 z"
         id="path7439"
         inkscape:connector-curvature="0"
         style="fill:#e07d10" /></g></g><g
     id="g7441"
     transform="translate(-1,1.9672999)"><g
       id="g7443"><path
         class="st42"
         d="m 194.2,133.6 c 0.3,0 0.5,0.1 0.8,0.1 1,0.5 2.1,-0.8 1.2,-1.6 -3.1,-2.9 -6.3,-5.7 -9.7,-8.2 -1,-0.8 -2,1 -1,1.7 3.3,2.4 6.4,5.1 9.3,7.9 0.4,-0.5 0.8,-1 1.2,-1.6 -0.6,-0.3 -1.1,-0.4 -1.8,-0.4 -1.3,0.2 -1.3,2.2 0,2.1 l 0,0 z"
         id="path7445"
         inkscape:connector-curvature="0"
         style="fill:#e07d10" /></g></g><g
     id="g7447"
     transform="translate(-1,1.9672999)"><g
       id="g7449"><path
         class="st42"
         d="m 192.7,128.8 c -4,-3.6 -8,-7.1 -12.1,-10.7 -1,-0.8 -2.4,0.6 -1.4,1.4 4,3.6 8,7.1 12.1,10.7 1,0.8 2.4,-0.6 1.4,-1.4 l 0,0 z"
         id="path7451"
         inkscape:connector-curvature="0"
         style="fill:#e07d10" /></g></g><g
     id="g7453"
     transform="translate(-1,1.9672999)"><g
       id="g7455"><path
         class="st42"
         d="m 213.3,147.7 c 2.7,0.2 5.3,0.6 8,1.2 1.3,0.3 1.8,-1.7 0.5,-1.9 -2.8,-0.6 -5.6,-1 -8.5,-1.2 -1.3,-0.3 -1.3,1.7 0,1.9 l 0,0 z"
         id="path7457"
         inkscape:connector-curvature="0"
         style="fill:#e07d10" /></g></g><g
     id="g7459"
     transform="translate(-1,1.9672999)"><g
       id="g7461"><path
         class="st42"
         d="m 219,149.9 c 1,0.2 2,0.3 3,0.5 0.5,0.1 0.9,0.2 1.4,0.2 0.2,0 0.5,0.1 0.7,0.1 0.4,0.2 0.4,0.1 0.1,-0.2 -0.1,1.3 1.9,1.3 2,0 0,-1.1 -0.9,-1.6 -1.8,-1.8 -1.6,-0.3 -3.3,-0.5 -4.9,-0.8 -1.2,-0.1 -1.8,1.8 -0.5,2 l 0,0 z"
         id="path7463"
         inkscape:connector-curvature="0"
         style="fill:#e07d10" /></g></g><g
     id="g7465"
     transform="translate(-1,1.9672999)"><g
       id="g7467"><path
         class="st42"
         d="m 203.7,141.6 c 2.8,1.2 5.7,2.5 8.5,3.7 1.2,0.5 2.2,-1.2 1,-1.7 -2.8,-1.2 -5.7,-2.5 -8.5,-3.7 -1.1,-0.5 -2.1,1.2 -1,1.7 l 0,0 z"
         id="path7469"
         inkscape:connector-curvature="0"
         style="fill:#e07d10" /></g></g><g
     id="g7471"
     transform="translate(-1,1.9672999)"><g
       id="g7473"><path
         class="st42"
         d="m 207.8,144.2 c 2.4,0.4 4.5,1.2 6.6,2.5 0.3,-0.6 0.5,-1.2 0.8,-1.8 -7.1,-2.7 -13.5,-6.6 -19.2,-11.6 -1,-0.9 -2.4,0.6 -1.4,1.4 5.9,5.3 12.6,9.3 20.1,12.1 1.1,0.4 1.7,-1.3 0.8,-1.8 -2.3,-1.4 -4.5,-2.3 -7.1,-2.7 -1.4,-0.3 -1.9,1.6 -0.6,1.9 l 0,0 z"
         id="path7475"
         inkscape:connector-curvature="0"
         style="fill:#e07d10" /></g></g></svg>