<?xml version="1.0" encoding="UTF-8" standalone="no"?>
<!-- Generator: Adobe Illustrator 19.1.0, SVG Export Plug-In . SVG Version: 6.00 Build 0)  -->

<svg
   xmlns:dc="http://purl.org/dc/elements/1.1/"
   xmlns:cc="http://creativecommons.org/ns#"
   xmlns:rdf="http://www.w3.org/1999/02/22-rdf-syntax-ns#"
   xmlns:svg="http://www.w3.org/2000/svg"
   xmlns="http://www.w3.org/2000/svg"
   xmlns:sodipodi="http://sodipodi.sourceforge.net/DTD/sodipodi-0.dtd"
   xmlns:inkscape="http://www.inkscape.org/namespaces/inkscape"
   version="1.1"
   id="Layer_1"
   x="0px"
   y="0px"
   width="287.75549"
   height="291.3302"
   viewBox="0 0 287.75549 291.3302"
   xml:space="preserve"
   inkscape:version="0.92.2 5c3e80d, 2017-08-06"
   sodipodi:docname="rl_natural_response10.svg"><metadata
     id="metadata6178"><rdf:RDF><cc:Work
         rdf:about=""><dc:format>image/svg+xml</dc:format><dc:type
           rdf:resource="http://purl.org/dc/dcmitype/StillImage" /><dc:title></dc:title></cc:Work></rdf:RDF></metadata><defs
     id="defs6176" /><sodipodi:namedview
     pagecolor="#ffffff"
     bordercolor="#666666"
     borderopacity="1"
     objecttolerance="10"
     gridtolerance="10"
     guidetolerance="10"
     inkscape:pageopacity="0"
     inkscape:pageshadow="2"
     inkscape:window-width="1273"
     inkscape:window-height="738"
     id="namedview6174"
     showgrid="false"
     fit-margin-top="10"
     fit-margin-right="10"
     fit-margin-bottom="10"
     fit-margin-left="10"
     inkscape:zoom="1.7410615"
     inkscape:cx="143.87775"
     inkscape:cy="145.6651"
     inkscape:window-x="0"
     inkscape:window-y="0"
     inkscape:window-maximized="0"
     inkscape:current-layer="Layer_1" /><style
     type="text/css"
     id="style5916">
	.st0{fill:none;stroke:#E8C11C;stroke-miterlimit:10;}
	.st1{fill:none;stroke:#11ACCD;stroke-width:3;stroke-linecap:round;stroke-miterlimit:10;}
	.st2{fill:#11ACCD;}
	.st3{fill:none;stroke:#11ACCD;stroke-width:4;stroke-miterlimit:10;}
	.st4{fill:none;stroke:#BABEC2;stroke-linecap:round;stroke-miterlimit:10;}
	.st5{fill:none;stroke:#11ACCD;stroke-width:6;stroke-miterlimit:10;}
	.st6{fill:none;stroke:#000000;stroke-linecap:round;stroke-linejoin:round;stroke-miterlimit:10;}
	.st7{fill:none;stroke:#000000;stroke-width:2;stroke-linecap:round;stroke-linejoin:round;stroke-miterlimit:10;}
	.st8{fill:none;stroke:#000000;stroke-width:2;stroke-miterlimit:10;}
	.st9{fill:none;stroke:#000000;stroke-linecap:round;stroke-miterlimit:10;}
	.st10{fill:none;stroke:#000000;stroke-width:1.5;stroke-miterlimit:10;}
	.st11{fill:none;stroke:#000000;stroke-width:2;stroke-linecap:round;stroke-miterlimit:10;}
	.st12{fill:none;}
	.st13{stroke:#000000;stroke-linecap:round;stroke-linejoin:round;stroke-miterlimit:10;}
	.st14{fill:none;stroke:#000000;stroke-miterlimit:10;}
	.st15{fill:#FFFFFF;stroke:#000000;stroke-miterlimit:10;}
	.st16{fill:#1FAB54;}
	.st17{fill:none;stroke:#000000;stroke-width:5;stroke-miterlimit:10;}
	.st18{fill:none;stroke:#000000;stroke-width:4;stroke-miterlimit:10;}
	.st19{fill:#FF9C39;}
	.st20{fill:#E8C11C;}
	.st21{fill:none;stroke:#E8C11C;stroke-linecap:round;stroke-miterlimit:10;}
	.st22{fill:#BABEC2;stroke:#BABEC2;stroke-linecap:round;stroke-linejoin:round;stroke-miterlimit:10;}
	.st23{fill:#BABEC2;stroke:#BABEC2;stroke-miterlimit:10;}
	.st24{fill:none;stroke:#BABEC2;stroke-linecap:round;stroke-linejoin:round;stroke-miterlimit:10;}
	.st25{fill:none;stroke:#1FAB54;stroke-width:2;stroke-linecap:round;stroke-miterlimit:10;}
	.st26{fill:none;stroke:#BABEC2;stroke-width:2;stroke-linecap:round;stroke-miterlimit:10;}
	.st27{fill:#BABEC2;}
	.st28{fill:none;stroke:#BABEC2;stroke-width:2;stroke-miterlimit:10;}
	.st29{fill:none;stroke:#BABEC2;stroke-width:2;stroke-linecap:round;stroke-linejoin:round;stroke-miterlimit:10;}
	.st30{opacity:0.1;fill:none;stroke:#000000;stroke-width:2;enable-background:new    ;}
	.st31{fill:none;stroke:#000000;stroke-width:2;stroke-linecap:round;stroke-linejoin:round;}
	.st32{fill:none;stroke:#000000;stroke-width:2;}
	.st33{fill:none;stroke:#000000;}
	.st34{clip-path:url(#SVGID_2_);fill:none;stroke:#29ABCA;stroke-width:5;}
	.st35{clip-path:url(#SVGID_4_);fill:none;stroke:#29ABCA;stroke-width:5;}
	.st36{font-family:'KaTeX_Main-Italic';}
	.st37{font-size:18px;}
	.st38{font-family:'KaTeX_Main-Regular';}
	.st39{clip-path:url(#SVGID_6_);fill:none;stroke:#E1A158;stroke-width:5;}
	.st40{clip-path:url(#SVGID_8_);fill:none;stroke:#E1A158;stroke-width:5;}
	.st41{clip-path:url(#SVGID_10_);fill:none;stroke:#E1A158;stroke-width:5;}
	.st42{fill:#E07D10;}
	.st43{fill:none;stroke:#FF9C39;stroke-width:2;stroke-linecap:round;stroke-miterlimit:10;}
	.st44{fill:none;stroke:#000000;stroke-width:4;stroke-linecap:round;stroke-miterlimit:10;}
	.st45{fill:none;stroke:#11ACCD;stroke-width:4;stroke-linecap:round;stroke-miterlimit:10;}
	.st46{fill:none;stroke:#E8C11C;stroke-width:2;stroke-miterlimit:10;}
</style><path
     style="opacity:0.1;fill:none;stroke:#000000;stroke-width:2;enable-background:new"
     inkscape:connector-curvature="0"
     id="path5920"
     d="M 11,280.33019 11,30.330195"
     class="st30" /><path
     style="opacity:0.1;fill:none;stroke:#000000;stroke-width:2;enable-background:new"
     inkscape:connector-curvature="0"
     id="path5922"
     d="m 23.5,280.33019 0,-249.999995"
     class="st30" /><path
     style="opacity:0.1;fill:none;stroke:#000000;stroke-width:2;enable-background:new"
     inkscape:connector-curvature="0"
     id="path5924"
     d="M 36,280.33019 36,30.330195"
     class="st30" /><path
     style="opacity:0.1;fill:none;stroke:#000000;stroke-width:2;enable-background:new"
     inkscape:connector-curvature="0"
     id="path5926"
     d="m 48.5,280.33019 0,-249.999995"
     class="st30" /><path
     style="opacity:0.1;fill:none;stroke:#000000;stroke-width:2;enable-background:new"
     inkscape:connector-curvature="0"
     id="path5928"
     d="M 61,280.33019 61,30.330195"
     class="st30" /><path
     style="opacity:0.1;fill:none;stroke:#000000;stroke-width:2;enable-background:new"
     inkscape:connector-curvature="0"
     id="path5930"
     d="m 73.5,280.33019 0,-249.999995"
     class="st30" /><path
     style="opacity:0.1;fill:none;stroke:#000000;stroke-width:2;enable-background:new"
     inkscape:connector-curvature="0"
     id="path5932"
     d="M 86,280.33019 86,30.330195"
     class="st30" /><path
     style="opacity:0.1;fill:none;stroke:#000000;stroke-width:2;enable-background:new"
     inkscape:connector-curvature="0"
     id="path5934"
     d="m 98.5,280.33019 0,-249.999995"
     class="st30" /><path
     style="opacity:0.1;fill:none;stroke:#000000;stroke-width:2;enable-background:new"
     inkscape:connector-curvature="0"
     id="path5936"
     d="M 111,280.33019 111,30.330195"
     class="st30" /><path
     style="opacity:0.1;fill:none;stroke:#000000;stroke-width:2;enable-background:new"
     inkscape:connector-curvature="0"
     id="path5938"
     d="m 123.5,280.33019 0,-249.999995"
     class="st30" /><path
     style="opacity:0.1;fill:none;stroke:#000000;stroke-width:2;enable-background:new"
     inkscape:connector-curvature="0"
     id="path5940"
     d="M 136,280.33019 136,30.330195"
     class="st30" /><path
     style="opacity:0.1;fill:none;stroke:#000000;stroke-width:2;enable-background:new"
     inkscape:connector-curvature="0"
     id="path5942"
     d="m 148.5,280.33019 0,-249.999995"
     class="st30" /><path
     style="opacity:0.1;fill:none;stroke:#000000;stroke-width:2;enable-background:new"
     inkscape:connector-curvature="0"
     id="path5944"
     d="M 161,280.33019 161,30.330195"
     class="st30" /><path
     style="opacity:0.1;fill:none;stroke:#000000;stroke-width:2;enable-background:new"
     inkscape:connector-curvature="0"
     id="path5946"
     d="m 173.5,280.33019 0,-249.999995"
     class="st30" /><path
     style="opacity:0.1;fill:none;stroke:#000000;stroke-width:2;enable-background:new"
     inkscape:connector-curvature="0"
     id="path5948"
     d="M 186,280.33019 186,30.330195"
     class="st30" /><path
     style="opacity:0.1;fill:none;stroke:#000000;stroke-width:2;enable-background:new"
     inkscape:connector-curvature="0"
     id="path5950"
     d="m 198.5,280.33019 0,-249.999995"
     class="st30" /><path
     style="opacity:0.1;fill:none;stroke:#000000;stroke-width:2;enable-background:new"
     inkscape:connector-curvature="0"
     id="path5952"
     d="M 211,280.33019 211,30.330195"
     class="st30" /><path
     style="opacity:0.1;fill:none;stroke:#000000;stroke-width:2;enable-background:new"
     inkscape:connector-curvature="0"
     id="path5954"
     d="m 223.5,280.33019 0,-249.999995"
     class="st30" /><path
     style="opacity:0.1;fill:none;stroke:#000000;stroke-width:2;enable-background:new"
     inkscape:connector-curvature="0"
     id="path5956"
     d="M 236,280.33019 236,30.330195"
     class="st30" /><path
     style="opacity:0.1;fill:none;stroke:#000000;stroke-width:2;enable-background:new"
     inkscape:connector-curvature="0"
     id="path5958"
     d="m 248.5,280.33019 0,-249.999995"
     class="st30" /><path
     style="opacity:0.1;fill:none;stroke:#000000;stroke-width:2;enable-background:new"
     inkscape:connector-curvature="0"
     id="path5960"
     d="M 261,280.33019 261,30.330195"
     class="st30" /><path
     style="opacity:0.1;fill:none;stroke:#000000;stroke-width:2;enable-background:new"
     inkscape:connector-curvature="0"
     id="path5962"
     d="m 11,280.33019 250,0"
     class="st30" /><path
     style="opacity:0.1;fill:none;stroke:#000000;stroke-width:2;enable-background:new"
     inkscape:connector-curvature="0"
     id="path5964"
     d="m 11,267.83019 250,0"
     class="st30" /><path
     style="opacity:0.1;fill:none;stroke:#000000;stroke-width:2;enable-background:new"
     inkscape:connector-curvature="0"
     id="path5966"
     d="m 11,255.33019 250,0"
     class="st30" /><path
     style="opacity:0.1;fill:none;stroke:#000000;stroke-width:2;enable-background:new"
     inkscape:connector-curvature="0"
     id="path5968"
     d="m 11,242.83019 250,0"
     class="st30" /><path
     style="opacity:0.1;fill:none;stroke:#000000;stroke-width:2;enable-background:new"
     inkscape:connector-curvature="0"
     id="path5970"
     d="m 11,230.33019 250,0"
     class="st30" /><path
     style="opacity:0.1;fill:none;stroke:#000000;stroke-width:2;enable-background:new"
     inkscape:connector-curvature="0"
     id="path5972"
     d="m 11,217.83019 250,0"
     class="st30" /><path
     style="opacity:0.1;fill:none;stroke:#000000;stroke-width:2;enable-background:new"
     inkscape:connector-curvature="0"
     id="path5974"
     d="m 11,205.33019 250,0"
     class="st30" /><path
     style="opacity:0.1;fill:none;stroke:#000000;stroke-width:2;enable-background:new"
     inkscape:connector-curvature="0"
     id="path5976"
     d="m 11,192.83019 250,0"
     class="st30" /><path
     style="opacity:0.1;fill:none;stroke:#000000;stroke-width:2;enable-background:new"
     inkscape:connector-curvature="0"
     id="path5978"
     d="m 11,180.33019 250,0"
     class="st30" /><path
     style="opacity:0.1;fill:none;stroke:#000000;stroke-width:2;enable-background:new"
     inkscape:connector-curvature="0"
     id="path5980"
     d="m 11,167.83019 250,0"
     class="st30" /><path
     style="opacity:0.1;fill:none;stroke:#000000;stroke-width:2;enable-background:new"
     inkscape:connector-curvature="0"
     id="path5982"
     d="m 11,155.33019 250,0"
     class="st30" /><path
     style="opacity:0.1;fill:none;stroke:#000000;stroke-width:2;enable-background:new"
     inkscape:connector-curvature="0"
     id="path5984"
     d="m 11,142.83019 250,0"
     class="st30" /><path
     style="opacity:0.1;fill:none;stroke:#000000;stroke-width:2;enable-background:new"
     inkscape:connector-curvature="0"
     id="path5986"
     d="m 11,130.33019 250,0"
     class="st30" /><path
     style="opacity:0.1;fill:none;stroke:#000000;stroke-width:2;enable-background:new"
     inkscape:connector-curvature="0"
     id="path5988"
     d="m 11,117.83019 250,0"
     class="st30" /><path
     style="opacity:0.1;fill:none;stroke:#000000;stroke-width:2;enable-background:new"
     inkscape:connector-curvature="0"
     id="path5990"
     d="m 11,105.33019 250,0"
     class="st30" /><path
     style="opacity:0.1;fill:none;stroke:#000000;stroke-width:2;enable-background:new"
     inkscape:connector-curvature="0"
     id="path5992"
     d="m 11,92.830195 250,0"
     class="st30" /><path
     style="opacity:0.1;fill:none;stroke:#000000;stroke-width:2;enable-background:new"
     inkscape:connector-curvature="0"
     id="path5994"
     d="m 11,80.330195 250,0"
     class="st30" /><path
     style="opacity:0.1;fill:none;stroke:#000000;stroke-width:2;enable-background:new"
     inkscape:connector-curvature="0"
     id="path5996"
     d="m 11,67.830195 250,0"
     class="st30" /><path
     style="opacity:0.1;fill:none;stroke:#000000;stroke-width:2;enable-background:new"
     inkscape:connector-curvature="0"
     id="path5998"
     d="m 11,55.330195 250,0"
     class="st30" /><path
     style="opacity:0.1;fill:none;stroke:#000000;stroke-width:2;enable-background:new"
     inkscape:connector-curvature="0"
     id="path6000"
     d="m 11,42.830195 250,0"
     class="st30" /><path
     style="opacity:0.1;fill:none;stroke:#000000;stroke-width:2;enable-background:new"
     inkscape:connector-curvature="0"
     id="path6002"
     d="m 11,30.330195 250,0"
     class="st30" /><path
     style="fill:none;stroke:#000000;stroke-width:2;stroke-linecap:round;stroke-linejoin:round"
     inkscape:connector-curvature="0"
     id="path6004"
     d="m 18.1,149.73019 c -0.4,2.1 -4.2,5.2 -5.3,5.6 1.1,0.4 4.9,3.5 5.3,5.6"
     class="st31" /><path
     style="fill:none;stroke:#000000;stroke-width:2"
     inkscape:connector-curvature="0"
     id="path6006"
     d="m 136,155.33019 c 0,0 0,0 -123.9,0"
     class="st32" /><path
     style="fill:none;stroke:#000000;stroke-width:2;stroke-linecap:round;stroke-linejoin:round"
     inkscape:connector-curvature="0"
     id="path6008"
     d="m 255.5,160.93019 c 0.4,-2.1 4.2,-5.2 5.2,-5.6 -1.1,-0.4 -4.9,-3.5 -5.2,-5.6"
     class="st31" /><path
     style="fill:none;stroke:#000000;stroke-width:2"
     inkscape:connector-curvature="0"
     id="path6010"
     d="m 136,155.33019 c 0,0 0,0 124,0"
     class="st32" /><path
     style="fill:none;stroke:#000000;stroke-width:2;stroke-linecap:round;stroke-linejoin:round"
     inkscape:connector-curvature="0"
     id="path6012"
     d="m 131.2,274.03019 c 2.1,0.4 5.2,4.2 5.6,5.2 0.4,-1 3.5,-4.9 5.6,-5.2"
     class="st31" /><path
     style="fill:none;stroke:#000000;stroke-width:2"
     inkscape:connector-curvature="0"
     id="path6014"
     d="m 136,155.33019 c 0,0 0,0 0,123.9"
     class="st32" /><path
     style="fill:none;stroke:#000000;stroke-width:2;stroke-linecap:round;stroke-linejoin:round"
     inkscape:connector-curvature="0"
     id="path6016"
     d="m 142.4,36.630195 c -2.1,-0.3 -5.2,-4.2 -5.6,-5.2 -0.3,1.1 -3.5,4.9 -5.6,5.2"
     class="st31" /><path
     style="fill:none;stroke:#000000;stroke-width:2"
     inkscape:connector-curvature="0"
     id="path6018"
     d="m 136,155.33019 c 0,0 0,0 0,-123.999995"
     class="st32" /><path
     style="fill:none;stroke:#000000"
     inkscape:connector-curvature="0"
     id="path6020"
     d="m 161,160.33019 0,-10"
     class="st33" /><path
     style="fill:none;stroke:#000000"
     inkscape:connector-curvature="0"
     id="path6022"
     d="m 186,160.33019 0,-10"
     class="st33" /><path
     style="fill:none;stroke:#000000"
     inkscape:connector-curvature="0"
     id="path6024"
     d="m 211,160.33019 0,-10"
     class="st33" /><path
     style="fill:none;stroke:#000000"
     inkscape:connector-curvature="0"
     id="path6026"
     d="m 236,160.33019 0,-10"
     class="st33" /><path
     style="fill:none;stroke:#000000"
     inkscape:connector-curvature="0"
     id="path6028"
     d="m 111,160.33019 0,-10"
     class="st33" /><path
     style="fill:none;stroke:#000000"
     inkscape:connector-curvature="0"
     id="path6030"
     d="m 86,160.33019 0,-10"
     class="st33" /><path
     style="fill:none;stroke:#000000"
     inkscape:connector-curvature="0"
     id="path6032"
     d="m 61,160.33019 0,-10"
     class="st33" /><path
     style="fill:none;stroke:#000000"
     inkscape:connector-curvature="0"
     id="path6034"
     d="m 36,160.33019 0,-10"
     class="st33" /><path
     style="fill:none;stroke:#000000"
     inkscape:connector-curvature="0"
     id="path6036"
     d="m 131,130.33019 10,0"
     class="st33" /><path
     style="fill:none;stroke:#000000"
     inkscape:connector-curvature="0"
     id="path6038"
     d="m 131,105.33019 10,0"
     class="st33" /><path
     style="fill:none;stroke:#000000"
     inkscape:connector-curvature="0"
     id="path6040"
     d="m 131,80.330195 10,0"
     class="st33" /><path
     style="fill:none;stroke:#000000"
     inkscape:connector-curvature="0"
     id="path6042"
     d="m 131,55.330195 10,0"
     class="st33" /><path
     style="fill:none;stroke:#000000"
     inkscape:connector-curvature="0"
     id="path6044"
     d="m 131,180.33019 10,0"
     class="st33" /><path
     style="fill:none;stroke:#000000"
     inkscape:connector-curvature="0"
     id="path6046"
     d="m 131,205.33019 10,0"
     class="st33" /><path
     style="fill:none;stroke:#000000"
     inkscape:connector-curvature="0"
     id="path6048"
     d="m 131,230.33019 10,0"
     class="st33" /><path
     style="fill:none;stroke:#000000"
     inkscape:connector-curvature="0"
     id="path6050"
     d="m 131,255.33019 10,0"
     class="st33" /><text
     class="st38 st37"
     id="text6074"
     style="font-style:normal;font-variant:normal;font-weight:normal;font-stretch:normal;font-size:22.5px;line-height:0%;font-family:KaTeX_Main;-inkscape-font-specification:'KaTeX_Main, Normal';text-align:start;writing-mode:lr-tb;text-anchor:start"
     x="113.39481"
     y="73.127327">I<tspan
   style="font-size:64.99999762%;baseline-shift:sub"
   id="tspan4259">0</tspan></text>
<text
     id="text6078"
     x="133.52299"
     y="24.872499"
     style="font-style:normal;font-variant:normal;font-weight:normal;font-stretch:normal;font-size:22.5px;line-height:0%;font-family:KaTeX_Math;-inkscape-font-specification:'KaTeX_Math, Normal';text-align:start;writing-mode:lr-tb;text-anchor:start"><tspan
       x="133.52299"
       y="24.872499"
       class="st36 st37"
       id="tspan6080"
       style="font-style:normal;font-variant:normal;font-weight:normal;font-stretch:normal;font-size:22.5px;line-height:125%;font-family:KaTeX_Math;-inkscape-font-specification:'KaTeX_Math, Normal';text-align:start;writing-mode:lr-tb;text-anchor:start">i</tspan></text>
<text
     id="text6084"
     x="270.33051"
     y="159.18028"
     style="font-style:normal;font-variant:normal;font-weight:normal;font-stretch:normal;font-size:22.5px;line-height:0%;font-family:KaTeX_Math;-inkscape-font-specification:'KaTeX_Math, Normal';text-align:start;writing-mode:lr-tb;text-anchor:start"><tspan
       x="270.33051"
       y="159.18028"
       class="st36 st37"
       id="tspan6086"
       style="font-style:normal;font-variant:normal;font-weight:normal;font-stretch:normal;font-size:22.5px;line-height:125%;font-family:KaTeX_Math;-inkscape-font-specification:'KaTeX_Math, Normal';text-align:start;writing-mode:lr-tb;text-anchor:start">t</tspan></text>
<g
     id="g6090"
     transform="translate(-2,6.330195)"><g
       id="g6092"><path
         class="st2"
         d="m 138,72.8 c 0.3,-0.1 5.4,12.4 5.9,13.6 0.3,0.7 1.1,1 1.7,0.4 0.7,-0.7 0.9,-1.3 0.9,-2.3 0,-1.3 -2,-1.3 -2,0 -0.1,0.3 -0.2,0.6 -0.3,0.8 0.6,0.1 1.1,0.3 1.7,0.4 -1.7,-4 -3.4,-8 -5,-12.1 -0.7,-1.7 -1.7,-3.6 -3.8,-2.7 -1.3,0.7 -0.3,2.4 0.9,1.9 l 0,0 z"
         id="path6094"
         inkscape:connector-curvature="0"
         style="fill:#11accd" /></g></g><g
     id="g6096"
     transform="translate(-2,6.330195)"><g
       id="g6098"><path
         class="st2"
         d="m 139.1,78 c 6.1,9.4 13,18 20.8,26 0.9,0.9 2.3,-0.5 1.4,-1.4 -7.7,-7.9 -14.5,-16.4 -20.5,-25.6 -0.7,-1 -2.4,0 -1.7,1 l 0,0 z"
         id="path6100"
         inkscape:connector-curvature="0"
         style="fill:#11accd" /></g></g><g
     id="g6102"
     transform="translate(-2,6.330195)"><g
       id="g6104"><path
         class="st2"
         d="m 144.3,90.7 c 8.7,9.1 17.7,18 26.8,26.7 0.9,0.9 2.3,-0.5 1.4,-1.4 -9.1,-8.7 -18.1,-17.6 -26.8,-26.7 -0.9,-0.9 -2.3,0.5 -1.4,1.4 l 0,0 z"
         id="path6106"
         inkscape:connector-curvature="0"
         style="fill:#11accd" /></g></g><g
     id="g6108"
     transform="translate(-2,6.330195)"><g
       id="g6110"><path
         class="st2"
         d="m 162.3,112.1 c 4.7,1.8 8.3,6 12.2,9 3.7,2.8 7.5,5.4 11.5,7.7 1.1,0.7 2.1,-1.1 1,-1.7 -5.1,-3 -10,-6.4 -14.5,-10.2 -3.1,-2.6 -5.8,-5.3 -9.6,-6.8 -1.3,-0.4 -1.8,1.5 -0.6,2 l 0,0 z"
         id="path6112"
         inkscape:connector-curvature="0"
         style="fill:#11accd" /></g></g><g
     id="g6114"
     transform="translate(-2,6.330195)"><g
       id="g6116"><path
         class="st2"
         d="m 180.4,127 c 6.9,5.5 14.5,9.7 22.7,12.6 1.2,0.4 1.7,-1.5 0.5,-1.9 -8,-2.8 -15.2,-6.9 -21.8,-12.1 -0.9,-0.8 -2.4,0.6 -1.4,1.4 l 0,0 z"
         id="path6118"
         inkscape:connector-curvature="0"
         style="fill:#11accd" /></g></g><g
     id="g6120"
     transform="translate(-2,6.330195)"><g
       id="g6122"><path
         class="st2"
         d="m 211.5,147.9 c 5.5,0.4 10.9,1.1 16.3,2.3 1.3,0.3 1.8,-1.7 0.5,-1.9 -5.6,-1.2 -11.1,-2 -16.8,-2.4 -1.3,0 -1.3,2 0,2 l 0,0 z"
         id="path6124"
         inkscape:connector-curvature="0"
         style="fill:#11accd" /></g></g><g
     id="g6126"
     transform="translate(-2,6.330195)"><g
       id="g6128"><path
         class="st2"
         d="m 223,149.7 c -6.5,-3 -12.8,-6.4 -19,-10.1 -1.1,-0.7 -2.1,1.1 -1,1.7 6.1,3.7 12.5,7.1 19,10.1 1.1,0.6 2.1,-1.2 1,-1.7 l 0,0 z"
         id="path6130"
         inkscape:connector-curvature="0"
         style="fill:#11accd" /></g></g><g
     id="g6132"
     transform="translate(-2,6.330195)"><g
       id="g6134"><path
         class="st2"
         d="m 142.1,88.7 c 5.7,4.1 10.5,9.1 14.4,14.9 0.7,1.1 2.5,0.1 1.7,-1 -4.1,-6.1 -9.2,-11.3 -15.1,-15.6 -1,-0.8 -2,0.9 -1,1.7 l 0,0 z"
         id="path6136"
         inkscape:connector-curvature="0"
         style="fill:#11accd" /></g></g><g
     id="g6138"
     transform="translate(-2,6.330195)"><g
       id="g6140"><path
         class="st2"
         d="m 142,87.2 c -0.7,-2.4 -1.7,-4.5 -3.2,-6.6 -0.5,0.4 -1,0.8 -1.6,1.2 4.5,5.8 9,11.5 13.6,17.3 0.8,1 2.2,-0.4 1.4,-1.4 -4.5,-5.8 -9,-11.5 -13.6,-17.3 -0.7,-0.9 -2.2,0.3 -1.6,1.2 1.4,1.9 2.3,3.8 3,6.1 0.5,1.3 2.4,0.8 2,-0.5 l 0,0 z"
         id="path6142"
         inkscape:connector-curvature="0"
         style="fill:#11accd" /></g></g><g
     id="g6144"
     transform="translate(-2,6.330195)"><g
       id="g6146"><path
         class="st2"
         d="m 136.2,81.3 c 9.6,10.5 19.5,20.8 29.6,30.9 0.9,0.9 2.3,-0.5 1.4,-1.4 -10.1,-10.1 -20,-20.4 -29.6,-30.9 -0.8,-1 -2.3,0.4 -1.4,1.4 l 0,0 z"
         id="path6148"
         inkscape:connector-curvature="0"
         style="fill:#11accd" /></g></g><g
     id="g6150"
     transform="translate(-2,6.330195)"><g
       id="g6152"><path
         class="st2"
         d="m 159.8,103.2 c 5.9,7.7 12.5,14.8 19.6,21.4 0.9,0.9 2.4,-0.5 1.4,-1.4 -7.1,-6.6 -13.6,-13.8 -19.6,-21.4 -0.8,-1 -2.2,0.4 -1.4,1.4 l 0,0 z"
         id="path6154"
         inkscape:connector-curvature="0"
         style="fill:#11accd" /></g></g><g
     id="g6156"
     transform="translate(-2,6.330195)"><g
       id="g6158"><path
         class="st2"
         d="m 164.2,115.5 c 9.7,6.4 19,13.3 28,20.8 1,0.8 2.4,-0.6 1.4,-1.4 -9,-7.6 -18.5,-14.6 -28.4,-21.1 -1,-0.7 -2,1 -1,1.7 l 0,0 z"
         id="path6160"
         inkscape:connector-curvature="0"
         style="fill:#11accd" /></g></g><g
     id="g6162"
     transform="translate(-2,6.330195)"><g
       id="g6164"><path
         class="st2"
         d="m 183.8,130.3 c 8.5,6.6 17.6,12.3 27.3,17 1.2,0.6 2.2,-1.2 1,-1.7 -9.5,-4.6 -18.5,-10.2 -26.9,-16.7 -1,-0.8 -2.5,0.6 -1.4,1.4 l 0,0 z"
         id="path6166"
         inkscape:connector-curvature="0"
         style="fill:#11accd" /></g></g><g
     id="g6168"
     transform="translate(-2,6.330195)"><g
       id="g6170"><path
         class="st2"
         d="m 213.5,150 c 4.3,0.4 8.4,1.4 12.4,3 1.1,0.5 1.6,-1.2 0.8,-1.8 -6,-4.5 -12.4,-8.4 -19.2,-11.5 -1.2,-0.5 -2.2,1.2 -1,1.7 6.8,3.2 13.2,7 19.2,11.5 0.3,-0.6 0.5,-1.2 0.8,-1.8 -4.2,-1.7 -8.4,-2.7 -12.9,-3.1 -1.4,-0.1 -1.4,1.9 -0.1,2 l 0,0 z"
         id="path6172"
         inkscape:connector-curvature="0"
         style="fill:#11accd" /></g></g><path
     style="fill:none;fill-rule:evenodd;stroke:#29abca;stroke-width:5;stroke-linecap:round;stroke-linejoin:miter;stroke-miterlimit:4;stroke-dasharray:none;stroke-opacity:1"
     d="m 10.871732,81.003729 124.166628,0"
     id="path4261"
     inkscape:connector-curvature="0" /><path
     style="fill:none;fill-rule:evenodd;stroke:#29abca;stroke-width:5;stroke-linecap:round;stroke-linejoin:miter;stroke-miterlimit:4;stroke-dasharray:none;stroke-opacity:1"
     d="m 260.34937,155.27913 -38.33716,0"
     id="path4263"
     inkscape:connector-curvature="0" /></svg>