<?xml version="1.0" encoding="UTF-8" standalone="no"?>
<svg
   xmlns:xhtml="http://www.w3.org/1999/xhtml"
   xmlns:dc="http://purl.org/dc/elements/1.1/"
   xmlns:cc="http://creativecommons.org/ns#"
   xmlns:rdf="http://www.w3.org/1999/02/22-rdf-syntax-ns#"
   xmlns:svg="http://www.w3.org/2000/svg"
   xmlns="http://www.w3.org/2000/svg"
   xmlns:sodipodi="http://sodipodi.sourceforge.net/DTD/sodipodi-0.dtd"
   xmlns:inkscape="http://www.inkscape.org/namespaces/inkscape"
   width="423.23953"
   height="383.04187"
   version="1.1"
   id="svg2"
   inkscape:version="0.91 r13725"
   sodipodi:docname="rlc_underdamped_current.svg">
  <metadata
     id="metadata170">
    <rdf:RDF>
      <cc:Work
         rdf:about="">
        <dc:format>image/svg+xml</dc:format>
        <dc:type
           rdf:resource="http://purl.org/dc/dcmitype/StillImage" />
        <dc:title></dc:title>
      </cc:Work>
    </rdf:RDF>
  </metadata>
  <defs
     id="defs168" />
  <sodipodi:namedview
     pagecolor="#ffffff"
     bordercolor="#666666"
     borderopacity="1"
     objecttolerance="10"
     gridtolerance="10"
     guidetolerance="10"
     inkscape:pageopacity="0"
     inkscape:pageshadow="2"
     inkscape:window-width="640"
     inkscape:window-height="480"
     id="namedview166"
     showgrid="false"
     fit-margin-top="10"
     fit-margin-right="10"
     fit-margin-bottom="10"
     fit-margin-left="10"
     inkscape:zoom="1.3262258"
     inkscape:cx="211.61977"
     inkscape:cy="191.52094"
     inkscape:current-layer="svg2" />
  <xhtml:defs>
    <xhtml:style
       type="text/css"><![CDATA[
svg .grid { stroke-width: 0.5px; stroke: rgb(187, 187, 187); opacity: 0.5; }
svg .domain { stroke-width: 3px; stroke: black; }
svg { border: 0px solid red; }
svg .path { stroke-width: 3px; stroke: rgb(17, 172, 205); fill: none; }
svg text { font-style: normal; font-variant: normal; font-weight: normal; font-stretch: normal; font-size: 16px; line-height: normal; font-family: katex_math; }
svg .tick text { font-style: normal; font-variant: normal; font-weight: normal; font-stretch: normal; font-size: 12px; line-height: normal; font-family: katex_math; }]]></xhtml:style>
  </xhtml:defs>
  <path
     class="domain"
     d="m 15.074902,191.52093 0,0.5 287.999998,0 0,-0.5"
     id="path8"
     inkscape:connector-curvature="0"
     style="font-size:medium;font-family:sans-serif;text-anchor:middle;fill:none;stroke:#000000" />
  <line
     style="font-size:medium;font-family:sans-serif;text-anchor:middle;fill:none;stroke:#000000"
     x2="15.074903"
     y1="191.52092"
     x1="15.074903"
     id="line12"
     y2="197.52092" />
  <text
     style="font-style:normal;font-variant:normal;font-weight:normal;font-stretch:normal;font-size:12.5px;line-height:125%;font-family:KaTeX_Main;-inkscape-font-specification:'KaTeX_Main, Normal';text-align:center;writing-mode:lr-tb;text-anchor:middle;fill:#000000"
     id="text14"
     dy="0"
     y="211.15083"
     x="15.074903"
     sodipodi:linespacing="125%">-2</text>
  <line
     style="font-size:medium;font-family:sans-serif;text-anchor:middle;fill:none"
     id="line16"
     y2="335.52094"
     x2="15.074903"
     y1="47.520927"
     x1="15.074903"
     class="grid" />
  <line
     style="font-size:medium;font-family:sans-serif;text-anchor:middle;fill:none;stroke:#000000"
     x2="51.074902"
     y1="191.52092"
     x1="51.074902"
     id="line20"
     y2="197.52092" />
  <text
     style="font-style:normal;font-variant:normal;font-weight:normal;font-stretch:normal;font-size:12.5px;line-height:125%;font-family:KaTeX_Main;-inkscape-font-specification:'KaTeX_Main, Normal';text-align:center;writing-mode:lr-tb;text-anchor:middle;fill:#000000"
     id="text22"
     dy="0"
     y="211.15083"
     x="51.074902"
     sodipodi:linespacing="125%">-1</text>
  <line
     style="font-size:medium;font-family:sans-serif;text-anchor:middle;fill:none"
     id="line24"
     y2="335.52094"
     x2="51.074902"
     y1="47.520927"
     x1="51.074902"
     class="grid" />
  <line
     style="font-size:medium;font-family:sans-serif;text-anchor:middle;fill:none;stroke:#000000"
     x2="87.074905"
     y1="191.52092"
     x1="87.074905"
     id="line28"
     y2="197.52092" />
  <line
     style="font-size:medium;font-family:sans-serif;text-anchor:middle;fill:none"
     id="line30"
     y2="335.52094"
     x2="87.074905"
     y1="47.520927"
     x1="87.074905"
     class="grid" />
  <line
     style="font-size:medium;font-family:sans-serif;text-anchor:middle;fill:none;stroke:#000000"
     x2="123.07491"
     y1="191.52092"
     x1="123.07491"
     id="line34"
     y2="197.52092" />
  <text
     style="font-style:normal;font-variant:normal;font-weight:normal;font-stretch:normal;font-size:12.5px;line-height:125%;font-family:KaTeX_Main;-inkscape-font-specification:'KaTeX_Main, Normal';text-align:center;writing-mode:lr-tb;text-anchor:middle;fill:#000000"
     id="text36"
     dy="0"
     y="211.15083"
     x="123.07491"
     sodipodi:linespacing="125%">1</text>
  <line
     style="font-size:medium;font-family:sans-serif;text-anchor:middle;fill:none"
     id="line38"
     y2="335.52094"
     x2="123.07491"
     y1="47.520927"
     x1="123.07491"
     class="grid" />
  <line
     style="font-size:medium;font-family:sans-serif;text-anchor:middle;fill:none;stroke:#000000"
     x2="159.07491"
     y1="191.52092"
     x1="159.07491"
     id="line42"
     y2="197.52092" />
  <text
     style="font-style:normal;font-variant:normal;font-weight:normal;font-stretch:normal;font-size:12.5px;line-height:125%;font-family:KaTeX_Main;-inkscape-font-specification:'KaTeX_Main, Normal';text-align:center;writing-mode:lr-tb;text-anchor:middle;fill:#000000"
     id="text44"
     dy="0"
     y="211.15083"
     x="159.07491"
     sodipodi:linespacing="125%">2</text>
  <line
     style="font-size:medium;font-family:sans-serif;text-anchor:middle;fill:none"
     id="line46"
     y2="335.52094"
     x2="159.07491"
     y1="47.520927"
     x1="159.07491"
     class="grid" />
  <line
     style="font-size:medium;font-family:sans-serif;text-anchor:middle;fill:none;stroke:#000000"
     x2="195.07491"
     y1="191.52092"
     x1="195.07491"
     id="line50"
     y2="197.52092" />
  <text
     style="font-style:normal;font-variant:normal;font-weight:normal;font-stretch:normal;font-size:12.5px;line-height:125%;font-family:KaTeX_Main;-inkscape-font-specification:'KaTeX_Main, Normal';text-align:center;writing-mode:lr-tb;text-anchor:middle;fill:#000000"
     id="text52"
     dy="0"
     y="211.15083"
     x="195.07491"
     sodipodi:linespacing="125%">3</text>
  <line
     style="font-size:medium;font-family:sans-serif;text-anchor:middle;fill:none"
     id="line54"
     y2="335.52094"
     x2="195.07491"
     y1="47.520927"
     x1="195.07491"
     class="grid" />
  <line
     style="font-size:medium;font-family:sans-serif;text-anchor:middle;fill:none;stroke:#000000"
     x2="231.07491"
     y1="191.52092"
     x1="231.07491"
     id="line58"
     y2="197.52092" />
  <text
     style="font-style:normal;font-variant:normal;font-weight:normal;font-stretch:normal;font-size:12.5px;line-height:125%;font-family:KaTeX_Main;-inkscape-font-specification:'KaTeX_Main, Normal';text-align:center;writing-mode:lr-tb;text-anchor:middle;fill:#000000"
     id="text60"
     dy="0"
     y="211.15083"
     x="231.07491"
     sodipodi:linespacing="125%">4</text>
  <line
     style="font-size:medium;font-family:sans-serif;text-anchor:middle;fill:none"
     id="line62"
     y2="335.52094"
     x2="231.07491"
     y1="47.520927"
     x1="231.07491"
     class="grid" />
  <line
     style="font-size:medium;font-family:sans-serif;text-anchor:middle;fill:none;stroke:#000000"
     x2="267.07489"
     y1="191.52092"
     x1="267.07489"
     id="line66"
     y2="197.52092" />
  <text
     style="font-style:normal;font-variant:normal;font-weight:normal;font-stretch:normal;font-size:12.5px;line-height:125%;font-family:KaTeX_Main;-inkscape-font-specification:'KaTeX_Main, Normal';text-align:center;writing-mode:lr-tb;text-anchor:middle;fill:#000000"
     id="text68"
     dy="0"
     y="211.15083"
     x="267.07489"
     sodipodi:linespacing="125%">5</text>
  <line
     style="font-size:medium;font-family:sans-serif;text-anchor:middle;fill:none"
     id="line70"
     y2="335.52094"
     x2="267.07489"
     y1="47.520927"
     x1="267.07489"
     class="grid" />
  <line
     style="font-size:medium;font-family:sans-serif;text-anchor:middle;fill:none;stroke:#000000"
     x2="303.07489"
     y1="191.52092"
     x1="303.07489"
     id="line74"
     y2="197.52092" />
  <text
     style="font-style:normal;font-variant:normal;font-weight:normal;font-stretch:normal;font-size:12.5px;line-height:125%;font-family:KaTeX_Main;-inkscape-font-specification:'KaTeX_Main, Normal';text-align:center;writing-mode:lr-tb;text-anchor:middle;fill:#000000"
     id="text76"
     dy="0"
     y="211.15083"
     x="303.07489"
     sodipodi:linespacing="125%">6</text>
  <line
     style="font-size:medium;font-family:sans-serif;text-anchor:middle;fill:none"
     id="line78"
     y2="335.52094"
     x2="303.07489"
     y1="47.520927"
     x1="303.07489"
     class="grid" />
  <text
     x="362.81107"
     dx="0"
     style="font-style:normal;font-variant:normal;font-weight:normal;font-stretch:normal;font-size:22.5px;line-height:125%;font-family:KaTeX_Main;-inkscape-font-specification:'KaTeX_Main, Normal';text-align:center;writing-mode:lr-tb;text-anchor:middle;fill:#000000"
     id="text80"
     y="195.06422"
     sodipodi:linespacing="125%"><tspan
   style="font-style:normal;font-variant:normal;font-weight:normal;font-stretch:normal;font-size:22.5px;line-height:125%;font-family:KaTeX_Math;-inkscape-font-specification:'KaTeX_Math, Normal';text-align:center;writing-mode:lr-tb;text-anchor:middle"
   id="tspan4504">t</tspan>
 (seconds)</text>
  <path
     class="domain"
     d="m 86.574902,336.02093 0.5,0 0,-288.000003 -0.5,0"
     id="path84"
     inkscape:connector-curvature="0"
     style="font-size:medium;font-family:sans-serif;text-anchor:end;fill:none;stroke:#000000" />
  <line
     style="font-size:medium;font-family:sans-serif;text-anchor:end;fill:none;stroke:#000000"
     y2="336.02094"
     y1="336.02094"
     x1="86.574905"
     id="line88"
     x2="80.574905" />
  <text
     style="font-style:normal;font-variant:normal;font-weight:normal;font-stretch:normal;font-size:12.5px;line-height:125%;font-family:KaTeX_Main;-inkscape-font-specification:'KaTeX_Main, Normal';text-align:center;writing-mode:lr-tb;text-anchor:middle;fill:#000000"
     id="text90"
     dy="0"
     x="71.944191"
     y="339.56424"
     sodipodi:linespacing="125%">-4</text>
  <line
     style="font-size:medium;font-family:sans-serif;text-anchor:end;fill:none"
     id="line92"
     y2="336.02094"
     x2="302.57489"
     y1="336.02094"
     x1="14.574903"
     class="grid" />
  <line
     style="font-size:medium;font-family:sans-serif;text-anchor:end;fill:none;stroke:#000000"
     y2="300.02094"
     y1="300.02094"
     x1="86.574905"
     id="line96"
     x2="80.574905" />
  <text
     style="font-style:normal;font-variant:normal;font-weight:normal;font-stretch:normal;font-size:12.5px;line-height:125%;font-family:KaTeX_Main;-inkscape-font-specification:'KaTeX_Main, Normal';text-align:center;writing-mode:lr-tb;text-anchor:middle;fill:#000000"
     id="text98"
     dy="0"
     x="72.119194"
     y="303.56424"
     sodipodi:linespacing="125%">-3</text>
  <line
     style="font-size:medium;font-family:sans-serif;text-anchor:end;fill:none"
     id="line100"
     y2="300.02094"
     x2="302.57489"
     y1="300.02094"
     x1="14.574903"
     class="grid" />
  <line
     style="font-size:medium;font-family:sans-serif;text-anchor:end;fill:none;stroke:#000000"
     y2="264.02094"
     y1="264.02094"
     x1="86.574905"
     id="line104"
     x2="80.574905" />
  <text
     style="font-style:normal;font-variant:normal;font-weight:normal;font-stretch:normal;font-size:12.5px;line-height:125%;font-family:KaTeX_Main;-inkscape-font-specification:'KaTeX_Main, Normal';text-align:center;writing-mode:lr-tb;text-anchor:middle;fill:#000000"
     id="text106"
     dy="0"
     x="72.219193"
     y="267.56424"
     sodipodi:linespacing="125%">-2</text>
  <line
     style="font-size:medium;font-family:sans-serif;text-anchor:end;fill:none"
     id="line108"
     y2="264.02094"
     x2="302.57489"
     y1="264.02094"
     x1="14.574903"
     class="grid" />
  <line
     style="font-size:medium;font-family:sans-serif;text-anchor:end;fill:none;stroke:#000000"
     y2="228.02092"
     y1="228.02092"
     x1="86.574905"
     id="line112"
     x2="80.574905" />
  <text
     style="font-style:normal;font-variant:normal;font-weight:normal;font-stretch:normal;font-size:12.5px;line-height:125%;font-family:KaTeX_Main;-inkscape-font-specification:'KaTeX_Main, Normal';text-align:center;writing-mode:lr-tb;text-anchor:middle;fill:#000000"
     id="text114"
     dy="0"
     x="72.494194"
     y="231.56422"
     sodipodi:linespacing="125%">-1</text>
  <line
     style="font-size:medium;font-family:sans-serif;text-anchor:end;fill:none"
     id="line116"
     y2="228.02092"
     x2="302.57489"
     y1="228.02092"
     x1="14.574903"
     class="grid" />
  <line
     style="font-size:medium;font-family:sans-serif;text-anchor:end;fill:none;stroke:#000000"
     y2="192.02092"
     y1="192.02092"
     x1="86.574905"
     id="line120"
     x2="80.574905" />
  <line
     style="font-size:medium;font-family:sans-serif;text-anchor:end;fill:none"
     id="line122"
     y2="192.02092"
     x2="302.57489"
     y1="192.02092"
     x1="14.574903"
     class="grid" />
  <line
     style="font-size:medium;font-family:sans-serif;text-anchor:end;fill:none;stroke:#000000"
     y2="156.02092"
     y1="156.02092"
     x1="86.574905"
     id="line126"
     x2="80.574905" />
  <text
     style="font-style:normal;font-variant:normal;font-weight:normal;font-stretch:normal;font-size:12.5px;line-height:125%;font-family:KaTeX_Main;-inkscape-font-specification:'KaTeX_Main, Normal';text-align:center;writing-mode:lr-tb;text-anchor:middle;fill:#000000"
     id="text128"
     dy="0"
     x="74.581604"
     y="159.56422"
     sodipodi:linespacing="125%">1</text>
  <line
     style="font-size:medium;font-family:sans-serif;text-anchor:end;fill:none"
     id="line130"
     y2="156.02092"
     x2="302.57489"
     y1="156.02092"
     x1="14.574903"
     class="grid" />
  <line
     style="font-size:medium;font-family:sans-serif;text-anchor:end;fill:none;stroke:#000000"
     y2="120.02093"
     y1="120.02093"
     x1="86.574905"
     id="line134"
     x2="80.574905" />
  <text
     style="font-style:normal;font-variant:normal;font-weight:normal;font-stretch:normal;font-size:12.5px;line-height:125%;font-family:KaTeX_Main;-inkscape-font-specification:'KaTeX_Main, Normal';text-align:center;writing-mode:lr-tb;text-anchor:middle;fill:#000000"
     id="text136"
     dy="0"
     x="74.306602"
     y="123.56422"
     sodipodi:linespacing="125%">2</text>
  <line
     style="font-size:medium;font-family:sans-serif;text-anchor:end;fill:none"
     id="line138"
     y2="120.02093"
     x2="302.57489"
     y1="120.02093"
     x1="14.574903"
     class="grid" />
  <line
     style="font-size:medium;font-family:sans-serif;text-anchor:end;fill:none;stroke:#000000"
     y2="84.020927"
     y1="84.020927"
     x1="86.574905"
     id="line142"
     x2="80.574905" />
  <text
     style="font-style:normal;font-variant:normal;font-weight:normal;font-stretch:normal;font-size:12.5px;line-height:125%;font-family:KaTeX_Main;-inkscape-font-specification:'KaTeX_Main, Normal';text-align:center;writing-mode:lr-tb;text-anchor:middle;fill:#000000"
     id="text144"
     dy="0"
     x="74.206604"
     y="87.564232"
     sodipodi:linespacing="125%">3</text>
  <line
     style="font-size:medium;font-family:sans-serif;text-anchor:end;fill:none"
     id="line146"
     y2="84.020927"
     x2="302.57489"
     y1="84.020927"
     x1="14.574903"
     class="grid" />
  <line
     style="font-size:medium;font-family:sans-serif;text-anchor:end;fill:none;stroke:#000000"
     y2="48.020927"
     y1="48.020927"
     x1="86.574905"
     id="line150"
     x2="80.574905" />
  <text
     style="font-style:normal;font-variant:normal;font-weight:normal;font-stretch:normal;font-size:12.5px;line-height:125%;font-family:KaTeX_Main;-inkscape-font-specification:'KaTeX_Main, Normal';text-align:center;writing-mode:lr-tb;text-anchor:middle;fill:#000000"
     id="text152"
     dy="0"
     x="74.031601"
     y="51.564236"
     sodipodi:linespacing="125%">4</text>
  <line
     style="font-size:medium;font-family:sans-serif;text-anchor:end;fill:none"
     id="line154"
     y2="48.020927"
     x2="302.57489"
     y1="48.020927"
     x1="14.574903"
     class="grid" />
  <path
     inkscape:connector-curvature="0"
     id="path158"
     style="fill:none;stroke:#d6d8da;stroke-width:3px;stroke-linecap:round"
     d="m 86.574902,11.520927 2.16,10.482384 2.16,9.871937 2.16,9.297041 2.16,8.755623 2.16,8.245735 2.16,7.765541 2.159998,7.313311 2.16,6.887417 2.16,6.486326 2.16,6.108591 2.16,5.752854 2.16,5.417833 2.16,5.10233 2.16,4.80519 2.16,4.52535 2.16,4.26182 2.16,4.01363 2.16,3.7799 2.16,3.55977 2.16,3.35246 2.16,3.15723 2.16,2.97338 2.16,2.80021 2.16,2.63714 2.16,2.48357 2.16,2.33894 2.16,2.20272 2.16,2.07445 2.16,1.95365 2.16,1.83987 2.16,1.73273 2.16,1.63182 2.16,1.53679 2.16,1.44729 2.16,1.36301 2.16,1.28364 2.16,1.20888 2.16,1.13848 2.16,1.07219 2.16,1.00974 2.16,0.95094 2.16,0.89556 2.16,0.84341 2.16,0.79429 2.16,0.74804 2.16,0.70447 2.16,0.66345 2.16,0.62481 2.16,0.58843 2.16,0.55416 2.16,0.52188 2.16,0.4915 2.16,0.46287 2.16,0.43592 2.16,0.41053 2.16,0.38662 2.16,0.36411 2.16,0.34291 2.16,0.32293 2.16,0.30413 2.16,0.28642 2.16,0.26974 2.16,0.25403 2.16,0.23923 2.16,0.22531 2.16,0.21218 2.16,0.19983 2.16,0.18819 2.16,0.17723 2.16,0.16691 2.16,0.15719 2.16,0.14803 2.16,0.13942 2.16,0.13129 2.16,0.12365 2.16,0.11645 2.16,0.10967 2.16,0.10328 2.16,0.0973 2.16,0.0916 2.16,0.0863 2.16,0.0813 2.16,0.0765 2.16,0.0721 2.16,0.0679 2.16,0.0639 2.16,0.0602 2.16,0.0567 2.16,0.0534 2.16,0.0503 2.16,0.0473 2.16,0.0446 2.16,0.042 2.16,0.0395 2.16,0.0373 2.16,0.0351 2.16,0.033 2.16,0.0311 2.16,0.0293 2.16,0.0276"
     class="path" />
  <path
     inkscape:connector-curvature="0"
     id="path160"
     style="fill:none;stroke:#d6d8da;stroke-width:3px;stroke-linecap:round"
     d="m 86.574902,371.52093 2.16,-10.48238 2.16,-9.87194 2.16,-9.29704 2.16,-8.75563 2.16,-8.24573 2.16,-7.76554 2.159998,-7.31331 2.16,-6.88742 2.16,-6.48632 2.16,-6.1086 2.16,-5.75285 2.16,-5.41783 2.16,-5.10233 2.16,-4.80519 2.16,-4.52535 2.16,-4.26182 2.16,-4.01363 2.16,-3.7799 2.16,-3.55977 2.16,-3.35246 2.16,-3.15724 2.16,-2.97337 2.16,-2.80021 2.16,-2.63714 2.16,-2.48357 2.16,-2.33894 2.16,-2.20272 2.16,-2.07445 2.16,-1.95365 2.16,-1.83987 2.16,-1.73273 2.16,-1.63182 2.16,-1.53679 2.16,-1.44729 2.16,-1.36301 2.16,-1.28364 2.16,-1.20888 2.16,-1.13848 2.16,-1.07219 2.16,-1.00974 2.16,-0.95094 2.16,-0.89556 2.16,-0.84341 2.16,-0.79429 2.16,-0.74804 2.16,-0.70447 2.16,-0.66345 2.16,-0.62481 2.16,-0.58843 2.16,-0.55416 2.16,-0.52188 2.16,-0.4915 2.16,-0.46287 2.16,-0.43592 2.16,-0.41053 2.16,-0.38662 2.16,-0.36411 2.16,-0.34291 2.16,-0.32293 2.16,-0.30413 2.16,-0.28642 2.16,-0.26974 2.16,-0.25403 2.16,-0.23923 2.16,-0.22531 2.16,-0.21218 2.16,-0.19983 2.16,-0.18819 2.16,-0.17723 2.16,-0.16691 2.16,-0.15719 2.16,-0.14803 2.16,-0.13942 2.16,-0.13129 2.16,-0.12365 2.16,-0.11645 2.16,-0.10967 2.16,-0.10328 2.16,-0.0973 2.16,-0.0916 2.16,-0.0863 2.16,-0.0813 2.16,-0.0765 2.16,-0.0721 2.16,-0.0679 2.16,-0.0639 2.16,-0.0602 2.16,-0.0567 2.16,-0.0534 2.16,-0.0503 2.16,-0.0473 2.16,-0.0446 2.16,-0.042 2.16,-0.0395 2.16,-0.0373 2.16,-0.0351 2.16,-0.033 2.16,-0.0311 2.16,-0.0293 2.16,-0.0276"
     class="path" />
  <path
     inkscape:connector-curvature="0"
     id="path162"
     style="fill:none;stroke:#11accd;stroke-width:3px;stroke-linecap:round"
     d="m 86.574902,191.52093 2.16,-20.29333 2.16,-17.65487 2.16,-15.01575 2.16,-12.42076 2.16,-9.90883 2.16,-7.51313 2.159998,-5.2611 2.16,-3.17462 2.16,-1.2703 2.16,0.440186 2.16,1.949794 2.16,3.25568 2.16,4.35876 2.16,5.26327 2.16,5.97636 2.16,6.5076 2.16,6.86855 2.16,7.07235 2.16,7.13333 2.16,7.0666 2.16,6.88773 2.16,6.61243 2.16,6.25628 2.16,5.83443 2.16,5.36148 2.16,4.85119 2.16,4.31646 2.16,3.76908 2.16,3.21976 2.16,2.67803 2.16,2.15221 2.16,1.64939 2.16,1.17549 2.16,0.73527 2.16,0.33239 2.16,-0.0306 2.16,-0.35198 2.16,-0.63107 2.16,-0.86791 2.16,-1.06328 2.16,-1.21854 2.16,-1.33561 2.16,-1.41683 2.16,-1.46485 2.16,-1.48264 2.16,-1.47332 2.16,-1.44008 2.16,-1.38622 2.16,-1.31497 2.16,-1.22951 2.16,-1.13289 2.16,-1.028 2.16,-0.91756 2.16,-0.80409 2.16,-0.6898 2.16,-0.57678 2.16,-0.46675 2.16,-0.36127 2.16,-0.2616 2.16,-0.16876 2.16,-0.0836 2.16,-0.007 2.16,0.0618 2.16,0.1214 2.16,0.1722 2.16,0.21435 2.16,0.24811 2.16,0.27383 2.16,0.29201 2.16,0.3032 2.16,0.30798 2.16,0.30701 2.16,0.30094 2.16,0.29047 2.16,0.27626 2.16,0.25898 2.16,0.23926 2.16,0.21772 2.16,0.19494 2.16,0.17142 2.16,0.14766 2.16,0.1241 2.16,0.10108 2.16,0.079 2.16,0.058 2.16,0.0384 2.16,0.0204 2.16,0.004 2.16,-0.0104 2.16,-0.0231 2.16,-0.034 2.16,-0.0431 2.16,-0.0504 2.16,-0.0561 2.16,-0.0601 2.16,-0.0627 2.16,-0.0639 2.16,-0.0639 2.16,-0.0629 2.16,-0.0608"
     class="path" />
  <line
     id="line164"
     style="stroke:#11accd;stroke-width:3px"
     y2="191.52092"
     x2="86.574905"
     y1="191.52092"
     x1="12.574903" />
  <text
     dx="6"
     dy="-6"
     style="font-style:normal;font-variant:normal;font-weight:normal;font-stretch:normal;font-size:12.5px;line-height:125%;font-family:KaTeX_Main;-inkscape-font-specification:'KaTeX_Main, Normal';text-align:center;writing-mode:lr-tb;text-anchor:middle;fill:#000000"
     id="text156"
     x="83.031609"
     y="43.977619"
     sodipodi:linespacing="125%">
    <tspan
       style="font-style:normal;font-variant:normal;font-weight:normal;font-stretch:normal;font-size:22.5px;line-height:125%;font-family:KaTeX_Main;-inkscape-font-specification:'KaTeX_Main, Normal';text-align:center;writing-mode:lr-tb;text-anchor:middle"
       id="tspan4506"><tspan
   style="font-style:normal;font-variant:normal;font-weight:normal;font-stretch:normal;font-size:22.5px;line-height:125%;font-family:KaTeX_Math;-inkscape-font-specification:'KaTeX_Math, Normal';text-align:center;writing-mode:lr-tb;text-anchor:middle"
   id="tspan4508">i</tspan>
 (amperes)</tspan>
  </text>
</svg>
