<?xml version="1.0" encoding="UTF-8" standalone="no"?>
<svg
   xmlns:xhtml="http://www.w3.org/1999/xhtml"
   xmlns:dc="http://purl.org/dc/elements/1.1/"
   xmlns:cc="http://creativecommons.org/ns#"
   xmlns:rdf="http://www.w3.org/1999/02/22-rdf-syntax-ns#"
   xmlns:svg="http://www.w3.org/2000/svg"
   xmlns="http://www.w3.org/2000/svg"
   xmlns:sodipodi="http://sodipodi.sourceforge.net/DTD/sodipodi-0.dtd"
   xmlns:inkscape="http://www.inkscape.org/namespaces/inkscape"
   width="430.32614"
   height="381.82321"
   version="1.1"
   id="svg2"
   inkscape:version="0.92.2 5c3e80d, 2017-08-06"
   sodipodi:docname="rlc_underdamped_voltages.svg">
  <metadata
     id="metadata194">
    <rdf:RDF>
      <cc:Work
         rdf:about="">
        <dc:format>image/svg+xml</dc:format>
        <dc:type
           rdf:resource="http://purl.org/dc/dcmitype/StillImage" />
        <dc:title></dc:title>
      </cc:Work>
    </rdf:RDF>
  </metadata>
  <defs
     id="defs192" />
  <sodipodi:namedview
     pagecolor="#ffffff"
     bordercolor="#666666"
     borderopacity="1"
     objecttolerance="10"
     gridtolerance="10"
     guidetolerance="10"
     inkscape:pageopacity="0"
     inkscape:pageshadow="2"
     inkscape:window-width="640"
     inkscape:window-height="480"
     id="namedview190"
     showgrid="false"
     fit-margin-top="10"
     fit-margin-right="10"
     fit-margin-bottom="10"
     fit-margin-left="10"
     inkscape:zoom="1.1642332"
     inkscape:cx="215.16307"
     inkscape:cy="190.91161"
     inkscape:current-layer="svg2" />
  <xhtml:defs>
    <xhtml:style
       type="text/css"><![CDATA[
svg .grid { stroke-width: 0.5px; stroke: rgb(187, 187, 187); opacity: 0.5; }
svg .domain { stroke-width: 3px; stroke: black; }
svg { border: 0px solid red; }
svg .path { stroke-width: 3px; stroke: rgb(17, 172, 205); fill: none; }
svg text { font-style: normal; font-variant: normal; font-weight: normal; font-stretch: normal; font-size: 18px; line-height: normal; font-family: katex_math; }
svg .tick text { font-style: normal; font-variant: normal; font-weight: normal; font-stretch: normal; font-size: 12px; line-height: normal; font-family: katex_math; }]]></xhtml:style>
  </xhtml:defs>
  <path
     class="domain"
     d="m 15.074899,259.50493 0,0.5 288.000001,0 0,-0.5"
     id="path8"
     inkscape:connector-curvature="0"
     style="font-size:medium;font-family:sans-serif;text-anchor:middle;fill:none;stroke:#000000" />
  <line
     style="font-size:medium;font-family:sans-serif;text-anchor:middle;fill:none;stroke:#000000"
     x2="15.074899"
     y1="259.50494"
     x1="15.074899"
     id="line12"
     y2="265.50491" />
  <text
     style="font-style:normal;font-variant:normal;font-weight:normal;font-stretch:normal;font-size:12.5px;line-height:0%;font-family:KaTeX_Main;-inkscape-font-specification:'KaTeX_Main, Normal';text-align:center;writing-mode:lr-tb;text-anchor:middle;fill:#000000"
     id="text14"
     dy="0"
     y="279.13483"
     x="15.074903">-2</text>
  <line
     style="font-size:medium;font-family:sans-serif;text-anchor:middle;fill:none"
     id="line16"
     y2="367.50491"
     x2="15.074899"
     y1="43.504929"
     x1="15.074899"
     class="grid" />
  <line
     style="font-size:medium;font-family:sans-serif;text-anchor:middle;fill:none;stroke:#000000"
     x2="51.074898"
     y1="259.50494"
     x1="51.074898"
     id="line20"
     y2="265.50491" />
  <text
     style="font-style:normal;font-variant:normal;font-weight:normal;font-stretch:normal;font-size:12.5px;line-height:0%;font-family:KaTeX_Main;-inkscape-font-specification:'KaTeX_Main, Normal';text-align:center;writing-mode:lr-tb;text-anchor:middle;fill:#000000"
     id="text22"
     dy="0"
     y="279.13483"
     x="51.07489">-1</text>
  <line
     style="font-size:medium;font-family:sans-serif;text-anchor:middle;fill:none"
     id="line24"
     y2="367.50491"
     x2="51.074898"
     y1="43.504929"
     x1="51.074898"
     class="grid" />
  <line
     style="font-size:medium;font-family:sans-serif;text-anchor:middle;fill:none;stroke:#000000"
     x2="87.074898"
     y1="259.50494"
     x1="87.074898"
     id="line28"
     y2="265.50491" />
  <line
     style="font-size:medium;font-family:sans-serif;text-anchor:middle;fill:none"
     id="line30"
     y2="367.50491"
     x2="87.074898"
     y1="43.504929"
     x1="87.074898"
     class="grid" />
  <line
     style="font-size:medium;font-family:sans-serif;text-anchor:middle;fill:none;stroke:#000000"
     x2="123.0749"
     y1="259.50494"
     x1="123.0749"
     id="line34"
     y2="265.50491" />
  <text
     style="font-style:normal;font-variant:normal;font-weight:normal;font-stretch:normal;font-size:12.5px;line-height:0%;font-family:KaTeX_Main;-inkscape-font-specification:'KaTeX_Main, Normal';text-align:center;writing-mode:lr-tb;text-anchor:middle;fill:#000000"
     id="text36"
     dy="0"
     y="279.13483"
     x="123.07488">1</text>
  <line
     style="font-size:medium;font-family:sans-serif;text-anchor:middle;fill:none"
     id="line38"
     y2="367.50491"
     x2="123.0749"
     y1="43.504929"
     x1="123.0749"
     class="grid" />
  <line
     style="font-size:medium;font-family:sans-serif;text-anchor:middle;fill:none;stroke:#000000"
     x2="159.07491"
     y1="259.50494"
     x1="159.07491"
     id="line42"
     y2="265.50491" />
  <text
     style="font-style:normal;font-variant:normal;font-weight:normal;font-stretch:normal;font-size:12.5px;line-height:0%;font-family:KaTeX_Main;-inkscape-font-specification:'KaTeX_Main, Normal';text-align:center;writing-mode:lr-tb;text-anchor:middle;fill:#000000"
     id="text44"
     dy="0"
     y="279.13483"
     x="159.07489">2</text>
  <line
     style="font-size:medium;font-family:sans-serif;text-anchor:middle;fill:none"
     id="line46"
     y2="367.50491"
     x2="159.07491"
     y1="43.504929"
     x1="159.07491"
     class="grid" />
  <line
     style="font-size:medium;font-family:sans-serif;text-anchor:middle;fill:none;stroke:#000000"
     x2="195.07491"
     y1="259.50494"
     x1="195.07491"
     id="line50"
     y2="265.50491" />
  <text
     style="font-style:normal;font-variant:normal;font-weight:normal;font-stretch:normal;font-size:12.5px;line-height:0%;font-family:KaTeX_Main;-inkscape-font-specification:'KaTeX_Main, Normal';text-align:center;writing-mode:lr-tb;text-anchor:middle;fill:#000000"
     id="text52"
     dy="0"
     y="279.13483"
     x="195.07489">3</text>
  <line
     style="font-size:medium;font-family:sans-serif;text-anchor:middle;fill:none"
     id="line54"
     y2="367.50491"
     x2="195.07491"
     y1="43.504929"
     x1="195.07491"
     class="grid" />
  <line
     style="font-size:medium;font-family:sans-serif;text-anchor:middle;fill:none;stroke:#000000"
     x2="231.07491"
     y1="259.50494"
     x1="231.07491"
     id="line58"
     y2="265.50491" />
  <text
     style="font-style:normal;font-variant:normal;font-weight:normal;font-stretch:normal;font-size:12.5px;line-height:0%;font-family:KaTeX_Main;-inkscape-font-specification:'KaTeX_Main, Normal';text-align:center;writing-mode:lr-tb;text-anchor:middle;fill:#000000"
     id="text60"
     dy="0"
     y="279.13483"
     x="231.07491">4</text>
  <line
     style="font-size:medium;font-family:sans-serif;text-anchor:middle;fill:none"
     id="line62"
     y2="367.50491"
     x2="231.07491"
     y1="43.504929"
     x1="231.07491"
     class="grid" />
  <line
     style="font-size:medium;font-family:sans-serif;text-anchor:middle;fill:none;stroke:#000000"
     x2="267.07489"
     y1="259.50494"
     x1="267.07489"
     id="line66"
     y2="265.50491" />
  <text
     style="font-style:normal;font-variant:normal;font-weight:normal;font-stretch:normal;font-size:12.5px;line-height:0%;font-family:KaTeX_Main;-inkscape-font-specification:'KaTeX_Main, Normal';text-align:center;writing-mode:lr-tb;text-anchor:middle;fill:#000000"
     id="text68"
     dy="0"
     y="279.13483"
     x="267.07489">5</text>
  <line
     style="font-size:medium;font-family:sans-serif;text-anchor:middle;fill:none"
     id="line70"
     y2="367.50491"
     x2="267.07489"
     y1="43.504929"
     x1="267.07489"
     class="grid" />
  <line
     style="font-size:medium;font-family:sans-serif;text-anchor:middle;fill:none;stroke:#000000"
     x2="303.07489"
     y1="259.50494"
     x1="303.07489"
     id="line74"
     y2="265.50491" />
  <text
     style="font-style:normal;font-variant:normal;font-weight:normal;font-stretch:normal;font-size:12.5px;line-height:0%;font-family:KaTeX_Main;-inkscape-font-specification:'KaTeX_Main, Normal';text-align:center;writing-mode:lr-tb;text-anchor:middle;fill:#000000"
     id="text76"
     dy="0"
     y="279.13483"
     x="303.07489">6</text>
  <line
     style="font-size:medium;font-family:sans-serif;text-anchor:middle;fill:none"
     id="line78"
     y2="367.50491"
     x2="303.07489"
     y1="43.504929"
     x1="303.07489"
     class="grid" />
  <text
     x="369.89767"
     dx="0"
     style="font-style:normal;font-variant:normal;font-weight:normal;font-stretch:normal;font-size:22.5px;line-height:0%;font-family:KaTeX_Main;-inkscape-font-specification:'KaTeX_Main, Normal';text-align:center;writing-mode:lr-tb;text-anchor:middle;fill:#000000"
     id="text80"
     y="263.04822"><tspan
   style="font-style:normal;font-variant:normal;font-weight:normal;font-stretch:normal;font-size:22.5px;line-height:125%;font-family:KaTeX_Math;-inkscape-font-specification:'KaTeX_Math, Normal';text-align:center;writing-mode:lr-tb;text-anchor:middle"
   id="tspan4547">t</tspan>
 (seconds)</text>
  <path
     class="domain"
     d="m 86.574899,368.00493 0.5,0 0,-324.000004 -0.5,0"
     id="path84"
     inkscape:connector-curvature="0"
     style="font-size:medium;font-family:sans-serif;text-anchor:end;fill:none;stroke:#000000" />
  <line
     style="font-size:medium;font-family:sans-serif;text-anchor:end;fill:none;stroke:#000000"
     y2="368.00491"
     y1="368.00491"
     x1="86.574898"
     id="line88"
     x2="80.574898" />
  <text
     style="font-style:normal;font-variant:normal;font-weight:normal;font-stretch:normal;font-size:12.5px;line-height:0%;font-family:KaTeX_Main;-inkscape-font-specification:'KaTeX_Main, Normal';text-align:center;writing-mode:lr-tb;text-anchor:middle;fill:#000000"
     id="text90"
     dy="0"
     x="71.438377"
     y="371.54822">-6</text>
  <line
     style="font-size:medium;font-family:sans-serif;text-anchor:end;fill:none"
     id="line92"
     y2="368.00491"
     x2="302.57489"
     y1="368.00491"
     x1="14.574899"
     class="grid" />
  <line
     style="font-size:medium;font-family:sans-serif;text-anchor:end;fill:none;stroke:#000000"
     y2="332.00491"
     y1="332.00491"
     x1="86.574898"
     id="line96"
     x2="80.574898" />
  <text
     style="font-style:normal;font-variant:normal;font-weight:normal;font-stretch:normal;font-size:12.5px;line-height:0%;font-family:KaTeX_Main;-inkscape-font-specification:'KaTeX_Main, Normal';text-align:center;writing-mode:lr-tb;text-anchor:middle;fill:#000000"
     id="text98"
     dy="0"
     x="71.250877"
     y="335.54822">-4</text>
  <line
     style="font-size:medium;font-family:sans-serif;text-anchor:end;fill:none"
     id="line100"
     y2="332.00491"
     x2="302.57489"
     y1="332.00491"
     x1="14.574899"
     class="grid" />
  <line
     style="font-size:medium;font-family:sans-serif;text-anchor:end;fill:none;stroke:#000000"
     y2="296.00491"
     y1="296.00491"
     x1="86.574898"
     id="line104"
     x2="80.574898" />
  <text
     style="font-style:normal;font-variant:normal;font-weight:normal;font-stretch:normal;font-size:12.5px;line-height:0%;font-family:KaTeX_Main;-inkscape-font-specification:'KaTeX_Main, Normal';text-align:center;writing-mode:lr-tb;text-anchor:middle;fill:#000000"
     id="text106"
     dy="0"
     x="71.525879"
     y="299.54822">-2</text>
  <line
     style="font-size:medium;font-family:sans-serif;text-anchor:end;fill:none"
     id="line108"
     y2="296.00491"
     x2="302.57489"
     y1="296.00491"
     x1="14.574899"
     class="grid" />
  <line
     style="font-size:medium;font-family:sans-serif;text-anchor:end;fill:none;stroke:#000000"
     y2="260.00491"
     y1="260.00491"
     x1="86.574898"
     id="line112"
     x2="80.574898" />
  <line
     style="font-size:medium;font-family:sans-serif;text-anchor:end;fill:none"
     id="line114"
     y2="260.00491"
     x2="302.57489"
     y1="260.00491"
     x1="14.574899"
     class="grid" />
  <line
     style="font-size:medium;font-family:sans-serif;text-anchor:end;fill:none;stroke:#000000"
     y2="224.00493"
     y1="224.00493"
     x1="86.574898"
     id="line118"
     x2="80.574898" />
  <text
     style="font-style:normal;font-variant:normal;font-weight:normal;font-stretch:normal;font-size:12.5px;line-height:0%;font-family:KaTeX_Main;-inkscape-font-specification:'KaTeX_Main, Normal';text-align:center;writing-mode:lr-tb;text-anchor:middle;fill:#000000"
     id="text120"
     dy="0"
     x="73.613281"
     y="227.54823">2</text>
  <line
     style="font-size:medium;font-family:sans-serif;text-anchor:end;fill:none"
     id="line122"
     y2="224.00493"
     x2="302.57489"
     y1="224.00493"
     x1="14.574899"
     class="grid" />
  <line
     style="font-size:medium;font-family:sans-serif;text-anchor:end;fill:none;stroke:#000000"
     y2="188.00493"
     y1="188.00493"
     x1="86.574898"
     id="line126"
     x2="80.574898" />
  <text
     style="font-style:normal;font-variant:normal;font-weight:normal;font-stretch:normal;font-size:12.5px;line-height:0%;font-family:KaTeX_Main;-inkscape-font-specification:'KaTeX_Main, Normal';text-align:center;writing-mode:lr-tb;text-anchor:middle;fill:#000000"
     id="text128"
     dy="0"
     x="73.33828"
     y="191.54823">4</text>
  <line
     style="font-size:medium;font-family:sans-serif;text-anchor:end;fill:none"
     id="line130"
     y2="188.00493"
     x2="302.57489"
     y1="188.00493"
     x1="14.574899"
     class="grid" />
  <line
     style="font-size:medium;font-family:sans-serif;text-anchor:end;fill:none;stroke:#000000"
     y2="152.00493"
     y1="152.00493"
     x1="86.574898"
     id="line134"
     x2="80.574898" />
  <text
     style="font-style:normal;font-variant:normal;font-weight:normal;font-stretch:normal;font-size:12.5px;line-height:0%;font-family:KaTeX_Main;-inkscape-font-specification:'KaTeX_Main, Normal';text-align:center;writing-mode:lr-tb;text-anchor:middle;fill:#000000"
     id="text136"
     dy="0"
     x="73.52578"
     y="155.54823">6</text>
  <line
     style="font-size:medium;font-family:sans-serif;text-anchor:end;fill:none"
     id="line138"
     y2="152.00493"
     x2="302.57489"
     y1="152.00493"
     x1="14.574899"
     class="grid" />
  <line
     style="font-size:medium;font-family:sans-serif;text-anchor:end;fill:none;stroke:#000000"
     y2="116.00492"
     y1="116.00492"
     x1="86.574898"
     id="line142"
     x2="80.574898" />
  <text
     style="font-style:normal;font-variant:normal;font-weight:normal;font-stretch:normal;font-size:12.5px;line-height:0%;font-family:KaTeX_Main;-inkscape-font-specification:'KaTeX_Main, Normal';text-align:center;writing-mode:lr-tb;text-anchor:middle;fill:#000000"
     id="text144"
     dy="0"
     x="73.513283"
     y="119.54822">8</text>
  <line
     style="font-size:medium;font-family:sans-serif;text-anchor:end;fill:none"
     id="line146"
     y2="116.00492"
     x2="302.57489"
     y1="116.00492"
     x1="14.574899"
     class="grid" />
  <line
     style="font-size:medium;font-family:sans-serif;text-anchor:end;fill:none;stroke:#000000"
     y2="80.004929"
     y1="80.004929"
     x1="86.574898"
     id="line150"
     x2="80.574898" />
  <text
     style="font-style:normal;font-variant:normal;font-weight:normal;font-stretch:normal;font-size:12.5px;line-height:0%;font-family:KaTeX_Main;-inkscape-font-specification:'KaTeX_Main, Normal';text-align:center;writing-mode:lr-tb;text-anchor:middle;fill:#000000"
     id="text152"
     dy="0"
     x="70.350784"
     y="83.548233">10</text>
  <line
     style="font-size:medium;font-family:sans-serif;text-anchor:end;fill:none"
     id="line154"
     y2="80.004929"
     x2="302.57489"
     y1="80.004929"
     x1="14.574899"
     class="grid" />
  <line
     style="font-size:medium;font-family:sans-serif;text-anchor:end;fill:none;stroke:#000000"
     y2="44.004929"
     y1="44.004929"
     x1="86.574898"
     id="line158"
     x2="80.574898" />
  <text
     style="font-style:normal;font-variant:normal;font-weight:normal;font-stretch:normal;font-size:12.5px;line-height:0%;font-family:KaTeX_Main;-inkscape-font-specification:'KaTeX_Main, Normal';text-align:center;writing-mode:lr-tb;text-anchor:middle;fill:#000000"
     id="text160"
     dy="0"
     x="70.488281"
     y="47.548233">12</text>
  <line
     style="font-size:medium;font-family:sans-serif;text-anchor:end;fill:none"
     id="line162"
     y2="44.004929"
     x2="302.57489"
     y1="44.004929"
     x1="14.574899"
     class="grid" />
  <text
     dx="6"
     dy="-6"
     style="font-style:normal;font-variant:normal;font-weight:normal;font-stretch:normal;font-size:12.5px;line-height:0%;font-family:KaTeX_Main;-inkscape-font-specification:'KaTeX_Main, Normal';text-align:center;writing-mode:lr-tb;text-anchor:middle;fill:#000000"
     id="text164"
     x="83.031586"
     y="32.875">
    <tspan
       style="font-style:normal;font-variant:normal;font-weight:normal;font-stretch:normal;font-size:22.5px;line-height:125%;font-family:KaTeX_Main;-inkscape-font-specification:'KaTeX_Main, Normal';text-align:center;writing-mode:lr-tb;text-anchor:middle"
       id="tspan4549"><tspan
   style="font-style:normal;font-variant:normal;font-weight:normal;font-stretch:normal;font-size:22.5px;line-height:125%;font-family:KaTeX_Math;-inkscape-font-specification:'KaTeX_Math, Normal';text-align:center;writing-mode:lr-tb;text-anchor:middle"
   id="tspan4551">v</tspan>
 (volts)</tspan>
  </text>
  <path
     inkscape:connector-curvature="0"
     id="path166"
     style="fill:none;stroke:#11accd;stroke-width:3px;stroke-linecap:round"
     d="m 86.574899,79.504926 2.16,1.554783 2.16,4.401208 2.16,6.851221 2.16,8.908152 2.16,10.58161 2.16,11.88662 2.160001,12.84275 2.16,13.47323 2.16,13.80425 2.16,13.86402 2.16,13.68224 2.16,13.28928 2.16,12.71568 2.16,11.99159 2.16,11.14628 2.16,10.20777 2.16,9.20251 2.16,8.15507 2.16,7.08795 2.16,6.02146 2.16,4.97357 2.16,3.95996 2.16,2.99389 2.16,2.08636 2.16,1.24611 2.16,0.47978 2.16,-0.20802 2.16,-0.81453 2.16,-1.33865 2.16,-1.78084 2.16,-2.14286 2.16,-2.42765 2.16,-2.63912 2.16,-2.78198 2.16,-2.86158 2.16,-2.8837 2.16,-2.85448 2.16,-2.78022 2.16,-2.66728 2.16,-2.52192 2.16,-2.3503 2.16,-2.15827 2.16,-1.9514 2.16,-1.73489 2.16,-1.51346 2.16,-1.29145 2.16,-1.07266 2.16,-0.86046 2.16,-0.65766 2.16,-0.46668 2.16,-0.28937 2.16,-0.12722 2.16,0.0187 2.16,0.1479 2.16,0.25994 2.16,0.3549 2.16,0.43312 2.16,0.49516 2.16,0.54179 2.16,0.57398 2.16,0.5928 2.16,0.59946 2.16,0.59521 2.16,0.58136 2.16,0.55923 2.16,0.53014 2.16,0.49534 2.16,0.45611 2.16,0.41357 2.16,0.36885 2.16,0.32293 2.16,0.27674 2.16,0.23109 2.16,0.18668 2.16,0.14413 2.16,0.10396 2.16,0.0666 2.16,0.0323 2.16,10e-4 2.16,-0.0262 2.16,-0.0501 2.16,-0.0705 2.16,-0.0874 2.16,-0.10086 2.16,-0.11111 2.16,-0.11832 2.16,-0.12273 2.16,-0.12454 2.16,-0.12404 2.16,-0.12151 2.16,-0.1172 2.16,-0.11138 2.16,-0.10435 2.16,-0.0963 2.16,-0.0876 2.16,-0.0784 2.16,-0.0689 2.16,-0.0592 2.16,-0.0497 2.16,-0.0404"
     class="path" />
  <text
     id="text168"
     style="font-style:normal;font-variant:normal;font-weight:normal;font-stretch:normal;font-size:22.5px;line-height:0%;font-family:KaTeX_Main;-inkscape-font-specification:'KaTeX_Main, Normal';text-align:center;writing-mode:lr-tb;text-anchor:middle;fill:#11accd"
     y="297.34735"
     x="172.18115">
    <tspan
       style="font-style:normal;font-variant:normal;font-weight:normal;font-stretch:normal;font-size:22.5px;line-height:125%;font-family:KaTeX_Math;-inkscape-font-specification:'KaTeX_Math, Normal';text-align:center;writing-mode:lr-tb;text-anchor:middle"
       id="tspan4559">v</tspan>
    <tspan
       style="font-size:64.99999762%;baseline-shift:sub"
       id="tspan4557">C</tspan>
  </text>
  <path
     inkscape:connector-curvature="0"
     id="path172"
     style="fill:none;stroke:#ca337c;stroke-width:3px;stroke-linecap:round"
     d="m 86.574899,79.504926 2.16,21.848114 2.16,22.05608 2.16,21.86697 2.16,21.32891 2.16,20.49044 2.16,19.39976 2.160001,18.10384 2.16,16.64785 2.16,15.07454 2.16,13.42384 2.16,11.73245 2.16,10.0336 2.16,8.35693 2.16,6.72831 2.16,5.16992 2.16,3.70017 2.16,2.33396 2.16,1.08272 2.16,-0.0454 2.16,-1.04515 2.16,-1.91415 2.16,-2.65248 2.16,-3.26238 2.16,-3.74807 2.16,-4.11537 2.16,-4.37141 2.16,-4.52448 2.16,-4.58361 2.16,-4.55841 2.16,-4.45887 2.16,-4.29507 2.16,-4.07703 2.16,-3.81462 2.16,-3.51726 2.16,-3.19396 2.16,-2.85312 2.16,-2.50251 2.16,-2.14916 2.16,-1.79936 2.16,-1.45864 2.16,-1.13176 2.16,-0.82266 2.16,-0.53458 2.16,-0.27003 2.16,-0.0308 2.16,0.18187 2.16,0.36742 2.16,0.52576 2.16,0.65731 2.16,0.76283 2.16,0.84352 2.16,0.90078 2.16,0.93632 2.16,0.95198 2.16,0.94974 2.16,0.93168 2.16,0.89987 2.16,0.85643 2.16,0.80339 2.16,0.74274 2.16,0.67637 2.16,0.60605 2.16,0.53342 2.16,0.45996 2.16,0.38703 2.16,0.31578 2.16,0.24725 2.16,0.18227 2.16,0.12155 2.16,0.0656 2.16,0.015 2.16,-0.0303 2.16,-0.0699 2.16,-0.10379 2.16,-0.13213 2.16,-0.15502 2.16,-0.1727 2.16,-0.18545 2.16,-0.19363 2.16,-0.1976 2.16,-0.19777 2.16,-0.19458 2.16,-0.18844 2.16,-0.17982 2.16,-0.16912 2.16,-0.15677 2.16,-0.14316 2.16,-0.12866 2.16,-0.11362 2.16,-0.0984 2.16,-0.0832 2.16,-0.0683 2.16,-0.0539 2.16,-0.0403 2.16,-0.0275 2.16,-0.0157 2.16,-0.005 2.16,0.005 2.16,0.0131 2.16,0.0204"
     class="path" />
  <text
     id="text174"
     style="font-style:normal;font-variant:normal;font-weight:normal;font-stretch:normal;font-size:12.5px;line-height:0%;font-family:KaTeX_Main;-inkscape-font-specification:'KaTeX_Main, Normal';text-align:center;writing-mode:lr-tb;text-anchor:middle;fill:#ca337c"
     y="326.04822"
     x="147.6615">
    <tspan
       style="font-style:normal;font-variant:normal;font-weight:normal;font-stretch:normal;font-size:22.5px;line-height:125%;font-family:KaTeX_Main;-inkscape-font-specification:'KaTeX_Main, Normal';text-align:center;writing-mode:lr-tb;text-anchor:middle"
       id="tspan4565">
      <tspan
         style="font-style:normal;font-variant:normal;font-weight:normal;font-stretch:normal;font-size:22.5px;line-height:125%;font-family:KaTeX_Math;-inkscape-font-specification:'KaTeX_Math, Normal';text-align:center;writing-mode:lr-tb;text-anchor:middle"
         id="tspan4569">v</tspan>
      <tspan
         style="font-size:64.99999762%;baseline-shift:sub"
         id="tspan4567">L</tspan>
    </tspan>
  </text>
  <path
     inkscape:connector-curvature="0"
     id="path178"
     style="fill:none;stroke:#1fab54;stroke-width:3px;stroke-linecap:round"
     d="m 86.574899,259.50493 2.16,20.29333 2.16,17.65487 2.16,15.01575 2.16,12.42076 2.16,9.90883 2.16,7.51313 2.160001,5.2611 2.16,3.17461 2.16,1.27031 2.16,-0.44019 2.16,-1.9498 2.16,-3.25567 2.16,-4.35876 2.16,-5.26327 2.16,-5.97636 2.16,-6.5076 2.16,-6.86855 2.16,-7.07235 2.16,-7.13333 2.16,-7.0666 2.16,-6.88773 2.16,-6.61243 2.16,-6.25628 2.16,-5.83443 2.16,-5.36148 2.16,-4.85119 2.16,-4.31646 2.16,-3.76908 2.16,-3.21976 2.16,-2.67803 2.16,-2.15221 2.16,-1.64939 2.16,-1.17549 2.16,-0.73527 2.16,-0.33239 2.16,0.0306 2.16,0.35198 2.16,0.63107 2.16,0.86791 2.16,1.06328 2.16,1.21854 2.16,1.33561 2.16,1.41683 2.16,1.46485 2.16,1.48264 2.16,1.47332 2.16,1.44008 2.16,1.38622 2.16,1.31497 2.16,1.22951 2.16,1.13289 2.16,1.028 2.16,0.91756 2.16,0.80409 2.16,0.6898 2.16,0.57678 2.16,0.46675 2.16,0.36127 2.16,0.2616 2.16,0.16876 2.16,0.0836 2.16,0.007 2.16,-0.0618 2.16,-0.1214 2.16,-0.1722 2.16,-0.21435 2.16,-0.24811 2.16,-0.27383 2.16,-0.29201 2.16,-0.3032 2.16,-0.30798 2.16,-0.30701 2.16,-0.30094 2.16,-0.29047 2.16,-0.27626 2.16,-0.25898 2.16,-0.23926 2.16,-0.21772 2.16,-0.19494 2.16,-0.17142 2.16,-0.14766 2.16,-0.1241 2.16,-0.10108 2.16,-0.079 2.16,-0.058 2.16,-0.0384 2.16,-0.0204 2.16,-0.004 2.16,0.0104 2.16,0.0231 2.16,0.034 2.16,0.0431 2.16,0.0504 2.16,0.0561 2.16,0.0601 2.16,0.0627 2.16,0.0639 2.16,0.0639 2.16,0.0629 2.16,0.0608"
     class="path" />
  <text
     id="text180"
     style="font-style:normal;font-variant:normal;font-weight:normal;font-stretch:normal;font-size:12.5px;line-height:0%;font-family:KaTeX_Main;-inkscape-font-specification:'KaTeX_Main, Normal';text-align:center;writing-mode:lr-tb;text-anchor:middle;fill:#1fab54"
     y="362.04822"
     x="122.51818">
    <tspan
       id="tspan2613"
       style="font-style:normal;font-variant:normal;font-weight:normal;font-stretch:normal;font-size:22.5px;line-height:125%;font-family:KaTeX_Math;-inkscape-font-specification:'KaTeX_Math, Normal';text-align:center;writing-mode:lr-tb;text-anchor:middle">v</tspan>
    <tspan
       style="font-style:normal;font-variant:normal;font-weight:normal;font-stretch:normal;font-size:14.66666667px;line-height:179.99999523%;font-family:KaTeX_Main;-inkscape-font-specification:'KaTeX_Main, Normal';font-variant-ligatures:normal;font-variant-caps:normal;font-variant-numeric:normal;font-feature-settings:normal;text-align:center;writing-mode:lr;text-anchor:middle;baseline-shift:sub"
       id="tspan4571">R</tspan>
  </text>
  <line
     id="line184"
     style="stroke:#11accd;stroke-width:3px"
     y2="79.504929"
     x2="86.574898"
     y1="79.504929"
     x1="12.574899" />
  <line
     id="line186"
     style="stroke:#ca337c;stroke-width:3px"
     y2="259.50494"
     x2="86.574898"
     y1="259.50494"
     x1="12.574899" />
  <line
     id="line188"
     style="stroke:#ca337c;stroke-width:3px"
     y2="79.504929"
     x2="86.574898"
     y1="259.50494"
     x1="86.574898" />
</svg>
