<?xml version="1.0" encoding="UTF-8" standalone="no"?>
<svg
   xmlns:xhtml="http://www.w3.org/1999/xhtml"
   xmlns:dc="http://purl.org/dc/elements/1.1/"
   xmlns:cc="http://creativecommons.org/ns#"
   xmlns:rdf="http://www.w3.org/1999/02/22-rdf-syntax-ns#"
   xmlns:svg="http://www.w3.org/2000/svg"
   xmlns="http://www.w3.org/2000/svg"
   xmlns:sodipodi="http://sodipodi.sourceforge.net/DTD/sodipodi-0.dtd"
   xmlns:inkscape="http://www.inkscape.org/namespaces/inkscape"
   width="453.42999"
   height="254.19238"
   version="1.1"
   id="svg180"
   sodipodi:docname="rlc_3variations_current.svg"
   inkscape:version="0.92.2 5c3e80d, 2017-08-06">
  <metadata
     id="metadata186">
    <rdf:RDF>
      <cc:Work
         rdf:about="">
        <dc:format>image/svg+xml</dc:format>
        <dc:type
           rdf:resource="http://purl.org/dc/dcmitype/StillImage" />
        <dc:title></dc:title>
      </cc:Work>
    </rdf:RDF>
  </metadata>
  <defs
     id="defs184" />
  <sodipodi:namedview
     pagecolor="#ffffff"
     bordercolor="#666666"
     borderopacity="1"
     objecttolerance="10"
     gridtolerance="10"
     guidetolerance="10"
     inkscape:pageopacity="0"
     inkscape:pageshadow="2"
     inkscape:window-width="640"
     inkscape:window-height="480"
     id="namedview182"
     showgrid="false"
     fit-margin-top="10"
     fit-margin-right="10"
     fit-margin-bottom="10"
     fit-margin-left="10"
     inkscape:zoom="1.1049115"
     inkscape:cx="226.715"
     inkscape:cy="125.20643"
     inkscape:current-layer="svg180" />
  <xhtml:defs>
    <xhtml:style
       type="text/css"><![CDATA[
svg .grid { stroke-width: 0.5px; stroke: rgb(187, 187, 187); opacity: 0.5; }
svg .domain { stroke-width: 3px; stroke: black; }
svg { border: 0px solid red; }
svg .path { stroke-width: 3px; stroke: rgb(17, 172, 205); fill: none; stroke-linecap: round; }
svg text { font: 16px katex_math; }
svg .tick text { font: 12px katex_math; }]]></xhtml:style>
  </xhtml:defs>
  <path
     class="domain"
     d="m 15.413229,159.55906 v 0.5 H 335.41323 v -0.5"
     id="path2"
     inkscape:connector-curvature="0"
     style="font-size:medium;font-family:sans-serif;text-anchor:middle;fill:none;stroke:#000000" />
  <line
     style="font-size:medium;font-family:sans-serif;text-anchor:middle;fill:none;stroke:#000000"
     x2="15.413229"
     y1="159.55905"
     x1="15.413229"
     id="line4"
     y2="165.55905" />
  <text
     style="font-style:normal;font-variant:normal;font-weight:normal;font-stretch:normal;font-size:13.33333302px;font-family:KaTeX_Main;-inkscape-font-specification:'KaTeX_Main, Normal';font-variant-ligatures:normal;font-variant-caps:normal;font-variant-numeric:normal;font-feature-settings:normal;text-align:center;writing-mode:lr-tb;text-anchor:middle;fill:#000000"
     id="text6"
     dy="8.5199995"
     y="172.33858"
     x="15.413229">-2</text>
  <line
     style="font-size:medium;font-family:sans-serif;text-anchor:middle;fill:none"
     id="line8"
     y2="239.55905"
     x2="15.413229"
     y1="39.559055"
     x1="15.413229"
     class="grid" />
  <line
     style="font-size:medium;font-family:sans-serif;text-anchor:middle;fill:none;stroke:#000000"
     x2="55.413231"
     y1="159.55905"
     x1="55.413231"
     id="line12"
     y2="165.55905" />
  <text
     style="font-style:normal;font-variant:normal;font-weight:normal;font-stretch:normal;font-size:13.33333302px;font-family:KaTeX_Main;-inkscape-font-specification:'KaTeX_Main, Normal';font-variant-ligatures:normal;font-variant-caps:normal;font-variant-numeric:normal;font-feature-settings:normal;text-align:center;writing-mode:lr-tb;text-anchor:middle;fill:#000000"
     id="text14"
     dy="8.5199995"
     y="172.33858"
     x="55.413231">-1</text>
  <line
     style="font-size:medium;font-family:sans-serif;text-anchor:middle;fill:none"
     id="line16"
     y2="239.55905"
     x2="55.413231"
     y1="39.559055"
     x1="55.413231"
     class="grid" />
  <line
     style="font-size:medium;font-family:sans-serif;text-anchor:middle;fill:none;stroke:#000000"
     x2="95.413231"
     y1="159.55905"
     x1="95.413231"
     id="line20"
     y2="165.55905" />
  <line
     style="font-size:medium;font-family:sans-serif;text-anchor:middle;fill:none"
     id="line22"
     y2="239.55905"
     x2="95.413231"
     y1="39.559055"
     x1="95.413231"
     class="grid" />
  <line
     style="font-size:medium;font-family:sans-serif;text-anchor:middle;fill:none;stroke:#000000"
     x2="135.41322"
     y1="159.55905"
     x1="135.41322"
     id="line26"
     y2="165.55905" />
  <text
     style="font-style:normal;font-variant:normal;font-weight:normal;font-stretch:normal;font-size:13.33333302px;font-family:KaTeX_Main;-inkscape-font-specification:'KaTeX_Main, Normal';font-variant-ligatures:normal;font-variant-caps:normal;font-variant-numeric:normal;font-feature-settings:normal;text-align:center;writing-mode:lr-tb;text-anchor:middle;fill:#000000"
     id="text28"
     dy="8.5199995"
     y="172.33858"
     x="135.41322">1</text>
  <line
     style="font-size:medium;font-family:sans-serif;text-anchor:middle;fill:none"
     id="line30"
     y2="239.55905"
     x2="135.41322"
     y1="39.559055"
     x1="135.41322"
     class="grid" />
  <line
     style="font-size:medium;font-family:sans-serif;text-anchor:middle;fill:none;stroke:#000000"
     x2="175.41322"
     y1="159.55905"
     x1="175.41322"
     id="line34"
     y2="165.55905" />
  <text
     style="font-style:normal;font-variant:normal;font-weight:normal;font-stretch:normal;font-size:13.33333302px;font-family:KaTeX_Main;-inkscape-font-specification:'KaTeX_Main, Normal';font-variant-ligatures:normal;font-variant-caps:normal;font-variant-numeric:normal;font-feature-settings:normal;text-align:center;writing-mode:lr-tb;text-anchor:middle;fill:#000000"
     id="text36"
     dy="8.5199995"
     y="172.33858"
     x="175.41322">2</text>
  <line
     style="font-size:medium;font-family:sans-serif;text-anchor:middle;fill:none"
     id="line38"
     y2="239.55905"
     x2="175.41322"
     y1="39.559055"
     x1="175.41322"
     class="grid" />
  <line
     style="font-size:medium;font-family:sans-serif;text-anchor:middle;fill:none;stroke:#000000"
     x2="215.41322"
     y1="159.55905"
     x1="215.41322"
     id="line42"
     y2="165.55905" />
  <text
     style="font-style:normal;font-variant:normal;font-weight:normal;font-stretch:normal;font-size:13.33333302px;font-family:KaTeX_Main;-inkscape-font-specification:'KaTeX_Main, Normal';font-variant-ligatures:normal;font-variant-caps:normal;font-variant-numeric:normal;font-feature-settings:normal;text-align:center;writing-mode:lr-tb;text-anchor:middle;fill:#000000"
     id="text44"
     dy="8.5199995"
     y="172.33858"
     x="215.41322">3</text>
  <line
     style="font-size:medium;font-family:sans-serif;text-anchor:middle;fill:none"
     id="line46"
     y2="239.55905"
     x2="215.41322"
     y1="39.559055"
     x1="215.41322"
     class="grid" />
  <line
     style="font-size:medium;font-family:sans-serif;text-anchor:middle;fill:none;stroke:#000000"
     x2="255.41322"
     y1="159.55905"
     x1="255.41322"
     id="line50"
     y2="165.55905" />
  <text
     style="font-style:normal;font-variant:normal;font-weight:normal;font-stretch:normal;font-size:13.33333302px;font-family:KaTeX_Main;-inkscape-font-specification:'KaTeX_Main, Normal';font-variant-ligatures:normal;font-variant-caps:normal;font-variant-numeric:normal;font-feature-settings:normal;text-align:center;writing-mode:lr-tb;text-anchor:middle;fill:#000000"
     id="text52"
     dy="8.5199995"
     y="172.33858"
     x="255.41322">4</text>
  <line
     style="font-size:medium;font-family:sans-serif;text-anchor:middle;fill:none"
     id="line54"
     y2="239.55905"
     x2="255.41322"
     y1="39.559055"
     x1="255.41322"
     class="grid" />
  <line
     style="font-size:medium;font-family:sans-serif;text-anchor:middle;fill:none;stroke:#000000"
     x2="295.41321"
     y1="159.55905"
     x1="295.41321"
     id="line58"
     y2="165.55905" />
  <text
     style="font-style:normal;font-variant:normal;font-weight:normal;font-stretch:normal;font-size:13.33333302px;font-family:KaTeX_Main;-inkscape-font-specification:'KaTeX_Main, Normal';font-variant-ligatures:normal;font-variant-caps:normal;font-variant-numeric:normal;font-feature-settings:normal;text-align:center;writing-mode:lr-tb;text-anchor:middle;fill:#000000"
     id="text60"
     dy="8.5199995"
     y="172.33858"
     x="295.41321">5</text>
  <line
     style="font-size:medium;font-family:sans-serif;text-anchor:middle;fill:none"
     id="line62"
     y2="239.55905"
     x2="295.41321"
     y1="39.559055"
     x1="295.41321"
     class="grid" />
  <line
     style="font-size:medium;font-family:sans-serif;text-anchor:middle;fill:none;stroke:#000000"
     x2="335.41321"
     y1="159.55905"
     x1="335.41321"
     id="line66"
     y2="165.55905" />
  <text
     style="font-style:normal;font-variant:normal;font-weight:normal;font-stretch:normal;font-size:13.33333302px;font-family:KaTeX_Main;-inkscape-font-specification:'KaTeX_Main, Normal';font-variant-ligatures:normal;font-variant-caps:normal;font-variant-numeric:normal;font-feature-settings:normal;text-align:center;writing-mode:lr-tb;text-anchor:middle;fill:#000000"
     id="text68"
     dy="8.5199995"
     y="172.33858"
     x="335.41321">6</text>
  <line
     style="font-size:medium;font-family:sans-serif;text-anchor:middle;fill:none"
     id="line70"
     y2="239.55905"
     x2="335.41321"
     y1="39.559055"
     x1="335.41321"
     class="grid" />
  <text
     x="391.60632"
     dx="8.5199995"
     style="font-style:normal;font-variant:normal;font-weight:normal;font-stretch:normal;font-size:21.33333397px;font-family:KaTeX_Main;-inkscape-font-specification:'KaTeX_Main, Normal';font-variant-ligatures:normal;font-variant-caps:normal;font-variant-numeric:normal;font-feature-settings:normal;text-align:center;writing-mode:lr-tb;text-anchor:middle;fill:#000000"
     id="text74"
     y="163.33858"><tspan
   style="font-style:italic;font-variant:normal;font-weight:normal;font-stretch:normal;font-size:21.33333397px;font-family:KaTeX_Main;-inkscape-font-specification:'KaTeX_Main, Italic';font-variant-ligatures:normal;font-variant-caps:normal;font-variant-numeric:normal;font-feature-settings:normal;text-align:center;writing-mode:lr-tb;text-anchor:middle"
   id="tspan3741">t</tspan>
 (seconds)</text>
  <path
     class="domain"
     d="m 94.913229,240.05906 h 0.5 V 40.059056 h -0.5"
     id="path78"
     inkscape:connector-curvature="0"
     style="font-size:medium;font-family:sans-serif;text-anchor:end;fill:none;stroke:#000000" />
  <line
     style="font-size:medium;font-family:sans-serif;text-anchor:end;fill:none;stroke:#000000"
     y2="240.05905"
     y1="240.05905"
     x1="94.913231"
     id="line80"
     x2="88.913231" />
  <text
     style="font-style:normal;font-variant:normal;font-weight:normal;font-stretch:normal;font-size:13.33333302px;font-family:KaTeX_Main;-inkscape-font-specification:'KaTeX_Main, Normal';font-variant-ligatures:normal;font-variant-caps:normal;font-variant-numeric:normal;font-feature-settings:normal;text-align:center;writing-mode:lr-tb;text-anchor:middle;fill:#000000"
     id="text82"
     dy="3.8399999"
     x="74.574646"
     y="240.05905">-2.0</text>
  <line
     style="font-size:medium;font-family:sans-serif;text-anchor:end;fill:none"
     id="line84"
     y2="240.05905"
     x2="334.91321"
     y1="240.05905"
     x1="14.913229"
     class="grid" />
  <line
     style="font-size:medium;font-family:sans-serif;text-anchor:end;fill:none;stroke:#000000"
     y2="220.05905"
     y1="220.05905"
     x1="94.913231"
     id="line88"
     x2="88.913231" />
  <text
     style="font-style:normal;font-variant:normal;font-weight:normal;font-stretch:normal;font-size:13.33333302px;font-family:KaTeX_Main;-inkscape-font-specification:'KaTeX_Main, Normal';font-variant-ligatures:normal;font-variant-caps:normal;font-variant-numeric:normal;font-feature-settings:normal;text-align:center;writing-mode:lr-tb;text-anchor:middle;fill:#000000"
     id="text90"
     dy="3.8399999"
     x="74.574646"
     y="220.05905">-1.5</text>
  <line
     style="font-size:medium;font-family:sans-serif;text-anchor:end;fill:none"
     id="line92"
     y2="220.05905"
     x2="334.91321"
     y1="220.05905"
     x1="14.913229"
     class="grid" />
  <line
     style="font-size:medium;font-family:sans-serif;text-anchor:end;fill:none;stroke:#000000"
     y2="200.05905"
     y1="200.05905"
     x1="94.913231"
     id="line96"
     x2="88.913231" />
  <text
     style="font-style:normal;font-variant:normal;font-weight:normal;font-stretch:normal;font-size:13.33333302px;font-family:KaTeX_Main;-inkscape-font-specification:'KaTeX_Main, Normal';font-variant-ligatures:normal;font-variant-caps:normal;font-variant-numeric:normal;font-feature-settings:normal;text-align:center;writing-mode:lr-tb;text-anchor:middle;fill:#000000"
     id="text98"
     dy="3.8399999"
     x="74.574646"
     y="200.05905">-1.0</text>
  <line
     style="font-size:medium;font-family:sans-serif;text-anchor:end;fill:none"
     id="line100"
     y2="200.05905"
     x2="334.91321"
     y1="200.05905"
     x1="14.913229"
     class="grid" />
  <line
     style="font-size:medium;font-family:sans-serif;text-anchor:end;fill:none;stroke:#000000"
     y2="180.05905"
     y1="180.05905"
     x1="94.913231"
     id="line104"
     x2="88.913231" />
  <text
     style="font-style:normal;font-variant:normal;font-weight:normal;font-stretch:normal;font-size:13.33333302px;font-family:KaTeX_Main;-inkscape-font-specification:'KaTeX_Main, Normal';font-variant-ligatures:normal;font-variant-caps:normal;font-variant-numeric:normal;font-feature-settings:normal;text-align:center;writing-mode:lr-tb;text-anchor:middle;fill:#000000"
     id="text106"
     dy="3.8399999"
     x="74.574646"
     y="180.05905">-0.5</text>
  <line
     style="font-size:medium;font-family:sans-serif;text-anchor:end;fill:none"
     id="line108"
     y2="180.05905"
     x2="334.91321"
     y1="180.05905"
     x1="14.913229"
     class="grid" />
  <line
     style="font-size:medium;font-family:sans-serif;text-anchor:end;fill:none;stroke:#000000"
     y2="160.05905"
     y1="160.05905"
     x1="94.913231"
     id="line112"
     x2="88.913231" />
  <line
     style="font-size:medium;font-family:sans-serif;text-anchor:end;fill:none"
     id="line114"
     y2="160.05905"
     x2="334.91321"
     y1="160.05905"
     x1="14.913229"
     class="grid" />
  <line
     style="font-size:medium;font-family:sans-serif;text-anchor:end;fill:none;stroke:#000000"
     y2="140.05905"
     y1="140.05905"
     x1="94.913231"
     id="line118"
     x2="88.913231" />
  <text
     style="font-style:normal;font-variant:normal;font-weight:normal;font-stretch:normal;font-size:13.33333302px;font-family:KaTeX_Main;-inkscape-font-specification:'KaTeX_Main, Normal';font-variant-ligatures:normal;font-variant-caps:normal;font-variant-numeric:normal;font-feature-settings:normal;text-align:center;writing-mode:lr-tb;text-anchor:middle;fill:#000000"
     id="text120"
     dy="3.8399999"
     x="74.574646"
     y="140.05905">0.5</text>
  <line
     style="font-size:medium;font-family:sans-serif;text-anchor:end;fill:none"
     id="line122"
     y2="140.05905"
     x2="334.91321"
     y1="140.05905"
     x1="14.913229"
     class="grid" />
  <line
     style="font-size:medium;font-family:sans-serif;text-anchor:end;fill:none;stroke:#000000"
     y2="120.05907"
     y1="120.05907"
     x1="94.913231"
     id="line126"
     x2="88.913231" />
  <text
     style="font-style:normal;font-variant:normal;font-weight:normal;font-stretch:normal;font-size:13.33333302px;font-family:KaTeX_Main;-inkscape-font-specification:'KaTeX_Main, Normal';font-variant-ligatures:normal;font-variant-caps:normal;font-variant-numeric:normal;font-feature-settings:normal;text-align:center;writing-mode:lr-tb;text-anchor:middle;fill:#000000"
     id="text128"
     dy="3.8399999"
     x="74.574646"
     y="120.05908">1.0</text>
  <line
     style="font-size:medium;font-family:sans-serif;text-anchor:end;fill:none"
     id="line130"
     y2="120.05907"
     x2="334.91321"
     y1="120.05907"
     x1="14.913229"
     class="grid" />
  <line
     style="font-size:medium;font-family:sans-serif;text-anchor:end;fill:none;stroke:#000000"
     y2="100.05906"
     y1="100.05906"
     x1="94.913231"
     id="line134"
     x2="88.913231" />
  <text
     style="font-style:normal;font-variant:normal;font-weight:normal;font-stretch:normal;font-size:13.33333302px;font-family:KaTeX_Main;-inkscape-font-specification:'KaTeX_Main, Normal';font-variant-ligatures:normal;font-variant-caps:normal;font-variant-numeric:normal;font-feature-settings:normal;text-align:center;writing-mode:lr-tb;text-anchor:middle;fill:#000000"
     id="text136"
     dy="3.8399999"
     x="74.574646"
     y="100.05907">1.5</text>
  <line
     style="font-size:medium;font-family:sans-serif;text-anchor:end;fill:none"
     id="line138"
     y2="100.05906"
     x2="334.91321"
     y1="100.05906"
     x1="14.913229"
     class="grid" />
  <line
     style="font-size:medium;font-family:sans-serif;text-anchor:end;fill:none;stroke:#000000"
     y2="80.059059"
     y1="80.059059"
     x1="94.913231"
     id="line142"
     x2="88.913231" />
  <text
     style="font-style:normal;font-variant:normal;font-weight:normal;font-stretch:normal;font-size:13.33333302px;font-family:KaTeX_Main;-inkscape-font-specification:'KaTeX_Main, Normal';font-variant-ligatures:normal;font-variant-caps:normal;font-variant-numeric:normal;font-feature-settings:normal;text-align:center;writing-mode:lr-tb;text-anchor:middle;fill:#000000"
     id="text144"
     dy="3.8399999"
     x="74.574646"
     y="80.059059">2.0</text>
  <line
     style="font-size:medium;font-family:sans-serif;text-anchor:end;fill:none"
     id="line146"
     y2="80.059059"
     x2="334.91321"
     y1="80.059059"
     x1="14.913229"
     class="grid" />
  <line
     style="font-size:medium;font-family:sans-serif;text-anchor:end;fill:none;stroke:#000000"
     y2="60.059055"
     y1="60.059055"
     x1="94.913231"
     id="line150"
     x2="88.913231" />
  <text
     style="font-style:normal;font-variant:normal;font-weight:normal;font-stretch:normal;font-size:13.33333302px;font-family:KaTeX_Main;-inkscape-font-specification:'KaTeX_Main, Normal';font-variant-ligatures:normal;font-variant-caps:normal;font-variant-numeric:normal;font-feature-settings:normal;text-align:center;writing-mode:lr-tb;text-anchor:middle;fill:#000000"
     id="text152"
     dy="3.8399999"
     x="74.574646"
     y="60.059055">2.5</text>
  <line
     style="font-size:medium;font-family:sans-serif;text-anchor:end;fill:none"
     id="line154"
     y2="60.059055"
     x2="334.91321"
     y1="60.059055"
     x1="14.913229"
     class="grid" />
  <line
     style="font-size:medium;font-family:sans-serif;text-anchor:end;fill:none;stroke:#000000"
     y2="40.059055"
     y1="40.059055"
     x1="94.913231"
     id="line158"
     x2="88.913231" />
  <text
     style="font-style:normal;font-variant:normal;font-weight:normal;font-stretch:normal;font-size:13.33333302px;font-family:KaTeX_Main;-inkscape-font-specification:'KaTeX_Main, Normal';font-variant-ligatures:normal;font-variant-caps:normal;font-variant-numeric:normal;font-feature-settings:normal;text-align:center;writing-mode:lr-tb;text-anchor:middle;fill:#000000"
     id="text160"
     dy="3.8399999"
     x="74.574646"
     y="40.059055">3.0</text>
  <line
     style="font-size:medium;font-family:sans-serif;text-anchor:end;fill:none"
     id="line162"
     y2="40.059055"
     x2="334.91321"
     y1="40.059055"
     x1="14.913229"
     class="grid" />
  <text
     dx="6"
     dy="-6"
     style="font-style:normal;font-variant:normal;font-weight:normal;font-stretch:normal;font-size:21.33333397px;font-family:KaTeX_Main;-inkscape-font-specification:'KaTeX_Main, Normal';font-variant-ligatures:normal;font-variant-caps:normal;font-variant-numeric:normal;font-feature-settings:normal;text-align:center;writing-mode:lr-tb;text-anchor:middle;fill:#000000"
     id="text166"
     x="87.354179"
     y="32"><tspan
   style="font-style:italic;font-variant:normal;font-weight:normal;font-stretch:normal;font-size:21.33333397px;font-family:KaTeX_Main;-inkscape-font-specification:'KaTeX_Main, Italic';font-variant-ligatures:normal;font-variant-caps:normal;font-variant-numeric:normal;font-feature-settings:normal;text-align:center;writing-mode:lr-tb;text-anchor:middle"
   id="tspan3743">i</tspan>
 (amperes)</text>
  <path
     inkscape:connector-curvature="0"
     id="path170"
     style="fill:none;stroke:#63d9ea;stroke-width:3px"
     d="m 94.913229,159.55906 2.4,-22.54814 2.4,-19.61652 2.400001,-16.68417 2.4,-13.800847 2.4,-11.009813 2.4,-8.347929 2.4,-5.845664 2.4,-3.527348 2.4,-1.411447 2.4,0.489095 2.4,2.166441 2.4,3.61742 2.4,4.843059 2.4,5.848077 2.4,6.640402 2.4,7.230667 2.4,7.631721 2.4,7.858176 2.4,7.92592 2.4,7.85178 2.4,7.65303 2.4,7.34715 2.4,6.95142 2.4,6.4827 2.4,5.95719 2.4,5.39022 2.4,4.79606 2.4,4.18787 2.4,3.57751 2.4,2.9756 2.4,2.39134 2.4,1.83265 2.4,1.3061 2.4,0.81697 2.4,0.36932 2.4,-0.034 2.4,-0.39108 2.4,-0.70119 2.4,-0.96435 2.4,-1.18142 2.4,-1.35393 2.4,-1.48402 2.4,-1.57424 2.4,-1.62762 2.4,-1.64738 2.4,-1.63702 2.4,-1.60009 2.4,-1.54024 2.4,-1.46108 2.4,-1.36612 2.4,-1.25877 2.4,-1.14222 2.4,-1.01952 2.4,-0.89342 2.4,-0.76646 2.4,-0.64086 2.4,-0.51861 2.4,-0.40142 2.4,-0.29066 2.4,-0.18751 2.4,-0.0928 2.4,-0.007 2.4,0.0687 2.4,0.13489 2.4,0.19133 2.4,0.23817 2.4,0.27567 2.4,0.30426 2.4,0.32446 2.4,0.33689 2.4,0.3422 2.4,0.34112 2.4,0.33438 2.4,0.32274 2.4,0.30696 2.4,0.28775 2.4,0.26584 2.4,0.24192 2.4,0.21659 2.4,0.19047 2.4,0.16407 2.4,0.13788 2.4,0.11232 2.4,0.0877 2.4,0.0645 2.4,0.0427 2.4,0.0227 2.4,0.005 2.4,-0.0116 2.4,-0.0257 2.4,-0.0378 2.4,-0.0479 2.4,-0.056 2.4,-0.0623 2.4,-0.0668 2.4,-0.0697 2.4,-0.071 2.4,-0.071 2.4,-0.0698 2.4,-0.0676"
     class="path" />
  <line
     id="line172"
     style="stroke:#0c7f99;stroke-width:3px"
     y2="159.55905"
     x2="94.913231"
     y1="159.55905"
     x1="12.913229" />
  <path
     inkscape:connector-curvature="0"
     id="path174"
     style="fill:none;stroke:#11accd;stroke-width:3px"
     d="m 94.913229,159.55906 2.4,-21.28609 2.4,-16.47205 2.400001,-12.47456 2.4,-9.17051 2.4,-6.45419 2.4,-4.234929 2.4,-2.435043 2.4,-0.988066 2.4,0.1628 2.4,1.066023 2.4,1.762891 2.4,2.288525 2.4,2.672741 2.4,2.940798 2.4,3.11406 2.4,3.21053 2.4,3.24536 2.4,3.23126 2.4,3.17885 2.4,3.09698 2.4,2.99298 2.4,2.87289 2.4,2.74169 2.4,2.60344 2.4,2.46138 2.4,2.31817 2.4,2.17587 2.4,2.03611 2.4,1.90013 2.4,1.76888 2.4,1.64301 2.4,1.52298 2.4,1.4091 2.4,1.3015 2.4,1.20021 2.4,1.10518 2.4,1.01631 2.4,0.93339 2.4,0.85624 2.4,0.7846 2.4,0.71822 2.4,0.6568 2.4,0.60011 2.4,0.54782 2.4,0.4997 2.4,0.45545 2.4,0.41482 2.4,0.37756 2.4,0.34341 2.4,0.31217 2.4,0.28359 2.4,0.25749 2.4,0.23367 2.4,0.21193 2.4,0.19213 2.4,0.1741 2.4,0.15769 2.4,0.14276 2.4,0.12919 2.4,0.11687 2.4,0.10567 2.4,0.0955 2.4,0.0863 2.4,0.078 2.4,0.0704 2.4,0.0636 2.4,0.0574 2.4,0.0517 2.4,0.0467 2.4,0.0421 2.4,0.0379 2.4,0.0342 2.4,0.0308 2.4,0.0277 2.4,0.025 2.4,0.0225 2.4,0.0203 2.4,0.0182 2.4,0.0164 2.4,0.0148 2.4,0.0133 2.4,0.0119 2.4,0.0107 2.4,0.01 2.4,0.009 2.4,0.008 2.4,0.007 2.4,0.006 2.4,0.006 2.4,0.005 2.4,0.005 2.4,0.004 2.4,0.004 2.4,0.003 2.4,0.003 2.4,0.003 2.4,0.002 2.4,0.002 2.4,0.002 2.4,0.002"
     class="path" />
  <path
     inkscape:connector-curvature="0"
     id="path176"
     style="fill:none;stroke:#0c7f99;stroke-width:3px"
     d="m 94.913229,159.55906 2.4,-17.95081 2.4,-9.41544 2.400001,-4.50233 2.4,-1.69656 2.4,-0.1155 2.4,0.75502 2.4,1.21441 2.4,1.43703 2.4,1.52429 2.4,1.53514 2.4,1.50378 2.4,1.45005 2.4,1.38531 2.4,1.31613 2.4,1.24617 2.4,1.17751 2.4,1.11121 2.4,1.04782 2.4,0.98757 2.4,0.93051 2.4,0.87658 2.4,0.82569 2.4,0.77769 2.4,0.73246 2.4,0.68983 2.4,0.64968 2.4,0.61185 2.4,0.57622 2.4,0.54268 2.4,0.51107 2.4,0.48131 2.4,0.45328 2.4,0.42689 2.4,0.40202 2.4,0.37862 2.4,0.35656 2.4,0.3358 2.4,0.31625 2.4,0.29783 2.4,0.28048 2.4,0.26415 2.4,0.24877 2.4,0.23428 2.4,0.22064 2.4,0.20778 2.4,0.19569 2.4,0.18429 2.4,0.17356 2.4,0.16345 2.4,0.15394 2.4,0.14497 2.4,0.13652 2.4,0.12858 2.4,0.12109 2.4,0.11403 2.4,0.1074 2.4,0.10114 2.4,0.0953 2.4,0.0897 2.4,0.0845 2.4,0.0796 2.4,0.0749 2.4,0.0706 2.4,0.0665 2.4,0.0626 2.4,0.0589 2.4,0.0555 2.4,0.0523 2.4,0.0492 2.4,0.0464 2.4,0.0437 2.4,0.0411 2.4,0.0387 2.4,0.0365 2.4,0.0344 2.4,0.0323 2.4,0.0305 2.4,0.0287 2.4,0.027 2.4,0.0254 2.4,0.024 2.4,0.0226 2.4,0.0213 2.4,0.02 2.4,0.0189 2.4,0.0178 2.4,0.0167 2.4,0.0157 2.4,0.0148 2.4,0.014 2.4,0.0131 2.4,0.0124 2.4,0.0117 2.4,0.011 2.4,0.0103 2.4,0.01 2.4,0.009 2.4,0.009 2.4,0.008 2.4,0.008"
     class="path" />
</svg>
