<?xml version="1.0" encoding="UTF-8" standalone="no"?>
<svg
   xmlns:xhtml="http://www.w3.org/1999/xhtml"
   xmlns:dc="http://purl.org/dc/elements/1.1/"
   xmlns:cc="http://creativecommons.org/ns#"
   xmlns:rdf="http://www.w3.org/1999/02/22-rdf-syntax-ns#"
   xmlns:svg="http://www.w3.org/2000/svg"
   xmlns="http://www.w3.org/2000/svg"
   xmlns:sodipodi="http://sodipodi.sourceforge.net/DTD/sodipodi-0.dtd"
   xmlns:inkscape="http://www.inkscape.org/namespaces/inkscape"
   width="434.54477"
   height="283.26532"
   version="1.1"
   id="svg146"
   sodipodi:docname="rms7.svg"
   inkscape:version="0.92.2 5c3e80d, 2017-08-06">
  <metadata
     id="metadata152">
    <rdf:RDF>
      <cc:Work
         rdf:about="">
        <dc:format>image/svg+xml</dc:format>
        <dc:type
           rdf:resource="http://purl.org/dc/dcmitype/StillImage" />
        <dc:title></dc:title>
      </cc:Work>
    </rdf:RDF>
  </metadata>
  <defs
     id="defs150" />
  <sodipodi:namedview
     pagecolor="#ffffff"
     bordercolor="#666666"
     borderopacity="1"
     objecttolerance="10"
     gridtolerance="10"
     guidetolerance="10"
     inkscape:pageopacity="0"
     inkscape:pageshadow="2"
     inkscape:window-width="640"
     inkscape:window-height="480"
     id="namedview148"
     showgrid="false"
     fit-margin-top="10"
     fit-margin-right="10"
     fit-margin-bottom="10"
     fit-margin-left="10"
     inkscape:zoom="1.1529307"
     inkscape:cx="217.27238"
     inkscape:cy="141.63266"
     inkscape:current-layer="svg146" />
  <xhtml:defs>
    <xhtml:style
       type="text/css"><![CDATA[
svg .grid { stroke-width: 0.5px; stroke: rgb(187, 187, 187); opacity: 0.5; }
svg .domain { stroke-width: 3px; stroke: black; }
svg { border: none; }
svg .path { stroke-width: 3px; stroke: rgb(17, 172, 205); fill: none; }
svg text { font: 18px katex_math; }
svg .tick text { font: 12px katex_math; }]]></xhtml:style>
  </xhtml:defs>
  <path
     class="domain"
     d="m 20.595521,148.632 v 0.5 H 351.92293 v -0.5"
     id="path2"
     inkscape:connector-curvature="0"
     style="font-size:medium;font-family:sans-serif;text-anchor:middle;fill:none;stroke:#000000" />
  <line
     style="font-size:medium;font-family:sans-serif;text-anchor:middle;fill:none;stroke:#000000"
     x2="20.59552"
     y1="148.632"
     x1="20.59552"
     id="line4"
     y2="154.632" />
  <text
     style="font-style:normal;font-variant:normal;font-weight:normal;font-stretch:normal;font-size:13.33333302px;font-family:KaTeX_Main;-inkscape-font-specification:'KaTeX_Main, Normal';font-variant-ligatures:normal;font-variant-caps:normal;font-variant-numeric:normal;font-feature-settings:normal;text-align:center;writing-mode:lr-tb;text-anchor:middle;fill:#000000"
     id="text6"
     dy="8.5199995"
     y="161.41153"
     x="20.59552">-1.0</text>
  <line
     style="font-size:medium;font-family:sans-serif;text-anchor:middle;fill:none"
     id="line8"
     y2="268.63199"
     x2="20.59552"
     y1="28.632"
     x1="20.59552"
     class="grid" />
  <line
     style="font-size:medium;font-family:sans-serif;text-anchor:middle;fill:none;stroke:#000000"
     x2="56.815994"
     y1="144.85248"
     x1="56.815994"
     id="line12"
     y2="150.85248" />
  <text
     style="font-style:normal;font-variant:normal;font-weight:normal;font-stretch:normal;font-size:13.33333302px;font-family:KaTeX_Main;-inkscape-font-specification:'KaTeX_Main, Normal';font-variant-ligatures:normal;font-variant-caps:normal;font-variant-numeric:normal;font-feature-settings:normal;text-align:center;writing-mode:lr-tb;text-anchor:middle;fill:#000000"
     id="text14"
     dy="8.5199995"
     y="161.41153"
     x="60.59552">-0.5</text>
  <line
     style="font-size:medium;font-family:sans-serif;text-anchor:middle;fill:none"
     id="line16"
     y2="264.85245"
     x2="56.815994"
     y1="24.852474"
     x1="56.815994"
     class="grid" />
  <line
     style="font-size:medium;font-family:sans-serif;text-anchor:middle;fill:none;stroke:#000000"
     x2="100.59552"
     y1="148.632"
     x1="100.59552"
     id="line20"
     y2="154.632" />
  <line
     style="font-size:medium;font-family:sans-serif;text-anchor:middle;fill:none"
     id="line22"
     y2="268.63199"
     x2="100.59552"
     y1="28.632"
     x1="100.59552"
     class="grid" />
  <line
     style="font-size:medium;font-family:sans-serif;text-anchor:middle;fill:none;stroke:#000000"
     x2="140.59552"
     y1="148.632"
     x1="140.59552"
     id="line26"
     y2="154.632" />
  <text
     style="font-style:normal;font-variant:normal;font-weight:normal;font-stretch:normal;font-size:13.33333302px;font-family:KaTeX_Main;-inkscape-font-specification:'KaTeX_Main, Normal';font-variant-ligatures:normal;font-variant-caps:normal;font-variant-numeric:normal;font-feature-settings:normal;text-align:center;writing-mode:lr-tb;text-anchor:middle;fill:#000000"
     id="text28"
     dy="8.5199995"
     y="161.41153"
     x="140.59552">0.5</text>
  <line
     style="font-size:medium;font-family:sans-serif;text-anchor:middle;fill:none"
     id="line30"
     y2="268.63199"
     x2="140.59552"
     y1="28.632"
     x1="140.59552"
     class="grid" />
  <line
     style="font-size:medium;font-family:sans-serif;text-anchor:middle;fill:none;stroke:#000000"
     x2="180.59552"
     y1="148.632"
     x1="180.59552"
     id="line34"
     y2="154.632" />
  <text
     style="font-style:normal;font-variant:normal;font-weight:normal;font-stretch:normal;font-size:13.33333302px;font-family:KaTeX_Main;-inkscape-font-specification:'KaTeX_Main, Normal';font-variant-ligatures:normal;font-variant-caps:normal;font-variant-numeric:normal;font-feature-settings:normal;text-align:center;writing-mode:lr-tb;text-anchor:middle;fill:#000000"
     id="text36"
     dy="8.5199995"
     y="161.41153"
     x="180.59552">1.0</text>
  <line
     style="font-size:medium;font-family:sans-serif;text-anchor:middle;fill:none"
     id="line38"
     y2="268.63199"
     x2="180.59552"
     y1="28.632"
     x1="180.59552"
     class="grid" />
  <line
     style="font-size:medium;font-family:sans-serif;text-anchor:middle;fill:none;stroke:#000000"
     x2="220.59552"
     y1="148.632"
     x1="220.59552"
     id="line42"
     y2="154.632" />
  <text
     style="font-style:normal;font-variant:normal;font-weight:normal;font-stretch:normal;font-size:13.33333302px;font-family:KaTeX_Main;-inkscape-font-specification:'KaTeX_Main, Normal';font-variant-ligatures:normal;font-variant-caps:normal;font-variant-numeric:normal;font-feature-settings:normal;text-align:center;writing-mode:lr-tb;text-anchor:middle;fill:#000000"
     id="text44"
     dy="8.5199995"
     y="161.41153"
     x="220.59552">1.5</text>
  <line
     style="font-size:medium;font-family:sans-serif;text-anchor:middle;fill:none"
     id="line46"
     y2="268.63199"
     x2="220.59552"
     y1="28.632"
     x1="220.59552"
     class="grid" />
  <line
     style="font-size:medium;font-family:sans-serif;text-anchor:middle;fill:none;stroke:#000000"
     x2="260.59552"
     y1="148.632"
     x1="260.59552"
     id="line50"
     y2="154.632" />
  <text
     style="font-style:normal;font-variant:normal;font-weight:normal;font-stretch:normal;font-size:13.33333302px;font-family:KaTeX_Main;-inkscape-font-specification:'KaTeX_Main, Normal';font-variant-ligatures:normal;font-variant-caps:normal;font-variant-numeric:normal;font-feature-settings:normal;text-align:center;writing-mode:lr-tb;text-anchor:middle;fill:#000000"
     id="text52"
     dy="8.5199995"
     y="161.41153"
     x="260.59552">2.0</text>
  <line
     style="font-size:medium;font-family:sans-serif;text-anchor:middle;fill:none"
     id="line54"
     y2="268.63199"
     x2="260.59552"
     y1="28.632"
     x1="260.59552"
     class="grid" />
  <line
     style="font-size:medium;font-family:sans-serif;text-anchor:middle;fill:none;stroke:#000000"
     x2="300.59552"
     y1="148.632"
     x1="300.59552"
     id="line58"
     y2="154.632" />
  <text
     style="font-style:normal;font-variant:normal;font-weight:normal;font-stretch:normal;font-size:13.33333302px;font-family:KaTeX_Main;-inkscape-font-specification:'KaTeX_Main, Normal';font-variant-ligatures:normal;font-variant-caps:normal;font-variant-numeric:normal;font-feature-settings:normal;text-align:center;writing-mode:lr-tb;text-anchor:middle;fill:#000000"
     id="text60"
     dy="8.5199995"
     y="161.41153"
     x="300.59552">2.5</text>
  <line
     style="font-size:medium;font-family:sans-serif;text-anchor:middle;fill:none"
     id="line62"
     y2="268.63199"
     x2="300.59552"
     y1="28.632"
     x1="300.59552"
     class="grid" />
  <line
     style="font-size:medium;font-family:sans-serif;text-anchor:middle;fill:none;stroke:#000000"
     x2="340.59552"
     y1="148.632"
     x1="340.59552"
     id="line66"
     y2="154.632" />
  <text
     style="font-style:normal;font-variant:normal;font-weight:normal;font-stretch:normal;font-size:13.33333302px;font-family:KaTeX_Main;-inkscape-font-specification:'KaTeX_Main, Normal';font-variant-ligatures:normal;font-variant-caps:normal;font-variant-numeric:normal;font-feature-settings:normal;text-align:center;writing-mode:lr-tb;text-anchor:middle;fill:#000000"
     id="text68"
     dy="8.5199995"
     y="161.41153"
     x="340.59552">3.0</text>
  <line
     style="font-size:medium;font-family:sans-serif;text-anchor:middle;fill:none"
     id="line70"
     y2="268.63199"
     x2="340.59552"
     y1="28.632"
     x1="340.59552"
     class="grid" />
  <text
     x="389.21835"
     dx="8.5199995"
     style="font-style:normal;font-variant:normal;font-weight:normal;font-stretch:normal;font-size:24px;font-family:KaTeX_Math;-inkscape-font-specification:'KaTeX_Math, Normal';font-variant-ligatures:normal;font-variant-caps:normal;font-variant-numeric:normal;font-feature-settings:normal;text-align:center;writing-mode:lr-tb;text-anchor:middle;fill:#000000"
     id="text74"
     y="156.19106">t (sec)</text>
  <path
     class="domain"
     d="m 100.09552,269.132 h 0.5 v -240 h -0.5"
     id="path78"
     inkscape:connector-curvature="0"
     style="font-size:medium;font-family:sans-serif;text-anchor:end;fill:none;stroke:#000000" />
  <line
     style="font-size:medium;font-family:sans-serif;text-anchor:end;fill:none;stroke:#000000"
     y2="269.13199"
     y1="269.13199"
     x1="100.09552"
     id="line80"
     x2="94.09552" />
  <text
     style="font-style:normal;font-variant:normal;font-weight:normal;font-stretch:normal;font-size:13.33333302px;font-family:KaTeX_Main;-inkscape-font-specification:'KaTeX_Main, Normal';font-variant-ligatures:normal;font-variant-caps:normal;font-variant-numeric:normal;font-feature-settings:normal;text-align:center;writing-mode:lr-tb;text-anchor:middle;fill:#000000"
     id="text82"
     dy="3.8399999"
     x="79.756943"
     y="269.13199">-1.5</text>
  <line
     style="font-size:medium;font-family:sans-serif;text-anchor:end;fill:none"
     id="line84"
     y2="269.13199"
     x2="351.42291"
     y1="269.13199"
     x1="20.09552"
     class="grid" />
  <line
     style="font-size:medium;font-family:sans-serif;text-anchor:end;fill:none;stroke:#000000"
     y2="229.132"
     y1="229.132"
     x1="100.09552"
     id="line88"
     x2="94.09552" />
  <text
     style="font-style:normal;font-variant:normal;font-weight:normal;font-stretch:normal;font-size:13.33333302px;font-family:KaTeX_Main;-inkscape-font-specification:'KaTeX_Main, Normal';font-variant-ligatures:normal;font-variant-caps:normal;font-variant-numeric:normal;font-feature-settings:normal;text-align:center;writing-mode:lr-tb;text-anchor:middle;fill:#000000"
     id="text90"
     dy="3.8399999"
     x="79.756943"
     y="229.132">-1.0</text>
  <line
     style="font-size:medium;font-family:sans-serif;text-anchor:end;fill:none"
     id="line92"
     y2="229.132"
     x2="351.42291"
     y1="229.132"
     x1="20.09552"
     class="grid" />
  <line
     style="font-size:medium;font-family:sans-serif;text-anchor:end;fill:none;stroke:#000000"
     y2="189.132"
     y1="189.132"
     x1="100.09552"
     id="line96"
     x2="94.09552" />
  <text
     style="font-style:normal;font-variant:normal;font-weight:normal;font-stretch:normal;font-size:13.33333302px;font-family:KaTeX_Main;-inkscape-font-specification:'KaTeX_Main, Normal';font-variant-ligatures:normal;font-variant-caps:normal;font-variant-numeric:normal;font-feature-settings:normal;text-align:center;writing-mode:lr-tb;text-anchor:middle;fill:#000000"
     id="text98"
     dy="3.8399999"
     x="79.756943"
     y="189.132">-0.5</text>
  <line
     style="font-size:medium;font-family:sans-serif;text-anchor:end;fill:none"
     id="line100"
     y2="189.132"
     x2="351.42291"
     y1="189.132"
     x1="20.09552"
     class="grid" />
  <line
     style="font-size:medium;font-family:sans-serif;text-anchor:end;fill:none;stroke:#000000"
     y2="149.132"
     y1="149.132"
     x1="100.09552"
     id="line104"
     x2="94.09552" />
  <line
     style="font-size:medium;font-family:sans-serif;text-anchor:end;fill:none"
     id="line106"
     y2="149.132"
     x2="351.42291"
     y1="149.132"
     x1="20.09552"
     class="grid" />
  <line
     style="font-size:medium;font-family:sans-serif;text-anchor:end;fill:none;stroke:#000000"
     y2="109.132"
     y1="109.132"
     x1="100.09552"
     id="line110"
     x2="94.09552" />
  <text
     style="font-style:normal;font-variant:normal;font-weight:normal;font-stretch:normal;font-size:13.33333302px;font-family:KaTeX_Main;-inkscape-font-specification:'KaTeX_Main, Normal';font-variant-ligatures:normal;font-variant-caps:normal;font-variant-numeric:normal;font-feature-settings:normal;text-align:center;writing-mode:lr-tb;text-anchor:middle;fill:#000000"
     id="text112"
     dy="3.8399999"
     x="79.756943"
     y="109.132">0.5</text>
  <line
     style="font-size:medium;font-family:sans-serif;text-anchor:end;fill:none"
     id="line114"
     y2="109.132"
     x2="351.42291"
     y1="109.132"
     x1="20.09552"
     class="grid" />
  <line
     style="font-size:medium;font-family:sans-serif;text-anchor:end;fill:none;stroke:#000000"
     y2="69.132004"
     y1="69.132004"
     x1="100.09552"
     id="line118"
     x2="94.09552" />
  <text
     style="font-style:normal;font-variant:normal;font-weight:normal;font-stretch:normal;font-size:13.33333302px;font-family:KaTeX_Main;-inkscape-font-specification:'KaTeX_Main, Normal';font-variant-ligatures:normal;font-variant-caps:normal;font-variant-numeric:normal;font-feature-settings:normal;text-align:center;writing-mode:lr-tb;text-anchor:middle;fill:#000000"
     id="text120"
     dy="3.8399999"
     x="79.756943"
     y="69.132011">1.0</text>
  <line
     style="font-size:medium;font-family:sans-serif;text-anchor:end;fill:none"
     id="line122"
     y2="69.132004"
     x2="351.42291"
     y1="69.132004"
     x1="20.09552"
     class="grid" />
  <line
     style="font-size:medium;font-family:sans-serif;text-anchor:end;fill:none;stroke:#000000"
     y2="29.132"
     y1="29.132"
     x1="100.09552"
     id="line126"
     x2="94.09552" />
  <text
     style="font-style:normal;font-variant:normal;font-weight:normal;font-stretch:normal;font-size:13.33333302px;font-family:KaTeX_Main;-inkscape-font-specification:'KaTeX_Main, Normal';font-variant-ligatures:normal;font-variant-caps:normal;font-variant-numeric:normal;font-feature-settings:normal;text-align:center;writing-mode:lr-tb;text-anchor:middle;fill:#000000"
     id="text128"
     dy="3.8399999"
     x="79.756943"
     y="29.132">1.5</text>
  <line
     style="font-size:medium;font-family:sans-serif;text-anchor:end;fill:none"
     id="line130"
     y2="29.132"
     x2="351.42291"
     y1="29.132"
     x1="20.09552"
     class="grid" />
  <text
     dx="0"
     dy="-8"
     style="font-style:normal;font-variant:normal;font-weight:normal;font-stretch:normal;font-size:24px;font-family:KaTeX_Math;-inkscape-font-specification:'KaTeX_Math, Normal';font-variant-ligatures:normal;font-variant-caps:normal;font-variant-numeric:normal;font-feature-settings:normal;text-align:center;writing-mode:lr-tb;text-anchor:middle;fill:#000000"
     id="text134"
     x="100.09552"
     y="28.632">v</text>
  <path
     inkscape:connector-curvature="0"
     id="path138"
     style="fill:none;stroke:#ff9c39;stroke-width:3px"
     d="m 20.095521,221.37579 1.104425,0.89137 1.104424,0.83523 1.104425,0.77846 1.104425,0.7211 1.104425,0.66319 1.104424,0.60477 1.104425,0.54589 1.104425,0.4866 1.104424,0.42693 1.104425,0.36695 1.104425,0.30667 1.104424,0.24617 1.104425,0.18547 1.104425,0.12464 1.104425,0.0637 1.104424,0.003 1.104425,-0.0582 1.104425,-0.11918 1.104424,-0.18002 1.104425,-0.24072 1.104425,-0.30125 1.104425,-0.36155 1.104424,-0.42156 1.104425,-0.48125 1.104425,-0.54059 1.104424,-0.59951 1.104425,-0.65796 1.104425,-0.71593 1.104425,-0.77333 1.104424,-0.83016 1.104425,-0.88636 1.104425,-0.94186 1.104424,-0.99667 1.104425,-1.0507 1.104425,-1.10394 1.104424,-1.15633 1.104421,-1.20785 1.10443,-1.25843 1.10442,-1.30808 1.10443,-1.35671 1.10442,-1.40431 1.10443,-1.45084 1.10442,-1.49627 1.10443,-1.54055 1.10442,-1.58366 1.10443,-1.62557 1.10442,-1.66623 1.10443,-1.70563 1.10442,-1.74372 1.10443,-1.78048 1.10442,-1.81589 1.10442,-1.84992 1.10443,-1.88252 1.10442,-1.91371 1.10443,-1.94342 1.10442,-1.97166 1.10443,-1.9984 1.10442,-2.02361 1.10443,-2.04728 1.10442,-2.06938 1.10443,-2.08992 1.10442,-2.10885 1.10443,-2.12618 1.10442,-2.14189 1.10443,-2.15597 1.10442,-2.1684 1.10443,-2.17918 1.10442,-2.1883 1.10443,-2.19575 1.10442,-2.20152 1.10442,-2.20563 1.10443,-2.20804 1.104419,-2.20878 1.10443,-2.20782 1.10442,-2.2052 1.10443,-2.20088 1.10442,-2.19488 1.10443,-2.18723 1.10442,-2.17789 1.10443,-2.1669 1.10442,-2.15425 1.10443,-2.13997 1.10442,-2.12405 1.10443,-2.10652 1.10442,-2.08737 1.10443,-2.06664 1.10442,-2.04432 1.10442,-2.02047 1.10443,-1.99505 1.10442,-1.96813 1.10443,-1.93969 1.10442,-1.90979 1.10443,-1.87843 1.10442,-1.84563 1.10443,-1.81143 1.10442,-1.77584 1.10443,-1.73891 1.10442,-1.70065 1.10443,-1.66109 1.10442,-1.62026 1.10443,-1.57821 1.10442,-1.53494 1.10442,-1.49051 1.10443,-1.44493 1.10442,-1.39827 1.10443,-1.35053 1.10442,-1.30177 1.10443,-1.252 1.10442,-1.2013 1.10443,-1.14966 1.10442,-1.09716 1.10443,-1.04382 1.10442,-0.98968 1.10443,-0.93479 1.10442,-0.87918 1.10443,-0.82291 1.10442,-0.76601 1.10443,-0.70853 1.10442,-0.65049 1.10442,-0.59198 1.10443,-0.533 1.10442,-0.47363 1.10443,-0.41388 1.10442,-0.35383 1.10443,-0.2935 1.10442,-0.23296 1.10443,-0.17223 1.10442,-0.11136 1.10443,-0.0504 1.10442,0.0106 1.10443,0.0715 1.10442,0.13244 1.10443,0.19327 1.10442,0.25393 1.10443,0.31442 1.10442,0.37464 1.10442,0.43461 1.10443,0.49422 1.10442,0.55346 1.10443,0.61229 1.10442,0.67064 1.10443,0.72849 1.10442,0.78577 1.10443,0.84246 1.10442,0.89851 1.10443,0.95388 1.10442,1.0085 1.10443,1.06238 1.10442,1.11543 1.10443,1.16763 1.10442,1.21896 1.10443,1.26934 1.10442,1.31876 1.10442,1.36717 1.10443,1.41454 1.10442,1.46084 1.10443,1.50602 1.10442,1.55005 1.10443,1.5929 1.10442,1.63454 1.10443,1.67492 1.10442,1.71404 1.10443,1.75185 1.10442,1.78832 1.10443,1.82342 1.10442,1.85715 1.10443,1.88944 1.10442,1.92031 1.10443,1.94971 1.10442,1.97761 1.10443,2.00403 1.10442,2.02889 1.10442,2.05223 1.10443,2.074 1.10442,2.09418 1.10443,2.11276 1.10442,2.12975 1.10443,2.14509 1.10442,2.15882 1.10443,2.17089 1.10442,2.18131 1.10443,2.19007 1.10442,2.19715 1.10443,2.20256 1.10442,2.2063 1.10443,2.20834 1.10442,2.20871 1.10443,2.2074 1.10442,2.2044 1.10442,2.19971 1.10443,2.19336 1.10442,2.18533 1.10443,2.17564 1.10442,2.16428 1.10443,2.15128 1.10442,2.13664 1.10443,2.12037 1.10442,2.10248 1.10443,2.08298 1.10442,2.06191 1.10443,2.03926 1.10442,2.01506 1.10443,1.98931 1.10442,1.96206 1.10443,1.9333 1.10442,1.90308 1.10442,1.8714 1.10443,1.8383 1.10442,1.80379 1.10443,1.76791 1.10442,1.73068 1.10443,1.69213 1.10442,1.6523 1.10443,1.6112 1.10442,1.56888 1.10443,1.52535 1.10442,1.48067 1.10443,1.43486 1.10442,1.38796 1.10443,1.33998 1.10442,1.29101 1.10443,1.24103 1.10442,1.19012 1.10442,1.13829 1.10443,1.0856 1.10442,1.03209 1.10443,0.97778 1.10442,0.92273 1.10443,0.86698 1.10442,0.81056 1.10443,0.75352 1.10442,0.69593 1.10443,0.63778 1.10442,0.57916 1.10443,0.52009 1.10442,0.46064 1.10443,0.40082 1.10442,0.3407 1.10443,0.28032 1.10442,0.21974 1.10442,0.15897 1.10443,0.0981 1.10442,0.0371 1.10443,-0.0239 1.10442,-0.0848 1.10443,-0.14571 1.10442,-0.20651 1.10443,-0.26713 1.10442,-0.32756 1.10443,-0.38774 1.10442,-0.44763 1.10443,-0.50717 1.10442,-0.56632 1.10443,-0.62505 1.10442,-0.68329 1.10443,-0.74102 1.10442,-0.79818 1.10442,-0.85474 1.10443,-0.91063 1.10442,-0.96585 1.10443,-1.02031 1.10442,-1.07401 1.10443,-1.12688 1.10442,-1.1789 1.10443,-1.23002 1.10442,-1.28019 1.10443,-1.3294 1.10442,-1.37759 1.10443,-1.42472 1.10442,-1.47079 1.10443,-1.51571 1.10442,-1.55949 1.10443,-1.60208 1.10442,-1.64345 1.10442,-1.68356 1.10443,-1.72239 1.10442,-1.75991 1.10443,-1.79609 1.10442,-1.83089 1.10443,-1.86431 1.10442,-1.89629 1.10443,-1.92684 1.10442,-1.95592 1.10443,-1.9835 1.10442,-2.00958 1.10443,-2.03411 1.10442,-2.05711 1.10443,-2.07853 1.10442,-2.09836 1.10443,-2.11661 1.10442,-2.13323 1.10442,-2.14823 1.10443,-2.16159 1.10442,-2.1733 1.10443,-2.18336 1.10442,-2.19175 1.10443,-2.19848 1.10442,-2.20352 1.10443,-2.20688 1.10442,-2.20883"
     class="path" />
  <path
     inkscape:connector-curvature="0"
     id="path140"
     style="stroke:#ff9c39;stroke-width:3;stroke-linecap:round;stroke-miterlimit:4;stroke-dasharray:none"
     d="M 20.095521,92.072 H 351.42293"
     class="path" />
  <text
     id="text142"
     style="font-style:normal;font-variant:normal;font-weight:normal;font-stretch:normal;font-size:24px;font-family:KaTeX_Math;-inkscape-font-specification:'KaTeX_Math, Normal';font-variant-ligatures:normal;font-variant-caps:normal;font-variant-numeric:normal;font-feature-settings:normal;text-align:center;writing-mode:lr-tb;text-anchor:middle;fill:#000000"
     y="95.851532"
     x="389.21835">v<tspan
   style="font-style:normal;font-variant:normal;font-weight:normal;font-stretch:normal;font-size:65%;font-family:KaTeX_Main;-inkscape-font-specification:'KaTeX_Main, Normal';font-variant-ligatures:normal;font-variant-caps:normal;font-variant-numeric:normal;font-feature-settings:normal;text-align:center;writing-mode:lr-tb;text-anchor:middle;baseline-shift:sub"
   id="tspan1144">RMS</tspan>
</text>
</svg>
