<?xml version="1.0" encoding="UTF-8" standalone="no"?>
<!-- Created with Inkscape (http://www.inkscape.org/) -->

<svg
   xmlns:dc="http://purl.org/dc/elements/1.1/"
   xmlns:cc="http://creativecommons.org/ns#"
   xmlns:rdf="http://www.w3.org/1999/02/22-rdf-syntax-ns#"
   xmlns:svg="http://www.w3.org/2000/svg"
   xmlns="http://www.w3.org/2000/svg"
   xmlns:sodipodi="http://sodipodi.sourceforge.net/DTD/sodipodi-0.dtd"
   xmlns:inkscape="http://www.inkscape.org/namespaces/inkscape"
   id="svg4155"
   version="1.1"
   inkscape:version="0.92.2 5c3e80d, 2017-08-06"
   xml:space="preserve"
   width="265"
   height="180"
   viewBox="0 0 265 180"
   sodipodi:docname="sodium_atom.svg"><metadata
     id="metadata4161"><rdf:RDF><cc:Work
         rdf:about=""><dc:format>image/svg+xml</dc:format><dc:type
           rdf:resource="http://purl.org/dc/dcmitype/StillImage" /><dc:title></dc:title></cc:Work></rdf:RDF></metadata><defs
     id="defs4159"><clipPath
       clipPathUnits="userSpaceOnUse"
       id="clipPath4171"><path
         d="M 0,0 H 196 V 128 H 0 Z"
         id="path4173"
         inkscape:connector-curvature="0" /></clipPath></defs><sodipodi:namedview
     pagecolor="#ffffff"
     bordercolor="#666666"
     borderopacity="1"
     objecttolerance="10"
     gridtolerance="10"
     guidetolerance="10"
     inkscape:pageopacity="0"
     inkscape:pageshadow="2"
     inkscape:window-width="1280"
     inkscape:window-height="756"
     id="namedview4157"
     showgrid="false"
     inkscape:zoom="1.8867925"
     inkscape:cx="132.5"
     inkscape:cy="89.999998"
     inkscape:window-x="0"
     inkscape:window-y="0"
     inkscape:window-maximized="0"
     inkscape:current-layer="g4163"
     fit-margin-top="10"
     fit-margin-right="10"
     fit-margin-bottom="10"
     fit-margin-left="10"
     showguides="false" /><g
     id="g4163"
     inkscape:groupmode="layer"
     inkscape:label="copper atom"
     transform="matrix(1.25,0,0,-1.25,10,170)"><g
       id="g4263"
       transform="matrix(7.874016e-5,0,0,-7.874016e-5,10.637449,115.68127)"><path
         d="M 0,685800 C 0,307043.2 307043.1,0 685800,0 c 378757,0 685800,307043.2 685800,685800 0,378757 -307043,685800 -685800,685800 C 307043.1,1371600 0,1064557 0,685800 Z"
         style="fill:none;stroke:#41719c;stroke-width:12700;stroke-linecap:butt;stroke-linejoin:miter;stroke-miterlimit:8;stroke-dasharray:none;stroke-opacity:1"
         id="path4265"
         inkscape:connector-curvature="0" /></g><g
       id="g4165" /><path
       d="M 0,128 H 196 V 0 H 0 Z"
       style="fill:#ffffff;fill-opacity:0;fill-rule:nonzero;stroke:none"
       id="path4175"
       inkscape:connector-curvature="0" /><path
       d="m 48.563745,59.422311 c 0,3.86599 3.13401,7 7,7 3.86599,0 7,-3.13401 7,-7 0,-3.86599 -3.13401,-7 -7,-7 -3.86599,0 -7,3.13401 -7,7 z"
       style="fill:#767171;fill-opacity:1;fill-rule:nonzero;stroke:#666666"
       id="path4177"
       inkscape:connector-curvature="0" /><path
       d="m 61.48008,53.262951 c 0,4.14214 3.13401,7.5 7,7.5 3.86599,0 7,-3.35786 7,-7.5 0,-4.14214 -3.13401,-7.5 -7,-7.5 -3.86599,0 -7,3.35786 -7,7.5 z"
       style="fill:#5b9bd5;fill-opacity:1;fill-rule:nonzero;stroke:#2c89a0"
       id="path4183"
       inkscape:connector-curvature="0" /><path
       d="m 48.563745,59.422311 c 0,4.14214 3.13401,7.5 7,7.5 3.86599,0 7,-3.35786 7,-7.5 0,-4.14214 -3.13401,-7.5 -7,-7.5 -3.86599,0 -7,3.35786 -7,7.5 z"
       style="fill:#5b9bd5;fill-opacity:1;fill-rule:nonzero;stroke:#2c89a0"
       id="path4189"
       inkscape:connector-curvature="0" /><path
       d="m 61.344621,70.121519 c 0,3.86599 3.35786,7 7.5,7 4.14214,0 7.5,-3.13401 7.5,-7 0,-3.86599 -3.35786,-7 -7.5,-7 -4.14214,0 -7.5,3.13401 -7.5,7 z"
       style="fill:#5b9bd5;fill-opacity:1;fill-rule:nonzero;stroke:#2c89a0"
       id="path4195"
       inkscape:connector-curvature="0" /><path
       d="m 50.320717,52.922313 c 0,3.86599 3.13401,7 7,7 3.86599,0 7,-3.13401 7,-7 0,-3.86599 -3.13401,-7 -7,-7 -3.86599,0 -7,3.13401 -7,7 z"
       style="fill:#5b9bd5;fill-opacity:1;fill-rule:nonzero;stroke:#2c89a0"
       id="path4201"
       inkscape:connector-curvature="0" /><path
       d="m 61.766932,64.081678 c 0,3.86599 3.35786,7 7.5,7 4.14214,0 7.5,-3.13401 7.5,-7 0,-3.86599 -3.35786,-7 -7.5,-7 -4.14214,0 -7.5,3.13401 -7.5,7 z"
       style="fill:#5b9bd5;fill-opacity:1;fill-rule:nonzero;stroke:#2c89a0"
       id="path4207"
       inkscape:connector-curvature="0" /><path
       d="m 67.260956,62.88845 c 0,4.14214 3.13401,7.5 7,7.5 3.86599,0 7,-3.35786 7,-7.5 0,-4.14214 -3.13401,-7.5 -7,-7.5 -3.86599,0 -7,3.35786 -7,7.5 z"
       style="fill:#5b9bd5;fill-opacity:1;fill-rule:nonzero;stroke:#2c89a0"
       id="path4213"
       inkscape:connector-curvature="0" /><path
       d="m 49.101594,65.169331 c 0,3.86599 3.13401,7 7,7 3.86599,0 7,-3.13401 7,-7 0,-3.86599 -3.13401,-7 -7,-7 -3.86599,0 -7,3.13401 -7,7 z"
       style="fill:#5b9bd5;fill-opacity:1;fill-rule:nonzero;stroke:#2c89a0"
       id="path4219"
       inkscape:connector-curvature="0" /><g
       id="g4255"
       transform="matrix(7.874016e-5,0,0,-7.874016e-5,31.5,91.5)"><path
         d="M 0,412750 C 0,184794.4 181951.5,0 406400,0 630848.5,0 812800,184794.4 812800,412750 812800,640705.5 630848.5,825500 406400,825500 181951.5,825500 0,640705.5 0,412750 Z"
         style="fill:none;stroke:#41719c;stroke-width:12700;stroke-linecap:butt;stroke-linejoin:miter;stroke-miterlimit:8;stroke-dasharray:none;stroke-opacity:1"
         id="path4257"
         inkscape:connector-curvature="0" /></g><g
       id="g4259"
       transform="matrix(7.874016e-5,0,0,-7.874016e-5,21.5,103.5)"><path
         d="M 0,539750 C 0,241654.3 238811.3,0 533400,0 c 294588.6,0 533400,241654.3 533400,539750 0,298095.7 -238811.4,539750 -533400,539750 C 238811.3,1079500 0,837845.7 0,539750 Z"
         style="fill:none;stroke:#41719c;stroke-width:12700;stroke-linecap:butt;stroke-linejoin:miter;stroke-miterlimit:8;stroke-dasharray:none;stroke-opacity:1"
         id="path4261"
         inkscape:connector-curvature="0" /></g><path
       d="m 91.5,62.5 c 0,2.20914 1.79086,4 4,4 2.20914,0 4,-1.79086 4,-4 0,-2.20914 -1.79086,-4 -4,-4 -2.20914,0 -4,1.79086 -4,4 z"
       style="fill:#000000;fill-opacity:1;fill-rule:nonzero;stroke:none"
       id="path4271"
       inkscape:connector-curvature="0" /><g
       id="g4273"
       transform="matrix(7.874016e-5,0,0,-7.874016e-5,91.5,66.5)"
       style="fill:#1a1a1a"><path
         d="M 0,50800 C 0,22743.96 22743.96,0 50800,0 c 28056.04,0 50800,22743.96 50800,50800 0,28056.09 -22743.96,50800 -50800,50800 C 22743.96,101600 0,78856.09 0,50800 Z"
         style="fill:#1a1a1a;stroke:#41719c;stroke-width:12700;stroke-linecap:butt;stroke-linejoin:miter;stroke-miterlimit:8;stroke-dasharray:none;stroke-opacity:1"
         id="path4275"
         inkscape:connector-curvature="0" /></g><path
       d="m 27.5,58.5 c 0,2.20914 1.79086,4 4,4 2.20914,0 4,-1.79086 4,-4 0,-2.20914 -1.79086,-4 -4,-4 -2.20914,0 -4,1.79086 -4,4 z"
       style="fill:#000000;fill-opacity:1;fill-rule:nonzero;stroke:none"
       id="path4277"
       inkscape:connector-curvature="0" /><g
       id="g4279"
       transform="matrix(7.874016e-5,0,0,-7.874016e-5,27.5,62.5)"
       style="fill:#1a1a1a"><path
         d="M 0,50800 C 0,22743.91 22743.94,0 50800,0 c 28056.09,0 50800,22743.91 50800,50800 0,28056.09 -22743.91,50800 -50800,50800 C 22743.94,101600 0,78856.09 0,50800 Z"
         style="fill:#1a1a1a;stroke:#41719c;stroke-width:12700;stroke-linecap:butt;stroke-linejoin:miter;stroke-miterlimit:8;stroke-dasharray:none;stroke-opacity:1"
         id="path4281"
         inkscape:connector-curvature="0" /></g><path
       d="m 95.5,38.5 c 0,2.20914 2.01472,4 4.5,4 2.4853,0 4.5,-1.79086 4.5,-4 0,-2.20914 -2.0147,-4 -4.5,-4 -2.48528,0 -4.5,1.79086 -4.5,4 z"
       style="fill:#000000;fill-opacity:1;fill-rule:nonzero;stroke:none"
       id="path4283"
       inkscape:connector-curvature="0" /><g
       id="g4285"
       transform="matrix(7.874016e-5,0,0,-7.874016e-5,95.5,42.5)"
       style="fill:#1a1a1a"><path
         d="M 0,50800 C 0,22743.91 25586.91,0 57150,0 c 31563.09,0 57150,22743.91 57150,50800 0,28056.09 -25586.91,50800 -57150,50800 C 25586.91,101600 0,78856.09 0,50800 Z"
         style="fill:#1a1a1a;stroke:#41719c;stroke-width:12700;stroke-linecap:butt;stroke-linejoin:miter;stroke-miterlimit:8;stroke-dasharray:none;stroke-opacity:1"
         id="path4287"
         inkscape:connector-curvature="0" /></g><path
       d="m 71.5,20.5 c 0,2.20914 1.79086,4 4,4 2.20914,0 4,-1.79086 4,-4 0,-2.20914 -1.79086,-4 -4,-4 -2.20914,0 -4,1.79086 -4,4 z"
       style="fill:#000000;fill-opacity:1;fill-rule:nonzero;stroke:none"
       id="path4289"
       inkscape:connector-curvature="0" /><g
       id="g4291"
       transform="matrix(7.874016e-5,0,0,-7.874016e-5,71.5,24.5)"
       style="fill:#1a1a1a"><path
         d="M 0,50800 C 0,22743.94 22743.96,0 50800,0 c 28056.04,0 50800,22743.94 50800,50800 0,28056.06 -22743.96,50800 -50800,50800 C 22743.96,101600 0,78856.06 0,50800 Z"
         style="fill:#1a1a1a;stroke:#41719c;stroke-width:12700;stroke-linecap:butt;stroke-linejoin:miter;stroke-miterlimit:8;stroke-dasharray:none;stroke-opacity:1"
         id="path4293"
         inkscape:connector-curvature="0" /></g><path
       d="m 35.5,26 c 0,2.48528 2.01472,4.5 4.5,4.5 2.48528,0 4.5,-2.01472 4.5,-4.5 0,-2.48528 -2.01472,-4.5 -4.5,-4.5 -2.48528,0 -4.5,2.01472 -4.5,4.5 z"
       style="fill:#1a1a1a;fill-opacity:1;fill-rule:nonzero;stroke:none"
       id="path4295"
       inkscape:connector-curvature="0" /><g
       id="g4297"
       transform="matrix(7.874016e-5,0,0,-7.874016e-5,35.5,30.5)"><path
         d="M 0,57150 C 0,25586.93 25586.91,0 57150,0 c 31563.09,0 57150,25586.93 57150,57150 0,31563.07 -25586.91,57150 -57150,57150 C 25586.91,114300 0,88713.07 0,57150 Z"
         style="fill:none;stroke:#41719c;stroke-width:12700;stroke-linecap:butt;stroke-linejoin:miter;stroke-miterlimit:8;stroke-dasharray:none;stroke-opacity:1"
         id="path4299"
         inkscape:connector-curvature="0" /></g><path
       d="m 18.5,70.5 c 0,2.20914 1.79086,4 4,4 2.20914,0 4,-1.79086 4,-4 0,-2.20914 -1.79086,-4 -4,-4 -2.20914,0 -4,1.79086 -4,4 z"
       style="fill:#000000;fill-opacity:1;fill-rule:nonzero;stroke:none"
       id="path4301"
       inkscape:connector-curvature="0" /><g
       id="g4303"
       transform="matrix(7.874016e-5,0,0,-7.874016e-5,18.5,74.5)"
       style="fill:#1a1a1a"><path
         d="M 0,50800 C 0,22743.96 22743.94,0 50800,0 c 28056.06,0 50800,22743.96 50800,50800 0,28056.04 -22743.94,50800 -50800,50800 C 22743.94,101600 0,78856.04 0,50800 Z"
         style="fill:#1a1a1a;stroke:#41719c;stroke-width:12700;stroke-linecap:butt;stroke-linejoin:miter;stroke-miterlimit:8;stroke-dasharray:none;stroke-opacity:1"
         id="path4305"
         inkscape:connector-curvature="0" /></g><path
       d="m 35.5,95.5 c 0,2.20914 1.79086,4 4,4 2.20914,0 4,-1.79086 4,-4 0,-2.20914 -1.79086,-4 -4,-4 -2.20914,0 -4,1.79086 -4,4 z"
       style="fill:#000000;fill-opacity:1;fill-rule:nonzero;stroke:none"
       id="path4307"
       inkscape:connector-curvature="0" /><g
       id="g4309"
       transform="matrix(7.874016e-5,0,0,-7.874016e-5,35.5,99.5)"
       style="fill:#1a1a1a"><path
         d="M 0,50800 C 0,22743.96 22743.91,0 50800,0 c 28056.09,0 50800,22743.96 50800,50800 0,28056.04 -22743.91,50800 -50800,50800 C 22743.91,101600 0,78856.04 0,50800 Z"
         style="fill:#1a1a1a;stroke:#41719c;stroke-width:12700;stroke-linecap:butt;stroke-linejoin:miter;stroke-miterlimit:8;stroke-dasharray:none;stroke-opacity:1"
         id="path4311"
         inkscape:connector-curvature="0" /></g><path
       d="m 59.5,103.5 c 0,2.2091 2.01472,4 4.5,4 2.48528,0 4.5,-1.7909 4.5,-4 0,-2.2091 -2.01472,-4 -4.5,-4 -2.48528,0 -4.5,1.7909 -4.5,4 z"
       style="fill:#000000;fill-opacity:1;fill-rule:nonzero;stroke:none"
       id="path4313"
       inkscape:connector-curvature="0" /><g
       id="g4315"
       transform="matrix(7.874016e-5,0,0,-7.874016e-5,59.5,107.5)"
       style="fill:#1a1a1a"><path
         d="M 0,50800 C 0,22743.96 25586.91,0 57150,0 c 31563.09,0 57150,22743.96 57150,50800 0,28056.04 -25586.91,50800 -57150,50800 C 25586.91,101600 0,78856.04 0,50800 Z"
         style="fill:#1a1a1a;stroke:#41719c;stroke-width:12700;stroke-linecap:butt;stroke-linejoin:miter;stroke-miterlimit:8;stroke-dasharray:none;stroke-opacity:1"
         id="path4317"
         inkscape:connector-curvature="0" /></g><path
       d="m 83.5,96.5 c 0,2.20914 2.01472,4 4.5,4 2.48528,0 4.5,-1.79086 4.5,-4 0,-2.20914 -2.01472,-4 -4.5,-4 -2.48528,0 -4.5,1.79086 -4.5,4 z"
       style="fill:#000000;fill-opacity:1;fill-rule:nonzero;stroke:none"
       id="path4319"
       inkscape:connector-curvature="0" /><g
       id="g4321"
       transform="matrix(7.874016e-5,0,0,-7.874016e-5,83.5,100.5)"
       style="fill:#1a1a1a"><path
         d="M 0,50800 C 0,22743.96 25586.91,0 57150,0 c 31563.09,0 57150,22743.96 57150,50800 0,28056.04 -25586.91,50800 -57150,50800 C 25586.91,101600 0,78856.04 0,50800 Z"
         style="fill:#1a1a1a;stroke:#41719c;stroke-width:12700;stroke-linecap:butt;stroke-linejoin:miter;stroke-miterlimit:8;stroke-dasharray:none;stroke-opacity:1"
         id="path4323"
         inkscape:connector-curvature="0" /></g><path
       d="m 98.5,75.5 c 0,2.20914 2.0147,4 4.5,4 2.4853,0 4.5,-1.79086 4.5,-4 0,-2.20914 -2.0147,-4 -4.5,-4 -2.4853,0 -4.5,1.79086 -4.5,4 z"
       style="fill:#000000;fill-opacity:1;fill-rule:nonzero;stroke:none"
       id="path4325"
       inkscape:connector-curvature="0" /><g
       id="g4327"
       transform="matrix(7.874016e-5,0,0,-7.874016e-5,98.5,79.5)"
       style="fill:#1a1a1a"><path
         d="M 0,50800 C 0,22743.96 25586.91,0 57150,0 c 31563.09,0 57150,22743.96 57150,50800 0,28056.04 -25586.91,50800 -57150,50800 C 25586.91,101600 0,78856.04 0,50800 Z"
         style="fill:#1a1a1a;stroke:#41719c;stroke-width:12700;stroke-linecap:butt;stroke-linejoin:miter;stroke-miterlimit:8;stroke-dasharray:none;stroke-opacity:1"
         id="path4329"
         inkscape:connector-curvature="0" /></g><path
       d="m 104.07769,94.874502 c 0,2.2091 1.7909,4 4,4 2.2091,0 4,-1.7909 4,-4 0,-2.2091 -1.7909,-4 -4,-4 -2.2091,0 -4,1.7909 -4,4 z"
       style="fill:#843c0c;fill-opacity:1;fill-rule:nonzero;stroke:#d45500"
       id="path4439"
       inkscape:connector-curvature="0" /><g
       id="g4475"
       transform="translate(146.0706,27.39465)" /><text
       xml:space="preserve"
       style="font-style:normal;font-variant:normal;font-weight:normal;font-stretch:normal;font-size:32px;line-height:75%;font-family:KaTeX_Main;-inkscape-font-specification:'KaTeX_Main, Normal';text-align:start;letter-spacing:0px;word-spacing:0px;writing-mode:lr-tb;text-anchor:start;fill:#000000;fill-opacity:1;stroke:none;stroke-width:0.80000001px;stroke-linecap:butt;stroke-linejoin:miter;stroke-opacity:1"
       x="149.52191"
       y="-92.932266"
       id="text1235"
       transform="scale(1,-1)"><tspan
         sodipodi:role="line"
         x="149.52191"
         y="-92.932266"
         style="font-style:normal;font-variant:normal;font-weight:normal;font-stretch:normal;font-size:19.20000076px;line-height:75%;font-family:sans-serif;-inkscape-font-specification:'sans-serif, Normal';font-variant-ligatures:normal;font-variant-caps:normal;font-variant-numeric:normal;font-feature-settings:normal;text-align:start;writing-mode:lr-tb;text-anchor:start;stroke-width:0.80000001px"
         id="tspan1261">Na</tspan><tspan
         sodipodi:role="line"
         x="149.52191"
         y="-68.932266"
         style="font-style:normal;font-variant:normal;font-weight:normal;font-stretch:normal;font-size:19.20000076px;line-height:75%;font-family:KaTeX_Main;-inkscape-font-specification:'KaTeX_Main, Normal';font-variant-ligatures:normal;font-variant-caps:normal;font-variant-numeric:normal;font-feature-settings:normal;text-align:start;writing-mode:lr-tb;text-anchor:start;stroke-width:0.80000001px"
         id="tspan1265">11<tspan
   style="font-style:normal;font-variant:normal;font-weight:normal;font-stretch:normal;font-size:19.20000076px;font-family:KaTeX_Math;-inkscape-font-specification:'KaTeX_Math, Normal';font-variant-ligatures:normal;font-variant-caps:normal;font-variant-numeric:normal;font-feature-settings:normal;text-align:start;writing-mode:lr-tb;text-anchor:start"
   id="tspan886">e<tspan
   style="font-size:64.99999762%;baseline-shift:super"
   id="tspan2276">−</tspan></tspan><tspan
   style="font-style:normal;font-variant:normal;font-weight:normal;font-stretch:normal;font-size:19.20000076px;line-height:75%;font-family:KaTeX_Main;-inkscape-font-specification:'KaTeX_Main, Normal';font-variant-ligatures:normal;font-variant-caps:normal;font-variant-numeric:normal;font-feature-settings:normal;text-align:start;writing-mode:lr-tb;baseline-shift:super;text-anchor:start"
   id="tspan1269" /></tspan><tspan
         sodipodi:role="line"
         x="149.52191"
         y="-43.374142"
         style="font-style:normal;font-variant:normal;font-weight:normal;font-stretch:normal;font-size:19.20000076px;line-height:75%;font-family:KaTeX_Main;-inkscape-font-specification:'KaTeX_Main, Normal';font-variant-ligatures:normal;font-variant-caps:normal;font-variant-numeric:normal;font-feature-settings:normal;text-align:start;writing-mode:lr-tb;text-anchor:start;stroke-width:0.80000001px"
         id="tspan1239">11<tspan
   style="font-style:normal;font-variant:normal;font-weight:normal;font-stretch:normal;font-size:19.20000076px;font-family:KaTeX_Math;-inkscape-font-specification:'KaTeX_Math, Normal';font-variant-ligatures:normal;font-variant-caps:normal;font-variant-numeric:normal;font-feature-settings:normal;text-align:start;writing-mode:lr-tb;text-anchor:start"
   id="tspan888">e</tspan><tspan
   style="font-style:normal;font-variant:normal;font-weight:normal;font-stretch:normal;font-size:19.20000076px;line-height:75%;font-family:KaTeX_Main;-inkscape-font-specification:'KaTeX_Main, Normal';font-variant-ligatures:normal;font-variant-caps:normal;font-variant-numeric:normal;font-feature-settings:normal;text-align:start;writing-mode:lr-tb;baseline-shift:super;text-anchor:start"
   id="tspan1271">+</tspan></tspan><tspan
         sodipodi:role="line"
         x="149.52191"
         y="-19.374142"
         style="font-style:normal;font-variant:normal;font-weight:normal;font-stretch:normal;font-size:19.20000076px;line-height:75%;font-family:KaTeX_Main;-inkscape-font-specification:'KaTeX_Main, Normal';font-variant-ligatures:normal;font-variant-caps:normal;font-variant-numeric:normal;font-feature-settings:normal;text-align:start;writing-mode:lr-tb;text-anchor:start;stroke-width:0.80000001px"
         id="tspan1243">12<tspan
   style="font-style:normal;font-variant:normal;font-weight:normal;font-stretch:normal;font-size:19.20000076px;font-family:KaTeX_Math;-inkscape-font-specification:'KaTeX_Math, Normal';font-variant-ligatures:normal;font-variant-caps:normal;font-variant-numeric:normal;font-feature-settings:normal;text-align:start;writing-mode:lr-tb;text-anchor:start"
   id="tspan890">n</tspan></tspan><tspan
         sodipodi:role="line"
         x="149.52191"
         y="4.6258588"
         style="line-height:75%;stroke-width:0.80000001px"
         id="tspan1241" /></text>
<path
       inkscape:connector-curvature="0"
       id="path1273"
       style="fill:#767171;fill-opacity:1;fill-rule:nonzero;stroke:#666666"
       d="m 56.48008,58.033867 c 0,3.86599 3.13401,7 7,7 3.86599,0 7,-3.13401 7,-7 0,-3.86599 -3.13401,-7 -7,-7 -3.86599,0 -7,3.13401 -7,7 z" /><path
       d="m 53.946216,68.169322 c 0,3.86599 3.13401,7 7,7 3.865987,0 6.999997,-3.13401 6.999997,-7 0,-3.86599 -3.13401,-7 -6.999997,-7 -3.86599,0 -7,3.13401 -7,7 z"
       style="fill:#767171;fill-opacity:1;fill-rule:nonzero;stroke:#666666"
       id="path1275"
       inkscape:connector-curvature="0" /><path
       inkscape:connector-curvature="0"
       id="path1277"
       style="fill:#767171;fill-opacity:1;fill-rule:nonzero;stroke:#666666"
       d="m 68.727093,54.233076 c 0,3.86599 3.13401,7 7,7 3.86599,0 7,-3.13401 7,-7 0,-3.86599 -3.13401,-7 -7,-7 -3.86599,0 -7,3.13401 -7,7 z" /><path
       d="m 58.169321,49.165337 c 0,3.86599 3.13401,7 7,7 3.86599,0 7,-3.13401 7,-7 0,-3.86599 -3.13401,-7 -7,-7 -3.86599,0 -7,3.13401 -7,7 z"
       style="fill:#767171;fill-opacity:1;fill-rule:nonzero;stroke:#666666"
       id="path1279"
       inkscape:connector-curvature="0" /><path
       d="m 62.364543,59.422314 c 0,4.14214 3.35786,7.5 7.5,7.5 4.14214,0 7.5,-3.35786 7.5,-7.5 0,-4.14214 -3.35786,-7.5 -7.5,-7.5 -4.14214,0 -7.5,3.35786 -7.5,7.5 z"
       style="fill:#5b9bd5;fill-opacity:1;fill-rule:nonzero;stroke:#2c89a0"
       id="path4225"
       inkscape:connector-curvature="0" /><path
       d="m 128.54072,108.31725 -0.24165,-2.52301 -1.03865,0.063 -2.67337,-0.28154 -2.30734,-0.72174 -2.21682,-1.04861 -4.23446,-2.60128 0.52346,-0.852 4.18797,2.57264 2.10469,0.99559 2.14615,0.67134 2.49195,0.26238 0.92102,-0.0559 -0.23503,-2.4536 6.25871,2.41431 z"
       style="fill:#41719c;fill-opacity:1;fill-rule:nonzero;stroke:none;stroke-width:1"
       id="path4481-5"
       inkscape:connector-curvature="0" /></g></svg>